<?xml version="1.0" encoding="UTF-8" standalone="no"?>
<!DOCTYPE svg PUBLIC "-//W3C//DTD SVG 1.1//EN"
 "http://www.w3.org/Graphics/SVG/1.1/DTD/svg11.dtd">
<!-- Generated by graphviz version 2.43.0 (0)
 -->
<!-- Title: src/interop/casadi/include/alpaqa/casadi/casadi&#45;external&#45;function.hpp Pages: 1 -->
<svg width="958pt" height="225pt"
 viewBox="0.00 0.00 958.00 225.00" xmlns="http://www.w3.org/2000/svg" xmlns:xlink="http://www.w3.org/1999/xlink">
<g id="graph0" class="graph" transform="scale(1 1) rotate(0) translate(4 221)">
<title>src/interop/casadi/include/alpaqa/casadi/casadi&#45;external&#45;function.hpp</title>
<!-- Node1 -->
<g id="Node000001" class="node">
<title>Node1</title>
<g id="a_Node000001"><a xlink:title=" ">
<polygon fill="#999999" stroke="#666666" points="657.5,-217 497.5,-217 497.5,-176 657.5,-176 657.5,-217"/>
<text text-anchor="start" x="505.5" y="-205" font-family="Helvetica,sans-Serif" font-size="10.00">src/interop/casadi</text>
<text text-anchor="start" x="505.5" y="-194" font-family="Helvetica,sans-Serif" font-size="10.00">/include/alpaqa/casadi</text>
<text text-anchor="middle" x="577.5" y="-183" font-family="Helvetica,sans-Serif" font-size="10.00">/casadi&#45;external&#45;function.hpp</text>
</a>
</g>
</g>
<!-- Node2 -->
<g id="Node000002" class="node">
<title>Node2</title>
<g id="a_Node000002"><a xlink:title=" ">
<polygon fill="#e0e0e0" stroke="#999999" points="119,-140 0,-140 0,-110 119,-110 119,-140"/>
<text text-anchor="start" x="8" y="-128" font-family="Helvetica,sans-Serif" font-size="10.00">alpaqa/casadi&#45;loader</text>
<text text-anchor="middle" x="59.5" y="-117" font-family="Helvetica,sans-Serif" font-size="10.00">&#45;export.h</text>
</a>
</g>
</g>
<!-- Node1&#45;&gt;Node2 -->
<g id="edge1_Node000001_Node000002" class="edge">
<title>Node1&#45;&gt;Node2</title>
<g id="a_edge1_Node000001_Node000002"><a xlink:title=" ">
<path fill="none" stroke="#63b8ff" d="M497.48,-187.02C408.42,-177.24 260.32,-159.9 133.5,-140 132.05,-139.77 130.58,-139.54 129.1,-139.3"/>
<polygon fill="#63b8ff" stroke="#63b8ff" points="129.66,-135.84 119.22,-137.63 128.5,-142.74 129.66,-135.84"/>
</a>
</g>
</g>
<!-- Node3 -->
<g id="Node000003" class="node">
<title>Node3</title>
<g id="a_Node000003"><a xlink:href="casadi-functions_8hpp.html" target="_top" xlink:title=" ">
<polygon fill="white" stroke="#666666" points="354.5,-134.5 236.5,-134.5 236.5,-115.5 354.5,-115.5 354.5,-134.5"/>
<text text-anchor="middle" x="295.5" y="-122.5" font-family="Helvetica,sans-Serif" font-size="10.00">casadi&#45;functions.hpp</text>
</a>
</g>
</g>
<!-- Node1&#45;&gt;Node3 -->
<g id="edge2_Node000001_Node000003" class="edge">
<title>Node1&#45;&gt;Node3</title>
<g id="a_edge2_Node000001_Node000003"><a xlink:title=" ">
<path fill="none" stroke="#63b8ff" d="M498.2,-175.96C446.92,-163.32 382.08,-147.34 339.74,-136.9"/>
<polygon fill="#63b8ff" stroke="#63b8ff" points="340.55,-133.5 330,-134.5 338.88,-140.29 340.55,-133.5"/>
</a>
</g>
</g>
<!-- Node4 -->
<g id="Node000004" class="node">
<title>Node4</title>
<g id="a_Node000004"><a xlink:href="casadi-namespace_8hpp.html" target="_top" xlink:title=" ">
<polygon fill="white" stroke="#666666" points="287,-19 158,-19 158,0 287,0 287,-19"/>
<text text-anchor="middle" x="222.5" y="-7" font-family="Helvetica,sans-Serif" font-size="10.00">casadi&#45;namespace.hpp</text>
</a>
</g>
</g>
<!-- Node1&#45;&gt;Node4 -->
<g id="edge11_Node000001_Node000004" class="edge">
<title>Node1&#45;&gt;Node4</title>
<g id="a_edge11_Node000001_Node000004"><a xlink:title=" ">
<path fill="none" stroke="#63b8ff" d="M497.23,-188.9C408.75,-180.56 272.94,-164.29 227.5,-140 186.49,-118.08 146.29,-96.88 166.5,-55 172.72,-42.12 184.68,-31.82 195.96,-24.38"/>
<polygon fill="#63b8ff" stroke="#63b8ff" points="198.01,-27.23 204.73,-19.04 194.37,-21.25 198.01,-27.23"/>
</a>
</g>
</g>
<!-- Node10 -->
<g id="Node000010" class="node">
<title>Node10</title>
<g id="a_Node000010"><a xlink:title=" ">
<polygon fill="#e0e0e0" stroke="#999999" points="493.5,-74 441.5,-74 441.5,-55 493.5,-55 493.5,-74"/>
<text text-anchor="middle" x="467.5" y="-62" font-family="Helvetica,sans-Serif" font-size="10.00">cassert</text>
</a>
</g>
</g>
<!-- Node1&#45;&gt;Node10 -->
<g id="edge13_Node000001_Node000010" class="edge">
<title>Node1&#45;&gt;Node10</title>
<g id="a_edge13_Node000001_Node000010"><a xlink:title=" ">
<path fill="none" stroke="#63b8ff" d="M497.32,-190.63C462.32,-184.03 424.34,-169.83 402.5,-140 394.62,-129.24 396.28,-121.79 402.5,-110 409.74,-96.27 423.33,-85.97 436.22,-78.76"/>
<polygon fill="#63b8ff" stroke="#63b8ff" points="438.09,-81.73 445.38,-74.05 434.89,-75.51 438.09,-81.73"/>
</a>
</g>
</g>
<!-- Node11 -->
<g id="Node000011" class="node">
<title>Node11</title>
<g id="a_Node000011"><a xlink:title=" ">
<polygon fill="#e0e0e0" stroke="#999999" points="530,-134.5 411,-134.5 411,-115.5 530,-115.5 530,-134.5"/>
<text text-anchor="middle" x="470.5" y="-122.5" font-family="Helvetica,sans-Serif" font-size="10.00">guanaqo/dl&#45;flags.hpp</text>
</a>
</g>
</g>
<!-- Node1&#45;&gt;Node11 -->
<g id="edge12_Node000001_Node000011" class="edge">
<title>Node1&#45;&gt;Node11</title>
<g id="a_edge12_Node000001_Node000011"><a xlink:title=" ">
<path fill="none" stroke="#63b8ff" d="M547.41,-175.96C529.84,-164.54 508.08,-150.41 492.19,-140.09"/>
<polygon fill="#63b8ff" stroke="#63b8ff" points="493.88,-137.02 483.59,-134.5 490.07,-142.89 493.88,-137.02"/>
</a>
</g>
</g>
<!-- Node12 -->
<g id="Node000012" class="node">
<title>Node12</title>
<g id="a_Node000012"><a xlink:title=" ">
<polygon fill="#e0e0e0" stroke="#999999" points="606.5,-134.5 548.5,-134.5 548.5,-115.5 606.5,-115.5 606.5,-134.5"/>
<text text-anchor="middle" x="577.5" y="-122.5" font-family="Helvetica,sans-Serif" font-size="10.00">memory</text>
</a>
</g>
</g>
<!-- Node1&#45;&gt;Node12 -->
<g id="edge14_Node000001_Node000012" class="edge">
<title>Node1&#45;&gt;Node12</title>
<g id="a_edge14_Node000001_Node000012"><a xlink:title=" ">
<path fill="none" stroke="#63b8ff" d="M577.5,-175.77C577.5,-166.08 577.5,-154.46 577.5,-144.88"/>
<polygon fill="#63b8ff" stroke="#63b8ff" points="581,-144.82 577.5,-134.82 574,-144.82 581,-144.82"/>
</a>
</g>
</g>
<!-- Node13 -->
<g id="Node000013" class="node">
<title>Node13</title>
<g id="a_Node000013"><a xlink:title=" ">
<polygon fill="#e0e0e0" stroke="#999999" points="680.5,-134.5 624.5,-134.5 624.5,-115.5 680.5,-115.5 680.5,-134.5"/>
<text text-anchor="middle" x="652.5" y="-122.5" font-family="Helvetica,sans-Serif" font-size="10.00">optional</text>
</a>
</g>
</g>
<!-- Node1&#45;&gt;Node13 -->
<g id="edge15_Node000001_Node000013" class="edge">
<title>Node1&#45;&gt;Node13</title>
<g id="a_edge15_Node000001_Node000013"><a xlink:title=" ">
<path fill="none" stroke="#63b8ff" d="M598.79,-175.77C610.39,-165.02 624.54,-151.91 635.41,-141.84"/>
<polygon fill="#63b8ff" stroke="#63b8ff" points="638.03,-144.18 642.98,-134.82 633.27,-139.05 638.03,-144.18"/>
</a>
</g>
</g>
<!-- Node14 -->
<g id="Node000014" class="node">
<title>Node14</title>
<g id="a_Node000014"><a xlink:title=" ">
<polygon fill="#e0e0e0" stroke="#999999" points="738.5,-134.5 698.5,-134.5 698.5,-115.5 738.5,-115.5 738.5,-134.5"/>
<text text-anchor="middle" x="718.5" y="-122.5" font-family="Helvetica,sans-Serif" font-size="10.00">span</text>
</a>
</g>
</g>
<!-- Node1&#45;&gt;Node14 -->
<g id="edge16_Node000001_Node000014" class="edge">
<title>Node1&#45;&gt;Node14</title>
<g id="a_edge16_Node000001_Node000014"><a xlink:title=" ">
<path fill="none" stroke="#63b8ff" d="M617.15,-175.96C641.17,-164.12 671.13,-149.35 692.23,-138.95"/>
<polygon fill="#63b8ff" stroke="#63b8ff" points="693.83,-142.06 701.25,-134.5 690.73,-135.79 693.83,-142.06"/>
</a>
</g>
</g>
<!-- Node15 -->
<g id="Node000015" class="node">
<title>Node15</title>
<g id="a_Node000015"><a xlink:title=" ">
<polygon fill="#e0e0e0" stroke="#999999" points="822,-134.5 757,-134.5 757,-115.5 822,-115.5 822,-134.5"/>
<text text-anchor="middle" x="789.5" y="-122.5" font-family="Helvetica,sans-Serif" font-size="10.00">stdexcept</text>
</a>
</g>
</g>
<!-- Node1&#45;&gt;Node15 -->
<g id="edge17_Node000001_Node000015" class="edge">
<title>Node1&#45;&gt;Node15</title>
<g id="a_edge17_Node000001_Node000015"><a xlink:title=" ">
<path fill="none" stroke="#63b8ff" d="M637.72,-175.94C670.24,-165.35 711.09,-152.01 747.5,-140 749.64,-139.3 751.83,-138.57 754.04,-137.84"/>
<polygon fill="#63b8ff" stroke="#63b8ff" points="755.36,-141.09 763.74,-134.61 753.15,-134.45 755.36,-141.09"/>
</a>
</g>
</g>
<!-- Node16 -->
<g id="Node000016" class="node">
<title>Node16</title>
<g id="a_Node000016"><a xlink:title=" ">
<polygon fill="#e0e0e0" stroke="#999999" points="885,-134.5 840,-134.5 840,-115.5 885,-115.5 885,-134.5"/>
<text text-anchor="middle" x="862.5" y="-122.5" font-family="Helvetica,sans-Serif" font-size="10.00">utility</text>
</a>
</g>
</g>
<!-- Node1&#45;&gt;Node16 -->
<g id="edge18_Node000001_Node000016" class="edge">
<title>Node1&#45;&gt;Node16</title>
<g id="a_edge18_Node000001_Node000016"><a xlink:title=" ">
<path fill="none" stroke="#63b8ff" d="M657.59,-182.44C708.18,-173.11 774.51,-158.86 831.5,-140 832.94,-139.52 834.4,-139 835.86,-138.45"/>
<polygon fill="#63b8ff" stroke="#63b8ff" points="837.48,-141.57 845.38,-134.5 834.8,-135.1 837.48,-141.57"/>
</a>
</g>
</g>
<!-- Node17 -->
<g id="Node000017" class="node">
<title>Node17</title>
<g id="a_Node000017"><a xlink:title=" ">
<polygon fill="#e0e0e0" stroke="#999999" points="950,-134.5 903,-134.5 903,-115.5 950,-115.5 950,-134.5"/>
<text text-anchor="middle" x="926.5" y="-122.5" font-family="Helvetica,sans-Serif" font-size="10.00">vector</text>
</a>
</g>
</g>
<!-- Node1&#45;&gt;Node17 -->
<g id="edge19_Node000001_Node000017" class="edge">
<title>Node1&#45;&gt;Node17</title>
<g id="a_edge19_Node000001_Node000017"><a xlink:title=" ">
<path fill="none" stroke="#63b8ff" d="M657.54,-186.86C722.38,-178.59 815.6,-163.79 894.5,-140 896.14,-139.51 897.8,-138.95 899.47,-138.36"/>
<polygon fill="#63b8ff" stroke="#63b8ff" points="900.85,-141.57 908.84,-134.62 898.26,-135.07 900.85,-141.57"/>
</a>
</g>
</g>
<!-- Node3&#45;&gt;Node4 -->
<g id="edge3_Node000003_Node000004" class="edge">
<title>Node3&#45;&gt;Node4</title>
<g id="a_edge3_Node000003_Node000004"><a xlink:title=" ">
<path fill="none" stroke="#63b8ff" d="M294.79,-115.25C293.31,-101.44 288.94,-74.18 276.5,-55 268.76,-43.05 256.79,-32.72 246.08,-25.03"/>
<polygon fill="#63b8ff" stroke="#63b8ff" points="247.75,-21.93 237.51,-19.21 243.82,-27.72 247.75,-21.93"/>
</a>
</g>
</g>
<!-- Node5 -->
<g id="Node000005" class="node">
<title>Node5</title>
<g id="a_Node000005"><a xlink:href="casadi-types_8hpp.html" target="_top" xlink:title=" ">
<polygon fill="white" stroke="#666666" points="423.5,-74 323.5,-74 323.5,-55 423.5,-55 423.5,-74"/>
<text text-anchor="middle" x="373.5" y="-62" font-family="Helvetica,sans-Serif" font-size="10.00">casadi&#45;types.hpp</text>
</a>
</g>
</g>
<!-- Node3&#45;&gt;Node5 -->
<g id="edge4_Node000003_Node000005" class="edge">
<title>Node3&#45;&gt;Node5</title>
<g id="a_edge4_Node000003_Node000005"><a xlink:title=" ">
<path fill="none" stroke="#63b8ff" d="M307.01,-115.37C319.34,-106.12 339.12,-91.28 353.91,-80.19"/>
<polygon fill="#63b8ff" stroke="#63b8ff" points="356.04,-82.97 361.94,-74.17 351.84,-77.37 356.04,-82.97"/>
</a>
</g>
</g>
<!-- Node9 -->
<g id="Node000009" class="node">
<title>Node9</title>
<g id="a_Node000009"><a xlink:title=" ">
<polygon fill="#e0e0e0" stroke="#999999" points="267.5,-74 175.5,-74 175.5,-55 267.5,-55 267.5,-74"/>
<text text-anchor="middle" x="221.5" y="-62" font-family="Helvetica,sans-Serif" font-size="10.00">guanaqo/dl.hpp</text>
</a>
</g>
</g>
<!-- Node3&#45;&gt;Node9 -->
<g id="edge9_Node000003_Node000009" class="edge">
<title>Node3&#45;&gt;Node9</title>
<g id="a_edge9_Node000003_Node000009"><a xlink:title=" ">
<path fill="none" stroke="#63b8ff" d="M284.58,-115.37C272.99,-106.21 254.47,-91.56 240.48,-80.51"/>
<polygon fill="#63b8ff" stroke="#63b8ff" points="242.48,-77.62 232.46,-74.17 238.14,-83.11 242.48,-77.62"/>
</a>
</g>
</g>
<!-- Node3&#45;&gt;Node10 -->
<g id="edge10_Node000003_Node000010" class="edge">
<title>Node3&#45;&gt;Node10</title>
<g id="a_edge10_Node000003_Node000010"><a xlink:title=" ">
<path fill="none" stroke="#63b8ff" d="M320.51,-115.49C350.06,-105.44 399.41,-88.66 432.69,-77.34"/>
<polygon fill="#63b8ff" stroke="#63b8ff" points="434.12,-80.55 442.46,-74.02 431.87,-73.92 434.12,-80.55"/>
</a>
</g>
</g>
<!-- Node5&#45;&gt;Node4 -->
<g id="edge8_Node000005_Node000004" class="edge">
<title>Node5&#45;&gt;Node4</title>
<g id="a_edge8_Node000005_Node000004"><a xlink:title=" ">
<path fill="none" stroke="#63b8ff" d="M349.24,-54.98C324.18,-46.19 284.87,-32.39 256.67,-22.49"/>
<polygon fill="#63b8ff" stroke="#63b8ff" points="257.8,-19.18 247.2,-19.17 255.48,-25.78 257.8,-19.18"/>
</a>
</g>
</g>
<!-- Node6 -->
<g id="Node000006" class="node">
<title>Node6</title>
<g id="a_Node000006"><a xlink:title=" ">
<polygon fill="#e0e0e0" stroke="#999999" points="369.5,-19 305.5,-19 305.5,0 369.5,0 369.5,-19"/>
<text text-anchor="middle" x="337.5" y="-7" font-family="Helvetica,sans-Serif" font-size="10.00">algorithm</text>
</a>
</g>
</g>
<!-- Node5&#45;&gt;Node6 -->
<g id="edge5_Node000005_Node000006" class="edge">
<title>Node5&#45;&gt;Node6</title>
<g id="a_edge5_Node000005_Node000006"><a xlink:title=" ">
<path fill="none" stroke="#63b8ff" d="M367.56,-54.75C362.52,-47.34 355.16,-36.5 348.99,-27.41"/>
<polygon fill="#63b8ff" stroke="#63b8ff" points="351.85,-25.39 343.33,-19.09 346.06,-29.33 351.85,-25.39"/>
</a>
</g>
</g>
<!-- Node7 -->
<g id="Node000007" class="node">
<title>Node7</title>
<g id="a_Node000007"><a xlink:title=" ">
<polygon fill="#e0e0e0" stroke="#999999" points="429.5,-19 387.5,-19 387.5,0 429.5,0 429.5,-19"/>
<text text-anchor="middle" x="408.5" y="-7" font-family="Helvetica,sans-Serif" font-size="10.00">array</text>
</a>
</g>
</g>
<!-- Node5&#45;&gt;Node7 -->
<g id="edge6_Node000005_Node000007" class="edge">
<title>Node5&#45;&gt;Node7</title>
<g id="a_edge6_Node000005_Node000007"><a xlink:title=" ">
<path fill="none" stroke="#63b8ff" d="M379.28,-54.75C384.12,-47.42 391.18,-36.73 397.14,-27.7"/>
<polygon fill="#63b8ff" stroke="#63b8ff" points="400.24,-29.36 402.83,-19.09 394.4,-25.5 400.24,-29.36"/>
</a>
</g>
</g>
<!-- Node8 -->
<g id="Node000008" class="node">
<title>Node8</title>
<g id="a_Node000008"><a xlink:title=" ">
<polygon fill="#e0e0e0" stroke="#999999" points="491.5,-19 447.5,-19 447.5,0 491.5,0 491.5,-19"/>
<text text-anchor="middle" x="469.5" y="-7" font-family="Helvetica,sans-Serif" font-size="10.00">string</text>
</a>
</g>
</g>
<!-- Node5&#45;&gt;Node8 -->
<g id="edge7_Node000005_Node000008" class="edge">
<title>Node5&#45;&gt;Node8</title>
<g id="a_edge7_Node000005_Node000008"><a xlink:title=" ">
<path fill="none" stroke="#63b8ff" d="M388.92,-54.98C403.95,-46.69 427.04,-33.94 444.66,-24.22"/>
<polygon fill="#63b8ff" stroke="#63b8ff" points="446.73,-27.07 453.8,-19.17 443.35,-20.94 446.73,-27.07"/>
</a>
</g>
</g>
</g>
</svg>
