<?xml version="1.0" encoding="UTF-8" standalone="no"?>
<!DOCTYPE svg PUBLIC "-//W3C//DTD SVG 1.1//EN"
 "http://www.w3.org/Graphics/SVG/1.1/DTD/svg11.dtd">
<!-- Generated by graphviz version 2.43.0 (0)
 -->
<!-- Title: default_get_augmented_lagrangian_hessian_sparsity Pages: 1 -->
<svg width="459pt" height="59pt"
 viewBox="0.00 0.00 459.00 59.00" xmlns="http://www.w3.org/2000/svg" xmlns:xlink="http://www.w3.org/1999/xlink">
<g id="graph0" class="graph" transform="scale(1 1) rotate(0) translate(4 55)">
<title>default_get_augmented_lagrangian_hessian_sparsity</title>
<!-- Node1 -->
<g id="Node000001" class="node">
<title>Node1</title>
<g id="a_Node000001"><a xlink:title=" ">
<polygon fill="#999999" stroke="#666666" points="161,-51 0,-51 0,-21 161,-21 161,-51"/>
<text text-anchor="start" x="8" y="-39" font-family="Helvetica,sans-Serif" font-size="10.00">default_get_augmented</text>
<text text-anchor="middle" x="80.5" y="-28" font-family="Helvetica,sans-Serif" font-size="10.00">_lagrangian_hessian_sparsity</text>
</a>
</g>
</g>
<!-- Node2 -->
<g id="Node000002" class="node">
<title>Node2</title>
<g id="a_Node000002"><a xlink:href="structalpaqa_1_1ProblemVTable.html#a3a808b739e639ca76982c2a93fffa2fc" target="_top" xlink:title=" ">
<polygon fill="white" stroke="#666666" points="451,-45.5 362,-45.5 362,-26.5 451,-26.5 451,-45.5"/>
<text text-anchor="middle" x="406.5" y="-33.5" font-family="Helvetica,sans-Serif" font-size="10.00">ProblemVTable</text>
</a>
</g>
</g>
<!-- Node1&#45;&gt;Node2 -->
<g id="edge1_Node000001_Node000002" class="edge">
<title>Node1&#45;&gt;Node2</title>
<g id="a_edge1_Node000001_Node000002"><a xlink:title=" ">
<path fill="none" stroke="#63b8ff" d="M161.02,-38.34C173.08,-38.61 185.37,-38.85 197,-39 254.33,-39.74 268.68,-40.08 326,-39 334.25,-38.84 342.97,-38.6 351.5,-38.31"/>
<polygon fill="#63b8ff" stroke="#63b8ff" points="351.9,-41.8 361.77,-37.95 351.65,-34.8 351.9,-41.8"/>
</a>
</g>
</g>
<!-- Node3 -->
<g id="Node000003" class="node">
<title>Node3</title>
<g id="a_Node000003"><a xlink:href="structalpaqa_1_1ProblemVTable.html#a141f652b6cff4753dd9bb007214f53d6" target="_top" xlink:title=" ">
<polygon fill="white" stroke="#666666" points="326,-30 197,-30 197,0 326,0 326,-30"/>
<text text-anchor="start" x="205" y="-18" font-family="Helvetica,sans-Serif" font-size="10.00">default_get_lagrangian</text>
<text text-anchor="middle" x="261.5" y="-7" font-family="Helvetica,sans-Serif" font-size="10.00">_hessian_sparsity</text>
</a>
</g>
</g>
<!-- Node1&#45;&gt;Node3 -->
<g id="edge2_Node000001_Node000003" class="edge">
<title>Node1&#45;&gt;Node3</title>
<g id="a_edge2_Node000001_Node000003"><a xlink:title=" ">
<path fill="none" stroke="#63b8ff" d="M161.05,-26.67C169.55,-25.67 178.17,-24.66 186.6,-23.67"/>
<polygon fill="#63b8ff" stroke="#63b8ff" points="187.24,-27.12 196.76,-22.48 186.42,-20.17 187.24,-27.12"/>
</a>
</g>
</g>
<!-- Node3&#45;&gt;Node2 -->
<g id="edge3_Node000003_Node000002" class="edge">
<title>Node3&#45;&gt;Node2</title>
<g id="a_edge3_Node000003_Node000002"><a xlink:title=" ">
<path fill="none" stroke="#63b8ff" d="M326.05,-24.33C334.65,-25.59 343.39,-26.88 351.79,-28.11"/>
<polygon fill="#63b8ff" stroke="#63b8ff" points="351.42,-31.6 361.82,-29.59 352.44,-24.67 351.42,-31.6"/>
</a>
</g>
</g>
</g>
</svg>
