<?xml version="1.0" encoding="UTF-8" standalone="no"?>
<!DOCTYPE svg PUBLIC "-//W3C//DTD SVG 1.1//EN"
 "http://www.w3.org/Graphics/SVG/1.1/DTD/svg11.dtd">
<!-- Generated by graphviz version 2.43.0 (0)
 -->
<!-- Title: src/interop/casadi/include/alpaqa/casadi/CasADiFunctionWrapper.hpp Pages: 1 -->
<!--zoomable 302 -->

<svg id="main" version="1.1" xmlns="http://www.w3.org/2000/svg" xmlns:xlink="http://www.w3.org/1999/xlink" xml:space="preserve" onload="init(evt)">
<style type="text/css"><![CDATA[
.node, .edge {opacity: 0.7;}
.node.selected, .edge.selected {opacity: 1;}
.edge:hover path { stroke: red; }
.edge:hover polygon { stroke: red; fill: red; }
]]></style>

<defs>
  <circle id="rim" cx="0" cy="0" r="7"/>
  <circle id="rim2" cx="0" cy="0" r="3.5"/>
  <g id="zoomPlus">
    <use xlink:href="#rim" fill="#404040"><set attributeName="fill" to="#808080" begin="zoomplus.mouseover" end="zoomplus.mouseout"/></use>
    <path d="M-4,0h8M0,-4v8" fill="none" stroke="white" stroke-width="1.5" pointer-events="none"/>
  </g>
  <g id="zoomMin">
    <use xlink:href="#rim" fill="#404040"><set attributeName="fill" to="#808080" begin="zoomminus.mouseover" end="zoomminus.mouseout"/></use>
    <path d="M-4,0h8" fill="none" stroke="white" stroke-width="1.5" pointer-events="none"/>
  </g>
  <g id="arrowUp" transform="translate(30 24)">
    <use xlink:href="#rim"/>
    <path pointer-events="none" fill="none" stroke="white" stroke-width="1.5" d="M0,-3.0v7 M-2.5,-0.5L0,-3.0L2.5,-0.5"/>
  </g>
  <g id="arrowRight" transform="rotate(90) translate(36 -43)">
    <use xlink:href="#rim"/>
    <path pointer-events="none" fill="none" stroke="white" stroke-width="1.5" d="M0,-3.0v7 M-2.5,-0.5L0,-3.0L2.5,-0.5"/>
  </g>
  <g id="arrowDown" transform="rotate(180) translate(-30 -48)">
    <use xlink:href="#rim"/>
    <path pointer-events="none" fill="none" stroke="white" stroke-width="1.5" d="M0,-3.0v7 M-2.5,-0.5L0,-3.0L2.5,-0.5"/>
  </g>
  <g id="arrowLeft" transform="rotate(270) translate(-36 17)">
    <use xlink:href="#rim"/>
    <path pointer-events="none" fill="none" stroke="white" stroke-width="1.5" d="M0,-3.0v7 M-2.5,-0.5L0,-3.0L2.5,-0.5"/>
  </g>
  <g id="resetDef">
    <use xlink:href="#rim2" fill="#404040"><set attributeName="fill" to="#808080" begin="reset.mouseover" end="reset.mouseout"/></use>
  </g>
</defs>
<script type="application/ecmascript">
var viewWidth = 1340;
var viewHeight = 302;
var sectionId = 'dynsection-0';
</script>
<script type="application/ecmascript" xlink:href="svg.min.js"/>
<svg id="graph" class="graph">
<g id="viewport">
<title>src/interop/casadi/include/alpaqa/casadi/CasADiFunctionWrapper.hpp</title>
<!-- Node1 -->
<g id="Node000001" class="node">
<title>Node1</title>
<g id="a_Node000001"><a xlink:title=" ">
<polygon fill="#999999" stroke="#666666" points="455,-294 297,-294 297,-253 455,-253 455,-294"/>
<text text-anchor="start" x="305" y="-282" font-family="Helvetica,sans-Serif" font-size="10.00">src/interop/casadi</text>
<text text-anchor="start" x="305" y="-271" font-family="Helvetica,sans-Serif" font-size="10.00">/include/alpaqa/casadi</text>
<text text-anchor="middle" x="376" y="-260" font-family="Helvetica,sans-Serif" font-size="10.00">/CasADiFunctionWrapper.hpp</text>
</a>
</g>
</g>
<!-- Node2 -->
<g id="Node000002" class="node">
<title>Node2</title>
<g id="a_Node000002"><a xlink:title=" ">
<polygon fill="#e0e0e0" stroke="#999999" points="150.5,-151 31.5,-151 31.5,-121 150.5,-121 150.5,-151"/>
<text text-anchor="start" x="39.5" y="-139" font-family="Helvetica,sans-Serif" font-size="10.00">alpaqa/casadi&#45;loader</text>
<text text-anchor="middle" x="91" y="-128" font-family="Helvetica,sans-Serif" font-size="10.00">&#45;export.h</text>
</a>
</g>
</g>
<!-- Node1&#45;&gt;Node2 -->
<g id="edge1_Node000001_Node000002" class="edge">
<title>Node1&#45;&gt;Node2</title>
<g id="a_edge1_Node000001_Node000002"><a xlink:title=" ">
<path fill="none" stroke="#63b8ff" d="M334.86,-252.94C280.04,-226.88 183.72,-181.08 130,-155.54"/>
<polygon fill="#63b8ff" stroke="#63b8ff" points="131.33,-152.3 120.8,-151.17 128.33,-158.62 131.33,-152.3"/>
</a>
</g>
</g>
<!-- Node3 -->
<g id="Node000003" class="node">
<title>Node3</title>
<g id="a_Node000003"><a xlink:href="casadi-namespace_8hpp.html" target="_top" xlink:title=" ">
<polygon fill="white" stroke="#666666" points="238.5,-30 119.5,-30 119.5,0 238.5,0 238.5,-30"/>
<text text-anchor="start" x="127.5" y="-18" font-family="Helvetica,sans-Serif" font-size="10.00">alpaqa/casadi/casadi</text>
<text text-anchor="middle" x="179" y="-7" font-family="Helvetica,sans-Serif" font-size="10.00">&#45;namespace.hpp</text>
</a>
</g>
</g>
<!-- Node1&#45;&gt;Node3 -->
<g id="edge2_Node000001_Node000003" class="edge">
<title>Node1&#45;&gt;Node3</title>
<g id="a_edge2_Node000001_Node000003"><a xlink:title=" ">
<path fill="none" stroke="#63b8ff" d="M296.69,-270.81C212.36,-264.2 82.9,-239.24 22,-151 -13.11,-100.13 69.75,-56.7 127.97,-33.66"/>
<polygon fill="#63b8ff" stroke="#63b8ff" points="129.37,-36.87 137.43,-30 126.84,-30.34 129.37,-36.87"/>
</a>
</g>
</g>
<!-- Node4 -->
<g id="Node000004" class="node">
<title>Node4</title>
<g id="a_Node000004"><a xlink:href="config_8hpp.html" target="_top" xlink:title=" ">
<polygon fill="white" stroke="#666666" points="1111.5,-211.5 976.5,-211.5 976.5,-192.5 1111.5,-192.5 1111.5,-211.5"/>
<text text-anchor="middle" x="1044" y="-199.5" font-family="Helvetica,sans-Serif" font-size="10.00">alpaqa/config/config.hpp</text>
</a>
</g>
</g>
<!-- Node1&#45;&gt;Node4 -->
<g id="edge3_Node000001_Node000004" class="edge">
<title>Node1&#45;&gt;Node4</title>
<g id="a_edge3_Node000001_Node000004"><a xlink:title=" ">
<path fill="none" stroke="#63b8ff" d="M455.25,-264.25C584.29,-250.83 838.24,-224.41 966.28,-211.09"/>
<polygon fill="#63b8ff" stroke="#63b8ff" points="966.82,-214.55 976.41,-210.03 966.1,-207.59 966.82,-214.55"/>
</a>
</g>
</g>
<!-- Node11 -->
<g id="Node000011" class="node">
<title>Node11</title>
<g id="a_Node000011"><a xlink:title=" ">
<polygon fill="#e0e0e0" stroke="#999999" points="761.5,-24.5 696.5,-24.5 696.5,-5.5 761.5,-5.5 761.5,-24.5"/>
<text text-anchor="middle" x="729" y="-12.5" font-family="Helvetica,sans-Serif" font-size="10.00">stdexcept</text>
</a>
</g>
</g>
<!-- Node1&#45;&gt;Node11 -->
<g id="edge10_Node000001_Node000011" class="edge">
<title>Node1&#45;&gt;Node11</title>
<g id="a_edge10_Node000001_Node000011"><a xlink:title=" ">
<path fill="none" stroke="#63b8ff" d="M455.28,-266.73C532.84,-256.54 647.94,-228.44 709,-151 735.69,-117.15 734.54,-63.23 731.65,-34.86"/>
<polygon fill="#63b8ff" stroke="#63b8ff" points="735.1,-34.22 730.42,-24.71 728.15,-35.06 735.1,-34.22"/>
</a>
</g>
</g>
<!-- Node12 -->
<g id="Node000012" class="node">
<title>Node12</title>
<g id="a_Node000012"><a xlink:title=" ">
<polygon fill="#e0e0e0" stroke="#999999" points="44,-24.5 0,-24.5 0,-5.5 44,-5.5 44,-24.5"/>
<text text-anchor="middle" x="22" y="-12.5" font-family="Helvetica,sans-Serif" font-size="10.00">string</text>
</a>
</g>
</g>
<!-- Node1&#45;&gt;Node12 -->
<g id="edge11_Node000001_Node000012" class="edge">
<title>Node1&#45;&gt;Node12</title>
<g id="a_edge11_Node000001_Node000012"><a xlink:title=" ">
<path fill="none" stroke="#63b8ff" d="M296.85,-266.44C213.87,-258.79 90.19,-243.35 51,-217 22.34,-197.73 19.47,-184.21 10,-151 -1.52,-110.61 8.86,-60.91 16.2,-34.52"/>
<polygon fill="#63b8ff" stroke="#63b8ff" points="19.61,-35.32 19.09,-24.73 12.9,-33.33 19.61,-35.32"/>
</a>
</g>
</g>
<!-- Node13 -->
<g id="Node000013" class="node">
<title>Node13</title>
<g id="a_Node000013"><a xlink:title=" ">
<polygon fill="#e0e0e0" stroke="#999999" points="700.5,-145.5 653.5,-145.5 653.5,-126.5 700.5,-126.5 700.5,-145.5"/>
<text text-anchor="middle" x="677" y="-133.5" font-family="Helvetica,sans-Serif" font-size="10.00">vector</text>
</a>
</g>
</g>
<!-- Node1&#45;&gt;Node13 -->
<g id="edge12_Node000001_Node000013" class="edge">
<title>Node1&#45;&gt;Node13</title>
<g id="a_edge12_Node000001_Node000013"><a xlink:title=" ">
<path fill="none" stroke="#63b8ff" d="M419.45,-252.94C482,-224.78 595.72,-173.59 648.58,-149.8"/>
<polygon fill="#63b8ff" stroke="#63b8ff" points="650.33,-152.85 658.01,-145.55 647.45,-146.46 650.33,-152.85"/>
</a>
</g>
</g>
<!-- Node14 -->
<g id="Node000014" class="node">
<title>Node14</title>
<g id="a_Node000014"><a xlink:href="casadi-external-function_8hpp.html" target="_top" xlink:title=" ">
<polygon fill="white" stroke="#666666" points="438.5,-217 313.5,-217 313.5,-187 438.5,-187 438.5,-217"/>
<text text-anchor="start" x="321.5" y="-205" font-family="Helvetica,sans-Serif" font-size="10.00">alpaqa/casadi/casadi</text>
<text text-anchor="middle" x="376" y="-194" font-family="Helvetica,sans-Serif" font-size="10.00">&#45;external&#45;function.hpp</text>
</a>
</g>
</g>
<!-- Node1&#45;&gt;Node14 -->
<g id="edge13_Node000001_Node000014" class="edge">
<title>Node1&#45;&gt;Node14</title>
<g id="a_edge13_Node000001_Node000014"><a xlink:title=" ">
<path fill="none" stroke="#63b8ff" d="M376,-252.77C376,-244.85 376,-235.63 376,-227.3"/>
<polygon fill="#63b8ff" stroke="#63b8ff" points="379.5,-227.04 376,-217.04 372.5,-227.04 379.5,-227.04"/>
</a>
</g>
</g>
<!-- Node5 -->
<g id="Node000005" class="node">
<title>Node5</title>
<g id="a_Node000005"><a xlink:href="quadmath-print_8hpp.html" target="_top" xlink:title=" ">
<polygon fill="white" stroke="#666666" points="965.5,-151 844.5,-151 844.5,-121 965.5,-121 965.5,-151"/>
<text text-anchor="start" x="852.5" y="-139" font-family="Helvetica,sans-Serif" font-size="10.00">alpaqa/util/quadmath</text>
<text text-anchor="middle" x="905" y="-128" font-family="Helvetica,sans-Serif" font-size="10.00">/quadmath&#45;print.hpp</text>
</a>
</g>
</g>
<!-- Node4&#45;&gt;Node5 -->
<g id="edge4_Node000004_Node000005" class="edge">
<title>Node4&#45;&gt;Node5</title>
<g id="a_edge4_Node000004_Node000005"><a xlink:title=" ">
<path fill="none" stroke="#63b8ff" d="M1025.25,-192.37C1004.79,-182.95 971.43,-167.59 945.03,-155.43"/>
<polygon fill="#63b8ff" stroke="#63b8ff" points="946.2,-152.12 935.66,-151.12 943.28,-158.48 946.2,-152.12"/>
</a>
</g>
</g>
<!-- Node6 -->
<g id="Node000006" class="node">
<title>Node6</title>
<g id="a_Node000006"><a xlink:href="quadmath_8hpp.html" target="_top" xlink:title=" ">
<polygon fill="white" stroke="#666666" points="1104.5,-151 983.5,-151 983.5,-121 1104.5,-121 1104.5,-151"/>
<text text-anchor="start" x="991.5" y="-139" font-family="Helvetica,sans-Serif" font-size="10.00">alpaqa/util/quadmath</text>
<text text-anchor="middle" x="1044" y="-128" font-family="Helvetica,sans-Serif" font-size="10.00">/quadmath.hpp</text>
</a>
</g>
</g>
<!-- Node4&#45;&gt;Node6 -->
<g id="edge5_Node000004_Node000006" class="edge">
<title>Node4&#45;&gt;Node6</title>
<g id="a_edge5_Node000004_Node000006"><a xlink:title=" ">
<path fill="none" stroke="#63b8ff" d="M1044,-192.37C1044,-184.49 1044,-172.45 1044,-161.6"/>
<polygon fill="#63b8ff" stroke="#63b8ff" points="1047.5,-161.36 1044,-151.36 1040.5,-161.36 1047.5,-161.36"/>
</a>
</g>
</g>
<!-- Node7 -->
<g id="Node000007" class="node">
<title>Node7</title>
<g id="a_Node000007"><a xlink:title=" ">
<polygon fill="#e0e0e0" stroke="#999999" points="1181.5,-145.5 1122.5,-145.5 1122.5,-126.5 1181.5,-126.5 1181.5,-145.5"/>
<text text-anchor="middle" x="1152" y="-133.5" font-family="Helvetica,sans-Serif" font-size="10.00">complex</text>
</a>
</g>
</g>
<!-- Node4&#45;&gt;Node7 -->
<g id="edge6_Node000004_Node000007" class="edge">
<title>Node4&#45;&gt;Node7</title>
<g id="a_edge6_Node000004_Node000007"><a xlink:title=" ">
<path fill="none" stroke="#63b8ff" d="M1058.57,-192.37C1076.52,-181.73 1107.27,-163.51 1128.56,-150.89"/>
<polygon fill="#63b8ff" stroke="#63b8ff" points="1130.5,-153.81 1137.32,-145.7 1126.93,-147.79 1130.5,-153.81"/>
</a>
</g>
</g>
<!-- Node8 -->
<g id="Node000008" class="node">
<title>Node8</title>
<g id="a_Node000008"><a xlink:title=" ">
<polygon fill="#e0e0e0" stroke="#999999" points="1244,-145.5 1200,-145.5 1200,-126.5 1244,-126.5 1244,-145.5"/>
<text text-anchor="middle" x="1222" y="-133.5" font-family="Helvetica,sans-Serif" font-size="10.00">limits</text>
</a>
</g>
</g>
<!-- Node4&#45;&gt;Node8 -->
<g id="edge7_Node000004_Node000008" class="edge">
<title>Node4&#45;&gt;Node8</title>
<g id="a_edge7_Node000004_Node000008"><a xlink:title=" ">
<path fill="none" stroke="#63b8ff" d="M1071.65,-192.47C1101.41,-183.09 1150.01,-167.19 1191,-151 1192.17,-150.54 1193.37,-150.05 1194.57,-149.56"/>
<polygon fill="#63b8ff" stroke="#63b8ff" points="1195.97,-152.76 1203.77,-145.59 1193.2,-146.34 1195.97,-152.76"/>
</a>
</g>
</g>
<!-- Node9 -->
<g id="Node000009" class="node">
<title>Node9</title>
<g id="a_Node000009"><a xlink:title=" ">
<polygon fill="#e0e0e0" stroke="#999999" points="1331.5,-145.5 1262.5,-145.5 1262.5,-126.5 1331.5,-126.5 1331.5,-145.5"/>
<text text-anchor="middle" x="1297" y="-133.5" font-family="Helvetica,sans-Serif" font-size="10.00">type_traits</text>
</a>
</g>
</g>
<!-- Node4&#45;&gt;Node9 -->
<g id="edge8_Node000004_Node000009" class="edge">
<title>Node4&#45;&gt;Node9</title>
<g id="a_edge8_Node000004_Node000009"><a xlink:title=" ">
<path fill="none" stroke="#63b8ff" d="M1083.51,-192.45C1125.7,-183.12 1194.41,-167.3 1253,-151 1255.75,-150.23 1258.59,-149.41 1261.44,-148.56"/>
<polygon fill="#63b8ff" stroke="#63b8ff" points="1262.51,-151.89 1271.04,-145.61 1260.45,-145.2 1262.51,-151.89"/>
</a>
</g>
</g>
<!-- Node10 -->
<g id="Node000010" class="node">
<title>Node10</title>
<g id="a_Node000010"><a xlink:title=" ">
<polygon fill="#e0e0e0" stroke="#999999" points="826.5,-145.5 757.5,-145.5 757.5,-126.5 826.5,-126.5 826.5,-145.5"/>
<text text-anchor="middle" x="792" y="-133.5" font-family="Helvetica,sans-Serif" font-size="10.00">Eigen/Core</text>
</a>
</g>
</g>
<!-- Node4&#45;&gt;Node10 -->
<g id="edge9_Node000004_Node000010" class="edge">
<title>Node4&#45;&gt;Node10</title>
<g id="a_edge9_Node000004_Node000010"><a xlink:title=" ">
<path fill="none" stroke="#63b8ff" d="M1004.68,-192.44C962.69,-183.09 894.31,-167.26 836,-151 833.25,-150.23 830.41,-149.41 827.57,-148.56"/>
<polygon fill="#63b8ff" stroke="#63b8ff" points="828.55,-145.2 817.96,-145.6 826.49,-151.89 828.55,-145.2"/>
</a>
</g>
</g>
<!-- Node14&#45;&gt;Node2 -->
<g id="edge14_Node000014_Node000002" class="edge">
<title>Node14&#45;&gt;Node2</title>
<g id="a_edge14_Node000014_Node000002"><a xlink:title=" ">
<path fill="none" stroke="#63b8ff" d="M313.46,-186.95C268.42,-176.84 207.64,-163.19 160.99,-152.72"/>
<polygon fill="#63b8ff" stroke="#63b8ff" points="161.48,-149.24 150.96,-150.46 159.95,-156.07 161.48,-149.24"/>
</a>
</g>
</g>
<!-- Node14&#45;&gt;Node3 -->
<g id="edge27_Node000014_Node000003" class="edge">
<title>Node14&#45;&gt;Node3</title>
<g id="a_edge27_Node000014_Node000003"><a xlink:title=" ">
<path fill="none" stroke="#63b8ff" d="M313.41,-199.91C274.46,-195.74 226.52,-183.62 198,-151 171.22,-120.37 171.84,-70.01 175.13,-40.22"/>
<polygon fill="#63b8ff" stroke="#63b8ff" points="178.61,-40.62 176.42,-30.26 171.67,-39.72 178.61,-40.62"/>
</a>
</g>
</g>
<!-- Node14&#45;&gt;Node11 -->
<g id="edge32_Node000014_Node000011" class="edge">
<title>Node14&#45;&gt;Node11</title>
<g id="a_edge32_Node000014_Node000011"><a xlink:title=" ">
<path fill="none" stroke="#63b8ff" d="M438.74,-191.76C496.72,-182.44 577.99,-167.15 606,-151 632.74,-135.58 689.95,-65.53 715.82,-32.87"/>
<polygon fill="#63b8ff" stroke="#63b8ff" points="718.8,-34.74 722.23,-24.72 713.3,-30.41 718.8,-34.74"/>
</a>
</g>
</g>
<!-- Node14&#45;&gt;Node13 -->
<g id="edge34_Node000014_Node000013" class="edge">
<title>Node14&#45;&gt;Node13</title>
<g id="a_edge34_Node000014_Node000013"><a xlink:title=" ">
<path fill="none" stroke="#63b8ff" d="M438.57,-192.09C492.28,-183.73 571.48,-169.72 639,-151 641.29,-150.37 643.63,-149.66 645.98,-148.9"/>
<polygon fill="#63b8ff" stroke="#63b8ff" points="647.18,-152.19 655.5,-145.62 644.9,-145.57 647.18,-152.19"/>
</a>
</g>
</g>
<!-- Node15 -->
<g id="Node000015" class="node">
<title>Node15</title>
<g id="a_Node000015"><a xlink:href="casadi-functions_8hpp.html" target="_top" xlink:title=" ">
<polygon fill="white" stroke="#666666" points="485,-145.5 367,-145.5 367,-126.5 485,-126.5 485,-145.5"/>
<text text-anchor="middle" x="426" y="-133.5" font-family="Helvetica,sans-Serif" font-size="10.00">casadi&#45;functions.hpp</text>
</a>
</g>
</g>
<!-- Node14&#45;&gt;Node15 -->
<g id="edge15_Node000014_Node000015" class="edge">
<title>Node14&#45;&gt;Node15</title>
<g id="a_edge15_Node000014_Node000015"><a xlink:title=" ">
<path fill="none" stroke="#63b8ff" d="M387.1,-186.8C394.66,-177.11 404.72,-164.24 412.71,-154.01"/>
<polygon fill="#63b8ff" stroke="#63b8ff" points="415.69,-155.88 419.09,-145.84 410.18,-151.57 415.69,-155.88"/>
</a>
</g>
</g>
<!-- Node22 -->
<g id="Node000022" class="node">
<title>Node22</title>
<g id="a_Node000022"><a xlink:title=" ">
<polygon fill="#e0e0e0" stroke="#999999" points="480,-24.5 422,-24.5 422,-5.5 480,-5.5 480,-24.5"/>
<text text-anchor="middle" x="451" y="-12.5" font-family="Helvetica,sans-Serif" font-size="10.00">memory</text>
</a>
</g>
</g>
<!-- Node14&#45;&gt;Node22 -->
<g id="edge29_Node000014_Node000022" class="edge">
<title>Node14&#45;&gt;Node22</title>
<g id="a_edge29_Node000014_Node000022"><a xlink:title=" ">
<path fill="none" stroke="#63b8ff" d="M438.5,-189.24C459.77,-181.93 481.35,-170.11 494,-151 506.99,-131.39 476.56,-65.7 460.34,-33.75"/>
<polygon fill="#63b8ff" stroke="#63b8ff" points="463.35,-31.95 455.65,-24.67 457.13,-35.16 463.35,-31.95"/>
</a>
</g>
</g>
<!-- Node23 -->
<g id="Node000023" class="node">
<title>Node23</title>
<g id="a_Node000023"><a xlink:title=" ">
<polygon fill="#e0e0e0" stroke="#999999" points="301,-85 249,-85 249,-66 301,-66 301,-85"/>
<text text-anchor="middle" x="275" y="-73" font-family="Helvetica,sans-Serif" font-size="10.00">cassert</text>
</a>
</g>
</g>
<!-- Node14&#45;&gt;Node23 -->
<g id="edge28_Node000014_Node000023" class="edge">
<title>Node14&#45;&gt;Node23</title>
<g id="a_edge28_Node000014_Node000023"><a xlink:title=" ">
<path fill="none" stroke="#63b8ff" d="M340.4,-186.87C324.03,-178.68 305.69,-166.82 294,-151 282,-134.76 277.55,-111.7 275.91,-95.55"/>
<polygon fill="#63b8ff" stroke="#63b8ff" points="279.38,-94.92 275.15,-85.21 272.39,-95.43 279.38,-94.92"/>
</a>
</g>
</g>
<!-- Node24 -->
<g id="Node000024" class="node">
<title>Node24</title>
<g id="a_Node000024"><a xlink:title=" ">
<polygon fill="#e0e0e0" stroke="#999999" points="597,-145.5 541,-145.5 541,-126.5 597,-126.5 597,-145.5"/>
<text text-anchor="middle" x="569" y="-133.5" font-family="Helvetica,sans-Serif" font-size="10.00">optional</text>
</a>
</g>
</g>
<!-- Node14&#45;&gt;Node24 -->
<g id="edge30_Node000014_Node000024" class="edge">
<title>Node14&#45;&gt;Node24</title>
<g id="a_edge30_Node000014_Node000024"><a xlink:title=" ">
<path fill="none" stroke="#63b8ff" d="M418.64,-186.91C448.89,-176.9 490.44,-163.15 527,-151 529.13,-150.29 531.33,-149.56 533.54,-148.83"/>
<polygon fill="#63b8ff" stroke="#63b8ff" points="534.86,-152.08 543.24,-145.6 532.64,-145.44 534.86,-152.08"/>
</a>
</g>
</g>
<!-- Node25 -->
<g id="Node000025" class="node">
<title>Node25</title>
<g id="a_Node000025"><a xlink:title=" ">
<polygon fill="#e0e0e0" stroke="#999999" points="247,-145.5 207,-145.5 207,-126.5 247,-126.5 247,-145.5"/>
<text text-anchor="middle" x="227" y="-133.5" font-family="Helvetica,sans-Serif" font-size="10.00">span</text>
</a>
</g>
</g>
<!-- Node14&#45;&gt;Node25 -->
<g id="edge31_Node000014_Node000025" class="edge">
<title>Node14&#45;&gt;Node25</title>
<g id="a_edge31_Node000014_Node000025"><a xlink:title=" ">
<path fill="none" stroke="#63b8ff" d="M343.3,-186.95C317.29,-175.78 281.22,-160.29 256.17,-149.53"/>
<polygon fill="#63b8ff" stroke="#63b8ff" points="257.4,-146.25 246.83,-145.52 254.64,-152.68 257.4,-146.25"/>
</a>
</g>
</g>
<!-- Node26 -->
<g id="Node000026" class="node">
<title>Node26</title>
<g id="a_Node000026"><a xlink:title=" ">
<polygon fill="#e0e0e0" stroke="#999999" points="348.5,-145.5 303.5,-145.5 303.5,-126.5 348.5,-126.5 348.5,-145.5"/>
<text text-anchor="middle" x="326" y="-133.5" font-family="Helvetica,sans-Serif" font-size="10.00">utility</text>
</a>
</g>
</g>
<!-- Node14&#45;&gt;Node26 -->
<g id="edge33_Node000014_Node000026" class="edge">
<title>Node14&#45;&gt;Node26</title>
<g id="a_edge33_Node000014_Node000026"><a xlink:title=" ">
<path fill="none" stroke="#63b8ff" d="M364.9,-186.8C357.34,-177.11 347.28,-164.24 339.29,-154.01"/>
<polygon fill="#63b8ff" stroke="#63b8ff" points="341.82,-151.57 332.91,-145.84 336.31,-155.88 341.82,-151.57"/>
</a>
</g>
</g>
<!-- Node16 -->
<g id="Node000016" class="node">
<title>Node16</title>
<g id="a_Node000016"><a xlink:href="casadi-types_8hpp.html" target="_top" xlink:title=" ">
<polygon fill="white" stroke="#666666" points="419,-85 319,-85 319,-66 419,-66 419,-85"/>
<text text-anchor="middle" x="369" y="-73" font-family="Helvetica,sans-Serif" font-size="10.00">casadi&#45;types.hpp</text>
</a>
</g>
</g>
<!-- Node15&#45;&gt;Node16 -->
<g id="edge16_Node000015_Node000016" class="edge">
<title>Node15&#45;&gt;Node16</title>
<g id="a_edge16_Node000015_Node000016"><a xlink:title=" ">
<path fill="none" stroke="#63b8ff" d="M417.59,-126.37C408.92,-117.47 395.2,-103.39 384.54,-92.45"/>
<polygon fill="#63b8ff" stroke="#63b8ff" points="386.93,-89.89 377.45,-85.17 381.92,-94.77 386.93,-89.89"/>
</a>
</g>
</g>
<!-- Node19 -->
<g id="Node000019" class="node">
<title>Node19</title>
<g id="a_Node000019"><a xlink:href="dl_8hpp.html" target="_top" xlink:title=" ">
<polygon fill="white" stroke="#666666" points="596.5,-85 495.5,-85 495.5,-66 596.5,-66 596.5,-85"/>
<text text-anchor="middle" x="546" y="-73" font-family="Helvetica,sans-Serif" font-size="10.00">alpaqa/util/dl.hpp</text>
</a>
</g>
</g>
<!-- Node15&#45;&gt;Node19 -->
<g id="edge21_Node000015_Node000019" class="edge">
<title>Node15&#45;&gt;Node19</title>
<g id="a_edge21_Node000015_Node000019"><a xlink:title=" ">
<path fill="none" stroke="#63b8ff" d="M443.45,-126.49C463.36,-116.79 496.14,-100.81 519.27,-89.53"/>
<polygon fill="#63b8ff" stroke="#63b8ff" points="521.07,-92.54 528.53,-85.02 518.01,-86.25 521.07,-92.54"/>
</a>
</g>
</g>
<!-- Node15&#45;&gt;Node23 -->
<g id="edge26_Node000015_Node000023" class="edge">
<title>Node15&#45;&gt;Node23</title>
<g id="a_edge26_Node000015_Node000023"><a xlink:title=" ">
<path fill="none" stroke="#63b8ff" d="M404.04,-126.49C378.32,-116.53 335.52,-99.95 306.32,-88.63"/>
<polygon fill="#63b8ff" stroke="#63b8ff" points="307.57,-85.37 296.98,-85.02 305.04,-91.89 307.57,-85.37"/>
</a>
</g>
</g>
<!-- Node16&#45;&gt;Node3 -->
<g id="edge20_Node000016_Node000003" class="edge">
<title>Node16&#45;&gt;Node3</title>
<g id="a_edge20_Node000016_Node000003"><a xlink:title=" ">
<path fill="none" stroke="#63b8ff" d="M341.37,-65.99C313.43,-57.39 269.47,-43.86 234.33,-33.04"/>
<polygon fill="#63b8ff" stroke="#63b8ff" points="235.27,-29.66 224.68,-30.06 233.21,-36.35 235.27,-29.66"/>
</a>
</g>
</g>
<!-- Node16&#45;&gt;Node12 -->
<g id="edge19_Node000016_Node000012" class="edge">
<title>Node16&#45;&gt;Node12</title>
<g id="a_edge19_Node000016_Node000012"><a xlink:title=" ">
<path fill="none" stroke="#63b8ff" d="M318.91,-66.06C246.68,-53.88 115.26,-31.72 54.46,-21.47"/>
<polygon fill="#63b8ff" stroke="#63b8ff" points="54.74,-17.97 44.3,-19.76 53.58,-24.87 54.74,-17.97"/>
</a>
</g>
</g>
<!-- Node17 -->
<g id="Node000017" class="node">
<title>Node17</title>
<g id="a_Node000017"><a xlink:title=" ">
<polygon fill="#e0e0e0" stroke="#999999" points="337,-24.5 273,-24.5 273,-5.5 337,-5.5 337,-24.5"/>
<text text-anchor="middle" x="305" y="-12.5" font-family="Helvetica,sans-Serif" font-size="10.00">algorithm</text>
</a>
</g>
</g>
<!-- Node16&#45;&gt;Node17 -->
<g id="edge17_Node000016_Node000017" class="edge">
<title>Node16&#45;&gt;Node17</title>
<g id="a_edge17_Node000016_Node000017"><a xlink:title=" ">
<path fill="none" stroke="#63b8ff" d="M359.56,-65.87C349.73,-56.88 334.11,-42.61 322.11,-31.64"/>
<polygon fill="#63b8ff" stroke="#63b8ff" points="324.22,-28.83 314.48,-24.67 319.5,-34 324.22,-28.83"/>
</a>
</g>
</g>
<!-- Node18 -->
<g id="Node000018" class="node">
<title>Node18</title>
<g id="a_Node000018"><a xlink:title=" ">
<polygon fill="#e0e0e0" stroke="#999999" points="397,-24.5 355,-24.5 355,-5.5 397,-5.5 397,-24.5"/>
<text text-anchor="middle" x="376" y="-12.5" font-family="Helvetica,sans-Serif" font-size="10.00">array</text>
</a>
</g>
</g>
<!-- Node16&#45;&gt;Node18 -->
<g id="edge18_Node000016_Node000018" class="edge">
<title>Node16&#45;&gt;Node18</title>
<g id="a_edge18_Node000016_Node000018"><a xlink:title=" ">
<path fill="none" stroke="#63b8ff" d="M370.03,-65.87C371,-57.75 372.49,-45.31 373.74,-34.89"/>
<polygon fill="#63b8ff" stroke="#63b8ff" points="377.25,-35.01 374.96,-24.67 370.3,-34.18 377.25,-35.01"/>
</a>
</g>
</g>
<!-- Node19&#45;&gt;Node11 -->
<g id="edge25_Node000019_Node000011" class="edge">
<title>Node19&#45;&gt;Node11</title>
<g id="a_edge25_Node000019_Node000011"><a xlink:title=" ">
<path fill="none" stroke="#63b8ff" d="M573.6,-65.93C602.06,-57.07 647.69,-42.75 687,-30 689.28,-29.26 691.63,-28.49 694,-27.71"/>
<polygon fill="#63b8ff" stroke="#63b8ff" points="695.31,-30.97 703.7,-24.51 693.11,-24.32 695.31,-30.97"/>
</a>
</g>
</g>
<!-- Node20 -->
<g id="Node000020" class="node">
<title>Node20</title>
<g id="a_Node000020"><a xlink:title=" ">
<polygon fill="#e0e0e0" stroke="#999999" points="591.5,-24.5 498.5,-24.5 498.5,-5.5 591.5,-5.5 591.5,-24.5"/>
<text text-anchor="middle" x="545" y="-12.5" font-family="Helvetica,sans-Serif" font-size="10.00">alpaqa/export.h</text>
</a>
</g>
</g>
<!-- Node19&#45;&gt;Node20 -->
<g id="edge22_Node000019_Node000020" class="edge">
<title>Node19&#45;&gt;Node20</title>
<g id="a_edge22_Node000019_Node000020"><a xlink:title=" ">
<path fill="none" stroke="#63b8ff" d="M545.85,-65.87C545.71,-57.75 545.5,-45.31 545.32,-34.89"/>
<polygon fill="#63b8ff" stroke="#63b8ff" points="548.82,-34.61 545.15,-24.67 541.82,-34.73 548.82,-34.61"/>
</a>
</g>
</g>
<!-- Node21 -->
<g id="Node000021" class="node">
<title>Node21</title>
<g id="a_Node000021"><a xlink:title=" ">
<polygon fill="#e0e0e0" stroke="#999999" points="678,-24.5 610,-24.5 610,-5.5 678,-5.5 678,-24.5"/>
<text text-anchor="middle" x="644" y="-12.5" font-family="Helvetica,sans-Serif" font-size="10.00">filesystem</text>
</a>
</g>
</g>
<!-- Node19&#45;&gt;Node21 -->
<g id="edge23_Node000019_Node000021" class="edge">
<title>Node19&#45;&gt;Node21</title>
<g id="a_edge23_Node000019_Node000021"><a xlink:title=" ">
<path fill="none" stroke="#63b8ff" d="M560.46,-65.87C576.31,-56.41 601.97,-41.09 620.68,-29.92"/>
<polygon fill="#63b8ff" stroke="#63b8ff" points="622.69,-32.8 629.48,-24.67 619.1,-26.79 622.69,-32.8"/>
</a>
</g>
</g>
<!-- Node19&#45;&gt;Node22 -->
<g id="edge24_Node000019_Node000022" class="edge">
<title>Node19&#45;&gt;Node22</title>
<g id="a_edge24_Node000019_Node000022"><a xlink:title=" ">
<path fill="none" stroke="#63b8ff" d="M531.98,-65.87C516.69,-56.45 491.97,-41.23 473.86,-30.08"/>
<polygon fill="#63b8ff" stroke="#63b8ff" points="475.43,-26.93 465.08,-24.67 471.75,-32.89 475.43,-26.93"/>
</a>
</g>
</g>
</g>
</svg>

<g id="navigator" transform="translate(0 0)" fill="#404254">
  <rect fill="#f2f5e9" fill-opacity="0.5" stroke="#606060" stroke-width=".5" x="0" y="0" width="60" height="60"/>
  <use id="zoomplus" xlink:href="#zoomPlus" x="17" y="9" onmousedown="handleZoom(evt,'in')"/>
  <use id="zoomminus" xlink:href="#zoomMin" x="42" y="9" onmousedown="handleZoom(evt,'out')"/>
  <use id="reset" xlink:href="#resetDef" x="30" y="36" onmousedown="handleReset()"/>
   <use id="arrowup" xlink:href="#arrowUp" x="0" y="0" onmousedown="handlePan(0,-1)"/>
  <use id="arrowright" xlink:href="#arrowRight" x="0" y="0" onmousedown="handlePan(1,0)"/>
  <use id="arrowdown" xlink:href="#arrowDown" x="0" y="0" onmousedown="handlePan(0,1)"/>
  <use id="arrowleft" xlink:href="#arrowLeft" x="0" y="0" onmousedown="handlePan(-1,0)"/>
</g>
<svg viewBox="0 0 15 15" width="100%" height="30px" preserveAspectRatio="xMaxYMin meet">
 <g id="arrow_out" transform="scale(0.3 0.3)">
  <a xlink:href="CasADiFunctionWrapper_8hpp__incl_org.svg" target="_base">
   <rect id="button" ry="5" rx="5" y="6" x="6" height="38" width="38"
        fill="#f2f5e9" fill-opacity="0.5" stroke="#606060" stroke-width="1.0"/>
   <path id="arrow"
     d="M 11.500037,31.436501 C 11.940474,20.09759 22.043105,11.32322 32.158766,21.979434 L 37.068811,17.246167 C 37.068811,17.246167 37.088388,32 37.088388,32 L 22.160133,31.978069 C 22.160133,31.978069 26.997745,27.140456 26.997745,27.140456 C 18.528582,18.264221 13.291696,25.230495 11.500037,31.436501 z"
     style="fill:#404040;"/>
  </a>
 </g>
</svg>

<style type='text/css'>
<![CDATA[
[data-mouse-over-selected='false'] { opacity: 0.7; }
[data-mouse-over-selected='true']  { opacity: 1.0; }
]]>
</style>
<script type="application/ecmascript"><![CDATA[
document.addEventListener('DOMContentLoaded', (event) => {
  highlightEdges();
  highlightAdjacentNodes();
});
]]></script>
</svg>
