<?xml version="1.0" encoding="UTF-8" standalone="no"?>
<!DOCTYPE svg PUBLIC "-//W3C//DTD SVG 1.1//EN"
 "http://www.w3.org/Graphics/SVG/1.1/DTD/svg11.dtd">
<!-- Generated by graphviz version 2.43.0 (0)
 -->
<!-- Title: m Pages: 1 -->
<!--zoomable 466 -->

<svg id="main" version="1.1" xmlns="http://www.w3.org/2000/svg" xmlns:xlink="http://www.w3.org/1999/xlink" xml:space="preserve" onload="init(evt)">
<style type="text/css"><![CDATA[
.node, .edge {opacity: 0.7;}
.node.selected, .edge.selected {opacity: 1;}
.edge:hover path { stroke: red; }
.edge:hover polygon { stroke: red; fill: red; }
]]></style>

<defs>
  <circle id="rim" cx="0" cy="0" r="7"/>
  <circle id="rim2" cx="0" cy="0" r="3.5"/>
  <g id="zoomPlus">
    <use xlink:href="#rim" fill="#404040"><set attributeName="fill" to="#808080" begin="zoomplus.mouseover" end="zoomplus.mouseout"/></use>
    <path d="M-4,0h8M0,-4v8" fill="none" stroke="white" stroke-width="1.5" pointer-events="none"/>
  </g>
  <g id="zoomMin">
    <use xlink:href="#rim" fill="#404040"><set attributeName="fill" to="#808080" begin="zoomminus.mouseover" end="zoomminus.mouseout"/></use>
    <path d="M-4,0h8" fill="none" stroke="white" stroke-width="1.5" pointer-events="none"/>
  </g>
  <g id="arrowUp" transform="translate(30 24)">
    <use xlink:href="#rim"/>
    <path pointer-events="none" fill="none" stroke="white" stroke-width="1.5" d="M0,-3.0v7 M-2.5,-0.5L0,-3.0L2.5,-0.5"/>
  </g>
  <g id="arrowRight" transform="rotate(90) translate(36 -43)">
    <use xlink:href="#rim"/>
    <path pointer-events="none" fill="none" stroke="white" stroke-width="1.5" d="M0,-3.0v7 M-2.5,-0.5L0,-3.0L2.5,-0.5"/>
  </g>
  <g id="arrowDown" transform="rotate(180) translate(-30 -48)">
    <use xlink:href="#rim"/>
    <path pointer-events="none" fill="none" stroke="white" stroke-width="1.5" d="M0,-3.0v7 M-2.5,-0.5L0,-3.0L2.5,-0.5"/>
  </g>
  <g id="arrowLeft" transform="rotate(270) translate(-36 17)">
    <use xlink:href="#rim"/>
    <path pointer-events="none" fill="none" stroke="white" stroke-width="1.5" d="M0,-3.0v7 M-2.5,-0.5L0,-3.0L2.5,-0.5"/>
  </g>
  <g id="resetDef">
    <use xlink:href="#rim2" fill="#404040"><set attributeName="fill" to="#808080" begin="reset.mouseover" end="reset.mouseout"/></use>
  </g>
</defs>
<script type="application/ecmascript">
var viewWidth = 1075;
var viewHeight = 466;
var sectionId = 'dynsection-2';
</script>
<script type="application/ecmascript" xlink:href="svg.min.js"/>
<svg id="graph" class="graph">
<g id="viewport">
<title>m</title>
<!-- Node1 -->
<g id="Node000001" class="node">
<title>Node1</title>
<g id="a_Node000001"><a xlink:title=" ">
<polygon fill="#999999" stroke="#666666" points="1067,-283.5 1038,-283.5 1038,-264.5 1067,-264.5 1067,-283.5"/>
<text text-anchor="middle" x="1052.5" y="-271.5" font-family="Helvetica,sans-Serif" font-size="10.00">m</text>
</a>
</g>
</g>
<!-- Node2 -->
<g id="Node000002" class="node">
<title>Node2</title>
<g id="a_Node000002"><a xlink:href="classalpaqa_1_1LimitedMemoryQR.html#a5e3077223e98c1e4e286e01503f220d5" target="_top" xlink:title="Add the given column to the right.">
<polygon fill="white" stroke="#666666" points="812,-322.5 736,-322.5 736,-303.5 812,-303.5 812,-322.5"/>
<text text-anchor="middle" x="774" y="-310.5" font-family="Helvetica,sans-Serif" font-size="10.00">add_column</text>
</a>
</g>
</g>
<!-- Node1&#45;&gt;Node2 -->
<g id="edge1_Node000001_Node000002" class="edge">
<title>Node1&#45;&gt;Node2</title>
<g id="a_edge1_Node000001_Node000002"><a xlink:title=" ">
<path fill="none" stroke="#63b8ff" d="M1027.24,-276.13C992.99,-279.28 928.54,-285.71 874,-294 853.41,-297.13 830.57,-301.46 812.02,-305.19"/>
<polygon fill="#63b8ff" stroke="#63b8ff" points="1028,-279.58 1037.64,-275.19 1027.37,-272.61 1028,-279.58"/>
</a>
</g>
</g>
<!-- Node3 -->
<g id="Node000003" class="node">
<title>Node3</title>
<g id="a_Node000003"><a xlink:href="namespacealpaqa.html#adf8fd46412351c743b102d9c56c943b2" target="_top" xlink:title="Solve one step of Anderson acceleration to find a fixed point of a function g(x):">
<polygon fill="white" stroke="#666666" points="489,-301 349,-301 349,-271 489,-271 489,-301"/>
<text text-anchor="start" x="357" y="-289" font-family="Helvetica,sans-Serif" font-size="10.00">alpaqa::minimize_update</text>
<text text-anchor="middle" x="419" y="-278" font-family="Helvetica,sans-Serif" font-size="10.00">_anderson</text>
</a>
</g>
</g>
<!-- Node1&#45;&gt;Node3 -->
<g id="edge8_Node000001_Node000003" class="edge">
<title>Node1&#45;&gt;Node3</title>
<g id="a_edge8_Node000001_Node000003"><a xlink:title=" ">
<path fill="none" stroke="#63b8ff" d="M1051.33,-294.26C1049.83,-326.52 1041.64,-388.77 1002,-417 896.28,-492.28 836.87,-444.33 710,-417 604.96,-394.38 492.13,-330.51 443.98,-301.13"/>
<polygon fill="#63b8ff" stroke="#63b8ff" points="1054.84,-293.95 1051.63,-283.85 1047.84,-293.75 1054.84,-293.95"/>
</a>
</g>
</g>
<!-- Node7 -->
<g id="Node000007" class="node">
<title>Node7</title>
<g id="a_Node000007"><a xlink:href="classalpaqa_1_1AndersonAccel.html#a9cf7dcccbc3bc69a10833450ee79c623" target="_top" xlink:title="Get the maximum number of stored columns.">
<polygon fill="white" stroke="#666666" points="1002,-370 874,-370 874,-340 1002,-340 1002,-370"/>
<text text-anchor="start" x="882" y="-358" font-family="Helvetica,sans-Serif" font-size="10.00">alpaqa::AndersonAccel</text>
<text text-anchor="middle" x="938" y="-347" font-family="Helvetica,sans-Serif" font-size="10.00">::history</text>
</a>
</g>
</g>
<!-- Node1&#45;&gt;Node7 -->
<g id="edge6_Node000001_Node000007" class="edge">
<title>Node1&#45;&gt;Node7</title>
<g id="a_edge6_Node000001_Node000007"><a xlink:title=" ">
<path fill="none" stroke="#63b8ff" d="M1039.49,-292.03C1030.44,-304.43 1017.04,-320.49 1002,-331 997.2,-334.35 991.88,-337.31 986.41,-339.9"/>
<polygon fill="#63b8ff" stroke="#63b8ff" points="1042.4,-293.98 1045.27,-283.78 1036.66,-289.96 1042.4,-293.98"/>
</a>
</g>
</g>
<!-- Node8 -->
<g id="Node000008" class="node">
<title>Node8</title>
<g id="a_Node000008"><a xlink:href="classalpaqa_1_1LimitedMemoryQR.html#a9cf7dcccbc3bc69a10833450ee79c623" target="_top" xlink:title=" ">
<polygon fill="white" stroke="#666666" points="963,-321.5 913,-321.5 913,-302.5 963,-302.5 963,-321.5"/>
<text text-anchor="middle" x="938" y="-309.5" font-family="Helvetica,sans-Serif" font-size="10.00">history</text>
</a>
</g>
</g>
<!-- Node1&#45;&gt;Node8 -->
<g id="edge7_Node000001_Node000008" class="edge">
<title>Node1&#45;&gt;Node8</title>
<g id="a_edge7_Node000001_Node000008"><a xlink:title=" ">
<path fill="none" stroke="#63b8ff" d="M1028.03,-281.93C1009.03,-288.35 982.36,-297.35 963.17,-303.84"/>
<polygon fill="#63b8ff" stroke="#63b8ff" points="1029.35,-285.18 1037.71,-278.66 1027.11,-278.54 1029.35,-285.18"/>
</a>
</g>
</g>
<!-- Node9 -->
<g id="Node000009" class="node">
<title>Node9</title>
<g id="a_Node000009"><a xlink:href="classalpaqa_1_1LimitedMemoryQR.html#a5c8c5c98dc14e4c5e77345b6fe7a023a" target="_top" xlink:title="Get the previous index in the circular storage for R.">
<polygon fill="white" stroke="#666666" points="961.5,-407.5 914.5,-407.5 914.5,-388.5 961.5,-388.5 961.5,-407.5"/>
<text text-anchor="middle" x="938" y="-395.5" font-family="Helvetica,sans-Serif" font-size="10.00">r_pred</text>
</a>
</g>
</g>
<!-- Node1&#45;&gt;Node9 -->
<g id="edge9_Node000001_Node000009" class="edge">
<title>Node1&#45;&gt;Node9</title>
<g id="a_edge9_Node000001_Node000009"><a xlink:title=" ">
<path fill="none" stroke="#63b8ff" d="M1047.38,-293.63C1041.41,-317.24 1028.09,-356.5 1002,-379 990.75,-388.7 974.68,-393.45 961.59,-395.77"/>
<polygon fill="#63b8ff" stroke="#63b8ff" points="1050.83,-294.25 1049.68,-283.71 1044.01,-292.66 1050.83,-294.25"/>
</a>
</g>
</g>
<!-- Node11 -->
<g id="Node000011" class="node">
<title>Node11</title>
<g id="a_Node000011"><a xlink:href="classalpaqa_1_1LimitedMemoryQR.html#a9f68bead8c70041aacb90dd175150dc4" target="_top" xlink:title="Get the next index in the circular storage for R.">
<polygon fill="white" stroke="#666666" points="961.5,-245.5 914.5,-245.5 914.5,-226.5 961.5,-226.5 961.5,-245.5"/>
<text text-anchor="middle" x="938" y="-233.5" font-family="Helvetica,sans-Serif" font-size="10.00">r_succ</text>
</a>
</g>
</g>
<!-- Node1&#45;&gt;Node11 -->
<g id="edge11_Node000001_Node000011" class="edge">
<title>Node1&#45;&gt;Node11</title>
<g id="a_edge11_Node000001_Node000011"><a xlink:title=" ">
<path fill="none" stroke="#63b8ff" d="M1028.1,-266.1C1008.67,-259.53 981.18,-250.25 961.88,-243.73"/>
<polygon fill="#63b8ff" stroke="#63b8ff" points="1027.11,-269.46 1037.71,-269.34 1029.35,-262.82 1027.11,-269.46"/>
</a>
</g>
</g>
<!-- Node14 -->
<g id="Node000014" class="node">
<title>Node14</title>
<g id="a_Node000014"><a xlink:href="classalpaqa_1_1LimitedMemoryQR.html#ad15543203799d1dccb5a5e1c572e3f02" target="_top" xlink:title="Re&#45;allocate storage for a problem with a different size.">
<polygon fill="white" stroke="#666666" points="961,-205.5 915,-205.5 915,-186.5 961,-186.5 961,-205.5"/>
<text text-anchor="middle" x="938" y="-193.5" font-family="Helvetica,sans-Serif" font-size="10.00">resize</text>
</a>
</g>
</g>
<!-- Node1&#45;&gt;Node14 -->
<g id="edge16_Node000001_Node000014" class="edge">
<title>Node1&#45;&gt;Node14</title>
<g id="a_edge16_Node000001_Node000014"><a xlink:title=" ">
<path fill="none" stroke="#63b8ff" d="M1039.25,-255.81C1030.21,-243.62 1016.94,-228.03 1002,-218 989.69,-209.73 973.94,-204.23 961.27,-200.8"/>
<polygon fill="#63b8ff" stroke="#63b8ff" points="1036.64,-258.19 1045.29,-264.32 1042.35,-254.14 1036.64,-258.19"/>
</a>
</g>
</g>
<!-- Node18 -->
<g id="Node000018" class="node">
<title>Node18</title>
<g id="a_Node000018"><a xlink:href="classalpaqa_1_1LimitedMemoryQR.html#a0bf0ad441ec87440e4525e75de00d053" target="_top" xlink:title="Get iterators in the circular buffer.">
<polygon fill="white" stroke="#666666" points="966.5,-123.5 909.5,-123.5 909.5,-104.5 966.5,-104.5 966.5,-123.5"/>
<text text-anchor="middle" x="938" y="-111.5" font-family="Helvetica,sans-Serif" font-size="10.00">ring_iter</text>
</a>
</g>
</g>
<!-- Node1&#45;&gt;Node18 -->
<g id="edge20_Node000001_Node000018" class="edge">
<title>Node1&#45;&gt;Node18</title>
<g id="a_edge20_Node000001_Node000018"><a xlink:title=" ">
<path fill="none" stroke="#63b8ff" d="M1043.83,-255.18C1035.19,-235.1 1019.98,-202.83 1002,-178 986.45,-156.53 963.77,-135.35 950.29,-123.55"/>
<polygon fill="#63b8ff" stroke="#63b8ff" points="1040.63,-256.6 1047.73,-264.47 1047.08,-253.89 1040.63,-256.6"/>
</a>
</g>
</g>
<!-- Node22 -->
<g id="Node000022" class="node">
<title>Node22</title>
<g id="a_Node000022"><a xlink:href="classalpaqa_1_1LimitedMemoryQR.html#a5f3732971788e558366a2b509a538206" target="_top" xlink:title="Solve the least squares problem AX = B.">
<polygon fill="white" stroke="#666666" points="267.5,-52.5 224.5,-52.5 224.5,-33.5 267.5,-33.5 267.5,-52.5"/>
<text text-anchor="middle" x="246" y="-40.5" font-family="Helvetica,sans-Serif" font-size="10.00">solve</text>
</a>
</g>
</g>
<!-- Node1&#45;&gt;Node22 -->
<g id="edge31_Node000001_Node000022" class="edge">
<title>Node1&#45;&gt;Node22</title>
<g id="a_edge31_Node000001_Node000022"><a xlink:title=" ">
<path fill="none" stroke="#63b8ff" d="M1051.24,-253.98C1049.73,-218.01 1041.7,-141.82 1002,-95 931.27,-11.59 884.37,0 775,0 775,0 775,0 600,0 486.8,0 457.83,-1.38 346,-19 318.57,-23.32 287.55,-31.37 267.66,-36.95"/>
<polygon fill="#63b8ff" stroke="#63b8ff" points="1047.74,-254.27 1051.53,-264.16 1054.74,-254.07 1047.74,-254.27"/>
</a>
</g>
</g>
<!-- Node2&#45;&gt;Node3 -->
<g id="edge2_Node000002_Node000003" class="edge">
<title>Node2&#45;&gt;Node3</title>
<g id="a_edge2_Node000002_Node000003"><a xlink:title=" ">
<path fill="none" stroke="#63b8ff" d="M725.88,-313.43C676.45,-313.43 596.57,-312.11 528,-305 515.41,-303.69 502.07,-301.78 489.22,-299.67"/>
<polygon fill="#63b8ff" stroke="#63b8ff" points="725.95,-316.93 735.95,-313.42 725.94,-309.93 725.95,-316.93"/>
</a>
</g>
</g>
<!-- Node4 -->
<g id="Node000004" class="node">
<title>Node4</title>
<g id="a_Node000004"><a xlink:href="classalpaqa_1_1AndersonAccel.html#a7cbecaa52700158ebe36c0d587791ed4" target="_top" xlink:title="Compute the accelerated iterate , given the function value at the current iterate &#160;and the correspond...">
<polygon fill="white" stroke="#666666" points="310,-277 182,-277 182,-247 310,-247 310,-277"/>
<text text-anchor="start" x="190" y="-265" font-family="Helvetica,sans-Serif" font-size="10.00">alpaqa::AndersonAccel</text>
<text text-anchor="middle" x="246" y="-254" font-family="Helvetica,sans-Serif" font-size="10.00">::compute</text>
</a>
</g>
</g>
<!-- Node3&#45;&gt;Node4 -->
<g id="edge3_Node000003_Node000004" class="edge">
<title>Node3&#45;&gt;Node4</title>
<g id="a_edge3_Node000003_Node000004"><a xlink:title=" ">
<path fill="none" stroke="#63b8ff" d="M338.97,-274.91C329.34,-273.56 319.6,-272.19 310.24,-270.88"/>
<polygon fill="#63b8ff" stroke="#63b8ff" points="338.55,-278.38 348.94,-276.31 339.52,-271.45 338.55,-278.38"/>
</a>
</g>
</g>
<!-- Node6 -->
<g id="Node000006" class="node">
<title>Node6</title>
<g id="a_Node000006"><a xlink:href="classalpaqa_1_1AndersonAccel.html#af02aae3147e83aeb9f83c4f0a17f537f" target="_top" xlink:title="Compute the accelerated iterate , given the function value at the current iterate &#160;and the correspond...">
<polygon fill="white" stroke="#666666" points="310,-325 182,-325 182,-295 310,-295 310,-325"/>
<text text-anchor="start" x="190" y="-313" font-family="Helvetica,sans-Serif" font-size="10.00">alpaqa::AndersonAccel</text>
<text text-anchor="middle" x="246" y="-302" font-family="Helvetica,sans-Serif" font-size="10.00">::compute</text>
</a>
</g>
</g>
<!-- Node3&#45;&gt;Node6 -->
<g id="edge5_Node000003_Node000006" class="edge">
<title>Node3&#45;&gt;Node6</title>
<g id="a_edge5_Node000003_Node000006"><a xlink:title=" ">
<path fill="none" stroke="#63b8ff" d="M338.97,-297.09C329.34,-298.44 319.6,-299.81 310.24,-301.12"/>
<polygon fill="#63b8ff" stroke="#63b8ff" points="339.52,-300.55 348.94,-295.69 338.55,-293.62 339.52,-300.55"/>
</a>
</g>
</g>
<!-- Node5 -->
<g id="Node000005" class="node">
<title>Node5</title>
<g id="a_Node000005"><a xlink:href="structalpaqa_1_1AndersonDirection.html#ad02c79a109cef288e13bc9c944af3b48" target="_top" xlink:title=" ">
<polygon fill="white" stroke="#666666" points="146,-277 0,-277 0,-247 146,-247 146,-277"/>
<text text-anchor="start" x="8" y="-265" font-family="Helvetica,sans-Serif" font-size="10.00">alpaqa::AndersonDirection</text>
<text text-anchor="middle" x="73" y="-254" font-family="Helvetica,sans-Serif" font-size="10.00">::apply</text>
</a>
</g>
</g>
<!-- Node4&#45;&gt;Node5 -->
<g id="edge4_Node000004_Node000005" class="edge">
<title>Node4&#45;&gt;Node5</title>
<g id="a_edge4_Node000004_Node000005"><a xlink:title=" ">
<path fill="none" stroke="#63b8ff" d="M171.62,-262C163.18,-262 154.58,-262 146.16,-262"/>
<polygon fill="#63b8ff" stroke="#63b8ff" points="171.81,-265.5 181.81,-262 171.81,-258.5 171.81,-265.5"/>
</a>
</g>
</g>
<!-- Node10 -->
<g id="Node000010" class="node">
<title>Node10</title>
<g id="a_Node000010"><a xlink:href="classalpaqa_1_1LimitedMemoryQR.html#abe9cf16db2c29172997a6aa0ee68f75a" target="_top" xlink:title="Get the previous index in the circular buffer.">
<polygon fill="white" stroke="#666666" points="805,-407.5 743,-407.5 743,-388.5 805,-388.5 805,-407.5"/>
<text text-anchor="middle" x="774" y="-395.5" font-family="Helvetica,sans-Serif" font-size="10.00">ring_prev</text>
</a>
</g>
</g>
<!-- Node9&#45;&gt;Node10 -->
<g id="edge10_Node000009_Node000010" class="edge">
<title>Node9&#45;&gt;Node10</title>
<g id="a_edge10_Node000009_Node000010"><a xlink:title=" ">
<path fill="none" stroke="#63b8ff" d="M904.42,-398C875.4,-398 833.27,-398 805.04,-398"/>
<polygon fill="#63b8ff" stroke="#63b8ff" points="904.47,-401.5 914.47,-398 904.47,-394.5 904.47,-401.5"/>
</a>
</g>
</g>
<!-- Node11&#45;&gt;Node2 -->
<g id="edge12_Node000011_Node000002" class="edge">
<title>Node11&#45;&gt;Node2</title>
<g id="a_edge12_Node000011_Node000002"><a xlink:title=" ">
<path fill="none" stroke="#63b8ff" d="M904.87,-245.39C894.58,-249.13 883.42,-253.99 874,-260 855.18,-272 857.31,-283.82 838,-295 830.12,-299.56 821.02,-303.03 812.22,-305.64"/>
<polygon fill="#63b8ff" stroke="#63b8ff" points="906.04,-248.68 914.38,-242.15 903.79,-242.06 906.04,-248.68"/>
</a>
</g>
</g>
<!-- Node12 -->
<g id="Node000012" class="node">
<title>Node12</title>
<g id="a_Node000012"><a xlink:href="classalpaqa_1_1LimitedMemoryQR.html#a436c4dbbf0476354ca67a104bc005e55" target="_top" xlink:title="Remove the leftmost column.">
<polygon fill="white" stroke="#666666" points="648.5,-295.5 553.5,-295.5 553.5,-276.5 648.5,-276.5 648.5,-295.5"/>
<text text-anchor="middle" x="601" y="-283.5" font-family="Helvetica,sans-Serif" font-size="10.00">remove_column</text>
</a>
</g>
</g>
<!-- Node11&#45;&gt;Node12 -->
<g id="edge13_Node000011_Node000012" class="edge">
<title>Node11&#45;&gt;Node12</title>
<g id="a_edge13_Node000011_Node000012"><a xlink:title=" ">
<path fill="none" stroke="#63b8ff" d="M904.1,-237.57C859.74,-240.04 778.44,-245.89 710,-258 706.34,-258.65 668.24,-268.59 638.32,-276.44"/>
<polygon fill="#63b8ff" stroke="#63b8ff" points="904.49,-241.05 914.29,-237.02 904.11,-234.06 904.49,-241.05"/>
</a>
</g>
</g>
<!-- Node13 -->
<g id="Node000013" class="node">
<title>Node13</title>
<g id="a_Node000013"><a xlink:href="classalpaqa_1_1LimitedMemoryQR.html#ad24371ff0ab7c48c4fb9750d5d66cd0c" target="_top" xlink:title="Get the next index in the circular buffer.">
<polygon fill="white" stroke="#666666" points="805,-285.5 743,-285.5 743,-266.5 805,-266.5 805,-285.5"/>
<text text-anchor="middle" x="774" y="-273.5" font-family="Helvetica,sans-Serif" font-size="10.00">ring_next</text>
</a>
</g>
</g>
<!-- Node11&#45;&gt;Node13 -->
<g id="edge15_Node000011_Node000013" class="edge">
<title>Node11&#45;&gt;Node13</title>
<g id="a_edge15_Node000011_Node000013"><a xlink:title=" ">
<path fill="none" stroke="#63b8ff" d="M904.42,-244.04C875.4,-251.21 833.27,-261.61 805.04,-268.58"/>
<polygon fill="#63b8ff" stroke="#63b8ff" points="905.61,-247.36 914.47,-241.56 903.93,-240.56 905.61,-247.36"/>
</a>
</g>
</g>
<!-- Node12&#45;&gt;Node3 -->
<g id="edge14_Node000012_Node000003" class="edge">
<title>Node12&#45;&gt;Node3</title>
<g id="a_edge14_Node000012_Node000003"><a xlink:title=" ">
<path fill="none" stroke="#63b8ff" d="M542.85,-286C525.83,-286 507.01,-286 489.31,-286"/>
<polygon fill="#63b8ff" stroke="#63b8ff" points="543.18,-289.5 553.18,-286 543.18,-282.5 543.18,-289.5"/>
</a>
</g>
</g>
<!-- Node15 -->
<g id="Node000015" class="node">
<title>Node15</title>
<g id="a_Node000015"><a xlink:href="classalpaqa_1_1AndersonAccel.html#abfe51417fbebd259808f86d27f1d7ec5" target="_top" xlink:title="Change the problem dimension.">
<polygon fill="white" stroke="#666666" points="838,-210 710,-210 710,-180 838,-180 838,-210"/>
<text text-anchor="start" x="718" y="-198" font-family="Helvetica,sans-Serif" font-size="10.00">alpaqa::AndersonAccel</text>
<text text-anchor="middle" x="774" y="-187" font-family="Helvetica,sans-Serif" font-size="10.00">::resize</text>
</a>
</g>
</g>
<!-- Node14&#45;&gt;Node15 -->
<g id="edge17_Node000014_Node000015" class="edge">
<title>Node14&#45;&gt;Node15</title>
<g id="a_edge17_Node000014_Node000015"><a xlink:title=" ">
<path fill="none" stroke="#63b8ff" d="M904.6,-195.8C885.56,-195.68 860.83,-195.53 838.09,-195.39"/>
<polygon fill="#63b8ff" stroke="#63b8ff" points="904.79,-199.3 914.81,-195.86 904.84,-192.3 904.79,-199.3"/>
</a>
</g>
</g>
<!-- Node16 -->
<g id="Node000016" class="node">
<title>Node16</title>
<g id="a_Node000016"><a xlink:href="classalpaqa_1_1AndersonAccel.html#a1fcb04cfb2b1398b54d8242cc3b0fb34" target="_top" xlink:title=" ">
<polygon fill="white" stroke="#666666" points="665,-210 537,-210 537,-180 665,-180 665,-210"/>
<text text-anchor="start" x="545" y="-198" font-family="Helvetica,sans-Serif" font-size="10.00">alpaqa::AndersonAccel</text>
<text text-anchor="middle" x="601" y="-187" font-family="Helvetica,sans-Serif" font-size="10.00">::AndersonAccel</text>
</a>
</g>
</g>
<!-- Node15&#45;&gt;Node16 -->
<g id="edge18_Node000015_Node000016" class="edge">
<title>Node15&#45;&gt;Node16</title>
<g id="a_edge18_Node000015_Node000016"><a xlink:title=" ">
<path fill="none" stroke="#63b8ff" d="M699.8,-195C688.29,-195 676.47,-195 665.21,-195"/>
<polygon fill="#63b8ff" stroke="#63b8ff" points="699.81,-198.5 709.81,-195 699.81,-191.5 699.81,-198.5"/>
</a>
</g>
</g>
<!-- Node17 -->
<g id="Node000017" class="node">
<title>Node17</title>
<g id="a_Node000017"><a xlink:href="structalpaqa_1_1AndersonDirection.html#abef09c52cdc391877cde2c5825fe65e6" target="_top" xlink:title=" ">
<polygon fill="white" stroke="#666666" points="674,-258 528,-258 528,-228 674,-228 674,-258"/>
<text text-anchor="start" x="536" y="-246" font-family="Helvetica,sans-Serif" font-size="10.00">alpaqa::AndersonDirection</text>
<text text-anchor="middle" x="601" y="-235" font-family="Helvetica,sans-Serif" font-size="10.00">::initialize</text>
</a>
</g>
</g>
<!-- Node15&#45;&gt;Node17 -->
<g id="edge19_Node000015_Node000017" class="edge">
<title>Node15&#45;&gt;Node17</title>
<g id="a_edge19_Node000015_Node000017"><a xlink:title=" ">
<path fill="none" stroke="#63b8ff" d="M709.63,-212.79C691.81,-217.79 672.62,-223.18 655.45,-228"/>
<polygon fill="#63b8ff" stroke="#63b8ff" points="710.68,-216.13 719.36,-210.06 708.79,-209.39 710.68,-216.13"/>
</a>
</g>
</g>
<!-- Node18&#45;&gt;Node3 -->
<g id="edge21_Node000018_Node000003" class="edge">
<title>Node18&#45;&gt;Node3</title>
<g id="a_edge21_Node000018_Node000003"><a xlink:title=" ">
<path fill="none" stroke="#63b8ff" d="M899.27,-121.36C880.84,-124.83 858.3,-128.88 838,-132 700.75,-153.09 651.75,-107.99 528,-171 482.11,-194.36 445.38,-245.43 429.1,-270.91"/>
<polygon fill="#63b8ff" stroke="#63b8ff" points="900.16,-124.75 909.33,-119.45 898.85,-117.88 900.16,-124.75"/>
</a>
</g>
</g>
<!-- Node19 -->
<g id="Node000019" class="node">
<title>Node19</title>
<g id="a_Node000019"><a xlink:href="classalpaqa_1_1LimitedMemoryQR.html#ae8160acf26958eb65aa5c0743dd2826d" target="_top" xlink:title="Get reverse iterators in the circular buffer.">
<polygon fill="white" stroke="#666666" points="823.5,-123.5 724.5,-123.5 724.5,-104.5 823.5,-104.5 823.5,-123.5"/>
<text text-anchor="middle" x="774" y="-111.5" font-family="Helvetica,sans-Serif" font-size="10.00">ring_reverse_iter</text>
</a>
</g>
</g>
<!-- Node18&#45;&gt;Node19 -->
<g id="edge22_Node000018_Node000019" class="edge">
<title>Node18&#45;&gt;Node19</title>
<g id="a_edge22_Node000018_Node000019"><a xlink:title=" ">
<path fill="none" stroke="#63b8ff" d="M898.99,-114C876.52,-114 847.85,-114 823.73,-114"/>
<polygon fill="#63b8ff" stroke="#63b8ff" points="899.15,-117.5 909.15,-114 899.15,-110.5 899.15,-117.5"/>
</a>
</g>
</g>
<!-- Node20 -->
<g id="Node000020" class="node">
<title>Node20</title>
<g id="a_Node000020"><a xlink:href="classalpaqa_1_1LimitedMemoryQR.html#a5e3322cd9c833dc65702b574640eefe1" target="_top" xlink:title="Solve the least squares problem Ax = b.">
<polygon fill="white" stroke="#666666" points="632,-109.5 570,-109.5 570,-90.5 632,-90.5 632,-109.5"/>
<text text-anchor="middle" x="601" y="-97.5" font-family="Helvetica,sans-Serif" font-size="10.00">solve_col</text>
</a>
</g>
</g>
<!-- Node18&#45;&gt;Node20 -->
<g id="edge30_Node000018_Node000020" class="edge">
<title>Node18&#45;&gt;Node20</title>
<g id="a_edge30_Node000018_Node000020"><a xlink:title=" ">
<path fill="none" stroke="#63b8ff" d="M899.69,-105.11C881.25,-101.15 858.58,-96.96 838,-95 764.36,-88 677.24,-93.36 632.26,-97.12"/>
<polygon fill="#63b8ff" stroke="#63b8ff" points="898.95,-108.53 909.46,-107.26 900.45,-101.69 898.95,-108.53"/>
</a>
</g>
</g>
<!-- Node23 -->
<g id="Node000023" class="node">
<title>Node23</title>
<g id="a_Node000023"><a xlink:href="classalpaqa_1_1LimitedMemoryQR.html#adf11f99cb8b119423c86498dbaab9820" target="_top" xlink:title="Multiply the matrix R by a scalar.">
<polygon fill="white" stroke="#666666" points="801,-47.5 747,-47.5 747,-28.5 801,-28.5 801,-47.5"/>
<text text-anchor="middle" x="774" y="-35.5" font-family="Helvetica,sans-Serif" font-size="10.00">scale_R</text>
</a>
</g>
</g>
<!-- Node18&#45;&gt;Node23 -->
<g id="edge27_Node000018_Node000023" class="edge">
<title>Node18&#45;&gt;Node23</title>
<g id="a_edge27_Node000018_Node000023"><a xlink:title=" ">
<path fill="none" stroke="#63b8ff" d="M911.17,-99.34C891.43,-88.41 863.4,-73.46 838,-62 826.05,-56.61 812.5,-51.34 801.03,-47.12"/>
<polygon fill="#63b8ff" stroke="#63b8ff" points="909.7,-102.53 920.14,-104.35 913.11,-96.42 909.7,-102.53"/>
</a>
</g>
</g>
<!-- Node19&#45;&gt;Node20 -->
<g id="edge23_Node000019_Node000020" class="edge">
<title>Node19&#45;&gt;Node20</title>
<g id="a_edge23_Node000019_Node000020"><a xlink:title=" ">
<path fill="none" stroke="#63b8ff" d="M714.46,-109.21C686.76,-106.94 654.84,-104.33 632.11,-102.46"/>
<polygon fill="#63b8ff" stroke="#63b8ff" points="714.2,-112.7 724.46,-110.03 714.77,-105.72 714.2,-112.7"/>
</a>
</g>
</g>
<!-- Node20&#45;&gt;Node3 -->
<g id="edge24_Node000020_Node000003" class="edge">
<title>Node20&#45;&gt;Node3</title>
<g id="a_edge24_Node000020_Node000003"><a xlink:title=" ">
<path fill="none" stroke="#63b8ff" d="M566.19,-113.9C553.41,-120.13 539.25,-128.28 528,-138 481.56,-178.16 443.76,-241.88 427.97,-270.82"/>
<polygon fill="#63b8ff" stroke="#63b8ff" points="568.02,-116.91 575.62,-109.52 565.08,-110.56 568.02,-116.91"/>
</a>
</g>
</g>
<!-- Node21 -->
<g id="Node000021" class="node">
<title>Node21</title>
<g id="a_Node000021"><a xlink:href="classalpaqa_1_1LimitedMemoryQR.html#a33f0a7b277c8d3c311b0b4868c55eda1" target="_top" xlink:title="Solve the least squares problem AX = B.">
<polygon fill="white" stroke="#666666" points="440.5,-102.5 397.5,-102.5 397.5,-83.5 440.5,-83.5 440.5,-102.5"/>
<text text-anchor="middle" x="419" y="-90.5" font-family="Helvetica,sans-Serif" font-size="10.00">solve</text>
</a>
</g>
</g>
<!-- Node20&#45;&gt;Node21 -->
<g id="edge25_Node000020_Node000021" class="edge">
<title>Node20&#45;&gt;Node21</title>
<g id="a_edge25_Node000020_Node000021"><a xlink:title=" ">
<path fill="none" stroke="#63b8ff" d="M559.45,-98.42C522.54,-96.99 469.55,-94.93 440.67,-93.8"/>
<polygon fill="#63b8ff" stroke="#63b8ff" points="559.74,-101.94 569.87,-98.83 560.02,-94.94 559.74,-101.94"/>
</a>
</g>
</g>
<!-- Node21&#45;&gt;Node22 -->
<g id="edge26_Node000021_Node000022" class="edge">
<title>Node21&#45;&gt;Node22</title>
<g id="a_edge26_Node000021_Node000022"><a xlink:title=" ">
<path fill="none" stroke="#63b8ff" d="M387.36,-84.04C352.8,-73.94 297.53,-57.77 267.7,-49.05"/>
<polygon fill="#63b8ff" stroke="#63b8ff" points="386.79,-87.52 397.37,-86.97 388.76,-80.8 386.79,-87.52"/>
</a>
</g>
</g>
<!-- Node24 -->
<g id="Node000024" class="node">
<title>Node24</title>
<g id="a_Node000024"><a xlink:href="classalpaqa_1_1AndersonAccel.html#adf11f99cb8b119423c86498dbaab9820" target="_top" xlink:title="Scale the factorization.">
<polygon fill="white" stroke="#666666" points="665,-58 537,-58 537,-28 665,-28 665,-58"/>
<text text-anchor="start" x="545" y="-46" font-family="Helvetica,sans-Serif" font-size="10.00">alpaqa::AndersonAccel</text>
<text text-anchor="middle" x="601" y="-35" font-family="Helvetica,sans-Serif" font-size="10.00">::scale_R</text>
</a>
</g>
</g>
<!-- Node23&#45;&gt;Node24 -->
<g id="edge28_Node000023_Node000024" class="edge">
<title>Node23&#45;&gt;Node24</title>
<g id="a_edge28_Node000023_Node000024"><a xlink:title=" ">
<path fill="none" stroke="#63b8ff" d="M736.41,-39.07C715.72,-39.67 689.28,-40.45 665.33,-41.15"/>
<polygon fill="#63b8ff" stroke="#63b8ff" points="736.76,-42.56 746.66,-38.77 736.56,-35.56 736.76,-42.56"/>
</a>
</g>
</g>
<!-- Node25 -->
<g id="Node000025" class="node">
<title>Node25</title>
<g id="a_Node000025"><a xlink:href="structalpaqa_1_1AndersonDirection.html#a0a4209f98cf9b6125e83cc5d3ec47a8b" target="_top" xlink:title=" ">
<polygon fill="white" stroke="#666666" points="492,-58 346,-58 346,-28 492,-28 492,-58"/>
<text text-anchor="start" x="354" y="-46" font-family="Helvetica,sans-Serif" font-size="10.00">alpaqa::AndersonDirection</text>
<text text-anchor="middle" x="419" y="-35" font-family="Helvetica,sans-Serif" font-size="10.00">::changed_γ</text>
</a>
</g>
</g>
<!-- Node24&#45;&gt;Node25 -->
<g id="edge29_Node000024_Node000025" class="edge">
<title>Node24&#45;&gt;Node25</title>
<g id="a_edge29_Node000024_Node000025"><a xlink:title=" ">
<path fill="none" stroke="#63b8ff" d="M526.53,-43C515.23,-43 503.57,-43 492.29,-43"/>
<polygon fill="#63b8ff" stroke="#63b8ff" points="526.79,-46.5 536.79,-43 526.79,-39.5 526.79,-46.5"/>
</a>
</g>
</g>
</g>
</svg>

<g id="navigator" transform="translate(0 0)" fill="#404254">
  <rect fill="#f2f5e9" fill-opacity="0.5" stroke="#606060" stroke-width=".5" x="0" y="0" width="60" height="60"/>
  <use id="zoomplus" xlink:href="#zoomPlus" x="17" y="9" onmousedown="handleZoom(evt,'in')"/>
  <use id="zoomminus" xlink:href="#zoomMin" x="42" y="9" onmousedown="handleZoom(evt,'out')"/>
  <use id="reset" xlink:href="#resetDef" x="30" y="36" onmousedown="handleReset()"/>
   <use id="arrowup" xlink:href="#arrowUp" x="0" y="0" onmousedown="handlePan(0,-1)"/>
  <use id="arrowright" xlink:href="#arrowRight" x="0" y="0" onmousedown="handlePan(1,0)"/>
  <use id="arrowdown" xlink:href="#arrowDown" x="0" y="0" onmousedown="handlePan(0,1)"/>
  <use id="arrowleft" xlink:href="#arrowLeft" x="0" y="0" onmousedown="handlePan(-1,0)"/>
</g>
<svg viewBox="0 0 15 15" width="100%" height="30px" preserveAspectRatio="xMaxYMin meet">
 <g id="arrow_out" transform="scale(0.3 0.3)">
  <a xlink:href="classalpaqa_1_1LimitedMemoryQR_ac397ae83f5f4dd3d5cf9926f26acfb2d_icgraph_org.svg" target="_base">
   <rect id="button" ry="5" rx="5" y="6" x="6" height="38" width="38"
        fill="#f2f5e9" fill-opacity="0.5" stroke="#606060" stroke-width="1.0"/>
   <path id="arrow"
     d="M 11.500037,31.436501 C 11.940474,20.09759 22.043105,11.32322 32.158766,21.979434 L 37.068811,17.246167 C 37.068811,17.246167 37.088388,32 37.088388,32 L 22.160133,31.978069 C 22.160133,31.978069 26.997745,27.140456 26.997745,27.140456 C 18.528582,18.264221 13.291696,25.230495 11.500037,31.436501 z"
     style="fill:#404040;"/>
  </a>
 </g>
</svg>

<style type='text/css'>
<![CDATA[
[data-mouse-over-selected='false'] { opacity: 0.7; }
[data-mouse-over-selected='true']  { opacity: 1.0; }
]]>
</style>
<script type="application/ecmascript"><![CDATA[
document.addEventListener('DOMContentLoaded', (event) => {
  highlightEdges();
  highlightAdjacentNodes();
});
]]></script>
</svg>
