<?xml version="1.0" encoding="UTF-8" standalone="no"?>
<!DOCTYPE svg PUBLIC "-//W3C//DTD SVG 1.1//EN"
 "http://www.w3.org/Graphics/SVG/1.1/DTD/svg11.dtd">
<!-- Generated by graphviz version 2.43.0 (0)
 -->
<!-- Title: FunctionalProblem&lt; Conf &gt; Pages: 1 -->
<!--zoomable 1249 -->

<svg id="main" version="1.1" xmlns="http://www.w3.org/2000/svg" xmlns:xlink="http://www.w3.org/1999/xlink" xml:space="preserve" onload="init(evt)">
<style type="text/css"><![CDATA[
.node, .edge {opacity: 0.7;}
.node.selected, .edge.selected {opacity: 1;}
.edge:hover path { stroke: red; }
.edge:hover polygon { stroke: red; fill: red; }
]]></style>

<defs>
  <circle id="rim" cx="0" cy="0" r="7"/>
  <circle id="rim2" cx="0" cy="0" r="3.5"/>
  <g id="zoomPlus">
    <use xlink:href="#rim" fill="#404040"><set attributeName="fill" to="#808080" begin="zoomplus.mouseover" end="zoomplus.mouseout"/></use>
    <path d="M-4,0h8M0,-4v8" fill="none" stroke="white" stroke-width="1.5" pointer-events="none"/>
  </g>
  <g id="zoomMin">
    <use xlink:href="#rim" fill="#404040"><set attributeName="fill" to="#808080" begin="zoomminus.mouseover" end="zoomminus.mouseout"/></use>
    <path d="M-4,0h8" fill="none" stroke="white" stroke-width="1.5" pointer-events="none"/>
  </g>
  <g id="arrowUp" transform="translate(30 24)">
    <use xlink:href="#rim"/>
    <path pointer-events="none" fill="none" stroke="white" stroke-width="1.5" d="M0,-3.0v7 M-2.5,-0.5L0,-3.0L2.5,-0.5"/>
  </g>
  <g id="arrowRight" transform="rotate(90) translate(36 -43)">
    <use xlink:href="#rim"/>
    <path pointer-events="none" fill="none" stroke="white" stroke-width="1.5" d="M0,-3.0v7 M-2.5,-0.5L0,-3.0L2.5,-0.5"/>
  </g>
  <g id="arrowDown" transform="rotate(180) translate(-30 -48)">
    <use xlink:href="#rim"/>
    <path pointer-events="none" fill="none" stroke="white" stroke-width="1.5" d="M0,-3.0v7 M-2.5,-0.5L0,-3.0L2.5,-0.5"/>
  </g>
  <g id="arrowLeft" transform="rotate(270) translate(-36 17)">
    <use xlink:href="#rim"/>
    <path pointer-events="none" fill="none" stroke="white" stroke-width="1.5" d="M0,-3.0v7 M-2.5,-0.5L0,-3.0L2.5,-0.5"/>
  </g>
  <g id="resetDef">
    <use xlink:href="#rim2" fill="#404040"><set attributeName="fill" to="#808080" begin="reset.mouseover" end="reset.mouseout"/></use>
  </g>
</defs>
<script type="application/ecmascript">
var viewWidth = 154;
var viewHeight = 1249;
var sectionId = 'dynsection-1';
</script>
<script type="application/ecmascript" xlink:href="svg.min.js"/>
<svg id="graph" class="graph">
<g id="viewport">
<title>FunctionalProblem&lt; Conf &gt;</title>
<!-- Node1 -->
<g id="Node000001" class="node">
<title>Node1</title>
<g id="a_Node000001"><a xlink:title="Problem class that allows specifying the basic functions as C++ std::functions.">
<polygon fill="#999999" stroke="transparent" points="142.5,-517 3.5,-517 3.5,0 142.5,0 142.5,-517"/>
<text text-anchor="start" x="23.5" y="-504.5" font-family="Helvetica,sans-Serif" font-size="10.00">FunctionalProblem&lt;</text>
<text text-anchor="start" x="55" y="-493.5" font-family="Helvetica,sans-Serif" font-size="10.00"> Conf &gt;</text>
<text text-anchor="start" x="8" y="-478.5" font-family="Helvetica,sans-Serif" font-size="10.00">+</text>
<text text-anchor="start" x="21" y="-478.5" font-family="Helvetica,sans-Serif" font-size="10.00">f</text>
<text text-anchor="start" x="8" y="-463.5" font-family="Helvetica,sans-Serif" font-size="10.00">+</text>
<text text-anchor="start" x="21" y="-463.5" font-family="Helvetica,sans-Serif" font-size="10.00">grad_f</text>
<text text-anchor="start" x="8" y="-448.5" font-family="Helvetica,sans-Serif" font-size="10.00">+</text>
<text text-anchor="start" x="21" y="-448.5" font-family="Helvetica,sans-Serif" font-size="10.00">g</text>
<text text-anchor="start" x="8" y="-433.5" font-family="Helvetica,sans-Serif" font-size="10.00">+</text>
<text text-anchor="start" x="21" y="-433.5" font-family="Helvetica,sans-Serif" font-size="10.00">grad_g_prod</text>
<text text-anchor="start" x="8" y="-418.5" font-family="Helvetica,sans-Serif" font-size="10.00">+</text>
<text text-anchor="start" x="21" y="-418.5" font-family="Helvetica,sans-Serif" font-size="10.00">grad_gi</text>
<text text-anchor="start" x="8" y="-403.5" font-family="Helvetica,sans-Serif" font-size="10.00">+</text>
<text text-anchor="start" x="21" y="-403.5" font-family="Helvetica,sans-Serif" font-size="10.00">jac_g</text>
<text text-anchor="start" x="8" y="-388.5" font-family="Helvetica,sans-Serif" font-size="10.00">+</text>
<text text-anchor="start" x="21" y="-388.5" font-family="Helvetica,sans-Serif" font-size="10.00">hess_L_prod</text>
<text text-anchor="start" x="8" y="-373.5" font-family="Helvetica,sans-Serif" font-size="10.00">+</text>
<text text-anchor="start" x="21" y="-373.5" font-family="Helvetica,sans-Serif" font-size="10.00">hess_L</text>
<text text-anchor="start" x="8" y="-358.5" font-family="Helvetica,sans-Serif" font-size="10.00">+</text>
<text text-anchor="start" x="21" y="-358.5" font-family="Helvetica,sans-Serif" font-size="10.00">hess_ψ_prod</text>
<text text-anchor="start" x="8" y="-343.5" font-family="Helvetica,sans-Serif" font-size="10.00">+</text>
<text text-anchor="start" x="21" y="-343.5" font-family="Helvetica,sans-Serif" font-size="10.00">hess_ψ</text>
<text text-anchor="start" x="8" y="-328.5" font-family="Helvetica,sans-Serif" font-size="10.00">+</text>
<text text-anchor="start" x="21" y="-328.5" font-family="Helvetica,sans-Serif" font-size="10.00">eval_f()</text>
<text text-anchor="start" x="8" y="-313.5" font-family="Helvetica,sans-Serif" font-size="10.00">+</text>
<text text-anchor="start" x="21" y="-313.5" font-family="Helvetica,sans-Serif" font-size="10.00">eval_grad_f()</text>
<text text-anchor="start" x="8" y="-298.5" font-family="Helvetica,sans-Serif" font-size="10.00">+</text>
<text text-anchor="start" x="21" y="-298.5" font-family="Helvetica,sans-Serif" font-size="10.00">eval_g()</text>
<text text-anchor="start" x="8" y="-283.5" font-family="Helvetica,sans-Serif" font-size="10.00">+</text>
<text text-anchor="start" x="21" y="-283.5" font-family="Helvetica,sans-Serif" font-size="10.00">eval_grad_g_prod()</text>
<text text-anchor="start" x="8" y="-268.5" font-family="Helvetica,sans-Serif" font-size="10.00">+</text>
<text text-anchor="start" x="21" y="-268.5" font-family="Helvetica,sans-Serif" font-size="10.00">eval_grad_gi()</text>
<text text-anchor="start" x="8" y="-253.5" font-family="Helvetica,sans-Serif" font-size="10.00">+</text>
<text text-anchor="start" x="21" y="-253.5" font-family="Helvetica,sans-Serif" font-size="10.00">eval_hess_L_prod()</text>
<text text-anchor="start" x="8" y="-238.5" font-family="Helvetica,sans-Serif" font-size="10.00">+</text>
<text text-anchor="start" x="21" y="-238.5" font-family="Helvetica,sans-Serif" font-size="10.00">eval_hess_ψ_prod()</text>
<text text-anchor="start" x="8" y="-223.5" font-family="Helvetica,sans-Serif" font-size="10.00">+</text>
<text text-anchor="start" x="21" y="-223.5" font-family="Helvetica,sans-Serif" font-size="10.00">eval_jac_g()</text>
<text text-anchor="start" x="8" y="-208.5" font-family="Helvetica,sans-Serif" font-size="10.00">+</text>
<text text-anchor="start" x="21" y="-208.5" font-family="Helvetica,sans-Serif" font-size="10.00">eval_hess_L()</text>
<text text-anchor="start" x="8" y="-193.5" font-family="Helvetica,sans-Serif" font-size="10.00">+</text>
<text text-anchor="start" x="21" y="-193.5" font-family="Helvetica,sans-Serif" font-size="10.00">eval_hess_ψ()</text>
<text text-anchor="start" x="8" y="-178.5" font-family="Helvetica,sans-Serif" font-size="10.00">+</text>
<text text-anchor="start" x="21" y="-178.5" font-family="Helvetica,sans-Serif" font-size="10.00">provides_eval_grad_gi()</text>
<text text-anchor="start" x="8" y="-163.5" font-family="Helvetica,sans-Serif" font-size="10.00">+</text>
<text text-anchor="start" x="21" y="-163.5" font-family="Helvetica,sans-Serif" font-size="10.00">provides_eval_jac_g()</text>
<text text-anchor="start" x="8" y="-148.5" font-family="Helvetica,sans-Serif" font-size="10.00">+</text>
<text text-anchor="start" x="21" y="-148.5" font-family="Helvetica,sans-Serif" font-size="10.00">provides_eval_hess</text>
<text text-anchor="start" x="21" y="-137.5" font-family="Helvetica,sans-Serif" font-size="10.00">_L_prod()</text>
<text text-anchor="start" x="8" y="-122.5" font-family="Helvetica,sans-Serif" font-size="10.00">+</text>
<text text-anchor="start" x="21" y="-122.5" font-family="Helvetica,sans-Serif" font-size="10.00">provides_eval_hess_L()</text>
<text text-anchor="start" x="8" y="-107.5" font-family="Helvetica,sans-Serif" font-size="10.00">+</text>
<text text-anchor="start" x="21" y="-107.5" font-family="Helvetica,sans-Serif" font-size="10.00">provides_eval_hess</text>
<text text-anchor="start" x="21" y="-96.5" font-family="Helvetica,sans-Serif" font-size="10.00">_ψ_prod()</text>
<text text-anchor="start" x="8" y="-81.5" font-family="Helvetica,sans-Serif" font-size="10.00">+</text>
<text text-anchor="start" x="21" y="-81.5" font-family="Helvetica,sans-Serif" font-size="10.00">provides_eval_hess_ψ()</text>
<text text-anchor="start" x="8" y="-66.5" font-family="Helvetica,sans-Serif" font-size="10.00">+</text>
<text text-anchor="start" x="21" y="-66.5" font-family="Helvetica,sans-Serif" font-size="10.00">get_name()</text>
<text text-anchor="start" x="8" y="-51.5" font-family="Helvetica,sans-Serif" font-size="10.00">+</text>
<text text-anchor="start" x="21" y="-51.5" font-family="Helvetica,sans-Serif" font-size="10.00">FunctionalProblem()</text>
<text text-anchor="start" x="8" y="-36.5" font-family="Helvetica,sans-Serif" font-size="10.00">+</text>
<text text-anchor="start" x="21" y="-36.5" font-family="Helvetica,sans-Serif" font-size="10.00">operator=()</text>
<text text-anchor="start" x="8" y="-21.5" font-family="Helvetica,sans-Serif" font-size="10.00">+</text>
<text text-anchor="start" x="21" y="-21.5" font-family="Helvetica,sans-Serif" font-size="10.00">FunctionalProblem()</text>
<text text-anchor="start" x="8" y="-6.5" font-family="Helvetica,sans-Serif" font-size="10.00">+</text>
<text text-anchor="start" x="21" y="-6.5" font-family="Helvetica,sans-Serif" font-size="10.00">operator=()</text>
<polygon fill="#666666" stroke="#666666" points="4,-488.5 4,-488.5 143,-488.5 143,-488.5 4,-488.5"/>
<polygon fill="#666666" stroke="#666666" points="4,-338.5 4,-338.5 19,-338.5 19,-338.5 4,-338.5"/>
<polygon fill="#666666" stroke="#666666" points="19,-338.5 19,-338.5 143,-338.5 143,-338.5 19,-338.5"/>
<polygon fill="none" stroke="#666666" points="3.5,0 3.5,-517 142.5,-517 142.5,0 3.5,0"/>
</a>
</g>
</g>
<!-- Node2 -->
<g id="Node000002" class="node">
<title>Node2</title>
<g id="a_Node000002"><a xlink:href="classalpaqa_1_1BoxConstrProblem.html" target="_top" xlink:title="Implements common problem functions for minimization problems with box constraints.">
<polygon fill="white" stroke="transparent" points="146,-1059 0,-1059 0,-554 146,-554 146,-1059"/>
<text text-anchor="start" x="5" y="-1046.5" font-family="Helvetica,sans-Serif" font-size="10.00">BoxConstrProblem&lt; Conf &gt;</text>
<text text-anchor="start" x="7.5" y="-1031.5" font-family="Helvetica,sans-Serif" font-size="10.00">+</text>
<text text-anchor="start" x="24" y="-1031.5" font-family="Helvetica,sans-Serif" font-size="10.00">n</text>
<text text-anchor="start" x="7.5" y="-1016.5" font-family="Helvetica,sans-Serif" font-size="10.00">+</text>
<text text-anchor="start" x="24" y="-1016.5" font-family="Helvetica,sans-Serif" font-size="10.00">m</text>
<text text-anchor="start" x="7.5" y="-1001.5" font-family="Helvetica,sans-Serif" font-size="10.00">+</text>
<text text-anchor="start" x="24" y="-1001.5" font-family="Helvetica,sans-Serif" font-size="10.00">l1_reg</text>
<text text-anchor="start" x="7.5" y="-986.5" font-family="Helvetica,sans-Serif" font-size="10.00">+</text>
<text text-anchor="start" x="24" y="-986.5" font-family="Helvetica,sans-Serif" font-size="10.00">penalty_alm_split</text>
<text text-anchor="start" x="7.5" y="-971.5" font-family="Helvetica,sans-Serif" font-size="10.00">+</text>
<text text-anchor="start" x="24" y="-971.5" font-family="Helvetica,sans-Serif" font-size="10.00">BoxConstrProblem()</text>
<text text-anchor="start" x="7.5" y="-956.5" font-family="Helvetica,sans-Serif" font-size="10.00">+</text>
<text text-anchor="start" x="24" y="-956.5" font-family="Helvetica,sans-Serif" font-size="10.00">BoxConstrProblem()</text>
<text text-anchor="start" x="7.5" y="-941.5" font-family="Helvetica,sans-Serif" font-size="10.00">+</text>
<text text-anchor="start" x="24" y="-941.5" font-family="Helvetica,sans-Serif" font-size="10.00">BoxConstrProblem()</text>
<text text-anchor="start" x="7.5" y="-926.5" font-family="Helvetica,sans-Serif" font-size="10.00">+</text>
<text text-anchor="start" x="24" y="-926.5" font-family="Helvetica,sans-Serif" font-size="10.00">resize()</text>
<text text-anchor="start" x="7.5" y="-911.5" font-family="Helvetica,sans-Serif" font-size="10.00">+</text>
<text text-anchor="start" x="24" y="-911.5" font-family="Helvetica,sans-Serif" font-size="10.00">BoxConstrProblem()</text>
<text text-anchor="start" x="7.5" y="-896.5" font-family="Helvetica,sans-Serif" font-size="10.00">+</text>
<text text-anchor="start" x="24" y="-896.5" font-family="Helvetica,sans-Serif" font-size="10.00">operator=()</text>
<text text-anchor="start" x="7.5" y="-881.5" font-family="Helvetica,sans-Serif" font-size="10.00">+</text>
<text text-anchor="start" x="24" y="-881.5" font-family="Helvetica,sans-Serif" font-size="10.00">BoxConstrProblem()</text>
<text text-anchor="start" x="7.5" y="-866.5" font-family="Helvetica,sans-Serif" font-size="10.00">+</text>
<text text-anchor="start" x="24" y="-866.5" font-family="Helvetica,sans-Serif" font-size="10.00">operator=()</text>
<text text-anchor="start" x="7.5" y="-851.5" font-family="Helvetica,sans-Serif" font-size="10.00">+</text>
<text text-anchor="start" x="24" y="-851.5" font-family="Helvetica,sans-Serif" font-size="10.00">get_n()</text>
<text text-anchor="start" x="7.5" y="-836.5" font-family="Helvetica,sans-Serif" font-size="10.00">+</text>
<text text-anchor="start" x="24" y="-836.5" font-family="Helvetica,sans-Serif" font-size="10.00">get_m()</text>
<text text-anchor="start" x="7.5" y="-821.5" font-family="Helvetica,sans-Serif" font-size="10.00">+</text>
<text text-anchor="start" x="24" y="-821.5" font-family="Helvetica,sans-Serif" font-size="10.00">eval_prox_grad_step()</text>
<text text-anchor="start" x="7.5" y="-806.5" font-family="Helvetica,sans-Serif" font-size="10.00">+</text>
<text text-anchor="start" x="24" y="-806.5" font-family="Helvetica,sans-Serif" font-size="10.00">eval_proj_diff_g()</text>
<text text-anchor="start" x="7.5" y="-791.5" font-family="Helvetica,sans-Serif" font-size="10.00">+</text>
<text text-anchor="start" x="24" y="-791.5" font-family="Helvetica,sans-Serif" font-size="10.00">eval_proj_multipliers()</text>
<text text-anchor="start" x="7.5" y="-776.5" font-family="Helvetica,sans-Serif" font-size="10.00">+</text>
<text text-anchor="start" x="24" y="-776.5" font-family="Helvetica,sans-Serif" font-size="10.00">get_box_C()</text>
<text text-anchor="start" x="7.5" y="-761.5" font-family="Helvetica,sans-Serif" font-size="10.00">+</text>
<text text-anchor="start" x="24" y="-761.5" font-family="Helvetica,sans-Serif" font-size="10.00">get_box_D()</text>
<text text-anchor="start" x="7.5" y="-746.5" font-family="Helvetica,sans-Serif" font-size="10.00">+</text>
<text text-anchor="start" x="24" y="-746.5" font-family="Helvetica,sans-Serif" font-size="10.00">provides_get_box_C()</text>
<text text-anchor="start" x="7.5" y="-731.5" font-family="Helvetica,sans-Serif" font-size="10.00">+</text>
<text text-anchor="start" x="24" y="-731.5" font-family="Helvetica,sans-Serif" font-size="10.00">eval_inactive_indices</text>
<text text-anchor="start" x="24" y="-720.5" font-family="Helvetica,sans-Serif" font-size="10.00">_res_lna()</text>
<text text-anchor="start" x="7.5" y="-705.5" font-family="Helvetica,sans-Serif" font-size="10.00">+</text>
<text text-anchor="start" x="24" y="-705.5" font-family="Helvetica,sans-Serif" font-size="10.00">check()</text>
<text text-anchor="start" x="7.5" y="-690.5" font-family="Helvetica,sans-Serif" font-size="10.00">+</text>
<text text-anchor="start" x="24" y="-690.5" font-family="Helvetica,sans-Serif" font-size="10.00">get_name()</text>
<text text-anchor="start" x="7.5" y="-675.5" font-family="Helvetica,sans-Serif" font-size="10.00">+</text>
<text text-anchor="start" x="24" y="-675.5" font-family="Helvetica,sans-Serif" font-size="10.00">eval_proj_grad_step</text>
<text text-anchor="start" x="24" y="-664.5" font-family="Helvetica,sans-Serif" font-size="10.00">_box()</text>
<text text-anchor="start" x="7.5" y="-649.5" font-family="Helvetica,sans-Serif" font-size="10.00">+</text>
<text text-anchor="start" x="24" y="-649.5" font-family="Helvetica,sans-Serif" font-size="10.00">eval_prox_grad_step</text>
<text text-anchor="start" x="24" y="-638.5" font-family="Helvetica,sans-Serif" font-size="10.00">_box_l1_impl()</text>
<text text-anchor="start" x="7.5" y="-623.5" font-family="Helvetica,sans-Serif" font-size="10.00">+</text>
<text text-anchor="start" x="24" y="-623.5" font-family="Helvetica,sans-Serif" font-size="10.00">eval_prox_grad_step</text>
<text text-anchor="start" x="24" y="-612.5" font-family="Helvetica,sans-Serif" font-size="10.00">_box_l1()</text>
<text text-anchor="start" x="7.5" y="-597.5" font-family="Helvetica,sans-Serif" font-size="10.00">+</text>
<text text-anchor="start" x="24" y="-597.5" font-family="Helvetica,sans-Serif" font-size="10.00">eval_prox_grad_step</text>
<text text-anchor="start" x="24" y="-586.5" font-family="Helvetica,sans-Serif" font-size="10.00">_box_l1_scal()</text>
<text text-anchor="start" x="7.5" y="-571.5" font-family="Helvetica,sans-Serif" font-size="10.00">+</text>
<text text-anchor="start" x="24" y="-571.5" font-family="Helvetica,sans-Serif" font-size="10.00">eval_proj_multipliers</text>
<text text-anchor="start" x="24" y="-560.5" font-family="Helvetica,sans-Serif" font-size="10.00">_box()</text>
<polygon fill="#666666" stroke="#666666" points="0,-1041.5 0,-1041.5 146,-1041.5 146,-1041.5 0,-1041.5"/>
<polygon fill="#666666" stroke="#666666" points="0,-981.5 0,-981.5 22,-981.5 22,-981.5 0,-981.5"/>
<polygon fill="#666666" stroke="#666666" points="22,-981.5 22,-981.5 146,-981.5 146,-981.5 22,-981.5"/>
<polygon fill="none" stroke="#666666" points="0,-554 0,-1059 146,-1059 146,-554 0,-554"/>
</a>
</g>
</g>
<!-- Node2&#45;&gt;Node1 -->
<g id="edge1_Node000001_Node000002" class="edge">
<title>Node2&#45;&gt;Node1</title>
<g id="a_edge1_Node000001_Node000002"><a xlink:title=" ">
<path fill="none" stroke="#63b8ff" d="M73,-543.4C73,-534.64 73,-525.86 73,-517.11"/>
<polygon fill="none" stroke="#63b8ff" points="69.5,-543.68 73,-553.68 76.5,-543.68 69.5,-543.68"/>
</a>
</g>
</g>
<!-- Node3 -->
<g id="Node000003" class="node">
<title>Node3</title>
<g id="a_Node000003"><a xlink:href="structalpaqa_1_1sets_1_1Box.html" target="_top" xlink:title=" ">
<polygon fill="white" stroke="transparent" points="132,-1241 14,-1241 14,-1117 132,-1117 132,-1241"/>
<text text-anchor="start" x="33" y="-1229" font-family="Helvetica,sans-Serif" font-size="10.00">Box&lt; config_t &gt;</text>
<text text-anchor="start" x="18" y="-1214" font-family="Helvetica,sans-Serif" font-size="10.00">+</text>
<text text-anchor="start" x="31" y="-1214" font-family="Helvetica,sans-Serif" font-size="10.00">lowerbound</text>
<text text-anchor="start" x="18" y="-1199" font-family="Helvetica,sans-Serif" font-size="10.00">+</text>
<text text-anchor="start" x="31" y="-1199" font-family="Helvetica,sans-Serif" font-size="10.00">upperbound</text>
<text text-anchor="start" x="18" y="-1184" font-family="Helvetica,sans-Serif" font-size="10.00">+</text>
<text text-anchor="start" x="31" y="-1184" font-family="Helvetica,sans-Serif" font-size="10.00">Box()</text>
<text text-anchor="start" x="18" y="-1169" font-family="Helvetica,sans-Serif" font-size="10.00">+</text>
<text text-anchor="start" x="31" y="-1169" font-family="Helvetica,sans-Serif" font-size="10.00">Box()</text>
<text text-anchor="start" x="18" y="-1154" font-family="Helvetica,sans-Serif" font-size="10.00">+</text>
<text text-anchor="start" x="31" y="-1154" font-family="Helvetica,sans-Serif" font-size="10.00">NaN()</text>
<text text-anchor="start" x="18" y="-1139" font-family="Helvetica,sans-Serif" font-size="10.00">+</text>
<text text-anchor="start" x="31" y="-1139" font-family="Helvetica,sans-Serif" font-size="10.00">from_lower_upper()</text>
<text text-anchor="start" x="20.5" y="-1124" font-family="Helvetica,sans-Serif" font-size="10.00">&#45;</text>
<text text-anchor="start" x="31" y="-1124" font-family="Helvetica,sans-Serif" font-size="10.00">Box()</text>
<polygon fill="#666666" stroke="#666666" points="14,-1224 14,-1224 132,-1224 132,-1224 14,-1224"/>
<polygon fill="#666666" stroke="#666666" points="14,-1194 14,-1194 29,-1194 29,-1194 14,-1194"/>
<polygon fill="#666666" stroke="#666666" points="29,-1194 29,-1194 132,-1194 132,-1194 29,-1194"/>
<polygon fill="none" stroke="#666666" points="14,-1117 14,-1241 132,-1241 132,-1117 14,-1117"/>
</a>
</g>
</g>
<!-- Node3&#45;&gt;Node2 -->
<g id="edge2_Node000002_Node000003" class="edge">
<title>Node3&#45;&gt;Node2</title>
<g id="a_edge2_Node000002_Node000003"><a xlink:title=" ">
<path fill="none" stroke="#63b8ff" d="M73,-1116.82C73,-1103.09 73,-1087.68 73,-1071.26"/>
<polygon fill="none" stroke="#63b8ff" points="73,-1071.14 69,-1065.14 73,-1059.14 77,-1065.14 73,-1071.14"/>
</a>
</g>
<text text-anchor="middle" x="82.5" y="-1091" font-family="Helvetica,sans-Serif" font-size="10.00" fill="grey"> +C</text>
<text text-anchor="middle" x="82.5" y="-1080" font-family="Helvetica,sans-Serif" font-size="10.00" fill="grey">+D</text>
</g>
</g>
</svg>

<g id="navigator" transform="translate(0 0)" fill="#404254">
  <rect fill="#f2f5e9" fill-opacity="0.5" stroke="#606060" stroke-width=".5" x="0" y="0" width="60" height="60"/>
  <use id="zoomplus" xlink:href="#zoomPlus" x="17" y="9" onmousedown="handleZoom(evt,'in')"/>
  <use id="zoomminus" xlink:href="#zoomMin" x="42" y="9" onmousedown="handleZoom(evt,'out')"/>
  <use id="reset" xlink:href="#resetDef" x="30" y="36" onmousedown="handleReset()"/>
   <use id="arrowup" xlink:href="#arrowUp" x="0" y="0" onmousedown="handlePan(0,-1)"/>
  <use id="arrowright" xlink:href="#arrowRight" x="0" y="0" onmousedown="handlePan(1,0)"/>
  <use id="arrowdown" xlink:href="#arrowDown" x="0" y="0" onmousedown="handlePan(0,1)"/>
  <use id="arrowleft" xlink:href="#arrowLeft" x="0" y="0" onmousedown="handlePan(-1,0)"/>
</g>
<svg viewBox="0 0 15 15" width="100%" height="30px" preserveAspectRatio="xMaxYMin meet">
 <g id="arrow_out" transform="scale(0.3 0.3)">
  <a xlink:href="classalpaqa_1_1FunctionalProblem__coll__graph_org.svg" target="_base">
   <rect id="button" ry="5" rx="5" y="6" x="6" height="38" width="38"
        fill="#f2f5e9" fill-opacity="0.5" stroke="#606060" stroke-width="1.0"/>
   <path id="arrow"
     d="M 11.500037,31.436501 C 11.940474,20.09759 22.043105,11.32322 32.158766,21.979434 L 37.068811,17.246167 C 37.068811,17.246167 37.088388,32 37.088388,32 L 22.160133,31.978069 C 22.160133,31.978069 26.997745,27.140456 26.997745,27.140456 C 18.528582,18.264221 13.291696,25.230495 11.500037,31.436501 z"
     style="fill:#404040;"/>
  </a>
 </g>
</svg>

<style type='text/css'>
<![CDATA[
[data-mouse-over-selected='false'] { opacity: 0.7; }
[data-mouse-over-selected='true']  { opacity: 1.0; }
]]>
</style>
<script type="application/ecmascript"><![CDATA[
document.addEventListener('DOMContentLoaded', (event) => {
  highlightEdges();
  highlightAdjacentNodes();
});
]]></script>
</svg>
