<?xml version="1.0" encoding="UTF-8" standalone="no"?>
<!DOCTYPE svg PUBLIC "-//W3C//DTD SVG 1.1//EN"
 "http://www.w3.org/Graphics/SVG/1.1/DTD/svg11.dtd">
<!-- Generated by graphviz version 2.43.0 (0)
 -->
<!-- Title: wrap Pages: 1 -->
<svg width="213pt" height="45pt"
 viewBox="0.00 0.00 212.88 45.00" xmlns="http://www.w3.org/2000/svg" xmlns:xlink="http://www.w3.org/1999/xlink">
<g id="graph0" class="graph" transform="scale(1 1) rotate(0) translate(4 41)">
<title>wrap</title>
<!-- Node1 -->
<g id="Node000001" class="node">
<title>Node1</title>
<g id="a_Node000001"><a xlink:title=" ">
<polygon fill="#999999" stroke="#666666" points="42.88,-19 1.88,-19 1.88,0 42.88,0 42.88,-19"/>
<text text-anchor="middle" x="22.38" y="-7" font-family="Helvetica,sans-Serif" font-size="10.00">wrap</text>
</a>
</g>
</g>
<!-- Node1&#45;&gt;Node1 -->
<g id="edge2_Node000001_Node000001" class="edge">
<title>Node1&#45;&gt;Node1</title>
<g id="a_edge2_Node000001_Node000001"><a xlink:title=" ">
<path fill="none" stroke="#63b8ff" d="M4.19,-19.08C-4.66,-27.73 1.4,-37 22.38,-37 35.48,-37 42.77,-33.38 44.23,-28.55"/>
<polygon fill="#63b8ff" stroke="#63b8ff" points="47.43,-27.15 40.56,-19.08 40.91,-29.67 47.43,-27.15"/>
</a>
</g>
</g>
<!-- Node2 -->
<g id="Node000002" class="node">
<title>Node2</title>
<g id="a_Node000002"><a xlink:href="demangled-typename_8cpp.html#a994032931a27ca4de5eea3f786057b17" target="_top" xlink:title="Get the pretty name of the given type as a string.">
<polygon fill="white" stroke="#666666" points="204.88,-19 78.88,-19 78.88,0 204.88,0 204.88,-19"/>
<text text-anchor="middle" x="141.88" y="-7" font-family="Helvetica,sans-Serif" font-size="10.00">demangled_typename</text>
</a>
</g>
</g>
<!-- Node1&#45;&gt;Node2 -->
<g id="edge1_Node000001_Node000002" class="edge">
<title>Node1&#45;&gt;Node2</title>
<g id="a_edge1_Node000001_Node000002"><a xlink:title=" ">
<path fill="none" stroke="#63b8ff" d="M43.04,-9.5C50.38,-9.5 59.21,-9.5 68.53,-9.5"/>
<polygon fill="#63b8ff" stroke="#63b8ff" points="68.77,-13 78.77,-9.5 68.77,-6 68.77,-13"/>
</a>
</g>
</g>
</g>
</svg>
