<?xml version="1.0" encoding="UTF-8" standalone="no"?>
<!DOCTYPE svg PUBLIC "-//W3C//DTD SVG 1.1//EN"
 "http://www.w3.org/Graphics/SVG/1.1/DTD/svg11.dtd">
<!-- Generated by graphviz version 2.43.0 (0)
 -->
<!-- Title: make_inner_fista_solver Pages: 1 -->
<svg width="1511pt" height="285pt"
 viewBox="0.00 0.00 1511.00 284.50" xmlns="http://www.w3.org/2000/svg" xmlns:xlink="http://www.w3.org/1999/xlink">
<g id="graph0" class="graph" transform="scale(1 1) rotate(0) translate(4 280.5)">
<title>make_inner_fista_solver</title>
<!-- Node1 -->
<g id="Node000001" class="node">
<title>Node1</title>
<g id="a_Node000001"><a xlink:title=" ">
<polygon fill="#999999" stroke="#666666" points="135,-143 0,-143 0,-124 135,-124 135,-143"/>
<text text-anchor="middle" x="67.5" y="-131" font-family="Helvetica,sans-Serif" font-size="10.00">make_inner_fista_solver</text>
</a>
</g>
</g>
<!-- Node2 -->
<g id="Node000002" class="node">
<title>Node2</title>
<g id="a_Node000002"><a xlink:href="options_8hpp.html#a91fca5414dbe50bec5104c59d9ebda11" target="_top" xlink:title=" ">
<polygon fill="white" stroke="#666666" points="245,-143 171,-143 171,-124 245,-124 245,-143"/>
<text text-anchor="middle" x="208" y="-131" font-family="Helvetica,sans-Serif" font-size="10.00">set_params</text>
</a>
</g>
</g>
<!-- Node1&#45;&gt;Node2 -->
<g id="edge1_Node000001_Node000002" class="edge">
<title>Node1&#45;&gt;Node2</title>
<g id="a_edge1_Node000001_Node000002"><a xlink:title=" ">
<path fill="none" stroke="#63b8ff" d="M135.32,-133.5C143.88,-133.5 152.49,-133.5 160.62,-133.5"/>
<polygon fill="#63b8ff" stroke="#63b8ff" points="160.63,-137 170.63,-133.5 160.63,-130 160.63,-137"/>
</a>
</g>
</g>
<!-- Node3 -->
<g id="Node000003" class="node">
<title>Node3</title>
<g id="a_Node000003"><a xlink:href="classOptions.html#a8ca2e3915e8acf3cd04e02180e66e9ab" target="_top" xlink:title=" ">
<polygon fill="white" stroke="#666666" points="398,-143 281,-143 281,-124 398,-124 398,-143"/>
<text text-anchor="middle" x="339.5" y="-131" font-family="Helvetica,sans-Serif" font-size="10.00">Options::set_params</text>
</a>
</g>
</g>
<!-- Node2&#45;&gt;Node3 -->
<g id="edge2_Node000002_Node000003" class="edge">
<title>Node2&#45;&gt;Node3</title>
<g id="a_edge2_Node000002_Node000003"><a xlink:title=" ">
<path fill="none" stroke="#63b8ff" d="M245.07,-133.5C253.12,-133.5 261.91,-133.5 270.77,-133.5"/>
<polygon fill="#63b8ff" stroke="#63b8ff" points="270.77,-137 280.77,-133.5 270.77,-130 270.77,-137"/>
</a>
</g>
</g>
<!-- Node4 -->
<g id="Node000004" class="node">
<title>Node4</title>
<g id="a_Node000004"><a xlink:href="namespacealpaqa_1_1params.html#a1f2f7590328c20e04138a91eee5e0e98" target="_top" xlink:title="Get the first argument as a JSON object j.">
<polygon fill="white" stroke="#666666" points="548,-276.5 434,-276.5 434,-246.5 548,-246.5 548,-276.5"/>
<text text-anchor="start" x="442" y="-264.5" font-family="Helvetica,sans-Serif" font-size="10.00">alpaqa::params::get</text>
<text text-anchor="middle" x="491" y="-253.5" font-family="Helvetica,sans-Serif" font-size="10.00">_param</text>
</a>
</g>
</g>
<!-- Node3&#45;&gt;Node4 -->
<g id="edge3_Node000003_Node000004" class="edge">
<title>Node3&#45;&gt;Node4</title>
<g id="a_edge3_Node000003_Node000004"><a xlink:title=" ">
<path fill="none" stroke="#63b8ff" d="M346.91,-143.09C360.71,-163.07 395.12,-209.64 434,-237.5 435.89,-238.85 437.86,-240.15 439.89,-241.39"/>
<polygon fill="#63b8ff" stroke="#63b8ff" points="438.65,-244.7 449.1,-246.47 442.03,-238.57 438.65,-244.7"/>
</a>
</g>
</g>
<!-- Node7 -->
<g id="Node000007" class="node">
<title>Node7</title>
<g id="a_Node000007"><a xlink:href="namespacealpaqa_1_1util.html#a381655901120dbb2a07cec1df230595e" target="_top" xlink:title="Join the list of strings into a single string, using the separator given by opt.">
<polygon fill="white" stroke="#666666" points="538.5,-228.5 443.5,-228.5 443.5,-198.5 538.5,-198.5 538.5,-228.5"/>
<text text-anchor="start" x="451.5" y="-216.5" font-family="Helvetica,sans-Serif" font-size="10.00">alpaqa::util::join</text>
<text text-anchor="middle" x="491" y="-205.5" font-family="Helvetica,sans-Serif" font-size="10.00">_quote</text>
</a>
</g>
</g>
<!-- Node3&#45;&gt;Node7 -->
<g id="edge6_Node000003_Node000007" class="edge">
<title>Node3&#45;&gt;Node7</title>
<g id="a_edge6_Node000003_Node000007"><a xlink:title=" ">
<path fill="none" stroke="#63b8ff" d="M355.05,-143.05C373.15,-154.74 405.19,-174.78 434,-189.5 437.11,-191.09 440.35,-192.67 443.63,-194.21"/>
<polygon fill="#63b8ff" stroke="#63b8ff" points="442.37,-197.48 452.92,-198.45 445.28,-191.11 442.37,-197.48"/>
</a>
</g>
</g>
<!-- Node8 -->
<g id="Node000008" class="node">
<title>Node8</title>
<g id="a_Node000008"><a xlink:href="classOptions.html#a32a1a00438ef83609a2ecf66d9e77056" target="_top" xlink:title=" ">
<polygon fill="white" stroke="#666666" points="545.5,-180 436.5,-180 436.5,-161 545.5,-161 545.5,-180"/>
<text text-anchor="middle" x="491" y="-168" font-family="Helvetica,sans-Serif" font-size="10.00">Options::json_flags</text>
</a>
</g>
</g>
<!-- Node3&#45;&gt;Node8 -->
<g id="edge7_Node000003_Node000008" class="edge">
<title>Node3&#45;&gt;Node8</title>
<g id="a_edge7_Node000003_Node000008"><a xlink:title=" ">
<path fill="none" stroke="#63b8ff" d="M379,-143.03C398.02,-147.74 421.17,-153.47 441.4,-158.47"/>
<polygon fill="#63b8ff" stroke="#63b8ff" points="440.82,-161.93 451.37,-160.94 442.5,-155.14 440.82,-161.93"/>
</a>
</g>
</g>
<!-- Node9 -->
<g id="Node000009" class="node">
<title>Node9</title>
<g id="a_Node000009"><a xlink:href="classOptions.html#a502ee531f4e5cdc1c8dd78e9409a4e8e" target="_top" xlink:title=" ">
<polygon fill="white" stroke="#666666" points="539,-143 443,-143 443,-124 539,-124 539,-143"/>
<text text-anchor="middle" x="491" y="-131" font-family="Helvetica,sans-Serif" font-size="10.00">Options::options</text>
</a>
</g>
</g>
<!-- Node3&#45;&gt;Node9 -->
<g id="edge8_Node000003_Node000009" class="edge">
<title>Node3&#45;&gt;Node9</title>
<g id="a_edge8_Node000003_Node000009"><a xlink:title=" ">
<path fill="none" stroke="#63b8ff" d="M398.3,-133.5C409.62,-133.5 421.5,-133.5 432.8,-133.5"/>
<polygon fill="#63b8ff" stroke="#63b8ff" points="432.99,-137 442.99,-133.5 432.99,-130 432.99,-137"/>
</a>
</g>
</g>
<!-- Node10 -->
<g id="Node000010" class="node">
<title>Node10</title>
<g id="a_Node000010"><a xlink:href="namespacealpaqa_1_1params.html#ab8eefa468e61c2fa2c0e5349c1b3ef12" target="_top" xlink:title="Update/overwrite the first argument based on the JSON object j.">
<polygon fill="white" stroke="#666666" points="711.5,-110.5 598.5,-110.5 598.5,-80.5 711.5,-80.5 711.5,-110.5"/>
<text text-anchor="start" x="606.5" y="-98.5" font-family="Helvetica,sans-Serif" font-size="10.00">alpaqa::params::set</text>
<text text-anchor="middle" x="655" y="-87.5" font-family="Helvetica,sans-Serif" font-size="10.00">_param</text>
</a>
</g>
</g>
<!-- Node3&#45;&gt;Node10 -->
<g id="edge9_Node000003_Node000010" class="edge">
<title>Node3&#45;&gt;Node10</title>
<g id="a_edge9_Node000003_Node000010"><a xlink:title=" ">
<path fill="none" stroke="#63b8ff" d="M385.05,-123.98C400.5,-120.94 417.96,-117.77 434,-115.5 485.5,-108.22 544.18,-103.04 587.98,-99.78"/>
<polygon fill="#63b8ff" stroke="#63b8ff" points="588.5,-103.25 598.22,-99.03 587.99,-96.27 588.5,-103.25"/>
</a>
</g>
</g>
<!-- Node18 -->
<g id="Node000018" class="node">
<title>Node18</title>
<g id="a_Node000018"><a xlink:href="namespacealpaqa_1_1params.html#abadc98653193fbd05b658d62b34f75e7" target="_top" xlink:title="Overwrites t based on the options that start with prefix.">
<polygon fill="white" stroke="#666666" points="547.5,-67.5 434.5,-67.5 434.5,-37.5 547.5,-37.5 547.5,-67.5"/>
<text text-anchor="start" x="442.5" y="-55.5" font-family="Helvetica,sans-Serif" font-size="10.00">alpaqa::params::set</text>
<text text-anchor="middle" x="491" y="-44.5" font-family="Helvetica,sans-Serif" font-size="10.00">_params</text>
</a>
</g>
</g>
<!-- Node3&#45;&gt;Node18 -->
<g id="edge17_Node000003_Node000018" class="edge">
<title>Node3&#45;&gt;Node18</title>
<g id="a_edge17_Node000003_Node000018"><a xlink:title=" ">
<path fill="none" stroke="#63b8ff" d="M357.31,-123.95C375.96,-113.41 407,-96 434,-81.5 439.63,-78.48 445.61,-75.32 451.48,-72.25"/>
<polygon fill="#63b8ff" stroke="#63b8ff" points="453.3,-75.26 460.56,-67.54 450.07,-69.04 453.3,-75.26"/>
</a>
</g>
</g>
<!-- Node20 -->
<g id="Node000020" class="node">
<title>Node20</title>
<g id="a_Node000020"><a xlink:href="classOptions.html#a12df8f934f6bafb37bf4e64529917d06" target="_top" xlink:title=" ">
<polygon fill="white" stroke="#666666" points="532.5,-19 449.5,-19 449.5,0 532.5,0 532.5,-19"/>
<text text-anchor="middle" x="491" y="-7" font-family="Helvetica,sans-Serif" font-size="10.00">Options::used</text>
</a>
</g>
</g>
<!-- Node3&#45;&gt;Node20 -->
<g id="edge20_Node000003_Node000020" class="edge">
<title>Node3&#45;&gt;Node20</title>
<g id="a_edge20_Node000003_Node000020"><a xlink:title=" ">
<path fill="none" stroke="#63b8ff" d="M346.52,-123.88C359.81,-103.41 393.71,-55.2 434,-28.5 436.96,-26.54 440.14,-24.76 443.42,-23.16"/>
<polygon fill="#63b8ff" stroke="#63b8ff" points="445.09,-26.25 452.88,-19.06 442.31,-19.83 445.09,-26.25"/>
</a>
</g>
</g>
<!-- Node5 -->
<g id="Node000005" class="node">
<title>Node5</title>
<g id="a_Node000005"><a xlink:href="namespacealpaqa_1_1params.html#a2ed398728f87219847d2db047fa70195" target="_top" xlink:title=" ">
<polygon fill="white" stroke="#666666" points="712,-276.5 598,-276.5 598,-246.5 712,-246.5 712,-276.5"/>
<text text-anchor="start" x="606" y="-264.5" font-family="Helvetica,sans-Serif" font-size="10.00">alpaqa::params::get</text>
<text text-anchor="middle" x="655" y="-253.5" font-family="Helvetica,sans-Serif" font-size="10.00">_param_default</text>
</a>
</g>
</g>
<!-- Node4&#45;&gt;Node5 -->
<g id="edge4_Node000004_Node000005" class="edge">
<title>Node4&#45;&gt;Node5</title>
<g id="a_edge4_Node000004_Node000005"><a xlink:title=" ">
<path fill="none" stroke="#63b8ff" d="M548.21,-261.5C560.9,-261.5 574.49,-261.5 587.55,-261.5"/>
<polygon fill="#63b8ff" stroke="#63b8ff" points="587.89,-265 597.89,-261.5 587.89,-258 587.89,-265"/>
</a>
</g>
</g>
<!-- Node6 -->
<g id="Node000006" class="node">
<title>Node6</title>
<g id="a_Node000006"><a xlink:href="namespacealpaqa.html#ad0c64aea84b4b70c07be417122dd8e3f" target="_top" xlink:title=" ">
<polygon fill="white" stroke="#666666" points="878,-271 762,-271 762,-252 878,-252 878,-271"/>
<text text-anchor="middle" x="820" y="-259" font-family="Helvetica,sans-Serif" font-size="10.00">alpaqa::enum_name</text>
</a>
</g>
</g>
<!-- Node5&#45;&gt;Node6 -->
<g id="edge5_Node000005_Node000006" class="edge">
<title>Node5&#45;&gt;Node6</title>
<g id="a_edge5_Node000005_Node000006"><a xlink:title=" ">
<path fill="none" stroke="#63b8ff" d="M712.1,-261.5C724.94,-261.5 738.71,-261.5 751.97,-261.5"/>
<polygon fill="#63b8ff" stroke="#63b8ff" points="751.97,-265 761.97,-261.5 751.97,-258 751.97,-265"/>
</a>
</g>
</g>
<!-- Node11 -->
<g id="Node000011" class="node">
<title>Node11</title>
<g id="a_Node000011"><a xlink:href="namespacealpaqa_1_1params.html#a39fab1bdf1cebbc5e1574eac16a9af53" target="_top" xlink:title=" ">
<polygon fill="white" stroke="#666666" points="876.5,-110.5 763.5,-110.5 763.5,-80.5 876.5,-80.5 876.5,-110.5"/>
<text text-anchor="start" x="771.5" y="-98.5" font-family="Helvetica,sans-Serif" font-size="10.00">alpaqa::params::set</text>
<text text-anchor="middle" x="820" y="-87.5" font-family="Helvetica,sans-Serif" font-size="10.00">_param_default</text>
</a>
</g>
</g>
<!-- Node10&#45;&gt;Node11 -->
<g id="edge10_Node000010_Node000011" class="edge">
<title>Node10&#45;&gt;Node11</title>
<g id="a_edge10_Node000010_Node000011"><a xlink:title=" ">
<path fill="none" stroke="#63b8ff" d="M711.64,-95.5C724.94,-95.5 739.27,-95.5 752.99,-95.5"/>
<polygon fill="#63b8ff" stroke="#63b8ff" points="753.33,-99 763.33,-95.5 753.33,-92 753.33,-99"/>
</a>
</g>
</g>
<!-- Node12 -->
<g id="Node000012" class="node">
<title>Node12</title>
<g id="a_Node000012"><a xlink:href="demangled-typename_8cpp.html#a994032931a27ca4de5eea3f786057b17" target="_top" xlink:title="Get the pretty name of the given type as a string.">
<polygon fill="white" stroke="#666666" points="1040,-127 914,-127 914,-108 1040,-108 1040,-127"/>
<text text-anchor="middle" x="977" y="-115" font-family="Helvetica,sans-Serif" font-size="10.00">demangled_typename</text>
</a>
</g>
</g>
<!-- Node11&#45;&gt;Node12 -->
<g id="edge11_Node000011_Node000012" class="edge">
<title>Node11&#45;&gt;Node12</title>
<g id="a_edge11_Node000011_Node000012"><a xlink:title=" ">
<path fill="none" stroke="#63b8ff" d="M876.52,-103.38C885.39,-104.64 894.67,-105.96 903.86,-107.26"/>
<polygon fill="#63b8ff" stroke="#63b8ff" points="903.37,-110.73 913.76,-108.67 904.35,-103.8 903.37,-110.73"/>
</a>
</g>
</g>
<!-- Node13 -->
<g id="Node000013" class="node">
<title>Node13</title>
<g id="a_Node000013"><a xlink:href="namespacealpaqa_1_1params_1_1detail.html#a13c61ce864494c3fe91b86bf8ffda476" target="_top" xlink:title=" ">
<polygon fill="white" stroke="#666666" points="1040,-89.5 914,-89.5 914,-59.5 1040,-59.5 1040,-89.5"/>
<text text-anchor="start" x="922" y="-77.5" font-family="Helvetica,sans-Serif" font-size="10.00">alpaqa::params::detail</text>
<text text-anchor="middle" x="977" y="-66.5" font-family="Helvetica,sans-Serif" font-size="10.00">::set_param_json</text>
</a>
</g>
</g>
<!-- Node11&#45;&gt;Node13 -->
<g id="edge12_Node000011_Node000013" class="edge">
<title>Node11&#45;&gt;Node13</title>
<g id="a_edge12_Node000011_Node000013"><a xlink:title=" ">
<path fill="none" stroke="#63b8ff" d="M876.52,-87.98C885.29,-86.79 894.48,-85.55 903.57,-84.31"/>
<polygon fill="#63b8ff" stroke="#63b8ff" points="904.32,-87.74 913.76,-82.93 903.38,-80.81 904.32,-87.74"/>
</a>
</g>
</g>
<!-- Node14 -->
<g id="Node000014" class="node">
<title>Node14</title>
<g id="a_Node000014"><a xlink:href="namespacealpaqa_1_1params_1_1detail.html#a5eef50360de8527b24463d00629819f8" target="_top" xlink:title=" ">
<polygon fill="white" stroke="#666666" points="1202,-89.5 1076,-89.5 1076,-59.5 1202,-59.5 1202,-89.5"/>
<text text-anchor="start" x="1084" y="-77.5" font-family="Helvetica,sans-Serif" font-size="10.00">alpaqa::params::detail</text>
<text text-anchor="middle" x="1139" y="-66.5" font-family="Helvetica,sans-Serif" font-size="10.00">::find_param_or_throw</text>
</a>
</g>
</g>
<!-- Node13&#45;&gt;Node14 -->
<g id="edge13_Node000013_Node000014" class="edge">
<title>Node13&#45;&gt;Node14</title>
<g id="a_edge13_Node000013_Node000014"><a xlink:title=" ">
<path fill="none" stroke="#63b8ff" d="M1040.32,-74.5C1048.62,-74.5 1057.18,-74.5 1065.63,-74.5"/>
<polygon fill="#63b8ff" stroke="#63b8ff" points="1065.85,-78 1075.85,-74.5 1065.85,-71 1065.85,-78"/>
</a>
</g>
</g>
<!-- Node15 -->
<g id="Node000015" class="node">
<title>Node15</title>
<g id="a_Node000015"><a xlink:href="namespacealpaqa_1_1params_1_1detail.html#a6aa41a8827ffd36b3e2a8e7346a44f19" target="_top" xlink:title=" ">
<polygon fill="white" stroke="#666666" points="1364,-89.5 1238,-89.5 1238,-59.5 1364,-59.5 1364,-89.5"/>
<text text-anchor="start" x="1246" y="-77.5" font-family="Helvetica,sans-Serif" font-size="10.00">alpaqa::params::detail</text>
<text text-anchor="middle" x="1301" y="-66.5" font-family="Helvetica,sans-Serif" font-size="10.00">::join_sorted_keys</text>
</a>
</g>
</g>
<!-- Node14&#45;&gt;Node15 -->
<g id="edge14_Node000014_Node000015" class="edge">
<title>Node14&#45;&gt;Node15</title>
<g id="a_edge14_Node000014_Node000015"><a xlink:title=" ">
<path fill="none" stroke="#63b8ff" d="M1202.32,-74.5C1210.62,-74.5 1219.18,-74.5 1227.63,-74.5"/>
<polygon fill="#63b8ff" stroke="#63b8ff" points="1227.85,-78 1237.85,-74.5 1227.85,-71 1227.85,-78"/>
</a>
</g>
</g>
<!-- Node16 -->
<g id="Node000016" class="node">
<title>Node16</title>
<g id="a_Node000016"><a xlink:href="namespacealpaqa_1_1util.html#aa93b2039064bcb3304233064c0485c9b" target="_top" xlink:title="Join the list of strings into a single string, using the separator given by opt.">
<polygon fill="white" stroke="#666666" points="1499,-106 1404,-106 1404,-87 1499,-87 1499,-106"/>
<text text-anchor="middle" x="1451.5" y="-94" font-family="Helvetica,sans-Serif" font-size="10.00">alpaqa::util::join</text>
</a>
</g>
</g>
<!-- Node15&#45;&gt;Node16 -->
<g id="edge15_Node000015_Node000016" class="edge">
<title>Node15&#45;&gt;Node16</title>
<g id="a_edge15_Node000015_Node000016"><a xlink:title=" ">
<path fill="none" stroke="#63b8ff" d="M1364.12,-83.7C1374.03,-85.17 1384.23,-86.68 1394,-88.13"/>
<polygon fill="#63b8ff" stroke="#63b8ff" points="1393.59,-91.61 1404,-89.61 1394.62,-84.68 1393.59,-91.61"/>
</a>
</g>
</g>
<!-- Node17 -->
<g id="Node000017" class="node">
<title>Node17</title>
<g id="a_Node000017"><a xlink:href="namespacealpaqa_1_1util.html#ab38ac790b4155e7631dfb11d7dfff1c3" target="_top" xlink:title="Sort the given range of strings in&#45;place in a case&#45;insensitive manner.">
<polygon fill="white" stroke="#666666" points="1503,-68.5 1400,-68.5 1400,-38.5 1503,-38.5 1503,-68.5"/>
<text text-anchor="start" x="1408" y="-56.5" font-family="Helvetica,sans-Serif" font-size="10.00">alpaqa::util::sort</text>
<text text-anchor="middle" x="1451.5" y="-45.5" font-family="Helvetica,sans-Serif" font-size="10.00">_case_insensitive</text>
</a>
</g>
</g>
<!-- Node15&#45;&gt;Node17 -->
<g id="edge16_Node000015_Node000017" class="edge">
<title>Node15&#45;&gt;Node17</title>
<g id="a_edge16_Node000015_Node000017"><a xlink:title=" ">
<path fill="none" stroke="#63b8ff" d="M1364.12,-65.72C1372.59,-64.52 1381.28,-63.29 1389.74,-62.09"/>
<polygon fill="#63b8ff" stroke="#63b8ff" points="1390.48,-65.52 1399.89,-60.66 1389.5,-58.59 1390.48,-65.52"/>
</a>
</g>
</g>
<!-- Node18&#45;&gt;Node10 -->
<g id="edge18_Node000018_Node000010" class="edge">
<title>Node18&#45;&gt;Node10</title>
<g id="a_edge18_Node000018_Node000010"><a xlink:title=" ">
<path fill="none" stroke="#63b8ff" d="M547.75,-67.3C560.93,-70.8 575.11,-74.56 588.67,-78.16"/>
<polygon fill="#63b8ff" stroke="#63b8ff" points="587.86,-81.56 598.42,-80.75 589.65,-74.8 587.86,-81.56"/>
</a>
</g>
</g>
<!-- Node19 -->
<g id="Node000019" class="node">
<title>Node19</title>
<g id="a_Node000019"><a xlink:href="namespacealpaqa_1_1params.html#aa3666becfea1ef2eb24d83f592c123e9" target="_top" xlink:title="Split the string full on the first occurrence of tok.">
<polygon fill="white" stroke="#666666" points="726,-62 584,-62 584,-43 726,-43 726,-62"/>
<text text-anchor="middle" x="655" y="-50" font-family="Helvetica,sans-Serif" font-size="10.00">alpaqa::params::split_key</text>
</a>
</g>
</g>
<!-- Node18&#45;&gt;Node19 -->
<g id="edge19_Node000018_Node000019" class="edge">
<title>Node18&#45;&gt;Node19</title>
<g id="a_edge19_Node000018_Node000019"><a xlink:title=" ">
<path fill="none" stroke="#63b8ff" d="M547.75,-52.5C556.11,-52.5 564.86,-52.5 573.6,-52.5"/>
<polygon fill="#63b8ff" stroke="#63b8ff" points="573.84,-56 583.84,-52.5 573.84,-49 573.84,-56"/>
</a>
</g>
</g>
</g>
</svg>
