<?xml version="1.0" encoding="UTF-8" standalone="no"?>
<!DOCTYPE svg PUBLIC "-//W3C//DTD SVG 1.1//EN"
 "http://www.w3.org/Graphics/SVG/1.1/DTD/svg11.dtd">
<!-- Generated by graphviz version 2.43.0 (0)
 -->
<!-- Title: src/alpaqa/include/alpaqa/outer/alm.hpp Pages: 1 -->
<!--zoomable 258 -->

<svg id="main" version="1.1" xmlns="http://www.w3.org/2000/svg" xmlns:xlink="http://www.w3.org/1999/xlink" xml:space="preserve" onload="init(evt)">
<style type="text/css"><![CDATA[
.node, .edge {opacity: 0.7;}
.node.selected, .edge.selected {opacity: 1;}
.edge:hover path { stroke: red; }
.edge:hover polygon { stroke: red; fill: red; }
]]></style>

<defs>
  <circle id="rim" cx="0" cy="0" r="7"/>
  <circle id="rim2" cx="0" cy="0" r="3.5"/>
  <g id="zoomPlus">
    <use xlink:href="#rim" fill="#404040"><set attributeName="fill" to="#808080" begin="zoomplus.mouseover" end="zoomplus.mouseout"/></use>
    <path d="M-4,0h8M0,-4v8" fill="none" stroke="white" stroke-width="1.5" pointer-events="none"/>
  </g>
  <g id="zoomMin">
    <use xlink:href="#rim" fill="#404040"><set attributeName="fill" to="#808080" begin="zoomminus.mouseover" end="zoomminus.mouseout"/></use>
    <path d="M-4,0h8" fill="none" stroke="white" stroke-width="1.5" pointer-events="none"/>
  </g>
  <g id="arrowUp" transform="translate(30 24)">
    <use xlink:href="#rim"/>
    <path pointer-events="none" fill="none" stroke="white" stroke-width="1.5" d="M0,-3.0v7 M-2.5,-0.5L0,-3.0L2.5,-0.5"/>
  </g>
  <g id="arrowRight" transform="rotate(90) translate(36 -43)">
    <use xlink:href="#rim"/>
    <path pointer-events="none" fill="none" stroke="white" stroke-width="1.5" d="M0,-3.0v7 M-2.5,-0.5L0,-3.0L2.5,-0.5"/>
  </g>
  <g id="arrowDown" transform="rotate(180) translate(-30 -48)">
    <use xlink:href="#rim"/>
    <path pointer-events="none" fill="none" stroke="white" stroke-width="1.5" d="M0,-3.0v7 M-2.5,-0.5L0,-3.0L2.5,-0.5"/>
  </g>
  <g id="arrowLeft" transform="rotate(270) translate(-36 17)">
    <use xlink:href="#rim"/>
    <path pointer-events="none" fill="none" stroke="white" stroke-width="1.5" d="M0,-3.0v7 M-2.5,-0.5L0,-3.0L2.5,-0.5"/>
  </g>
  <g id="resetDef">
    <use xlink:href="#rim2" fill="#404040"><set attributeName="fill" to="#808080" begin="reset.mouseover" end="reset.mouseout"/></use>
  </g>
</defs>
<script type="application/ecmascript">
var viewWidth = 2246;
var viewHeight = 258;
var sectionId = 'dynsection-1';
</script>
<script type="application/ecmascript" xlink:href="svg.min.js"/>
<svg id="graph" class="graph">
<g id="viewport">
<title>src/alpaqa/include/alpaqa/outer/alm.hpp</title>
<!-- Node1 -->
<g id="Node000001" class="node">
<title>Node1</title>
<g id="a_Node000001"><a xlink:title=" ">
<polygon fill="#999999" stroke="#666666" points="1260,-250 1136,-250 1136,-220 1260,-220 1260,-250"/>
<text text-anchor="start" x="1144" y="-238" font-family="Helvetica,sans-Serif" font-size="10.00">src/alpaqa/include</text>
<text text-anchor="middle" x="1198" y="-227" font-family="Helvetica,sans-Serif" font-size="10.00">/alpaqa/outer/alm.hpp</text>
</a>
</g>
</g>
<!-- Node2 -->
<g id="Node000002" class="node">
<title>Node2</title>
<g id="a_Node000002"><a xlink:href="alm_8tpp.html" target="_top" xlink:title=" ">
<polygon fill="white" stroke="#666666" points="1208,-107 1074,-107 1074,-66 1208,-66 1208,-107"/>
<text text-anchor="start" x="1082" y="-95" font-family="Helvetica,sans-Serif" font-size="10.00">src/alpaqa/include</text>
<text text-anchor="start" x="1082" y="-84" font-family="Helvetica,sans-Serif" font-size="10.00">/alpaqa/implementation</text>
<text text-anchor="middle" x="1141" y="-73" font-family="Helvetica,sans-Serif" font-size="10.00">/outer/alm.tpp</text>
</a>
</g>
</g>
<!-- Node1&#45;&gt;Node2 -->
<g id="edge1_Node000001_Node000002" class="edge">
<title>Node1&#45;&gt;Node2</title>
<g id="a_edge1_Node000001_Node000002"><a xlink:title=" ">
<path fill="none" stroke="#63b8ff" d="M1180.81,-211.51C1175.11,-203.21 1169.17,-193.51 1165,-184 1153.9,-158.71 1147.3,-127.33 1143.91,-107.36"/>
<polygon fill="#63b8ff" stroke="#63b8ff" points="1178.13,-213.78 1186.79,-219.88 1183.82,-209.71 1178.13,-213.78"/>
</a>
</g>
</g>
<!-- Node13 -->
<g id="Node000013" class="node">
<title>Node13</title>
<g id="a_Node000013"><a xlink:href="alm-helpers_8tpp.html" target="_top" xlink:title=" ">
<polygon fill="white" stroke="#666666" points="1113,-184 947,-184 947,-143 1113,-143 1113,-184"/>
<text text-anchor="start" x="955" y="-172" font-family="Helvetica,sans-Serif" font-size="10.00">src/alpaqa/include</text>
<text text-anchor="start" x="955" y="-161" font-family="Helvetica,sans-Serif" font-size="10.00">/alpaqa/implementation</text>
<text text-anchor="middle" x="1030" y="-150" font-family="Helvetica,sans-Serif" font-size="10.00">/outer/internal/alm&#45;helpers.tpp</text>
</a>
</g>
</g>
<!-- Node1&#45;&gt;Node13 -->
<g id="edge12_Node000001_Node000013" class="edge">
<title>Node1&#45;&gt;Node13</title>
<g id="a_edge12_Node000001_Node000013"><a xlink:title=" ">
<path fill="none" stroke="#63b8ff" d="M1154.57,-216.03C1130.9,-206.24 1101.57,-194.11 1077.31,-184.07"/>
<polygon fill="#63b8ff" stroke="#63b8ff" points="1153.42,-219.35 1164,-219.94 1156.1,-212.88 1153.42,-219.35"/>
</a>
</g>
</g>
<!-- Node15 -->
<g id="Node000015" class="node">
<title>Node15</title>
<g id="a_Node000015"><a xlink:href="newton-tr-pantr-alm_8hpp.html" target="_top" xlink:title=" ">
<polygon fill="white" stroke="#666666" points="438,-107 306,-107 306,-66 438,-66 438,-107"/>
<text text-anchor="start" x="314" y="-95" font-family="Helvetica,sans-Serif" font-size="10.00">src/alpaqa/include</text>
<text text-anchor="start" x="314" y="-84" font-family="Helvetica,sans-Serif" font-size="10.00">/alpaqa/newton&#45;tr&#45;pantr</text>
<text text-anchor="middle" x="372" y="-73" font-family="Helvetica,sans-Serif" font-size="10.00">&#45;alm.hpp</text>
</a>
</g>
</g>
<!-- Node1&#45;&gt;Node15 -->
<g id="edge15_Node000001_Node000015" class="edge">
<title>Node1&#45;&gt;Node15</title>
<g id="a_edge15_Node000001_Node000015"><a xlink:title=" ">
<path fill="none" stroke="#63b8ff" d="M1125.75,-231.72C954.64,-225.95 534.55,-209.35 476,-184 437.57,-167.36 404.32,-130.27 386.32,-107.22"/>
<polygon fill="#63b8ff" stroke="#63b8ff" points="1125.81,-235.23 1135.92,-232.06 1126.05,-228.23 1125.81,-235.23"/>
</a>
</g>
</g>
<!-- Node16 -->
<g id="Node000016" class="node">
<title>Node16</title>
<g id="a_Node000016"><a xlink:href="panoc-alm_8hpp.html" target="_top" xlink:title=" ">
<polygon fill="white" stroke="#666666" points="613,-178.5 485,-178.5 485,-148.5 613,-148.5 613,-178.5"/>
<text text-anchor="start" x="493" y="-166.5" font-family="Helvetica,sans-Serif" font-size="10.00">src/alpaqa/include</text>
<text text-anchor="middle" x="549" y="-155.5" font-family="Helvetica,sans-Serif" font-size="10.00">/alpaqa/panoc&#45;alm.hpp</text>
</a>
</g>
</g>
<!-- Node1&#45;&gt;Node16 -->
<g id="edge17_Node000001_Node000016" class="edge">
<title>Node1&#45;&gt;Node16</title>
<g id="a_edge17_Node000001_Node000016"><a xlink:title=" ">
<path fill="none" stroke="#63b8ff" d="M1125.74,-226.33C1033.63,-216.55 869.47,-199.1 729,-184 690.56,-179.87 647.5,-175.21 613.14,-171.48"/>
<polygon fill="#63b8ff" stroke="#63b8ff" points="1125.47,-229.83 1135.79,-227.4 1126.21,-222.87 1125.47,-229.83"/>
</a>
</g>
</g>
<!-- Node18 -->
<g id="Node000018" class="node">
<title>Node18</title>
<g id="a_Node000018"><a xlink:href="panoc-anderson-alm_8hpp.html" target="_top" xlink:title=" ">
<polygon fill="white" stroke="#666666" points="756,-107 622,-107 622,-66 756,-66 756,-107"/>
<text text-anchor="start" x="630" y="-95" font-family="Helvetica,sans-Serif" font-size="10.00">src/alpaqa/include</text>
<text text-anchor="start" x="630" y="-84" font-family="Helvetica,sans-Serif" font-size="10.00">/alpaqa/panoc&#45;anderson</text>
<text text-anchor="middle" x="689" y="-73" font-family="Helvetica,sans-Serif" font-size="10.00">&#45;alm.hpp</text>
</a>
</g>
</g>
<!-- Node1&#45;&gt;Node18 -->
<g id="edge20_Node000001_Node000018" class="edge">
<title>Node1&#45;&gt;Node18</title>
<g id="a_edge20_Node000001_Node000018"><a xlink:title=" ">
<path fill="none" stroke="#63b8ff" d="M1125.68,-228.9C1060.67,-222.83 963.21,-210.04 882,-184 822.07,-164.78 757.68,-129.23 720.49,-107.06"/>
<polygon fill="#63b8ff" stroke="#63b8ff" points="1125.56,-232.4 1135.83,-229.81 1126.19,-225.43 1125.56,-232.4"/>
</a>
</g>
</g>
<!-- Node19 -->
<g id="Node000019" class="node">
<title>Node19</title>
<g id="a_Node000019"><a xlink:href="panoc-convex-newton-alm_8hpp.html" target="_top" xlink:title=" ">
<polygon fill="white" stroke="#666666" points="898,-107 774,-107 774,-66 898,-66 898,-107"/>
<text text-anchor="start" x="782" y="-95" font-family="Helvetica,sans-Serif" font-size="10.00">src/alpaqa/include</text>
<text text-anchor="start" x="782" y="-84" font-family="Helvetica,sans-Serif" font-size="10.00">/alpaqa/panoc&#45;convex</text>
<text text-anchor="middle" x="836" y="-73" font-family="Helvetica,sans-Serif" font-size="10.00">&#45;newton&#45;alm.hpp</text>
</a>
</g>
</g>
<!-- Node1&#45;&gt;Node19 -->
<g id="edge22_Node000001_Node000019" class="edge">
<title>Node1&#45;&gt;Node19</title>
<g id="a_edge22_Node000001_Node000019"><a xlink:title=" ">
<path fill="none" stroke="#63b8ff" d="M1125.77,-230.98C1071.53,-226.2 996.79,-214.15 938,-184 901.56,-165.31 869.02,-129.59 850.95,-107.24"/>
<polygon fill="#63b8ff" stroke="#63b8ff" points="1125.74,-234.49 1135.99,-231.82 1126.31,-227.51 1125.74,-234.49"/>
</a>
</g>
</g>
<!-- Node20 -->
<g id="Node000020" class="node">
<title>Node20</title>
<g id="a_Node000020"><a xlink:href="structured-panoc-alm_8hpp.html" target="_top" xlink:title=" ">
<polygon fill="white" stroke="#666666" points="1364,-107 1226,-107 1226,-66 1364,-66 1364,-107"/>
<text text-anchor="start" x="1234" y="-95" font-family="Helvetica,sans-Serif" font-size="10.00">src/alpaqa/include</text>
<text text-anchor="start" x="1234" y="-84" font-family="Helvetica,sans-Serif" font-size="10.00">/alpaqa/structured&#45;panoc</text>
<text text-anchor="middle" x="1295" y="-73" font-family="Helvetica,sans-Serif" font-size="10.00">&#45;alm.hpp</text>
</a>
</g>
</g>
<!-- Node1&#45;&gt;Node20 -->
<g id="edge24_Node000001_Node000020" class="edge">
<title>Node1&#45;&gt;Node20</title>
<g id="a_edge24_Node000001_Node000020"><a xlink:title=" ">
<path fill="none" stroke="#63b8ff" d="M1193.5,-209.99C1191.15,-190.53 1190.89,-163.14 1203,-143 1212.33,-127.49 1227.79,-115.77 1243.41,-107.19"/>
<polygon fill="#63b8ff" stroke="#63b8ff" points="1190.04,-210.5 1194.96,-219.89 1196.96,-209.48 1190.04,-210.5"/>
</a>
</g>
</g>
<!-- Node21 -->
<g id="Node000021" class="node">
<title>Node21</title>
<g id="a_Node000021"><a xlink:href="structured-zerofpr-alm_8hpp.html" target="_top" xlink:title=" ">
<polygon fill="white" stroke="#666666" points="1525.5,-107 1382.5,-107 1382.5,-66 1525.5,-66 1525.5,-107"/>
<text text-anchor="start" x="1390.5" y="-95" font-family="Helvetica,sans-Serif" font-size="10.00">src/alpaqa/include</text>
<text text-anchor="start" x="1390.5" y="-84" font-family="Helvetica,sans-Serif" font-size="10.00">/alpaqa/structured&#45;zerofpr</text>
<text text-anchor="middle" x="1454" y="-73" font-family="Helvetica,sans-Serif" font-size="10.00">&#45;alm.hpp</text>
</a>
</g>
</g>
<!-- Node1&#45;&gt;Node21 -->
<g id="edge26_Node000001_Node000021" class="edge">
<title>Node1&#45;&gt;Node21</title>
<g id="a_edge26_Node000001_Node000021"><a xlink:title=" ">
<path fill="none" stroke="#63b8ff" d="M1201.93,-209.74C1206.55,-189.06 1216.25,-160.06 1236,-143 1238.9,-140.5 1319.98,-120.25 1382.41,-104.93"/>
<polygon fill="#63b8ff" stroke="#63b8ff" points="1198.47,-209.2 1199.95,-219.69 1205.33,-210.56 1198.47,-209.2"/>
</a>
</g>
</g>
<!-- Node22 -->
<g id="Node000022" class="node">
<title>Node22</title>
<g id="a_Node000022"><a xlink:href="zerofpr-alm_8hpp.html" target="_top" xlink:title=" ">
<polygon fill="white" stroke="#666666" points="1379,-178.5 1245,-178.5 1245,-148.5 1379,-148.5 1379,-178.5"/>
<text text-anchor="start" x="1253" y="-166.5" font-family="Helvetica,sans-Serif" font-size="10.00">src/alpaqa/include</text>
<text text-anchor="middle" x="1312" y="-155.5" font-family="Helvetica,sans-Serif" font-size="10.00">/alpaqa/zerofpr&#45;alm.hpp</text>
</a>
</g>
</g>
<!-- Node1&#45;&gt;Node22 -->
<g id="edge28_Node000001_Node000022" class="edge">
<title>Node1&#45;&gt;Node22</title>
<g id="a_edge28_Node000001_Node000022"><a xlink:title=" ">
<path fill="none" stroke="#63b8ff" d="M1229.62,-214.72C1248.44,-203.25 1271.9,-188.95 1288.96,-178.54"/>
<polygon fill="#63b8ff" stroke="#63b8ff" points="1227.79,-211.74 1221.07,-219.94 1231.43,-217.72 1227.79,-211.74"/>
</a>
</g>
</g>
<!-- Node23 -->
<g id="Node000023" class="node">
<title>Node23</title>
<g id="a_Node000023"><a xlink:href="zerofpr-anderson-alm_8hpp.html" target="_top" xlink:title=" ">
<polygon fill="white" stroke="#666666" points="1536.5,-184 1397.5,-184 1397.5,-143 1536.5,-143 1536.5,-184"/>
<text text-anchor="start" x="1405.5" y="-172" font-family="Helvetica,sans-Serif" font-size="10.00">src/alpaqa/include</text>
<text text-anchor="start" x="1405.5" y="-161" font-family="Helvetica,sans-Serif" font-size="10.00">/alpaqa/zerofpr&#45;anderson</text>
<text text-anchor="middle" x="1467" y="-150" font-family="Helvetica,sans-Serif" font-size="10.00">&#45;alm.hpp</text>
</a>
</g>
</g>
<!-- Node1&#45;&gt;Node23 -->
<g id="edge30_Node000001_Node000023" class="edge">
<title>Node1&#45;&gt;Node23</title>
<g id="a_edge30_Node000001_Node000023"><a xlink:title=" ">
<path fill="none" stroke="#63b8ff" d="M1262.25,-217.4C1302.95,-206.89 1355.58,-193.29 1397.29,-182.51"/>
<polygon fill="#63b8ff" stroke="#63b8ff" points="1261.24,-214.05 1252.44,-219.94 1262.99,-220.82 1261.24,-214.05"/>
</a>
</g>
</g>
<!-- Node24 -->
<g id="Node000024" class="node">
<title>Node24</title>
<g id="a_Node000024"><a xlink:href="zerofpr-convex-newton-alm_8hpp.html" target="_top" xlink:title=" ">
<polygon fill="white" stroke="#666666" points="1683.5,-184 1554.5,-184 1554.5,-143 1683.5,-143 1683.5,-184"/>
<text text-anchor="start" x="1562.5" y="-172" font-family="Helvetica,sans-Serif" font-size="10.00">src/alpaqa/include</text>
<text text-anchor="start" x="1562.5" y="-161" font-family="Helvetica,sans-Serif" font-size="10.00">/alpaqa/zerofpr&#45;convex</text>
<text text-anchor="middle" x="1619" y="-150" font-family="Helvetica,sans-Serif" font-size="10.00">&#45;newton&#45;alm.hpp</text>
</a>
</g>
</g>
<!-- Node1&#45;&gt;Node24 -->
<g id="edge32_Node000001_Node000024" class="edge">
<title>Node1&#45;&gt;Node24</title>
<g id="a_edge32_Node000001_Node000024"><a xlink:title=" ">
<path fill="none" stroke="#63b8ff" d="M1270.44,-226.13C1341.13,-217.85 1451.53,-203.33 1546,-184 1548.7,-183.45 1551.45,-182.85 1554.22,-182.23"/>
<polygon fill="#63b8ff" stroke="#63b8ff" points="1269.83,-222.67 1260.3,-227.3 1270.64,-229.63 1269.83,-222.67"/>
</a>
</g>
</g>
<!-- Node25 -->
<g id="Node000025" class="node">
<title>Node25</title>
<g id="a_Node000025"><a xlink:href="alm-driver_8hpp.html" target="_top" xlink:title=" ">
<polygon fill="white" stroke="#666666" points="245,-178.5 129,-178.5 129,-148.5 245,-148.5 245,-178.5"/>
<text text-anchor="start" x="137" y="-166.5" font-family="Helvetica,sans-Serif" font-size="10.00">src/alpaqa/src/driver</text>
<text text-anchor="middle" x="187" y="-155.5" font-family="Helvetica,sans-Serif" font-size="10.00">/alm&#45;driver.hpp</text>
</a>
</g>
</g>
<!-- Node1&#45;&gt;Node25 -->
<g id="edge34_Node000001_Node000025" class="edge">
<title>Node1&#45;&gt;Node25</title>
<g id="a_edge34_Node000001_Node000025"><a xlink:title=" ">
<path fill="none" stroke="#63b8ff" d="M1125.69,-230.17C985.58,-222.58 667.35,-204.61 400,-184 347.61,-179.96 288.06,-174.43 245.27,-170.29"/>
<polygon fill="#63b8ff" stroke="#63b8ff" points="1125.7,-233.67 1135.87,-230.72 1126.08,-226.68 1125.7,-233.67"/>
</a>
</g>
</g>
<!-- Node28 -->
<g id="Node000028" class="node">
<title>Node28</title>
<g id="a_Node000028"><a xlink:href="param-complete_8cpp.html" target="_top" xlink:title=" ">
<polygon fill="white" stroke="#666666" points="1822.5,-178.5 1701.5,-178.5 1701.5,-148.5 1822.5,-148.5 1822.5,-178.5"/>
<text text-anchor="start" x="1709.5" y="-166.5" font-family="Helvetica,sans-Serif" font-size="10.00">src/alpaqa/src/driver</text>
<text text-anchor="middle" x="1762" y="-155.5" font-family="Helvetica,sans-Serif" font-size="10.00">/param&#45;complete.cpp</text>
</a>
</g>
</g>
<!-- Node1&#45;&gt;Node28 -->
<g id="edge38_Node000001_Node000028" class="edge">
<title>Node1&#45;&gt;Node28</title>
<g id="a_edge38_Node000001_Node000028"><a xlink:title=" ">
<path fill="none" stroke="#63b8ff" d="M1270.51,-230.65C1367.48,-225.26 1544.41,-212.28 1693,-184 1700.7,-182.53 1708.8,-180.61 1716.62,-178.54"/>
<polygon fill="#63b8ff" stroke="#63b8ff" points="1270.03,-227.17 1260.24,-231.21 1270.41,-234.16 1270.03,-227.17"/>
</a>
</g>
</g>
<!-- Node29 -->
<g id="Node000029" class="node">
<title>Node29</title>
<g id="a_Node000029"><a xlink:href="alm_8cpp.html" target="_top" xlink:title=" ">
<polygon fill="white" stroke="#666666" points="1953.5,-178.5 1840.5,-178.5 1840.5,-148.5 1953.5,-148.5 1953.5,-178.5"/>
<text text-anchor="start" x="1848.5" y="-166.5" font-family="Helvetica,sans-Serif" font-size="10.00">src/alpaqa/src/outer</text>
<text text-anchor="middle" x="1897" y="-155.5" font-family="Helvetica,sans-Serif" font-size="10.00">/alm.cpp</text>
</a>
</g>
</g>
<!-- Node1&#45;&gt;Node29 -->
<g id="edge39_Node000001_Node000029" class="edge">
<title>Node1&#45;&gt;Node29</title>
<g id="a_edge39_Node000001_Node000029"><a xlink:title=" ">
<path fill="none" stroke="#63b8ff" d="M1270.25,-233.28C1388.63,-231 1630.85,-221.66 1832,-184 1839.53,-182.59 1847.42,-180.64 1855.01,-178.51"/>
<polygon fill="#63b8ff" stroke="#63b8ff" points="1270.16,-229.78 1260.22,-233.46 1270.28,-236.78 1270.16,-229.78"/>
</a>
</g>
</g>
<!-- Node30 -->
<g id="Node000030" class="node">
<title>Node30</title>
<g id="a_Node000030"><a xlink:href="json_8cpp.html" target="_top" xlink:title=" ">
<polygon fill="white" stroke="#666666" points="2096,-178.5 1972,-178.5 1972,-148.5 2096,-148.5 2096,-178.5"/>
<text text-anchor="start" x="1980" y="-166.5" font-family="Helvetica,sans-Serif" font-size="10.00">src/alpaqa/src/params</text>
<text text-anchor="middle" x="2034" y="-155.5" font-family="Helvetica,sans-Serif" font-size="10.00">/json.cpp</text>
</a>
</g>
</g>
<!-- Node1&#45;&gt;Node30 -->
<g id="edge40_Node000001_Node000030" class="edge">
<title>Node1&#45;&gt;Node30</title>
<g id="a_edge40_Node000001_Node000030"><a xlink:title=" ">
<path fill="none" stroke="#63b8ff" d="M1270.54,-234.13C1407.08,-233.31 1711.16,-226.36 1963,-184 1971.19,-182.62 1979.8,-180.69 1988.09,-178.57"/>
<polygon fill="#63b8ff" stroke="#63b8ff" points="1270.2,-230.64 1260.22,-234.19 1270.24,-237.64 1270.2,-230.64"/>
</a>
</g>
</g>
<!-- Node31 -->
<g id="Node000031" class="node">
<title>Node31</title>
<g id="a_Node000031"><a xlink:href="params_8cpp.html" target="_top" xlink:title=" ">
<polygon fill="white" stroke="#666666" points="2238,-178.5 2114,-178.5 2114,-148.5 2238,-148.5 2238,-178.5"/>
<text text-anchor="start" x="2122" y="-166.5" font-family="Helvetica,sans-Serif" font-size="10.00">src/alpaqa/src/params</text>
<text text-anchor="middle" x="2176" y="-155.5" font-family="Helvetica,sans-Serif" font-size="10.00">/params.cpp</text>
</a>
</g>
</g>
<!-- Node1&#45;&gt;Node31 -->
<g id="edge41_Node000001_Node000031" class="edge">
<title>Node1&#45;&gt;Node31</title>
<g id="a_edge41_Node000001_Node000031"><a xlink:title=" ">
<path fill="none" stroke="#63b8ff" d="M1270.32,-232C1455.75,-226.56 1944.79,-210.11 2105,-184 2113.33,-182.64 2122.08,-180.69 2130.48,-178.54"/>
<polygon fill="#63b8ff" stroke="#63b8ff" points="1270.03,-228.51 1260.13,-232.3 1270.23,-235.51 1270.03,-228.51"/>
</a>
</g>
</g>
<!-- Node3 -->
<g id="Node000003" class="node">
<title>Node3</title>
<g id="a_Node000003"><a xlink:href="fista-driver_8cpp.html" target="_top" xlink:title=" ">
<polygon fill="white" stroke="#666666" points="258,-30 142,-30 142,0 258,0 258,-30"/>
<text text-anchor="start" x="150" y="-18" font-family="Helvetica,sans-Serif" font-size="10.00">src/alpaqa/src/driver</text>
<text text-anchor="middle" x="200" y="-7" font-family="Helvetica,sans-Serif" font-size="10.00">/fista&#45;driver.cpp</text>
</a>
</g>
</g>
<!-- Node2&#45;&gt;Node3 -->
<g id="edge2_Node000002_Node000003" class="edge">
<title>Node2&#45;&gt;Node3</title>
<g id="a_edge2_Node000002_Node000003"><a xlink:title=" ">
<path fill="none" stroke="#63b8ff" d="M1063.22,-65.9C731.86,-16.98 642.39,-58.5 312,-30 294.43,-28.48 275.37,-26.3 258.04,-24.11"/>
<polygon fill="#63b8ff" stroke="#63b8ff" points="1063.19,-69.43 1073.6,-67.45 1064.23,-62.51 1063.19,-69.43"/>
</a>
</g>
</g>
<!-- Node4 -->
<g id="Node000004" class="node">
<title>Node4</title>
<g id="a_Node000004"><a xlink:href="newton-tr-pantr-alm_8cpp.html" target="_top" xlink:title=" ">
<polygon fill="white" stroke="#666666" points="444.5,-30 321.5,-30 321.5,0 444.5,0 444.5,-30"/>
<text text-anchor="start" x="329.5" y="-18" font-family="Helvetica,sans-Serif" font-size="10.00">src/alpaqa/src/newton</text>
<text text-anchor="middle" x="383" y="-7" font-family="Helvetica,sans-Serif" font-size="10.00">&#45;tr&#45;pantr&#45;alm.cpp</text>
</a>
</g>
</g>
<!-- Node2&#45;&gt;Node4 -->
<g id="edge3_Node000002_Node000004" class="edge">
<title>Node2&#45;&gt;Node4</title>
<g id="a_edge3_Node000002_Node000004"><a xlink:title=" ">
<path fill="none" stroke="#63b8ff" d="M1063.35,-65.9C800.14,-25.61 728.21,-59.55 467,-30 459.8,-29.19 452.28,-28.17 444.83,-27.06"/>
<polygon fill="#63b8ff" stroke="#63b8ff" points="1063.18,-69.42 1073.59,-67.49 1064.25,-62.5 1063.18,-69.42"/>
</a>
</g>
</g>
<!-- Node5 -->
<g id="Node000005" class="node">
<title>Node5</title>
<g id="a_Node000005"><a xlink:href="panoc-alm_8cpp.html" target="_top" xlink:title=" ">
<polygon fill="white" stroke="#666666" points="592,-30 476,-30 476,0 592,0 592,-30"/>
<text text-anchor="start" x="484" y="-18" font-family="Helvetica,sans-Serif" font-size="10.00">src/alpaqa/src/panoc</text>
<text text-anchor="middle" x="534" y="-7" font-family="Helvetica,sans-Serif" font-size="10.00">&#45;alm.cpp</text>
</a>
</g>
</g>
<!-- Node2&#45;&gt;Node5 -->
<g id="edge4_Node000002_Node000005" class="edge">
<title>Node2&#45;&gt;Node5</title>
<g id="a_edge4_Node000002_Node000005"><a xlink:title=" ">
<path fill="none" stroke="#63b8ff" d="M1063.99,-65.99C868.86,-34.04 815.46,-52.94 623,-30 613.06,-28.82 602.53,-27.35 592.32,-25.81"/>
<polygon fill="#63b8ff" stroke="#63b8ff" points="1063.56,-69.46 1074,-67.65 1064.7,-62.56 1063.56,-69.46"/>
</a>
</g>
</g>
<!-- Node6 -->
<g id="Node000006" class="node">
<title>Node6</title>
<g id="a_Node000006"><a xlink:href="panoc-anderson-alm_8cpp.html" target="_top" xlink:title=" ">
<polygon fill="white" stroke="#666666" points="748,-30 632,-30 632,0 748,0 748,-30"/>
<text text-anchor="start" x="640" y="-18" font-family="Helvetica,sans-Serif" font-size="10.00">src/alpaqa/src/panoc</text>
<text text-anchor="middle" x="690" y="-7" font-family="Helvetica,sans-Serif" font-size="10.00">&#45;anderson&#45;alm.cpp</text>
</a>
</g>
</g>
<!-- Node2&#45;&gt;Node6 -->
<g id="edge5_Node000002_Node000006" class="edge">
<title>Node2&#45;&gt;Node6</title>
<g id="a_edge5_Node000002_Node000006"><a xlink:title=" ">
<path fill="none" stroke="#63b8ff" d="M1063.72,-65.91C990.13,-52.55 833.7,-33.18 748.23,-22.91"/>
<polygon fill="#63b8ff" stroke="#63b8ff" points="1063.49,-69.43 1073.96,-67.84 1064.78,-62.55 1063.49,-69.43"/>
</a>
</g>
</g>
<!-- Node7 -->
<g id="Node000007" class="node">
<title>Node7</title>
<g id="a_Node000007"><a xlink:href="panoc-convex-newton-alm_8cpp.html" target="_top" xlink:title=" ">
<polygon fill="white" stroke="#666666" points="954,-30 816,-30 816,0 954,0 954,-30"/>
<text text-anchor="start" x="824" y="-18" font-family="Helvetica,sans-Serif" font-size="10.00">src/alpaqa/src/panoc</text>
<text text-anchor="middle" x="885" y="-7" font-family="Helvetica,sans-Serif" font-size="10.00">&#45;convex&#45;newton&#45;alm.cpp</text>
</a>
</g>
</g>
<!-- Node2&#45;&gt;Node7 -->
<g id="edge6_Node000002_Node000007" class="edge">
<title>Node2&#45;&gt;Node7</title>
<g id="a_edge6_Node000002_Node000007"><a xlink:title=" ">
<path fill="none" stroke="#63b8ff" d="M1064.02,-64.6C1022.9,-53.44 973.38,-39.99 936.86,-30.08"/>
<polygon fill="#63b8ff" stroke="#63b8ff" points="1063.17,-68 1073.74,-67.24 1065.01,-61.24 1063.17,-68"/>
</a>
</g>
</g>
<!-- Node8 -->
<g id="Node000008" class="node">
<title>Node8</title>
<g id="a_Node000008"><a xlink:href="structured-panoc-alm_8cpp.html" target="_top" xlink:title=" ">
<polygon fill="white" stroke="#666666" points="1183.5,-30 1046.5,-30 1046.5,0 1183.5,0 1183.5,-30"/>
<text text-anchor="start" x="1054.5" y="-18" font-family="Helvetica,sans-Serif" font-size="10.00">src/alpaqa/src/structured</text>
<text text-anchor="middle" x="1115" y="-7" font-family="Helvetica,sans-Serif" font-size="10.00">&#45;panoc&#45;alm.cpp</text>
</a>
</g>
</g>
<!-- Node2&#45;&gt;Node8 -->
<g id="edge7_Node000002_Node000008" class="edge">
<title>Node2&#45;&gt;Node8</title>
<g id="a_edge7_Node000002_Node000008"><a xlink:title=" ">
<path fill="none" stroke="#63b8ff" d="M1130.06,-56.24C1126.66,-47.17 1123.07,-37.58 1120.25,-30.04"/>
<polygon fill="#63b8ff" stroke="#63b8ff" points="1126.84,-57.63 1133.62,-65.77 1133.39,-55.18 1126.84,-57.63"/>
</a>
</g>
</g>
<!-- Node9 -->
<g id="Node000009" class="node">
<title>Node9</title>
<g id="a_Node000009"><a xlink:href="structured-zerofpr-alm_8cpp.html" target="_top" xlink:title=" ">
<polygon fill="white" stroke="#666666" points="1338.5,-30 1201.5,-30 1201.5,0 1338.5,0 1338.5,-30"/>
<text text-anchor="start" x="1209.5" y="-18" font-family="Helvetica,sans-Serif" font-size="10.00">src/alpaqa/src/structured</text>
<text text-anchor="middle" x="1270" y="-7" font-family="Helvetica,sans-Serif" font-size="10.00">&#45;zerofpr&#45;alm.cpp</text>
</a>
</g>
</g>
<!-- Node2&#45;&gt;Node9 -->
<g id="edge8_Node000002_Node000009" class="edge">
<title>Node2&#45;&gt;Node9</title>
<g id="a_edge8_Node000002_Node000009"><a xlink:title=" ">
<path fill="none" stroke="#63b8ff" d="M1186.21,-61.14C1205.48,-50.76 1227.27,-39.02 1243.81,-30.11"/>
<polygon fill="#63b8ff" stroke="#63b8ff" points="1184.42,-58.13 1177.28,-65.96 1187.74,-64.29 1184.42,-58.13"/>
</a>
</g>
</g>
<!-- Node10 -->
<g id="Node000010" class="node">
<title>Node10</title>
<g id="a_Node000010"><a xlink:href="zerofpr-alm_8cpp.html" target="_top" xlink:title=" ">
<polygon fill="white" stroke="#666666" points="1479,-30 1357,-30 1357,0 1479,0 1479,-30"/>
<text text-anchor="start" x="1365" y="-18" font-family="Helvetica,sans-Serif" font-size="10.00">src/alpaqa/src/zerofpr</text>
<text text-anchor="middle" x="1418" y="-7" font-family="Helvetica,sans-Serif" font-size="10.00">&#45;alm.cpp</text>
</a>
</g>
</g>
<!-- Node2&#45;&gt;Node10 -->
<g id="edge9_Node000002_Node000010" class="edge">
<title>Node2&#45;&gt;Node10</title>
<g id="a_edge9_Node000002_Node000010"><a xlink:title=" ">
<path fill="none" stroke="#63b8ff" d="M1217.88,-65.79C1271.85,-52.17 1323.23,-39.4 1361.22,-30.01"/>
<polygon fill="#63b8ff" stroke="#63b8ff" points="1216.97,-62.41 1208.13,-68.25 1218.68,-69.19 1216.97,-62.41"/>
</a>
</g>
</g>
<!-- Node11 -->
<g id="Node000011" class="node">
<title>Node11</title>
<g id="a_Node000011"><a xlink:href="zerofpr-anderson-alm_8cpp.html" target="_top" xlink:title=" ">
<polygon fill="white" stroke="#666666" points="1619,-30 1497,-30 1497,0 1619,0 1619,-30"/>
<text text-anchor="start" x="1505" y="-18" font-family="Helvetica,sans-Serif" font-size="10.00">src/alpaqa/src/zerofpr</text>
<text text-anchor="middle" x="1558" y="-7" font-family="Helvetica,sans-Serif" font-size="10.00">&#45;anderson&#45;alm.cpp</text>
</a>
</g>
</g>
<!-- Node2&#45;&gt;Node11 -->
<g id="edge10_Node000002_Node000011" class="edge">
<title>Node2&#45;&gt;Node11</title>
<g id="a_edge10_Node000002_Node000011"><a xlink:title=" ">
<path fill="none" stroke="#63b8ff" d="M1217.98,-65.93C1338.02,-43.21 1371.3,-49.4 1488,-30 1490.93,-29.51 1493.93,-28.99 1496.96,-28.45"/>
<polygon fill="#63b8ff" stroke="#63b8ff" points="1217.2,-62.51 1208.04,-67.84 1218.52,-69.39 1217.2,-62.51"/>
</a>
</g>
</g>
<!-- Node12 -->
<g id="Node000012" class="node">
<title>Node12</title>
<g id="a_Node000012"><a xlink:href="zerofpr-convex-newton-alm_8cpp.html" target="_top" xlink:title=" ">
<polygon fill="white" stroke="#666666" points="1775,-30 1637,-30 1637,0 1775,0 1775,-30"/>
<text text-anchor="start" x="1645" y="-18" font-family="Helvetica,sans-Serif" font-size="10.00">src/alpaqa/src/zerofpr</text>
<text text-anchor="middle" x="1706" y="-7" font-family="Helvetica,sans-Serif" font-size="10.00">&#45;convex&#45;newton&#45;alm.cpp</text>
</a>
</g>
</g>
<!-- Node2&#45;&gt;Node12 -->
<g id="edge11_Node000002_Node000012" class="edge">
<title>Node2&#45;&gt;Node12</title>
<g id="a_edge11_Node000002_Node000012"><a xlink:title=" ">
<path fill="none" stroke="#63b8ff" d="M1217.88,-66C1399.49,-35.77 1449.44,-53.8 1628,-30 1630.86,-29.62 1633.78,-29.21 1636.73,-28.77"/>
<polygon fill="#63b8ff" stroke="#63b8ff" points="1217.28,-62.55 1208.01,-67.67 1218.45,-69.46 1217.28,-62.55"/>
</a>
</g>
</g>
<!-- Node13&#45;&gt;Node2 -->
<g id="edge13_Node000013_Node000002" class="edge">
<title>Node13&#45;&gt;Node2</title>
<g id="a_edge13_Node000013_Node000002"><a xlink:title=" ">
<path fill="none" stroke="#63b8ff" d="M1067.19,-137.37C1081.76,-127.53 1098.21,-116.41 1111.88,-107.17"/>
<polygon fill="#63b8ff" stroke="#63b8ff" points="1065.2,-134.49 1058.87,-142.99 1069.12,-140.29 1065.2,-134.49"/>
</a>
</g>
</g>
<!-- Node14 -->
<g id="Node000014" class="node">
<title>Node14</title>
<g id="a_Node000014"><a xlink:href="alm-helpers_8cpp.html" target="_top" xlink:title=" ">
<polygon fill="white" stroke="#666666" points="1055.5,-101.5 916.5,-101.5 916.5,-71.5 1055.5,-71.5 1055.5,-101.5"/>
<text text-anchor="start" x="924.5" y="-89.5" font-family="Helvetica,sans-Serif" font-size="10.00">src/alpaqa/src/outer</text>
<text text-anchor="middle" x="986" y="-78.5" font-family="Helvetica,sans-Serif" font-size="10.00">/internal/alm&#45;helpers.cpp</text>
</a>
</g>
</g>
<!-- Node13&#45;&gt;Node14 -->
<g id="edge14_Node000013_Node000014" class="edge">
<title>Node13&#45;&gt;Node14</title>
<g id="a_edge14_Node000013_Node000014"><a xlink:title=" ">
<path fill="none" stroke="#63b8ff" d="M1013.24,-133.93C1006.81,-122.97 999.75,-110.93 994.43,-101.86"/>
<polygon fill="#63b8ff" stroke="#63b8ff" points="1010.36,-135.94 1018.44,-142.79 1016.4,-132.4 1010.36,-135.94"/>
</a>
</g>
</g>
<!-- Node15&#45;&gt;Node4 -->
<g id="edge16_Node000015_Node000004" class="edge">
<title>Node15&#45;&gt;Node4</title>
<g id="a_edge16_Node000015_Node000004"><a xlink:title=" ">
<path fill="none" stroke="#63b8ff" d="M376.72,-55.66C378.13,-46.76 379.61,-37.42 380.78,-30.04"/>
<polygon fill="#63b8ff" stroke="#63b8ff" points="373.23,-55.35 375.12,-65.77 380.14,-56.44 373.23,-55.35"/>
</a>
</g>
</g>
<!-- Node16&#45;&gt;Node5 -->
<g id="edge19_Node000016_Node000005" class="edge">
<title>Node16&#45;&gt;Node5</title>
<g id="a_edge19_Node000016_Node000005"><a xlink:title=" ">
<path fill="none" stroke="#63b8ff" d="M515.92,-142.6C503.84,-133.42 491.55,-121.35 485,-107 477.43,-90.42 478.11,-82.87 485,-66 490.88,-51.6 503.13,-39.1 513.91,-30.2"/>
<polygon fill="#63b8ff" stroke="#63b8ff" points="514,-145.52 524.17,-148.48 518.06,-139.82 514,-145.52"/>
</a>
</g>
</g>
<!-- Node17 -->
<g id="Node000017" class="node">
<title>Node17</title>
<g id="a_Node000017"><a xlink:href="alpaqa_8hpp.html" target="_top" xlink:title=" ">
<polygon fill="white" stroke="#666666" points="604,-101.5 494,-101.5 494,-71.5 604,-71.5 604,-101.5"/>
<text text-anchor="start" x="502" y="-89.5" font-family="Helvetica,sans-Serif" font-size="10.00">src/alpaqa/include</text>
<text text-anchor="middle" x="549" y="-78.5" font-family="Helvetica,sans-Serif" font-size="10.00">/alpaqa/alpaqa.hpp</text>
</a>
</g>
</g>
<!-- Node16&#45;&gt;Node17 -->
<g id="edge18_Node000016_Node000017" class="edge">
<title>Node16&#45;&gt;Node17</title>
<g id="a_edge18_Node000016_Node000017"><a xlink:title=" ">
<path fill="none" stroke="#63b8ff" d="M549,-138.04C549,-125.95 549,-111.79 549,-101.54"/>
<polygon fill="#63b8ff" stroke="#63b8ff" points="545.5,-138.39 549,-148.39 552.5,-138.39 545.5,-138.39"/>
</a>
</g>
</g>
<!-- Node18&#45;&gt;Node6 -->
<g id="edge21_Node000018_Node000006" class="edge">
<title>Node18&#45;&gt;Node6</title>
<g id="a_edge21_Node000018_Node000006"><a xlink:title=" ">
<path fill="none" stroke="#63b8ff" d="M689.43,-55.66C689.56,-46.76 689.69,-37.42 689.8,-30.04"/>
<polygon fill="#63b8ff" stroke="#63b8ff" points="685.93,-55.72 689.28,-65.77 692.93,-55.82 685.93,-55.72"/>
</a>
</g>
</g>
<!-- Node19&#45;&gt;Node7 -->
<g id="edge23_Node000019_Node000007" class="edge">
<title>Node19&#45;&gt;Node7</title>
<g id="a_edge23_Node000019_Node000007"><a xlink:title=" ">
<path fill="none" stroke="#63b8ff" d="M855.81,-57.4C862.45,-47.99 869.56,-37.9 875.1,-30.04"/>
<polygon fill="#63b8ff" stroke="#63b8ff" points="852.81,-55.58 849.91,-65.77 858.53,-59.61 852.81,-55.58"/>
</a>
</g>
</g>
<!-- Node20&#45;&gt;Node8 -->
<g id="edge25_Node000020_Node000008" class="edge">
<title>Node20&#45;&gt;Node8</title>
<g id="a_edge25_Node000020_Node000008"><a xlink:title=" ">
<path fill="none" stroke="#63b8ff" d="M1234.79,-62.25C1207.11,-51.56 1175.19,-39.24 1151.27,-30"/>
<polygon fill="#63b8ff" stroke="#63b8ff" points="1233.79,-65.62 1244.38,-65.96 1236.31,-59.09 1233.79,-65.62"/>
</a>
</g>
</g>
<!-- Node21&#45;&gt;Node9 -->
<g id="edge27_Node000021_Node000009" class="edge">
<title>Node21&#45;&gt;Node9</title>
<g id="a_edge27_Node000021_Node000009"><a xlink:title=" ">
<path fill="none" stroke="#63b8ff" d="M1392.82,-62.39C1364.44,-51.67 1331.64,-39.28 1307.08,-30"/>
<polygon fill="#63b8ff" stroke="#63b8ff" points="1391.66,-65.7 1402.26,-65.96 1394.14,-59.15 1391.66,-65.7"/>
</a>
</g>
</g>
<!-- Node22&#45;&gt;Node10 -->
<g id="edge29_Node000022_Node000010" class="edge">
<title>Node22&#45;&gt;Node10</title>
<g id="a_edge29_Node000022_Node000010"><a xlink:title=" ">
<path fill="none" stroke="#63b8ff" d="M1377.34,-145.92C1381.29,-144.93 1385.2,-143.95 1389,-143 1453.84,-126.8 1493.79,-159.61 1535,-107 1546.24,-92.66 1545.04,-81.21 1535,-66 1522.28,-46.74 1500.45,-34.87 1479.07,-27.57"/>
<polygon fill="#63b8ff" stroke="#63b8ff" points="1376.35,-142.56 1367.51,-148.4 1378.06,-149.35 1376.35,-142.56"/>
</a>
</g>
</g>
<!-- Node23&#45;&gt;Node11 -->
<g id="edge31_Node000023_Node000011" class="edge">
<title>Node23&#45;&gt;Node11</title>
<g id="a_edge31_Node000023_Node000011"><a xlink:title=" ">
<path fill="none" stroke="#63b8ff" d="M1535.53,-137.92C1548.48,-130.07 1560.34,-119.94 1568,-107 1582.24,-82.92 1572.17,-48.94 1564.49,-30.05"/>
<polygon fill="#63b8ff" stroke="#63b8ff" points="1533.47,-135.06 1526.44,-142.99 1536.88,-141.18 1533.47,-135.06"/>
</a>
</g>
</g>
<!-- Node24&#45;&gt;Node12 -->
<g id="edge33_Node000024_Node000012" class="edge">
<title>Node24&#45;&gt;Node12</title>
<g id="a_edge33_Node000024_Node000012"><a xlink:title=" ">
<path fill="none" stroke="#63b8ff" d="M1635.89,-134.06C1654.41,-102.88 1683.38,-54.09 1697.58,-30.18"/>
<polygon fill="#63b8ff" stroke="#63b8ff" points="1632.83,-132.36 1630.73,-142.74 1638.85,-135.93 1632.83,-132.36"/>
</a>
</g>
</g>
<!-- Node25&#45;&gt;Node3 -->
<g id="edge35_Node000025_Node000003" class="edge">
<title>Node25&#45;&gt;Node3</title>
<g id="a_edge35_Node000025_Node000003"><a xlink:title=" ">
<path fill="none" stroke="#63b8ff" d="M173.84,-139.1C164.49,-119.38 154.91,-90.55 163,-66 167.46,-52.46 177.16,-39.59 185.51,-30.3"/>
<polygon fill="#63b8ff" stroke="#63b8ff" points="170.83,-140.91 178.47,-148.25 177.07,-137.75 170.83,-140.91"/>
</a>
</g>
</g>
<!-- Node26 -->
<g id="Node000026" class="node">
<title>Node26</title>
<g id="a_Node000026"><a xlink:href="panoc-driver_8cpp.html" target="_top" xlink:title=" ">
<polygon fill="white" stroke="#666666" points="288,-101.5 172,-101.5 172,-71.5 288,-71.5 288,-101.5"/>
<text text-anchor="start" x="180" y="-89.5" font-family="Helvetica,sans-Serif" font-size="10.00">src/alpaqa/src/driver</text>
<text text-anchor="middle" x="230" y="-78.5" font-family="Helvetica,sans-Serif" font-size="10.00">/panoc&#45;driver.cpp</text>
</a>
</g>
</g>
<!-- Node25&#45;&gt;Node26 -->
<g id="edge36_Node000025_Node000026" class="edge">
<title>Node25&#45;&gt;Node26</title>
<g id="a_edge36_Node000025_Node000026"><a xlink:title=" ">
<path fill="none" stroke="#63b8ff" d="M200.18,-139.51C207.29,-127.11 215.83,-112.21 221.95,-101.54"/>
<polygon fill="#63b8ff" stroke="#63b8ff" points="197.03,-137.98 195.09,-148.39 203.1,-141.46 197.03,-137.98"/>
</a>
</g>
</g>
<!-- Node27 -->
<g id="Node000027" class="node">
<title>Node27</title>
<g id="a_Node000027"><a xlink:href="pantr-driver_8cpp.html" target="_top" xlink:title=" ">
<polygon fill="white" stroke="#666666" points="116,-101.5 0,-101.5 0,-71.5 116,-71.5 116,-101.5"/>
<text text-anchor="start" x="8" y="-89.5" font-family="Helvetica,sans-Serif" font-size="10.00">src/alpaqa/src/driver</text>
<text text-anchor="middle" x="58" y="-78.5" font-family="Helvetica,sans-Serif" font-size="10.00">/pantr&#45;driver.cpp</text>
</a>
</g>
</g>
<!-- Node25&#45;&gt;Node27 -->
<g id="edge37_Node000025_Node000027" class="edge">
<title>Node25&#45;&gt;Node27</title>
<g id="a_edge37_Node000025_Node000027"><a xlink:title=" ">
<path fill="none" stroke="#63b8ff" d="M153.9,-143.25C131.49,-130.23 102.39,-113.31 82.16,-101.54"/>
<polygon fill="#63b8ff" stroke="#63b8ff" points="152.33,-146.39 162.74,-148.39 155.85,-140.34 152.33,-146.39"/>
</a>
</g>
</g>
</g>
</svg>

<g id="navigator" transform="translate(0 0)" fill="#404254">
  <rect fill="#f2f5e9" fill-opacity="0.5" stroke="#606060" stroke-width=".5" x="0" y="0" width="60" height="60"/>
  <use id="zoomplus" xlink:href="#zoomPlus" x="17" y="9" onmousedown="handleZoom(evt,'in')"/>
  <use id="zoomminus" xlink:href="#zoomMin" x="42" y="9" onmousedown="handleZoom(evt,'out')"/>
  <use id="reset" xlink:href="#resetDef" x="30" y="36" onmousedown="handleReset()"/>
   <use id="arrowup" xlink:href="#arrowUp" x="0" y="0" onmousedown="handlePan(0,-1)"/>
  <use id="arrowright" xlink:href="#arrowRight" x="0" y="0" onmousedown="handlePan(1,0)"/>
  <use id="arrowdown" xlink:href="#arrowDown" x="0" y="0" onmousedown="handlePan(0,1)"/>
  <use id="arrowleft" xlink:href="#arrowLeft" x="0" y="0" onmousedown="handlePan(-1,0)"/>
</g>
<svg viewBox="0 0 15 15" width="100%" height="30px" preserveAspectRatio="xMaxYMin meet">
 <g id="arrow_out" transform="scale(0.3 0.3)">
  <a xlink:href="alm_8hpp__dep__incl_org.svg" target="_base">
   <rect id="button" ry="5" rx="5" y="6" x="6" height="38" width="38"
        fill="#f2f5e9" fill-opacity="0.5" stroke="#606060" stroke-width="1.0"/>
   <path id="arrow"
     d="M 11.500037,31.436501 C 11.940474,20.09759 22.043105,11.32322 32.158766,21.979434 L 37.068811,17.246167 C 37.068811,17.246167 37.088388,32 37.088388,32 L 22.160133,31.978069 C 22.160133,31.978069 26.997745,27.140456 26.997745,27.140456 C 18.528582,18.264221 13.291696,25.230495 11.500037,31.436501 z"
     style="fill:#404040;"/>
  </a>
 </g>
</svg>

<style type='text/css'>
<![CDATA[
[data-mouse-over-selected='false'] { opacity: 0.7; }
[data-mouse-over-selected='true']  { opacity: 1.0; }
]]>
</style>
<script type="application/ecmascript"><![CDATA[
document.addEventListener('DOMContentLoaded', (event) => {
  highlightEdges();
  highlightAdjacentNodes();
});
]]></script>
</svg>
