<?xml version="1.0" encoding="UTF-8" standalone="no"?>
<!DOCTYPE svg PUBLIC "-//W3C//DTD SVG 1.1//EN"
 "http://www.w3.org/Graphics/SVG/1.1/DTD/svg11.dtd">
<!-- Generated by graphviz version 2.43.0 (0)
 -->
<!-- Title: eval_f Pages: 1 -->
<svg width="213pt" height="134pt"
 viewBox="0.00 0.00 213.00 134.00" xmlns="http://www.w3.org/2000/svg" xmlns:xlink="http://www.w3.org/1999/xlink">
<g id="graph0" class="graph" transform="scale(1 1) rotate(0) translate(4 130)">
<title>eval_f</title>
<!-- Node1 -->
<g id="Node000001" class="node">
<title>Node1</title>
<g id="a_Node000001"><a xlink:title="Discrete&#45;time dynamics .">
<polygon fill="#999999" stroke="#666666" points="205,-72.5 158,-72.5 158,-53.5 205,-53.5 205,-72.5"/>
<text text-anchor="middle" x="181.5" y="-60.5" font-family="Helvetica,sans-Serif" font-size="10.00">eval_f</text>
</a>
</g>
</g>
<!-- Node2 -->
<g id="Node000002" class="node">
<title>Node2</title>
<g id="a_Node000002"><a xlink:href="structalpaqa_1_1OCPEvaluator.html#aa390f28c24f187326b60eedd7ff4fe66" target="_top" xlink:title=" ">
<polygon fill="white" stroke="#666666" points="122,-126 0,-126 0,-96 122,-96 122,-126"/>
<text text-anchor="start" x="8" y="-114" font-family="Helvetica,sans-Serif" font-size="10.00">alpaqa::OCPEvaluator</text>
<text text-anchor="middle" x="61" y="-103" font-family="Helvetica,sans-Serif" font-size="10.00">::forward</text>
</a>
</g>
</g>
<!-- Node1&#45;&gt;Node2 -->
<g id="edge1_Node000001_Node000002" class="edge">
<title>Node1&#45;&gt;Node2</title>
<g id="a_edge1_Node000001_Node000002"><a xlink:title=" ">
<path fill="none" stroke="#63b8ff" d="M148.42,-76.22C139.84,-79.74 130.58,-83.53 122,-87 114.83,-89.91 107.16,-92.99 99.79,-95.94"/>
<polygon fill="#63b8ff" stroke="#63b8ff" points="149.82,-79.43 157.74,-72.39 147.16,-72.96 149.82,-79.43"/>
</a>
</g>
</g>
<!-- Node3 -->
<g id="Node000003" class="node">
<title>Node3</title>
<g id="a_Node000003"><a xlink:href="structalpaqa_1_1OCPEvaluator.html#a488c4275c8f27429d2a9eb98c5d1aedd" target="_top" xlink:title=" ">
<polygon fill="white" stroke="#666666" points="122,-78 0,-78 0,-48 122,-48 122,-78"/>
<text text-anchor="start" x="8" y="-66" font-family="Helvetica,sans-Serif" font-size="10.00">alpaqa::OCPEvaluator</text>
<text text-anchor="middle" x="61" y="-55" font-family="Helvetica,sans-Serif" font-size="10.00">::forward_simulate</text>
</a>
</g>
</g>
<!-- Node1&#45;&gt;Node3 -->
<g id="edge2_Node000001_Node000003" class="edge">
<title>Node1&#45;&gt;Node3</title>
<g id="a_edge2_Node000001_Node000003"><a xlink:title=" ">
<path fill="none" stroke="#63b8ff" d="M147.66,-63C139.71,-63 130.97,-63 122.2,-63"/>
<polygon fill="#63b8ff" stroke="#63b8ff" points="147.93,-66.5 157.93,-63 147.93,-59.5 147.93,-66.5"/>
</a>
</g>
</g>
<!-- Node4 -->
<g id="Node000004" class="node">
<title>Node4</title>
<g id="a_Node000004"><a xlink:href="structalpaqa_1_1OCPEvaluator.html#a02a290de7f57c49cbc1ce72fbd8a69b3" target="_top" xlink:title=" ">
<polygon fill="white" stroke="#666666" points="122,-30 0,-30 0,0 122,0 122,-30"/>
<text text-anchor="start" x="8" y="-18" font-family="Helvetica,sans-Serif" font-size="10.00">alpaqa::OCPEvaluator</text>
<text text-anchor="middle" x="61" y="-7" font-family="Helvetica,sans-Serif" font-size="10.00">::forward_simulate</text>
</a>
</g>
</g>
<!-- Node1&#45;&gt;Node4 -->
<g id="edge3_Node000001_Node000004" class="edge">
<title>Node1&#45;&gt;Node4</title>
<g id="a_edge3_Node000001_Node000004"><a xlink:title=" ">
<path fill="none" stroke="#63b8ff" d="M148.42,-49.78C139.84,-46.26 130.58,-42.47 122,-39 114.83,-36.09 107.16,-33.01 99.79,-30.06"/>
<polygon fill="#63b8ff" stroke="#63b8ff" points="147.16,-53.04 157.74,-53.61 149.82,-46.57 147.16,-53.04"/>
</a>
</g>
</g>
</g>
</svg>
