<?xml version="1.0" encoding="UTF-8" standalone="no"?>
<!DOCTYPE svg PUBLIC "-//W3C//DTD SVG 1.1//EN"
 "http://www.w3.org/Graphics/SVG/1.1/DTD/svg11.dtd">
<!-- Generated by graphviz version 2.43.0 (0)
 -->
<!-- Title: Graphical Class Hierarchy Pages: 1 -->
<svg width="240pt" height="138pt"
 viewBox="0.00 0.00 240.00 138.00" xmlns="http://www.w3.org/2000/svg" xmlns:xlink="http://www.w3.org/1999/xlink">
<g id="graph0" class="graph" transform="scale(1 1) rotate(0) translate(4 134)">
<title>Graphical Class Hierarchy</title>
<!-- Node0 -->
<g id="Node000000" class="node">
<title>Node0</title>
<g id="a_Node000000"><a xlink:title=" ">
<polygon fill="#e0e0e0" stroke="#999999" points="83,-74 0,-74 0,-55 83,-55 83,-74"/>
<text text-anchor="middle" x="41.5" y="-62" font-family="Helvetica,sans-Serif" font-size="10.00">runtime_error</text>
</a>
</g>
</g>
<!-- Node1 -->
<g id="Node000001" class="node">
<title>Node1</title>
<g id="a_Node000001"><a xlink:href="structalpaqa_01_1_1util_1_1dynamic__load__error.html" target="_top" xlink:title="Failed to load a DLL or SO file, or failed to access a function in it.">
<polygon fill="white" stroke="#666666" points="232,-130 119,-130 119,-111 232,-111 232,-130"/>
<text text-anchor="middle" x="175.5" y="-118" font-family="Helvetica,sans-Serif" font-size="10.00">dynamic_load_error</text>
</a>
</g>
</g>
<!-- Node0&#45;&gt;Node1 -->
<g id="edge26_Node000000_Node000001" class="edge">
<title>Node0&#45;&gt;Node1</title>
<g id="a_edge26_Node000000_Node000001"><a xlink:title=" ">
<path fill="none" stroke="#63b8ff" d="M68.72,-78.72C83.29,-86.32 101.88,-95.52 119,-102.5 126.41,-105.52 134.53,-108.39 142.22,-110.92"/>
<polygon fill="#63b8ff" stroke="#63b8ff" points="70.26,-75.58 59.78,-74 66.99,-81.77 70.26,-75.58"/>
</a>
</g>
</g>
<!-- Node2 -->
<g id="Node000002" class="node">
<title>Node2</title>
<g id="a_Node000002"><a xlink:href="structalpaqa_1_1csv_1_1read__error.html" target="_top" xlink:title=" ">
<polygon fill="white" stroke="#666666" points="209,-93 142,-93 142,-74 209,-74 209,-93"/>
<text text-anchor="middle" x="175.5" y="-81" font-family="Helvetica,sans-Serif" font-size="10.00">read_error</text>
</a>
</g>
</g>
<!-- Node0&#45;&gt;Node2 -->
<g id="edge27_Node000000_Node000002" class="edge">
<title>Node0&#45;&gt;Node2</title>
<g id="a_edge27_Node000000_Node000002"><a xlink:title=" ">
<path fill="none" stroke="#63b8ff" d="M93.12,-71.79C109.41,-74.13 127.02,-76.67 141.69,-78.78"/>
<polygon fill="#63b8ff" stroke="#63b8ff" points="93.58,-68.32 83.18,-70.36 92.58,-75.24 93.58,-68.32"/>
</a>
</g>
</g>
<!-- Node3 -->
<g id="Node000003" class="node">
<title>Node3</title>
<g id="a_Node000003"><a xlink:href="structalpaqa_1_1cutest_1_1function__call__error.html" target="_top" xlink:title=" ">
<polygon fill="white" stroke="#666666" points="229,-56 122,-56 122,-37 229,-37 229,-56"/>
<text text-anchor="middle" x="175.5" y="-44" font-family="Helvetica,sans-Serif" font-size="10.00">function_call_error</text>
</a>
</g>
</g>
<!-- Node0&#45;&gt;Node3 -->
<g id="edge28_Node000000_Node000003" class="edge">
<title>Node0&#45;&gt;Node3</title>
<g id="a_edge28_Node000000_Node000003"><a xlink:title=" ">
<path fill="none" stroke="#63b8ff" d="M93.38,-57.56C102.61,-56.3 112.26,-54.99 121.55,-53.72"/>
<polygon fill="#63b8ff" stroke="#63b8ff" points="92.62,-54.13 83.18,-58.95 93.56,-61.07 92.62,-54.13"/>
</a>
</g>
</g>
<!-- Node4 -->
<g id="Node000004" class="node">
<title>Node4</title>
<g id="a_Node000004"><a xlink:href="structalpaqa_1_1cutest_1_1function__load__error.html" target="_top" xlink:title=" ">
<polygon fill="white" stroke="#666666" points="231,-19 120,-19 120,0 231,0 231,-19"/>
<text text-anchor="middle" x="175.5" y="-7" font-family="Helvetica,sans-Serif" font-size="10.00">function_load_error</text>
</a>
</g>
</g>
<!-- Node0&#45;&gt;Node4 -->
<g id="edge29_Node000000_Node000004" class="edge">
<title>Node0&#45;&gt;Node4</title>
<g id="a_edge29_Node000000_Node000004"><a xlink:title=" ">
<path fill="none" stroke="#63b8ff" d="M70.71,-50.32C85.01,-43.36 102.75,-35.08 119,-28.5 127.21,-25.17 136.25,-21.91 144.61,-19.06"/>
<polygon fill="#63b8ff" stroke="#63b8ff" points="68.85,-47.33 61.42,-54.88 71.94,-53.61 68.85,-47.33"/>
</a>
</g>
</g>
</g>
</svg>
