<?xml version="1.0" encoding="UTF-8" standalone="no"?>
<!DOCTYPE svg PUBLIC "-//W3C//DTD SVG 1.1//EN"
 "http://www.w3.org/Graphics/SVG/1.1/DTD/svg11.dtd">
<!-- Generated by graphviz version 2.43.0 (0)
 -->
<!-- Title: src/alpaqa/include/alpaqa/accelerators/internal/limited&#45;memory&#45;qr.hpp Pages: 1 -->
<svg width="805pt" height="181pt"
 viewBox="0.00 0.00 804.50 181.00" xmlns="http://www.w3.org/2000/svg" xmlns:xlink="http://www.w3.org/1999/xlink">
<g id="graph0" class="graph" transform="scale(1 1) rotate(0) translate(4 177)">
<title>src/alpaqa/include/alpaqa/accelerators/internal/limited&#45;memory&#45;qr.hpp</title>
<!-- Node1 -->
<g id="Node000001" class="node">
<title>Node1</title>
<g id="a_Node000001"><a xlink:title=" ">
<polygon fill="#999999" stroke="#666666" points="653.5,-173 513.5,-173 513.5,-121 653.5,-121 653.5,-173"/>
<text text-anchor="start" x="521.5" y="-161" font-family="Helvetica,sans-Serif" font-size="10.00">src/alpaqa/include</text>
<text text-anchor="start" x="521.5" y="-150" font-family="Helvetica,sans-Serif" font-size="10.00">/alpaqa/accelerators</text>
<text text-anchor="start" x="521.5" y="-139" font-family="Helvetica,sans-Serif" font-size="10.00">/internal/limited&#45;memory</text>
<text text-anchor="middle" x="583.5" y="-128" font-family="Helvetica,sans-Serif" font-size="10.00">&#45;qr.hpp</text>
</a>
</g>
</g>
<!-- Node2 -->
<g id="Node000002" class="node">
<title>Node2</title>
<g id="a_Node000002"><a xlink:href="config_8hpp.html" target="_top" xlink:title=" ">
<polygon fill="white" stroke="#666666" points="445,-85 310,-85 310,-66 445,-66 445,-85"/>
<text text-anchor="middle" x="377.5" y="-73" font-family="Helvetica,sans-Serif" font-size="10.00">alpaqa/config/config.hpp</text>
</a>
</g>
</g>
<!-- Node1&#45;&gt;Node2 -->
<g id="edge1_Node000001_Node000002" class="edge">
<title>Node1&#45;&gt;Node2</title>
<g id="a_edge1_Node000001_Node000002"><a xlink:title=" ">
<path fill="none" stroke="#63b8ff" d="M513.47,-122.37C479.4,-110.88 439.94,-97.57 412.34,-88.25"/>
<polygon fill="#63b8ff" stroke="#63b8ff" points="413.33,-84.89 402.74,-85.01 411.09,-91.53 413.33,-84.89"/>
</a>
</g>
</g>
<!-- Node7 -->
<g id="Node000007" class="node">
<title>Node7</title>
<g id="a_Node000007"><a xlink:title=" ">
<polygon fill="#e0e0e0" stroke="#999999" points="574,-24.5 505,-24.5 505,-5.5 574,-5.5 574,-24.5"/>
<text text-anchor="middle" x="539.5" y="-12.5" font-family="Helvetica,sans-Serif" font-size="10.00">type_traits</text>
</a>
</g>
</g>
<!-- Node1&#45;&gt;Node7 -->
<g id="edge12_Node000001_Node000007" class="edge">
<title>Node1&#45;&gt;Node7</title>
<g id="a_edge12_Node000001_Node000007"><a xlink:title=" ">
<path fill="none" stroke="#63b8ff" d="M569.29,-120.8C563.71,-110.04 557.65,-97.18 553.5,-85 547.83,-68.39 544.12,-48.7 541.95,-34.61"/>
<polygon fill="#63b8ff" stroke="#63b8ff" points="545.41,-34.09 540.53,-24.69 538.48,-35.08 545.41,-34.09"/>
</a>
</g>
</g>
<!-- Node9 -->
<g id="Node000009" class="node">
<title>Node9</title>
<g id="a_Node000009"><a xlink:href="ringbuffer_8hpp.html" target="_top" xlink:title=" ">
<polygon fill="white" stroke="#666666" points="702,-85 563,-85 563,-66 702,-66 702,-85"/>
<text text-anchor="middle" x="632.5" y="-73" font-family="Helvetica,sans-Serif" font-size="10.00">alpaqa/util/ringbuffer.hpp</text>
</a>
</g>
</g>
<!-- Node1&#45;&gt;Node9 -->
<g id="edge8_Node000001_Node000009" class="edge">
<title>Node1&#45;&gt;Node9</title>
<g id="a_edge8_Node000001_Node000009"><a xlink:title=" ">
<path fill="none" stroke="#63b8ff" d="M601.19,-120.91C607.56,-111.87 614.61,-101.88 620.39,-93.67"/>
<polygon fill="#63b8ff" stroke="#63b8ff" points="623.39,-95.49 626.29,-85.3 617.67,-91.46 623.39,-95.49"/>
</a>
</g>
</g>
<!-- Node12 -->
<g id="Node000012" class="node">
<title>Node12</title>
<g id="a_Node000012"><a xlink:title=" ">
<polygon fill="#e0e0e0" stroke="#999999" points="796.5,-85 720.5,-85 720.5,-66 796.5,-66 796.5,-85"/>
<text text-anchor="middle" x="758.5" y="-73" font-family="Helvetica,sans-Serif" font-size="10.00">Eigen/Jacobi</text>
</a>
</g>
</g>
<!-- Node1&#45;&gt;Node12 -->
<g id="edge11_Node000001_Node000012" class="edge">
<title>Node1&#45;&gt;Node12</title>
<g id="a_edge11_Node000001_Node000012"><a xlink:title=" ">
<path fill="none" stroke="#63b8ff" d="M646.68,-120.91C674.14,-110 705.07,-97.72 727.43,-88.84"/>
<polygon fill="#63b8ff" stroke="#63b8ff" points="728.75,-92.08 736.76,-85.14 726.17,-85.57 728.75,-92.08"/>
</a>
</g>
</g>
<!-- Node3 -->
<g id="Node000003" class="node">
<title>Node3</title>
<g id="a_Node000003"><a xlink:href="quadmath-print_8hpp.html" target="_top" xlink:title=" ">
<polygon fill="white" stroke="#666666" points="121,-30 0,-30 0,0 121,0 121,-30"/>
<text text-anchor="start" x="8" y="-18" font-family="Helvetica,sans-Serif" font-size="10.00">alpaqa/util/quadmath</text>
<text text-anchor="middle" x="60.5" y="-7" font-family="Helvetica,sans-Serif" font-size="10.00">/quadmath&#45;print.hpp</text>
</a>
</g>
</g>
<!-- Node2&#45;&gt;Node3 -->
<g id="edge2_Node000002_Node000003" class="edge">
<title>Node2&#45;&gt;Node3</title>
<g id="a_edge2_Node000002_Node000003"><a xlink:title=" ">
<path fill="none" stroke="#63b8ff" d="M328.03,-65.96C280.09,-57.61 205.04,-44.34 131.03,-30.27"/>
<polygon fill="#63b8ff" stroke="#63b8ff" points="131.55,-26.81 121.07,-28.37 130.23,-33.68 131.55,-26.81"/>
</a>
</g>
</g>
<!-- Node4 -->
<g id="Node000004" class="node">
<title>Node4</title>
<g id="a_Node000004"><a xlink:href="quadmath_8hpp.html" target="_top" xlink:title=" ">
<polygon fill="white" stroke="#666666" points="260,-30 139,-30 139,0 260,0 260,-30"/>
<text text-anchor="start" x="147" y="-18" font-family="Helvetica,sans-Serif" font-size="10.00">alpaqa/util/quadmath</text>
<text text-anchor="middle" x="199.5" y="-7" font-family="Helvetica,sans-Serif" font-size="10.00">/quadmath.hpp</text>
</a>
</g>
</g>
<!-- Node2&#45;&gt;Node4 -->
<g id="edge3_Node000002_Node000004" class="edge">
<title>Node2&#45;&gt;Node4</title>
<g id="a_edge3_Node000002_Node000004"><a xlink:title=" ">
<path fill="none" stroke="#63b8ff" d="M351.62,-65.99C325.66,-57.46 284.96,-44.09 252.19,-33.32"/>
<polygon fill="#63b8ff" stroke="#63b8ff" points="252.89,-29.86 242.29,-30.06 250.7,-36.51 252.89,-29.86"/>
</a>
</g>
</g>
<!-- Node5 -->
<g id="Node000005" class="node">
<title>Node5</title>
<g id="a_Node000005"><a xlink:title=" ">
<polygon fill="#e0e0e0" stroke="#999999" points="337,-24.5 278,-24.5 278,-5.5 337,-5.5 337,-24.5"/>
<text text-anchor="middle" x="307.5" y="-12.5" font-family="Helvetica,sans-Serif" font-size="10.00">complex</text>
</a>
</g>
</g>
<!-- Node2&#45;&gt;Node5 -->
<g id="edge4_Node000002_Node000005" class="edge">
<title>Node2&#45;&gt;Node5</title>
<g id="a_edge4_Node000002_Node000005"><a xlink:title=" ">
<path fill="none" stroke="#63b8ff" d="M367.17,-65.87C356.31,-56.8 339.01,-42.34 325.83,-31.32"/>
<polygon fill="#63b8ff" stroke="#63b8ff" points="327.79,-28.39 317.87,-24.67 323.3,-33.77 327.79,-28.39"/>
</a>
</g>
</g>
<!-- Node6 -->
<g id="Node000006" class="node">
<title>Node6</title>
<g id="a_Node000006"><a xlink:title=" ">
<polygon fill="#e0e0e0" stroke="#999999" points="399.5,-24.5 355.5,-24.5 355.5,-5.5 399.5,-5.5 399.5,-24.5"/>
<text text-anchor="middle" x="377.5" y="-12.5" font-family="Helvetica,sans-Serif" font-size="10.00">limits</text>
</a>
</g>
</g>
<!-- Node2&#45;&gt;Node6 -->
<g id="edge5_Node000002_Node000006" class="edge">
<title>Node2&#45;&gt;Node6</title>
<g id="a_edge5_Node000002_Node000006"><a xlink:title=" ">
<path fill="none" stroke="#63b8ff" d="M377.5,-65.87C377.5,-57.75 377.5,-45.31 377.5,-34.89"/>
<polygon fill="#63b8ff" stroke="#63b8ff" points="381,-34.67 377.5,-24.67 374,-34.67 381,-34.67"/>
</a>
</g>
</g>
<!-- Node2&#45;&gt;Node7 -->
<g id="edge6_Node000002_Node000007" class="edge">
<title>Node2&#45;&gt;Node7</title>
<g id="a_edge6_Node000002_Node000007"><a xlink:title=" ">
<path fill="none" stroke="#63b8ff" d="M401.06,-65.99C428.77,-55.99 474.97,-39.3 506.31,-27.99"/>
<polygon fill="#63b8ff" stroke="#63b8ff" points="507.7,-31.21 515.92,-24.52 505.32,-24.62 507.7,-31.21"/>
</a>
</g>
</g>
<!-- Node8 -->
<g id="Node000008" class="node">
<title>Node8</title>
<g id="a_Node000008"><a xlink:title=" ">
<polygon fill="#e0e0e0" stroke="#999999" points="487,-24.5 418,-24.5 418,-5.5 487,-5.5 487,-24.5"/>
<text text-anchor="middle" x="452.5" y="-12.5" font-family="Helvetica,sans-Serif" font-size="10.00">Eigen/Core</text>
</a>
</g>
</g>
<!-- Node2&#45;&gt;Node8 -->
<g id="edge7_Node000002_Node000008" class="edge">
<title>Node2&#45;&gt;Node8</title>
<g id="a_edge7_Node000002_Node000008"><a xlink:title=" ">
<path fill="none" stroke="#63b8ff" d="M388.57,-65.87C400.31,-56.71 419.09,-42.06 433.26,-31.01"/>
<polygon fill="#63b8ff" stroke="#63b8ff" points="435.66,-33.58 441.39,-24.67 431.35,-28.06 435.66,-33.58"/>
</a>
</g>
</g>
<!-- Node10 -->
<g id="Node000010" class="node">
<title>Node10</title>
<g id="a_Node000010"><a xlink:title=" ">
<polygon fill="#e0e0e0" stroke="#999999" points="654,-24.5 601,-24.5 601,-5.5 654,-5.5 654,-24.5"/>
<text text-anchor="middle" x="627.5" y="-12.5" font-family="Helvetica,sans-Serif" font-size="10.00">cstddef</text>
</a>
</g>
</g>
<!-- Node9&#45;&gt;Node10 -->
<g id="edge9_Node000009_Node000010" class="edge">
<title>Node9&#45;&gt;Node10</title>
<g id="a_edge9_Node000009_Node000010"><a xlink:title=" ">
<path fill="none" stroke="#63b8ff" d="M631.76,-65.87C631.07,-57.75 630,-45.31 629.11,-34.89"/>
<polygon fill="#63b8ff" stroke="#63b8ff" points="632.58,-34.33 628.24,-24.67 625.61,-34.93 632.58,-34.33"/>
</a>
</g>
</g>
<!-- Node11 -->
<g id="Node000011" class="node">
<title>Node11</title>
<g id="a_Node000011"><a xlink:title=" ">
<polygon fill="#e0e0e0" stroke="#999999" points="725,-24.5 672,-24.5 672,-5.5 725,-5.5 725,-24.5"/>
<text text-anchor="middle" x="698.5" y="-12.5" font-family="Helvetica,sans-Serif" font-size="10.00">iterator</text>
</a>
</g>
</g>
<!-- Node9&#45;&gt;Node11 -->
<g id="edge10_Node000009_Node000011" class="edge">
<title>Node9&#45;&gt;Node11</title>
<g id="a_edge10_Node000009_Node000011"><a xlink:title=" ">
<path fill="none" stroke="#63b8ff" d="M642.24,-65.87C652.47,-56.8 668.79,-42.34 681.22,-31.32"/>
<polygon fill="#63b8ff" stroke="#63b8ff" points="683.56,-33.92 688.72,-24.67 678.92,-28.68 683.56,-33.92"/>
</a>
</g>
</g>
</g>
</svg>
