<?xml version="1.0" encoding="UTF-8" standalone="no"?>
<!DOCTYPE svg PUBLIC "-//W3C//DTD SVG 1.1//EN"
 "http://www.w3.org/Graphics/SVG/1.1/DTD/svg11.dtd">
<!-- Generated by graphviz version 2.43.0 (0)
 -->
<!-- Title: find_param_or_throw Pages: 1 -->
<svg width="400pt" height="76pt"
 viewBox="0.00 0.00 400.00 75.50" xmlns="http://www.w3.org/2000/svg" xmlns:xlink="http://www.w3.org/1999/xlink">
<g id="graph0" class="graph" transform="scale(1 1) rotate(0) translate(4 71.5)">
<title>find_param_or_throw</title>
<!-- Node1 -->
<g id="Node000001" class="node">
<title>Node1</title>
<g id="a_Node000001"><a xlink:title=" ">
<polygon fill="#999999" stroke="#666666" points="119,-45.5 0,-45.5 0,-26.5 119,-26.5 119,-45.5"/>
<text text-anchor="middle" x="59.5" y="-33.5" font-family="Helvetica,sans-Serif" font-size="10.00">find_param_or_throw</text>
</a>
</g>
</g>
<!-- Node2 -->
<g id="Node000002" class="node">
<title>Node2</title>
<g id="a_Node000002"><a xlink:href="namespacealpaqa_1_1params_1_1detail.html#a6aa41a8827ffd36b3e2a8e7346a44f19" target="_top" xlink:title=" ">
<polygon fill="white" stroke="#666666" points="253,-45.5 155,-45.5 155,-26.5 253,-26.5 253,-45.5"/>
<text text-anchor="middle" x="204" y="-33.5" font-family="Helvetica,sans-Serif" font-size="10.00">join_sorted_keys</text>
</a>
</g>
</g>
<!-- Node1&#45;&gt;Node2 -->
<g id="edge1_Node000001_Node000002" class="edge">
<title>Node1&#45;&gt;Node2</title>
<g id="a_edge1_Node000001_Node000002"><a xlink:title=" ">
<path fill="none" stroke="#63b8ff" d="M119.28,-36C127.68,-36 136.31,-36 144.69,-36"/>
<polygon fill="#63b8ff" stroke="#63b8ff" points="144.77,-39.5 154.77,-36 144.77,-32.5 144.77,-39.5"/>
</a>
</g>
</g>
<!-- Node3 -->
<g id="Node000003" class="node">
<title>Node3</title>
<g id="a_Node000003"><a xlink:href="namespacealpaqa_1_1util.html#aa93b2039064bcb3304233064c0485c9b" target="_top" xlink:title="Join the list of strings into a single string, using the separator given by opt.">
<polygon fill="white" stroke="#666666" points="388,-67.5 293,-67.5 293,-48.5 388,-48.5 388,-67.5"/>
<text text-anchor="middle" x="340.5" y="-55.5" font-family="Helvetica,sans-Serif" font-size="10.00">alpaqa::util::join</text>
</a>
</g>
</g>
<!-- Node2&#45;&gt;Node3 -->
<g id="edge2_Node000002_Node000003" class="edge">
<title>Node2&#45;&gt;Node3</title>
<g id="a_edge2_Node000002_Node000003"><a xlink:title=" ">
<path fill="none" stroke="#63b8ff" d="M253.18,-43.88C262.69,-45.44 272.75,-47.08 282.52,-48.68"/>
<polygon fill="#63b8ff" stroke="#63b8ff" points="282.13,-52.16 292.56,-50.32 283.26,-45.25 282.13,-52.16"/>
</a>
</g>
</g>
<!-- Node4 -->
<g id="Node000004" class="node">
<title>Node4</title>
<g id="a_Node000004"><a xlink:href="namespacealpaqa_1_1util.html#ab38ac790b4155e7631dfb11d7dfff1c3" target="_top" xlink:title="Sort the given range of strings in&#45;place in a case&#45;insensitive manner.">
<polygon fill="white" stroke="#666666" points="392,-30 289,-30 289,0 392,0 392,-30"/>
<text text-anchor="start" x="297" y="-18" font-family="Helvetica,sans-Serif" font-size="10.00">alpaqa::util::sort</text>
<text text-anchor="middle" x="340.5" y="-7" font-family="Helvetica,sans-Serif" font-size="10.00">_case_insensitive</text>
</a>
</g>
</g>
<!-- Node2&#45;&gt;Node4 -->
<g id="edge3_Node000002_Node000004" class="edge">
<title>Node2&#45;&gt;Node4</title>
<g id="a_edge3_Node000002_Node000004"><a xlink:title=" ">
<path fill="none" stroke="#63b8ff" d="M253.18,-28.48C261.52,-27.18 270.29,-25.81 278.91,-24.46"/>
<polygon fill="#63b8ff" stroke="#63b8ff" points="279.59,-27.9 288.93,-22.9 278.51,-20.98 279.59,-27.9"/>
</a>
</g>
</g>
</g>
</svg>
