<?xml version="1.0" encoding="UTF-8" standalone="no"?>
<!DOCTYPE svg PUBLIC "-//W3C//DTD SVG 1.1//EN"
 "http://www.w3.org/Graphics/SVG/1.1/DTD/svg11.dtd">
<!-- Generated by graphviz version 2.43.0 (0)
 -->
<!-- Title: wrapped_load Pages: 1 -->
<svg width="514pt" height="98pt"
 viewBox="0.00 0.00 514.00 97.50" xmlns="http://www.w3.org/2000/svg" xmlns:xlink="http://www.w3.org/1999/xlink">
<g id="graph0" class="graph" transform="scale(1 1) rotate(0) translate(4 93.5)">
<title>wrapped_load</title>
<!-- Node1 -->
<g id="Node000001" class="node">
<title>Node1</title>
<g id="a_Node000001"><a xlink:title=" ">
<polygon fill="#999999" stroke="#666666" points="506,-51.5 421,-51.5 421,-32.5 506,-32.5 506,-51.5"/>
<text text-anchor="middle" x="463.5" y="-39.5" font-family="Helvetica,sans-Serif" font-size="10.00">wrapped_load</text>
</a>
</g>
</g>
<!-- Node1&#45;&gt;Node1 -->
<g id="edge4_Node000001_Node000001" class="edge">
<title>Node1&#45;&gt;Node1</title>
<g id="a_edge4_Node000001_Node000001"><a xlink:title=" ">
<path fill="none" stroke="#63b8ff" d="M495.31,-59.95C494.4,-65.32 483.8,-69.5 463.5,-69.5 433.29,-69.5 424.55,-60.23 437.3,-51.58"/>
<polygon fill="#63b8ff" stroke="#63b8ff" points="498.18,-57.94 489.7,-51.58 492.36,-61.84 498.18,-57.94"/>
</a>
</g>
</g>
<!-- Node2 -->
<g id="Node000002" class="node">
<title>Node2</title>
<g id="a_Node000002"><a xlink:href="structbuiltin_1_1casadi__loader_1_1CasADiControlFunctionsWithParam.html#a315acb62b6609d1fa6bbf298fcc1064b" target="_top" xlink:title=" ">
<polygon fill="white" stroke="#666666" points="373.5,-89.5 211.5,-89.5 211.5,-48.5 373.5,-48.5 373.5,-89.5"/>
<text text-anchor="start" x="219.5" y="-77.5" font-family="Helvetica,sans-Serif" font-size="10.00">builtin::casadi_loader</text>
<text text-anchor="start" x="219.5" y="-66.5" font-family="Helvetica,sans-Serif" font-size="10.00">::CasADiControlFunctionsWith</text>
<text text-anchor="middle" x="292.5" y="-55.5" font-family="Helvetica,sans-Serif" font-size="10.00">Param::load</text>
</a>
</g>
</g>
<!-- Node1&#45;&gt;Node2 -->
<g id="edge1_Node000001_Node000002" class="edge">
<title>Node1&#45;&gt;Node2</title>
<g id="a_edge1_Node000001_Node000002"><a xlink:title=" ">
<path fill="none" stroke="#63b8ff" d="M410.71,-50.27C399,-52.15 386.29,-54.18 373.71,-56.19"/>
<polygon fill="#63b8ff" stroke="#63b8ff" points="411.4,-53.71 420.72,-48.67 410.3,-46.8 411.4,-53.71"/>
</a>
</g>
</g>
<!-- Node4 -->
<g id="Node000004" class="node">
<title>Node4</title>
<g id="a_Node000004"><a xlink:href="structbuiltin_1_1casadi__loader_1_1CasADiFunctionsWithParam.html#a4304eda8f003a82248635198d91a4379" target="_top" xlink:title=" ">
<polygon fill="white" stroke="#666666" points="385,-30 200,-30 200,0 385,0 385,-30"/>
<text text-anchor="start" x="208" y="-18" font-family="Helvetica,sans-Serif" font-size="10.00">builtin::casadi_loader</text>
<text text-anchor="middle" x="292.5" y="-7" font-family="Helvetica,sans-Serif" font-size="10.00">::CasADiFunctionsWithParam::load</text>
</a>
</g>
</g>
<!-- Node1&#45;&gt;Node4 -->
<g id="edge3_Node000001_Node000004" class="edge">
<title>Node1&#45;&gt;Node4</title>
<g id="a_edge3_Node000001_Node000004"><a xlink:title=" ">
<path fill="none" stroke="#63b8ff" d="M410.66,-33.72C402.49,-32.41 393.83,-31.03 385.08,-29.63"/>
<polygon fill="#63b8ff" stroke="#63b8ff" points="410.3,-37.2 420.72,-35.33 411.4,-30.29 410.3,-37.2"/>
</a>
</g>
</g>
<!-- Node3 -->
<g id="Node000003" class="node">
<title>Node3</title>
<g id="a_Node000003"><a xlink:href="classbuiltin_1_1CasADiControlProblem.html#aec943d4cc9c1bbfc4d4b7244f9390d08" target="_top" xlink:title=" ">
<polygon fill="white" stroke="#666666" points="164,-84 0,-84 0,-54 164,-54 164,-84"/>
<text text-anchor="start" x="8" y="-72" font-family="Helvetica,sans-Serif" font-size="10.00">builtin::CasADiControlProblem</text>
<text text-anchor="middle" x="82" y="-61" font-family="Helvetica,sans-Serif" font-size="10.00">::CasADiControlProblem</text>
</a>
</g>
</g>
<!-- Node2&#45;&gt;Node3 -->
<g id="edge2_Node000002_Node000003" class="edge">
<title>Node2&#45;&gt;Node3</title>
<g id="a_edge2_Node000002_Node000003"><a xlink:title=" ">
<path fill="none" stroke="#63b8ff" d="M201.22,-69C188.9,-69 176.32,-69 164.18,-69"/>
<polygon fill="#63b8ff" stroke="#63b8ff" points="201.48,-72.5 211.48,-69 201.48,-65.5 201.48,-72.5"/>
</a>
</g>
</g>
</g>
</svg>
