<?xml version="1.0" encoding="UTF-8" standalone="no"?>
<!DOCTYPE svg PUBLIC "-//W3C//DTD SVG 1.1//EN"
 "http://www.w3.org/Graphics/SVG/1.1/DTD/svg11.dtd">
<!-- Generated by graphviz version 2.43.0 (0)
 -->
<!-- Title: function_wrapper_t&lt; Signature &gt; Pages: 1 -->
<svg width="112pt" height="68pt"
 viewBox="0.00 0.00 112.00 68.00" xmlns="http://www.w3.org/2000/svg" xmlns:xlink="http://www.w3.org/1999/xlink">
<g id="graph0" class="graph" transform="scale(1 1) rotate(0) translate(4 64)">
<title>function_wrapper_t&lt; Signature &gt;</title>
<!-- Node1 -->
<g id="Node000001" class="node">
<title>Node1</title>
<g id="a_Node000001"><a xlink:title="Custom type for which we can export the RTTI to support std::any across shared library boundaries whe...">
<polygon fill="#999999" stroke="transparent" points="104,-60 0,-60 0,0 104,0 104,-60"/>
<text text-anchor="start" x="5" y="-48" font-family="Helvetica,sans-Serif" font-size="10.00">function_wrapper_t</text>
<text text-anchor="start" x="17" y="-37" font-family="Helvetica,sans-Serif" font-size="10.00">&lt; Signature &gt;</text>
<text text-anchor="start" x="14.5" y="-22" font-family="Helvetica,sans-Serif" font-size="10.00">+</text>
<text text-anchor="start" x="38" y="-22" font-family="Helvetica,sans-Serif" font-size="10.00">function</text>
<text text-anchor="start" x="50" y="-7" font-family="Helvetica,sans-Serif" font-size="10.00"> </text>
<polygon fill="#666666" stroke="#666666" points="0,-32 0,-32 104,-32 104,-32 0,-32"/>
<polygon fill="#666666" stroke="#666666" points="0,-17 0,-17 36,-17 36,-17 0,-17"/>
<polygon fill="#666666" stroke="#666666" points="36,-17 36,-17 104,-17 104,-17 36,-17"/>
<polygon fill="none" stroke="#666666" points="0,0 0,-60 104,-60 104,0 0,0"/>
</a>
</g>
</g>
</g>
</svg>
