<?xml version="1.0" encoding="UTF-8" standalone="no"?>
<!DOCTYPE svg PUBLIC "-//W3C//DTD SVG 1.1//EN"
 "http://www.w3.org/Graphics/SVG/1.1/DTD/svg11.dtd">
<!-- Generated by graphviz version 2.43.0 (0)
 -->
<!-- Title: load Pages: 1 -->
<svg width="560pt" height="187pt"
 viewBox="0.00 0.00 560.00 187.00" xmlns="http://www.w3.org/2000/svg" xmlns:xlink="http://www.w3.org/1999/xlink">
<g id="graph0" class="graph" transform="scale(1 1) rotate(0) translate(4 183)">
<title>load</title>
<!-- Node1 -->
<g id="Node000001" class="node">
<title>Node1</title>
<g id="a_Node000001"><a xlink:title=" ">
<polygon fill="#999999" stroke="#666666" points="38,-96 0,-96 0,-77 38,-77 38,-96"/>
<text text-anchor="middle" x="19" y="-84" font-family="Helvetica,sans-Serif" font-size="10.00">load</text>
</a>
</g>
</g>
<!-- Node2 -->
<g id="Node000002" class="node">
<title>Node2</title>
<g id="a_Node000002"><a xlink:href="namespacebuiltin.html#a440de48c7f739b4216916e2aba75b266" target="_top" xlink:title=" ">
<polygon fill="white" stroke="#666666" points="200.5,-161 123.5,-161 123.5,-142 200.5,-142 200.5,-161"/>
<text text-anchor="middle" x="162" y="-149" font-family="Helvetica,sans-Serif" font-size="10.00">builtin::dims</text>
</a>
</g>
</g>
<!-- Node1&#45;&gt;Node2 -->
<g id="edge1_Node000001_Node000002" class="edge">
<title>Node1&#45;&gt;Node2</title>
<g id="a_edge1_Node000001_Node000002"><a xlink:title=" ">
<path fill="none" stroke="#63b8ff" d="M28.54,-96.19C38.42,-106.77 55.68,-123.42 74,-132.5 86.14,-138.52 100.17,-142.64 113.37,-145.47"/>
<polygon fill="#63b8ff" stroke="#63b8ff" points="112.77,-148.92 123.25,-147.38 114.1,-142.04 112.77,-148.92"/>
</a>
</g>
</g>
<!-- Node3 -->
<g id="Node000003" class="node">
<title>Node3</title>
<g id="a_Node000003"><a xlink:href="classbuiltin_1_1CasADiFunctionEvaluator.html#ac82a9153f840c8894aee66550ccc72a4" target="_top" xlink:title=" ">
<polygon fill="white" stroke="#666666" points="250,-123.5 74,-123.5 74,-93.5 250,-93.5 250,-123.5"/>
<text text-anchor="start" x="82" y="-111.5" font-family="Helvetica,sans-Serif" font-size="10.00">builtin::CasADiFunctionEvaluator</text>
<text text-anchor="middle" x="162" y="-100.5" font-family="Helvetica,sans-Serif" font-size="10.00">::validate_dimensions</text>
</a>
</g>
</g>
<!-- Node1&#45;&gt;Node3 -->
<g id="edge3_Node000001_Node000003" class="edge">
<title>Node1&#45;&gt;Node3</title>
<g id="a_edge3_Node000001_Node000003"><a xlink:title=" ">
<path fill="none" stroke="#63b8ff" d="M38.14,-89.33C45.27,-90.44 54.02,-91.81 63.55,-93.29"/>
<polygon fill="#63b8ff" stroke="#63b8ff" points="63.3,-96.8 73.72,-94.88 64.38,-89.88 63.3,-96.8"/>
</a>
</g>
</g>
<!-- Node4 -->
<g id="Node000004" class="node">
<title>Node4</title>
<g id="a_Node000004"><a xlink:href="namespacebuiltin.html#aff26ceb374addcf6ae66ee1e4658fcff" target="_top" xlink:title=" ">
<polygon fill="white" stroke="#666666" points="390,-47 286,-47 286,-28 390,-28 390,-47"/>
<text text-anchor="middle" x="338" y="-35" font-family="Helvetica,sans-Serif" font-size="10.00">builtin::wrap_load</text>
</a>
</g>
</g>
<!-- Node1&#45;&gt;Node4 -->
<g id="edge4_Node000001_Node000004" class="edge">
<title>Node1&#45;&gt;Node4</title>
<g id="a_edge4_Node000001_Node000004"><a xlink:title=" ">
<path fill="none" stroke="#63b8ff" d="M38.41,-83.65C83.78,-76.64 202.58,-58.28 275.92,-46.94"/>
<polygon fill="#63b8ff" stroke="#63b8ff" points="276.61,-50.38 285.96,-45.39 275.54,-43.46 276.61,-50.38"/>
</a>
</g>
</g>
<!-- Node6 -->
<g id="Node000006" class="node">
<title>Node6</title>
<g id="a_Node000006"><a xlink:href="namespacebuiltin.html#a001ff3b26defa1201f68a339a2c5d768" target="_top" xlink:title=" ">
<polygon fill="white" stroke="#666666" points="223,-19 101,-19 101,0 223,0 223,-19"/>
<text text-anchor="middle" x="162" y="-7" font-family="Helvetica,sans-Serif" font-size="10.00">builtin::wrapped_load</text>
</a>
</g>
</g>
<!-- Node1&#45;&gt;Node6 -->
<g id="edge7_Node000001_Node000006" class="edge">
<title>Node1&#45;&gt;Node6</title>
<g id="a_edge7_Node000001_Node000006"><a xlink:title=" ">
<path fill="none" stroke="#63b8ff" d="M33.91,-76.79C44.65,-69.48 59.98,-59.39 74,-51.5 92.09,-41.33 113.01,-31.18 129.8,-23.4"/>
<polygon fill="#63b8ff" stroke="#63b8ff" points="131.53,-26.46 139.16,-19.12 128.61,-20.1 131.53,-26.46"/>
</a>
</g>
</g>
<!-- Node2&#45;&gt;Node2 -->
<g id="edge2_Node000002_Node000002" class="edge">
<title>Node2&#45;&gt;Node2</title>
<g id="a_edge2_Node000002_Node000002"><a xlink:title=" ">
<path fill="none" stroke="#63b8ff" d="M140.11,-161.08C129.47,-169.73 136.76,-179 162,-179 178.17,-179 186.97,-175.2 188.41,-170.19"/>
<polygon fill="#63b8ff" stroke="#63b8ff" points="191.47,-168.48 183.89,-161.08 185.2,-171.6 191.47,-168.48"/>
</a>
</g>
</g>
<!-- Node4&#45;&gt;Node4 -->
<g id="edge6_Node000004_Node000004" class="edge">
<title>Node4&#45;&gt;Node4</title>
<g id="a_edge6_Node000004_Node000004"><a xlink:title=" ">
<path fill="none" stroke="#63b8ff" d="M314.88,-47.08C303.63,-55.73 311.34,-65 338,-65 355.5,-65 364.83,-61.01 366,-55.82"/>
<polygon fill="#63b8ff" stroke="#63b8ff" points="369.05,-54.11 361.12,-47.08 362.94,-57.52 369.05,-54.11"/>
</a>
</g>
</g>
<!-- Node5 -->
<g id="Node000005" class="node">
<title>Node5</title>
<g id="a_Node000005"><a xlink:href="demangled-typename_8cpp.html#a994032931a27ca4de5eea3f786057b17" target="_top" xlink:title="Get the pretty name of the given type as a string.">
<polygon fill="white" stroke="#666666" points="552,-47 426,-47 426,-28 552,-28 552,-47"/>
<text text-anchor="middle" x="489" y="-35" font-family="Helvetica,sans-Serif" font-size="10.00">demangled_typename</text>
</a>
</g>
</g>
<!-- Node4&#45;&gt;Node5 -->
<g id="edge5_Node000004_Node000005" class="edge">
<title>Node4&#45;&gt;Node5</title>
<g id="a_edge5_Node000004_Node000005"><a xlink:title=" ">
<path fill="none" stroke="#63b8ff" d="M390.28,-37.5C398.51,-37.5 407.15,-37.5 415.76,-37.5"/>
<polygon fill="#63b8ff" stroke="#63b8ff" points="415.82,-41 425.82,-37.5 415.82,-34 415.82,-41"/>
</a>
</g>
</g>
<!-- Node6&#45;&gt;Node4 -->
<g id="edge8_Node000006_Node000004" class="edge">
<title>Node6&#45;&gt;Node4</title>
<g id="a_edge8_Node000006_Node000004"><a xlink:title=" ">
<path fill="none" stroke="#63b8ff" d="M222.39,-19.06C239.68,-21.84 258.58,-24.88 275.96,-27.68"/>
<polygon fill="#63b8ff" stroke="#63b8ff" points="275.57,-31.16 286,-29.29 276.68,-24.25 275.57,-31.16"/>
</a>
</g>
</g>
<!-- Node6&#45;&gt;Node6 -->
<g id="edge9_Node000006_Node000006" class="edge">
<title>Node6&#45;&gt;Node6</title>
<g id="a_edge9_Node000006_Node000006"><a xlink:title=" ">
<path fill="none" stroke="#63b8ff" d="M140.11,-19.08C129.47,-27.73 136.76,-37 162,-37 178.17,-37 186.97,-33.2 188.41,-28.19"/>
<polygon fill="#63b8ff" stroke="#63b8ff" points="191.47,-26.48 183.89,-19.08 185.2,-29.6 191.47,-26.48"/>
</a>
</g>
</g>
</g>
</svg>
