<?xml version="1.0" encoding="UTF-8" standalone="no"?>
<!DOCTYPE svg PUBLIC "-//W3C//DTD SVG 1.1//EN"
 "http://www.w3.org/Graphics/SVG/1.1/DTD/svg11.dtd">
<!-- Generated by graphviz version 2.43.0 (0)
 -->
<!-- Title: LBFGS Pages: 1 -->
<svg width="160pt" height="446pt"
 viewBox="0.00 0.00 160.00 446.00" xmlns="http://www.w3.org/2000/svg" xmlns:xlink="http://www.w3.org/1999/xlink">
<g id="graph0" class="graph" transform="scale(1 1) rotate(0) translate(4 442)">
<title>LBFGS</title>
<polygon fill="white" stroke="transparent" points="-4,4 -4,-442 156,-442 156,4 -4,4"/>
<!-- Node1 -->
<g id="node1" class="node">
<title>Node1</title>
<g id="a_node1"><a xlink:title="Limited memory Broyden–Fletcher–Goldfarb–Shanno (L&#45;BFGS) algorithm.">
<polygon fill="#bfbfbf" stroke="black" points="27,-0.5 27,-310.5 125,-310.5 125,-0.5 27,-0.5"/>
<text text-anchor="middle" x="76" y="-298.5" font-family="Helvetica,sans-Serif" font-size="10.00">LBFGS</text>
<polyline fill="none" stroke="black" points="27,-291.5 125,-291.5 "/>
<text text-anchor="start" x="35" y="-279.5" font-family="Helvetica,sans-Serif" font-size="10.00">&#45; sto</text>
<text text-anchor="start" x="35" y="-268.5" font-family="Helvetica,sans-Serif" font-size="10.00">&#45; idx</text>
<text text-anchor="start" x="35" y="-257.5" font-family="Helvetica,sans-Serif" font-size="10.00">&#45; full</text>
<polyline fill="none" stroke="black" points="27,-250.5 125,-250.5 "/>
<text text-anchor="start" x="35" y="-238.5" font-family="Helvetica,sans-Serif" font-size="10.00">+ LBFGS()</text>
<text text-anchor="start" x="35" y="-227.5" font-family="Helvetica,sans-Serif" font-size="10.00">+ LBFGS()</text>
<text text-anchor="start" x="35" y="-216.5" font-family="Helvetica,sans-Serif" font-size="10.00">+ update()</text>
<text text-anchor="start" x="35" y="-205.5" font-family="Helvetica,sans-Serif" font-size="10.00">+ apply()</text>
<text text-anchor="start" x="35" y="-194.5" font-family="Helvetica,sans-Serif" font-size="10.00">+ apply()</text>
<text text-anchor="start" x="35" y="-183.5" font-family="Helvetica,sans-Serif" font-size="10.00">+ reset()</text>
<text text-anchor="start" x="35" y="-172.5" font-family="Helvetica,sans-Serif" font-size="10.00">+ resize()</text>
<text text-anchor="start" x="35" y="-161.5" font-family="Helvetica,sans-Serif" font-size="10.00">+ scale_y()</text>
<text text-anchor="start" x="35" y="-150.5" font-family="Helvetica,sans-Serif" font-size="10.00">+ get_name()</text>
<text text-anchor="start" x="35" y="-139.5" font-family="Helvetica,sans-Serif" font-size="10.00">+ get_params()</text>
<text text-anchor="start" x="35" y="-128.5" font-family="Helvetica,sans-Serif" font-size="10.00">+ n()</text>
<text text-anchor="start" x="35" y="-117.5" font-family="Helvetica,sans-Serif" font-size="10.00">+ history()</text>
<text text-anchor="start" x="35" y="-106.5" font-family="Helvetica,sans-Serif" font-size="10.00">+ succ()</text>
<text text-anchor="start" x="35" y="-95.5" font-family="Helvetica,sans-Serif" font-size="10.00">+ s()</text>
<text text-anchor="start" x="35" y="-84.5" font-family="Helvetica,sans-Serif" font-size="10.00">+ s()</text>
<text text-anchor="start" x="35" y="-73.5" font-family="Helvetica,sans-Serif" font-size="10.00">+ y()</text>
<text text-anchor="start" x="35" y="-62.5" font-family="Helvetica,sans-Serif" font-size="10.00">+ y()</text>
<text text-anchor="start" x="35" y="-51.5" font-family="Helvetica,sans-Serif" font-size="10.00">+ ρ()</text>
<text text-anchor="start" x="35" y="-40.5" font-family="Helvetica,sans-Serif" font-size="10.00">+ ρ()</text>
<text text-anchor="start" x="35" y="-29.5" font-family="Helvetica,sans-Serif" font-size="10.00">+ α()</text>
<text text-anchor="start" x="35" y="-18.5" font-family="Helvetica,sans-Serif" font-size="10.00">+ α()</text>
<text text-anchor="start" x="35" y="-7.5" font-family="Helvetica,sans-Serif" font-size="10.00">+ update_valid()</text>
</a>
</g>
</g>
<!-- Node2 -->
<g id="node2" class="node">
<title>Node2</title>
<g id="a_node2"><a xlink:href="namespacealpaqa.html#structalpaqa_1_1LBFGSParams" target="_top" xlink:title="Parameters for the LBFGS and SpecializedLBFGS classes.">
<polygon fill="white" stroke="black" points="0,-358.5 0,-437.5 152,-437.5 152,-358.5 0,-358.5"/>
<text text-anchor="middle" x="76" y="-425.5" font-family="Helvetica,sans-Serif" font-size="10.00">LBFGSParams</text>
<polyline fill="none" stroke="black" points="0,-418.5 152,-418.5 "/>
<text text-anchor="start" x="8" y="-406.5" font-family="Helvetica,sans-Serif" font-size="10.00">+ memory</text>
<text text-anchor="start" x="8" y="-395.5" font-family="Helvetica,sans-Serif" font-size="10.00">+ cbfgs</text>
<text text-anchor="start" x="8" y="-384.5" font-family="Helvetica,sans-Serif" font-size="10.00">+ rescale_when_γ_changes</text>
<polyline fill="none" stroke="black" points="0,-377.5 152,-377.5 "/>
<text text-anchor="middle" x="76" y="-365.5" font-family="Helvetica,sans-Serif" font-size="10.00"> </text>
</a>
</g>
</g>
<!-- Node2&#45;&gt;Node1 -->
<g id="edge1" class="edge">
<title>Node2&#45;&gt;Node1</title>
<path fill="none" stroke="#404040" d="M76,-358.36C76,-347.84 76,-335.74 76,-322.8"/>
<polygon fill="none" stroke="#404040" points="76,-322.7 72,-316.7 76,-310.7 80,-316.7 76,-322.7"/>
<text text-anchor="middle" x="98" y="-332" font-family="Helvetica,sans-Serif" font-size="10.00"> &#45;params</text>
</g>
</g>
</svg>
