<?xml version="1.0" encoding="UTF-8" standalone="no"?>
<!DOCTYPE svg PUBLIC "-//W3C//DTD SVG 1.1//EN"
 "http://www.w3.org/Graphics/SVG/1.1/DTD/svg11.dtd">
<!-- Generated by graphviz version 2.43.0 (0)
 -->
<!-- Title: Presentation Pages: 1 -->
<svg width="278pt" height="159pt"
 viewBox="0.00 0.00 278.00 159.00" xmlns="http://www.w3.org/2000/svg" xmlns:xlink="http://www.w3.org/1999/xlink">
<g id="graph0" class="graph" transform="scale(1 1) rotate(0) translate(4 155)">
<title>Presentation</title>
<polygon fill="white" stroke="transparent" points="-4,4 -4,-155 274,-155 274,4 -4,4"/>
<g id="clust1" class="cluster">
<title>clusterdir_d28a4824dc47e487b107a5db32ef43c4</title>
<g id="a_clust1"><a xlink:href="dir_d28a4824dc47e487b107a5db32ef43c4.html" target="_top" xlink:title="examples">
<polygon fill="#ddddee" stroke="black" points="8,-56 8,-143 262,-143 262,-56 8,-56"/>
<text text-anchor="middle" x="135" y="-131" font-family="Helvetica,sans-Serif" font-size="10.00">examples</text>
</a>
</g>
</g>
<g id="clust2" class="cluster">
<title>clusterdir_1fd8892362710afd0ff1312ff0845237</title>
<g id="a_clust2"><a xlink:href="dir_1fd8892362710afd0ff1312ff0845237.html" target="_top">
<polygon fill="#eeeeff" stroke="black" points="16,-64 16,-116 254,-116 254,-64 16,-64"/>
</a>
</g>
</g>
<!-- dir_1fd8892362710afd0ff1312ff0845237 -->
<g id="node1" class="node">
<title>dir_1fd8892362710afd0ff1312ff0845237</title>
<text text-anchor="middle" x="207" y="-87.5" font-family="Helvetica,sans-Serif" font-size="10.00">Presentation</text>
</g>
<!-- dir_2c0969b615ffb11bbb22365e8f90b47c -->
<g id="node2" class="node">
<title>dir_2c0969b615ffb11bbb22365e8f90b47c</title>
<g id="a_node2"><a xlink:href="dir_2c0969b615ffb11bbb22365e8f90b47c.html" target="_top" xlink:title="Cpp">
<polygon fill="white" stroke="black" points="150,-108 96,-108 96,-72 150,-72 150,-108"/>
<text text-anchor="middle" x="123" y="-87.5" font-family="Helvetica,sans-Serif" font-size="10.00">Cpp</text>
</a>
</g>
</g>
<!-- dir_68267d1309a1af8e8297ef4c3efbcdba -->
<g id="node4" class="node">
<title>dir_68267d1309a1af8e8297ef4c3efbcdba</title>
<g id="a_node4"><a xlink:href="dir_68267d1309a1af8e8297ef4c3efbcdba.html" target="_top" xlink:title="src">
<polygon fill="white" stroke="red" points="150,-36 96,-36 96,0 150,0 150,-36"/>
<text text-anchor="middle" x="123" y="-15.5" font-family="Helvetica,sans-Serif" font-size="10.00">src</text>
</a>
</g>
</g>
<!-- dir_2c0969b615ffb11bbb22365e8f90b47c&#45;&gt;dir_68267d1309a1af8e8297ef4c3efbcdba -->
<g id="edge1" class="edge">
<title>dir_2c0969b615ffb11bbb22365e8f90b47c&#45;&gt;dir_68267d1309a1af8e8297ef4c3efbcdba</title>
<path fill="none" stroke="black" d="M123,-71.7C123,-63.98 123,-54.71 123,-46.11"/>
<polygon fill="black" stroke="black" points="126.5,-46.1 123,-36.1 119.5,-46.1 126.5,-46.1"/>
<g id="a_edge1&#45;headlabel"><a xlink:href="dir_000011_000015.html" target="_top" xlink:title="3">
<text text-anchor="middle" x="129.34" y="-47.2" font-family="Helvetica,sans-Serif" font-size="10.00">3</text>
</a>
</g>
</g>
<!-- dir_e9506192fe77640d7787736bce7137b5 -->
<g id="node3" class="node">
<title>dir_e9506192fe77640d7787736bce7137b5</title>
<g id="a_node3"><a xlink:href="dir_e9506192fe77640d7787736bce7137b5.html" target="_top" xlink:title="Python">
<polygon fill="white" stroke="black" points="78,-108 24,-108 24,-72 78,-72 78,-108"/>
<text text-anchor="middle" x="51" y="-87.5" font-family="Helvetica,sans-Serif" font-size="10.00">Python</text>
</a>
</g>
</g>
</g>
</svg>
