<?xml version="1.0" encoding="UTF-8" standalone="no"?>
<!DOCTYPE svg PUBLIC "-//W3C//DTD SVG 1.1//EN"
 "http://www.w3.org/Graphics/SVG/1.1/DTD/svg11.dtd">
<!-- Generated by graphviz version 2.43.0 (0)
 -->
<!-- Title: pga.hpp Pages: 1 -->
<svg width="1059pt" height="330pt"
 viewBox="0.00 0.00 1058.50 330.00" xmlns="http://www.w3.org/2000/svg" xmlns:xlink="http://www.w3.org/1999/xlink">
<g id="graph0" class="graph" transform="scale(1 1) rotate(0) translate(4 326)">
<title>pga.hpp</title>
<polygon fill="white" stroke="transparent" points="-4,4 -4,-326 1054.5,-326 1054.5,4 -4,4"/>
<!-- Node1 -->
<g id="node1" class="node">
<title>Node1</title>
<g id="a_node1"><a xlink:title=" ">
<polygon fill="#bfbfbf" stroke="black" points="636.5,-302.5 636.5,-321.5 692.5,-321.5 692.5,-302.5 636.5,-302.5"/>
<text text-anchor="middle" x="664.5" y="-309.5" font-family="Helvetica,sans-Serif" font-size="10.00">pga.hpp</text>
</a>
</g>
</g>
<!-- Node2 -->
<g id="node2" class="node">
<title>Node2</title>
<g id="a_node2"><a xlink:href="panoc-stop-crit_8hpp.html" target="_top" xlink:title=" ">
<polygon fill="white" stroke="black" points="190,-168.5 190,-198.5 323,-198.5 323,-168.5 190,-168.5"/>
<text text-anchor="start" x="198" y="-186.5" font-family="Helvetica,sans-Serif" font-size="10.00">alpaqa/inner/decl/panoc</text>
<text text-anchor="middle" x="256.5" y="-175.5" font-family="Helvetica,sans-Serif" font-size="10.00">&#45;stop&#45;crit.hpp</text>
</a>
</g>
</g>
<!-- Node1&#45;&gt;Node2 -->
<g id="edge1" class="edge">
<title>Node1&#45;&gt;Node2</title>
<path fill="none" stroke="midnightblue" d="M636.27,-309.59C586.47,-306.39 480.36,-296.31 396.5,-266 354.73,-250.91 311.22,-223.42 284.01,-204.58"/>
<polygon fill="midnightblue" stroke="midnightblue" points="285.97,-201.68 275.78,-198.79 281.95,-207.4 285.97,-201.68"/>
</g>
<!-- Node4 -->
<g id="node4" class="node">
<title>Node4</title>
<g id="a_node4"><a xlink:title=" ">
<polygon fill="white" stroke="#bfbfbf" points="223,-112.5 223,-131.5 288,-131.5 288,-112.5 223,-112.5"/>
<text text-anchor="middle" x="255.5" y="-119.5" font-family="Helvetica,sans-Serif" font-size="10.00">stdexcept</text>
</a>
</g>
</g>
<!-- Node1&#45;&gt;Node4 -->
<g id="edge29" class="edge">
<title>Node1&#45;&gt;Node4</title>
<path fill="none" stroke="midnightblue" d="M636.45,-309.38C540.88,-303.18 231.09,-277.21 180.5,-199 173.02,-187.43 173.71,-179.99 180.5,-168 188.85,-153.26 204.16,-142.82 218.79,-135.73"/>
<polygon fill="midnightblue" stroke="midnightblue" points="220.5,-138.8 228.22,-131.55 217.66,-132.4 220.5,-138.8"/>
</g>
<!-- Node5 -->
<g id="node5" class="node">
<title>Node5</title>
<g id="a_node5"><a xlink:href="panoc-helpers_8hpp.html" target="_top" xlink:title=" ">
<polygon fill="white" stroke="black" points="405.5,-235.5 405.5,-265.5 515.5,-265.5 515.5,-235.5 405.5,-235.5"/>
<text text-anchor="start" x="413.5" y="-253.5" font-family="Helvetica,sans-Serif" font-size="10.00">alpaqa/inner/detail</text>
<text text-anchor="middle" x="460.5" y="-242.5" font-family="Helvetica,sans-Serif" font-size="10.00">/panoc&#45;helpers.hpp</text>
</a>
</g>
</g>
<!-- Node1&#45;&gt;Node5 -->
<g id="edge4" class="edge">
<title>Node1&#45;&gt;Node5</title>
<path fill="none" stroke="midnightblue" d="M636.13,-302.73C605.88,-293.9 557.13,-279.68 518.66,-268.46"/>
<polygon fill="midnightblue" stroke="midnightblue" points="519.19,-264.97 508.61,-265.53 517.23,-271.69 519.19,-264.97"/>
</g>
<!-- Node6 -->
<g id="node6" class="node">
<title>Node6</title>
<g id="a_node6"><a xlink:href="atomic__stop__signal_8hpp.html" target="_top" xlink:title=" ">
<polygon fill="white" stroke="black" points="380,-168.5 380,-198.5 485,-198.5 485,-168.5 380,-168.5"/>
<text text-anchor="start" x="388" y="-186.5" font-family="Helvetica,sans-Serif" font-size="10.00">alpaqa/util/atomic</text>
<text text-anchor="middle" x="432.5" y="-175.5" font-family="Helvetica,sans-Serif" font-size="10.00">_stop_signal.hpp</text>
</a>
</g>
</g>
<!-- Node1&#45;&gt;Node6 -->
<g id="edge20" class="edge">
<title>Node1&#45;&gt;Node6</title>
<path fill="none" stroke="midnightblue" d="M648.55,-302.31C611.45,-282.07 518.61,-231.45 467.54,-203.6"/>
<polygon fill="midnightblue" stroke="midnightblue" points="468.97,-200.4 458.51,-198.68 465.61,-206.54 468.97,-200.4"/>
</g>
<!-- Node12 -->
<g id="node12" class="node">
<title>Node12</title>
<g id="a_node12"><a xlink:title=" ">
<polygon fill="white" stroke="#bfbfbf" points="696.5,-112.5 696.5,-131.5 748.5,-131.5 748.5,-112.5 696.5,-112.5"/>
<text text-anchor="middle" x="722.5" y="-119.5" font-family="Helvetica,sans-Serif" font-size="10.00">cassert</text>
</a>
</g>
</g>
<!-- Node1&#45;&gt;Node12 -->
<g id="edge24" class="edge">
<title>Node1&#45;&gt;Node12</title>
<path fill="none" stroke="midnightblue" d="M663.98,-302.48C662.93,-279.59 662.21,-215.27 683.5,-168 688.47,-156.97 697.04,-146.62 704.88,-138.64"/>
<polygon fill="midnightblue" stroke="midnightblue" points="707.53,-140.95 712.33,-131.5 702.69,-135.9 707.53,-140.95"/>
</g>
<!-- Node13 -->
<g id="node13" class="node">
<title>Node13</title>
<g id="a_node13"><a xlink:title=" ">
<polygon fill="white" stroke="#bfbfbf" points="766.5,-112.5 766.5,-131.5 816.5,-131.5 816.5,-112.5 766.5,-112.5"/>
<text text-anchor="middle" x="791.5" y="-119.5" font-family="Helvetica,sans-Serif" font-size="10.00">chrono</text>
</a>
</g>
</g>
<!-- Node1&#45;&gt;Node13 -->
<g id="edge25" class="edge">
<title>Node1&#45;&gt;Node13</title>
<path fill="none" stroke="midnightblue" d="M692.7,-303.88C736.32,-291.16 818.76,-259.98 853.5,-199 860.32,-187.03 859.76,-180.27 853.5,-168 846.5,-154.27 833.13,-143.75 820.6,-136.35"/>
<polygon fill="midnightblue" stroke="midnightblue" points="822.18,-133.22 811.72,-131.51 818.83,-139.37 822.18,-133.22"/>
</g>
<!-- Node17 -->
<g id="node17" class="node">
<title>Node17</title>
<g id="a_node17"><a xlink:href="solverstatus_8hpp.html" target="_top" xlink:title=" ">
<polygon fill="white" stroke="black" points="692.5,-174 692.5,-193 844.5,-193 844.5,-174 692.5,-174"/>
<text text-anchor="middle" x="768.5" y="-181" font-family="Helvetica,sans-Serif" font-size="10.00">alpaqa/util/solverstatus.hpp</text>
</a>
</g>
</g>
<!-- Node1&#45;&gt;Node17 -->
<g id="edge23" class="edge">
<title>Node1&#45;&gt;Node17</title>
<path fill="none" stroke="midnightblue" d="M671.65,-302.31C688.79,-281.45 732.48,-228.31 754.85,-201.11"/>
<polygon fill="midnightblue" stroke="midnightblue" points="757.65,-203.2 761.3,-193.26 752.25,-198.76 757.65,-203.2"/>
</g>
<!-- Node19 -->
<g id="node19" class="node">
<title>Node19</title>
<g id="a_node19"><a xlink:href="lipschitz_8hpp.html" target="_top" xlink:title=" ">
<polygon fill="white" stroke="black" points="0,-174 0,-193 133,-193 133,-174 0,-174"/>
<text text-anchor="middle" x="66.5" y="-181" font-family="Helvetica,sans-Serif" font-size="10.00">alpaqa/util/lipschitz.hpp</text>
</a>
</g>
</g>
<!-- Node1&#45;&gt;Node19 -->
<g id="edge21" class="edge">
<title>Node1&#45;&gt;Node19</title>
<path fill="none" stroke="midnightblue" d="M636.38,-311.07C541.68,-310.91 235.43,-307.14 147.5,-266 117.07,-251.76 91.61,-220.98 77.76,-201.58"/>
<polygon fill="midnightblue" stroke="midnightblue" points="80.48,-199.35 71.93,-193.1 74.71,-203.32 80.48,-199.35"/>
</g>
<!-- Node20 -->
<g id="node20" class="node">
<title>Node20</title>
<g id="a_node20"><a xlink:title=" ">
<polygon fill="white" stroke="#bfbfbf" points="851,-241 851,-260 898,-260 898,-241 851,-241"/>
<text text-anchor="middle" x="874.5" y="-248" font-family="Helvetica,sans-Serif" font-size="10.00">cmath</text>
</a>
</g>
</g>
<!-- Node1&#45;&gt;Node20 -->
<g id="edge26" class="edge">
<title>Node1&#45;&gt;Node20</title>
<path fill="none" stroke="midnightblue" d="M692.77,-304.6C727.08,-296.61 786.53,-282.02 836.5,-266 838.91,-265.23 841.39,-264.39 843.88,-263.51"/>
<polygon fill="midnightblue" stroke="midnightblue" points="845.16,-266.77 853.34,-260.04 842.75,-260.2 845.16,-266.77"/>
</g>
<!-- Node21 -->
<g id="node21" class="node">
<title>Node21</title>
<g id="a_node21"><a xlink:title=" ">
<polygon fill="white" stroke="#bfbfbf" points="916.5,-241 916.5,-260 972.5,-260 972.5,-241 916.5,-241"/>
<text text-anchor="middle" x="944.5" y="-248" font-family="Helvetica,sans-Serif" font-size="10.00">iomanip</text>
</a>
</g>
</g>
<!-- Node1&#45;&gt;Node21 -->
<g id="edge27" class="edge">
<title>Node1&#45;&gt;Node21</title>
<path fill="none" stroke="midnightblue" d="M692.83,-307.43C738.41,-301.3 830.6,-287.35 906.5,-266 909.15,-265.25 911.87,-264.4 914.58,-263.49"/>
<polygon fill="midnightblue" stroke="midnightblue" points="916,-266.7 924.22,-260.02 913.62,-260.11 916,-266.7"/>
</g>
<!-- Node22 -->
<g id="node22" class="node">
<title>Node22</title>
<g id="a_node22"><a xlink:title=" ">
<polygon fill="white" stroke="#bfbfbf" points="990.5,-241 990.5,-260 1050.5,-260 1050.5,-241 990.5,-241"/>
<text text-anchor="middle" x="1020.5" y="-248" font-family="Helvetica,sans-Serif" font-size="10.00">iostream</text>
</a>
</g>
</g>
<!-- Node1&#45;&gt;Node22 -->
<g id="edge28" class="edge">
<title>Node1&#45;&gt;Node22</title>
<path fill="none" stroke="midnightblue" d="M692.88,-309.03C748.82,-304.69 876.97,-292.52 981.5,-266 984.48,-265.24 987.56,-264.34 990.6,-263.35"/>
<polygon fill="midnightblue" stroke="midnightblue" points="991.84,-266.63 1000.12,-260.02 989.52,-260.02 991.84,-266.63"/>
</g>
<!-- Node3 -->
<g id="node3" class="node">
<title>Node3</title>
<g id="a_node3"><a xlink:title=" ">
<polygon fill="white" stroke="#bfbfbf" points="148,-112.5 148,-131.5 205,-131.5 205,-112.5 148,-112.5"/>
<text text-anchor="middle" x="176.5" y="-119.5" font-family="Helvetica,sans-Serif" font-size="10.00">ostream</text>
</a>
</g>
</g>
<!-- Node2&#45;&gt;Node3 -->
<g id="edge2" class="edge">
<title>Node2&#45;&gt;Node3</title>
<path fill="none" stroke="midnightblue" d="M237.54,-168.4C225.08,-159.13 208.8,-147.03 196.19,-137.65"/>
<polygon fill="midnightblue" stroke="midnightblue" points="198.25,-134.82 188.14,-131.66 194.08,-140.43 198.25,-134.82"/>
</g>
<!-- Node2&#45;&gt;Node4 -->
<g id="edge3" class="edge">
<title>Node2&#45;&gt;Node4</title>
<path fill="none" stroke="midnightblue" d="M256.26,-168.4C256.13,-160.47 255.96,-150.46 255.82,-141.86"/>
<polygon fill="midnightblue" stroke="midnightblue" points="259.31,-141.6 255.65,-131.66 252.31,-141.72 259.31,-141.6"/>
</g>
<!-- Node5&#45;&gt;Node2 -->
<g id="edge5" class="edge">
<title>Node5&#45;&gt;Node2</title>
<path fill="none" stroke="midnightblue" d="M416.49,-235.48C385.36,-225.56 343.44,-212.2 310.32,-201.65"/>
<polygon fill="midnightblue" stroke="midnightblue" points="311.38,-198.31 300.79,-198.61 309.25,-204.98 311.38,-198.31"/>
</g>
<!-- Node5&#45;&gt;Node4 -->
<g id="edge19" class="edge">
<title>Node5&#45;&gt;Node4</title>
<path fill="none" stroke="midnightblue" d="M432.64,-235.36C414.51,-225.79 390.58,-212.49 370.5,-199 352.12,-186.65 349.74,-180.56 331.5,-168 314.87,-156.55 295.24,-144.97 280.1,-136.43"/>
<polygon fill="midnightblue" stroke="midnightblue" points="281.75,-133.34 271.32,-131.53 278.34,-139.46 281.75,-133.34"/>
</g>
<!-- Node5&#45;&gt;Node6 -->
<g id="edge6" class="edge">
<title>Node5&#45;&gt;Node6</title>
<path fill="none" stroke="midnightblue" d="M454.42,-235.4C450.98,-227.39 446.57,-217.16 442.61,-207.98"/>
<polygon fill="midnightblue" stroke="midnightblue" points="445.73,-206.38 438.56,-198.58 439.31,-209.15 445.73,-206.38"/>
</g>
<!-- Node8 -->
<g id="node8" class="node">
<title>Node8</title>
<g id="a_node8"><a xlink:href="include_2alpaqa_2util_2problem_8hpp.html" target="_top" xlink:title=" ">
<polygon fill="white" stroke="black" points="503,-174 503,-193 636,-193 636,-174 503,-174"/>
<text text-anchor="middle" x="569.5" y="-181" font-family="Helvetica,sans-Serif" font-size="10.00">alpaqa/util/problem.hpp</text>
</a>
</g>
</g>
<!-- Node5&#45;&gt;Node8 -->
<g id="edge8" class="edge">
<title>Node5&#45;&gt;Node8</title>
<path fill="none" stroke="midnightblue" d="M484.15,-235.4C502.68,-224.34 528.31,-209.06 546.64,-198.13"/>
<polygon fill="midnightblue" stroke="midnightblue" points="548.44,-201.13 555.23,-193.01 544.85,-195.12 548.44,-201.13"/>
</g>
<!-- Node5&#45;&gt;Node17 -->
<g id="edge17" class="edge">
<title>Node5&#45;&gt;Node17</title>
<path fill="none" stroke="midnightblue" d="M515.56,-237.88C573.07,-225.74 662.48,-206.87 718.15,-195.12"/>
<polygon fill="midnightblue" stroke="midnightblue" points="719.08,-198.51 728.14,-193.02 717.64,-191.66 719.08,-198.51"/>
</g>
<!-- Node7 -->
<g id="node7" class="node">
<title>Node7</title>
<g id="a_node7"><a xlink:title=" ">
<polygon fill="white" stroke="#bfbfbf" points="306.5,-112.5 306.5,-131.5 356.5,-131.5 356.5,-112.5 306.5,-112.5"/>
<text text-anchor="middle" x="331.5" y="-119.5" font-family="Helvetica,sans-Serif" font-size="10.00">atomic</text>
</a>
</g>
</g>
<!-- Node6&#45;&gt;Node7 -->
<g id="edge7" class="edge">
<title>Node6&#45;&gt;Node7</title>
<path fill="none" stroke="midnightblue" d="M408.56,-168.4C392.37,-158.86 371.09,-146.32 355,-136.84"/>
<polygon fill="midnightblue" stroke="midnightblue" points="356.59,-133.72 346.2,-131.66 353.04,-139.75 356.59,-133.72"/>
</g>
<!-- Node9 -->
<g id="node9" class="node">
<title>Node9</title>
<g id="a_node9"><a xlink:href="box_8hpp.html" target="_top" xlink:title=" ">
<polygon fill="white" stroke="black" points="622.5,-112.5 622.5,-131.5 678.5,-131.5 678.5,-112.5 622.5,-112.5"/>
<text text-anchor="middle" x="650.5" y="-119.5" font-family="Helvetica,sans-Serif" font-size="10.00">box.hpp</text>
</a>
</g>
</g>
<!-- Node8&#45;&gt;Node9 -->
<g id="edge9" class="edge">
<title>Node8&#45;&gt;Node9</title>
<path fill="none" stroke="midnightblue" d="M581.11,-173.98C593.98,-164.52 614.97,-149.1 630.51,-137.69"/>
<polygon fill="midnightblue" stroke="midnightblue" points="632.93,-140.25 638.92,-131.51 628.78,-134.61 632.93,-140.25"/>
</g>
<!-- Node8&#45;&gt;Node12 -->
<g id="edge12" class="edge">
<title>Node8&#45;&gt;Node12</title>
<path fill="none" stroke="midnightblue" d="M591.42,-173.98C617.55,-163.81 661.41,-146.76 691.13,-135.2"/>
<polygon fill="midnightblue" stroke="midnightblue" points="692.57,-138.4 700.62,-131.51 690.03,-131.87 692.57,-138.4"/>
</g>
<!-- Node8&#45;&gt;Node13 -->
<g id="edge13" class="edge">
<title>Node8&#45;&gt;Node13</title>
<path fill="none" stroke="midnightblue" d="M601.31,-173.98C642.49,-162.94 714.01,-143.77 756.63,-132.35"/>
<polygon fill="midnightblue" stroke="midnightblue" points="757.54,-135.73 766.29,-129.76 755.73,-128.96 757.54,-135.73"/>
</g>
<!-- Node14 -->
<g id="node14" class="node">
<title>Node14</title>
<g id="a_node14"><a xlink:title=" ">
<polygon fill="white" stroke="#bfbfbf" points="375,-112.5 375,-131.5 440,-131.5 440,-112.5 375,-112.5"/>
<text text-anchor="middle" x="407.5" y="-119.5" font-family="Helvetica,sans-Serif" font-size="10.00">functional</text>
</a>
</g>
</g>
<!-- Node8&#45;&gt;Node14 -->
<g id="edge14" class="edge">
<title>Node8&#45;&gt;Node14</title>
<path fill="none" stroke="midnightblue" d="M546.29,-173.98C518.5,-163.77 471.78,-146.61 440.31,-135.05"/>
<polygon fill="midnightblue" stroke="midnightblue" points="441.26,-131.67 430.67,-131.51 438.85,-138.24 441.26,-131.67"/>
</g>
<!-- Node15 -->
<g id="node15" class="node">
<title>Node15</title>
<g id="a_node15"><a xlink:title=" ">
<polygon fill="white" stroke="#bfbfbf" points="458.5,-112.5 458.5,-131.5 516.5,-131.5 516.5,-112.5 458.5,-112.5"/>
<text text-anchor="middle" x="487.5" y="-119.5" font-family="Helvetica,sans-Serif" font-size="10.00">memory</text>
</a>
</g>
</g>
<!-- Node8&#45;&gt;Node15 -->
<g id="edge15" class="edge">
<title>Node8&#45;&gt;Node15</title>
<path fill="none" stroke="midnightblue" d="M557.75,-173.98C544.72,-164.52 523.46,-149.1 507.74,-137.69"/>
<polygon fill="midnightblue" stroke="midnightblue" points="509.38,-134.55 499.23,-131.51 505.27,-140.21 509.38,-134.55"/>
</g>
<!-- Node16 -->
<g id="node16" class="node">
<title>Node16</title>
<g id="a_node16"><a xlink:title=" ">
<polygon fill="white" stroke="#bfbfbf" points="535,-112.5 535,-131.5 604,-131.5 604,-112.5 535,-112.5"/>
<text text-anchor="middle" x="569.5" y="-119.5" font-family="Helvetica,sans-Serif" font-size="10.00">type_traits</text>
</a>
</g>
</g>
<!-- Node8&#45;&gt;Node16 -->
<g id="edge16" class="edge">
<title>Node8&#45;&gt;Node16</title>
<path fill="none" stroke="midnightblue" d="M569.5,-173.98C569.5,-165.58 569.5,-152.48 569.5,-141.66"/>
<polygon fill="midnightblue" stroke="midnightblue" points="573,-141.51 569.5,-131.51 566,-141.51 573,-141.51"/>
</g>
<!-- Node10 -->
<g id="node10" class="node">
<title>Node10</title>
<g id="a_node10"><a xlink:href="vec_8hpp.html" target="_top" xlink:title=" ">
<polygon fill="white" stroke="black" points="331,-56.5 331,-75.5 386,-75.5 386,-56.5 331,-56.5"/>
<text text-anchor="middle" x="358.5" y="-63.5" font-family="Helvetica,sans-Serif" font-size="10.00">vec.hpp</text>
</a>
</g>
</g>
<!-- Node9&#45;&gt;Node10 -->
<g id="edge10" class="edge">
<title>Node9&#45;&gt;Node10</title>
<path fill="none" stroke="midnightblue" d="M622.32,-114.14C619.01,-113.39 615.69,-112.66 612.5,-112 535.94,-96.16 445.67,-81 396,-72.95"/>
<polygon fill="midnightblue" stroke="midnightblue" points="396.47,-69.48 386.04,-71.35 395.35,-76.4 396.47,-69.48"/>
</g>
<!-- Node11 -->
<g id="node11" class="node">
<title>Node11</title>
<g id="a_node11"><a xlink:title=" ">
<polygon fill="white" stroke="#bfbfbf" points="324,-0.5 324,-19.5 393,-19.5 393,-0.5 324,-0.5"/>
<text text-anchor="middle" x="358.5" y="-7.5" font-family="Helvetica,sans-Serif" font-size="10.00">Eigen/Core</text>
</a>
</g>
</g>
<!-- Node10&#45;&gt;Node11 -->
<g id="edge11" class="edge">
<title>Node10&#45;&gt;Node11</title>
<path fill="none" stroke="midnightblue" d="M358.5,-56.08C358.5,-49.01 358.5,-38.86 358.5,-29.99"/>
<polygon fill="midnightblue" stroke="midnightblue" points="362,-29.75 358.5,-19.75 355,-29.75 362,-29.75"/>
</g>
<!-- Node18 -->
<g id="node18" class="node">
<title>Node18</title>
<g id="a_node18"><a xlink:title=" ">
<polygon fill="white" stroke="#bfbfbf" points="834.5,-112.5 834.5,-131.5 882.5,-131.5 882.5,-112.5 834.5,-112.5"/>
<text text-anchor="middle" x="858.5" y="-119.5" font-family="Helvetica,sans-Serif" font-size="10.00">iosfwd</text>
</a>
</g>
</g>
<!-- Node17&#45;&gt;Node18 -->
<g id="edge18" class="edge">
<title>Node17&#45;&gt;Node18</title>
<path fill="none" stroke="midnightblue" d="M781.39,-173.98C795.96,-164.34 819.9,-148.52 837.25,-137.05"/>
<polygon fill="midnightblue" stroke="midnightblue" points="839.22,-139.94 845.63,-131.51 835.36,-134.1 839.22,-139.94"/>
</g>
<!-- Node19&#45;&gt;Node10 -->
<g id="edge22" class="edge">
<title>Node19&#45;&gt;Node10</title>
<path fill="none" stroke="midnightblue" d="M72.54,-173.97C83.7,-158.88 109.15,-127.59 138.5,-112 197.11,-80.86 275.06,-71.24 320.71,-68.28"/>
<polygon fill="midnightblue" stroke="midnightblue" points="320.98,-71.77 330.76,-67.71 320.58,-64.79 320.98,-71.77"/>
</g>
</g>
</svg>
