<?xml version="1.0" encoding="UTF-8" standalone="no"?>
<!DOCTYPE svg PUBLIC "-//W3C//DTD SVG 1.1//EN"
 "http://www.w3.org/Graphics/SVG/1.1/DTD/svg11.dtd">
<!-- Generated by graphviz version 2.43.0 (0)
 -->
<!-- Title: second&#45;order&#45;panoc.hpp Pages: 1 -->
<svg width="1531pt" height="341pt"
 viewBox="0.00 0.00 1531.00 341.00" xmlns="http://www.w3.org/2000/svg" xmlns:xlink="http://www.w3.org/1999/xlink">
<g id="graph0" class="graph" transform="scale(1 1) rotate(0) translate(4 337)">
<title>second&#45;order&#45;panoc.hpp</title>
<polygon fill="white" stroke="transparent" points="-4,4 -4,-337 1527,-337 1527,4 -4,4"/>
<!-- Node1 -->
<g id="node1" class="node">
<title>Node1</title>
<g id="a_node1"><a xlink:title=" ">
<polygon fill="#bfbfbf" stroke="black" points="1144.5,-313.5 1144.5,-332.5 1278.5,-332.5 1278.5,-313.5 1144.5,-313.5"/>
<text text-anchor="middle" x="1211.5" y="-320.5" font-family="Helvetica,sans-Serif" font-size="10.00">second&#45;order&#45;panoc.hpp</text>
</a>
</g>
</g>
<!-- Node2 -->
<g id="node2" class="node">
<title>Node2</title>
<g id="a_node2"><a xlink:href="decl_2second-order-panoc_8hpp.html" target="_top" xlink:title=" ">
<polygon fill="white" stroke="black" points="405.5,-246.5 405.5,-276.5 543.5,-276.5 543.5,-246.5 405.5,-246.5"/>
<text text-anchor="start" x="413.5" y="-264.5" font-family="Helvetica,sans-Serif" font-size="10.00">alpaqa/inner/decl/second</text>
<text text-anchor="middle" x="474.5" y="-253.5" font-family="Helvetica,sans-Serif" font-size="10.00">&#45;order&#45;panoc.hpp</text>
</a>
</g>
</g>
<!-- Node1&#45;&gt;Node2 -->
<g id="edge1" class="edge">
<title>Node1&#45;&gt;Node2</title>
<path fill="none" stroke="midnightblue" d="M1144.47,-316.59C1008.29,-305.59 699.82,-280.69 553.87,-268.91"/>
<polygon fill="midnightblue" stroke="midnightblue" points="553.9,-265.4 543.65,-268.08 553.34,-272.38 553.9,-265.4"/>
</g>
<!-- Node7 -->
<g id="node7" class="node">
<title>Node7</title>
<g id="a_node7"><a xlink:title=" ">
<polygon fill="white" stroke="#bfbfbf" points="1077,-118 1077,-137 1142,-137 1142,-118 1077,-118"/>
<text text-anchor="middle" x="1109.5" y="-125" font-family="Helvetica,sans-Serif" font-size="10.00">stdexcept</text>
</a>
</g>
</g>
<!-- Node1&#45;&gt;Node7 -->
<g id="edge36" class="edge">
<title>Node1&#45;&gt;Node7</title>
<path fill="none" stroke="midnightblue" d="M1209.93,-313.33C1205.41,-290.06 1190.8,-224.89 1161.5,-179 1152.87,-165.48 1139.93,-152.9 1129.13,-143.68"/>
<polygon fill="midnightblue" stroke="midnightblue" points="1131.33,-140.96 1121.38,-137.32 1126.89,-146.37 1131.33,-140.96"/>
</g>
<!-- Node15 -->
<g id="node15" class="node">
<title>Node15</title>
<g id="a_node15"><a xlink:title=" ">
<polygon fill="white" stroke="#bfbfbf" points="844.5,-118 844.5,-137 896.5,-137 896.5,-118 844.5,-118"/>
<text text-anchor="middle" x="870.5" y="-125" font-family="Helvetica,sans-Serif" font-size="10.00">cassert</text>
</a>
</g>
</g>
<!-- Node1&#45;&gt;Node15 -->
<g id="edge32" class="edge">
<title>Node1&#45;&gt;Node15</title>
<path fill="none" stroke="midnightblue" d="M1206.89,-313.15C1193.09,-287.64 1149.41,-213.55 1090.5,-179 1018.24,-136.63 985.71,-167.15 905.5,-143 903.22,-142.31 900.87,-141.53 898.54,-140.69"/>
<polygon fill="midnightblue" stroke="midnightblue" points="899.73,-137.39 889.14,-137.03 897.19,-143.92 899.73,-137.39"/>
</g>
<!-- Node24 -->
<g id="node24" class="node">
<title>Node24</title>
<g id="a_node24"><a xlink:href="panoc-helpers_8hpp.html" target="_top" xlink:title=" ">
<polygon fill="white" stroke="black" points="879.5,-246.5 879.5,-276.5 989.5,-276.5 989.5,-246.5 879.5,-246.5"/>
<text text-anchor="start" x="887.5" y="-264.5" font-family="Helvetica,sans-Serif" font-size="10.00">alpaqa/inner/detail</text>
<text text-anchor="middle" x="934.5" y="-253.5" font-family="Helvetica,sans-Serif" font-size="10.00">/panoc&#45;helpers.hpp</text>
</a>
</g>
</g>
<!-- Node1&#45;&gt;Node24 -->
<g id="edge26" class="edge">
<title>Node1&#45;&gt;Node24</title>
<path fill="none" stroke="midnightblue" d="M1171.81,-313.48C1126.91,-303.83 1053.1,-287.97 999.7,-276.51"/>
<polygon fill="midnightblue" stroke="midnightblue" points="1000.16,-273.02 989.64,-274.35 998.69,-279.87 1000.16,-273.02"/>
</g>
<!-- Node25 -->
<g id="node25" class="node">
<title>Node25</title>
<g id="a_node25"><a xlink:title=" ">
<polygon fill="white" stroke="#bfbfbf" points="1214,-252 1214,-271 1261,-271 1261,-252 1214,-252"/>
<text text-anchor="middle" x="1237.5" y="-259" font-family="Helvetica,sans-Serif" font-size="10.00">cmath</text>
</a>
</g>
</g>
<!-- Node1&#45;&gt;Node25 -->
<g id="edge33" class="edge">
<title>Node1&#45;&gt;Node25</title>
<path fill="none" stroke="midnightblue" d="M1215.23,-313.48C1218.97,-304.9 1224.86,-291.43 1229.64,-280.48"/>
<polygon fill="midnightblue" stroke="midnightblue" points="1232.98,-281.57 1233.78,-271.01 1226.57,-278.77 1232.98,-281.57"/>
</g>
<!-- Node26 -->
<g id="node26" class="node">
<title>Node26</title>
<g id="a_node26"><a xlink:title=" ">
<polygon fill="white" stroke="#bfbfbf" points="1279.5,-252 1279.5,-271 1335.5,-271 1335.5,-252 1279.5,-252"/>
<text text-anchor="middle" x="1307.5" y="-259" font-family="Helvetica,sans-Serif" font-size="10.00">iomanip</text>
</a>
</g>
</g>
<!-- Node1&#45;&gt;Node26 -->
<g id="edge34" class="edge">
<title>Node1&#45;&gt;Node26</title>
<path fill="none" stroke="midnightblue" d="M1225.25,-313.48C1240.87,-303.8 1266.56,-287.87 1285.08,-276.39"/>
<polygon fill="midnightblue" stroke="midnightblue" points="1287.12,-279.25 1293.77,-271.01 1283.43,-273.3 1287.12,-279.25"/>
</g>
<!-- Node27 -->
<g id="node27" class="node">
<title>Node27</title>
<g id="a_node27"><a xlink:title=" ">
<polygon fill="white" stroke="#bfbfbf" points="1353.5,-252 1353.5,-271 1413.5,-271 1413.5,-252 1353.5,-252"/>
<text text-anchor="middle" x="1383.5" y="-259" font-family="Helvetica,sans-Serif" font-size="10.00">iostream</text>
</a>
</g>
</g>
<!-- Node1&#45;&gt;Node27 -->
<g id="edge35" class="edge">
<title>Node1&#45;&gt;Node27</title>
<path fill="none" stroke="midnightblue" d="M1237.57,-313.43C1264.45,-304.54 1307.52,-290.13 1344.5,-277 1346.74,-276.2 1349.05,-275.37 1351.37,-274.53"/>
<polygon fill="midnightblue" stroke="midnightblue" points="1352.68,-277.78 1360.86,-271.05 1350.26,-271.21 1352.68,-277.78"/>
</g>
<!-- Node28 -->
<g id="node28" class="node">
<title>Node28</title>
<g id="a_node28"><a xlink:title=" ">
<polygon fill="white" stroke="#bfbfbf" points="1432,-252 1432,-271 1523,-271 1523,-252 1432,-252"/>
<text text-anchor="middle" x="1477.5" y="-259" font-family="Helvetica,sans-Serif" font-size="10.00">Eigen/Cholesky</text>
</a>
</g>
</g>
<!-- Node1&#45;&gt;Node28 -->
<g id="edge37" class="edge">
<title>Node1&#45;&gt;Node28</title>
<path fill="none" stroke="midnightblue" d="M1254.47,-313.46C1297.2,-304.82 1364.57,-290.81 1422.5,-277 1426.94,-275.94 1431.58,-274.79 1436.18,-273.62"/>
<polygon fill="midnightblue" stroke="midnightblue" points="1437.35,-276.93 1446.15,-271.04 1435.6,-270.16 1437.35,-276.93"/>
</g>
<!-- Node3 -->
<g id="node3" class="node">
<title>Node3</title>
<g id="a_node3"><a xlink:href="panoc-fwd_8hpp.html" target="_top" xlink:title=" ">
<polygon fill="white" stroke="black" points="151,-179.5 151,-209.5 284,-209.5 284,-179.5 151,-179.5"/>
<text text-anchor="start" x="159" y="-197.5" font-family="Helvetica,sans-Serif" font-size="10.00">alpaqa/inner/decl/panoc</text>
<text text-anchor="middle" x="217.5" y="-186.5" font-family="Helvetica,sans-Serif" font-size="10.00">&#45;fwd.hpp</text>
</a>
</g>
</g>
<!-- Node2&#45;&gt;Node3 -->
<g id="edge2" class="edge">
<title>Node2&#45;&gt;Node3</title>
<path fill="none" stroke="midnightblue" d="M419.05,-246.48C379.16,-236.39 325.21,-222.74 283.16,-212.11"/>
<polygon fill="midnightblue" stroke="midnightblue" points="283.85,-208.67 273.29,-209.61 282.13,-215.46 283.85,-208.67"/>
</g>
<!-- Node5 -->
<g id="node5" class="node">
<title>Node5</title>
<g id="a_node5"><a xlink:href="panoc-stop-crit_8hpp.html" target="_top" xlink:title=" ">
<polygon fill="white" stroke="black" points="948,-179.5 948,-209.5 1081,-209.5 1081,-179.5 948,-179.5"/>
<text text-anchor="start" x="956" y="-197.5" font-family="Helvetica,sans-Serif" font-size="10.00">alpaqa/inner/decl/panoc</text>
<text text-anchor="middle" x="1014.5" y="-186.5" font-family="Helvetica,sans-Serif" font-size="10.00">&#45;stop&#45;crit.hpp</text>
</a>
</g>
</g>
<!-- Node2&#45;&gt;Node5 -->
<g id="edge4" class="edge">
<title>Node2&#45;&gt;Node5</title>
<path fill="none" stroke="midnightblue" d="M543.51,-254.73C632.3,-246.92 791.5,-231.59 937.76,-210.03"/>
<polygon fill="midnightblue" stroke="midnightblue" points="938.45,-213.47 947.82,-208.53 937.42,-206.54 938.45,-213.47"/>
</g>
<!-- Node8 -->
<g id="node8" class="node">
<title>Node8</title>
<g id="a_node8"><a xlink:href="atomic__stop__signal_8hpp.html" target="_top" xlink:title=" ">
<polygon fill="white" stroke="black" points="503,-179.5 503,-209.5 608,-209.5 608,-179.5 503,-179.5"/>
<text text-anchor="start" x="511" y="-197.5" font-family="Helvetica,sans-Serif" font-size="10.00">alpaqa/util/atomic</text>
<text text-anchor="middle" x="555.5" y="-186.5" font-family="Helvetica,sans-Serif" font-size="10.00">_stop_signal.hpp</text>
</a>
</g>
</g>
<!-- Node2&#45;&gt;Node8 -->
<g id="edge7" class="edge">
<title>Node2&#45;&gt;Node8</title>
<path fill="none" stroke="midnightblue" d="M492.08,-246.4C503.11,-237.54 517.54,-225.96 529.85,-216.09"/>
<polygon fill="midnightblue" stroke="midnightblue" points="532.35,-218.56 537.96,-209.58 527.97,-213.11 532.35,-218.56"/>
</g>
<!-- Node9 -->
<g id="node9" class="node">
<title>Node9</title>
<g id="a_node9"><a xlink:title=" ">
<polygon fill="white" stroke="#bfbfbf" points="386.5,-118 386.5,-137 436.5,-137 436.5,-118 386.5,-118"/>
<text text-anchor="middle" x="411.5" y="-125" font-family="Helvetica,sans-Serif" font-size="10.00">atomic</text>
</a>
</g>
</g>
<!-- Node2&#45;&gt;Node9 -->
<g id="edge22" class="edge">
<title>Node2&#45;&gt;Node9</title>
<path fill="none" stroke="midnightblue" d="M467.76,-246.37C456.21,-222.18 432.68,-172.88 420.02,-146.35"/>
<polygon fill="midnightblue" stroke="midnightblue" points="423.07,-144.61 415.6,-137.1 416.75,-147.63 423.07,-144.61"/>
</g>
<!-- Node10 -->
<g id="node10" class="node">
<title>Node10</title>
<g id="a_node10"><a xlink:href="lipschitz_8hpp.html" target="_top" xlink:title=" ">
<polygon fill="white" stroke="black" points="0,-185 0,-204 133,-204 133,-185 0,-185"/>
<text text-anchor="middle" x="66.5" y="-192" font-family="Helvetica,sans-Serif" font-size="10.00">alpaqa/util/lipschitz.hpp</text>
</a>
</g>
</g>
<!-- Node2&#45;&gt;Node10 -->
<g id="edge9" class="edge">
<title>Node2&#45;&gt;Node10</title>
<path fill="none" stroke="midnightblue" d="M405.49,-250.87C338.05,-241.26 232.54,-225.7 141.5,-210 134.14,-208.73 126.39,-207.32 118.77,-205.89"/>
<polygon fill="midnightblue" stroke="midnightblue" points="119.36,-202.44 108.89,-204 118.05,-209.31 119.36,-202.44"/>
</g>
<!-- Node13 -->
<g id="node13" class="node">
<title>Node13</title>
<g id="a_node13"><a xlink:href="include_2alpaqa_2util_2problem_8hpp.html" target="_top" xlink:title=" ">
<polygon fill="white" stroke="black" points="626,-185 626,-204 759,-204 759,-185 626,-185"/>
<text text-anchor="middle" x="692.5" y="-192" font-family="Helvetica,sans-Serif" font-size="10.00">alpaqa/util/problem.hpp</text>
</a>
</g>
</g>
<!-- Node2&#45;&gt;Node13 -->
<g id="edge12" class="edge">
<title>Node2&#45;&gt;Node13</title>
<path fill="none" stroke="midnightblue" d="M521.53,-246.48C561.12,-234.67 617.04,-218 654,-206.98"/>
<polygon fill="midnightblue" stroke="midnightblue" points="655.31,-210.24 663.9,-204.03 653.31,-203.53 655.31,-210.24"/>
</g>
<!-- Node16 -->
<g id="node16" class="node">
<title>Node16</title>
<g id="a_node16"><a xlink:title=" ">
<polygon fill="white" stroke="#bfbfbf" points="454.5,-118 454.5,-137 504.5,-137 504.5,-118 454.5,-118"/>
<text text-anchor="middle" x="479.5" y="-125" font-family="Helvetica,sans-Serif" font-size="10.00">chrono</text>
</a>
</g>
</g>
<!-- Node2&#45;&gt;Node16 -->
<g id="edge23" class="edge">
<title>Node2&#45;&gt;Node16</title>
<path fill="none" stroke="midnightblue" d="M475.04,-246.37C475.94,-222.5 477.77,-174.18 478.78,-147.41"/>
<polygon fill="midnightblue" stroke="midnightblue" points="482.29,-147.22 479.17,-137.1 475.3,-146.96 482.29,-147.22"/>
</g>
<!-- Node20 -->
<g id="node20" class="node">
<title>Node20</title>
<g id="a_node20"><a xlink:href="solverstatus_8hpp.html" target="_top" xlink:title=" ">
<polygon fill="white" stroke="black" points="777.5,-185 777.5,-204 929.5,-204 929.5,-185 777.5,-185"/>
<text text-anchor="middle" x="853.5" y="-192" font-family="Helvetica,sans-Serif" font-size="10.00">alpaqa/util/solverstatus.hpp</text>
</a>
</g>
</g>
<!-- Node2&#45;&gt;Node20 -->
<g id="edge20" class="edge">
<title>Node2&#45;&gt;Node20</title>
<path fill="none" stroke="midnightblue" d="M543.57,-248.65C615.16,-236.38 725.9,-217.38 793.81,-205.74"/>
<polygon fill="midnightblue" stroke="midnightblue" points="794.65,-209.14 803.92,-204 793.47,-202.24 794.65,-209.14"/>
</g>
<!-- Node22 -->
<g id="node22" class="node">
<title>Node22</title>
<g id="a_node22"><a xlink:title=" ">
<polygon fill="white" stroke="#bfbfbf" points="302.5,-185 302.5,-204 346.5,-204 346.5,-185 302.5,-185"/>
<text text-anchor="middle" x="324.5" y="-192" font-family="Helvetica,sans-Serif" font-size="10.00">limits</text>
</a>
</g>
</g>
<!-- Node2&#45;&gt;Node22 -->
<g id="edge24" class="edge">
<title>Node2&#45;&gt;Node22</title>
<path fill="none" stroke="midnightblue" d="M440.51,-246.46C416.63,-236.5 383.99,-222.7 355.5,-210 354.31,-209.47 353.1,-208.92 351.87,-208.37"/>
<polygon fill="midnightblue" stroke="midnightblue" points="353.03,-205.05 342.48,-204.04 350.1,-211.41 353.03,-205.05"/>
</g>
<!-- Node23 -->
<g id="node23" class="node">
<title>Node23</title>
<g id="a_node23"><a xlink:title=" ">
<polygon fill="white" stroke="#bfbfbf" points="364.5,-185 364.5,-204 408.5,-204 408.5,-185 364.5,-185"/>
<text text-anchor="middle" x="386.5" y="-192" font-family="Helvetica,sans-Serif" font-size="10.00">string</text>
</a>
</g>
</g>
<!-- Node2&#45;&gt;Node23 -->
<g id="edge25" class="edge">
<title>Node2&#45;&gt;Node23</title>
<path fill="none" stroke="midnightblue" d="M455.41,-246.4C440.92,-235.7 421.07,-221.03 406.39,-210.19"/>
<polygon fill="midnightblue" stroke="midnightblue" points="408.14,-207.13 398.02,-204.01 403.98,-212.76 408.14,-207.13"/>
</g>
<!-- Node4 -->
<g id="node4" class="node">
<title>Node4</title>
<g id="a_node4"><a xlink:href="lbfgs-fwd_8hpp.html" target="_top" xlink:title=" ">
<polygon fill="white" stroke="black" points="153.5,-112.5 153.5,-142.5 281.5,-142.5 281.5,-112.5 153.5,-112.5"/>
<text text-anchor="start" x="161.5" y="-130.5" font-family="Helvetica,sans-Serif" font-size="10.00">alpaqa/inner/directions</text>
<text text-anchor="middle" x="217.5" y="-119.5" font-family="Helvetica,sans-Serif" font-size="10.00">/decl/lbfgs&#45;fwd.hpp</text>
</a>
</g>
</g>
<!-- Node3&#45;&gt;Node4 -->
<g id="edge3" class="edge">
<title>Node3&#45;&gt;Node4</title>
<path fill="none" stroke="midnightblue" d="M217.5,-179.4C217.5,-171.64 217.5,-161.81 217.5,-152.86"/>
<polygon fill="midnightblue" stroke="midnightblue" points="221,-152.58 217.5,-142.58 214,-152.58 221,-152.58"/>
</g>
<!-- Node6 -->
<g id="node6" class="node">
<title>Node6</title>
<g id="a_node6"><a xlink:title=" ">
<polygon fill="white" stroke="#bfbfbf" points="986,-118 986,-137 1043,-137 1043,-118 986,-118"/>
<text text-anchor="middle" x="1014.5" y="-125" font-family="Helvetica,sans-Serif" font-size="10.00">ostream</text>
</a>
</g>
</g>
<!-- Node5&#45;&gt;Node6 -->
<g id="edge5" class="edge">
<title>Node5&#45;&gt;Node6</title>
<path fill="none" stroke="midnightblue" d="M1014.5,-179.4C1014.5,-170.06 1014.5,-157.71 1014.5,-147.52"/>
<polygon fill="midnightblue" stroke="midnightblue" points="1018,-147.19 1014.5,-137.19 1011,-147.19 1018,-147.19"/>
</g>
<!-- Node5&#45;&gt;Node7 -->
<g id="edge6" class="edge">
<title>Node5&#45;&gt;Node7</title>
<path fill="none" stroke="midnightblue" d="M1035.11,-179.4C1050.9,-168.6 1072.59,-153.76 1088.47,-142.89"/>
<polygon fill="midnightblue" stroke="midnightblue" points="1090.79,-145.54 1097.07,-137.01 1086.84,-139.77 1090.79,-145.54"/>
</g>
<!-- Node8&#45;&gt;Node9 -->
<g id="edge8" class="edge">
<title>Node8&#45;&gt;Node9</title>
<path fill="none" stroke="midnightblue" d="M524.25,-179.4C499.1,-168.04 464.05,-152.22 439.73,-141.24"/>
<polygon fill="midnightblue" stroke="midnightblue" points="440.9,-137.93 430.35,-137.01 438.02,-144.31 440.9,-137.93"/>
</g>
<!-- Node11 -->
<g id="node11" class="node">
<title>Node11</title>
<g id="a_node11"><a xlink:href="vec_8hpp.html" target="_top" xlink:title=" ">
<polygon fill="white" stroke="black" points="333.5,-56.5 333.5,-75.5 443.5,-75.5 443.5,-56.5 333.5,-56.5"/>
<text text-anchor="middle" x="388.5" y="-63.5" font-family="Helvetica,sans-Serif" font-size="10.00">alpaqa/util/vec.hpp</text>
</a>
</g>
</g>
<!-- Node10&#45;&gt;Node11 -->
<g id="edge10" class="edge">
<title>Node10&#45;&gt;Node11</title>
<path fill="none" stroke="midnightblue" d="M71.95,-184.91C83.23,-167.93 110.89,-130.14 144.5,-112 200.12,-81.99 272.13,-71.59 323.48,-68.19"/>
<polygon fill="midnightblue" stroke="midnightblue" points="323.68,-71.69 333.46,-67.6 323.27,-64.7 323.68,-71.69"/>
</g>
<!-- Node12 -->
<g id="node12" class="node">
<title>Node12</title>
<g id="a_node12"><a xlink:title=" ">
<polygon fill="white" stroke="#bfbfbf" points="354,-0.5 354,-19.5 423,-19.5 423,-0.5 354,-0.5"/>
<text text-anchor="middle" x="388.5" y="-7.5" font-family="Helvetica,sans-Serif" font-size="10.00">Eigen/Core</text>
</a>
</g>
</g>
<!-- Node11&#45;&gt;Node12 -->
<g id="edge11" class="edge">
<title>Node11&#45;&gt;Node12</title>
<path fill="none" stroke="midnightblue" d="M388.5,-56.08C388.5,-49.01 388.5,-38.86 388.5,-29.99"/>
<polygon fill="midnightblue" stroke="midnightblue" points="392,-29.75 388.5,-19.75 385,-29.75 392,-29.75"/>
</g>
<!-- Node14 -->
<g id="node14" class="node">
<title>Node14</title>
<g id="a_node14"><a xlink:href="box_8hpp.html" target="_top" xlink:title=" ">
<polygon fill="white" stroke="black" points="686.5,-118 686.5,-137 742.5,-137 742.5,-118 686.5,-118"/>
<text text-anchor="middle" x="714.5" y="-125" font-family="Helvetica,sans-Serif" font-size="10.00">box.hpp</text>
</a>
</g>
</g>
<!-- Node13&#45;&gt;Node14 -->
<g id="edge13" class="edge">
<title>Node13&#45;&gt;Node14</title>
<path fill="none" stroke="midnightblue" d="M695.47,-184.73C698.73,-175.09 704.08,-159.3 708.27,-146.91"/>
<polygon fill="midnightblue" stroke="midnightblue" points="711.69,-147.72 711.58,-137.13 705.06,-145.48 711.69,-147.72"/>
</g>
<!-- Node13&#45;&gt;Node15 -->
<g id="edge15" class="edge">
<title>Node13&#45;&gt;Node15</title>
<path fill="none" stroke="midnightblue" d="M717.96,-184.97C746.68,-175.24 794.69,-158.65 835.5,-143 837.15,-142.37 838.83,-141.71 840.53,-141.04"/>
<polygon fill="midnightblue" stroke="midnightblue" points="842.26,-144.11 850.22,-137.12 839.63,-137.63 842.26,-144.11"/>
</g>
<!-- Node13&#45;&gt;Node16 -->
<g id="edge16" class="edge">
<title>Node13&#45;&gt;Node16</title>
<path fill="none" stroke="midnightblue" d="M657.1,-184.94C620.69,-175.81 562.53,-160.29 513.5,-143 511.64,-142.34 509.73,-141.64 507.82,-140.9"/>
<polygon fill="midnightblue" stroke="midnightblue" points="508.97,-137.59 498.39,-137.06 506.34,-144.07 508.97,-137.59"/>
</g>
<!-- Node17 -->
<g id="node17" class="node">
<title>Node17</title>
<g id="a_node17"><a xlink:title=" ">
<polygon fill="white" stroke="#bfbfbf" points="761,-118 761,-137 826,-137 826,-118 761,-118"/>
<text text-anchor="middle" x="793.5" y="-125" font-family="Helvetica,sans-Serif" font-size="10.00">functional</text>
</a>
</g>
</g>
<!-- Node13&#45;&gt;Node17 -->
<g id="edge17" class="edge">
<title>Node13&#45;&gt;Node17</title>
<path fill="none" stroke="midnightblue" d="M706.12,-184.73C722.93,-173.92 751.73,-155.38 771.64,-142.57"/>
<polygon fill="midnightblue" stroke="midnightblue" points="773.58,-145.48 780.09,-137.13 769.79,-139.6 773.58,-145.48"/>
</g>
<!-- Node18 -->
<g id="node18" class="node">
<title>Node18</title>
<g id="a_node18"><a xlink:title=" ">
<polygon fill="white" stroke="#bfbfbf" points="522.5,-118 522.5,-137 580.5,-137 580.5,-118 522.5,-118"/>
<text text-anchor="middle" x="551.5" y="-125" font-family="Helvetica,sans-Serif" font-size="10.00">memory</text>
</a>
</g>
</g>
<!-- Node13&#45;&gt;Node18 -->
<g id="edge18" class="edge">
<title>Node13&#45;&gt;Node18</title>
<path fill="none" stroke="midnightblue" d="M673.78,-184.87C649.65,-173.75 607.5,-154.32 579.55,-141.43"/>
<polygon fill="midnightblue" stroke="midnightblue" points="580.85,-138.18 570.3,-137.17 577.92,-144.53 580.85,-138.18"/>
</g>
<!-- Node19 -->
<g id="node19" class="node">
<title>Node19</title>
<g id="a_node19"><a xlink:title=" ">
<polygon fill="white" stroke="#bfbfbf" points="599,-118 599,-137 668,-137 668,-118 599,-118"/>
<text text-anchor="middle" x="633.5" y="-125" font-family="Helvetica,sans-Serif" font-size="10.00">type_traits</text>
</a>
</g>
</g>
<!-- Node13&#45;&gt;Node19 -->
<g id="edge19" class="edge">
<title>Node13&#45;&gt;Node19</title>
<path fill="none" stroke="midnightblue" d="M684.54,-184.73C675.25,-174.5 659.7,-157.36 648.2,-144.69"/>
<polygon fill="midnightblue" stroke="midnightblue" points="650.64,-142.18 641.33,-137.13 645.46,-146.88 650.64,-142.18"/>
</g>
<!-- Node14&#45;&gt;Node11 -->
<g id="edge14" class="edge">
<title>Node14&#45;&gt;Node11</title>
<path fill="none" stroke="midnightblue" d="M694.8,-117.86C689.28,-115.69 683.23,-113.55 677.5,-112 601.97,-91.58 512.66,-79.44 453.53,-73.01"/>
<polygon fill="midnightblue" stroke="midnightblue" points="453.89,-69.53 443.58,-71.95 453.15,-76.49 453.89,-69.53"/>
</g>
<!-- Node21 -->
<g id="node21" class="node">
<title>Node21</title>
<g id="a_node21"><a xlink:title=" ">
<polygon fill="white" stroke="#bfbfbf" points="914.5,-118 914.5,-137 962.5,-137 962.5,-118 914.5,-118"/>
<text text-anchor="middle" x="938.5" y="-125" font-family="Helvetica,sans-Serif" font-size="10.00">iosfwd</text>
</a>
</g>
</g>
<!-- Node20&#45;&gt;Node21 -->
<g id="edge21" class="edge">
<title>Node20&#45;&gt;Node21</title>
<path fill="none" stroke="midnightblue" d="M864.96,-184.73C878.86,-174.11 902.48,-156.05 919.19,-143.26"/>
<polygon fill="midnightblue" stroke="midnightblue" points="921.4,-145.98 927.22,-137.13 917.15,-140.42 921.4,-145.98"/>
</g>
<!-- Node24&#45;&gt;Node5 -->
<g id="edge27" class="edge">
<title>Node24&#45;&gt;Node5</title>
<path fill="none" stroke="midnightblue" d="M951.86,-246.4C962.76,-237.54 977.01,-225.96 989.16,-216.09"/>
<polygon fill="midnightblue" stroke="midnightblue" points="991.62,-218.6 997.18,-209.58 987.21,-213.17 991.62,-218.6"/>
</g>
<!-- Node24&#45;&gt;Node7 -->
<g id="edge31" class="edge">
<title>Node24&#45;&gt;Node7</title>
<path fill="none" stroke="midnightblue" d="M989.81,-256.1C1023.46,-250.51 1064.78,-237.98 1090.5,-210 1106.13,-192.99 1109.68,-165.67 1110.12,-147.41"/>
<polygon fill="midnightblue" stroke="midnightblue" points="1113.62,-147.37 1110.07,-137.38 1106.62,-147.4 1113.62,-147.37"/>
</g>
<!-- Node24&#45;&gt;Node8 -->
<g id="edge28" class="edge">
<title>Node24&#45;&gt;Node8</title>
<path fill="none" stroke="midnightblue" d="M879.31,-252.93C818,-244.25 715.89,-228.99 618.25,-210.06"/>
<polygon fill="midnightblue" stroke="midnightblue" points="618.7,-206.58 608.21,-208.1 617.35,-213.45 618.7,-206.58"/>
</g>
<!-- Node24&#45;&gt;Node13 -->
<g id="edge29" class="edge">
<title>Node24&#45;&gt;Node13</title>
<path fill="none" stroke="midnightblue" d="M882.29,-246.48C837.87,-234.55 774.94,-217.64 733.93,-206.63"/>
<polygon fill="midnightblue" stroke="midnightblue" points="734.82,-203.24 724.25,-204.03 733,-210 734.82,-203.24"/>
</g>
<!-- Node24&#45;&gt;Node20 -->
<g id="edge30" class="edge">
<title>Node24&#45;&gt;Node20</title>
<path fill="none" stroke="midnightblue" d="M916.92,-246.4C903.79,-235.86 885.87,-221.48 872.43,-210.69"/>
<polygon fill="midnightblue" stroke="midnightblue" points="874.32,-207.72 864.33,-204.19 869.94,-213.18 874.32,-207.72"/>
</g>
</g>
</svg>
