<?xml version="1.0" encoding="UTF-8" standalone="no"?>
<!DOCTYPE svg PUBLIC "-//W3C//DTD SVG 1.1//EN"
 "http://www.w3.org/Graphics/SVG/1.1/DTD/svg11.dtd">
<!-- Generated by graphviz version 2.43.0 (0)
 -->
<!-- Title: CasADiControlProblem Pages: 1 -->
<!--zoomable 222 -->

<svg id="main" version="1.1" xmlns="http://www.w3.org/2000/svg" xmlns:xlink="http://www.w3.org/1999/xlink" xml:space="preserve" onload="init(evt)">
<style type="text/css"><![CDATA[
.node, .edge {opacity: 0.7;}
.node.selected, .edge.selected {opacity: 1;}
.edge:hover path { stroke: red; }
.edge:hover polygon { stroke: red; fill: red; }
]]></style>

<defs>
  <circle id="rim" cx="0" cy="0" r="7"/>
  <circle id="rim2" cx="0" cy="0" r="3.5"/>
  <g id="zoomPlus">
    <use xlink:href="#rim" fill="#404040"><set attributeName="fill" to="#808080" begin="zoomplus.mouseover" end="zoomplus.mouseout"/></use>
    <path d="M-4,0h8M0,-4v8" fill="none" stroke="white" stroke-width="1.5" pointer-events="none"/>
  </g>
  <g id="zoomMin">
    <use xlink:href="#rim" fill="#404040"><set attributeName="fill" to="#808080" begin="zoomminus.mouseover" end="zoomminus.mouseout"/></use>
    <path d="M-4,0h8" fill="none" stroke="white" stroke-width="1.5" pointer-events="none"/>
  </g>
  <g id="arrowUp" transform="translate(30 24)">
    <use xlink:href="#rim"/>
    <path pointer-events="none" fill="none" stroke="white" stroke-width="1.5" d="M0,-3.0v7 M-2.5,-0.5L0,-3.0L2.5,-0.5"/>
  </g>
  <g id="arrowRight" transform="rotate(90) translate(36 -43)">
    <use xlink:href="#rim"/>
    <path pointer-events="none" fill="none" stroke="white" stroke-width="1.5" d="M0,-3.0v7 M-2.5,-0.5L0,-3.0L2.5,-0.5"/>
  </g>
  <g id="arrowDown" transform="rotate(180) translate(-30 -48)">
    <use xlink:href="#rim"/>
    <path pointer-events="none" fill="none" stroke="white" stroke-width="1.5" d="M0,-3.0v7 M-2.5,-0.5L0,-3.0L2.5,-0.5"/>
  </g>
  <g id="arrowLeft" transform="rotate(270) translate(-36 17)">
    <use xlink:href="#rim"/>
    <path pointer-events="none" fill="none" stroke="white" stroke-width="1.5" d="M0,-3.0v7 M-2.5,-0.5L0,-3.0L2.5,-0.5"/>
  </g>
  <g id="resetDef">
    <use xlink:href="#rim2" fill="#404040"><set attributeName="fill" to="#808080" begin="reset.mouseover" end="reset.mouseout"/></use>
  </g>
</defs>
<script type="application/ecmascript">
var viewWidth = 837;
var viewHeight = 222;
var sectionId = 'dynsection-1';
</script>
<script type="application/ecmascript" xlink:href="svg.min.js"/>
<svg id="graph" class="graph">
<g id="viewport">
<title>CasADiControlProblem</title>
<!-- Node1 -->
<g id="Node000001" class="node">
<title>Node1</title>
<g id="a_Node000001"><a xlink:title=" ">
<polygon fill="#999999" stroke="#666666" points="128,-62 0,-62 0,-43 128,-43 128,-62"/>
<text text-anchor="middle" x="64" y="-50" font-family="Helvetica,sans-Serif" font-size="10.00">CasADiControlProblem</text>
</a>
</g>
</g>
<!-- Node2 -->
<g id="Node000002" class="node">
<title>Node2</title>
<g id="a_Node000002"><a xlink:href="structalpaqa_1_1casadi__loader_1_1CasADiControlFunctionsWithParam.html#a315acb62b6609d1fa6bbf298fcc1064b" target="_top" xlink:title=" ">
<polygon fill="white" stroke="#666666" points="326,-116 164,-116 164,-75 326,-75 326,-116"/>
<text text-anchor="start" x="172" y="-104" font-family="Helvetica,sans-Serif" font-size="10.00">alpaqa::casadi_loader</text>
<text text-anchor="start" x="172" y="-93" font-family="Helvetica,sans-Serif" font-size="10.00">::CasADiControlFunctionsWith</text>
<text text-anchor="middle" x="245" y="-82" font-family="Helvetica,sans-Serif" font-size="10.00">Param::load</text>
</a>
</g>
</g>
<!-- Node1&#45;&gt;Node2 -->
<g id="edge1_Node000001_Node000002" class="edge">
<title>Node1&#45;&gt;Node2</title>
<g id="a_edge1_Node000001_Node000002"><a xlink:title=" ">
<path fill="none" stroke="#63b8ff" d="M104.73,-62.04C119.28,-65.54 136.4,-69.65 153.57,-73.78"/>
<polygon fill="#63b8ff" stroke="#63b8ff" points="153.13,-77.27 163.67,-76.2 154.76,-70.46 153.13,-77.27"/>
</a>
</g>
</g>
<!-- Node8 -->
<g id="Node000008" class="node">
<title>Node8</title>
<g id="a_Node000008"><a xlink:href="classalpaqa_1_1CasADiControlProblem.html#a4f1c7c649deebd8f69fd65ebc8ec3a4a" target="_top" xlink:title="Load the numerical problem data (bounds and parameters) from a CSV file.">
<polygon fill="white" stroke="#666666" points="304.5,-38 185.5,-38 185.5,-19 304.5,-19 304.5,-38"/>
<text text-anchor="middle" x="245" y="-26" font-family="Helvetica,sans-Serif" font-size="10.00">load_numerical_data</text>
</a>
</g>
</g>
<!-- Node1&#45;&gt;Node8 -->
<g id="edge8_Node000001_Node000008" class="edge">
<title>Node1&#45;&gt;Node8</title>
<g id="a_edge8_Node000001_Node000008"><a xlink:title=" ">
<path fill="none" stroke="#63b8ff" d="M128.11,-44.04C143.38,-41.99 159.79,-39.79 175.3,-37.71"/>
<polygon fill="#63b8ff" stroke="#63b8ff" points="175.91,-41.16 185.35,-36.36 174.98,-34.22 175.91,-41.16"/>
</a>
</g>
</g>
<!-- Node3 -->
<g id="Node000003" class="node">
<title>Node3</title>
<g id="a_Node000003"><a xlink:href="namespacealpaqa_1_1casadi__loader.html#a440de48c7f739b4216916e2aba75b266" target="_top" xlink:title=" ">
<polygon fill="white" stroke="#666666" points="496.5,-213.5 373.5,-213.5 373.5,-183.5 496.5,-183.5 496.5,-213.5"/>
<text text-anchor="start" x="381.5" y="-201.5" font-family="Helvetica,sans-Serif" font-size="10.00">alpaqa::casadi_loader</text>
<text text-anchor="middle" x="435" y="-190.5" font-family="Helvetica,sans-Serif" font-size="10.00">::dims</text>
</a>
</g>
</g>
<!-- Node2&#45;&gt;Node3 -->
<g id="edge2_Node000002_Node000003" class="edge">
<title>Node2&#45;&gt;Node3</title>
<g id="a_edge2_Node000002_Node000003"><a xlink:title=" ">
<path fill="none" stroke="#63b8ff" d="M271.9,-116.23C294.6,-133.62 329.03,-158.17 362,-174.5 365.72,-176.34 369.61,-178.09 373.58,-179.75"/>
<polygon fill="#63b8ff" stroke="#63b8ff" points="372.35,-183.03 382.94,-183.44 374.92,-176.51 372.35,-183.03"/>
</a>
</g>
</g>
<!-- Node4 -->
<g id="Node000004" class="node">
<title>Node4</title>
<g id="a_Node000004"><a xlink:href="classalpaqa_1_1casadi__loader_1_1CasADiFunctionEvaluator.html#ac82a9153f840c8894aee66550ccc72a4" target="_top" xlink:title=" ">
<polygon fill="white" stroke="#666666" points="508,-165 362,-165 362,-124 508,-124 508,-165"/>
<text text-anchor="start" x="370" y="-153" font-family="Helvetica,sans-Serif" font-size="10.00">alpaqa::casadi_loader</text>
<text text-anchor="start" x="370" y="-142" font-family="Helvetica,sans-Serif" font-size="10.00">::CasADiFunctionEvaluator</text>
<text text-anchor="middle" x="435" y="-131" font-family="Helvetica,sans-Serif" font-size="10.00">::validate_dimensions</text>
</a>
</g>
</g>
<!-- Node2&#45;&gt;Node4 -->
<g id="edge3_Node000002_Node000004" class="edge">
<title>Node2&#45;&gt;Node4</title>
<g id="a_edge3_Node000002_Node000004"><a xlink:title=" ">
<path fill="none" stroke="#63b8ff" d="M324.91,-116.07C333.91,-118.41 343.11,-120.81 352.15,-123.17"/>
<polygon fill="#63b8ff" stroke="#63b8ff" points="351.32,-126.57 361.88,-125.7 353.09,-119.79 351.32,-126.57"/>
</a>
</g>
</g>
<!-- Node5 -->
<g id="Node000005" class="node">
<title>Node5</title>
<g id="a_Node000005"><a xlink:href="namespacealpaqa_1_1casadi__loader.html#aff26ceb374addcf6ae66ee1e4658fcff" target="_top" xlink:title=" ">
<polygon fill="white" stroke="#666666" points="667,-88.5 544,-88.5 544,-58.5 667,-58.5 667,-88.5"/>
<text text-anchor="start" x="552" y="-76.5" font-family="Helvetica,sans-Serif" font-size="10.00">alpaqa::casadi_loader</text>
<text text-anchor="middle" x="605.5" y="-65.5" font-family="Helvetica,sans-Serif" font-size="10.00">::wrap_load</text>
</a>
</g>
</g>
<!-- Node2&#45;&gt;Node5 -->
<g id="edge4_Node000002_Node000005" class="edge">
<title>Node2&#45;&gt;Node5</title>
<g id="a_edge4_Node000002_Node000005"><a xlink:title=" ">
<path fill="none" stroke="#63b8ff" d="M326.01,-90.59C388.34,-86.77 474.04,-81.51 533.85,-77.84"/>
<polygon fill="#63b8ff" stroke="#63b8ff" points="534.19,-81.32 543.96,-77.22 533.77,-74.33 534.19,-81.32"/>
</a>
</g>
</g>
<!-- Node7 -->
<g id="Node000007" class="node">
<title>Node7</title>
<g id="a_Node000007"><a xlink:href="namespacealpaqa_1_1casadi__loader.html#a001ff3b26defa1201f68a339a2c5d768" target="_top" xlink:title=" ">
<polygon fill="white" stroke="#666666" points="496.5,-67.5 373.5,-67.5 373.5,-37.5 496.5,-37.5 496.5,-67.5"/>
<text text-anchor="start" x="381.5" y="-55.5" font-family="Helvetica,sans-Serif" font-size="10.00">alpaqa::casadi_loader</text>
<text text-anchor="middle" x="435" y="-44.5" font-family="Helvetica,sans-Serif" font-size="10.00">::wrapped_load</text>
</a>
</g>
</g>
<!-- Node2&#45;&gt;Node7 -->
<g id="edge6_Node000002_Node000007" class="edge">
<title>Node2&#45;&gt;Node7</title>
<g id="a_edge6_Node000002_Node000007"><a xlink:title=" ">
<path fill="none" stroke="#63b8ff" d="M326,-77.2C338.42,-74.36 351.16,-71.45 363.35,-68.66"/>
<polygon fill="#63b8ff" stroke="#63b8ff" points="364.47,-71.99 373.44,-66.35 362.91,-65.17 364.47,-71.99"/>
</a>
</g>
</g>
<!-- Node6 -->
<g id="Node000006" class="node">
<title>Node6</title>
<g id="a_Node000006"><a xlink:href="demangled-typename_8cpp.html#a994032931a27ca4de5eea3f786057b17" target="_top" xlink:title="Get the pretty name of the given type as a string.">
<polygon fill="white" stroke="#666666" points="829,-83 703,-83 703,-64 829,-64 829,-83"/>
<text text-anchor="middle" x="766" y="-71" font-family="Helvetica,sans-Serif" font-size="10.00">demangled_typename</text>
</a>
</g>
</g>
<!-- Node5&#45;&gt;Node6 -->
<g id="edge5_Node000005_Node000006" class="edge">
<title>Node5&#45;&gt;Node6</title>
<g id="a_edge5_Node000005_Node000006"><a xlink:title=" ">
<path fill="none" stroke="#63b8ff" d="M667.33,-73.5C675.58,-73.5 684.12,-73.5 692.55,-73.5"/>
<polygon fill="#63b8ff" stroke="#63b8ff" points="692.76,-77 702.76,-73.5 692.76,-70 692.76,-77"/>
</a>
</g>
</g>
<!-- Node7&#45;&gt;Node5 -->
<g id="edge7_Node000007_Node000005" class="edge">
<title>Node7&#45;&gt;Node5</title>
<g id="a_edge7_Node000007_Node000005"><a xlink:title=" ">
<path fill="none" stroke="#63b8ff" d="M496.83,-60.08C508.76,-61.57 521.37,-63.14 533.6,-64.66"/>
<polygon fill="#63b8ff" stroke="#63b8ff" points="533.4,-68.17 543.76,-65.93 534.27,-61.22 533.4,-68.17"/>
</a>
</g>
</g>
<!-- Node9 -->
<g id="Node000009" class="node">
<title>Node9</title>
<g id="a_Node000009"><a xlink:href="namespacealpaqa_1_1csv.html#a9e26a8f48527f00e7b73974c398c008a" target="_top" xlink:title=" ">
<polygon fill="white" stroke="#666666" points="496,-19 374,-19 374,0 496,0 496,-19"/>
<text text-anchor="middle" x="435" y="-7" font-family="Helvetica,sans-Serif" font-size="10.00">alpaqa::csv::read_row</text>
</a>
</g>
</g>
<!-- Node8&#45;&gt;Node9 -->
<g id="edge9_Node000008_Node000009" class="edge">
<title>Node8&#45;&gt;Node9</title>
<g id="a_edge9_Node000008_Node000009"><a xlink:title=" ">
<path fill="none" stroke="#63b8ff" d="M304.71,-22.57C323.43,-20.67 344.33,-18.56 363.77,-16.6"/>
<polygon fill="#63b8ff" stroke="#63b8ff" points="364.19,-20.07 373.79,-15.59 363.49,-13.11 364.19,-20.07"/>
</a>
</g>
</g>
</g>
</svg>

<g id="navigator" transform="translate(0 0)" fill="#404254">
  <rect fill="#f2f5e9" fill-opacity="0.5" stroke="#606060" stroke-width=".5" x="0" y="0" width="60" height="60"/>
  <use id="zoomplus" xlink:href="#zoomPlus" x="17" y="9" onmousedown="handleZoom(evt,'in')"/>
  <use id="zoomminus" xlink:href="#zoomMin" x="42" y="9" onmousedown="handleZoom(evt,'out')"/>
  <use id="reset" xlink:href="#resetDef" x="30" y="36" onmousedown="handleReset()"/>
   <use id="arrowup" xlink:href="#arrowUp" x="0" y="0" onmousedown="handlePan(0,-1)"/>
  <use id="arrowright" xlink:href="#arrowRight" x="0" y="0" onmousedown="handlePan(1,0)"/>
  <use id="arrowdown" xlink:href="#arrowDown" x="0" y="0" onmousedown="handlePan(0,1)"/>
  <use id="arrowleft" xlink:href="#arrowLeft" x="0" y="0" onmousedown="handlePan(-1,0)"/>
</g>
<svg viewBox="0 0 15 15" width="100%" height="30px" preserveAspectRatio="xMaxYMin meet">
 <g id="arrow_out" transform="scale(0.3 0.3)">
  <a xlink:href="classalpaqa_1_1CasADiControlProblem_aec943d4cc9c1bbfc4d4b7244f9390d08_cgraph_org.svg" target="_base">
   <rect id="button" ry="5" rx="5" y="6" x="6" height="38" width="38"
        fill="#f2f5e9" fill-opacity="0.5" stroke="#606060" stroke-width="1.0"/>
   <path id="arrow"
     d="M 11.500037,31.436501 C 11.940474,20.09759 22.043105,11.32322 32.158766,21.979434 L 37.068811,17.246167 C 37.068811,17.246167 37.088388,32 37.088388,32 L 22.160133,31.978069 C 22.160133,31.978069 26.997745,27.140456 26.997745,27.140456 C 18.528582,18.264221 13.291696,25.230495 11.500037,31.436501 z"
     style="fill:#404040;"/>
  </a>
 </g>
</svg>

<style type='text/css'>
<![CDATA[
[data-mouse-over-selected='false'] { opacity: 0.7; }
[data-mouse-over-selected='true']  { opacity: 1.0; }
]]>
</style>
<script type="application/ecmascript"><![CDATA[
document.addEventListener('DOMContentLoaded', (event) => {
  highlightEdges();
  highlightAdjacentNodes();
});
]]></script>
</svg>
