<?xml version="1.0" encoding="UTF-8" standalone="no"?>
<!DOCTYPE svg PUBLIC "-//W3C//DTD SVG 1.1//EN"
 "http://www.w3.org/Graphics/SVG/1.1/DTD/svg11.dtd">
<!-- Generated by graphviz version 2.43.0 (0)
 -->
<!-- Title: sparse_add_masked Pages: 1 -->
<svg width="450pt" height="73pt"
 viewBox="0.00 0.00 450.00 72.50" xmlns="http://www.w3.org/2000/svg" xmlns:xlink="http://www.w3.org/1999/xlink">

<svg id="main" version="1.1" xmlns="http://www.w3.org/2000/svg" xmlns:xlink="http://www.w3.org/1999/xlink" xml:space="preserve" onload="init(evt)">
<style type="text/css"><![CDATA[
.node, .edge {opacity: 0.7;}
.node.selected, .edge.selected {opacity: 1;}
.edge:hover path { stroke: red; }
.edge:hover polygon { stroke: red; fill: red; }
]]></style>
<script type="application/ecmascript" xlink:href="svg.min.js"/>
<svg id="graph" class="graph">
<g id="graph0" class="graph" transform="scale(1 1) rotate(0) translate(4 68.5)">
<title>sparse_add_masked</title>
<!-- Node1 -->
<g id="Node000001" class="node">
<title>Node1</title>
<g id="a_Node000001"><a xlink:title="R += R_full(mask,mask)">
<polygon fill="#999999" stroke="#666666" points="116,-45.5 0,-45.5 0,-26.5 116,-26.5 116,-45.5"/>
<text text-anchor="middle" x="58" y="-33.5" font-family="Helvetica,sans-Serif" font-size="10.00">sparse_add_masked</text>
</a>
</g>
</g>
<!-- Node2 -->
<g id="Node000002" class="node">
<title>Node2</title>
<g id="a_Node000002"><a xlink:href="namespacealpaqa_1_1util.html#aa341d471c192fc72207643cd7057e260" target="_top" xlink:title=" ">
<polygon fill="white" stroke="#666666" points="419,-64.5 349,-64.5 349,-45.5 419,-45.5 419,-64.5"/>
<text text-anchor="middle" x="384" y="-52.5" font-family="Helvetica,sans-Serif" font-size="10.00">enumerate</text>
</a>
</g>
</g>
<!-- Node1&#45;&gt;Node2 -->
<g id="edge1_Node000001_Node000002" class="edge">
<title>Node1&#45;&gt;Node2</title>
<g id="a_edge1_Node000001_Node000002"><a xlink:title=" ">
<path fill="none" stroke="#63b8ff" d="M116.18,-39.35C179.63,-43.07 280.67,-49 338.5,-52.39"/>
<polygon fill="#63b8ff" stroke="#63b8ff" points="338.59,-55.9 348.77,-52.99 338.99,-48.91 338.59,-55.9"/>
</a>
</g>
</g>
<!-- Node3 -->
<g id="Node000003" class="node">
<title>Node3</title>
<g id="a_Node000003"><a xlink:href="namespacealpaqa_1_1util_1_1detail.html#a619596647bd12dfb15417042bcdef056" target="_top" xlink:title="Like select_rows_in_col, but returns a range of tuples containing the Eigen InnerIterator and a linea...">
<polygon fill="white" stroke="#666666" points="290,-30 152,-30 152,0 290,0 290,-30"/>
<text text-anchor="start" x="160" y="-18" font-family="Helvetica,sans-Serif" font-size="10.00">alpaqa::util::detail</text>
<text text-anchor="middle" x="221" y="-7" font-family="Helvetica,sans-Serif" font-size="10.00">::select_rows_in_col_iota</text>
</a>
</g>
</g>
<!-- Node1&#45;&gt;Node3 -->
<g id="edge2_Node000001_Node000003" class="edge">
<title>Node1&#45;&gt;Node3</title>
<g id="a_edge2_Node000001_Node000003"><a xlink:title=" ">
<path fill="none" stroke="#63b8ff" d="M116.22,-28.54C124.53,-27.45 133.21,-26.32 141.85,-25.19"/>
<polygon fill="#63b8ff" stroke="#63b8ff" points="142.49,-28.64 151.95,-23.88 141.59,-21.7 142.49,-28.64"/>
</a>
</g>
</g>
<!-- Node3&#45;&gt;Node2 -->
<g id="edge3_Node000003_Node000002" class="edge">
<title>Node3&#45;&gt;Node2</title>
<g id="a_edge3_Node000003_Node000002"><a xlink:title=" ">
<path fill="none" stroke="#63b8ff" d="M282.41,-30.01C301.2,-34.68 321.56,-39.74 339.01,-44.07"/>
<polygon fill="#63b8ff" stroke="#63b8ff" points="338.37,-47.52 348.92,-46.53 340.06,-40.73 338.37,-47.52"/>
</a>
</g>
</g>
<!-- Node4 -->
<g id="Node000004" class="node">
<title>Node4</title>
<g id="a_Node000004"><a xlink:href="namespacealpaqa_1_1util.html#afddf99e09d9dad4ee17b5f41705c583a" target="_top" xlink:title=" ">
<polygon fill="white" stroke="#666666" points="442,-24.5 326,-24.5 326,-5.5 442,-5.5 442,-24.5"/>
<text text-anchor="middle" x="384" y="-12.5" font-family="Helvetica,sans-Serif" font-size="10.00">iter_set_intersection</text>
</a>
</g>
</g>
<!-- Node3&#45;&gt;Node4 -->
<g id="edge4_Node000003_Node000004" class="edge">
<title>Node3&#45;&gt;Node4</title>
<g id="a_edge4_Node000003_Node000004"><a xlink:title=" ">
<path fill="none" stroke="#63b8ff" d="M290.28,-15C298.69,-15 307.28,-15 315.67,-15"/>
<polygon fill="#63b8ff" stroke="#63b8ff" points="315.79,-18.5 325.79,-15 315.79,-11.5 315.79,-18.5"/>
</a>
</g>
</g>
</g>
</svg>
</svg>

<style type='text/css'>
<![CDATA[
[data-mouse-over-selected='false'] { opacity: 0.7; }
[data-mouse-over-selected='true']  { opacity: 1.0; }
]]>
</style>
<script type="application/ecmascript"><![CDATA[
document.addEventListener('DOMContentLoaded', (event) => {
  highlightEdges();
  highlightAdjacentNodes();
});
]]></script>
</svg>
