<?xml version="1.0" encoding="UTF-8" standalone="no"?>
<!DOCTYPE svg PUBLIC "-//W3C//DTD SVG 1.1//EN"
 "http://www.w3.org/Graphics/SVG/1.1/DTD/svg11.dtd">
<!-- Generated by graphviz version 2.43.0 (0)
 -->
<!-- Title: join Pages: 1 -->
<!--zoomable 589 -->

<svg id="main" version="1.1" xmlns="http://www.w3.org/2000/svg" xmlns:xlink="http://www.w3.org/1999/xlink" xml:space="preserve" onload="init(evt)">
<style type="text/css"><![CDATA[
.node, .edge {opacity: 0.7;}
.node.selected, .edge.selected {opacity: 1;}
.edge:hover path { stroke: red; }
.edge:hover polygon { stroke: red; fill: red; }
]]></style>

<defs>
  <circle id="rim" cx="0" cy="0" r="7"/>
  <circle id="rim2" cx="0" cy="0" r="3.5"/>
  <g id="zoomPlus">
    <use xlink:href="#rim" fill="#404040"><set attributeName="fill" to="#808080" begin="zoomplus.mouseover" end="zoomplus.mouseout"/></use>
    <path d="M-4,0h8M0,-4v8" fill="none" stroke="white" stroke-width="1.5" pointer-events="none"/>
  </g>
  <g id="zoomMin">
    <use xlink:href="#rim" fill="#404040"><set attributeName="fill" to="#808080" begin="zoomminus.mouseover" end="zoomminus.mouseout"/></use>
    <path d="M-4,0h8" fill="none" stroke="white" stroke-width="1.5" pointer-events="none"/>
  </g>
  <g id="arrowUp" transform="translate(30 24)">
    <use xlink:href="#rim"/>
    <path pointer-events="none" fill="none" stroke="white" stroke-width="1.5" d="M0,-3.0v7 M-2.5,-0.5L0,-3.0L2.5,-0.5"/>
  </g>
  <g id="arrowRight" transform="rotate(90) translate(36 -43)">
    <use xlink:href="#rim"/>
    <path pointer-events="none" fill="none" stroke="white" stroke-width="1.5" d="M0,-3.0v7 M-2.5,-0.5L0,-3.0L2.5,-0.5"/>
  </g>
  <g id="arrowDown" transform="rotate(180) translate(-30 -48)">
    <use xlink:href="#rim"/>
    <path pointer-events="none" fill="none" stroke="white" stroke-width="1.5" d="M0,-3.0v7 M-2.5,-0.5L0,-3.0L2.5,-0.5"/>
  </g>
  <g id="arrowLeft" transform="rotate(270) translate(-36 17)">
    <use xlink:href="#rim"/>
    <path pointer-events="none" fill="none" stroke="white" stroke-width="1.5" d="M0,-3.0v7 M-2.5,-0.5L0,-3.0L2.5,-0.5"/>
  </g>
  <g id="resetDef">
    <use xlink:href="#rim2" fill="#404040"><set attributeName="fill" to="#808080" begin="reset.mouseover" end="reset.mouseout"/></use>
  </g>
</defs>
<script type="application/ecmascript">
var viewWidth = 1020;
var viewHeight = 589;
var sectionId = 'dynsection-29';
</script>
<script type="application/ecmascript" xlink:href="svg.min.js"/>
<svg id="graph" class="graph">
<g id="viewport">
<title>join</title>
<!-- Node1 -->
<g id="Node000001" class="node">
<title>Node1</title>
<g id="a_Node000001"><a xlink:title="Join the list of strings into a single string, using the separator given by opt.">
<polygon fill="#999999" stroke="#666666" points="1012,-105.5 977,-105.5 977,-86.5 1012,-86.5 1012,-105.5"/>
<text text-anchor="middle" x="994.5" y="-93.5" font-family="Helvetica,sans-Serif" font-size="10.00">join</text>
</a>
</g>
</g>
<!-- Node2 -->
<g id="Node000002" class="node">
<title>Node2</title>
<g id="a_Node000002"><a xlink:href="alpaqa-driver_8cpp.html#a3430011226186bf05d5c2552270587b7" target="_top" xlink:title=" ">
<polygon fill="white" stroke="#666666" points="300,-580.5 193,-580.5 193,-561.5 300,-561.5 300,-580.5"/>
<text text-anchor="middle" x="246.5" y="-568.5" font-family="Helvetica,sans-Serif" font-size="10.00">get_solver_builder</text>
</a>
</g>
</g>
<!-- Node1&#45;&gt;Node2 -->
<g id="edge1_Node000001_Node000002" class="edge">
<title>Node1&#45;&gt;Node2</title>
<g id="a_edge1_Node000001_Node000002"><a xlink:title=" ">
<path fill="none" stroke="#63b8ff" d="M991.54,-115.61C981.63,-202.81 929.2,-551 723.5,-551 723.5,-551 723.5,-551 545.5,-551 459.42,-551 359.68,-559.41 300.18,-565.32"/>
<polygon fill="#63b8ff" stroke="#63b8ff" points="995.03,-115.82 992.62,-105.5 988.07,-115.07 995.03,-115.82"/>
</a>
</g>
</g>
<!-- Node4 -->
<g id="Node000004" class="node">
<title>Node4</title>
<g id="a_Node000004"><a xlink:href="namespacealpaqa_1_1params_1_1detail.html#a6aa41a8827ffd36b3e2a8e7346a44f19" target="_top" xlink:title=" ">
<polygon fill="white" stroke="#666666" points="941,-229 815,-229 815,-199 941,-199 941,-229"/>
<text text-anchor="start" x="823" y="-217" font-family="Helvetica,sans-Serif" font-size="10.00">alpaqa::params::detail</text>
<text text-anchor="middle" x="878" y="-206" font-family="Helvetica,sans-Serif" font-size="10.00">::join_sorted_keys</text>
</a>
</g>
</g>
<!-- Node1&#45;&gt;Node4 -->
<g id="edge3_Node000001_Node000004" class="edge">
<title>Node1&#45;&gt;Node4</title>
<g id="a_edge3_Node000001_Node000004"><a xlink:title=" ">
<path fill="none" stroke="#63b8ff" d="M977.01,-112.99C954.7,-135.98 915.24,-176.65 893.83,-198.72"/>
<polygon fill="#63b8ff" stroke="#63b8ff" points="979.68,-115.27 984.13,-105.66 974.65,-110.4 979.68,-115.27"/>
</a>
</g>
</g>
<!-- Node19 -->
<g id="Node000019" class="node">
<title>Node19</title>
<g id="a_Node000019"><a xlink:href="namespaceanonymous__namespace_02panoc-driver_8cpp_03.html#ab2ca1091ea82102367666b62756cd7f6" target="_top" xlink:title=" ">
<polygon fill="white" stroke="#666666" points="140,-202.5 0,-202.5 0,-161.5 140,-161.5 140,-202.5"/>
<text text-anchor="start" x="8" y="-190.5" font-family="Helvetica,sans-Serif" font-size="10.00">anonymous_namespace</text>
<text text-anchor="start" x="8" y="-179.5" font-family="Helvetica,sans-Serif" font-size="10.00">{panoc&#45;driver::cpp}</text>
<text text-anchor="middle" x="70" y="-168.5" font-family="Helvetica,sans-Serif" font-size="10.00">::make_panoc_like_driver</text>
</a>
</g>
</g>
<!-- Node1&#45;&gt;Node19 -->
<g id="edge32_Node000001_Node000019" class="edge">
<title>Node1&#45;&gt;Node19</title>
<g id="a_edge32_Node000001_Node000019"><a xlink:title=" ">
<path fill="none" stroke="#63b8ff" d="M966.46,-96C917.84,-96 812.43,-96 723.5,-96 723.5,-96 723.5,-96 389,-96 289.2,-96 177.7,-135.96 116.82,-161.4"/>
<polygon fill="#63b8ff" stroke="#63b8ff" points="966.75,-99.5 976.75,-96 966.75,-92.5 966.75,-99.5"/>
</a>
</g>
</g>
<!-- Node20 -->
<g id="Node000020" class="node">
<title>Node20</title>
<g id="a_Node000020"><a xlink:href="namespaceanonymous__namespace_02pantr-driver_8cpp_03.html#a39b6aa8ff07d8400d404f191bdccd499" target="_top" xlink:title=" ">
<polygon fill="white" stroke="#666666" points="139,-143.5 1,-143.5 1,-102.5 139,-102.5 139,-143.5"/>
<text text-anchor="start" x="9" y="-131.5" font-family="Helvetica,sans-Serif" font-size="10.00">anonymous_namespace</text>
<text text-anchor="start" x="9" y="-120.5" font-family="Helvetica,sans-Serif" font-size="10.00">{pantr&#45;driver::cpp}</text>
<text text-anchor="middle" x="70" y="-109.5" font-family="Helvetica,sans-Serif" font-size="10.00">::make_pantr_like_solver</text>
</a>
</g>
</g>
<!-- Node1&#45;&gt;Node20 -->
<g id="edge33_Node000001_Node000020" class="edge">
<title>Node1&#45;&gt;Node20</title>
<g id="a_edge33_Node000001_Node000020"><a xlink:title=" ">
<path fill="none" stroke="#63b8ff" d="M966.81,-88.05C958.59,-85.83 949.47,-83.59 941,-82 845.41,-64.09 820.75,-58 723.5,-58 723.5,-58 723.5,-58 389,-58 293.73,-58 268.48,-59.15 176,-82 155.77,-87 134.2,-94.93 115.9,-102.5"/>
<polygon fill="#63b8ff" stroke="#63b8ff" points="966.05,-91.47 976.62,-90.81 967.94,-84.73 966.05,-91.47"/>
</a>
</g>
</g>
<!-- Node24 -->
<g id="Node000024" class="node">
<title>Node24</title>
<g id="a_Node000024"><a xlink:href="namespacealpaqa_1_1params.html#a69b913c0b571487490ebb19fc9120021" target="_top" xlink:title="Use s to index into the struct type T and overwrite the attribute given by s.key.">
<polygon fill="white" stroke="#666666" points="934.5,-30 821.5,-30 821.5,0 934.5,0 934.5,-30"/>
<text text-anchor="start" x="829.5" y="-18" font-family="Helvetica,sans-Serif" font-size="10.00">alpaqa::params::set</text>
<text text-anchor="middle" x="878" y="-7" font-family="Helvetica,sans-Serif" font-size="10.00">_param</text>
</a>
</g>
</g>
<!-- Node1&#45;&gt;Node24 -->
<g id="edge34_Node000001_Node000024" class="edge">
<title>Node1&#45;&gt;Node24</title>
<g id="a_edge34_Node000001_Node000024"><a xlink:title=" ">
<path fill="none" stroke="#63b8ff" d="M978.67,-78.5C968.8,-67.6 955.09,-53.83 941,-44 933.5,-38.77 924.9,-34.06 916.54,-30.03"/>
<polygon fill="#63b8ff" stroke="#63b8ff" points="976.19,-80.97 985.42,-86.16 981.44,-76.34 976.19,-80.97"/>
</a>
</g>
</g>
<!-- Node3 -->
<g id="Node000003" class="node">
<title>Node3</title>
<g id="a_Node000003"><a xlink:href="alpaqa-driver_8cpp.html#ac0f2228420376f4db7e1274f2b41667c" target="_top" xlink:title=" ">
<polygon fill="white" stroke="#666666" points="90.5,-543.5 49.5,-543.5 49.5,-524.5 90.5,-524.5 90.5,-543.5"/>
<text text-anchor="middle" x="70" y="-531.5" font-family="Helvetica,sans-Serif" font-size="10.00">main</text>
</a>
</g>
</g>
<!-- Node2&#45;&gt;Node3 -->
<g id="edge2_Node000002_Node000003" class="edge">
<title>Node2&#45;&gt;Node3</title>
<g id="a_edge2_Node000002_Node000003"><a xlink:title=" ">
<path fill="none" stroke="#63b8ff" d="M190.71,-559.38C156.58,-552.15 114.73,-543.27 90.64,-538.16"/>
<polygon fill="#63b8ff" stroke="#63b8ff" points="190.05,-562.82 200.56,-561.47 191.51,-555.97 190.05,-562.82"/>
</a>
</g>
</g>
<!-- Node5 -->
<g id="Node000005" class="node">
<title>Node5</title>
<g id="a_Node000005"><a xlink:href="namespacealpaqa_1_1params.html#af3ba03bed80f69ff9920df80e5223601" target="_top" xlink:title="Update/overwrite the first argument based on the JSON object j.">
<polygon fill="white" stroke="#666666" points="779,-304 666,-304 666,-274 779,-274 779,-304"/>
<text text-anchor="start" x="674" y="-292" font-family="Helvetica,sans-Serif" font-size="10.00">alpaqa::params::set</text>
<text text-anchor="middle" x="722.5" y="-281" font-family="Helvetica,sans-Serif" font-size="10.00">_param</text>
</a>
</g>
</g>
<!-- Node4&#45;&gt;Node5 -->
<g id="edge4_Node000004_Node000005" class="edge">
<title>Node4&#45;&gt;Node5</title>
<g id="a_edge4_Node000004_Node000005"><a xlink:title=" ">
<path fill="none" stroke="#63b8ff" d="M836.78,-233.65C810.97,-246.26 777.97,-262.39 754.25,-273.97"/>
<polygon fill="#63b8ff" stroke="#63b8ff" points="838.49,-236.71 845.94,-229.18 835.42,-230.42 838.49,-236.71"/>
</a>
</g>
</g>
<!-- Node6 -->
<g id="Node000006" class="node">
<title>Node6</title>
<g id="a_Node000006"><a xlink:href="structalpaqa_1_1params_1_1attribute__accessor_3_01T_00_01ParamString_01_4.html#aa6f62869fdc9832ff01b77ecfcfed9c5" target="_top" xlink:title=" ">
<polygon fill="white" stroke="#666666" points="620,-368.5 473,-368.5 473,-327.5 620,-327.5 620,-368.5"/>
<text text-anchor="start" x="481" y="-356.5" font-family="Helvetica,sans-Serif" font-size="10.00">alpaqa::params::attribute</text>
<text text-anchor="start" x="481" y="-345.5" font-family="Helvetica,sans-Serif" font-size="10.00">_accessor&lt; T, ParamString</text>
<text text-anchor="middle" x="546.5" y="-334.5" font-family="Helvetica,sans-Serif" font-size="10.00"> &gt;::attribute_accessor</text>
</a>
</g>
</g>
<!-- Node5&#45;&gt;Node6 -->
<g id="edge5_Node000005_Node000006" class="edge">
<title>Node5&#45;&gt;Node6</title>
<g id="a_edge5_Node000005_Node000006"><a xlink:title=" ">
<path fill="none" stroke="#63b8ff" d="M667.55,-307.29C648.74,-313.67 627.51,-320.87 608.19,-327.42"/>
<polygon fill="#63b8ff" stroke="#63b8ff" points="668.8,-310.57 677.14,-304.04 666.55,-303.94 668.8,-310.57"/>
</a>
</g>
</g>
<!-- Node7 -->
<g id="Node000007" class="node">
<title>Node7</title>
<g id="a_Node000007"><a xlink:href="structalpaqa_1_1params_1_1attribute__accessor_3_01T_00_01json_01_4.html#aa6f62869fdc9832ff01b77ecfcfed9c5" target="_top" xlink:title=" ">
<polygon fill="white" stroke="#666666" points="630,-309.5 463,-309.5 463,-268.5 630,-268.5 630,-309.5"/>
<text text-anchor="start" x="471" y="-297.5" font-family="Helvetica,sans-Serif" font-size="10.00">alpaqa::params::attribute</text>
<text text-anchor="start" x="471" y="-286.5" font-family="Helvetica,sans-Serif" font-size="10.00">_accessor&lt; T, json &gt;::attribute</text>
<text text-anchor="middle" x="546.5" y="-275.5" font-family="Helvetica,sans-Serif" font-size="10.00">_accessor</text>
</a>
</g>
</g>
<!-- Node5&#45;&gt;Node7 -->
<g id="edge6_Node000005_Node000007" class="edge">
<title>Node5&#45;&gt;Node7</title>
<g id="a_edge6_Node000005_Node000007"><a xlink:title=" ">
<path fill="none" stroke="#63b8ff" d="M655.86,-289C647.44,-289 638.74,-289 630.09,-289"/>
<polygon fill="#63b8ff" stroke="#63b8ff" points="655.97,-292.5 665.97,-289 655.97,-285.5 655.97,-292.5"/>
</a>
</g>
</g>
<!-- Node8 -->
<g id="Node000008" class="node">
<title>Node8</title>
<g id="a_Node000008"><a xlink:href="namespacealpaqa_1_1params.html#af8d85f5413c4507303b00e5fb7279aea" target="_top" xlink:title=" ">
<polygon fill="white" stroke="#666666" points="603,-250 490,-250 490,-220 603,-220 603,-250"/>
<text text-anchor="start" x="498" y="-238" font-family="Helvetica,sans-Serif" font-size="10.00">alpaqa::params::set</text>
<text text-anchor="middle" x="546.5" y="-227" font-family="Helvetica,sans-Serif" font-size="10.00">_param</text>
</a>
</g>
</g>
<!-- Node5&#45;&gt;Node8 -->
<g id="edge7_Node000005_Node000008" class="edge">
<title>Node5&#45;&gt;Node8</title>
<g id="a_edge7_Node000005_Node000008"><a xlink:title=" ">
<path fill="none" stroke="#63b8ff" d="M664.96,-270.96C653.4,-267.3 641.32,-263.51 630,-260 619.56,-256.77 608.37,-253.34 597.7,-250.1"/>
<polygon fill="#63b8ff" stroke="#63b8ff" points="663.93,-274.3 674.52,-273.98 666.04,-267.63 663.93,-274.3"/>
</a>
</g>
</g>
<!-- Node9 -->
<g id="Node000009" class="node">
<title>Node9</title>
<g id="a_Node000009"><a xlink:href="namespacealpaqa_1_1params.html#a257fd29e6f4f447cb00eb1f8affdebec" target="_top" xlink:title=" ">
<polygon fill="white" stroke="#666666" points="603,-202 490,-202 490,-172 603,-172 603,-202"/>
<text text-anchor="start" x="498" y="-190" font-family="Helvetica,sans-Serif" font-size="10.00">alpaqa::params::set</text>
<text text-anchor="middle" x="546.5" y="-179" font-family="Helvetica,sans-Serif" font-size="10.00">_param</text>
</a>
</g>
</g>
<!-- Node5&#45;&gt;Node9 -->
<g id="edge8_Node000005_Node000009" class="edge">
<title>Node5&#45;&gt;Node9</title>
<g id="a_edge8_Node000005_Node000009"><a xlink:title=" ">
<path fill="none" stroke="#63b8ff" d="M700.39,-266.38C683.01,-248.98 656.93,-225.52 630,-211 621.73,-206.54 612.53,-202.82 603.37,-199.75"/>
<polygon fill="#63b8ff" stroke="#63b8ff" points="698.25,-269.19 707.74,-273.9 703.25,-264.3 698.25,-269.19"/>
</a>
</g>
</g>
<!-- Node10 -->
<g id="Node000010" class="node">
<title>Node10</title>
<g id="a_Node000010"><a xlink:href="namespacealpaqa_1_1params.html#a09b0cea46e22a098adb003df71cfbe14" target="_top" xlink:title=" ">
<polygon fill="white" stroke="#666666" points="603,-154 490,-154 490,-124 603,-124 603,-154"/>
<text text-anchor="start" x="498" y="-142" font-family="Helvetica,sans-Serif" font-size="10.00">alpaqa::params::set</text>
<text text-anchor="middle" x="546.5" y="-131" font-family="Helvetica,sans-Serif" font-size="10.00">_param</text>
</a>
</g>
</g>
<!-- Node5&#45;&gt;Node10 -->
<g id="edge9_Node000005_Node000010" class="edge">
<title>Node5&#45;&gt;Node10</title>
<g id="a_edge9_Node000005_Node000010"><a xlink:title=" ">
<path fill="none" stroke="#63b8ff" d="M709.95,-264.37C695.3,-235.81 667.39,-189.29 630,-163 621.95,-157.34 612.56,-153 603.07,-149.68"/>
<polygon fill="#63b8ff" stroke="#63b8ff" points="706.98,-266.27 714.57,-273.67 713.25,-263.15 706.98,-266.27"/>
</a>
</g>
</g>
<!-- Node11 -->
<g id="Node000011" class="node">
<title>Node11</title>
<g id="a_Node000011"><a xlink:href="namespacealpaqa_1_1params.html#ac4f7014f0993230c417d5f192b784f6a" target="_top" xlink:title=" ">
<polygon fill="white" stroke="#666666" points="603,-503 490,-503 490,-473 603,-473 603,-503"/>
<text text-anchor="start" x="498" y="-491" font-family="Helvetica,sans-Serif" font-size="10.00">alpaqa::params::set</text>
<text text-anchor="middle" x="546.5" y="-480" font-family="Helvetica,sans-Serif" font-size="10.00">_param</text>
</a>
</g>
</g>
<!-- Node5&#45;&gt;Node11 -->
<g id="edge10_Node000005_Node000011" class="edge">
<title>Node5&#45;&gt;Node11</title>
<g id="a_edge10_Node000005_Node000011"><a xlink:title=" ">
<path fill="none" stroke="#63b8ff" d="M715.23,-314C704.39,-352.06 678.5,-424.3 630,-464 622.27,-470.33 612.93,-474.99 603.36,-478.42"/>
<polygon fill="#63b8ff" stroke="#63b8ff" points="718.64,-314.79 717.9,-304.22 711.89,-312.95 718.64,-314.79"/>
</a>
</g>
</g>
<!-- Node12 -->
<g id="Node000012" class="node">
<title>Node12</title>
<g id="a_Node000012"><a xlink:href="options_8hpp.html#a15ce06eb1492a582a4abe2ddd5e7f8a1" target="_top" xlink:title=" ">
<polygon fill="white" stroke="#666666" points="427,-406.5 353,-406.5 353,-387.5 427,-387.5 427,-406.5"/>
<text text-anchor="middle" x="390" y="-394.5" font-family="Helvetica,sans-Serif" font-size="10.00">set_params</text>
</a>
</g>
</g>
<!-- Node5&#45;&gt;Node12 -->
<g id="edge11_Node000005_Node000012" class="edge">
<title>Node5&#45;&gt;Node12</title>
<g id="a_edge11_Node000005_Node000012"><a xlink:title=" ">
<path fill="none" stroke="#63b8ff" d="M705.08,-312.42C688.73,-333.63 661.58,-363.69 630,-378 563.46,-408.15 475.83,-405.89 427.3,-401.49"/>
<polygon fill="#63b8ff" stroke="#63b8ff" points="708.02,-314.32 711.2,-304.22 702.41,-310.14 708.02,-314.32"/>
</a>
</g>
</g>
<!-- Node23 -->
<g id="Node000023" class="node">
<title>Node23</title>
<g id="a_Node000023"><a xlink:href="namespacealpaqa_1_1params.html#abadc98653193fbd05b658d62b34f75e7" target="_top" xlink:title="Overwrites t based on the options that start with prefix.">
<polygon fill="white" stroke="#666666" points="603,-455 490,-455 490,-425 603,-425 603,-455"/>
<text text-anchor="start" x="498" y="-443" font-family="Helvetica,sans-Serif" font-size="10.00">alpaqa::params::set</text>
<text text-anchor="middle" x="546.5" y="-432" font-family="Helvetica,sans-Serif" font-size="10.00">_params</text>
</a>
</g>
</g>
<!-- Node5&#45;&gt;Node23 -->
<g id="edge30_Node000005_Node000023" class="edge">
<title>Node5&#45;&gt;Node23</title>
<g id="a_edge30_Node000005_Node000023"><a xlink:title=" ">
<path fill="none" stroke="#63b8ff" d="M709.26,-312.93C694.12,-340.29 665.91,-384.67 630,-411 621.92,-416.92 612.52,-421.72 603.02,-425.58"/>
<polygon fill="#63b8ff" stroke="#63b8ff" points="712.4,-314.48 714.06,-304.02 706.23,-311.17 712.4,-314.48"/>
</a>
</g>
</g>
<!-- Node12&#45;&gt;Node2 -->
<g id="edge16_Node000012_Node000002" class="edge">
<title>Node12&#45;&gt;Node2</title>
<g id="a_edge16_Node000012_Node000002"><a xlink:title=" ">
<path fill="none" stroke="#63b8ff" d="M385.54,-416.68C378.65,-449.93 359.99,-517.09 317,-553 312.03,-557.16 306.2,-560.36 300.09,-562.84"/>
<polygon fill="#63b8ff" stroke="#63b8ff" points="388.99,-417.28 387.45,-406.8 382.12,-415.96 388.99,-417.28"/>
</a>
</g>
</g>
<!-- Node13 -->
<g id="Node000013" class="node">
<title>Node13</title>
<g id="a_Node000013"><a xlink:href="alpaqa-driver_8cpp.html#a53c823aeddf0a1b037645504d26ee7cd" target="_top" xlink:title=" ">
<polygon fill="white" stroke="#666666" points="297,-506.5 196,-506.5 196,-487.5 297,-487.5 297,-506.5"/>
<text text-anchor="middle" x="246.5" y="-494.5" font-family="Helvetica,sans-Serif" font-size="10.00">get_output_paths</text>
</a>
</g>
</g>
<!-- Node12&#45;&gt;Node13 -->
<g id="edge12_Node000012_Node000013" class="edge">
<title>Node12&#45;&gt;Node13</title>
<g id="a_edge12_Node000012_Node000013"><a xlink:title=" ">
<path fill="none" stroke="#63b8ff" d="M377.9,-415.06C365.4,-433.85 343.36,-462.77 317,-479 310.95,-482.72 304.15,-485.68 297.23,-488.03"/>
<polygon fill="#63b8ff" stroke="#63b8ff" points="380.93,-416.81 383.39,-406.51 375.04,-413.03 380.93,-416.81"/>
</a>
</g>
</g>
<!-- Node14 -->
<g id="Node000014" class="node">
<title>Node14</title>
<g id="a_Node000014"><a xlink:href="alpaqa-driver_8cpp.html#a62667720f096806ed08c60e4207f8972" target="_top" xlink:title=" ">
<polygon fill="white" stroke="#666666" points="301,-543.5 192,-543.5 192,-524.5 301,-524.5 301,-543.5"/>
<text text-anchor="middle" x="246.5" y="-531.5" font-family="Helvetica,sans-Serif" font-size="10.00">get_output_stream</text>
</a>
</g>
</g>
<!-- Node12&#45;&gt;Node14 -->
<g id="edge14_Node000012_Node000014" class="edge">
<title>Node12&#45;&gt;Node14</title>
<g id="a_edge14_Node000012_Node000014"><a xlink:title=" ">
<path fill="none" stroke="#63b8ff" d="M382.55,-416.47C372.71,-443.07 351.38,-490.4 317,-516 312.2,-519.57 306.76,-522.44 301.08,-524.74"/>
<polygon fill="#63b8ff" stroke="#63b8ff" points="385.94,-417.36 385.96,-406.76 379.34,-415.03 385.94,-417.36"/>
</a>
</g>
</g>
<!-- Node15 -->
<g id="Node000015" class="node">
<title>Node15</title>
<g id="a_Node000015"><a xlink:href="namespaceanonymous__namespace_02problem_8cpp_03.html#ab42fb3dc0421d6c6c1f45d753a95a2c4" target="_top" xlink:title=" ">
<polygon fill="white" stroke="#666666" points="314,-316.5 179,-316.5 179,-275.5 314,-275.5 314,-316.5"/>
<text text-anchor="start" x="187" y="-304.5" font-family="Helvetica,sans-Serif" font-size="10.00">anonymous_namespace</text>
<text text-anchor="start" x="187" y="-293.5" font-family="Helvetica,sans-Serif" font-size="10.00">{problem::cpp}::load</text>
<text text-anchor="middle" x="246.5" y="-282.5" font-family="Helvetica,sans-Serif" font-size="10.00">_initial_guess</text>
</a>
</g>
</g>
<!-- Node12&#45;&gt;Node15 -->
<g id="edge17_Node000012_Node000015" class="edge">
<title>Node12&#45;&gt;Node15</title>
<g id="a_edge17_Node000012_Node000015"><a xlink:title=" ">
<path fill="none" stroke="#63b8ff" d="M367.46,-381.62C343.08,-364.22 303.26,-335.8 276.25,-316.52"/>
<polygon fill="#63b8ff" stroke="#63b8ff" points="365.52,-384.54 375.69,-387.5 369.58,-378.84 365.52,-384.54"/>
</a>
</g>
</g>
<!-- Node16 -->
<g id="Node000016" class="node">
<title>Node16</title>
<g id="a_Node000016"><a xlink:href="gradient-checker_8cpp.html#ac0f2228420376f4db7e1274f2b41667c" target="_top" xlink:title=" ">
<polygon fill="white" stroke="#666666" points="267,-257.5 226,-257.5 226,-238.5 267,-238.5 267,-257.5"/>
<text text-anchor="middle" x="246.5" y="-245.5" font-family="Helvetica,sans-Serif" font-size="10.00">main</text>
</a>
</g>
</g>
<!-- Node12&#45;&gt;Node16 -->
<g id="edge19_Node000012_Node000016" class="edge">
<title>Node12&#45;&gt;Node16</title>
<g id="a_edge19_Node000012_Node000016"><a xlink:title=" ">
<path fill="none" stroke="#63b8ff" d="M383.65,-377.86C374.69,-349.35 353.88,-295.97 317,-267 302.64,-255.72 282.05,-251.12 267.01,-249.26"/>
<polygon fill="#63b8ff" stroke="#63b8ff" points="380.31,-378.89 386.52,-387.47 387.01,-376.88 380.31,-378.89"/>
</a>
</g>
</g>
<!-- Node17 -->
<g id="Node000017" class="node">
<title>Node17</title>
<g id="a_Node000017"><a xlink:href="alm-driver_8hpp.html#ae4ef291d9ec9d55ee804b5723ea2e641" target="_top" xlink:title=" ">
<polygon fill="white" stroke="#666666" points="298,-181.5 195,-181.5 195,-162.5 298,-162.5 298,-181.5"/>
<text text-anchor="middle" x="246.5" y="-169.5" font-family="Helvetica,sans-Serif" font-size="10.00">make_alm_solver</text>
</a>
</g>
</g>
<!-- Node12&#45;&gt;Node17 -->
<g id="edge20_Node000012_Node000017" class="edge">
<title>Node12&#45;&gt;Node17</title>
<g id="a_edge20_Node000012_Node000017"><a xlink:title=" ">
<path fill="none" stroke="#63b8ff" d="M387.51,-377.53C383.44,-337.86 368.69,-247.1 317,-196 310.55,-189.63 302.34,-184.94 293.83,-181.5"/>
<polygon fill="#63b8ff" stroke="#63b8ff" points="384.02,-377.85 388.41,-387.5 391,-377.22 384.02,-377.85"/>
</a>
</g>
</g>
<!-- Node18 -->
<g id="Node000018" class="node">
<title>Node18</title>
<g id="a_Node000018"><a xlink:href="namespaceanonymous__namespace_02fista-driver_8cpp_03.html#a479d5f0dacbf404f04a694bb1be6f6c5" target="_top" xlink:title=" ">
<polygon fill="white" stroke="#666666" points="138.5,-383.5 1.5,-383.5 1.5,-342.5 138.5,-342.5 138.5,-383.5"/>
<text text-anchor="start" x="9.5" y="-371.5" font-family="Helvetica,sans-Serif" font-size="10.00">anonymous_namespace</text>
<text text-anchor="start" x="9.5" y="-360.5" font-family="Helvetica,sans-Serif" font-size="10.00">{fista&#45;driver::cpp}</text>
<text text-anchor="middle" x="70" y="-349.5" font-family="Helvetica,sans-Serif" font-size="10.00">::make_fista_driver_impl</text>
</a>
</g>
</g>
<!-- Node12&#45;&gt;Node18 -->
<g id="edge24_Node000012_Node000018" class="edge">
<title>Node12&#45;&gt;Node18</title>
<g id="a_edge24_Node000012_Node000018"><a xlink:title=" ">
<path fill="none" stroke="#63b8ff" d="M342.97,-387.26C334.37,-385.67 325.43,-384.16 317,-383 256.93,-374.74 188.11,-369.5 138.56,-366.47"/>
<polygon fill="#63b8ff" stroke="#63b8ff" points="342.39,-390.72 352.87,-389.16 343.71,-383.84 342.39,-390.72"/>
</a>
</g>
</g>
<!-- Node12&#45;&gt;Node19 -->
<g id="edge28_Node000012_Node000019" class="edge">
<title>Node12&#45;&gt;Node19</title>
<g id="a_edge28_Node000012_Node000019"><a xlink:title=" ">
<path fill="none" stroke="#63b8ff" d="M386.46,-377.15C380.82,-341.7 363.81,-267.72 317,-230 290.27,-208.47 203.08,-195.24 140.08,-188.27"/>
<polygon fill="#63b8ff" stroke="#63b8ff" points="383.02,-377.81 387.92,-387.21 389.95,-376.81 383.02,-377.81"/>
</a>
</g>
</g>
<!-- Node12&#45;&gt;Node20 -->
<g id="edge29_Node000012_Node000020" class="edge">
<title>Node12&#45;&gt;Node20</title>
<g id="a_edge29_Node000012_Node000020"><a xlink:title=" ">
<path fill="none" stroke="#63b8ff" d="M389.82,-377.25C390.59,-330.16 385.35,-210.88 317,-153 268.32,-111.78 193.53,-108.24 139.18,-112.56"/>
<polygon fill="#63b8ff" stroke="#63b8ff" points="386.32,-377.26 389.54,-387.35 393.32,-377.46 386.32,-377.26"/>
</a>
</g>
</g>
<!-- Node21 -->
<g id="Node000021" class="node">
<title>Node21</title>
<g id="a_Node000021"><a xlink:href="namespaceanonymous__namespace_02fista-driver_8cpp_03.html#a6f96d677b5961c6a4fcaa773f37ca65b" target="_top" xlink:title=" ">
<polygon fill="white" stroke="#666666" points="317,-432.5 176,-432.5 176,-391.5 317,-391.5 317,-432.5"/>
<text text-anchor="start" x="184" y="-420.5" font-family="Helvetica,sans-Serif" font-size="10.00">anonymous_namespace</text>
<text text-anchor="start" x="184" y="-409.5" font-family="Helvetica,sans-Serif" font-size="10.00">{fista&#45;driver::cpp}</text>
<text text-anchor="middle" x="246.5" y="-398.5" font-family="Helvetica,sans-Serif" font-size="10.00">::make_inner_fista_solver</text>
</a>
</g>
</g>
<!-- Node12&#45;&gt;Node21 -->
<g id="edge25_Node000012_Node000021" class="edge">
<title>Node12&#45;&gt;Node21</title>
<g id="a_edge25_Node000012_Node000021"><a xlink:title=" ">
<path fill="none" stroke="#63b8ff" d="M342.8,-401.9C334.57,-402.77 325.82,-403.7 317.1,-404.62"/>
<polygon fill="#63b8ff" stroke="#63b8ff" points="343.35,-405.36 352.93,-400.82 342.61,-398.4 343.35,-405.36"/>
</a>
</g>
</g>
<!-- Node22 -->
<g id="Node000022" class="node">
<title>Node22</title>
<g id="a_Node000022"><a xlink:href="alm-driver_8hpp.html#a51b2a2cde56762bcb43a2f4da0913f98" target="_top" xlink:title=" ">
<polygon fill="white" stroke="#666666" points="301,-469.5 192,-469.5 192,-450.5 301,-450.5 301,-469.5"/>
<text text-anchor="middle" x="246.5" y="-457.5" font-family="Helvetica,sans-Serif" font-size="10.00">make_inner_solver</text>
</a>
</g>
</g>
<!-- Node12&#45;&gt;Node22 -->
<g id="edge27_Node000012_Node000022" class="edge">
<title>Node12&#45;&gt;Node22</title>
<g id="a_edge27_Node000012_Node000022"><a xlink:title=" ">
<path fill="none" stroke="#63b8ff" d="M368.06,-412.49C354.17,-422.14 335.22,-434.17 317,-442 309.33,-445.3 300.91,-448.1 292.67,-450.45"/>
<polygon fill="#63b8ff" stroke="#63b8ff" points="370.27,-415.21 376.39,-406.56 366.22,-409.51 370.27,-415.21"/>
</a>
</g>
</g>
<!-- Node13&#45;&gt;Node3 -->
<g id="edge13_Node000013_Node000003" class="edge">
<title>Node13&#45;&gt;Node3</title>
<g id="a_edge13_Node000013_Node000003"><a xlink:title=" ">
<path fill="none" stroke="#63b8ff" d="M190.71,-508.62C156.58,-515.85 114.73,-524.73 90.64,-529.84"/>
<polygon fill="#63b8ff" stroke="#63b8ff" points="191.51,-512.03 200.56,-506.53 190.05,-505.18 191.51,-512.03"/>
</a>
</g>
</g>
<!-- Node14&#45;&gt;Node3 -->
<g id="edge15_Node000014_Node000003" class="edge">
<title>Node14&#45;&gt;Node3</title>
<g id="a_edge15_Node000014_Node000003"><a xlink:title=" ">
<path fill="none" stroke="#63b8ff" d="M181.48,-534C149.37,-534 112.74,-534 90.76,-534"/>
<polygon fill="#63b8ff" stroke="#63b8ff" points="181.72,-537.5 191.72,-534 181.72,-530.5 181.72,-537.5"/>
</a>
</g>
</g>
<!-- Node15&#45;&gt;Node15 -->
<g id="edge18_Node000015_Node000015" class="edge">
<title>Node15&#45;&gt;Node15</title>
<g id="a_edge18_Node000015_Node000015"><a xlink:title=" ">
<path fill="none" stroke="#63b8ff" d="M270.93,-326.46C267.3,-331.24 259.15,-334.5 246.5,-334.5 226.25,-334.5 217.55,-326.15 220.4,-316.6"/>
<polygon fill="#63b8ff" stroke="#63b8ff" points="274.38,-327.04 272.6,-316.6 267.48,-325.87 274.38,-327.04"/>
</a>
</g>
</g>
<!-- Node17&#45;&gt;Node18 -->
<g id="edge21_Node000017_Node000018" class="edge">
<title>Node17&#45;&gt;Node18</title>
<g id="a_edge21_Node000017_Node000018"><a xlink:title=" ">
<path fill="none" stroke="#63b8ff" d="M224.29,-187.83C209.99,-198.94 191.07,-214.52 176,-230 140.3,-266.68 104.62,-314.94 85.43,-342.1"/>
<polygon fill="#63b8ff" stroke="#63b8ff" points="226.7,-190.39 232.52,-181.53 222.45,-184.83 226.7,-190.39"/>
</a>
</g>
</g>
<!-- Node17&#45;&gt;Node19 -->
<g id="edge22_Node000017_Node000019" class="edge">
<title>Node17&#45;&gt;Node19</title>
<g id="a_edge22_Node000017_Node000019"><a xlink:title=" ">
<path fill="none" stroke="#63b8ff" d="M184.37,-175.5C170.08,-176.32 154.77,-177.2 140.17,-178.04"/>
<polygon fill="#63b8ff" stroke="#63b8ff" points="184.77,-178.99 194.56,-174.92 184.37,-172 184.77,-178.99"/>
</a>
</g>
</g>
<!-- Node17&#45;&gt;Node20 -->
<g id="edge23_Node000017_Node000020" class="edge">
<title>Node17&#45;&gt;Node20</title>
<g id="a_edge23_Node000017_Node000020"><a xlink:title=" ">
<path fill="none" stroke="#63b8ff" d="M201.64,-159.69C182.77,-154.38 160.25,-148.06 139.28,-142.17"/>
<polygon fill="#63b8ff" stroke="#63b8ff" points="200.87,-163.1 211.44,-162.44 202.76,-156.36 200.87,-163.1"/>
</a>
</g>
</g>
<!-- Node21&#45;&gt;Node18 -->
<g id="edge26_Node000021_Node000018" class="edge">
<title>Node21&#45;&gt;Node18</title>
<g id="a_edge26_Node000021_Node000018"><a xlink:title=" ">
<path fill="none" stroke="#63b8ff" d="M165.94,-389.66C156.81,-387.1 147.57,-384.5 138.62,-381.99"/>
<polygon fill="#63b8ff" stroke="#63b8ff" points="165.21,-393.09 175.78,-392.42 167.1,-386.35 165.21,-393.09"/>
</a>
</g>
</g>
<!-- Node23&#45;&gt;Node12 -->
<g id="edge31_Node000023_Node000012" class="edge">
<title>Node23&#45;&gt;Node12</title>
<g id="a_edge31_Node000023_Node000012"><a xlink:title=" ">
<path fill="none" stroke="#63b8ff" d="M481.81,-422.27C462.51,-416.9 442.05,-411.21 425.44,-406.59"/>
<polygon fill="#63b8ff" stroke="#63b8ff" points="480.89,-425.65 491.46,-424.96 482.77,-418.91 480.89,-425.65"/>
</a>
</g>
</g>
</g>
</svg>

<g id="navigator" transform="translate(0 0)" fill="#404254">
  <rect fill="#f2f5e9" fill-opacity="0.5" stroke="#606060" stroke-width=".5" x="0" y="0" width="60" height="60"/>
  <use id="zoomplus" xlink:href="#zoomPlus" x="17" y="9" onmousedown="handleZoom(evt,'in')"/>
  <use id="zoomminus" xlink:href="#zoomMin" x="42" y="9" onmousedown="handleZoom(evt,'out')"/>
  <use id="reset" xlink:href="#resetDef" x="30" y="36" onmousedown="handleReset()"/>
   <use id="arrowup" xlink:href="#arrowUp" x="0" y="0" onmousedown="handlePan(0,-1)"/>
  <use id="arrowright" xlink:href="#arrowRight" x="0" y="0" onmousedown="handlePan(1,0)"/>
  <use id="arrowdown" xlink:href="#arrowDown" x="0" y="0" onmousedown="handlePan(0,1)"/>
  <use id="arrowleft" xlink:href="#arrowLeft" x="0" y="0" onmousedown="handlePan(-1,0)"/>
</g>
<svg viewBox="0 0 15 15" width="100%" height="30px" preserveAspectRatio="xMaxYMin meet">
 <g id="arrow_out" transform="scale(0.3 0.3)">
  <a xlink:href="namespacealpaqa_1_1util_aa93b2039064bcb3304233064c0485c9b_icgraph_org.svg" target="_base">
   <rect id="button" ry="5" rx="5" y="6" x="6" height="38" width="38"
        fill="#f2f5e9" fill-opacity="0.5" stroke="#606060" stroke-width="1.0"/>
   <path id="arrow"
     d="M 11.500037,31.436501 C 11.940474,20.09759 22.043105,11.32322 32.158766,21.979434 L 37.068811,17.246167 C 37.068811,17.246167 37.088388,32 37.088388,32 L 22.160133,31.978069 C 22.160133,31.978069 26.997745,27.140456 26.997745,27.140456 C 18.528582,18.264221 13.291696,25.230495 11.500037,31.436501 z"
     style="fill:#404040;"/>
  </a>
 </g>
</svg>

<style type='text/css'>
<![CDATA[
[data-mouse-over-selected='false'] { opacity: 0.7; }
[data-mouse-over-selected='true']  { opacity: 1.0; }
]]>
</style>
<script type="application/ecmascript"><![CDATA[
document.addEventListener('DOMContentLoaded', (event) => {
  highlightEdges();
  highlightAdjacentNodes();
});
]]></script>
</svg>
