<?xml version="1.0" encoding="UTF-8" standalone="no"?>
<!DOCTYPE svg PUBLIC "-//W3C//DTD SVG 1.1//EN"
 "http://www.w3.org/Graphics/SVG/1.1/DTD/svg11.dtd">
<!-- Generated by graphviz version 2.43.0 (0)
 -->
<!-- Title: set_params Pages: 1 -->
<svg width="710pt" height="237pt"
 viewBox="0.00 0.00 710.00 236.50" xmlns="http://www.w3.org/2000/svg" xmlns:xlink="http://www.w3.org/1999/xlink">
<g id="graph0" class="graph" transform="scale(1 1) rotate(0) translate(4 232.5)">
<title>set_params</title>
<!-- Node1 -->
<g id="Node000001" class="node">
<title>Node1</title>
<g id="a_Node000001"><a xlink:title=" ">
<polygon fill="#999999" stroke="#666666" points="74,-124 0,-124 0,-105 74,-105 74,-124"/>
<text text-anchor="middle" x="37" y="-112" font-family="Helvetica,sans-Serif" font-size="10.00">set_params</text>
</a>
</g>
</g>
<!-- Node2 -->
<g id="Node000002" class="node">
<title>Node2</title>
<g id="a_Node000002"><a xlink:href="namespacealpaqa_1_1util.html#a381655901120dbb2a07cec1df230595e" target="_top" xlink:title="Join the list of strings into a single string, using the separator given by opt.">
<polygon fill="white" stroke="#666666" points="214,-228.5 119,-228.5 119,-198.5 214,-198.5 214,-228.5"/>
<text text-anchor="start" x="127" y="-216.5" font-family="Helvetica,sans-Serif" font-size="10.00">alpaqa::util::join</text>
<text text-anchor="middle" x="166.5" y="-205.5" font-family="Helvetica,sans-Serif" font-size="10.00">_quote</text>
</a>
</g>
</g>
<!-- Node1&#45;&gt;Node2 -->
<g id="edge1_Node000001_Node000002" class="edge">
<title>Node1&#45;&gt;Node2</title>
<g id="a_edge1_Node000001_Node000002"><a xlink:title=" ">
<path fill="none" stroke="#63b8ff" d="M45.41,-124.47C57.46,-140.1 82.72,-170.56 110,-189.5 112.07,-190.94 114.25,-192.32 116.49,-193.64"/>
<polygon fill="#63b8ff" stroke="#63b8ff" points="114.89,-196.76 125.36,-198.44 118.22,-190.6 114.89,-196.76"/>
</a>
</g>
</g>
<!-- Node3 -->
<g id="Node000003" class="node">
<title>Node3</title>
<g id="a_Node000003"><a xlink:href="classOptions.html#a32a1a00438ef83609a2ecf66d9e77056" target="_top" xlink:title=" ">
<polygon fill="white" stroke="#666666" points="221,-180 112,-180 112,-161 221,-161 221,-180"/>
<text text-anchor="middle" x="166.5" y="-168" font-family="Helvetica,sans-Serif" font-size="10.00">Options::json_flags</text>
</a>
</g>
</g>
<!-- Node1&#45;&gt;Node3 -->
<g id="edge2_Node000001_Node000003" class="edge">
<title>Node1&#45;&gt;Node3</title>
<g id="a_edge2_Node000001_Node000003"><a xlink:title=" ">
<path fill="none" stroke="#63b8ff" d="M54.19,-124.08C68.54,-132.31 90.21,-144.14 110,-152.5 114.21,-154.28 118.66,-155.99 123.13,-157.6"/>
<polygon fill="#63b8ff" stroke="#63b8ff" points="122.28,-161.01 132.87,-160.95 124.56,-154.39 122.28,-161.01"/>
</a>
</g>
</g>
<!-- Node4 -->
<g id="Node000004" class="node">
<title>Node4</title>
<g id="a_Node000004"><a xlink:href="classOptions.html#a502ee531f4e5cdc1c8dd78e9409a4e8e" target="_top" xlink:title=" ">
<polygon fill="white" stroke="#666666" points="214.5,-143 118.5,-143 118.5,-124 214.5,-124 214.5,-143"/>
<text text-anchor="middle" x="166.5" y="-131" font-family="Helvetica,sans-Serif" font-size="10.00">Options::options</text>
</a>
</g>
</g>
<!-- Node1&#45;&gt;Node4 -->
<g id="edge3_Node000001_Node000004" class="edge">
<title>Node1&#45;&gt;Node4</title>
<g id="a_edge3_Node000001_Node000004"><a xlink:title=" ">
<path fill="none" stroke="#63b8ff" d="M74.2,-119.89C84.79,-121.47 96.63,-123.24 108.2,-124.96"/>
<polygon fill="#63b8ff" stroke="#63b8ff" points="107.84,-128.45 118.24,-126.46 108.87,-121.52 107.84,-128.45"/>
</a>
</g>
</g>
<!-- Node5 -->
<g id="Node000005" class="node">
<title>Node5</title>
<g id="a_Node000005"><a xlink:href="namespacealpaqa_1_1params.html#af3ba03bed80f69ff9920df80e5223601" target="_top" xlink:title="Update/overwrite the first argument based on the JSON object j.">
<polygon fill="white" stroke="#666666" points="386.5,-110.5 273.5,-110.5 273.5,-80.5 386.5,-80.5 386.5,-110.5"/>
<text text-anchor="start" x="281.5" y="-98.5" font-family="Helvetica,sans-Serif" font-size="10.00">alpaqa::params::set</text>
<text text-anchor="middle" x="330" y="-87.5" font-family="Helvetica,sans-Serif" font-size="10.00">_param</text>
</a>
</g>
</g>
<!-- Node1&#45;&gt;Node5 -->
<g id="edge4_Node000001_Node000005" class="edge">
<title>Node1&#45;&gt;Node5</title>
<g id="a_edge4_Node000001_Node000005"><a xlink:title=" ">
<path fill="none" stroke="#63b8ff" d="M74.27,-112.13C121.41,-109.05 204.61,-103.62 263.06,-99.81"/>
<polygon fill="#63b8ff" stroke="#63b8ff" points="263.56,-103.28 273.31,-99.14 263.1,-96.3 263.56,-103.28"/>
</a>
</g>
</g>
<!-- Node10 -->
<g id="Node000010" class="node">
<title>Node10</title>
<g id="a_Node000010"><a xlink:href="namespacealpaqa_1_1params.html#abadc98653193fbd05b658d62b34f75e7" target="_top" xlink:title="Overwrites t based on the options that start with prefix.">
<polygon fill="white" stroke="#666666" points="223,-67.5 110,-67.5 110,-37.5 223,-37.5 223,-67.5"/>
<text text-anchor="start" x="118" y="-55.5" font-family="Helvetica,sans-Serif" font-size="10.00">alpaqa::params::set</text>
<text text-anchor="middle" x="166.5" y="-44.5" font-family="Helvetica,sans-Serif" font-size="10.00">_params</text>
</a>
</g>
</g>
<!-- Node1&#45;&gt;Node10 -->
<g id="edge10_Node000001_Node000010" class="edge">
<title>Node1&#45;&gt;Node10</title>
<g id="a_edge10_Node000001_Node000010"><a xlink:title=" ">
<path fill="none" stroke="#63b8ff" d="M57.64,-104.95C75.57,-96.23 102.62,-83.07 125.15,-72.12"/>
<polygon fill="#63b8ff" stroke="#63b8ff" points="126.71,-75.26 134.17,-67.74 123.65,-68.96 126.71,-75.26"/>
</a>
</g>
</g>
<!-- Node12 -->
<g id="Node000012" class="node">
<title>Node12</title>
<g id="a_Node000012"><a xlink:href="classOptions.html#a12df8f934f6bafb37bf4e64529917d06" target="_top" xlink:title=" ">
<polygon fill="white" stroke="#666666" points="208,-19 125,-19 125,0 208,0 208,-19"/>
<text text-anchor="middle" x="166.5" y="-7" font-family="Helvetica,sans-Serif" font-size="10.00">Options::used</text>
</a>
</g>
</g>
<!-- Node1&#45;&gt;Node12 -->
<g id="edge13_Node000001_Node000012" class="edge">
<title>Node1&#45;&gt;Node12</title>
<g id="a_edge13_Node000001_Node000012"><a xlink:title=" ">
<path fill="none" stroke="#63b8ff" d="M43.64,-104.75C54.35,-87.06 79.34,-49.56 110,-28.5 112.86,-26.54 115.94,-24.76 119.13,-23.16"/>
<polygon fill="#63b8ff" stroke="#63b8ff" points="120.6,-26.33 128.32,-19.07 117.76,-19.93 120.6,-26.33"/>
</a>
</g>
</g>
<!-- Node6 -->
<g id="Node000006" class="node">
<title>Node6</title>
<g id="a_Node000006"><a xlink:href="demangled-typename_8cpp.html#a994032931a27ca4de5eea3f786057b17" target="_top" xlink:title="Get the pretty name of the given type as a string.">
<polygon fill="white" stroke="#666666" points="563,-148 437,-148 437,-129 563,-129 563,-148"/>
<text text-anchor="middle" x="500" y="-136" font-family="Helvetica,sans-Serif" font-size="10.00">demangled_typename</text>
</a>
</g>
</g>
<!-- Node5&#45;&gt;Node6 -->
<g id="edge5_Node000005_Node000006" class="edge">
<title>Node5&#45;&gt;Node6</title>
<g id="a_edge5_Node000005_Node000006"><a xlink:title=" ">
<path fill="none" stroke="#63b8ff" d="M386.94,-109.82C408.01,-115.21 431.74,-121.28 451.92,-126.45"/>
<polygon fill="#63b8ff" stroke="#63b8ff" points="451.25,-129.89 461.81,-128.98 452.99,-123.11 451.25,-129.89"/>
</a>
</g>
</g>
<!-- Node7 -->
<g id="Node000007" class="node">
<title>Node7</title>
<g id="a_Node000007"><a xlink:href="namespacealpaqa_1_1params_1_1detail.html#a6aa41a8827ffd36b3e2a8e7346a44f19" target="_top" xlink:title=" ">
<polygon fill="white" stroke="#666666" points="563,-110.5 437,-110.5 437,-80.5 563,-80.5 563,-110.5"/>
<text text-anchor="start" x="445" y="-98.5" font-family="Helvetica,sans-Serif" font-size="10.00">alpaqa::params::detail</text>
<text text-anchor="middle" x="500" y="-87.5" font-family="Helvetica,sans-Serif" font-size="10.00">::join_sorted_keys</text>
</a>
</g>
</g>
<!-- Node5&#45;&gt;Node7 -->
<g id="edge6_Node000005_Node000007" class="edge">
<title>Node5&#45;&gt;Node7</title>
<g id="a_edge6_Node000005_Node000007"><a xlink:title=" ">
<path fill="none" stroke="#63b8ff" d="M386.94,-95.5C399.72,-95.5 413.48,-95.5 426.83,-95.5"/>
<polygon fill="#63b8ff" stroke="#63b8ff" points="426.94,-99 436.94,-95.5 426.94,-92 426.94,-99"/>
</a>
</g>
</g>
<!-- Node9 -->
<g id="Node000009" class="node">
<title>Node9</title>
<g id="a_Node000009"><a xlink:href="namespacealpaqa_1_1util.html#ab38ac790b4155e7631dfb11d7dfff1c3" target="_top" xlink:title="Sort the given range of strings in&#45;place in a case&#45;insensitive manner.">
<polygon fill="white" stroke="#666666" points="702,-67.5 599,-67.5 599,-37.5 702,-37.5 702,-67.5"/>
<text text-anchor="start" x="607" y="-55.5" font-family="Helvetica,sans-Serif" font-size="10.00">alpaqa::util::sort</text>
<text text-anchor="middle" x="650.5" y="-44.5" font-family="Helvetica,sans-Serif" font-size="10.00">_case_insensitive</text>
</a>
</g>
</g>
<!-- Node5&#45;&gt;Node9 -->
<g id="edge9_Node000005_Node000009" class="edge">
<title>Node5&#45;&gt;Node9</title>
<g id="a_edge9_Node000005_Node000009"><a xlink:title=" ">
<path fill="none" stroke="#63b8ff" d="M386.57,-81.45C402.75,-77.76 420.5,-74.09 437,-71.5 487.7,-63.53 545.78,-58.62 588.39,-55.79"/>
<polygon fill="#63b8ff" stroke="#63b8ff" points="588.85,-59.27 598.6,-55.14 588.4,-52.29 588.85,-59.27"/>
</a>
</g>
</g>
<!-- Node8 -->
<g id="Node000008" class="node">
<title>Node8</title>
<g id="a_Node000008"><a xlink:href="namespacealpaqa_1_1util.html#aa93b2039064bcb3304233064c0485c9b" target="_top" xlink:title="Join the list of strings into a single string, using the separator given by opt.">
<polygon fill="white" stroke="#666666" points="698,-105 603,-105 603,-86 698,-86 698,-105"/>
<text text-anchor="middle" x="650.5" y="-93" font-family="Helvetica,sans-Serif" font-size="10.00">alpaqa::util::join</text>
</a>
</g>
</g>
<!-- Node7&#45;&gt;Node8 -->
<g id="edge7_Node000007_Node000008" class="edge">
<title>Node7&#45;&gt;Node8</title>
<g id="a_edge7_Node000007_Node000008"><a xlink:title=" ">
<path fill="none" stroke="#63b8ff" d="M563.12,-95.5C572.92,-95.5 583.02,-95.5 592.7,-95.5"/>
<polygon fill="#63b8ff" stroke="#63b8ff" points="593,-99 603,-95.5 593,-92 593,-99"/>
</a>
</g>
</g>
<!-- Node7&#45;&gt;Node9 -->
<g id="edge8_Node000007_Node000009" class="edge">
<title>Node7&#45;&gt;Node9</title>
<g id="a_edge8_Node000007_Node000009"><a xlink:title=" ">
<path fill="none" stroke="#63b8ff" d="M552.94,-80.46C564.57,-77.09 577.01,-73.49 588.95,-70.03"/>
<polygon fill="#63b8ff" stroke="#63b8ff" points="590.21,-73.31 598.84,-67.17 588.26,-66.59 590.21,-73.31"/>
</a>
</g>
</g>
<!-- Node10&#45;&gt;Node5 -->
<g id="edge11_Node000010_Node000005" class="edge">
<title>Node10&#45;&gt;Node5</title>
<g id="a_edge11_Node000010_Node000005"><a xlink:title=" ">
<path fill="none" stroke="#63b8ff" d="M223.08,-67.3C236.15,-70.78 250.19,-74.52 263.65,-78.1"/>
<polygon fill="#63b8ff" stroke="#63b8ff" points="262.75,-81.48 273.32,-80.67 264.56,-74.72 262.75,-81.48"/>
</a>
</g>
</g>
<!-- Node11 -->
<g id="Node000011" class="node">
<title>Node11</title>
<g id="a_Node000011"><a xlink:href="namespacealpaqa_1_1params.html#aa3666becfea1ef2eb24d83f592c123e9" target="_top" xlink:title="Split the string full on the first occurrence of tok.">
<polygon fill="white" stroke="#666666" points="401,-62 259,-62 259,-43 401,-43 401,-62"/>
<text text-anchor="middle" x="330" y="-50" font-family="Helvetica,sans-Serif" font-size="10.00">alpaqa::params::split_key</text>
</a>
</g>
</g>
<!-- Node10&#45;&gt;Node11 -->
<g id="edge12_Node000010_Node000011" class="edge">
<title>Node10&#45;&gt;Node11</title>
<g id="a_edge12_Node000010_Node000011"><a xlink:title=" ">
<path fill="none" stroke="#63b8ff" d="M223.08,-52.5C231.34,-52.5 240,-52.5 248.64,-52.5"/>
<polygon fill="#63b8ff" stroke="#63b8ff" points="248.77,-56 258.77,-52.5 248.77,-49 248.77,-56"/>
</a>
</g>
</g>
</g>
</svg>
