<?xml version="1.0" encoding="UTF-8" standalone="no"?>
<!DOCTYPE svg PUBLIC "-//W3C//DTD SVG 1.1//EN"
 "http://www.w3.org/Graphics/SVG/1.1/DTD/svg11.dtd">
<!-- Generated by graphviz version 2.43.0 (0)
 -->
<!-- Title: CircularIndexIterator&lt; IndexT &gt; Pages: 1 -->
<svg width="140pt" height="269pt"
 viewBox="0.00 0.00 140.00 269.00" xmlns="http://www.w3.org/2000/svg" xmlns:xlink="http://www.w3.org/1999/xlink">

<svg id="main" version="1.1" xmlns="http://www.w3.org/2000/svg" xmlns:xlink="http://www.w3.org/1999/xlink" xml:space="preserve" onload="init(evt)">
<style type="text/css"><![CDATA[
.node, .edge {opacity: 0.7;}
.node.selected, .edge.selected {opacity: 1;}
.edge:hover path { stroke: red; }
.edge:hover polygon { stroke: red; fill: red; }
]]></style>
<script type="application/ecmascript" xlink:href="svg.min.js"/>
<svg id="graph" class="graph">
<g id="graph0" class="graph" transform="scale(1 1) rotate(0) translate(4 265)">
<title>CircularIndexIterator&lt; IndexT &gt;</title>
<!-- Node1 -->
<g id="Node000001" class="node">
<title>Node1</title>
<g id="a_Node000001"><a xlink:title=" ">
<polygon fill="#999999" stroke="transparent" points="131,-150 1,-150 1,0 131,0 131,-150"/>
<text text-anchor="start" x="15.5" y="-138" font-family="Helvetica,sans-Serif" font-size="10.00">CircularIndexIterator</text>
<text text-anchor="start" x="38" y="-127" font-family="Helvetica,sans-Serif" font-size="10.00">&lt; IndexT &gt;</text>
<text text-anchor="start" x="5" y="-112" font-family="Helvetica,sans-Serif" font-size="10.00">+</text>
<text text-anchor="start" x="18" y="-112" font-family="Helvetica,sans-Serif" font-size="10.00">max</text>
<text text-anchor="start" x="5" y="-97" font-family="Helvetica,sans-Serif" font-size="10.00">+</text>
<text text-anchor="start" x="18" y="-97" font-family="Helvetica,sans-Serif" font-size="10.00">CircularIndexIterator()</text>
<text text-anchor="start" x="5" y="-82" font-family="Helvetica,sans-Serif" font-size="10.00">+</text>
<text text-anchor="start" x="18" y="-82" font-family="Helvetica,sans-Serif" font-size="10.00">CircularIndexIterator()</text>
<text text-anchor="start" x="5" y="-67" font-family="Helvetica,sans-Serif" font-size="10.00">+</text>
<text text-anchor="start" x="18" y="-67" font-family="Helvetica,sans-Serif" font-size="10.00">operator*()</text>
<text text-anchor="start" x="5" y="-52" font-family="Helvetica,sans-Serif" font-size="10.00">+</text>
<text text-anchor="start" x="18" y="-52" font-family="Helvetica,sans-Serif" font-size="10.00">operator++()</text>
<text text-anchor="start" x="5" y="-37" font-family="Helvetica,sans-Serif" font-size="10.00">+</text>
<text text-anchor="start" x="18" y="-37" font-family="Helvetica,sans-Serif" font-size="10.00">operator&#45;&#45;()</text>
<text text-anchor="start" x="5" y="-22" font-family="Helvetica,sans-Serif" font-size="10.00">+</text>
<text text-anchor="start" x="18" y="-22" font-family="Helvetica,sans-Serif" font-size="10.00">operator++()</text>
<text text-anchor="start" x="5" y="-7" font-family="Helvetica,sans-Serif" font-size="10.00">+</text>
<text text-anchor="start" x="18" y="-7" font-family="Helvetica,sans-Serif" font-size="10.00">operator&#45;&#45;()</text>
<polygon fill="#666666" stroke="#666666" points="1,-122 1,-122 131,-122 131,-122 1,-122"/>
<polygon fill="#666666" stroke="#666666" points="1,-107 1,-107 16,-107 16,-107 1,-107"/>
<polygon fill="#666666" stroke="#666666" points="16,-107 16,-107 131,-107 131,-107 16,-107"/>
<polygon fill="none" stroke="#666666" points="1,0 1,-150 131,-150 131,0 1,0"/>
</a>
</g>
</g>
<!-- Node2 -->
<g id="Node000002" class="node">
<title>Node2</title>
<g id="a_Node000002"><a xlink:href="structalpaqa_1_1CircularIndices.html" target="_top" xlink:title=" ">
<polygon fill="white" stroke="transparent" points="132,-261 0,-261 0,-197 132,-197 132,-261"/>
<text text-anchor="start" x="5" y="-249" font-family="Helvetica,sans-Serif" font-size="10.00">CircularIndices&lt; Index &gt;</text>
<text text-anchor="start" x="11.5" y="-234" font-family="Helvetica,sans-Serif" font-size="10.00">+</text>
<text text-anchor="start" x="32" y="-234" font-family="Helvetica,sans-Serif" font-size="10.00">zerobased</text>
<text text-anchor="start" x="11.5" y="-219" font-family="Helvetica,sans-Serif" font-size="10.00">+</text>
<text text-anchor="start" x="32" y="-219" font-family="Helvetica,sans-Serif" font-size="10.00">circular</text>
<text text-anchor="start" x="11.5" y="-204" font-family="Helvetica,sans-Serif" font-size="10.00">+</text>
<text text-anchor="start" x="32" y="-204" font-family="Helvetica,sans-Serif" font-size="10.00">CircularIndices()</text>
<polygon fill="#666666" stroke="#666666" points="0,-244 0,-244 132,-244 132,-244 0,-244"/>
<polygon fill="#666666" stroke="#666666" points="0,-214 0,-214 30,-214 30,-214 0,-214"/>
<polygon fill="#666666" stroke="#666666" points="30,-214 30,-214 132,-214 132,-214 30,-214"/>
<polygon fill="none" stroke="#666666" points="0,-197 0,-261 132,-261 132,-197 0,-197"/>
</a>
</g>
</g>
<!-- Node2&#45;&gt;Node1 -->
<g id="edge1_Node000001_Node000002" class="edge">
<title>Node2&#45;&gt;Node1</title>
<g id="a_edge1_Node000001_Node000002"><a xlink:title=" ">
<path fill="none" stroke="#63b8ff" d="M66,-196.87C66,-186.65 66,-174.73 66,-162.44"/>
<polygon fill="none" stroke="#63b8ff" points="66,-162.08 62,-156.08 66,-150.08 70,-156.08 66,-162.08"/>
</a>
</g>
<text text-anchor="middle" x="73.5" y="-171" font-family="Helvetica,sans-Serif" font-size="10.00" fill="grey"> +i</text>
</g>
</g>
</svg>
</svg>

<style type='text/css'>
<![CDATA[
[data-mouse-over-selected='false'] { opacity: 0.7; }
[data-mouse-over-selected='true']  { opacity: 1.0; }
]]>
</style>
<script type="application/ecmascript"><![CDATA[
document.addEventListener('DOMContentLoaded', (event) => {
  highlightEdges();
  highlightAdjacentNodes();
});
]]></script>
</svg>
