<?xml version="1.0" encoding="UTF-8" standalone="no"?>
<!DOCTYPE svg PUBLIC "-//W3C//DTD SVG 1.1//EN"
 "http://www.w3.org/Graphics/SVG/1.1/DTD/svg11.dtd">
<!-- Generated by graphviz version 2.43.0 (0)
 -->
<!-- Title: src/alpaqa/src/util/type&#45;erasure.cpp Pages: 1 -->
<!--zoomable 269 -->

<svg id="main" version="1.1" xmlns="http://www.w3.org/2000/svg" xmlns:xlink="http://www.w3.org/1999/xlink" xml:space="preserve" onload="init(evt)">
<style type="text/css"><![CDATA[
.node, .edge {opacity: 0.7;}
.node.selected, .edge.selected {opacity: 1;}
.edge:hover path { stroke: red; }
.edge:hover polygon { stroke: red; fill: red; }
]]></style>

<defs>
  <circle id="rim" cx="0" cy="0" r="7"/>
  <circle id="rim2" cx="0" cy="0" r="3.5"/>
  <g id="zoomPlus">
    <use xlink:href="#rim" fill="#404040"><set attributeName="fill" to="#808080" begin="zoomplus.mouseover" end="zoomplus.mouseout"/></use>
    <path d="M-4,0h8M0,-4v8" fill="none" stroke="white" stroke-width="1.5" pointer-events="none"/>
  </g>
  <g id="zoomMin">
    <use xlink:href="#rim" fill="#404040"><set attributeName="fill" to="#808080" begin="zoomminus.mouseover" end="zoomminus.mouseout"/></use>
    <path d="M-4,0h8" fill="none" stroke="white" stroke-width="1.5" pointer-events="none"/>
  </g>
  <g id="arrowUp" transform="translate(30 24)">
    <use xlink:href="#rim"/>
    <path pointer-events="none" fill="none" stroke="white" stroke-width="1.5" d="M0,-3.0v7 M-2.5,-0.5L0,-3.0L2.5,-0.5"/>
  </g>
  <g id="arrowRight" transform="rotate(90) translate(36 -43)">
    <use xlink:href="#rim"/>
    <path pointer-events="none" fill="none" stroke="white" stroke-width="1.5" d="M0,-3.0v7 M-2.5,-0.5L0,-3.0L2.5,-0.5"/>
  </g>
  <g id="arrowDown" transform="rotate(180) translate(-30 -48)">
    <use xlink:href="#rim"/>
    <path pointer-events="none" fill="none" stroke="white" stroke-width="1.5" d="M0,-3.0v7 M-2.5,-0.5L0,-3.0L2.5,-0.5"/>
  </g>
  <g id="arrowLeft" transform="rotate(270) translate(-36 17)">
    <use xlink:href="#rim"/>
    <path pointer-events="none" fill="none" stroke="white" stroke-width="1.5" d="M0,-3.0v7 M-2.5,-0.5L0,-3.0L2.5,-0.5"/>
  </g>
  <g id="resetDef">
    <use xlink:href="#rim2" fill="#404040"><set attributeName="fill" to="#808080" begin="reset.mouseover" end="reset.mouseout"/></use>
  </g>
</defs>
<script type="application/ecmascript">
var viewWidth = 1168;
var viewHeight = 269;
var sectionId = 'dynsection-0';
</script>
<script type="application/ecmascript" xlink:href="svg.min.js"/>
<svg id="graph" class="graph">
<g id="viewport">
<title>src/alpaqa/src/util/type&#45;erasure.cpp</title>
<!-- Node1 -->
<g id="Node000001" class="node">
<title>Node1</title>
<g id="a_Node000001"><a xlink:title=" ">
<polygon fill="#999999" stroke="#666666" points="724,-261 621,-261 621,-231 724,-231 724,-261"/>
<text text-anchor="start" x="629" y="-249" font-family="Helvetica,sans-Serif" font-size="10.00">src/alpaqa/src/util</text>
<text text-anchor="middle" x="672.5" y="-238" font-family="Helvetica,sans-Serif" font-size="10.00">/type&#45;erasure.cpp</text>
</a>
</g>
</g>
<!-- Node2 -->
<g id="Node000002" class="node">
<title>Node2</title>
<g id="a_Node000002"><a xlink:href="type-erasure_8hpp.html" target="_top" xlink:title=" ">
<polygon fill="white" stroke="#666666" points="750,-195 595,-195 595,-176 750,-176 750,-195"/>
<text text-anchor="middle" x="672.5" y="-183" font-family="Helvetica,sans-Serif" font-size="10.00">alpaqa/util/type&#45;erasure.hpp</text>
</a>
</g>
</g>
<!-- Node1&#45;&gt;Node2 -->
<g id="edge1_Node000001_Node000002" class="edge">
<title>Node1&#45;&gt;Node2</title>
<g id="a_edge1_Node000001_Node000002"><a xlink:title=" ">
<path fill="none" stroke="#63b8ff" d="M672.5,-230.84C672.5,-223.21 672.5,-213.7 672.5,-205.45"/>
<polygon fill="#63b8ff" stroke="#63b8ff" points="676,-205.27 672.5,-195.27 669,-205.27 676,-205.27"/>
</a>
</g>
</g>
<!-- Node3 -->
<g id="Node000003" class="node">
<title>Node3</title>
<g id="a_Node000003"><a xlink:href="export_8hpp.html" target="_top" xlink:title=" ">
<polygon fill="white" stroke="#666666" points="105,-74 0,-74 0,-55 105,-55 105,-74"/>
<text text-anchor="middle" x="52.5" y="-62" font-family="Helvetica,sans-Serif" font-size="10.00">alpaqa/export.hpp</text>
</a>
</g>
</g>
<!-- Node2&#45;&gt;Node3 -->
<g id="edge2_Node000002_Node000003" class="edge">
<title>Node2&#45;&gt;Node3</title>
<g id="a_edge2_Node000002_Node000003"><a xlink:title=" ">
<path fill="none" stroke="#63b8ff" d="M594.82,-183.73C441.37,-181.5 110.74,-172.89 71.5,-140 55.39,-126.5 51.91,-101.41 51.62,-84.1"/>
<polygon fill="#63b8ff" stroke="#63b8ff" points="55.12,-84.11 51.79,-74.05 48.12,-83.99 55.12,-84.11"/>
</a>
</g>
</g>
<!-- Node5 -->
<g id="Node000005" class="node">
<title>Node5</title>
<g id="a_Node000005"><a xlink:href="demangled-typename_8hpp.html" target="_top" xlink:title=" ">
<polygon fill="white" stroke="#666666" points="206.5,-140 80.5,-140 80.5,-110 206.5,-110 206.5,-140"/>
<text text-anchor="start" x="88.5" y="-128" font-family="Helvetica,sans-Serif" font-size="10.00">alpaqa/util/demangled</text>
<text text-anchor="middle" x="143.5" y="-117" font-family="Helvetica,sans-Serif" font-size="10.00">&#45;typename.hpp</text>
</a>
</g>
</g>
<!-- Node2&#45;&gt;Node5 -->
<g id="edge4_Node000002_Node000005" class="edge">
<title>Node2&#45;&gt;Node5</title>
<g id="a_edge4_Node000002_Node000005"><a xlink:title=" ">
<path fill="none" stroke="#63b8ff" d="M594.69,-178.78C504.44,-171.7 351.3,-158.3 220.5,-140 219.39,-139.84 218.27,-139.68 217.15,-139.52"/>
<polygon fill="#63b8ff" stroke="#63b8ff" points="217.3,-136 206.88,-137.95 216.24,-142.92 217.3,-136"/>
</a>
</g>
</g>
<!-- Node7 -->
<g id="Node000007" class="node">
<title>Node7</title>
<g id="a_Node000007"><a xlink:title=" ">
<polygon fill="#e0e0e0" stroke="#999999" points="253,-74 196,-74 196,-55 253,-55 253,-74"/>
<text text-anchor="middle" x="224.5" y="-62" font-family="Helvetica,sans-Serif" font-size="10.00">typeinfo</text>
</a>
</g>
</g>
<!-- Node2&#45;&gt;Node7 -->
<g id="edge21_Node000002_Node000007" class="edge">
<title>Node2&#45;&gt;Node7</title>
<g id="a_edge21_Node000002_Node000007"><a xlink:title=" ">
<path fill="none" stroke="#63b8ff" d="M594.81,-180.59C481.11,-174.22 279.98,-160.24 253.5,-140 236.13,-126.72 229.16,-101.58 226.36,-84.2"/>
<polygon fill="#63b8ff" stroke="#63b8ff" points="229.81,-83.58 225.06,-74.11 222.87,-84.47 229.81,-83.58"/>
</a>
</g>
</g>
<!-- Node8 -->
<g id="Node000008" class="node">
<title>Node8</title>
<g id="a_Node000008"><a xlink:href="noop-delete_8hpp.html" target="_top" xlink:title=" ">
<polygon fill="white" stroke="#666666" points="414,-134.5 263,-134.5 263,-115.5 414,-115.5 414,-134.5"/>
<text text-anchor="middle" x="338.5" y="-122.5" font-family="Helvetica,sans-Serif" font-size="10.00">alpaqa/util/noop&#45;delete.hpp</text>
</a>
</g>
</g>
<!-- Node2&#45;&gt;Node8 -->
<g id="edge8_Node000002_Node000008" class="edge">
<title>Node2&#45;&gt;Node8</title>
<g id="a_edge8_Node000002_Node000008"><a xlink:title=" ">
<path fill="none" stroke="#63b8ff" d="M623.93,-175.99C563.83,-165.47 461.54,-147.55 397.13,-136.27"/>
<polygon fill="#63b8ff" stroke="#63b8ff" points="397.58,-132.79 387.13,-134.52 396.37,-139.69 397.58,-132.79"/>
</a>
</g>
</g>
<!-- Node9 -->
<g id="Node000009" class="node">
<title>Node9</title>
<g id="a_Node000009"><a xlink:href="type-traits_8hpp.html" target="_top" xlink:title=" ">
<polygon fill="white" stroke="#666666" points="614,-134.5 471,-134.5 471,-115.5 614,-115.5 614,-134.5"/>
<text text-anchor="middle" x="542.5" y="-122.5" font-family="Helvetica,sans-Serif" font-size="10.00">alpaqa/util/type&#45;traits.hpp</text>
</a>
</g>
</g>
<!-- Node2&#45;&gt;Node9 -->
<g id="edge9_Node000002_Node000009" class="edge">
<title>Node2&#45;&gt;Node9</title>
<g id="a_edge9_Node000002_Node000009"><a xlink:title=" ">
<path fill="none" stroke="#63b8ff" d="M653.6,-175.99C631.84,-166.2 595.88,-150.02 570.79,-138.73"/>
<polygon fill="#63b8ff" stroke="#63b8ff" points="571.98,-135.43 561.43,-134.52 569.11,-141.81 571.98,-135.43"/>
</a>
</g>
</g>
<!-- Node11 -->
<g id="Node000011" class="node">
<title>Node11</title>
<g id="a_Node000011"><a xlink:title=" ">
<polygon fill="#e0e0e0" stroke="#999999" points="482.5,-74 424.5,-74 424.5,-55 482.5,-55 482.5,-74"/>
<text text-anchor="middle" x="453.5" y="-62" font-family="Helvetica,sans-Serif" font-size="10.00">memory</text>
</a>
</g>
</g>
<!-- Node2&#45;&gt;Node11 -->
<g id="edge17_Node000002_Node000011" class="edge">
<title>Node2&#45;&gt;Node11</title>
<g id="a_edge17_Node000002_Node000011"><a xlink:title=" ">
<path fill="none" stroke="#63b8ff" d="M594.84,-177.62C542.29,-171.25 479.32,-159.72 461.5,-140 448.03,-125.1 447.9,-101.08 449.92,-84.36"/>
<polygon fill="#63b8ff" stroke="#63b8ff" points="453.42,-84.57 451.52,-74.15 446.51,-83.48 453.42,-84.57"/>
</a>
</g>
</g>
<!-- Node12 -->
<g id="Node000012" class="node">
<title>Node12</title>
<g id="a_Node000012"><a xlink:title=" ">
<polygon fill="#e0e0e0" stroke="#999999" points="668,-74 599,-74 599,-55 668,-55 668,-74"/>
<text text-anchor="middle" x="633.5" y="-62" font-family="Helvetica,sans-Serif" font-size="10.00">type_traits</text>
</a>
</g>
</g>
<!-- Node2&#45;&gt;Node12 -->
<g id="edge20_Node000002_Node000012" class="edge">
<title>Node2&#45;&gt;Node12</title>
<g id="a_edge20_Node000002_Node000012"><a xlink:title=" ">
<path fill="none" stroke="#63b8ff" d="M669.7,-175.94C663.43,-156.82 648.17,-110.27 639.6,-84.12"/>
<polygon fill="#63b8ff" stroke="#63b8ff" points="642.82,-82.71 636.38,-74.3 636.17,-84.89 642.82,-82.71"/>
</a>
</g>
</g>
<!-- Node13 -->
<g id="Node000013" class="node">
<title>Node13</title>
<g id="a_Node000013"><a xlink:title=" ">
<polygon fill="#e0e0e0" stroke="#999999" points="734.5,-134.5 670.5,-134.5 670.5,-115.5 734.5,-115.5 734.5,-134.5"/>
<text text-anchor="middle" x="702.5" y="-122.5" font-family="Helvetica,sans-Serif" font-size="10.00">algorithm</text>
</a>
</g>
</g>
<!-- Node2&#45;&gt;Node13 -->
<g id="edge13_Node000002_Node000013" class="edge">
<title>Node2&#45;&gt;Node13</title>
<g id="a_edge13_Node000002_Node000013"><a xlink:title=" ">
<path fill="none" stroke="#63b8ff" d="M676.93,-175.87C681.27,-167.4 688.02,-154.24 693.49,-143.57"/>
<polygon fill="#63b8ff" stroke="#63b8ff" points="696.61,-145.16 698.06,-134.67 690.38,-141.97 696.61,-145.16"/>
</a>
</g>
</g>
<!-- Node14 -->
<g id="Node000014" class="node">
<title>Node14</title>
<g id="a_Node000014"><a xlink:title=" ">
<polygon fill="#e0e0e0" stroke="#999999" points="804.5,-134.5 752.5,-134.5 752.5,-115.5 804.5,-115.5 804.5,-134.5"/>
<text text-anchor="middle" x="778.5" y="-122.5" font-family="Helvetica,sans-Serif" font-size="10.00">cassert</text>
</a>
</g>
</g>
<!-- Node2&#45;&gt;Node14 -->
<g id="edge14_Node000002_Node000014" class="edge">
<title>Node2&#45;&gt;Node14</title>
<g id="a_edge14_Node000002_Node000014"><a xlink:title=" ">
<path fill="none" stroke="#63b8ff" d="M688.14,-175.87C705.44,-166.32 733.55,-150.81 753.83,-139.62"/>
<polygon fill="#63b8ff" stroke="#63b8ff" points="755.73,-142.56 762.8,-134.67 752.35,-136.43 755.73,-142.56"/>
</a>
</g>
</g>
<!-- Node15 -->
<g id="Node000015" class="node">
<title>Node15</title>
<g id="a_Node000015"><a xlink:title=" ">
<polygon fill="#e0e0e0" stroke="#999999" points="876,-134.5 823,-134.5 823,-115.5 876,-115.5 876,-134.5"/>
<text text-anchor="middle" x="849.5" y="-122.5" font-family="Helvetica,sans-Serif" font-size="10.00">cstddef</text>
</a>
</g>
</g>
<!-- Node2&#45;&gt;Node15 -->
<g id="edge15_Node000002_Node000015" class="edge">
<title>Node2&#45;&gt;Node15</title>
<g id="a_edge15_Node000002_Node000015"><a xlink:title=" ">
<path fill="none" stroke="#63b8ff" d="M701.58,-175.93C730.22,-167.34 775.12,-153.5 813.5,-140 815.15,-139.42 816.84,-138.81 818.55,-138.19"/>
<polygon fill="#63b8ff" stroke="#63b8ff" points="820.14,-141.32 828.27,-134.52 817.67,-134.77 820.14,-141.32"/>
</a>
</g>
</g>
<!-- Node16 -->
<g id="Node000016" class="node">
<title>Node16</title>
<g id="a_Node000016"><a xlink:title=" ">
<polygon fill="#e0e0e0" stroke="#999999" points="959,-134.5 894,-134.5 894,-115.5 959,-115.5 959,-134.5"/>
<text text-anchor="middle" x="926.5" y="-122.5" font-family="Helvetica,sans-Serif" font-size="10.00">functional</text>
</a>
</g>
</g>
<!-- Node2&#45;&gt;Node16 -->
<g id="edge16_Node000002_Node000016" class="edge">
<title>Node2&#45;&gt;Node16</title>
<g id="a_edge16_Node000002_Node000016"><a xlink:title=" ">
<path fill="none" stroke="#63b8ff" d="M721.98,-175.95C765.41,-168.02 830.12,-155.18 885.5,-140 887.98,-139.32 890.52,-138.58 893.07,-137.79"/>
<polygon fill="#63b8ff" stroke="#63b8ff" points="894.37,-141.05 902.81,-134.64 892.21,-134.39 894.37,-141.05"/>
</a>
</g>
</g>
<!-- Node17 -->
<g id="Node000017" class="node">
<title>Node17</title>
<g id="a_Node000017"><a xlink:title=" ">
<polygon fill="#e0e0e0" stroke="#999999" points="1014,-134.5 977,-134.5 977,-115.5 1014,-115.5 1014,-134.5"/>
<text text-anchor="middle" x="995.5" y="-122.5" font-family="Helvetica,sans-Serif" font-size="10.00">new</text>
</a>
</g>
</g>
<!-- Node2&#45;&gt;Node17 -->
<g id="edge18_Node000002_Node000017" class="edge">
<title>Node2&#45;&gt;Node17</title>
<g id="a_edge18_Node000002_Node000017"><a xlink:title=" ">
<path fill="none" stroke="#63b8ff" d="M750.14,-179.83C810.8,-174.52 896.58,-163.34 968.5,-140 969.55,-139.66 970.62,-139.28 971.68,-138.87"/>
<polygon fill="#63b8ff" stroke="#63b8ff" points="973.38,-141.94 981.03,-134.61 970.48,-135.57 973.38,-141.94"/>
</a>
</g>
</g>
<!-- Node18 -->
<g id="Node000018" class="node">
<title>Node18</title>
<g id="a_Node000018"><a xlink:title=" ">
<polygon fill="#e0e0e0" stroke="#999999" points="1097,-134.5 1032,-134.5 1032,-115.5 1097,-115.5 1097,-134.5"/>
<text text-anchor="middle" x="1064.5" y="-122.5" font-family="Helvetica,sans-Serif" font-size="10.00">stdexcept</text>
</a>
</g>
</g>
<!-- Node2&#45;&gt;Node18 -->
<g id="edge19_Node000002_Node000018" class="edge">
<title>Node2&#45;&gt;Node18</title>
<g id="a_edge19_Node000002_Node000018"><a xlink:title=" ">
<path fill="none" stroke="#63b8ff" d="M750.33,-179.19C821.99,-173.23 930.9,-161.45 1023.5,-140 1026.48,-139.31 1029.55,-138.48 1032.6,-137.59"/>
<polygon fill="#63b8ff" stroke="#63b8ff" points="1033.72,-140.91 1042.18,-134.54 1031.59,-134.24 1033.72,-140.91"/>
</a>
</g>
</g>
<!-- Node19 -->
<g id="Node000019" class="node">
<title>Node19</title>
<g id="a_Node000019"><a xlink:title=" ">
<polygon fill="#e0e0e0" stroke="#999999" points="1160,-134.5 1115,-134.5 1115,-115.5 1160,-115.5 1160,-134.5"/>
<text text-anchor="middle" x="1137.5" y="-122.5" font-family="Helvetica,sans-Serif" font-size="10.00">utility</text>
</a>
</g>
</g>
<!-- Node2&#45;&gt;Node19 -->
<g id="edge22_Node000002_Node000019" class="edge">
<title>Node2&#45;&gt;Node19</title>
<g id="a_edge22_Node000002_Node000019"><a xlink:title=" ">
<path fill="none" stroke="#63b8ff" d="M750.29,-184.01C838.21,-181.74 984.91,-172.76 1106.5,-140 1108.19,-139.55 1109.9,-139.01 1111.6,-138.42"/>
<polygon fill="#63b8ff" stroke="#63b8ff" points="1113.17,-141.56 1121.13,-134.57 1110.55,-135.07 1113.17,-141.56"/>
</a>
</g>
</g>
<!-- Node4 -->
<g id="Node000004" class="node">
<title>Node4</title>
<g id="a_Node000004"><a xlink:title=" ">
<polygon fill="#e0e0e0" stroke="#999999" points="99,-19 6,-19 6,0 99,0 99,-19"/>
<text text-anchor="middle" x="52.5" y="-7" font-family="Helvetica,sans-Serif" font-size="10.00">alpaqa/export.h</text>
</a>
</g>
</g>
<!-- Node3&#45;&gt;Node4 -->
<g id="edge3_Node000003_Node000004" class="edge">
<title>Node3&#45;&gt;Node4</title>
<g id="a_edge3_Node000003_Node000004"><a xlink:title=" ">
<path fill="none" stroke="#63b8ff" d="M52.5,-54.75C52.5,-47.8 52.5,-37.85 52.5,-29.13"/>
<polygon fill="#63b8ff" stroke="#63b8ff" points="56,-29.09 52.5,-19.09 49,-29.09 56,-29.09"/>
</a>
</g>
</g>
<!-- Node5&#45;&gt;Node3 -->
<g id="edge5_Node000005_Node000003" class="edge">
<title>Node5&#45;&gt;Node3</title>
<g id="a_edge5_Node000005_Node000003"><a xlink:title=" ">
<path fill="none" stroke="#63b8ff" d="M121.47,-109.84C107.23,-100.68 88.77,-88.82 74.53,-79.66"/>
<polygon fill="#63b8ff" stroke="#63b8ff" points="76.17,-76.56 65.87,-74.09 72.39,-82.45 76.17,-76.56"/>
</a>
</g>
</g>
<!-- Node6 -->
<g id="Node000006" class="node">
<title>Node6</title>
<g id="a_Node000006"><a xlink:title=" ">
<polygon fill="#e0e0e0" stroke="#999999" points="167.5,-74 123.5,-74 123.5,-55 167.5,-55 167.5,-74"/>
<text text-anchor="middle" x="145.5" y="-62" font-family="Helvetica,sans-Serif" font-size="10.00">string</text>
</a>
</g>
</g>
<!-- Node5&#45;&gt;Node6 -->
<g id="edge6_Node000005_Node000006" class="edge">
<title>Node5&#45;&gt;Node6</title>
<g id="a_edge6_Node000005_Node000006"><a xlink:title=" ">
<path fill="none" stroke="#63b8ff" d="M143.98,-109.84C144.24,-102.21 144.57,-92.7 144.85,-84.45"/>
<polygon fill="#63b8ff" stroke="#63b8ff" points="148.36,-84.38 145.2,-74.27 141.36,-84.14 148.36,-84.38"/>
</a>
</g>
</g>
<!-- Node5&#45;&gt;Node7 -->
<g id="edge7_Node000005_Node000007" class="edge">
<title>Node5&#45;&gt;Node7</title>
<g id="a_edge7_Node000005_Node000007"><a xlink:title=" ">
<path fill="none" stroke="#63b8ff" d="M163.11,-109.84C175.47,-100.91 191.4,-89.41 203.93,-80.35"/>
<polygon fill="#63b8ff" stroke="#63b8ff" points="206.3,-82.96 212.36,-74.27 202.21,-77.28 206.3,-82.96"/>
</a>
</g>
</g>
<!-- Node10 -->
<g id="Node000010" class="node">
<title>Node10</title>
<g id="a_Node000010"><a xlink:title=" ">
<polygon fill="#e0e0e0" stroke="#999999" points="572.5,-74 512.5,-74 512.5,-55 572.5,-55 572.5,-74"/>
<text text-anchor="middle" x="542.5" y="-62" font-family="Helvetica,sans-Serif" font-size="10.00">concepts</text>
</a>
</g>
</g>
<!-- Node9&#45;&gt;Node10 -->
<g id="edge10_Node000009_Node000010" class="edge">
<title>Node9&#45;&gt;Node10</title>
<g id="a_edge10_Node000009_Node000010"><a xlink:title=" ">
<path fill="none" stroke="#63b8ff" d="M542.5,-115.37C542.5,-107.25 542.5,-94.81 542.5,-84.39"/>
<polygon fill="#63b8ff" stroke="#63b8ff" points="546,-84.17 542.5,-74.17 539,-84.17 546,-84.17"/>
</a>
</g>
</g>
<!-- Node9&#45;&gt;Node11 -->
<g id="edge11_Node000009_Node000011" class="edge">
<title>Node9&#45;&gt;Node11</title>
<g id="a_edge11_Node000009_Node000011"><a xlink:title=" ">
<path fill="none" stroke="#63b8ff" d="M529.37,-115.37C515.17,-106.04 492.3,-91.01 475.38,-79.88"/>
<polygon fill="#63b8ff" stroke="#63b8ff" points="476.97,-76.74 466.69,-74.17 473.12,-82.58 476.97,-76.74"/>
</a>
</g>
</g>
<!-- Node9&#45;&gt;Node12 -->
<g id="edge12_Node000009_Node000012" class="edge">
<title>Node9&#45;&gt;Node12</title>
<g id="a_edge12_Node000009_Node000012"><a xlink:title=" ">
<path fill="none" stroke="#63b8ff" d="M555.93,-115.37C570.58,-105.95 594.26,-90.73 611.6,-79.58"/>
<polygon fill="#63b8ff" stroke="#63b8ff" points="613.5,-82.52 620.02,-74.17 609.71,-76.63 613.5,-82.52"/>
</a>
</g>
</g>
</g>
</svg>

<g id="navigator" transform="translate(0 0)" fill="#404254">
  <rect fill="#f2f5e9" fill-opacity="0.5" stroke="#606060" stroke-width=".5" x="0" y="0" width="60" height="60"/>
  <use id="zoomplus" xlink:href="#zoomPlus" x="17" y="9" onmousedown="handleZoom(evt,'in')"/>
  <use id="zoomminus" xlink:href="#zoomMin" x="42" y="9" onmousedown="handleZoom(evt,'out')"/>
  <use id="reset" xlink:href="#resetDef" x="30" y="36" onmousedown="handleReset()"/>
   <use id="arrowup" xlink:href="#arrowUp" x="0" y="0" onmousedown="handlePan(0,-1)"/>
  <use id="arrowright" xlink:href="#arrowRight" x="0" y="0" onmousedown="handlePan(1,0)"/>
  <use id="arrowdown" xlink:href="#arrowDown" x="0" y="0" onmousedown="handlePan(0,1)"/>
  <use id="arrowleft" xlink:href="#arrowLeft" x="0" y="0" onmousedown="handlePan(-1,0)"/>
</g>
<svg viewBox="0 0 15 15" width="100%" height="30px" preserveAspectRatio="xMaxYMin meet">
 <g id="arrow_out" transform="scale(0.3 0.3)">
  <a xlink:href="type-erasure_8cpp__incl_org.svg" target="_base">
   <rect id="button" ry="5" rx="5" y="6" x="6" height="38" width="38"
        fill="#f2f5e9" fill-opacity="0.5" stroke="#606060" stroke-width="1.0"/>
   <path id="arrow"
     d="M 11.500037,31.436501 C 11.940474,20.09759 22.043105,11.32322 32.158766,21.979434 L 37.068811,17.246167 C 37.068811,17.246167 37.088388,32 37.088388,32 L 22.160133,31.978069 C 22.160133,31.978069 26.997745,27.140456 26.997745,27.140456 C 18.528582,18.264221 13.291696,25.230495 11.500037,31.436501 z"
     style="fill:#404040;"/>
  </a>
 </g>
</svg>

<style type='text/css'>
<![CDATA[
[data-mouse-over-selected='false'] { opacity: 0.7; }
[data-mouse-over-selected='true']  { opacity: 1.0; }
]]>
</style>
<script type="application/ecmascript"><![CDATA[
document.addEventListener('DOMContentLoaded', (event) => {
  highlightEdges();
  highlightAdjacentNodes();
});
]]></script>
</svg>
