<?xml version="1.0" encoding="UTF-8" standalone="no"?>
<!DOCTYPE svg PUBLIC "-//W3C//DTD SVG 1.1//EN"
 "http://www.w3.org/Graphics/SVG/1.1/DTD/svg11.dtd">
<!-- Generated by graphviz version 2.43.0 (0)
 -->
<!-- Title: call_extra_func Pages: 1 -->
<svg width="590pt" height="38pt"
 viewBox="0.00 0.00 590.00 38.00" xmlns="http://www.w3.org/2000/svg" xmlns:xlink="http://www.w3.org/1999/xlink">
<g id="graph0" class="graph" transform="scale(1 1) rotate(0) translate(4 34)">
<title>call_extra_func</title>
<!-- Node1 -->
<g id="Node000001" class="node">
<title>Node1</title>
<g id="a_Node000001"><a xlink:title=" ">
<polygon fill="#999999" stroke="#666666" points="91,-24.5 0,-24.5 0,-5.5 91,-5.5 91,-24.5"/>
<text text-anchor="middle" x="45.5" y="-12.5" font-family="Helvetica,sans-Serif" font-size="10.00">call_extra_func</text>
</a>
</g>
</g>
<!-- Node2 -->
<g id="Node000002" class="node">
<title>Node2</title>
<g id="a_Node000002"><a xlink:href="classalpaqa_1_1dl_1_1ExtraFuncs.html#a21b1342c38b8fd3409ad0a80a134b34d" target="_top" xlink:title=" ">
<polygon fill="white" stroke="#666666" points="260,-30 127,-30 127,0 260,0 260,-30"/>
<text text-anchor="start" x="135" y="-18" font-family="Helvetica,sans-Serif" font-size="10.00">alpaqa::dl::ExtraFuncs</text>
<text text-anchor="middle" x="193.5" y="-7" font-family="Helvetica,sans-Serif" font-size="10.00">::call_extra_func_helper</text>
</a>
</g>
</g>
<!-- Node1&#45;&gt;Node2 -->
<g id="edge1_Node000001_Node000002" class="edge">
<title>Node1&#45;&gt;Node2</title>
<g id="a_edge1_Node000001_Node000002"><a xlink:title=" ">
<path fill="none" stroke="#63b8ff" d="M91.1,-15C99.24,-15 107.93,-15 116.68,-15"/>
<polygon fill="#63b8ff" stroke="#63b8ff" points="116.94,-18.5 126.94,-15 116.94,-11.5 116.94,-18.5"/>
</a>
</g>
</g>
<!-- Node3 -->
<g id="Node000003" class="node">
<title>Node3</title>
<g id="a_Node000003"><a xlink:href="classalpaqa_1_1dl_1_1ExtraFuncs.html#a273e485fe28cedadf95bd27909a7448e" target="_top" xlink:title=" ">
<polygon fill="white" stroke="#666666" points="420,-30 296,-30 296,0 420,0 420,-30"/>
<text text-anchor="start" x="304" y="-18" font-family="Helvetica,sans-Serif" font-size="10.00">alpaqa::dl::ExtraFuncs</text>
<text text-anchor="middle" x="358" y="-7" font-family="Helvetica,sans-Serif" font-size="10.00">::extra_func</text>
</a>
</g>
</g>
<!-- Node2&#45;&gt;Node3 -->
<g id="edge2_Node000002_Node000003" class="edge">
<title>Node2&#45;&gt;Node3</title>
<g id="a_edge2_Node000002_Node000003"><a xlink:title=" ">
<path fill="none" stroke="#63b8ff" d="M260.13,-15C268.52,-15 277.14,-15 285.62,-15"/>
<polygon fill="#63b8ff" stroke="#63b8ff" points="285.86,-18.5 295.86,-15 285.86,-11.5 285.86,-18.5"/>
</a>
</g>
</g>
<!-- Node4 -->
<g id="Node000004" class="node">
<title>Node4</title>
<g id="a_Node000004"><a xlink:href="demangled-typename_8cpp.html#a994032931a27ca4de5eea3f786057b17" target="_top" xlink:title="Get the pretty name of the given type as a string.">
<polygon fill="white" stroke="#666666" points="582,-24.5 456,-24.5 456,-5.5 582,-5.5 582,-24.5"/>
<text text-anchor="middle" x="519" y="-12.5" font-family="Helvetica,sans-Serif" font-size="10.00">demangled_typename</text>
</a>
</g>
</g>
<!-- Node3&#45;&gt;Node4 -->
<g id="edge3_Node000003_Node000004" class="edge">
<title>Node3&#45;&gt;Node4</title>
<g id="a_edge3_Node000003_Node000004"><a xlink:title=" ">
<path fill="none" stroke="#63b8ff" d="M420.02,-15C428.45,-15 437.18,-15 445.8,-15"/>
<polygon fill="#63b8ff" stroke="#63b8ff" points="445.83,-18.5 455.83,-15 445.83,-11.5 445.83,-18.5"/>
</a>
</g>
</g>
</g>
</svg>
