<?xml version="1.0" encoding="UTF-8" standalone="no"?>
<!DOCTYPE svg PUBLIC "-//W3C//DTD SVG 1.1//EN"
 "http://www.w3.org/Graphics/SVG/1.1/DTD/svg11.dtd">
<!-- Generated by graphviz version 2.43.0 (0)
 -->
<!-- Title: CasADiControlFunctionsWithParam&lt; Conf &gt; Pages: 1 -->
<svg width="500pt" height="629pt"
 viewBox="0.00 0.00 500.00 629.00" xmlns="http://www.w3.org/2000/svg" xmlns:xlink="http://www.w3.org/1999/xlink">
<g id="graph0" class="graph" transform="scale(1 1) rotate(0) translate(4 625)">
<title>CasADiControlFunctionsWithParam&lt; Conf &gt;</title>
<!-- Node1 -->
<g id="Node000001" class="node">
<title>Node1</title>
<g id="a_Node000001"><a xlink:title=" ">
<polygon fill="#999999" stroke="transparent" points="321,-210 171,-210 171,0 321,0 321,-210"/>
<text text-anchor="start" x="176" y="-198" font-family="Helvetica,sans-Serif" font-size="10.00">CasADiControlFunctionsWith</text>
<text text-anchor="start" x="208" y="-187" font-family="Helvetica,sans-Serif" font-size="10.00">Param&lt; Conf &gt;</text>
<text text-anchor="start" x="193.5" y="-172" font-family="Helvetica,sans-Serif" font-size="10.00">+</text>
<text text-anchor="start" x="225" y="-172" font-family="Helvetica,sans-Serif" font-size="10.00">nx</text>
<text text-anchor="start" x="193.5" y="-157" font-family="Helvetica,sans-Serif" font-size="10.00">+</text>
<text text-anchor="start" x="225" y="-157" font-family="Helvetica,sans-Serif" font-size="10.00">nu</text>
<text text-anchor="start" x="193.5" y="-142" font-family="Helvetica,sans-Serif" font-size="10.00">+</text>
<text text-anchor="start" x="225" y="-142" font-family="Helvetica,sans-Serif" font-size="10.00">nh</text>
<text text-anchor="start" x="193.5" y="-127" font-family="Helvetica,sans-Serif" font-size="10.00">+</text>
<text text-anchor="start" x="225" y="-127" font-family="Helvetica,sans-Serif" font-size="10.00">nh_N</text>
<text text-anchor="start" x="193.5" y="-112" font-family="Helvetica,sans-Serif" font-size="10.00">+</text>
<text text-anchor="start" x="225" y="-112" font-family="Helvetica,sans-Serif" font-size="10.00">nc</text>
<text text-anchor="start" x="193.5" y="-97" font-family="Helvetica,sans-Serif" font-size="10.00">+</text>
<text text-anchor="start" x="225" y="-97" font-family="Helvetica,sans-Serif" font-size="10.00">nc_N</text>
<text text-anchor="start" x="193.5" y="-82" font-family="Helvetica,sans-Serif" font-size="10.00">+</text>
<text text-anchor="start" x="225" y="-82" font-family="Helvetica,sans-Serif" font-size="10.00">p</text>
<text text-anchor="start" x="193.5" y="-67" font-family="Helvetica,sans-Serif" font-size="10.00">+</text>
<text text-anchor="start" x="225" y="-67" font-family="Helvetica,sans-Serif" font-size="10.00">jac_f</text>
<text text-anchor="start" x="193.5" y="-52" font-family="Helvetica,sans-Serif" font-size="10.00">+</text>
<text text-anchor="start" x="225" y="-52" font-family="Helvetica,sans-Serif" font-size="10.00">qr</text>
<text text-anchor="start" x="193.5" y="-37" font-family="Helvetica,sans-Serif" font-size="10.00">+</text>
<text text-anchor="start" x="225" y="-37" font-family="Helvetica,sans-Serif" font-size="10.00">q_N</text>
<text text-anchor="start" x="193.5" y="-22" font-family="Helvetica,sans-Serif" font-size="10.00">+</text>
<text text-anchor="start" x="225" y="-22" font-family="Helvetica,sans-Serif" font-size="10.00">WithParam</text>
<text text-anchor="start" x="193.5" y="-7" font-family="Helvetica,sans-Serif" font-size="10.00">+</text>
<text text-anchor="start" x="225" y="-7" font-family="Helvetica,sans-Serif" font-size="10.00">load()</text>
<polygon fill="#666666" stroke="#666666" points="171,-182 171,-182 321,-182 321,-182 171,-182"/>
<polygon fill="#666666" stroke="#666666" points="171,-17 171,-17 223,-17 223,-17 171,-17"/>
<polygon fill="#666666" stroke="#666666" points="223,-17 223,-17 321,-17 321,-17 223,-17"/>
<polygon fill="none" stroke="#666666" points="171,0 171,-210 321,-210 321,0 171,0"/>
</a>
</g>
</g>
<!-- Node2 -->
<g id="Node000002" class="node">
<title>Node2</title>
<g id="a_Node000002"><a xlink:href="classalpaqa_1_1casadi__loader_1_1CasADiFunctionEvaluator.html" target="_top" xlink:title=" ">
<polygon fill="white" stroke="transparent" points="152,-621 0,-621 0,-411 152,-411 152,-621"/>
<text text-anchor="start" x="10.5" y="-609" font-family="Helvetica,sans-Serif" font-size="10.00">CasADiFunctionEvaluator</text>
<text text-anchor="start" x="10.5" y="-598" font-family="Helvetica,sans-Serif" font-size="10.00">&lt; Conf, 2+WithParam, 1 &gt;</text>
<text text-anchor="start" x="4" y="-583" font-family="Helvetica,sans-Serif" font-size="10.00">+</text>
<text text-anchor="start" x="17" y="-583" font-family="Helvetica,sans-Serif" font-size="10.00">fun</text>
<text text-anchor="start" x="6.5" y="-568" font-family="Helvetica,sans-Serif" font-size="10.00">&#45;</text>
<text text-anchor="start" x="17" y="-568" font-family="Helvetica,sans-Serif" font-size="10.00">iwork</text>
<text text-anchor="start" x="6.5" y="-553" font-family="Helvetica,sans-Serif" font-size="10.00">&#45;</text>
<text text-anchor="start" x="17" y="-553" font-family="Helvetica,sans-Serif" font-size="10.00">dwork</text>
<text text-anchor="start" x="6.5" y="-538" font-family="Helvetica,sans-Serif" font-size="10.00">&#45;</text>
<text text-anchor="start" x="17" y="-538" font-family="Helvetica,sans-Serif" font-size="10.00">arg_work</text>
<text text-anchor="start" x="6.5" y="-523" font-family="Helvetica,sans-Serif" font-size="10.00">&#45;</text>
<text text-anchor="start" x="17" y="-523" font-family="Helvetica,sans-Serif" font-size="10.00">res_work</text>
<text text-anchor="start" x="4" y="-508" font-family="Helvetica,sans-Serif" font-size="10.00">+</text>
<text text-anchor="start" x="17" y="-508" font-family="Helvetica,sans-Serif" font-size="10.00">CasADiFunctionEvaluator()</text>
<text text-anchor="start" x="4" y="-493" font-family="Helvetica,sans-Serif" font-size="10.00">+</text>
<text text-anchor="start" x="17" y="-493" font-family="Helvetica,sans-Serif" font-size="10.00">CasADiFunctionEvaluator()</text>
<text text-anchor="start" x="4" y="-478" font-family="Helvetica,sans-Serif" font-size="10.00">+</text>
<text text-anchor="start" x="17" y="-478" font-family="Helvetica,sans-Serif" font-size="10.00">validate_dimensions()</text>
<text text-anchor="start" x="4" y="-463" font-family="Helvetica,sans-Serif" font-size="10.00">+</text>
<text text-anchor="start" x="17" y="-463" font-family="Helvetica,sans-Serif" font-size="10.00">operator()()</text>
<text text-anchor="start" x="4" y="-448" font-family="Helvetica,sans-Serif" font-size="10.00">+</text>
<text text-anchor="start" x="17" y="-448" font-family="Helvetica,sans-Serif" font-size="10.00">validate_num_args()</text>
<text text-anchor="start" x="4" y="-433" font-family="Helvetica,sans-Serif" font-size="10.00">+</text>
<text text-anchor="start" x="17" y="-433" font-family="Helvetica,sans-Serif" font-size="10.00">validate_dimensions()</text>
<text text-anchor="start" x="4" y="-418" font-family="Helvetica,sans-Serif" font-size="10.00">#</text>
<text text-anchor="start" x="17" y="-418" font-family="Helvetica,sans-Serif" font-size="10.00">operator()()</text>
<polygon fill="#666666" stroke="#666666" points="0,-593 0,-593 152,-593 152,-593 0,-593"/>
<polygon fill="#666666" stroke="#666666" points="0,-518 0,-518 15,-518 15,-518 0,-518"/>
<polygon fill="#666666" stroke="#666666" points="15,-518 15,-518 152,-518 152,-518 15,-518"/>
<polygon fill="none" stroke="#666666" points="0,-411 0,-621 152,-621 152,-411 0,-411"/>
</a>
</g>
</g>
<!-- Node2&#45;&gt;Node1 -->
<g id="edge1_Node000001_Node000002" class="edge">
<title>Node2&#45;&gt;Node1</title>
<g id="a_edge1_Node000001_Node000002"><a xlink:title=" ">
<path fill="none" stroke="#63b8ff" d="M117.81,-410.81C139.88,-356.24 167.58,-288.38 193,-228 193.92,-225.81 194.86,-223.59 195.8,-221.36"/>
<polygon fill="none" stroke="#63b8ff" points="195.9,-221.13 194.56,-214.05 200.59,-210.09 201.93,-217.18 195.9,-221.13"/>
</a>
</g>
<text text-anchor="middle" x="217.5" y="-385" font-family="Helvetica,sans-Serif" font-size="10.00" fill="grey"> +Q</text>
<text text-anchor="middle" x="217.5" y="-374" font-family="Helvetica,sans-Serif" font-size="10.00" fill="grey">+Q_N</text>
<text text-anchor="middle" x="217.5" y="-363" font-family="Helvetica,sans-Serif" font-size="10.00" fill="grey">+R</text>
<text text-anchor="middle" x="217.5" y="-352" font-family="Helvetica,sans-Serif" font-size="10.00" fill="grey">+S</text>
<text text-anchor="middle" x="217.5" y="-341" font-family="Helvetica,sans-Serif" font-size="10.00" fill="grey">+f</text>
<text text-anchor="start" x="193" y="-330" font-family="Helvetica,sans-Serif" font-size="10.00" fill="grey">+gn_hess</text>
<text text-anchor="middle" x="217.5" y="-319" font-family="Helvetica,sans-Serif" font-size="10.00" fill="grey">_c</text>
<text text-anchor="start" x="193" y="-308" font-family="Helvetica,sans-Serif" font-size="10.00" fill="grey">+gn_hess</text>
<text text-anchor="middle" x="217.5" y="-297" font-family="Helvetica,sans-Serif" font-size="10.00" fill="grey">_c_N</text>
<text text-anchor="start" x="193" y="-286" font-family="Helvetica,sans-Serif" font-size="10.00" fill="grey">+grad_c</text>
<text text-anchor="middle" x="217.5" y="-275" font-family="Helvetica,sans-Serif" font-size="10.00" fill="grey">_prod</text>
<text text-anchor="start" x="193" y="-264" font-family="Helvetica,sans-Serif" font-size="10.00" fill="grey">+grad_c</text>
<text text-anchor="middle" x="217.5" y="-253" font-family="Helvetica,sans-Serif" font-size="10.00" fill="grey">_prod_N</text>
<text text-anchor="middle" x="217.5" y="-242" font-family="Helvetica,sans-Serif" font-size="10.00" fill="grey">+h</text>
<text text-anchor="middle" x="217.5" y="-231" font-family="Helvetica,sans-Serif" font-size="10.00" fill="grey">...</text>
</g>
<!-- Node3 -->
<g id="Node000003" class="node">
<title>Node3</title>
<g id="a_Node000003"><a xlink:href="classalpaqa_1_1casadi__loader_1_1CasADiFunctionEvaluator.html" target="_top" xlink:title=" ">
<polygon fill="white" stroke="transparent" points="322,-621 170,-621 170,-411 322,-411 322,-621"/>
<text text-anchor="start" x="180.5" y="-609" font-family="Helvetica,sans-Serif" font-size="10.00">CasADiFunctionEvaluator</text>
<text text-anchor="start" x="180.5" y="-598" font-family="Helvetica,sans-Serif" font-size="10.00">&lt; Conf, 3+WithParam, 1 &gt;</text>
<text text-anchor="start" x="174" y="-583" font-family="Helvetica,sans-Serif" font-size="10.00">+</text>
<text text-anchor="start" x="187" y="-583" font-family="Helvetica,sans-Serif" font-size="10.00">fun</text>
<text text-anchor="start" x="176.5" y="-568" font-family="Helvetica,sans-Serif" font-size="10.00">&#45;</text>
<text text-anchor="start" x="187" y="-568" font-family="Helvetica,sans-Serif" font-size="10.00">iwork</text>
<text text-anchor="start" x="176.5" y="-553" font-family="Helvetica,sans-Serif" font-size="10.00">&#45;</text>
<text text-anchor="start" x="187" y="-553" font-family="Helvetica,sans-Serif" font-size="10.00">dwork</text>
<text text-anchor="start" x="176.5" y="-538" font-family="Helvetica,sans-Serif" font-size="10.00">&#45;</text>
<text text-anchor="start" x="187" y="-538" font-family="Helvetica,sans-Serif" font-size="10.00">arg_work</text>
<text text-anchor="start" x="176.5" y="-523" font-family="Helvetica,sans-Serif" font-size="10.00">&#45;</text>
<text text-anchor="start" x="187" y="-523" font-family="Helvetica,sans-Serif" font-size="10.00">res_work</text>
<text text-anchor="start" x="174" y="-508" font-family="Helvetica,sans-Serif" font-size="10.00">+</text>
<text text-anchor="start" x="187" y="-508" font-family="Helvetica,sans-Serif" font-size="10.00">CasADiFunctionEvaluator()</text>
<text text-anchor="start" x="174" y="-493" font-family="Helvetica,sans-Serif" font-size="10.00">+</text>
<text text-anchor="start" x="187" y="-493" font-family="Helvetica,sans-Serif" font-size="10.00">CasADiFunctionEvaluator()</text>
<text text-anchor="start" x="174" y="-478" font-family="Helvetica,sans-Serif" font-size="10.00">+</text>
<text text-anchor="start" x="187" y="-478" font-family="Helvetica,sans-Serif" font-size="10.00">validate_dimensions()</text>
<text text-anchor="start" x="174" y="-463" font-family="Helvetica,sans-Serif" font-size="10.00">+</text>
<text text-anchor="start" x="187" y="-463" font-family="Helvetica,sans-Serif" font-size="10.00">operator()()</text>
<text text-anchor="start" x="174" y="-448" font-family="Helvetica,sans-Serif" font-size="10.00">+</text>
<text text-anchor="start" x="187" y="-448" font-family="Helvetica,sans-Serif" font-size="10.00">validate_num_args()</text>
<text text-anchor="start" x="174" y="-433" font-family="Helvetica,sans-Serif" font-size="10.00">+</text>
<text text-anchor="start" x="187" y="-433" font-family="Helvetica,sans-Serif" font-size="10.00">validate_dimensions()</text>
<text text-anchor="start" x="174" y="-418" font-family="Helvetica,sans-Serif" font-size="10.00">#</text>
<text text-anchor="start" x="187" y="-418" font-family="Helvetica,sans-Serif" font-size="10.00">operator()()</text>
<polygon fill="#666666" stroke="#666666" points="170,-593 170,-593 322,-593 322,-593 170,-593"/>
<polygon fill="#666666" stroke="#666666" points="170,-518 170,-518 185,-518 185,-518 170,-518"/>
<polygon fill="#666666" stroke="#666666" points="185,-518 185,-518 322,-518 322,-518 185,-518"/>
<polygon fill="none" stroke="#666666" points="170,-411 170,-621 322,-621 322,-411 170,-411"/>
</a>
</g>
</g>
<!-- Node3&#45;&gt;Node1 -->
<g id="edge2_Node000001_Node000003" class="edge">
<title>Node3&#45;&gt;Node1</title>
<g id="a_edge2_Node000001_Node000003"><a xlink:title=" ">
<path fill="none" stroke="#63b8ff" d="M246,-411C246,-353.43 246,-281.72 246,-222.3"/>
<polygon fill="none" stroke="#63b8ff" points="246,-222.21 242,-216.21 246,-210.21 250,-216.21 246,-222.21"/>
</a>
</g>
<text text-anchor="middle" x="281" y="-308" font-family="Helvetica,sans-Serif" font-size="10.00" fill="grey"> +grad_f_prod</text>
</g>
<!-- Node4 -->
<g id="Node000004" class="node">
<title>Node4</title>
<g id="a_Node000004"><a xlink:href="classalpaqa_1_1casadi__loader_1_1CasADiFunctionEvaluator.html" target="_top" xlink:title=" ">
<polygon fill="white" stroke="transparent" points="492,-621 340,-621 340,-411 492,-411 492,-621"/>
<text text-anchor="start" x="350.5" y="-609" font-family="Helvetica,sans-Serif" font-size="10.00">CasADiFunctionEvaluator</text>
<text text-anchor="start" x="350.5" y="-598" font-family="Helvetica,sans-Serif" font-size="10.00">&lt; Conf, 1+WithParam, 1 &gt;</text>
<text text-anchor="start" x="344" y="-583" font-family="Helvetica,sans-Serif" font-size="10.00">+</text>
<text text-anchor="start" x="357" y="-583" font-family="Helvetica,sans-Serif" font-size="10.00">fun</text>
<text text-anchor="start" x="346.5" y="-568" font-family="Helvetica,sans-Serif" font-size="10.00">&#45;</text>
<text text-anchor="start" x="357" y="-568" font-family="Helvetica,sans-Serif" font-size="10.00">iwork</text>
<text text-anchor="start" x="346.5" y="-553" font-family="Helvetica,sans-Serif" font-size="10.00">&#45;</text>
<text text-anchor="start" x="357" y="-553" font-family="Helvetica,sans-Serif" font-size="10.00">dwork</text>
<text text-anchor="start" x="346.5" y="-538" font-family="Helvetica,sans-Serif" font-size="10.00">&#45;</text>
<text text-anchor="start" x="357" y="-538" font-family="Helvetica,sans-Serif" font-size="10.00">arg_work</text>
<text text-anchor="start" x="346.5" y="-523" font-family="Helvetica,sans-Serif" font-size="10.00">&#45;</text>
<text text-anchor="start" x="357" y="-523" font-family="Helvetica,sans-Serif" font-size="10.00">res_work</text>
<text text-anchor="start" x="344" y="-508" font-family="Helvetica,sans-Serif" font-size="10.00">+</text>
<text text-anchor="start" x="357" y="-508" font-family="Helvetica,sans-Serif" font-size="10.00">CasADiFunctionEvaluator()</text>
<text text-anchor="start" x="344" y="-493" font-family="Helvetica,sans-Serif" font-size="10.00">+</text>
<text text-anchor="start" x="357" y="-493" font-family="Helvetica,sans-Serif" font-size="10.00">CasADiFunctionEvaluator()</text>
<text text-anchor="start" x="344" y="-478" font-family="Helvetica,sans-Serif" font-size="10.00">+</text>
<text text-anchor="start" x="357" y="-478" font-family="Helvetica,sans-Serif" font-size="10.00">validate_dimensions()</text>
<text text-anchor="start" x="344" y="-463" font-family="Helvetica,sans-Serif" font-size="10.00">+</text>
<text text-anchor="start" x="357" y="-463" font-family="Helvetica,sans-Serif" font-size="10.00">operator()()</text>
<text text-anchor="start" x="344" y="-448" font-family="Helvetica,sans-Serif" font-size="10.00">+</text>
<text text-anchor="start" x="357" y="-448" font-family="Helvetica,sans-Serif" font-size="10.00">validate_num_args()</text>
<text text-anchor="start" x="344" y="-433" font-family="Helvetica,sans-Serif" font-size="10.00">+</text>
<text text-anchor="start" x="357" y="-433" font-family="Helvetica,sans-Serif" font-size="10.00">validate_dimensions()</text>
<text text-anchor="start" x="344" y="-418" font-family="Helvetica,sans-Serif" font-size="10.00">#</text>
<text text-anchor="start" x="357" y="-418" font-family="Helvetica,sans-Serif" font-size="10.00">operator()()</text>
<polygon fill="#666666" stroke="#666666" points="340,-593 340,-593 492,-593 492,-593 340,-593"/>
<polygon fill="#666666" stroke="#666666" points="340,-518 340,-518 355,-518 355,-518 340,-518"/>
<polygon fill="#666666" stroke="#666666" points="355,-518 355,-518 492,-518 492,-518 355,-518"/>
<polygon fill="none" stroke="#666666" points="340,-411 340,-621 492,-621 492,-411 340,-411"/>
</a>
</g>
</g>
<!-- Node4&#45;&gt;Node1 -->
<g id="edge3_Node000001_Node000004" class="edge">
<title>Node4&#45;&gt;Node1</title>
<g id="a_edge3_Node000001_Node000004"><a xlink:title=" ">
<path fill="none" stroke="#63b8ff" d="M387.3,-410.91C370.49,-355.46 347.23,-286.75 320,-228 318.94,-225.72 317.85,-223.42 316.73,-221.12"/>
<polygon fill="none" stroke="#63b8ff" points="316.7,-221.05 310.43,-217.49 311.31,-210.33 317.58,-213.89 316.7,-221.05"/>
</a>
</g>
<text text-anchor="middle" x="394" y="-330" font-family="Helvetica,sans-Serif" font-size="10.00" fill="grey"> +c</text>
<text text-anchor="middle" x="394" y="-319" font-family="Helvetica,sans-Serif" font-size="10.00" fill="grey">+c_N</text>
<text text-anchor="middle" x="394" y="-308" font-family="Helvetica,sans-Serif" font-size="10.00" fill="grey">+h_N</text>
<text text-anchor="middle" x="394" y="-297" font-family="Helvetica,sans-Serif" font-size="10.00" fill="grey">+l</text>
<text text-anchor="middle" x="394" y="-286" font-family="Helvetica,sans-Serif" font-size="10.00" fill="grey">+l_N</text>
</g>
</g>
</svg>
