<?xml version="1.0" encoding="UTF-8" standalone="no"?>
<!DOCTYPE svg PUBLIC "-//W3C//DTD SVG 1.1//EN"
 "http://www.w3.org/Graphics/SVG/1.1/DTD/svg11.dtd">
<!-- Generated by graphviz version 2.43.0 (0)
 -->
<!-- Title: set_params Pages: 1 -->
<!--zoomable 237 -->

<svg id="main" version="1.1" xmlns="http://www.w3.org/2000/svg" xmlns:xlink="http://www.w3.org/1999/xlink" xml:space="preserve" onload="init(evt)">

<style type="text/css"><![CDATA[
.node, .edge {opacity: 0.7;}
.node.selected, .edge.selected {opacity: 1;}
.edge:hover path { stroke: red; }
.edge:hover polygon { stroke: red; fill: red; }
]]></style>

<defs>
  <circle id="rim" cx="0" cy="0" r="7"/>
  <circle id="rim2" cx="0" cy="0" r="3.5"/>
  <g id="zoomPlus">
    <use xlink:href="#rim" fill="#404040"><set attributeName="fill" to="#808080" begin="zoomplus.mouseover" end="zoomplus.mouseout"/></use>
    <path d="M-4,0h8M0,-4v8" fill="none" stroke="white" stroke-width="1.5" pointer-events="none"/>
  </g>
  <g id="zoomMin">
    <use xlink:href="#rim" fill="#404040"><set attributeName="fill" to="#808080" begin="zoomminus.mouseover" end="zoomminus.mouseout"/></use>
    <path d="M-4,0h8" fill="none" stroke="white" stroke-width="1.5" pointer-events="none"/>
  </g>
  <g id="arrowUp" transform="translate(30 24)">
    <use xlink:href="#rim"/>
    <path pointer-events="none" fill="none" stroke="white" stroke-width="1.5" d="M0,-3.0v7 M-2.5,-0.5L0,-3.0L2.5,-0.5"/>
  </g>
  <g id="arrowRight" transform="rotate(90) translate(36 -43)">
    <use xlink:href="#rim"/>
    <path pointer-events="none" fill="none" stroke="white" stroke-width="1.5" d="M0,-3.0v7 M-2.5,-0.5L0,-3.0L2.5,-0.5"/>
  </g>
  <g id="arrowDown" transform="rotate(180) translate(-30 -48)">
    <use xlink:href="#rim"/>
    <path pointer-events="none" fill="none" stroke="white" stroke-width="1.5" d="M0,-3.0v7 M-2.5,-0.5L0,-3.0L2.5,-0.5"/>
  </g>
  <g id="arrowLeft" transform="rotate(270) translate(-36 17)">
    <use xlink:href="#rim"/>
    <path pointer-events="none" fill="none" stroke="white" stroke-width="1.5" d="M0,-3.0v7 M-2.5,-0.5L0,-3.0L2.5,-0.5"/>
  </g>
  <g id="resetDef">
    <use xlink:href="#rim2" fill="#404040"><set attributeName="fill" to="#808080" begin="reset.mouseover" end="reset.mouseout"/></use>
  </g>
</defs>
<script type="application/ecmascript">
var viewWidth = 1048;
var viewHeight = 237;
var sectionId = 'dynsection-5';
</script>
<script type="application/ecmascript" xlink:href="svg.min.js"/>
<svg id="graph" class="graph">
<g id="viewport">
<title>set_params</title>
<!-- Node1 -->
<g id="Node000001" class="node">
<title>Node1</title>
<g id="a_Node000001"><a xlink:title=" ">
<polygon fill="#999999" stroke="#666666" points="74,-124 0,-124 0,-105 74,-105 74,-124"/>
<text text-anchor="middle" x="37" y="-112" font-family="Helvetica,sans-Serif" font-size="10.00">set_params</text>
</a>
</g>
</g>
<!-- Node2 -->
<g id="Node000002" class="node">
<title>Node2</title>
<g id="a_Node000002"><a xlink:href="namespacealpaqa_1_1params.html#a1f2f7590328c20e04138a91eee5e0e98" target="_top" xlink:title="Get the first argument as a JSON object j.">
<polygon fill="white" stroke="#666666" points="224,-228.5 110,-228.5 110,-198.5 224,-198.5 224,-228.5"/>
<text text-anchor="start" x="118" y="-216.5" font-family="Helvetica,sans-Serif" font-size="10.00">alpaqa::params::get</text>
<text text-anchor="middle" x="167" y="-205.5" font-family="Helvetica,sans-Serif" font-size="10.00">_param</text>
</a>
</g>
</g>
<!-- Node1&#45;&gt;Node2 -->
<g id="edge1_Node000001_Node000002" class="edge">
<title>Node1&#45;&gt;Node2</title>
<g id="a_edge1_Node000001_Node000002"><a xlink:title=" ">
<path fill="none" stroke="#63b8ff" d="M45.4,-124.48C57.44,-140.12 82.69,-170.6 110,-189.5 112.09,-190.95 114.29,-192.34 116.55,-193.66"/>
<polygon fill="#63b8ff" stroke="#63b8ff" points="115.03,-196.82 125.49,-198.47 118.34,-190.65 115.03,-196.82"/>
</a>
</g>
</g>
<!-- Node5 -->
<g id="Node000005" class="node">
<title>Node5</title>
<g id="a_Node000005"><a xlink:href="classalpaqa_1_1Options.html#a32a1a00438ef83609a2ecf66d9e77056" target="_top" xlink:title=" ">
<polygon fill="white" stroke="#666666" points="199.5,-180 134.5,-180 134.5,-161 199.5,-161 199.5,-180"/>
<text text-anchor="middle" x="167" y="-168" font-family="Helvetica,sans-Serif" font-size="10.00">json_flags</text>
</a>
</g>
</g>
<!-- Node1&#45;&gt;Node5 -->
<g id="edge4_Node000001_Node000005" class="edge">
<title>Node1&#45;&gt;Node5</title>
<g id="a_edge4_Node000001_Node000005"><a xlink:title=" ">
<path fill="none" stroke="#63b8ff" d="M54.19,-124.09C68.53,-132.33 90.2,-144.17 110,-152.5 114.7,-154.48 119.7,-156.37 124.71,-158.14"/>
<polygon fill="#63b8ff" stroke="#63b8ff" points="123.66,-161.48 134.25,-161.36 125.9,-154.84 123.66,-161.48"/>
</a>
</g>
</g>
<!-- Node6 -->
<g id="Node000006" class="node">
<title>Node6</title>
<g id="a_Node000006"><a xlink:href="classalpaqa_1_1Options.html#a502ee531f4e5cdc1c8dd78e9409a4e8e" target="_top" xlink:title=" ">
<polygon fill="white" stroke="#666666" points="193.5,-143 140.5,-143 140.5,-124 193.5,-124 193.5,-143"/>
<text text-anchor="middle" x="167" y="-131" font-family="Helvetica,sans-Serif" font-size="10.00">options</text>
</a>
</g>
</g>
<!-- Node1&#45;&gt;Node6 -->
<g id="edge5_Node000001_Node000006" class="edge">
<title>Node1&#45;&gt;Node6</title>
<g id="a_edge5_Node000001_Node000006"><a xlink:title=" ">
<path fill="none" stroke="#63b8ff" d="M74.34,-119.89C91.72,-122.47 112.47,-125.55 129.84,-128.13"/>
<polygon fill="#63b8ff" stroke="#63b8ff" points="129.74,-131.66 140.15,-129.66 130.77,-124.73 129.74,-131.66"/>
</a>
</g>
</g>
<!-- Node7 -->
<g id="Node000007" class="node">
<title>Node7</title>
<g id="a_Node000007"><a xlink:href="namespacealpaqa_1_1params.html#ab8eefa468e61c2fa2c0e5349c1b3ef12" target="_top" xlink:title="Update/overwrite the first argument based on the JSON object j.">
<polygon fill="white" stroke="#666666" points="387.5,-110.5 274.5,-110.5 274.5,-80.5 387.5,-80.5 387.5,-110.5"/>
<text text-anchor="start" x="282.5" y="-98.5" font-family="Helvetica,sans-Serif" font-size="10.00">alpaqa::params::set</text>
<text text-anchor="middle" x="331" y="-87.5" font-family="Helvetica,sans-Serif" font-size="10.00">_param</text>
</a>
</g>
</g>
<!-- Node1&#45;&gt;Node7 -->
<g id="edge6_Node000001_Node000007" class="edge">
<title>Node1&#45;&gt;Node7</title>
<g id="a_edge6_Node000001_Node000007"><a xlink:title=" ">
<path fill="none" stroke="#63b8ff" d="M74.1,-112.15C121.38,-109.07 205.18,-103.62 263.96,-99.8"/>
<polygon fill="#63b8ff" stroke="#63b8ff" points="264.51,-103.27 274.27,-99.13 264.06,-96.28 264.51,-103.27"/>
</a>
</g>
</g>
<!-- Node12 -->
<g id="Node000012" class="node">
<title>Node12</title>
<g id="a_Node000012"><a xlink:href="namespacealpaqa_1_1params.html#abadc98653193fbd05b658d62b34f75e7" target="_top" xlink:title="Overwrites t based on the options that start with prefix.">
<polygon fill="white" stroke="#666666" points="223.5,-67.5 110.5,-67.5 110.5,-37.5 223.5,-37.5 223.5,-67.5"/>
<text text-anchor="start" x="118.5" y="-55.5" font-family="Helvetica,sans-Serif" font-size="10.00">alpaqa::params::set</text>
<text text-anchor="middle" x="167" y="-44.5" font-family="Helvetica,sans-Serif" font-size="10.00">_params</text>
</a>
</g>
</g>
<!-- Node1&#45;&gt;Node12 -->
<g id="edge11_Node000001_Node000012" class="edge">
<title>Node1&#45;&gt;Node12</title>
<g id="a_edge11_Node000001_Node000012"><a xlink:title=" ">
<path fill="none" stroke="#63b8ff" d="M57.72,-104.95C75.72,-96.23 102.88,-83.07 125.49,-72.12"/>
<polygon fill="#63b8ff" stroke="#63b8ff" points="127.07,-75.24 134.55,-67.74 124.02,-68.94 127.07,-75.24"/>
</a>
</g>
</g>
<!-- Node14 -->
<g id="Node000014" class="node">
<title>Node14</title>
<g id="a_Node000014"><a xlink:href="classalpaqa_1_1Options.html#a12df8f934f6bafb37bf4e64529917d06" target="_top" xlink:title=" ">
<polygon fill="white" stroke="#666666" points="187,-19 147,-19 147,0 187,0 187,-19"/>
<text text-anchor="middle" x="167" y="-7" font-family="Helvetica,sans-Serif" font-size="10.00">used</text>
</a>
</g>
</g>
<!-- Node1&#45;&gt;Node14 -->
<g id="edge14_Node000001_Node000014" class="edge">
<title>Node1&#45;&gt;Node14</title>
<g id="a_edge14_Node000001_Node000014"><a xlink:title=" ">
<path fill="none" stroke="#63b8ff" d="M43.63,-104.75C54.34,-87.04 79.31,-49.51 110,-28.5 118.06,-22.98 127.87,-18.94 137.01,-16.04"/>
<polygon fill="#63b8ff" stroke="#63b8ff" points="138.25,-19.32 146.92,-13.23 136.35,-12.59 138.25,-19.32"/>
</a>
</g>
</g>
<!-- Node3 -->
<g id="Node000003" class="node">
<title>Node3</title>
<g id="a_Node000003"><a xlink:href="namespacealpaqa_1_1params.html#a2ed398728f87219847d2db047fa70195" target="_top" xlink:title=" ">
<polygon fill="white" stroke="#666666" points="388,-228.5 274,-228.5 274,-198.5 388,-198.5 388,-228.5"/>
<text text-anchor="start" x="282" y="-216.5" font-family="Helvetica,sans-Serif" font-size="10.00">alpaqa::params::get</text>
<text text-anchor="middle" x="331" y="-205.5" font-family="Helvetica,sans-Serif" font-size="10.00">_param_default</text>
</a>
</g>
</g>
<!-- Node2&#45;&gt;Node3 -->
<g id="edge2_Node000002_Node000003" class="edge">
<title>Node2&#45;&gt;Node3</title>
<g id="a_edge2_Node000002_Node000003"><a xlink:title=" ">
<path fill="none" stroke="#63b8ff" d="M224.21,-213.5C236.9,-213.5 250.49,-213.5 263.55,-213.5"/>
<polygon fill="#63b8ff" stroke="#63b8ff" points="263.89,-217 273.89,-213.5 263.89,-210 263.89,-217"/>
</a>
</g>
</g>
<!-- Node4 -->
<g id="Node000004" class="node">
<title>Node4</title>
<g id="a_Node000004"><a xlink:href="namespacealpaqa.html#ad0c64aea84b4b70c07be417122dd8e3f" target="_top" xlink:title=" ">
<polygon fill="white" stroke="#666666" points="554,-223 438,-223 438,-204 554,-204 554,-223"/>
<text text-anchor="middle" x="496" y="-211" font-family="Helvetica,sans-Serif" font-size="10.00">alpaqa::enum_name</text>
</a>
</g>
</g>
<!-- Node3&#45;&gt;Node4 -->
<g id="edge3_Node000003_Node000004" class="edge">
<title>Node3&#45;&gt;Node4</title>
<g id="a_edge3_Node000003_Node000004"><a xlink:title=" ">
<path fill="none" stroke="#63b8ff" d="M388.1,-213.5C400.94,-213.5 414.71,-213.5 427.97,-213.5"/>
<polygon fill="#63b8ff" stroke="#63b8ff" points="427.97,-217 437.97,-213.5 427.97,-210 427.97,-217"/>
</a>
</g>
</g>
<!-- Node8 -->
<g id="Node000008" class="node">
<title>Node8</title>
<g id="a_Node000008"><a xlink:href="namespacealpaqa_1_1params.html#a39fab1bdf1cebbc5e1574eac16a9af53" target="_top" xlink:title=" ">
<polygon fill="white" stroke="#666666" points="552.5,-110.5 439.5,-110.5 439.5,-80.5 552.5,-80.5 552.5,-110.5"/>
<text text-anchor="start" x="447.5" y="-98.5" font-family="Helvetica,sans-Serif" font-size="10.00">alpaqa::params::set</text>
<text text-anchor="middle" x="496" y="-87.5" font-family="Helvetica,sans-Serif" font-size="10.00">_param_default</text>
</a>
</g>
</g>
<!-- Node7&#45;&gt;Node8 -->
<g id="edge7_Node000007_Node000008" class="edge">
<title>Node7&#45;&gt;Node8</title>
<g id="a_edge7_Node000007_Node000008"><a xlink:title=" ">
<path fill="none" stroke="#63b8ff" d="M387.64,-95.5C400.94,-95.5 415.27,-95.5 428.99,-95.5"/>
<polygon fill="#63b8ff" stroke="#63b8ff" points="429.33,-99 439.33,-95.5 429.33,-92 429.33,-99"/>
</a>
</g>
</g>
<!-- Node9 -->
<g id="Node000009" class="node">
<title>Node9</title>
<g id="a_Node000009"><a xlink:href="namespacealpaqa_1_1params_1_1detail.html#a804e857883513f30bab3d3b8eaff9a05" target="_top" xlink:title=" ">
<polygon fill="white" stroke="#666666" points="716,-110.5 590,-110.5 590,-80.5 716,-80.5 716,-110.5"/>
<text text-anchor="start" x="598" y="-98.5" font-family="Helvetica,sans-Serif" font-size="10.00">alpaqa::params::detail</text>
<text text-anchor="middle" x="653" y="-87.5" font-family="Helvetica,sans-Serif" font-size="10.00">::set_param_json</text>
</a>
</g>
</g>
<!-- Node8&#45;&gt;Node9 -->
<g id="edge8_Node000008_Node000009" class="edge">
<title>Node8&#45;&gt;Node9</title>
<g id="a_edge8_Node000008_Node000009"><a xlink:title=" ">
<path fill="none" stroke="#63b8ff" d="M552.52,-95.5C561.29,-95.5 570.48,-95.5 579.57,-95.5"/>
<polygon fill="#63b8ff" stroke="#63b8ff" points="579.76,-99 589.76,-95.5 579.76,-92 579.76,-99"/>
</a>
</g>
</g>
<!-- Node10 -->
<g id="Node000010" class="node">
<title>Node10</title>
<g id="a_Node000010"><a xlink:href="namespacealpaqa_1_1params_1_1detail.html#a5eef50360de8527b24463d00629819f8" target="_top" xlink:title=" ">
<polygon fill="white" stroke="#666666" points="878,-110.5 752,-110.5 752,-80.5 878,-80.5 878,-110.5"/>
<text text-anchor="start" x="760" y="-98.5" font-family="Helvetica,sans-Serif" font-size="10.00">alpaqa::params::detail</text>
<text text-anchor="middle" x="815" y="-87.5" font-family="Helvetica,sans-Serif" font-size="10.00">::find_param_or_throw</text>
</a>
</g>
</g>
<!-- Node9&#45;&gt;Node10 -->
<g id="edge9_Node000009_Node000010" class="edge">
<title>Node9&#45;&gt;Node10</title>
<g id="a_edge9_Node000009_Node000010"><a xlink:title=" ">
<path fill="none" stroke="#63b8ff" d="M716.32,-95.5C724.62,-95.5 733.18,-95.5 741.63,-95.5"/>
<polygon fill="#63b8ff" stroke="#63b8ff" points="741.85,-99 751.85,-95.5 741.85,-92 741.85,-99"/>
</a>
</g>
</g>
<!-- Node11 -->
<g id="Node000011" class="node">
<title>Node11</title>
<g id="a_Node000011"><a xlink:href="namespacealpaqa_1_1params_1_1detail.html#a6aa41a8827ffd36b3e2a8e7346a44f19" target="_top" xlink:title=" ">
<polygon fill="white" stroke="#666666" points="1040,-110.5 914,-110.5 914,-80.5 1040,-80.5 1040,-110.5"/>
<text text-anchor="start" x="922" y="-98.5" font-family="Helvetica,sans-Serif" font-size="10.00">alpaqa::params::detail</text>
<text text-anchor="middle" x="977" y="-87.5" font-family="Helvetica,sans-Serif" font-size="10.00">::join_sorted_keys</text>
</a>
</g>
</g>
<!-- Node10&#45;&gt;Node11 -->
<g id="edge10_Node000010_Node000011" class="edge">
<title>Node10&#45;&gt;Node11</title>
<g id="a_edge10_Node000010_Node000011"><a xlink:title=" ">
<path fill="none" stroke="#63b8ff" d="M878.32,-95.5C886.62,-95.5 895.18,-95.5 903.63,-95.5"/>
<polygon fill="#63b8ff" stroke="#63b8ff" points="903.85,-99 913.85,-95.5 903.85,-92 903.85,-99"/>
</a>
</g>
</g>
<!-- Node12&#45;&gt;Node7 -->
<g id="edge12_Node000012_Node000007" class="edge">
<title>Node12&#45;&gt;Node7</title>
<g id="a_edge12_Node000012_Node000007"><a xlink:title=" ">
<path fill="none" stroke="#63b8ff" d="M223.75,-67.3C236.93,-70.8 251.11,-74.56 264.67,-78.16"/>
<polygon fill="#63b8ff" stroke="#63b8ff" points="263.86,-81.56 274.42,-80.75 265.65,-74.8 263.86,-81.56"/>
</a>
</g>
</g>
<!-- Node13 -->
<g id="Node000013" class="node">
<title>Node13</title>
<g id="a_Node000013"><a xlink:href="namespacealpaqa_1_1params.html#aa3666becfea1ef2eb24d83f592c123e9" target="_top" xlink:title="Split the string full on the first occurrence of tok.">
<polygon fill="white" stroke="#666666" points="402,-62 260,-62 260,-43 402,-43 402,-62"/>
<text text-anchor="middle" x="331" y="-50" font-family="Helvetica,sans-Serif" font-size="10.00">alpaqa::params::split_key</text>
</a>
</g>
</g>
<!-- Node12&#45;&gt;Node13 -->
<g id="edge13_Node000012_Node000013" class="edge">
<title>Node12&#45;&gt;Node13</title>
<g id="a_edge13_Node000012_Node000013"><a xlink:title=" ">
<path fill="none" stroke="#63b8ff" d="M223.75,-52.5C232.11,-52.5 240.86,-52.5 249.6,-52.5"/>
<polygon fill="#63b8ff" stroke="#63b8ff" points="249.84,-56 259.84,-52.5 249.84,-49 249.84,-56"/>
</a>
</g>
</g>
</g>
</svg>

<g id="navigator" transform="translate(0 0)" fill="#404254">
  <rect fill="#f2f5e9" fill-opacity="0.5" stroke="#606060" stroke-width=".5" x="0" y="0" width="60" height="60"/>
  <use id="zoomplus" xlink:href="#zoomPlus" x="17" y="9" onmousedown="handleZoom(evt,'in')"/>
  <use id="zoomminus" xlink:href="#zoomMin" x="42" y="9" onmousedown="handleZoom(evt,'out')"/>
  <use id="reset" xlink:href="#resetDef" x="30" y="36" onmousedown="handleReset()"/>
   <use id="arrowup" xlink:href="#arrowUp" x="0" y="0" onmousedown="handlePan(0,-1)"/>
  <use id="arrowright" xlink:href="#arrowRight" x="0" y="0" onmousedown="handlePan(1,0)"/>
  <use id="arrowdown" xlink:href="#arrowDown" x="0" y="0" onmousedown="handlePan(0,1)"/>
  <use id="arrowleft" xlink:href="#arrowLeft" x="0" y="0" onmousedown="handlePan(-1,0)"/>
</g>
<svg viewBox="0 0 15 15" width="100%" height="30px" preserveAspectRatio="xMaxYMin meet">
 <g id="arrow_out" transform="scale(0.3 0.3)">
  <a xlink:href="classalpaqa_1_1Options_a8ca2e3915e8acf3cd04e02180e66e9ab_cgraph_org.svg" target="_base">
   <rect id="button" ry="5" rx="5" y="6" x="6" height="38" width="38"
        fill="#f2f5e9" fill-opacity="0.5" stroke="#606060" stroke-width="1.0"/>
   <path id="arrow"
     d="M 11.500037,31.436501 C 11.940474,20.09759 22.043105,11.32322 32.158766,21.979434 L 37.068811,17.246167 C 37.068811,17.246167 37.088388,32 37.088388,32 L 22.160133,31.978069 C 22.160133,31.978069 26.997745,27.140456 26.997745,27.140456 C 18.528582,18.264221 13.291696,25.230495 11.500037,31.436501 z"
     style="fill:#404040;"/>
  </a>
 </g>
</svg>

<style type='text/css'>
<![CDATA[
[data-mouse-over-selected='false'] { opacity: 0.7; }
[data-mouse-over-selected='true']  { opacity: 1.0; }
]]>
</style>
<script type="application/ecmascript"><![CDATA[
document.addEventListener('DOMContentLoaded', (event) => {
  highlightEdges();
  highlightAdjacentNodes();
});
]]></script>
</svg>
