<?xml version="1.0" encoding="UTF-8" standalone="no"?>
<!DOCTYPE svg PUBLIC "-//W3C//DTD SVG 1.1//EN"
 "http://www.w3.org/Graphics/SVG/1.1/DTD/svg11.dtd">
<!-- Generated by graphviz version 2.43.0 (0)
 -->
<!-- Title: eval Pages: 1 -->
<svg width="177pt" height="64pt"
 viewBox="0.00 0.00 177.00 64.00" xmlns="http://www.w3.org/2000/svg" xmlns:xlink="http://www.w3.org/1999/xlink">
<g id="graph0" class="graph" transform="scale(1 1) rotate(0) translate(4 60)">
<title>eval</title>
<!-- Node1 -->
<g id="Node000001" class="node">
<title>Node1</title>
<g id="a_Node000001"><a xlink:title=" ">
<polygon fill="#999999" stroke="#666666" points="38,-37 0,-37 0,-18 38,-18 38,-37"/>
<text text-anchor="middle" x="19" y="-25" font-family="Helvetica,sans-Serif" font-size="10.00">eval</text>
</a>
</g>
</g>
<!-- Node2 -->
<g id="Node000002" class="node">
<title>Node2</title>
<g id="a_Node000002"><a xlink:href="namespacealpaqa.html#a4aa5d1b70ae86454004ab771713c0826" target="_top" xlink:title="Convert an Eigen vector view to a std::span.">
<polygon fill="white" stroke="#666666" points="169,-56 74,-56 74,-37 169,-37 169,-56"/>
<text text-anchor="middle" x="121.5" y="-44" font-family="Helvetica,sans-Serif" font-size="10.00">alpaqa::as_span</text>
</a>
</g>
</g>
<!-- Node1&#45;&gt;Node2 -->
<g id="edge1_Node000001_Node000002" class="edge">
<title>Node1&#45;&gt;Node2</title>
<g id="a_edge1_Node000001_Node000002"><a xlink:title=" ">
<path fill="none" stroke="#63b8ff" d="M38.43,-30.98C45.76,-32.37 54.61,-34.04 63.76,-35.77"/>
<polygon fill="#63b8ff" stroke="#63b8ff" points="63.27,-39.24 73.74,-37.66 64.57,-32.36 63.27,-39.24"/>
</a>
</g>
</g>
<!-- Node3 -->
<g id="Node000003" class="node">
<title>Node3</title>
<g id="a_Node000003"><a xlink:href="namespacealpaqa.html#a9c0fe4aab3b62a12106dd1e6834a7231" target="_top" xlink:title="Convert a std::span to an Eigen::Vector view.">
<polygon fill="white" stroke="#666666" points="166,-19 77,-19 77,0 166,0 166,-19"/>
<text text-anchor="middle" x="121.5" y="-7" font-family="Helvetica,sans-Serif" font-size="10.00">alpaqa::as_vec</text>
</a>
</g>
</g>
<!-- Node1&#45;&gt;Node3 -->
<g id="edge2_Node000001_Node000003" class="edge">
<title>Node1&#45;&gt;Node3</title>
<g id="a_edge2_Node000001_Node000003"><a xlink:title=" ">
<path fill="none" stroke="#63b8ff" d="M38.43,-24.2C46.51,-22.75 56.45,-20.97 66.58,-19.16"/>
<polygon fill="#63b8ff" stroke="#63b8ff" points="67.5,-22.55 76.73,-17.34 66.26,-15.66 67.5,-22.55"/>
</a>
</g>
</g>
</g>
</svg>
