<?xml version="1.0" encoding="UTF-8" standalone="no"?>
<!DOCTYPE svg PUBLIC "-//W3C//DTD SVG 1.1//EN"
 "http://www.w3.org/Graphics/SVG/1.1/DTD/svg11.dtd">
<!-- Generated by graphviz version 2.43.0 (0)
 -->
<!-- Title: check&#45;dim.hpp Pages: 1 -->
<svg width="495pt" height="148pt"
 viewBox="0.00 0.00 494.50 148.00" xmlns="http://www.w3.org/2000/svg" xmlns:xlink="http://www.w3.org/1999/xlink">
<g id="graph0" class="graph" transform="scale(1 1) rotate(0) translate(4 144)">
<title>check&#45;dim.hpp</title>
<!-- Node1 -->
<g id="node1" class="node">
<title>Node1</title>
<g id="a_node1"><a xlink:title=" ">
<polygon fill="#999999" stroke="#666666" points="396,-140 307,-140 307,-121 396,-121 396,-140"/>
<text text-anchor="middle" x="351.5" y="-128" font-family="Helvetica,sans-Serif" font-size="10.00">check&#45;dim.hpp</text>
</a>
</g>
</g>
<!-- Node2 -->
<g id="node2" class="node">
<title>Node2</title>
<g id="a_node2"><a xlink:href="config_8hpp.html" target="_top" xlink:title=" ">
<polygon fill="white" stroke="#666666" points="266,-85 131,-85 131,-66 266,-66 266,-85"/>
<text text-anchor="middle" x="198.5" y="-73" font-family="Helvetica,sans-Serif" font-size="10.00">alpaqa/config/config.hpp</text>
</a>
</g>
</g>
<!-- Node1&#45;&gt;Node2 -->
<g id="edge1" class="edge">
<title>Node1&#45;&gt;Node2</title>
<path fill="none" stroke="#63b8ff" d="M326.92,-120.98C301.45,-112.16 261.46,-98.31 232.87,-88.41"/>
<polygon fill="#63b8ff" stroke="#63b8ff" points="233.87,-85.05 223.27,-85.08 231.58,-91.66 233.87,-85.05"/>
</g>
<!-- Node7 -->
<g id="node7" class="node">
<title>Node7</title>
<g id="a_node7"><a xlink:title=" ">
<polygon fill="#e0e0e0" stroke="#999999" points="340.5,-85 284.5,-85 284.5,-66 340.5,-66 340.5,-85"/>
<text text-anchor="middle" x="312.5" y="-73" font-family="Helvetica,sans-Serif" font-size="10.00">optional</text>
</a>
</g>
</g>
<!-- Node1&#45;&gt;Node7 -->
<g id="edge6" class="edge">
<title>Node1&#45;&gt;Node7</title>
<path fill="none" stroke="#63b8ff" d="M345.06,-120.75C339.61,-113.34 331.64,-102.5 324.94,-93.41"/>
<polygon fill="#63b8ff" stroke="#63b8ff" points="327.57,-91.07 318.82,-85.09 321.93,-95.22 327.57,-91.07"/>
</g>
<!-- Node8 -->
<g id="node8" class="node">
<title>Node8</title>
<g id="a_node8"><a xlink:title=" ">
<polygon fill="#e0e0e0" stroke="#999999" points="424,-85 359,-85 359,-66 424,-66 424,-85"/>
<text text-anchor="middle" x="391.5" y="-73" font-family="Helvetica,sans-Serif" font-size="10.00">stdexcept</text>
</a>
</g>
</g>
<!-- Node1&#45;&gt;Node8 -->
<g id="edge7" class="edge">
<title>Node1&#45;&gt;Node8</title>
<path fill="none" stroke="#63b8ff" d="M358.11,-120.75C363.76,-113.26 372.04,-102.28 378.95,-93.13"/>
<polygon fill="#63b8ff" stroke="#63b8ff" points="381.79,-95.18 385.02,-85.09 376.2,-90.96 381.79,-95.18"/>
</g>
<!-- Node9 -->
<g id="node9" class="node">
<title>Node9</title>
<g id="a_node9"><a xlink:title=" ">
<polygon fill="#e0e0e0" stroke="#999999" points="486.5,-85 442.5,-85 442.5,-66 486.5,-66 486.5,-85"/>
<text text-anchor="middle" x="464.5" y="-73" font-family="Helvetica,sans-Serif" font-size="10.00">string</text>
</a>
</g>
</g>
<!-- Node1&#45;&gt;Node9 -->
<g id="edge8" class="edge">
<title>Node1&#45;&gt;Node9</title>
<path fill="none" stroke="#63b8ff" d="M369.66,-120.98C387.75,-112.5 415.78,-99.35 436.69,-89.54"/>
<polygon fill="#63b8ff" stroke="#63b8ff" points="438.45,-92.59 446.01,-85.17 435.47,-86.25 438.45,-92.59"/>
</g>
<!-- Node3 -->
<g id="node3" class="node">
<title>Node3</title>
<g id="a_node3"><a xlink:href="quadmath_8hpp.html" target="_top" xlink:title=" ">
<polygon fill="white" stroke="#666666" points="121,-30 0,-30 0,0 121,0 121,-30"/>
<text text-anchor="start" x="8" y="-18" font-family="Helvetica,sans-Serif" font-size="10.00">alpaqa/util/quadmath</text>
<text text-anchor="middle" x="60.5" y="-7" font-family="Helvetica,sans-Serif" font-size="10.00">/quadmath.hpp</text>
</a>
</g>
</g>
<!-- Node2&#45;&gt;Node3 -->
<g id="edge2" class="edge">
<title>Node2&#45;&gt;Node3</title>
<path fill="none" stroke="#63b8ff" d="M178.43,-65.99C158.75,-57.65 128.11,-44.66 103,-34.02"/>
<polygon fill="#63b8ff" stroke="#63b8ff" points="104.25,-30.74 93.68,-30.06 101.52,-37.19 104.25,-30.74"/>
</g>
<!-- Node4 -->
<g id="node4" class="node">
<title>Node4</title>
<g id="a_node4"><a xlink:title=" ">
<polygon fill="#e0e0e0" stroke="#999999" points="183.5,-24.5 139.5,-24.5 139.5,-5.5 183.5,-5.5 183.5,-24.5"/>
<text text-anchor="middle" x="161.5" y="-12.5" font-family="Helvetica,sans-Serif" font-size="10.00">limits</text>
</a>
</g>
</g>
<!-- Node2&#45;&gt;Node4 -->
<g id="edge3" class="edge">
<title>Node2&#45;&gt;Node4</title>
<path fill="none" stroke="#63b8ff" d="M193.04,-65.87C187.63,-57.31 179.19,-43.97 172.4,-33.24"/>
<polygon fill="#63b8ff" stroke="#63b8ff" points="175.29,-31.25 166.98,-24.67 169.37,-34.99 175.29,-31.25"/>
</g>
<!-- Node5 -->
<g id="node5" class="node">
<title>Node5</title>
<g id="a_node5"><a xlink:title=" ">
<polygon fill="#e0e0e0" stroke="#999999" points="271,-24.5 202,-24.5 202,-5.5 271,-5.5 271,-24.5"/>
<text text-anchor="middle" x="236.5" y="-12.5" font-family="Helvetica,sans-Serif" font-size="10.00">type_traits</text>
</a>
</g>
</g>
<!-- Node2&#45;&gt;Node5 -->
<g id="edge4" class="edge">
<title>Node2&#45;&gt;Node5</title>
<path fill="none" stroke="#63b8ff" d="M204.11,-65.87C209.66,-57.31 218.33,-43.97 225.3,-33.24"/>
<polygon fill="#63b8ff" stroke="#63b8ff" points="228.36,-34.96 230.87,-24.67 222.49,-31.15 228.36,-34.96"/>
</g>
<!-- Node6 -->
<g id="node6" class="node">
<title>Node6</title>
<g id="a_node6"><a xlink:title=" ">
<polygon fill="#e0e0e0" stroke="#999999" points="358,-24.5 289,-24.5 289,-5.5 358,-5.5 358,-24.5"/>
<text text-anchor="middle" x="323.5" y="-12.5" font-family="Helvetica,sans-Serif" font-size="10.00">Eigen/Core</text>
</a>
</g>
</g>
<!-- Node2&#45;&gt;Node6 -->
<g id="edge5" class="edge">
<title>Node2&#45;&gt;Node6</title>
<path fill="none" stroke="#63b8ff" d="M216.68,-65.99C237.51,-56.25 271.87,-40.16 295.98,-28.88"/>
<polygon fill="#63b8ff" stroke="#63b8ff" points="297.73,-31.93 305.3,-24.52 294.76,-25.59 297.73,-31.93"/>
</g>
</g>
</svg>
