<?xml version="1.0" encoding="UTF-8" standalone="no"?>
<!DOCTYPE svg PUBLIC "-//W3C//DTD SVG 1.1//EN"
 "http://www.w3.org/Graphics/SVG/1.1/DTD/svg11.dtd">
<!-- Generated by graphviz version 2.43.0 (0)
 -->
<!-- Title: num_columns Pages: 1 -->
<svg width="746pt" height="140pt"
 viewBox="0.00 0.00 746.00 140.00" xmlns="http://www.w3.org/2000/svg" xmlns:xlink="http://www.w3.org/1999/xlink">
<g id="graph0" class="graph" transform="scale(1 1) rotate(0) translate(4 136)">
<title>num_columns</title>
<!-- Node1 -->
<g id="node1" class="node">
<title>Node1</title>
<g id="a_node1"><a xlink:title="Get the number of columns that are currently stored.">
<polygon fill="#999999" stroke="#666666" points="738,-75 653,-75 653,-56 738,-56 738,-75"/>
<text text-anchor="middle" x="695.5" y="-63" font-family="Helvetica,sans-Serif" font-size="10.00">num_columns</text>
</a>
</g>
</g>
<!-- Node2 -->
<g id="node2" class="node">
<title>Node2</title>
<g id="a_node2"><a xlink:href="classalpaqa_1_1LimitedMemoryQR.html#a5e3077223e98c1e4e286e01503f220d5" target="_top" xlink:title="Add the given column to the right.">
<polygon fill="white" stroke="#666666" points="607.5,-132 531.5,-132 531.5,-113 607.5,-113 607.5,-132"/>
<text text-anchor="middle" x="569.5" y="-120" font-family="Helvetica,sans-Serif" font-size="10.00">add_column</text>
</a>
</g>
</g>
<!-- Node1&#45;&gt;Node2 -->
<g id="edge1" class="edge">
<title>Node1&#45;&gt;Node2</title>
<path fill="none" stroke="#63b8ff" d="M664.57,-79.26C641.92,-89.67 611.37,-103.71 591.32,-112.93"/>
<polygon fill="#63b8ff" stroke="#63b8ff" points="666.12,-82.4 673.75,-75.04 663.2,-76.04 666.12,-82.4"/>
</g>
<!-- Node3 -->
<g id="node3" class="node">
<title>Node3</title>
<g id="a_node3"><a xlink:href="namespacealpaqa.html#adf8fd46412351c743b102d9c56c943b2" target="_top" xlink:title="Solve one step of Anderson acceleration to find a fixed point of a function g(x):">
<polygon fill="white" stroke="#666666" points="486,-99.5 346,-99.5 346,-69.5 486,-69.5 486,-99.5"/>
<text text-anchor="start" x="354" y="-87.5" font-family="Helvetica,sans-Serif" font-size="10.00">alpaqa::minimize_update</text>
<text text-anchor="middle" x="416" y="-76.5" font-family="Helvetica,sans-Serif" font-size="10.00">_anderson</text>
</a>
</g>
</g>
<!-- Node1&#45;&gt;Node3 -->
<g id="edge5" class="edge">
<title>Node1&#45;&gt;Node3</title>
<path fill="none" stroke="#63b8ff" d="M642.73,-69.04C598.53,-72.07 534.62,-76.45 486.07,-79.77"/>
<polygon fill="#63b8ff" stroke="#63b8ff" points="643.22,-72.52 652.96,-68.34 642.74,-65.54 643.22,-72.52"/>
</g>
<!-- Node6 -->
<g id="node6" class="node">
<title>Node6</title>
<g id="a_node6"><a xlink:href="classalpaqa_1_1LimitedMemoryQR.html#a436c4dbbf0476354ca67a104bc005e55" target="_top" xlink:title="Remove the leftmost column.">
<polygon fill="white" stroke="#666666" points="617,-56 522,-56 522,-37 617,-37 617,-56"/>
<text text-anchor="middle" x="569.5" y="-44" font-family="Helvetica,sans-Serif" font-size="10.00">remove_column</text>
</a>
</g>
</g>
<!-- Node1&#45;&gt;Node6 -->
<g id="edge6" class="edge">
<title>Node1&#45;&gt;Node6</title>
<path fill="none" stroke="#63b8ff" d="M642.77,-57.57C634.34,-56.28 625.66,-54.95 617.37,-53.68"/>
<polygon fill="#63b8ff" stroke="#63b8ff" points="642.45,-61.07 652.86,-59.12 643.51,-54.15 642.45,-61.07"/>
</g>
<!-- Node7 -->
<g id="node7" class="node">
<title>Node7</title>
<g id="a_node7"><a xlink:href="classalpaqa_1_1LimitedMemoryQR.html#a33f0a7b277c8d3c311b0b4868c55eda1" target="_top" xlink:title="Solve the least squares problem AX = B.">
<polygon fill="white" stroke="#666666" points="591,-19 548,-19 548,0 591,0 591,-19"/>
<text text-anchor="middle" x="569.5" y="-7" font-family="Helvetica,sans-Serif" font-size="10.00">solve</text>
</a>
</g>
</g>
<!-- Node1&#45;&gt;Node7 -->
<g id="edge8" class="edge">
<title>Node1&#45;&gt;Node7</title>
<path fill="none" stroke="#63b8ff" d="M667.17,-51.38C652.45,-43.96 633.89,-34.89 617,-27.5 608.59,-23.82 599.18,-20.1 591.03,-17.01"/>
<polygon fill="#63b8ff" stroke="#63b8ff" points="665.73,-54.58 676.23,-55.99 668.9,-48.34 665.73,-54.58"/>
</g>
<!-- Node2&#45;&gt;Node3 -->
<g id="edge2" class="edge">
<title>Node2&#45;&gt;Node3</title>
<path fill="none" stroke="#63b8ff" d="M521.5,-110.71C507.42,-107.18 491.79,-103.26 476.99,-99.55"/>
<polygon fill="#63b8ff" stroke="#63b8ff" points="520.89,-114.17 531.44,-113.2 522.59,-107.38 520.89,-114.17"/>
</g>
<!-- Node4 -->
<g id="node4" class="node">
<title>Node4</title>
<g id="a_node4"><a xlink:href="classalpaqa_1_1AndersonAccel.html#a7cbecaa52700158ebe36c0d587791ed4" target="_top" xlink:title="Compute the accelerated iterate , given the function value at the current iterate &#160;and the correspond...">
<polygon fill="white" stroke="#666666" points="310,-99.5 182,-99.5 182,-69.5 310,-69.5 310,-99.5"/>
<text text-anchor="start" x="190" y="-87.5" font-family="Helvetica,sans-Serif" font-size="10.00">alpaqa::AndersonAccel</text>
<text text-anchor="middle" x="246" y="-76.5" font-family="Helvetica,sans-Serif" font-size="10.00">::compute</text>
</a>
</g>
</g>
<!-- Node3&#45;&gt;Node4 -->
<g id="edge3" class="edge">
<title>Node3&#45;&gt;Node4</title>
<path fill="none" stroke="#63b8ff" d="M335.43,-84.5C326.97,-84.5 318.45,-84.5 310.22,-84.5"/>
<polygon fill="#63b8ff" stroke="#63b8ff" points="335.7,-88 345.7,-84.5 335.7,-81 335.7,-88"/>
</g>
<!-- Node5 -->
<g id="node5" class="node">
<title>Node5</title>
<g id="a_node5"><a xlink:href="structalpaqa_1_1AndersonDirection.html#ad02c79a109cef288e13bc9c944af3b48" target="_top" xlink:title=" ">
<polygon fill="white" stroke="#666666" points="146,-99.5 0,-99.5 0,-69.5 146,-69.5 146,-99.5"/>
<text text-anchor="start" x="8" y="-87.5" font-family="Helvetica,sans-Serif" font-size="10.00">alpaqa::AndersonDirection</text>
<text text-anchor="middle" x="73" y="-76.5" font-family="Helvetica,sans-Serif" font-size="10.00">::apply</text>
</a>
</g>
</g>
<!-- Node4&#45;&gt;Node5 -->
<g id="edge4" class="edge">
<title>Node4&#45;&gt;Node5</title>
<path fill="none" stroke="#63b8ff" d="M171.62,-84.5C163.18,-84.5 154.58,-84.5 146.16,-84.5"/>
<polygon fill="#63b8ff" stroke="#63b8ff" points="171.81,-88 181.81,-84.5 171.81,-81 171.81,-88"/>
</g>
<!-- Node6&#45;&gt;Node3 -->
<g id="edge7" class="edge">
<title>Node6&#45;&gt;Node3</title>
<path fill="none" stroke="#63b8ff" d="M520.5,-58.54C506.7,-62 491.47,-65.82 477.04,-69.44"/>
<polygon fill="#63b8ff" stroke="#63b8ff" points="521.42,-61.92 530.27,-56.09 519.72,-55.13 521.42,-61.92"/>
</g>
<!-- Node8 -->
<g id="node8" class="node">
<title>Node8</title>
<g id="a_node8"><a xlink:href="classalpaqa_1_1LimitedMemoryQR.html#a5f3732971788e558366a2b509a538206" target="_top" xlink:title="Solve the least squares problem AX = B.">
<polygon fill="white" stroke="#666666" points="437.5,-19 394.5,-19 394.5,0 437.5,0 437.5,-19"/>
<text text-anchor="middle" x="416" y="-7" font-family="Helvetica,sans-Serif" font-size="10.00">solve</text>
</a>
</g>
</g>
<!-- Node7&#45;&gt;Node8 -->
<g id="edge9" class="edge">
<title>Node7&#45;&gt;Node8</title>
<path fill="none" stroke="#63b8ff" d="M537.52,-9.5C507.81,-9.5 463.79,-9.5 437.98,-9.5"/>
<polygon fill="#63b8ff" stroke="#63b8ff" points="537.75,-13 547.75,-9.5 537.75,-6 537.75,-13"/>
</g>
</g>
</svg>
