<?xml version="1.0" encoding="UTF-8" standalone="no"?>
<!DOCTYPE svg PUBLIC "-//W3C//DTD SVG 1.1//EN"
 "http://www.w3.org/Graphics/SVG/1.1/DTD/svg11.dtd">
<!-- Generated by graphviz version 2.43.0 (0)
 -->
<!-- Title: eval_h Pages: 1 -->
<svg width="409pt" height="124pt"
 viewBox="0.00 0.00 409.00 123.50" xmlns="http://www.w3.org/2000/svg" xmlns:xlink="http://www.w3.org/1999/xlink">
<g id="graph0" class="graph" transform="scale(1 1) rotate(0) translate(4 119.5)">
<title>eval_h</title>
<!-- Node1 -->
<g id="node1" class="node">
<title>Node1</title>
<g id="a_node1"><a xlink:title=" ">
<polygon fill="#999999" stroke="#666666" points="49,-62 0,-62 0,-43 49,-43 49,-62"/>
<text text-anchor="middle" x="24.5" y="-50" font-family="Helvetica,sans-Serif" font-size="10.00">eval_h</text>
</a>
</g>
</g>
<!-- Node2 -->
<g id="node2" class="node">
<title>Node2</title>
<g id="a_node2"><a xlink:href="classalpaqa_1_1TypeErasedProblem.html#a8432c33fb118d707216d6098734c4160" target="_top" xlink:title="[Optional] Function that evaluates the Hessian of the Lagrangian as a sparse matrix,">
<polygon fill="white" stroke="#666666" points="237,-115.5 85,-115.5 85,-85.5 237,-85.5 237,-115.5"/>
<text text-anchor="start" x="93" y="-103.5" font-family="Helvetica,sans-Serif" font-size="10.00">alpaqa::TypeErasedProblem</text>
<text text-anchor="middle" x="161" y="-92.5" font-family="Helvetica,sans-Serif" font-size="10.00">::eval_hess_L</text>
</a>
</g>
</g>
<!-- Node1&#45;&gt;Node2 -->
<g id="edge1" class="edge">
<title>Node1&#45;&gt;Node2</title>
<path fill="none" stroke="#63b8ff" d="M47.95,-62.01C59.03,-66.59 72.64,-72.04 85,-76.5 90.22,-78.39 95.68,-80.28 101.16,-82.13"/>
<polygon fill="#63b8ff" stroke="#63b8ff" points="100.41,-85.57 111.01,-85.4 102.62,-78.92 100.41,-85.57"/>
</g>
<!-- Node3 -->
<g id="node3" class="node">
<title>Node3</title>
<g id="a_node3"><a xlink:href="classalpaqa_1_1TypeErasedProblem.html#a01b7cf0fff8f21d29a5faf139a8896e2" target="_top" xlink:title="Returns true if the problem provides an implementation of eval_hess_L.">
<polygon fill="white" stroke="#666666" points="237,-67.5 85,-67.5 85,-37.5 237,-37.5 237,-67.5"/>
<text text-anchor="start" x="93" y="-55.5" font-family="Helvetica,sans-Serif" font-size="10.00">alpaqa::TypeErasedProblem</text>
<text text-anchor="middle" x="161" y="-44.5" font-family="Helvetica,sans-Serif" font-size="10.00">::provides_eval_hess_L</text>
</a>
</g>
</g>
<!-- Node1&#45;&gt;Node3 -->
<g id="edge2" class="edge">
<title>Node1&#45;&gt;Node3</title>
<path fill="none" stroke="#63b8ff" d="M49.24,-52.5C56.71,-52.5 65.45,-52.5 74.67,-52.5"/>
<polygon fill="#63b8ff" stroke="#63b8ff" points="74.84,-56 84.84,-52.5 74.84,-49 74.84,-56"/>
</g>
<!-- Node5 -->
<g id="node5" class="node">
<title>Node5</title>
<g id="a_node5"><a xlink:href="classalpaqa_1_1IpoptAdapter.html#a101bece37e49c26ed18036e34b2c548f" target="_top" xlink:title=" ">
<polygon fill="white" stroke="#666666" points="199,-19 123,-19 123,0 199,0 199,-19"/>
<text text-anchor="middle" x="161" y="-7" font-family="Helvetica,sans-Serif" font-size="10.00">set_sparsity</text>
</a>
</g>
</g>
<!-- Node1&#45;&gt;Node5 -->
<g id="edge4" class="edge">
<title>Node1&#45;&gt;Node5</title>
<path fill="none" stroke="#63b8ff" d="M47.28,-42.89C58.43,-38.18 72.29,-32.65 85,-28.5 93.91,-25.59 103.53,-22.85 112.82,-20.42"/>
<polygon fill="#63b8ff" stroke="#63b8ff" points="113.89,-23.75 122.71,-17.89 112.16,-16.97 113.89,-23.75"/>
</g>
<!-- Node4 -->
<g id="node4" class="node">
<title>Node4</title>
<g id="a_node4"><a xlink:href="structalpaqa_1_1ProblemVTable.html#a257b2b39ebee44423adb3baad8ca71a7" target="_top" xlink:title=" ">
<polygon fill="white" stroke="#666666" points="401,-67.5 273,-67.5 273,-37.5 401,-37.5 401,-67.5"/>
<text text-anchor="start" x="281" y="-55.5" font-family="Helvetica,sans-Serif" font-size="10.00">alpaqa::ProblemVTable</text>
<text text-anchor="middle" x="337" y="-44.5" font-family="Helvetica,sans-Serif" font-size="10.00">::default_eval_hess_L</text>
</a>
</g>
</g>
<!-- Node3&#45;&gt;Node4 -->
<g id="edge3" class="edge">
<title>Node3&#45;&gt;Node4</title>
<path fill="none" stroke="#63b8ff" d="M237.05,-52.5C245.55,-52.5 254.21,-52.5 262.69,-52.5"/>
<polygon fill="#63b8ff" stroke="#63b8ff" points="262.92,-56 272.92,-52.5 262.92,-49 262.92,-56"/>
</g>
</g>
</svg>
