<?xml version="1.0" encoding="UTF-8" standalone="no"?>
<!DOCTYPE svg PUBLIC "-//W3C//DTD SVG 1.1//EN"
 "http://www.w3.org/Graphics/SVG/1.1/DTD/svg11.dtd">
<!-- Generated by graphviz version 2.43.0 (0)
 -->
<!-- Title: eval_prox_grad_step_box_l1 Pages: 1 -->
<svg width="299pt" height="76pt"
 viewBox="0.00 0.00 299.00 75.50" xmlns="http://www.w3.org/2000/svg" xmlns:xlink="http://www.w3.org/1999/xlink">
<g id="graph0" class="graph" transform="scale(1 1) rotate(0) translate(4 71.5)">
<title>eval_prox_grad_step_box_l1</title>
<!-- Node1 -->
<g id="node1" class="node">
<title>Node1</title>
<g id="a_node1"><a xlink:title="Proximal gradient step for rectangular box C with ℓ₁&#45;regularization.">
<polygon fill="#999999" stroke="#666666" points="118,-45.5 0,-45.5 0,-15.5 118,-15.5 118,-45.5"/>
<text text-anchor="start" x="8" y="-33.5" font-family="Helvetica,sans-Serif" font-size="10.00">eval_prox_grad_step</text>
<text text-anchor="middle" x="59" y="-22.5" font-family="Helvetica,sans-Serif" font-size="10.00">_box_l1</text>
</a>
</g>
</g>
<!-- Node2 -->
<g id="node2" class="node">
<title>Node2</title>
<g id="a_node2"><a xlink:href="classalpaqa_1_1BoxConstrProblem.html#a3171c5c9e3761a3f47aaabc94ff80a73" target="_top" xlink:title="Proximal gradient step for rectangular box C with ℓ₁&#45;regularization.">
<polygon fill="white" stroke="#666666" points="281.5,-67.5 163.5,-67.5 163.5,-37.5 281.5,-37.5 281.5,-67.5"/>
<text text-anchor="start" x="171.5" y="-55.5" font-family="Helvetica,sans-Serif" font-size="10.00">eval_prox_grad_step</text>
<text text-anchor="middle" x="222.5" y="-44.5" font-family="Helvetica,sans-Serif" font-size="10.00">_box_l1_impl</text>
</a>
</g>
</g>
<!-- Node1&#45;&gt;Node2 -->
<g id="edge1" class="edge">
<title>Node1&#45;&gt;Node2</title>
<path fill="none" stroke="#63b8ff" d="M118.31,-38.44C129.63,-39.98 141.59,-41.61 153.19,-43.2"/>
<polygon fill="#63b8ff" stroke="#63b8ff" points="152.9,-46.69 163.28,-44.57 153.84,-39.75 152.9,-46.69"/>
</g>
<!-- Node3 -->
<g id="node3" class="node">
<title>Node3</title>
<g id="a_node3"><a xlink:href="namespacealpaqa_1_1vec__util.html#ad25a5d07b7f707ab1d1fa7667a13dffa" target="_top" xlink:title="Get the 1&#45;norm of the given vector.">
<polygon fill="white" stroke="#666666" points="291,-19 154,-19 154,0 291,0 291,-19"/>
<text text-anchor="middle" x="222.5" y="-7" font-family="Helvetica,sans-Serif" font-size="10.00">alpaqa::vec_util::norm_1</text>
</a>
</g>
</g>
<!-- Node1&#45;&gt;Node3 -->
<g id="edge2" class="edge">
<title>Node1&#45;&gt;Node3</title>
<path fill="none" stroke="#63b8ff" d="M118.31,-22.92C126.62,-21.84 135.27,-20.71 143.88,-19.59"/>
<polygon fill="#63b8ff" stroke="#63b8ff" points="144.48,-23.04 153.95,-18.28 143.58,-16.1 144.48,-23.04"/>
</g>
</g>
</svg>
