<?xml version="1.0" encoding="UTF-8" standalone="no"?>
<!DOCTYPE svg PUBLIC "-//W3C//DTD SVG 1.1//EN"
 "http://www.w3.org/Graphics/SVG/1.1/DTD/svg11.dtd">
<!-- Generated by graphviz version 2.43.0 (0)
 -->
<!-- Title: compute Pages: 1 -->
<svg width="991pt" height="362pt"
 viewBox="0.00 0.00 991.00 361.52" xmlns="http://www.w3.org/2000/svg" xmlns:xlink="http://www.w3.org/1999/xlink">
<g id="graph0" class="graph" transform="scale(1 1) rotate(0) translate(4 357.52)">
<title>compute</title>
<!-- Node1 -->
<g id="node1" class="node">
<title>Node1</title>
<g id="a_node1"><a xlink:title="Compute the accelerated iterate , given the function value at the current iterate &#160;and the correspond...">
<polygon fill="#999999" stroke="#666666" points="59,-182.5 0,-182.5 0,-163.5 59,-163.5 59,-182.5"/>
<text text-anchor="middle" x="29.5" y="-170.5" font-family="Helvetica,sans-Serif" font-size="10.00">compute</text>
</a>
</g>
</g>
<!-- Node2 -->
<g id="node2" class="node">
<title>Node2</title>
<g id="a_node2"><a xlink:href="namespacealpaqa.html#adf8fd46412351c743b102d9c56c943b2" target="_top" xlink:title="Solve one step of Anderson acceleration to find a fixed point of a function g(x):">
<polygon fill="white" stroke="#666666" points="235,-188 95,-188 95,-158 235,-158 235,-188"/>
<text text-anchor="start" x="103" y="-176" font-family="Helvetica,sans-Serif" font-size="10.00">alpaqa::minimize_update</text>
<text text-anchor="middle" x="165" y="-165" font-family="Helvetica,sans-Serif" font-size="10.00">_anderson</text>
</a>
</g>
</g>
<!-- Node1&#45;&gt;Node2 -->
<g id="edge1" class="edge">
<title>Node1&#45;&gt;Node2</title>
<path fill="none" stroke="#63b8ff" d="M59.14,-173C66.82,-173 75.52,-173 84.53,-173"/>
<polygon fill="#63b8ff" stroke="#63b8ff" points="84.81,-176.5 94.81,-173 84.81,-169.5 84.81,-176.5"/>
</g>
<!-- Node3 -->
<g id="node3" class="node">
<title>Node3</title>
<g id="a_node3"><a xlink:href="classalpaqa_1_1LimitedMemoryQR.html#a5e3077223e98c1e4e286e01503f220d5" target="_top" xlink:title="Add the given column to the right.">
<polygon fill="white" stroke="#666666" points="418,-298 271,-298 271,-268 418,-268 418,-298"/>
<text text-anchor="start" x="279" y="-286" font-family="Helvetica,sans-Serif" font-size="10.00">alpaqa::LimitedMemoryQR</text>
<text text-anchor="middle" x="344.5" y="-275" font-family="Helvetica,sans-Serif" font-size="10.00">::add_column</text>
</a>
</g>
</g>
<!-- Node2&#45;&gt;Node3 -->
<g id="edge2" class="edge">
<title>Node2&#45;&gt;Node3</title>
<path fill="none" stroke="#63b8ff" d="M180.69,-188.06C199.89,-206.98 235.28,-239.35 271,-259 274.21,-260.77 277.57,-262.43 281.01,-263.99"/>
<polygon fill="#63b8ff" stroke="#63b8ff" points="279.69,-267.24 290.27,-267.9 282.41,-260.79 279.69,-267.24"/>
</g>
<!-- Node4 -->
<g id="node4" class="node">
<title>Node4</title>
<g id="a_node4"><a xlink:href="classalpaqa_1_1LimitedMemoryQR.html#ac397ae83f5f4dd3d5cf9926f26acfb2d" target="_top" xlink:title=" ">
<polygon fill="white" stroke="#666666" points="983,-277.5 820,-277.5 820,-258.5 983,-258.5 983,-277.5"/>
<text text-anchor="middle" x="901.5" y="-265.5" font-family="Helvetica,sans-Serif" font-size="10.00">alpaqa::LimitedMemoryQR::m</text>
</a>
</g>
</g>
<!-- Node2&#45;&gt;Node4 -->
<g id="edge8" class="edge">
<title>Node2&#45;&gt;Node4</title>
<path fill="none" stroke="#63b8ff" d="M172.42,-188.36C185.73,-217.89 219.45,-281.9 271,-307 477.78,-407.67 769,-316.9 866.91,-281.06"/>
<polygon fill="#63b8ff" stroke="#63b8ff" points="868.14,-284.33 876.3,-277.57 865.71,-277.77 868.14,-284.33"/>
</g>
<!-- Node5 -->
<g id="node5" class="node">
<title>Node5</title>
<g id="a_node5"><a xlink:href="classalpaqa_1_1LimitedMemoryQR.html#a24829df3eaf3f15bd3c677781348b14d" target="_top" xlink:title="Get the number of columns that are currently stored.">
<polygon fill="white" stroke="#666666" points="601,-212 454,-212 454,-182 601,-182 601,-212"/>
<text text-anchor="start" x="462" y="-200" font-family="Helvetica,sans-Serif" font-size="10.00">alpaqa::LimitedMemoryQR</text>
<text text-anchor="middle" x="527.5" y="-189" font-family="Helvetica,sans-Serif" font-size="10.00">::num_columns</text>
</a>
</g>
</g>
<!-- Node2&#45;&gt;Node5 -->
<g id="edge9" class="edge">
<title>Node2&#45;&gt;Node5</title>
<path fill="none" stroke="#63b8ff" d="M235.08,-177.6C294.54,-181.56 380.47,-187.28 443.62,-191.48"/>
<polygon fill="#63b8ff" stroke="#63b8ff" points="443.73,-195 453.94,-192.17 444.2,-188.01 443.73,-195"/>
</g>
<!-- Node7 -->
<g id="node7" class="node">
<title>Node7</title>
<g id="a_node7"><a xlink:href="classalpaqa_1_1LimitedMemoryQR.html#a9def1a850eb12c2e0347b0680866eab1" target="_top" xlink:title="Get the maximum eigenvalue of R.">
<polygon fill="white" stroke="#666666" points="418,-78 271,-78 271,-48 418,-48 418,-78"/>
<text text-anchor="start" x="279" y="-66" font-family="Helvetica,sans-Serif" font-size="10.00">alpaqa::LimitedMemoryQR</text>
<text text-anchor="middle" x="344.5" y="-55" font-family="Helvetica,sans-Serif" font-size="10.00">::get_max_eig</text>
</a>
</g>
</g>
<!-- Node2&#45;&gt;Node7 -->
<g id="edge7" class="edge">
<title>Node2&#45;&gt;Node7</title>
<path fill="none" stroke="#63b8ff" d="M180.69,-157.94C199.89,-139.02 235.28,-106.65 271,-87 274.21,-85.23 277.57,-83.57 281.01,-82.01"/>
<polygon fill="#63b8ff" stroke="#63b8ff" points="282.41,-85.21 290.27,-78.1 279.69,-78.76 282.41,-85.21"/>
</g>
<!-- Node8 -->
<g id="node8" class="node">
<title>Node8</title>
<g id="a_node8"><a xlink:href="classalpaqa_1_1LimitedMemoryQR.html#a436c4dbbf0476354ca67a104bc005e55" target="_top" xlink:title="Remove the leftmost column.">
<polygon fill="white" stroke="#666666" points="418,-250 271,-250 271,-220 418,-220 418,-250"/>
<text text-anchor="start" x="279" y="-238" font-family="Helvetica,sans-Serif" font-size="10.00">alpaqa::LimitedMemoryQR</text>
<text text-anchor="middle" x="344.5" y="-227" font-family="Helvetica,sans-Serif" font-size="10.00">::remove_column</text>
</a>
</g>
</g>
<!-- Node2&#45;&gt;Node8 -->
<g id="edge10" class="edge">
<title>Node2&#45;&gt;Node8</title>
<path fill="none" stroke="#63b8ff" d="M208.97,-188.01C233.53,-196.59 264.54,-207.42 290.59,-216.52"/>
<polygon fill="#63b8ff" stroke="#63b8ff" points="289.72,-219.92 300.31,-219.91 292.03,-213.31 289.72,-219.92"/>
</g>
<!-- Node9 -->
<g id="node9" class="node">
<title>Node9</title>
<g id="a_node9"><a xlink:href="classalpaqa_1_1LimitedMemoryQR.html#a0bf0ad441ec87440e4525e75de00d053" target="_top" xlink:title="Get iterators in the circular buffer.">
<polygon fill="white" stroke="#666666" points="784,-150 637,-150 637,-120 784,-120 784,-150"/>
<text text-anchor="start" x="645" y="-138" font-family="Helvetica,sans-Serif" font-size="10.00">alpaqa::LimitedMemoryQR</text>
<text text-anchor="middle" x="710.5" y="-127" font-family="Helvetica,sans-Serif" font-size="10.00">::ring_iter</text>
</a>
</g>
</g>
<!-- Node2&#45;&gt;Node9 -->
<g id="edge13" class="edge">
<title>Node2&#45;&gt;Node9</title>
<path fill="none" stroke="#63b8ff" d="M235.11,-168.17C335.1,-161.18 519.82,-148.26 626.87,-140.78"/>
<polygon fill="#63b8ff" stroke="#63b8ff" points="627.25,-144.26 636.98,-140.07 626.76,-137.28 627.25,-144.26"/>
</g>
<!-- Node10 -->
<g id="node10" class="node">
<title>Node10</title>
<g id="a_node10"><a xlink:href="classalpaqa_1_1LimitedMemoryQR.html#a8a153a1f58e5c5879095a4c3799b6f49" target="_top" xlink:title="Get the tail index of the circular buffer (points to one past the most recent element).">
<polygon fill="white" stroke="#666666" points="418,-30 271,-30 271,0 418,0 418,-30"/>
<text text-anchor="start" x="279" y="-18" font-family="Helvetica,sans-Serif" font-size="10.00">alpaqa::LimitedMemoryQR</text>
<text text-anchor="middle" x="344.5" y="-7" font-family="Helvetica,sans-Serif" font-size="10.00">::ring_tail</text>
</a>
</g>
</g>
<!-- Node2&#45;&gt;Node10 -->
<g id="edge15" class="edge">
<title>Node2&#45;&gt;Node10</title>
<path fill="none" stroke="#63b8ff" d="M173.94,-157.75C189.1,-130.08 224.82,-71.47 271,-39 273.14,-37.5 275.37,-36.09 277.68,-34.76"/>
<polygon fill="#63b8ff" stroke="#63b8ff" points="279.58,-37.72 286.88,-30.04 276.38,-31.49 279.58,-37.72"/>
</g>
<!-- Node11 -->
<g id="node11" class="node">
<title>Node11</title>
<g id="a_node11"><a xlink:href="classalpaqa_1_1LimitedMemoryQR.html#a5e3322cd9c833dc65702b574640eefe1" target="_top" xlink:title="Solve the least squares problem Ax = b.">
<polygon fill="white" stroke="#666666" points="418,-126 271,-126 271,-96 418,-96 418,-126"/>
<text text-anchor="start" x="279" y="-114" font-family="Helvetica,sans-Serif" font-size="10.00">alpaqa::LimitedMemoryQR</text>
<text text-anchor="middle" x="344.5" y="-103" font-family="Helvetica,sans-Serif" font-size="10.00">::solve_col</text>
</a>
</g>
</g>
<!-- Node2&#45;&gt;Node11 -->
<g id="edge16" class="edge">
<title>Node2&#45;&gt;Node11</title>
<path fill="none" stroke="#63b8ff" d="M208.97,-157.99C233.53,-149.41 264.54,-138.58 290.59,-129.48"/>
<polygon fill="#63b8ff" stroke="#63b8ff" points="292.03,-132.69 300.31,-126.09 289.72,-126.08 292.03,-132.69"/>
</g>
<!-- Node3&#45;&gt;Node4 -->
<g id="edge3" class="edge">
<title>Node3&#45;&gt;Node4</title>
<path fill="none" stroke="#63b8ff" d="M418.06,-281.04C518.64,-278.32 700.38,-273.41 809.79,-270.45"/>
<polygon fill="#63b8ff" stroke="#63b8ff" points="809.92,-273.95 819.83,-270.18 809.74,-266.95 809.92,-273.95"/>
</g>
<!-- Node3&#45;&gt;Node5 -->
<g id="edge4" class="edge">
<title>Node3&#45;&gt;Node5</title>
<path fill="none" stroke="#63b8ff" d="M400.67,-267.97C406.72,-265.39 412.63,-262.41 418,-259 437.64,-246.52 434.36,-233.48 454,-221 456.6,-219.35 459.33,-217.8 462.14,-216.34"/>
<polygon fill="#63b8ff" stroke="#63b8ff" points="463.77,-219.44 471.33,-212.03 460.79,-213.11 463.77,-219.44"/>
</g>
<!-- Node6 -->
<g id="node6" class="node">
<title>Node6</title>
<g id="a_node6"><a xlink:href="classalpaqa_1_1LimitedMemoryQR.html#a9f68bead8c70041aacb90dd175150dc4" target="_top" xlink:title="Get the next index in the circular storage for R.">
<polygon fill="white" stroke="#666666" points="601,-260 454,-260 454,-230 601,-230 601,-260"/>
<text text-anchor="start" x="462" y="-248" font-family="Helvetica,sans-Serif" font-size="10.00">alpaqa::LimitedMemoryQR</text>
<text text-anchor="middle" x="527.5" y="-237" font-family="Helvetica,sans-Serif" font-size="10.00">::r_succ</text>
</a>
</g>
</g>
<!-- Node3&#45;&gt;Node6 -->
<g id="edge5" class="edge">
<title>Node3&#45;&gt;Node6</title>
<path fill="none" stroke="#63b8ff" d="M417.04,-267.98C426.18,-266.06 435.59,-264.09 444.88,-262.14"/>
<polygon fill="#63b8ff" stroke="#63b8ff" points="445.82,-265.51 454.89,-260.03 444.39,-258.66 445.82,-265.51"/>
</g>
<!-- Node6&#45;&gt;Node4 -->
<g id="edge6" class="edge">
<title>Node6&#45;&gt;Node4</title>
<path fill="none" stroke="#63b8ff" d="M601.11,-249.49C660.72,-253.17 745.45,-258.41 809.57,-262.38"/>
<polygon fill="#63b8ff" stroke="#63b8ff" points="809.48,-265.88 819.68,-263 809.91,-258.89 809.48,-265.88"/>
</g>
<!-- Node8&#45;&gt;Node5 -->
<g id="edge11" class="edge">
<title>Node8&#45;&gt;Node5</title>
<path fill="none" stroke="#63b8ff" d="M417.04,-219.98C426.18,-218.06 435.59,-216.09 444.88,-214.14"/>
<polygon fill="#63b8ff" stroke="#63b8ff" points="445.82,-217.51 454.89,-212.03 444.39,-210.66 445.82,-217.51"/>
</g>
<!-- Node8&#45;&gt;Node6 -->
<g id="edge12" class="edge">
<title>Node8&#45;&gt;Node6</title>
<path fill="none" stroke="#63b8ff" d="M418.08,-239.01C426.56,-239.48 435.26,-239.96 443.87,-240.43"/>
<polygon fill="#63b8ff" stroke="#63b8ff" points="443.73,-243.93 453.91,-240.99 444.12,-236.94 443.73,-243.93"/>
</g>
<!-- Node9&#45;&gt;Node4 -->
<g id="edge14" class="edge">
<title>Node9&#45;&gt;Node4</title>
<path fill="none" stroke="#63b8ff" d="M733.18,-150.26C769.29,-175.67 841.4,-226.41 878.03,-252.19"/>
<polygon fill="#63b8ff" stroke="#63b8ff" points="876.34,-255.28 886.54,-258.17 880.37,-249.56 876.34,-255.28"/>
</g>
<!-- Node11&#45;&gt;Node9 -->
<g id="edge17" class="edge">
<title>Node11&#45;&gt;Node9</title>
<path fill="none" stroke="#63b8ff" d="M418.29,-115.8C478.42,-119.76 563.81,-125.39 626.58,-129.53"/>
<polygon fill="#63b8ff" stroke="#63b8ff" points="626.63,-133.04 636.84,-130.21 627.09,-126.06 626.63,-133.04"/>
</g>
<!-- Node12 -->
<g id="node12" class="node">
<title>Node12</title>
<g id="a_node12"><a xlink:href="classalpaqa_1_1LimitedMemoryQR.html#ae8160acf26958eb65aa5c0743dd2826d" target="_top" xlink:title="Get reverse iterators in the circular buffer.">
<polygon fill="white" stroke="#666666" points="601,-88 454,-88 454,-58 601,-58 601,-88"/>
<text text-anchor="start" x="462" y="-76" font-family="Helvetica,sans-Serif" font-size="10.00">alpaqa::LimitedMemoryQR</text>
<text text-anchor="middle" x="527.5" y="-65" font-family="Helvetica,sans-Serif" font-size="10.00">::ring_reverse_iter</text>
</a>
</g>
</g>
<!-- Node11&#45;&gt;Node12 -->
<g id="edge18" class="edge">
<title>Node11&#45;&gt;Node12</title>
<path fill="none" stroke="#63b8ff" d="M417.04,-95.98C426.18,-94.06 435.59,-92.09 444.88,-90.14"/>
<polygon fill="#63b8ff" stroke="#63b8ff" points="445.82,-93.51 454.89,-88.03 444.39,-86.66 445.82,-93.51"/>
</g>
<!-- Node12&#45;&gt;Node9 -->
<g id="edge19" class="edge">
<title>Node12&#45;&gt;Node9</title>
<path fill="none" stroke="#63b8ff" d="M572.32,-88.01C597.47,-96.63 629.26,-107.51 655.9,-116.64"/>
<polygon fill="#63b8ff" stroke="#63b8ff" points="654.87,-119.99 665.46,-119.91 657.13,-113.36 654.87,-119.99"/>
</g>
</g>
</svg>
