<?xml version="1.0" encoding="UTF-8" standalone="no"?>
<!DOCTYPE svg PUBLIC "-//W3C//DTD SVG 1.1//EN"
 "http://www.w3.org/Graphics/SVG/1.1/DTD/svg11.dtd">
<!-- Generated by graphviz version 2.43.0 (0)
 -->
<!-- Title: get_n Pages: 1 -->
<svg width="138pt" height="64pt"
 viewBox="0.00 0.00 138.00 64.00" xmlns="http://www.w3.org/2000/svg" xmlns:xlink="http://www.w3.org/1999/xlink">
<g id="graph0" class="graph" transform="scale(1 1) rotate(0) translate(4 60)">
<title>get_n</title>
<!-- Node1 -->
<g id="node1" class="node">
<title>Node1</title>
<g id="a_node1"><a xlink:title="Total number of variables.">
<polygon fill="#999999" stroke="#666666" points="44,-37 0,-37 0,-18 44,-18 44,-37"/>
<text text-anchor="middle" x="22" y="-25" font-family="Helvetica,sans-Serif" font-size="10.00">get_n</text>
</a>
</g>
</g>
<!-- Node2 -->
<g id="node2" class="node">
<title>Node2</title>
<g id="a_node2"><a xlink:href="classalpaqa_1_1TypeErasedControlProblem.html#afc9629d2503010e7310eefa85eca82b3" target="_top" xlink:title="Horizon length.">
<polygon fill="white" stroke="#666666" points="127.5,-56 82.5,-56 82.5,-37 127.5,-37 127.5,-56"/>
<text text-anchor="middle" x="105" y="-44" font-family="Helvetica,sans-Serif" font-size="10.00">get_N</text>
</a>
</g>
</g>
<!-- Node1&#45;&gt;Node2 -->
<g id="edge1" class="edge">
<title>Node1&#45;&gt;Node2</title>
<path fill="none" stroke="#63b8ff" d="M44.28,-32.49C52.89,-34.51 63,-36.88 72.43,-39.1"/>
<polygon fill="#63b8ff" stroke="#63b8ff" points="71.76,-42.53 82.3,-41.41 73.36,-35.72 71.76,-42.53"/>
</g>
<!-- Node3 -->
<g id="node3" class="node">
<title>Node3</title>
<g id="a_node3"><a xlink:href="classalpaqa_1_1TypeErasedControlProblem.html#a53f793c14b2ed9e9bb9f802f0ff79844" target="_top" xlink:title="Number of inputs.">
<polygon fill="white" stroke="#666666" points="130,-19 80,-19 80,0 130,0 130,-19"/>
<text text-anchor="middle" x="105" y="-7" font-family="Helvetica,sans-Serif" font-size="10.00">get_nu</text>
</a>
</g>
</g>
<!-- Node1&#45;&gt;Node3 -->
<g id="edge2" class="edge">
<title>Node1&#45;&gt;Node3</title>
<path fill="none" stroke="#63b8ff" d="M44.28,-22.77C52.1,-21.03 61.16,-19.02 69.82,-17.1"/>
<polygon fill="#63b8ff" stroke="#63b8ff" points="70.71,-20.48 79.71,-14.9 69.19,-13.65 70.71,-20.48"/>
</g>
</g>
</svg>
