<?xml version="1.0" encoding="UTF-8" standalone="no"?>
<!DOCTYPE svg PUBLIC "-//W3C//DTD SVG 1.1//EN"
 "http://www.w3.org/Graphics/SVG/1.1/DTD/svg11.dtd">
<!-- Generated by graphviz version 2.43.0 (0)
 -->
<!-- Title: update Pages: 1 -->
<svg width="276pt" height="86pt"
 viewBox="0.00 0.00 276.00 86.00" xmlns="http://www.w3.org/2000/svg" xmlns:xlink="http://www.w3.org/1999/xlink">
<g id="graph0" class="graph" transform="scale(1 1) rotate(0) translate(4 82)">
<title>update</title>
<!-- Node1 -->
<g id="node1" class="node">
<title>Node1</title>
<g id="a_node1"><a xlink:title="Update the inverse Hessian approximation using the new vectors xₙₑₓₜ and pₙₑₓₜ.">
<polygon fill="#999999" stroke="#666666" points="268,-48.5 218,-48.5 218,-29.5 268,-29.5 268,-48.5"/>
<text text-anchor="middle" x="243" y="-36.5" font-family="Helvetica,sans-Serif" font-size="10.00">update</text>
</a>
</g>
</g>
<!-- Node2 -->
<g id="node2" class="node">
<title>Node2</title>
<g id="a_node2"><a xlink:href="structalpaqa_1_1LBFGSDirection.html#a566f5ad6943cea19425edf62988b404e" target="_top" xlink:title=" ">
<polygon fill="white" stroke="#666666" points="156.5,-78 25.5,-78 25.5,-48 156.5,-48 156.5,-78"/>
<text text-anchor="start" x="33.5" y="-66" font-family="Helvetica,sans-Serif" font-size="10.00">alpaqa::LBFGSDirection</text>
<text text-anchor="middle" x="91" y="-55" font-family="Helvetica,sans-Serif" font-size="10.00">::update</text>
</a>
</g>
</g>
<!-- Node1&#45;&gt;Node2 -->
<g id="edge1" class="edge">
<title>Node1&#45;&gt;Node2</title>
<path fill="none" stroke="#63b8ff" d="M207.97,-44.44C192.81,-46.87 174.44,-49.81 156.82,-52.63"/>
<polygon fill="#63b8ff" stroke="#63b8ff" points="208.58,-47.89 217.9,-42.86 207.47,-40.98 208.58,-47.89"/>
</g>
<!-- Node3 -->
<g id="node3" class="node">
<title>Node3</title>
<g id="a_node3"><a xlink:href="structalpaqa_1_1StructuredLBFGSDirection.html#a566f5ad6943cea19425edf62988b404e" target="_top" xlink:title=" ">
<polygon fill="white" stroke="#666666" points="182,-30 0,-30 0,0 182,0 182,-30"/>
<text text-anchor="start" x="8" y="-18" font-family="Helvetica,sans-Serif" font-size="10.00">alpaqa::StructuredLBFGSDirection</text>
<text text-anchor="middle" x="91" y="-7" font-family="Helvetica,sans-Serif" font-size="10.00">::update</text>
</a>
</g>
</g>
<!-- Node1&#45;&gt;Node3 -->
<g id="edge2" class="edge">
<title>Node1&#45;&gt;Node3</title>
<path fill="none" stroke="#63b8ff" d="M207.8,-33.53C199.96,-32.27 191.27,-30.88 182.27,-29.44"/>
<polygon fill="#63b8ff" stroke="#63b8ff" points="207.47,-37.02 217.9,-35.14 208.58,-30.11 207.47,-37.02"/>
</g>
</g>
</svg>
