<?xml version="1.0" encoding="UTF-8" standalone="no"?>
<!DOCTYPE svg PUBLIC "-//W3C//DTD SVG 1.1//EN"
 "http://www.w3.org/Graphics/SVG/1.1/DTD/svg11.dtd">
<!-- Generated by graphviz version 2.43.0 (0)
 -->
<!-- Title: copyable_unique_ptr.hpp Pages: 1 -->
<svg width="407pt" height="192pt"
 viewBox="0.00 0.00 407.00 192.00" xmlns="http://www.w3.org/2000/svg" xmlns:xlink="http://www.w3.org/1999/xlink">
<g id="graph0" class="graph" transform="scale(1 1) rotate(0) translate(4 188)">
<title>copyable_unique_ptr.hpp</title>
<!-- Node1 -->
<g id="node1" class="node">
<title>Node1</title>
<g id="a_node1"><a xlink:title=" ">
<polygon fill="#999999" stroke="#666666" points="292.5,-184 154.5,-184 154.5,-165 292.5,-165 292.5,-184"/>
<text text-anchor="middle" x="223.5" y="-172" font-family="Helvetica,sans-Serif" font-size="10.00">copyable_unique_ptr.hpp</text>
</a>
</g>
</g>
<!-- Node2 -->
<g id="node2" class="node">
<title>Node2</title>
<g id="a_node2"><a xlink:href="CasADiControlProblem_8hpp.html" target="_top" xlink:title=" ">
<polygon fill="white" stroke="#666666" points="149,-129 0,-129 0,-110 149,-110 149,-129"/>
<text text-anchor="middle" x="74.5" y="-117" font-family="Helvetica,sans-Serif" font-size="10.00">CasADiControlProblem.hpp</text>
</a>
</g>
</g>
<!-- Node1&#45;&gt;Node2 -->
<g id="edge1" class="edge">
<title>Node1&#45;&gt;Node2</title>
<path fill="none" stroke="#63b8ff" d="M189.91,-161.55C162.24,-151.71 123.66,-137.98 98.88,-129.17"/>
<polygon fill="#63b8ff" stroke="#63b8ff" points="188.97,-164.93 199.56,-164.98 191.31,-158.34 188.97,-164.93"/>
</g>
<!-- Node5 -->
<g id="node5" class="node">
<title>Node5</title>
<g id="a_node5"><a xlink:href="CasADiProblem_8hpp.html" target="_top" xlink:title=" ">
<polygon fill="white" stroke="#666666" points="280,-129 167,-129 167,-110 280,-110 280,-129"/>
<text text-anchor="middle" x="223.5" y="-117" font-family="Helvetica,sans-Serif" font-size="10.00">CasADiProblem.hpp</text>
</a>
</g>
</g>
<!-- Node1&#45;&gt;Node5 -->
<g id="edge4" class="edge">
<title>Node1&#45;&gt;Node5</title>
<path fill="none" stroke="#63b8ff" d="M223.5,-154.66C223.5,-145.93 223.5,-135.99 223.5,-129.09"/>
<polygon fill="#63b8ff" stroke="#63b8ff" points="220,-154.75 223.5,-164.75 227,-154.75 220,-154.75"/>
</g>
<!-- Node8 -->
<g id="node8" class="node">
<title>Node8</title>
<g id="a_node8"><a xlink:href="cutest-loader_8hpp.html" target="_top" xlink:title=" ">
<polygon fill="white" stroke="#666666" points="399,-129 298,-129 298,-110 399,-110 399,-129"/>
<text text-anchor="middle" x="348.5" y="-117" font-family="Helvetica,sans-Serif" font-size="10.00">cutest&#45;loader.hpp</text>
</a>
</g>
</g>
<!-- Node1&#45;&gt;Node8 -->
<g id="edge7" class="edge">
<title>Node1&#45;&gt;Node8</title>
<path fill="none" stroke="#63b8ff" d="M252.91,-161.03C276.03,-151.23 307.63,-137.83 328.05,-129.17"/>
<polygon fill="#63b8ff" stroke="#63b8ff" points="251.42,-157.86 243.58,-164.98 254.16,-164.3 251.42,-157.86"/>
</g>
<!-- Node3 -->
<g id="node3" class="node">
<title>Node3</title>
<g id="a_node3"><a xlink:href="CasADiControlProblem_8tpp.html" target="_top" xlink:title=" ">
<polygon fill="white" stroke="#666666" points="147.5,-74 1.5,-74 1.5,-55 147.5,-55 147.5,-74"/>
<text text-anchor="middle" x="74.5" y="-62" font-family="Helvetica,sans-Serif" font-size="10.00">CasADiControlProblem.tpp</text>
</a>
</g>
</g>
<!-- Node2&#45;&gt;Node3 -->
<g id="edge2" class="edge">
<title>Node2&#45;&gt;Node3</title>
<path fill="none" stroke="#63b8ff" d="M74.5,-99.66C74.5,-90.93 74.5,-80.99 74.5,-74.09"/>
<polygon fill="#63b8ff" stroke="#63b8ff" points="71,-99.75 74.5,-109.75 78,-99.75 71,-99.75"/>
</g>
<!-- Node4 -->
<g id="node4" class="node">
<title>Node4</title>
<g id="a_node4"><a xlink:href="CasADiControlProblem_8cpp.html" target="_top" xlink:title=" ">
<polygon fill="white" stroke="#666666" points="148.5,-19 0.5,-19 0.5,0 148.5,0 148.5,-19"/>
<text text-anchor="middle" x="74.5" y="-7" font-family="Helvetica,sans-Serif" font-size="10.00">CasADiControlProblem.cpp</text>
</a>
</g>
</g>
<!-- Node3&#45;&gt;Node4 -->
<g id="edge3" class="edge">
<title>Node3&#45;&gt;Node4</title>
<path fill="none" stroke="#63b8ff" d="M74.5,-44.66C74.5,-35.93 74.5,-25.99 74.5,-19.09"/>
<polygon fill="#63b8ff" stroke="#63b8ff" points="71,-44.75 74.5,-54.75 78,-44.75 71,-44.75"/>
</g>
<!-- Node6 -->
<g id="node6" class="node">
<title>Node6</title>
<g id="a_node6"><a xlink:href="CasADiProblem_8tpp.html" target="_top" xlink:title=" ">
<polygon fill="white" stroke="#666666" points="279,-74 168,-74 168,-55 279,-55 279,-74"/>
<text text-anchor="middle" x="223.5" y="-62" font-family="Helvetica,sans-Serif" font-size="10.00">CasADiProblem.tpp</text>
</a>
</g>
</g>
<!-- Node5&#45;&gt;Node6 -->
<g id="edge5" class="edge">
<title>Node5&#45;&gt;Node6</title>
<path fill="none" stroke="#63b8ff" d="M223.5,-99.66C223.5,-90.93 223.5,-80.99 223.5,-74.09"/>
<polygon fill="#63b8ff" stroke="#63b8ff" points="220,-99.75 223.5,-109.75 227,-99.75 220,-99.75"/>
</g>
<!-- Node7 -->
<g id="node7" class="node">
<title>Node7</title>
<g id="a_node7"><a xlink:href="CasADiProblem_8cpp.html" target="_top" xlink:title=" ">
<polygon fill="white" stroke="#666666" points="280,-19 167,-19 167,0 280,0 280,-19"/>
<text text-anchor="middle" x="223.5" y="-7" font-family="Helvetica,sans-Serif" font-size="10.00">CasADiProblem.cpp</text>
</a>
</g>
</g>
<!-- Node6&#45;&gt;Node7 -->
<g id="edge6" class="edge">
<title>Node6&#45;&gt;Node7</title>
<path fill="none" stroke="#63b8ff" d="M223.5,-44.66C223.5,-35.93 223.5,-25.99 223.5,-19.09"/>
<polygon fill="#63b8ff" stroke="#63b8ff" points="220,-44.75 223.5,-54.75 227,-44.75 220,-44.75"/>
</g>
<!-- Node9 -->
<g id="node9" class="node">
<title>Node9</title>
<g id="a_node9"><a xlink:href="cutest-loader_8cpp.html" target="_top" xlink:title=" ">
<polygon fill="white" stroke="#666666" points="399,-74 298,-74 298,-55 399,-55 399,-74"/>
<text text-anchor="middle" x="348.5" y="-62" font-family="Helvetica,sans-Serif" font-size="10.00">cutest&#45;loader.cpp</text>
</a>
</g>
</g>
<!-- Node8&#45;&gt;Node9 -->
<g id="edge8" class="edge">
<title>Node8&#45;&gt;Node9</title>
<path fill="none" stroke="#63b8ff" d="M348.5,-99.66C348.5,-90.93 348.5,-80.99 348.5,-74.09"/>
<polygon fill="#63b8ff" stroke="#63b8ff" points="345,-99.75 348.5,-109.75 352,-99.75 345,-99.75"/>
</g>
</g>
</svg>
