<?xml version="1.0" encoding="UTF-8" standalone="no"?>
<!DOCTYPE svg PUBLIC "-//W3C//DTD SVG 1.1//EN"
 "http://www.w3.org/Graphics/SVG/1.1/DTD/svg11.dtd">
<!-- Generated by graphviz version 2.43.0 (0)
 -->
<!-- Title: cutest&#45;loader.hpp Pages: 1 -->
<svg width="891pt" height="269pt"
 viewBox="0.00 0.00 890.50 269.00" xmlns="http://www.w3.org/2000/svg" xmlns:xlink="http://www.w3.org/1999/xlink">
<g id="graph0" class="graph" transform="scale(1 1) rotate(0) translate(4 265)">
<title>cutest&#45;loader.hpp</title>
<!-- Node1 -->
<g id="node1" class="node">
<title>Node1</title>
<g id="a_node1"><a xlink:title=" ">
<polygon fill="#999999" stroke="#666666" points="704,-261 603,-261 603,-242 704,-242 704,-261"/>
<text text-anchor="middle" x="653.5" y="-249" font-family="Helvetica,sans-Serif" font-size="10.00">cutest&#45;loader.hpp</text>
</a>
</g>
</g>
<!-- Node2 -->
<g id="node2" class="node">
<title>Node2</title>
<g id="a_node2"><a xlink:href="config_8hpp.html" target="_top" xlink:title=" ">
<polygon fill="white" stroke="#666666" points="462,-85 327,-85 327,-66 462,-66 462,-85"/>
<text text-anchor="middle" x="394.5" y="-73" font-family="Helvetica,sans-Serif" font-size="10.00">alpaqa/config/config.hpp</text>
</a>
</g>
</g>
<!-- Node1&#45;&gt;Node2 -->
<g id="edge1" class="edge">
<title>Node1&#45;&gt;Node2</title>
<path fill="none" stroke="#63b8ff" d="M633.21,-241.9C595.57,-225.41 513.35,-186.78 453.5,-140 435.8,-126.16 418.68,-106.87 407.48,-93.19"/>
<polygon fill="#63b8ff" stroke="#63b8ff" points="410.01,-90.75 401.03,-85.12 404.54,-95.12 410.01,-90.75"/>
</g>
<!-- Node7 -->
<g id="node7" class="node">
<title>Node7</title>
<g id="a_node7"><a xlink:href="box-constr-problem_8hpp.html" target="_top" xlink:title=" ">
<polygon fill="white" stroke="#666666" points="406.5,-206 290.5,-206 290.5,-176 406.5,-176 406.5,-206"/>
<text text-anchor="start" x="298.5" y="-194" font-family="Helvetica,sans-Serif" font-size="10.00">alpaqa/problem/box</text>
<text text-anchor="middle" x="348.5" y="-183" font-family="Helvetica,sans-Serif" font-size="10.00">&#45;constr&#45;problem.hpp</text>
</a>
</g>
</g>
<!-- Node1&#45;&gt;Node7 -->
<g id="edge6" class="edge">
<title>Node1&#45;&gt;Node7</title>
<path fill="none" stroke="#63b8ff" d="M608.39,-241.93C561.45,-233 485.81,-218.59 420.5,-206 419.23,-205.76 417.96,-205.51 416.67,-205.26"/>
<polygon fill="#63b8ff" stroke="#63b8ff" points="417.14,-201.79 406.66,-203.33 415.81,-208.66 417.14,-201.79"/>
</g>
<!-- Node16 -->
<g id="node16" class="node">
<title>Node16</title>
<g id="a_node16"><a xlink:title=" ">
<polygon fill="#e0e0e0" stroke="#999999" points="682.5,-85 638.5,-85 638.5,-66 682.5,-66 682.5,-85"/>
<text text-anchor="middle" x="660.5" y="-73" font-family="Helvetica,sans-Serif" font-size="10.00">string</text>
</a>
</g>
</g>
<!-- Node1&#45;&gt;Node16 -->
<g id="edge24" class="edge">
<title>Node1&#45;&gt;Node16</title>
<path fill="none" stroke="#63b8ff" d="M653.86,-241.63C654.94,-214.64 658.23,-133.03 659.73,-95.61"/>
<polygon fill="#63b8ff" stroke="#63b8ff" points="663.25,-95.28 660.15,-85.14 656.25,-94.99 663.25,-95.28"/>
</g>
<!-- Node17 -->
<g id="node17" class="node">
<title>Node17</title>
<g id="a_node17"><a xlink:href="copyable__unique__ptr_8hpp.html" target="_top" xlink:title=" ">
<polygon fill="white" stroke="#666666" points="816.5,-206 700.5,-206 700.5,-176 816.5,-176 816.5,-206"/>
<text text-anchor="start" x="708.5" y="-194" font-family="Helvetica,sans-Serif" font-size="10.00">alpaqa/util/copyable</text>
<text text-anchor="middle" x="758.5" y="-183" font-family="Helvetica,sans-Serif" font-size="10.00">_unique_ptr.hpp</text>
</a>
</g>
</g>
<!-- Node1&#45;&gt;Node17 -->
<g id="edge20" class="edge">
<title>Node1&#45;&gt;Node17</title>
<path fill="none" stroke="#63b8ff" d="M668.99,-241.87C683.5,-233.78 705.69,-221.42 724.34,-211.03"/>
<polygon fill="#63b8ff" stroke="#63b8ff" points="726.13,-214.04 733.17,-206.11 722.73,-207.92 726.13,-214.04"/>
</g>
<!-- Node18 -->
<g id="node18" class="node">
<title>Node18</title>
<g id="a_node18"><a xlink:title=" ">
<polygon fill="#e0e0e0" stroke="#999999" points="754.5,-140 696.5,-140 696.5,-121 754.5,-121 754.5,-140"/>
<text text-anchor="middle" x="725.5" y="-128" font-family="Helvetica,sans-Serif" font-size="10.00">memory</text>
</a>
</g>
</g>
<!-- Node1&#45;&gt;Node18 -->
<g id="edge23" class="edge">
<title>Node1&#45;&gt;Node18</title>
<path fill="none" stroke="#63b8ff" d="M657.24,-241.96C663.57,-227.82 677.11,-198.85 691.5,-176 697.59,-166.33 705.25,-156.17 711.76,-147.99"/>
<polygon fill="#63b8ff" stroke="#63b8ff" points="714.64,-149.99 718.24,-140.03 709.21,-145.58 714.64,-149.99"/>
</g>
<!-- Node19 -->
<g id="node19" class="node">
<title>Node19</title>
<g id="a_node19"><a xlink:title=" ">
<polygon fill="#e0e0e0" stroke="#999999" points="882.5,-200.5 834.5,-200.5 834.5,-181.5 882.5,-181.5 882.5,-200.5"/>
<text text-anchor="middle" x="858.5" y="-188.5" font-family="Helvetica,sans-Serif" font-size="10.00">iosfwd</text>
</a>
</g>
</g>
<!-- Node1&#45;&gt;Node19 -->
<g id="edge22" class="edge">
<title>Node1&#45;&gt;Node19</title>
<path fill="none" stroke="#63b8ff" d="M693.27,-241.97C728.45,-234.02 780.96,-221.12 825.5,-206 826.94,-205.51 828.4,-204.99 829.87,-204.45"/>
<polygon fill="#63b8ff" stroke="#63b8ff" points="831.49,-207.57 839.49,-200.63 828.9,-201.06 831.49,-207.57"/>
</g>
<!-- Node3 -->
<g id="node3" class="node">
<title>Node3</title>
<g id="a_node3"><a xlink:href="quadmath_8hpp.html" target="_top" xlink:title=" ">
<polygon fill="white" stroke="#666666" points="342,-30 221,-30 221,0 342,0 342,-30"/>
<text text-anchor="start" x="229" y="-18" font-family="Helvetica,sans-Serif" font-size="10.00">alpaqa/util/quadmath</text>
<text text-anchor="middle" x="281.5" y="-7" font-family="Helvetica,sans-Serif" font-size="10.00">/quadmath.hpp</text>
</a>
</g>
</g>
<!-- Node2&#45;&gt;Node3 -->
<g id="edge2" class="edge">
<title>Node2&#45;&gt;Node3</title>
<path fill="none" stroke="#63b8ff" d="M377.83,-65.87C362.07,-57.71 337.9,-45.2 317.71,-34.75"/>
<polygon fill="#63b8ff" stroke="#63b8ff" points="319.25,-31.6 308.76,-30.11 316.04,-37.82 319.25,-31.6"/>
</g>
<!-- Node4 -->
<g id="node4" class="node">
<title>Node4</title>
<g id="a_node4"><a xlink:title=" ">
<polygon fill="#e0e0e0" stroke="#999999" points="578.5,-24.5 534.5,-24.5 534.5,-5.5 578.5,-5.5 578.5,-24.5"/>
<text text-anchor="middle" x="556.5" y="-12.5" font-family="Helvetica,sans-Serif" font-size="10.00">limits</text>
</a>
</g>
</g>
<!-- Node2&#45;&gt;Node4 -->
<g id="edge3" class="edge">
<title>Node2&#45;&gt;Node4</title>
<path fill="none" stroke="#63b8ff" d="M421.62,-65.94C448.09,-57.42 489.37,-43.67 524.5,-30 525.71,-29.53 526.94,-29.04 528.18,-28.54"/>
<polygon fill="#63b8ff" stroke="#63b8ff" points="529.8,-31.66 537.66,-24.55 527.08,-25.2 529.8,-31.66"/>
</g>
<!-- Node5 -->
<g id="node5" class="node">
<title>Node5</title>
<g id="a_node5"><a xlink:title=" ">
<polygon fill="#e0e0e0" stroke="#999999" points="429,-24.5 360,-24.5 360,-5.5 429,-5.5 429,-24.5"/>
<text text-anchor="middle" x="394.5" y="-12.5" font-family="Helvetica,sans-Serif" font-size="10.00">type_traits</text>
</a>
</g>
</g>
<!-- Node2&#45;&gt;Node5 -->
<g id="edge4" class="edge">
<title>Node2&#45;&gt;Node5</title>
<path fill="none" stroke="#63b8ff" d="M394.5,-65.87C394.5,-57.75 394.5,-45.31 394.5,-34.89"/>
<polygon fill="#63b8ff" stroke="#63b8ff" points="398,-34.67 394.5,-24.67 391,-34.67 398,-34.67"/>
</g>
<!-- Node6 -->
<g id="node6" class="node">
<title>Node6</title>
<g id="a_node6"><a xlink:title=" ">
<polygon fill="#e0e0e0" stroke="#999999" points="516,-24.5 447,-24.5 447,-5.5 516,-5.5 516,-24.5"/>
<text text-anchor="middle" x="481.5" y="-12.5" font-family="Helvetica,sans-Serif" font-size="10.00">Eigen/Core</text>
</a>
</g>
</g>
<!-- Node2&#45;&gt;Node6 -->
<g id="edge5" class="edge">
<title>Node2&#45;&gt;Node6</title>
<path fill="none" stroke="#63b8ff" d="M407.34,-65.87C421.22,-56.54 443.57,-41.51 460.11,-30.38"/>
<polygon fill="#63b8ff" stroke="#63b8ff" points="462.26,-33.15 468.61,-24.67 458.36,-27.34 462.26,-33.15"/>
</g>
<!-- Node8 -->
<g id="node8" class="node">
<title>Node8</title>
<g id="a_node8"><a xlink:href="box_8hpp.html" target="_top" xlink:title=" ">
<polygon fill="white" stroke="#666666" points="406,-140 271,-140 271,-121 406,-121 406,-140"/>
<text text-anchor="middle" x="338.5" y="-128" font-family="Helvetica,sans-Serif" font-size="10.00">alpaqa/problem/box.hpp</text>
</a>
</g>
</g>
<!-- Node7&#45;&gt;Node8 -->
<g id="edge7" class="edge">
<title>Node7&#45;&gt;Node8</title>
<path fill="none" stroke="#63b8ff" d="M346.08,-175.84C344.76,-168.13 343.11,-158.49 341.69,-150.17"/>
<polygon fill="#63b8ff" stroke="#63b8ff" points="345.13,-149.53 340,-140.27 338.23,-150.71 345.13,-149.53"/>
</g>
<!-- Node13 -->
<g id="node13" class="node">
<title>Node13</title>
<g id="a_node13"><a xlink:href="check-dim_8hpp.html" target="_top" xlink:title=" ">
<polygon fill="white" stroke="#666666" points="606,-140 463,-140 463,-121 606,-121 606,-140"/>
<text text-anchor="middle" x="534.5" y="-128" font-family="Helvetica,sans-Serif" font-size="10.00">alpaqa/util/check&#45;dim.hpp</text>
</a>
</g>
</g>
<!-- Node7&#45;&gt;Node13 -->
<g id="edge15" class="edge">
<title>Node7&#45;&gt;Node13</title>
<path fill="none" stroke="#63b8ff" d="M393.05,-175.99C425.01,-165.94 467.56,-152.55 497.62,-143.1"/>
<polygon fill="#63b8ff" stroke="#63b8ff" points="498.81,-146.39 507.3,-140.05 496.71,-139.72 498.81,-146.39"/>
</g>
<!-- Node8&#45;&gt;Node2 -->
<g id="edge8" class="edge">
<title>Node8&#45;&gt;Node2</title>
<path fill="none" stroke="#63b8ff" d="M347.5,-120.98C355.69,-113.23 368.01,-101.58 377.97,-92.14"/>
<polygon fill="#63b8ff" stroke="#63b8ff" points="380.48,-94.59 385.34,-85.17 375.67,-89.5 380.48,-94.59"/>
</g>
<!-- Node9 -->
<g id="node9" class="node">
<title>Node9</title>
<g id="a_node9"><a xlink:href="float_8hpp.html" target="_top" xlink:title=" ">
<polygon fill="white" stroke="#666666" points="272.5,-85 158.5,-85 158.5,-66 272.5,-66 272.5,-85"/>
<text text-anchor="middle" x="215.5" y="-73" font-family="Helvetica,sans-Serif" font-size="10.00">alpaqa/util/float.hpp</text>
</a>
</g>
</g>
<!-- Node8&#45;&gt;Node9 -->
<g id="edge9" class="edge">
<title>Node8&#45;&gt;Node9</title>
<path fill="none" stroke="#63b8ff" d="M318.74,-120.98C298.77,-112.38 267.7,-98.99 244.85,-89.15"/>
<polygon fill="#63b8ff" stroke="#63b8ff" points="246.19,-85.91 235.62,-85.17 243.42,-92.34 246.19,-85.91"/>
</g>
<!-- Node9&#45;&gt;Node3 -->
<g id="edge10" class="edge">
<title>Node9&#45;&gt;Node3</title>
<path fill="none" stroke="#63b8ff" d="M225.24,-65.87C233.86,-58.22 246.8,-46.76 258.09,-36.75"/>
<polygon fill="#63b8ff" stroke="#63b8ff" points="260.41,-39.37 265.58,-30.11 255.77,-34.13 260.41,-39.37"/>
</g>
<!-- Node9&#45;&gt;Node5 -->
<g id="edge14" class="edge">
<title>Node9&#45;&gt;Node5</title>
<path fill="none" stroke="#63b8ff" d="M241.53,-65.99C272.42,-55.9 324.08,-39.01 358.72,-27.69"/>
<polygon fill="#63b8ff" stroke="#63b8ff" points="360.02,-30.95 368.44,-24.52 357.85,-24.3 360.02,-30.95"/>
</g>
<!-- Node10 -->
<g id="node10" class="node">
<title>Node10</title>
<g id="a_node10"><a xlink:title=" ">
<polygon fill="#e0e0e0" stroke="#999999" points="203,-24.5 156,-24.5 156,-5.5 203,-5.5 203,-24.5"/>
<text text-anchor="middle" x="179.5" y="-12.5" font-family="Helvetica,sans-Serif" font-size="10.00">cmath</text>
</a>
</g>
</g>
<!-- Node9&#45;&gt;Node10 -->
<g id="edge11" class="edge">
<title>Node9&#45;&gt;Node10</title>
<path fill="none" stroke="#63b8ff" d="M210.19,-65.87C204.92,-57.31 196.71,-43.97 190.11,-33.24"/>
<polygon fill="#63b8ff" stroke="#63b8ff" points="193.06,-31.35 184.83,-24.67 187.09,-35.02 193.06,-31.35"/>
</g>
<!-- Node11 -->
<g id="node11" class="node">
<title>Node11</title>
<g id="a_node11"><a xlink:title=" ">
<polygon fill="#e0e0e0" stroke="#999999" points="59,-24.5 0,-24.5 0,-5.5 59,-5.5 59,-24.5"/>
<text text-anchor="middle" x="29.5" y="-12.5" font-family="Helvetica,sans-Serif" font-size="10.00">complex</text>
</a>
</g>
</g>
<!-- Node9&#45;&gt;Node11 -->
<g id="edge12" class="edge">
<title>Node9&#45;&gt;Node11</title>
<path fill="none" stroke="#63b8ff" d="M185.8,-65.99C156.01,-57.34 108.88,-43.35 68.5,-30 66.6,-29.37 64.66,-28.72 62.7,-28.05"/>
<polygon fill="#63b8ff" stroke="#63b8ff" points="63.54,-24.63 52.94,-24.63 61.23,-31.24 63.54,-24.63"/>
</g>
<!-- Node12 -->
<g id="node12" class="node">
<title>Node12</title>
<g id="a_node12"><a xlink:title=" ">
<polygon fill="#e0e0e0" stroke="#999999" points="137.5,-24.5 77.5,-24.5 77.5,-5.5 137.5,-5.5 137.5,-24.5"/>
<text text-anchor="middle" x="107.5" y="-12.5" font-family="Helvetica,sans-Serif" font-size="10.00">concepts</text>
</a>
</g>
</g>
<!-- Node9&#45;&gt;Node12 -->
<g id="edge13" class="edge">
<title>Node9&#45;&gt;Node12</title>
<path fill="none" stroke="#63b8ff" d="M199.56,-65.87C181.86,-56.28 153.04,-40.67 132.36,-29.47"/>
<polygon fill="#63b8ff" stroke="#63b8ff" points="133.96,-26.35 123.5,-24.67 130.63,-32.51 133.96,-26.35"/>
</g>
<!-- Node13&#45;&gt;Node2 -->
<g id="edge16" class="edge">
<title>Node13&#45;&gt;Node2</title>
<path fill="none" stroke="#63b8ff" d="M512.01,-120.98C488.98,-112.27 452.96,-98.63 426.87,-88.75"/>
<polygon fill="#63b8ff" stroke="#63b8ff" points="427.99,-85.44 417.4,-85.17 425.52,-91.98 427.99,-85.44"/>
</g>
<!-- Node14 -->
<g id="node14" class="node">
<title>Node14</title>
<g id="a_node14"><a xlink:title=" ">
<polygon fill="#e0e0e0" stroke="#999999" points="536.5,-85 480.5,-85 480.5,-66 536.5,-66 536.5,-85"/>
<text text-anchor="middle" x="508.5" y="-73" font-family="Helvetica,sans-Serif" font-size="10.00">optional</text>
</a>
</g>
</g>
<!-- Node13&#45;&gt;Node14 -->
<g id="edge17" class="edge">
<title>Node13&#45;&gt;Node14</title>
<path fill="none" stroke="#63b8ff" d="M530.21,-120.75C526.69,-113.57 521.59,-103.18 517.22,-94.27"/>
<polygon fill="#63b8ff" stroke="#63b8ff" points="520.26,-92.53 512.71,-85.09 513.98,-95.61 520.26,-92.53"/>
</g>
<!-- Node15 -->
<g id="node15" class="node">
<title>Node15</title>
<g id="a_node15"><a xlink:title=" ">
<polygon fill="#e0e0e0" stroke="#999999" points="620,-85 555,-85 555,-66 620,-66 620,-85"/>
<text text-anchor="middle" x="587.5" y="-73" font-family="Helvetica,sans-Serif" font-size="10.00">stdexcept</text>
</a>
</g>
</g>
<!-- Node13&#45;&gt;Node15 -->
<g id="edge18" class="edge">
<title>Node13&#45;&gt;Node15</title>
<path fill="none" stroke="#63b8ff" d="M543.25,-120.75C550.97,-113.03 562.4,-101.6 571.72,-92.28"/>
<polygon fill="#63b8ff" stroke="#63b8ff" points="574.31,-94.64 578.91,-85.09 569.36,-89.69 574.31,-94.64"/>
</g>
<!-- Node13&#45;&gt;Node16 -->
<g id="edge19" class="edge">
<title>Node13&#45;&gt;Node16</title>
<path fill="none" stroke="#63b8ff" d="M554.74,-120.98C575.2,-112.38 607.03,-98.99 630.43,-89.15"/>
<polygon fill="#63b8ff" stroke="#63b8ff" points="632.03,-92.27 639.89,-85.17 629.31,-85.82 632.03,-92.27"/>
</g>
<!-- Node17&#45;&gt;Node18 -->
<g id="edge21" class="edge">
<title>Node17&#45;&gt;Node18</title>
<path fill="none" stroke="#63b8ff" d="M750.51,-175.84C745.97,-167.78 740.23,-157.62 735.4,-149.06"/>
<polygon fill="#63b8ff" stroke="#63b8ff" points="738.41,-147.26 730.44,-140.27 732.31,-150.7 738.41,-147.26"/>
</g>
</g>
</svg>
