<?xml version="1.0" encoding="UTF-8" standalone="no"?>
<!DOCTYPE svg PUBLIC "-//W3C//DTD SVG 1.1//EN"
 "http://www.w3.org/Graphics/SVG/1.1/DTD/svg11.dtd">
<!-- Generated by graphviz version 2.43.0 (0)
 -->
<!-- Title: src Pages: 1 -->
<svg width="144pt" height="133pt"
 viewBox="0.00 0.00 144.00 133.00" xmlns="http://www.w3.org/2000/svg" xmlns:xlink="http://www.w3.org/1999/xlink">
<g id="graph0" class="graph" transform="scale(1 1) rotate(0) translate(4 129)">
<title>src</title>
<g id="clust1" class="cluster">
<title>clusterdir_42d107173de96885ffce1dcf11323502</title>
<g id="a_clust1"><a xlink:href="dir_42d107173de96885ffce1dcf11323502.html" target="_top" xlink:title="casadi">
<polygon fill="#eef0f6" stroke="#7f7f7f" stroke-dasharray="5,2" points="8,-8 8,-117 76,-117 76,-8 8,-8"/>
<text text-anchor="middle" x="42" y="-105" font-family="Helvetica,sans-Serif" font-size="10.00">casadi</text>
</a>
</g>
</g>
<!-- dir_22cdf70b7d385ca9a5acb3e3740f0209 -->
<g id="node1" class="node">
<title>dir_22cdf70b7d385ca9a5acb3e3740f0209</title>
<g id="a_node1"><a xlink:href="dir_22cdf70b7d385ca9a5acb3e3740f0209.html" target="_top" xlink:title="include">
<polygon fill="#a7b5d1" stroke="red" points="68,-35 16,-35 16,-16 68,-16 68,-35"/>
<text text-anchor="middle" x="42" y="-23" font-family="Helvetica,sans-Serif" font-size="10.00">include</text>
</a>
</g>
</g>
<!-- dir_18f91d233ca023beedbe7730e20920e4 -->
<g id="node2" class="node">
<title>dir_18f91d233ca023beedbe7730e20920e4</title>
<g id="a_node2"><a xlink:href="dir_18f91d233ca023beedbe7730e20920e4.html" target="_top" xlink:title="src">
<polygon fill="#eef0f6" stroke="#404040" stroke-width="2" points="62.5,-90 31.5,-90 31.5,-71 62.5,-71 62.5,-90"/>
<text text-anchor="middle" x="47" y="-78" font-family="Helvetica,sans-Serif" font-size="10.00">src</text>
</a>
</g>
</g>
<!-- dir_18f91d233ca023beedbe7730e20920e4&#45;&gt;dir_22cdf70b7d385ca9a5acb3e3740f0209 -->
<g id="edge1" class="edge">
<title>dir_18f91d233ca023beedbe7730e20920e4&#45;&gt;dir_22cdf70b7d385ca9a5acb3e3740f0209</title>
<path fill="none" stroke="#63b8ff" d="M46.17,-70.75C45.52,-63.8 44.58,-53.85 43.76,-45.13"/>
<polygon fill="#63b8ff" stroke="#63b8ff" points="47.23,-44.72 42.81,-35.09 40.27,-45.37 47.23,-44.72"/>
<g id="a_edge1&#45;headlabel"><a xlink:href="dir_000074_000032.html" target="_top" xlink:title="2">
<text text-anchor="middle" x="50.4" y="-45.53" font-family="Helvetica,sans-Serif" font-size="10.00" fill="#63b8ff">2</text>
</a>
</g>
</g>
<!-- dir_c979be3b7257554f611eb08995a74094 -->
<g id="node3" class="node">
<title>dir_c979be3b7257554f611eb08995a74094</title>
<g id="a_node3"><a xlink:href="dir_c979be3b7257554f611eb08995a74094.html" target="_top" xlink:title="alpaqa">
<polygon fill="#eef0f6" stroke="red" points="136,-35 86,-35 86,-16 136,-16 136,-35"/>
<text text-anchor="middle" x="111" y="-23" font-family="Helvetica,sans-Serif" font-size="10.00">alpaqa</text>
</a>
</g>
</g>
<!-- dir_18f91d233ca023beedbe7730e20920e4&#45;&gt;dir_c979be3b7257554f611eb08995a74094 -->
<g id="edge2" class="edge">
<title>dir_18f91d233ca023beedbe7730e20920e4&#45;&gt;dir_c979be3b7257554f611eb08995a74094</title>
<path fill="none" stroke="#63b8ff" d="M57.28,-70.98C66.84,-63.07 81.28,-51.11 92.78,-41.58"/>
<polygon fill="#63b8ff" stroke="#63b8ff" points="95.06,-44.24 100.53,-35.17 90.6,-38.85 95.06,-44.24"/>
<g id="a_edge2&#45;headlabel"><a xlink:href="dir_000074_000003.html" target="_top" xlink:title="2">
<text text-anchor="middle" x="94.1" y="-46.22" font-family="Helvetica,sans-Serif" font-size="10.00" fill="#63b8ff">2</text>
</a>
</g>
</g>
</g>
</svg>
