<?xml version="1.0" encoding="UTF-8" standalone="no"?>
<!DOCTYPE svg PUBLIC "-//W3C//DTD SVG 1.1//EN"
 "http://www.w3.org/Graphics/SVG/1.1/DTD/svg11.dtd">
<!-- Generated by graphviz version 2.43.0 (0)
 -->
<!-- Title: accelerators Pages: 1 -->
<svg width="136pt" height="196pt"
 viewBox="0.00 0.00 136.00 196.00" xmlns="http://www.w3.org/2000/svg" xmlns:xlink="http://www.w3.org/1999/xlink">
<g id="graph0" class="graph" transform="scale(1 1) rotate(0) translate(4 192)">
<title>accelerators</title>
<g id="clust1" class="cluster">
<title>clusterdir_aa7a1b0f58ddf19b58b6c6a8f7be749b</title>
<g id="a_clust1"><a xlink:href="dir_aa7a1b0f58ddf19b58b6c6a8f7be749b.html" target="_top" xlink:title="alpaqa">
<polygon fill="#eef0f6" stroke="#7f7f7f" stroke-dasharray="5,2" points="8,-8 8,-180 120,-180 120,-8 8,-8"/>
<text text-anchor="middle" x="64" y="-168" font-family="Helvetica,sans-Serif" font-size="10.00">alpaqa</text>
</a>
</g>
</g>
<g id="clust2" class="cluster">
<title>clusterdir_56cdb4e0e1d23a049aedd3c0d066c83d</title>
<g id="a_clust2"><a xlink:href="dir_56cdb4e0e1d23a049aedd3c0d066c83d.html" target="_top">
<polygon fill="#eef0f6" stroke="#404040" stroke-width="2" points="17,-63 17,-153 111,-153 111,-63 17,-63"/>
</a>
</g>
</g>
<!-- dir_1a4ee48d2e08cfd45a07dbc8fcccca64 -->
<g id="node1" class="node">
<title>dir_1a4ee48d2e08cfd45a07dbc8fcccca64</title>
<g id="a_node1"><a xlink:href="dir_1a4ee48d2e08cfd45a07dbc8fcccca64.html" target="_top" xlink:title="config">
<polygon fill="#a7b5d1" stroke="#404040" points="62,-35 16,-35 16,-16 62,-16 62,-35"/>
<text text-anchor="middle" x="39" y="-23" font-family="Helvetica,sans-Serif" font-size="10.00">config</text>
</a>
</g>
</g>
<!-- dir_39cea274dfac8d55d2001e07c2abe998 -->
<g id="node2" class="node">
<title>dir_39cea274dfac8d55d2001e07c2abe998</title>
<g id="a_node2"><a xlink:href="dir_39cea274dfac8d55d2001e07c2abe998.html" target="_top" xlink:title="util">
<polygon fill="#a7b5d1" stroke="red" points="112,-35 80,-35 80,-16 112,-16 112,-35"/>
<text text-anchor="middle" x="96" y="-23" font-family="Helvetica,sans-Serif" font-size="10.00">util</text>
</a>
</g>
</g>
<!-- dir_56cdb4e0e1d23a049aedd3c0d066c83d -->
<g id="node3" class="node">
<title>dir_56cdb4e0e1d23a049aedd3c0d066c83d</title>
<text text-anchor="middle" x="64" y="-133" font-family="Helvetica,sans-Serif" font-size="10.00">accelerators</text>
</g>
<!-- dir_56cdb4e0e1d23a049aedd3c0d066c83d&#45;&gt;dir_1a4ee48d2e08cfd45a07dbc8fcccca64 -->
<g id="edge1" class="edge">
<title>dir_56cdb4e0e1d23a049aedd3c0d066c83d&#45;&gt;dir_1a4ee48d2e08cfd45a07dbc8fcccca64</title>
<path fill="none" stroke="#63b8ff" d="M53.84,-125.81C45.1,-117.6 33.1,-104.43 28,-90 22.81,-75.33 26.5,-57.86 30.96,-44.96"/>
<polygon fill="#63b8ff" stroke="#63b8ff" points="34.33,-45.95 34.71,-35.36 27.81,-43.41 34.33,-45.95"/>
<g id="a_edge1&#45;headlabel"><a xlink:href="dir_000000_000015.html" target="_top" xlink:title="5">
<text text-anchor="middle" x="35.67" y="-47.83" font-family="Helvetica,sans-Serif" font-size="10.00" fill="#63b8ff">5</text>
</a>
</g>
</g>
<!-- dir_56cdb4e0e1d23a049aedd3c0d066c83d&#45;&gt;dir_39cea274dfac8d55d2001e07c2abe998 -->
<g id="edge3" class="edge">
<title>dir_56cdb4e0e1d23a049aedd3c0d066c83d&#45;&gt;dir_39cea274dfac8d55d2001e07c2abe998</title>
<path fill="none" stroke="#63b8ff" d="M74.16,-125.81C82.9,-117.6 94.9,-104.43 100,-90 105.13,-75.5 103.5,-57.99 100.94,-45.04"/>
<polygon fill="#63b8ff" stroke="#63b8ff" points="104.28,-43.95 98.6,-35.01 97.47,-45.54 104.28,-43.95"/>
<g id="a_edge3&#45;headlabel"><a xlink:href="dir_000000_000081.html" target="_top" xlink:title="2">
<text text-anchor="middle" x="107.86" y="-44.31" font-family="Helvetica,sans-Serif" font-size="10.00" fill="#63b8ff">2</text>
</a>
</g>
</g>
<!-- dir_1d8db3a6ccb0c364067c8dffcb06a1ea -->
<g id="node4" class="node">
<title>dir_1d8db3a6ccb0c364067c8dffcb06a1ea</title>
<g id="a_node4"><a xlink:href="dir_1d8db3a6ccb0c364067c8dffcb06a1ea.html" target="_top" xlink:title="internal">
<polygon fill="#a7b5d1" stroke="#404040" points="91,-90 37,-90 37,-71 91,-71 91,-90"/>
<text text-anchor="middle" x="64" y="-78" font-family="Helvetica,sans-Serif" font-size="10.00">internal</text>
</a>
</g>
</g>
<!-- dir_56cdb4e0e1d23a049aedd3c0d066c83d&#45;&gt;dir_1d8db3a6ccb0c364067c8dffcb06a1ea -->
<g id="edge2" class="edge">
<title>dir_56cdb4e0e1d23a049aedd3c0d066c83d&#45;&gt;dir_1d8db3a6ccb0c364067c8dffcb06a1ea</title>
<path fill="none" stroke="#63b8ff" d="M64,-125.75C64,-118.8 64,-108.85 64,-100.13"/>
<polygon fill="#63b8ff" stroke="#63b8ff" points="67.5,-100.09 64,-90.09 60.5,-100.09 67.5,-100.09"/>
<g id="a_edge2&#45;headlabel"><a xlink:href="dir_000000_000042.html" target="_top" xlink:title="1">
<text text-anchor="middle" x="70.34" y="-101.18" font-family="Helvetica,sans-Serif" font-size="10.00" fill="#63b8ff">1</text>
</a>
</g>
</g>
<!-- dir_1d8db3a6ccb0c364067c8dffcb06a1ea&#45;&gt;dir_1a4ee48d2e08cfd45a07dbc8fcccca64 -->
<g id="edge4" class="edge">
<title>dir_1d8db3a6ccb0c364067c8dffcb06a1ea&#45;&gt;dir_1a4ee48d2e08cfd45a07dbc8fcccca64</title>
<path fill="none" stroke="#63b8ff" d="M59.87,-70.75C56.49,-63.57 51.58,-53.18 47.38,-44.27"/>
<polygon fill="#63b8ff" stroke="#63b8ff" points="50.48,-42.64 43.05,-35.09 44.15,-45.63 50.48,-42.64"/>
<g id="a_edge4&#45;headlabel"><a xlink:href="dir_000042_000015.html" target="_top" xlink:title="2">
<text text-anchor="middle" x="54.58" y="-42.18" font-family="Helvetica,sans-Serif" font-size="10.00" fill="#63b8ff">2</text>
</a>
</g>
</g>
<!-- dir_1d8db3a6ccb0c364067c8dffcb06a1ea&#45;&gt;dir_39cea274dfac8d55d2001e07c2abe998 -->
<g id="edge5" class="edge">
<title>dir_1d8db3a6ccb0c364067c8dffcb06a1ea&#45;&gt;dir_39cea274dfac8d55d2001e07c2abe998</title>
<path fill="none" stroke="#63b8ff" d="M69.28,-70.75C73.71,-63.42 80.16,-52.73 85.62,-43.7"/>
<polygon fill="#63b8ff" stroke="#63b8ff" points="88.64,-45.46 90.81,-35.09 82.65,-41.84 88.64,-45.46"/>
<g id="a_edge5&#45;headlabel"><a xlink:href="dir_000042_000081.html" target="_top" xlink:title="1">
<text text-anchor="middle" x="89.21" y="-47.5" font-family="Helvetica,sans-Serif" font-size="10.00" fill="#63b8ff">1</text>
</a>
</g>
</g>
</g>
</svg>
