<?xml version="1.0" encoding="UTF-8" standalone="no"?>
<!DOCTYPE svg PUBLIC "-//W3C//DTD SVG 1.1//EN"
 "http://www.w3.org/Graphics/SVG/1.1/DTD/svg11.dtd">
<!-- Generated by graphviz version 2.43.0 (0)
 -->
<!-- Title: implementation Pages: 1 -->
<svg width="268pt" height="141pt"
 viewBox="0.00 0.00 268.00 141.00" xmlns="http://www.w3.org/2000/svg" xmlns:xlink="http://www.w3.org/1999/xlink">
<g id="graph0" class="graph" transform="scale(1 1) rotate(0) translate(4 137)">
<title>implementation</title>
<g id="clust1" class="cluster">
<title>clusterdir_b2ad724e287f353c639f8ac6a21b3c19</title>
<g id="a_clust1"><a xlink:href="dir_b2ad724e287f353c639f8ac6a21b3c19.html" target="_top" xlink:title="alpaqa">
<polygon fill="#eef0f6" stroke="#7f7f7f" stroke-dasharray="5,2" points="8,-8 8,-125 202,-125 202,-8 8,-8"/>
<text text-anchor="middle" x="105" y="-113" font-family="Helvetica,sans-Serif" font-size="10.00">alpaqa</text>
</a>
</g>
</g>
<g id="clust2" class="cluster">
<title>clusterdir_53291e83adf0b9686938e88b09a0a7b8</title>
<g id="a_clust2"><a xlink:href="dir_53291e83adf0b9686938e88b09a0a7b8.html" target="_top">
<polygon fill="#eef0f6" stroke="#404040" stroke-width="2" points="16,-63 16,-98 194,-98 194,-63 16,-63"/>
</a>
</g>
</g>
<!-- dir_97bfdf28af1567af015ec4141c01f4bb -->
<g id="node1" class="node">
<title>dir_97bfdf28af1567af015ec4141c01f4bb</title>
<g id="a_node1"><a xlink:href="dir_97bfdf28af1567af015ec4141c01f4bb.html" target="_top" xlink:title="casadi">
<polygon fill="#a7b5d1" stroke="#404040" points="72,-35 24,-35 24,-16 72,-16 72,-35"/>
<text text-anchor="middle" x="48" y="-23" font-family="Helvetica,sans-Serif" font-size="10.00">casadi</text>
</a>
</g>
</g>
<!-- dir_53291e83adf0b9686938e88b09a0a7b8 -->
<g id="node2" class="node">
<title>dir_53291e83adf0b9686938e88b09a0a7b8</title>
<text text-anchor="middle" x="138" y="-78" font-family="Helvetica,sans-Serif" font-size="10.00">implementation</text>
</g>
<!-- dir_2c214388fde59608e677c58b4c003bb9 -->
<g id="node3" class="node">
<title>dir_2c214388fde59608e677c58b4c003bb9</title>
<g id="a_node3"><a xlink:href="dir_2c214388fde59608e677c58b4c003bb9.html" target="_top" xlink:title="casadi">
<polygon fill="#a7b5d1" stroke="#404040" points="72,-90 24,-90 24,-71 72,-71 72,-90"/>
<text text-anchor="middle" x="48" y="-78" font-family="Helvetica,sans-Serif" font-size="10.00">casadi</text>
</a>
</g>
</g>
<!-- dir_2c214388fde59608e677c58b4c003bb9&#45;&gt;dir_97bfdf28af1567af015ec4141c01f4bb -->
<g id="edge1" class="edge">
<title>dir_2c214388fde59608e677c58b4c003bb9&#45;&gt;dir_97bfdf28af1567af015ec4141c01f4bb</title>
<path fill="none" stroke="#63b8ff" d="M48,-70.75C48,-63.8 48,-53.85 48,-45.13"/>
<polygon fill="#63b8ff" stroke="#63b8ff" points="51.5,-45.09 48,-35.09 44.5,-45.09 51.5,-45.09"/>
<g id="a_edge1&#45;headlabel"><a xlink:href="dir_000014_000013.html" target="_top" xlink:title="4">
<text text-anchor="middle" x="54.34" y="-46.18" font-family="Helvetica,sans-Serif" font-size="10.00" fill="#63b8ff">4</text>
</a>
</g>
</g>
<!-- dir_c979be3b7257554f611eb08995a74094 -->
<g id="node4" class="node">
<title>dir_c979be3b7257554f611eb08995a74094</title>
<g id="a_node4"><a xlink:href="dir_c979be3b7257554f611eb08995a74094.html" target="_top" xlink:title="alpaqa">
<polygon fill="#eef0f6" stroke="red" points="260,-35 210,-35 210,-16 260,-16 260,-35"/>
<text text-anchor="middle" x="235" y="-23" font-family="Helvetica,sans-Serif" font-size="10.00">alpaqa</text>
</a>
</g>
</g>
<!-- dir_2c214388fde59608e677c58b4c003bb9&#45;&gt;dir_c979be3b7257554f611eb08995a74094 -->
<g id="edge2" class="edge">
<title>dir_2c214388fde59608e677c58b4c003bb9&#45;&gt;dir_c979be3b7257554f611eb08995a74094</title>
<path fill="none" stroke="#63b8ff" d="M63.93,-70.83C69.53,-68.04 75.93,-65.13 82,-63 132.2,-45.42 149.31,-48.69 199.87,-36.48"/>
<polygon fill="#63b8ff" stroke="#63b8ff" points="200.87,-39.84 209.72,-34.01 199.17,-33.05 200.87,-39.84"/>
<g id="a_edge2&#45;headlabel"><a xlink:href="dir_000014_000003.html" target="_top" xlink:title="6">
<text text-anchor="middle" x="198.07" y="-40.97" font-family="Helvetica,sans-Serif" font-size="10.00" fill="#63b8ff">6</text>
</a>
</g>
</g>
</g>
</svg>
