<?xml version="1.0" encoding="UTF-8" standalone="no"?>
<!DOCTYPE svg PUBLIC "-//W3C//DTD SVG 1.1//EN"
 "http://www.w3.org/Graphics/SVG/1.1/DTD/svg11.dtd">
<!-- Generated by graphviz version 2.43.0 (0)
 -->
<!-- Title: dl&#45;problem.cpp Pages: 1 -->
<svg width="1517pt" height="324pt"
 viewBox="0.00 0.00 1517.00 324.00" xmlns="http://www.w3.org/2000/svg" xmlns:xlink="http://www.w3.org/1999/xlink">
<g id="graph0" class="graph" transform="scale(1 1) rotate(0) translate(4 320)">
<title>dl&#45;problem.cpp</title>
<!-- Node1 -->
<g id="node1" class="node">
<title>Node1</title>
<g id="a_node1"><a xlink:title=" ">
<polygon fill="#999999" stroke="#666666" points="1297.5,-316 1207.5,-316 1207.5,-297 1297.5,-297 1297.5,-316"/>
<text text-anchor="middle" x="1252.5" y="-304" font-family="Helvetica,sans-Serif" font-size="10.00">dl&#45;problem.cpp</text>
</a>
</g>
</g>
<!-- Node2 -->
<g id="node2" class="node">
<title>Node2</title>
<g id="a_node2"><a xlink:href="dl-problem_8hpp.html" target="_top" xlink:title=" ">
<polygon fill="white" stroke="#666666" points="865,-261 726,-261 726,-242 865,-242 865,-261"/>
<text text-anchor="middle" x="795.5" y="-249" font-family="Helvetica,sans-Serif" font-size="10.00">alpaqa/dl/dl&#45;problem.hpp</text>
</a>
</g>
</g>
<!-- Node1&#45;&gt;Node2 -->
<g id="edge1" class="edge">
<title>Node1&#45;&gt;Node2</title>
<path fill="none" stroke="#63b8ff" d="M1207.43,-300.27C1130.22,-291.32 971.69,-272.93 875.38,-261.76"/>
<polygon fill="#63b8ff" stroke="#63b8ff" points="875.73,-258.28 865.4,-260.61 874.93,-265.23 875.73,-258.28"/>
</g>
<!-- Node24 -->
<g id="node24" class="node">
<title>Node24</title>
<g id="a_node24"><a xlink:title=" ">
<polygon fill="#e0e0e0" stroke="#999999" points="1156,-85 1091,-85 1091,-66 1156,-66 1156,-85"/>
<text text-anchor="middle" x="1123.5" y="-73" font-family="Helvetica,sans-Serif" font-size="10.00">stdexcept</text>
</a>
</g>
</g>
<!-- Node1&#45;&gt;Node24 -->
<g id="edge44" class="edge">
<title>Node1&#45;&gt;Node24</title>
<path fill="none" stroke="#63b8ff" d="M1244.82,-296.73C1237.46,-288.06 1226.35,-274.2 1218.5,-261 1197.35,-225.43 1199.25,-212.89 1180.5,-176 1165.53,-146.55 1146.01,-113.47 1134.14,-93.84"/>
<polygon fill="#63b8ff" stroke="#63b8ff" points="1137.02,-91.84 1128.83,-85.12 1131.04,-95.48 1137.02,-91.84"/>
</g>
<!-- Node29 -->
<g id="node29" class="node">
<title>Node29</title>
<g id="a_node29"><a xlink:title=" ">
<polygon fill="#e0e0e0" stroke="#999999" points="1171.5,-200.5 1113.5,-200.5 1113.5,-181.5 1171.5,-181.5 1171.5,-200.5"/>
<text text-anchor="middle" x="1142.5" y="-188.5" font-family="Helvetica,sans-Serif" font-size="10.00">memory</text>
</a>
</g>
</g>
<!-- Node1&#45;&gt;Node29 -->
<g id="edge43" class="edge">
<title>Node1&#45;&gt;Node29</title>
<path fill="none" stroke="#63b8ff" d="M1235.63,-296.97C1221.14,-289.06 1200.29,-276.22 1185.5,-261 1170.8,-245.86 1158.6,-224.87 1151,-210.03"/>
<polygon fill="#63b8ff" stroke="#63b8ff" points="1154.05,-208.31 1146.5,-200.88 1147.77,-211.4 1154.05,-208.31"/>
</g>
<!-- Node31 -->
<g id="node31" class="node">
<title>Node31</title>
<g id="a_node31"><a xlink:title=" ">
<polygon fill="#e0e0e0" stroke="#999999" points="1277.5,-261 1227.5,-261 1227.5,-242 1277.5,-242 1277.5,-261"/>
<text text-anchor="middle" x="1252.5" y="-249" font-family="Helvetica,sans-Serif" font-size="10.00">dlfcn.h</text>
</a>
</g>
</g>
<!-- Node1&#45;&gt;Node31 -->
<g id="edge39" class="edge">
<title>Node1&#45;&gt;Node31</title>
<path fill="none" stroke="#63b8ff" d="M1252.5,-296.75C1252.5,-289.8 1252.5,-279.85 1252.5,-271.13"/>
<polygon fill="#63b8ff" stroke="#63b8ff" points="1256,-271.09 1252.5,-261.09 1249,-271.09 1256,-271.09"/>
</g>
<!-- Node32 -->
<g id="node32" class="node">
<title>Node32</title>
<g id="a_node32"><a xlink:title=" ">
<polygon fill="#e0e0e0" stroke="#999999" points="1359.5,-261 1295.5,-261 1295.5,-242 1359.5,-242 1359.5,-261"/>
<text text-anchor="middle" x="1327.5" y="-249" font-family="Helvetica,sans-Serif" font-size="10.00">algorithm</text>
</a>
</g>
</g>
<!-- Node1&#45;&gt;Node32 -->
<g id="edge40" class="edge">
<title>Node1&#45;&gt;Node32</title>
<path fill="none" stroke="#63b8ff" d="M1264.55,-296.98C1275.96,-288.92 1293.33,-276.65 1306.93,-267.03"/>
<polygon fill="#63b8ff" stroke="#63b8ff" points="1309.08,-269.8 1315.23,-261.17 1305.04,-264.08 1309.08,-269.8"/>
</g>
<!-- Node33 -->
<g id="node33" class="node">
<title>Node33</title>
<g id="a_node33"><a xlink:title=" ">
<polygon fill="#e0e0e0" stroke="#999999" points="1429.5,-261 1377.5,-261 1377.5,-242 1429.5,-242 1429.5,-261"/>
<text text-anchor="middle" x="1403.5" y="-249" font-family="Helvetica,sans-Serif" font-size="10.00">cassert</text>
</a>
</g>
</g>
<!-- Node1&#45;&gt;Node33 -->
<g id="edge41" class="edge">
<title>Node1&#45;&gt;Node33</title>
<path fill="none" stroke="#63b8ff" d="M1276.76,-296.98C1301.82,-288.19 1341.13,-274.39 1369.33,-264.49"/>
<polygon fill="#63b8ff" stroke="#63b8ff" points="1370.52,-267.78 1378.8,-261.17 1368.2,-261.18 1370.52,-267.78"/>
</g>
<!-- Node34 -->
<g id="node34" class="node">
<title>Node34</title>
<g id="a_node34"><a xlink:title=" ">
<polygon fill="#e0e0e0" stroke="#999999" points="1509,-261 1448,-261 1448,-242 1509,-242 1509,-261"/>
<text text-anchor="middle" x="1478.5" y="-249" font-family="Helvetica,sans-Serif" font-size="10.00">charconv</text>
</a>
</g>
</g>
<!-- Node1&#45;&gt;Node34 -->
<g id="edge42" class="edge">
<title>Node1&#45;&gt;Node34</title>
<path fill="none" stroke="#63b8ff" d="M1288.81,-296.98C1329.5,-287.44 1395.31,-272.01 1437.74,-262.06"/>
<polygon fill="#63b8ff" stroke="#63b8ff" points="1438.79,-265.41 1447.72,-259.72 1437.19,-258.59 1438.79,-265.41"/>
</g>
<!-- Node3 -->
<g id="node3" class="node">
<title>Node3</title>
<g id="a_node3"><a xlink:href="config_8hpp.html" target="_top" xlink:title=" ">
<polygon fill="white" stroke="#666666" points="934,-85 799,-85 799,-66 934,-66 934,-85"/>
<text text-anchor="middle" x="866.5" y="-73" font-family="Helvetica,sans-Serif" font-size="10.00">alpaqa/config/config.hpp</text>
</a>
</g>
</g>
<!-- Node2&#45;&gt;Node3 -->
<g id="edge2" class="edge">
<title>Node2&#45;&gt;Node3</title>
<path fill="none" stroke="#63b8ff" d="M798.59,-241.77C801.55,-232.9 805.82,-218.69 807.5,-206 809.25,-192.78 810.56,-188.98 807.5,-176 801.59,-150.97 776.64,-143.28 789.5,-121 797.92,-106.41 813.15,-96.17 827.85,-89.23"/>
<polygon fill="#63b8ff" stroke="#63b8ff" points="829.57,-92.3 837.36,-85.13 826.79,-85.87 829.57,-92.3"/>
</g>
<!-- Node6 -->
<g id="node6" class="node">
<title>Node6</title>
<g id="a_node6"><a xlink:title=" ">
<polygon fill="#e0e0e0" stroke="#999999" points="857,-24.5 788,-24.5 788,-5.5 857,-5.5 857,-24.5"/>
<text text-anchor="middle" x="822.5" y="-12.5" font-family="Helvetica,sans-Serif" font-size="10.00">type_traits</text>
</a>
</g>
</g>
<!-- Node2&#45;&gt;Node6 -->
<g id="edge38" class="edge">
<title>Node2&#45;&gt;Node6</title>
<path fill="none" stroke="#63b8ff" d="M765.23,-241.92C747.66,-235.21 726.98,-223.94 716.5,-206 709.77,-194.49 712.65,-188.77 716.5,-176 734.35,-116.73 782.12,-59.22 806.98,-32.13"/>
<polygon fill="#63b8ff" stroke="#63b8ff" points="809.62,-34.43 813.9,-24.73 804.51,-29.64 809.62,-34.43"/>
</g>
<!-- Node8 -->
<g id="node8" class="node">
<title>Node8</title>
<g id="a_node8"><a xlink:href="dl-problem_8h.html" target="_top" xlink:title=" ">
<polygon fill="white" stroke="#666666" points="326,-200.5 199,-200.5 199,-181.5 326,-181.5 326,-200.5"/>
<text text-anchor="middle" x="262.5" y="-188.5" font-family="Helvetica,sans-Serif" font-size="10.00">alpaqa/dl/dl&#45;problem.h</text>
</a>
</g>
</g>
<!-- Node2&#45;&gt;Node8 -->
<g id="edge7" class="edge">
<title>Node2&#45;&gt;Node8</title>
<path fill="none" stroke="#63b8ff" d="M725.82,-242.85C625.05,-231.79 439.46,-211.42 336.39,-200.11"/>
<polygon fill="#63b8ff" stroke="#63b8ff" points="336.69,-196.62 326.37,-199.01 335.93,-203.58 336.69,-196.62"/>
</g>
<!-- Node15 -->
<g id="node15" class="node">
<title>Node15</title>
<g id="a_node15"><a xlink:title=" ">
<polygon fill="#e0e0e0" stroke="#999999" points="462.5,-85 418.5,-85 418.5,-66 462.5,-66 462.5,-85"/>
<text text-anchor="middle" x="440.5" y="-73" font-family="Helvetica,sans-Serif" font-size="10.00">string</text>
</a>
</g>
</g>
<!-- Node2&#45;&gt;Node15 -->
<g id="edge36" class="edge">
<title>Node2&#45;&gt;Node15</title>
<path fill="none" stroke="#63b8ff" d="M725.95,-245.99C654.76,-240.23 549.95,-228.23 516.5,-206 476.46,-179.39 454.66,-123.9 445.61,-94.96"/>
<polygon fill="#63b8ff" stroke="#63b8ff" points="448.94,-93.88 442.75,-85.29 442.23,-95.87 448.94,-93.88"/>
</g>
<!-- Node16 -->
<g id="node16" class="node">
<title>Node16</title>
<g id="a_node16"><a xlink:href="box-constr-problem_8hpp.html" target="_top" xlink:title=" ">
<polygon fill="white" stroke="#666666" points="971.5,-206 855.5,-206 855.5,-176 971.5,-176 971.5,-206"/>
<text text-anchor="start" x="863.5" y="-194" font-family="Helvetica,sans-Serif" font-size="10.00">alpaqa/problem/box</text>
<text text-anchor="middle" x="913.5" y="-183" font-family="Helvetica,sans-Serif" font-size="10.00">&#45;constr&#45;problem.hpp</text>
</a>
</g>
</g>
<!-- Node2&#45;&gt;Node16 -->
<g id="edge15" class="edge">
<title>Node2&#45;&gt;Node16</title>
<path fill="none" stroke="#63b8ff" d="M812.66,-241.99C829.14,-233.82 854.6,-221.2 875.81,-210.69"/>
<polygon fill="#63b8ff" stroke="#63b8ff" points="877.5,-213.76 884.9,-206.18 874.39,-207.48 877.5,-213.76"/>
</g>
<!-- Node2&#45;&gt;Node24 -->
<g id="edge35" class="edge">
<title>Node2&#45;&gt;Node24</title>
<path fill="none" stroke="#63b8ff" d="M865.18,-245.5C936.39,-236.46 1044.62,-211.1 1103.5,-140 1113.98,-127.34 1118.99,-109.16 1121.37,-95.49"/>
<polygon fill="#63b8ff" stroke="#63b8ff" points="1124.88,-95.68 1122.82,-85.29 1117.95,-94.7 1124.88,-95.68"/>
</g>
<!-- Node25 -->
<g id="node25" class="node">
<title>Node25</title>
<g id="a_node25"><a xlink:href="demangled-typename_8hpp.html" target="_top" xlink:title=" ">
<polygon fill="white" stroke="#666666" points="651.5,-206 525.5,-206 525.5,-176 651.5,-176 651.5,-206"/>
<text text-anchor="start" x="533.5" y="-194" font-family="Helvetica,sans-Serif" font-size="10.00">alpaqa/util/demangled</text>
<text text-anchor="middle" x="588.5" y="-183" font-family="Helvetica,sans-Serif" font-size="10.00">&#45;typename.hpp</text>
</a>
</g>
</g>
<!-- Node2&#45;&gt;Node25 -->
<g id="edge29" class="edge">
<title>Node2&#45;&gt;Node25</title>
<path fill="none" stroke="#63b8ff" d="M765.4,-241.99C734.83,-233.35 686.66,-219.74 648.3,-208.9"/>
<polygon fill="#63b8ff" stroke="#63b8ff" points="648.84,-205.42 638.27,-206.06 646.94,-212.15 648.84,-205.42"/>
</g>
<!-- Node2&#45;&gt;Node29 -->
<g id="edge34" class="edge">
<title>Node2&#45;&gt;Node29</title>
<path fill="none" stroke="#63b8ff" d="M865.25,-243.69C927.28,-236.83 1020.17,-224.58 1099.5,-206 1102.54,-205.29 1105.67,-204.46 1108.79,-203.57"/>
<polygon fill="#63b8ff" stroke="#63b8ff" points="1110.05,-206.84 1118.6,-200.58 1108.01,-200.15 1110.05,-206.84"/>
</g>
<!-- Node30 -->
<g id="node30" class="node">
<title>Node30</title>
<g id="a_node30"><a xlink:title=" ">
<polygon fill="#e0e0e0" stroke="#999999" points="799,-200.5 726,-200.5 726,-181.5 799,-181.5 799,-200.5"/>
<text text-anchor="middle" x="762.5" y="-188.5" font-family="Helvetica,sans-Serif" font-size="10.00">string_view</text>
</a>
</g>
</g>
<!-- Node2&#45;&gt;Node30 -->
<g id="edge37" class="edge">
<title>Node2&#45;&gt;Node30</title>
<path fill="none" stroke="#63b8ff" d="M790.63,-241.87C785.85,-233.4 778.43,-220.24 772.41,-209.57"/>
<polygon fill="#63b8ff" stroke="#63b8ff" points="775.35,-207.66 767.39,-200.67 769.25,-211.1 775.35,-207.66"/>
</g>
<!-- Node4 -->
<g id="node4" class="node">
<title>Node4</title>
<g id="a_node4"><a xlink:href="quadmath_8hpp.html" target="_top" xlink:title=" ">
<polygon fill="white" stroke="#666666" points="770,-30 649,-30 649,0 770,0 770,-30"/>
<text text-anchor="start" x="657" y="-18" font-family="Helvetica,sans-Serif" font-size="10.00">alpaqa/util/quadmath</text>
<text text-anchor="middle" x="709.5" y="-7" font-family="Helvetica,sans-Serif" font-size="10.00">/quadmath.hpp</text>
</a>
</g>
</g>
<!-- Node3&#45;&gt;Node4 -->
<g id="edge3" class="edge">
<title>Node3&#45;&gt;Node4</title>
<path fill="none" stroke="#63b8ff" d="M843.67,-65.99C820.98,-57.54 785.5,-44.32 756.72,-33.59"/>
<polygon fill="#63b8ff" stroke="#63b8ff" points="757.84,-30.28 747.25,-30.06 755.39,-36.84 757.84,-30.28"/>
</g>
<!-- Node5 -->
<g id="node5" class="node">
<title>Node5</title>
<g id="a_node5"><a xlink:title=" ">
<polygon fill="#e0e0e0" stroke="#999999" points="1006.5,-24.5 962.5,-24.5 962.5,-5.5 1006.5,-5.5 1006.5,-24.5"/>
<text text-anchor="middle" x="984.5" y="-12.5" font-family="Helvetica,sans-Serif" font-size="10.00">limits</text>
</a>
</g>
</g>
<!-- Node3&#45;&gt;Node5 -->
<g id="edge4" class="edge">
<title>Node3&#45;&gt;Node5</title>
<path fill="none" stroke="#63b8ff" d="M883.66,-65.99C903.23,-56.29 935.47,-40.31 958.22,-29.03"/>
<polygon fill="#63b8ff" stroke="#63b8ff" points="959.92,-32.09 967.32,-24.52 956.81,-25.82 959.92,-32.09"/>
</g>
<!-- Node3&#45;&gt;Node6 -->
<g id="edge5" class="edge">
<title>Node3&#45;&gt;Node6</title>
<path fill="none" stroke="#63b8ff" d="M860.01,-65.87C853.51,-57.23 843.34,-43.7 835.22,-32.92"/>
<polygon fill="#63b8ff" stroke="#63b8ff" points="837.83,-30.56 829.02,-24.67 832.23,-34.76 837.83,-30.56"/>
</g>
<!-- Node7 -->
<g id="node7" class="node">
<title>Node7</title>
<g id="a_node7"><a xlink:title=" ">
<polygon fill="#e0e0e0" stroke="#999999" points="944,-24.5 875,-24.5 875,-5.5 944,-5.5 944,-24.5"/>
<text text-anchor="middle" x="909.5" y="-12.5" font-family="Helvetica,sans-Serif" font-size="10.00">Eigen/Core</text>
</a>
</g>
</g>
<!-- Node3&#45;&gt;Node7 -->
<g id="edge6" class="edge">
<title>Node3&#45;&gt;Node7</title>
<path fill="none" stroke="#63b8ff" d="M872.84,-65.87C879.2,-57.23 889.14,-43.7 897.07,-32.92"/>
<polygon fill="#63b8ff" stroke="#63b8ff" points="900.03,-34.8 903.13,-24.67 894.39,-30.65 900.03,-34.8"/>
</g>
<!-- Node9 -->
<g id="node9" class="node">
<title>Node9</title>
<g id="a_node9"><a xlink:title=" ">
<polygon fill="#e0e0e0" stroke="#999999" points="390.5,-140 334.5,-140 334.5,-121 390.5,-121 390.5,-140"/>
<text text-anchor="middle" x="362.5" y="-128" font-family="Helvetica,sans-Serif" font-size="10.00">stddef.h</text>
</a>
</g>
</g>
<!-- Node8&#45;&gt;Node9 -->
<g id="edge8" class="edge">
<title>Node8&#45;&gt;Node9</title>
<path fill="none" stroke="#63b8ff" d="M277.26,-181.37C293.5,-171.86 319.85,-156.45 338.96,-145.27"/>
<polygon fill="#63b8ff" stroke="#63b8ff" points="340.82,-148.24 347.68,-140.17 337.29,-142.2 340.82,-148.24"/>
</g>
<!-- Node10 -->
<g id="node10" class="node">
<title>Node10</title>
<g id="a_node10"><a xlink:title=" ">
<polygon fill="#e0e0e0" stroke="#999999" points="53,-140 0,-140 0,-121 53,-121 53,-140"/>
<text text-anchor="middle" x="26.5" y="-128" font-family="Helvetica,sans-Serif" font-size="10.00">stdint.h</text>
</a>
</g>
</g>
<!-- Node8&#45;&gt;Node10 -->
<g id="edge9" class="edge">
<title>Node8&#45;&gt;Node10</title>
<path fill="none" stroke="#63b8ff" d="M228.18,-181.49C184.18,-170.59 108.2,-151.75 63.11,-140.58"/>
<polygon fill="#63b8ff" stroke="#63b8ff" points="63.72,-137.12 53.17,-138.11 62.04,-143.91 63.72,-137.12"/>
</g>
<!-- Node11 -->
<g id="node11" class="node">
<title>Node11</title>
<g id="a_node11"><a xlink:title=" ">
<polygon fill="#e0e0e0" stroke="#999999" points="124,-140 71,-140 71,-121 124,-121 124,-140"/>
<text text-anchor="middle" x="97.5" y="-128" font-family="Helvetica,sans-Serif" font-size="10.00">string.h</text>
</a>
</g>
</g>
<!-- Node8&#45;&gt;Node11 -->
<g id="edge10" class="edge">
<title>Node8&#45;&gt;Node11</title>
<path fill="none" stroke="#63b8ff" d="M238.51,-181.49C210.28,-171.49 163.22,-154.8 131.31,-143.49"/>
<polygon fill="#63b8ff" stroke="#63b8ff" points="132.12,-140.06 121.52,-140.02 129.78,-146.66 132.12,-140.06"/>
</g>
<!-- Node12 -->
<g id="node12" class="node">
<title>Node12</title>
<g id="a_node12"><a xlink:title=" ">
<polygon fill="#e0e0e0" stroke="#999999" points="177,-140 142,-140 142,-121 177,-121 177,-140"/>
<text text-anchor="middle" x="159.5" y="-128" font-family="Helvetica,sans-Serif" font-size="10.00">any</text>
</a>
</g>
</g>
<!-- Node8&#45;&gt;Node12 -->
<g id="edge11" class="edge">
<title>Node8&#45;&gt;Node12</title>
<path fill="none" stroke="#63b8ff" d="M247.3,-181.37C230.49,-171.82 203.18,-156.31 183.48,-145.12"/>
<polygon fill="#63b8ff" stroke="#63b8ff" points="185.18,-142.06 174.76,-140.17 181.73,-148.15 185.18,-142.06"/>
</g>
<!-- Node13 -->
<g id="node13" class="node">
<title>Node13</title>
<g id="a_node13"><a xlink:title=" ">
<polygon fill="#e0e0e0" stroke="#999999" points="260,-140 195,-140 195,-121 260,-121 260,-140"/>
<text text-anchor="middle" x="227.5" y="-128" font-family="Helvetica,sans-Serif" font-size="10.00">functional</text>
</a>
</g>
</g>
<!-- Node8&#45;&gt;Node13 -->
<g id="edge12" class="edge">
<title>Node8&#45;&gt;Node13</title>
<path fill="none" stroke="#63b8ff" d="M257.34,-181.37C252.27,-172.9 244.4,-159.74 238.01,-149.07"/>
<polygon fill="#63b8ff" stroke="#63b8ff" points="240.82,-146.95 232.69,-140.17 234.82,-150.55 240.82,-146.95"/>
</g>
<!-- Node14 -->
<g id="node14" class="node">
<title>Node14</title>
<g id="a_node14"><a xlink:title=" ">
<polygon fill="#e0e0e0" stroke="#999999" points="316.5,-140 278.5,-140 278.5,-121 316.5,-121 316.5,-140"/>
<text text-anchor="middle" x="297.5" y="-128" font-family="Helvetica,sans-Serif" font-size="10.00">map</text>
</a>
</g>
</g>
<!-- Node8&#45;&gt;Node14 -->
<g id="edge13" class="edge">
<title>Node8&#45;&gt;Node14</title>
<path fill="none" stroke="#63b8ff" d="M267.66,-181.37C272.73,-172.9 280.6,-159.74 286.99,-149.07"/>
<polygon fill="#63b8ff" stroke="#63b8ff" points="290.18,-150.55 292.31,-140.17 284.18,-146.95 290.18,-150.55"/>
</g>
<!-- Node8&#45;&gt;Node15 -->
<g id="edge14" class="edge">
<title>Node8&#45;&gt;Node15</title>
<path fill="none" stroke="#63b8ff" d="M307.16,-181.42C335.88,-174.16 372.69,-161.4 399.5,-140 414.68,-127.88 426.02,-108.54 432.88,-94.38"/>
<polygon fill="#63b8ff" stroke="#63b8ff" points="436.11,-95.72 437.07,-85.17 429.74,-92.82 436.11,-95.72"/>
</g>
<!-- Node17 -->
<g id="node17" class="node">
<title>Node17</title>
<g id="a_node17"><a xlink:href="box_8hpp.html" target="_top" xlink:title=" ">
<polygon fill="white" stroke="#666666" points="934,-140 799,-140 799,-121 934,-121 934,-140"/>
<text text-anchor="middle" x="866.5" y="-128" font-family="Helvetica,sans-Serif" font-size="10.00">alpaqa/problem/box.hpp</text>
</a>
</g>
</g>
<!-- Node16&#45;&gt;Node17 -->
<g id="edge16" class="edge">
<title>Node16&#45;&gt;Node17</title>
<path fill="none" stroke="#63b8ff" d="M902.12,-175.84C895.44,-167.52 886.95,-156.96 879.94,-148.23"/>
<polygon fill="#63b8ff" stroke="#63b8ff" points="882.53,-145.87 873.54,-140.27 877.08,-150.25 882.53,-145.87"/>
</g>
<!-- Node22 -->
<g id="node22" class="node">
<title>Node22</title>
<g id="a_node22"><a xlink:href="check-dim_8hpp.html" target="_top" xlink:title=" ">
<polygon fill="white" stroke="#666666" points="1095,-140 952,-140 952,-121 1095,-121 1095,-140"/>
<text text-anchor="middle" x="1023.5" y="-128" font-family="Helvetica,sans-Serif" font-size="10.00">alpaqa/util/check&#45;dim.hpp</text>
</a>
</g>
</g>
<!-- Node16&#45;&gt;Node22 -->
<g id="edge24" class="edge">
<title>Node16&#45;&gt;Node22</title>
<path fill="none" stroke="#63b8ff" d="M939.85,-175.99C957.55,-166.58 980.73,-154.24 998.21,-144.95"/>
<polygon fill="#63b8ff" stroke="#63b8ff" points="1000.07,-147.92 1007.26,-140.14 996.78,-141.74 1000.07,-147.92"/>
</g>
<!-- Node17&#45;&gt;Node3 -->
<g id="edge17" class="edge">
<title>Node17&#45;&gt;Node3</title>
<path fill="none" stroke="#63b8ff" d="M866.5,-120.75C866.5,-113.8 866.5,-103.85 866.5,-95.13"/>
<polygon fill="#63b8ff" stroke="#63b8ff" points="870,-95.09 866.5,-85.09 863,-95.09 870,-95.09"/>
</g>
<!-- Node18 -->
<g id="node18" class="node">
<title>Node18</title>
<g id="a_node18"><a xlink:href="float_8hpp.html" target="_top" xlink:title=" ">
<polygon fill="white" stroke="#666666" points="706.5,-85 592.5,-85 592.5,-66 706.5,-66 706.5,-85"/>
<text text-anchor="middle" x="649.5" y="-73" font-family="Helvetica,sans-Serif" font-size="10.00">alpaqa/util/float.hpp</text>
</a>
</g>
</g>
<!-- Node17&#45;&gt;Node18 -->
<g id="edge18" class="edge">
<title>Node17&#45;&gt;Node18</title>
<path fill="none" stroke="#63b8ff" d="M831.64,-120.98C794.41,-111.89 735.3,-97.46 694.57,-87.51"/>
<polygon fill="#63b8ff" stroke="#63b8ff" points="695.18,-84.05 684.64,-85.08 693.52,-90.85 695.18,-84.05"/>
</g>
<!-- Node18&#45;&gt;Node4 -->
<g id="edge19" class="edge">
<title>Node18&#45;&gt;Node4</title>
<path fill="none" stroke="#63b8ff" d="M658.35,-65.87C666.04,-58.37 677.5,-47.2 687.63,-37.33"/>
<polygon fill="#63b8ff" stroke="#63b8ff" points="690.31,-39.6 695.02,-30.11 685.42,-34.59 690.31,-39.6"/>
</g>
<!-- Node18&#45;&gt;Node6 -->
<g id="edge23" class="edge">
<title>Node18&#45;&gt;Node6</title>
<path fill="none" stroke="#63b8ff" d="M674.66,-65.99C704.38,-55.94 754.02,-39.16 787.49,-27.84"/>
<polygon fill="#63b8ff" stroke="#63b8ff" points="788.96,-31.04 797.31,-24.52 786.72,-24.4 788.96,-31.04"/>
</g>
<!-- Node19 -->
<g id="node19" class="node">
<title>Node19</title>
<g id="a_node19"><a xlink:title=" ">
<polygon fill="#e0e0e0" stroke="#999999" points="631,-24.5 584,-24.5 584,-5.5 631,-5.5 631,-24.5"/>
<text text-anchor="middle" x="607.5" y="-12.5" font-family="Helvetica,sans-Serif" font-size="10.00">cmath</text>
</a>
</g>
</g>
<!-- Node18&#45;&gt;Node19 -->
<g id="edge20" class="edge">
<title>Node18&#45;&gt;Node19</title>
<path fill="none" stroke="#63b8ff" d="M643.3,-65.87C637.1,-57.23 627.39,-43.7 619.64,-32.92"/>
<polygon fill="#63b8ff" stroke="#63b8ff" points="622.4,-30.75 613.72,-24.67 616.71,-34.83 622.4,-30.75"/>
</g>
<!-- Node20 -->
<g id="node20" class="node">
<title>Node20</title>
<g id="a_node20"><a xlink:title=" ">
<polygon fill="#e0e0e0" stroke="#999999" points="487,-24.5 428,-24.5 428,-5.5 487,-5.5 487,-24.5"/>
<text text-anchor="middle" x="457.5" y="-12.5" font-family="Helvetica,sans-Serif" font-size="10.00">complex</text>
</a>
</g>
</g>
<!-- Node18&#45;&gt;Node20 -->
<g id="edge21" class="edge">
<title>Node18&#45;&gt;Node20</title>
<path fill="none" stroke="#63b8ff" d="M617.97,-65.94C586.92,-57.37 538.2,-43.54 496.5,-30 494.39,-29.31 492.22,-28.59 490.03,-27.85"/>
<polygon fill="#63b8ff" stroke="#63b8ff" points="491.11,-24.52 480.52,-24.53 488.81,-31.13 491.11,-24.52"/>
</g>
<!-- Node21 -->
<g id="node21" class="node">
<title>Node21</title>
<g id="a_node21"><a xlink:title=" ">
<polygon fill="#e0e0e0" stroke="#999999" points="565.5,-24.5 505.5,-24.5 505.5,-5.5 565.5,-5.5 565.5,-24.5"/>
<text text-anchor="middle" x="535.5" y="-12.5" font-family="Helvetica,sans-Serif" font-size="10.00">concepts</text>
</a>
</g>
</g>
<!-- Node18&#45;&gt;Node21 -->
<g id="edge22" class="edge">
<title>Node18&#45;&gt;Node21</title>
<path fill="none" stroke="#63b8ff" d="M632.68,-65.87C613.9,-56.23 583.3,-40.53 561.45,-29.31"/>
<polygon fill="#63b8ff" stroke="#63b8ff" points="562.89,-26.12 552.39,-24.67 559.69,-32.35 562.89,-26.12"/>
</g>
<!-- Node22&#45;&gt;Node3 -->
<g id="edge25" class="edge">
<title>Node22&#45;&gt;Node3</title>
<path fill="none" stroke="#63b8ff" d="M998.28,-120.98C972.14,-112.16 931.1,-98.31 901.77,-88.41"/>
<polygon fill="#63b8ff" stroke="#63b8ff" points="902.52,-84.96 891.92,-85.08 900.28,-91.6 902.52,-84.96"/>
</g>
<!-- Node22&#45;&gt;Node15 -->
<g id="edge28" class="edge">
<title>Node22&#45;&gt;Node15</title>
<path fill="none" stroke="#63b8ff" d="M951.96,-121.88C948.76,-121.58 945.6,-121.28 942.5,-121 736.68,-102.34 680.11,-120.34 472.73,-84.87"/>
<polygon fill="#63b8ff" stroke="#63b8ff" points="473.19,-81.4 462.74,-83.14 471.99,-88.3 473.19,-81.4"/>
</g>
<!-- Node23 -->
<g id="node23" class="node">
<title>Node23</title>
<g id="a_node23"><a xlink:title=" ">
<polygon fill="#e0e0e0" stroke="#999999" points="1051.5,-85 995.5,-85 995.5,-66 1051.5,-66 1051.5,-85"/>
<text text-anchor="middle" x="1023.5" y="-73" font-family="Helvetica,sans-Serif" font-size="10.00">optional</text>
</a>
</g>
</g>
<!-- Node22&#45;&gt;Node23 -->
<g id="edge26" class="edge">
<title>Node22&#45;&gt;Node23</title>
<path fill="none" stroke="#63b8ff" d="M1023.5,-120.75C1023.5,-113.8 1023.5,-103.85 1023.5,-95.13"/>
<polygon fill="#63b8ff" stroke="#63b8ff" points="1027,-95.09 1023.5,-85.09 1020,-95.09 1027,-95.09"/>
</g>
<!-- Node22&#45;&gt;Node24 -->
<g id="edge27" class="edge">
<title>Node22&#45;&gt;Node24</title>
<path fill="none" stroke="#63b8ff" d="M1039.57,-120.98C1055.36,-112.61 1079.72,-99.7 1098.13,-89.95"/>
<polygon fill="#63b8ff" stroke="#63b8ff" points="1099.94,-92.95 1107.14,-85.17 1096.67,-86.76 1099.94,-92.95"/>
</g>
<!-- Node25&#45;&gt;Node15 -->
<g id="edge32" class="edge">
<title>Node25&#45;&gt;Node15</title>
<path fill="none" stroke="#63b8ff" d="M584.01,-176C578.42,-160.61 567.48,-136.07 550.5,-121 538.49,-110.34 500.33,-96.17 472.32,-86.71"/>
<polygon fill="#63b8ff" stroke="#63b8ff" points="473.11,-83.29 462.52,-83.45 470.9,-89.93 473.11,-83.29"/>
</g>
<!-- Node26 -->
<g id="node26" class="node">
<title>Node26</title>
<g id="a_node26"><a xlink:href="export_8hpp.html" target="_top" xlink:title=" ">
<polygon fill="white" stroke="#666666" points="704,-140 599,-140 599,-121 704,-121 704,-140"/>
<text text-anchor="middle" x="651.5" y="-128" font-family="Helvetica,sans-Serif" font-size="10.00">alpaqa/export.hpp</text>
</a>
</g>
</g>
<!-- Node25&#45;&gt;Node26 -->
<g id="edge30" class="edge">
<title>Node25&#45;&gt;Node26</title>
<path fill="none" stroke="#63b8ff" d="M603.75,-175.84C613.08,-167.17 625.03,-156.08 634.65,-147.15"/>
<polygon fill="#63b8ff" stroke="#63b8ff" points="637.11,-149.64 642.06,-140.27 632.35,-144.51 637.11,-149.64"/>
</g>
<!-- Node28 -->
<g id="node28" class="node">
<title>Node28</title>
<g id="a_node28"><a xlink:title=" ">
<polygon fill="#e0e0e0" stroke="#999999" points="542,-140 485,-140 485,-121 542,-121 542,-140"/>
<text text-anchor="middle" x="513.5" y="-128" font-family="Helvetica,sans-Serif" font-size="10.00">typeinfo</text>
</a>
</g>
</g>
<!-- Node25&#45;&gt;Node28 -->
<g id="edge33" class="edge">
<title>Node25&#45;&gt;Node28</title>
<path fill="none" stroke="#63b8ff" d="M570.34,-175.84C559.01,-167 544.44,-155.63 532.88,-146.62"/>
<polygon fill="#63b8ff" stroke="#63b8ff" points="534.78,-143.66 524.74,-140.27 530.47,-149.18 534.78,-143.66"/>
</g>
<!-- Node27 -->
<g id="node27" class="node">
<title>Node27</title>
<g id="a_node27"><a xlink:title=" ">
<polygon fill="#e0e0e0" stroke="#999999" points="574,-85 481,-85 481,-66 574,-66 574,-85"/>
<text text-anchor="middle" x="527.5" y="-73" font-family="Helvetica,sans-Serif" font-size="10.00">alpaqa/export.h</text>
</a>
</g>
</g>
<!-- Node26&#45;&gt;Node27 -->
<g id="edge31" class="edge">
<title>Node26&#45;&gt;Node27</title>
<path fill="none" stroke="#63b8ff" d="M631.58,-120.98C611.45,-112.38 580.12,-98.99 557.09,-89.15"/>
<polygon fill="#63b8ff" stroke="#63b8ff" points="558.36,-85.88 547.79,-85.17 555.6,-92.32 558.36,-85.88"/>
</g>
</g>
</svg>
