<?xml version="1.0" encoding="UTF-8" standalone="no"?>
<!DOCTYPE svg PUBLIC "-//W3C//DTD SVG 1.1//EN"
 "http://www.w3.org/Graphics/SVG/1.1/DTD/svg11.dtd">
<!-- Generated by graphviz version 2.43.0 (0)
 -->
<!-- Title: lbfgs.hpp Pages: 1 -->
<svg width="1921pt" height="478pt"
 viewBox="0.00 0.00 1920.50 478.00" xmlns="http://www.w3.org/2000/svg" xmlns:xlink="http://www.w3.org/1999/xlink">
<g id="graph0" class="graph" transform="scale(1 1) rotate(0) translate(4 474)">
<title>lbfgs.hpp</title>
<!-- Node1 -->
<g id="node1" class="node">
<title>Node1</title>
<g id="a_node1"><a xlink:title=" ">
<polygon fill="#999999" stroke="#666666" points="495,-470 433,-470 433,-451 495,-451 495,-470"/>
<text text-anchor="middle" x="464" y="-458" font-family="Helvetica,sans-Serif" font-size="10.00">lbfgs.hpp</text>
</a>
</g>
</g>
<!-- Node2 -->
<g id="node2" class="node">
<title>Node2</title>
<g id="a_node2"><a xlink:href="accelerators_2lbfgs_8hpp.html" target="_top" xlink:title=" ">
<polygon fill="white" stroke="#666666" points="270.5,-217 157.5,-217 157.5,-187 270.5,-187 270.5,-217"/>
<text text-anchor="start" x="165.5" y="-205" font-family="Helvetica,sans-Serif" font-size="10.00">alpaqa/accelerators</text>
<text text-anchor="middle" x="214" y="-194" font-family="Helvetica,sans-Serif" font-size="10.00">/lbfgs.hpp</text>
</a>
</g>
</g>
<!-- Node1&#45;&gt;Node2 -->
<g id="edge1" class="edge">
<title>Node1&#45;&gt;Node2</title>
<path fill="none" stroke="#63b8ff" d="M441.2,-450.93C422.87,-443.32 397.11,-430.93 378,-415 309.55,-357.93 251.73,-267.6 226.95,-225.72"/>
<polygon fill="#63b8ff" stroke="#63b8ff" points="229.97,-223.95 221.9,-217.08 223.92,-227.48 229.97,-223.95"/>
</g>
<!-- Node14 -->
<g id="node14" class="node">
<title>Node14</title>
<g id="a_node14"><a xlink:href="panoc-direction-update_8hpp.html" target="_top" xlink:title=" ">
<polygon fill="white" stroke="#666666" points="541,-415 387,-415 387,-385 541,-385 541,-415"/>
<text text-anchor="start" x="395" y="-403" font-family="Helvetica,sans-Serif" font-size="10.00">alpaqa/inner/directions</text>
<text text-anchor="middle" x="464" y="-392" font-family="Helvetica,sans-Serif" font-size="10.00">/panoc&#45;direction&#45;update.hpp</text>
</a>
</g>
</g>
<!-- Node1&#45;&gt;Node14 -->
<g id="edge14" class="edge">
<title>Node1&#45;&gt;Node14</title>
<path fill="none" stroke="#63b8ff" d="M464,-450.87C464,-444.11 464,-434.35 464,-425.26"/>
<polygon fill="#63b8ff" stroke="#63b8ff" points="467.5,-425.11 464,-415.11 460.5,-425.11 467.5,-425.11"/>
</g>
<!-- Node15 -->
<g id="node15" class="node">
<title>Node15</title>
<g id="a_node15"><a xlink:href="type-erased-problem_8hpp.html" target="_top" xlink:title=" ">
<polygon fill="white" stroke="#666666" points="787.5,-349 668.5,-349 668.5,-319 787.5,-319 787.5,-349"/>
<text text-anchor="start" x="676.5" y="-337" font-family="Helvetica,sans-Serif" font-size="10.00">alpaqa/problem/type</text>
<text text-anchor="middle" x="728" y="-326" font-family="Helvetica,sans-Serif" font-size="10.00">&#45;erased&#45;problem.hpp</text>
</a>
</g>
</g>
<!-- Node1&#45;&gt;Node15 -->
<g id="edge65" class="edge">
<title>Node1&#45;&gt;Node15</title>
<path fill="none" stroke="#63b8ff" d="M482.15,-450.94C524.52,-430.96 630.78,-380.85 688.76,-353.51"/>
<polygon fill="#63b8ff" stroke="#63b8ff" points="690.42,-356.59 697.97,-349.16 687.44,-350.26 690.42,-356.59"/>
</g>
<!-- Node3 -->
<g id="node3" class="node">
<title>Node3</title>
<g id="a_node3"><a xlink:href="config_8hpp.html" target="_top" xlink:title=" ">
<polygon fill="white" stroke="#666666" points="415.5,-145.5 280.5,-145.5 280.5,-126.5 415.5,-126.5 415.5,-145.5"/>
<text text-anchor="middle" x="348" y="-133.5" font-family="Helvetica,sans-Serif" font-size="10.00">alpaqa/config/config.hpp</text>
</a>
</g>
</g>
<!-- Node2&#45;&gt;Node3 -->
<g id="edge2" class="edge">
<title>Node2&#45;&gt;Node3</title>
<path fill="none" stroke="#63b8ff" d="M243.41,-186.95C266.49,-175.93 298.38,-160.7 320.86,-149.96"/>
<polygon fill="#63b8ff" stroke="#63b8ff" points="322.65,-152.99 330.17,-145.52 319.63,-146.67 322.65,-152.99"/>
</g>
<!-- Node5 -->
<g id="node5" class="node">
<title>Node5</title>
<g id="a_node5"><a xlink:title=" ">
<polygon fill="#e0e0e0" stroke="#999999" points="171,-79.5 127,-79.5 127,-60.5 171,-60.5 171,-79.5"/>
<text text-anchor="middle" x="149" y="-67.5" font-family="Helvetica,sans-Serif" font-size="10.00">limits</text>
</a>
</g>
</g>
<!-- Node2&#45;&gt;Node5 -->
<g id="edge10" class="edge">
<title>Node2&#45;&gt;Node5</title>
<path fill="none" stroke="#63b8ff" d="M206.92,-186.84C195.01,-163.02 170.99,-114.99 157.94,-88.88"/>
<polygon fill="#63b8ff" stroke="#63b8ff" points="160.98,-87.13 153.37,-79.75 154.72,-90.26 160.98,-87.13"/>
</g>
<!-- Node8 -->
<g id="node8" class="node">
<title>Node8</title>
<g id="a_node8"><a xlink:href="export_8hpp.html" target="_top" xlink:title=" ">
<polygon fill="white" stroke="#666666" points="926.5,-79.5 821.5,-79.5 821.5,-60.5 926.5,-60.5 926.5,-79.5"/>
<text text-anchor="middle" x="874" y="-67.5" font-family="Helvetica,sans-Serif" font-size="10.00">alpaqa/export.hpp</text>
</a>
</g>
</g>
<!-- Node2&#45;&gt;Node8 -->
<g id="edge7" class="edge">
<title>Node2&#45;&gt;Node8</title>
<path fill="none" stroke="#63b8ff" d="M219.75,-186.79C228.15,-168.08 245.7,-135.82 272,-121 295.23,-107.91 661.47,-84.06 811.07,-74.81"/>
<polygon fill="#63b8ff" stroke="#63b8ff" points="811.7,-78.28 821.46,-74.17 811.27,-71.29 811.7,-78.28"/>
</g>
<!-- Node10 -->
<g id="node10" class="node">
<title>Node10</title>
<g id="a_node10"><a xlink:title=" ">
<polygon fill="#e0e0e0" stroke="#999999" points="258.5,-79.5 211.5,-79.5 211.5,-60.5 258.5,-60.5 258.5,-79.5"/>
<text text-anchor="middle" x="235" y="-67.5" font-family="Helvetica,sans-Serif" font-size="10.00">cmath</text>
</a>
</g>
</g>
<!-- Node2&#45;&gt;Node10 -->
<g id="edge9" class="edge">
<title>Node2&#45;&gt;Node10</title>
<path fill="none" stroke="#63b8ff" d="M207.53,-186.86C201.04,-170.66 192.92,-143.46 200,-121 203.91,-108.59 212.12,-96.59 219.61,-87.45"/>
<polygon fill="#63b8ff" stroke="#63b8ff" points="222.47,-89.49 226.4,-79.65 217.19,-84.9 222.47,-89.49"/>
</g>
<!-- Node11 -->
<g id="node11" class="node">
<title>Node11</title>
<g id="a_node11"><a xlink:title=" ">
<polygon fill="#e0e0e0" stroke="#999999" points="598,-79.5 554,-79.5 554,-60.5 598,-60.5 598,-79.5"/>
<text text-anchor="middle" x="576" y="-67.5" font-family="Helvetica,sans-Serif" font-size="10.00">string</text>
</a>
</g>
</g>
<!-- Node2&#45;&gt;Node11 -->
<g id="edge11" class="edge">
<title>Node2&#45;&gt;Node11</title>
<path fill="none" stroke="#63b8ff" d="M213.86,-186.96C214.51,-168.74 218.61,-137.37 238,-121 287.96,-78.83 466.04,-98.57 530,-85 534.53,-84.04 539.26,-82.84 543.89,-81.54"/>
<polygon fill="#63b8ff" stroke="#63b8ff" points="545.15,-84.82 553.74,-78.62 543.16,-78.11 545.15,-84.82"/>
</g>
<!-- Node12 -->
<g id="node12" class="node">
<title>Node12</title>
<g id="a_node12"><a xlink:title=" ">
<polygon fill="#e0e0e0" stroke="#999999" points="723.5,-145.5 678.5,-145.5 678.5,-126.5 723.5,-126.5 723.5,-145.5"/>
<text text-anchor="middle" x="701" y="-133.5" font-family="Helvetica,sans-Serif" font-size="10.00">utility</text>
</a>
</g>
</g>
<!-- Node2&#45;&gt;Node12 -->
<g id="edge12" class="edge">
<title>Node2&#45;&gt;Node12</title>
<path fill="none" stroke="#63b8ff" d="M270.56,-195.24C388.21,-183.21 650,-156.07 669,-151 670.89,-150.5 672.81,-149.9 674.73,-149.23"/>
<polygon fill="#63b8ff" stroke="#63b8ff" points="676.06,-152.47 684.07,-145.54 673.49,-145.96 676.06,-152.47"/>
</g>
<!-- Node13 -->
<g id="node13" class="node">
<title>Node13</title>
<g id="a_node13"><a xlink:title=" ">
<polygon fill="#e0e0e0" stroke="#999999" points="109.5,-145.5 62.5,-145.5 62.5,-126.5 109.5,-126.5 109.5,-145.5"/>
<text text-anchor="middle" x="86" y="-133.5" font-family="Helvetica,sans-Serif" font-size="10.00">vector</text>
</a>
</g>
</g>
<!-- Node2&#45;&gt;Node13 -->
<g id="edge13" class="edge">
<title>Node2&#45;&gt;Node13</title>
<path fill="none" stroke="#63b8ff" d="M185.91,-186.95C163.96,-175.98 133.67,-160.83 112.21,-150.11"/>
<polygon fill="#63b8ff" stroke="#63b8ff" points="113.54,-146.86 103.03,-145.52 110.41,-153.12 113.54,-146.86"/>
</g>
<!-- Node4 -->
<g id="node4" class="node">
<title>Node4</title>
<g id="a_node4"><a xlink:href="quadmath_8hpp.html" target="_top" xlink:title=" ">
<polygon fill="white" stroke="#666666" points="425.5,-85 304.5,-85 304.5,-55 425.5,-55 425.5,-85"/>
<text text-anchor="start" x="312.5" y="-73" font-family="Helvetica,sans-Serif" font-size="10.00">alpaqa/util/quadmath</text>
<text text-anchor="middle" x="365" y="-62" font-family="Helvetica,sans-Serif" font-size="10.00">/quadmath.hpp</text>
</a>
</g>
</g>
<!-- Node3&#45;&gt;Node4 -->
<g id="edge3" class="edge">
<title>Node3&#45;&gt;Node4</title>
<path fill="none" stroke="#63b8ff" d="M350.29,-126.37C352.41,-118.4 355.65,-106.2 358.55,-95.27"/>
<polygon fill="#63b8ff" stroke="#63b8ff" points="362,-95.92 361.19,-85.36 355.24,-94.13 362,-95.92"/>
</g>
<!-- Node3&#45;&gt;Node5 -->
<g id="edge4" class="edge">
<title>Node3&#45;&gt;Node5</title>
<path fill="none" stroke="#63b8ff" d="M321.16,-126.37C284.74,-114.65 219.75,-93.75 180.89,-81.25"/>
<polygon fill="#63b8ff" stroke="#63b8ff" points="181.72,-77.85 171.13,-78.12 179.58,-84.51 181.72,-77.85"/>
</g>
<!-- Node6 -->
<g id="node6" class="node">
<title>Node6</title>
<g id="a_node6"><a xlink:title=" ">
<polygon fill="#e0e0e0" stroke="#999999" points="1445.5,-79.5 1376.5,-79.5 1376.5,-60.5 1445.5,-60.5 1445.5,-79.5"/>
<text text-anchor="middle" x="1411" y="-67.5" font-family="Helvetica,sans-Serif" font-size="10.00">type_traits</text>
</a>
</g>
</g>
<!-- Node3&#45;&gt;Node6 -->
<g id="edge5" class="edge">
<title>Node3&#45;&gt;Node6</title>
<path fill="none" stroke="#63b8ff" d="M389,-126.45C400.59,-124.33 413.25,-122.3 425,-121 822.9,-77.09 926.71,-125.23 1325,-85 1338.55,-83.63 1353.21,-81.49 1366.52,-79.3"/>
<polygon fill="#63b8ff" stroke="#63b8ff" points="1367.12,-82.74 1376.4,-77.62 1365.95,-75.84 1367.12,-82.74"/>
</g>
<!-- Node7 -->
<g id="node7" class="node">
<title>Node7</title>
<g id="a_node7"><a xlink:title=" ">
<polygon fill="#e0e0e0" stroke="#999999" points="94.5,-79.5 25.5,-79.5 25.5,-60.5 94.5,-60.5 94.5,-79.5"/>
<text text-anchor="middle" x="60" y="-67.5" font-family="Helvetica,sans-Serif" font-size="10.00">Eigen/Core</text>
</a>
</g>
</g>
<!-- Node3&#45;&gt;Node7 -->
<g id="edge6" class="edge">
<title>Node3&#45;&gt;Node7</title>
<path fill="none" stroke="#63b8ff" d="M307.22,-126.43C261.2,-116.69 184.12,-100.16 118,-85 113.62,-84 109.06,-82.93 104.51,-81.85"/>
<polygon fill="#63b8ff" stroke="#63b8ff" points="105.17,-78.41 94.63,-79.49 103.54,-85.22 105.17,-78.41"/>
</g>
<!-- Node9 -->
<g id="node9" class="node">
<title>Node9</title>
<g id="a_node9"><a xlink:title=" ">
<polygon fill="#e0e0e0" stroke="#999999" points="859.5,-19 766.5,-19 766.5,0 859.5,0 859.5,-19"/>
<text text-anchor="middle" x="813" y="-7" font-family="Helvetica,sans-Serif" font-size="10.00">alpaqa/export.h</text>
</a>
</g>
</g>
<!-- Node8&#45;&gt;Node9 -->
<g id="edge8" class="edge">
<title>Node8&#45;&gt;Node9</title>
<path fill="none" stroke="#63b8ff" d="M865,-60.37C855.63,-51.38 840.75,-37.11 829.3,-26.14"/>
<polygon fill="#63b8ff" stroke="#63b8ff" points="831.68,-23.56 822.04,-19.17 826.83,-28.62 831.68,-23.56"/>
</g>
<!-- Node14&#45;&gt;Node3 -->
<g id="edge15" class="edge">
<title>Node14&#45;&gt;Node3</title>
<path fill="none" stroke="#63b8ff" d="M449.66,-384.59C422.13,-355.78 362.66,-287.74 341,-217 334.76,-196.64 338.46,-172.09 342.46,-155.61"/>
<polygon fill="#63b8ff" stroke="#63b8ff" points="345.93,-156.2 345.16,-145.63 339.17,-154.37 345.93,-156.2"/>
</g>
<!-- Node14&#45;&gt;Node15 -->
<g id="edge16" class="edge">
<title>Node14&#45;&gt;Node15</title>
<path fill="none" stroke="#63b8ff" d="M521.94,-384.95C562.77,-375.06 617.59,-361.77 660.42,-351.38"/>
<polygon fill="#63b8ff" stroke="#63b8ff" points="661.31,-354.77 670.2,-349.01 659.66,-347.97 661.31,-354.77"/>
</g>
<!-- Node15&#45;&gt;Node3 -->
<g id="edge17" class="edge">
<title>Node15&#45;&gt;Node3</title>
<path fill="none" stroke="#63b8ff" d="M668.38,-333.4C584.31,-330.42 432.75,-311.31 357,-217 343.15,-199.76 342.98,-173.26 344.88,-155.54"/>
<polygon fill="#63b8ff" stroke="#63b8ff" points="348.35,-155.96 346.26,-145.58 341.42,-155 348.35,-155.96"/>
</g>
<!-- Node15&#45;&gt;Node6 -->
<g id="edge63" class="edge">
<title>Node15&#45;&gt;Node6</title>
<path fill="none" stroke="#63b8ff" d="M787.57,-330.44C915.27,-324.52 1211.67,-308.46 1309,-283 1446.39,-247.06 1523.07,-270.37 1600,-151 1635.45,-95.99 1522.74,-78.73 1456.22,-73.38"/>
<polygon fill="#63b8ff" stroke="#63b8ff" points="1456.21,-69.86 1445.97,-72.61 1455.69,-76.85 1456.21,-69.86"/>
</g>
<!-- Node15&#45;&gt;Node8 -->
<g id="edge18" class="edge">
<title>Node15&#45;&gt;Node8</title>
<path fill="none" stroke="#63b8ff" d="M787.7,-327.2C843.89,-320.35 922.16,-306.78 941,-283 949.28,-272.55 943.05,-266.18 941,-253 936.28,-222.58 934.1,-214.36 920,-187 910.84,-169.22 901.49,-169.11 893,-151 883.74,-131.26 878.77,-106.59 876.26,-89.91"/>
<polygon fill="#63b8ff" stroke="#63b8ff" points="879.7,-89.23 874.9,-79.79 872.77,-90.17 879.7,-89.23"/>
</g>
<!-- Node15&#45;&gt;Node12 -->
<g id="edge64" class="edge">
<title>Node15&#45;&gt;Node12</title>
<path fill="none" stroke="#63b8ff" d="M725.37,-318.76C721.41,-296.92 713.85,-253.82 709,-217 706.27,-196.29 704,-172.45 702.58,-156.22"/>
<polygon fill="#63b8ff" stroke="#63b8ff" points="706.04,-155.57 701.71,-145.9 699.06,-156.16 706.04,-155.57"/>
</g>
<!-- Node16 -->
<g id="node16" class="node">
<title>Node16</title>
<g id="a_node16"><a xlink:href="box_8hpp.html" target="_top" xlink:title=" ">
<polygon fill="white" stroke="#666666" points="500.5,-211.5 365.5,-211.5 365.5,-192.5 500.5,-192.5 500.5,-211.5"/>
<text text-anchor="middle" x="433" y="-199.5" font-family="Helvetica,sans-Serif" font-size="10.00">alpaqa/problem/box.hpp</text>
</a>
</g>
</g>
<!-- Node15&#45;&gt;Node16 -->
<g id="edge19" class="edge">
<title>Node15&#45;&gt;Node16</title>
<path fill="none" stroke="#63b8ff" d="M696.15,-318.96C638.38,-293.51 517.2,-240.11 461.78,-215.68"/>
<polygon fill="#63b8ff" stroke="#63b8ff" points="463.09,-212.44 452.53,-211.61 460.27,-218.84 463.09,-212.44"/>
</g>
<!-- Node20 -->
<g id="node20" class="node">
<title>Node20</title>
<g id="a_node20"><a xlink:href="alloc-check_8hpp.html" target="_top" xlink:title=" ">
<polygon fill="white" stroke="#666666" points="148,-277.5 0,-277.5 0,-258.5 148,-258.5 148,-277.5"/>
<text text-anchor="middle" x="74" y="-265.5" font-family="Helvetica,sans-Serif" font-size="10.00">alpaqa/util/alloc&#45;check.hpp</text>
</a>
</g>
</g>
<!-- Node15&#45;&gt;Node20 -->
<g id="edge27" class="edge">
<title>Node15&#45;&gt;Node20</title>
<path fill="none" stroke="#63b8ff" d="M668.23,-327.15C551.45,-315.72 292.7,-290.4 158.46,-277.27"/>
<polygon fill="#63b8ff" stroke="#63b8ff" points="158.52,-273.75 148.23,-276.26 157.84,-280.72 158.52,-273.75"/>
</g>
<!-- Node21 -->
<g id="node21" class="node">
<title>Node21</title>
<g id="a_node21"><a xlink:href="check-dim_8hpp.html" target="_top" xlink:title=" ">
<polygon fill="white" stroke="#666666" points="661.5,-211.5 518.5,-211.5 518.5,-192.5 661.5,-192.5 661.5,-211.5"/>
<text text-anchor="middle" x="590" y="-199.5" font-family="Helvetica,sans-Serif" font-size="10.00">alpaqa/util/check&#45;dim.hpp</text>
</a>
</g>
</g>
<!-- Node15&#45;&gt;Node21 -->
<g id="edge29" class="edge">
<title>Node15&#45;&gt;Node21</title>
<path fill="none" stroke="#63b8ff" d="M712.97,-318.84C687.01,-294.39 633.97,-244.42 606.82,-218.85"/>
<polygon fill="#63b8ff" stroke="#63b8ff" points="608.97,-216.06 599.29,-211.75 604.17,-221.15 608.97,-216.06"/>
</g>
<!-- Node23 -->
<g id="node23" class="node">
<title>Node23</title>
<g id="a_node23"><a xlink:title=" ">
<polygon fill="#e0e0e0" stroke="#999999" points="845.5,-145.5 780.5,-145.5 780.5,-126.5 845.5,-126.5 845.5,-145.5"/>
<text text-anchor="middle" x="813" y="-133.5" font-family="Helvetica,sans-Serif" font-size="10.00">stdexcept</text>
</a>
</g>
</g>
<!-- Node15&#45;&gt;Node23 -->
<g id="edge62" class="edge">
<title>Node15&#45;&gt;Node23</title>
<path fill="none" stroke="#63b8ff" d="M755.93,-318.83C801.34,-295.14 887.78,-247.13 904,-217 910.32,-205.26 910.79,-198.48 904,-187 893.29,-168.9 873.45,-156.91 855.01,-149.23"/>
<polygon fill="#63b8ff" stroke="#63b8ff" points="856.15,-145.91 845.56,-145.59 853.63,-152.45 856.15,-145.91"/>
</g>
<!-- Node24 -->
<g id="node24" class="node">
<title>Node24</title>
<g id="a_node24"><a xlink:href="not-implemented_8hpp.html" target="_top" xlink:title=" ">
<polygon fill="white" stroke="#666666" points="894.5,-211.5 717.5,-211.5 717.5,-192.5 894.5,-192.5 894.5,-211.5"/>
<text text-anchor="middle" x="806" y="-199.5" font-family="Helvetica,sans-Serif" font-size="10.00">alpaqa/util/not&#45;implemented.hpp</text>
</a>
</g>
</g>
<!-- Node15&#45;&gt;Node24 -->
<g id="edge34" class="edge">
<title>Node15&#45;&gt;Node24</title>
<path fill="none" stroke="#63b8ff" d="M736.5,-318.84C750.85,-294.92 779.86,-246.56 795.48,-220.53"/>
<polygon fill="#63b8ff" stroke="#63b8ff" points="798.61,-222.12 800.75,-211.75 792.6,-218.52 798.61,-222.12"/>
</g>
<!-- Node25 -->
<g id="node25" class="node">
<title>Node25</title>
<g id="a_node25"><a xlink:href="required-method_8hpp.html" target="_top" xlink:title=" ">
<polygon fill="white" stroke="#666666" points="1300,-283 1188,-283 1188,-253 1300,-253 1300,-283"/>
<text text-anchor="start" x="1196" y="-271" font-family="Helvetica,sans-Serif" font-size="10.00">alpaqa/util/required</text>
<text text-anchor="middle" x="1244" y="-260" font-family="Helvetica,sans-Serif" font-size="10.00">&#45;method.hpp</text>
</a>
</g>
</g>
<!-- Node15&#45;&gt;Node25 -->
<g id="edge37" class="edge">
<title>Node15&#45;&gt;Node25</title>
<path fill="none" stroke="#63b8ff" d="M787.7,-325.6C884.9,-313.54 1076.68,-289.75 1177.88,-277.2"/>
<polygon fill="#63b8ff" stroke="#63b8ff" points="1178.49,-280.65 1187.98,-275.95 1177.62,-273.71 1178.49,-280.65"/>
</g>
<!-- Node26 -->
<g id="node26" class="node">
<title>Node26</title>
<g id="a_node26"><a xlink:href="type-erasure_8hpp.html" target="_top" xlink:title=" ">
<polygon fill="white" stroke="#666666" points="1321.5,-211.5 1166.5,-211.5 1166.5,-192.5 1321.5,-192.5 1321.5,-211.5"/>
<text text-anchor="middle" x="1244" y="-199.5" font-family="Helvetica,sans-Serif" font-size="10.00">alpaqa/util/type&#45;erasure.hpp</text>
</a>
</g>
</g>
<!-- Node15&#45;&gt;Node26 -->
<g id="edge60" class="edge">
<title>Node15&#45;&gt;Node26</title>
<path fill="none" stroke="#63b8ff" d="M787.73,-322.38C837.75,-313.12 910.89,-298.73 974,-283 1058.72,-261.88 1156.64,-231.29 1208.11,-214.73"/>
<polygon fill="#63b8ff" stroke="#63b8ff" points="1209.33,-218.01 1217.77,-211.61 1207.17,-211.35 1209.33,-218.01"/>
</g>
<!-- Node37 -->
<g id="node37" class="node">
<title>Node37</title>
<g id="a_node37"><a xlink:title=" ">
<polygon fill="#e0e0e0" stroke="#999999" points="932,-277.5 882,-277.5 882,-258.5 932,-258.5 932,-277.5"/>
<text text-anchor="middle" x="907" y="-265.5" font-family="Helvetica,sans-Serif" font-size="10.00">chrono</text>
</a>
</g>
</g>
<!-- Node15&#45;&gt;Node37 -->
<g id="edge61" class="edge">
<title>Node15&#45;&gt;Node37</title>
<path fill="none" stroke="#63b8ff" d="M767.53,-318.9C795.58,-308.89 834.1,-295.14 868,-283 869.83,-282.35 871.71,-281.67 873.6,-280.99"/>
<polygon fill="#63b8ff" stroke="#63b8ff" points="874.85,-284.27 883.08,-277.59 872.48,-277.68 874.85,-284.27"/>
</g>
<!-- Node16&#45;&gt;Node3 -->
<g id="edge20" class="edge">
<title>Node16&#45;&gt;Node3</title>
<path fill="none" stroke="#63b8ff" d="M421.54,-192.37C407.72,-181.97 384.29,-164.32 367.59,-151.75"/>
<polygon fill="#63b8ff" stroke="#63b8ff" points="369.65,-148.92 359.55,-145.7 365.44,-154.51 369.65,-148.92"/>
</g>
<!-- Node17 -->
<g id="node17" class="node">
<title>Node17</title>
<g id="a_node17"><a xlink:href="float_8hpp.html" target="_top" xlink:title=" ">
<polygon fill="white" stroke="#666666" points="548,-145.5 434,-145.5 434,-126.5 548,-126.5 548,-145.5"/>
<text text-anchor="middle" x="491" y="-133.5" font-family="Helvetica,sans-Serif" font-size="10.00">alpaqa/util/float.hpp</text>
</a>
</g>
</g>
<!-- Node16&#45;&gt;Node17 -->
<g id="edge21" class="edge">
<title>Node16&#45;&gt;Node17</title>
<path fill="none" stroke="#63b8ff" d="M440.82,-192.37C449.85,-182.4 464.91,-165.79 476.17,-153.36"/>
<polygon fill="#63b8ff" stroke="#63b8ff" points="478.81,-155.67 482.93,-145.91 473.62,-150.96 478.81,-155.67"/>
</g>
<!-- Node17&#45;&gt;Node4 -->
<g id="edge22" class="edge">
<title>Node17&#45;&gt;Node4</title>
<path fill="none" stroke="#63b8ff" d="M474.01,-126.37C455.62,-117.03 425.75,-101.86 401.92,-89.75"/>
<polygon fill="#63b8ff" stroke="#63b8ff" points="403.29,-86.52 392.79,-85.12 400.12,-92.76 403.29,-86.52"/>
</g>
<!-- Node17&#45;&gt;Node6 -->
<g id="edge26" class="edge">
<title>Node17&#45;&gt;Node6</title>
<path fill="none" stroke="#63b8ff" d="M547.85,-126.46C563.13,-124.41 579.67,-122.41 595,-121 918.48,-91.3 1001.96,-119.15 1325,-85 1338.55,-83.57 1353.2,-81.41 1366.51,-79.22"/>
<polygon fill="#63b8ff" stroke="#63b8ff" points="1367.11,-82.66 1376.39,-77.54 1365.94,-75.76 1367.11,-82.66"/>
</g>
<!-- Node17&#45;&gt;Node10 -->
<g id="edge23" class="edge">
<title>Node17&#45;&gt;Node10</title>
<path fill="none" stroke="#63b8ff" d="M456.74,-126.44C407.51,-114.13 317.34,-91.59 268.53,-79.38"/>
<polygon fill="#63b8ff" stroke="#63b8ff" points="269.32,-75.97 258.77,-76.94 267.62,-82.76 269.32,-75.97"/>
</g>
<!-- Node18 -->
<g id="node18" class="node">
<title>Node18</title>
<g id="a_node18"><a xlink:title=" ">
<polygon fill="#e0e0e0" stroke="#999999" points="520.5,-79.5 461.5,-79.5 461.5,-60.5 520.5,-60.5 520.5,-79.5"/>
<text text-anchor="middle" x="491" y="-67.5" font-family="Helvetica,sans-Serif" font-size="10.00">complex</text>
</a>
</g>
</g>
<!-- Node17&#45;&gt;Node18 -->
<g id="edge24" class="edge">
<title>Node17&#45;&gt;Node18</title>
<path fill="none" stroke="#63b8ff" d="M491,-126.37C491,-117.16 491,-102.29 491,-90.27"/>
<polygon fill="#63b8ff" stroke="#63b8ff" points="494.5,-89.91 491,-79.91 487.5,-89.91 494.5,-89.91"/>
</g>
<!-- Node19 -->
<g id="node19" class="node">
<title>Node19</title>
<g id="a_node19"><a xlink:title=" ">
<polygon fill="#e0e0e0" stroke="#999999" points="1648,-79.5 1588,-79.5 1588,-60.5 1648,-60.5 1648,-79.5"/>
<text text-anchor="middle" x="1618" y="-67.5" font-family="Helvetica,sans-Serif" font-size="10.00">concepts</text>
</a>
</g>
</g>
<!-- Node17&#45;&gt;Node19 -->
<g id="edge25" class="edge">
<title>Node17&#45;&gt;Node19</title>
<path fill="none" stroke="#63b8ff" d="M547.03,-126.5C562.53,-124.41 579.39,-122.37 595,-121 976.08,-87.45 1073.22,-109.37 1455,-85 1496.95,-82.32 1544.87,-78.06 1577.83,-74.94"/>
<polygon fill="#63b8ff" stroke="#63b8ff" points="1578.37,-78.41 1587.99,-73.97 1577.7,-71.44 1578.37,-78.41"/>
</g>
<!-- Node20&#45;&gt;Node7 -->
<g id="edge28" class="edge">
<title>Node20&#45;&gt;Node7</title>
<path fill="none" stroke="#63b8ff" d="M71.49,-258.49C65.17,-236.09 49.33,-173.63 53,-121 53.72,-110.68 55.26,-99.25 56.72,-89.93"/>
<polygon fill="#63b8ff" stroke="#63b8ff" points="60.21,-90.25 58.39,-79.81 53.31,-89.11 60.21,-90.25"/>
</g>
<!-- Node21&#45;&gt;Node3 -->
<g id="edge30" class="edge">
<title>Node21&#45;&gt;Node3</title>
<path fill="none" stroke="#63b8ff" d="M557.61,-192.44C514.33,-180.99 437.55,-160.68 389.9,-148.08"/>
<polygon fill="#63b8ff" stroke="#63b8ff" points="390.76,-144.69 380.19,-145.51 388.97,-151.45 390.76,-144.69"/>
</g>
<!-- Node21&#45;&gt;Node11 -->
<g id="edge33" class="edge">
<title>Node21&#45;&gt;Node11</title>
<path fill="none" stroke="#63b8ff" d="M589.08,-192.47C586.86,-171.82 581.14,-118.72 578.05,-90.04"/>
<polygon fill="#63b8ff" stroke="#63b8ff" points="581.49,-89.3 576.94,-79.73 574.53,-90.05 581.49,-89.3"/>
</g>
<!-- Node22 -->
<g id="node22" class="node">
<title>Node22</title>
<g id="a_node22"><a xlink:title=" ">
<polygon fill="#e0e0e0" stroke="#999999" points="660,-145.5 604,-145.5 604,-126.5 660,-126.5 660,-145.5"/>
<text text-anchor="middle" x="632" y="-133.5" font-family="Helvetica,sans-Serif" font-size="10.00">optional</text>
</a>
</g>
</g>
<!-- Node21&#45;&gt;Node22 -->
<g id="edge31" class="edge">
<title>Node21&#45;&gt;Node22</title>
<path fill="none" stroke="#63b8ff" d="M595.66,-192.37C602.02,-182.69 612.48,-166.74 620.56,-154.44"/>
<polygon fill="#63b8ff" stroke="#63b8ff" points="623.6,-156.19 626.16,-145.91 617.74,-152.35 623.6,-156.19"/>
</g>
<!-- Node21&#45;&gt;Node23 -->
<g id="edge32" class="edge">
<title>Node21&#45;&gt;Node23</title>
<path fill="none" stroke="#63b8ff" d="M620.07,-192.37C659.67,-181 729.39,-161 773.29,-148.4"/>
<polygon fill="#63b8ff" stroke="#63b8ff" points="774.4,-151.72 783.05,-145.6 772.47,-144.99 774.4,-151.72"/>
</g>
<!-- Node24&#45;&gt;Node9 -->
<g id="edge35" class="edge">
<title>Node24&#45;&gt;Node9</title>
<path fill="none" stroke="#63b8ff" d="M797.64,-192.3C789.29,-182.96 777,-167.25 772,-151 758.35,-106.66 785.03,-54.1 801.45,-27.6"/>
<polygon fill="#63b8ff" stroke="#63b8ff" points="804.47,-29.38 806.94,-19.08 798.58,-25.59 804.47,-29.38"/>
</g>
<!-- Node24&#45;&gt;Node23 -->
<g id="edge36" class="edge">
<title>Node24&#45;&gt;Node23</title>
<path fill="none" stroke="#63b8ff" d="M806.94,-192.37C807.96,-183.07 809.61,-167.98 810.93,-155.9"/>
<polygon fill="#63b8ff" stroke="#63b8ff" points="814.42,-156.23 812.03,-145.91 807.46,-155.47 814.42,-156.23"/>
</g>
<!-- Node25&#45;&gt;Node26 -->
<g id="edge38" class="edge">
<title>Node25&#45;&gt;Node26</title>
<path fill="none" stroke="#63b8ff" d="M1244,-252.8C1244,-243.7 1244,-231.79 1244,-221.9"/>
<polygon fill="#63b8ff" stroke="#63b8ff" points="1247.5,-221.84 1244,-211.84 1240.5,-221.84 1247.5,-221.84"/>
</g>
<!-- Node35 -->
<g id="node35" class="node">
<title>Node35</title>
<g id="a_node35"><a xlink:title=" ">
<polygon fill="#e0e0e0" stroke="#999999" points="1912.5,-145.5 1847.5,-145.5 1847.5,-126.5 1912.5,-126.5 1912.5,-145.5"/>
<text text-anchor="middle" x="1880" y="-133.5" font-family="Helvetica,sans-Serif" font-size="10.00">functional</text>
</a>
</g>
</g>
<!-- Node25&#45;&gt;Node35 -->
<g id="edge59" class="edge">
<title>Node25&#45;&gt;Node35</title>
<path fill="none" stroke="#63b8ff" d="M1300.19,-255.99C1402.92,-235.78 1627.86,-191.16 1817,-151 1823.63,-149.59 1830.64,-148.07 1837.48,-146.56"/>
<polygon fill="#63b8ff" stroke="#63b8ff" points="1838.32,-149.96 1847.33,-144.38 1836.81,-143.13 1838.32,-149.96"/>
</g>
<!-- Node26&#45;&gt;Node6 -->
<g id="edge56" class="edge">
<title>Node26&#45;&gt;Node6</title>
<path fill="none" stroke="#63b8ff" d="M1281.29,-192.44C1307.14,-184.98 1341.08,-171.99 1365,-151 1384.23,-134.12 1397.38,-107.15 1404.54,-89.26"/>
<polygon fill="#63b8ff" stroke="#63b8ff" points="1407.89,-90.29 1408.15,-79.7 1401.34,-87.82 1407.89,-90.29"/>
</g>
<!-- Node26&#45;&gt;Node8 -->
<g id="edge39" class="edge">
<title>Node26&#45;&gt;Node8</title>
<path fill="none" stroke="#63b8ff" d="M1261.95,-192.38C1290.13,-177.73 1339.28,-147.06 1316,-121 1291.19,-93.22 1052.74,-78.91 936.75,-73.55"/>
<polygon fill="#63b8ff" stroke="#63b8ff" points="936.74,-70.05 926.59,-73.09 936.42,-77.04 936.74,-70.05"/>
</g>
<!-- Node26&#45;&gt;Node12 -->
<g id="edge58" class="edge">
<title>Node26&#45;&gt;Node12</title>
<path fill="none" stroke="#63b8ff" d="M1166.47,-194.92C1072.72,-187.08 910.31,-171.92 772,-151 759.41,-149.1 745.67,-146.51 733.65,-144.07"/>
<polygon fill="#63b8ff" stroke="#63b8ff" points="734.11,-140.59 723.61,-141.99 732.7,-147.45 734.11,-140.59"/>
</g>
<!-- Node26&#45;&gt;Node23 -->
<g id="edge55" class="edge">
<title>Node26&#45;&gt;Node23</title>
<path fill="none" stroke="#63b8ff" d="M1179.86,-192.49C1109.42,-182.99 993,-166.87 893,-151 880.81,-149.07 867.61,-146.82 855.51,-144.7"/>
<polygon fill="#63b8ff" stroke="#63b8ff" points="856.11,-141.25 845.66,-142.96 854.89,-148.14 856.11,-141.25"/>
</g>
<!-- Node27 -->
<g id="node27" class="node">
<title>Node27</title>
<g id="a_node27"><a xlink:href="demangled-typename_8hpp.html" target="_top" xlink:title=" ">
<polygon fill="white" stroke="#666666" points="1307,-151 1181,-151 1181,-121 1307,-121 1307,-151"/>
<text text-anchor="start" x="1189" y="-139" font-family="Helvetica,sans-Serif" font-size="10.00">alpaqa/util/demangled</text>
<text text-anchor="middle" x="1244" y="-128" font-family="Helvetica,sans-Serif" font-size="10.00">&#45;typename.hpp</text>
</a>
</g>
</g>
<!-- Node26&#45;&gt;Node27 -->
<g id="edge40" class="edge">
<title>Node26&#45;&gt;Node27</title>
<path fill="none" stroke="#63b8ff" d="M1244,-192.37C1244,-184.49 1244,-172.45 1244,-161.6"/>
<polygon fill="#63b8ff" stroke="#63b8ff" points="1247.5,-161.36 1244,-151.36 1240.5,-161.36 1247.5,-161.36"/>
</g>
<!-- Node28 -->
<g id="node28" class="node">
<title>Node28</title>
<g id="a_node28"><a xlink:title=" ">
<polygon fill="#e0e0e0" stroke="#999999" points="1315.5,-79.5 1258.5,-79.5 1258.5,-60.5 1315.5,-60.5 1315.5,-79.5"/>
<text text-anchor="middle" x="1287" y="-67.5" font-family="Helvetica,sans-Serif" font-size="10.00">typeinfo</text>
</a>
</g>
</g>
<!-- Node26&#45;&gt;Node28 -->
<g id="edge57" class="edge">
<title>Node26&#45;&gt;Node28</title>
<path fill="none" stroke="#63b8ff" d="M1285.88,-192.47C1308.75,-185.45 1335.15,-172.94 1349,-151 1356.12,-139.73 1354.75,-133.03 1349,-121 1341.63,-105.59 1326.94,-93.42 1313.71,-84.94"/>
<polygon fill="#63b8ff" stroke="#63b8ff" points="1315.27,-81.79 1304.89,-79.66 1311.68,-87.8 1315.27,-81.79"/>
</g>
<!-- Node29 -->
<g id="node29" class="node">
<title>Node29</title>
<g id="a_node29"><a xlink:href="noop-delete_8hpp.html" target="_top" xlink:title=" ">
<polygon fill="white" stroke="#666666" points="1590.5,-145.5 1439.5,-145.5 1439.5,-126.5 1590.5,-126.5 1590.5,-145.5"/>
<text text-anchor="middle" x="1515" y="-133.5" font-family="Helvetica,sans-Serif" font-size="10.00">alpaqa/util/noop&#45;delete.hpp</text>
</a>
</g>
</g>
<!-- Node26&#45;&gt;Node29 -->
<g id="edge44" class="edge">
<title>Node26&#45;&gt;Node29</title>
<path fill="none" stroke="#63b8ff" d="M1280.27,-192.44C1329.05,-180.92 1415.8,-160.43 1469.08,-147.84"/>
<polygon fill="#63b8ff" stroke="#63b8ff" points="1470.02,-151.22 1478.95,-145.51 1468.41,-144.41 1470.02,-151.22"/>
</g>
<!-- Node30 -->
<g id="node30" class="node">
<title>Node30</title>
<g id="a_node30"><a xlink:href="type-traits_8hpp.html" target="_top" xlink:title=" ">
<polygon fill="white" stroke="#666666" points="1790.5,-145.5 1647.5,-145.5 1647.5,-126.5 1790.5,-126.5 1790.5,-145.5"/>
<text text-anchor="middle" x="1719" y="-133.5" font-family="Helvetica,sans-Serif" font-size="10.00">alpaqa/util/type&#45;traits.hpp</text>
</a>
</g>
</g>
<!-- Node26&#45;&gt;Node30 -->
<g id="edge45" class="edge">
<title>Node26&#45;&gt;Node30</title>
<path fill="none" stroke="#63b8ff" d="M1307.57,-192.44C1395.29,-180.62 1553.08,-159.36 1645.68,-146.88"/>
<polygon fill="#63b8ff" stroke="#63b8ff" points="1646.37,-150.32 1655.81,-145.51 1645.43,-143.38 1646.37,-150.32"/>
</g>
<!-- Node31 -->
<g id="node31" class="node">
<title>Node31</title>
<g id="a_node31"><a xlink:title=" ">
<polygon fill="#e0e0e0" stroke="#999999" points="1798,-79.5 1740,-79.5 1740,-60.5 1798,-60.5 1798,-79.5"/>
<text text-anchor="middle" x="1769" y="-67.5" font-family="Helvetica,sans-Serif" font-size="10.00">memory</text>
</a>
</g>
</g>
<!-- Node26&#45;&gt;Node31 -->
<g id="edge53" class="edge">
<title>Node26&#45;&gt;Node31</title>
<path fill="none" stroke="#63b8ff" d="M1321.58,-199.7C1466.9,-196.46 1768.37,-185.6 1800,-151 1816.58,-132.86 1798.91,-104.87 1784.25,-87.26"/>
<polygon fill="#63b8ff" stroke="#63b8ff" points="1786.69,-84.74 1777.46,-79.54 1781.44,-89.36 1786.69,-84.74"/>
</g>
<!-- Node32 -->
<g id="node32" class="node">
<title>Node32</title>
<g id="a_node32"><a xlink:title=" ">
<polygon fill="#e0e0e0" stroke="#999999" points="966,-145.5 902,-145.5 902,-126.5 966,-126.5 966,-145.5"/>
<text text-anchor="middle" x="934" y="-133.5" font-family="Helvetica,sans-Serif" font-size="10.00">algorithm</text>
</a>
</g>
</g>
<!-- Node26&#45;&gt;Node32 -->
<g id="edge49" class="edge">
<title>Node26&#45;&gt;Node32</title>
<path fill="none" stroke="#63b8ff" d="M1184.42,-192.47C1129.54,-184.02 1046.1,-169.64 975,-151 972.36,-150.31 969.65,-149.53 966.94,-148.71"/>
<polygon fill="#63b8ff" stroke="#63b8ff" points="967.83,-145.32 957.24,-145.59 965.69,-151.98 967.83,-145.32"/>
</g>
<!-- Node33 -->
<g id="node33" class="node">
<title>Node33</title>
<g id="a_node33"><a xlink:title=" ">
<polygon fill="#e0e0e0" stroke="#999999" points="1036,-145.5 984,-145.5 984,-126.5 1036,-126.5 1036,-145.5"/>
<text text-anchor="middle" x="1010" y="-133.5" font-family="Helvetica,sans-Serif" font-size="10.00">cassert</text>
</a>
</g>
</g>
<!-- Node26&#45;&gt;Node33 -->
<g id="edge50" class="edge">
<title>Node26&#45;&gt;Node33</title>
<path fill="none" stroke="#63b8ff" d="M1204.15,-192.46C1163.87,-183.47 1100.04,-168.26 1046,-151 1044.13,-150.4 1042.22,-149.76 1040.3,-149.09"/>
<polygon fill="#63b8ff" stroke="#63b8ff" points="1041.38,-145.76 1030.78,-145.58 1038.96,-152.32 1041.38,-145.76"/>
</g>
<!-- Node34 -->
<g id="node34" class="node">
<title>Node34</title>
<g id="a_node34"><a xlink:title=" ">
<polygon fill="#e0e0e0" stroke="#999999" points="1107.5,-145.5 1054.5,-145.5 1054.5,-126.5 1107.5,-126.5 1107.5,-145.5"/>
<text text-anchor="middle" x="1081" y="-133.5" font-family="Helvetica,sans-Serif" font-size="10.00">cstddef</text>
</a>
</g>
</g>
<!-- Node26&#45;&gt;Node34 -->
<g id="edge51" class="edge">
<title>Node26&#45;&gt;Node34</title>
<path fill="none" stroke="#63b8ff" d="M1222.02,-192.37C1193.75,-181.27 1144.46,-161.92 1112.29,-149.28"/>
<polygon fill="#63b8ff" stroke="#63b8ff" points="1113.48,-145.99 1102.89,-145.6 1110.92,-152.51 1113.48,-145.99"/>
</g>
<!-- Node26&#45;&gt;Node35 -->
<g id="edge52" class="edge">
<title>Node26&#45;&gt;Node35</title>
<path fill="none" stroke="#63b8ff" d="M1321.87,-199.45C1435.25,-196.06 1652,-185.26 1833,-151 1836.93,-150.26 1841.01,-149.31 1845.04,-148.27"/>
<polygon fill="#63b8ff" stroke="#63b8ff" points="1846.18,-151.58 1854.87,-145.52 1844.29,-144.84 1846.18,-151.58"/>
</g>
<!-- Node36 -->
<g id="node36" class="node">
<title>Node36</title>
<g id="a_node36"><a xlink:title=" ">
<polygon fill="#e0e0e0" stroke="#999999" points="1162.5,-145.5 1125.5,-145.5 1125.5,-126.5 1162.5,-126.5 1162.5,-145.5"/>
<text text-anchor="middle" x="1144" y="-133.5" font-family="Helvetica,sans-Serif" font-size="10.00">new</text>
</a>
</g>
</g>
<!-- Node26&#45;&gt;Node36 -->
<g id="edge54" class="edge">
<title>Node26&#45;&gt;Node36</title>
<path fill="none" stroke="#63b8ff" d="M1230.51,-192.37C1214.04,-181.82 1185.93,-163.84 1166.24,-151.23"/>
<polygon fill="#63b8ff" stroke="#63b8ff" points="1167.9,-148.14 1157.59,-145.7 1164.13,-154.04 1167.9,-148.14"/>
</g>
<!-- Node27&#45;&gt;Node8 -->
<g id="edge41" class="edge">
<title>Node27&#45;&gt;Node8</title>
<path fill="none" stroke="#63b8ff" d="M1180.8,-122.62C1177.83,-122.06 1174.88,-121.52 1172,-121 1090.88,-106.31 997.05,-90.81 936.69,-81.04"/>
<polygon fill="#63b8ff" stroke="#63b8ff" points="936.99,-77.54 926.56,-79.4 935.87,-84.45 936.99,-77.54"/>
</g>
<!-- Node27&#45;&gt;Node11 -->
<g id="edge42" class="edge">
<title>Node27&#45;&gt;Node11</title>
<path fill="none" stroke="#63b8ff" d="M1180.85,-122.32C1177.86,-121.85 1174.9,-121.4 1172,-121 1061.38,-105.65 715.84,-80.79 608.29,-73.24"/>
<polygon fill="#63b8ff" stroke="#63b8ff" points="608.29,-69.74 598.07,-72.53 607.8,-76.72 608.29,-69.74"/>
</g>
<!-- Node27&#45;&gt;Node28 -->
<g id="edge43" class="edge">
<title>Node27&#45;&gt;Node28</title>
<path fill="none" stroke="#63b8ff" d="M1253.54,-120.8C1259.98,-111.21 1268.52,-98.5 1275.36,-88.32"/>
<polygon fill="#63b8ff" stroke="#63b8ff" points="1278.39,-90.1 1281.06,-79.84 1272.58,-86.19 1278.39,-90.1"/>
</g>
<!-- Node30&#45;&gt;Node6 -->
<g id="edge48" class="edge">
<title>Node30&#45;&gt;Node6</title>
<path fill="none" stroke="#63b8ff" d="M1677.78,-126.44C1619.98,-114.42 1515.27,-92.67 1455.67,-80.28"/>
<polygon fill="#63b8ff" stroke="#63b8ff" points="1456.3,-76.84 1445.79,-78.23 1454.87,-83.69 1456.3,-76.84"/>
</g>
<!-- Node30&#45;&gt;Node19 -->
<g id="edge46" class="edge">
<title>Node30&#45;&gt;Node19</title>
<path fill="none" stroke="#63b8ff" d="M1705.38,-126.37C1688.66,-115.78 1660.09,-97.67 1640.19,-85.06"/>
<polygon fill="#63b8ff" stroke="#63b8ff" points="1642.05,-82.1 1631.73,-79.7 1638.3,-88.01 1642.05,-82.1"/>
</g>
<!-- Node30&#45;&gt;Node31 -->
<g id="edge47" class="edge">
<title>Node30&#45;&gt;Node31</title>
<path fill="none" stroke="#63b8ff" d="M1725.74,-126.37C1733.38,-116.59 1746.01,-100.42 1755.66,-88.08"/>
<polygon fill="#63b8ff" stroke="#63b8ff" points="1758.64,-89.94 1762.04,-79.91 1753.13,-85.63 1758.64,-89.94"/>
</g>
</g>
</svg>
