<?xml version="1.0" encoding="UTF-8" standalone="no"?>
<!DOCTYPE svg PUBLIC "-//W3C//DTD SVG 1.1//EN"
 "http://www.w3.org/Graphics/SVG/1.1/DTD/svg11.dtd">
<!-- Generated by graphviz version 2.43.0 (0)
 -->
<!-- Title: kkt&#45;error.hpp Pages: 1 -->
<svg width="930pt" height="247pt"
 viewBox="0.00 0.00 930.02 247.00" xmlns="http://www.w3.org/2000/svg" xmlns:xlink="http://www.w3.org/1999/xlink">
<g id="graph0" class="graph" transform="scale(1 1) rotate(0) translate(4 243)">
<title>kkt&#45;error.hpp</title>
<!-- Node1 -->
<g id="node1" class="node">
<title>Node1</title>
<g id="a_node1"><a xlink:title=" ">
<polygon fill="#999999" stroke="#666666" points="120.02,-239 40.02,-239 40.02,-220 120.02,-220 120.02,-239"/>
<text text-anchor="middle" x="80.02" y="-227" font-family="Helvetica,sans-Serif" font-size="10.00">kkt&#45;error.hpp</text>
</a>
</g>
</g>
<!-- Node2 -->
<g id="node2" class="node">
<title>Node2</title>
<g id="a_node2"><a xlink:href="alpaqa-driver_8cpp.html" target="_top" xlink:title=" ">
<polygon fill="white" stroke="#666666" points="244.52,-19 143.52,-19 143.52,0 244.52,0 244.52,-19"/>
<text text-anchor="middle" x="194.02" y="-7" font-family="Helvetica,sans-Serif" font-size="10.00">alpaqa&#45;driver.cpp</text>
</a>
</g>
</g>
<!-- Node1&#45;&gt;Node2 -->
<g id="edge1" class="edge">
<title>Node1&#45;&gt;Node2</title>
<path fill="none" stroke="#63b8ff" d="M64.01,-212.3C33.65,-179.62 -25.91,-104.66 13.02,-55 28.99,-34.63 95.7,-22.34 143.49,-15.98"/>
<polygon fill="#63b8ff" stroke="#63b8ff" points="61.59,-214.84 71.02,-219.66 66.65,-210.01 61.59,-214.84"/>
</g>
<!-- Node3 -->
<g id="node3" class="node">
<title>Node3</title>
<g id="a_node3"><a xlink:href="results_8hpp.html" target="_top" xlink:title=" ">
<polygon fill="white" stroke="#666666" points="325.52,-184 254.52,-184 254.52,-165 325.52,-165 325.52,-184"/>
<text text-anchor="middle" x="290.02" y="-172" font-family="Helvetica,sans-Serif" font-size="10.00">results.hpp</text>
</a>
</g>
</g>
<!-- Node1&#45;&gt;Node3 -->
<g id="edge2" class="edge">
<title>Node1&#45;&gt;Node3</title>
<path fill="none" stroke="#63b8ff" d="M123.6,-217.5C162.92,-207.58 219.97,-193.18 256.01,-184.08"/>
<polygon fill="#63b8ff" stroke="#63b8ff" points="122.6,-214.14 113.76,-219.98 124.31,-220.93 122.6,-214.14"/>
</g>
<!-- Node3&#45;&gt;Node2 -->
<g id="edge6" class="edge">
<title>Node3&#45;&gt;Node2</title>
<path fill="none" stroke="#63b8ff" d="M243.88,-171.55C181.6,-166.13 72.74,-146.22 23.02,-74 -8.27,-28.55 82.26,-15.55 143.27,-11.89"/>
<polygon fill="#63b8ff" stroke="#63b8ff" points="243.96,-175.06 254.2,-172.35 244.5,-168.09 243.96,-175.06"/>
</g>
<!-- Node4 -->
<g id="node4" class="node">
<title>Node4</title>
<g id="a_node4"><a xlink:href="alm-driver_8hpp.html" target="_top" xlink:title=" ">
<polygon fill="white" stroke="#666666" points="922.02,-74 834.02,-74 834.02,-55 922.02,-55 922.02,-74"/>
<text text-anchor="middle" x="878.02" y="-62" font-family="Helvetica,sans-Serif" font-size="10.00">alm&#45;driver.hpp</text>
</a>
</g>
</g>
<!-- Node3&#45;&gt;Node4 -->
<g id="edge3" class="edge">
<title>Node3&#45;&gt;Node4</title>
<path fill="none" stroke="#63b8ff" d="M335.52,-165.54C385.64,-156.73 468.62,-142.06 540.02,-129 645.44,-109.71 769.2,-86.25 833.75,-73.96"/>
<polygon fill="#63b8ff" stroke="#63b8ff" points="334.89,-162.09 325.64,-167.27 336.1,-168.99 334.89,-162.09"/>
</g>
<!-- Node7 -->
<g id="node7" class="node">
<title>Node7</title>
<g id="a_node7"><a xlink:href="ipopt-driver_8hpp.html" target="_top" xlink:title=" ">
<polygon fill="white" stroke="#666666" points="126.02,-74 32.02,-74 32.02,-55 126.02,-55 126.02,-74"/>
<text text-anchor="middle" x="79.02" y="-62" font-family="Helvetica,sans-Serif" font-size="10.00">ipopt&#45;driver.hpp</text>
</a>
</g>
</g>
<!-- Node3&#45;&gt;Node7 -->
<g id="edge7" class="edge">
<title>Node3&#45;&gt;Node7</title>
<path fill="none" stroke="#63b8ff" d="M264.2,-160.28C220.33,-137.83 132.42,-92.83 95.72,-74.05"/>
<polygon fill="#63b8ff" stroke="#63b8ff" points="262.61,-163.4 273.11,-164.84 265.8,-157.17 262.61,-163.4"/>
</g>
<!-- Node8 -->
<g id="node8" class="node">
<title>Node8</title>
<g id="a_node8"><a xlink:href="lbfgsb-driver_8hpp.html" target="_top" xlink:title=" ">
<polygon fill="white" stroke="#666666" points="243.52,-74 144.52,-74 144.52,-55 243.52,-55 243.52,-74"/>
<text text-anchor="middle" x="194.02" y="-62" font-family="Helvetica,sans-Serif" font-size="10.00">lbfgsb&#45;driver.hpp</text>
</a>
</g>
</g>
<!-- Node3&#45;&gt;Node8 -->
<g id="edge9" class="edge">
<title>Node3&#45;&gt;Node8</title>
<path fill="none" stroke="#63b8ff" d="M275.35,-157C254.67,-133.73 217.69,-92.13 201.72,-74.16"/>
<polygon fill="#63b8ff" stroke="#63b8ff" points="272.9,-159.51 282.16,-164.66 278.14,-154.86 272.9,-159.51"/>
</g>
<!-- Node9 -->
<g id="node9" class="node">
<title>Node9</title>
<g id="a_node9"><a xlink:href="panoc-driver_8hpp.html" target="_top" xlink:title=" ">
<polygon fill="white" stroke="#666666" points="664.02,-74 566.02,-74 566.02,-55 664.02,-55 664.02,-74"/>
<text text-anchor="middle" x="615.02" y="-62" font-family="Helvetica,sans-Serif" font-size="10.00">panoc&#45;driver.hpp</text>
</a>
</g>
</g>
<!-- Node3&#45;&gt;Node9 -->
<g id="edge11" class="edge">
<title>Node3&#45;&gt;Node9</title>
<path fill="none" stroke="#63b8ff" d="M334.96,-162.36C367.45,-154 412.26,-141.82 451.02,-129 503.63,-111.59 564.08,-86.95 594.8,-74.08"/>
<polygon fill="#63b8ff" stroke="#63b8ff" points="333.69,-159.07 324.87,-164.94 335.42,-165.86 333.69,-159.07"/>
</g>
<!-- Node10 -->
<g id="node10" class="node">
<title>Node10</title>
<g id="a_node10"><a xlink:href="pantr-driver_8hpp.html" target="_top" xlink:title=" ">
<polygon fill="white" stroke="#666666" points="777.52,-74 682.52,-74 682.52,-55 777.52,-55 777.52,-74"/>
<text text-anchor="middle" x="730.02" y="-62" font-family="Helvetica,sans-Serif" font-size="10.00">pantr&#45;driver.hpp</text>
</a>
</g>
</g>
<!-- Node3&#45;&gt;Node10 -->
<g id="edge14" class="edge">
<title>Node3&#45;&gt;Node10</title>
<path fill="none" stroke="#63b8ff" d="M335.39,-163.94C376,-155.26 437.13,-141.88 490.02,-129 565.61,-110.6 653.92,-86.58 699.43,-74.01"/>
<polygon fill="#63b8ff" stroke="#63b8ff" points="334.57,-160.54 325.52,-166.05 336.03,-167.38 334.57,-160.54"/>
</g>
<!-- Node11 -->
<g id="node11" class="node">
<title>Node11</title>
<g id="a_node11"><a xlink:href="solver-driver_8hpp.html" target="_top" xlink:title=" ">
<polygon fill="white" stroke="#666666" points="441.52,-129 342.52,-129 342.52,-110 441.52,-110 441.52,-129"/>
<text text-anchor="middle" x="392.02" y="-117" font-family="Helvetica,sans-Serif" font-size="10.00">solver&#45;driver.hpp</text>
</a>
</g>
</g>
<!-- Node3&#45;&gt;Node11 -->
<g id="edge17" class="edge">
<title>Node3&#45;&gt;Node11</title>
<path fill="none" stroke="#63b8ff" d="M315.29,-160.37C334.03,-150.63 359.04,-137.64 375.33,-129.17"/>
<polygon fill="#63b8ff" stroke="#63b8ff" points="313.67,-157.27 306.41,-164.98 316.89,-163.48 313.67,-157.27"/>
</g>
<!-- Node5 -->
<g id="node5" class="node">
<title>Node5</title>
<g id="a_node5"><a xlink:href="panoc-driver_8cpp.html" target="_top" xlink:title=" ">
<polygon fill="white" stroke="#666666" points="664.02,-19 566.02,-19 566.02,0 664.02,0 664.02,-19"/>
<text text-anchor="middle" x="615.02" y="-7" font-family="Helvetica,sans-Serif" font-size="10.00">panoc&#45;driver.cpp</text>
</a>
</g>
</g>
<!-- Node4&#45;&gt;Node5 -->
<g id="edge4" class="edge">
<title>Node4&#45;&gt;Node5</title>
<path fill="none" stroke="#63b8ff" d="M825.93,-53C776.63,-43.07 703.52,-28.33 657.61,-19.08"/>
<polygon fill="#63b8ff" stroke="#63b8ff" points="825.27,-56.44 835.76,-54.98 826.65,-49.58 825.27,-56.44"/>
</g>
<!-- Node6 -->
<g id="node6" class="node">
<title>Node6</title>
<g id="a_node6"><a xlink:href="pantr-driver_8cpp.html" target="_top" xlink:title=" ">
<polygon fill="white" stroke="#666666" points="853.02,-19 759.02,-19 759.02,0 853.02,0 853.02,-19"/>
<text text-anchor="middle" x="806.02" y="-7" font-family="Helvetica,sans-Serif" font-size="10.00">pantr&#45;driver.cpp</text>
</a>
</g>
</g>
<!-- Node4&#45;&gt;Node6 -->
<g id="edge5" class="edge">
<title>Node4&#45;&gt;Node6</title>
<path fill="none" stroke="#63b8ff" d="M858.15,-48.88C845.2,-39.34 828.72,-27.21 817.8,-19.17"/>
<polygon fill="#63b8ff" stroke="#63b8ff" points="856.32,-51.88 866.45,-54.98 860.47,-46.24 856.32,-51.88"/>
</g>
<!-- Node7&#45;&gt;Node2 -->
<g id="edge8" class="edge">
<title>Node7&#45;&gt;Node2</title>
<path fill="none" stroke="#63b8ff" d="M106.65,-50.77C127.86,-40.99 156.58,-27.75 175.21,-19.17"/>
<polygon fill="#63b8ff" stroke="#63b8ff" points="105.11,-47.62 97.5,-54.98 108.04,-53.98 105.11,-47.62"/>
</g>
<!-- Node8&#45;&gt;Node2 -->
<g id="edge10" class="edge">
<title>Node8&#45;&gt;Node2</title>
<path fill="none" stroke="#63b8ff" d="M194.02,-44.66C194.02,-35.93 194.02,-25.99 194.02,-19.09"/>
<polygon fill="#63b8ff" stroke="#63b8ff" points="190.52,-44.75 194.02,-54.75 197.52,-44.75 190.52,-44.75"/>
</g>
<!-- Node9&#45;&gt;Node2 -->
<g id="edge12" class="edge">
<title>Node9&#45;&gt;Node2</title>
<path fill="none" stroke="#63b8ff" d="M555.87,-56.05C472.81,-45.6 323.05,-26.74 244.79,-16.89"/>
<polygon fill="#63b8ff" stroke="#63b8ff" points="555.54,-59.54 565.9,-57.32 556.42,-52.59 555.54,-59.54"/>
</g>
<!-- Node9&#45;&gt;Node5 -->
<g id="edge13" class="edge">
<title>Node9&#45;&gt;Node5</title>
<path fill="none" stroke="#63b8ff" d="M615.02,-44.66C615.02,-35.93 615.02,-25.99 615.02,-19.09"/>
<polygon fill="#63b8ff" stroke="#63b8ff" points="611.52,-44.75 615.02,-54.75 618.52,-44.75 611.52,-44.75"/>
</g>
<!-- Node10&#45;&gt;Node2 -->
<g id="edge15" class="edge">
<title>Node10&#45;&gt;Node2</title>
<path fill="none" stroke="#63b8ff" d="M672.28,-54.98C509.8,-35.56 330.58,-20.89 244.81,-14.29"/>
<polygon fill="#63b8ff" stroke="#63b8ff" points="672.11,-58.49 682.46,-56.21 672.95,-51.54 672.11,-58.49"/>
</g>
<!-- Node10&#45;&gt;Node6 -->
<g id="edge16" class="edge">
<title>Node10&#45;&gt;Node6</title>
<path fill="none" stroke="#63b8ff" d="M750.59,-49.15C764.33,-39.57 781.94,-27.29 793.59,-19.17"/>
<polygon fill="#63b8ff" stroke="#63b8ff" points="748.43,-46.39 742.23,-54.98 752.43,-52.14 748.43,-46.39"/>
</g>
<!-- Node11&#45;&gt;Node2 -->
<g id="edge18" class="edge">
<title>Node11&#45;&gt;Node2</title>
<path fill="none" stroke="#63b8ff" d="M360.47,-106.17C340.22,-97.88 313.6,-86.25 291.02,-74 259,-56.62 223.77,-32.07 205.87,-19.18"/>
<polygon fill="#63b8ff" stroke="#63b8ff" points="359.27,-109.46 369.85,-109.96 361.89,-102.97 359.27,-109.46"/>
</g>
<!-- Node11&#45;&gt;Node5 -->
<g id="edge23" class="edge">
<title>Node11&#45;&gt;Node5</title>
<path fill="none" stroke="#63b8ff" d="M432.86,-107.02C458.28,-99.19 491.31,-87.75 519.02,-74 551.77,-57.74 586.76,-32.28 604.04,-19.08"/>
<polygon fill="#63b8ff" stroke="#63b8ff" points="431.73,-103.7 423.16,-109.94 433.75,-110.4 431.73,-103.7"/>
</g>
<!-- Node11&#45;&gt;Node6 -->
<g id="edge25" class="edge">
<title>Node11&#45;&gt;Node6</title>
<path fill="none" stroke="#63b8ff" d="M451.95,-115.36C556.1,-109.38 761.84,-95.04 787.02,-74 803.44,-60.28 806.03,-32.97 806.22,-19.07"/>
<polygon fill="#63b8ff" stroke="#63b8ff" points="451.68,-111.87 441.9,-115.93 452.08,-118.86 451.68,-111.87"/>
</g>
<!-- Node11&#45;&gt;Node7 -->
<g id="edge20" class="edge">
<title>Node11&#45;&gt;Node7</title>
<path fill="none" stroke="#63b8ff" d="M332.34,-108.39C272.36,-98.24 181.13,-82.79 126.08,-73.47"/>
<polygon fill="#63b8ff" stroke="#63b8ff" points="331.98,-111.88 342.42,-110.1 333.15,-104.98 331.98,-111.88"/>
</g>
<!-- Node11&#45;&gt;Node8 -->
<g id="edge22" class="edge">
<title>Node11&#45;&gt;Node8</title>
<path fill="none" stroke="#63b8ff" d="M350.22,-107.31C313.17,-97.39 259.85,-83.12 226.08,-74.08"/>
<polygon fill="#63b8ff" stroke="#63b8ff" points="349.64,-110.78 360.21,-109.98 351.45,-104.02 349.64,-110.78"/>
</g>
<!-- Node11&#45;&gt;Node9 -->
<g id="edge24" class="edge">
<title>Node11&#45;&gt;Node9</title>
<path fill="none" stroke="#63b8ff" d="M437.77,-107.63C479.54,-97.7 540.47,-83.22 578.91,-74.08"/>
<polygon fill="#63b8ff" stroke="#63b8ff" points="436.77,-104.27 427.85,-109.98 438.39,-111.08 436.77,-104.27"/>
</g>
<!-- Node11&#45;&gt;Node10 -->
<g id="edge26" class="edge">
<title>Node11&#45;&gt;Node10</title>
<path fill="none" stroke="#63b8ff" d="M451.73,-109.14C517.45,-98.83 621.78,-82.47 682.29,-72.98"/>
<polygon fill="#63b8ff" stroke="#63b8ff" points="450.87,-105.73 441.53,-110.74 451.95,-112.65 450.87,-105.73"/>
</g>
<!-- Node12 -->
<g id="node12" class="node">
<title>Node12</title>
<g id="a_node12"><a xlink:href="ipopt-driver_8cpp.html" target="_top" xlink:title=" ">
<polygon fill="white" stroke="#666666" points="509.52,-74 416.52,-74 416.52,-55 509.52,-55 509.52,-74"/>
<text text-anchor="middle" x="463.02" y="-62" font-family="Helvetica,sans-Serif" font-size="10.00">ipopt&#45;driver.cpp</text>
</a>
</g>
</g>
<!-- Node11&#45;&gt;Node12 -->
<g id="edge19" class="edge">
<title>Node11&#45;&gt;Node12</title>
<path fill="none" stroke="#63b8ff" d="M411.61,-103.88C424.39,-94.34 440.63,-82.21 451.4,-74.17"/>
<polygon fill="#63b8ff" stroke="#63b8ff" points="409.35,-101.2 403.43,-109.98 413.53,-106.81 409.35,-101.2"/>
</g>
<!-- Node13 -->
<g id="node13" class="node">
<title>Node13</title>
<g id="a_node13"><a xlink:href="lbfgsb-driver_8cpp.html" target="_top" xlink:title=" ">
<polygon fill="white" stroke="#666666" points="398.02,-74 300.02,-74 300.02,-55 398.02,-55 398.02,-74"/>
<text text-anchor="middle" x="349.02" y="-62" font-family="Helvetica,sans-Serif" font-size="10.00">lbfgsb&#45;driver.cpp</text>
</a>
</g>
</g>
<!-- Node11&#45;&gt;Node13 -->
<g id="edge21" class="edge">
<title>Node11&#45;&gt;Node13</title>
<path fill="none" stroke="#63b8ff" d="M378.6,-101.96C371.1,-92.72 362.08,-81.6 355.99,-74.09"/>
<polygon fill="#63b8ff" stroke="#63b8ff" points="375.9,-104.19 384.92,-109.75 381.34,-99.78 375.9,-104.19"/>
</g>
</g>
</svg>
