<?xml version="1.0" encoding="UTF-8" standalone="no"?>
<!DOCTYPE svg PUBLIC "-//W3C//DTD SVG 1.1//EN"
 "http://www.w3.org/Graphics/SVG/1.1/DTD/svg11.dtd">
<!-- Generated by graphviz version 2.43.0 (0)
 -->
<!-- Title: split_key Pages: 1 -->
<svg width="519pt" height="192pt"
 viewBox="0.00 0.00 519.00 192.26" xmlns="http://www.w3.org/2000/svg" xmlns:xlink="http://www.w3.org/1999/xlink">
<g id="graph0" class="graph" transform="scale(1 1) rotate(0) translate(4 188.26)">
<title>split_key</title>
<!-- Node1 -->
<g id="node1" class="node">
<title>Node1</title>
<g id="a_node1"><a xlink:title="Split the string full on the first occurrence of tok.">
<polygon fill="#999999" stroke="#666666" points="511,-146.26 451,-146.26 451,-127.26 511,-127.26 511,-146.26"/>
<text text-anchor="middle" x="481" y="-134.26" font-family="Helvetica,sans-Serif" font-size="10.00">split_key</text>
</a>
</g>
</g>
<!-- Node2 -->
<g id="node2" class="node">
<title>Node2</title>
<g id="a_node2"><a xlink:href="alpaqa-driver_8cpp.html#a3430011226186bf05d5c2552270587b7" target="_top" xlink:title=" ">
<polygon fill="white" stroke="#666666" points="185,-184.26 78,-184.26 78,-165.26 185,-165.26 185,-184.26"/>
<text text-anchor="middle" x="131.5" y="-172.26" font-family="Helvetica,sans-Serif" font-size="10.00">get_solver_builder</text>
</a>
</g>
</g>
<!-- Node1&#45;&gt;Node2 -->
<g id="edge1" class="edge">
<title>Node1&#45;&gt;Node2</title>
<path fill="none" stroke="#63b8ff" d="M442.43,-149.24C433.53,-151.78 424,-154.16 415,-155.76 335.75,-169.83 242.3,-173.68 185.24,-174.62"/>
<polygon fill="#63b8ff" stroke="#63b8ff" points="443.58,-152.55 452.16,-146.34 441.58,-145.84 443.58,-152.55"/>
</g>
<!-- Node4 -->
<g id="node4" class="node">
<title>Node4</title>
<g id="a_node4"><a xlink:href="namespacealpaqa_1_1params.html#a6085a1535aaa464dae1b548875f87c6f" target="_top" xlink:title="Use s to index into the struct type T and overwrite the attribute given by s.key.">
<polygon fill="white" stroke="#666666" points="412,-146.26 344,-146.26 344,-127.26 412,-127.26 412,-146.26"/>
<text text-anchor="middle" x="378" y="-134.26" font-family="Helvetica,sans-Serif" font-size="10.00">set_param</text>
</a>
</g>
</g>
<!-- Node1&#45;&gt;Node4 -->
<g id="edge3" class="edge">
<title>Node1&#45;&gt;Node4</title>
<path fill="none" stroke="#63b8ff" d="M440.77,-136.76C431.28,-136.76 421.23,-136.76 412.05,-136.76"/>
<polygon fill="#63b8ff" stroke="#63b8ff" points="440.79,-140.26 450.79,-136.76 440.79,-133.26 440.79,-140.26"/>
</g>
<!-- Node5 -->
<g id="node5" class="node">
<title>Node5</title>
<g id="a_node5"><a xlink:href="namespacealpaqa_1_1params.html#a1ceaf6d5b9906d0d8242d3b3c7bc6dd6" target="_top" xlink:title="Overwrites t based on the options that start with prefix.">
<polygon fill="white" stroke="#666666" points="415,-109.26 341,-109.26 341,-90.26 415,-90.26 415,-109.26"/>
<text text-anchor="middle" x="378" y="-97.26" font-family="Helvetica,sans-Serif" font-size="10.00">set_params</text>
</a>
</g>
</g>
<!-- Node1&#45;&gt;Node5 -->
<g id="edge4" class="edge">
<title>Node1&#45;&gt;Node5</title>
<path fill="none" stroke="#63b8ff" d="M444.47,-123.74C431.57,-119.01 417.23,-113.76 405.27,-109.38"/>
<polygon fill="#63b8ff" stroke="#63b8ff" points="443.4,-127.08 453.99,-127.23 445.8,-120.5 443.4,-127.08"/>
</g>
<!-- Node3 -->
<g id="node3" class="node">
<title>Node3</title>
<g id="a_node3"><a xlink:href="alpaqa-driver_8cpp.html#ac0f2228420376f4db7e1274f2b41667c" target="_top" xlink:title=" ">
<polygon fill="white" stroke="#666666" points="41,-54.26 0,-54.26 0,-35.26 41,-35.26 41,-54.26"/>
<text text-anchor="middle" x="20.5" y="-42.26" font-family="Helvetica,sans-Serif" font-size="10.00">main</text>
</a>
</g>
</g>
<!-- Node2&#45;&gt;Node3 -->
<g id="edge2" class="edge">
<title>Node2&#45;&gt;Node3</title>
<path fill="none" stroke="#63b8ff" d="M81.26,-160.06C79.77,-159.03 78.35,-157.93 77,-156.76 44.3,-128.22 28.82,-75.91 23.61,-54.39"/>
<polygon fill="#63b8ff" stroke="#63b8ff" points="79.89,-163.3 90.31,-165.2 83.34,-157.22 79.89,-163.3"/>
</g>
<!-- Node6 -->
<g id="node6" class="node">
<title>Node6</title>
<g id="a_node6"><a xlink:href="problem_8cpp.html#ae36fc572e3716fb2dbe8ff77cfe1ee10" target="_top" xlink:title=" ">
<polygon fill="white" stroke="#666666" points="305,-35.26 222,-35.26 222,-16.26 305,-16.26 305,-35.26"/>
<text text-anchor="middle" x="263.5" y="-23.26" font-family="Helvetica,sans-Serif" font-size="10.00">load_problem</text>
</a>
</g>
</g>
<!-- Node5&#45;&gt;Node6 -->
<g id="edge5" class="edge">
<title>Node5&#45;&gt;Node6</title>
<path fill="none" stroke="#63b8ff" d="M353.72,-84.44C331.32,-69.71 298.16,-47.9 279.21,-35.43"/>
<polygon fill="#63b8ff" stroke="#63b8ff" points="352.01,-87.51 362.29,-90.08 355.86,-81.66 352.01,-87.51"/>
</g>
<!-- Node7 -->
<g id="node7" class="node">
<title>Node7</title>
<g id="a_node7"><a xlink:href="options_8hpp.html#a15ce06eb1492a582a4abe2ddd5e7f8a1" target="_top" xlink:title=" ">
<polygon fill="white" stroke="#666666" points="300.5,-109.26 226.5,-109.26 226.5,-90.26 300.5,-90.26 300.5,-109.26"/>
<text text-anchor="middle" x="263.5" y="-97.26" font-family="Helvetica,sans-Serif" font-size="10.00">set_params</text>
</a>
</g>
</g>
<!-- Node5&#45;&gt;Node7 -->
<g id="edge7" class="edge">
<title>Node5&#45;&gt;Node7</title>
<path fill="none" stroke="#63b8ff" d="M330.58,-99.76C320.59,-99.76 310.18,-99.76 300.65,-99.76"/>
<polygon fill="#63b8ff" stroke="#63b8ff" points="330.79,-103.26 340.79,-99.76 330.79,-96.26 330.79,-103.26"/>
</g>
<!-- Node6&#45;&gt;Node3 -->
<g id="edge6" class="edge">
<title>Node6&#45;&gt;Node3</title>
<path fill="none" stroke="#63b8ff" d="M223.86,-13.51C185.73,-3.38 126.18,7.13 77,-7.76 59.49,-13.06 42.45,-25.91 31.97,-34.97"/>
<polygon fill="#63b8ff" stroke="#63b8ff" points="222.97,-16.89 233.54,-16.19 224.84,-10.15 222.97,-16.89"/>
</g>
<!-- Node7&#45;&gt;Node2 -->
<g id="edge12" class="edge">
<title>Node7&#45;&gt;Node2</title>
<path fill="none" stroke="#63b8ff" d="M243.96,-116.21C229.13,-128.7 207.34,-145.58 186,-156.76 179.84,-159.99 172.98,-162.81 166.28,-165.2"/>
<polygon fill="#63b8ff" stroke="#63b8ff" points="246.54,-118.61 251.84,-109.44 241.97,-113.31 246.54,-118.61"/>
</g>
<!-- Node8 -->
<g id="node8" class="node">
<title>Node8</title>
<g id="a_node8"><a xlink:href="alpaqa-driver_8cpp.html#abdc7f0491e5c38d6f9569a0aad3d2925" target="_top" xlink:title=" ">
<polygon fill="white" stroke="#666666" points="182,-73.26 81,-73.26 81,-54.26 182,-54.26 182,-73.26"/>
<text text-anchor="middle" x="131.5" y="-61.26" font-family="Helvetica,sans-Serif" font-size="10.00">get_output_paths</text>
</a>
</g>
</g>
<!-- Node7&#45;&gt;Node8 -->
<g id="edge8" class="edge">
<title>Node7&#45;&gt;Node8</title>
<path fill="none" stroke="#63b8ff" d="M217.96,-87.42C201.35,-82.82 182.75,-77.67 167.16,-73.36"/>
<polygon fill="#63b8ff" stroke="#63b8ff" points="217.43,-90.91 228,-90.21 219.3,-84.16 217.43,-90.91"/>
</g>
<!-- Node9 -->
<g id="node9" class="node">
<title>Node9</title>
<g id="a_node9"><a xlink:href="alpaqa-driver_8cpp.html#a62667720f096806ed08c60e4207f8972" target="_top" xlink:title=" ">
<polygon fill="white" stroke="#666666" points="186,-36.26 77,-36.26 77,-17.26 186,-17.26 186,-36.26"/>
<text text-anchor="middle" x="131.5" y="-24.26" font-family="Helvetica,sans-Serif" font-size="10.00">get_output_stream</text>
</a>
</g>
</g>
<!-- Node7&#45;&gt;Node9 -->
<g id="edge10" class="edge">
<title>Node7&#45;&gt;Node9</title>
<path fill="none" stroke="#63b8ff" d="M243.35,-83.51C228.48,-71.52 206.93,-55.49 186,-44.76 179.72,-41.54 172.74,-38.71 165.95,-36.3"/>
<polygon fill="#63b8ff" stroke="#63b8ff" points="241.33,-86.38 251.28,-90.03 245.78,-80.97 241.33,-86.38"/>
</g>
<!-- Node10 -->
<g id="node10" class="node">
<title>Node10</title>
<g id="a_node10"><a xlink:href="alm-driver_8hpp.html#ae4ef291d9ec9d55ee804b5723ea2e641" target="_top" xlink:title=" ">
<polygon fill="white" stroke="#666666" points="183,-147.26 80,-147.26 80,-128.26 183,-128.26 183,-147.26"/>
<text text-anchor="middle" x="131.5" y="-135.26" font-family="Helvetica,sans-Serif" font-size="10.00">make_alm_solver</text>
</a>
</g>
</g>
<!-- Node7&#45;&gt;Node10 -->
<g id="edge13" class="edge">
<title>Node7&#45;&gt;Node10</title>
<path fill="none" stroke="#63b8ff" d="M219.62,-112.29C201.93,-117.46 181.77,-123.36 165.29,-128.17"/>
<polygon fill="#63b8ff" stroke="#63b8ff" points="221.08,-115.51 229.7,-109.35 219.12,-108.79 221.08,-115.51"/>
</g>
<!-- Node11 -->
<g id="node11" class="node">
<title>Node11</title>
<g id="a_node11"><a xlink:href="alm-driver_8hpp.html#a51b2a2cde56762bcb43a2f4da0913f98" target="_top" xlink:title=" ">
<polygon fill="white" stroke="#666666" points="186,-110.26 77,-110.26 77,-91.26 186,-91.26 186,-110.26"/>
<text text-anchor="middle" x="131.5" y="-98.26" font-family="Helvetica,sans-Serif" font-size="10.00">make_inner_solver</text>
</a>
</g>
</g>
<!-- Node7&#45;&gt;Node11 -->
<g id="edge14" class="edge">
<title>Node7&#45;&gt;Node11</title>
<path fill="none" stroke="#63b8ff" d="M216.02,-100.12C206.3,-100.19 195.97,-100.27 186.02,-100.35"/>
<polygon fill="#63b8ff" stroke="#63b8ff" points="216.32,-103.61 226.29,-100.04 216.26,-96.61 216.32,-103.61"/>
</g>
<!-- Node8&#45;&gt;Node3 -->
<g id="edge9" class="edge">
<title>Node8&#45;&gt;Node3</title>
<path fill="none" stroke="#63b8ff" d="M70.89,-53.37C60.15,-51.5 49.68,-49.67 41.16,-48.18"/>
<polygon fill="#63b8ff" stroke="#63b8ff" points="70.33,-56.82 80.78,-55.09 71.53,-49.93 70.33,-56.82"/>
</g>
<!-- Node9&#45;&gt;Node3 -->
<g id="edge11" class="edge">
<title>Node9&#45;&gt;Node3</title>
<path fill="none" stroke="#63b8ff" d="M67.08,-37.23C57.68,-38.78 48.65,-40.27 41.14,-41.52"/>
<polygon fill="#63b8ff" stroke="#63b8ff" points="67.66,-40.68 76.96,-35.6 66.52,-33.78 67.66,-40.68"/>
</g>
</g>
</svg>
