<?xml version="1.0" encoding="UTF-8" standalone="no"?>
<!DOCTYPE svg PUBLIC "-//W3C//DTD SVG 1.1//EN"
 "http://www.w3.org/Graphics/SVG/1.1/DTD/svg11.dtd">
<!-- Generated by graphviz version 2.43.0 (0)
 -->
<!-- Title: set_params Pages: 1 -->
<svg width="304pt" height="175pt"
 viewBox="0.00 0.00 304.00 175.00" xmlns="http://www.w3.org/2000/svg" xmlns:xlink="http://www.w3.org/1999/xlink">
<g id="graph0" class="graph" transform="scale(1 1) rotate(0) translate(4 171)">
<title>set_params</title>
<!-- Node1 -->
<g id="node1" class="node">
<title>Node1</title>
<g id="a_node1"><a xlink:title=" ">
<polygon fill="#999999" stroke="#666666" points="296,-93 222,-93 222,-74 296,-74 296,-93"/>
<text text-anchor="middle" x="259" y="-81" font-family="Helvetica,sans-Serif" font-size="10.00">set_params</text>
</a>
</g>
</g>
<!-- Node2 -->
<g id="node2" class="node">
<title>Node2</title>
<g id="a_node2"><a xlink:href="alpaqa-driver_8cpp.html#abdc7f0491e5c38d6f9569a0aad3d2925" target="_top" xlink:title=" ">
<polygon fill="white" stroke="#666666" points="182,-167 81,-167 81,-148 182,-148 182,-167"/>
<text text-anchor="middle" x="131.5" y="-155" font-family="Helvetica,sans-Serif" font-size="10.00">get_output_paths</text>
</a>
</g>
</g>
<!-- Node1&#45;&gt;Node2 -->
<g id="edge1" class="edge">
<title>Node1&#45;&gt;Node2</title>
<path fill="none" stroke="#63b8ff" d="M240.28,-100.06C226.39,-112.32 206.1,-128.7 186,-139.5 179.96,-142.75 173.22,-145.56 166.62,-147.94"/>
<polygon fill="#63b8ff" stroke="#63b8ff" points="242.97,-102.34 248.04,-93.04 238.28,-97.15 242.97,-102.34"/>
</g>
<!-- Node4 -->
<g id="node4" class="node">
<title>Node4</title>
<g id="a_node4"><a xlink:href="alpaqa-driver_8cpp.html#a62667720f096806ed08c60e4207f8972" target="_top" xlink:title=" ">
<polygon fill="white" stroke="#666666" points="186,-130 77,-130 77,-111 186,-111 186,-130"/>
<text text-anchor="middle" x="131.5" y="-118" font-family="Helvetica,sans-Serif" font-size="10.00">get_output_stream</text>
</a>
</g>
</g>
<!-- Node1&#45;&gt;Node4 -->
<g id="edge3" class="edge">
<title>Node1&#45;&gt;Node4</title>
<path fill="none" stroke="#63b8ff" d="M215.72,-95.96C199.22,-100.83 180.59,-106.32 165.15,-110.88"/>
<polygon fill="#63b8ff" stroke="#63b8ff" points="217.08,-99.21 225.68,-93.03 215.1,-92.5 217.08,-99.21"/>
</g>
<!-- Node5 -->
<g id="node5" class="node">
<title>Node5</title>
<g id="a_node5"><a xlink:href="alpaqa-driver_8cpp.html#a3430011226186bf05d5c2552270587b7" target="_top" xlink:title=" ">
<polygon fill="white" stroke="#666666" points="185,-93 78,-93 78,-74 185,-74 185,-93"/>
<text text-anchor="middle" x="131.5" y="-81" font-family="Helvetica,sans-Serif" font-size="10.00">get_solver_builder</text>
</a>
</g>
</g>
<!-- Node1&#45;&gt;Node5 -->
<g id="edge5" class="edge">
<title>Node1&#45;&gt;Node5</title>
<path fill="none" stroke="#63b8ff" d="M211.47,-83.5C202.87,-83.5 193.82,-83.5 185.06,-83.5"/>
<polygon fill="#63b8ff" stroke="#63b8ff" points="211.7,-87 221.7,-83.5 211.7,-80 211.7,-87"/>
</g>
<!-- Node6 -->
<g id="node6" class="node">
<title>Node6</title>
<g id="a_node6"><a xlink:href="alm-driver_8hpp.html#ae4ef291d9ec9d55ee804b5723ea2e641" target="_top" xlink:title=" ">
<polygon fill="white" stroke="#666666" points="183,-56 80,-56 80,-37 183,-37 183,-56"/>
<text text-anchor="middle" x="131.5" y="-44" font-family="Helvetica,sans-Serif" font-size="10.00">make_alm_solver</text>
</a>
</g>
</g>
<!-- Node1&#45;&gt;Node6 -->
<g id="edge7" class="edge">
<title>Node1&#45;&gt;Node6</title>
<path fill="none" stroke="#63b8ff" d="M215.72,-71.04C199.22,-66.17 180.59,-60.68 165.15,-56.12"/>
<polygon fill="#63b8ff" stroke="#63b8ff" points="215.1,-74.5 225.68,-73.97 217.08,-67.79 215.1,-74.5"/>
</g>
<!-- Node7 -->
<g id="node7" class="node">
<title>Node7</title>
<g id="a_node7"><a xlink:href="alm-driver_8hpp.html#a51b2a2cde56762bcb43a2f4da0913f98" target="_top" xlink:title=" ">
<polygon fill="white" stroke="#666666" points="186,-19 77,-19 77,0 186,0 186,-19"/>
<text text-anchor="middle" x="131.5" y="-7" font-family="Helvetica,sans-Serif" font-size="10.00">make_inner_solver</text>
</a>
</g>
</g>
<!-- Node1&#45;&gt;Node7 -->
<g id="edge8" class="edge">
<title>Node1&#45;&gt;Node7</title>
<path fill="none" stroke="#63b8ff" d="M239.69,-66.94C225.76,-55 205.7,-39.18 186,-28.5 179.33,-24.88 171.83,-21.72 164.61,-19.07"/>
<polygon fill="#63b8ff" stroke="#63b8ff" points="237.68,-69.83 247.51,-73.79 242.3,-64.56 237.68,-69.83"/>
</g>
<!-- Node3 -->
<g id="node3" class="node">
<title>Node3</title>
<g id="a_node3"><a xlink:href="alpaqa-driver_8cpp.html#ac0f2228420376f4db7e1274f2b41667c" target="_top" xlink:title=" ">
<polygon fill="white" stroke="#666666" points="41,-130 0,-130 0,-111 41,-111 41,-130"/>
<text text-anchor="middle" x="20.5" y="-118" font-family="Helvetica,sans-Serif" font-size="10.00">main</text>
</a>
</g>
</g>
<!-- Node2&#45;&gt;Node3 -->
<g id="edge2" class="edge">
<title>Node2&#45;&gt;Node3</title>
<path fill="none" stroke="#63b8ff" d="M92.39,-144.7C87.22,-142.96 81.98,-141.19 77,-139.5 65.04,-135.44 51.65,-130.86 41.01,-127.21"/>
<polygon fill="#63b8ff" stroke="#63b8ff" points="91.58,-148.12 102.17,-148 93.81,-141.49 91.58,-148.12"/>
</g>
<!-- Node4&#45;&gt;Node3 -->
<g id="edge4" class="edge">
<title>Node4&#45;&gt;Node3</title>
<path fill="none" stroke="#63b8ff" d="M66.79,-120.5C57.49,-120.5 48.57,-120.5 41.14,-120.5"/>
<polygon fill="#63b8ff" stroke="#63b8ff" points="66.96,-124 76.96,-120.5 66.96,-117 66.96,-124"/>
</g>
<!-- Node5&#45;&gt;Node3 -->
<g id="edge6" class="edge">
<title>Node5&#45;&gt;Node3</title>
<path fill="none" stroke="#63b8ff" d="M92.59,-96.37C75.28,-102.24 55.51,-108.95 41.22,-113.8"/>
<polygon fill="#63b8ff" stroke="#63b8ff" points="94.09,-99.56 102.43,-93.03 91.84,-92.93 94.09,-99.56"/>
</g>
</g>
</svg>
