<?xml version="1.0" encoding="UTF-8" standalone="no"?>
<!DOCTYPE svg PUBLIC "-//W3C//DTD SVG 1.1//EN"
 "http://www.w3.org/Graphics/SVG/1.1/DTD/svg11.dtd">
<!-- Generated by graphviz version 2.43.0 (0)
 -->
<!-- Title: panoc&#45;helpers.cpp Pages: 1 -->
<svg width="2133pt" height="467pt"
 viewBox="0.00 0.00 2133.08 467.00" xmlns="http://www.w3.org/2000/svg" xmlns:xlink="http://www.w3.org/1999/xlink">
<g id="graph0" class="graph" transform="scale(1 1) rotate(0) translate(4 463)">
<title>panoc&#45;helpers.cpp</title>
<!-- Node1 -->
<g id="node1" class="node">
<title>Node1</title>
<g id="a_node1"><a xlink:title=" ">
<polygon fill="#999999" stroke="#666666" points="909.58,-459 803.58,-459 803.58,-440 909.58,-440 909.58,-459"/>
<text text-anchor="middle" x="856.58" y="-447" font-family="Helvetica,sans-Serif" font-size="10.00">panoc&#45;helpers.cpp</text>
</a>
</g>
</g>
<!-- Node2 -->
<g id="node2" class="node">
<title>Node2</title>
<g id="a_node2"><a xlink:href="panoc-helpers_8tpp.html" target="_top" xlink:title=" ">
<polygon fill="white" stroke="#666666" points="924.08,-404 789.08,-404 789.08,-374 924.08,-374 924.08,-404"/>
<text text-anchor="start" x="797.08" y="-392" font-family="Helvetica,sans-Serif" font-size="10.00">alpaqa/implementation</text>
<text text-anchor="middle" x="856.58" y="-381" font-family="Helvetica,sans-Serif" font-size="10.00">/inner/panoc&#45;helpers.tpp</text>
</a>
</g>
</g>
<!-- Node1&#45;&gt;Node2 -->
<g id="edge1" class="edge">
<title>Node1&#45;&gt;Node2</title>
<path fill="none" stroke="#63b8ff" d="M856.58,-439.87C856.58,-433.11 856.58,-423.35 856.58,-414.26"/>
<polygon fill="#63b8ff" stroke="#63b8ff" points="860.08,-414.11 856.58,-404.11 853.08,-414.11 860.08,-414.11"/>
</g>
<!-- Node3 -->
<g id="node3" class="node">
<title>Node3</title>
<g id="a_node3"><a xlink:href="config_8hpp.html" target="_top" xlink:title=" ">
<polygon fill="white" stroke="#666666" points="219.08,-200.5 84.08,-200.5 84.08,-181.5 219.08,-181.5 219.08,-200.5"/>
<text text-anchor="middle" x="151.58" y="-188.5" font-family="Helvetica,sans-Serif" font-size="10.00">alpaqa/config/config.hpp</text>
</a>
</g>
</g>
<!-- Node2&#45;&gt;Node3 -->
<g id="edge2" class="edge">
<title>Node2&#45;&gt;Node3</title>
<path fill="none" stroke="#63b8ff" d="M788.88,-386.52C592.4,-381.89 34.26,-366.3 7.58,-338 -7.66,-321.84 3.88,-260.85 19.58,-242 35.84,-222.47 60.59,-210.56 84.28,-203.29"/>
<polygon fill="#63b8ff" stroke="#63b8ff" points="85.32,-206.64 93.99,-200.55 83.41,-199.9 85.32,-206.64"/>
</g>
<!-- Node8 -->
<g id="node8" class="node">
<title>Node8</title>
<g id="a_node8"><a xlink:href="export_8hpp.html" target="_top" xlink:title=" ">
<polygon fill="white" stroke="#666666" points="1679.08,-74 1574.08,-74 1574.08,-55 1679.08,-55 1679.08,-74"/>
<text text-anchor="middle" x="1626.58" y="-62" font-family="Helvetica,sans-Serif" font-size="10.00">alpaqa/export.hpp</text>
</a>
</g>
</g>
<!-- Node2&#45;&gt;Node8 -->
<g id="edge7" class="edge">
<title>Node2&#45;&gt;Node8</title>
<path fill="none" stroke="#63b8ff" d="M924.18,-387.4C1168.52,-384.36 1991.58,-366.09 1991.58,-258 1991.58,-258 1991.58,-258 1991.58,-190 1991.58,-145.29 1969.1,-132.69 1930.58,-110 1890.83,-86.58 1765.99,-74.49 1689.21,-69.12"/>
<polygon fill="#63b8ff" stroke="#63b8ff" points="1689.38,-65.62 1679.17,-68.43 1688.91,-72.6 1689.38,-65.62"/>
</g>
<!-- Node10 -->
<g id="node10" class="node">
<title>Node10</title>
<g id="a_node10"><a xlink:href="inner-solve-options_8hpp.html" target="_top" xlink:title=" ">
<polygon fill="white" stroke="#666666" points="124.08,-338 17.08,-338 17.08,-308 124.08,-308 124.08,-338"/>
<text text-anchor="start" x="25.08" y="-326" font-family="Helvetica,sans-Serif" font-size="10.00">alpaqa/inner/inner</text>
<text text-anchor="middle" x="70.58" y="-315" font-family="Helvetica,sans-Serif" font-size="10.00">&#45;solve&#45;options.hpp</text>
</a>
</g>
</g>
<!-- Node2&#45;&gt;Node10 -->
<g id="edge9" class="edge">
<title>Node2&#45;&gt;Node10</title>
<path fill="none" stroke="#63b8ff" d="M788.88,-382.49C638.97,-370.28 280.7,-341.11 134.43,-329.2"/>
<polygon fill="#63b8ff" stroke="#63b8ff" points="134.52,-325.69 124.27,-328.37 133.95,-332.67 134.52,-325.69"/>
</g>
<!-- Node13 -->
<g id="node13" class="node">
<title>Node13</title>
<g id="a_node13"><a xlink:href="panoc-stop-crit_8hpp.html" target="_top" xlink:title=" ">
<polygon fill="white" stroke="#666666" points="926.58,-206 808.58,-206 808.58,-176 926.58,-176 926.58,-206"/>
<text text-anchor="start" x="816.58" y="-194" font-family="Helvetica,sans-Serif" font-size="10.00">alpaqa/inner/internal</text>
<text text-anchor="middle" x="867.58" y="-183" font-family="Helvetica,sans-Serif" font-size="10.00">/panoc&#45;stop&#45;crit.hpp</text>
</a>
</g>
</g>
<!-- Node2&#45;&gt;Node13 -->
<g id="edge13" class="edge">
<title>Node2&#45;&gt;Node13</title>
<path fill="none" stroke="#63b8ff" d="M857.37,-373.9C859.23,-340.79 863.89,-257.7 866.21,-216.27"/>
<polygon fill="#63b8ff" stroke="#63b8ff" points="869.71,-216.41 866.78,-206.23 862.72,-216.02 869.71,-216.41"/>
</g>
<!-- Node15 -->
<g id="node15" class="node">
<title>Node15</title>
<g id="a_node15"><a xlink:title=" ">
<polygon fill="#e0e0e0" stroke="#999999" points="729.08,-134.5 664.08,-134.5 664.08,-115.5 729.08,-115.5 729.08,-134.5"/>
<text text-anchor="middle" x="696.58" y="-122.5" font-family="Helvetica,sans-Serif" font-size="10.00">stdexcept</text>
</a>
</g>
</g>
<!-- Node2&#45;&gt;Node15 -->
<g id="edge72" class="edge">
<title>Node2&#45;&gt;Node15</title>
<path fill="none" stroke="#63b8ff" d="M849.99,-373.77C833.53,-338.78 788.39,-246.25 739.58,-176 731.29,-164.07 720.66,-151.69 712.04,-142.23"/>
<polygon fill="#63b8ff" stroke="#63b8ff" points="714.46,-139.7 705.09,-134.76 709.34,-144.47 714.46,-139.7"/>
</g>
<!-- Node16 -->
<g id="node16" class="node">
<title>Node16</title>
<g id="a_node16"><a xlink:href="solverstatus_8hpp.html" target="_top" xlink:title=" ">
<polygon fill="white" stroke="#666666" points="1062.58,-206 944.58,-206 944.58,-176 1062.58,-176 1062.58,-206"/>
<text text-anchor="start" x="952.58" y="-194" font-family="Helvetica,sans-Serif" font-size="10.00">alpaqa/inner/internal</text>
<text text-anchor="middle" x="1003.58" y="-183" font-family="Helvetica,sans-Serif" font-size="10.00">/solverstatus.hpp</text>
</a>
</g>
</g>
<!-- Node2&#45;&gt;Node16 -->
<g id="edge16" class="edge">
<title>Node2&#45;&gt;Node16</title>
<path fill="none" stroke="#63b8ff" d="M894.74,-373.92C912.5,-365.75 932.7,-353.89 946.58,-338 977.8,-302.25 992.94,-247.44 999.41,-216.13"/>
<polygon fill="#63b8ff" stroke="#63b8ff" points="1002.89,-216.59 1001.36,-206.11 996.02,-215.26 1002.89,-216.59"/>
</g>
<!-- Node17 -->
<g id="node17" class="node">
<title>Node17</title>
<g id="a_node17"><a xlink:href="type-erased-problem_8hpp.html" target="_top" xlink:title=" ">
<polygon fill="white" stroke="#666666" points="764.08,-338 645.08,-338 645.08,-308 764.08,-308 764.08,-338"/>
<text text-anchor="start" x="653.08" y="-326" font-family="Helvetica,sans-Serif" font-size="10.00">alpaqa/problem/type</text>
<text text-anchor="middle" x="704.58" y="-315" font-family="Helvetica,sans-Serif" font-size="10.00">&#45;erased&#45;problem.hpp</text>
</a>
</g>
</g>
<!-- Node2&#45;&gt;Node17 -->
<g id="edge20" class="edge">
<title>Node2&#45;&gt;Node17</title>
<path fill="none" stroke="#63b8ff" d="M823.22,-373.95C800.85,-364.53 771.18,-352.04 747.11,-341.91"/>
<polygon fill="#63b8ff" stroke="#63b8ff" points="748.43,-338.67 737.86,-338.01 745.71,-345.12 748.43,-338.67"/>
</g>
<!-- Node26 -->
<g id="node26" class="node">
<title>Node26</title>
<g id="a_node26"><a xlink:href="not-implemented_8hpp.html" target="_top" xlink:title=" ">
<polygon fill="white" stroke="#666666" points="715.08,-200.5 538.08,-200.5 538.08,-181.5 715.08,-181.5 715.08,-200.5"/>
<text text-anchor="middle" x="626.58" y="-188.5" font-family="Helvetica,sans-Serif" font-size="10.00">alpaqa/util/not&#45;implemented.hpp</text>
</a>
</g>
</g>
<!-- Node2&#45;&gt;Node26 -->
<g id="edge71" class="edge">
<title>Node2&#45;&gt;Node26</title>
<path fill="none" stroke="#63b8ff" d="M843.69,-373.73C818.63,-346.4 760.9,-285.51 705.58,-242 688.19,-228.33 666.93,-215.05 650.85,-205.61"/>
<polygon fill="#63b8ff" stroke="#63b8ff" points="652.46,-202.5 642.05,-200.53 648.95,-208.56 652.46,-202.5"/>
</g>
<!-- Node40 -->
<g id="node40" class="node">
<title>Node40</title>
<g id="a_node40"><a xlink:href="atomic-stop-signal_8hpp.html" target="_top" xlink:title=" ">
<polygon fill="white" stroke="#666666" points="2125.08,-338 2020.08,-338 2020.08,-308 2125.08,-308 2125.08,-338"/>
<text text-anchor="start" x="2028.08" y="-326" font-family="Helvetica,sans-Serif" font-size="10.00">alpaqa/util/atomic</text>
<text text-anchor="middle" x="2072.58" y="-315" font-family="Helvetica,sans-Serif" font-size="10.00">&#45;stop&#45;signal.hpp</text>
</a>
</g>
</g>
<!-- Node2&#45;&gt;Node40 -->
<g id="edge69" class="edge">
<title>Node2&#45;&gt;Node40</title>
<path fill="none" stroke="#63b8ff" d="M924.33,-386.5C1137.73,-381.54 1794.33,-364.49 2005.58,-338 2007.05,-337.82 2008.54,-337.62 2010.04,-337.4"/>
<polygon fill="#63b8ff" stroke="#63b8ff" points="2010.72,-340.84 2020.05,-335.82 2009.62,-333.92 2010.72,-340.84"/>
</g>
<!-- Node4 -->
<g id="node4" class="node">
<title>Node4</title>
<g id="a_node4"><a xlink:href="quadmath_8hpp.html" target="_top" xlink:title=" ">
<polygon fill="white" stroke="#666666" points="388.08,-140 267.08,-140 267.08,-110 388.08,-110 388.08,-140"/>
<text text-anchor="start" x="275.08" y="-128" font-family="Helvetica,sans-Serif" font-size="10.00">alpaqa/util/quadmath</text>
<text text-anchor="middle" x="327.58" y="-117" font-family="Helvetica,sans-Serif" font-size="10.00">/quadmath.hpp</text>
</a>
</g>
</g>
<!-- Node3&#45;&gt;Node4 -->
<g id="edge3" class="edge">
<title>Node3&#45;&gt;Node4</title>
<path fill="none" stroke="#63b8ff" d="M175.31,-181.37C201.79,-171.74 245.32,-155.91 279.07,-143.64"/>
<polygon fill="#63b8ff" stroke="#63b8ff" points="280.56,-146.82 288.76,-140.12 278.16,-140.24 280.56,-146.82"/>
</g>
<!-- Node5 -->
<g id="node5" class="node">
<title>Node5</title>
<g id="a_node5"><a xlink:title=" ">
<polygon fill="#e0e0e0" stroke="#999999" points="123.58,-134.5 79.58,-134.5 79.58,-115.5 123.58,-115.5 123.58,-134.5"/>
<text text-anchor="middle" x="101.58" y="-122.5" font-family="Helvetica,sans-Serif" font-size="10.00">limits</text>
</a>
</g>
</g>
<!-- Node3&#45;&gt;Node5 -->
<g id="edge4" class="edge">
<title>Node3&#45;&gt;Node5</title>
<path fill="none" stroke="#63b8ff" d="M144.83,-181.37C137.2,-171.59 124.56,-155.42 114.92,-143.08"/>
<polygon fill="#63b8ff" stroke="#63b8ff" points="117.45,-140.63 108.53,-134.91 111.93,-144.94 117.45,-140.63"/>
</g>
<!-- Node6 -->
<g id="node6" class="node">
<title>Node6</title>
<g id="a_node6"><a xlink:title=" ">
<polygon fill="#e0e0e0" stroke="#999999" points="451.08,-74 382.08,-74 382.08,-55 451.08,-55 451.08,-74"/>
<text text-anchor="middle" x="416.58" y="-62" font-family="Helvetica,sans-Serif" font-size="10.00">type_traits</text>
</a>
</g>
</g>
<!-- Node3&#45;&gt;Node6 -->
<g id="edge5" class="edge">
<title>Node3&#45;&gt;Node6</title>
<path fill="none" stroke="#63b8ff" d="M150.83,-181.29C149.93,-164.8 150.57,-128.95 170.58,-110 198.93,-83.14 309.01,-72.05 371.88,-67.84"/>
<polygon fill="#63b8ff" stroke="#63b8ff" points="372.17,-71.33 381.92,-67.19 371.72,-64.34 372.17,-71.33"/>
</g>
<!-- Node7 -->
<g id="node7" class="node">
<title>Node7</title>
<g id="a_node7"><a xlink:title=" ">
<polygon fill="#e0e0e0" stroke="#999999" points="249.08,-134.5 180.08,-134.5 180.08,-115.5 249.08,-115.5 249.08,-134.5"/>
<text text-anchor="middle" x="214.58" y="-122.5" font-family="Helvetica,sans-Serif" font-size="10.00">Eigen/Core</text>
</a>
</g>
</g>
<!-- Node3&#45;&gt;Node7 -->
<g id="edge6" class="edge">
<title>Node3&#45;&gt;Node7</title>
<path fill="none" stroke="#63b8ff" d="M160.07,-181.37C169.88,-171.4 186.23,-154.79 198.47,-142.36"/>
<polygon fill="#63b8ff" stroke="#63b8ff" points="201.29,-144.49 205.81,-134.91 196.3,-139.58 201.29,-144.49"/>
</g>
<!-- Node9 -->
<g id="node9" class="node">
<title>Node9</title>
<g id="a_node9"><a xlink:title=" ">
<polygon fill="#e0e0e0" stroke="#999999" points="1134.08,-19 1041.08,-19 1041.08,0 1134.08,0 1134.08,-19"/>
<text text-anchor="middle" x="1087.58" y="-7" font-family="Helvetica,sans-Serif" font-size="10.00">alpaqa/export.h</text>
</a>
</g>
</g>
<!-- Node8&#45;&gt;Node9 -->
<g id="edge8" class="edge">
<title>Node8&#45;&gt;Node9</title>
<path fill="none" stroke="#63b8ff" d="M1573.83,-56.11C1570.7,-55.72 1567.6,-55.35 1564.58,-55 1413.17,-37.57 1234.12,-22.29 1144.57,-15.02"/>
<polygon fill="#63b8ff" stroke="#63b8ff" points="1144.61,-11.51 1134.36,-14.19 1144.05,-18.48 1144.61,-11.51"/>
</g>
<!-- Node10&#45;&gt;Node3 -->
<g id="edge10" class="edge">
<title>Node10&#45;&gt;Node3</title>
<path fill="none" stroke="#63b8ff" d="M53.57,-307.92C35.91,-291.55 12.76,-263.96 27.58,-242 40.64,-222.64 62.59,-210.78 84.42,-203.51"/>
<polygon fill="#63b8ff" stroke="#63b8ff" points="85.53,-206.83 94.08,-200.57 83.49,-200.13 85.53,-206.83"/>
</g>
<!-- Node11 -->
<g id="node11" class="node">
<title>Node11</title>
<g id="a_node11"><a xlink:title=" ">
<polygon fill="#e0e0e0" stroke="#999999" points="119.58,-266.5 69.58,-266.5 69.58,-247.5 119.58,-247.5 119.58,-266.5"/>
<text text-anchor="middle" x="94.58" y="-254.5" font-family="Helvetica,sans-Serif" font-size="10.00">chrono</text>
</a>
</g>
</g>
<!-- Node10&#45;&gt;Node11 -->
<g id="edge11" class="edge">
<title>Node10&#45;&gt;Node11</title>
<path fill="none" stroke="#63b8ff" d="M75.9,-307.8C79.39,-298.5 83.97,-286.27 87.73,-276.26"/>
<polygon fill="#63b8ff" stroke="#63b8ff" points="91.03,-277.44 91.26,-266.84 84.47,-274.98 91.03,-277.44"/>
</g>
<!-- Node12 -->
<g id="node12" class="node">
<title>Node12</title>
<g id="a_node12"><a xlink:title=" ">
<polygon fill="#e0e0e0" stroke="#999999" points="293.58,-200.5 237.58,-200.5 237.58,-181.5 293.58,-181.5 293.58,-200.5"/>
<text text-anchor="middle" x="265.58" y="-188.5" font-family="Helvetica,sans-Serif" font-size="10.00">optional</text>
</a>
</g>
</g>
<!-- Node10&#45;&gt;Node12 -->
<g id="edge12" class="edge">
<title>Node10&#45;&gt;Node12</title>
<path fill="none" stroke="#63b8ff" d="M63.17,-307.86C55.17,-290.41 45.45,-260.73 60.58,-242 108.27,-182.92 154.66,-227.18 227.58,-206 229.85,-205.34 232.19,-204.61 234.54,-203.84"/>
<polygon fill="#63b8ff" stroke="#63b8ff" points="235.75,-207.12 244.05,-200.53 233.45,-200.51 235.75,-207.12"/>
</g>
<!-- Node14 -->
<g id="node14" class="node">
<title>Node14</title>
<g id="a_node14"><a xlink:title=" ">
<polygon fill="#e0e0e0" stroke="#999999" points="795.58,-134.5 747.58,-134.5 747.58,-115.5 795.58,-115.5 795.58,-134.5"/>
<text text-anchor="middle" x="771.58" y="-122.5" font-family="Helvetica,sans-Serif" font-size="10.00">iosfwd</text>
</a>
</g>
</g>
<!-- Node13&#45;&gt;Node14 -->
<g id="edge14" class="edge">
<title>Node13&#45;&gt;Node14</title>
<path fill="none" stroke="#63b8ff" d="M846.27,-175.8C830.48,-165.27 809.03,-150.97 793.17,-140.4"/>
<polygon fill="#63b8ff" stroke="#63b8ff" points="794.83,-137.29 784.56,-134.66 790.94,-143.12 794.83,-137.29"/>
</g>
<!-- Node13&#45;&gt;Node15 -->
<g id="edge15" class="edge">
<title>Node13&#45;&gt;Node15</title>
<path fill="none" stroke="#63b8ff" d="M830.05,-175.95C799.8,-164.63 757.7,-148.88 728.92,-138.1"/>
<polygon fill="#63b8ff" stroke="#63b8ff" points="729.93,-134.74 719.33,-134.52 727.47,-141.3 729.93,-134.74"/>
</g>
<!-- Node16&#45;&gt;Node9 -->
<g id="edge17" class="edge">
<title>Node16&#45;&gt;Node9</title>
<path fill="none" stroke="#63b8ff" d="M1030.02,-175.86C1043.44,-167.28 1058.73,-155.08 1067.58,-140 1088.13,-104.96 1089.74,-55.79 1088.83,-29.26"/>
<polygon fill="#63b8ff" stroke="#63b8ff" points="1092.32,-28.89 1088.32,-19.08 1085.33,-29.25 1092.32,-28.89"/>
</g>
<!-- Node16&#45;&gt;Node14 -->
<g id="edge18" class="edge">
<title>Node16&#45;&gt;Node14</title>
<path fill="none" stroke="#63b8ff" d="M944.55,-177.69C904.58,-168.75 850.84,-155.52 804.58,-140 802.95,-139.46 801.3,-138.87 799.64,-138.25"/>
<polygon fill="#63b8ff" stroke="#63b8ff" points="800.81,-134.95 790.23,-134.51 798.23,-141.46 800.81,-134.95"/>
</g>
<!-- Node16&#45;&gt;Node15 -->
<g id="edge19" class="edge">
<title>Node16&#45;&gt;Node15</title>
<path fill="none" stroke="#63b8ff" d="M944.25,-177.71C941.32,-177.12 938.42,-176.55 935.58,-176 848.2,-159.02 824.79,-162.13 738.58,-140 735.78,-139.28 732.91,-138.48 730.04,-137.62"/>
<polygon fill="#63b8ff" stroke="#63b8ff" points="730.98,-134.25 720.39,-134.59 728.88,-140.93 730.98,-134.25"/>
</g>
<!-- Node17&#45;&gt;Node3 -->
<g id="edge21" class="edge">
<title>Node17&#45;&gt;Node3</title>
<path fill="none" stroke="#63b8ff" d="M644.9,-322.32C528.75,-321.93 277.32,-315.87 204.58,-272 181.21,-257.91 166.05,-229.11 158.16,-210.18"/>
<polygon fill="#63b8ff" stroke="#63b8ff" points="161.32,-208.65 154.43,-200.6 154.8,-211.19 161.32,-208.65"/>
</g>
<!-- Node17&#45;&gt;Node6 -->
<g id="edge67" class="edge">
<title>Node17&#45;&gt;Node6</title>
<path fill="none" stroke="#63b8ff" d="M645.02,-320.23C524.78,-316.04 257.2,-303.39 171.58,-272 149.7,-263.98 147.83,-255.13 128.58,-242 104.75,-225.75 88.95,-231.01 74.58,-206 53.3,-168.98 42.37,-142.06 70.58,-110 90.2,-87.69 283.04,-73.44 372.01,-68"/>
<polygon fill="#63b8ff" stroke="#63b8ff" points="372.3,-71.49 382.07,-67.39 371.88,-64.5 372.3,-71.49"/>
</g>
<!-- Node17&#45;&gt;Node8 -->
<g id="edge22" class="edge">
<title>Node17&#45;&gt;Node8</title>
<path fill="none" stroke="#63b8ff" d="M764.51,-319.99C875.81,-315.64 1121.73,-303.11 1326.58,-272 1590.95,-231.85 1746.52,-348.8 1913.58,-140 1921.91,-129.59 1922.25,-120.12 1913.58,-110 1885.34,-77.04 1765.29,-68.29 1689.68,-66.09"/>
<polygon fill="#63b8ff" stroke="#63b8ff" points="1689.41,-62.58 1679.32,-65.82 1689.23,-69.58 1689.41,-62.58"/>
</g>
<!-- Node17&#45;&gt;Node11 -->
<g id="edge65" class="edge">
<title>Node17&#45;&gt;Node11</title>
<path fill="none" stroke="#63b8ff" d="M645.05,-321.8C540.37,-320.33 317.04,-312.26 133.58,-272 130.74,-271.38 127.84,-270.61 124.95,-269.74"/>
<polygon fill="#63b8ff" stroke="#63b8ff" points="125.93,-266.38 115.34,-266.57 123.73,-273.03 125.93,-266.38"/>
</g>
<!-- Node17&#45;&gt;Node15 -->
<g id="edge66" class="edge">
<title>Node17&#45;&gt;Node15</title>
<path fill="none" stroke="#63b8ff" d="M709.94,-307.7C719.08,-281.31 735.54,-223.33 723.58,-176 720.63,-164.36 714.39,-152.48 708.64,-143.23"/>
<polygon fill="#63b8ff" stroke="#63b8ff" points="711.42,-141.08 703,-134.65 705.57,-144.93 711.42,-141.08"/>
</g>
<!-- Node18 -->
<g id="node18" class="node">
<title>Node18</title>
<g id="a_node18"><a xlink:href="box_8hpp.html" target="_top" xlink:title=" ">
<polygon fill="white" stroke="#666666" points="515.08,-266.5 380.08,-266.5 380.08,-247.5 515.08,-247.5 515.08,-266.5"/>
<text text-anchor="middle" x="447.58" y="-254.5" font-family="Helvetica,sans-Serif" font-size="10.00">alpaqa/problem/box.hpp</text>
</a>
</g>
</g>
<!-- Node17&#45;&gt;Node18 -->
<g id="edge23" class="edge">
<title>Node17&#45;&gt;Node18</title>
<path fill="none" stroke="#63b8ff" d="M648.18,-307.95C601.12,-296.24 534.99,-279.77 491.72,-268.99"/>
<polygon fill="#63b8ff" stroke="#63b8ff" points="492.33,-265.54 481.78,-266.52 490.64,-272.33 492.33,-265.54"/>
</g>
<!-- Node23 -->
<g id="node23" class="node">
<title>Node23</title>
<g id="a_node23"><a xlink:href="alloc-check_8hpp.html" target="_top" xlink:title=" ">
<polygon fill="white" stroke="#666666" points="361.58,-266.5 213.58,-266.5 213.58,-247.5 361.58,-247.5 361.58,-266.5"/>
<text text-anchor="middle" x="287.58" y="-254.5" font-family="Helvetica,sans-Serif" font-size="10.00">alpaqa/util/alloc&#45;check.hpp</text>
</a>
</g>
</g>
<!-- Node17&#45;&gt;Node23 -->
<g id="edge31" class="edge">
<title>Node17&#45;&gt;Node23</title>
<path fill="none" stroke="#63b8ff" d="M644.79,-313.39C577.92,-303.68 466.41,-287.25 370.58,-272 362.97,-270.79 354.97,-269.48 347.07,-268.17"/>
<polygon fill="#63b8ff" stroke="#63b8ff" points="347.59,-264.71 337.15,-266.52 346.43,-271.61 347.59,-264.71"/>
</g>
<!-- Node24 -->
<g id="node24" class="node">
<title>Node24</title>
<g id="a_node24"><a xlink:href="check-dim_8hpp.html" target="_top" xlink:title=" ">
<polygon fill="white" stroke="#666666" points="676.08,-266.5 533.08,-266.5 533.08,-247.5 676.08,-247.5 676.08,-266.5"/>
<text text-anchor="middle" x="604.58" y="-254.5" font-family="Helvetica,sans-Serif" font-size="10.00">alpaqa/util/check&#45;dim.hpp</text>
</a>
</g>
</g>
<!-- Node17&#45;&gt;Node24 -->
<g id="edge33" class="edge">
<title>Node17&#45;&gt;Node24</title>
<path fill="none" stroke="#63b8ff" d="M682.38,-307.8C665.78,-297.17 643.18,-282.7 626.61,-272.1"/>
<polygon fill="#63b8ff" stroke="#63b8ff" points="628.41,-269.1 618.1,-266.66 624.64,-275 628.41,-269.1"/>
</g>
<!-- Node17&#45;&gt;Node26 -->
<g id="edge38" class="edge">
<title>Node17&#45;&gt;Node26</title>
<path fill="none" stroke="#63b8ff" d="M703.64,-308C701.97,-291.2 697.34,-262.72 684.58,-242 675.71,-227.61 661.34,-215.18 649.13,-206.31"/>
<polygon fill="#63b8ff" stroke="#63b8ff" points="650.94,-203.31 640.72,-200.51 646.96,-209.07 650.94,-203.31"/>
</g>
<!-- Node27 -->
<g id="node27" class="node">
<title>Node27</title>
<g id="a_node27"><a xlink:href="required-method_8hpp.html" target="_top" xlink:title=" ">
<polygon fill="white" stroke="#666666" points="1317.58,-272 1205.58,-272 1205.58,-242 1317.58,-242 1317.58,-272"/>
<text text-anchor="start" x="1213.58" y="-260" font-family="Helvetica,sans-Serif" font-size="10.00">alpaqa/util/required</text>
<text text-anchor="middle" x="1261.58" y="-249" font-family="Helvetica,sans-Serif" font-size="10.00">&#45;method.hpp</text>
</a>
</g>
</g>
<!-- Node17&#45;&gt;Node27 -->
<g id="edge41" class="edge">
<title>Node17&#45;&gt;Node27</title>
<path fill="none" stroke="#63b8ff" d="M764.19,-315.15C868.99,-303.11 1085.53,-278.23 1195.05,-265.64"/>
<polygon fill="#63b8ff" stroke="#63b8ff" points="1195.77,-269.08 1205.3,-264.47 1194.97,-262.13 1195.77,-269.08"/>
</g>
<!-- Node28 -->
<g id="node28" class="node">
<title>Node28</title>
<g id="a_node28"><a xlink:href="type-erasure_8hpp.html" target="_top" xlink:title=" ">
<polygon fill="white" stroke="#666666" points="1339.08,-200.5 1184.08,-200.5 1184.08,-181.5 1339.08,-181.5 1339.08,-200.5"/>
<text text-anchor="middle" x="1261.58" y="-188.5" font-family="Helvetica,sans-Serif" font-size="10.00">alpaqa/util/type&#45;erasure.hpp</text>
</a>
</g>
</g>
<!-- Node17&#45;&gt;Node28 -->
<g id="edge64" class="edge">
<title>Node17&#45;&gt;Node28</title>
<path fill="none" stroke="#63b8ff" d="M764.19,-308.09C875.84,-282.03 1114.28,-226.38 1215.07,-202.85"/>
<polygon fill="#63b8ff" stroke="#63b8ff" points="1216.01,-206.23 1224.96,-200.55 1214.42,-199.41 1216.01,-206.23"/>
</g>
<!-- Node39 -->
<g id="node39" class="node">
<title>Node39</title>
<g id="a_node39"><a xlink:title=" ">
<polygon fill="#e0e0e0" stroke="#999999" points="859.08,-134.5 814.08,-134.5 814.08,-115.5 859.08,-115.5 859.08,-134.5"/>
<text text-anchor="middle" x="836.58" y="-122.5" font-family="Helvetica,sans-Serif" font-size="10.00">utility</text>
</a>
</g>
</g>
<!-- Node17&#45;&gt;Node39 -->
<g id="edge68" class="edge">
<title>Node17&#45;&gt;Node39</title>
<path fill="none" stroke="#63b8ff" d="M740.86,-307.92C785.05,-291.04 862.14,-262.49 929.58,-242 991.87,-223.07 1031.59,-257.38 1071.58,-206 1079.76,-195.48 1080.16,-186.2 1071.58,-176 1011.16,-104.23 952.49,-169.95 863.58,-140 862.53,-139.65 861.47,-139.26 860.4,-138.84"/>
<polygon fill="#63b8ff" stroke="#63b8ff" points="861.62,-135.54 851.07,-134.55 858.7,-141.91 861.62,-135.54"/>
</g>
<!-- Node18&#45;&gt;Node3 -->
<g id="edge24" class="edge">
<title>Node18&#45;&gt;Node3</title>
<path fill="none" stroke="#63b8ff" d="M407.96,-247.44C354.46,-235.87 259.13,-215.26 201.01,-202.69"/>
<polygon fill="#63b8ff" stroke="#63b8ff" points="201.47,-199.21 190.95,-200.51 199.99,-206.05 201.47,-199.21"/>
</g>
<!-- Node19 -->
<g id="node19" class="node">
<title>Node19</title>
<g id="a_node19"><a xlink:href="float_8hpp.html" target="_top" xlink:title=" ">
<polygon fill="white" stroke="#666666" points="482.58,-200.5 368.58,-200.5 368.58,-181.5 482.58,-181.5 482.58,-200.5"/>
<text text-anchor="middle" x="425.58" y="-188.5" font-family="Helvetica,sans-Serif" font-size="10.00">alpaqa/util/float.hpp</text>
</a>
</g>
</g>
<!-- Node18&#45;&gt;Node19 -->
<g id="edge25" class="edge">
<title>Node18&#45;&gt;Node19</title>
<path fill="none" stroke="#63b8ff" d="M444.61,-247.37C441.38,-237.97 436.12,-222.67 431.95,-210.53"/>
<polygon fill="#63b8ff" stroke="#63b8ff" points="435.2,-209.22 428.64,-200.91 428.58,-211.5 435.2,-209.22"/>
</g>
<!-- Node19&#45;&gt;Node4 -->
<g id="edge26" class="edge">
<title>Node19&#45;&gt;Node4</title>
<path fill="none" stroke="#63b8ff" d="M412.36,-181.37C398.44,-172.28 376.05,-157.66 357.78,-145.72"/>
<polygon fill="#63b8ff" stroke="#63b8ff" points="359.48,-142.65 349.19,-140.12 355.65,-148.51 359.48,-142.65"/>
</g>
<!-- Node19&#45;&gt;Node6 -->
<g id="edge30" class="edge">
<title>Node19&#45;&gt;Node6</title>
<path fill="none" stroke="#63b8ff" d="M424.96,-181.44C423.52,-161.54 419.92,-111.76 417.94,-84.35"/>
<polygon fill="#63b8ff" stroke="#63b8ff" points="421.41,-83.84 417.2,-74.12 414.43,-84.34 421.41,-83.84"/>
</g>
<!-- Node20 -->
<g id="node20" class="node">
<title>Node20</title>
<g id="a_node20"><a xlink:title=" ">
<polygon fill="#e0e0e0" stroke="#999999" points="492.08,-134.5 445.08,-134.5 445.08,-115.5 492.08,-115.5 492.08,-134.5"/>
<text text-anchor="middle" x="468.58" y="-122.5" font-family="Helvetica,sans-Serif" font-size="10.00">cmath</text>
</a>
</g>
</g>
<!-- Node19&#45;&gt;Node20 -->
<g id="edge27" class="edge">
<title>Node19&#45;&gt;Node20</title>
<path fill="none" stroke="#63b8ff" d="M431.38,-181.37C437.88,-171.69 448.6,-155.74 456.86,-143.44"/>
<polygon fill="#63b8ff" stroke="#63b8ff" points="459.92,-145.16 462.59,-134.91 454.11,-141.25 459.92,-145.16"/>
</g>
<!-- Node21 -->
<g id="node21" class="node">
<title>Node21</title>
<g id="a_node21"><a xlink:title=" ">
<polygon fill="#e0e0e0" stroke="#999999" points="569.08,-134.5 510.08,-134.5 510.08,-115.5 569.08,-115.5 569.08,-134.5"/>
<text text-anchor="middle" x="539.58" y="-122.5" font-family="Helvetica,sans-Serif" font-size="10.00">complex</text>
</a>
</g>
</g>
<!-- Node19&#45;&gt;Node21 -->
<g id="edge28" class="edge">
<title>Node19&#45;&gt;Node21</title>
<path fill="none" stroke="#63b8ff" d="M440.95,-181.37C459.99,-170.68 492.65,-152.35 515.14,-139.72"/>
<polygon fill="#63b8ff" stroke="#63b8ff" points="517.07,-142.65 524.08,-134.7 513.65,-136.54 517.07,-142.65"/>
</g>
<!-- Node22 -->
<g id="node22" class="node">
<title>Node22</title>
<g id="a_node22"><a xlink:title=" ">
<polygon fill="#e0e0e0" stroke="#999999" points="607.58,-74 547.58,-74 547.58,-55 607.58,-55 607.58,-74"/>
<text text-anchor="middle" x="577.58" y="-62" font-family="Helvetica,sans-Serif" font-size="10.00">concepts</text>
</a>
</g>
</g>
<!-- Node19&#45;&gt;Node22 -->
<g id="edge29" class="edge">
<title>Node19&#45;&gt;Node22</title>
<path fill="none" stroke="#63b8ff" d="M469.69,-181.44C509.82,-172.66 564.71,-157.78 577.58,-140 589.16,-124 586.92,-100.57 583.23,-84.27"/>
<polygon fill="#63b8ff" stroke="#63b8ff" points="586.53,-83.08 580.59,-74.31 579.77,-84.87 586.53,-83.08"/>
</g>
<!-- Node23&#45;&gt;Node7 -->
<g id="edge32" class="edge">
<title>Node23&#45;&gt;Node7</title>
<path fill="none" stroke="#63b8ff" d="M292.75,-247.42C301.28,-232.03 316.08,-199.21 302.58,-176 295.96,-164.64 267.02,-149.48 244.11,-138.84"/>
<polygon fill="#63b8ff" stroke="#63b8ff" points="245.29,-135.53 234.74,-134.58 242.39,-141.91 245.29,-135.53"/>
</g>
<!-- Node24&#45;&gt;Node3 -->
<g id="edge34" class="edge">
<title>Node24&#45;&gt;Node3</title>
<path fill="none" stroke="#63b8ff" d="M557.53,-247.46C546.41,-245.56 534.59,-243.62 523.58,-242 392.9,-222.75 359.16,-225.82 228.58,-206 221.2,-204.88 213.44,-203.6 205.81,-202.27"/>
<polygon fill="#63b8ff" stroke="#63b8ff" points="206.34,-198.81 195.88,-200.51 205.12,-205.7 206.34,-198.81"/>
</g>
<!-- Node24&#45;&gt;Node12 -->
<g id="edge35" class="edge">
<title>Node24&#45;&gt;Node12</title>
<path fill="none" stroke="#63b8ff" d="M559.21,-247.44C491.87,-234.72 366.68,-211.09 303.76,-199.21"/>
<polygon fill="#63b8ff" stroke="#63b8ff" points="304.33,-195.75 293.85,-197.34 303.03,-202.63 304.33,-195.75"/>
</g>
<!-- Node24&#45;&gt;Node15 -->
<g id="edge36" class="edge">
<title>Node24&#45;&gt;Node15</title>
<path fill="none" stroke="#63b8ff" d="M580.6,-247.48C562.7,-239.71 539.52,-226.3 528.58,-206 522.25,-194.26 520.61,-186.69 528.58,-176 543.6,-155.86 609.15,-140.9 653.78,-132.81"/>
<polygon fill="#63b8ff" stroke="#63b8ff" points="654.56,-136.23 663.8,-131.05 653.35,-129.34 654.56,-136.23"/>
</g>
<!-- Node25 -->
<g id="node25" class="node">
<title>Node25</title>
<g id="a_node25"><a xlink:title=" ">
<polygon fill="#e0e0e0" stroke="#999999" points="1555.58,-74 1511.58,-74 1511.58,-55 1555.58,-55 1555.58,-74"/>
<text text-anchor="middle" x="1533.58" y="-62" font-family="Helvetica,sans-Serif" font-size="10.00">string</text>
</a>
</g>
</g>
<!-- Node24&#45;&gt;Node25 -->
<g id="edge37" class="edge">
<title>Node24&#45;&gt;Node25</title>
<path fill="none" stroke="#63b8ff" d="M676.14,-255.16C935.49,-251.38 1815.13,-231.82 1896.58,-140 1905.42,-130.03 1905.48,-119.92 1896.58,-110 1848.95,-56.93 1653.61,-85.41 1565.96,-73.69"/>
<polygon fill="#63b8ff" stroke="#63b8ff" points="1566.26,-70.2 1555.83,-72.06 1565.14,-77.11 1566.26,-70.2"/>
</g>
<!-- Node26&#45;&gt;Node9 -->
<g id="edge39" class="edge">
<title>Node26&#45;&gt;Node9</title>
<path fill="none" stroke="#63b8ff" d="M626.98,-181.29C628.25,-164.79 633.41,-128.94 654.58,-110 709.85,-60.53 926.5,-29.23 1030.83,-16.72"/>
<polygon fill="#63b8ff" stroke="#63b8ff" points="1031.35,-20.18 1040.87,-15.53 1030.52,-13.23 1031.35,-20.18"/>
</g>
<!-- Node26&#45;&gt;Node15 -->
<g id="edge40" class="edge">
<title>Node26&#45;&gt;Node15</title>
<path fill="none" stroke="#63b8ff" d="M636.02,-181.37C647.12,-171.21 665.78,-154.16 679.45,-141.65"/>
<polygon fill="#63b8ff" stroke="#63b8ff" points="681.82,-144.24 686.84,-134.91 677.09,-139.07 681.82,-144.24"/>
</g>
<!-- Node27&#45;&gt;Node28 -->
<g id="edge42" class="edge">
<title>Node27&#45;&gt;Node28</title>
<path fill="none" stroke="#63b8ff" d="M1261.58,-241.8C1261.58,-232.7 1261.58,-220.79 1261.58,-210.9"/>
<polygon fill="#63b8ff" stroke="#63b8ff" points="1265.08,-210.84 1261.58,-200.84 1258.08,-210.84 1265.08,-210.84"/>
</g>
<!-- Node37 -->
<g id="node37" class="node">
<title>Node37</title>
<g id="a_node37"><a xlink:title=" ">
<polygon fill="#e0e0e0" stroke="#999999" points="1887.08,-134.5 1822.08,-134.5 1822.08,-115.5 1887.08,-115.5 1887.08,-134.5"/>
<text text-anchor="middle" x="1854.58" y="-122.5" font-family="Helvetica,sans-Serif" font-size="10.00">functional</text>
</a>
</g>
</g>
<!-- Node27&#45;&gt;Node37 -->
<g id="edge63" class="edge">
<title>Node27&#45;&gt;Node37</title>
<path fill="none" stroke="#63b8ff" d="M1317.74,-246.54C1418.14,-229.1 1634.63,-189.16 1813.58,-140 1816.05,-139.32 1818.6,-138.57 1821.15,-137.79"/>
<polygon fill="#63b8ff" stroke="#63b8ff" points="1822.44,-141.05 1830.88,-134.64 1820.29,-134.39 1822.44,-141.05"/>
</g>
<!-- Node28&#45;&gt;Node6 -->
<g id="edge60" class="edge">
<title>Node28&#45;&gt;Node6</title>
<path fill="none" stroke="#63b8ff" d="M1184.03,-183.73C1095.07,-175.73 955.21,-160.43 906.58,-140 886.42,-131.53 887.91,-118.05 867.58,-110 830.41,-95.28 568.02,-75.89 461.42,-68.52"/>
<polygon fill="#63b8ff" stroke="#63b8ff" points="461.52,-65.02 451.31,-67.82 461.04,-72 461.52,-65.02"/>
</g>
<!-- Node28&#45;&gt;Node8 -->
<g id="edge43" class="edge">
<title>Node28&#45;&gt;Node8</title>
<path fill="none" stroke="#63b8ff" d="M1339.3,-188.3C1428.38,-184.75 1567.07,-173.78 1605.58,-140 1621.25,-126.25 1625.64,-101.79 1626.66,-84.66"/>
<polygon fill="#63b8ff" stroke="#63b8ff" points="1630.17,-84.28 1626.93,-74.2 1623.18,-84.1 1630.17,-84.28"/>
</g>
<!-- Node28&#45;&gt;Node15 -->
<g id="edge59" class="edge">
<title>Node28&#45;&gt;Node15</title>
<path fill="none" stroke="#63b8ff" d="M1183.93,-183.55C1048.87,-172.2 780.99,-148.98 738.58,-140 735.34,-139.32 732.01,-138.47 728.7,-137.53"/>
<polygon fill="#63b8ff" stroke="#63b8ff" points="729.57,-134.13 718.99,-134.51 727.5,-140.82 729.57,-134.13"/>
</g>
<!-- Node29 -->
<g id="node29" class="node">
<title>Node29</title>
<g id="a_node29"><a xlink:href="demangled-typename_8hpp.html" target="_top" xlink:title=" ">
<polygon fill="white" stroke="#666666" points="1596.58,-140 1470.58,-140 1470.58,-110 1596.58,-110 1596.58,-140"/>
<text text-anchor="start" x="1478.58" y="-128" font-family="Helvetica,sans-Serif" font-size="10.00">alpaqa/util/demangled</text>
<text text-anchor="middle" x="1533.58" y="-117" font-family="Helvetica,sans-Serif" font-size="10.00">&#45;typename.hpp</text>
</a>
</g>
</g>
<!-- Node28&#45;&gt;Node29 -->
<g id="edge44" class="edge">
<title>Node28&#45;&gt;Node29</title>
<path fill="none" stroke="#63b8ff" d="M1297.98,-181.44C1340.27,-171.48 1411.02,-154.84 1463.97,-142.38"/>
<polygon fill="#63b8ff" stroke="#63b8ff" points="1465.04,-145.72 1473.97,-140.02 1463.43,-138.91 1465.04,-145.72"/>
</g>
<!-- Node30 -->
<g id="node30" class="node">
<title>Node30</title>
<g id="a_node30"><a xlink:title=" ">
<polygon fill="#e0e0e0" stroke="#999999" points="1482.08,-74 1425.08,-74 1425.08,-55 1482.08,-55 1482.08,-74"/>
<text text-anchor="middle" x="1453.58" y="-62" font-family="Helvetica,sans-Serif" font-size="10.00">typeinfo</text>
</a>
</g>
</g>
<!-- Node28&#45;&gt;Node30 -->
<g id="edge61" class="edge">
<title>Node28&#45;&gt;Node30</title>
<path fill="none" stroke="#63b8ff" d="M1333.27,-181.47C1363.89,-174.62 1398.13,-162.27 1422.58,-140 1438.56,-125.44 1446.54,-101.35 1450.36,-84.51"/>
<polygon fill="#63b8ff" stroke="#63b8ff" points="1453.89,-84.72 1452.38,-74.23 1447.02,-83.36 1453.89,-84.72"/>
</g>
<!-- Node31 -->
<g id="node31" class="node">
<title>Node31</title>
<g id="a_node31"><a xlink:href="noop-delete_8hpp.html" target="_top" xlink:title=" ">
<polygon fill="white" stroke="#666666" points="1804.08,-134.5 1653.08,-134.5 1653.08,-115.5 1804.08,-115.5 1804.08,-134.5"/>
<text text-anchor="middle" x="1728.58" y="-122.5" font-family="Helvetica,sans-Serif" font-size="10.00">alpaqa/util/noop&#45;delete.hpp</text>
</a>
</g>
</g>
<!-- Node28&#45;&gt;Node31 -->
<g id="edge48" class="edge">
<title>Node28&#45;&gt;Node31</title>
<path fill="none" stroke="#63b8ff" d="M1329.4,-181.47C1404.92,-171.86 1530.59,-155.56 1638.58,-140 1647.11,-138.77 1656.08,-137.43 1664.93,-136.08"/>
<polygon fill="#63b8ff" stroke="#63b8ff" points="1665.48,-139.54 1674.83,-134.56 1664.41,-132.62 1665.48,-139.54"/>
</g>
<!-- Node32 -->
<g id="node32" class="node">
<title>Node32</title>
<g id="a_node32"><a xlink:href="type-traits_8hpp.html" target="_top" xlink:title=" ">
<polygon fill="white" stroke="#666666" points="1059.08,-134.5 916.08,-134.5 916.08,-115.5 1059.08,-115.5 1059.08,-134.5"/>
<text text-anchor="middle" x="987.58" y="-122.5" font-family="Helvetica,sans-Serif" font-size="10.00">alpaqa/util/type&#45;traits.hpp</text>
</a>
</g>
</g>
<!-- Node28&#45;&gt;Node32 -->
<g id="edge49" class="edge">
<title>Node28&#45;&gt;Node32</title>
<path fill="none" stroke="#63b8ff" d="M1224.91,-181.44C1175.59,-169.92 1087.87,-149.43 1034,-136.84"/>
<polygon fill="#63b8ff" stroke="#63b8ff" points="1034.56,-133.38 1024.03,-134.51 1032.97,-140.2 1034.56,-133.38"/>
</g>
<!-- Node33 -->
<g id="node33" class="node">
<title>Node33</title>
<g id="a_node33"><a xlink:title=" ">
<polygon fill="#e0e0e0" stroke="#999999" points="1173.58,-74 1115.58,-74 1115.58,-55 1173.58,-55 1173.58,-74"/>
<text text-anchor="middle" x="1144.58" y="-62" font-family="Helvetica,sans-Serif" font-size="10.00">memory</text>
</a>
</g>
</g>
<!-- Node28&#45;&gt;Node33 -->
<g id="edge57" class="edge">
<title>Node28&#45;&gt;Node33</title>
<path fill="none" stroke="#63b8ff" d="M1210.27,-181.48C1186.02,-174.59 1159.24,-162.21 1144.58,-140 1133.69,-123.51 1135.8,-100.18 1139.26,-84.03"/>
<polygon fill="#63b8ff" stroke="#63b8ff" points="1142.7,-84.73 1141.74,-74.18 1135.91,-83.03 1142.7,-84.73"/>
</g>
<!-- Node34 -->
<g id="node34" class="node">
<title>Node34</title>
<g id="a_node34"><a xlink:title=" ">
<polygon fill="#e0e0e0" stroke="#999999" points="1217.58,-134.5 1153.58,-134.5 1153.58,-115.5 1217.58,-115.5 1217.58,-134.5"/>
<text text-anchor="middle" x="1185.58" y="-122.5" font-family="Helvetica,sans-Serif" font-size="10.00">algorithm</text>
</a>
</g>
</g>
<!-- Node28&#45;&gt;Node34 -->
<g id="edge53" class="edge">
<title>Node28&#45;&gt;Node34</title>
<path fill="none" stroke="#63b8ff" d="M1251.33,-181.37C1239.27,-171.21 1219.02,-154.16 1204.17,-141.65"/>
<polygon fill="#63b8ff" stroke="#63b8ff" points="1206.05,-138.67 1196.15,-134.91 1201.55,-144.02 1206.05,-138.67"/>
</g>
<!-- Node35 -->
<g id="node35" class="node">
<title>Node35</title>
<g id="a_node35"><a xlink:title=" ">
<polygon fill="#e0e0e0" stroke="#999999" points="1287.58,-134.5 1235.58,-134.5 1235.58,-115.5 1287.58,-115.5 1287.58,-134.5"/>
<text text-anchor="middle" x="1261.58" y="-122.5" font-family="Helvetica,sans-Serif" font-size="10.00">cassert</text>
</a>
</g>
</g>
<!-- Node28&#45;&gt;Node35 -->
<g id="edge54" class="edge">
<title>Node28&#45;&gt;Node35</title>
<path fill="none" stroke="#63b8ff" d="M1261.58,-181.37C1261.58,-172.16 1261.58,-157.29 1261.58,-145.27"/>
<polygon fill="#63b8ff" stroke="#63b8ff" points="1265.08,-144.91 1261.58,-134.91 1258.08,-144.91 1265.08,-144.91"/>
</g>
<!-- Node36 -->
<g id="node36" class="node">
<title>Node36</title>
<g id="a_node36"><a xlink:title=" ">
<polygon fill="#e0e0e0" stroke="#999999" points="1359.08,-134.5 1306.08,-134.5 1306.08,-115.5 1359.08,-115.5 1359.08,-134.5"/>
<text text-anchor="middle" x="1332.58" y="-122.5" font-family="Helvetica,sans-Serif" font-size="10.00">cstddef</text>
</a>
</g>
</g>
<!-- Node28&#45;&gt;Node36 -->
<g id="edge55" class="edge">
<title>Node28&#45;&gt;Node36</title>
<path fill="none" stroke="#63b8ff" d="M1271.15,-181.37C1282.42,-171.21 1301.34,-154.16 1315.21,-141.65"/>
<polygon fill="#63b8ff" stroke="#63b8ff" points="1317.61,-144.2 1322.7,-134.91 1312.93,-139 1317.61,-144.2"/>
</g>
<!-- Node28&#45;&gt;Node37 -->
<g id="edge56" class="edge">
<title>Node28&#45;&gt;Node37</title>
<path fill="none" stroke="#63b8ff" d="M1339.24,-188.78C1446.88,-185.78 1646.99,-175.45 1813.58,-140 1816.64,-139.35 1819.79,-138.54 1822.92,-137.64"/>
<polygon fill="#63b8ff" stroke="#63b8ff" points="1824.24,-140.89 1832.72,-134.54 1822.13,-134.22 1824.24,-140.89"/>
</g>
<!-- Node38 -->
<g id="node38" class="node">
<title>Node38</title>
<g id="a_node38"><a xlink:title=" ">
<polygon fill="#e0e0e0" stroke="#999999" points="1414.08,-134.5 1377.08,-134.5 1377.08,-115.5 1414.08,-115.5 1414.08,-134.5"/>
<text text-anchor="middle" x="1395.58" y="-122.5" font-family="Helvetica,sans-Serif" font-size="10.00">new</text>
</a>
</g>
</g>
<!-- Node28&#45;&gt;Node38 -->
<g id="edge58" class="edge">
<title>Node28&#45;&gt;Node38</title>
<path fill="none" stroke="#63b8ff" d="M1280.02,-181.46C1301.22,-171.6 1337.01,-154.85 1367.58,-140 1368.25,-139.67 1368.94,-139.34 1369.63,-139"/>
<polygon fill="#63b8ff" stroke="#63b8ff" points="1371.31,-142.07 1378.73,-134.5 1368.21,-135.8 1371.31,-142.07"/>
</g>
<!-- Node28&#45;&gt;Node39 -->
<g id="edge62" class="edge">
<title>Node28&#45;&gt;Node39</title>
<path fill="none" stroke="#63b8ff" d="M1184.06,-182.18C1088.18,-172.12 930.65,-154.27 873.58,-140 871.13,-139.39 868.62,-138.66 866.12,-137.87"/>
<polygon fill="#63b8ff" stroke="#63b8ff" points="867.25,-134.56 856.66,-134.57 864.95,-141.17 867.25,-134.56"/>
</g>
<!-- Node29&#45;&gt;Node8 -->
<g id="edge45" class="edge">
<title>Node29&#45;&gt;Node8</title>
<path fill="none" stroke="#63b8ff" d="M1556.09,-109.84C1570.64,-100.68 1589.51,-88.82 1604.06,-79.66"/>
<polygon fill="#63b8ff" stroke="#63b8ff" points="1606.31,-82.38 1612.91,-74.09 1602.58,-76.46 1606.31,-82.38"/>
</g>
<!-- Node29&#45;&gt;Node25 -->
<g id="edge46" class="edge">
<title>Node29&#45;&gt;Node25</title>
<path fill="none" stroke="#63b8ff" d="M1533.58,-109.84C1533.58,-102.21 1533.58,-92.7 1533.58,-84.45"/>
<polygon fill="#63b8ff" stroke="#63b8ff" points="1537.08,-84.27 1533.58,-74.27 1530.08,-84.27 1537.08,-84.27"/>
</g>
<!-- Node29&#45;&gt;Node30 -->
<g id="edge47" class="edge">
<title>Node29&#45;&gt;Node30</title>
<path fill="none" stroke="#63b8ff" d="M1514.21,-109.84C1502.01,-100.91 1486.27,-89.41 1473.89,-80.35"/>
<polygon fill="#63b8ff" stroke="#63b8ff" points="1475.7,-77.34 1465.56,-74.27 1471.57,-82.99 1475.7,-77.34"/>
</g>
<!-- Node32&#45;&gt;Node6 -->
<g id="edge52" class="edge">
<title>Node32&#45;&gt;Node6</title>
<path fill="none" stroke="#63b8ff" d="M939,-115.48C926.8,-113.51 913.73,-111.55 901.58,-110 740.13,-89.48 547.29,-74.66 461.53,-68.57"/>
<polygon fill="#63b8ff" stroke="#63b8ff" points="461.59,-65.07 451.36,-67.85 461.09,-72.05 461.59,-65.07"/>
</g>
<!-- Node32&#45;&gt;Node22 -->
<g id="edge50" class="edge">
<title>Node32&#45;&gt;Node22</title>
<path fill="none" stroke="#63b8ff" d="M936.68,-115.5C925.14,-113.63 912.95,-111.71 901.58,-110 799.66,-94.71 679.4,-78.73 618.03,-70.73"/>
<polygon fill="#63b8ff" stroke="#63b8ff" points="618.36,-67.24 607.99,-69.42 617.45,-74.18 618.36,-67.24"/>
</g>
<!-- Node32&#45;&gt;Node33 -->
<g id="edge51" class="edge">
<title>Node32&#45;&gt;Node33</title>
<path fill="none" stroke="#63b8ff" d="M1010.41,-115.49C1037.15,-105.53 1081.65,-88.95 1112.01,-77.63"/>
<polygon fill="#63b8ff" stroke="#63b8ff" points="1113.57,-80.79 1121.72,-74.02 1111.13,-74.23 1113.57,-80.79"/>
</g>
<!-- Node41 -->
<g id="node41" class="node">
<title>Node41</title>
<g id="a_node41"><a xlink:title=" ">
<polygon fill="#e0e0e0" stroke="#999999" points="2097.58,-266.5 2047.58,-266.5 2047.58,-247.5 2097.58,-247.5 2097.58,-266.5"/>
<text text-anchor="middle" x="2072.58" y="-254.5" font-family="Helvetica,sans-Serif" font-size="10.00">atomic</text>
</a>
</g>
</g>
<!-- Node40&#45;&gt;Node41 -->
<g id="edge70" class="edge">
<title>Node40&#45;&gt;Node41</title>
<path fill="none" stroke="#63b8ff" d="M2072.58,-307.8C2072.58,-298.7 2072.58,-286.79 2072.58,-276.9"/>
<polygon fill="#63b8ff" stroke="#63b8ff" points="2076.08,-276.84 2072.58,-266.84 2069.08,-276.84 2076.08,-276.84"/>
</g>
</g>
</svg>
