<?xml version="1.0" encoding="UTF-8" standalone="no"?>
<!DOCTYPE svg PUBLIC "-//W3C//DTD SVG 1.1//EN"
 "http://www.w3.org/Graphics/SVG/1.1/DTD/svg11.dtd">
<!-- Generated by graphviz version 2.43.0 (0)
 -->
<!-- Title: pantr.hpp Pages: 1 -->
<svg width="428pt" height="137pt"
 viewBox="0.00 0.00 427.50 137.00" xmlns="http://www.w3.org/2000/svg" xmlns:xlink="http://www.w3.org/1999/xlink">
<g id="graph0" class="graph" transform="scale(1 1) rotate(0) translate(4 133)">
<title>pantr.hpp</title>
<!-- Node1 -->
<g id="node1" class="node">
<title>Node1</title>
<g id="a_node1"><a xlink:title=" ">
<polygon fill="#999999" stroke="#666666" points="280.5,-129 218.5,-129 218.5,-110 280.5,-110 280.5,-129"/>
<text text-anchor="middle" x="249.5" y="-117" font-family="Helvetica,sans-Serif" font-size="10.00">pantr.hpp</text>
</a>
</g>
</g>
<!-- Node2 -->
<g id="node2" class="node">
<title>Node2</title>
<g id="a_node2"><a xlink:href="newton-tr-pantr-alm_8hpp.html" target="_top" xlink:title=" ">
<polygon fill="white" stroke="#666666" points="137,-74 0,-74 0,-55 137,-55 137,-74"/>
<text text-anchor="middle" x="68.5" y="-62" font-family="Helvetica,sans-Serif" font-size="10.00">newton&#45;tr&#45;pantr&#45;alm.hpp</text>
</a>
</g>
</g>
<!-- Node1&#45;&gt;Node2 -->
<g id="edge1" class="edge">
<title>Node1&#45;&gt;Node2</title>
<path fill="none" stroke="#63b8ff" d="M210.42,-107.06C176.59,-97.15 128.42,-83.04 97.81,-74.08"/>
<polygon fill="#63b8ff" stroke="#63b8ff" points="209.84,-110.53 220.42,-109.98 211.81,-103.82 209.84,-110.53"/>
</g>
<!-- Node4 -->
<g id="node4" class="node">
<title>Node4</title>
<g id="a_node4"><a xlink:href="pantr-driver_8cpp.html" target="_top" xlink:title=" ">
<polygon fill="white" stroke="#666666" points="249.5,-74 155.5,-74 155.5,-55 249.5,-55 249.5,-74"/>
<text text-anchor="middle" x="202.5" y="-62" font-family="Helvetica,sans-Serif" font-size="10.00">pantr&#45;driver.cpp</text>
</a>
</g>
</g>
<!-- Node1&#45;&gt;Node4 -->
<g id="edge3" class="edge">
<title>Node1&#45;&gt;Node4</title>
<path fill="none" stroke="#63b8ff" d="M235.08,-102.24C226.84,-92.95 216.85,-81.68 210.12,-74.09"/>
<polygon fill="#63b8ff" stroke="#63b8ff" points="232.49,-104.59 241.74,-109.75 237.72,-99.94 232.49,-104.59"/>
</g>
<!-- Node5 -->
<g id="node5" class="node">
<title>Node5</title>
<g id="a_node5"><a xlink:href="pantr_8tpp.html" target="_top" xlink:title=" ">
<polygon fill="white" stroke="#666666" points="327.5,-74 267.5,-74 267.5,-55 327.5,-55 327.5,-74"/>
<text text-anchor="middle" x="297.5" y="-62" font-family="Helvetica,sans-Serif" font-size="10.00">pantr.tpp</text>
</a>
</g>
</g>
<!-- Node1&#45;&gt;Node5 -->
<g id="edge4" class="edge">
<title>Node1&#45;&gt;Node5</title>
<path fill="none" stroke="#63b8ff" d="M264.23,-102.24C272.64,-92.95 282.85,-81.68 289.72,-74.09"/>
<polygon fill="#63b8ff" stroke="#63b8ff" points="261.54,-99.99 257.43,-109.75 266.73,-104.69 261.54,-99.99"/>
</g>
<!-- Node7 -->
<g id="node7" class="node">
<title>Node7</title>
<g id="a_node7"><a xlink:href="params_8cpp.html" target="_top" xlink:title=" ">
<polygon fill="white" stroke="#666666" points="419.5,-74 345.5,-74 345.5,-55 419.5,-55 419.5,-74"/>
<text text-anchor="middle" x="382.5" y="-62" font-family="Helvetica,sans-Serif" font-size="10.00">params.cpp</text>
</a>
</g>
</g>
<!-- Node1&#45;&gt;Node7 -->
<g id="edge7" class="edge">
<title>Node1&#45;&gt;Node7</title>
<path fill="none" stroke="#63b8ff" d="M280.47,-106.16C305.09,-96.35 338.91,-82.87 360.74,-74.17"/>
<polygon fill="#63b8ff" stroke="#63b8ff" points="278.86,-103.03 270.87,-109.98 281.45,-109.53 278.86,-103.03"/>
</g>
<!-- Node3 -->
<g id="node3" class="node">
<title>Node3</title>
<g id="a_node3"><a xlink:href="newton-tr-pantr-alm_8cpp.html" target="_top" xlink:title=" ">
<polygon fill="white" stroke="#666666" points="192.5,-19 56.5,-19 56.5,0 192.5,0 192.5,-19"/>
<text text-anchor="middle" x="124.5" y="-7" font-family="Helvetica,sans-Serif" font-size="10.00">newton&#45;tr&#45;pantr&#45;alm.cpp</text>
</a>
</g>
</g>
<!-- Node2&#45;&gt;Node3 -->
<g id="edge2" class="edge">
<title>Node2&#45;&gt;Node3</title>
<path fill="none" stroke="#63b8ff" d="M84.83,-48.04C94.76,-38.64 107.09,-26.98 115.34,-19.17"/>
<polygon fill="#63b8ff" stroke="#63b8ff" points="82.35,-45.57 77.5,-54.98 87.17,-50.65 82.35,-45.57"/>
</g>
<!-- Node5&#45;&gt;Node3 -->
<g id="edge5" class="edge">
<title>Node5&#45;&gt;Node3</title>
<path fill="none" stroke="#63b8ff" d="M259.73,-51.93C227.41,-42.03 181.64,-28.01 152.51,-19.08"/>
<polygon fill="#63b8ff" stroke="#63b8ff" points="259.12,-55.4 269.7,-54.98 261.17,-48.71 259.12,-55.4"/>
</g>
<!-- Node6 -->
<g id="node6" class="node">
<title>Node6</title>
<g id="a_node6"><a xlink:href="pantr_8cpp.html" target="_top" xlink:title=" ">
<polygon fill="white" stroke="#666666" points="328.5,-19 266.5,-19 266.5,0 328.5,0 328.5,-19"/>
<text text-anchor="middle" x="297.5" y="-7" font-family="Helvetica,sans-Serif" font-size="10.00">pantr.cpp</text>
</a>
</g>
</g>
<!-- Node5&#45;&gt;Node6 -->
<g id="edge6" class="edge">
<title>Node5&#45;&gt;Node6</title>
<path fill="none" stroke="#63b8ff" d="M297.5,-44.66C297.5,-35.93 297.5,-25.99 297.5,-19.09"/>
<polygon fill="#63b8ff" stroke="#63b8ff" points="294,-44.75 297.5,-54.75 301,-44.75 294,-44.75"/>
</g>
</g>
</svg>
