<?xml version="1.0" encoding="UTF-8" standalone="no"?>
<!DOCTYPE svg PUBLIC "-//W3C//DTD SVG 1.1//EN"
 "http://www.w3.org/Graphics/SVG/1.1/DTD/svg11.dtd">
<!-- Generated by graphviz version 2.43.0 (0)
 -->
<!-- Title: params.hpp Pages: 1 -->
<svg width="825pt" height="148pt"
 viewBox="0.00 0.00 825.00 148.00" xmlns="http://www.w3.org/2000/svg" xmlns:xlink="http://www.w3.org/1999/xlink">
<g id="graph0" class="graph" transform="scale(1 1) rotate(0) translate(4 144)">
<title>params.hpp</title>
<!-- Node1 -->
<g id="node1" class="node">
<title>Node1</title>
<g id="a_node1"><a xlink:title=" ">
<polygon fill="#999999" stroke="#666666" points="600.5,-140 526.5,-140 526.5,-121 600.5,-121 600.5,-140"/>
<text text-anchor="middle" x="563.5" y="-128" font-family="Helvetica,sans-Serif" font-size="10.00">params.hpp</text>
</a>
</g>
</g>
<!-- Node2 -->
<g id="node2" class="node">
<title>Node2</title>
<g id="a_node2"><a xlink:href="config_8hpp.html" target="_top" xlink:title=" ">
<polygon fill="white" stroke="#666666" points="304,-85 169,-85 169,-66 304,-66 304,-85"/>
<text text-anchor="middle" x="236.5" y="-73" font-family="Helvetica,sans-Serif" font-size="10.00">alpaqa/config/config.hpp</text>
</a>
</g>
</g>
<!-- Node1&#45;&gt;Node2 -->
<g id="edge1" class="edge">
<title>Node1&#45;&gt;Node2</title>
<path fill="none" stroke="#63b8ff" d="M526.31,-123.47C470.98,-114.5 366.31,-97.54 299.06,-86.64"/>
<polygon fill="#63b8ff" stroke="#63b8ff" points="299.44,-83.16 289.01,-85.01 298.32,-90.07 299.44,-83.16"/>
</g>
<!-- Node7 -->
<g id="node7" class="node">
<title>Node7</title>
<g id="a_node7"><a xlink:href="export_8hpp.html" target="_top" xlink:title=" ">
<polygon fill="white" stroke="#666666" points="451,-85 346,-85 346,-66 451,-66 451,-85"/>
<text text-anchor="middle" x="398.5" y="-73" font-family="Helvetica,sans-Serif" font-size="10.00">alpaqa/export.hpp</text>
</a>
</g>
</g>
<!-- Node1&#45;&gt;Node7 -->
<g id="edge6" class="edge">
<title>Node1&#45;&gt;Node7</title>
<path fill="none" stroke="#63b8ff" d="M536.99,-120.98C509.29,-112.09 465.64,-98.07 434.76,-88.15"/>
<polygon fill="#63b8ff" stroke="#63b8ff" points="435.81,-84.81 425.22,-85.08 433.67,-91.47 435.81,-84.81"/>
</g>
<!-- Node9 -->
<g id="node9" class="node">
<title>Node9</title>
<g id="a_node9"><a xlink:title=" ">
<polygon fill="#e0e0e0" stroke="#999999" points="525.5,-85 469.5,-85 469.5,-66 525.5,-66 525.5,-85"/>
<text text-anchor="middle" x="497.5" y="-73" font-family="Helvetica,sans-Serif" font-size="10.00">optional</text>
</a>
</g>
</g>
<!-- Node1&#45;&gt;Node9 -->
<g id="edge8" class="edge">
<title>Node1&#45;&gt;Node9</title>
<path fill="none" stroke="#63b8ff" d="M552.9,-120.98C543.04,-113.07 528.15,-101.11 516.28,-91.58"/>
<polygon fill="#63b8ff" stroke="#63b8ff" points="518.29,-88.7 508.3,-85.17 513.9,-94.16 518.29,-88.7"/>
</g>
<!-- Node10 -->
<g id="node10" class="node">
<title>Node10</title>
<g id="a_node10"><a xlink:title=" ">
<polygon fill="#e0e0e0" stroke="#999999" points="583.5,-85 543.5,-85 543.5,-66 583.5,-66 583.5,-85"/>
<text text-anchor="middle" x="563.5" y="-73" font-family="Helvetica,sans-Serif" font-size="10.00">span</text>
</a>
</g>
</g>
<!-- Node1&#45;&gt;Node10 -->
<g id="edge9" class="edge">
<title>Node1&#45;&gt;Node10</title>
<path fill="none" stroke="#63b8ff" d="M563.5,-120.75C563.5,-113.8 563.5,-103.85 563.5,-95.13"/>
<polygon fill="#63b8ff" stroke="#63b8ff" points="567,-95.09 563.5,-85.09 560,-95.09 567,-95.09"/>
</g>
<!-- Node11 -->
<g id="node11" class="node">
<title>Node11</title>
<g id="a_node11"><a xlink:title=" ">
<polygon fill="#e0e0e0" stroke="#999999" points="667,-85 602,-85 602,-66 667,-66 667,-85"/>
<text text-anchor="middle" x="634.5" y="-73" font-family="Helvetica,sans-Serif" font-size="10.00">stdexcept</text>
</a>
</g>
</g>
<!-- Node1&#45;&gt;Node11 -->
<g id="edge10" class="edge">
<title>Node1&#45;&gt;Node11</title>
<path fill="none" stroke="#63b8ff" d="M574.91,-120.98C585.61,-113 601.84,-100.88 614.66,-91.31"/>
<polygon fill="#63b8ff" stroke="#63b8ff" points="616.97,-93.96 622.89,-85.17 612.78,-88.35 616.97,-93.96"/>
</g>
<!-- Node12 -->
<g id="node12" class="node">
<title>Node12</title>
<g id="a_node12"><a xlink:title=" ">
<polygon fill="#e0e0e0" stroke="#999999" points="758,-85 685,-85 685,-66 758,-66 758,-85"/>
<text text-anchor="middle" x="721.5" y="-73" font-family="Helvetica,sans-Serif" font-size="10.00">string_view</text>
</a>
</g>
</g>
<!-- Node1&#45;&gt;Node12 -->
<g id="edge11" class="edge">
<title>Node1&#45;&gt;Node12</title>
<path fill="none" stroke="#63b8ff" d="M588.89,-120.98C615.3,-112.13 656.85,-98.19 686.39,-88.28"/>
<polygon fill="#63b8ff" stroke="#63b8ff" points="687.55,-91.58 695.92,-85.08 685.32,-84.94 687.55,-91.58"/>
</g>
<!-- Node13 -->
<g id="node13" class="node">
<title>Node13</title>
<g id="a_node13"><a xlink:title=" ">
<polygon fill="#e0e0e0" stroke="#999999" points="817,-85 776,-85 776,-66 817,-66 817,-85"/>
<text text-anchor="middle" x="796.5" y="-73" font-family="Helvetica,sans-Serif" font-size="10.00">tuple</text>
</a>
</g>
</g>
<!-- Node1&#45;&gt;Node13 -->
<g id="edge12" class="edge">
<title>Node1&#45;&gt;Node13</title>
<path fill="none" stroke="#63b8ff" d="M600.54,-122.24C639.55,-114.41 702.97,-101.17 766.22,-85.2"/>
<polygon fill="#63b8ff" stroke="#63b8ff" points="767.13,-88.58 775.95,-82.72 765.4,-81.79 767.13,-88.58"/>
</g>
<!-- Node3 -->
<g id="node3" class="node">
<title>Node3</title>
<g id="a_node3"><a xlink:href="quadmath_8hpp.html" target="_top" xlink:title=" ">
<polygon fill="white" stroke="#666666" points="121,-30 0,-30 0,0 121,0 121,-30"/>
<text text-anchor="start" x="8" y="-18" font-family="Helvetica,sans-Serif" font-size="10.00">alpaqa/util/quadmath</text>
<text text-anchor="middle" x="60.5" y="-7" font-family="Helvetica,sans-Serif" font-size="10.00">/quadmath.hpp</text>
</a>
</g>
</g>
<!-- Node2&#45;&gt;Node3 -->
<g id="edge2" class="edge">
<title>Node2&#45;&gt;Node3</title>
<path fill="none" stroke="#63b8ff" d="M210.91,-65.99C185.25,-57.46 145,-44.09 112.59,-33.32"/>
<polygon fill="#63b8ff" stroke="#63b8ff" points="113.41,-29.9 102.81,-30.06 111.2,-36.54 113.41,-29.9"/>
</g>
<!-- Node4 -->
<g id="node4" class="node">
<title>Node4</title>
<g id="a_node4"><a xlink:title=" ">
<polygon fill="#e0e0e0" stroke="#999999" points="183.5,-24.5 139.5,-24.5 139.5,-5.5 183.5,-5.5 183.5,-24.5"/>
<text text-anchor="middle" x="161.5" y="-12.5" font-family="Helvetica,sans-Serif" font-size="10.00">limits</text>
</a>
</g>
</g>
<!-- Node2&#45;&gt;Node4 -->
<g id="edge3" class="edge">
<title>Node2&#45;&gt;Node4</title>
<path fill="none" stroke="#63b8ff" d="M225.43,-65.87C213.69,-56.71 194.91,-42.06 180.74,-31.01"/>
<polygon fill="#63b8ff" stroke="#63b8ff" points="182.65,-28.06 172.61,-24.67 178.34,-33.58 182.65,-28.06"/>
</g>
<!-- Node5 -->
<g id="node5" class="node">
<title>Node5</title>
<g id="a_node5"><a xlink:title=" ">
<polygon fill="#e0e0e0" stroke="#999999" points="271,-24.5 202,-24.5 202,-5.5 271,-5.5 271,-24.5"/>
<text text-anchor="middle" x="236.5" y="-12.5" font-family="Helvetica,sans-Serif" font-size="10.00">type_traits</text>
</a>
</g>
</g>
<!-- Node2&#45;&gt;Node5 -->
<g id="edge4" class="edge">
<title>Node2&#45;&gt;Node5</title>
<path fill="none" stroke="#63b8ff" d="M236.5,-65.87C236.5,-57.75 236.5,-45.31 236.5,-34.89"/>
<polygon fill="#63b8ff" stroke="#63b8ff" points="240,-34.67 236.5,-24.67 233,-34.67 240,-34.67"/>
</g>
<!-- Node6 -->
<g id="node6" class="node">
<title>Node6</title>
<g id="a_node6"><a xlink:title=" ">
<polygon fill="#e0e0e0" stroke="#999999" points="358,-24.5 289,-24.5 289,-5.5 358,-5.5 358,-24.5"/>
<text text-anchor="middle" x="323.5" y="-12.5" font-family="Helvetica,sans-Serif" font-size="10.00">Eigen/Core</text>
</a>
</g>
</g>
<!-- Node2&#45;&gt;Node6 -->
<g id="edge5" class="edge">
<title>Node2&#45;&gt;Node6</title>
<path fill="none" stroke="#63b8ff" d="M249.34,-65.87C263.22,-56.54 285.57,-41.51 302.11,-30.38"/>
<polygon fill="#63b8ff" stroke="#63b8ff" points="304.26,-33.15 310.61,-24.67 300.36,-27.34 304.26,-33.15"/>
</g>
<!-- Node8 -->
<g id="node8" class="node">
<title>Node8</title>
<g id="a_node8"><a xlink:title=" ">
<polygon fill="#e0e0e0" stroke="#999999" points="469,-24.5 376,-24.5 376,-5.5 469,-5.5 469,-24.5"/>
<text text-anchor="middle" x="422.5" y="-12.5" font-family="Helvetica,sans-Serif" font-size="10.00">alpaqa/export.h</text>
</a>
</g>
</g>
<!-- Node7&#45;&gt;Node8 -->
<g id="edge7" class="edge">
<title>Node7&#45;&gt;Node8</title>
<path fill="none" stroke="#63b8ff" d="M402.04,-65.87C405.44,-57.57 410.69,-44.78 415.02,-34.22"/>
<polygon fill="#63b8ff" stroke="#63b8ff" points="418.39,-35.25 418.94,-24.67 411.91,-32.59 418.39,-35.25"/>
</g>
</g>
</svg>
