<?xml version="1.0" encoding="UTF-8" standalone="no"?>
<!DOCTYPE svg PUBLIC "-//W3C//DTD SVG 1.1//EN"
 "http://www.w3.org/Graphics/SVG/1.1/DTD/svg11.dtd">
<!-- Generated by graphviz version 2.43.0 (0)
 -->
<!-- Title: print.tpp Pages: 1 -->
<svg width="1465pt" height="148pt"
 viewBox="0.00 0.00 1464.50 148.00" xmlns="http://www.w3.org/2000/svg" xmlns:xlink="http://www.w3.org/1999/xlink">
<g id="graph0" class="graph" transform="scale(1 1) rotate(0) translate(4 144)">
<title>print.tpp</title>
<!-- Node1 -->
<g id="node1" class="node">
<title>Node1</title>
<g id="a_node1"><a xlink:title=" ">
<polygon fill="#999999" stroke="#666666" points="1021,-140 963,-140 963,-121 1021,-121 1021,-140"/>
<text text-anchor="middle" x="992" y="-128" font-family="Helvetica,sans-Serif" font-size="10.00">print.tpp</text>
</a>
</g>
</g>
<!-- Node2 -->
<g id="node2" class="node">
<title>Node2</title>
<g id="a_node2"><a xlink:href="alm_8tpp.html" target="_top" xlink:title=" ">
<polygon fill="white" stroke="#666666" points="909,-85 855,-85 855,-66 909,-66 909,-85"/>
<text text-anchor="middle" x="882" y="-73" font-family="Helvetica,sans-Serif" font-size="10.00">alm.tpp</text>
</a>
</g>
</g>
<!-- Node1&#45;&gt;Node2 -->
<g id="edge1" class="edge">
<title>Node1&#45;&gt;Node2</title>
<path fill="none" stroke="#63b8ff" d="M965.3,-116.63C945.03,-106.87 917.73,-93.71 899.99,-85.17"/>
<polygon fill="#63b8ff" stroke="#63b8ff" points="963.8,-119.8 974.33,-120.98 966.84,-113.49 963.8,-119.8"/>
</g>
<!-- Node10 -->
<g id="node10" class="node">
<title>Node10</title>
<g id="a_node10"><a xlink:href="lbfgsb_2src_2lbfgsb-adapter_8cpp.html" target="_top" xlink:title=" ">
<polygon fill="white" stroke="#666666" points="1151.5,-85 1044.5,-85 1044.5,-66 1151.5,-66 1151.5,-85"/>
<text text-anchor="middle" x="1098" y="-73" font-family="Helvetica,sans-Serif" font-size="10.00">lbfgsb&#45;adapter.cpp</text>
</a>
</g>
</g>
<!-- Node1&#45;&gt;Node10 -->
<g id="edge9" class="edge">
<title>Node1&#45;&gt;Node10</title>
<path fill="none" stroke="#63b8ff" d="M1018,-116.5C1037.5,-106.75 1063.65,-93.68 1080.66,-85.17"/>
<polygon fill="#63b8ff" stroke="#63b8ff" points="1016.41,-113.38 1009.03,-120.98 1019.54,-119.64 1016.41,-113.38"/>
</g>
<!-- Node11 -->
<g id="node11" class="node">
<title>Node11</title>
<g id="a_node11"><a xlink:href="panoc-ocp_8tpp.html" target="_top" xlink:title=" ">
<polygon fill="white" stroke="#666666" points="1256,-85 1170,-85 1170,-66 1256,-66 1256,-85"/>
<text text-anchor="middle" x="1213" y="-73" font-family="Helvetica,sans-Serif" font-size="10.00">panoc&#45;ocp.tpp</text>
</a>
</g>
</g>
<!-- Node1&#45;&gt;Node11 -->
<g id="edge10" class="edge">
<title>Node1&#45;&gt;Node11</title>
<path fill="none" stroke="#63b8ff" d="M1031.08,-120.13C1072.47,-110.2 1137.25,-94.67 1177.31,-85.06"/>
<polygon fill="#63b8ff" stroke="#63b8ff" points="1030.26,-116.73 1021.35,-122.46 1031.89,-123.53 1030.26,-116.73"/>
</g>
<!-- Node13 -->
<g id="node13" class="node">
<title>Node13</title>
<g id="a_node13"><a xlink:href="panoc_8tpp.html" target="_top" xlink:title=" ">
<polygon fill="white" stroke="#666666" points="605.5,-85 540.5,-85 540.5,-66 605.5,-66 605.5,-85"/>
<text text-anchor="middle" x="573" y="-73" font-family="Helvetica,sans-Serif" font-size="10.00">panoc.tpp</text>
</a>
</g>
</g>
<!-- Node1&#45;&gt;Node13 -->
<g id="edge12" class="edge">
<title>Node1&#45;&gt;Node13</title>
<path fill="none" stroke="#63b8ff" d="M952.94,-124.56C870.86,-114.18 681.78,-90.26 605.64,-80.63"/>
<polygon fill="#63b8ff" stroke="#63b8ff" points="952.51,-128.03 962.87,-125.82 953.39,-121.09 952.51,-128.03"/>
</g>
<!-- Node16 -->
<g id="node16" class="node">
<title>Node16</title>
<g id="a_node16"><a xlink:href="pantr_8tpp.html" target="_top" xlink:title=" ">
<polygon fill="white" stroke="#666666" points="178,-85 118,-85 118,-66 178,-66 178,-85"/>
<text text-anchor="middle" x="148" y="-73" font-family="Helvetica,sans-Serif" font-size="10.00">pantr.tpp</text>
</a>
</g>
</g>
<!-- Node1&#45;&gt;Node16 -->
<g id="edge18" class="edge">
<title>Node1&#45;&gt;Node16</title>
<path fill="none" stroke="#63b8ff" d="M952.78,-127.04C808.2,-117.96 306.84,-86.47 178.25,-78.4"/>
<polygon fill="#63b8ff" stroke="#63b8ff" points="952.75,-130.54 962.95,-127.68 953.19,-123.56 952.75,-130.54"/>
</g>
<!-- Node18 -->
<g id="node18" class="node">
<title>Node18</title>
<g id="a_node18"><a xlink:href="print_8cpp.html" target="_top" xlink:title=" ">
<polygon fill="white" stroke="#666666" points="1333.5,-85 1274.5,-85 1274.5,-66 1333.5,-66 1333.5,-85"/>
<text text-anchor="middle" x="1304" y="-73" font-family="Helvetica,sans-Serif" font-size="10.00">print.cpp</text>
</a>
</g>
</g>
<!-- Node1&#45;&gt;Node18 -->
<g id="edge21" class="edge">
<title>Node1&#45;&gt;Node18</title>
<path fill="none" stroke="#63b8ff" d="M1031.19,-123.78C1084.32,-115.87 1182.08,-100.78 1265,-85 1268,-84.43 1271.11,-83.8 1274.22,-83.16"/>
<polygon fill="#63b8ff" stroke="#63b8ff" points="1030.56,-120.33 1021.18,-125.26 1031.58,-127.26 1030.56,-120.33"/>
</g>
<!-- Node19 -->
<g id="node19" class="node">
<title>Node19</title>
<g id="a_node19"><a xlink:href="zerofpr_8tpp.html" target="_top" xlink:title=" ">
<polygon fill="white" stroke="#666666" points="1026.5,-85 957.5,-85 957.5,-66 1026.5,-66 1026.5,-85"/>
<text text-anchor="middle" x="992" y="-73" font-family="Helvetica,sans-Serif" font-size="10.00">zerofpr.tpp</text>
</a>
</g>
</g>
<!-- Node1&#45;&gt;Node19 -->
<g id="edge22" class="edge">
<title>Node1&#45;&gt;Node19</title>
<path fill="none" stroke="#63b8ff" d="M992,-110.66C992,-101.93 992,-91.99 992,-85.09"/>
<polygon fill="#63b8ff" stroke="#63b8ff" points="988.5,-110.75 992,-120.75 995.5,-110.75 988.5,-110.75"/>
</g>
<!-- Node3 -->
<g id="node3" class="node">
<title>Node3</title>
<g id="a_node3"><a xlink:href="newton-tr-pantr-alm_8cpp.html" target="_top" xlink:title=" ">
<polygon fill="white" stroke="#666666" points="216,-24.5 80,-24.5 80,-5.5 216,-5.5 216,-24.5"/>
<text text-anchor="middle" x="148" y="-12.5" font-family="Helvetica,sans-Serif" font-size="10.00">newton&#45;tr&#45;pantr&#45;alm.cpp</text>
</a>
</g>
</g>
<!-- Node2&#45;&gt;Node3 -->
<g id="edge2" class="edge">
<title>Node2&#45;&gt;Node3</title>
<path fill="none" stroke="#63b8ff" d="M844.76,-73.44C744.35,-70.27 459.79,-59.2 225,-30 213.67,-28.59 201.49,-26.6 190.23,-24.56"/>
<polygon fill="#63b8ff" stroke="#63b8ff" points="844.88,-76.95 854.99,-73.76 845.1,-69.95 844.88,-76.95"/>
</g>
<!-- Node4 -->
<g id="node4" class="node">
<title>Node4</title>
<g id="a_node4"><a xlink:href="panoc-alm_8cpp.html" target="_top" xlink:title=" ">
<polygon fill="white" stroke="#666666" points="551.5,-24.5 462.5,-24.5 462.5,-5.5 551.5,-5.5 551.5,-24.5"/>
<text text-anchor="middle" x="507" y="-12.5" font-family="Helvetica,sans-Serif" font-size="10.00">panoc&#45;alm.cpp</text>
</a>
</g>
</g>
<!-- Node2&#45;&gt;Node4 -->
<g id="edge3" class="edge">
<title>Node2&#45;&gt;Node4</title>
<path fill="none" stroke="#63b8ff" d="M844.5,-70.81C784.18,-64.53 662.05,-50.45 560,-30 552.44,-28.49 544.36,-26.53 536.84,-24.56"/>
<polygon fill="#63b8ff" stroke="#63b8ff" points="844.37,-74.31 854.67,-71.85 845.08,-67.35 844.37,-74.31"/>
</g>
<!-- Node5 -->
<g id="node5" class="node">
<title>Node5</title>
<g id="a_node5"><a xlink:href="panoc-anderson-alm_8cpp.html" target="_top" xlink:title=" ">
<polygon fill="white" stroke="#666666" points="706.5,-24.5 569.5,-24.5 569.5,-5.5 706.5,-5.5 706.5,-24.5"/>
<text text-anchor="middle" x="638" y="-12.5" font-family="Helvetica,sans-Serif" font-size="10.00">panoc&#45;anderson&#45;alm.cpp</text>
</a>
</g>
</g>
<!-- Node2&#45;&gt;Node5 -->
<g id="edge4" class="edge">
<title>Node2&#45;&gt;Node5</title>
<path fill="none" stroke="#63b8ff" d="M845.02,-65.63C798.65,-54.52 719.68,-35.58 673.85,-24.59"/>
<polygon fill="#63b8ff" stroke="#63b8ff" points="844.41,-69.09 854.96,-68.02 846.05,-62.28 844.41,-69.09"/>
</g>
<!-- Node6 -->
<g id="node6" class="node">
<title>Node6</title>
<g id="a_node6"><a xlink:href="structured-panoc-alm_8cpp.html" target="_top" xlink:title=" ">
<polygon fill="white" stroke="#666666" points="867,-24.5 725,-24.5 725,-5.5 867,-5.5 867,-24.5"/>
<text text-anchor="middle" x="796" y="-12.5" font-family="Helvetica,sans-Serif" font-size="10.00">structured&#45;panoc&#45;alm.cpp</text>
</a>
</g>
</g>
<!-- Node2&#45;&gt;Node6 -->
<g id="edge5" class="edge">
<title>Node2&#45;&gt;Node6</title>
<path fill="none" stroke="#63b8ff" d="M860.92,-60.16C844.58,-49.05 822.48,-34.01 808.74,-24.67"/>
<polygon fill="#63b8ff" stroke="#63b8ff" points="859.07,-63.14 869.31,-65.87 863.01,-57.35 859.07,-63.14"/>
</g>
<!-- Node7 -->
<g id="node7" class="node">
<title>Node7</title>
<g id="a_node7"><a xlink:href="structured-zerofpr-alm_8cpp.html" target="_top" xlink:title=" ">
<polygon fill="white" stroke="#666666" points="989,-30 885,-30 885,0 989,0 989,-30"/>
<text text-anchor="start" x="893" y="-18" font-family="Helvetica,sans-Serif" font-size="10.00">structured&#45;zerofpr</text>
<text text-anchor="middle" x="937" y="-7" font-family="Helvetica,sans-Serif" font-size="10.00">&#45;alm.cpp</text>
</a>
</g>
</g>
<!-- Node2&#45;&gt;Node7 -->
<g id="edge6" class="edge">
<title>Node2&#45;&gt;Node7</title>
<path fill="none" stroke="#63b8ff" d="M897.11,-58.43C905.45,-49.56 915.71,-38.65 923.73,-30.11"/>
<polygon fill="#63b8ff" stroke="#63b8ff" points="894.42,-56.19 890.12,-65.87 899.52,-60.98 894.42,-56.19"/>
</g>
<!-- Node8 -->
<g id="node8" class="node">
<title>Node8</title>
<g id="a_node8"><a xlink:href="zerofpr-alm_8cpp.html" target="_top" xlink:title=" ">
<polygon fill="white" stroke="#666666" points="1101,-24.5 1007,-24.5 1007,-5.5 1101,-5.5 1101,-24.5"/>
<text text-anchor="middle" x="1054" y="-12.5" font-family="Helvetica,sans-Serif" font-size="10.00">zerofpr&#45;alm.cpp</text>
</a>
</g>
</g>
<!-- Node2&#45;&gt;Node8 -->
<g id="edge7" class="edge">
<title>Node2&#45;&gt;Node8</title>
<path fill="none" stroke="#63b8ff" d="M916.78,-62.67C950.04,-51.36 999.39,-34.57 1028.96,-24.52"/>
<polygon fill="#63b8ff" stroke="#63b8ff" points="915.35,-59.46 907.01,-65.99 917.6,-66.09 915.35,-59.46"/>
</g>
<!-- Node9 -->
<g id="node9" class="node">
<title>Node9</title>
<g id="a_node9"><a xlink:href="zerofpr-anderson-alm_8cpp.html" target="_top" xlink:title=" ">
<polygon fill="white" stroke="#666666" points="1262.5,-24.5 1119.5,-24.5 1119.5,-5.5 1262.5,-5.5 1262.5,-24.5"/>
<text text-anchor="middle" x="1191" y="-12.5" font-family="Helvetica,sans-Serif" font-size="10.00">zerofpr&#45;anderson&#45;alm.cpp</text>
</a>
</g>
</g>
<!-- Node2&#45;&gt;Node9 -->
<g id="edge8" class="edge">
<title>Node2&#45;&gt;Node9</title>
<path fill="none" stroke="#63b8ff" d="M919.16,-67.47C976.1,-56.69 1084.77,-36.11 1146.06,-24.51"/>
<polygon fill="#63b8ff" stroke="#63b8ff" points="918.33,-64.06 909.15,-69.36 919.63,-70.94 918.33,-64.06"/>
</g>
<!-- Node12 -->
<g id="node12" class="node">
<title>Node12</title>
<g id="a_node12"><a xlink:href="panoc-ocp_8cpp.html" target="_top" xlink:title=" ">
<polygon fill="white" stroke="#666666" points="1456.5,-24.5 1369.5,-24.5 1369.5,-5.5 1456.5,-5.5 1456.5,-24.5"/>
<text text-anchor="middle" x="1413" y="-12.5" font-family="Helvetica,sans-Serif" font-size="10.00">panoc&#45;ocp.cpp</text>
</a>
</g>
</g>
<!-- Node11&#45;&gt;Node12 -->
<g id="edge11" class="edge">
<title>Node11&#45;&gt;Node12</title>
<path fill="none" stroke="#63b8ff" d="M1251.95,-63.11C1290.63,-51.79 1349.06,-34.7 1383.88,-24.52"/>
<polygon fill="#63b8ff" stroke="#63b8ff" points="1250.7,-59.83 1242.08,-65.99 1252.66,-66.55 1250.7,-59.83"/>
</g>
<!-- Node13&#45;&gt;Node4 -->
<g id="edge13" class="edge">
<title>Node13&#45;&gt;Node4</title>
<path fill="none" stroke="#63b8ff" d="M555.76,-59.22C543.34,-48.21 527.03,-33.75 516.78,-24.67"/>
<polygon fill="#63b8ff" stroke="#63b8ff" points="553.46,-61.85 563.26,-65.87 558.1,-56.62 553.46,-61.85"/>
</g>
<!-- Node13&#45;&gt;Node5 -->
<g id="edge14" class="edge">
<title>Node13&#45;&gt;Node5</title>
<path fill="none" stroke="#63b8ff" d="M590.32,-58.91C602.51,-47.94 618.37,-33.67 628.37,-24.67"/>
<polygon fill="#63b8ff" stroke="#63b8ff" points="587.68,-56.58 582.59,-65.87 592.37,-61.78 587.68,-56.58"/>
</g>
<!-- Node13&#45;&gt;Node6 -->
<g id="edge17" class="edge">
<title>Node13&#45;&gt;Node6</title>
<path fill="none" stroke="#63b8ff" d="M615.33,-63.4C658.45,-52.08 724.38,-34.79 763.53,-24.52"/>
<polygon fill="#63b8ff" stroke="#63b8ff" points="614.21,-60.07 605.43,-65.99 615.99,-66.84 614.21,-60.07"/>
</g>
<!-- Node14 -->
<g id="node14" class="node">
<title>Node14</title>
<g id="a_node14"><a xlink:href="panoc_8cpp.html" target="_top" xlink:title=" ">
<polygon fill="white" stroke="#666666" points="300,-24.5 234,-24.5 234,-5.5 300,-5.5 300,-24.5"/>
<text text-anchor="middle" x="267" y="-12.5" font-family="Helvetica,sans-Serif" font-size="10.00">panoc.cpp</text>
</a>
</g>
</g>
<!-- Node13&#45;&gt;Node14 -->
<g id="edge15" class="edge">
<title>Node13&#45;&gt;Node14</title>
<path fill="none" stroke="#63b8ff" d="M530.17,-69.36C477.6,-62.57 385.95,-49.19 309,-30 303.03,-28.51 296.69,-26.59 290.8,-24.64"/>
<polygon fill="#63b8ff" stroke="#63b8ff" points="529.79,-72.83 540.15,-70.63 530.67,-65.89 529.79,-72.83"/>
</g>
<!-- Node15 -->
<g id="node15" class="node">
<title>Node15</title>
<g id="a_node15"><a xlink:href="structured-newton_8cpp.html" target="_top" xlink:title=" ">
<polygon fill="white" stroke="#666666" points="444,-24.5 318,-24.5 318,-5.5 444,-5.5 444,-24.5"/>
<text text-anchor="middle" x="381" y="-12.5" font-family="Helvetica,sans-Serif" font-size="10.00">structured&#45;newton.cpp</text>
</a>
</g>
</g>
<!-- Node13&#45;&gt;Node15 -->
<g id="edge16" class="edge">
<title>Node13&#45;&gt;Node15</title>
<path fill="none" stroke="#63b8ff" d="M535.13,-62.96C498,-51.65 442.24,-34.66 408.95,-24.52"/>
<polygon fill="#63b8ff" stroke="#63b8ff" points="534.5,-66.43 545.08,-65.99 536.54,-59.73 534.5,-66.43"/>
</g>
<!-- Node16&#45;&gt;Node3 -->
<g id="edge19" class="edge">
<title>Node16&#45;&gt;Node3</title>
<path fill="none" stroke="#63b8ff" d="M148,-55.66C148,-45.24 148,-32.8 148,-24.67"/>
<polygon fill="#63b8ff" stroke="#63b8ff" points="144.5,-55.87 148,-65.87 151.5,-55.87 144.5,-55.87"/>
</g>
<!-- Node17 -->
<g id="node17" class="node">
<title>Node17</title>
<g id="a_node17"><a xlink:href="pantr_8cpp.html" target="_top" xlink:title=" ">
<polygon fill="white" stroke="#666666" points="62,-24.5 0,-24.5 0,-5.5 62,-5.5 62,-24.5"/>
<text text-anchor="middle" x="31" y="-12.5" font-family="Helvetica,sans-Serif" font-size="10.00">pantr.cpp</text>
</a>
</g>
</g>
<!-- Node16&#45;&gt;Node17 -->
<g id="edge20" class="edge">
<title>Node16&#45;&gt;Node17</title>
<path fill="none" stroke="#63b8ff" d="M121.96,-61.48C99.42,-50.21 67.45,-34.23 48.03,-24.52"/>
<polygon fill="#63b8ff" stroke="#63b8ff" points="120.48,-64.65 130.99,-65.99 123.61,-58.39 120.48,-64.65"/>
</g>
<!-- Node19&#45;&gt;Node7 -->
<g id="edge23" class="edge">
<title>Node19&#45;&gt;Node7</title>
<path fill="none" stroke="#63b8ff" d="M976.89,-58.43C968.55,-49.56 958.29,-38.65 950.27,-30.11"/>
<polygon fill="#63b8ff" stroke="#63b8ff" points="974.48,-60.98 983.88,-65.87 979.58,-56.19 974.48,-60.98"/>
</g>
<!-- Node19&#45;&gt;Node8 -->
<g id="edge24" class="edge">
<title>Node19&#45;&gt;Node8</title>
<path fill="none" stroke="#63b8ff" d="M1008.52,-58.91C1020.15,-47.94 1035.28,-33.67 1044.81,-24.67"/>
<polygon fill="#63b8ff" stroke="#63b8ff" points="1006.02,-56.46 1001.15,-65.87 1010.82,-61.55 1006.02,-56.46"/>
</g>
<!-- Node19&#45;&gt;Node9 -->
<g id="edge25" class="edge">
<title>Node19&#45;&gt;Node9</title>
<path fill="none" stroke="#63b8ff" d="M1030.75,-63.11C1069.24,-51.79 1127.38,-34.7 1162.03,-24.52"/>
<polygon fill="#63b8ff" stroke="#63b8ff" points="1029.54,-59.82 1020.94,-65.99 1031.52,-66.53 1029.54,-59.82"/>
</g>
<!-- Node20 -->
<g id="node20" class="node">
<title>Node20</title>
<g id="a_node20"><a xlink:href="zerofpr_8cpp.html" target="_top" xlink:title=" ">
<polygon fill="white" stroke="#666666" points="1351.5,-24.5 1280.5,-24.5 1280.5,-5.5 1351.5,-5.5 1351.5,-24.5"/>
<text text-anchor="middle" x="1316" y="-12.5" font-family="Helvetica,sans-Serif" font-size="10.00">zerofpr.cpp</text>
</a>
</g>
</g>
<!-- Node19&#45;&gt;Node20 -->
<g id="edge26" class="edge">
<title>Node19&#45;&gt;Node20</title>
<path fill="none" stroke="#63b8ff" d="M1036.68,-65.97C1142.33,-48.28 1171.81,-53.43 1272,-30 1278.4,-28.5 1285.22,-26.53 1291.52,-24.54"/>
<polygon fill="#63b8ff" stroke="#63b8ff" points="1035.83,-62.56 1026.56,-67.69 1037.01,-69.46 1035.83,-62.56"/>
</g>
</g>
</svg>
