<?xml version="1.0" encoding="UTF-8" standalone="no"?>
<!DOCTYPE svg PUBLIC "-//W3C//DTD SVG 1.1//EN"
 "http://www.w3.org/Graphics/SVG/1.1/DTD/svg11.dtd">
<!-- Generated by graphviz version 2.43.0 (0)
 -->
<!-- Title: load_problem Pages: 1 -->
<svg width="455pt" height="156pt"
 viewBox="0.00 0.00 455.00 155.50" xmlns="http://www.w3.org/2000/svg" xmlns:xlink="http://www.w3.org/1999/xlink">
<g id="graph0" class="graph" transform="scale(1 1) rotate(0) translate(4 151.5)">
<title>load_problem</title>
<!-- Node1 -->
<g id="node1" class="node">
<title>Node1</title>
<g id="a_node1"><a xlink:title=" ">
<polygon fill="#999999" stroke="#666666" points="83,-83 0,-83 0,-64 83,-64 83,-83"/>
<text text-anchor="middle" x="41.5" y="-71" font-family="Helvetica,sans-Serif" font-size="10.00">load_problem</text>
</a>
</g>
</g>
<!-- Node2 -->
<g id="node2" class="node">
<title>Node2</title>
<g id="a_node2"><a xlink:href="classalpaqa_1_1util_1_1TypeErased.html#aa90e763da394543aae1dfe5953688555" target="_top" xlink:title="Convert the type&#45;erased object to the given type.">
<polygon fill="white" stroke="#666666" points="269,-142 119,-142 119,-123 269,-123 269,-142"/>
<text text-anchor="middle" x="194" y="-130" font-family="Helvetica,sans-Serif" font-size="10.00">alpaqa::util::TypeErased::as</text>
</a>
</g>
</g>
<!-- Node1&#45;&gt;Node2 -->
<g id="edge1" class="edge">
<title>Node1&#45;&gt;Node2</title>
<path fill="none" stroke="#63b8ff" d="M57.49,-83.01C72.53,-92.2 96.62,-105.94 119,-114.5 124.46,-116.59 130.24,-118.49 136.07,-120.21"/>
<polygon fill="#63b8ff" stroke="#63b8ff" points="135.3,-123.63 145.87,-122.93 137.17,-116.89 135.3,-123.63"/>
</g>
<!-- Node4 -->
<g id="node4" class="node">
<title>Node4</title>
<g id="a_node4"><a xlink:href="classOptions.html#a502ee531f4e5cdc1c8dd78e9409a4e8e" target="_top" xlink:title=" ">
<polygon fill="white" stroke="#666666" points="242,-105 146,-105 146,-86 242,-86 242,-105"/>
<text text-anchor="middle" x="194" y="-93" font-family="Helvetica,sans-Serif" font-size="10.00">Options::options</text>
</a>
</g>
</g>
<!-- Node1&#45;&gt;Node4 -->
<g id="edge3" class="edge">
<title>Node1&#45;&gt;Node4</title>
<path fill="none" stroke="#63b8ff" d="M83.23,-79.45C99.38,-81.82 118.25,-84.57 135.74,-87.13"/>
<polygon fill="#63b8ff" stroke="#63b8ff" points="135.44,-90.62 145.84,-88.61 136.46,-83.7 135.44,-90.62"/>
</g>
<!-- Node5 -->
<g id="node5" class="node">
<title>Node5</title>
<g id="a_node5"><a xlink:href="namespacealpaqa_1_1params.html#a1ceaf6d5b9906d0d8242d3b3c7bc6dd6" target="_top" xlink:title="Overwrites t based on the options that start with prefix.">
<polygon fill="white" stroke="#666666" points="250.5,-67.5 137.5,-67.5 137.5,-37.5 250.5,-37.5 250.5,-67.5"/>
<text text-anchor="start" x="145.5" y="-55.5" font-family="Helvetica,sans-Serif" font-size="10.00">alpaqa::params::set</text>
<text text-anchor="middle" x="194" y="-44.5" font-family="Helvetica,sans-Serif" font-size="10.00">_params</text>
</a>
</g>
</g>
<!-- Node1&#45;&gt;Node5 -->
<g id="edge4" class="edge">
<title>Node1&#45;&gt;Node5</title>
<path fill="none" stroke="#63b8ff" d="M83.23,-67.82C96.74,-65.93 112.14,-63.78 127.05,-61.7"/>
<polygon fill="#63b8ff" stroke="#63b8ff" points="127.85,-65.13 137.27,-60.28 126.88,-58.19 127.85,-65.13"/>
</g>
<!-- Node8 -->
<g id="node8" class="node">
<title>Node8</title>
<g id="a_node8"><a xlink:href="classOptions.html#a55c9d81e0f4bc6698d19b72423b7e90f" target="_top" xlink:title=" ">
<polygon fill="white" stroke="#666666" points="235.5,-19 152.5,-19 152.5,0 235.5,0 235.5,-19"/>
<text text-anchor="middle" x="194" y="-7" font-family="Helvetica,sans-Serif" font-size="10.00">Options::used</text>
</a>
</g>
</g>
<!-- Node1&#45;&gt;Node8 -->
<g id="edge7" class="edge">
<title>Node1&#45;&gt;Node8</title>
<path fill="none" stroke="#63b8ff" d="M55.99,-63.98C70.82,-53.9 95.64,-38.14 119,-28.5 126.5,-25.41 134.63,-22.71 142.68,-20.39"/>
<polygon fill="#63b8ff" stroke="#63b8ff" points="143.66,-23.75 152.39,-17.75 141.82,-16.99 143.66,-23.75"/>
</g>
<!-- Node3 -->
<g id="node3" class="node">
<title>Node3</title>
<g id="a_node3"><a xlink:href="classalpaqa_1_1util_1_1TypeErased.html#af8c918a4d2bc243a10f9ab866c318fed" target="_top" xlink:title="Query the contained type.">
<polygon fill="white" stroke="#666666" points="442.5,-147.5 309.5,-147.5 309.5,-117.5 442.5,-117.5 442.5,-147.5"/>
<text text-anchor="start" x="317.5" y="-135.5" font-family="Helvetica,sans-Serif" font-size="10.00">alpaqa::util::TypeErased</text>
<text text-anchor="middle" x="376" y="-124.5" font-family="Helvetica,sans-Serif" font-size="10.00">::type</text>
</a>
</g>
</g>
<!-- Node2&#45;&gt;Node3 -->
<g id="edge2" class="edge">
<title>Node2&#45;&gt;Node3</title>
<path fill="none" stroke="#63b8ff" d="M269.25,-132.5C279.1,-132.5 289.21,-132.5 299.08,-132.5"/>
<polygon fill="#63b8ff" stroke="#63b8ff" points="299.27,-136 309.27,-132.5 299.27,-129 299.27,-136"/>
</g>
<!-- Node6 -->
<g id="node6" class="node">
<title>Node6</title>
<g id="a_node6"><a xlink:href="namespacealpaqa_1_1params.html#a0de0baee3dda47aba5143ba83bd11712" target="_top" xlink:title=" ">
<polygon fill="white" stroke="#666666" points="432.5,-83.5 319.5,-83.5 319.5,-53.5 432.5,-53.5 432.5,-83.5"/>
<text text-anchor="start" x="327.5" y="-71.5" font-family="Helvetica,sans-Serif" font-size="10.00">alpaqa::params::set</text>
<text text-anchor="middle" x="376" y="-60.5" font-family="Helvetica,sans-Serif" font-size="10.00">_param</text>
</a>
</g>
</g>
<!-- Node5&#45;&gt;Node6 -->
<g id="edge5" class="edge">
<title>Node5&#45;&gt;Node6</title>
<path fill="none" stroke="#63b8ff" d="M250.97,-57.47C269.42,-59.12 290.12,-60.96 309.24,-62.65"/>
<polygon fill="#63b8ff" stroke="#63b8ff" points="309.11,-66.16 319.38,-63.56 309.73,-59.18 309.11,-66.16"/>
</g>
<!-- Node7 -->
<g id="node7" class="node">
<title>Node7</title>
<g id="a_node7"><a xlink:href="namespacealpaqa_1_1params.html#aa3666becfea1ef2eb24d83f592c123e9" target="_top" xlink:title="Split the string full on the first occurrence of tok.">
<polygon fill="white" stroke="#666666" points="447,-35 305,-35 305,-16 447,-16 447,-35"/>
<text text-anchor="middle" x="376" y="-23" font-family="Helvetica,sans-Serif" font-size="10.00">alpaqa::params::split_key</text>
</a>
</g>
</g>
<!-- Node5&#45;&gt;Node7 -->
<g id="edge6" class="edge">
<title>Node5&#45;&gt;Node7</title>
<path fill="none" stroke="#63b8ff" d="M250.97,-44.11C266.86,-41.72 284.42,-39.09 301.2,-36.57"/>
<polygon fill="#63b8ff" stroke="#63b8ff" points="302.16,-39.97 311.53,-35.02 301.12,-33.04 302.16,-39.97"/>
</g>
</g>
</svg>
