<?xml version="1.0" encoding="UTF-8" standalone="no"?>
<!DOCTYPE svg PUBLIC "-//W3C//DTD SVG 1.1//EN"
 "http://www.w3.org/Graphics/SVG/1.1/DTD/svg11.dtd">
<!-- Generated by graphviz version 2.43.0 (0)
 -->
<!-- Title: quadmath&#45;print.hpp Pages: 1 -->
<svg width="1360pt" height="148pt"
 viewBox="0.00 0.00 1359.50 148.00" xmlns="http://www.w3.org/2000/svg" xmlns:xlink="http://www.w3.org/1999/xlink">
<g id="graph0" class="graph" transform="scale(1 1) rotate(0) translate(4 144)">
<title>quadmath&#45;print.hpp</title>
<!-- Node1 -->
<g id="node1" class="node">
<title>Node1</title>
<g id="a_node1"><a xlink:title=" ">
<polygon fill="#999999" stroke="#666666" points="693.5,-140 580.5,-140 580.5,-121 693.5,-121 693.5,-140"/>
<text text-anchor="middle" x="637" y="-128" font-family="Helvetica,sans-Serif" font-size="10.00">quadmath&#45;print.hpp</text>
</a>
</g>
</g>
<!-- Node2 -->
<g id="node2" class="node">
<title>Node2</title>
<g id="a_node2"><a xlink:href="alm_8tpp.html" target="_top" xlink:title=" ">
<polygon fill="white" stroke="#666666" points="744,-85 690,-85 690,-66 744,-66 744,-85"/>
<text text-anchor="middle" x="717" y="-73" font-family="Helvetica,sans-Serif" font-size="10.00">alm.tpp</text>
</a>
</g>
</g>
<!-- Node1&#45;&gt;Node2 -->
<g id="edge1" class="edge">
<title>Node1&#45;&gt;Node2</title>
<path fill="none" stroke="#63b8ff" d="M658.25,-115.42C672.76,-105.81 691.54,-93.37 703.91,-85.17"/>
<polygon fill="#63b8ff" stroke="#63b8ff" points="656.26,-112.54 649.85,-120.98 660.12,-118.38 656.26,-112.54"/>
</g>
<!-- Node10 -->
<g id="node10" class="node">
<title>Node10</title>
<g id="a_node10"><a xlink:href="panoc_8tpp.html" target="_top" xlink:title=" ">
<polygon fill="white" stroke="#666666" points="604.5,-85 539.5,-85 539.5,-66 604.5,-66 604.5,-85"/>
<text text-anchor="middle" x="572" y="-73" font-family="Helvetica,sans-Serif" font-size="10.00">panoc.tpp</text>
</a>
</g>
</g>
<!-- Node1&#45;&gt;Node10 -->
<g id="edge9" class="edge">
<title>Node1&#45;&gt;Node10</title>
<path fill="none" stroke="#63b8ff" d="M618.73,-114.6C607.08,-105.11 592.4,-93.13 582.63,-85.17"/>
<polygon fill="#63b8ff" stroke="#63b8ff" points="616.59,-117.38 626.56,-120.98 621.02,-111.95 616.59,-117.38"/>
</g>
<!-- Node13 -->
<g id="node13" class="node">
<title>Node13</title>
<g id="a_node13"><a xlink:href="pantr_8tpp.html" target="_top" xlink:title=" ">
<polygon fill="white" stroke="#666666" points="178,-85 118,-85 118,-66 178,-66 178,-85"/>
<text text-anchor="middle" x="148" y="-73" font-family="Helvetica,sans-Serif" font-size="10.00">pantr.tpp</text>
</a>
</g>
</g>
<!-- Node1&#45;&gt;Node13 -->
<g id="edge15" class="edge">
<title>Node1&#45;&gt;Node13</title>
<path fill="none" stroke="#63b8ff" d="M570.34,-122.28C462.83,-110.62 255.36,-88.14 178.02,-79.75"/>
<polygon fill="#63b8ff" stroke="#63b8ff" points="570.11,-125.77 580.43,-123.37 570.86,-118.81 570.11,-125.77"/>
</g>
<!-- Node15 -->
<g id="node15" class="node">
<title>Node15</title>
<g id="a_node15"><a xlink:href="zerofpr_8tpp.html" target="_top" xlink:title=" ">
<polygon fill="white" stroke="#666666" points="1088.5,-85 1019.5,-85 1019.5,-66 1088.5,-66 1088.5,-85"/>
<text text-anchor="middle" x="1054" y="-73" font-family="Helvetica,sans-Serif" font-size="10.00">zerofpr.tpp</text>
</a>
</g>
</g>
<!-- Node1&#45;&gt;Node15 -->
<g id="edge18" class="edge">
<title>Node1&#45;&gt;Node15</title>
<path fill="none" stroke="#63b8ff" d="M703.76,-121.02C793.61,-109.6 950.16,-89.7 1019.39,-80.9"/>
<polygon fill="#63b8ff" stroke="#63b8ff" points="703.15,-117.56 693.67,-122.3 704.03,-124.51 703.15,-117.56"/>
</g>
<!-- Node3 -->
<g id="node3" class="node">
<title>Node3</title>
<g id="a_node3"><a xlink:href="newton-tr-pantr-alm_8cpp.html" target="_top" xlink:title=" ">
<polygon fill="white" stroke="#666666" points="216,-24.5 80,-24.5 80,-5.5 216,-5.5 216,-24.5"/>
<text text-anchor="middle" x="148" y="-12.5" font-family="Helvetica,sans-Serif" font-size="10.00">newton&#45;tr&#45;pantr&#45;alm.cpp</text>
</a>
</g>
</g>
<!-- Node2&#45;&gt;Node3 -->
<g id="edge2" class="edge">
<title>Node2&#45;&gt;Node3</title>
<path fill="none" stroke="#63b8ff" d="M679.75,-71.33C572.82,-62.18 269.67,-36.07 225,-30 213.96,-28.5 202.09,-26.52 191.06,-24.53"/>
<polygon fill="#63b8ff" stroke="#63b8ff" points="679.51,-74.82 689.77,-72.18 680.1,-67.84 679.51,-74.82"/>
</g>
<!-- Node4 -->
<g id="node4" class="node">
<title>Node4</title>
<g id="a_node4"><a xlink:href="panoc-alm_8cpp.html" target="_top" xlink:title=" ">
<polygon fill="white" stroke="#666666" points="551.5,-24.5 462.5,-24.5 462.5,-5.5 551.5,-5.5 551.5,-24.5"/>
<text text-anchor="middle" x="507" y="-12.5" font-family="Helvetica,sans-Serif" font-size="10.00">panoc&#45;alm.cpp</text>
</a>
</g>
</g>
<!-- Node2&#45;&gt;Node4 -->
<g id="edge3" class="edge">
<title>Node2&#45;&gt;Node4</title>
<path fill="none" stroke="#63b8ff" d="M680.24,-64.26C639.79,-52.99 575.51,-35.08 537.66,-24.54"/>
<polygon fill="#63b8ff" stroke="#63b8ff" points="679.4,-67.66 689.98,-66.97 681.28,-60.92 679.4,-67.66"/>
</g>
<!-- Node5 -->
<g id="node5" class="node">
<title>Node5</title>
<g id="a_node5"><a xlink:href="panoc-anderson-alm_8cpp.html" target="_top" xlink:title=" ">
<polygon fill="white" stroke="#666666" points="706.5,-24.5 569.5,-24.5 569.5,-5.5 706.5,-5.5 706.5,-24.5"/>
<text text-anchor="middle" x="638" y="-12.5" font-family="Helvetica,sans-Serif" font-size="10.00">panoc&#45;anderson&#45;alm.cpp</text>
</a>
</g>
</g>
<!-- Node2&#45;&gt;Node5 -->
<g id="edge4" class="edge">
<title>Node2&#45;&gt;Node5</title>
<path fill="none" stroke="#63b8ff" d="M697.21,-59.85C682.25,-48.77 662.21,-33.93 649.7,-24.67"/>
<polygon fill="#63b8ff" stroke="#63b8ff" points="695.22,-62.73 705.34,-65.87 699.39,-57.1 695.22,-62.73"/>
</g>
<!-- Node6 -->
<g id="node6" class="node">
<title>Node6</title>
<g id="a_node6"><a xlink:href="structured-panoc-alm_8cpp.html" target="_top" xlink:title=" ">
<polygon fill="white" stroke="#666666" points="867,-24.5 725,-24.5 725,-5.5 867,-5.5 867,-24.5"/>
<text text-anchor="middle" x="796" y="-12.5" font-family="Helvetica,sans-Serif" font-size="10.00">structured&#45;panoc&#45;alm.cpp</text>
</a>
</g>
</g>
<!-- Node2&#45;&gt;Node6 -->
<g id="edge5" class="edge">
<title>Node2&#45;&gt;Node6</title>
<path fill="none" stroke="#63b8ff" d="M736.79,-59.85C751.75,-48.77 771.79,-33.93 784.3,-24.67"/>
<polygon fill="#63b8ff" stroke="#63b8ff" points="734.61,-57.1 728.66,-65.87 738.78,-62.73 734.61,-57.1"/>
</g>
<!-- Node7 -->
<g id="node7" class="node">
<title>Node7</title>
<g id="a_node7"><a xlink:href="structured-zerofpr-alm_8cpp.html" target="_top" xlink:title=" ">
<polygon fill="white" stroke="#666666" points="989,-30 885,-30 885,0 989,0 989,-30"/>
<text text-anchor="start" x="893" y="-18" font-family="Helvetica,sans-Serif" font-size="10.00">structured&#45;zerofpr</text>
<text text-anchor="middle" x="937" y="-7" font-family="Helvetica,sans-Serif" font-size="10.00">&#45;alm.cpp</text>
</a>
</g>
</g>
<!-- Node2&#45;&gt;Node7 -->
<g id="edge6" class="edge">
<title>Node2&#45;&gt;Node7</title>
<path fill="none" stroke="#63b8ff" d="M754.46,-64.54C790.31,-55 844.72,-40.54 884.81,-29.88"/>
<polygon fill="#63b8ff" stroke="#63b8ff" points="753.18,-61.26 744.42,-67.21 754.98,-68.02 753.18,-61.26"/>
</g>
<!-- Node8 -->
<g id="node8" class="node">
<title>Node8</title>
<g id="a_node8"><a xlink:href="zerofpr-alm_8cpp.html" target="_top" xlink:title=" ">
<polygon fill="white" stroke="#666666" points="1101,-24.5 1007,-24.5 1007,-5.5 1101,-5.5 1101,-24.5"/>
<text text-anchor="middle" x="1054" y="-12.5" font-family="Helvetica,sans-Serif" font-size="10.00">zerofpr&#45;alm.cpp</text>
</a>
</g>
</g>
<!-- Node2&#45;&gt;Node8 -->
<g id="edge7" class="edge">
<title>Node2&#45;&gt;Node8</title>
<path fill="none" stroke="#63b8ff" d="M754.4,-69.64C808.43,-62.39 911.34,-47.66 998,-30 1005.76,-28.42 1014.06,-26.48 1021.83,-24.56"/>
<polygon fill="#63b8ff" stroke="#63b8ff" points="753.72,-66.2 744.27,-70.99 754.64,-73.14 753.72,-66.2"/>
</g>
<!-- Node9 -->
<g id="node9" class="node">
<title>Node9</title>
<g id="a_node9"><a xlink:href="zerofpr-anderson-alm_8cpp.html" target="_top" xlink:title=" ">
<polygon fill="white" stroke="#666666" points="1262.5,-24.5 1119.5,-24.5 1119.5,-5.5 1262.5,-5.5 1262.5,-24.5"/>
<text text-anchor="middle" x="1191" y="-12.5" font-family="Helvetica,sans-Serif" font-size="10.00">zerofpr&#45;anderson&#45;alm.cpp</text>
</a>
</g>
</g>
<!-- Node2&#45;&gt;Node9 -->
<g id="edge8" class="edge">
<title>Node2&#45;&gt;Node9</title>
<path fill="none" stroke="#63b8ff" d="M754.31,-71.01C824.23,-64.3 979.72,-48.62 1110,-30 1121.16,-28.41 1133.15,-26.46 1144.39,-24.54"/>
<polygon fill="#63b8ff" stroke="#63b8ff" points="753.85,-67.54 744.23,-71.97 754.52,-74.5 753.85,-67.54"/>
</g>
<!-- Node10&#45;&gt;Node4 -->
<g id="edge10" class="edge">
<title>Node10&#45;&gt;Node4</title>
<path fill="none" stroke="#63b8ff" d="M554.68,-58.91C542.49,-47.94 526.63,-33.67 516.63,-24.67"/>
<polygon fill="#63b8ff" stroke="#63b8ff" points="552.63,-61.78 562.41,-65.87 557.32,-56.58 552.63,-61.78"/>
</g>
<!-- Node10&#45;&gt;Node5 -->
<g id="edge11" class="edge">
<title>Node10&#45;&gt;Node5</title>
<path fill="none" stroke="#63b8ff" d="M589.24,-59.22C601.66,-48.21 617.97,-33.75 628.22,-24.67"/>
<polygon fill="#63b8ff" stroke="#63b8ff" points="586.9,-56.62 581.74,-65.87 591.54,-61.85 586.9,-56.62"/>
</g>
<!-- Node10&#45;&gt;Node6 -->
<g id="edge14" class="edge">
<title>Node10&#45;&gt;Node6</title>
<path fill="none" stroke="#63b8ff" d="M614.52,-63.4C657.83,-52.08 724.05,-34.79 763.39,-24.52"/>
<polygon fill="#63b8ff" stroke="#63b8ff" points="613.36,-60.08 604.57,-65.99 615.13,-66.85 613.36,-60.08"/>
</g>
<!-- Node11 -->
<g id="node11" class="node">
<title>Node11</title>
<g id="a_node11"><a xlink:href="panoc_8cpp.html" target="_top" xlink:title=" ">
<polygon fill="white" stroke="#666666" points="300,-24.5 234,-24.5 234,-5.5 300,-5.5 300,-24.5"/>
<text text-anchor="middle" x="267" y="-12.5" font-family="Helvetica,sans-Serif" font-size="10.00">panoc.cpp</text>
</a>
</g>
</g>
<!-- Node10&#45;&gt;Node11 -->
<g id="edge12" class="edge">
<title>Node10&#45;&gt;Node11</title>
<path fill="none" stroke="#63b8ff" d="M529.34,-69.34C476.96,-62.54 385.66,-49.14 309,-30 303.03,-28.51 296.7,-26.58 290.8,-24.64"/>
<polygon fill="#63b8ff" stroke="#63b8ff" points="528.91,-72.81 539.28,-70.61 529.8,-65.87 528.91,-72.81"/>
</g>
<!-- Node12 -->
<g id="node12" class="node">
<title>Node12</title>
<g id="a_node12"><a xlink:href="structured-newton_8cpp.html" target="_top" xlink:title=" ">
<polygon fill="white" stroke="#666666" points="444,-24.5 318,-24.5 318,-5.5 444,-5.5 444,-24.5"/>
<text text-anchor="middle" x="381" y="-12.5" font-family="Helvetica,sans-Serif" font-size="10.00">structured&#45;newton.cpp</text>
</a>
</g>
</g>
<!-- Node10&#45;&gt;Node12 -->
<g id="edge13" class="edge">
<title>Node10&#45;&gt;Node12</title>
<path fill="none" stroke="#63b8ff" d="M534.33,-62.96C497.39,-51.65 441.92,-34.66 408.81,-24.52"/>
<polygon fill="#63b8ff" stroke="#63b8ff" points="533.64,-66.41 544.23,-65.99 535.69,-59.72 533.64,-66.41"/>
</g>
<!-- Node13&#45;&gt;Node3 -->
<g id="edge16" class="edge">
<title>Node13&#45;&gt;Node3</title>
<path fill="none" stroke="#63b8ff" d="M148,-55.66C148,-45.24 148,-32.8 148,-24.67"/>
<polygon fill="#63b8ff" stroke="#63b8ff" points="144.5,-55.87 148,-65.87 151.5,-55.87 144.5,-55.87"/>
</g>
<!-- Node14 -->
<g id="node14" class="node">
<title>Node14</title>
<g id="a_node14"><a xlink:href="pantr_8cpp.html" target="_top" xlink:title=" ">
<polygon fill="white" stroke="#666666" points="62,-24.5 0,-24.5 0,-5.5 62,-5.5 62,-24.5"/>
<text text-anchor="middle" x="31" y="-12.5" font-family="Helvetica,sans-Serif" font-size="10.00">pantr.cpp</text>
</a>
</g>
</g>
<!-- Node13&#45;&gt;Node14 -->
<g id="edge17" class="edge">
<title>Node13&#45;&gt;Node14</title>
<path fill="none" stroke="#63b8ff" d="M121.96,-61.48C99.42,-50.21 67.45,-34.23 48.03,-24.52"/>
<polygon fill="#63b8ff" stroke="#63b8ff" points="120.48,-64.65 130.99,-65.99 123.61,-58.39 120.48,-64.65"/>
</g>
<!-- Node15&#45;&gt;Node7 -->
<g id="edge19" class="edge">
<title>Node15&#45;&gt;Node7</title>
<path fill="none" stroke="#63b8ff" d="M1027.92,-61.46C1009.35,-52.18 984.42,-39.71 965.36,-30.18"/>
<polygon fill="#63b8ff" stroke="#63b8ff" points="1026.48,-64.65 1036.99,-65.99 1029.61,-58.39 1026.48,-64.65"/>
</g>
<!-- Node15&#45;&gt;Node8 -->
<g id="edge20" class="edge">
<title>Node15&#45;&gt;Node8</title>
<path fill="none" stroke="#63b8ff" d="M1054,-55.66C1054,-45.24 1054,-32.8 1054,-24.67"/>
<polygon fill="#63b8ff" stroke="#63b8ff" points="1050.5,-55.87 1054,-65.87 1057.5,-55.87 1050.5,-55.87"/>
</g>
<!-- Node15&#45;&gt;Node9 -->
<g id="edge21" class="edge">
<title>Node15&#45;&gt;Node9</title>
<path fill="none" stroke="#63b8ff" d="M1083.43,-61.93C1109.88,-50.64 1148.01,-34.36 1171.05,-24.52"/>
<polygon fill="#63b8ff" stroke="#63b8ff" points="1081.74,-58.85 1073.92,-65.99 1084.49,-65.29 1081.74,-58.85"/>
</g>
<!-- Node16 -->
<g id="node16" class="node">
<title>Node16</title>
<g id="a_node16"><a xlink:href="zerofpr_8cpp.html" target="_top" xlink:title=" ">
<polygon fill="white" stroke="#666666" points="1351.5,-24.5 1280.5,-24.5 1280.5,-5.5 1351.5,-5.5 1351.5,-24.5"/>
<text text-anchor="middle" x="1316" y="-12.5" font-family="Helvetica,sans-Serif" font-size="10.00">zerofpr.cpp</text>
</a>
</g>
</g>
<!-- Node15&#45;&gt;Node16 -->
<g id="edge22" class="edge">
<title>Node15&#45;&gt;Node16</title>
<path fill="none" stroke="#63b8ff" d="M1098.49,-66.86C1142.77,-58.91 1212.52,-45.49 1272,-30 1278.05,-28.42 1284.5,-26.51 1290.54,-24.61"/>
<polygon fill="#63b8ff" stroke="#63b8ff" points="1097.85,-63.41 1088.62,-68.61 1099.08,-70.31 1097.85,-63.41"/>
</g>
</g>
</svg>
