<?xml version="1.0" encoding="UTF-8" standalone="no"?>
<!DOCTYPE svg PUBLIC "-//W3C//DTD SVG 1.1//EN"
 "http://www.w3.org/Graphics/SVG/1.1/DTD/svg11.dtd">
<!-- Generated by graphviz version 2.43.0 (0)
 -->
<!-- Title: solverstatus.hpp Pages: 1 -->
<svg width="2202pt" height="269pt"
 viewBox="0.00 0.00 2202.00 269.00" xmlns="http://www.w3.org/2000/svg" xmlns:xlink="http://www.w3.org/1999/xlink">
<g id="graph0" class="graph" transform="scale(1 1) rotate(0) translate(4 265)">
<title>solverstatus.hpp</title>
<!-- Node1 -->
<g id="node1" class="node">
<title>Node1</title>
<g id="a_node1"><a xlink:title=" ">
<polygon fill="#999999" stroke="#666666" points="1290.5,-261 1192.5,-261 1192.5,-242 1290.5,-242 1290.5,-261"/>
<text text-anchor="middle" x="1241.5" y="-249" font-family="Helvetica,sans-Serif" font-size="10.00">solverstatus.hpp</text>
</a>
</g>
</g>
<!-- Node2 -->
<g id="node2" class="node">
<title>Node2</title>
<g id="a_node2"><a xlink:href="alm_8hpp.html" target="_top" xlink:title=" ">
<polygon fill="white" stroke="#666666" points="734.5,-206 678.5,-206 678.5,-187 734.5,-187 734.5,-206"/>
<text text-anchor="middle" x="706.5" y="-194" font-family="Helvetica,sans-Serif" font-size="10.00">alm.hpp</text>
</a>
</g>
</g>
<!-- Node1&#45;&gt;Node2 -->
<g id="edge1" class="edge">
<title>Node1&#45;&gt;Node2</title>
<path fill="none" stroke="#63b8ff" d="M1182.09,-244.61C1067.14,-233.23 818.24,-208.57 734.58,-200.28"/>
<polygon fill="#63b8ff" stroke="#63b8ff" points="1181.83,-248.11 1192.13,-245.61 1182.52,-241.14 1181.83,-248.11"/>
</g>
<!-- Node8 -->
<g id="node8" class="node">
<title>Node8</title>
<g id="a_node8"><a xlink:href="alm_8tpp.html" target="_top" xlink:title=" ">
<polygon fill="white" stroke="#666666" points="537.5,-90.5 483.5,-90.5 483.5,-71.5 537.5,-71.5 537.5,-90.5"/>
<text text-anchor="middle" x="510.5" y="-78.5" font-family="Helvetica,sans-Serif" font-size="10.00">alm.tpp</text>
</a>
</g>
</g>
<!-- Node1&#45;&gt;Node8 -->
<g id="edge33" class="edge">
<title>Node1&#45;&gt;Node8</title>
<path fill="none" stroke="#63b8ff" d="M1182.14,-249.37C1077.77,-246.6 854.86,-237.23 669.5,-206 574.36,-189.97 518.45,-227.38 459.5,-151 442.94,-129.54 475.7,-103.72 496.03,-90.58"/>
<polygon fill="#63b8ff" stroke="#63b8ff" points="1182.08,-252.86 1192.17,-249.62 1182.26,-245.87 1182.08,-252.86"/>
</g>
<!-- Node26 -->
<g id="node26" class="node">
<title>Node26</title>
<g id="a_node26"><a xlink:href="lbfgsb_2include_2alpaqa_2lbfgsb_2lbfgsb-adapter_8hpp.html" target="_top" xlink:title=" ">
<polygon fill="white" stroke="#666666" points="1295.5,-206 1187.5,-206 1187.5,-187 1295.5,-187 1295.5,-206"/>
<text text-anchor="middle" x="1241.5" y="-194" font-family="Helvetica,sans-Serif" font-size="10.00">lbfgsb&#45;adapter.hpp</text>
</a>
</g>
</g>
<!-- Node1&#45;&gt;Node26 -->
<g id="edge34" class="edge">
<title>Node1&#45;&gt;Node26</title>
<path fill="none" stroke="#63b8ff" d="M1241.5,-231.66C1241.5,-222.93 1241.5,-212.99 1241.5,-206.09"/>
<polygon fill="#63b8ff" stroke="#63b8ff" points="1238,-231.75 1241.5,-241.75 1245,-231.75 1238,-231.75"/>
</g>
<!-- Node29 -->
<g id="node29" class="node">
<title>Node29</title>
<g id="a_node29"><a xlink:href="lbfgspp_2include_2alpaqa_2lbfgsb-adapter_8hpp.html" target="_top" xlink:title=" ">
<polygon fill="white" stroke="#666666" points="2027.5,-206 1919.5,-206 1919.5,-187 2027.5,-187 2027.5,-206"/>
<text text-anchor="middle" x="1973.5" y="-194" font-family="Helvetica,sans-Serif" font-size="10.00">lbfgsb&#45;adapter.hpp</text>
</a>
</g>
</g>
<!-- Node1&#45;&gt;Node29 -->
<g id="edge37" class="edge">
<title>Node1&#45;&gt;Node29</title>
<path fill="none" stroke="#63b8ff" d="M1300.71,-246.21C1439.77,-236.14 1785.56,-211.11 1919.4,-201.42"/>
<polygon fill="#63b8ff" stroke="#63b8ff" points="1300.39,-242.73 1290.67,-246.94 1300.89,-249.71 1300.39,-242.73"/>
</g>
<!-- Node32 -->
<g id="node32" class="node">
<title>Node32</title>
<g id="a_node32"><a xlink:href="panoc-helpers_8tpp.html" target="_top" xlink:title=" ">
<polygon fill="white" stroke="#666666" points="1925.5,-151 1821.5,-151 1821.5,-132 1925.5,-132 1925.5,-151"/>
<text text-anchor="middle" x="1873.5" y="-139" font-family="Helvetica,sans-Serif" font-size="10.00">panoc&#45;helpers.tpp</text>
</a>
</g>
</g>
<!-- Node1&#45;&gt;Node32 -->
<g id="edge40" class="edge">
<title>Node1&#45;&gt;Node32</title>
<path fill="none" stroke="#63b8ff" d="M1300.81,-242.61C1345.49,-235.67 1407.83,-223.86 1460.5,-206 1478.76,-199.81 1480.99,-192.4 1499.5,-187 1633.92,-147.77 1673.59,-168.66 1812.5,-151 1815.36,-150.64 1818.3,-150.25 1821.27,-149.86"/>
<polygon fill="#63b8ff" stroke="#63b8ff" points="1300.07,-239.18 1290.71,-244.14 1301.12,-246.1 1300.07,-239.18"/>
</g>
<!-- Node43 -->
<g id="node43" class="node">
<title>Node43</title>
<g id="a_node43"><a xlink:href="panoc_8hpp.html" target="_top" xlink:title=" ">
<polygon fill="white" stroke="#666666" points="1451,-206 1384,-206 1384,-187 1451,-187 1451,-206"/>
<text text-anchor="middle" x="1417.5" y="-194" font-family="Helvetica,sans-Serif" font-size="10.00">panoc.hpp</text>
</a>
</g>
</g>
<!-- Node1&#45;&gt;Node43 -->
<g id="edge60" class="edge">
<title>Node1&#45;&gt;Node43</title>
<path fill="none" stroke="#63b8ff" d="M1279.5,-239.06C1312.4,-229.15 1359.24,-215.04 1389,-206.08"/>
<polygon fill="#63b8ff" stroke="#63b8ff" points="1278.34,-235.75 1269.78,-241.98 1280.36,-242.45 1278.34,-235.75"/>
</g>
<!-- Node48 -->
<g id="node48" class="node">
<title>Node48</title>
<g id="a_node48"><a xlink:href="pantr_8hpp.html" target="_top" xlink:title=" ">
<polygon fill="white" stroke="#666666" points="1062.5,-151 1000.5,-151 1000.5,-132 1062.5,-132 1062.5,-151"/>
<text text-anchor="middle" x="1031.5" y="-139" font-family="Helvetica,sans-Serif" font-size="10.00">pantr.hpp</text>
</a>
</g>
</g>
<!-- Node1&#45;&gt;Node48 -->
<g id="edge74" class="edge">
<title>Node1&#45;&gt;Node48</title>
<path fill="none" stroke="#63b8ff" d="M1215.53,-237.14C1171.77,-214.64 1084.57,-169.79 1048.12,-151.05"/>
<polygon fill="#63b8ff" stroke="#63b8ff" points="1214.18,-240.38 1224.67,-241.84 1217.38,-234.16 1214.18,-240.38"/>
</g>
<!-- Node49 -->
<g id="node49" class="node">
<title>Node49</title>
<g id="a_node49"><a xlink:href="solverstatus_8cpp.html" target="_top" xlink:title=" ">
<polygon fill="white" stroke="#666666" points="1605,-206 1508,-206 1508,-187 1605,-187 1605,-206"/>
<text text-anchor="middle" x="1556.5" y="-194" font-family="Helvetica,sans-Serif" font-size="10.00">solverstatus.cpp</text>
</a>
</g>
</g>
<!-- Node1&#45;&gt;Node49 -->
<g id="edge79" class="edge">
<title>Node1&#45;&gt;Node49</title>
<path fill="none" stroke="#63b8ff" d="M1300.78,-240.53C1360.68,-230.45 1452.12,-215.06 1507.89,-205.68"/>
<polygon fill="#63b8ff" stroke="#63b8ff" points="1300,-237.11 1290.72,-242.22 1301.16,-244.01 1300,-237.11"/>
</g>
<!-- Node50 -->
<g id="node50" class="node">
<title>Node50</title>
<g id="a_node50"><a xlink:href="zerofpr_8hpp.html" target="_top" xlink:title=" ">
<polygon fill="white" stroke="#666666" points="344,-151 273,-151 273,-132 344,-132 344,-151"/>
<text text-anchor="middle" x="308.5" y="-139" font-family="Helvetica,sans-Serif" font-size="10.00">zerofpr.hpp</text>
</a>
</g>
</g>
<!-- Node1&#45;&gt;Node50 -->
<g id="edge80" class="edge">
<title>Node1&#45;&gt;Node50</title>
<path fill="none" stroke="#63b8ff" d="M1182.35,-249.32C1002.51,-245.45 470.02,-231.91 396.5,-206 363.09,-194.23 331.29,-165.5 316.76,-151.07"/>
<polygon fill="#63b8ff" stroke="#63b8ff" points="1182.35,-252.82 1192.42,-249.53 1182.5,-245.82 1182.35,-252.82"/>
</g>
<!-- Node3 -->
<g id="node3" class="node">
<title>Node3</title>
<g id="a_node3"><a xlink:href="alm-driver_8hpp.html" target="_top" xlink:title=" ">
<polygon fill="white" stroke="#666666" points="750.5,-151 662.5,-151 662.5,-132 750.5,-132 750.5,-151"/>
<text text-anchor="middle" x="706.5" y="-139" font-family="Helvetica,sans-Serif" font-size="10.00">alm&#45;driver.hpp</text>
</a>
</g>
</g>
<!-- Node2&#45;&gt;Node3 -->
<g id="edge2" class="edge">
<title>Node2&#45;&gt;Node3</title>
<path fill="none" stroke="#63b8ff" d="M706.5,-176.66C706.5,-167.93 706.5,-157.99 706.5,-151.09"/>
<polygon fill="#63b8ff" stroke="#63b8ff" points="703,-176.75 706.5,-186.75 710,-176.75 703,-176.75"/>
</g>
<!-- Node6 -->
<g id="node6" class="node">
<title>Node6</title>
<g id="a_node6"><a xlink:href="alm-helpers_8tpp.html" target="_top" xlink:title=" ">
<polygon fill="white" stroke="#666666" points="570.5,-151 476.5,-151 476.5,-132 570.5,-132 570.5,-151"/>
<text text-anchor="middle" x="523.5" y="-139" font-family="Helvetica,sans-Serif" font-size="10.00">alm&#45;helpers.tpp</text>
</a>
</g>
</g>
<!-- Node2&#45;&gt;Node6 -->
<g id="edge5" class="edge">
<title>Node2&#45;&gt;Node6</title>
<path fill="none" stroke="#63b8ff" d="M668.63,-184.53C634.28,-174.59 584.37,-160.13 552.94,-151.03"/>
<polygon fill="#63b8ff" stroke="#63b8ff" points="667.73,-187.91 678.31,-187.33 669.68,-181.19 667.73,-187.91"/>
</g>
<!-- Node2&#45;&gt;Node8 -->
<g id="edge16" class="edge">
<title>Node2&#45;&gt;Node8</title>
<path fill="none" stroke="#63b8ff" d="M668.05,-194.1C607.08,-190.97 492.55,-181.15 467.5,-151 450.9,-131.03 480.38,-104.12 498.27,-90.56"/>
<polygon fill="#63b8ff" stroke="#63b8ff" points="667.91,-197.59 678.06,-194.57 668.24,-190.6 667.91,-197.59"/>
</g>
<!-- Node16 -->
<g id="node16" class="node">
<title>Node16</title>
<g id="a_node16"><a xlink:href="alm_8cpp.html" target="_top" xlink:title=" ">
<polygon fill="white" stroke="#666666" points="644.5,-151 588.5,-151 588.5,-132 644.5,-132 644.5,-151"/>
<text text-anchor="middle" x="616.5" y="-139" font-family="Helvetica,sans-Serif" font-size="10.00">alm.cpp</text>
</a>
</g>
</g>
<!-- Node2&#45;&gt;Node16 -->
<g id="edge15" class="edge">
<title>Node2&#45;&gt;Node16</title>
<path fill="none" stroke="#63b8ff" d="M683.06,-181.7C666.66,-172.04 645.27,-159.44 631.22,-151.17"/>
<polygon fill="#63b8ff" stroke="#63b8ff" points="681.65,-184.93 692.04,-186.98 685.2,-178.89 681.65,-184.93"/>
</g>
<!-- Node17 -->
<g id="node17" class="node">
<title>Node17</title>
<g id="a_node17"><a xlink:href="newton-tr-pantr-alm_8hpp.html" target="_top" xlink:title=" ">
<polygon fill="white" stroke="#666666" points="1035,-90.5 898,-90.5 898,-71.5 1035,-71.5 1035,-90.5"/>
<text text-anchor="middle" x="966.5" y="-78.5" font-family="Helvetica,sans-Serif" font-size="10.00">newton&#45;tr&#45;pantr&#45;alm.hpp</text>
</a>
</g>
</g>
<!-- Node2&#45;&gt;Node17 -->
<g id="edge17" class="edge">
<title>Node2&#45;&gt;Node17</title>
<path fill="none" stroke="#63b8ff" d="M731.63,-182.26C757.39,-168.9 798.77,-148.01 835.5,-132 872.1,-116.05 915.57,-100.02 942.08,-90.55"/>
<polygon fill="#63b8ff" stroke="#63b8ff" points="729.81,-179.26 722.56,-186.99 733.05,-185.47 729.81,-179.26"/>
</g>
<!-- Node18 -->
<g id="node18" class="node">
<title>Node18</title>
<g id="a_node18"><a xlink:href="panoc-alm_8hpp.html" target="_top" xlink:title=" ">
<polygon fill="white" stroke="#666666" points="1333,-151 1244,-151 1244,-132 1333,-132 1333,-151"/>
<text text-anchor="middle" x="1288.5" y="-139" font-family="Helvetica,sans-Serif" font-size="10.00">panoc&#45;alm.hpp</text>
</a>
</g>
</g>
<!-- Node2&#45;&gt;Node18 -->
<g id="edge19" class="edge">
<title>Node2&#45;&gt;Node18</title>
<path fill="none" stroke="#63b8ff" d="M744.9,-193.26C832.24,-187.95 1052.39,-173.35 1235.5,-151 1238.18,-150.67 1240.94,-150.31 1243.71,-149.93"/>
<polygon fill="#63b8ff" stroke="#63b8ff" points="744.45,-189.78 734.68,-193.88 744.87,-196.77 744.45,-189.78"/>
</g>
<!-- Node20 -->
<g id="node20" class="node">
<title>Node20</title>
<g id="a_node20"><a xlink:href="panoc-anderson-alm_8hpp.html" target="_top" xlink:title=" ">
<polygon fill="white" stroke="#666666" points="982.5,-151 844.5,-151 844.5,-132 982.5,-132 982.5,-151"/>
<text text-anchor="middle" x="913.5" y="-139" font-family="Helvetica,sans-Serif" font-size="10.00">panoc&#45;anderson&#45;alm.hpp</text>
</a>
</g>
</g>
<!-- Node2&#45;&gt;Node20 -->
<g id="edge22" class="edge">
<title>Node2&#45;&gt;Node20</title>
<path fill="none" stroke="#63b8ff" d="M744.72,-185.71C783.53,-175.78 843.01,-160.55 880.02,-151.07"/>
<polygon fill="#63b8ff" stroke="#63b8ff" points="743.67,-182.37 734.85,-188.24 745.4,-189.15 743.67,-182.37"/>
</g>
<!-- Node21 -->
<g id="node21" class="node">
<title>Node21</title>
<g id="a_node21"><a xlink:href="params_8cpp.html" target="_top" xlink:title=" ">
<polygon fill="white" stroke="#666666" points="1165.5,-90.5 1091.5,-90.5 1091.5,-71.5 1165.5,-71.5 1165.5,-90.5"/>
<text text-anchor="middle" x="1128.5" y="-78.5" font-family="Helvetica,sans-Serif" font-size="10.00">params.cpp</text>
</a>
</g>
</g>
<!-- Node2&#45;&gt;Node21 -->
<g id="edge24" class="edge">
<title>Node2&#45;&gt;Node21</title>
<path fill="none" stroke="#63b8ff" d="M744.7,-194.39C826.54,-191.45 1015.84,-181.47 1071.5,-151 1097.4,-136.82 1116.25,-105.68 1124.25,-90.57"/>
<polygon fill="#63b8ff" stroke="#63b8ff" points="744.46,-190.9 734.58,-194.74 744.7,-197.89 744.46,-190.9"/>
</g>
<!-- Node22 -->
<g id="node22" class="node">
<title>Node22</title>
<g id="a_node22"><a xlink:href="structured-panoc-alm_8hpp.html" target="_top" xlink:title=" ">
<polygon fill="white" stroke="#666666" points="1619,-151 1476,-151 1476,-132 1619,-132 1619,-151"/>
<text text-anchor="middle" x="1547.5" y="-139" font-family="Helvetica,sans-Serif" font-size="10.00">structured&#45;panoc&#45;alm.hpp</text>
</a>
</g>
</g>
<!-- Node2&#45;&gt;Node22 -->
<g id="edge25" class="edge">
<title>Node2&#45;&gt;Node22</title>
<path fill="none" stroke="#63b8ff" d="M744.59,-193.91C855.95,-189.14 1190.55,-173.8 1467.5,-151 1470.28,-150.77 1473.12,-150.53 1475.99,-150.27"/>
<polygon fill="#63b8ff" stroke="#63b8ff" points="744.36,-190.42 734.52,-194.34 744.66,-197.41 744.36,-190.42"/>
</g>
<!-- Node23 -->
<g id="node23" class="node">
<title>Node23</title>
<g id="a_node23"><a xlink:href="structured-zerofpr-alm_8hpp.html" target="_top" xlink:title=" ">
<polygon fill="white" stroke="#666666" points="465.5,-96 361.5,-96 361.5,-66 465.5,-66 465.5,-96"/>
<text text-anchor="start" x="369.5" y="-84" font-family="Helvetica,sans-Serif" font-size="10.00">structured&#45;zerofpr</text>
<text text-anchor="middle" x="413.5" y="-73" font-family="Helvetica,sans-Serif" font-size="10.00">&#45;alm.hpp</text>
</a>
</g>
</g>
<!-- Node2&#45;&gt;Node23 -->
<g id="edge27" class="edge">
<title>Node2&#45;&gt;Node23</title>
<path fill="none" stroke="#63b8ff" d="M668.18,-192.27C607.64,-186.55 493.27,-173.15 459.5,-151 439.28,-137.73 425.78,-112.16 418.9,-96.15"/>
<polygon fill="#63b8ff" stroke="#63b8ff" points="668.2,-195.78 678.47,-193.21 668.84,-188.81 668.2,-195.78"/>
</g>
<!-- Node24 -->
<g id="node24" class="node">
<title>Node24</title>
<g id="a_node24"><a xlink:href="zerofpr-alm_8hpp.html" target="_top" xlink:title=" ">
<polygon fill="white" stroke="#666666" points="95,-90.5 0,-90.5 0,-71.5 95,-71.5 95,-90.5"/>
<text text-anchor="middle" x="47.5" y="-78.5" font-family="Helvetica,sans-Serif" font-size="10.00">zerofpr&#45;alm.hpp</text>
</a>
</g>
</g>
<!-- Node2&#45;&gt;Node24 -->
<g id="edge29" class="edge">
<title>Node2&#45;&gt;Node24</title>
<path fill="none" stroke="#63b8ff" d="M668.17,-195.37C586.58,-194.33 390.13,-187.85 230.5,-151 167.64,-136.49 97.28,-105.51 65.18,-90.5"/>
<polygon fill="#63b8ff" stroke="#63b8ff" points="668.42,-198.87 678.45,-195.47 668.49,-191.87 668.42,-198.87"/>
</g>
<!-- Node25 -->
<g id="node25" class="node">
<title>Node25</title>
<g id="a_node25"><a xlink:href="zerofpr-anderson-alm_8hpp.html" target="_top" xlink:title=" ">
<polygon fill="white" stroke="#666666" points="256,-90.5 113,-90.5 113,-71.5 256,-71.5 256,-90.5"/>
<text text-anchor="middle" x="184.5" y="-78.5" font-family="Helvetica,sans-Serif" font-size="10.00">zerofpr&#45;anderson&#45;alm.hpp</text>
</a>
</g>
</g>
<!-- Node2&#45;&gt;Node25 -->
<g id="edge31" class="edge">
<title>Node2&#45;&gt;Node25</title>
<path fill="none" stroke="#63b8ff" d="M668.23,-194.62C574.51,-192.01 335.89,-182.38 263.5,-151 231.75,-137.24 203.61,-105.9 191.22,-90.65"/>
<polygon fill="#63b8ff" stroke="#63b8ff" points="668.31,-198.13 678.4,-194.9 668.5,-191.13 668.31,-198.13"/>
</g>
<!-- Node4 -->
<g id="node4" class="node">
<title>Node4</title>
<g id="a_node4"><a xlink:href="panoc-driver_8cpp.html" target="_top" xlink:title=" ">
<polygon fill="white" stroke="#666666" points="767.5,-90.5 669.5,-90.5 669.5,-71.5 767.5,-71.5 767.5,-90.5"/>
<text text-anchor="middle" x="718.5" y="-78.5" font-family="Helvetica,sans-Serif" font-size="10.00">panoc&#45;driver.cpp</text>
</a>
</g>
</g>
<!-- Node3&#45;&gt;Node4 -->
<g id="edge3" class="edge">
<title>Node3&#45;&gt;Node4</title>
<path fill="none" stroke="#63b8ff" d="M710.3,-121.99C712.45,-111.51 715.04,-98.89 716.72,-90.67"/>
<polygon fill="#63b8ff" stroke="#63b8ff" points="706.85,-121.37 708.27,-131.87 713.71,-122.78 706.85,-121.37"/>
</g>
<!-- Node5 -->
<g id="node5" class="node">
<title>Node5</title>
<g id="a_node5"><a xlink:href="pantr-driver_8cpp.html" target="_top" xlink:title=" ">
<polygon fill="white" stroke="#666666" points="879.5,-90.5 785.5,-90.5 785.5,-71.5 879.5,-71.5 879.5,-90.5"/>
<text text-anchor="middle" x="832.5" y="-78.5" font-family="Helvetica,sans-Serif" font-size="10.00">pantr&#45;driver.cpp</text>
</a>
</g>
</g>
<!-- Node3&#45;&gt;Node5 -->
<g id="edge4" class="edge">
<title>Node3&#45;&gt;Node5</title>
<path fill="none" stroke="#63b8ff" d="M734.21,-127.63C758.51,-116.35 793.15,-100.27 814.16,-90.52"/>
<polygon fill="#63b8ff" stroke="#63b8ff" points="732.42,-124.61 724.82,-131.99 735.37,-130.96 732.42,-124.61"/>
</g>
<!-- Node7 -->
<g id="node7" class="node">
<title>Node7</title>
<g id="a_node7"><a xlink:href="alm-helpers_8cpp.html" target="_top" xlink:title=" ">
<polygon fill="white" stroke="#666666" points="651,-90.5 556,-90.5 556,-71.5 651,-71.5 651,-90.5"/>
<text text-anchor="middle" x="603.5" y="-78.5" font-family="Helvetica,sans-Serif" font-size="10.00">alm&#45;helpers.cpp</text>
</a>
</g>
</g>
<!-- Node6&#45;&gt;Node7 -->
<g id="edge6" class="edge">
<title>Node6&#45;&gt;Node7</title>
<path fill="none" stroke="#63b8ff" d="M543.54,-125.85C558.69,-114.77 578.98,-99.93 591.65,-90.67"/>
<polygon fill="#63b8ff" stroke="#63b8ff" points="541.31,-123.14 535.3,-131.87 545.44,-128.79 541.31,-123.14"/>
</g>
<!-- Node6&#45;&gt;Node8 -->
<g id="edge7" class="edge">
<title>Node6&#45;&gt;Node8</title>
<path fill="none" stroke="#63b8ff" d="M519.39,-121.99C517.06,-111.51 514.25,-98.89 512.43,-90.67"/>
<polygon fill="#63b8ff" stroke="#63b8ff" points="516,-122.87 521.58,-131.87 522.83,-121.35 516,-122.87"/>
</g>
<!-- Node9 -->
<g id="node9" class="node">
<title>Node9</title>
<g id="a_node9"><a xlink:href="newton-tr-pantr-alm_8cpp.html" target="_top" xlink:title=" ">
<polygon fill="white" stroke="#666666" points="992.5,-24.5 856.5,-24.5 856.5,-5.5 992.5,-5.5 992.5,-24.5"/>
<text text-anchor="middle" x="924.5" y="-12.5" font-family="Helvetica,sans-Serif" font-size="10.00">newton&#45;tr&#45;pantr&#45;alm.cpp</text>
</a>
</g>
</g>
<!-- Node8&#45;&gt;Node9 -->
<g id="edge8" class="edge">
<title>Node8&#45;&gt;Node9</title>
<path fill="none" stroke="#63b8ff" d="M539.5,-68.05C541.84,-67.29 544.2,-66.59 546.5,-66 652.78,-38.73 779.89,-25.81 856.31,-20.09"/>
<polygon fill="#63b8ff" stroke="#63b8ff" points="538.27,-64.77 530.03,-71.43 540.62,-71.36 538.27,-64.77"/>
</g>
<!-- Node10 -->
<g id="node10" class="node">
<title>Node10</title>
<g id="a_node10"><a xlink:href="panoc-alm_8cpp.html" target="_top" xlink:title=" ">
<polygon fill="white" stroke="#666666" points="1361,-24.5 1272,-24.5 1272,-5.5 1361,-5.5 1361,-24.5"/>
<text text-anchor="middle" x="1316.5" y="-12.5" font-family="Helvetica,sans-Serif" font-size="10.00">panoc&#45;alm.cpp</text>
</a>
</g>
</g>
<!-- Node8&#45;&gt;Node10 -->
<g id="edge9" class="edge">
<title>Node8&#45;&gt;Node10</title>
<path fill="none" stroke="#63b8ff" d="M538.84,-68.02C541.4,-67.23 543.98,-66.54 546.5,-66 854.16,-0.14 941.72,-72.28 1253.5,-30 1263.16,-28.69 1273.53,-26.65 1283.01,-24.54"/>
<polygon fill="#63b8ff" stroke="#63b8ff" points="537.47,-64.79 529.21,-71.42 539.8,-71.4 537.47,-64.79"/>
</g>
<!-- Node11 -->
<g id="node11" class="node">
<title>Node11</title>
<g id="a_node11"><a xlink:href="panoc-anderson-alm_8cpp.html" target="_top" xlink:title=" ">
<polygon fill="white" stroke="#666666" points="1148,-24.5 1011,-24.5 1011,-5.5 1148,-5.5 1148,-24.5"/>
<text text-anchor="middle" x="1079.5" y="-12.5" font-family="Helvetica,sans-Serif" font-size="10.00">panoc&#45;anderson&#45;alm.cpp</text>
</a>
</g>
</g>
<!-- Node8&#45;&gt;Node11 -->
<g id="edge10" class="edge">
<title>Node8&#45;&gt;Node11</title>
<path fill="none" stroke="#63b8ff" d="M539.29,-67.96C541.71,-67.21 544.13,-66.54 546.5,-66 744.24,-20.76 800.31,-55.95 1001.5,-30 1012.83,-28.54 1025.01,-26.55 1036.3,-24.54"/>
<polygon fill="#63b8ff" stroke="#63b8ff" points="537.87,-64.75 529.6,-71.38 540.2,-71.36 537.87,-64.75"/>
</g>
<!-- Node12 -->
<g id="node12" class="node">
<title>Node12</title>
<g id="a_node12"><a xlink:href="structured-panoc-alm_8cpp.html" target="_top" xlink:title=" ">
<polygon fill="white" stroke="#666666" points="1521.5,-24.5 1379.5,-24.5 1379.5,-5.5 1521.5,-5.5 1521.5,-24.5"/>
<text text-anchor="middle" x="1450.5" y="-12.5" font-family="Helvetica,sans-Serif" font-size="10.00">structured&#45;panoc&#45;alm.cpp</text>
</a>
</g>
</g>
<!-- Node8&#45;&gt;Node12 -->
<g id="edge11" class="edge">
<title>Node8&#45;&gt;Node12</title>
<path fill="none" stroke="#63b8ff" d="M538.83,-68.01C541.39,-67.22 543.97,-66.53 546.5,-66 905.23,9.44 1006.08,-69.68 1370.5,-30 1382.69,-28.67 1395.84,-26.63 1407.88,-24.51"/>
<polygon fill="#63b8ff" stroke="#63b8ff" points="537.47,-64.77 529.2,-71.39 539.8,-71.38 537.47,-64.77"/>
</g>
<!-- Node13 -->
<g id="node13" class="node">
<title>Node13</title>
<g id="a_node13"><a xlink:href="structured-zerofpr-alm_8cpp.html" target="_top" xlink:title=" ">
<polygon fill="white" stroke="#666666" points="562.5,-30 458.5,-30 458.5,0 562.5,0 562.5,-30"/>
<text text-anchor="start" x="466.5" y="-18" font-family="Helvetica,sans-Serif" font-size="10.00">structured&#45;zerofpr</text>
<text text-anchor="middle" x="510.5" y="-7" font-family="Helvetica,sans-Serif" font-size="10.00">&#45;alm.cpp</text>
</a>
</g>
</g>
<!-- Node8&#45;&gt;Node13 -->
<g id="edge12" class="edge">
<title>Node8&#45;&gt;Node13</title>
<path fill="none" stroke="#63b8ff" d="M510.5,-61.35C510.5,-51.47 510.5,-39.51 510.5,-30.36"/>
<polygon fill="#63b8ff" stroke="#63b8ff" points="507,-61.37 510.5,-71.37 514,-61.37 507,-61.37"/>
</g>
<!-- Node14 -->
<g id="node14" class="node">
<title>Node14</title>
<g id="a_node14"><a xlink:href="zerofpr-alm_8cpp.html" target="_top" xlink:title=" ">
<polygon fill="white" stroke="#666666" points="189.5,-24.5 95.5,-24.5 95.5,-5.5 189.5,-5.5 189.5,-24.5"/>
<text text-anchor="middle" x="142.5" y="-12.5" font-family="Helvetica,sans-Serif" font-size="10.00">zerofpr&#45;alm.cpp</text>
</a>
</g>
</g>
<!-- Node8&#45;&gt;Node14 -->
<g id="edge13" class="edge">
<title>Node8&#45;&gt;Node14</title>
<path fill="none" stroke="#63b8ff" d="M481.51,-68.04C479.16,-67.28 476.8,-66.59 474.5,-66 354.65,-35.36 320.04,-53.04 198.5,-30 190.52,-28.49 181.99,-26.53 174.05,-24.56"/>
<polygon fill="#63b8ff" stroke="#63b8ff" points="480.38,-71.36 490.98,-71.42 482.73,-64.76 480.38,-71.36"/>
</g>
<!-- Node15 -->
<g id="node15" class="node">
<title>Node15</title>
<g id="a_node15"><a xlink:href="zerofpr-anderson-alm_8cpp.html" target="_top" xlink:title=" ">
<polygon fill="white" stroke="#666666" points="440,-24.5 297,-24.5 297,-5.5 440,-5.5 440,-24.5"/>
<text text-anchor="middle" x="368.5" y="-12.5" font-family="Helvetica,sans-Serif" font-size="10.00">zerofpr&#45;anderson&#45;alm.cpp</text>
</a>
</g>
</g>
<!-- Node8&#45;&gt;Node15 -->
<g id="edge14" class="edge">
<title>Node8&#45;&gt;Node15</title>
<path fill="none" stroke="#63b8ff" d="M482.09,-67.19C454.1,-54.58 412.12,-35.66 387.8,-24.7"/>
<polygon fill="#63b8ff" stroke="#63b8ff" points="480.79,-70.45 491.35,-71.37 483.67,-64.07 480.79,-70.45"/>
</g>
<!-- Node17&#45;&gt;Node9 -->
<g id="edge18" class="edge">
<title>Node17&#45;&gt;Node9</title>
<path fill="none" stroke="#63b8ff" d="M955.28,-62.91C947.26,-50.68 936.77,-34.7 930.34,-24.91"/>
<polygon fill="#63b8ff" stroke="#63b8ff" points="952.42,-64.93 960.84,-71.37 958.28,-61.09 952.42,-64.93"/>
</g>
<!-- Node18&#45;&gt;Node10 -->
<g id="edge21" class="edge">
<title>Node18&#45;&gt;Node10</title>
<path fill="none" stroke="#63b8ff" d="M1313.89,-126.56C1324.84,-119.08 1336.49,-108.74 1342.5,-96 1354.21,-71.17 1334.7,-39.66 1323.51,-24.68"/>
<polygon fill="#63b8ff" stroke="#63b8ff" points="1311.96,-123.64 1305.39,-131.95 1315.71,-129.56 1311.96,-123.64"/>
</g>
<!-- Node19 -->
<g id="node19" class="node">
<title>Node19</title>
<g id="a_node19"><a xlink:href="alpaqa_8hpp.html" target="_top" xlink:title=" ">
<polygon fill="white" stroke="#666666" points="1333,-90.5 1262,-90.5 1262,-71.5 1333,-71.5 1333,-90.5"/>
<text text-anchor="middle" x="1297.5" y="-78.5" font-family="Helvetica,sans-Serif" font-size="10.00">alpaqa.hpp</text>
</a>
</g>
</g>
<!-- Node18&#45;&gt;Node19 -->
<g id="edge20" class="edge">
<title>Node18&#45;&gt;Node19</title>
<path fill="none" stroke="#63b8ff" d="M1291.4,-121.66C1293,-111.24 1294.92,-98.8 1296.17,-90.67"/>
<polygon fill="#63b8ff" stroke="#63b8ff" points="1287.89,-121.45 1289.83,-131.87 1294.81,-122.52 1287.89,-121.45"/>
</g>
<!-- Node20&#45;&gt;Node11 -->
<g id="edge23" class="edge">
<title>Node20&#45;&gt;Node11</title>
<path fill="none" stroke="#63b8ff" d="M980.03,-129.29C1002.66,-122.72 1026.7,-112.35 1044.5,-96 1065.94,-76.31 1074.91,-41.16 1078.05,-24.81"/>
<polygon fill="#63b8ff" stroke="#63b8ff" points="978.85,-125.98 970.1,-131.96 980.67,-132.74 978.85,-125.98"/>
</g>
<!-- Node22&#45;&gt;Node12 -->
<g id="edge26" class="edge">
<title>Node22&#45;&gt;Node12</title>
<path fill="none" stroke="#63b8ff" d="M1534.56,-123.89C1513.65,-97.05 1473.18,-45.11 1457.21,-24.62"/>
<polygon fill="#63b8ff" stroke="#63b8ff" points="1531.93,-126.21 1540.83,-131.94 1537.45,-121.9 1531.93,-126.21"/>
</g>
<!-- Node23&#45;&gt;Node13 -->
<g id="edge28" class="edge">
<title>Node23&#45;&gt;Node13</title>
<path fill="none" stroke="#63b8ff" d="M443.77,-60.03C458.45,-50.34 475.73,-38.94 489.03,-30.16"/>
<polygon fill="#63b8ff" stroke="#63b8ff" points="441.45,-57.37 435.03,-65.8 445.3,-63.21 441.45,-57.37"/>
</g>
<!-- Node24&#45;&gt;Node14 -->
<g id="edge30" class="edge">
<title>Node24&#45;&gt;Node14</title>
<path fill="none" stroke="#63b8ff" d="M68.76,-65.68C87.42,-53.11 113.96,-35.23 129.59,-24.7"/>
<polygon fill="#63b8ff" stroke="#63b8ff" points="66.65,-62.88 60.31,-71.37 70.56,-68.68 66.65,-62.88"/>
</g>
<!-- Node25&#45;&gt;Node15 -->
<g id="edge32" class="edge">
<title>Node25&#45;&gt;Node15</title>
<path fill="none" stroke="#63b8ff" d="M219,-68C255.33,-55.36 311.65,-35.78 343.78,-24.6"/>
<polygon fill="#63b8ff" stroke="#63b8ff" points="217.61,-64.78 209.32,-71.37 219.91,-71.39 217.61,-64.78"/>
</g>
<!-- Node27 -->
<g id="node27" class="node">
<title>Node27</title>
<g id="a_node27"><a xlink:href="lbfgsb_2src_2lbfgsb-adapter_8cpp.html" target="_top" xlink:title=" ">
<polygon fill="white" stroke="#666666" points="1226,-151 1119,-151 1119,-132 1226,-132 1226,-151"/>
<text text-anchor="middle" x="1172.5" y="-139" font-family="Helvetica,sans-Serif" font-size="10.00">lbfgsb&#45;adapter.cpp</text>
</a>
</g>
</g>
<!-- Node26&#45;&gt;Node27 -->
<g id="edge35" class="edge">
<title>Node26&#45;&gt;Node27</title>
<path fill="none" stroke="#63b8ff" d="M1222.46,-180.88C1210.04,-171.34 1194.26,-159.21 1183.79,-151.17"/>
<polygon fill="#63b8ff" stroke="#63b8ff" points="1220.35,-183.67 1230.41,-186.98 1224.62,-178.12 1220.35,-183.67"/>
</g>
<!-- Node28 -->
<g id="node28" class="node">
<title>Node28</title>
<g id="a_node28"><a xlink:href="lbfgsb-params_8cpp.html" target="_top" xlink:title=" ">
<polygon fill="white" stroke="#666666" points="1458,-151 1351,-151 1351,-132 1458,-132 1458,-151"/>
<text text-anchor="middle" x="1404.5" y="-139" font-family="Helvetica,sans-Serif" font-size="10.00">lbfgsb&#45;params.cpp</text>
</a>
</g>
</g>
<!-- Node26&#45;&gt;Node28 -->
<g id="edge36" class="edge">
<title>Node26&#45;&gt;Node28</title>
<path fill="none" stroke="#63b8ff" d="M1277.49,-183.8C1307.91,-173.91 1350.78,-159.97 1378.11,-151.08"/>
<polygon fill="#63b8ff" stroke="#63b8ff" points="1276.12,-180.56 1267.69,-186.98 1278.28,-187.22 1276.12,-180.56"/>
</g>
<!-- Node30 -->
<g id="node30" class="node">
<title>Node30</title>
<g id="a_node30"><a xlink:href="lbfgsb-adapter_8tpp.html" target="_top" xlink:title=" ">
<polygon fill="white" stroke="#666666" points="2193.5,-151 2087.5,-151 2087.5,-132 2193.5,-132 2193.5,-151"/>
<text text-anchor="middle" x="2140.5" y="-139" font-family="Helvetica,sans-Serif" font-size="10.00">lbfgsb&#45;adapter.tpp</text>
</a>
</g>
</g>
<!-- Node29&#45;&gt;Node30 -->
<g id="edge38" class="edge">
<title>Node29&#45;&gt;Node30</title>
<path fill="none" stroke="#63b8ff" d="M2009.96,-183.93C2041.16,-174.03 2085.34,-160.01 2113.46,-151.08"/>
<polygon fill="#63b8ff" stroke="#63b8ff" points="2008.8,-180.62 2000.33,-186.98 2010.92,-187.3 2008.8,-180.62"/>
</g>
<!-- Node31 -->
<g id="node31" class="node">
<title>Node31</title>
<g id="a_node31"><a xlink:href="lbfgspp_2src_2lbfgsb-adapter_8cpp.html" target="_top" xlink:title=" ">
<polygon fill="white" stroke="#666666" points="2194,-90.5 2087,-90.5 2087,-71.5 2194,-71.5 2194,-90.5"/>
<text text-anchor="middle" x="2140.5" y="-78.5" font-family="Helvetica,sans-Serif" font-size="10.00">lbfgsb&#45;adapter.cpp</text>
</a>
</g>
</g>
<!-- Node30&#45;&gt;Node31 -->
<g id="edge39" class="edge">
<title>Node30&#45;&gt;Node31</title>
<path fill="none" stroke="#63b8ff" d="M2140.5,-121.66C2140.5,-111.24 2140.5,-98.8 2140.5,-90.67"/>
<polygon fill="#63b8ff" stroke="#63b8ff" points="2137,-121.87 2140.5,-131.87 2144,-121.87 2137,-121.87"/>
</g>
<!-- Node33 -->
<g id="node33" class="node">
<title>Node33</title>
<g id="a_node33"><a xlink:href="panoc-helpers_8cpp.html" target="_top" xlink:title=" ">
<polygon fill="white" stroke="#666666" points="1926.5,-90.5 1820.5,-90.5 1820.5,-71.5 1926.5,-71.5 1926.5,-90.5"/>
<text text-anchor="middle" x="1873.5" y="-78.5" font-family="Helvetica,sans-Serif" font-size="10.00">panoc&#45;helpers.cpp</text>
</a>
</g>
</g>
<!-- Node32&#45;&gt;Node33 -->
<g id="edge41" class="edge">
<title>Node32&#45;&gt;Node33</title>
<path fill="none" stroke="#63b8ff" d="M1873.5,-121.66C1873.5,-111.24 1873.5,-98.8 1873.5,-90.67"/>
<polygon fill="#63b8ff" stroke="#63b8ff" points="1870,-121.87 1873.5,-131.87 1877,-121.87 1870,-121.87"/>
</g>
<!-- Node34 -->
<g id="node34" class="node">
<title>Node34</title>
<g id="a_node34"><a xlink:href="panoc_8tpp.html" target="_top" xlink:title=" ">
<polygon fill="white" stroke="#666666" points="1737,-90.5 1672,-90.5 1672,-71.5 1737,-71.5 1737,-90.5"/>
<text text-anchor="middle" x="1704.5" y="-78.5" font-family="Helvetica,sans-Serif" font-size="10.00">panoc.tpp</text>
</a>
</g>
</g>
<!-- Node32&#45;&gt;Node34 -->
<g id="edge42" class="edge">
<title>Node32&#45;&gt;Node34</title>
<path fill="none" stroke="#63b8ff" d="M1839.33,-128.67C1806.64,-117.36 1758.15,-100.57 1729.1,-90.52"/>
<polygon fill="#63b8ff" stroke="#63b8ff" points="1838.33,-132.03 1848.93,-131.99 1840.62,-125.41 1838.33,-132.03"/>
</g>
<!-- Node37 -->
<g id="node37" class="node">
<title>Node37</title>
<g id="a_node37"><a xlink:href="pantr_8tpp.html" target="_top" xlink:title=" ">
<polygon fill="white" stroke="#666666" points="1243.5,-90.5 1183.5,-90.5 1183.5,-71.5 1243.5,-71.5 1243.5,-90.5"/>
<text text-anchor="middle" x="1213.5" y="-78.5" font-family="Helvetica,sans-Serif" font-size="10.00">pantr.tpp</text>
</a>
</g>
</g>
<!-- Node32&#45;&gt;Node37 -->
<g id="edge48" class="edge">
<title>Node32&#45;&gt;Node37</title>
<path fill="none" stroke="#63b8ff" d="M1811.24,-131.96C1563.01,-107.81 1494.26,-144.93 1253.5,-96 1247.16,-94.71 1240.45,-92.65 1234.37,-90.51"/>
<polygon fill="#63b8ff" stroke="#63b8ff" points="1810.99,-135.46 1821.29,-132.97 1811.68,-128.49 1810.99,-135.46"/>
</g>
<!-- Node39 -->
<g id="node39" class="node">
<title>Node39</title>
<g id="a_node39"><a xlink:href="structured-lbfgs_8tpp.html" target="_top" xlink:title=" ">
<polygon fill="white" stroke="#666666" points="1638,-90.5 1525,-90.5 1525,-71.5 1638,-71.5 1638,-90.5"/>
<text text-anchor="middle" x="1581.5" y="-78.5" font-family="Helvetica,sans-Serif" font-size="10.00">structured&#45;lbfgs.tpp</text>
</a>
</g>
</g>
<!-- Node32&#45;&gt;Node39 -->
<g id="edge51" class="edge">
<title>Node32&#45;&gt;Node39</title>
<path fill="none" stroke="#63b8ff" d="M1820.9,-129.96C1764.54,-118.67 1676.15,-100.96 1624.01,-90.52"/>
<polygon fill="#63b8ff" stroke="#63b8ff" points="1820.55,-133.46 1831.04,-131.99 1821.92,-126.6 1820.55,-133.46"/>
</g>
<!-- Node41 -->
<g id="node41" class="node">
<title>Node41</title>
<g id="a_node41"><a xlink:href="zerofpr_8tpp.html" target="_top" xlink:title=" ">
<polygon fill="white" stroke="#666666" points="343,-90.5 274,-90.5 274,-71.5 343,-71.5 343,-90.5"/>
<text text-anchor="middle" x="308.5" y="-78.5" font-family="Helvetica,sans-Serif" font-size="10.00">zerofpr.tpp</text>
</a>
</g>
</g>
<!-- Node32&#45;&gt;Node41 -->
<g id="edge55" class="edge">
<title>Node32&#45;&gt;Node41</title>
<path fill="none" stroke="#63b8ff" d="M1811.18,-132.03C1472.74,-106.44 669.36,-149.2 352.5,-96 345.38,-94.81 337.83,-92.72 331.03,-90.52"/>
<polygon fill="#63b8ff" stroke="#63b8ff" points="1811.06,-135.53 1821.3,-132.83 1811.61,-128.55 1811.06,-135.53"/>
</g>
<!-- Node34&#45;&gt;Node10 -->
<g id="edge43" class="edge">
<title>Node34&#45;&gt;Node10</title>
<path fill="none" stroke="#63b8ff" d="M1662.31,-69.08C1657.34,-67.96 1652.32,-66.9 1647.5,-66 1525.47,-43.16 1492.38,-53.62 1370.5,-30 1362.7,-28.49 1354.36,-26.51 1346.62,-24.52"/>
<polygon fill="#63b8ff" stroke="#63b8ff" points="1661.85,-72.57 1672.38,-71.45 1663.45,-65.75 1661.85,-72.57"/>
</g>
<!-- Node34&#45;&gt;Node11 -->
<g id="edge44" class="edge">
<title>Node34&#45;&gt;Node11</title>
<path fill="none" stroke="#63b8ff" d="M1663.51,-69.08C1658.15,-67.9 1652.71,-66.83 1647.5,-66 1438.87,-32.69 1383.45,-53.58 1173.5,-30 1160.05,-28.49 1145.58,-26.51 1132.11,-24.52"/>
<polygon fill="#63b8ff" stroke="#63b8ff" points="1663.09,-72.57 1673.63,-71.43 1664.68,-65.76 1663.09,-72.57"/>
</g>
<!-- Node34&#45;&gt;Node12 -->
<g id="edge47" class="edge">
<title>Node34&#45;&gt;Node12</title>
<path fill="none" stroke="#63b8ff" d="M1661.96,-69.28C1611.99,-56.69 1530.1,-36.06 1484.27,-24.51"/>
<polygon fill="#63b8ff" stroke="#63b8ff" points="1661.26,-72.71 1671.81,-71.76 1662.97,-65.93 1661.26,-72.71"/>
</g>
<!-- Node35 -->
<g id="node35" class="node">
<title>Node35</title>
<g id="a_node35"><a xlink:href="panoc_8cpp.html" target="_top" xlink:title=" ">
<polygon fill="white" stroke="#666666" points="1737.5,-24.5 1671.5,-24.5 1671.5,-5.5 1737.5,-5.5 1737.5,-24.5"/>
<text text-anchor="middle" x="1704.5" y="-12.5" font-family="Helvetica,sans-Serif" font-size="10.00">panoc.cpp</text>
</a>
</g>
</g>
<!-- Node34&#45;&gt;Node35 -->
<g id="edge45" class="edge">
<title>Node34&#45;&gt;Node35</title>
<path fill="none" stroke="#63b8ff" d="M1704.5,-61.08C1704.5,-49.13 1704.5,-34.22 1704.5,-24.91"/>
<polygon fill="#63b8ff" stroke="#63b8ff" points="1701,-61.37 1704.5,-71.37 1708,-61.37 1701,-61.37"/>
</g>
<!-- Node36 -->
<g id="node36" class="node">
<title>Node36</title>
<g id="a_node36"><a xlink:href="structured-newton_8cpp.html" target="_top" xlink:title=" ">
<polygon fill="white" stroke="#666666" points="1881.5,-24.5 1755.5,-24.5 1755.5,-5.5 1881.5,-5.5 1881.5,-24.5"/>
<text text-anchor="middle" x="1818.5" y="-12.5" font-family="Helvetica,sans-Serif" font-size="10.00">structured&#45;newton.cpp</text>
</a>
</g>
</g>
<!-- Node34&#45;&gt;Node36 -->
<g id="edge46" class="edge">
<title>Node34&#45;&gt;Node36</title>
<path fill="none" stroke="#63b8ff" d="M1728.8,-66.36C1751.24,-53.76 1783.91,-35.42 1803,-24.7"/>
<polygon fill="#63b8ff" stroke="#63b8ff" points="1726.88,-63.42 1719.87,-71.37 1730.31,-69.53 1726.88,-63.42"/>
</g>
<!-- Node37&#45;&gt;Node9 -->
<g id="edge49" class="edge">
<title>Node37&#45;&gt;Node9</title>
<path fill="none" stroke="#63b8ff" d="M1181.91,-68.22C1179.42,-67.43 1176.93,-66.67 1174.5,-66 1136.97,-55.57 1032.88,-35.85 971.49,-24.54"/>
<polygon fill="#63b8ff" stroke="#63b8ff" points="1180.81,-71.54 1191.41,-71.43 1183.06,-64.91 1180.81,-71.54"/>
</g>
<!-- Node38 -->
<g id="node38" class="node">
<title>Node38</title>
<g id="a_node38"><a xlink:href="pantr_8cpp.html" target="_top" xlink:title=" ">
<polygon fill="white" stroke="#666666" points="1244.5,-24.5 1182.5,-24.5 1182.5,-5.5 1244.5,-5.5 1244.5,-24.5"/>
<text text-anchor="middle" x="1213.5" y="-12.5" font-family="Helvetica,sans-Serif" font-size="10.00">pantr.cpp</text>
</a>
</g>
</g>
<!-- Node37&#45;&gt;Node38 -->
<g id="edge50" class="edge">
<title>Node37&#45;&gt;Node38</title>
<path fill="none" stroke="#63b8ff" d="M1213.5,-61.08C1213.5,-49.13 1213.5,-34.22 1213.5,-24.91"/>
<polygon fill="#63b8ff" stroke="#63b8ff" points="1210,-61.37 1213.5,-71.37 1217,-61.37 1210,-61.37"/>
</g>
<!-- Node39&#45;&gt;Node12 -->
<g id="edge53" class="edge">
<title>Node39&#45;&gt;Node12</title>
<path fill="none" stroke="#63b8ff" d="M1554.61,-66.86C1528.8,-54.25 1490.54,-35.56 1468.31,-24.7"/>
<polygon fill="#63b8ff" stroke="#63b8ff" points="1553.31,-70.12 1563.83,-71.37 1556.38,-63.83 1553.31,-70.12"/>
</g>
<!-- Node39&#45;&gt;Node13 -->
<g id="edge54" class="edge">
<title>Node39&#45;&gt;Node13</title>
<path fill="none" stroke="#63b8ff" d="M1514.44,-75.99C1316.86,-64.19 739.75,-29.7 562.73,-19.12"/>
<polygon fill="#63b8ff" stroke="#63b8ff" points="1514.48,-79.5 1524.67,-76.6 1514.9,-72.51 1514.48,-79.5"/>
</g>
<!-- Node40 -->
<g id="node40" class="node">
<title>Node40</title>
<g id="a_node40"><a xlink:href="structured-lbfgs_8cpp.html" target="_top" xlink:title=" ">
<polygon fill="white" stroke="#666666" points="1653.5,-24.5 1539.5,-24.5 1539.5,-5.5 1653.5,-5.5 1653.5,-24.5"/>
<text text-anchor="middle" x="1596.5" y="-12.5" font-family="Helvetica,sans-Serif" font-size="10.00">structured&#45;lbfgs.cpp</text>
</a>
</g>
</g>
<!-- Node39&#45;&gt;Node40 -->
<g id="edge52" class="edge">
<title>Node39&#45;&gt;Node40</title>
<path fill="none" stroke="#63b8ff" d="M1585.85,-61.45C1588.66,-49.43 1592.21,-34.32 1594.41,-24.91"/>
<polygon fill="#63b8ff" stroke="#63b8ff" points="1582.4,-60.83 1583.52,-71.37 1589.21,-62.43 1582.4,-60.83"/>
</g>
<!-- Node41&#45;&gt;Node13 -->
<g id="edge56" class="edge">
<title>Node41&#45;&gt;Node13</title>
<path fill="none" stroke="#63b8ff" d="M345.11,-68.35C347.61,-67.55 350.09,-66.76 352.5,-66 390.76,-53.86 434.24,-40.1 465.89,-30.1"/>
<polygon fill="#63b8ff" stroke="#63b8ff" points="343.96,-65.04 335.49,-71.4 346.08,-71.71 343.96,-65.04"/>
</g>
<!-- Node41&#45;&gt;Node14 -->
<g id="edge57" class="edge">
<title>Node41&#45;&gt;Node14</title>
<path fill="none" stroke="#63b8ff" d="M276.53,-67.68C243.73,-55.03 193.54,-35.68 164.8,-24.6"/>
<polygon fill="#63b8ff" stroke="#63b8ff" points="275.52,-71.04 286.11,-71.37 278.04,-64.51 275.52,-71.04"/>
</g>
<!-- Node41&#45;&gt;Node15 -->
<g id="edge58" class="edge">
<title>Node41&#45;&gt;Node15</title>
<path fill="none" stroke="#63b8ff" d="M323.52,-63.98C335.1,-51.62 350.7,-34.99 360.15,-24.91"/>
<polygon fill="#63b8ff" stroke="#63b8ff" points="320.88,-61.68 316.59,-71.37 325.98,-66.47 320.88,-61.68"/>
</g>
<!-- Node42 -->
<g id="node42" class="node">
<title>Node42</title>
<g id="a_node42"><a xlink:href="zerofpr_8cpp.html" target="_top" xlink:title=" ">
<polygon fill="white" stroke="#666666" points="279,-24.5 208,-24.5 208,-5.5 279,-5.5 279,-24.5"/>
<text text-anchor="middle" x="243.5" y="-12.5" font-family="Helvetica,sans-Serif" font-size="10.00">zerofpr.cpp</text>
</a>
</g>
</g>
<!-- Node41&#45;&gt;Node42 -->
<g id="edge59" class="edge">
<title>Node41&#45;&gt;Node42</title>
<path fill="none" stroke="#63b8ff" d="M292.58,-64.33C280,-51.94 262.88,-35.09 252.54,-24.91"/>
<polygon fill="#63b8ff" stroke="#63b8ff" points="290.15,-66.85 299.73,-71.37 295.06,-61.86 290.15,-66.85"/>
</g>
<!-- Node43&#45;&gt;Node4 -->
<g id="edge63" class="edge">
<title>Node43&#45;&gt;Node4</title>
<path fill="none" stroke="#63b8ff" d="M1373.8,-192.19C1238.76,-181.96 837.11,-151.51 835.5,-151 792.76,-137.56 749.01,-106.06 729.3,-90.71"/>
<polygon fill="#63b8ff" stroke="#63b8ff" points="1373.56,-195.68 1383.8,-192.95 1374.09,-188.7 1373.56,-195.68"/>
</g>
<!-- Node43&#45;&gt;Node18 -->
<g id="edge61" class="edge">
<title>Node43&#45;&gt;Node18</title>
<path fill="none" stroke="#63b8ff" d="M1387.46,-183.16C1363.58,-173.35 1330.78,-159.87 1309.6,-151.17"/>
<polygon fill="#63b8ff" stroke="#63b8ff" points="1386.19,-186.42 1396.77,-186.98 1388.85,-179.95 1386.19,-186.42"/>
</g>
<!-- Node43&#45;&gt;Node20 -->
<g id="edge62" class="edge">
<title>Node43&#45;&gt;Node20</title>
<path fill="none" stroke="#63b8ff" d="M1373.5,-190.97C1296.19,-182.99 1130.97,-165.88 991.5,-151 988.66,-150.7 985.75,-150.39 982.82,-150.07"/>
<polygon fill="#63b8ff" stroke="#63b8ff" points="1373.5,-194.49 1383.81,-192.03 1374.22,-187.52 1373.5,-194.49"/>
</g>
<!-- Node43&#45;&gt;Node21 -->
<g id="edge69" class="edge">
<title>Node43&#45;&gt;Node21</title>
<path fill="none" stroke="#63b8ff" d="M1461.24,-187.72C1521.48,-176.8 1623.21,-157.53 1628.5,-151 1633.82,-144.44 1634.23,-138.2 1628.5,-132 1594.16,-94.83 1224.22,-105.42 1174.5,-96 1167.45,-94.66 1159.94,-92.64 1153.08,-90.55"/>
<polygon fill="#63b8ff" stroke="#63b8ff" points="1460.44,-184.31 1451.23,-189.53 1461.69,-191.2 1460.44,-184.31"/>
</g>
<!-- Node43&#45;&gt;Node22 -->
<g id="edge73" class="edge">
<title>Node43&#45;&gt;Node22</title>
<path fill="none" stroke="#63b8ff" d="M1447.77,-183.16C1471.84,-173.35 1504.9,-159.87 1526.23,-151.17"/>
<polygon fill="#63b8ff" stroke="#63b8ff" points="1446.33,-179.97 1438.39,-186.98 1448.97,-186.45 1446.33,-179.97"/>
</g>
<!-- Node43&#45;&gt;Node34 -->
<g id="edge68" class="edge">
<title>Node43&#45;&gt;Node34</title>
<path fill="none" stroke="#63b8ff" d="M1461.42,-190.65C1473.74,-189.37 1487.13,-188.05 1499.5,-187 1559.53,-181.89 1999.34,-194.99 2040.5,-151 2046.27,-144.83 2046.01,-138.4 2040.5,-132 2035.54,-126.24 1820.47,-97.31 1737.07,-86.28"/>
<polygon fill="#63b8ff" stroke="#63b8ff" points="1460.96,-187.17 1451.38,-191.7 1461.7,-194.14 1460.96,-187.17"/>
</g>
<!-- Node44 -->
<g id="node44" class="node">
<title>Node44</title>
<g id="a_node44"><a xlink:href="panoc-ocp_8hpp.html" target="_top" xlink:title=" ">
<polygon fill="white" stroke="#666666" points="2031.5,-151 1943.5,-151 1943.5,-132 2031.5,-132 2031.5,-151"/>
<text text-anchor="middle" x="1987.5" y="-139" font-family="Helvetica,sans-Serif" font-size="10.00">panoc&#45;ocp.hpp</text>
</a>
</g>
</g>
<!-- Node43&#45;&gt;Node44 -->
<g id="edge64" class="edge">
<title>Node43&#45;&gt;Node44</title>
<path fill="none" stroke="#63b8ff" d="M1461.44,-190.78C1473.75,-189.5 1487.14,-188.15 1499.5,-187 1692.66,-169 1741.92,-174.38 1934.5,-151 1937.37,-150.65 1940.32,-150.26 1943.29,-149.85"/>
<polygon fill="#63b8ff" stroke="#63b8ff" points="1460.98,-187.3 1451.4,-191.83 1461.71,-194.27 1460.98,-187.3"/>
</g>
<!-- Node47 -->
<g id="node47" class="node">
<title>Node47</title>
<g id="a_node47"><a xlink:href="structured-newton_8hpp.html" target="_top" xlink:title=" ">
<polygon fill="white" stroke="#666666" points="1803,-151 1676,-151 1676,-132 1803,-132 1803,-151"/>
<text text-anchor="middle" x="1739.5" y="-139" font-family="Helvetica,sans-Serif" font-size="10.00">structured&#45;newton.hpp</text>
</a>
</g>
</g>
<!-- Node43&#45;&gt;Node47 -->
<g id="edge70" class="edge">
<title>Node43&#45;&gt;Node47</title>
<path fill="none" stroke="#63b8ff" d="M1461.06,-187.76C1462.56,-187.5 1464.04,-187.25 1465.5,-187 1541.88,-174.04 1630.37,-159.81 1685.65,-151.01"/>
<polygon fill="#63b8ff" stroke="#63b8ff" points="1460.31,-184.34 1451.06,-189.49 1461.51,-191.23 1460.31,-184.34"/>
</g>
<!-- Node44&#45;&gt;Node21 -->
<g id="edge67" class="edge">
<title>Node44&#45;&gt;Node21</title>
<path fill="none" stroke="#63b8ff" d="M1933.26,-132.01C1596.35,-98.26 1504.45,-153.11 1174.5,-96 1167.26,-94.75 1159.56,-92.7 1152.58,-90.56"/>
<polygon fill="#63b8ff" stroke="#63b8ff" points="1933,-135.5 1943.3,-133.03 1933.71,-128.54 1933,-135.5"/>
</g>
<!-- Node45 -->
<g id="node45" class="node">
<title>Node45</title>
<g id="a_node45"><a xlink:href="panoc-ocp_8tpp.html" target="_top" xlink:title=" ">
<polygon fill="white" stroke="#666666" points="2030.5,-90.5 1944.5,-90.5 1944.5,-71.5 2030.5,-71.5 2030.5,-90.5"/>
<text text-anchor="middle" x="1987.5" y="-78.5" font-family="Helvetica,sans-Serif" font-size="10.00">panoc&#45;ocp.tpp</text>
</a>
</g>
</g>
<!-- Node44&#45;&gt;Node45 -->
<g id="edge65" class="edge">
<title>Node44&#45;&gt;Node45</title>
<path fill="none" stroke="#63b8ff" d="M1987.5,-121.66C1987.5,-111.24 1987.5,-98.8 1987.5,-90.67"/>
<polygon fill="#63b8ff" stroke="#63b8ff" points="1984,-121.87 1987.5,-131.87 1991,-121.87 1984,-121.87"/>
</g>
<!-- Node46 -->
<g id="node46" class="node">
<title>Node46</title>
<g id="a_node46"><a xlink:href="panoc-ocp_8cpp.html" target="_top" xlink:title=" ">
<polygon fill="white" stroke="#666666" points="2031,-24.5 1944,-24.5 1944,-5.5 2031,-5.5 2031,-24.5"/>
<text text-anchor="middle" x="1987.5" y="-12.5" font-family="Helvetica,sans-Serif" font-size="10.00">panoc&#45;ocp.cpp</text>
</a>
</g>
</g>
<!-- Node45&#45;&gt;Node46 -->
<g id="edge66" class="edge">
<title>Node45&#45;&gt;Node46</title>
<path fill="none" stroke="#63b8ff" d="M1987.5,-61.08C1987.5,-49.13 1987.5,-34.22 1987.5,-24.91"/>
<polygon fill="#63b8ff" stroke="#63b8ff" points="1984,-61.37 1987.5,-71.37 1991,-61.37 1984,-61.37"/>
</g>
<!-- Node47&#45;&gt;Node21 -->
<g id="edge71" class="edge">
<title>Node47&#45;&gt;Node21</title>
<path fill="none" stroke="#63b8ff" d="M1665.42,-132.36C1664.11,-132.24 1662.8,-132.12 1661.5,-132 1445.37,-112.24 1387.85,-135.84 1174.5,-96 1167.44,-94.68 1159.94,-92.67 1153.08,-90.58"/>
<polygon fill="#63b8ff" stroke="#63b8ff" points="1665.38,-135.88 1675.67,-133.36 1666.05,-128.91 1665.38,-135.88"/>
</g>
<!-- Node47&#45;&gt;Node36 -->
<g id="edge72" class="edge">
<title>Node47&#45;&gt;Node36</title>
<path fill="none" stroke="#63b8ff" d="M1750.49,-123.18C1767.64,-96.15 1800.14,-44.93 1813.03,-24.62"/>
<polygon fill="#63b8ff" stroke="#63b8ff" points="1747.33,-121.62 1744.93,-131.94 1753.24,-125.37 1747.33,-121.62"/>
</g>
<!-- Node48&#45;&gt;Node5 -->
<g id="edge76" class="edge">
<title>Node48&#45;&gt;Node5</title>
<path fill="none" stroke="#63b8ff" d="M992.75,-129.11C954.26,-117.79 896.12,-100.7 861.47,-90.52"/>
<polygon fill="#63b8ff" stroke="#63b8ff" points="991.98,-132.53 1002.56,-131.99 993.96,-125.82 991.98,-132.53"/>
</g>
<!-- Node48&#45;&gt;Node17 -->
<g id="edge75" class="edge">
<title>Node48&#45;&gt;Node17</title>
<path fill="none" stroke="#63b8ff" d="M1014.18,-124.91C1001.99,-113.94 986.13,-99.67 976.13,-90.67"/>
<polygon fill="#63b8ff" stroke="#63b8ff" points="1012.13,-127.78 1021.91,-131.87 1016.82,-122.58 1012.13,-127.78"/>
</g>
<!-- Node48&#45;&gt;Node21 -->
<g id="edge78" class="edge">
<title>Node48&#45;&gt;Node21</title>
<path fill="none" stroke="#63b8ff" d="M1054.52,-126.62C1073.01,-115.46 1098.42,-100.14 1114.13,-90.67"/>
<polygon fill="#63b8ff" stroke="#63b8ff" points="1052.57,-123.71 1045.81,-131.87 1056.18,-129.7 1052.57,-123.71"/>
</g>
<!-- Node48&#45;&gt;Node37 -->
<g id="edge77" class="edge">
<title>Node48&#45;&gt;Node37</title>
<path fill="none" stroke="#63b8ff" d="M1069.81,-129.07C1098.68,-120.33 1139.21,-107.82 1174.5,-96 1179.55,-94.31 1184.94,-92.43 1190.05,-90.6"/>
<polygon fill="#63b8ff" stroke="#63b8ff" points="1068.67,-125.76 1060.1,-131.99 1070.69,-132.46 1068.67,-125.76"/>
</g>
<!-- Node50&#45;&gt;Node4 -->
<g id="edge81" class="edge">
<title>Node50&#45;&gt;Node4</title>
<path fill="none" stroke="#63b8ff" d="M354.31,-136.27C421.55,-129.7 550.79,-115.73 659.5,-96 667.89,-94.48 676.88,-92.52 685.24,-90.55"/>
<polygon fill="#63b8ff" stroke="#63b8ff" points="353.68,-132.81 344.06,-137.26 354.35,-139.78 353.68,-132.81"/>
</g>
<!-- Node50&#45;&gt;Node21 -->
<g id="edge82" class="edge">
<title>Node50&#45;&gt;Node21</title>
<path fill="none" stroke="#63b8ff" d="M354.67,-137.99C505.23,-129.77 976.26,-103.73 1044.5,-96 1059.93,-94.25 1076.83,-91.58 1091.4,-89.04"/>
<polygon fill="#63b8ff" stroke="#63b8ff" points="354.18,-134.51 344.39,-138.55 354.57,-141.5 354.18,-134.51"/>
</g>
<!-- Node50&#45;&gt;Node23 -->
<g id="edge83" class="edge">
<title>Node50&#45;&gt;Node23</title>
<path fill="none" stroke="#63b8ff" d="M333.07,-126.81C349.63,-117.58 371.44,-105.43 388.17,-96.11"/>
<polygon fill="#63b8ff" stroke="#63b8ff" points="331.03,-123.94 323.99,-131.87 334.43,-130.06 331.03,-123.94"/>
</g>
<!-- Node50&#45;&gt;Node24 -->
<g id="edge84" class="edge">
<title>Node50&#45;&gt;Node24</title>
<path fill="none" stroke="#63b8ff" d="M263.04,-131.06C221.44,-122.31 158.22,-108.77 103.5,-96 96.18,-94.29 88.34,-92.38 80.92,-90.54"/>
<polygon fill="#63b8ff" stroke="#63b8ff" points="262.37,-134.49 272.87,-133.12 263.8,-127.64 262.37,-134.49"/>
</g>
<!-- Node50&#45;&gt;Node25 -->
<g id="edge85" class="edge">
<title>Node50&#45;&gt;Node25</title>
<path fill="none" stroke="#63b8ff" d="M281.23,-127.63C257.31,-116.35 223.22,-100.27 202.55,-90.52"/>
<polygon fill="#63b8ff" stroke="#63b8ff" points="279.93,-130.89 290.47,-131.99 282.92,-124.56 279.93,-130.89"/>
</g>
<!-- Node50&#45;&gt;Node41 -->
<g id="edge86" class="edge">
<title>Node50&#45;&gt;Node41</title>
<path fill="none" stroke="#63b8ff" d="M308.5,-121.66C308.5,-111.24 308.5,-98.8 308.5,-90.67"/>
<polygon fill="#63b8ff" stroke="#63b8ff" points="305,-121.87 308.5,-131.87 312,-121.87 305,-121.87"/>
</g>
</g>
</svg>
