<?xml version="1.0" encoding="UTF-8" standalone="no"?>
<!DOCTYPE svg PUBLIC "-//W3C//DTD SVG 1.1//EN"
 "http://www.w3.org/Graphics/SVG/1.1/DTD/svg11.dtd">
<!-- Generated by graphviz version 2.43.0 (0)
 -->
<!-- Title: AndersonDirection&lt; Conf &gt;::Params Pages: 1 -->
<svg width="294pt" height="204pt"
 viewBox="0.00 0.00 294.00 204.00" xmlns="http://www.w3.org/2000/svg" xmlns:xlink="http://www.w3.org/1999/xlink">
<g id="graph0" class="graph" transform="scale(1 1) rotate(0) translate(4 200)">
<title>AndersonDirection&lt; Conf &gt;::Params</title>
<!-- Node1 -->
<g id="node1" class="node">
<title>Node1</title>
<g id="a_node1"><a xlink:title=" ">
<polygon fill="#999999" stroke="#666666" points="81,-0.5 81,-68.5 196,-68.5 196,-0.5 81,-0.5"/>
<text text-anchor="start" x="89" y="-56.5" font-family="Helvetica,sans-Serif" font-size="10.00">AndersonDirection&lt;</text>
<text text-anchor="middle" x="138.5" y="-45.5" font-family="Helvetica,sans-Serif" font-size="10.00"> Conf &gt;::Params</text>
<polyline fill="none" stroke="#666666" points="81,-38.5 196,-38.5 "/>
<text text-anchor="middle" x="138.5" y="-26.5" font-family="Helvetica,sans-Serif" font-size="10.00"> </text>
<polyline fill="none" stroke="#666666" points="81,-19.5 196,-19.5 "/>
<text text-anchor="middle" x="138.5" y="-7.5" font-family="Helvetica,sans-Serif" font-size="10.00"> </text>
</a>
</g>
</g>
<!-- Node2 -->
<g id="node2" class="node">
<title>Node2</title>
<g id="a_node2"><a xlink:href="namespacealpaqa.html#namespacealpaqa" target="_top" xlink:title=" ">
<polygon fill="white" stroke="#666666" points="0,-116.5 0,-195.5 125,-195.5 125,-116.5 0,-116.5"/>
<text text-anchor="start" x="8" y="-183.5" font-family="Helvetica,sans-Serif" font-size="10.00">AndersonAccelParams</text>
<text text-anchor="middle" x="62.5" y="-172.5" font-family="Helvetica,sans-Serif" font-size="10.00">&lt; config_t &gt;</text>
<polyline fill="none" stroke="#666666" points="0,-165.5 125,-165.5 "/>
<text text-anchor="start" x="8" y="-153.5" font-family="Helvetica,sans-Serif" font-size="10.00">+ memory</text>
<text text-anchor="start" x="8" y="-142.5" font-family="Helvetica,sans-Serif" font-size="10.00">+ min_div_fac</text>
<polyline fill="none" stroke="#666666" points="0,-135.5 125,-135.5 "/>
<text text-anchor="middle" x="62.5" y="-123.5" font-family="Helvetica,sans-Serif" font-size="10.00"> </text>
</a>
</g>
</g>
<!-- Node2&#45;&gt;Node1 -->
<g id="edge1" class="edge">
<title>Node2&#45;&gt;Node1</title>
<path fill="none" stroke="#404040" d="M87.18,-116.2C94.68,-104.39 102.99,-91.34 110.69,-79.23"/>
<polygon fill="none" stroke="#404040" points="110.83,-79.01 110.67,-71.8 117.27,-68.89 117.42,-76.1 110.83,-79.01"/>
<text text-anchor="middle" x="139" y="-90" font-family="Helvetica,sans-Serif" font-size="10.00"> +accelerator</text>
</g>
<!-- Node3 -->
<g id="node3" class="node">
<title>Node3</title>
<g id="a_node3"><a xlink:href="namespacealpaqa.html#namespacealpaqa" target="_top" xlink:title=" ">
<polygon fill="white" stroke="#666666" points="143,-116.5 143,-195.5 286,-195.5 286,-116.5 143,-116.5"/>
<text text-anchor="start" x="151" y="-183.5" font-family="Helvetica,sans-Serif" font-size="10.00">AndersonDirectionParams</text>
<text text-anchor="middle" x="214.5" y="-172.5" font-family="Helvetica,sans-Serif" font-size="10.00">&lt; config_t &gt;</text>
<polyline fill="none" stroke="#666666" points="143,-165.5 286,-165.5 "/>
<text text-anchor="start" x="151" y="-153.5" font-family="Helvetica,sans-Serif" font-size="10.00">+ rescale_on_step_size</text>
<text text-anchor="start" x="151" y="-142.5" font-family="Helvetica,sans-Serif" font-size="10.00">_changes</text>
<polyline fill="none" stroke="#666666" points="143,-135.5 286,-135.5 "/>
<text text-anchor="middle" x="214.5" y="-123.5" font-family="Helvetica,sans-Serif" font-size="10.00"> </text>
</a>
</g>
</g>
<!-- Node3&#45;&gt;Node1 -->
<g id="edge2" class="edge">
<title>Node3&#45;&gt;Node1</title>
<path fill="none" stroke="#404040" d="M194.03,-116.38C188.57,-106.65 182.51,-96.32 176.5,-87 174.73,-84.25 172.86,-81.45 170.94,-78.65"/>
<polygon fill="none" stroke="#404040" points="170.77,-78.4 164.04,-75.8 163.86,-68.59 170.58,-71.19 170.77,-78.4"/>
<text text-anchor="middle" x="210" y="-90" font-family="Helvetica,sans-Serif" font-size="10.00"> +direction</text>
</g>
</g>
</svg>
