<?xml version="1.0" encoding="UTF-8" standalone="no"?>
<!DOCTYPE svg PUBLIC "-//W3C//DTD SVG 1.1//EN"
 "http://www.w3.org/Graphics/SVG/1.1/DTD/svg11.dtd">
<!-- Generated by graphviz version 2.43.0 (0)
 -->
<!-- Title: structured&#45;lbfgs.hpp Pages: 1 -->
<svg width="2069pt" height="456pt"
 viewBox="0.00 0.00 2069.31 456.00" xmlns="http://www.w3.org/2000/svg" xmlns:xlink="http://www.w3.org/1999/xlink">
<g id="graph0" class="graph" transform="scale(1 1) rotate(0) translate(4 452)">
<title>structured&#45;lbfgs.hpp</title>
<!-- Node1 -->
<g id="node1" class="node">
<title>Node1</title>
<g id="a_node1"><a xlink:title=" ">
<polygon fill="#999999" stroke="#666666" points="323.31,-448 208.31,-448 208.31,-429 323.31,-429 323.31,-448"/>
<text text-anchor="middle" x="265.81" y="-436" font-family="Helvetica,sans-Serif" font-size="10.00">structured&#45;lbfgs.hpp</text>
</a>
</g>
</g>
<!-- Node2 -->
<g id="node2" class="node">
<title>Node2</title>
<g id="a_node2"><a xlink:href="accelerators_2lbfgs_8hpp.html" target="_top" xlink:title=" ">
<polygon fill="white" stroke="#666666" points="147.31,-261 34.31,-261 34.31,-231 147.31,-231 147.31,-261"/>
<text text-anchor="start" x="42.31" y="-249" font-family="Helvetica,sans-Serif" font-size="10.00">alpaqa/accelerators</text>
<text text-anchor="middle" x="90.81" y="-238" font-family="Helvetica,sans-Serif" font-size="10.00">/lbfgs.hpp</text>
</a>
</g>
</g>
<!-- Node1&#45;&gt;Node2 -->
<g id="edge1" class="edge">
<title>Node1&#45;&gt;Node2</title>
<path fill="none" stroke="#63b8ff" d="M222.89,-428.92C172.85,-416.31 92.68,-387.4 58.81,-327 48.34,-308.33 59.57,-285.55 71.51,-269.07"/>
<polygon fill="#63b8ff" stroke="#63b8ff" points="74.34,-271.14 77.71,-261.09 68.81,-266.84 74.34,-271.14"/>
</g>
<!-- Node3 -->
<g id="node3" class="node">
<title>Node3</title>
<g id="a_node3"><a xlink:href="config_8hpp.html" target="_top" xlink:title=" ">
<polygon fill="white" stroke="#666666" points="330.31,-195 195.31,-195 195.31,-176 330.31,-176 330.31,-195"/>
<text text-anchor="middle" x="262.81" y="-183" font-family="Helvetica,sans-Serif" font-size="10.00">alpaqa/config/config.hpp</text>
</a>
</g>
</g>
<!-- Node1&#45;&gt;Node3 -->
<g id="edge14" class="edge">
<title>Node1&#45;&gt;Node3</title>
<path fill="none" stroke="#63b8ff" d="M256.79,-428.96C248.74,-420.66 237.51,-407.25 232.81,-393 210.57,-325.69 239.86,-240.62 254.89,-204.28"/>
<polygon fill="#63b8ff" stroke="#63b8ff" points="258.15,-205.57 258.87,-195 251.71,-202.82 258.15,-205.57"/>
</g>
<!-- Node14 -->
<g id="node14" class="node">
<title>Node14</title>
<g id="a_node14"><a xlink:href="panoc-direction-update_8hpp.html" target="_top" xlink:title=" ">
<polygon fill="white" stroke="#666666" points="395.81,-393 241.81,-393 241.81,-363 395.81,-363 395.81,-393"/>
<text text-anchor="start" x="249.81" y="-381" font-family="Helvetica,sans-Serif" font-size="10.00">alpaqa/inner/directions</text>
<text text-anchor="middle" x="318.81" y="-370" font-family="Helvetica,sans-Serif" font-size="10.00">/panoc&#45;direction&#45;update.hpp</text>
</a>
</g>
</g>
<!-- Node1&#45;&gt;Node14 -->
<g id="edge15" class="edge">
<title>Node1&#45;&gt;Node14</title>
<path fill="none" stroke="#63b8ff" d="M273.63,-428.87C280.35,-421.44 290.35,-410.42 299.22,-400.62"/>
<polygon fill="#63b8ff" stroke="#63b8ff" points="301.9,-402.88 306.02,-393.11 296.71,-398.18 301.9,-402.88"/>
</g>
<!-- Node15 -->
<g id="node15" class="node">
<title>Node15</title>
<g id="a_node15"><a xlink:href="type-erased-problem_8hpp.html" target="_top" xlink:title=" ">
<polygon fill="white" stroke="#666666" points="864.31,-327 745.31,-327 745.31,-297 864.31,-297 864.31,-327"/>
<text text-anchor="start" x="753.31" y="-315" font-family="Helvetica,sans-Serif" font-size="10.00">alpaqa/problem/type</text>
<text text-anchor="middle" x="804.81" y="-304" font-family="Helvetica,sans-Serif" font-size="10.00">&#45;erased&#45;problem.hpp</text>
</a>
</g>
</g>
<!-- Node1&#45;&gt;Node15 -->
<g id="edge68" class="edge">
<title>Node1&#45;&gt;Node15</title>
<path fill="none" stroke="#63b8ff" d="M302.86,-428.94C392.06,-408.34 619.94,-355.7 735.45,-329.02"/>
<polygon fill="#63b8ff" stroke="#63b8ff" points="736.3,-332.42 745.25,-326.76 734.72,-325.6 736.3,-332.42"/>
</g>
<!-- Node22 -->
<g id="node22" class="node">
<title>Node22</title>
<g id="a_node22"><a xlink:title=" ">
<polygon fill="#e0e0e0" stroke="#999999" points="1009.81,-195 953.81,-195 953.81,-176 1009.81,-176 1009.81,-195"/>
<text text-anchor="middle" x="981.81" y="-183" font-family="Helvetica,sans-Serif" font-size="10.00">optional</text>
</a>
</g>
</g>
<!-- Node1&#45;&gt;Node22 -->
<g id="edge69" class="edge">
<title>Node1&#45;&gt;Node22</title>
<path fill="none" stroke="#63b8ff" d="M323.76,-432.41C457.22,-419.82 781.86,-384.08 873.81,-327 923.13,-296.39 958.41,-234.58 973.56,-204.19"/>
<polygon fill="#63b8ff" stroke="#63b8ff" points="976.72,-205.7 977.92,-195.18 970.41,-202.66 976.72,-205.7"/>
</g>
<!-- Node38 -->
<g id="node38" class="node">
<title>Node38</title>
<g id="a_node38"><a xlink:href="panoc-helpers_8hpp.html" target="_top" xlink:title=" ">
<polygon fill="white" stroke="#666666" points="185.81,-327 67.81,-327 67.81,-297 185.81,-297 185.81,-327"/>
<text text-anchor="start" x="75.81" y="-315" font-family="Helvetica,sans-Serif" font-size="10.00">alpaqa/inner/internal</text>
<text text-anchor="middle" x="126.81" y="-304" font-family="Helvetica,sans-Serif" font-size="10.00">/panoc&#45;helpers.hpp</text>
</a>
</g>
</g>
<!-- Node1&#45;&gt;Node38 -->
<g id="edge66" class="edge">
<title>Node1&#45;&gt;Node38</title>
<path fill="none" stroke="#63b8ff" d="M250.93,-428.88C237.07,-420.53 216.13,-407.09 199.81,-393 179.33,-375.32 158.8,-352.23 144.76,-335.41"/>
<polygon fill="#63b8ff" stroke="#63b8ff" points="147.09,-332.74 138.04,-327.24 141.69,-337.19 147.09,-332.74"/>
</g>
<!-- Node2&#45;&gt;Node3 -->
<g id="edge2" class="edge">
<title>Node2&#45;&gt;Node3</title>
<path fill="none" stroke="#63b8ff" d="M132.01,-230.99C161.3,-221.02 200.23,-207.78 227.98,-198.35"/>
<polygon fill="#63b8ff" stroke="#63b8ff" points="229.32,-201.59 237.66,-195.05 227.06,-194.96 229.32,-201.59"/>
</g>
<!-- Node5 -->
<g id="node5" class="node">
<title>Node5</title>
<g id="a_node5"><a xlink:title=" ">
<polygon fill="#e0e0e0" stroke="#999999" points="112.81,-134.5 68.81,-134.5 68.81,-115.5 112.81,-115.5 112.81,-134.5"/>
<text text-anchor="middle" x="90.81" y="-122.5" font-family="Helvetica,sans-Serif" font-size="10.00">limits</text>
</a>
</g>
</g>
<!-- Node2&#45;&gt;Node5 -->
<g id="edge10" class="edge">
<title>Node2&#45;&gt;Node5</title>
<path fill="none" stroke="#63b8ff" d="M90.81,-230.88C90.81,-209.51 90.81,-168.89 90.81,-144.96"/>
<polygon fill="#63b8ff" stroke="#63b8ff" points="94.31,-144.71 90.81,-134.71 87.31,-144.71 94.31,-144.71"/>
</g>
<!-- Node8 -->
<g id="node8" class="node">
<title>Node8</title>
<g id="a_node8"><a xlink:href="export_8hpp.html" target="_top" xlink:title=" ">
<polygon fill="white" stroke="#666666" points="1724.31,-74 1619.31,-74 1619.31,-55 1724.31,-55 1724.31,-74"/>
<text text-anchor="middle" x="1671.81" y="-62" font-family="Helvetica,sans-Serif" font-size="10.00">alpaqa/export.hpp</text>
</a>
</g>
</g>
<!-- Node2&#45;&gt;Node8 -->
<g id="edge7" class="edge">
<title>Node2&#45;&gt;Node8</title>
<path fill="none" stroke="#63b8ff" d="M147.37,-241.05C330.87,-227.92 908.26,-184.07 1089.81,-140 1125.5,-131.34 1131.05,-118.36 1166.81,-110 1322.88,-73.5 1512.46,-66.41 1608.89,-65.36"/>
<polygon fill="#63b8ff" stroke="#63b8ff" points="1609.09,-68.86 1619.06,-65.27 1609.03,-61.86 1609.09,-68.86"/>
</g>
<!-- Node10 -->
<g id="node10" class="node">
<title>Node10</title>
<g id="a_node10"><a xlink:title=" ">
<polygon fill="#e0e0e0" stroke="#999999" points="303.31,-134.5 256.31,-134.5 256.31,-115.5 303.31,-115.5 303.31,-134.5"/>
<text text-anchor="middle" x="279.81" y="-122.5" font-family="Helvetica,sans-Serif" font-size="10.00">cmath</text>
</a>
</g>
</g>
<!-- Node2&#45;&gt;Node10 -->
<g id="edge9" class="edge">
<title>Node2&#45;&gt;Node10</title>
<path fill="none" stroke="#63b8ff" d="M100.43,-230.73C111.47,-215.34 130.88,-191.02 152.81,-176 190.06,-150.49 206,-157.05 247.81,-140 248.98,-139.52 250.17,-139.03 251.37,-138.53"/>
<polygon fill="#63b8ff" stroke="#63b8ff" points="252.76,-141.74 260.58,-134.6 250.01,-135.3 252.76,-141.74"/>
</g>
<!-- Node11 -->
<g id="node11" class="node">
<title>Node11</title>
<g id="a_node11"><a xlink:title=" ">
<polygon fill="#e0e0e0" stroke="#999999" points="684.81,-74 640.81,-74 640.81,-55 684.81,-55 684.81,-74"/>
<text text-anchor="middle" x="662.81" y="-62" font-family="Helvetica,sans-Serif" font-size="10.00">string</text>
</a>
</g>
</g>
<!-- Node2&#45;&gt;Node11 -->
<g id="edge11" class="edge">
<title>Node2&#45;&gt;Node11</title>
<path fill="none" stroke="#63b8ff" d="M48.97,-230.93C32.48,-223.09 15.24,-211.5 5.81,-195 -16.75,-155.56 35.91,-122.26 59.81,-110 170.17,-53.38 489.22,-92.41 630.3,-73.54"/>
<polygon fill="#63b8ff" stroke="#63b8ff" points="631.17,-76.95 640.55,-72.01 630.14,-70.02 631.17,-76.95"/>
</g>
<!-- Node12 -->
<g id="node12" class="node">
<title>Node12</title>
<g id="a_node12"><a xlink:title=" ">
<polygon fill="#e0e0e0" stroke="#999999" points="736.31,-134.5 691.31,-134.5 691.31,-115.5 736.31,-115.5 736.31,-134.5"/>
<text text-anchor="middle" x="713.81" y="-122.5" font-family="Helvetica,sans-Serif" font-size="10.00">utility</text>
</a>
</g>
</g>
<!-- Node2&#45;&gt;Node12 -->
<g id="edge12" class="edge">
<title>Node2&#45;&gt;Node12</title>
<path fill="none" stroke="#63b8ff" d="M108.12,-230.85C130.86,-212.58 169.9,-182.34 186.81,-176 346.07,-116.29 398.49,-156.12 567.81,-140 606.64,-136.3 651.28,-132.02 680.87,-129.17"/>
<polygon fill="#63b8ff" stroke="#63b8ff" points="681.43,-132.63 691.05,-128.19 680.76,-125.67 681.43,-132.63"/>
</g>
<!-- Node13 -->
<g id="node13" class="node">
<title>Node13</title>
<g id="a_node13"><a xlink:title=" ">
<polygon fill="#e0e0e0" stroke="#999999" points="62.31,-195 15.31,-195 15.31,-176 62.31,-176 62.31,-195"/>
<text text-anchor="middle" x="38.81" y="-183" font-family="Helvetica,sans-Serif" font-size="10.00">vector</text>
</a>
</g>
</g>
<!-- Node2&#45;&gt;Node13 -->
<g id="edge13" class="edge">
<title>Node2&#45;&gt;Node13</title>
<path fill="none" stroke="#63b8ff" d="M78.22,-230.84C70.75,-222.43 61.24,-211.74 53.44,-202.96"/>
<polygon fill="#63b8ff" stroke="#63b8ff" points="55.86,-200.41 46.6,-195.27 50.63,-205.07 55.86,-200.41"/>
</g>
<!-- Node4 -->
<g id="node4" class="node">
<title>Node4</title>
<g id="a_node4"><a xlink:href="quadmath_8hpp.html" target="_top" xlink:title=" ">
<polygon fill="white" stroke="#666666" points="442.31,-140 321.31,-140 321.31,-110 442.31,-110 442.31,-140"/>
<text text-anchor="start" x="329.31" y="-128" font-family="Helvetica,sans-Serif" font-size="10.00">alpaqa/util/quadmath</text>
<text text-anchor="middle" x="381.81" y="-117" font-family="Helvetica,sans-Serif" font-size="10.00">/quadmath.hpp</text>
</a>
</g>
</g>
<!-- Node3&#45;&gt;Node4 -->
<g id="edge3" class="edge">
<title>Node3&#45;&gt;Node4</title>
<path fill="none" stroke="#63b8ff" d="M280.11,-175.99C296.73,-167.82 322.4,-155.2 343.8,-144.69"/>
<polygon fill="#63b8ff" stroke="#63b8ff" points="345.54,-147.73 352.97,-140.18 342.45,-141.45 345.54,-147.73"/>
</g>
<!-- Node3&#45;&gt;Node5 -->
<g id="edge4" class="edge">
<title>Node3&#45;&gt;Node5</title>
<path fill="none" stroke="#63b8ff" d="M235.31,-175.99C207.73,-167.34 164.12,-153.35 126.81,-140 125.2,-139.43 123.56,-138.83 121.9,-138.21"/>
<polygon fill="#63b8ff" stroke="#63b8ff" points="123.03,-134.9 112.44,-134.63 120.55,-141.45 123.03,-134.9"/>
</g>
<!-- Node6 -->
<g id="node6" class="node">
<title>Node6</title>
<g id="a_node6"><a xlink:title=" ">
<polygon fill="#e0e0e0" stroke="#999999" points="621.31,-74 552.31,-74 552.31,-55 621.31,-55 621.31,-74"/>
<text text-anchor="middle" x="586.81" y="-62" font-family="Helvetica,sans-Serif" font-size="10.00">type_traits</text>
</a>
</g>
</g>
<!-- Node3&#45;&gt;Node6 -->
<g id="edge5" class="edge">
<title>Node3&#45;&gt;Node6</title>
<path fill="none" stroke="#63b8ff" d="M214.96,-175.99C194.34,-169.7 172.17,-158.8 159.81,-140 152.48,-128.86 150.88,-119.9 159.81,-110 185.07,-81.96 437.65,-70.44 542.03,-66.84"/>
<polygon fill="#63b8ff" stroke="#63b8ff" points="542.37,-70.33 552.25,-66.5 542.14,-63.34 542.37,-70.33"/>
</g>
<!-- Node7 -->
<g id="node7" class="node">
<title>Node7</title>
<g id="a_node7"><a xlink:title=" ">
<polygon fill="#e0e0e0" stroke="#999999" points="238.31,-134.5 169.31,-134.5 169.31,-115.5 238.31,-115.5 238.31,-134.5"/>
<text text-anchor="middle" x="203.81" y="-122.5" font-family="Helvetica,sans-Serif" font-size="10.00">Eigen/Core</text>
</a>
</g>
</g>
<!-- Node3&#45;&gt;Node7 -->
<g id="edge6" class="edge">
<title>Node3&#45;&gt;Node7</title>
<path fill="none" stroke="#63b8ff" d="M254.1,-175.87C245.13,-166.97 230.92,-152.89 219.9,-141.95"/>
<polygon fill="#63b8ff" stroke="#63b8ff" points="222.12,-139.22 212.55,-134.67 217.19,-144.19 222.12,-139.22"/>
</g>
<!-- Node9 -->
<g id="node9" class="node">
<title>Node9</title>
<g id="a_node9"><a xlink:title=" ">
<polygon fill="#e0e0e0" stroke="#999999" points="1859.31,-19 1766.31,-19 1766.31,0 1859.31,0 1859.31,-19"/>
<text text-anchor="middle" x="1812.81" y="-7" font-family="Helvetica,sans-Serif" font-size="10.00">alpaqa/export.h</text>
</a>
</g>
</g>
<!-- Node8&#45;&gt;Node9 -->
<g id="edge8" class="edge">
<title>Node8&#45;&gt;Node9</title>
<path fill="none" stroke="#63b8ff" d="M1694.46,-54.98C1717.66,-46.27 1753.93,-32.63 1780.21,-22.75"/>
<polygon fill="#63b8ff" stroke="#63b8ff" points="1781.61,-25.97 1789.74,-19.17 1779.15,-19.41 1781.61,-25.97"/>
</g>
<!-- Node14&#45;&gt;Node3 -->
<g id="edge16" class="edge">
<title>Node14&#45;&gt;Node3</title>
<path fill="none" stroke="#63b8ff" d="M313.1,-362.92C304.51,-341.3 288.15,-298.47 277.81,-261 272.66,-242.35 268.49,-220.63 265.87,-205.46"/>
<polygon fill="#63b8ff" stroke="#63b8ff" points="269.27,-204.6 264.17,-195.31 262.36,-205.75 269.27,-204.6"/>
</g>
<!-- Node14&#45;&gt;Node15 -->
<g id="edge17" class="edge">
<title>Node14&#45;&gt;Node15</title>
<path fill="none" stroke="#63b8ff" d="M395.82,-366.86C489.11,-354.57 644.94,-334.05 734.91,-322.2"/>
<polygon fill="#63b8ff" stroke="#63b8ff" points="735.56,-325.65 745.01,-320.87 734.64,-318.71 735.56,-325.65"/>
</g>
<!-- Node15&#45;&gt;Node3 -->
<g id="edge18" class="edge">
<title>Node15&#45;&gt;Node3</title>
<path fill="none" stroke="#63b8ff" d="M745.04,-311.46C629.4,-311.31 380.16,-305.64 308.81,-261 288.32,-248.18 275.54,-222.55 268.79,-204.96"/>
<polygon fill="#63b8ff" stroke="#63b8ff" points="271.99,-203.5 265.36,-195.24 265.39,-205.83 271.99,-203.5"/>
</g>
<!-- Node15&#45;&gt;Node6 -->
<g id="edge64" class="edge">
<title>Node15&#45;&gt;Node6</title>
<path fill="none" stroke="#63b8ff" d="M745.04,-300.54C718.62,-293.28 688.83,-281.14 667.81,-261 615.88,-211.25 596,-123.28 589.53,-84.62"/>
<polygon fill="#63b8ff" stroke="#63b8ff" points="592.92,-83.65 587.93,-74.31 586,-84.72 592.92,-83.65"/>
</g>
<!-- Node15&#45;&gt;Node8 -->
<g id="edge19" class="edge">
<title>Node15&#45;&gt;Node8</title>
<path fill="none" stroke="#63b8ff" d="M864.41,-311.51C1069.18,-311.82 1737.86,-300.36 1857.81,-140 1892.89,-93.1 1801.38,-75.67 1734.62,-69.23"/>
<polygon fill="#63b8ff" stroke="#63b8ff" points="1734.82,-65.73 1724.55,-68.32 1734.2,-72.7 1734.82,-65.73"/>
</g>
<!-- Node15&#45;&gt;Node12 -->
<g id="edge65" class="edge">
<title>Node15&#45;&gt;Node12</title>
<path fill="none" stroke="#63b8ff" d="M851.92,-296.89C869.16,-289.2 886.87,-277.72 896.81,-261 903.62,-249.54 903.49,-242.54 896.81,-231 887.95,-215.7 788.31,-163.73 739.9,-139.12"/>
<polygon fill="#63b8ff" stroke="#63b8ff" points="741.44,-135.98 730.94,-134.58 738.28,-142.22 741.44,-135.98"/>
</g>
<!-- Node16 -->
<g id="node16" class="node">
<title>Node16</title>
<g id="a_node16"><a xlink:href="box_8hpp.html" target="_top" xlink:title=" ">
<polygon fill="white" stroke="#666666" points="619.31,-255.5 484.31,-255.5 484.31,-236.5 619.31,-236.5 619.31,-255.5"/>
<text text-anchor="middle" x="551.81" y="-243.5" font-family="Helvetica,sans-Serif" font-size="10.00">alpaqa/problem/box.hpp</text>
</a>
</g>
</g>
<!-- Node15&#45;&gt;Node16 -->
<g id="edge20" class="edge">
<title>Node15&#45;&gt;Node16</title>
<path fill="none" stroke="#63b8ff" d="M749.29,-296.95C702.96,-285.24 637.86,-268.77 595.27,-257.99"/>
<polygon fill="#63b8ff" stroke="#63b8ff" points="596.03,-254.58 585.48,-255.52 594.31,-261.36 596.03,-254.58"/>
</g>
<!-- Node20 -->
<g id="node20" class="node">
<title>Node20</title>
<g id="a_node20"><a xlink:href="alloc-check_8hpp.html" target="_top" xlink:title=" ">
<polygon fill="white" stroke="#666666" points="465.81,-255.5 317.81,-255.5 317.81,-236.5 465.81,-236.5 465.81,-255.5"/>
<text text-anchor="middle" x="391.81" y="-243.5" font-family="Helvetica,sans-Serif" font-size="10.00">alpaqa/util/alloc&#45;check.hpp</text>
</a>
</g>
</g>
<!-- Node15&#45;&gt;Node20 -->
<g id="edge28" class="edge">
<title>Node15&#45;&gt;Node20</title>
<path fill="none" stroke="#63b8ff" d="M745.03,-302.18C679.08,-292.38 569.81,-275.97 475.81,-261 468.21,-259.79 460.23,-258.49 452.34,-257.2"/>
<polygon fill="#63b8ff" stroke="#63b8ff" points="452.86,-253.73 442.43,-255.56 451.72,-260.64 452.86,-253.73"/>
</g>
<!-- Node21 -->
<g id="node21" class="node">
<title>Node21</title>
<g id="a_node21"><a xlink:href="check-dim_8hpp.html" target="_top" xlink:title=" ">
<polygon fill="white" stroke="#666666" points="819.31,-255.5 676.31,-255.5 676.31,-236.5 819.31,-236.5 819.31,-255.5"/>
<text text-anchor="middle" x="747.81" y="-243.5" font-family="Helvetica,sans-Serif" font-size="10.00">alpaqa/util/check&#45;dim.hpp</text>
</a>
</g>
</g>
<!-- Node15&#45;&gt;Node21 -->
<g id="edge30" class="edge">
<title>Node15&#45;&gt;Node21</title>
<path fill="none" stroke="#63b8ff" d="M792.16,-296.8C783.36,-286.92 771.6,-273.72 762.41,-263.39"/>
<polygon fill="#63b8ff" stroke="#63b8ff" points="764.95,-260.98 755.69,-255.84 759.72,-265.64 764.95,-260.98"/>
</g>
<!-- Node23 -->
<g id="node23" class="node">
<title>Node23</title>
<g id="a_node23"><a xlink:title=" ">
<polygon fill="#e0e0e0" stroke="#999999" points="1848.31,-134.5 1783.31,-134.5 1783.31,-115.5 1848.31,-115.5 1848.31,-134.5"/>
<text text-anchor="middle" x="1815.81" y="-122.5" font-family="Helvetica,sans-Serif" font-size="10.00">stdexcept</text>
</a>
</g>
</g>
<!-- Node15&#45;&gt;Node23 -->
<g id="edge63" class="edge">
<title>Node15&#45;&gt;Node23</title>
<path fill="none" stroke="#63b8ff" d="M864.43,-309.7C968.22,-306.56 1188.43,-295.99 1370.81,-261 1529.45,-230.56 1711.95,-165.23 1784.1,-138.15"/>
<polygon fill="#63b8ff" stroke="#63b8ff" points="1785.42,-141.4 1793.54,-134.59 1782.95,-134.85 1785.42,-141.4"/>
</g>
<!-- Node24 -->
<g id="node24" class="node">
<title>Node24</title>
<g id="a_node24"><a xlink:href="not-implemented_8hpp.html" target="_top" xlink:title=" ">
<polygon fill="white" stroke="#666666" points="2061.31,-195 1884.31,-195 1884.31,-176 2061.31,-176 2061.31,-195"/>
<text text-anchor="middle" x="1972.81" y="-183" font-family="Helvetica,sans-Serif" font-size="10.00">alpaqa/util/not&#45;implemented.hpp</text>
</a>
</g>
</g>
<!-- Node15&#45;&gt;Node24 -->
<g id="edge35" class="edge">
<title>Node15&#45;&gt;Node24</title>
<path fill="none" stroke="#63b8ff" d="M864.53,-310.2C1075.18,-307.12 1775.96,-294.43 1870.81,-261 1905.76,-248.68 1939.01,-220.16 1957.58,-202.2"/>
<polygon fill="#63b8ff" stroke="#63b8ff" points="1960.19,-204.54 1964.82,-195 1955.26,-199.57 1960.19,-204.54"/>
</g>
<!-- Node25 -->
<g id="node25" class="node">
<title>Node25</title>
<g id="a_node25"><a xlink:href="required-method_8hpp.html" target="_top" xlink:title=" ">
<polygon fill="white" stroke="#666666" points="1361.81,-261 1249.81,-261 1249.81,-231 1361.81,-231 1361.81,-261"/>
<text text-anchor="start" x="1257.81" y="-249" font-family="Helvetica,sans-Serif" font-size="10.00">alpaqa/util/required</text>
<text text-anchor="middle" x="1305.81" y="-238" font-family="Helvetica,sans-Serif" font-size="10.00">&#45;method.hpp</text>
</a>
</g>
</g>
<!-- Node15&#45;&gt;Node25 -->
<g id="edge38" class="edge">
<title>Node15&#45;&gt;Node25</title>
<path fill="none" stroke="#63b8ff" d="M864.74,-303.34C959.06,-291.29 1141.47,-267.99 1239.56,-255.46"/>
<polygon fill="#63b8ff" stroke="#63b8ff" points="1240.18,-258.91 1249.65,-254.17 1239.29,-251.97 1240.18,-258.91"/>
</g>
<!-- Node26 -->
<g id="node26" class="node">
<title>Node26</title>
<g id="a_node26"><a xlink:href="type-erasure_8hpp.html" target="_top" xlink:title=" ">
<polygon fill="white" stroke="#666666" points="1383.31,-195 1228.31,-195 1228.31,-176 1383.31,-176 1383.31,-195"/>
<text text-anchor="middle" x="1305.81" y="-183" font-family="Helvetica,sans-Serif" font-size="10.00">alpaqa/util/type&#45;erasure.hpp</text>
</a>
</g>
</g>
<!-- Node15&#45;&gt;Node26 -->
<g id="edge61" class="edge">
<title>Node15&#45;&gt;Node26</title>
<path fill="none" stroke="#63b8ff" d="M861.31,-296.96C962.07,-271.92 1170.73,-220.07 1261.75,-197.45"/>
<polygon fill="#63b8ff" stroke="#63b8ff" points="1262.61,-200.84 1271.47,-195.03 1260.93,-194.05 1262.61,-200.84"/>
</g>
<!-- Node37 -->
<g id="node37" class="node">
<title>Node37</title>
<g id="a_node37"><a xlink:title=" ">
<polygon fill="#e0e0e0" stroke="#999999" points="887.81,-255.5 837.81,-255.5 837.81,-236.5 887.81,-236.5 887.81,-255.5"/>
<text text-anchor="middle" x="862.81" y="-243.5" font-family="Helvetica,sans-Serif" font-size="10.00">chrono</text>
</a>
</g>
</g>
<!-- Node15&#45;&gt;Node37 -->
<g id="edge62" class="edge">
<title>Node15&#45;&gt;Node37</title>
<path fill="none" stroke="#63b8ff" d="M817.68,-296.8C826.63,-286.92 838.59,-273.72 847.95,-263.39"/>
<polygon fill="#63b8ff" stroke="#63b8ff" points="850.67,-265.6 854.79,-255.84 845.48,-260.9 850.67,-265.6"/>
</g>
<!-- Node16&#45;&gt;Node3 -->
<g id="edge21" class="edge">
<title>Node16&#45;&gt;Node3</title>
<path fill="none" stroke="#63b8ff" d="M509.79,-236.49C458.2,-226.05 370.73,-208.35 314.92,-197.05"/>
<polygon fill="#63b8ff" stroke="#63b8ff" points="315.38,-193.57 304.88,-195.02 313.99,-200.43 315.38,-193.57"/>
</g>
<!-- Node17 -->
<g id="node17" class="node">
<title>Node17</title>
<g id="a_node17"><a xlink:href="float_8hpp.html" target="_top" xlink:title=" ">
<polygon fill="white" stroke="#666666" points="552.81,-195 438.81,-195 438.81,-176 552.81,-176 552.81,-195"/>
<text text-anchor="middle" x="495.81" y="-183" font-family="Helvetica,sans-Serif" font-size="10.00">alpaqa/util/float.hpp</text>
</a>
</g>
</g>
<!-- Node16&#45;&gt;Node17 -->
<g id="edge22" class="edge">
<title>Node16&#45;&gt;Node17</title>
<path fill="none" stroke="#63b8ff" d="M543.55,-236.37C535.03,-227.47 521.55,-213.39 511.08,-202.45"/>
<polygon fill="#63b8ff" stroke="#63b8ff" points="513.55,-199.97 504.11,-195.17 508.49,-204.81 513.55,-199.97"/>
</g>
<!-- Node17&#45;&gt;Node4 -->
<g id="edge23" class="edge">
<title>Node17&#45;&gt;Node4</title>
<path fill="none" stroke="#63b8ff" d="M478.99,-175.87C463.09,-167.71 438.71,-155.2 418.34,-144.75"/>
<polygon fill="#63b8ff" stroke="#63b8ff" points="419.81,-141.57 409.31,-140.11 416.61,-147.79 419.81,-141.57"/>
</g>
<!-- Node17&#45;&gt;Node6 -->
<g id="edge27" class="edge">
<title>Node17&#45;&gt;Node6</title>
<path fill="none" stroke="#63b8ff" d="M492.16,-175.87C486.54,-161.09 477.69,-130.54 490.81,-110 502.31,-91.99 523.19,-81.16 542.54,-74.7"/>
<polygon fill="#63b8ff" stroke="#63b8ff" points="543.61,-78.03 552.17,-71.79 541.58,-71.33 543.61,-78.03"/>
</g>
<!-- Node17&#45;&gt;Node10 -->
<g id="edge24" class="edge">
<title>Node17&#45;&gt;Node10</title>
<path fill="none" stroke="#63b8ff" d="M451.99,-175.94C414.56,-168.13 359.52,-155.47 312.81,-140 311.18,-139.46 309.53,-138.88 307.86,-138.26"/>
<polygon fill="#63b8ff" stroke="#63b8ff" points="309.04,-134.96 298.45,-134.53 306.46,-141.47 309.04,-134.96"/>
</g>
<!-- Node18 -->
<g id="node18" class="node">
<title>Node18</title>
<g id="a_node18"><a xlink:title=" ">
<polygon fill="#e0e0e0" stroke="#999999" points="558.31,-134.5 499.31,-134.5 499.31,-115.5 558.31,-115.5 558.31,-134.5"/>
<text text-anchor="middle" x="528.81" y="-122.5" font-family="Helvetica,sans-Serif" font-size="10.00">complex</text>
</a>
</g>
</g>
<!-- Node17&#45;&gt;Node18 -->
<g id="edge25" class="edge">
<title>Node17&#45;&gt;Node18</title>
<path fill="none" stroke="#63b8ff" d="M500.68,-175.87C505.45,-167.4 512.88,-154.24 518.9,-143.57"/>
<polygon fill="#63b8ff" stroke="#63b8ff" points="522.05,-145.1 523.92,-134.67 515.96,-141.66 522.05,-145.1"/>
</g>
<!-- Node19 -->
<g id="node19" class="node">
<title>Node19</title>
<g id="a_node19"><a xlink:title=" ">
<polygon fill="#e0e0e0" stroke="#999999" points="828.81,-74 768.81,-74 768.81,-55 828.81,-55 828.81,-74"/>
<text text-anchor="middle" x="798.81" y="-62" font-family="Helvetica,sans-Serif" font-size="10.00">concepts</text>
</a>
</g>
</g>
<!-- Node17&#45;&gt;Node19 -->
<g id="edge26" class="edge">
<title>Node17&#45;&gt;Node19</title>
<path fill="none" stroke="#63b8ff" d="M517.09,-175.92C551.75,-161.97 622.6,-133.54 682.81,-110 711.11,-98.93 743.39,-86.57 766.7,-77.69"/>
<polygon fill="#63b8ff" stroke="#63b8ff" points="768,-80.94 776.1,-74.11 765.51,-74.4 768,-80.94"/>
</g>
<!-- Node20&#45;&gt;Node7 -->
<g id="edge29" class="edge">
<title>Node20&#45;&gt;Node7</title>
<path fill="none" stroke="#63b8ff" d="M387.3,-236.07C379.51,-221.52 362.21,-192.63 339.81,-176 331.4,-169.75 276.33,-150.46 238.9,-137.75"/>
<polygon fill="#63b8ff" stroke="#63b8ff" points="239.92,-134.4 229.33,-134.51 237.68,-141.03 239.92,-134.4"/>
</g>
<!-- Node21&#45;&gt;Node3 -->
<g id="edge31" class="edge">
<title>Node21&#45;&gt;Node3</title>
<path fill="none" stroke="#63b8ff" d="M677.29,-236.49C587.77,-225.7 433.84,-207.13 340.87,-195.92"/>
<polygon fill="#63b8ff" stroke="#63b8ff" points="341.02,-192.41 330.68,-194.69 340.19,-199.36 341.02,-192.41"/>
</g>
<!-- Node21&#45;&gt;Node11 -->
<g id="edge34" class="edge">
<title>Node21&#45;&gt;Node11</title>
<path fill="none" stroke="#63b8ff" d="M741.32,-236.49C728.43,-219.21 699.41,-178.37 682.81,-140 674.85,-121.6 669.36,-99.25 666.17,-83.86"/>
<polygon fill="#63b8ff" stroke="#63b8ff" points="669.61,-83.18 664.26,-74.04 662.74,-84.52 669.61,-83.18"/>
</g>
<!-- Node21&#45;&gt;Node22 -->
<g id="edge32" class="edge">
<title>Node21&#45;&gt;Node22</title>
<path fill="none" stroke="#63b8ff" d="M781.83,-236.49C824.87,-225.73 898.78,-207.26 943.68,-196.03"/>
<polygon fill="#63b8ff" stroke="#63b8ff" points="944.76,-199.37 953.62,-193.55 943.07,-192.58 944.76,-199.37"/>
</g>
<!-- Node21&#45;&gt;Node23 -->
<g id="edge33" class="edge">
<title>Node21&#45;&gt;Node23</title>
<path fill="none" stroke="#63b8ff" d="M792.25,-236.44C804.09,-234.39 816.9,-232.4 828.81,-231 1078.25,-201.57 1142.97,-220.92 1392.81,-195 1563.42,-177.3 1608.04,-180.11 1774.81,-140 1777.62,-139.32 1780.51,-138.54 1783.39,-137.68"/>
<polygon fill="#63b8ff" stroke="#63b8ff" points="1784.58,-140.98 1793.04,-134.61 1782.45,-134.31 1784.58,-140.98"/>
</g>
<!-- Node24&#45;&gt;Node9 -->
<g id="edge36" class="edge">
<title>Node24&#45;&gt;Node9</title>
<path fill="none" stroke="#63b8ff" d="M1964.65,-175.63C1939.19,-147.94 1860.85,-62.75 1827.79,-26.79"/>
<polygon fill="#63b8ff" stroke="#63b8ff" points="1830.1,-24.14 1820.76,-19.14 1824.95,-28.87 1830.1,-24.14"/>
</g>
<!-- Node24&#45;&gt;Node23 -->
<g id="edge37" class="edge">
<title>Node24&#45;&gt;Node23</title>
<path fill="none" stroke="#63b8ff" d="M1949.98,-175.99C1923.24,-166.03 1878.73,-149.45 1848.37,-138.13"/>
<polygon fill="#63b8ff" stroke="#63b8ff" points="1849.26,-134.73 1838.66,-134.52 1846.81,-141.29 1849.26,-134.73"/>
</g>
<!-- Node25&#45;&gt;Node26 -->
<g id="edge39" class="edge">
<title>Node25&#45;&gt;Node26</title>
<path fill="none" stroke="#63b8ff" d="M1305.81,-230.84C1305.81,-223.21 1305.81,-213.7 1305.81,-205.45"/>
<polygon fill="#63b8ff" stroke="#63b8ff" points="1309.31,-205.27 1305.81,-195.27 1302.31,-205.27 1309.31,-205.27"/>
</g>
<!-- Node35 -->
<g id="node35" class="node">
<title>Node35</title>
<g id="a_node35"><a xlink:title=" ">
<polygon fill="#e0e0e0" stroke="#999999" points="1765.31,-134.5 1700.31,-134.5 1700.31,-115.5 1765.31,-115.5 1765.31,-134.5"/>
<text text-anchor="middle" x="1732.81" y="-122.5" font-family="Helvetica,sans-Serif" font-size="10.00">functional</text>
</a>
</g>
</g>
<!-- Node25&#45;&gt;Node35 -->
<g id="edge60" class="edge">
<title>Node25&#45;&gt;Node35</title>
<path fill="none" stroke="#63b8ff" d="M1356.05,-231C1441.6,-207.16 1613.91,-159.13 1692.31,-137.29"/>
<polygon fill="#63b8ff" stroke="#63b8ff" points="1693.6,-140.56 1702.29,-134.51 1691.72,-133.82 1693.6,-140.56"/>
</g>
<!-- Node26&#45;&gt;Node6 -->
<g id="edge57" class="edge">
<title>Node26&#45;&gt;Node6</title>
<path fill="none" stroke="#63b8ff" d="M1228.15,-183.2C1103.2,-180.22 863.56,-170.59 784.81,-140 764.42,-132.08 765.36,-119.79 745.81,-110 725.78,-99.97 670.97,-85.61 631.29,-75.93"/>
<polygon fill="#63b8ff" stroke="#63b8ff" points="632.1,-72.53 621.56,-73.58 630.46,-79.33 632.1,-72.53"/>
</g>
<!-- Node26&#45;&gt;Node8 -->
<g id="edge40" class="edge">
<title>Node26&#45;&gt;Node8</title>
<path fill="none" stroke="#63b8ff" d="M1383.54,-181.91C1466.97,-177.75 1592.8,-167.08 1631.81,-140 1650.8,-126.81 1661.56,-101.65 1667.04,-84.24"/>
<polygon fill="#63b8ff" stroke="#63b8ff" points="1670.54,-84.7 1669.9,-74.13 1663.81,-82.8 1670.54,-84.7"/>
</g>
<!-- Node26&#45;&gt;Node12 -->
<g id="edge59" class="edge">
<title>Node26&#45;&gt;Node12</title>
<path fill="none" stroke="#63b8ff" d="M1228.16,-180.97C1097.56,-174.59 839.52,-159.92 750.81,-140 748.29,-139.43 745.71,-138.73 743.14,-137.95"/>
<polygon fill="#63b8ff" stroke="#63b8ff" points="744.06,-134.56 733.46,-134.61 741.78,-141.18 744.06,-134.56"/>
</g>
<!-- Node26&#45;&gt;Node23 -->
<g id="edge56" class="edge">
<title>Node26&#45;&gt;Node23</title>
<path fill="none" stroke="#63b8ff" d="M1383.41,-179.35C1496.83,-171.45 1702.24,-155.61 1774.81,-140 1777.87,-139.34 1781.02,-138.53 1784.15,-137.62"/>
<polygon fill="#63b8ff" stroke="#63b8ff" points="1785.47,-140.88 1793.95,-134.52 1783.36,-134.2 1785.47,-140.88"/>
</g>
<!-- Node27 -->
<g id="node27" class="node">
<title>Node27</title>
<g id="a_node27"><a xlink:href="demangled-typename_8hpp.html" target="_top" xlink:title=" ">
<polygon fill="white" stroke="#666666" points="1080.81,-140 954.81,-140 954.81,-110 1080.81,-110 1080.81,-140"/>
<text text-anchor="start" x="962.81" y="-128" font-family="Helvetica,sans-Serif" font-size="10.00">alpaqa/util/demangled</text>
<text text-anchor="middle" x="1017.81" y="-117" font-family="Helvetica,sans-Serif" font-size="10.00">&#45;typename.hpp</text>
</a>
</g>
</g>
<!-- Node26&#45;&gt;Node27 -->
<g id="edge41" class="edge">
<title>Node26&#45;&gt;Node27</title>
<path fill="none" stroke="#63b8ff" d="M1263.93,-175.99C1218.7,-166.81 1145.76,-151.99 1091.01,-140.87"/>
<polygon fill="#63b8ff" stroke="#63b8ff" points="1091.5,-137.4 1081.01,-138.84 1090.11,-144.26 1091.5,-137.4"/>
</g>
<!-- Node28 -->
<g id="node28" class="node">
<title>Node28</title>
<g id="a_node28"><a xlink:title=" ">
<polygon fill="#e0e0e0" stroke="#999999" points="1143.31,-74 1086.31,-74 1086.31,-55 1143.31,-55 1143.31,-74"/>
<text text-anchor="middle" x="1114.81" y="-62" font-family="Helvetica,sans-Serif" font-size="10.00">typeinfo</text>
</a>
</g>
</g>
<!-- Node26&#45;&gt;Node28 -->
<g id="edge58" class="edge">
<title>Node26&#45;&gt;Node28</title>
<path fill="none" stroke="#63b8ff" d="M1252.55,-175.93C1224.96,-169.5 1191.89,-158.5 1166.81,-140 1146.84,-125.27 1131.77,-100.5 1123.13,-83.6"/>
<polygon fill="#63b8ff" stroke="#63b8ff" points="1126.1,-81.72 1118.59,-74.25 1119.81,-84.78 1126.1,-81.72"/>
</g>
<!-- Node29 -->
<g id="node29" class="node">
<title>Node29</title>
<g id="a_node29"><a xlink:href="noop-delete_8hpp.html" target="_top" xlink:title=" ">
<polygon fill="white" stroke="#666666" points="1381.31,-134.5 1230.31,-134.5 1230.31,-115.5 1381.31,-115.5 1381.31,-134.5"/>
<text text-anchor="middle" x="1305.81" y="-122.5" font-family="Helvetica,sans-Serif" font-size="10.00">alpaqa/util/noop&#45;delete.hpp</text>
</a>
</g>
</g>
<!-- Node26&#45;&gt;Node29 -->
<g id="edge45" class="edge">
<title>Node26&#45;&gt;Node29</title>
<path fill="none" stroke="#63b8ff" d="M1305.81,-175.87C1305.81,-167.75 1305.81,-155.31 1305.81,-144.89"/>
<polygon fill="#63b8ff" stroke="#63b8ff" points="1309.31,-144.67 1305.81,-134.67 1302.31,-144.67 1309.31,-144.67"/>
</g>
<!-- Node30 -->
<g id="node30" class="node">
<title>Node30</title>
<g id="a_node30"><a xlink:href="type-traits_8hpp.html" target="_top" xlink:title=" ">
<polygon fill="white" stroke="#666666" points="936.31,-134.5 793.31,-134.5 793.31,-115.5 936.31,-115.5 936.31,-134.5"/>
<text text-anchor="middle" x="864.81" y="-122.5" font-family="Helvetica,sans-Serif" font-size="10.00">alpaqa/util/type&#45;traits.hpp</text>
</a>
</g>
</g>
<!-- Node26&#45;&gt;Node30 -->
<g id="edge46" class="edge">
<title>Node26&#45;&gt;Node30</title>
<path fill="none" stroke="#63b8ff" d="M1228.06,-175.98C1155.05,-167.73 1042.83,-154.37 945.81,-140 938.07,-138.85 929.92,-137.56 921.91,-136.22"/>
<polygon fill="#63b8ff" stroke="#63b8ff" points="922.3,-132.74 911.86,-134.53 921.14,-139.64 922.3,-132.74"/>
</g>
<!-- Node31 -->
<g id="node31" class="node">
<title>Node31</title>
<g id="a_node31"><a xlink:title=" ">
<polygon fill="#e0e0e0" stroke="#999999" points="1003.81,-74 945.81,-74 945.81,-55 1003.81,-55 1003.81,-74"/>
<text text-anchor="middle" x="974.81" y="-62" font-family="Helvetica,sans-Serif" font-size="10.00">memory</text>
</a>
</g>
</g>
<!-- Node26&#45;&gt;Node31 -->
<g id="edge54" class="edge">
<title>Node26&#45;&gt;Node31</title>
<path fill="none" stroke="#63b8ff" d="M1383.42,-178.57C1469.95,-171.16 1599.81,-157.31 1614.81,-140 1623.54,-129.92 1623.92,-119.74 1614.81,-110 1573.96,-66.32 1137.44,-78.46 1077.81,-74 1056.82,-72.43 1033.45,-70.52 1014.28,-68.9"/>
<polygon fill="#63b8ff" stroke="#63b8ff" points="1014.36,-65.39 1004.1,-68.04 1013.77,-72.37 1014.36,-65.39"/>
</g>
<!-- Node32 -->
<g id="node32" class="node">
<title>Node32</title>
<g id="a_node32"><a xlink:title=" ">
<polygon fill="#e0e0e0" stroke="#999999" points="1463.81,-134.5 1399.81,-134.5 1399.81,-115.5 1463.81,-115.5 1463.81,-134.5"/>
<text text-anchor="middle" x="1431.81" y="-122.5" font-family="Helvetica,sans-Serif" font-size="10.00">algorithm</text>
</a>
</g>
</g>
<!-- Node26&#45;&gt;Node32 -->
<g id="edge50" class="edge">
<title>Node26&#45;&gt;Node32</title>
<path fill="none" stroke="#63b8ff" d="M1324.13,-175.99C1345.22,-166.2 1380.07,-150.02 1404.39,-138.73"/>
<polygon fill="#63b8ff" stroke="#63b8ff" points="1405.87,-141.9 1413.46,-134.52 1402.92,-135.55 1405.87,-141.9"/>
</g>
<!-- Node33 -->
<g id="node33" class="node">
<title>Node33</title>
<g id="a_node33"><a xlink:title=" ">
<polygon fill="#e0e0e0" stroke="#999999" points="1533.81,-134.5 1481.81,-134.5 1481.81,-115.5 1533.81,-115.5 1533.81,-134.5"/>
<text text-anchor="middle" x="1507.81" y="-122.5" font-family="Helvetica,sans-Serif" font-size="10.00">cassert</text>
</a>
</g>
</g>
<!-- Node26&#45;&gt;Node33 -->
<g id="edge51" class="edge">
<title>Node26&#45;&gt;Node33</title>
<path fill="none" stroke="#63b8ff" d="M1343,-175.95C1377.09,-167.79 1428.81,-154.6 1472.81,-140 1474.47,-139.45 1476.17,-138.86 1477.88,-138.24"/>
<polygon fill="#63b8ff" stroke="#63b8ff" points="1479.49,-141.38 1487.6,-134.56 1477.01,-134.83 1479.49,-141.38"/>
</g>
<!-- Node34 -->
<g id="node34" class="node">
<title>Node34</title>
<g id="a_node34"><a xlink:title=" ">
<polygon fill="#e0e0e0" stroke="#999999" points="1605.31,-134.5 1552.31,-134.5 1552.31,-115.5 1605.31,-115.5 1605.31,-134.5"/>
<text text-anchor="middle" x="1578.81" y="-122.5" font-family="Helvetica,sans-Serif" font-size="10.00">cstddef</text>
</a>
</g>
</g>
<!-- Node26&#45;&gt;Node34 -->
<g id="edge52" class="edge">
<title>Node26&#45;&gt;Node34</title>
<path fill="none" stroke="#63b8ff" d="M1368.42,-175.98C1416.63,-168.65 1484.64,-156.62 1542.81,-140 1544.96,-139.39 1547.15,-138.7 1549.35,-137.96"/>
<polygon fill="#63b8ff" stroke="#63b8ff" points="1550.64,-141.21 1558.85,-134.52 1548.26,-134.63 1550.64,-141.21"/>
</g>
<!-- Node26&#45;&gt;Node35 -->
<g id="edge53" class="edge">
<title>Node26&#45;&gt;Node35</title>
<path fill="none" stroke="#63b8ff" d="M1383.58,-179.35C1460.83,-173.3 1582.37,-161.3 1685.81,-140 1689.53,-139.23 1693.38,-138.31 1697.21,-137.31"/>
<polygon fill="#63b8ff" stroke="#63b8ff" points="1698.47,-140.59 1707.15,-134.51 1696.58,-133.85 1698.47,-140.59"/>
</g>
<!-- Node36 -->
<g id="node36" class="node">
<title>Node36</title>
<g id="a_node36"><a xlink:title=" ">
<polygon fill="#e0e0e0" stroke="#999999" points="1212.31,-134.5 1175.31,-134.5 1175.31,-115.5 1212.31,-115.5 1212.31,-134.5"/>
<text text-anchor="middle" x="1193.81" y="-122.5" font-family="Helvetica,sans-Serif" font-size="10.00">new</text>
</a>
</g>
</g>
<!-- Node26&#45;&gt;Node36 -->
<g id="edge55" class="edge">
<title>Node26&#45;&gt;Node36</title>
<path fill="none" stroke="#63b8ff" d="M1289.28,-175.87C1270.84,-166.23 1240.76,-150.53 1219.3,-139.31"/>
<polygon fill="#63b8ff" stroke="#63b8ff" points="1220.89,-136.19 1210.4,-134.67 1217.65,-142.4 1220.89,-136.19"/>
</g>
<!-- Node27&#45;&gt;Node8 -->
<g id="edge42" class="edge">
<title>Node27&#45;&gt;Node8</title>
<path fill="none" stroke="#63b8ff" d="M1081.18,-111.95C1085.78,-111.23 1090.36,-110.57 1094.81,-110 1280.92,-85.97 1502.61,-73.32 1608.89,-68.23"/>
<polygon fill="#63b8ff" stroke="#63b8ff" points="1609.29,-71.71 1619.11,-67.75 1608.96,-64.72 1609.29,-71.71"/>
</g>
<!-- Node27&#45;&gt;Node11 -->
<g id="edge43" class="edge">
<title>Node27&#45;&gt;Node11</title>
<path fill="none" stroke="#63b8ff" d="M954.62,-111.58C951.64,-111.04 948.69,-110.51 945.81,-110 855.07,-94.05 747.47,-77.88 694.92,-70.16"/>
<polygon fill="#63b8ff" stroke="#63b8ff" points="695.27,-66.68 684.87,-68.69 694.26,-73.6 695.27,-66.68"/>
</g>
<!-- Node27&#45;&gt;Node28 -->
<g id="edge44" class="edge">
<title>Node27&#45;&gt;Node28</title>
<path fill="none" stroke="#63b8ff" d="M1041.29,-109.84C1056.61,-100.6 1076.52,-88.59 1091.76,-79.4"/>
<polygon fill="#63b8ff" stroke="#63b8ff" points="1093.8,-82.26 1100.56,-74.09 1090.19,-76.26 1093.8,-82.26"/>
</g>
<!-- Node30&#45;&gt;Node6 -->
<g id="edge49" class="edge">
<title>Node30&#45;&gt;Node6</title>
<path fill="none" stroke="#63b8ff" d="M824.38,-115.49C773.03,-104.69 684.69,-86.1 631.41,-74.89"/>
<polygon fill="#63b8ff" stroke="#63b8ff" points="632.08,-71.45 621.57,-72.81 630.63,-78.3 632.08,-71.45"/>
</g>
<!-- Node30&#45;&gt;Node19 -->
<g id="edge47" class="edge">
<title>Node30&#45;&gt;Node19</title>
<path fill="none" stroke="#63b8ff" d="M855.07,-115.37C844.83,-106.3 828.52,-91.84 816.09,-80.82"/>
<polygon fill="#63b8ff" stroke="#63b8ff" points="818.39,-78.18 808.59,-74.17 813.75,-83.42 818.39,-78.18"/>
</g>
<!-- Node30&#45;&gt;Node31 -->
<g id="edge48" class="edge">
<title>Node30&#45;&gt;Node31</title>
<path fill="none" stroke="#63b8ff" d="M881.04,-115.37C899.07,-105.78 928.43,-90.17 949.49,-78.97"/>
<polygon fill="#63b8ff" stroke="#63b8ff" points="951.33,-81.95 958.51,-74.17 948.04,-75.77 951.33,-81.95"/>
</g>
<!-- Node38&#45;&gt;Node3 -->
<g id="edge67" class="edge">
<title>Node38&#45;&gt;Node3</title>
<path fill="none" stroke="#63b8ff" d="M138.12,-296.85C151.8,-280.15 175.98,-252.03 199.81,-231 212.49,-219.81 228,-208.82 240.46,-200.57"/>
<polygon fill="#63b8ff" stroke="#63b8ff" points="242.43,-203.46 248.9,-195.08 238.61,-197.59 242.43,-203.46"/>
</g>
</g>
</svg>
