<?xml version="1.0" encoding="UTF-8" standalone="no"?>
<!DOCTYPE svg PUBLIC "-//W3C//DTD SVG 1.1//EN"
 "http://www.w3.org/Graphics/SVG/1.1/DTD/svg11.dtd">
<!-- Generated by graphviz version 2.43.0 (0)
 -->
<!-- Title: strtod_ovl Pages: 1 -->
<svg width="441pt" height="76pt"
 viewBox="0.00 0.00 441.00 75.50" xmlns="http://www.w3.org/2000/svg" xmlns:xlink="http://www.w3.org/1999/xlink">
<g id="graph0" class="graph" transform="scale(1 1) rotate(0) translate(4 71.5)">
<title>strtod_ovl</title>
<!-- Node1 -->
<g id="node1" class="node">
<title>Node1</title>
<g id="a_node1"><a xlink:title=" ">
<polygon fill="#999999" stroke="#666666" points="433,-45.5 368,-45.5 368,-26.5 433,-26.5 433,-45.5"/>
<text text-anchor="middle" x="400.5" y="-33.5" font-family="Helvetica,sans-Serif" font-size="10.00">strtod_ovl</text>
</a>
</g>
</g>
<!-- Node2 -->
<g id="node2" class="node">
<title>Node2</title>
<g id="a_node2"><a xlink:href="structalpaqa_1_1csv_1_1CSVReader.html#a538940f8cf1396d65dd796515dbbff7a" target="_top" xlink:title=" ">
<polygon fill="white" stroke="#666666" points="332,-45.5 259,-45.5 259,-26.5 332,-26.5 332,-45.5"/>
<text text-anchor="middle" x="295.5" y="-33.5" font-family="Helvetica,sans-Serif" font-size="10.00">read_single</text>
</a>
</g>
</g>
<!-- Node1&#45;&gt;Node2 -->
<g id="edge1" class="edge">
<title>Node1&#45;&gt;Node2</title>
<path fill="none" stroke="#63b8ff" d="M357.71,-36C349.28,-36 340.48,-36 332.27,-36"/>
<polygon fill="#63b8ff" stroke="#63b8ff" points="357.76,-39.5 367.76,-36 357.76,-32.5 357.76,-39.5"/>
</g>
<!-- Node3 -->
<g id="node3" class="node">
<title>Node3</title>
<g id="a_node3"><a xlink:href="structalpaqa_1_1csv_1_1CSVReader.html#aa099bf8be529b9150c8b4ebc522597d8" target="_top" xlink:title=" ">
<polygon fill="white" stroke="#666666" points="223,-45.5 185,-45.5 185,-26.5 223,-26.5 223,-45.5"/>
<text text-anchor="middle" x="204" y="-33.5" font-family="Helvetica,sans-Serif" font-size="10.00">read</text>
</a>
</g>
</g>
<!-- Node2&#45;&gt;Node3 -->
<g id="edge2" class="edge">
<title>Node2&#45;&gt;Node3</title>
<path fill="none" stroke="#63b8ff" d="M248.66,-36C239.57,-36 230.53,-36 223.06,-36"/>
<polygon fill="#63b8ff" stroke="#63b8ff" points="248.87,-39.5 258.87,-36 248.87,-32.5 248.87,-39.5"/>
</g>
<!-- Node4 -->
<g id="node4" class="node">
<title>Node4</title>
<g id="a_node4"><a xlink:href="namespacealpaqa_1_1csv.html#a3554794dc7178bdfae0d1781b50cdc38" target="_top" xlink:title=" ">
<polygon fill="white" stroke="#666666" points="149,-67.5 0,-67.5 0,-48.5 149,-48.5 149,-67.5"/>
<text text-anchor="middle" x="74.5" y="-55.5" font-family="Helvetica,sans-Serif" font-size="10.00">alpaqa::csv::read_row_impl</text>
</a>
</g>
</g>
<!-- Node3&#45;&gt;Node4 -->
<g id="edge3" class="edge">
<title>Node3&#45;&gt;Node4</title>
<path fill="none" stroke="#63b8ff" d="M174.6,-40.9C161.65,-43.13 145.86,-45.86 130.71,-48.47"/>
<polygon fill="#63b8ff" stroke="#63b8ff" points="175.47,-44.3 184.73,-39.15 174.28,-37.4 175.47,-44.3"/>
</g>
<!-- Node5 -->
<g id="node5" class="node">
<title>Node5</title>
<g id="a_node5"><a xlink:href="namespacealpaqa_1_1csv.html#a28272c3a05ea949e70f2e241c3828b00" target="_top" xlink:title=" ">
<polygon fill="white" stroke="#666666" points="135.5,-30 13.5,-30 13.5,0 135.5,0 135.5,-30"/>
<text text-anchor="start" x="21.5" y="-18" font-family="Helvetica,sans-Serif" font-size="10.00">alpaqa::csv::read_row</text>
<text text-anchor="middle" x="74.5" y="-7" font-family="Helvetica,sans-Serif" font-size="10.00">_std_vector</text>
</a>
</g>
</g>
<!-- Node3&#45;&gt;Node5 -->
<g id="edge4" class="edge">
<title>Node3&#45;&gt;Node5</title>
<path fill="none" stroke="#63b8ff" d="M174.79,-31.35C163.17,-29.44 149.23,-27.14 135.53,-24.89"/>
<polygon fill="#63b8ff" stroke="#63b8ff" points="174.3,-34.82 184.73,-32.99 175.43,-27.91 174.3,-34.82"/>
</g>
</g>
</svg>
