<?xml version="1.0" encoding="UTF-8" standalone="no"?>
<!DOCTYPE svg PUBLIC "-//W3C//DTD SVG 1.1//EN"
 "http://www.w3.org/Graphics/SVG/1.1/DTD/svg11.dtd">
<!-- Generated by graphviz version 2.43.0 (0)
 -->
<!-- Title: calc_error_stop_crit Pages: 1 -->
<svg width="308pt" height="113pt"
 viewBox="0.00 0.00 308.00 112.50" xmlns="http://www.w3.org/2000/svg" xmlns:xlink="http://www.w3.org/1999/xlink">
<g id="graph0" class="graph" transform="scale(1 1) rotate(0) translate(4 108.5)">
<title>calc_error_stop_crit</title>
<!-- Node1 -->
<g id="node1" class="node">
<title>Node1</title>
<g id="a_node1"><a xlink:title="Compute the ε from the stopping criterion, see PANOCStopCrit.">
<polygon fill="#999999" stroke="#666666" points="112,-56 0,-56 0,-37 112,-37 112,-56"/>
<text text-anchor="middle" x="56" y="-44" font-family="Helvetica,sans-Serif" font-size="10.00">calc_error_stop_crit</text>
</a>
</g>
</g>
<!-- Node2 -->
<g id="node2" class="node">
<title>Node2</title>
<g id="a_node2"><a xlink:href="classalpaqa_1_1TypeErasedProblem.html#a02bf998629ca590cf5a2e183cbf43444" target="_top" xlink:title="[Required] Function that computes a proximal gradient step.">
<polygon fill="white" stroke="#666666" points="300,-104.5 148,-104.5 148,-74.5 300,-74.5 300,-104.5"/>
<text text-anchor="start" x="156" y="-92.5" font-family="Helvetica,sans-Serif" font-size="10.00">alpaqa::TypeErasedProblem</text>
<text text-anchor="middle" x="224" y="-81.5" font-family="Helvetica,sans-Serif" font-size="10.00">::eval_prox_grad_step</text>
</a>
</g>
</g>
<!-- Node1&#45;&gt;Node2 -->
<g id="edge1" class="edge">
<title>Node1&#45;&gt;Node2</title>
<path fill="none" stroke="#63b8ff" d="M93.84,-56.04C111.9,-60.72 134.23,-66.51 155.22,-71.94"/>
<polygon fill="#63b8ff" stroke="#63b8ff" points="154.51,-75.37 165.07,-74.49 156.27,-68.6 154.51,-75.37"/>
</g>
<!-- Node3 -->
<g id="node3" class="node">
<title>Node3</title>
<g id="a_node3"><a xlink:href="namespacealpaqa_1_1vec__util.html#ad25a5d07b7f707ab1d1fa7667a13dffa" target="_top" xlink:title="Get the 1&#45;norm of the given vector.">
<polygon fill="white" stroke="#666666" points="292.5,-56 155.5,-56 155.5,-37 292.5,-37 292.5,-56"/>
<text text-anchor="middle" x="224" y="-44" font-family="Helvetica,sans-Serif" font-size="10.00">alpaqa::vec_util::norm_1</text>
</a>
</g>
</g>
<!-- Node1&#45;&gt;Node3 -->
<g id="edge2" class="edge">
<title>Node1&#45;&gt;Node3</title>
<path fill="none" stroke="#63b8ff" d="M112.28,-46.5C122.82,-46.5 134.04,-46.5 145.13,-46.5"/>
<polygon fill="#63b8ff" stroke="#63b8ff" points="145.26,-50 155.26,-46.5 145.26,-43 145.26,-50"/>
</g>
<!-- Node4 -->
<g id="node4" class="node">
<title>Node4</title>
<g id="a_node4"><a xlink:href="namespacealpaqa_1_1vec__util.html#ab29885b89f70cd004695e002658a2134" target="_top" xlink:title="Get the maximum or infinity&#45;norm of the given vector.">
<polygon fill="white" stroke="#666666" points="295.5,-19 152.5,-19 152.5,0 295.5,0 295.5,-19"/>
<text text-anchor="middle" x="224" y="-7" font-family="Helvetica,sans-Serif" font-size="10.00">alpaqa::vec_util::norm_inf</text>
</a>
</g>
</g>
<!-- Node1&#45;&gt;Node4 -->
<g id="edge3" class="edge">
<title>Node1&#45;&gt;Node4</title>
<path fill="none" stroke="#63b8ff" d="M99.75,-36.97C121.26,-32.18 147.52,-26.32 170.27,-21.25"/>
<polygon fill="#63b8ff" stroke="#63b8ff" points="171.11,-24.65 180.11,-19.06 169.59,-17.82 171.11,-24.65"/>
</g>
</g>
</svg>
