<?xml version="1.0" encoding="UTF-8" standalone="no"?>
<!DOCTYPE svg PUBLIC "-//W3C//DTD SVG 1.1//EN"
 "http://www.w3.org/Graphics/SVG/1.1/DTD/svg11.dtd">
<!-- Generated by graphviz version 2.43.0 (0)
 -->
<!-- Title: default_eval_grad_gi Pages: 1 -->
<svg width="610pt" height="86pt"
 viewBox="0.00 0.00 610.00 86.00" xmlns="http://www.w3.org/2000/svg" xmlns:xlink="http://www.w3.org/1999/xlink">
<g id="graph0" class="graph" transform="scale(1 1) rotate(0) translate(4 82)">
<title>default_eval_grad_gi</title>
<!-- Node1 -->
<g id="node1" class="node">
<title>Node1</title>
<g id="a_node1"><a xlink:title=" ">
<polygon fill="#999999" stroke="#666666" points="602,-48.5 483,-48.5 483,-29.5 602,-29.5 602,-48.5"/>
<text text-anchor="middle" x="542.5" y="-36.5" font-family="Helvetica,sans-Serif" font-size="10.00">default_eval_grad_gi</text>
</a>
</g>
</g>
<!-- Node2 -->
<g id="node2" class="node">
<title>Node2</title>
<g id="a_node2"><a xlink:href="classalpaqa_1_1TypeErasedProblem.html#ab6c62b31d326c310c39212fa6331fe6d" target="_top" xlink:title="Returns true if the problem provides an implementation of eval_grad_gi.">
<polygon fill="white" stroke="#666666" points="447,-54 295,-54 295,-24 447,-24 447,-54"/>
<text text-anchor="start" x="303" y="-42" font-family="Helvetica,sans-Serif" font-size="10.00">alpaqa::TypeErasedProblem</text>
<text text-anchor="middle" x="371" y="-31" font-family="Helvetica,sans-Serif" font-size="10.00">::provides_eval_grad_gi</text>
</a>
</g>
</g>
<!-- Node1&#45;&gt;Node2 -->
<g id="edge1" class="edge">
<title>Node1&#45;&gt;Node2</title>
<path fill="none" stroke="#63b8ff" d="M472.59,-39C464.2,-39 455.6,-39 447.12,-39"/>
<polygon fill="#63b8ff" stroke="#63b8ff" points="472.69,-42.5 482.69,-39 472.69,-35.5 472.69,-42.5"/>
</g>
<!-- Node3 -->
<g id="node3" class="node">
<title>Node3</title>
<g id="a_node3"><a xlink:href="structalpaqa_1_1StructuredLBFGSDirection.html#abef09c52cdc391877cde2c5825fe65e6" target="_top" xlink:title=" ">
<polygon fill="white" stroke="#666666" points="259,-78 77,-78 77,-48 259,-48 259,-78"/>
<text text-anchor="start" x="85" y="-66" font-family="Helvetica,sans-Serif" font-size="10.00">alpaqa::StructuredLBFGSDirection</text>
<text text-anchor="middle" x="168" y="-55" font-family="Helvetica,sans-Serif" font-size="10.00">::initialize</text>
</a>
</g>
</g>
<!-- Node2&#45;&gt;Node3 -->
<g id="edge2" class="edge">
<title>Node2&#45;&gt;Node3</title>
<path fill="none" stroke="#63b8ff" d="M284.71,-49.18C276.31,-50.19 267.76,-51.21 259.31,-52.22"/>
<polygon fill="#63b8ff" stroke="#63b8ff" points="285.35,-52.63 294.87,-47.97 284.52,-45.68 285.35,-52.63"/>
</g>
<!-- Node4 -->
<g id="node4" class="node">
<title>Node4</title>
<g id="a_node4"><a xlink:href="group__grp__Problems.html#ga9ed51a24b30020b93df728547026f370" target="_top" xlink:title=" ">
<polygon fill="white" stroke="#666666" points="231,-30 105,-30 105,0 231,0 231,-30"/>
<text text-anchor="start" x="113" y="-18" font-family="Helvetica,sans-Serif" font-size="10.00">alpaqa::print_provided</text>
<text text-anchor="middle" x="168" y="-7" font-family="Helvetica,sans-Serif" font-size="10.00">_functions</text>
</a>
</g>
</g>
<!-- Node2&#45;&gt;Node4 -->
<g id="edge3" class="edge">
<title>Node2&#45;&gt;Node4</title>
<path fill="none" stroke="#63b8ff" d="M284.69,-28.81C266.75,-26.67 248.14,-24.45 231.24,-22.43"/>
<polygon fill="#63b8ff" stroke="#63b8ff" points="284.52,-32.32 294.87,-30.03 285.35,-25.37 284.52,-32.32"/>
</g>
<!-- Node5 -->
<g id="node5" class="node">
<title>Node5</title>
<g id="a_node5"><a xlink:href="alpaqa-driver_8cpp.html#ac0f2228420376f4db7e1274f2b41667c" target="_top" xlink:title=" ">
<polygon fill="white" stroke="#666666" points="41,-24.5 0,-24.5 0,-5.5 41,-5.5 41,-24.5"/>
<text text-anchor="middle" x="20.5" y="-12.5" font-family="Helvetica,sans-Serif" font-size="10.00">main</text>
</a>
</g>
</g>
<!-- Node4&#45;&gt;Node5 -->
<g id="edge4" class="edge">
<title>Node4&#45;&gt;Node5</title>
<path fill="none" stroke="#63b8ff" d="M94.63,-15C74.97,-15 55.28,-15 41.29,-15"/>
<polygon fill="#63b8ff" stroke="#63b8ff" points="94.87,-18.5 104.87,-15 94.87,-11.5 94.87,-18.5"/>
</g>
</g>
</svg>
