<?xml version="1.0" encoding="UTF-8" standalone="no"?>
<!DOCTYPE svg PUBLIC "-//W3C//DTD SVG 1.1//EN"
 "http://www.w3.org/Graphics/SVG/1.1/DTD/svg11.dtd">
<!-- Generated by graphviz version 2.43.0 (0)
 -->
<!-- Title: uk Pages: 1 -->
<svg width="195pt" height="134pt"
 viewBox="0.00 0.00 195.00 134.00" xmlns="http://www.w3.org/2000/svg" xmlns:xlink="http://www.w3.org/1999/xlink">
<g id="graph0" class="graph" transform="scale(1 1) rotate(0) translate(4 130)">
<title>uk</title>
<!-- Node1 -->
<g id="node1" class="node">
<title>Node1</title>
<g id="a_node1"><a xlink:title=" ">
<polygon fill="#999999" stroke="#666666" points="187,-72.5 158,-72.5 158,-53.5 187,-53.5 187,-72.5"/>
<text text-anchor="middle" x="172.5" y="-60.5" font-family="Helvetica,sans-Serif" font-size="10.00">uk</text>
</a>
</g>
</g>
<!-- Node2 -->
<g id="node2" class="node">
<title>Node2</title>
<g id="a_node2"><a xlink:href="structalpaqa_1_1OCPEvaluator.html#aac26fb1e500caabcd837ef0b1e48b035" target="_top" xlink:title=" ">
<polygon fill="white" stroke="#666666" points="122,-126 0,-126 0,-96 122,-96 122,-126"/>
<text text-anchor="start" x="8" y="-114" font-family="Helvetica,sans-Serif" font-size="10.00">alpaqa::OCPEvaluator</text>
<text text-anchor="middle" x="61" y="-103" font-family="Helvetica,sans-Serif" font-size="10.00">::backward</text>
</a>
</g>
</g>
<!-- Node1&#45;&gt;Node2 -->
<g id="edge1" class="edge">
<title>Node1&#45;&gt;Node2</title>
<path fill="none" stroke="#63b8ff" d="M148.65,-74.5C140.32,-78.58 130.79,-83.12 122,-87 115.23,-89.99 107.96,-93.04 100.9,-95.91"/>
<polygon fill="#63b8ff" stroke="#63b8ff" points="150.35,-77.56 157.75,-69.99 147.24,-71.29 150.35,-77.56"/>
</g>
<!-- Node3 -->
<g id="node3" class="node">
<title>Node3</title>
<g id="a_node3"><a xlink:href="structalpaqa_1_1OCPEvaluator.html#aa390f28c24f187326b60eedd7ff4fe66" target="_top" xlink:title=" ">
<polygon fill="white" stroke="#666666" points="122,-78 0,-78 0,-48 122,-48 122,-78"/>
<text text-anchor="start" x="8" y="-66" font-family="Helvetica,sans-Serif" font-size="10.00">alpaqa::OCPEvaluator</text>
<text text-anchor="middle" x="61" y="-55" font-family="Helvetica,sans-Serif" font-size="10.00">::forward</text>
</a>
</g>
</g>
<!-- Node1&#45;&gt;Node3 -->
<g id="edge2" class="edge">
<title>Node1&#45;&gt;Node3</title>
<path fill="none" stroke="#63b8ff" d="M147.52,-63C139.98,-63 131.29,-63 122.4,-63"/>
<polygon fill="#63b8ff" stroke="#63b8ff" points="147.63,-66.5 157.63,-63 147.63,-59.5 147.63,-66.5"/>
</g>
<!-- Node4 -->
<g id="node4" class="node">
<title>Node4</title>
<g id="a_node4"><a xlink:href="structalpaqa_1_1OCPEvaluator.html#a02a290de7f57c49cbc1ce72fbd8a69b3" target="_top" xlink:title=" ">
<polygon fill="white" stroke="#666666" points="122,-30 0,-30 0,0 122,0 122,-30"/>
<text text-anchor="start" x="8" y="-18" font-family="Helvetica,sans-Serif" font-size="10.00">alpaqa::OCPEvaluator</text>
<text text-anchor="middle" x="61" y="-7" font-family="Helvetica,sans-Serif" font-size="10.00">::forward_simulate</text>
</a>
</g>
</g>
<!-- Node1&#45;&gt;Node4 -->
<g id="edge3" class="edge">
<title>Node1&#45;&gt;Node4</title>
<path fill="none" stroke="#63b8ff" d="M148.65,-51.5C140.32,-47.42 130.79,-42.88 122,-39 115.23,-36.01 107.96,-32.96 100.9,-30.09"/>
<polygon fill="#63b8ff" stroke="#63b8ff" points="147.24,-54.71 157.75,-56.01 150.35,-48.44 147.24,-54.71"/>
</g>
</g>
</svg>
