<?xml version="1.0" encoding="UTF-8" standalone="no"?>
<!DOCTYPE svg PUBLIC "-//W3C//DTD SVG 1.1//EN"
 "http://www.w3.org/Graphics/SVG/1.1/DTD/svg11.dtd">
<!-- Generated by graphviz version 2.43.0 (0)
 -->
<!-- Title: get_param_default Pages: 1 -->
<svg width="1236pt" height="546pt"
 viewBox="0.00 0.00 1236.00 546.00" xmlns="http://www.w3.org/2000/svg" xmlns:xlink="http://www.w3.org/1999/xlink">
<g id="graph0" class="graph" transform="scale(1 1) rotate(0) translate(4 542)">
<title>get_param_default</title>
<!-- Node1 -->
<g id="Node000001" class="node">
<title>Node1</title>
<g id="a_Node000001"><a xlink:title=" ">
<polygon fill="#999999" stroke="#666666" points="1228,-341 1119,-341 1119,-322 1228,-322 1228,-341"/>
<text text-anchor="middle" x="1173.5" y="-329" font-family="Helvetica,sans-Serif" font-size="10.00">get_param_default</text>
</a>
</g>
</g>
<!-- Node2 -->
<g id="Node000002" class="node">
<title>Node2</title>
<g id="a_Node000002"><a xlink:href="namespacealpaqa_1_1params.html#ac41193c19fc55cee0820ccbf0b51f19a" target="_top" xlink:title=" ">
<polygon fill="white" stroke="#666666" points="1083,-378 1014,-378 1014,-359 1083,-359 1083,-378"/>
<text text-anchor="middle" x="1048.5" y="-366" font-family="Helvetica,sans-Serif" font-size="10.00">get_param</text>
</a>
</g>
</g>
<!-- Node1&#45;&gt;Node2 -->
<g id="edge1_Node000001_Node000002" class="edge">
<title>Node1&#45;&gt;Node2</title>
<g id="a_edge1_Node000001_Node000002"><a xlink:title=" ">
<path fill="none" stroke="#63b8ff" d="M1131.07,-343.96C1114.89,-348.83 1096.63,-354.32 1081.5,-358.88"/>
<polygon fill="#63b8ff" stroke="#63b8ff" points="1132.26,-347.26 1140.82,-341.03 1130.24,-340.56 1132.26,-347.26"/>
</a>
</g>
</g>
<!-- Node3 -->
<g id="Node000003" class="node">
<title>Node3</title>
<g id="a_Node000003"><a xlink:href="namespacealpaqa_1_1params.html#aa9f7e1616af20dacef3f25bf8c32942d" target="_top" xlink:title=" ">
<polygon fill="white" stroke="#666666" points="1083,-341 1014,-341 1014,-322 1083,-322 1083,-341"/>
<text text-anchor="middle" x="1048.5" y="-329" font-family="Helvetica,sans-Serif" font-size="10.00">get_param</text>
</a>
</g>
</g>
<!-- Node1&#45;&gt;Node3 -->
<g id="edge2_Node000001_Node000003" class="edge">
<title>Node1&#45;&gt;Node3</title>
<g id="a_edge2_Node000001_Node000003"><a xlink:title=" ">
<path fill="none" stroke="#63b8ff" d="M1108.87,-331.5C1099.97,-331.5 1091.12,-331.5 1083.08,-331.5"/>
<polygon fill="#63b8ff" stroke="#63b8ff" points="1108.91,-335 1118.91,-331.5 1108.91,-328 1108.91,-335"/>
</a>
</g>
</g>
<!-- Node4 -->
<g id="Node000004" class="node">
<title>Node4</title>
<g id="a_Node000004"><a xlink:href="namespacealpaqa_1_1params.html#a1f2f7590328c20e04138a91eee5e0e98" target="_top" xlink:title="Get the first argument as a JSON object j.">
<polygon fill="white" stroke="#666666" points="1083,-304 1014,-304 1014,-285 1083,-285 1083,-304"/>
<text text-anchor="middle" x="1048.5" y="-292" font-family="Helvetica,sans-Serif" font-size="10.00">get_param</text>
</a>
</g>
</g>
<!-- Node1&#45;&gt;Node4 -->
<g id="edge3_Node000001_Node000004" class="edge">
<title>Node1&#45;&gt;Node4</title>
<g id="a_edge3_Node000001_Node000004"><a xlink:title=" ">
<path fill="none" stroke="#63b8ff" d="M1131.07,-319.04C1114.89,-314.17 1096.63,-308.68 1081.5,-304.12"/>
<polygon fill="#63b8ff" stroke="#63b8ff" points="1130.24,-322.44 1140.82,-321.97 1132.26,-315.74 1130.24,-322.44"/>
</a>
</g>
</g>
<!-- Node5 -->
<g id="Node000005" class="node">
<title>Node5</title>
<g id="a_Node000005"><a xlink:href="structalpaqa_1_1params_1_1attribute__accessor_3_01json_01_4.html#a0a5b45f6960fbd1a33565256fa3570c6" target="_top" xlink:title=" ">
<polygon fill="white" stroke="#666666" points="978,-331.5 838,-331.5 838,-301.5 978,-301.5 978,-331.5"/>
<text text-anchor="start" x="846" y="-319.5" font-family="Helvetica,sans-Serif" font-size="10.00">alpaqa::params::attribute</text>
<text text-anchor="middle" x="908" y="-308.5" font-family="Helvetica,sans-Serif" font-size="10.00">_accessor&lt; json &gt;::make</text>
</a>
</g>
</g>
<!-- Node4&#45;&gt;Node5 -->
<g id="edge4_Node000004_Node000005" class="edge">
<title>Node4&#45;&gt;Node5</title>
<g id="a_edge4_Node000004_Node000005"><a xlink:title=" ">
<path fill="none" stroke="#63b8ff" d="M1003.89,-301.43C995.66,-302.73 986.86,-304.13 978.07,-305.53"/>
<polygon fill="#63b8ff" stroke="#63b8ff" points="1004.65,-304.85 1013.97,-299.83 1003.55,-297.94 1004.65,-304.85"/>
</a>
</g>
</g>
<!-- Node6 -->
<g id="Node000006" class="node">
<title>Node6</title>
<g id="a_Node000006"><a xlink:href="classOptions.html#a8ca2e3915e8acf3cd04e02180e66e9ab" target="_top" xlink:title=" ">
<polygon fill="white" stroke="#666666" points="966.5,-283 849.5,-283 849.5,-264 966.5,-264 966.5,-283"/>
<text text-anchor="middle" x="908" y="-271" font-family="Helvetica,sans-Serif" font-size="10.00">Options::set_params</text>
</a>
</g>
</g>
<!-- Node4&#45;&gt;Node6 -->
<g id="edge5_Node000004_Node000006" class="edge">
<title>Node4&#45;&gt;Node6</title>
<g id="a_edge5_Node000004_Node000006"><a xlink:title=" ">
<path fill="none" stroke="#63b8ff" d="M1003.9,-287.89C992.05,-286.09 979.03,-284.12 966.54,-282.22"/>
<polygon fill="#63b8ff" stroke="#63b8ff" points="1003.56,-291.38 1013.97,-289.42 1004.61,-284.46 1003.56,-291.38"/>
</a>
</g>
</g>
<!-- Node7 -->
<g id="Node000007" class="node">
<title>Node7</title>
<g id="a_Node000007"><a xlink:href="options_8hpp.html#a91fca5414dbe50bec5104c59d9ebda11" target="_top" xlink:title=" ">
<polygon fill="white" stroke="#666666" points="802,-283 728,-283 728,-264 802,-264 802,-283"/>
<text text-anchor="middle" x="765" y="-271" font-family="Helvetica,sans-Serif" font-size="10.00">set_params</text>
</a>
</g>
</g>
<!-- Node6&#45;&gt;Node7 -->
<g id="edge6_Node000006_Node000007" class="edge">
<title>Node6&#45;&gt;Node7</title>
<g id="a_edge6_Node000006_Node000007"><a xlink:title=" ">
<path fill="none" stroke="#63b8ff" d="M839.05,-273.5C826.27,-273.5 813.37,-273.5 802.05,-273.5"/>
<polygon fill="#63b8ff" stroke="#63b8ff" points="839.24,-277 849.24,-273.5 839.24,-270 839.24,-277"/>
</a>
</g>
</g>
<!-- Node8 -->
<g id="Node000008" class="node">
<title>Node8</title>
<g id="a_Node000008"><a xlink:href="namespaceanonymous__namespace_02problem_8cpp_03.html#a1b79c8c67d4bc5eba618a86e8b0a7744" target="_top" xlink:title=" ">
<polygon fill="white" stroke="#666666" points="689,-520 554,-520 554,-479 689,-479 689,-520"/>
<text text-anchor="start" x="562" y="-508" font-family="Helvetica,sans-Serif" font-size="10.00">anonymous_namespace</text>
<text text-anchor="start" x="562" y="-497" font-family="Helvetica,sans-Serif" font-size="10.00">{problem::cpp}::get</text>
<text text-anchor="middle" x="621.5" y="-486" font-family="Helvetica,sans-Serif" font-size="10.00">_dl_flags</text>
</a>
</g>
</g>
<!-- Node7&#45;&gt;Node8 -->
<g id="edge7_Node000007_Node000008" class="edge">
<title>Node7&#45;&gt;Node8</title>
<g id="a_edge7_Node000007_Node000008"><a xlink:title=" ">
<path fill="none" stroke="#63b8ff" d="M761.38,-293.25C755.44,-330.88 737.74,-413.63 692,-464.5 687.03,-470.03 680.99,-474.79 674.57,-478.87"/>
<polygon fill="#63b8ff" stroke="#63b8ff" points="764.88,-293.51 762.86,-283.11 757.95,-292.49 764.88,-293.51"/>
</a>
</g>
</g>
<!-- Node9 -->
<g id="Node000009" class="node">
<title>Node9</title>
<g id="a_Node000009"><a xlink:href="alpaqa-driver_8cpp.html#a53c823aeddf0a1b037645504d26ee7cd" target="_top" xlink:title=" ">
<polygon fill="white" stroke="#666666" points="182,-422 81,-422 81,-403 182,-403 182,-422"/>
<text text-anchor="middle" x="131.5" y="-410" font-family="Helvetica,sans-Serif" font-size="10.00">get_output_paths</text>
</a>
</g>
</g>
<!-- Node7&#45;&gt;Node9 -->
<g id="edge9_Node000007_Node000009" class="edge">
<title>Node7&#45;&gt;Node9</title>
<g id="a_edge9_Node000007_Node000009"><a xlink:title=" ">
<path fill="none" stroke="#63b8ff" d="M750.34,-290.95C737.14,-306.52 715.7,-328.63 692,-340.5 520.35,-426.43 283.57,-422.99 182.01,-416.65"/>
<polygon fill="#63b8ff" stroke="#63b8ff" points="753.15,-293.03 756.78,-283.08 747.74,-288.6 753.15,-293.03"/>
</a>
</g>
</g>
<!-- Node10 -->
<g id="Node000010" class="node">
<title>Node10</title>
<g id="a_Node000010"><a xlink:href="alpaqa-driver_8cpp.html#ac0f2228420376f4db7e1274f2b41667c" target="_top" xlink:title=" ">
<polygon fill="white" stroke="#666666" points="41,-403 0,-403 0,-384 41,-384 41,-403"/>
<text text-anchor="middle" x="20.5" y="-391" font-family="Helvetica,sans-Serif" font-size="10.00">main</text>
</a>
</g>
</g>
<!-- Node7&#45;&gt;Node10 -->
<g id="edge17_Node000007_Node000010" class="edge">
<title>Node7&#45;&gt;Node10</title>
<g id="a_edge17_Node000007_Node000010"><a xlink:title=" ">
<path fill="none" stroke="#63b8ff" d="M755.87,-292.59C744.82,-316.24 722.87,-356.13 692,-378.5 599.76,-445.36 559.92,-450.5 446,-450.5 446,-450.5 446,-450.5 279.5,-450.5 189.1,-450.5 162.01,-462.24 77,-431.5 59.65,-425.23 42.57,-412.22 32.04,-403.18"/>
<polygon fill="#63b8ff" stroke="#63b8ff" points="759.15,-293.83 760.04,-283.27 752.76,-290.96 759.15,-293.83"/>
</a>
</g>
</g>
<!-- Node11 -->
<g id="Node000011" class="node">
<title>Node11</title>
<g id="a_Node000011"><a xlink:href="alpaqa-driver_8cpp.html#a62667720f096806ed08c60e4207f8972" target="_top" xlink:title=" ">
<polygon fill="white" stroke="#666666" points="186,-384 77,-384 77,-365 186,-365 186,-384"/>
<text text-anchor="middle" x="131.5" y="-372" font-family="Helvetica,sans-Serif" font-size="10.00">get_output_stream</text>
</a>
</g>
</g>
<!-- Node7&#45;&gt;Node11 -->
<g id="edge11_Node000007_Node000011" class="edge">
<title>Node7&#45;&gt;Node11</title>
<g id="a_edge11_Node000007_Node000011"><a xlink:title=" ">
<path fill="none" stroke="#63b8ff" d="M741.09,-288.43C727.4,-296.62 709.34,-306.16 692,-311.5 512.64,-366.76 287.6,-374.57 186.29,-375.02"/>
<polygon fill="#63b8ff" stroke="#63b8ff" points="743.14,-291.28 749.81,-283.05 739.46,-285.33 743.14,-291.28"/>
</a>
</g>
</g>
<!-- Node12 -->
<g id="Node000012" class="node">
<title>Node12</title>
<g id="a_Node000012"><a xlink:href="alpaqa-driver_8cpp.html#a3430011226186bf05d5c2552270587b7" target="_top" xlink:title=" ">
<polygon fill="white" stroke="#666666" points="185,-248 78,-248 78,-229 185,-229 185,-248"/>
<text text-anchor="middle" x="131.5" y="-236" font-family="Helvetica,sans-Serif" font-size="10.00">get_solver_builder</text>
</a>
</g>
</g>
<!-- Node7&#45;&gt;Node12 -->
<g id="edge13_Node000007_Node000012" class="edge">
<title>Node7&#45;&gt;Node12</title>
<g id="a_edge13_Node000007_Node000012"><a xlink:title=" ">
<path fill="none" stroke="#63b8ff" d="M729.29,-286.38C717.61,-290.1 704.4,-293.65 692,-295.5 584.83,-311.51 252.18,-282.45 222,-275.5 196.28,-269.58 168.44,-257 150.76,-248.16"/>
<polygon fill="#63b8ff" stroke="#63b8ff" points="730.72,-289.59 739.1,-283.11 728.5,-282.95 730.72,-289.59"/>
</a>
</g>
</g>
<!-- Node13 -->
<g id="Node000013" class="node">
<title>Node13</title>
<g id="a_Node000013"><a xlink:href="namespaceanonymous__namespace_02problem_8cpp_03.html#ab42fb3dc0421d6c6c1f45d753a95a2c4" target="_top" xlink:title=" ">
<polygon fill="white" stroke="#666666" points="689,-41 554,-41 554,0 689,0 689,-41"/>
<text text-anchor="start" x="562" y="-29" font-family="Helvetica,sans-Serif" font-size="10.00">anonymous_namespace</text>
<text text-anchor="start" x="562" y="-18" font-family="Helvetica,sans-Serif" font-size="10.00">{problem::cpp}::load</text>
<text text-anchor="middle" x="621.5" y="-7" font-family="Helvetica,sans-Serif" font-size="10.00">_initial_guess</text>
</a>
</g>
</g>
<!-- Node7&#45;&gt;Node13 -->
<g id="edge15_Node000007_Node000013" class="edge">
<title>Node7&#45;&gt;Node13</title>
<g id="a_edge15_Node000007_Node000013"><a xlink:title=" ">
<path fill="none" stroke="#63b8ff" d="M760.72,-253.58C753.65,-215.48 734.11,-130.96 692,-73.5 682.76,-60.89 669.71,-49.85 657.4,-41.16"/>
<polygon fill="#63b8ff" stroke="#63b8ff" points="757.34,-254.59 762.52,-263.83 764.24,-253.38 757.34,-254.59"/>
</a>
</g>
</g>
<!-- Node14 -->
<g id="Node000014" class="node">
<title>Node14</title>
<g id="a_Node000014"><a xlink:href="alm-driver_8hpp.html#ae4ef291d9ec9d55ee804b5723ea2e641" target="_top" xlink:title=" ">
<polygon fill="white" stroke="#666666" points="673,-211 570,-211 570,-192 673,-192 673,-211"/>
<text text-anchor="middle" x="621.5" y="-199" font-family="Helvetica,sans-Serif" font-size="10.00">make_alm_solver</text>
</a>
</g>
</g>
<!-- Node7&#45;&gt;Node14 -->
<g id="edge18_Node000007_Node000014" class="edge">
<title>Node7&#45;&gt;Node14</title>
<g id="a_edge18_Node000007_Node000014"><a xlink:title=" ">
<path fill="none" stroke="#63b8ff" d="M745.81,-257.15C731.95,-245.45 711.9,-230.13 692,-220.5 684.23,-216.74 675.6,-213.63 667.14,-211.08"/>
<polygon fill="#63b8ff" stroke="#63b8ff" points="743.74,-259.99 753.59,-263.88 748.32,-254.69 743.74,-259.99"/>
</a>
</g>
</g>
<!-- Node15 -->
<g id="Node000015" class="node">
<title>Node15</title>
<g id="a_Node000015"><a xlink:href="namespaceanonymous__namespace_02fista-driver_8cpp_03.html#a479d5f0dacbf404f04a694bb1be6f6c5" target="_top" xlink:title=" ">
<polygon fill="white" stroke="#666666" points="513.5,-273 376.5,-273 376.5,-232 513.5,-232 513.5,-273"/>
<text text-anchor="start" x="384.5" y="-261" font-family="Helvetica,sans-Serif" font-size="10.00">anonymous_namespace</text>
<text text-anchor="start" x="384.5" y="-250" font-family="Helvetica,sans-Serif" font-size="10.00">{fista&#45;driver::cpp}</text>
<text text-anchor="middle" x="445" y="-239" font-family="Helvetica,sans-Serif" font-size="10.00">::make_fista_driver_impl</text>
</a>
</g>
</g>
<!-- Node7&#45;&gt;Node15 -->
<g id="edge30_Node000007_Node000015" class="edge">
<title>Node7&#45;&gt;Node15</title>
<g id="a_edge30_Node000007_Node000015"><a xlink:title=" ">
<path fill="none" stroke="#63b8ff" d="M717.6,-277.94C709.09,-278.59 700.29,-279.16 692,-279.5 629.39,-282.1 613.17,-287.37 551,-279.5 538.77,-277.95 525.92,-275.43 513.58,-272.53"/>
<polygon fill="#63b8ff" stroke="#63b8ff" points="718.09,-281.41 727.78,-277.11 717.53,-274.43 718.09,-281.41"/>
</a>
</g>
</g>
<!-- Node17 -->
<g id="Node000017" class="node">
<title>Node17</title>
<g id="a_Node000017"><a xlink:href="namespaceanonymous__namespace_02panoc-driver_8cpp_03.html#ab2ca1091ea82102367666b62756cd7f6" target="_top" xlink:title=" ">
<polygon fill="white" stroke="#666666" points="515,-205 375,-205 375,-164 515,-164 515,-205"/>
<text text-anchor="start" x="383" y="-193" font-family="Helvetica,sans-Serif" font-size="10.00">anonymous_namespace</text>
<text text-anchor="start" x="383" y="-182" font-family="Helvetica,sans-Serif" font-size="10.00">{panoc&#45;driver::cpp}</text>
<text text-anchor="middle" x="445" y="-171" font-family="Helvetica,sans-Serif" font-size="10.00">::make_panoc_like_driver</text>
</a>
</g>
</g>
<!-- Node7&#45;&gt;Node17 -->
<g id="edge36_Node000007_Node000017" class="edge">
<title>Node7&#45;&gt;Node17</title>
<g id="a_edge36_Node000007_Node000017"><a xlink:title=" ">
<path fill="none" stroke="#63b8ff" d="M755.31,-254.54C744.15,-232.76 722.52,-198.17 692,-183.5 636.86,-157 566.4,-160.47 515.03,-168.67"/>
<polygon fill="#63b8ff" stroke="#63b8ff" points="752.29,-256.33 759.81,-263.79 758.58,-253.26 752.29,-256.33"/>
</a>
</g>
</g>
<!-- Node20 -->
<g id="Node000020" class="node">
<title>Node20</title>
<g id="a_Node000020"><a xlink:href="namespaceanonymous__namespace_02pantr-driver_8cpp_03.html#a39b6aa8ff07d8400d404f191bdccd499" target="_top" xlink:title=" ">
<polygon fill="white" stroke="#666666" points="514,-146 376,-146 376,-105 514,-105 514,-146"/>
<text text-anchor="start" x="384" y="-134" font-family="Helvetica,sans-Serif" font-size="10.00">anonymous_namespace</text>
<text text-anchor="start" x="384" y="-123" font-family="Helvetica,sans-Serif" font-size="10.00">{pantr&#45;driver::cpp}</text>
<text text-anchor="middle" x="445" y="-112" font-family="Helvetica,sans-Serif" font-size="10.00">::make_pantr_like_solver</text>
</a>
</g>
</g>
<!-- Node7&#45;&gt;Node20 -->
<g id="edge37_Node000007_Node000020" class="edge">
<title>Node7&#45;&gt;Node20</title>
<g id="a_edge37_Node000007_Node000020"><a xlink:title=" ">
<path fill="none" stroke="#63b8ff" d="M762.2,-253.25C757.71,-216.53 742.46,-139.69 692,-106.5 633.31,-67.89 548.86,-86.55 495.74,-104.94"/>
<polygon fill="#63b8ff" stroke="#63b8ff" points="758.77,-254.08 763.31,-263.66 765.73,-253.34 758.77,-254.08"/>
</a>
</g>
</g>
<!-- Node22 -->
<g id="Node000022" class="node">
<title>Node22</title>
<g id="a_Node000022"><a xlink:href="namespaceanonymous__namespace_02fista-driver_8cpp_03.html#a6f96d677b5961c6a4fcaa773f37ca65b" target="_top" xlink:title=" ">
<polygon fill="white" stroke="#666666" points="692,-270 551,-270 551,-229 692,-229 692,-270"/>
<text text-anchor="start" x="559" y="-258" font-family="Helvetica,sans-Serif" font-size="10.00">anonymous_namespace</text>
<text text-anchor="start" x="559" y="-247" font-family="Helvetica,sans-Serif" font-size="10.00">{fista&#45;driver::cpp}</text>
<text text-anchor="middle" x="621.5" y="-236" font-family="Helvetica,sans-Serif" font-size="10.00">::make_inner_fista_solver</text>
</a>
</g>
</g>
<!-- Node7&#45;&gt;Node22 -->
<g id="edge31_Node000007_Node000022" class="edge">
<title>Node7&#45;&gt;Node22</title>
<g id="a_edge31_Node000007_Node000022"><a xlink:title=" ">
<path fill="none" stroke="#63b8ff" d="M717.8,-265.66C709.57,-264.27 700.82,-262.78 692.1,-261.31"/>
<polygon fill="#63b8ff" stroke="#63b8ff" points="717.48,-269.16 727.93,-267.38 718.65,-262.26 717.48,-269.16"/>
</a>
</g>
</g>
<!-- Node23 -->
<g id="Node000023" class="node">
<title>Node23</title>
<g id="a_Node000023"><a xlink:href="alm-driver_8hpp.html#a51b2a2cde56762bcb43a2f4da0913f98" target="_top" xlink:title=" ">
<polygon fill="white" stroke="#666666" points="676,-135 567,-135 567,-116 676,-116 676,-135"/>
<text text-anchor="middle" x="621.5" y="-123" font-family="Helvetica,sans-Serif" font-size="10.00">make_inner_solver</text>
</a>
</g>
</g>
<!-- Node7&#45;&gt;Node23 -->
<g id="edge33_Node000007_Node000023" class="edge">
<title>Node7&#45;&gt;Node23</title>
<g id="a_edge33_Node000007_Node000023"><a xlink:title=" ">
<path fill="none" stroke="#63b8ff" d="M757.75,-254.37C747.95,-227.27 726.45,-177.85 692,-149.5 684.41,-143.25 675.1,-138.59 665.79,-135.13"/>
<polygon fill="#63b8ff" stroke="#63b8ff" points="754.46,-255.58 761.04,-263.89 761.08,-253.29 754.46,-255.58"/>
</a>
</g>
</g>
<!-- Node8&#45;&gt;Node8 -->
<g id="edge8_Node000008_Node000008" class="edge">
<title>Node8&#45;&gt;Node8</title>
<g id="a_edge8_Node000008_Node000008"><a xlink:title=" ">
<path fill="none" stroke="#63b8ff" d="M645.93,-529.96C642.3,-534.74 634.15,-538 621.5,-538 601.25,-538 592.55,-529.65 595.4,-520.1"/>
<polygon fill="#63b8ff" stroke="#63b8ff" points="649.38,-530.54 647.6,-520.1 642.48,-529.37 649.38,-530.54"/>
</a>
</g>
</g>
<!-- Node9&#45;&gt;Node10 -->
<g id="edge10_Node000009_Node000010" class="edge">
<title>Node9&#45;&gt;Node10</title>
<g id="a_edge10_Node000009_Node000010"><a xlink:title=" ">
<path fill="none" stroke="#63b8ff" d="M70.89,-402.11C60.15,-400.24 49.68,-398.41 41.16,-396.93"/>
<polygon fill="#63b8ff" stroke="#63b8ff" points="70.33,-405.56 80.78,-403.83 71.53,-398.67 70.33,-405.56"/>
</a>
</g>
</g>
<!-- Node11&#45;&gt;Node10 -->
<g id="edge12_Node000011_Node000010" class="edge">
<title>Node11&#45;&gt;Node10</title>
<g id="a_edge12_Node000011_Node000010"><a xlink:title=" ">
<path fill="none" stroke="#63b8ff" d="M67.08,-385.55C57.68,-387.19 48.65,-388.77 41.14,-390.08"/>
<polygon fill="#63b8ff" stroke="#63b8ff" points="67.71,-389 76.96,-383.83 66.51,-382.1 67.71,-389"/>
</a>
</g>
</g>
<!-- Node12&#45;&gt;Node10 -->
<g id="edge14_Node000012_Node000010" class="edge">
<title>Node12&#45;&gt;Node10</title>
<g id="a_edge14_Node000012_Node000010"><a xlink:title=" ">
<path fill="none" stroke="#63b8ff" d="M117.87,-256.46C94.71,-289.39 46.21,-358.37 28.32,-383.81"/>
<polygon fill="#63b8ff" stroke="#63b8ff" points="120.79,-258.39 123.68,-248.2 115.07,-254.36 120.79,-258.39"/>
</a>
</g>
</g>
<!-- Node13&#45;&gt;Node13 -->
<g id="edge16_Node000013_Node000013" class="edge">
<title>Node13&#45;&gt;Node13</title>
<g id="a_edge16_Node000013_Node000013"><a xlink:title=" ">
<path fill="none" stroke="#63b8ff" d="M645.93,-50.96C642.3,-55.74 634.15,-59 621.5,-59 601.25,-59 592.55,-50.65 595.4,-41.1"/>
<polygon fill="#63b8ff" stroke="#63b8ff" points="649.38,-51.54 647.6,-41.1 642.48,-50.37 649.38,-51.54"/>
</a>
</g>
</g>
<!-- Node14&#45;&gt;Node15 -->
<g id="edge19_Node000014_Node000015" class="edge">
<title>Node14&#45;&gt;Node15</title>
<g id="a_edge19_Node000014_Node000015"><a xlink:title=" ">
<path fill="none" stroke="#63b8ff" d="M574.83,-213.78C566.88,-215.98 558.69,-218.28 551,-220.5 538.46,-224.12 525.11,-228.1 512.29,-231.98"/>
<polygon fill="#63b8ff" stroke="#63b8ff" points="576.01,-217.09 584.73,-211.07 574.16,-210.34 576.01,-217.09"/>
</a>
</g>
</g>
<!-- Node14&#45;&gt;Node17 -->
<g id="edge22_Node000014_Node000017" class="edge">
<title>Node14&#45;&gt;Node17</title>
<g id="a_edge22_Node000014_Node000017"><a xlink:title=" ">
<path fill="none" stroke="#63b8ff" d="M559.37,-195.54C545.08,-194.15 529.77,-192.66 515.17,-191.24"/>
<polygon fill="#63b8ff" stroke="#63b8ff" points="559.27,-199.05 569.56,-196.54 559.94,-192.08 559.27,-199.05"/>
</a>
</g>
</g>
<!-- Node14&#45;&gt;Node20 -->
<g id="edge27_Node000014_Node000020" class="edge">
<title>Node14&#45;&gt;Node20</title>
<g id="a_edge27_Node000014_Node000020"><a xlink:title=" ">
<path fill="none" stroke="#63b8ff" d="M589.3,-187.88C568.3,-178.72 539.99,-166.38 515,-155.5 508.05,-152.48 500.71,-149.28 493.51,-146.15"/>
<polygon fill="#63b8ff" stroke="#63b8ff" points="588.12,-191.19 598.68,-191.98 590.91,-184.77 588.12,-191.19"/>
</a>
</g>
</g>
<!-- Node16 -->
<g id="Node000016" class="node">
<title>Node16</title>
<g id="a_Node000016"><a xlink:href="fista-driver_8cpp.html#a3080e58fe1053f672b75de34a403d459" target="_top" xlink:title=" ">
<polygon fill="white" stroke="#666666" points="332.5,-266 228.5,-266 228.5,-247 332.5,-247 332.5,-266"/>
<text text-anchor="middle" x="280.5" y="-254" font-family="Helvetica,sans-Serif" font-size="10.00">make_fista_driver</text>
</a>
</g>
</g>
<!-- Node15&#45;&gt;Node16 -->
<g id="edge20_Node000015_Node000016" class="edge">
<title>Node15&#45;&gt;Node16</title>
<g id="a_edge20_Node000015_Node000016"><a xlink:title=" ">
<path fill="none" stroke="#63b8ff" d="M366.47,-254.41C355,-254.69 343.43,-254.98 332.69,-255.24"/>
<polygon fill="#63b8ff" stroke="#63b8ff" points="366.59,-257.91 376.5,-254.16 366.41,-250.91 366.59,-257.91"/>
</a>
</g>
</g>
<!-- Node16&#45;&gt;Node12 -->
<g id="edge21_Node000016_Node000012" class="edge">
<title>Node16&#45;&gt;Node12</title>
<g id="a_edge21_Node000016_Node000012"><a xlink:title=" ">
<path fill="none" stroke="#63b8ff" d="M218.54,-249.04C207.54,-247.69 196.15,-246.29 185.41,-244.98"/>
<polygon fill="#63b8ff" stroke="#63b8ff" points="218.15,-252.51 228.5,-250.25 219,-245.57 218.15,-252.51"/>
</a>
</g>
</g>
<!-- Node18 -->
<g id="Node000018" class="node">
<title>Node18</title>
<g id="a_Node000018"><a xlink:href="panoc-driver_8cpp.html#a19879efa6ead750308768da16e7c3417" target="_top" xlink:title=" ">
<polygon fill="white" stroke="#666666" points="336.5,-229 224.5,-229 224.5,-210 336.5,-210 336.5,-229"/>
<text text-anchor="middle" x="280.5" y="-217" font-family="Helvetica,sans-Serif" font-size="10.00">make_panoc_driver</text>
</a>
</g>
</g>
<!-- Node17&#45;&gt;Node18 -->
<g id="edge23_Node000017_Node000018" class="edge">
<title>Node17&#45;&gt;Node18</title>
<g id="a_edge23_Node000017_Node000018"><a xlink:title=" ">
<path fill="none" stroke="#63b8ff" d="M364.46,-201.63C351.14,-204.5 337.75,-207.38 325.74,-209.97"/>
<polygon fill="#63b8ff" stroke="#63b8ff" points="365.58,-204.97 374.61,-199.44 364.1,-198.13 365.58,-204.97"/>
</a>
</g>
</g>
<!-- Node19 -->
<g id="Node000019" class="node">
<title>Node19</title>
<g id="a_Node000019"><a xlink:href="panoc-driver_8cpp.html#a0191399270ebc2b9eaeb169f445ecc38" target="_top" xlink:title=" ">
<polygon fill="white" stroke="#666666" points="339,-192 222,-192 222,-173 339,-173 339,-192"/>
<text text-anchor="middle" x="280.5" y="-180" font-family="Helvetica,sans-Serif" font-size="10.00">make_zerofpr_driver</text>
</a>
</g>
</g>
<!-- Node17&#45;&gt;Node19 -->
<g id="edge25_Node000017_Node000019" class="edge">
<title>Node17&#45;&gt;Node19</title>
<g id="a_edge25_Node000017_Node000019"><a xlink:title=" ">
<path fill="none" stroke="#63b8ff" d="M364.58,-183.52C356.01,-183.42 347.41,-183.31 339.16,-183.21"/>
<polygon fill="#63b8ff" stroke="#63b8ff" points="364.57,-187.02 374.61,-183.65 364.66,-180.02 364.57,-187.02"/>
</a>
</g>
</g>
<!-- Node18&#45;&gt;Node12 -->
<g id="edge24_Node000018_Node000012" class="edge">
<title>Node18&#45;&gt;Node12</title>
<g id="a_edge24_Node000018_Node000012"><a xlink:title=" ">
<path fill="none" stroke="#63b8ff" d="M214.26,-227.93C204.48,-229.2 194.51,-230.49 185.04,-231.71"/>
<polygon fill="#63b8ff" stroke="#63b8ff" points="214.88,-231.38 224.34,-226.63 213.98,-224.44 214.88,-231.38"/>
</a>
</g>
</g>
<!-- Node19&#45;&gt;Node12 -->
<g id="edge26_Node000019_Node000012" class="edge">
<title>Node19&#45;&gt;Node12</title>
<g id="a_edge26_Node000019_Node000012"><a xlink:title=" ">
<path fill="none" stroke="#63b8ff" d="M239.47,-195.31C233.59,-197.31 227.62,-199.41 222,-201.5 198.67,-210.16 172.4,-221.18 154.39,-228.93"/>
<polygon fill="#63b8ff" stroke="#63b8ff" points="240.84,-198.54 249.22,-192.05 238.62,-191.9 240.84,-198.54"/>
</a>
</g>
</g>
<!-- Node21 -->
<g id="Node000021" class="node">
<title>Node21</title>
<g id="a_Node000021"><a xlink:href="pantr-driver_8cpp.html#acc9e603bc87299f28c5faa02034e9387" target="_top" xlink:title=" ">
<polygon fill="white" stroke="#666666" points="334.5,-144 226.5,-144 226.5,-125 334.5,-125 334.5,-144"/>
<text text-anchor="middle" x="280.5" y="-132" font-family="Helvetica,sans-Serif" font-size="10.00">make_pantr_driver</text>
</a>
</g>
</g>
<!-- Node20&#45;&gt;Node21 -->
<g id="edge28_Node000020_Node000021" class="edge">
<title>Node20&#45;&gt;Node21</title>
<g id="a_edge28_Node000020_Node000021"><a xlink:title=" ">
<path fill="none" stroke="#63b8ff" d="M365.53,-129.85C355.04,-130.43 344.48,-131.01 334.56,-131.56"/>
<polygon fill="#63b8ff" stroke="#63b8ff" points="365.77,-133.34 375.56,-129.29 365.38,-126.35 365.77,-133.34"/>
</a>
</g>
</g>
<!-- Node21&#45;&gt;Node12 -->
<g id="edge29_Node000021_Node000012" class="edge">
<title>Node21&#45;&gt;Node12</title>
<g id="a_edge29_Node000021_Node000012"><a xlink:title=" ">
<path fill="none" stroke="#63b8ff" d="M249.58,-148.6C240.49,-153.28 230.63,-158.77 222,-164.5 191.26,-184.9 158.73,-213.95 142.68,-228.86"/>
<polygon fill="#63b8ff" stroke="#63b8ff" points="251.31,-151.65 258.68,-144.05 248.17,-145.39 251.31,-151.65"/>
</a>
</g>
</g>
<!-- Node22&#45;&gt;Node15 -->
<g id="edge32_Node000022_Node000015" class="edge">
<title>Node22&#45;&gt;Node15</title>
<g id="a_edge32_Node000022_Node000015"><a xlink:title=" ">
<path fill="none" stroke="#63b8ff" d="M540.65,-250.87C531.61,-251.03 522.48,-251.19 513.62,-251.34"/>
<polygon fill="#63b8ff" stroke="#63b8ff" points="540.84,-254.37 550.78,-250.7 540.72,-247.37 540.84,-254.37"/>
</a>
</g>
</g>
<!-- Node23&#45;&gt;Node17 -->
<g id="edge34_Node000023_Node000017" class="edge">
<title>Node23&#45;&gt;Node17</title>
<g id="a_edge34_Node000023_Node000017"><a xlink:title=" ">
<path fill="none" stroke="#63b8ff" d="M582.41,-138.38C560.35,-145.84 532.07,-155.4 506.98,-163.88"/>
<polygon fill="#63b8ff" stroke="#63b8ff" points="583.72,-141.63 592.08,-135.11 581.48,-135 583.72,-141.63"/>
</a>
</g>
</g>
<!-- Node23&#45;&gt;Node20 -->
<g id="edge35_Node000023_Node000020" class="edge">
<title>Node23&#45;&gt;Node20</title>
<g id="a_edge35_Node000023_Node000020"><a xlink:title=" ">
<path fill="none" stroke="#63b8ff" d="M556.38,-125.5C542.61,-125.5 528.02,-125.5 514.1,-125.5"/>
<polygon fill="#63b8ff" stroke="#63b8ff" points="556.72,-129 566.72,-125.5 556.72,-122 556.72,-129"/>
</a>
</g>
</g>
</g>
</svg>
