<?xml version="1.0" encoding="UTF-8" standalone="no"?>
<!DOCTYPE svg PUBLIC "-//W3C//DTD SVG 1.1//EN"
 "http://www.w3.org/Graphics/SVG/1.1/DTD/svg11.dtd">
<!-- Generated by graphviz version 2.43.0 (0)
 -->
<!-- Title: src/alpaqa/src/inner/directions/panoc/structured&#45;newton.cpp Pages: 1 -->
<!--zoomable 423 -->

<svg id="main" version="1.1" xmlns="http://www.w3.org/2000/svg" xmlns:xlink="http://www.w3.org/1999/xlink" xml:space="preserve" onload="init(evt)">

<style type="text/css"><![CDATA[
.node, .edge {opacity: 0.7;}
.node.selected, .edge.selected {opacity: 1;}
.edge:hover path { stroke: red; }
.edge:hover polygon { stroke: red; fill: red; }
]]></style>

<defs>
  <circle id="rim" cx="0" cy="0" r="7"/>
  <circle id="rim2" cx="0" cy="0" r="3.5"/>
  <g id="zoomPlus">
    <use xlink:href="#rim" fill="#404040"><set attributeName="fill" to="#808080" begin="zoomplus.mouseover" end="zoomplus.mouseout"/></use>
    <path d="M-4,0h8M0,-4v8" fill="none" stroke="white" stroke-width="1.5" pointer-events="none"/>
  </g>
  <g id="zoomMin">
    <use xlink:href="#rim" fill="#404040"><set attributeName="fill" to="#808080" begin="zoomminus.mouseover" end="zoomminus.mouseout"/></use>
    <path d="M-4,0h8" fill="none" stroke="white" stroke-width="1.5" pointer-events="none"/>
  </g>
  <g id="arrowUp" transform="translate(30 24)">
    <use xlink:href="#rim"/>
    <path pointer-events="none" fill="none" stroke="white" stroke-width="1.5" d="M0,-3.0v7 M-2.5,-0.5L0,-3.0L2.5,-0.5"/>
  </g>
  <g id="arrowRight" transform="rotate(90) translate(36 -43)">
    <use xlink:href="#rim"/>
    <path pointer-events="none" fill="none" stroke="white" stroke-width="1.5" d="M0,-3.0v7 M-2.5,-0.5L0,-3.0L2.5,-0.5"/>
  </g>
  <g id="arrowDown" transform="rotate(180) translate(-30 -48)">
    <use xlink:href="#rim"/>
    <path pointer-events="none" fill="none" stroke="white" stroke-width="1.5" d="M0,-3.0v7 M-2.5,-0.5L0,-3.0L2.5,-0.5"/>
  </g>
  <g id="arrowLeft" transform="rotate(270) translate(-36 17)">
    <use xlink:href="#rim"/>
    <path pointer-events="none" fill="none" stroke="white" stroke-width="1.5" d="M0,-3.0v7 M-2.5,-0.5L0,-3.0L2.5,-0.5"/>
  </g>
  <g id="resetDef">
    <use xlink:href="#rim2" fill="#404040"><set attributeName="fill" to="#808080" begin="reset.mouseover" end="reset.mouseout"/></use>
  </g>
</defs>
<script type="application/ecmascript">
var viewWidth = 1972;
var viewHeight = 423;
var sectionId = 'dynsection-0';
</script>
<script type="application/ecmascript" xlink:href="svg.min.js"/>
<svg id="graph" class="graph">
<g id="viewport">
<title>src/alpaqa/src/inner/directions/panoc/structured&#45;newton.cpp</title>
<!-- Node1 -->
<g id="Node000001" class="node">
<title>Node1</title>
<g id="a_Node000001"><a xlink:title=" ">
<polygon fill="#999999" stroke="#666666" points="1452,-415 1300,-415 1300,-374 1452,-374 1452,-415"/>
<text text-anchor="start" x="1308" y="-403" font-family="Helvetica,sans-Serif" font-size="10.00">src/alpaqa/src/inner</text>
<text text-anchor="start" x="1308" y="-392" font-family="Helvetica,sans-Serif" font-size="10.00">/directions/panoc/structured</text>
<text text-anchor="middle" x="1376" y="-381" font-family="Helvetica,sans-Serif" font-size="10.00">&#45;newton.cpp</text>
</a>
</g>
</g>
<!-- Node2 -->
<g id="Node000002" class="node">
<title>Node2</title>
<g id="a_Node000002"><a xlink:href="structured-newton_8hpp.html" target="_top" xlink:title=" ">
<polygon fill="white" stroke="#666666" points="1457,-338 1295,-338 1295,-308 1457,-308 1457,-338"/>
<text text-anchor="start" x="1303" y="-326" font-family="Helvetica,sans-Serif" font-size="10.00">alpaqa/inner/directions</text>
<text text-anchor="middle" x="1376" y="-315" font-family="Helvetica,sans-Serif" font-size="10.00">/panoc/structured&#45;newton.hpp</text>
</a>
</g>
</g>
<!-- Node1&#45;&gt;Node2 -->
<g id="edge1_Node000001_Node000002" class="edge">
<title>Node1&#45;&gt;Node2</title>
<g id="a_edge1_Node000001_Node000002"><a xlink:title=" ">
<path fill="none" stroke="#63b8ff" d="M1376,-373.77C1376,-365.85 1376,-356.63 1376,-348.3"/>
<polygon fill="#63b8ff" stroke="#63b8ff" points="1379.5,-348.04 1376,-338.04 1372.5,-348.04 1379.5,-348.04"/>
</a>
</g>
</g>
<!-- Node3 -->
<g id="Node000003" class="node">
<title>Node3</title>
<g id="a_Node000003"><a xlink:href="config_8hpp.html" target="_top" xlink:title=" ">
<polygon fill="white" stroke="#666666" points="604.5,-85 469.5,-85 469.5,-66 604.5,-66 604.5,-85"/>
<text text-anchor="middle" x="537" y="-73" font-family="Helvetica,sans-Serif" font-size="10.00">alpaqa/config/config.hpp</text>
</a>
</g>
</g>
<!-- Node2&#45;&gt;Node3 -->
<g id="edge2_Node000002_Node000003" class="edge">
<title>Node2&#45;&gt;Node3</title>
<g id="a_edge2_Node000002_Node000003"><a xlink:title=" ">
<path fill="none" stroke="#63b8ff" d="M1294.8,-320.71C1081.27,-316.08 509.24,-295.44 346,-206 305.67,-183.9 257.47,-156.25 287,-121 308.7,-95.1 394.06,-84.26 459.05,-79.73"/>
<polygon fill="#63b8ff" stroke="#63b8ff" points="459.55,-83.21 469.3,-79.06 459.09,-76.22 459.55,-83.21"/>
</a>
</g>
</g>
<!-- Node7 -->
<g id="Node000007" class="node">
<title>Node7</title>
<g id="a_Node000007"><a xlink:title=" ">
<polygon fill="#e0e0e0" stroke="#999999" points="117,-24.5 73,-24.5 73,-5.5 117,-5.5 117,-24.5"/>
<text text-anchor="middle" x="95" y="-12.5" font-family="Helvetica,sans-Serif" font-size="10.00">limits</text>
</a>
</g>
</g>
<!-- Node2&#45;&gt;Node7 -->
<g id="edge50_Node000002_Node000007" class="edge">
<title>Node2&#45;&gt;Node7</title>
<g id="a_edge50_Node000002_Node000007"><a xlink:title=" ">
<path fill="none" stroke="#63b8ff" d="M1294.75,-322.21C1028.64,-322.42 193.95,-319.28 83,-272 35.87,-251.92 0,-243.23 0,-192 0,-192 0,-192 0,-129.5 0,-85.21 43.06,-49.11 71.2,-30.25"/>
<polygon fill="#63b8ff" stroke="#63b8ff" points="73.23,-33.1 79.74,-24.74 69.44,-27.22 73.23,-33.1"/>
</a>
</g>
</g>
<!-- Node10 -->
<g id="Node000010" class="node">
<title>Node10</title>
<g id="a_Node000010"><a xlink:href="export_8hpp.html" target="_top" xlink:title=" ">
<polygon fill="white" stroke="#666666" points="139.5,-140 34.5,-140 34.5,-121 139.5,-121 139.5,-140"/>
<text text-anchor="middle" x="87" y="-128" font-family="Helvetica,sans-Serif" font-size="10.00">alpaqa/export.hpp</text>
</a>
</g>
</g>
<!-- Node2&#45;&gt;Node10 -->
<g id="edge9_Node000002_Node000010" class="edge">
<title>Node2&#45;&gt;Node10</title>
<g id="a_edge9_Node000002_Node000010"><a xlink:title=" ">
<path fill="none" stroke="#63b8ff" d="M1294.81,-321.19C1039.67,-318.29 264.53,-306.7 157,-272 106.32,-255.64 82.24,-252.89 57,-206 46.73,-186.91 60,-163.53 72.01,-148.11"/>
<polygon fill="#63b8ff" stroke="#63b8ff" points="75.02,-149.96 78.74,-140.04 69.64,-145.47 75.02,-149.96"/>
</a>
</g>
</g>
<!-- Node12 -->
<g id="Node000012" class="node">
<title>Node12</title>
<g id="a_Node000012"><a xlink:href="panoc-direction-update_8hpp.html" target="_top" xlink:title=" ">
<polygon fill="white" stroke="#666666" points="915,-272 761,-272 761,-242 915,-242 915,-272"/>
<text text-anchor="start" x="769" y="-260" font-family="Helvetica,sans-Serif" font-size="10.00">alpaqa/inner/directions</text>
<text text-anchor="middle" x="838" y="-249" font-family="Helvetica,sans-Serif" font-size="10.00">/panoc&#45;direction&#45;update.hpp</text>
</a>
</g>
</g>
<!-- Node2&#45;&gt;Node12 -->
<g id="edge11_Node000002_Node000012" class="edge">
<title>Node2&#45;&gt;Node12</title>
<g id="a_edge11_Node000002_Node000012"><a xlink:title=" ">
<path fill="none" stroke="#63b8ff" d="M1294.87,-312.35C1195.44,-300.52 1027.61,-280.56 925.4,-268.4"/>
<polygon fill="#63b8ff" stroke="#63b8ff" points="925.76,-264.92 915.42,-267.21 924.93,-271.87 925.76,-264.92"/>
</a>
</g>
</g>
<!-- Node13 -->
<g id="Node000013" class="node">
<title>Node13</title>
<g id="a_Node000013"><a xlink:href="type-erased-problem_8hpp.html" target="_top" xlink:title=" ">
<polygon fill="white" stroke="#666666" points="897.5,-206 778.5,-206 778.5,-176 897.5,-176 897.5,-206"/>
<text text-anchor="start" x="786.5" y="-194" font-family="Helvetica,sans-Serif" font-size="10.00">alpaqa/problem/type</text>
<text text-anchor="middle" x="838" y="-183" font-family="Helvetica,sans-Serif" font-size="10.00">&#45;erased&#45;problem.hpp</text>
</a>
</g>
</g>
<!-- Node2&#45;&gt;Node13 -->
<g id="edge36_Node000002_Node000013" class="edge">
<title>Node2&#45;&gt;Node13</title>
<g id="a_edge36_Node000002_Node000013"><a xlink:title=" ">
<path fill="none" stroke="#63b8ff" d="M1317.91,-307.96C1217.76,-283.76 1013.07,-234.3 906.27,-208.5"/>
<polygon fill="#63b8ff" stroke="#63b8ff" points="906.79,-205.02 896.25,-206.08 905.15,-211.83 906.79,-205.02"/>
</a>
</g>
</g>
<!-- Node16 -->
<g id="Node000016" class="node">
<title>Node16</title>
<g id="a_Node000016"><a xlink:href="sparsity_8hpp.html" target="_top" xlink:title=" ">
<polygon fill="white" stroke="#666666" points="1453.5,-140 1298.5,-140 1298.5,-121 1453.5,-121 1453.5,-140"/>
<text text-anchor="middle" x="1376" y="-128" font-family="Helvetica,sans-Serif" font-size="10.00">alpaqa/problem/sparsity.hpp</text>
</a>
</g>
</g>
<!-- Node2&#45;&gt;Node16 -->
<g id="edge35_Node000002_Node000016" class="edge">
<title>Node2&#45;&gt;Node16</title>
<g id="a_edge35_Node000002_Node000016"><a xlink:title=" ">
<path fill="none" stroke="#63b8ff" d="M1376,-307.99C1376,-274.35 1376,-188.97 1376,-150.64"/>
<polygon fill="#63b8ff" stroke="#63b8ff" points="1379.5,-150.36 1376,-140.36 1372.5,-150.36 1379.5,-150.36"/>
</a>
</g>
</g>
<!-- Node18 -->
<g id="Node000018" class="node">
<title>Node18</title>
<g id="a_Node000018"><a xlink:href="alloc-check_8hpp.html" target="_top" xlink:title=" ">
<polygon fill="white" stroke="#666666" points="1658,-140 1510,-140 1510,-121 1658,-121 1658,-140"/>
<text text-anchor="middle" x="1584" y="-128" font-family="Helvetica,sans-Serif" font-size="10.00">alpaqa/util/alloc&#45;check.hpp</text>
</a>
</g>
</g>
<!-- Node2&#45;&gt;Node18 -->
<g id="edge37_Node000002_Node000018" class="edge">
<title>Node2&#45;&gt;Node18</title>
<g id="a_edge37_Node000002_Node000018"><a xlink:title=" ">
<path fill="none" stroke="#63b8ff" d="M1401.69,-307.9C1416.08,-299.03 1433.58,-286.53 1446,-272 1476.99,-235.73 1460.19,-209.66 1494,-176 1508.59,-161.47 1528.88,-150.88 1546.5,-143.68"/>
<polygon fill="#63b8ff" stroke="#63b8ff" points="1547.89,-146.89 1555.96,-140.03 1545.37,-140.36 1547.89,-146.89"/>
</a>
</g>
</g>
<!-- Node20 -->
<g id="Node000020" class="node">
<title>Node20</title>
<g id="a_Node000020"><a xlink:title=" ">
<polygon fill="#e0e0e0" stroke="#999999" points="1112,-85 1056,-85 1056,-66 1112,-66 1112,-85"/>
<text text-anchor="middle" x="1084" y="-73" font-family="Helvetica,sans-Serif" font-size="10.00">optional</text>
</a>
</g>
</g>
<!-- Node2&#45;&gt;Node20 -->
<g id="edge51_Node000002_Node000020" class="edge">
<title>Node2&#45;&gt;Node20</title>
<g id="a_edge51_Node000002_Node000020"><a xlink:title=" ">
<path fill="none" stroke="#63b8ff" d="M1371.42,-307.75C1358.79,-270.82 1319.82,-171.34 1252,-121 1213.74,-92.6 1158.76,-82.31 1122.24,-78.59"/>
<polygon fill="#63b8ff" stroke="#63b8ff" points="1122.27,-75.08 1112,-77.67 1121.65,-82.05 1122.27,-75.08"/>
</a>
</g>
</g>
<!-- Node21 -->
<g id="Node000021" class="node">
<title>Node21</title>
<g id="a_Node000021"><a xlink:title=" ">
<polygon fill="#e0e0e0" stroke="#999999" points="1254.5,-85 1189.5,-85 1189.5,-66 1254.5,-66 1254.5,-85"/>
<text text-anchor="middle" x="1222" y="-73" font-family="Helvetica,sans-Serif" font-size="10.00">stdexcept</text>
</a>
</g>
</g>
<!-- Node2&#45;&gt;Node21 -->
<g id="edge52_Node000002_Node000021" class="edge">
<title>Node2&#45;&gt;Node21</title>
<g id="a_edge52_Node000002_Node000021"><a xlink:title=" ">
<path fill="none" stroke="#63b8ff" d="M1385.89,-307.84C1413.64,-267.28 1488.54,-151.69 1463,-121 1456.67,-113.4 1332.38,-93.36 1264.83,-82.96"/>
<polygon fill="#63b8ff" stroke="#63b8ff" points="1265.32,-79.5 1254.9,-81.44 1264.26,-86.42 1265.32,-79.5"/>
</a>
</g>
</g>
<!-- Node27 -->
<g id="Node000027" class="node">
<title>Node27</title>
<g id="a_Node000027"><a xlink:href="panoc-helpers_8hpp.html" target="_top" xlink:title=" ">
<polygon fill="white" stroke="#666666" points="184,-206 66,-206 66,-176 184,-176 184,-206"/>
<text text-anchor="start" x="74" y="-194" font-family="Helvetica,sans-Serif" font-size="10.00">alpaqa/inner/internal</text>
<text text-anchor="middle" x="125" y="-183" font-family="Helvetica,sans-Serif" font-size="10.00">/panoc&#45;helpers.hpp</text>
</a>
</g>
</g>
<!-- Node2&#45;&gt;Node27 -->
<g id="edge33_Node000002_Node000027" class="edge">
<title>Node2&#45;&gt;Node27</title>
<g id="a_edge33_Node000002_Node000027"><a xlink:title=" ">
<path fill="none" stroke="#63b8ff" d="M1294.94,-322.14C1044.92,-322.09 296.65,-318.06 198,-272 171.97,-259.85 151,-233.7 138.33,-214.6"/>
<polygon fill="#63b8ff" stroke="#63b8ff" points="141.27,-212.69 132.95,-206.13 135.36,-216.45 141.27,-212.69"/>
</a>
</g>
</g>
<!-- Node28 -->
<g id="Node000028" class="node">
<title>Node28</title>
<g id="a_Node000028"><a xlink:href="index-set_8hpp.html" target="_top" xlink:title=" ">
<polygon fill="white" stroke="#666666" points="1814,-140 1676,-140 1676,-121 1814,-121 1814,-140"/>
<text text-anchor="middle" x="1745" y="-128" font-family="Helvetica,sans-Serif" font-size="10.00">alpaqa/util/index&#45;set.hpp</text>
</a>
</g>
</g>
<!-- Node2&#45;&gt;Node28 -->
<g id="edge38_Node000002_Node000028" class="edge">
<title>Node2&#45;&gt;Node28</title>
<g id="a_edge38_Node000002_Node000028"><a xlink:title=" ">
<path fill="none" stroke="#63b8ff" d="M1411.51,-307.94C1429.84,-299.46 1451.72,-287.32 1468,-272 1504.64,-237.52 1486.68,-204.71 1528,-176 1550.18,-160.59 1613.34,-148.69 1665.83,-141.1"/>
<polygon fill="#63b8ff" stroke="#63b8ff" points="1666.43,-144.55 1675.84,-139.68 1665.45,-137.62 1666.43,-144.55"/>
</a>
</g>
</g>
<!-- Node31 -->
<g id="Node000031" class="node">
<title>Node31</title>
<g id="a_Node000031"><a xlink:href="print_8hpp.html" target="_top" xlink:title=" ">
<polygon fill="white" stroke="#666666" points="1651.5,-266.5 1536.5,-266.5 1536.5,-247.5 1651.5,-247.5 1651.5,-266.5"/>
<text text-anchor="middle" x="1594" y="-254.5" font-family="Helvetica,sans-Serif" font-size="10.00">alpaqa/util/print.hpp</text>
</a>
</g>
</g>
<!-- Node2&#45;&gt;Node31 -->
<g id="edge45_Node000002_Node000031" class="edge">
<title>Node2&#45;&gt;Node31</title>
<g id="a_edge45_Node000002_Node000031"><a xlink:title=" ">
<path fill="none" stroke="#63b8ff" d="M1423.84,-307.95C1463.25,-296.38 1518.43,-280.18 1555.15,-269.41"/>
<polygon fill="#63b8ff" stroke="#63b8ff" points="1556.38,-272.69 1564.99,-266.52 1554.41,-265.98 1556.38,-272.69"/>
</a>
</g>
</g>
<!-- Node34 -->
<g id="Node000034" class="node">
<title>Node34</title>
<g id="a_Node000034"><a xlink:title=" ">
<polygon fill="#e0e0e0" stroke="#999999" points="1730,-266.5 1670,-266.5 1670,-247.5 1730,-247.5 1730,-266.5"/>
<text text-anchor="middle" x="1700" y="-254.5" font-family="Helvetica,sans-Serif" font-size="10.00">iostream</text>
</a>
</g>
</g>
<!-- Node2&#45;&gt;Node34 -->
<g id="edge49_Node000002_Node000034" class="edge">
<title>Node2&#45;&gt;Node34</title>
<g id="a_edge49_Node000002_Node000034"><a xlink:title=" ">
<path fill="none" stroke="#63b8ff" d="M1457.26,-311.52C1514.72,-303.19 1593.26,-289.96 1661,-272 1663.49,-271.34 1666.06,-270.59 1668.62,-269.79"/>
<polygon fill="#63b8ff" stroke="#63b8ff" points="1669.98,-273.02 1678.34,-266.52 1667.75,-266.38 1669.98,-273.02"/>
</a>
</g>
</g>
<!-- Node35 -->
<g id="Node000035" class="node">
<title>Node35</title>
<g id="a_Node000035"><a xlink:title=" ">
<polygon fill="#e0e0e0" stroke="#999999" points="1839.5,-266.5 1748.5,-266.5 1748.5,-247.5 1839.5,-247.5 1839.5,-266.5"/>
<text text-anchor="middle" x="1794" y="-254.5" font-family="Helvetica,sans-Serif" font-size="10.00">Eigen/Cholesky</text>
</a>
</g>
</g>
<!-- Node2&#45;&gt;Node35 -->
<g id="edge53_Node000002_Node000035" class="edge">
<title>Node2&#45;&gt;Node35</title>
<g id="a_edge53_Node000002_Node000035"><a xlink:title=" ">
<path fill="none" stroke="#63b8ff" d="M1457.17,-313.46C1531.02,-305.07 1642.85,-290.8 1739,-272 1743.65,-271.09 1748.5,-270.03 1753.3,-268.9"/>
<polygon fill="#63b8ff" stroke="#63b8ff" points="1754.13,-272.3 1763.01,-266.54 1752.47,-265.5 1754.13,-272.3"/>
</a>
</g>
</g>
<!-- Node36 -->
<g id="Node000036" class="node">
<title>Node36</title>
<g id="a_Node000036"><a xlink:title=" ">
<polygon fill="#e0e0e0" stroke="#999999" points="1964,-266.5 1858,-266.5 1858,-247.5 1964,-247.5 1964,-266.5"/>
<text text-anchor="middle" x="1911" y="-254.5" font-family="Helvetica,sans-Serif" font-size="10.00">Eigen/Eigenvalues</text>
</a>
</g>
</g>
<!-- Node2&#45;&gt;Node36 -->
<g id="edge54_Node000002_Node000036" class="edge">
<title>Node2&#45;&gt;Node36</title>
<g id="a_edge54_Node000002_Node000036"><a xlink:title=" ">
<path fill="none" stroke="#63b8ff" d="M1457.15,-316.32C1551.68,-309.03 1712.33,-294.57 1849,-272 1854.72,-271.06 1860.7,-269.91 1866.6,-268.68"/>
<polygon fill="#63b8ff" stroke="#63b8ff" points="1867.35,-272.1 1876.38,-266.57 1865.87,-265.26 1867.35,-272.1"/>
</a>
</g>
</g>
<!-- Node4 -->
<g id="Node000004" class="node">
<title>Node4</title>
<g id="a_Node000004"><a xlink:title=" ">
<polygon fill="#e0e0e0" stroke="#999999" points="749,-30 585,-30 585,0 749,0 749,-30"/>
<text text-anchor="start" x="593" y="-18" font-family="Helvetica,sans-Serif" font-size="10.00">guanaqo/quadmath/quadmath</text>
<text text-anchor="middle" x="667" y="-7" font-family="Helvetica,sans-Serif" font-size="10.00">&#45;print.hpp</text>
</a>
</g>
</g>
<!-- Node3&#45;&gt;Node4 -->
<g id="edge3_Node000003_Node000004" class="edge">
<title>Node3&#45;&gt;Node4</title>
<g id="a_edge3_Node000003_Node000004"><a xlink:title=" ">
<path fill="none" stroke="#63b8ff" d="M555.9,-65.99C574.29,-57.72 602.8,-44.89 626.34,-34.3"/>
<polygon fill="#63b8ff" stroke="#63b8ff" points="628.06,-37.36 635.75,-30.06 625.19,-30.98 628.06,-37.36"/>
</a>
</g>
</g>
<!-- Node5 -->
<g id="Node000005" class="node">
<title>Node5</title>
<g id="a_Node000005"><a xlink:title=" ">
<polygon fill="#e0e0e0" stroke="#999999" points="489.5,-24.5 304.5,-24.5 304.5,-5.5 489.5,-5.5 489.5,-24.5"/>
<text text-anchor="middle" x="397" y="-12.5" font-family="Helvetica,sans-Serif" font-size="10.00">guanaqo/quadmath/quadmath.hpp</text>
</a>
</g>
</g>
<!-- Node3&#45;&gt;Node5 -->
<g id="edge4_Node000003_Node000005" class="edge">
<title>Node3&#45;&gt;Node5</title>
<g id="a_edge4_Node000003_Node000005"><a xlink:title=" ">
<path fill="none" stroke="#63b8ff" d="M516.64,-65.99C493,-56.12 453.8,-39.73 426.75,-28.43"/>
<polygon fill="#63b8ff" stroke="#63b8ff" points="427.96,-25.14 417.38,-24.52 425.26,-31.6 427.96,-25.14"/>
</a>
</g>
</g>
<!-- Node6 -->
<g id="Node000006" class="node">
<title>Node6</title>
<g id="a_Node000006"><a xlink:title=" ">
<polygon fill="#e0e0e0" stroke="#999999" points="566.5,-24.5 507.5,-24.5 507.5,-5.5 566.5,-5.5 566.5,-24.5"/>
<text text-anchor="middle" x="537" y="-12.5" font-family="Helvetica,sans-Serif" font-size="10.00">complex</text>
</a>
</g>
</g>
<!-- Node3&#45;&gt;Node6 -->
<g id="edge5_Node000003_Node000006" class="edge">
<title>Node3&#45;&gt;Node6</title>
<g id="a_edge5_Node000003_Node000006"><a xlink:title=" ">
<path fill="none" stroke="#63b8ff" d="M537,-65.87C537,-57.75 537,-45.31 537,-34.89"/>
<polygon fill="#63b8ff" stroke="#63b8ff" points="540.5,-34.67 537,-24.67 533.5,-34.67 540.5,-34.67"/>
</a>
</g>
</g>
<!-- Node3&#45;&gt;Node7 -->
<g id="edge6_Node000003_Node000007" class="edge">
<title>Node3&#45;&gt;Node7</title>
<g id="a_edge6_Node000003_Node000007"><a xlink:title=" ">
<path fill="none" stroke="#63b8ff" d="M472.73,-65.99C376.85,-53.3 199.89,-29.88 127.33,-20.28"/>
<polygon fill="#63b8ff" stroke="#63b8ff" points="127.38,-16.75 117,-18.91 126.46,-23.69 127.38,-16.75"/>
</a>
</g>
</g>
<!-- Node8 -->
<g id="Node000008" class="node">
<title>Node8</title>
<g id="a_Node000008"><a xlink:title=" ">
<polygon fill="#e0e0e0" stroke="#999999" points="920.5,-24.5 851.5,-24.5 851.5,-5.5 920.5,-5.5 920.5,-24.5"/>
<text text-anchor="middle" x="886" y="-12.5" font-family="Helvetica,sans-Serif" font-size="10.00">type_traits</text>
</a>
</g>
</g>
<!-- Node3&#45;&gt;Node8 -->
<g id="edge7_Node000003_Node000008" class="edge">
<title>Node3&#45;&gt;Node8</title>
<g id="a_edge7_Node000003_Node000008"><a xlink:title=" ">
<path fill="none" stroke="#63b8ff" d="M587.75,-65.99C655.94,-54.56 776.08,-34.43 841.12,-23.52"/>
<polygon fill="#63b8ff" stroke="#63b8ff" points="841.79,-26.96 851.07,-21.85 840.63,-20.06 841.79,-26.96"/>
</a>
</g>
</g>
<!-- Node9 -->
<g id="Node000009" class="node">
<title>Node9</title>
<g id="a_Node000009"><a xlink:title=" ">
<polygon fill="#e0e0e0" stroke="#999999" points="1658.5,-24.5 1589.5,-24.5 1589.5,-5.5 1658.5,-5.5 1658.5,-24.5"/>
<text text-anchor="middle" x="1624" y="-12.5" font-family="Helvetica,sans-Serif" font-size="10.00">Eigen/Core</text>
</a>
</g>
</g>
<!-- Node3&#45;&gt;Node9 -->
<g id="edge8_Node000003_Node000009" class="edge">
<title>Node3&#45;&gt;Node9</title>
<g id="a_edge8_Node000003_Node000009"><a xlink:title=" ">
<path fill="none" stroke="#63b8ff" d="M604.59,-70.86C807.89,-59.92 1410.23,-27.5 1579.38,-18.4"/>
<polygon fill="#63b8ff" stroke="#63b8ff" points="1579.63,-21.89 1589.42,-17.86 1579.25,-14.9 1579.63,-21.89"/>
</a>
</g>
</g>
<!-- Node11 -->
<g id="Node000011" class="node">
<title>Node11</title>
<g id="a_Node000011"><a xlink:title=" ">
<polygon fill="#e0e0e0" stroke="#999999" points="133.5,-85 40.5,-85 40.5,-66 133.5,-66 133.5,-85"/>
<text text-anchor="middle" x="87" y="-73" font-family="Helvetica,sans-Serif" font-size="10.00">alpaqa/export.h</text>
</a>
</g>
</g>
<!-- Node10&#45;&gt;Node11 -->
<g id="edge10_Node000010_Node000011" class="edge">
<title>Node10&#45;&gt;Node11</title>
<g id="a_edge10_Node000010_Node000011"><a xlink:title=" ">
<path fill="none" stroke="#63b8ff" d="M87,-120.75C87,-113.8 87,-103.85 87,-95.13"/>
<polygon fill="#63b8ff" stroke="#63b8ff" points="90.5,-95.09 87,-85.09 83.5,-95.09 90.5,-95.09"/>
</a>
</g>
</g>
<!-- Node12&#45;&gt;Node3 -->
<g id="edge12_Node000012_Node000003" class="edge">
<title>Node12&#45;&gt;Node3</title>
<g id="a_edge12_Node000012_Node000003"><a xlink:title=" ">
<path fill="none" stroke="#63b8ff" d="M760.76,-251.08C625.26,-240.67 353.59,-211.22 296,-140 290.69,-133.43 290.6,-127.49 296,-121 316.56,-96.29 396.8,-85.25 459.11,-80.35"/>
<polygon fill="#63b8ff" stroke="#63b8ff" points="459.62,-83.82 469.34,-79.58 459.1,-76.84 459.62,-83.82"/>
</a>
</g>
</g>
<!-- Node12&#45;&gt;Node13 -->
<g id="edge13_Node000012_Node000013" class="edge">
<title>Node12&#45;&gt;Node13</title>
<g id="a_edge13_Node000012_Node000013"><a xlink:title=" ">
<path fill="none" stroke="#63b8ff" d="M838,-241.8C838,-234.34 838,-224.99 838,-216.41"/>
<polygon fill="#63b8ff" stroke="#63b8ff" points="841.5,-216.16 838,-206.16 834.5,-216.16 841.5,-216.16"/>
</a>
</g>
</g>
<!-- Node13&#45;&gt;Node3 -->
<g id="edge14_Node000013_Node000003" class="edge">
<title>Node13&#45;&gt;Node3</title>
<g id="a_edge14_Node000013_Node000003"><a xlink:title=" ">
<path fill="none" stroke="#63b8ff" d="M778.13,-188.83C645.55,-185.61 336.37,-174.45 305,-140 299.31,-133.76 299.62,-127.51 305,-121 324.42,-97.5 399.51,-86.29 459.07,-81.02"/>
<polygon fill="#63b8ff" stroke="#63b8ff" points="459.57,-84.49 469.24,-80.16 458.98,-77.51 459.57,-84.49"/>
</a>
</g>
</g>
<!-- Node13&#45;&gt;Node8 -->
<g id="edge31_Node000013_Node000008" class="edge">
<title>Node13&#45;&gt;Node8</title>
<g id="a_edge31_Node000013_Node000008"><a xlink:title=" ">
<path fill="none" stroke="#63b8ff" d="M848.15,-175.83C854.56,-166.18 862.46,-152.87 867,-140 879.62,-104.18 883.87,-59.62 885.29,-34.85"/>
<polygon fill="#63b8ff" stroke="#63b8ff" points="888.79,-34.84 885.77,-24.69 881.8,-34.51 888.79,-34.84"/>
</a>
</g>
</g>
<!-- Node13&#45;&gt;Node10 -->
<g id="edge15_Node000013_Node000010" class="edge">
<title>Node13&#45;&gt;Node10</title>
<g id="a_edge15_Node000013_Node000010"><a xlink:title=" ">
<path fill="none" stroke="#63b8ff" d="M778.44,-185.36C639.17,-174.51 293.2,-147.56 150.3,-136.43"/>
<polygon fill="#63b8ff" stroke="#63b8ff" points="150.2,-132.91 139.96,-135.63 149.66,-139.89 150.2,-132.91"/>
</a>
</g>
</g>
<!-- Node14 -->
<g id="Node000014" class="node">
<title>Node14</title>
<g id="a_Node000014"><a xlink:href="box_8hpp.html" target="_top" xlink:title=" ">
<polygon fill="white" stroke="#666666" points="857.5,-140 722.5,-140 722.5,-121 857.5,-121 857.5,-140"/>
<text text-anchor="middle" x="790" y="-128" font-family="Helvetica,sans-Serif" font-size="10.00">alpaqa/problem/box.hpp</text>
</a>
</g>
</g>
<!-- Node13&#45;&gt;Node14 -->
<g id="edge16_Node000013_Node000014" class="edge">
<title>Node13&#45;&gt;Node14</title>
<g id="a_edge16_Node000013_Node000014"><a xlink:title=" ">
<path fill="none" stroke="#63b8ff" d="M826.38,-175.84C819.56,-167.52 810.89,-156.96 803.73,-148.23"/>
<polygon fill="#63b8ff" stroke="#63b8ff" points="806.24,-145.78 797.19,-140.27 800.83,-150.22 806.24,-145.78"/>
</a>
</g>
</g>
<!-- Node13&#45;&gt;Node16 -->
<g id="edge19_Node000013_Node000016" class="edge">
<title>Node13&#45;&gt;Node16</title>
<g id="a_edge19_Node000013_Node000016"><a xlink:title=" ">
<path fill="none" stroke="#63b8ff" d="M897.63,-183.52C992.48,-173.2 1178.2,-153.01 1288.25,-141.04"/>
<polygon fill="#63b8ff" stroke="#63b8ff" points="1288.77,-144.51 1298.33,-139.95 1288.01,-137.55 1288.77,-144.51"/>
</a>
</g>
</g>
<!-- Node13&#45;&gt;Node18 -->
<g id="edge21_Node000013_Node000018" class="edge">
<title>Node13&#45;&gt;Node18</title>
<g id="a_edge21_Node000013_Node000018"><a xlink:title=" ">
<path fill="none" stroke="#63b8ff" d="M897.79,-185.31C1029.94,-174.95 1347.2,-150.07 1499.55,-138.12"/>
<polygon fill="#63b8ff" stroke="#63b8ff" points="1500.09,-141.59 1509.79,-137.32 1499.55,-134.61 1500.09,-141.59"/>
</a>
</g>
</g>
<!-- Node19 -->
<g id="Node000019" class="node">
<title>Node19</title>
<g id="a_Node000019"><a xlink:href="check-dim_8hpp.html" target="_top" xlink:title=" ">
<polygon fill="white" stroke="#666666" points="1057.5,-140 914.5,-140 914.5,-121 1057.5,-121 1057.5,-140"/>
<text text-anchor="middle" x="986" y="-128" font-family="Helvetica,sans-Serif" font-size="10.00">alpaqa/util/check&#45;dim.hpp</text>
</a>
</g>
</g>
<!-- Node13&#45;&gt;Node19 -->
<g id="edge23_Node000013_Node000019" class="edge">
<title>Node13&#45;&gt;Node19</title>
<g id="a_edge23_Node000013_Node000019"><a xlink:title=" ">
<path fill="none" stroke="#63b8ff" d="M873.45,-175.99C898.14,-166.23 930.78,-153.33 954.55,-143.93"/>
<polygon fill="#63b8ff" stroke="#63b8ff" points="956.13,-147.07 964.14,-140.14 953.56,-140.56 956.13,-147.07"/>
</a>
</g>
</g>
<!-- Node23 -->
<g id="Node000023" class="node">
<title>Node23</title>
<g id="a_Node000023"><a xlink:title=" ">
<polygon fill="#e0e0e0" stroke="#999999" points="1242.5,-140 1075.5,-140 1075.5,-121 1242.5,-121 1242.5,-140"/>
<text text-anchor="middle" x="1159" y="-128" font-family="Helvetica,sans-Serif" font-size="10.00">guanaqo/not&#45;implemented.hpp</text>
</a>
</g>
</g>
<!-- Node13&#45;&gt;Node23 -->
<g id="edge28_Node000013_Node000023" class="edge">
<title>Node13&#45;&gt;Node23</title>
<g id="a_edge28_Node000013_Node000023"><a xlink:title=" ">
<path fill="none" stroke="#63b8ff" d="M897.63,-179.13C956.12,-168.47 1044.68,-152.33 1102.19,-141.85"/>
<polygon fill="#63b8ff" stroke="#63b8ff" points="1102.99,-145.27 1112.2,-140.03 1101.73,-138.38 1102.99,-145.27"/>
</a>
</g>
</g>
<!-- Node24 -->
<g id="Node000024" class="node">
<title>Node24</title>
<g id="a_Node000024"><a xlink:title=" ">
<polygon fill="#e0e0e0" stroke="#999999" points="478,-140 314,-140 314,-121 478,-121 478,-140"/>
<text text-anchor="middle" x="396" y="-128" font-family="Helvetica,sans-Serif" font-size="10.00">guanaqo/required&#45;method.hpp</text>
</a>
</g>
</g>
<!-- Node13&#45;&gt;Node24 -->
<g id="edge29_Node000013_Node000024" class="edge">
<title>Node13&#45;&gt;Node24</title>
<g id="a_edge29_Node000013_Node000024"><a xlink:title=" ">
<path fill="none" stroke="#63b8ff" d="M778.39,-182.11C698.6,-171.55 557.11,-152.82 470.42,-141.35"/>
<polygon fill="#63b8ff" stroke="#63b8ff" points="470.76,-137.86 460.39,-140.02 469.84,-144.8 470.76,-137.86"/>
</a>
</g>
</g>
<!-- Node25 -->
<g id="Node000025" class="node">
<title>Node25</title>
<g id="a_Node000025"><a xlink:title=" ">
<polygon fill="#e0e0e0" stroke="#999999" points="641.5,-140 496.5,-140 496.5,-121 641.5,-121 641.5,-140"/>
<text text-anchor="middle" x="569" y="-128" font-family="Helvetica,sans-Serif" font-size="10.00">guanaqo/type&#45;erasure.hpp</text>
</a>
</g>
</g>
<!-- Node13&#45;&gt;Node25 -->
<g id="edge30_Node000013_Node000025" class="edge">
<title>Node13&#45;&gt;Node25</title>
<g id="a_edge30_Node000013_Node000025"><a xlink:title=" ">
<path fill="none" stroke="#63b8ff" d="M778.3,-177.02C730.09,-166.53 663.09,-151.96 617.99,-142.15"/>
<polygon fill="#63b8ff" stroke="#63b8ff" points="618.67,-138.72 608.16,-140.02 617.18,-145.56 618.67,-138.72"/>
</a>
</g>
</g>
<!-- Node26 -->
<g id="Node000026" class="node">
<title>Node26</title>
<g id="a_Node000026"><a xlink:title=" ">
<polygon fill="#e0e0e0" stroke="#999999" points="704.5,-140 659.5,-140 659.5,-121 704.5,-121 704.5,-140"/>
<text text-anchor="middle" x="682" y="-128" font-family="Helvetica,sans-Serif" font-size="10.00">utility</text>
</a>
</g>
</g>
<!-- Node13&#45;&gt;Node26 -->
<g id="edge32_Node000013_Node000026" class="edge">
<title>Node13&#45;&gt;Node26</title>
<g id="a_edge32_Node000013_Node000026"><a xlink:title=" ">
<path fill="none" stroke="#63b8ff" d="M800.63,-175.99C774.21,-166.08 739.17,-152.94 714.03,-143.51"/>
<polygon fill="#63b8ff" stroke="#63b8ff" points="715.17,-140.2 704.58,-139.97 712.72,-146.76 715.17,-140.2"/>
</a>
</g>
</g>
<!-- Node14&#45;&gt;Node3 -->
<g id="edge17_Node000014_Node000003" class="edge">
<title>Node14&#45;&gt;Node3</title>
<g id="a_edge17_Node000014_Node000003"><a xlink:title=" ">
<path fill="none" stroke="#63b8ff" d="M749.35,-120.98C705.5,-111.8 635.58,-97.15 588.05,-87.19"/>
<polygon fill="#63b8ff" stroke="#63b8ff" points="588.47,-83.71 577.97,-85.08 587.04,-90.56 588.47,-83.71"/>
</a>
</g>
</g>
<!-- Node15 -->
<g id="Node000015" class="node">
<title>Node15</title>
<g id="a_Node000015"><a xlink:title=" ">
<polygon fill="#e0e0e0" stroke="#999999" points="842,-85 738,-85 738,-66 842,-66 842,-85"/>
<text text-anchor="middle" x="790" y="-73" font-family="Helvetica,sans-Serif" font-size="10.00">guanaqo/float.hpp</text>
</a>
</g>
</g>
<!-- Node14&#45;&gt;Node15 -->
<g id="edge18_Node000014_Node000015" class="edge">
<title>Node14&#45;&gt;Node15</title>
<g id="a_edge18_Node000014_Node000015"><a xlink:title=" ">
<path fill="none" stroke="#63b8ff" d="M790,-120.75C790,-113.8 790,-103.85 790,-95.13"/>
<polygon fill="#63b8ff" stroke="#63b8ff" points="793.5,-95.09 790,-85.09 786.5,-95.09 793.5,-95.09"/>
</a>
</g>
</g>
<!-- Node17 -->
<g id="Node000017" class="node">
<title>Node17</title>
<g id="a_Node000017"><a xlink:title=" ">
<polygon fill="#e0e0e0" stroke="#999999" points="1451,-85 1301,-85 1301,-66 1451,-66 1451,-85"/>
<text text-anchor="middle" x="1376" y="-73" font-family="Helvetica,sans-Serif" font-size="10.00">guanaqo/linalg/sparsity.hpp</text>
</a>
</g>
</g>
<!-- Node16&#45;&gt;Node17 -->
<g id="edge20_Node000016_Node000017" class="edge">
<title>Node16&#45;&gt;Node17</title>
<g id="a_edge20_Node000016_Node000017"><a xlink:title=" ">
<path fill="none" stroke="#63b8ff" d="M1376,-120.75C1376,-113.8 1376,-103.85 1376,-95.13"/>
<polygon fill="#63b8ff" stroke="#63b8ff" points="1379.5,-95.09 1376,-85.09 1372.5,-95.09 1379.5,-95.09"/>
</a>
</g>
</g>
<!-- Node18&#45;&gt;Node9 -->
<g id="edge22_Node000018_Node000009" class="edge">
<title>Node18&#45;&gt;Node9</title>
<g id="a_edge22_Node000018_Node000009"><a xlink:title=" ">
<path fill="none" stroke="#63b8ff" d="M1584.98,-120.65C1586.55,-108.17 1590.16,-84.83 1597,-66 1601.1,-54.71 1607.41,-42.86 1612.89,-33.52"/>
<polygon fill="#63b8ff" stroke="#63b8ff" points="1615.97,-35.2 1618.19,-24.84 1609.99,-31.56 1615.97,-35.2"/>
</a>
</g>
</g>
<!-- Node19&#45;&gt;Node3 -->
<g id="edge24_Node000019_Node000003" class="edge">
<title>Node19&#45;&gt;Node3</title>
<g id="a_edge24_Node000019_Node000003"><a xlink:title=" ">
<path fill="none" stroke="#63b8ff" d="M914.36,-121.04C832.51,-111.38 699.06,-95.63 614.74,-85.68"/>
<polygon fill="#63b8ff" stroke="#63b8ff" points="615.05,-82.19 604.71,-84.49 614.23,-89.14 615.05,-82.19"/>
</a>
</g>
</g>
<!-- Node19&#45;&gt;Node20 -->
<g id="edge25_Node000019_Node000020" class="edge">
<title>Node19&#45;&gt;Node20</title>
<g id="a_edge25_Node000019_Node000020"><a xlink:title=" ">
<path fill="none" stroke="#63b8ff" d="M1001.75,-120.98C1017.23,-112.61 1041.09,-99.7 1059.14,-89.95"/>
<polygon fill="#63b8ff" stroke="#63b8ff" points="1060.84,-93.01 1067.97,-85.17 1057.51,-86.85 1060.84,-93.01"/>
</a>
</g>
</g>
<!-- Node19&#45;&gt;Node21 -->
<g id="edge26_Node000019_Node000021" class="edge">
<title>Node19&#45;&gt;Node21</title>
<g id="a_edge26_Node000019_Node000021"><a xlink:title=" ">
<path fill="none" stroke="#63b8ff" d="M1023.92,-120.98C1066.47,-111.43 1135.32,-95.97 1179.62,-86.02"/>
<polygon fill="#63b8ff" stroke="#63b8ff" points="1180.5,-89.41 1189.49,-83.8 1178.97,-82.58 1180.5,-89.41"/>
</a>
</g>
</g>
<!-- Node22 -->
<g id="Node000022" class="node">
<title>Node22</title>
<g id="a_Node000022"><a xlink:title=" ">
<polygon fill="#e0e0e0" stroke="#999999" points="1008,-85 964,-85 964,-66 1008,-66 1008,-85"/>
<text text-anchor="middle" x="986" y="-73" font-family="Helvetica,sans-Serif" font-size="10.00">string</text>
</a>
</g>
</g>
<!-- Node19&#45;&gt;Node22 -->
<g id="edge27_Node000019_Node000022" class="edge">
<title>Node19&#45;&gt;Node22</title>
<g id="a_edge27_Node000019_Node000022"><a xlink:title=" ">
<path fill="none" stroke="#63b8ff" d="M986,-120.75C986,-113.8 986,-103.85 986,-95.13"/>
<polygon fill="#63b8ff" stroke="#63b8ff" points="989.5,-95.09 986,-85.09 982.5,-95.09 989.5,-95.09"/>
</a>
</g>
</g>
<!-- Node27&#45;&gt;Node3 -->
<g id="edge34_Node000027_Node000003" class="edge">
<title>Node27&#45;&gt;Node3</title>
<g id="a_edge34_Node000027_Node000003"><a xlink:title=" ">
<path fill="none" stroke="#63b8ff" d="M134.97,-175.89C147.28,-159.67 169.85,-133.65 196,-121 241.04,-99.22 373.29,-86.88 459.23,-80.96"/>
<polygon fill="#63b8ff" stroke="#63b8ff" points="459.47,-84.45 469.21,-80.29 459,-77.47 459.47,-84.45"/>
</a>
</g>
</g>
<!-- Node28&#45;&gt;Node3 -->
<g id="edge39_Node000028_Node000003" class="edge">
<title>Node28&#45;&gt;Node3</title>
<g id="a_edge39_Node000028_Node000003"><a xlink:title=" ">
<path fill="none" stroke="#63b8ff" d="M1675.7,-121.69C1672.76,-121.44 1669.85,-121.21 1667,-121 1250.93,-90.38 1145.84,-102.23 729,-85 691.38,-83.45 649.61,-81.61 614.66,-80.04"/>
<polygon fill="#63b8ff" stroke="#63b8ff" points="614.67,-76.54 604.53,-79.59 614.36,-83.53 614.67,-76.54"/>
</a>
</g>
</g>
<!-- Node29 -->
<g id="Node000029" class="node">
<title>Node29</title>
<g id="a_Node000029"><a xlink:href="span_8hpp.html" target="_top" xlink:title=" ">
<polygon fill="white" stroke="#666666" points="1722,-85 1606,-85 1606,-66 1722,-66 1722,-85"/>
<text text-anchor="middle" x="1664" y="-73" font-family="Helvetica,sans-Serif" font-size="10.00">alpaqa/util/span.hpp</text>
</a>
</g>
</g>
<!-- Node28&#45;&gt;Node29 -->
<g id="edge40_Node000028_Node000029" class="edge">
<title>Node28&#45;&gt;Node29</title>
<g id="a_edge40_Node000028_Node000029"><a xlink:title=" ">
<path fill="none" stroke="#63b8ff" d="M1731.99,-120.98C1719.54,-112.84 1700.54,-100.41 1685.79,-90.76"/>
<polygon fill="#63b8ff" stroke="#63b8ff" points="1687.54,-87.72 1677.25,-85.17 1683.7,-93.57 1687.54,-87.72"/>
</a>
</g>
</g>
<!-- Node30 -->
<g id="Node000030" class="node">
<title>Node30</title>
<g id="a_Node000030"><a xlink:title=" ">
<polygon fill="#e0e0e0" stroke="#999999" points="1723,-24.5 1683,-24.5 1683,-5.5 1723,-5.5 1723,-24.5"/>
<text text-anchor="middle" x="1703" y="-12.5" font-family="Helvetica,sans-Serif" font-size="10.00">span</text>
</a>
</g>
</g>
<!-- Node28&#45;&gt;Node30 -->
<g id="edge44_Node000028_Node000030" class="edge">
<title>Node28&#45;&gt;Node30</title>
<g id="a_edge44_Node000028_Node000030"><a xlink:title=" ">
<path fill="none" stroke="#63b8ff" d="M1743.88,-120.64C1742.12,-108.14 1738.15,-84.78 1731,-66 1726.69,-54.68 1720.15,-42.82 1714.47,-33.5"/>
<polygon fill="#63b8ff" stroke="#63b8ff" points="1717.3,-31.41 1709,-24.82 1711.38,-35.15 1717.3,-31.41"/>
</a>
</g>
</g>
<!-- Node29&#45;&gt;Node8 -->
<g id="edge43_Node000029_Node000008" class="edge">
<title>Node29&#45;&gt;Node8</title>
<g id="a_edge43_Node000029_Node000008"><a xlink:title=" ">
<path fill="none" stroke="#63b8ff" d="M1605.84,-70.13C1456.95,-58.93 1064.36,-29.41 931.04,-19.39"/>
<polygon fill="#63b8ff" stroke="#63b8ff" points="931.03,-15.88 920.79,-18.62 930.5,-22.86 931.03,-15.88"/>
</a>
</g>
</g>
<!-- Node29&#45;&gt;Node9 -->
<g id="edge41_Node000029_Node000009" class="edge">
<title>Node29&#45;&gt;Node9</title>
<g id="a_edge41_Node000029_Node000009"><a xlink:title=" ">
<path fill="none" stroke="#63b8ff" d="M1658.1,-65.87C1652.25,-57.31 1643.13,-43.97 1635.79,-33.24"/>
<polygon fill="#63b8ff" stroke="#63b8ff" points="1638.46,-30.95 1629.93,-24.67 1632.68,-34.9 1638.46,-30.95"/>
</a>
</g>
</g>
<!-- Node29&#45;&gt;Node30 -->
<g id="edge42_Node000029_Node000030" class="edge">
<title>Node29&#45;&gt;Node30</title>
<g id="a_edge42_Node000029_Node000030"><a xlink:title=" ">
<path fill="none" stroke="#63b8ff" d="M1669.75,-65.87C1675.46,-57.31 1684.35,-43.97 1691.51,-33.24"/>
<polygon fill="#63b8ff" stroke="#63b8ff" points="1694.59,-34.93 1697.22,-24.67 1688.76,-31.05 1694.59,-34.93"/>
</a>
</g>
</g>
<!-- Node31&#45;&gt;Node9 -->
<g id="edge46_Node000031_Node000009" class="edge">
<title>Node31&#45;&gt;Node9</title>
<g id="a_edge46_Node000031_Node000009"><a xlink:title=" ">
<path fill="none" stroke="#63b8ff" d="M1634.46,-247.46C1693.72,-234.8 1797.82,-211.9 1804,-206 1826.08,-184.92 1818.74,-170.23 1823,-140 1824.18,-131.64 1827.17,-128.35 1823,-121 1805.07,-89.4 1708.13,-48.29 1656.47,-28.17"/>
<polygon fill="#63b8ff" stroke="#63b8ff" points="1657.67,-24.88 1647.08,-24.55 1655.15,-31.41 1657.67,-24.88"/>
</a>
</g>
</g>
<!-- Node32 -->
<g id="Node000032" class="node">
<title>Node32</title>
<g id="a_Node000032"><a xlink:title=" ">
<polygon fill="#e0e0e0" stroke="#999999" points="1671.5,-200.5 1536.5,-200.5 1536.5,-181.5 1671.5,-181.5 1671.5,-200.5"/>
<text text-anchor="middle" x="1604" y="-188.5" font-family="Helvetica,sans-Serif" font-size="10.00">guanaqo/eigen/view.hpp</text>
</a>
</g>
</g>
<!-- Node31&#45;&gt;Node32 -->
<g id="edge47_Node000031_Node000032" class="edge">
<title>Node31&#45;&gt;Node32</title>
<g id="a_edge47_Node000031_Node000032"><a xlink:title=" ">
<path fill="none" stroke="#63b8ff" d="M1595.35,-247.37C1596.8,-238.07 1599.16,-222.98 1601.05,-210.9"/>
<polygon fill="#63b8ff" stroke="#63b8ff" points="1604.52,-211.33 1602.61,-200.91 1597.61,-210.25 1604.52,-211.33"/>
</a>
</g>
</g>
<!-- Node33 -->
<g id="Node000033" class="node">
<title>Node33</title>
<g id="a_Node000033"><a xlink:title=" ">
<polygon fill="#e0e0e0" stroke="#999999" points="1794.5,-200.5 1689.5,-200.5 1689.5,-181.5 1794.5,-181.5 1794.5,-200.5"/>
<text text-anchor="middle" x="1742" y="-188.5" font-family="Helvetica,sans-Serif" font-size="10.00">guanaqo/print.hpp</text>
</a>
</g>
</g>
<!-- Node31&#45;&gt;Node33 -->
<g id="edge48_Node000031_Node000033" class="edge">
<title>Node31&#45;&gt;Node33</title>
<g id="a_edge48_Node000031_Node000033"><a xlink:title=" ">
<path fill="none" stroke="#63b8ff" d="M1613.96,-247.37C1639.34,-236.39 1683.36,-217.36 1712.59,-204.72"/>
<polygon fill="#63b8ff" stroke="#63b8ff" points="1714.09,-207.88 1721.88,-200.7 1711.32,-201.46 1714.09,-207.88"/>
</a>
</g>
</g>
</g>
</svg>

<g id="navigator" transform="translate(0 0)" fill="#404254">
  <rect fill="#f2f5e9" fill-opacity="0.5" stroke="#606060" stroke-width=".5" x="0" y="0" width="60" height="60"/>
  <use id="zoomplus" xlink:href="#zoomPlus" x="17" y="9" onmousedown="handleZoom(evt,'in')"/>
  <use id="zoomminus" xlink:href="#zoomMin" x="42" y="9" onmousedown="handleZoom(evt,'out')"/>
  <use id="reset" xlink:href="#resetDef" x="30" y="36" onmousedown="handleReset()"/>
   <use id="arrowup" xlink:href="#arrowUp" x="0" y="0" onmousedown="handlePan(0,-1)"/>
  <use id="arrowright" xlink:href="#arrowRight" x="0" y="0" onmousedown="handlePan(1,0)"/>
  <use id="arrowdown" xlink:href="#arrowDown" x="0" y="0" onmousedown="handlePan(0,1)"/>
  <use id="arrowleft" xlink:href="#arrowLeft" x="0" y="0" onmousedown="handlePan(-1,0)"/>
</g>
<svg viewBox="0 0 15 15" width="100%" height="30px" preserveAspectRatio="xMaxYMin meet">
 <g id="arrow_out" transform="scale(0.3 0.3)">
  <a xlink:href="structured-newton_8cpp__incl_org.svg" target="_base">
   <rect id="button" ry="5" rx="5" y="6" x="6" height="38" width="38"
        fill="#f2f5e9" fill-opacity="0.5" stroke="#606060" stroke-width="1.0"/>
   <path id="arrow"
     d="M 11.500037,31.436501 C 11.940474,20.09759 22.043105,11.32322 32.158766,21.979434 L 37.068811,17.246167 C 37.068811,17.246167 37.088388,32 37.088388,32 L 22.160133,31.978069 C 22.160133,31.978069 26.997745,27.140456 26.997745,27.140456 C 18.528582,18.264221 13.291696,25.230495 11.500037,31.436501 z"
     style="fill:#404040;"/>
  </a>
 </g>
</svg>

<style type='text/css'>
<![CDATA[
[data-mouse-over-selected='false'] { opacity: 0.7; }
[data-mouse-over-selected='true']  { opacity: 1.0; }
]]>
</style>
<script type="application/ecmascript"><![CDATA[
document.addEventListener('DOMContentLoaded', (event) => {
  highlightEdges();
  highlightAdjacentNodes();
});
]]></script>
</svg>
