<?xml version="1.0" encoding="UTF-8" standalone="no"?>
<!DOCTYPE svg PUBLIC "-//W3C//DTD SVG 1.1//EN"
 "http://www.w3.org/Graphics/SVG/1.1/DTD/svg11.dtd">
<!-- Generated by graphviz version 2.43.0 (0)
 -->
<!-- Title: src/alpaqa/include/alpaqa/implementation Pages: 1 -->
<!--zoomable 196 -->

<svg id="main" version="1.1" xmlns="http://www.w3.org/2000/svg" xmlns:xlink="http://www.w3.org/1999/xlink" xml:space="preserve" onload="init(evt)">
<style type="text/css"><![CDATA[
.node, .edge {opacity: 0.7;}
.node.selected, .edge.selected {opacity: 1;}
.edge:hover path { stroke: red; }
.edge:hover polygon { stroke: red; fill: red; }
]]></style>

<defs>
  <circle id="rim" cx="0" cy="0" r="7"/>
  <circle id="rim2" cx="0" cy="0" r="3.5"/>
  <g id="zoomPlus">
    <use xlink:href="#rim" fill="#404040"><set attributeName="fill" to="#808080" begin="zoomplus.mouseover" end="zoomplus.mouseout"/></use>
    <path d="M-4,0h8M0,-4v8" fill="none" stroke="white" stroke-width="1.5" pointer-events="none"/>
  </g>
  <g id="zoomMin">
    <use xlink:href="#rim" fill="#404040"><set attributeName="fill" to="#808080" begin="zoomminus.mouseover" end="zoomminus.mouseout"/></use>
    <path d="M-4,0h8" fill="none" stroke="white" stroke-width="1.5" pointer-events="none"/>
  </g>
  <g id="arrowUp" transform="translate(30 24)">
    <use xlink:href="#rim"/>
    <path pointer-events="none" fill="none" stroke="white" stroke-width="1.5" d="M0,-3.0v7 M-2.5,-0.5L0,-3.0L2.5,-0.5"/>
  </g>
  <g id="arrowRight" transform="rotate(90) translate(36 -43)">
    <use xlink:href="#rim"/>
    <path pointer-events="none" fill="none" stroke="white" stroke-width="1.5" d="M0,-3.0v7 M-2.5,-0.5L0,-3.0L2.5,-0.5"/>
  </g>
  <g id="arrowDown" transform="rotate(180) translate(-30 -48)">
    <use xlink:href="#rim"/>
    <path pointer-events="none" fill="none" stroke="white" stroke-width="1.5" d="M0,-3.0v7 M-2.5,-0.5L0,-3.0L2.5,-0.5"/>
  </g>
  <g id="arrowLeft" transform="rotate(270) translate(-36 17)">
    <use xlink:href="#rim"/>
    <path pointer-events="none" fill="none" stroke="white" stroke-width="1.5" d="M0,-3.0v7 M-2.5,-0.5L0,-3.0L2.5,-0.5"/>
  </g>
  <g id="resetDef">
    <use xlink:href="#rim2" fill="#404040"><set attributeName="fill" to="#808080" begin="reset.mouseover" end="reset.mouseout"/></use>
  </g>
</defs>
<script type="application/ecmascript">
var viewWidth = 970;
var viewHeight = 196;
var sectionId = 'dynsection-0';
</script>
<script type="application/ecmascript" xlink:href="svg.min.js"/>
<svg id="graph" class="graph">
<g id="viewport">
<title>src/alpaqa/include/alpaqa/implementation</title>
<g id="clust1" class="cluster">
<title>clusterdir_aa7a1b0f58ddf19b58b6c6a8f7be749b</title>
<g id="a_clust1"><a xlink:href="dir_aa7a1b0f58ddf19b58b6c6a8f7be749b.html" target="_top" xlink:title="alpaqa">
<polygon fill="#eef0f6" stroke="#7f7f7f" stroke-dasharray="5,2" points="8,-8 8,-180 954,-180 954,-8 8,-8"/>
<text text-anchor="middle" x="481" y="-168" font-family="Helvetica,sans-Serif" font-size="10.00">alpaqa</text>
</a>
</g>
</g>
<g id="clust2" class="cluster">
<title>clusterdir_f032ec8a58d3b1c2859d60adecf85214</title>
<g id="a_clust2"><a xlink:href="dir_f032ec8a58d3b1c2859d60adecf85214.html" target="_top">
<polygon fill="#eef0f6" stroke="#404040" stroke-width="2" points="16,-63 16,-153 489,-153 489,-63 16,-63"/>
</a>
</g>
</g>
<!-- dir_56cdb4e0e1d23a049aedd3c0d066c83d -->
<g id="node1" class="node">
<title>dir_56cdb4e0e1d23a049aedd3c0d066c83d</title>
<g id="a_node1"><a xlink:href="dir_56cdb4e0e1d23a049aedd3c0d066c83d.html" target="_top" xlink:title="accelerators">
<polygon fill="#a7b5d1" stroke="red" points="574.5,-90 497.5,-90 497.5,-71 574.5,-71 574.5,-90"/>
<text text-anchor="middle" x="536" y="-78" font-family="Helvetica,sans-Serif" font-size="10.00">accelerators</text>
</a>
</g>
</g>
<!-- dir_bbd5cd5e84156ff1ee01ab0d6884a6cc -->
<g id="node2" class="node">
<title>dir_bbd5cd5e84156ff1ee01ab0d6884a6cc</title>
<g id="a_node2"><a xlink:href="dir_bbd5cd5e84156ff1ee01ab0d6884a6cc.html" target="_top" xlink:title="inner">
<polygon fill="#a7b5d1" stroke="red" points="654.5,-90 613.5,-90 613.5,-71 654.5,-71 654.5,-90"/>
<text text-anchor="middle" x="634" y="-78" font-family="Helvetica,sans-Serif" font-size="10.00">inner</text>
</a>
</g>
</g>
<!-- dir_1a4ee48d2e08cfd45a07dbc8fcccca64 -->
<g id="node3" class="node">
<title>dir_1a4ee48d2e08cfd45a07dbc8fcccca64</title>
<g id="a_node3"><a xlink:href="dir_1a4ee48d2e08cfd45a07dbc8fcccca64.html" target="_top" xlink:title="config">
<polygon fill="#a7b5d1" stroke="#404040" points="854,-90 808,-90 808,-71 854,-71 854,-90"/>
<text text-anchor="middle" x="831" y="-78" font-family="Helvetica,sans-Serif" font-size="10.00">config</text>
</a>
</g>
</g>
<!-- dir_39cea274dfac8d55d2001e07c2abe998 -->
<g id="node4" class="node">
<title>dir_39cea274dfac8d55d2001e07c2abe998</title>
<g id="a_node4"><a xlink:href="dir_39cea274dfac8d55d2001e07c2abe998.html" target="_top" xlink:title="util">
<polygon fill="#a7b5d1" stroke="red" points="610,-35 578,-35 578,-16 610,-16 610,-35"/>
<text text-anchor="middle" x="594" y="-23" font-family="Helvetica,sans-Serif" font-size="10.00">util</text>
</a>
</g>
</g>
<!-- dir_8ecfc39e2d201292a847909b27723f3b -->
<g id="node5" class="node">
<title>dir_8ecfc39e2d201292a847909b27723f3b</title>
<g id="a_node5"><a xlink:href="dir_8ecfc39e2d201292a847909b27723f3b.html" target="_top" xlink:title="problem">
<polygon fill="#a7b5d1" stroke="#404040" points="729.5,-90 672.5,-90 672.5,-71 729.5,-71 729.5,-90"/>
<text text-anchor="middle" x="701" y="-78" font-family="Helvetica,sans-Serif" font-size="10.00">problem</text>
</a>
</g>
</g>
<!-- dir_56b4c757b0752ef0587befa1007406ae -->
<g id="node6" class="node">
<title>dir_56b4c757b0752ef0587befa1007406ae</title>
<g id="a_node6"><a xlink:href="dir_56b4c757b0752ef0587befa1007406ae.html" target="_top" xlink:title="outer">
<polygon fill="#a7b5d1" stroke="red" points="790,-90 748,-90 748,-71 790,-71 790,-90"/>
<text text-anchor="middle" x="769" y="-78" font-family="Helvetica,sans-Serif" font-size="10.00">outer</text>
</a>
</g>
</g>
<!-- dir_a350ba0def0ce97ee16300db9fd244f5 -->
<g id="node7" class="node">
<title>dir_a350ba0def0ce97ee16300db9fd244f5</title>
<g id="a_node7"><a xlink:href="dir_a350ba0def0ce97ee16300db9fd244f5.html" target="_top" xlink:title="params">
<polygon fill="#a7b5d1" stroke="#404040" points="925.5,-90 872.5,-90 872.5,-71 925.5,-71 925.5,-90"/>
<text text-anchor="middle" x="899" y="-78" font-family="Helvetica,sans-Serif" font-size="10.00">params</text>
</a>
</g>
</g>
<!-- dir_f032ec8a58d3b1c2859d60adecf85214 -->
<g id="node8" class="node">
<title>dir_f032ec8a58d3b1c2859d60adecf85214</title>
<text text-anchor="middle" x="433" y="-133" font-family="Helvetica,sans-Serif" font-size="10.00">implementation</text>
</g>
<!-- dir_e5d4fb7b67d2be9fad2213f298b3f5fb -->
<g id="node9" class="node">
<title>dir_e5d4fb7b67d2be9fad2213f298b3f5fb</title>
<g id="a_node9"><a xlink:href="dir_e5d4fb7b67d2be9fad2213f298b3f5fb.html" target="_top" xlink:title="accelerators">
<polygon fill="#a7b5d1" stroke="#404040" points="101.5,-145 24.5,-145 24.5,-126 101.5,-126 101.5,-145"/>
<text text-anchor="middle" x="63" y="-133" font-family="Helvetica,sans-Serif" font-size="10.00">accelerators</text>
</a>
</g>
</g>
<!-- dir_e5d4fb7b67d2be9fad2213f298b3f5fb&#45;&gt;dir_56cdb4e0e1d23a049aedd3c0d066c83d -->
<g id="edge1" class="edge">
<title>dir_e5d4fb7b67d2be9fad2213f298b3f5fb&#45;&gt;dir_56cdb4e0e1d23a049aedd3c0d066c83d</title>
<g id="a_edge1"><a xlink:href="dir_000001_000000.html" target="_top">
<path fill="none" stroke="#63b8ff" d="M101.73,-127.36C104.86,-126.87 107.98,-126.41 111,-126 276.69,-103.56 322.47,-114.13 487.14,-90.8"/>
<polygon fill="#63b8ff" stroke="#63b8ff" points="487.72,-94.26 497.12,-89.37 486.73,-87.33 487.72,-94.26"/>
</a>
</g>
<g id="a_edge1&#45;headlabel"><a xlink:href="dir_000001_000000.html" target="_top" xlink:title="1">
<text text-anchor="middle" x="484.57" y="-95.08" font-family="Helvetica,sans-Serif" font-size="10.00" fill="#63b8ff">1</text>
</a>
</g>
</g>
<!-- dir_e8e8f1a39b9ad6df8779a9a3181379a1 -->
<g id="node10" class="node">
<title>dir_e8e8f1a39b9ad6df8779a9a3181379a1</title>
<g id="a_node10"><a xlink:href="dir_e8e8f1a39b9ad6df8779a9a3181379a1.html" target="_top" xlink:title="inner">
<polygon fill="#a7b5d1" stroke="#404040" points="160.5,-145 119.5,-145 119.5,-126 160.5,-126 160.5,-145"/>
<text text-anchor="middle" x="140" y="-133" font-family="Helvetica,sans-Serif" font-size="10.00">inner</text>
</a>
</g>
</g>
<!-- dir_e8e8f1a39b9ad6df8779a9a3181379a1&#45;&gt;dir_56cdb4e0e1d23a049aedd3c0d066c83d -->
<g id="edge4" class="edge">
<title>dir_e8e8f1a39b9ad6df8779a9a3181379a1&#45;&gt;dir_56cdb4e0e1d23a049aedd3c0d066c83d</title>
<g id="a_edge4"><a xlink:href="dir_000043_000000.html" target="_top">
<path fill="none" stroke="#63b8ff" d="M160.55,-128.19C163.69,-127.37 166.92,-126.6 170,-126 308.43,-98.87 348.38,-111.4 486.97,-90.87"/>
<polygon fill="#63b8ff" stroke="#63b8ff" points="487.75,-94.3 497.12,-89.34 486.71,-87.37 487.75,-94.3"/>
</a>
</g>
<g id="a_edge4&#45;headlabel"><a xlink:href="dir_000043_000000.html" target="_top" xlink:title="1">
<text text-anchor="middle" x="484.62" y="-95.14" font-family="Helvetica,sans-Serif" font-size="10.00" fill="#63b8ff">1</text>
</a>
</g>
</g>
<!-- dir_e8e8f1a39b9ad6df8779a9a3181379a1&#45;&gt;dir_bbd5cd5e84156ff1ee01ab0d6884a6cc -->
<g id="edge6" class="edge">
<title>dir_e8e8f1a39b9ad6df8779a9a3181379a1&#45;&gt;dir_bbd5cd5e84156ff1ee01ab0d6884a6cc</title>
<g id="a_edge6"><a xlink:href="dir_000043_000044.html" target="_top">
<path fill="none" stroke="#63b8ff" d="M160.53,-128.12C163.68,-127.31 166.91,-126.56 170,-126 358.25,-91.76 410.14,-120.67 599,-90 600.47,-89.76 601.96,-89.49 603.47,-89.21"/>
<polygon fill="#63b8ff" stroke="#63b8ff" points="604.34,-92.6 613.38,-87.07 602.87,-85.76 604.34,-92.6"/>
</a>
</g>
<g id="a_edge6&#45;headlabel"><a xlink:href="dir_000043_000044.html" target="_top" xlink:title="11">
<text text-anchor="middle" x="601.43" y="-93.63" font-family="Helvetica,sans-Serif" font-size="10.00" fill="#63b8ff">11</text>
</a>
</g>
</g>
<!-- dir_e8e8f1a39b9ad6df8779a9a3181379a1&#45;&gt;dir_1a4ee48d2e08cfd45a07dbc8fcccca64 -->
<g id="edge2" class="edge">
<title>dir_e8e8f1a39b9ad6df8779a9a3181379a1&#45;&gt;dir_1a4ee48d2e08cfd45a07dbc8fcccca64</title>
<g id="a_edge2"><a xlink:href="dir_000043_000016.html" target="_top">
<path fill="none" stroke="#63b8ff" d="M160.52,-128.05C163.67,-127.24 166.9,-126.52 170,-126 442.9,-80.1 520.68,-132.9 797.76,-89.85"/>
<polygon fill="#63b8ff" stroke="#63b8ff" points="798.37,-93.29 807.7,-88.27 797.27,-86.38 798.37,-93.29"/>
</a>
</g>
<g id="a_edge2&#45;headlabel"><a xlink:href="dir_000043_000016.html" target="_top" xlink:title="6">
<text text-anchor="middle" x="795.26" y="-94.16" font-family="Helvetica,sans-Serif" font-size="10.00" fill="#63b8ff">6</text>
</a>
</g>
</g>
<!-- dir_e8e8f1a39b9ad6df8779a9a3181379a1&#45;&gt;dir_39cea274dfac8d55d2001e07c2abe998 -->
<g id="edge3" class="edge">
<title>dir_e8e8f1a39b9ad6df8779a9a3181379a1&#45;&gt;dir_39cea274dfac8d55d2001e07c2abe998</title>
<g id="a_edge3"><a xlink:href="dir_000043_000090.html" target="_top">
<path fill="none" stroke="#63b8ff" d="M160.54,-128.13C163.68,-127.31 166.91,-126.57 170,-126 260.83,-109.34 516.47,-152.99 584,-90 595.85,-78.95 597.47,-60.01 596.66,-45.68"/>
<polygon fill="#63b8ff" stroke="#63b8ff" points="600.11,-45.02 595.64,-35.42 593.15,-45.72 600.11,-45.02"/>
</a>
</g>
<g id="a_edge3&#45;headlabel"><a xlink:href="dir_000043_000090.html" target="_top" xlink:title="12">
<text text-anchor="middle" x="603.3" y="-45.82" font-family="Helvetica,sans-Serif" font-size="10.00" fill="#63b8ff">12</text>
</a>
</g>
</g>
<!-- dir_e8e8f1a39b9ad6df8779a9a3181379a1&#45;&gt;dir_8ecfc39e2d201292a847909b27723f3b -->
<g id="edge5" class="edge">
<title>dir_e8e8f1a39b9ad6df8779a9a3181379a1&#45;&gt;dir_8ecfc39e2d201292a847909b27723f3b</title>
<g id="a_edge5"><a xlink:href="dir_000043_000074.html" target="_top">
<path fill="none" stroke="#63b8ff" d="M160.53,-128.09C163.68,-127.28 166.91,-126.54 170,-126 383.52,-88.38 444.47,-121.7 662.25,-90.03"/>
<polygon fill="#63b8ff" stroke="#63b8ff" points="663.02,-93.46 672.4,-88.53 661.99,-86.53 663.02,-93.46"/>
</a>
</g>
<g id="a_edge5&#45;headlabel"><a xlink:href="dir_000043_000074.html" target="_top" xlink:title="3">
<text text-anchor="middle" x="659.88" y="-94.29" font-family="Helvetica,sans-Serif" font-size="10.00" fill="#63b8ff">3</text>
</a>
</g>
</g>
<!-- dir_d01a07b3d089f4fea83ec0d1c65b01b0 -->
<g id="node14" class="node">
<title>dir_d01a07b3d089f4fea83ec0d1c65b01b0</title>
<g id="a_node14"><a xlink:href="dir_d01a07b3d089f4fea83ec0d1c65b01b0.html" target="_top" xlink:title="util">
<polygon fill="#a7b5d1" stroke="#404040" points="216,-90 184,-90 184,-71 216,-71 216,-90"/>
<text text-anchor="middle" x="200" y="-78" font-family="Helvetica,sans-Serif" font-size="10.00">util</text>
</a>
</g>
</g>
<!-- dir_e8e8f1a39b9ad6df8779a9a3181379a1&#45;&gt;dir_d01a07b3d089f4fea83ec0d1c65b01b0 -->
<g id="edge7" class="edge">
<title>dir_e8e8f1a39b9ad6df8779a9a3181379a1&#45;&gt;dir_d01a07b3d089f4fea83ec0d1c65b01b0</title>
<g id="a_edge7"><a xlink:href="dir_000043_000089.html" target="_top">
<path fill="none" stroke="#63b8ff" d="M149.64,-125.98C158.51,-118.15 171.87,-106.34 182.61,-96.86"/>
<polygon fill="#63b8ff" stroke="#63b8ff" points="185.01,-99.41 190.18,-90.17 180.37,-94.17 185.01,-99.41"/>
</a>
</g>
<g id="a_edge7&#45;headlabel"><a xlink:href="dir_000043_000089.html" target="_top" xlink:title="5">
<text text-anchor="middle" x="184.19" y="-101.42" font-family="Helvetica,sans-Serif" font-size="10.00" fill="#63b8ff">5</text>
</a>
</g>
</g>
<!-- dir_a7f0570fcf4f7849cf2c4e2d81d3d018 -->
<g id="node11" class="node">
<title>dir_a7f0570fcf4f7849cf2c4e2d81d3d018</title>
<g id="a_node11"><a xlink:href="dir_a7f0570fcf4f7849cf2c4e2d81d3d018.html" target="_top" xlink:title="outer">
<polygon fill="#a7b5d1" stroke="#404040" points="221,-145 179,-145 179,-126 221,-126 221,-145"/>
<text text-anchor="middle" x="200" y="-133" font-family="Helvetica,sans-Serif" font-size="10.00">outer</text>
</a>
</g>
</g>
<!-- dir_a7f0570fcf4f7849cf2c4e2d81d3d018&#45;&gt;dir_bbd5cd5e84156ff1ee01ab0d6884a6cc -->
<g id="edge11" class="edge">
<title>dir_a7f0570fcf4f7849cf2c4e2d81d3d018&#45;&gt;dir_bbd5cd5e84156ff1ee01ab0d6884a6cc</title>
<g id="a_edge11"><a xlink:href="dir_000061_000044.html" target="_top">
<path fill="none" stroke="#63b8ff" d="M221.24,-128.17C224.49,-127.35 227.82,-126.59 231,-126 392.61,-96.16 436.97,-117.46 599,-90 600.46,-89.75 601.96,-89.48 603.46,-89.18"/>
<polygon fill="#63b8ff" stroke="#63b8ff" points="604.35,-92.57 613.37,-87.02 602.86,-85.73 604.35,-92.57"/>
</a>
</g>
<g id="a_edge11&#45;headlabel"><a xlink:href="dir_000061_000044.html" target="_top" xlink:title="2">
<text text-anchor="middle" x="601.44" y="-93.61" font-family="Helvetica,sans-Serif" font-size="10.00" fill="#63b8ff">2</text>
</a>
</g>
</g>
<!-- dir_a7f0570fcf4f7849cf2c4e2d81d3d018&#45;&gt;dir_1a4ee48d2e08cfd45a07dbc8fcccca64 -->
<g id="edge8" class="edge">
<title>dir_a7f0570fcf4f7849cf2c4e2d81d3d018&#45;&gt;dir_1a4ee48d2e08cfd45a07dbc8fcccca64</title>
<g id="a_edge8"><a xlink:href="dir_000061_000016.html" target="_top">
<path fill="none" stroke="#63b8ff" d="M221.22,-128.07C224.47,-127.26 227.81,-126.53 231,-126 477.21,-84.89 547.49,-129.46 797.58,-89.89"/>
<polygon fill="#63b8ff" stroke="#63b8ff" points="798.38,-93.3 807.7,-88.26 797.27,-86.39 798.38,-93.3"/>
</a>
</g>
<g id="a_edge8&#45;headlabel"><a xlink:href="dir_000061_000016.html" target="_top" xlink:title="1">
<text text-anchor="middle" x="795.28" y="-94.18" font-family="Helvetica,sans-Serif" font-size="10.00" fill="#63b8ff">1</text>
</a>
</g>
</g>
<!-- dir_a7f0570fcf4f7849cf2c4e2d81d3d018&#45;&gt;dir_8ecfc39e2d201292a847909b27723f3b -->
<g id="edge10" class="edge">
<title>dir_a7f0570fcf4f7849cf2c4e2d81d3d018&#45;&gt;dir_8ecfc39e2d201292a847909b27723f3b</title>
<g id="a_edge10"><a xlink:href="dir_000061_000074.html" target="_top">
<path fill="none" stroke="#63b8ff" d="M221.23,-128.12C224.48,-127.31 227.81,-126.56 231,-126 417.9,-92.9 471.37,-118.78 662.31,-90.05"/>
<polygon fill="#63b8ff" stroke="#63b8ff" points="663.04,-93.47 672.4,-88.5 661.98,-86.55 663.04,-93.47"/>
</a>
</g>
<g id="a_edge10&#45;headlabel"><a xlink:href="dir_000061_000074.html" target="_top" xlink:title="1">
<text text-anchor="middle" x="659.92" y="-94.33" font-family="Helvetica,sans-Serif" font-size="10.00" fill="#63b8ff">1</text>
</a>
</g>
</g>
<!-- dir_a7f0570fcf4f7849cf2c4e2d81d3d018&#45;&gt;dir_56b4c757b0752ef0587befa1007406ae -->
<g id="edge9" class="edge">
<title>dir_a7f0570fcf4f7849cf2c4e2d81d3d018&#45;&gt;dir_56b4c757b0752ef0587befa1007406ae</title>
<g id="a_edge9"><a xlink:href="dir_000061_000062.html" target="_top">
<path fill="none" stroke="#63b8ff" d="M221.22,-128.09C224.47,-127.28 227.81,-126.54 231,-126 450.84,-88.45 514.2,-127.87 737.74,-89.83"/>
<polygon fill="#63b8ff" stroke="#63b8ff" points="738.57,-93.24 747.82,-88.08 737.37,-86.34 738.57,-93.24"/>
</a>
</g>
<g id="a_edge9&#45;headlabel"><a xlink:href="dir_000061_000062.html" target="_top" xlink:title="2">
<text text-anchor="middle" x="735.51" y="-94.15" font-family="Helvetica,sans-Serif" font-size="10.00" fill="#63b8ff">2</text>
</a>
</g>
</g>
<!-- dir_a7f0570fcf4f7849cf2c4e2d81d3d018&#45;&gt;dir_d01a07b3d089f4fea83ec0d1c65b01b0 -->
<g id="edge12" class="edge">
<title>dir_a7f0570fcf4f7849cf2c4e2d81d3d018&#45;&gt;dir_d01a07b3d089f4fea83ec0d1c65b01b0</title>
<g id="a_edge12"><a xlink:href="dir_000061_000089.html" target="_top">
<path fill="none" stroke="#63b8ff" d="M200,-125.75C200,-118.8 200,-108.85 200,-100.13"/>
<polygon fill="#63b8ff" stroke="#63b8ff" points="203.5,-100.09 200,-90.09 196.5,-100.09 203.5,-100.09"/>
</a>
</g>
<g id="a_edge12&#45;headlabel"><a xlink:href="dir_000061_000089.html" target="_top" xlink:title="1">
<text text-anchor="middle" x="206.34" y="-101.18" font-family="Helvetica,sans-Serif" font-size="10.00" fill="#63b8ff">1</text>
</a>
</g>
</g>
<!-- dir_aac034f68ef8afa7223f3d0c35e0f614 -->
<g id="node12" class="node">
<title>dir_aac034f68ef8afa7223f3d0c35e0f614</title>
<g id="a_node12"><a xlink:href="dir_aac034f68ef8afa7223f3d0c35e0f614.html" target="_top" xlink:title="params">
<polygon fill="#a7b5d1" stroke="#404040" points="367.5,-145 314.5,-145 314.5,-126 367.5,-126 367.5,-145"/>
<text text-anchor="middle" x="341" y="-133" font-family="Helvetica,sans-Serif" font-size="10.00">params</text>
</a>
</g>
</g>
<!-- dir_aac034f68ef8afa7223f3d0c35e0f614&#45;&gt;dir_1a4ee48d2e08cfd45a07dbc8fcccca64 -->
<g id="edge13" class="edge">
<title>dir_aac034f68ef8afa7223f3d0c35e0f614&#45;&gt;dir_1a4ee48d2e08cfd45a07dbc8fcccca64</title>
<g id="a_edge13"><a xlink:href="dir_000070_000016.html" target="_top">
<path fill="none" stroke="#63b8ff" d="M367.65,-127.75C370.79,-127.09 373.96,-126.49 377,-126 559.61,-96.81 611.73,-121.39 797.58,-89.94"/>
<polygon fill="#63b8ff" stroke="#63b8ff" points="798.43,-93.34 807.69,-88.2 797.24,-86.45 798.43,-93.34"/>
</a>
</g>
<g id="a_edge13&#45;headlabel"><a xlink:href="dir_000070_000016.html" target="_top" xlink:title="2">
<text text-anchor="middle" x="795.37" y="-94.25" font-family="Helvetica,sans-Serif" font-size="10.00" fill="#63b8ff">2</text>
</a>
</g>
</g>
<!-- dir_aac034f68ef8afa7223f3d0c35e0f614&#45;&gt;dir_39cea274dfac8d55d2001e07c2abe998 -->
<g id="edge14" class="edge">
<title>dir_aac034f68ef8afa7223f3d0c35e0f614&#45;&gt;dir_39cea274dfac8d55d2001e07c2abe998</title>
<g id="a_edge14"><a xlink:href="dir_000070_000090.html" target="_top">
<path fill="none" stroke="#63b8ff" d="M367.64,-127.69C370.78,-127.04 373.95,-126.45 377,-126 438.45,-116.83 892.51,-135.32 935,-90 943.21,-81.25 943.02,-71.93 935,-63 914.04,-39.68 696.71,-30.02 620.35,-27.34"/>
<polygon fill="#63b8ff" stroke="#63b8ff" points="620.26,-23.83 610.15,-26.99 620.02,-30.83 620.26,-23.83"/>
</a>
</g>
<g id="a_edge14&#45;headlabel"><a xlink:href="dir_000070_000090.html" target="_top" xlink:title="4">
<text text-anchor="middle" x="623.95" y="-18.61" font-family="Helvetica,sans-Serif" font-size="10.00" fill="#63b8ff">4</text>
</a>
</g>
</g>
<!-- dir_aac034f68ef8afa7223f3d0c35e0f614&#45;&gt;dir_a350ba0def0ce97ee16300db9fd244f5 -->
<g id="edge15" class="edge">
<title>dir_aac034f68ef8afa7223f3d0c35e0f614&#45;&gt;dir_a350ba0def0ce97ee16300db9fd244f5</title>
<g id="a_edge15"><a xlink:href="dir_000070_000071.html" target="_top">
<path fill="none" stroke="#63b8ff" d="M367.64,-127.71C370.78,-127.06 373.95,-126.47 377,-126 587.82,-93.51 647.15,-122.1 862.32,-89.82"/>
<polygon fill="#63b8ff" stroke="#63b8ff" points="863,-93.26 872.36,-88.29 861.94,-86.34 863,-93.26"/>
</a>
</g>
<g id="a_edge15&#45;headlabel"><a xlink:href="dir_000070_000071.html" target="_top" xlink:title="3">
<text text-anchor="middle" x="859.87" y="-94.1" font-family="Helvetica,sans-Serif" font-size="10.00" fill="#63b8ff">3</text>
</a>
</g>
</g>
<!-- dir_ad39dd3022d65627bab828f702dd3a39 -->
<g id="node13" class="node">
<title>dir_ad39dd3022d65627bab828f702dd3a39</title>
<g id="a_node13"><a xlink:href="dir_ad39dd3022d65627bab828f702dd3a39.html" target="_top" xlink:title="problem">
<polygon fill="#a7b5d1" stroke="#404040" points="296.5,-145 239.5,-145 239.5,-126 296.5,-126 296.5,-145"/>
<text text-anchor="middle" x="268" y="-133" font-family="Helvetica,sans-Serif" font-size="10.00">problem</text>
</a>
</g>
</g>
<!-- dir_ad39dd3022d65627bab828f702dd3a39&#45;&gt;dir_8ecfc39e2d201292a847909b27723f3b -->
<g id="edge16" class="edge">
<title>dir_ad39dd3022d65627bab828f702dd3a39&#45;&gt;dir_8ecfc39e2d201292a847909b27723f3b</title>
<g id="a_edge16"><a xlink:href="dir_000073_000074.html" target="_top">
<path fill="none" stroke="#63b8ff" d="M296.56,-127.73C299.74,-127.09 302.93,-126.5 306,-126 460.63,-101.02 504.42,-115.34 662.32,-90.09"/>
<polygon fill="#63b8ff" stroke="#63b8ff" points="663.08,-93.51 672.39,-88.45 661.95,-86.6 663.08,-93.51"/>
</a>
</g>
<g id="a_edge16&#45;headlabel"><a xlink:href="dir_000073_000074.html" target="_top" xlink:title="2">
<text text-anchor="middle" x="659.99" y="-94.39" font-family="Helvetica,sans-Serif" font-size="10.00" fill="#63b8ff">2</text>
</a>
</g>
</g>
<!-- dir_d01a07b3d089f4fea83ec0d1c65b01b0&#45;&gt;dir_39cea274dfac8d55d2001e07c2abe998 -->
<g id="edge17" class="edge">
<title>dir_d01a07b3d089f4fea83ec0d1c65b01b0&#45;&gt;dir_39cea274dfac8d55d2001e07c2abe998</title>
<g id="a_edge17"><a xlink:href="dir_000089_000090.html" target="_top">
<path fill="none" stroke="#63b8ff" d="M208.21,-70.86C211.57,-67.85 215.68,-64.8 220,-63 283.04,-36.83 492.91,-29.05 567.45,-27.09"/>
<polygon fill="#63b8ff" stroke="#63b8ff" points="567.91,-30.58 577.82,-26.83 567.74,-23.58 567.91,-30.58"/>
</a>
</g>
<g id="a_edge17&#45;headlabel"><a xlink:href="dir_000089_000090.html" target="_top" xlink:title="2">
<text text-anchor="middle" x="564.39" y="-31.01" font-family="Helvetica,sans-Serif" font-size="10.00" fill="#63b8ff">2</text>
</a>
</g>
</g>
</g>
</svg>

<g id="navigator" transform="translate(0 0)" fill="#404254">
  <rect fill="#f2f5e9" fill-opacity="0.5" stroke="#606060" stroke-width=".5" x="0" y="0" width="60" height="60"/>
  <use id="zoomplus" xlink:href="#zoomPlus" x="17" y="9" onmousedown="handleZoom(evt,'in')"/>
  <use id="zoomminus" xlink:href="#zoomMin" x="42" y="9" onmousedown="handleZoom(evt,'out')"/>
  <use id="reset" xlink:href="#resetDef" x="30" y="36" onmousedown="handleReset()"/>
   <use id="arrowup" xlink:href="#arrowUp" x="0" y="0" onmousedown="handlePan(0,-1)"/>
  <use id="arrowright" xlink:href="#arrowRight" x="0" y="0" onmousedown="handlePan(1,0)"/>
  <use id="arrowdown" xlink:href="#arrowDown" x="0" y="0" onmousedown="handlePan(0,1)"/>
  <use id="arrowleft" xlink:href="#arrowLeft" x="0" y="0" onmousedown="handlePan(-1,0)"/>
</g>
<svg viewBox="0 0 15 15" width="100%" height="30px" preserveAspectRatio="xMaxYMin meet">
 <g id="arrow_out" transform="scale(0.3 0.3)">
  <a xlink:href="dir_f032ec8a58d3b1c2859d60adecf85214_dep_org.svg" target="_base">
   <rect id="button" ry="5" rx="5" y="6" x="6" height="38" width="38"
        fill="#f2f5e9" fill-opacity="0.5" stroke="#606060" stroke-width="1.0"/>
   <path id="arrow"
     d="M 11.500037,31.436501 C 11.940474,20.09759 22.043105,11.32322 32.158766,21.979434 L 37.068811,17.246167 C 37.068811,17.246167 37.088388,32 37.088388,32 L 22.160133,31.978069 C 22.160133,31.978069 26.997745,27.140456 26.997745,27.140456 C 18.528582,18.264221 13.291696,25.230495 11.500037,31.436501 z"
     style="fill:#404040;"/>
  </a>
 </g>
</svg>

<style type='text/css'>
<![CDATA[
[data-mouse-over-selected='false'] { opacity: 0.7; }
[data-mouse-over-selected='true']  { opacity: 1.0; }
]]>
</style>
<script type="application/ecmascript"><![CDATA[
document.addEventListener('DOMContentLoaded', (event) => {
  highlightEdges();
  highlightAdjacentNodes();
});
]]></script>
</svg>
