<?xml version="1.0" encoding="UTF-8" standalone="no"?>
<!DOCTYPE svg PUBLIC "-//W3C//DTD SVG 1.1//EN"
 "http://www.w3.org/Graphics/SVG/1.1/DTD/svg11.dtd">
<!-- Generated by graphviz version 2.43.0 (0)
 -->
<!-- Title: options Pages: 1 -->
<svg width="643pt" height="490pt"
 viewBox="0.00 0.00 643.00 490.00" xmlns="http://www.w3.org/2000/svg" xmlns:xlink="http://www.w3.org/1999/xlink">
<g id="graph0" class="graph" transform="scale(1 1) rotate(0) translate(4 486)">
<title>options</title>
<!-- Node1 -->
<g id="Node000001" class="node">
<title>Node1</title>
<g id="a_Node000001"><a xlink:title=" ">
<polygon fill="#999999" stroke="#666666" points="635,-402 582,-402 582,-383 635,-383 635,-402"/>
<text text-anchor="middle" x="608.5" y="-390" font-family="Helvetica,sans-Serif" font-size="10.00">options</text>
</a>
</g>
</g>
<!-- Node2 -->
<g id="Node000002" class="node">
<title>Node2</title>
<g id="a_Node000002"><a xlink:href="problem_8cpp.html#ae36fc572e3716fb2dbe8ff77cfe1ee10" target="_top" xlink:title=" ">
<polygon fill="white" stroke="#666666" points="436,-482 353,-482 353,-463 436,-463 436,-482"/>
<text text-anchor="middle" x="394.5" y="-470" font-family="Helvetica,sans-Serif" font-size="10.00">load_problem</text>
</a>
</g>
</g>
<!-- Node1&#45;&gt;Node2 -->
<g id="edge1_Node000001_Node000002" class="edge">
<title>Node1&#45;&gt;Node2</title>
<g id="a_edge1_Node000001_Node000002"><a xlink:title=" ">
<path fill="none" stroke="#63b8ff" d="M572.49,-405.71C529.78,-421.83 458.6,-448.69 420.83,-462.94"/>
<polygon fill="#63b8ff" stroke="#63b8ff" points="573.81,-408.96 581.93,-402.15 571.34,-402.41 573.81,-408.96"/>
</a>
</g>
</g>
<!-- Node4 -->
<g id="Node000004" class="node">
<title>Node4</title>
<g id="a_Node000004"><a xlink:href="classOptions.html#a8ca2e3915e8acf3cd04e02180e66e9ab" target="_top" xlink:title=" ">
<polygon fill="white" stroke="#666666" points="546,-383 472,-383 472,-364 546,-364 546,-383"/>
<text text-anchor="middle" x="509" y="-371" font-family="Helvetica,sans-Serif" font-size="10.00">set_params</text>
</a>
</g>
</g>
<!-- Node1&#45;&gt;Node4 -->
<g id="edge3_Node000001_Node000004" class="edge">
<title>Node1&#45;&gt;Node4</title>
<g id="a_edge3_Node000001_Node000004"><a xlink:title=" ">
<path fill="none" stroke="#63b8ff" d="M571.96,-385.57C563.53,-383.93 554.53,-382.18 546.08,-380.53"/>
<polygon fill="#63b8ff" stroke="#63b8ff" points="571.4,-389.03 581.88,-387.51 572.74,-382.16 571.4,-389.03"/>
</a>
</g>
</g>
<!-- Node3 -->
<g id="Node000003" class="node">
<title>Node3</title>
<g id="a_Node000003"><a xlink:href="alpaqa-driver_8cpp.html#ac0f2228420376f4db7e1274f2b41667c" target="_top" xlink:title=" ">
<polygon fill="white" stroke="#666666" points="90.5,-421 49.5,-421 49.5,-402 90.5,-402 90.5,-421"/>
<text text-anchor="middle" x="70" y="-409" font-family="Helvetica,sans-Serif" font-size="10.00">main</text>
</a>
</g>
</g>
<!-- Node2&#45;&gt;Node3 -->
<g id="edge2_Node000002_Node000003" class="edge">
<title>Node2&#45;&gt;Node3</title>
<g id="a_edge2_Node000002_Node000003"><a xlink:title=" ">
<path fill="none" stroke="#63b8ff" d="M342.6,-477.9C297.93,-481.09 231.59,-482.08 176,-467.5 140.23,-458.12 103.15,-434.48 84.07,-421.11"/>
<polygon fill="#63b8ff" stroke="#63b8ff" points="342.94,-481.38 352.63,-477.11 342.39,-474.4 342.94,-481.38"/>
</a>
</g>
</g>
<!-- Node5 -->
<g id="Node000005" class="node">
<title>Node5</title>
<g id="a_Node000005"><a xlink:href="options_8hpp.html#a91fca5414dbe50bec5104c59d9ebda11" target="_top" xlink:title=" ">
<polygon fill="white" stroke="#666666" points="431.5,-289 357.5,-289 357.5,-270 431.5,-270 431.5,-289"/>
<text text-anchor="middle" x="394.5" y="-277" font-family="Helvetica,sans-Serif" font-size="10.00">set_params</text>
</a>
</g>
</g>
<!-- Node4&#45;&gt;Node5 -->
<g id="edge4_Node000004_Node000005" class="edge">
<title>Node4&#45;&gt;Node5</title>
<g id="a_edge4_Node000004_Node000005"><a xlink:title=" ">
<path fill="none" stroke="#63b8ff" d="M488.45,-357.17C464.88,-337.47 426.03,-305.01 406.89,-289.01"/>
<polygon fill="#63b8ff" stroke="#63b8ff" points="486.47,-360.07 496.38,-363.79 490.95,-354.7 486.47,-360.07"/>
</a>
</g>
</g>
<!-- Node5&#45;&gt;Node3 -->
<g id="edge13_Node000005_Node000003" class="edge">
<title>Node5&#45;&gt;Node3</title>
<g id="a_edge13_Node000005_Node000003"><a xlink:title=" ">
<path fill="none" stroke="#63b8ff" d="M380.33,-297.16C366.48,-314.44 343.11,-340.18 317,-354.5 277.31,-376.26 141.59,-400 90.58,-408.37"/>
<polygon fill="#63b8ff" stroke="#63b8ff" points="383.29,-299.05 386.66,-289.01 377.77,-294.76 383.29,-299.05"/>
</a>
</g>
</g>
<!-- Node6 -->
<g id="Node000006" class="node">
<title>Node6</title>
<g id="a_Node000006"><a xlink:href="alpaqa-driver_8cpp.html#a53c823aeddf0a1b037645504d26ee7cd" target="_top" xlink:title=" ">
<polygon fill="white" stroke="#666666" points="297,-308 196,-308 196,-289 297,-289 297,-308"/>
<text text-anchor="middle" x="246.5" y="-296" font-family="Helvetica,sans-Serif" font-size="10.00">get_output_paths</text>
</a>
</g>
</g>
<!-- Node5&#45;&gt;Node6 -->
<g id="edge5_Node000005_Node000006" class="edge">
<title>Node5&#45;&gt;Node6</title>
<g id="a_edge5_Node000005_Node000006"><a xlink:title=" ">
<path fill="none" stroke="#63b8ff" d="M347.26,-285.52C331.33,-287.59 313.42,-289.92 297.22,-292.03"/>
<polygon fill="#63b8ff" stroke="#63b8ff" points="347.95,-288.96 357.41,-284.2 347.04,-282.02 347.95,-288.96"/>
</a>
</g>
</g>
<!-- Node7 -->
<g id="Node000007" class="node">
<title>Node7</title>
<g id="a_Node000007"><a xlink:href="alpaqa-driver_8cpp.html#a62667720f096806ed08c60e4207f8972" target="_top" xlink:title=" ">
<polygon fill="white" stroke="#666666" points="301,-458 192,-458 192,-439 301,-439 301,-458"/>
<text text-anchor="middle" x="246.5" y="-446" font-family="Helvetica,sans-Serif" font-size="10.00">get_output_stream</text>
</a>
</g>
</g>
<!-- Node5&#45;&gt;Node7 -->
<g id="edge7_Node000005_Node000007" class="edge">
<title>Node5&#45;&gt;Node7</title>
<g id="a_edge7_Node000005_Node000007"><a xlink:title=" ">
<path fill="none" stroke="#63b8ff" d="M389.15,-299.01C380.89,-331.39 359.8,-396.05 317,-430.5 312.24,-434.33 306.76,-437.35 301,-439.74"/>
<polygon fill="#63b8ff" stroke="#63b8ff" points="392.62,-299.55 391.55,-289.01 385.81,-297.91 392.62,-299.55"/>
</a>
</g>
</g>
<!-- Node8 -->
<g id="Node000008" class="node">
<title>Node8</title>
<g id="a_Node000008"><a xlink:href="alpaqa-driver_8cpp.html#a3430011226186bf05d5c2552270587b7" target="_top" xlink:title=" ">
<polygon fill="white" stroke="#666666" points="300,-421 193,-421 193,-402 300,-402 300,-421"/>
<text text-anchor="middle" x="246.5" y="-409" font-family="Helvetica,sans-Serif" font-size="10.00">get_solver_builder</text>
</a>
</g>
</g>
<!-- Node5&#45;&gt;Node8 -->
<g id="edge9_Node000005_Node000008" class="edge">
<title>Node5&#45;&gt;Node8</title>
<g id="a_edge9_Node000005_Node000008"><a xlink:title=" ">
<path fill="none" stroke="#63b8ff" d="M384.85,-298.21C372.87,-322.18 349.01,-363.49 317,-387.5 308.73,-393.7 298.73,-398.38 288.93,-401.88"/>
<polygon fill="#63b8ff" stroke="#63b8ff" points="388.05,-299.62 389.25,-289.1 381.75,-296.58 388.05,-299.62"/>
</a>
</g>
</g>
<!-- Node9 -->
<g id="Node000009" class="node">
<title>Node9</title>
<g id="a_Node000009"><a xlink:href="namespaceanonymous__namespace_02problem_8cpp_03.html#ab42fb3dc0421d6c6c1f45d753a95a2c4" target="_top" xlink:title=" ">
<polygon fill="white" stroke="#666666" points="314,-176 179,-176 179,-135 314,-135 314,-176"/>
<text text-anchor="start" x="187" y="-164" font-family="Helvetica,sans-Serif" font-size="10.00">anonymous_namespace</text>
<text text-anchor="start" x="187" y="-153" font-family="Helvetica,sans-Serif" font-size="10.00">{problem::cpp}::load</text>
<text text-anchor="middle" x="246.5" y="-142" font-family="Helvetica,sans-Serif" font-size="10.00">_initial_guess</text>
</a>
</g>
</g>
<!-- Node5&#45;&gt;Node9 -->
<g id="edge11_Node000005_Node000009" class="edge">
<title>Node5&#45;&gt;Node9</title>
<g id="a_edge11_Node000005_Node000009"><a xlink:title=" ">
<path fill="none" stroke="#63b8ff" d="M376.7,-263.02C361.48,-248.31 338.25,-226.39 317,-208.5 303.77,-197.36 288.54,-185.63 275.71,-176.05"/>
<polygon fill="#63b8ff" stroke="#63b8ff" points="374.26,-265.54 383.87,-270 379.14,-260.52 374.26,-265.54"/>
</a>
</g>
</g>
<!-- Node10 -->
<g id="Node000010" class="node">
<title>Node10</title>
<g id="a_Node000010"><a xlink:href="alm-driver_8hpp.html#ae4ef291d9ec9d55ee804b5723ea2e641" target="_top" xlink:title=" ">
<polygon fill="white" stroke="#666666" points="298,-117 195,-117 195,-98 298,-98 298,-117"/>
<text text-anchor="middle" x="246.5" y="-105" font-family="Helvetica,sans-Serif" font-size="10.00">make_alm_solver</text>
</a>
</g>
</g>
<!-- Node5&#45;&gt;Node10 -->
<g id="edge14_Node000005_Node000010" class="edge">
<title>Node5&#45;&gt;Node10</title>
<g id="a_edge14_Node000005_Node000010"><a xlink:title=" ">
<path fill="none" stroke="#63b8ff" d="M389.37,-260.04C381.36,-227.18 360.53,-160.82 317,-125.5 311.48,-121.02 304.98,-117.65 298.2,-115.11"/>
<polygon fill="#63b8ff" stroke="#63b8ff" points="385.96,-260.84 391.61,-269.81 392.79,-259.28 385.96,-260.84"/>
</a>
</g>
</g>
<!-- Node11 -->
<g id="Node000011" class="node">
<title>Node11</title>
<g id="a_Node000011"><a xlink:href="namespaceanonymous__namespace_02fista-driver_8cpp_03.html#a479d5f0dacbf404f04a694bb1be6f6c5" target="_top" xlink:title=" ">
<polygon fill="white" stroke="#666666" points="138.5,-90 1.5,-90 1.5,-49 138.5,-49 138.5,-90"/>
<text text-anchor="start" x="9.5" y="-78" font-family="Helvetica,sans-Serif" font-size="10.00">anonymous_namespace</text>
<text text-anchor="start" x="9.5" y="-67" font-family="Helvetica,sans-Serif" font-size="10.00">{fista&#45;driver::cpp}</text>
<text text-anchor="middle" x="70" y="-56" font-family="Helvetica,sans-Serif" font-size="10.00">::make_fista_driver_impl</text>
</a>
</g>
</g>
<!-- Node5&#45;&gt;Node11 -->
<g id="edge18_Node000005_Node000011" class="edge">
<title>Node5&#45;&gt;Node11</title>
<g id="a_edge18_Node000005_Node000011"><a xlink:title=" ">
<path fill="none" stroke="#63b8ff" d="M392.17,-259.84C388.31,-219.98 373.46,-129.96 317,-88.5 266.08,-51.1 192.17,-50.49 138.67,-56.69"/>
<polygon fill="#63b8ff" stroke="#63b8ff" points="388.69,-260.2 393,-269.87 395.66,-259.61 388.69,-260.2"/>
</a>
</g>
</g>
<!-- Node12 -->
<g id="Node000012" class="node">
<title>Node12</title>
<g id="a_Node000012"><a xlink:href="namespaceanonymous__namespace_02panoc-driver_8cpp_03.html#ab2ca1091ea82102367666b62756cd7f6" target="_top" xlink:title=" ">
<polygon fill="white" stroke="#666666" points="140,-263 0,-263 0,-222 140,-222 140,-263"/>
<text text-anchor="start" x="8" y="-251" font-family="Helvetica,sans-Serif" font-size="10.00">anonymous_namespace</text>
<text text-anchor="start" x="8" y="-240" font-family="Helvetica,sans-Serif" font-size="10.00">{panoc&#45;driver::cpp}</text>
<text text-anchor="middle" x="70" y="-229" font-family="Helvetica,sans-Serif" font-size="10.00">::make_panoc_like_driver</text>
</a>
</g>
</g>
<!-- Node5&#45;&gt;Node12 -->
<g id="edge22_Node000005_Node000012" class="edge">
<title>Node5&#45;&gt;Node12</title>
<g id="a_edge22_Node000005_Node000012"><a xlink:title=" ">
<path fill="none" stroke="#63b8ff" d="M347.43,-274.21C293.22,-268 202.69,-257.61 140.07,-250.42"/>
<polygon fill="#63b8ff" stroke="#63b8ff" points="347.11,-277.7 357.44,-275.36 347.91,-270.75 347.11,-277.7"/>
</a>
</g>
</g>
<!-- Node13 -->
<g id="Node000013" class="node">
<title>Node13</title>
<g id="a_Node000013"><a xlink:href="namespaceanonymous__namespace_02pantr-driver_8cpp_03.html#a39b6aa8ff07d8400d404f191bdccd499" target="_top" xlink:title=" ">
<polygon fill="white" stroke="#666666" points="139,-168 1,-168 1,-127 139,-127 139,-168"/>
<text text-anchor="start" x="9" y="-156" font-family="Helvetica,sans-Serif" font-size="10.00">anonymous_namespace</text>
<text text-anchor="start" x="9" y="-145" font-family="Helvetica,sans-Serif" font-size="10.00">{pantr&#45;driver::cpp}</text>
<text text-anchor="middle" x="70" y="-134" font-family="Helvetica,sans-Serif" font-size="10.00">::make_pantr_like_solver</text>
</a>
</g>
</g>
<!-- Node5&#45;&gt;Node13 -->
<g id="edge23_Node000005_Node000013" class="edge">
<title>Node5&#45;&gt;Node13</title>
<g id="a_edge23_Node000005_Node000013"><a xlink:title=" ">
<path fill="none" stroke="#63b8ff" d="M356.57,-266.46C295.07,-244.75 178.16,-203.44 176,-202.5 152.61,-192.3 127.25,-179.07 107.31,-168.15"/>
<polygon fill="#63b8ff" stroke="#63b8ff" points="355.7,-269.87 366.29,-269.9 358.03,-263.27 355.7,-269.87"/>
</a>
</g>
</g>
<!-- Node14 -->
<g id="Node000014" class="node">
<title>Node14</title>
<g id="a_Node000014"><a xlink:href="namespaceanonymous__namespace_02fista-driver_8cpp_03.html#a6f96d677b5961c6a4fcaa773f37ca65b" target="_top" xlink:title=" ">
<polygon fill="white" stroke="#666666" points="317,-41 176,-41 176,0 317,0 317,-41"/>
<text text-anchor="start" x="184" y="-29" font-family="Helvetica,sans-Serif" font-size="10.00">anonymous_namespace</text>
<text text-anchor="start" x="184" y="-18" font-family="Helvetica,sans-Serif" font-size="10.00">{fista&#45;driver::cpp}</text>
<text text-anchor="middle" x="246.5" y="-7" font-family="Helvetica,sans-Serif" font-size="10.00">::make_inner_fista_solver</text>
</a>
</g>
</g>
<!-- Node5&#45;&gt;Node14 -->
<g id="edge19_Node000005_Node000014" class="edge">
<title>Node5&#45;&gt;Node14</title>
<g id="a_edge19_Node000005_Node000014"><a xlink:title=" ">
<path fill="none" stroke="#63b8ff" d="M391.72,-259.57C386.96,-217.15 370.41,-116.81 317,-55.5 312.21,-50 306.35,-45.26 300.08,-41.21"/>
<polygon fill="#63b8ff" stroke="#63b8ff" points="388.26,-260.11 392.75,-269.7 395.22,-259.4 388.26,-260.11"/>
</a>
</g>
</g>
<!-- Node15 -->
<g id="Node000015" class="node">
<title>Node15</title>
<g id="a_Node000015"><a xlink:href="alm-driver_8hpp.html#a51b2a2cde56762bcb43a2f4da0913f98" target="_top" xlink:title=" ">
<polygon fill="white" stroke="#666666" points="301,-345 192,-345 192,-326 301,-326 301,-345"/>
<text text-anchor="middle" x="246.5" y="-333" font-family="Helvetica,sans-Serif" font-size="10.00">make_inner_solver</text>
</a>
</g>
</g>
<!-- Node5&#45;&gt;Node15 -->
<g id="edge21_Node000005_Node000015" class="edge">
<title>Node5&#45;&gt;Node15</title>
<g id="a_edge21_Node000005_Node000015"><a xlink:title=" ">
<path fill="none" stroke="#63b8ff" d="M367.07,-293.77C352.57,-301.22 334.11,-310.09 317,-316.5 307.51,-320.06 297.07,-323.26 287.23,-325.99"/>
<polygon fill="#63b8ff" stroke="#63b8ff" points="368.73,-296.85 375.98,-289.12 365.49,-290.65 368.73,-296.85"/>
</a>
</g>
</g>
<!-- Node6&#45;&gt;Node3 -->
<g id="edge6_Node000006_Node000003" class="edge">
<title>Node6&#45;&gt;Node3</title>
<g id="a_edge6_Node000006_Node000003"><a xlink:title=" ">
<path fill="none" stroke="#63b8ff" d="M186.44,-311.63C182.83,-313.09 179.32,-314.71 176,-316.5 133.8,-339.25 94.97,-382.46 78.86,-401.76"/>
<polygon fill="#63b8ff" stroke="#63b8ff" points="187.93,-314.81 196.14,-308.11 185.54,-308.23 187.93,-314.81"/>
</a>
</g>
</g>
<!-- Node7&#45;&gt;Node3 -->
<g id="edge8_Node000007_Node000003" class="edge">
<title>Node7&#45;&gt;Node3</title>
<g id="a_edge8_Node000007_Node000003"><a xlink:title=" ">
<path fill="none" stroke="#63b8ff" d="M190.71,-436.88C156.58,-429.65 114.73,-420.77 90.64,-415.66"/>
<polygon fill="#63b8ff" stroke="#63b8ff" points="190.05,-440.32 200.56,-438.97 191.51,-433.47 190.05,-440.32"/>
</a>
</g>
</g>
<!-- Node8&#45;&gt;Node3 -->
<g id="edge10_Node000008_Node000003" class="edge">
<title>Node8&#45;&gt;Node3</title>
<g id="a_edge10_Node000008_Node000003"><a xlink:title=" ">
<path fill="none" stroke="#63b8ff" d="M182.34,-411.5C149.93,-411.5 112.7,-411.5 90.56,-411.5"/>
<polygon fill="#63b8ff" stroke="#63b8ff" points="182.67,-415 192.67,-411.5 182.67,-408 182.67,-415"/>
</a>
</g>
</g>
<!-- Node9&#45;&gt;Node9 -->
<g id="edge12_Node000009_Node000009" class="edge">
<title>Node9&#45;&gt;Node9</title>
<g id="a_edge12_Node000009_Node000009"><a xlink:title=" ">
<path fill="none" stroke="#63b8ff" d="M271.96,-185.96C268.18,-190.74 259.69,-194 246.5,-194 225.4,-194 216.33,-185.65 219.3,-176.1"/>
<polygon fill="#63b8ff" stroke="#63b8ff" points="275.41,-186.55 273.7,-176.1 268.52,-185.34 275.41,-186.55"/>
</a>
</g>
</g>
<!-- Node10&#45;&gt;Node11 -->
<g id="edge15_Node000010_Node000011" class="edge">
<title>Node10&#45;&gt;Node11</title>
<g id="a_edge15_Node000010_Node000011"><a xlink:title=" ">
<path fill="none" stroke="#63b8ff" d="M191.38,-95.71C174.75,-92.09 156.24,-88.06 138.81,-84.27"/>
<polygon fill="#63b8ff" stroke="#63b8ff" points="190.95,-99.2 201.47,-97.91 192.44,-92.36 190.95,-99.2"/>
</a>
</g>
</g>
<!-- Node10&#45;&gt;Node12 -->
<g id="edge16_Node000010_Node000012" class="edge">
<title>Node10&#45;&gt;Node12</title>
<g id="a_edge16_Node000010_Node000012"><a xlink:title=" ">
<path fill="none" stroke="#63b8ff" d="M185.27,-120.12C182.02,-121.7 178.91,-123.49 176,-125.5 153.18,-141.28 158.11,-155.48 140,-176.5 126.04,-192.7 108.63,-209.33 94.79,-221.85"/>
<polygon fill="#63b8ff" stroke="#63b8ff" points="186.82,-123.26 194.67,-116.16 184.1,-116.81 186.82,-123.26"/>
</a>
</g>
</g>
<!-- Node10&#45;&gt;Node13 -->
<g id="edge17_Node000010_Node000013" class="edge">
<title>Node10&#45;&gt;Node13</title>
<g id="a_edge17_Node000010_Node000013"><a xlink:title=" ">
<path fill="none" stroke="#63b8ff" d="M193.87,-119.34C176.68,-123.28 157.26,-127.73 139.03,-131.91"/>
<polygon fill="#63b8ff" stroke="#63b8ff" points="194.74,-122.73 203.7,-117.08 193.17,-115.9 194.74,-122.73"/>
</a>
</g>
</g>
<!-- Node14&#45;&gt;Node11 -->
<g id="edge20_Node000014_Node000011" class="edge">
<title>Node14&#45;&gt;Node11</title>
<g id="a_edge20_Node000014_Node000011"><a xlink:title=" ">
<path fill="none" stroke="#63b8ff" d="M165.94,-42.84C156.81,-45.4 147.57,-48 138.62,-50.51"/>
<polygon fill="#63b8ff" stroke="#63b8ff" points="167.1,-46.15 175.78,-40.08 165.21,-39.41 167.1,-46.15"/>
</a>
</g>
</g>
</g>
</svg>
