<?xml version="1.0" encoding="UTF-8" standalone="no"?>
<!DOCTYPE svg PUBLIC "-//W3C//DTD SVG 1.1//EN"
 "http://www.w3.org/Graphics/SVG/1.1/DTD/svg11.dtd">
<!-- Generated by graphviz version 2.43.0 (0)
 -->
<!-- Title: reset Pages: 1 -->
<svg width="267pt" height="134pt"
 viewBox="0.00 0.00 267.00 134.00" xmlns="http://www.w3.org/2000/svg" xmlns:xlink="http://www.w3.org/1999/xlink">

<svg id="main" version="1.1" xmlns="http://www.w3.org/2000/svg" xmlns:xlink="http://www.w3.org/1999/xlink" xml:space="preserve" onload="init(evt)">
<style type="text/css"><![CDATA[
.node, .edge {opacity: 0.7;}
.node.selected, .edge.selected {opacity: 1;}
.edge:hover path { stroke: red; }
.edge:hover polygon { stroke: red; fill: red; }
]]></style>
<script type="application/ecmascript" xlink:href="svg.min.js"/>
<svg id="graph" class="graph">
<g id="graph0" class="graph" transform="scale(1 1) rotate(0) translate(4 130)">
<title>reset</title>
<!-- Node1 -->
<g id="Node000001" class="node">
<title>Node1</title>
<g id="a_Node000001"><a xlink:title="Throw away the approximation and all previous vectors s and y.">
<polygon fill="#999999" stroke="#666666" points="259,-72.5 218,-72.5 218,-53.5 259,-53.5 259,-72.5"/>
<text text-anchor="middle" x="238.5" y="-60.5" font-family="Helvetica,sans-Serif" font-size="10.00">reset</text>
</a>
</g>
</g>
<!-- Node2 -->
<g id="Node000002" class="node">
<title>Node2</title>
<g id="a_Node000002"><a xlink:href="structalpaqa_1_1LBFGSDirection.html#a0a4209f98cf9b6125e83cc5d3ec47a8b" target="_top" xlink:title=" ">
<polygon fill="white" stroke="#666666" points="156.5,-126 25.5,-126 25.5,-96 156.5,-96 156.5,-126"/>
<text text-anchor="start" x="33.5" y="-114" font-family="Helvetica,sans-Serif" font-size="10.00">alpaqa::LBFGSDirection</text>
<text text-anchor="middle" x="91" y="-103" font-family="Helvetica,sans-Serif" font-size="10.00">::changed_γ</text>
</a>
</g>
</g>
<!-- Node1&#45;&gt;Node2 -->
<g id="edge1_Node000001_Node000002" class="edge">
<title>Node1&#45;&gt;Node2</title>
<g id="a_edge1_Node000001_Node000002"><a xlink:title=" ">
<path fill="none" stroke="#63b8ff" d="M208.35,-76.56C199.95,-80.21 190.7,-83.98 182,-87 172.83,-90.18 163.02,-93.19 153.37,-95.94"/>
<polygon fill="#63b8ff" stroke="#63b8ff" points="210.03,-79.65 217.74,-72.39 207.18,-73.25 210.03,-79.65"/>
</a>
</g>
</g>
<!-- Node3 -->
<g id="Node000003" class="node">
<title>Node3</title>
<g id="a_Node000003"><a xlink:href="structalpaqa_1_1LBFGSDirection.html#ad20897c5c8bd47f5d4005989bead0e55" target="_top" xlink:title=" ">
<polygon fill="white" stroke="#666666" points="156.5,-78 25.5,-78 25.5,-48 156.5,-48 156.5,-78"/>
<text text-anchor="start" x="33.5" y="-66" font-family="Helvetica,sans-Serif" font-size="10.00">alpaqa::LBFGSDirection</text>
<text text-anchor="middle" x="91" y="-55" font-family="Helvetica,sans-Serif" font-size="10.00">::reset</text>
</a>
</g>
</g>
<!-- Node1&#45;&gt;Node3 -->
<g id="edge2_Node000001_Node000003" class="edge">
<title>Node1&#45;&gt;Node3</title>
<g id="a_edge2_Node000001_Node000003"><a xlink:title=" ">
<path fill="none" stroke="#63b8ff" d="M207.82,-63C193.03,-63 174.52,-63 156.67,-63"/>
<polygon fill="#63b8ff" stroke="#63b8ff" points="207.88,-66.5 217.88,-63 207.88,-59.5 207.88,-66.5"/>
</a>
</g>
</g>
<!-- Node4 -->
<g id="Node000004" class="node">
<title>Node4</title>
<g id="a_Node000004"><a xlink:href="structalpaqa_1_1StructuredLBFGSDirection.html#ad20897c5c8bd47f5d4005989bead0e55" target="_top" xlink:title=" ">
<polygon fill="white" stroke="#666666" points="182,-30 0,-30 0,0 182,0 182,-30"/>
<text text-anchor="start" x="8" y="-18" font-family="Helvetica,sans-Serif" font-size="10.00">alpaqa::StructuredLBFGSDirection</text>
<text text-anchor="middle" x="91" y="-7" font-family="Helvetica,sans-Serif" font-size="10.00">::reset</text>
</a>
</g>
</g>
<!-- Node1&#45;&gt;Node4 -->
<g id="edge3_Node000001_Node000004" class="edge">
<title>Node1&#45;&gt;Node4</title>
<g id="a_edge3_Node000001_Node000004"><a xlink:title=" ">
<path fill="none" stroke="#63b8ff" d="M208.35,-49.44C199.95,-45.79 190.7,-42.02 182,-39 172.83,-35.82 163.02,-32.81 153.37,-30.06"/>
<polygon fill="#63b8ff" stroke="#63b8ff" points="207.18,-52.75 217.74,-53.61 210.03,-46.35 207.18,-52.75"/>
</a>
</g>
</g>
</g>
</svg>
</svg>

<style type='text/css'>
<![CDATA[
[data-mouse-over-selected='false'] { opacity: 0.7; }
[data-mouse-over-selected='true']  { opacity: 1.0; }
]]>
</style>
<script type="application/ecmascript"><![CDATA[
document.addEventListener('DOMContentLoaded', (event) => {
  highlightEdges();
  highlightAdjacentNodes();
});
]]></script>
</svg>
