<?xml version="1.0" encoding="UTF-8" standalone="no"?>
<!DOCTYPE svg PUBLIC "-//W3C//DTD SVG 1.1//EN"
 "http://www.w3.org/Graphics/SVG/1.1/DTD/svg11.dtd">
<!-- Generated by graphviz version 2.43.0 (0)
 -->
<!-- Title: set_param Pages: 1 -->
<svg width="868pt" height="504pt"
 viewBox="0.00 0.00 868.00 503.50" xmlns="http://www.w3.org/2000/svg" xmlns:xlink="http://www.w3.org/1999/xlink">
<g id="graph0" class="graph" transform="scale(1 1) rotate(0) translate(4 499.5)">
<title>set_param</title>
<!-- Node1 -->
<g id="Node000001" class="node">
<title>Node1</title>
<g id="a_Node000001"><a xlink:title="Update/overwrite the first argument based on the JSON object j.">
<polygon fill="#999999" stroke="#666666" points="860,-332 792,-332 792,-313 860,-313 860,-332"/>
<text text-anchor="middle" x="826" y="-320" font-family="Helvetica,sans-Serif" font-size="10.00">set_param</text>
</a>
</g>
</g>
<!-- Node2 -->
<g id="Node000002" class="node">
<title>Node2</title>
<g id="a_Node000002"><a xlink:href="structalpaqa_1_1params_1_1attribute__accessor_3_01json_01_4.html#a0a5b45f6960fbd1a33565256fa3570c6" target="_top" xlink:title=" ">
<polygon fill="white" stroke="#666666" points="756,-495.5 616,-495.5 616,-465.5 756,-465.5 756,-495.5"/>
<text text-anchor="start" x="624" y="-483.5" font-family="Helvetica,sans-Serif" font-size="10.00">alpaqa::params::attribute</text>
<text text-anchor="middle" x="686" y="-472.5" font-family="Helvetica,sans-Serif" font-size="10.00">_accessor&lt; json &gt;::make</text>
</a>
</g>
</g>
<!-- Node1&#45;&gt;Node2 -->
<g id="edge1_Node000001_Node000002" class="edge">
<title>Node1&#45;&gt;Node2</title>
<g id="a_edge1_Node000001_Node000002"><a xlink:title=" ">
<path fill="none" stroke="#63b8ff" d="M820.02,-341.9C811.62,-370.85 791.92,-425.31 756,-456.5 752.07,-459.91 747.63,-462.84 742.95,-465.36"/>
<polygon fill="#63b8ff" stroke="#63b8ff" points="823.42,-342.72 822.7,-332.15 816.67,-340.86 823.42,-342.72"/>
</a>
</g>
</g>
<!-- Node3 -->
<g id="Node000003" class="node">
<title>Node3</title>
<g id="a_Node000003"><a xlink:href="structalpaqa_1_1params_1_1attribute__accessor_3_01ParamString_01_4.html#a0a5b45f6960fbd1a33565256fa3570c6" target="_top" xlink:title=" ">
<polygon fill="white" stroke="#666666" points="756,-447 616,-447 616,-406 756,-406 756,-447"/>
<text text-anchor="start" x="624" y="-435" font-family="Helvetica,sans-Serif" font-size="10.00">alpaqa::params::attribute</text>
<text text-anchor="start" x="624" y="-424" font-family="Helvetica,sans-Serif" font-size="10.00">_accessor&lt; ParamString</text>
<text text-anchor="middle" x="686" y="-413" font-family="Helvetica,sans-Serif" font-size="10.00"> &gt;::make</text>
</a>
</g>
</g>
<!-- Node1&#45;&gt;Node3 -->
<g id="edge2_Node000001_Node000003" class="edge">
<title>Node1&#45;&gt;Node3</title>
<g id="a_edge2_Node000001_Node000003"><a xlink:title=" ">
<path fill="none" stroke="#63b8ff" d="M812.21,-340.33C799.51,-356.96 778.72,-381.54 756,-397.5 751.64,-400.56 746.91,-403.39 742.03,-405.97"/>
<polygon fill="#63b8ff" stroke="#63b8ff" points="815.23,-342.13 818.38,-332.01 809.61,-337.95 815.23,-342.13"/>
</a>
</g>
</g>
<!-- Node4 -->
<g id="Node000004" class="node">
<title>Node4</title>
<g id="a_Node000004"><a xlink:href="namespacealpaqa_1_1params.html#af8d85f5413c4507303b00e5fb7279aea" target="_top" xlink:title=" ">
<polygon fill="white" stroke="#666666" points="720,-388 652,-388 652,-369 720,-369 720,-388"/>
<text text-anchor="middle" x="686" y="-376" font-family="Helvetica,sans-Serif" font-size="10.00">set_param</text>
</a>
</g>
</g>
<!-- Node1&#45;&gt;Node4 -->
<g id="edge3_Node000001_Node000004" class="edge">
<title>Node1&#45;&gt;Node4</title>
<g id="a_edge3_Node000001_Node000004"><a xlink:title=" ">
<path fill="none" stroke="#63b8ff" d="M801.42,-337.4C788.41,-345.12 771.74,-354.23 756,-360.5 744.61,-365.04 731.72,-368.76 720.18,-371.61"/>
<polygon fill="#63b8ff" stroke="#63b8ff" points="803.45,-340.26 810.18,-332.08 799.82,-334.28 803.45,-340.26"/>
</a>
</g>
</g>
<!-- Node5 -->
<g id="Node000005" class="node">
<title>Node5</title>
<g id="a_Node000005"><a xlink:href="namespacealpaqa_1_1params.html#a257fd29e6f4f447cb00eb1f8affdebec" target="_top" xlink:title=" ">
<polygon fill="white" stroke="#666666" points="720,-351 652,-351 652,-332 720,-332 720,-351"/>
<text text-anchor="middle" x="686" y="-339" font-family="Helvetica,sans-Serif" font-size="10.00">set_param</text>
</a>
</g>
</g>
<!-- Node1&#45;&gt;Node5 -->
<g id="edge4_Node000001_Node000005" class="edge">
<title>Node1&#45;&gt;Node5</title>
<g id="a_edge4_Node000001_Node000005"><a xlink:title=" ">
<path fill="none" stroke="#63b8ff" d="M781.9,-328.43C762.01,-331.17 738.77,-334.37 720.26,-336.92"/>
<polygon fill="#63b8ff" stroke="#63b8ff" points="782.52,-331.88 791.95,-327.05 781.56,-324.95 782.52,-331.88"/>
</a>
</g>
</g>
<!-- Node6 -->
<g id="Node000006" class="node">
<title>Node6</title>
<g id="a_Node000006"><a xlink:href="namespacealpaqa_1_1params.html#a09b0cea46e22a098adb003df71cfbe14" target="_top" xlink:title=" ">
<polygon fill="white" stroke="#666666" points="720,-314 652,-314 652,-295 720,-295 720,-314"/>
<text text-anchor="middle" x="686" y="-302" font-family="Helvetica,sans-Serif" font-size="10.00">set_param</text>
</a>
</g>
</g>
<!-- Node1&#45;&gt;Node6 -->
<g id="edge5_Node000001_Node000006" class="edge">
<title>Node1&#45;&gt;Node6</title>
<g id="a_edge5_Node000001_Node000006"><a xlink:title=" ">
<path fill="none" stroke="#63b8ff" d="M781.9,-316.88C762.01,-314.28 738.77,-311.25 720.26,-308.84"/>
<polygon fill="#63b8ff" stroke="#63b8ff" points="781.58,-320.37 791.95,-318.19 782.48,-313.42 781.58,-320.37"/>
</a>
</g>
</g>
<!-- Node7 -->
<g id="Node000007" class="node">
<title>Node7</title>
<g id="a_Node000007"><a xlink:href="namespacealpaqa_1_1params.html#ac4f7014f0993230c417d5f192b784f6a" target="_top" xlink:title=" ">
<polygon fill="white" stroke="#666666" points="720,-277 652,-277 652,-258 720,-258 720,-277"/>
<text text-anchor="middle" x="686" y="-265" font-family="Helvetica,sans-Serif" font-size="10.00">set_param</text>
</a>
</g>
</g>
<!-- Node1&#45;&gt;Node7 -->
<g id="edge6_Node000001_Node000007" class="edge">
<title>Node1&#45;&gt;Node7</title>
<g id="a_edge6_Node000001_Node000007"><a xlink:title=" ">
<path fill="none" stroke="#63b8ff" d="M800.27,-307.97C787.38,-300.81 771.18,-292.47 756,-286.5 744.55,-282 731.64,-278.14 720.11,-275.09"/>
<polygon fill="#63b8ff" stroke="#63b8ff" points="798.58,-311.03 809.01,-312.91 802.03,-304.94 798.58,-311.03"/>
</a>
</g>
</g>
<!-- Node8 -->
<g id="Node000008" class="node">
<title>Node8</title>
<g id="a_Node000008"><a xlink:href="classOptions.html#a8ca2e3915e8acf3cd04e02180e66e9ab" target="_top" xlink:title=" ">
<polygon fill="white" stroke="#666666" points="580,-220 463,-220 463,-201 580,-201 580,-220"/>
<text text-anchor="middle" x="521.5" y="-208" font-family="Helvetica,sans-Serif" font-size="10.00">Options::set_params</text>
</a>
</g>
</g>
<!-- Node1&#45;&gt;Node8 -->
<g id="edge7_Node000001_Node000008" class="edge">
<title>Node1&#45;&gt;Node8</title>
<g id="a_edge7_Node000001_Node000008"><a xlink:title=" ">
<path fill="none" stroke="#63b8ff" d="M813.05,-304.22C800.84,-287.16 780.28,-262.44 756,-249.5 701.23,-220.32 629.83,-211.99 580.48,-210.07"/>
<polygon fill="#63b8ff" stroke="#63b8ff" points="810.39,-306.53 818.94,-312.79 816.16,-302.57 810.39,-306.53"/>
</a>
</g>
</g>
<!-- Node21 -->
<g id="Node000021" class="node">
<title>Node21</title>
<g id="a_Node000021"><a xlink:href="namespacealpaqa_1_1params.html#abadc98653193fbd05b658d62b34f75e7" target="_top" xlink:title="Overwrites t based on the options that start with prefix.">
<polygon fill="white" stroke="#666666" points="723,-201 649,-201 649,-182 723,-182 723,-201"/>
<text text-anchor="middle" x="686" y="-189" font-family="Helvetica,sans-Serif" font-size="10.00">set_params</text>
</a>
</g>
</g>
<!-- Node1&#45;&gt;Node21 -->
<g id="edge28_Node000001_Node000021" class="edge">
<title>Node1&#45;&gt;Node21</title>
<g id="a_edge28_Node000001_Node000021"><a xlink:title=" ">
<path fill="none" stroke="#63b8ff" d="M817.49,-303.65C807.09,-279.86 786.12,-239.19 756,-215.5 746.53,-208.05 734.58,-202.83 723.31,-199.2"/>
<polygon fill="#63b8ff" stroke="#63b8ff" points="814.31,-305.12 821.4,-312.99 820.76,-302.42 814.31,-305.12"/>
</a>
</g>
</g>
<!-- Node9 -->
<g id="Node000009" class="node">
<title>Node9</title>
<g id="a_Node000009"><a xlink:href="options_8hpp.html#a91fca5414dbe50bec5104c59d9ebda11" target="_top" xlink:title=" ">
<polygon fill="white" stroke="#666666" points="427,-220 353,-220 353,-201 427,-201 427,-220"/>
<text text-anchor="middle" x="390" y="-208" font-family="Helvetica,sans-Serif" font-size="10.00">set_params</text>
</a>
</g>
</g>
<!-- Node8&#45;&gt;Node9 -->
<g id="edge8_Node000008_Node000009" class="edge">
<title>Node8&#45;&gt;Node9</title>
<g id="a_edge8_Node000008_Node000009"><a xlink:title=" ">
<path fill="none" stroke="#63b8ff" d="M452.93,-210.5C444.05,-210.5 435.25,-210.5 427.18,-210.5"/>
<polygon fill="#63b8ff" stroke="#63b8ff" points="452.95,-214 462.95,-210.5 452.95,-207 452.95,-214"/>
</a>
</g>
</g>
<!-- Node10 -->
<g id="Node000010" class="node">
<title>Node10</title>
<g id="a_Node000010"><a xlink:href="alpaqa-driver_8cpp.html#a53c823aeddf0a1b037645504d26ee7cd" target="_top" xlink:title=" ">
<polygon fill="white" stroke="#666666" points="297,-382 196,-382 196,-363 297,-363 297,-382"/>
<text text-anchor="middle" x="246.5" y="-370" font-family="Helvetica,sans-Serif" font-size="10.00">get_output_paths</text>
</a>
</g>
</g>
<!-- Node9&#45;&gt;Node10 -->
<g id="edge9_Node000009_Node000010" class="edge">
<title>Node9&#45;&gt;Node10</title>
<g id="a_edge9_Node000009_Node000010"><a xlink:title=" ">
<path fill="none" stroke="#63b8ff" d="M384.65,-230.4C376.76,-261.68 357.06,-322.09 317,-354.5 311.19,-359.2 304.28,-362.69 297.11,-365.28"/>
<polygon fill="#63b8ff" stroke="#63b8ff" points="388.14,-230.84 387.04,-220.31 381.33,-229.23 388.14,-230.84"/>
</a>
</g>
</g>
<!-- Node11 -->
<g id="Node000011" class="node">
<title>Node11</title>
<g id="a_Node000011"><a xlink:href="alpaqa-driver_8cpp.html#ac0f2228420376f4db7e1274f2b41667c" target="_top" xlink:title=" ">
<polygon fill="white" stroke="#666666" points="90.5,-401 49.5,-401 49.5,-382 90.5,-382 90.5,-401"/>
<text text-anchor="middle" x="70" y="-389" font-family="Helvetica,sans-Serif" font-size="10.00">main</text>
</a>
</g>
</g>
<!-- Node9&#45;&gt;Node11 -->
<g id="edge17_Node000009_Node000011" class="edge">
<title>Node9&#45;&gt;Node11</title>
<g id="a_edge17_Node000009_Node000011"><a xlink:title=" ">
<path fill="none" stroke="#63b8ff" d="M387.97,-230.26C384.75,-269.04 371.51,-354.52 317,-391.5 246.14,-439.57 135.38,-412.34 90.68,-398.28"/>
<polygon fill="#63b8ff" stroke="#63b8ff" points="391.46,-230.45 388.66,-220.24 384.48,-229.97 391.46,-230.45"/>
</a>
</g>
</g>
<!-- Node12 -->
<g id="Node000012" class="node">
<title>Node12</title>
<g id="a_Node000012"><a xlink:href="alpaqa-driver_8cpp.html#a62667720f096806ed08c60e4207f8972" target="_top" xlink:title=" ">
<polygon fill="white" stroke="#666666" points="301,-345 192,-345 192,-326 301,-326 301,-345"/>
<text text-anchor="middle" x="246.5" y="-333" font-family="Helvetica,sans-Serif" font-size="10.00">get_output_stream</text>
</a>
</g>
</g>
<!-- Node9&#45;&gt;Node12 -->
<g id="edge11_Node000009_Node000012" class="edge">
<title>Node9&#45;&gt;Node12</title>
<g id="a_edge11_Node000009_Node000012"><a xlink:title=" ">
<path fill="none" stroke="#63b8ff" d="M381.24,-229.75C370.47,-253.96 348.68,-295.08 317,-317.5 312.22,-320.88 306.85,-323.63 301.27,-325.86"/>
<polygon fill="#63b8ff" stroke="#63b8ff" points="384.59,-230.8 385.29,-220.22 378.15,-228.05 384.59,-230.8"/>
</a>
</g>
</g>
<!-- Node13 -->
<g id="Node000013" class="node">
<title>Node13</title>
<g id="a_Node000013"><a xlink:href="alpaqa-driver_8cpp.html#a3430011226186bf05d5c2552270587b7" target="_top" xlink:title=" ">
<polygon fill="white" stroke="#666666" points="300,-458 193,-458 193,-439 300,-439 300,-458"/>
<text text-anchor="middle" x="246.5" y="-446" font-family="Helvetica,sans-Serif" font-size="10.00">get_solver_builder</text>
</a>
</g>
</g>
<!-- Node9&#45;&gt;Node13 -->
<g id="edge13_Node000009_Node000013" class="edge">
<title>Node9&#45;&gt;Node13</title>
<g id="a_edge13_Node000009_Node000013"><a xlink:title=" ">
<path fill="none" stroke="#63b8ff" d="M387.98,-230.35C384.76,-272.07 371.51,-369.56 317,-424.5 310.71,-430.84 302.66,-435.51 294.29,-438.95"/>
<polygon fill="#63b8ff" stroke="#63b8ff" points="391.49,-230.35 388.64,-220.14 384.5,-229.89 391.49,-230.35"/>
</a>
</g>
</g>
<!-- Node14 -->
<g id="Node000014" class="node">
<title>Node14</title>
<g id="a_Node000014"><a xlink:href="namespaceanonymous__namespace_02problem_8cpp_03.html#ab42fb3dc0421d6c6c1f45d753a95a2c4" target="_top" xlink:title=" ">
<polygon fill="white" stroke="#666666" points="314,-290 179,-290 179,-249 314,-249 314,-290"/>
<text text-anchor="start" x="187" y="-278" font-family="Helvetica,sans-Serif" font-size="10.00">anonymous_namespace</text>
<text text-anchor="start" x="187" y="-267" font-family="Helvetica,sans-Serif" font-size="10.00">{problem::cpp}::load</text>
<text text-anchor="middle" x="246.5" y="-256" font-family="Helvetica,sans-Serif" font-size="10.00">_initial_guess</text>
</a>
</g>
</g>
<!-- Node9&#45;&gt;Node14 -->
<g id="edge15_Node000009_Node000014" class="edge">
<title>Node9&#45;&gt;Node14</title>
<g id="a_edge15_Node000009_Node000014"><a xlink:title=" ">
<path fill="none" stroke="#63b8ff" d="M356.65,-223.99C338.99,-231.35 316.74,-240.63 296.95,-248.88"/>
<polygon fill="#63b8ff" stroke="#63b8ff" points="358.07,-227.19 365.95,-220.11 355.37,-220.73 358.07,-227.19"/>
</a>
</g>
</g>
<!-- Node15 -->
<g id="Node000015" class="node">
<title>Node15</title>
<g id="a_Node000015"><a xlink:href="alm-driver_8hpp.html#ae4ef291d9ec9d55ee804b5723ea2e641" target="_top" xlink:title=" ">
<polygon fill="white" stroke="#666666" points="298,-95 195,-95 195,-76 298,-76 298,-95"/>
<text text-anchor="middle" x="246.5" y="-83" font-family="Helvetica,sans-Serif" font-size="10.00">make_alm_solver</text>
</a>
</g>
</g>
<!-- Node9&#45;&gt;Node15 -->
<g id="edge18_Node000009_Node000015" class="edge">
<title>Node9&#45;&gt;Node15</title>
<g id="a_edge18_Node000009_Node000015"><a xlink:title=" ">
<path fill="none" stroke="#63b8ff" d="M380.18,-191.72C368.67,-169.13 346.46,-131.53 317,-109.5 308.62,-103.23 298.47,-98.52 288.56,-95"/>
<polygon fill="#63b8ff" stroke="#63b8ff" points="377.15,-193.49 384.7,-200.93 383.44,-190.41 377.15,-193.49"/>
</a>
</g>
</g>
<!-- Node16 -->
<g id="Node000016" class="node">
<title>Node16</title>
<g id="a_Node000016"><a xlink:href="namespaceanonymous__namespace_02fista-driver_8cpp_03.html#a479d5f0dacbf404f04a694bb1be6f6c5" target="_top" xlink:title=" ">
<polygon fill="white" stroke="#666666" points="138.5,-186 1.5,-186 1.5,-145 138.5,-145 138.5,-186"/>
<text text-anchor="start" x="9.5" y="-174" font-family="Helvetica,sans-Serif" font-size="10.00">anonymous_namespace</text>
<text text-anchor="start" x="9.5" y="-163" font-family="Helvetica,sans-Serif" font-size="10.00">{fista&#45;driver::cpp}</text>
<text text-anchor="middle" x="70" y="-152" font-family="Helvetica,sans-Serif" font-size="10.00">::make_fista_driver_impl</text>
</a>
</g>
</g>
<!-- Node9&#45;&gt;Node16 -->
<g id="edge22_Node000009_Node000016" class="edge">
<title>Node9&#45;&gt;Node16</title>
<g id="a_edge22_Node000009_Node000016"><a xlink:title=" ">
<path fill="none" stroke="#63b8ff" d="M361.53,-196.51C348.39,-190.49 332.24,-184.03 317,-180.5 257.81,-166.78 188.6,-163.66 138.69,-163.61"/>
<polygon fill="#63b8ff" stroke="#63b8ff" points="360.38,-199.84 370.92,-200.97 363.39,-193.52 360.38,-199.84"/>
</a>
</g>
</g>
<!-- Node17 -->
<g id="Node000017" class="node">
<title>Node17</title>
<g id="a_Node000017"><a xlink:href="namespaceanonymous__namespace_02panoc-driver_8cpp_03.html#ab2ca1091ea82102367666b62756cd7f6" target="_top" xlink:title=" ">
<polygon fill="white" stroke="#666666" points="140,-127 0,-127 0,-86 140,-86 140,-127"/>
<text text-anchor="start" x="8" y="-115" font-family="Helvetica,sans-Serif" font-size="10.00">anonymous_namespace</text>
<text text-anchor="start" x="8" y="-104" font-family="Helvetica,sans-Serif" font-size="10.00">{panoc&#45;driver::cpp}</text>
<text text-anchor="middle" x="70" y="-93" font-family="Helvetica,sans-Serif" font-size="10.00">::make_panoc_like_driver</text>
</a>
</g>
</g>
<!-- Node9&#45;&gt;Node17 -->
<g id="edge26_Node000009_Node000017" class="edge">
<title>Node9&#45;&gt;Node17</title>
<g id="a_edge26_Node000009_Node000017"><a xlink:title=" ">
<path fill="none" stroke="#63b8ff" d="M370.31,-194.44C356.45,-183.34 336.64,-169.07 317,-160.5 260.09,-135.66 190.63,-121.76 140.05,-114.31"/>
<polygon fill="#63b8ff" stroke="#63b8ff" points="368.17,-197.21 378.11,-200.87 372.62,-191.81 368.17,-197.21"/>
</a>
</g>
</g>
<!-- Node18 -->
<g id="Node000018" class="node">
<title>Node18</title>
<g id="a_Node000018"><a xlink:href="namespaceanonymous__namespace_02pantr-driver_8cpp_03.html#a39b6aa8ff07d8400d404f191bdccd499" target="_top" xlink:title=" ">
<polygon fill="white" stroke="#666666" points="139,-68 1,-68 1,-27 139,-27 139,-68"/>
<text text-anchor="start" x="9" y="-56" font-family="Helvetica,sans-Serif" font-size="10.00">anonymous_namespace</text>
<text text-anchor="start" x="9" y="-45" font-family="Helvetica,sans-Serif" font-size="10.00">{pantr&#45;driver::cpp}</text>
<text text-anchor="middle" x="70" y="-34" font-family="Helvetica,sans-Serif" font-size="10.00">::make_pantr_like_solver</text>
</a>
</g>
</g>
<!-- Node9&#45;&gt;Node18 -->
<g id="edge27_Node000009_Node000018" class="edge">
<title>Node9&#45;&gt;Node18</title>
<g id="a_edge27_Node000009_Node000018"><a xlink:title=" ">
<path fill="none" stroke="#63b8ff" d="M385.48,-190.63C378.61,-158.43 360.15,-95.53 317,-66.5 265.02,-31.54 192.14,-30.32 139.21,-35.7"/>
<polygon fill="#63b8ff" stroke="#63b8ff" points="382.08,-191.5 387.44,-200.63 388.95,-190.15 382.08,-191.5"/>
</a>
</g>
</g>
<!-- Node19 -->
<g id="Node000019" class="node">
<title>Node19</title>
<g id="a_Node000019"><a xlink:href="namespaceanonymous__namespace_02fista-driver_8cpp_03.html#a6f96d677b5961c6a4fcaa773f37ca65b" target="_top" xlink:title=" ">
<polygon fill="white" stroke="#666666" points="317,-231 176,-231 176,-190 317,-190 317,-231"/>
<text text-anchor="start" x="184" y="-219" font-family="Helvetica,sans-Serif" font-size="10.00">anonymous_namespace</text>
<text text-anchor="start" x="184" y="-208" font-family="Helvetica,sans-Serif" font-size="10.00">{fista&#45;driver::cpp}</text>
<text text-anchor="middle" x="246.5" y="-197" font-family="Helvetica,sans-Serif" font-size="10.00">::make_inner_fista_solver</text>
</a>
</g>
</g>
<!-- Node9&#45;&gt;Node19 -->
<g id="edge23_Node000009_Node000019" class="edge">
<title>Node9&#45;&gt;Node19</title>
<g id="a_edge23_Node000009_Node000019"><a xlink:title=" ">
<path fill="none" stroke="#63b8ff" d="M342.8,-210.5C334.57,-210.5 325.82,-210.5 317.1,-210.5"/>
<polygon fill="#63b8ff" stroke="#63b8ff" points="342.93,-214 352.93,-210.5 342.93,-207 342.93,-214"/>
</a>
</g>
</g>
<!-- Node20 -->
<g id="Node000020" class="node">
<title>Node20</title>
<g id="a_Node000020"><a xlink:href="alm-driver_8hpp.html#a51b2a2cde56762bcb43a2f4da0913f98" target="_top" xlink:title=" ">
<polygon fill="white" stroke="#666666" points="301,-19 192,-19 192,0 301,0 301,-19"/>
<text text-anchor="middle" x="246.5" y="-7" font-family="Helvetica,sans-Serif" font-size="10.00">make_inner_solver</text>
</a>
</g>
</g>
<!-- Node9&#45;&gt;Node20 -->
<g id="edge25_Node000009_Node000020" class="edge">
<title>Node9&#45;&gt;Node20</title>
<g id="a_edge25_Node000009_Node000020"><a xlink:title=" ">
<path fill="none" stroke="#63b8ff" d="M386.35,-190.66C380.49,-154.4 363.07,-77.15 317,-33.5 310.33,-27.18 301.91,-22.51 293.26,-19.08"/>
<polygon fill="#63b8ff" stroke="#63b8ff" points="382.94,-191.52 387.87,-200.9 389.87,-190.49 382.94,-191.52"/>
</a>
</g>
</g>
<!-- Node10&#45;&gt;Node11 -->
<g id="edge10_Node000010_Node000011" class="edge">
<title>Node10&#45;&gt;Node11</title>
<g id="a_edge10_Node000010_Node000011"><a xlink:title=" ">
<path fill="none" stroke="#63b8ff" d="M185.92,-378.99C152.87,-382.59 113.91,-386.83 90.9,-389.33"/>
<polygon fill="#63b8ff" stroke="#63b8ff" points="186.4,-382.46 195.96,-377.89 185.64,-375.5 186.4,-382.46"/>
</a>
</g>
</g>
<!-- Node12&#45;&gt;Node11 -->
<g id="edge12_Node000012_Node000011" class="edge">
<title>Node12&#45;&gt;Node11</title>
<g id="a_edge12_Node000012_Node000011"><a xlink:title=" ">
<path fill="none" stroke="#63b8ff" d="M198.71,-347.8C191.09,-349.94 183.31,-352.22 176,-354.5 145.93,-363.9 111.58,-376.33 90.6,-384.12"/>
<polygon fill="#63b8ff" stroke="#63b8ff" points="199.86,-351.11 208.57,-345.07 197.99,-344.36 199.86,-351.11"/>
</a>
</g>
</g>
<!-- Node13&#45;&gt;Node11 -->
<g id="edge14_Node000013_Node000011" class="edge">
<title>Node13&#45;&gt;Node11</title>
<g id="a_edge14_Node000013_Node000011"><a xlink:title=" ">
<path fill="none" stroke="#63b8ff" d="M206.6,-435.79C170.59,-424.03 118.52,-407.02 90.54,-397.88"/>
<polygon fill="#63b8ff" stroke="#63b8ff" points="205.7,-439.18 216.29,-438.96 207.87,-432.53 205.7,-439.18"/>
</a>
</g>
</g>
<!-- Node14&#45;&gt;Node14 -->
<g id="edge16_Node000014_Node000014" class="edge">
<title>Node14&#45;&gt;Node14</title>
<g id="a_edge16_Node000014_Node000014"><a xlink:title=" ">
<path fill="none" stroke="#63b8ff" d="M270.93,-299.96C267.3,-304.74 259.15,-308 246.5,-308 226.25,-308 217.55,-299.65 220.4,-290.1"/>
<polygon fill="#63b8ff" stroke="#63b8ff" points="274.38,-300.54 272.6,-290.1 267.48,-299.37 274.38,-300.54"/>
</a>
</g>
</g>
<!-- Node15&#45;&gt;Node16 -->
<g id="edge19_Node000015_Node000016" class="edge">
<title>Node15&#45;&gt;Node16</title>
<g id="a_edge19_Node000015_Node000016"><a xlink:title=" ">
<path fill="none" stroke="#63b8ff" d="M216.67,-99.47C195.53,-109.64 166.09,-123.65 140,-135.5 133.22,-138.58 126.04,-141.77 118.97,-144.88"/>
<polygon fill="#63b8ff" stroke="#63b8ff" points="218.27,-102.59 225.76,-95.09 215.23,-96.28 218.27,-102.59"/>
</a>
</g>
</g>
<!-- Node15&#45;&gt;Node17 -->
<g id="edge20_Node000015_Node000017" class="edge">
<title>Node15&#45;&gt;Node17</title>
<g id="a_edge20_Node000015_Node000017"><a xlink:title=" ">
<path fill="none" stroke="#63b8ff" d="M184.37,-92.86C170.08,-94.58 154.77,-96.42 140.17,-98.18"/>
<polygon fill="#63b8ff" stroke="#63b8ff" points="185.05,-96.3 194.56,-91.63 184.21,-89.35 185.05,-96.3"/>
</a>
</g>
</g>
<!-- Node15&#45;&gt;Node18 -->
<g id="edge21_Node000015_Node000018" class="edge">
<title>Node15&#45;&gt;Node18</title>
<g id="a_edge21_Node000015_Node000018"><a xlink:title=" ">
<path fill="none" stroke="#63b8ff" d="M191.44,-73.73C174.9,-70.13 156.49,-66.12 139.15,-62.34"/>
<polygon fill="#63b8ff" stroke="#63b8ff" points="190.95,-77.2 201.47,-75.91 192.44,-70.36 190.95,-77.2"/>
</a>
</g>
</g>
<!-- Node19&#45;&gt;Node16 -->
<g id="edge24_Node000019_Node000016" class="edge">
<title>Node19&#45;&gt;Node16</title>
<g id="a_edge24_Node000019_Node000016"><a xlink:title=" ">
<path fill="none" stroke="#63b8ff" d="M165.94,-189.98C156.81,-187.63 147.57,-185.25 138.62,-182.94"/>
<polygon fill="#63b8ff" stroke="#63b8ff" points="165.22,-193.41 175.78,-192.52 166.97,-186.63 165.22,-193.41"/>
</a>
</g>
</g>
<!-- Node21&#45;&gt;Node8 -->
<g id="edge29_Node000021_Node000008" class="edge">
<title>Node21&#45;&gt;Node8</title>
<g id="a_edge29_Node000021_Node000008"><a xlink:title=" ">
<path fill="none" stroke="#63b8ff" d="M638.85,-196.9C620.59,-199.03 599.41,-201.51 580.16,-203.76"/>
<polygon fill="#63b8ff" stroke="#63b8ff" points="639.41,-200.35 648.94,-195.72 638.6,-193.4 639.41,-200.35"/>
</a>
</g>
</g>
</g>
</svg>
