<?xml version="1.0" encoding="UTF-8" standalone="no"?>
<!DOCTYPE svg PUBLIC "-//W3C//DTD SVG 1.1//EN"
 "http://www.w3.org/Graphics/SVG/1.1/DTD/svg11.dtd">
<!-- Generated by graphviz version 2.43.0 (0)
 -->
<!-- Title: src/alpaqa/include/alpaqa/util/required&#45;method.hpp Pages: 1 -->
<!--zoomable 280 -->

<svg id="main" version="1.1" xmlns="http://www.w3.org/2000/svg" xmlns:xlink="http://www.w3.org/1999/xlink" xml:space="preserve" onload="init(evt)">
<style type="text/css"><![CDATA[
.node, .edge {opacity: 0.7;}
.node.selected, .edge.selected {opacity: 1;}
.edge:hover path { stroke: red; }
.edge:hover polygon { stroke: red; fill: red; }
]]></style>

<defs>
  <circle id="rim" cx="0" cy="0" r="7"/>
  <circle id="rim2" cx="0" cy="0" r="3.5"/>
  <g id="zoomPlus">
    <use xlink:href="#rim" fill="#404040"><set attributeName="fill" to="#808080" begin="zoomplus.mouseover" end="zoomplus.mouseout"/></use>
    <path d="M-4,0h8M0,-4v8" fill="none" stroke="white" stroke-width="1.5" pointer-events="none"/>
  </g>
  <g id="zoomMin">
    <use xlink:href="#rim" fill="#404040"><set attributeName="fill" to="#808080" begin="zoomminus.mouseover" end="zoomminus.mouseout"/></use>
    <path d="M-4,0h8" fill="none" stroke="white" stroke-width="1.5" pointer-events="none"/>
  </g>
  <g id="arrowUp" transform="translate(30 24)">
    <use xlink:href="#rim"/>
    <path pointer-events="none" fill="none" stroke="white" stroke-width="1.5" d="M0,-3.0v7 M-2.5,-0.5L0,-3.0L2.5,-0.5"/>
  </g>
  <g id="arrowRight" transform="rotate(90) translate(36 -43)">
    <use xlink:href="#rim"/>
    <path pointer-events="none" fill="none" stroke="white" stroke-width="1.5" d="M0,-3.0v7 M-2.5,-0.5L0,-3.0L2.5,-0.5"/>
  </g>
  <g id="arrowDown" transform="rotate(180) translate(-30 -48)">
    <use xlink:href="#rim"/>
    <path pointer-events="none" fill="none" stroke="white" stroke-width="1.5" d="M0,-3.0v7 M-2.5,-0.5L0,-3.0L2.5,-0.5"/>
  </g>
  <g id="arrowLeft" transform="rotate(270) translate(-36 17)">
    <use xlink:href="#rim"/>
    <path pointer-events="none" fill="none" stroke="white" stroke-width="1.5" d="M0,-3.0v7 M-2.5,-0.5L0,-3.0L2.5,-0.5"/>
  </g>
  <g id="resetDef">
    <use xlink:href="#rim2" fill="#404040"><set attributeName="fill" to="#808080" begin="reset.mouseover" end="reset.mouseout"/></use>
  </g>
</defs>
<script type="application/ecmascript">
var viewWidth = 1185;
var viewHeight = 280;
var sectionId = 'dynsection-0';
</script>
<script type="application/ecmascript" xlink:href="svg.min.js"/>
<svg id="graph" class="graph">
<g id="viewport">
<title>src/alpaqa/include/alpaqa/util/required&#45;method.hpp</title>
<!-- Node1 -->
<g id="Node000001" class="node">
<title>Node1</title>
<g id="a_Node000001"><a xlink:title=" ">
<polygon fill="#999999" stroke="#666666" points="732.42,-272 617.42,-272 617.42,-231 732.42,-231 732.42,-272"/>
<text text-anchor="start" x="625.42" y="-260" font-family="Helvetica,sans-Serif" font-size="10.00">src/alpaqa/include</text>
<text text-anchor="start" x="625.42" y="-249" font-family="Helvetica,sans-Serif" font-size="10.00">/alpaqa/util/required</text>
<text text-anchor="middle" x="674.92" y="-238" font-family="Helvetica,sans-Serif" font-size="10.00">&#45;method.hpp</text>
</a>
</g>
</g>
<!-- Node2 -->
<g id="Node000002" class="node">
<title>Node2</title>
<g id="a_Node000002"><a xlink:href="type-erasure_8hpp.html" target="_top" xlink:title=" ">
<polygon fill="white" stroke="#666666" points="699.42,-195 544.42,-195 544.42,-176 699.42,-176 699.42,-195"/>
<text text-anchor="middle" x="621.92" y="-183" font-family="Helvetica,sans-Serif" font-size="10.00">alpaqa/util/type&#45;erasure.hpp</text>
</a>
</g>
</g>
<!-- Node1&#45;&gt;Node2 -->
<g id="edge1_Node000001_Node000002" class="edge">
<title>Node1&#45;&gt;Node2</title>
<g id="a_edge1_Node000001_Node000002"><a xlink:title=" ">
<path fill="none" stroke="#63b8ff" d="M658.73,-230.95C651.33,-222.02 642.66,-211.55 635.6,-203.02"/>
<polygon fill="#63b8ff" stroke="#63b8ff" points="638.25,-200.73 629.17,-195.26 632.85,-205.19 638.25,-200.73"/>
</a>
</g>
</g>
<!-- Node17 -->
<g id="Node000017" class="node">
<title>Node17</title>
<g id="a_Node000017"><a xlink:title=" ">
<polygon fill="#e0e0e0" stroke="#999999" points="1177.42,-134.5 1112.42,-134.5 1112.42,-115.5 1177.42,-115.5 1177.42,-134.5"/>
<text text-anchor="middle" x="1144.92" y="-122.5" font-family="Helvetica,sans-Serif" font-size="10.00">functional</text>
</a>
</g>
</g>
<!-- Node1&#45;&gt;Node17 -->
<g id="edge24_Node000001_Node000017" class="edge">
<title>Node1&#45;&gt;Node17</title>
<g id="a_edge24_Node000001_Node000017"><a xlink:title=" ">
<path fill="none" stroke="#63b8ff" d="M732.55,-235.23C828.42,-209.84 1018.44,-159.5 1102.83,-137.15"/>
<polygon fill="#63b8ff" stroke="#63b8ff" points="1103.82,-140.51 1112.59,-134.56 1102.03,-133.74 1103.82,-140.51"/>
</a>
</g>
</g>
<!-- Node3 -->
<g id="Node000003" class="node">
<title>Node3</title>
<g id="a_Node000003"><a xlink:href="export_8hpp.html" target="_top" xlink:title=" ">
<polygon fill="white" stroke="#666666" points="123.42,-74 18.42,-74 18.42,-55 123.42,-55 123.42,-74"/>
<text text-anchor="middle" x="70.92" y="-62" font-family="Helvetica,sans-Serif" font-size="10.00">alpaqa/export.hpp</text>
</a>
</g>
</g>
<!-- Node2&#45;&gt;Node3 -->
<g id="edge2_Node000002_Node000003" class="edge">
<title>Node2&#45;&gt;Node3</title>
<g id="a_edge2_Node000002_Node000003"><a xlink:title=" ">
<path fill="none" stroke="#63b8ff" d="M544.27,-184.66C386.84,-184.17 41.86,-178.64 5.92,-140 -3.17,-130.24 -0.3,-121.79 5.92,-110 13.15,-96.27 26.74,-85.97 39.63,-78.76"/>
<polygon fill="#63b8ff" stroke="#63b8ff" points="41.5,-81.73 48.8,-74.05 38.3,-75.51 41.5,-81.73"/>
</a>
</g>
</g>
<!-- Node5 -->
<g id="Node000005" class="node">
<title>Node5</title>
<g id="a_Node000005"><a xlink:href="demangled-typename_8hpp.html" target="_top" xlink:title=" ">
<polygon fill="white" stroke="#666666" points="310.92,-140 184.92,-140 184.92,-110 310.92,-110 310.92,-140"/>
<text text-anchor="start" x="192.92" y="-128" font-family="Helvetica,sans-Serif" font-size="10.00">alpaqa/util/demangled</text>
<text text-anchor="middle" x="247.92" y="-117" font-family="Helvetica,sans-Serif" font-size="10.00">&#45;typename.hpp</text>
</a>
</g>
</g>
<!-- Node2&#45;&gt;Node5 -->
<g id="edge4_Node000002_Node000005" class="edge">
<title>Node2&#45;&gt;Node5</title>
<g id="a_edge4_Node000002_Node000005"><a xlink:title=" ">
<path fill="none" stroke="#63b8ff" d="M561.25,-175.97C501.17,-167.4 406.57,-153.54 324.92,-140 323.64,-139.79 322.34,-139.57 321.04,-139.35"/>
<polygon fill="#63b8ff" stroke="#63b8ff" points="321.37,-135.86 310.92,-137.62 320.19,-142.76 321.37,-135.86"/>
</a>
</g>
</g>
<!-- Node7 -->
<g id="Node000007" class="node">
<title>Node7</title>
<g id="a_Node000007"><a xlink:title=" ">
<polygon fill="#e0e0e0" stroke="#999999" points="356.42,-74 299.42,-74 299.42,-55 356.42,-55 356.42,-74"/>
<text text-anchor="middle" x="327.92" y="-62" font-family="Helvetica,sans-Serif" font-size="10.00">typeinfo</text>
</a>
</g>
</g>
<!-- Node2&#45;&gt;Node7 -->
<g id="edge22_Node000002_Node000007" class="edge">
<title>Node2&#45;&gt;Node7</title>
<g id="a_edge22_Node000002_Node000007"><a xlink:title=" ">
<path fill="none" stroke="#63b8ff" d="M544.27,-176.4C484.76,-169.05 408.47,-156.78 381.92,-140 360.24,-126.31 344.52,-100.5 335.81,-83.15"/>
<polygon fill="#63b8ff" stroke="#63b8ff" points="338.94,-81.6 331.49,-74.07 332.62,-84.6 338.94,-81.6"/>
</a>
</g>
</g>
<!-- Node8 -->
<g id="Node000008" class="node">
<title>Node8</title>
<g id="a_Node000008"><a xlink:href="noop-delete_8hpp.html" target="_top" xlink:title=" ">
<polygon fill="white" stroke="#666666" points="166.42,-134.5 15.42,-134.5 15.42,-115.5 166.42,-115.5 166.42,-134.5"/>
<text text-anchor="middle" x="90.92" y="-122.5" font-family="Helvetica,sans-Serif" font-size="10.00">alpaqa/util/noop&#45;delete.hpp</text>
</a>
</g>
</g>
<!-- Node2&#45;&gt;Node8 -->
<g id="edge8_Node000002_Node000008" class="edge">
<title>Node2&#45;&gt;Node8</title>
<g id="a_edge8_Node000002_Node000008"><a xlink:title=" ">
<path fill="none" stroke="#63b8ff" d="M544.39,-178.28C455.29,-170.77 304.75,-157.02 175.92,-140 167.3,-138.86 158.21,-137.52 149.31,-136.12"/>
<polygon fill="#63b8ff" stroke="#63b8ff" points="149.81,-132.66 139.38,-134.53 148.7,-139.57 149.81,-132.66"/>
</a>
</g>
</g>
<!-- Node9 -->
<g id="Node000009" class="node">
<title>Node9</title>
<g id="a_Node000009"><a xlink:href="type-traits_8hpp.html" target="_top" xlink:title=" ">
<polygon fill="white" stroke="#666666" points="1055.42,-134.5 912.42,-134.5 912.42,-115.5 1055.42,-115.5 1055.42,-134.5"/>
<text text-anchor="middle" x="983.92" y="-122.5" font-family="Helvetica,sans-Serif" font-size="10.00">alpaqa/util/type&#45;traits.hpp</text>
</a>
</g>
</g>
<!-- Node2&#45;&gt;Node9 -->
<g id="edge9_Node000002_Node000009" class="edge">
<title>Node2&#45;&gt;Node9</title>
<g id="a_edge9_Node000002_Node000009"><a xlink:title=" ">
<path fill="none" stroke="#63b8ff" d="M677.14,-175.99C733.83,-167.2 824.58,-152.97 902.92,-140 910.08,-138.81 917.59,-137.55 925.04,-136.28"/>
<polygon fill="#63b8ff" stroke="#63b8ff" points="925.84,-139.69 935.11,-134.55 924.66,-132.79 925.84,-139.69"/>
</a>
</g>
</g>
<!-- Node11 -->
<g id="Node000011" class="node">
<title>Node11</title>
<g id="a_Node000011"><a xlink:title=" ">
<polygon fill="#e0e0e0" stroke="#999999" points="684.92,-74 626.92,-74 626.92,-55 684.92,-55 684.92,-74"/>
<text text-anchor="middle" x="655.92" y="-62" font-family="Helvetica,sans-Serif" font-size="10.00">memory</text>
</a>
</g>
</g>
<!-- Node2&#45;&gt;Node11 -->
<g id="edge18_Node000002_Node000011" class="edge">
<title>Node2&#45;&gt;Node11</title>
<g id="a_edge18_Node000002_Node000011"><a xlink:title=" ">
<path fill="none" stroke="#63b8ff" d="M544.3,-182.95C462.48,-178.56 351.17,-163.06 395.92,-110 423.67,-77.09 550.92,-68.52 616.54,-66.28"/>
<polygon fill="#63b8ff" stroke="#63b8ff" points="617.01,-69.77 626.89,-65.97 616.79,-62.78 617.01,-69.77"/>
</a>
</g>
</g>
<!-- Node12 -->
<g id="Node000012" class="node">
<title>Node12</title>
<g id="a_Node000012"><a xlink:title=" ">
<polygon fill="#e0e0e0" stroke="#999999" points="1109.42,-74 1040.42,-74 1040.42,-55 1109.42,-55 1109.42,-74"/>
<text text-anchor="middle" x="1074.92" y="-62" font-family="Helvetica,sans-Serif" font-size="10.00">type_traits</text>
</a>
</g>
</g>
<!-- Node2&#45;&gt;Node12 -->
<g id="edge21_Node000002_Node000012" class="edge">
<title>Node2&#45;&gt;Node12</title>
<g id="a_edge21_Node000002_Node000012"><a xlink:title=" ">
<path fill="none" stroke="#63b8ff" d="M699.59,-181.79C819.37,-176.87 1038.15,-164.6 1063.92,-140 1078.73,-125.85 1079.53,-101.12 1077.92,-84.05"/>
<polygon fill="#63b8ff" stroke="#63b8ff" points="1081.4,-83.6 1076.64,-74.13 1074.45,-84.5 1081.4,-83.6"/>
</a>
</g>
</g>
<!-- Node13 -->
<g id="Node000013" class="node">
<title>Node13</title>
<g id="a_Node000013"><a xlink:title=" ">
<polygon fill="#e0e0e0" stroke="#999999" points="468.92,-134.5 404.92,-134.5 404.92,-115.5 468.92,-115.5 468.92,-134.5"/>
<text text-anchor="middle" x="436.92" y="-122.5" font-family="Helvetica,sans-Serif" font-size="10.00">algorithm</text>
</a>
</g>
</g>
<!-- Node2&#45;&gt;Node13 -->
<g id="edge13_Node000002_Node000013" class="edge">
<title>Node2&#45;&gt;Node13</title>
<g id="a_edge13_Node000002_Node000013"><a xlink:title=" ">
<path fill="none" stroke="#63b8ff" d="M593.42,-175.96C564.32,-167.18 517.86,-152.99 477.92,-140 475.77,-139.3 473.56,-138.57 471.33,-137.83"/>
<polygon fill="#63b8ff" stroke="#63b8ff" points="472.19,-134.43 461.59,-134.56 469.96,-141.06 472.19,-134.43"/>
</a>
</g>
</g>
<!-- Node14 -->
<g id="Node000014" class="node">
<title>Node14</title>
<g id="a_Node000014"><a xlink:title=" ">
<polygon fill="#e0e0e0" stroke="#999999" points="538.92,-134.5 486.92,-134.5 486.92,-115.5 538.92,-115.5 538.92,-134.5"/>
<text text-anchor="middle" x="512.92" y="-122.5" font-family="Helvetica,sans-Serif" font-size="10.00">cassert</text>
</a>
</g>
</g>
<!-- Node2&#45;&gt;Node14 -->
<g id="edge14_Node000002_Node000014" class="edge">
<title>Node2&#45;&gt;Node14</title>
<g id="a_edge14_Node000002_Node000014"><a xlink:title=" ">
<path fill="none" stroke="#63b8ff" d="M605.83,-175.87C587.96,-166.28 558.88,-150.67 538.01,-139.47"/>
<polygon fill="#63b8ff" stroke="#63b8ff" points="539.53,-136.31 529.07,-134.67 536.22,-142.48 539.53,-136.31"/>
</a>
</g>
</g>
<!-- Node15 -->
<g id="Node000015" class="node">
<title>Node15</title>
<g id="a_Node000015"><a xlink:title=" ">
<polygon fill="#e0e0e0" stroke="#999999" points="610.42,-134.5 557.42,-134.5 557.42,-115.5 610.42,-115.5 610.42,-134.5"/>
<text text-anchor="middle" x="583.92" y="-122.5" font-family="Helvetica,sans-Serif" font-size="10.00">cstddef</text>
</a>
</g>
</g>
<!-- Node2&#45;&gt;Node15 -->
<g id="edge15_Node000002_Node000015" class="edge">
<title>Node2&#45;&gt;Node15</title>
<g id="a_edge15_Node000002_Node000015"><a xlink:title=" ">
<path fill="none" stroke="#63b8ff" d="M616.31,-175.87C610.75,-167.31 602.09,-153.97 595.12,-143.24"/>
<polygon fill="#63b8ff" stroke="#63b8ff" points="597.93,-141.15 589.55,-134.67 592.06,-144.96 597.93,-141.15"/>
</a>
</g>
</g>
<!-- Node16 -->
<g id="Node000016" class="node">
<title>Node16</title>
<g id="a_Node000016"><a xlink:title=" ">
<polygon fill="#e0e0e0" stroke="#999999" points="693.42,-134.5 628.42,-134.5 628.42,-115.5 693.42,-115.5 693.42,-134.5"/>
<text text-anchor="middle" x="660.92" y="-122.5" font-family="Helvetica,sans-Serif" font-size="10.00">exception</text>
</a>
</g>
</g>
<!-- Node2&#45;&gt;Node16 -->
<g id="edge16_Node000002_Node000016" class="edge">
<title>Node2&#45;&gt;Node16</title>
<g id="a_edge16_Node000002_Node000016"><a xlink:title=" ">
<path fill="none" stroke="#63b8ff" d="M627.67,-175.87C633.37,-167.31 642.27,-153.97 649.42,-143.24"/>
<polygon fill="#63b8ff" stroke="#63b8ff" points="652.5,-144.93 655.14,-134.67 646.68,-141.05 652.5,-144.93"/>
</a>
</g>
</g>
<!-- Node2&#45;&gt;Node17 -->
<g id="edge17_Node000002_Node000017" class="edge">
<title>Node2&#45;&gt;Node17</title>
<g id="a_edge17_Node000002_Node000017"><a xlink:title=" ">
<path fill="none" stroke="#63b8ff" d="M699.66,-181.91C794.46,-177.69 959.19,-166.88 1097.92,-140 1101.65,-139.28 1105.5,-138.38 1109.33,-137.39"/>
<polygon fill="#63b8ff" stroke="#63b8ff" points="1110.59,-140.68 1119.29,-134.63 1108.71,-133.93 1110.59,-140.68"/>
</a>
</g>
</g>
<!-- Node18 -->
<g id="Node000018" class="node">
<title>Node18</title>
<g id="a_Node000018"><a xlink:title=" ">
<polygon fill="#e0e0e0" stroke="#999999" points="748.42,-134.5 711.42,-134.5 711.42,-115.5 748.42,-115.5 748.42,-134.5"/>
<text text-anchor="middle" x="729.92" y="-122.5" font-family="Helvetica,sans-Serif" font-size="10.00">new</text>
</a>
</g>
</g>
<!-- Node2&#45;&gt;Node18 -->
<g id="edge19_Node000002_Node000018" class="edge">
<title>Node2&#45;&gt;Node18</title>
<g id="a_edge19_Node000002_Node000018"><a xlink:title=" ">
<path fill="none" stroke="#63b8ff" d="M637.85,-175.87C655.56,-166.28 684.38,-150.67 705.06,-139.47"/>
<polygon fill="#63b8ff" stroke="#63b8ff" points="706.79,-142.51 713.92,-134.67 703.46,-136.35 706.79,-142.51"/>
</a>
</g>
</g>
<!-- Node19 -->
<g id="Node000019" class="node">
<title>Node19</title>
<g id="a_Node000019"><a xlink:title=" ">
<polygon fill="#e0e0e0" stroke="#999999" points="831.42,-134.5 766.42,-134.5 766.42,-115.5 831.42,-115.5 831.42,-134.5"/>
<text text-anchor="middle" x="798.92" y="-122.5" font-family="Helvetica,sans-Serif" font-size="10.00">stdexcept</text>
</a>
</g>
</g>
<!-- Node2&#45;&gt;Node19 -->
<g id="edge20_Node000002_Node000019" class="edge">
<title>Node2&#45;&gt;Node19</title>
<g id="a_edge20_Node000002_Node000019"><a xlink:title=" ">
<path fill="none" stroke="#63b8ff" d="M647.81,-175.99C674.99,-167.06 718.97,-152.58 756.92,-140 759.05,-139.29 761.25,-138.56 763.46,-137.83"/>
<polygon fill="#63b8ff" stroke="#63b8ff" points="764.77,-141.08 773.16,-134.6 762.56,-134.44 764.77,-141.08"/>
</a>
</g>
</g>
<!-- Node20 -->
<g id="Node000020" class="node">
<title>Node20</title>
<g id="a_Node000020"><a xlink:title=" ">
<polygon fill="#e0e0e0" stroke="#999999" points="894.42,-134.5 849.42,-134.5 849.42,-115.5 894.42,-115.5 894.42,-134.5"/>
<text text-anchor="middle" x="871.92" y="-122.5" font-family="Helvetica,sans-Serif" font-size="10.00">utility</text>
</a>
</g>
</g>
<!-- Node2&#45;&gt;Node20 -->
<g id="edge23_Node000002_Node000020" class="edge">
<title>Node2&#45;&gt;Node20</title>
<g id="a_edge23_Node000002_Node000020"><a xlink:title=" ">
<path fill="none" stroke="#63b8ff" d="M680.6,-175.97C724.98,-168.7 787.08,-156.75 839.92,-140 841.55,-139.48 843.2,-138.91 844.87,-138.3"/>
<polygon fill="#63b8ff" stroke="#63b8ff" points="846.26,-141.51 854.23,-134.53 843.65,-135.02 846.26,-141.51"/>
</a>
</g>
</g>
<!-- Node4 -->
<g id="Node000004" class="node">
<title>Node4</title>
<g id="a_Node000004"><a xlink:title=" ">
<polygon fill="#e0e0e0" stroke="#999999" points="117.42,-19 24.42,-19 24.42,0 117.42,0 117.42,-19"/>
<text text-anchor="middle" x="70.92" y="-7" font-family="Helvetica,sans-Serif" font-size="10.00">alpaqa/export.h</text>
</a>
</g>
</g>
<!-- Node3&#45;&gt;Node4 -->
<g id="edge3_Node000003_Node000004" class="edge">
<title>Node3&#45;&gt;Node4</title>
<g id="a_edge3_Node000003_Node000004"><a xlink:title=" ">
<path fill="none" stroke="#63b8ff" d="M70.92,-54.75C70.92,-47.8 70.92,-37.85 70.92,-29.13"/>
<polygon fill="#63b8ff" stroke="#63b8ff" points="74.42,-29.09 70.92,-19.09 67.42,-29.09 74.42,-29.09"/>
</a>
</g>
</g>
<!-- Node5&#45;&gt;Node3 -->
<g id="edge5_Node000005_Node000003" class="edge">
<title>Node5&#45;&gt;Node3</title>
<g id="a_edge5_Node000005_Node000003"><a xlink:title=" ">
<path fill="none" stroke="#63b8ff" d="M205.52,-109.99C175.24,-99.98 134.97,-86.67 106.38,-77.22"/>
<polygon fill="#63b8ff" stroke="#63b8ff" points="107.39,-73.87 96.8,-74.05 105.19,-80.52 107.39,-73.87"/>
</a>
</g>
</g>
<!-- Node6 -->
<g id="Node000006" class="node">
<title>Node6</title>
<g id="a_Node000006"><a xlink:title=" ">
<polygon fill="#e0e0e0" stroke="#999999" points="269.92,-74 225.92,-74 225.92,-55 269.92,-55 269.92,-74"/>
<text text-anchor="middle" x="247.92" y="-62" font-family="Helvetica,sans-Serif" font-size="10.00">string</text>
</a>
</g>
</g>
<!-- Node5&#45;&gt;Node6 -->
<g id="edge6_Node000005_Node000006" class="edge">
<title>Node5&#45;&gt;Node6</title>
<g id="a_edge6_Node000005_Node000006"><a xlink:title=" ">
<path fill="none" stroke="#63b8ff" d="M247.92,-109.84C247.92,-102.21 247.92,-92.7 247.92,-84.45"/>
<polygon fill="#63b8ff" stroke="#63b8ff" points="251.42,-84.27 247.92,-74.27 244.42,-84.27 251.42,-84.27"/>
</a>
</g>
</g>
<!-- Node5&#45;&gt;Node7 -->
<g id="edge7_Node000005_Node000007" class="edge">
<title>Node5&#45;&gt;Node7</title>
<g id="a_edge7_Node000005_Node000007"><a xlink:title=" ">
<path fill="none" stroke="#63b8ff" d="M267.28,-109.84C279.49,-100.91 295.22,-89.41 307.6,-80.35"/>
<polygon fill="#63b8ff" stroke="#63b8ff" points="309.92,-82.99 315.93,-74.27 305.79,-77.34 309.92,-82.99"/>
</a>
</g>
</g>
<!-- Node10 -->
<g id="Node000010" class="node">
<title>Node10</title>
<g id="a_Node000010"><a xlink:title=" ">
<polygon fill="#e0e0e0" stroke="#999999" points="1013.92,-74 953.92,-74 953.92,-55 1013.92,-55 1013.92,-74"/>
<text text-anchor="middle" x="983.92" y="-62" font-family="Helvetica,sans-Serif" font-size="10.00">concepts</text>
</a>
</g>
</g>
<!-- Node9&#45;&gt;Node10 -->
<g id="edge10_Node000009_Node000010" class="edge">
<title>Node9&#45;&gt;Node10</title>
<g id="a_edge10_Node000009_Node000010"><a xlink:title=" ">
<path fill="none" stroke="#63b8ff" d="M983.92,-115.37C983.92,-107.25 983.92,-94.81 983.92,-84.39"/>
<polygon fill="#63b8ff" stroke="#63b8ff" points="987.42,-84.17 983.92,-74.17 980.42,-84.17 987.42,-84.17"/>
</a>
</g>
</g>
<!-- Node9&#45;&gt;Node11 -->
<g id="edge11_Node000009_Node000011" class="edge">
<title>Node9&#45;&gt;Node11</title>
<g id="a_edge11_Node000009_Node000011"><a xlink:title=" ">
<path fill="none" stroke="#63b8ff" d="M936.22,-115.49C871.05,-103.87 755.41,-83.24 695.05,-72.48"/>
<polygon fill="#63b8ff" stroke="#63b8ff" points="695.61,-69.02 685.15,-70.71 694.38,-75.91 695.61,-69.02"/>
</a>
</g>
</g>
<!-- Node9&#45;&gt;Node12 -->
<g id="edge12_Node000009_Node000012" class="edge">
<title>Node9&#45;&gt;Node12</title>
<g id="a_edge12_Node000009_Node000012"><a xlink:title=" ">
<path fill="none" stroke="#63b8ff" d="M997.34,-115.37C1012,-105.95 1035.67,-90.73 1053.02,-79.58"/>
<polygon fill="#63b8ff" stroke="#63b8ff" points="1054.92,-82.52 1061.43,-74.17 1051.13,-76.63 1054.92,-82.52"/>
</a>
</g>
</g>
</g>
</svg>

<g id="navigator" transform="translate(0 0)" fill="#404254">
  <rect fill="#f2f5e9" fill-opacity="0.5" stroke="#606060" stroke-width=".5" x="0" y="0" width="60" height="60"/>
  <use id="zoomplus" xlink:href="#zoomPlus" x="17" y="9" onmousedown="handleZoom(evt,'in')"/>
  <use id="zoomminus" xlink:href="#zoomMin" x="42" y="9" onmousedown="handleZoom(evt,'out')"/>
  <use id="reset" xlink:href="#resetDef" x="30" y="36" onmousedown="handleReset()"/>
   <use id="arrowup" xlink:href="#arrowUp" x="0" y="0" onmousedown="handlePan(0,-1)"/>
  <use id="arrowright" xlink:href="#arrowRight" x="0" y="0" onmousedown="handlePan(1,0)"/>
  <use id="arrowdown" xlink:href="#arrowDown" x="0" y="0" onmousedown="handlePan(0,1)"/>
  <use id="arrowleft" xlink:href="#arrowLeft" x="0" y="0" onmousedown="handlePan(-1,0)"/>
</g>
<svg viewBox="0 0 15 15" width="100%" height="30px" preserveAspectRatio="xMaxYMin meet">
 <g id="arrow_out" transform="scale(0.3 0.3)">
  <a xlink:href="required-method_8hpp__incl_org.svg" target="_base">
   <rect id="button" ry="5" rx="5" y="6" x="6" height="38" width="38"
        fill="#f2f5e9" fill-opacity="0.5" stroke="#606060" stroke-width="1.0"/>
   <path id="arrow"
     d="M 11.500037,31.436501 C 11.940474,20.09759 22.043105,11.32322 32.158766,21.979434 L 37.068811,17.246167 C 37.068811,17.246167 37.088388,32 37.088388,32 L 22.160133,31.978069 C 22.160133,31.978069 26.997745,27.140456 26.997745,27.140456 C 18.528582,18.264221 13.291696,25.230495 11.500037,31.436501 z"
     style="fill:#404040;"/>
  </a>
 </g>
</svg>

<style type='text/css'>
<![CDATA[
[data-mouse-over-selected='false'] { opacity: 0.7; }
[data-mouse-over-selected='true']  { opacity: 1.0; }
]]>
</style>
<script type="application/ecmascript"><![CDATA[
document.addEventListener('DOMContentLoaded', (event) => {
  highlightEdges();
  highlightAdjacentNodes();
});
]]></script>
</svg>
