<?xml version="1.0" encoding="UTF-8" standalone="no"?>
<!DOCTYPE svg PUBLIC "-//W3C//DTD SVG 1.1//EN"
 "http://www.w3.org/Graphics/SVG/1.1/DTD/svg11.dtd">
<!-- Generated by graphviz version 2.43.0 (0)
 -->
<!-- Title: SparsityConverter&lt; SparseCSC&lt; Conf, StorageIndexFrom &gt;, SparseCOO&lt; Conf, StorageIndexTo &gt; &gt; Pages: 1 -->
<svg width="253pt" height="362pt"
 viewBox="0.00 0.00 253.00 362.00" xmlns="http://www.w3.org/2000/svg" xmlns:xlink="http://www.w3.org/1999/xlink">
<g id="graph0" class="graph" transform="scale(1 1) rotate(0) translate(4 358)">
<title>SparsityConverter&lt; SparseCSC&lt; Conf, StorageIndexFrom &gt;, SparseCOO&lt; Conf, StorageIndexTo &gt; &gt;</title>
<!-- Node1 -->
<g id="Node000001" class="node">
<title>Node1</title>
<g id="a_Node000001"><a xlink:title=" ">
<polygon fill="#999999" stroke="transparent" points="245,-157 0,-157 0,0 245,0 245,-157"/>
<text text-anchor="start" x="5.5" y="-144.5" font-family="Helvetica,sans-Serif" font-size="10.00">SparsityConverter&lt;</text>
<text text-anchor="start" x="5.5" y="-133.5" font-family="Helvetica,sans-Serif" font-size="10.00"> SparseCSC&lt; Conf, StorageIndex</text>
<text text-anchor="start" x="5.5" y="-122.5" font-family="Helvetica,sans-Serif" font-size="10.00">From &gt;, SparseCOO&lt; Conf, StorageIndexTo &gt; &gt;</text>
<text text-anchor="start" x="28.5" y="-107.5" font-family="Helvetica,sans-Serif" font-size="10.00">+</text>
<text text-anchor="start" x="65.5" y="-107.5" font-family="Helvetica,sans-Serif" font-size="10.00">row_indices</text>
<text text-anchor="start" x="28.5" y="-92.5" font-family="Helvetica,sans-Serif" font-size="10.00">+</text>
<text text-anchor="start" x="65.5" y="-92.5" font-family="Helvetica,sans-Serif" font-size="10.00">col_indices</text>
<text text-anchor="start" x="28.5" y="-77.5" font-family="Helvetica,sans-Serif" font-size="10.00">+</text>
<text text-anchor="start" x="65.5" y="-77.5" font-family="Helvetica,sans-Serif" font-size="10.00">convert_sparsity()</text>
<text text-anchor="start" x="28.5" y="-62.5" font-family="Helvetica,sans-Serif" font-size="10.00">+</text>
<text text-anchor="start" x="65.5" y="-62.5" font-family="Helvetica,sans-Serif" font-size="10.00">SparsityConverter()</text>
<text text-anchor="start" x="28.5" y="-47.5" font-family="Helvetica,sans-Serif" font-size="10.00">+</text>
<text text-anchor="start" x="65.5" y="-47.5" font-family="Helvetica,sans-Serif" font-size="10.00">operator const to_sparsity</text>
<text text-anchor="start" x="65.5" y="-36.5" font-family="Helvetica,sans-Serif" font-size="10.00">_t &amp;()</text>
<text text-anchor="start" x="28.5" y="-21.5" font-family="Helvetica,sans-Serif" font-size="10.00">+</text>
<text text-anchor="start" x="65.5" y="-21.5" font-family="Helvetica,sans-Serif" font-size="10.00">get_sparsity()</text>
<text text-anchor="start" x="28.5" y="-6.5" font-family="Helvetica,sans-Serif" font-size="10.00">+</text>
<text text-anchor="start" x="65.5" y="-6.5" font-family="Helvetica,sans-Serif" font-size="10.00">convert_values()</text>
<polygon fill="#666666" stroke="#666666" points="0.5,-117.5 0.5,-117.5 245.5,-117.5 245.5,-117.5 0.5,-117.5"/>
<polygon fill="#666666" stroke="#666666" points="0.5,-87.5 0.5,-87.5 63.5,-87.5 63.5,-87.5 0.5,-87.5"/>
<polygon fill="#666666" stroke="#666666" points="63.5,-87.5 63.5,-87.5 245.5,-87.5 245.5,-87.5 63.5,-87.5"/>
<polygon fill="none" stroke="#666666" points="0,0 0,-157 245,-157 245,0 0,0"/>
</a>
</g>
</g>
<!-- Node2 -->
<g id="Node000002" class="node">
<title>Node2</title>
<g id="a_Node000002"><a xlink:href="structalpaqa_1_1sparsity_1_1SparseCOO.html" target="_top" xlink:title=" ">
<polygon fill="white" stroke="transparent" points="194,-354 51,-354 51,-204 194,-204 194,-354"/>
<text text-anchor="start" x="56.5" y="-342" font-family="Helvetica,sans-Serif" font-size="10.00">SparseCOO&lt; Conf, Storage</text>
<text text-anchor="start" x="98.5" y="-331" font-family="Helvetica,sans-Serif" font-size="10.00">IndexTo &gt;</text>
<text text-anchor="start" x="71.5" y="-316" font-family="Helvetica,sans-Serif" font-size="10.00">+</text>
<text text-anchor="start" x="100.5" y="-316" font-family="Helvetica,sans-Serif" font-size="10.00">rows</text>
<text text-anchor="start" x="71.5" y="-301" font-family="Helvetica,sans-Serif" font-size="10.00">+</text>
<text text-anchor="start" x="100.5" y="-301" font-family="Helvetica,sans-Serif" font-size="10.00">cols</text>
<text text-anchor="start" x="71.5" y="-286" font-family="Helvetica,sans-Serif" font-size="10.00">+</text>
<text text-anchor="start" x="100.5" y="-286" font-family="Helvetica,sans-Serif" font-size="10.00">symmetry</text>
<text text-anchor="start" x="71.5" y="-271" font-family="Helvetica,sans-Serif" font-size="10.00">+</text>
<text text-anchor="start" x="100.5" y="-271" font-family="Helvetica,sans-Serif" font-size="10.00">row_indices</text>
<text text-anchor="start" x="71.5" y="-256" font-family="Helvetica,sans-Serif" font-size="10.00">+</text>
<text text-anchor="start" x="100.5" y="-256" font-family="Helvetica,sans-Serif" font-size="10.00">col_indices</text>
<text text-anchor="start" x="71.5" y="-241" font-family="Helvetica,sans-Serif" font-size="10.00">+</text>
<text text-anchor="start" x="100.5" y="-241" font-family="Helvetica,sans-Serif" font-size="10.00">order</text>
<text text-anchor="start" x="71.5" y="-226" font-family="Helvetica,sans-Serif" font-size="10.00">+</text>
<text text-anchor="start" x="100.5" y="-226" font-family="Helvetica,sans-Serif" font-size="10.00">first_index</text>
<text text-anchor="start" x="71.5" y="-211" font-family="Helvetica,sans-Serif" font-size="10.00">+</text>
<text text-anchor="start" x="100.5" y="-211" font-family="Helvetica,sans-Serif" font-size="10.00">nnz()</text>
<polygon fill="#666666" stroke="#666666" points="51.5,-326 51.5,-326 194.5,-326 194.5,-326 51.5,-326"/>
<polygon fill="#666666" stroke="#666666" points="51.5,-221 51.5,-221 98.5,-221 98.5,-221 51.5,-221"/>
<polygon fill="#666666" stroke="#666666" points="98.5,-221 98.5,-221 194.5,-221 194.5,-221 98.5,-221"/>
<polygon fill="none" stroke="#666666" points="51,-204 51,-354 194,-354 194,-204 51,-204"/>
</a>
</g>
</g>
<!-- Node2&#45;&gt;Node1 -->
<g id="edge1_Node000001_Node000002" class="edge">
<title>Node2&#45;&gt;Node1</title>
<g id="a_edge1_Node000001_Node000002"><a xlink:title=" ">
<path fill="none" stroke="#63b8ff" d="M122.5,-203.8C122.5,-192.64 122.5,-181.03 122.5,-169.58"/>
<polygon fill="none" stroke="#63b8ff" points="122.5,-169.25 118.5,-163.25 122.5,-157.25 126.5,-163.25 122.5,-169.25"/>
</a>
</g>
<text text-anchor="middle" x="148" y="-178" font-family="Helvetica,sans-Serif" font-size="10.00" fill="grey"> +sparsity</text>
</g>
</g>
</svg>
