<?xml version="1.0" encoding="UTF-8" standalone="no"?>
<!DOCTYPE svg PUBLIC "-//W3C//DTD SVG 1.1//EN"
 "http://www.w3.org/Graphics/SVG/1.1/DTD/svg11.dtd">
<!-- Generated by graphviz version 2.43.0 (0)
 -->
<!-- Title: src/interop/casadi/src/CasADiProblem.cpp Pages: 1 -->
<svg width="2269pt" height="412pt"
 viewBox="0.00 0.00 2268.84 412.00" xmlns="http://www.w3.org/2000/svg" xmlns:xlink="http://www.w3.org/1999/xlink">
<g id="graph0" class="graph" transform="scale(1 1) rotate(0) translate(4 408)">
<title>src/interop/casadi/src/CasADiProblem.cpp</title>
<!-- Node1 -->
<g id="Node000001" class="node">
<title>Node1</title>
<g id="a_Node000001"><a xlink:title=" ">
<polygon fill="#999999" stroke="#666666" points="840.5,-404 707.5,-404 707.5,-374 840.5,-374 840.5,-404"/>
<text text-anchor="start" x="715.5" y="-392" font-family="Helvetica,sans-Serif" font-size="10.00">src/interop/casadi</text>
<text text-anchor="middle" x="774" y="-381" font-family="Helvetica,sans-Serif" font-size="10.00">/src/CasADiProblem.cpp</text>
</a>
</g>
</g>
<!-- Node2 -->
<g id="Node000002" class="node">
<title>Node2</title>
<g id="a_Node000002"><a xlink:href="config_8hpp.html" target="_top" xlink:title=" ">
<polygon fill="white" stroke="#666666" points="653.5,-85 518.5,-85 518.5,-66 653.5,-66 653.5,-85"/>
<text text-anchor="middle" x="586" y="-73" font-family="Helvetica,sans-Serif" font-size="10.00">alpaqa/config/config.hpp</text>
</a>
</g>
</g>
<!-- Node1&#45;&gt;Node2 -->
<g id="edge1_Node000001_Node000002" class="edge">
<title>Node1&#45;&gt;Node2</title>
<g id="a_edge1_Node000001_Node000002"><a xlink:title=" ">
<path fill="none" stroke="#63b8ff" d="M707.37,-384.64C575.31,-376.14 293,-348.09 293,-263.5 293,-263.5 293,-263.5 293,-201 293,-164.46 285.24,-145.89 312,-121 339.83,-95.11 437.39,-84.23 508.19,-79.69"/>
<polygon fill="#63b8ff" stroke="#63b8ff" points="508.66,-83.17 518.43,-79.07 508.23,-76.18 508.66,-83.17"/>
</a>
</g>
</g>
<!-- Node8 -->
<g id="Node000008" class="node">
<title>Node8</title>
<g id="a_Node000008"><a xlink:href="CasADiProblem_8tpp.html" target="_top" xlink:title=" ">
<polygon fill="white" stroke="#666666" points="1348.5,-338 1199.5,-338 1199.5,-308 1348.5,-308 1348.5,-338"/>
<text text-anchor="start" x="1207.5" y="-326" font-family="Helvetica,sans-Serif" font-size="10.00">alpaqa/implementation</text>
<text text-anchor="middle" x="1274" y="-315" font-family="Helvetica,sans-Serif" font-size="10.00">/casadi/CasADiProblem.tpp</text>
</a>
</g>
</g>
<!-- Node1&#45;&gt;Node8 -->
<g id="edge7_Node000001_Node000008" class="edge">
<title>Node1&#45;&gt;Node8</title>
<g id="a_edge7_Node000001_Node000008"><a xlink:title=" ">
<path fill="none" stroke="#63b8ff" d="M840.65,-379.47C930.53,-367.96 1090.62,-347.47 1189.04,-334.87"/>
<polygon fill="#63b8ff" stroke="#63b8ff" points="1189.78,-338.31 1199.25,-333.57 1188.89,-331.37 1189.78,-338.31"/>
</a>
</g>
</g>
<!-- Node3 -->
<g id="Node000003" class="node">
<title>Node3</title>
<g id="a_Node000003"><a xlink:href="quadmath-print_8hpp.html" target="_top" xlink:title=" ">
<polygon fill="white" stroke="#666666" points="654.5,-30 533.5,-30 533.5,0 654.5,0 654.5,-30"/>
<text text-anchor="start" x="541.5" y="-18" font-family="Helvetica,sans-Serif" font-size="10.00">alpaqa/util/quadmath</text>
<text text-anchor="middle" x="594" y="-7" font-family="Helvetica,sans-Serif" font-size="10.00">/quadmath&#45;print.hpp</text>
</a>
</g>
</g>
<!-- Node2&#45;&gt;Node3 -->
<g id="edge2_Node000002_Node000003" class="edge">
<title>Node2&#45;&gt;Node3</title>
<g id="a_edge2_Node000002_Node000003"><a xlink:title=" ">
<path fill="none" stroke="#63b8ff" d="M587.18,-65.87C588.11,-59.11 589.44,-49.35 590.68,-40.26"/>
<polygon fill="#63b8ff" stroke="#63b8ff" points="594.18,-40.5 592.07,-30.11 587.25,-39.55 594.18,-40.5"/>
</a>
</g>
</g>
<!-- Node4 -->
<g id="Node000004" class="node">
<title>Node4</title>
<g id="a_Node000004"><a xlink:href="quadmath_8hpp.html" target="_top" xlink:title=" ">
<polygon fill="white" stroke="#666666" points="428.5,-30 307.5,-30 307.5,0 428.5,0 428.5,-30"/>
<text text-anchor="start" x="315.5" y="-18" font-family="Helvetica,sans-Serif" font-size="10.00">alpaqa/util/quadmath</text>
<text text-anchor="middle" x="368" y="-7" font-family="Helvetica,sans-Serif" font-size="10.00">/quadmath.hpp</text>
</a>
</g>
</g>
<!-- Node2&#45;&gt;Node4 -->
<g id="edge3_Node000002_Node000004" class="edge">
<title>Node2&#45;&gt;Node4</title>
<g id="a_edge3_Node000002_Node000004"><a xlink:title=" ">
<path fill="none" stroke="#63b8ff" d="M554.3,-65.99C521.9,-57.3 470.72,-43.57 430.2,-32.69"/>
<polygon fill="#63b8ff" stroke="#63b8ff" points="430.98,-29.28 420.41,-30.06 429.16,-36.04 430.98,-29.28"/>
</a>
</g>
</g>
<!-- Node5 -->
<g id="Node000005" class="node">
<title>Node5</title>
<g id="a_Node000005"><a xlink:title=" ">
<polygon fill="#e0e0e0" stroke="#999999" points="717,-24.5 673,-24.5 673,-5.5 717,-5.5 717,-24.5"/>
<text text-anchor="middle" x="695" y="-12.5" font-family="Helvetica,sans-Serif" font-size="10.00">limits</text>
</a>
</g>
</g>
<!-- Node2&#45;&gt;Node5 -->
<g id="edge4_Node000002_Node000005" class="edge">
<title>Node2&#45;&gt;Node5</title>
<g id="a_edge4_Node000002_Node000005"><a xlink:title=" ">
<path fill="none" stroke="#63b8ff" d="M602.08,-65.87C619.95,-56.28 649.04,-40.67 669.91,-29.47"/>
<polygon fill="#63b8ff" stroke="#63b8ff" points="671.69,-32.48 678.85,-24.67 668.38,-26.31 671.69,-32.48"/>
</a>
</g>
</g>
<!-- Node6 -->
<g id="Node000006" class="node">
<title>Node6</title>
<g id="a_Node000006"><a xlink:title=" ">
<polygon fill="#e0e0e0" stroke="#999999" points="289.5,-24.5 220.5,-24.5 220.5,-5.5 289.5,-5.5 289.5,-24.5"/>
<text text-anchor="middle" x="255" y="-12.5" font-family="Helvetica,sans-Serif" font-size="10.00">type_traits</text>
</a>
</g>
</g>
<!-- Node2&#45;&gt;Node6 -->
<g id="edge5_Node000002_Node000006" class="edge">
<title>Node2&#45;&gt;Node6</title>
<g id="a_edge5_Node000002_Node000006"><a xlink:title=" ">
<path fill="none" stroke="#63b8ff" d="M518.48,-67.19C459.74,-60.1 372.56,-47.77 298,-30 294.97,-29.28 291.84,-28.44 288.72,-27.55"/>
<polygon fill="#63b8ff" stroke="#63b8ff" points="289.5,-24.12 278.91,-24.54 287.45,-30.82 289.5,-24.12"/>
</a>
</g>
</g>
<!-- Node7 -->
<g id="Node000007" class="node">
<title>Node7</title>
<g id="a_Node000007"><a xlink:title=" ">
<polygon fill="#e0e0e0" stroke="#999999" points="515.5,-24.5 446.5,-24.5 446.5,-5.5 515.5,-5.5 515.5,-24.5"/>
<text text-anchor="middle" x="481" y="-12.5" font-family="Helvetica,sans-Serif" font-size="10.00">Eigen/Core</text>
</a>
</g>
</g>
<!-- Node2&#45;&gt;Node7 -->
<g id="edge6_Node000002_Node000007" class="edge">
<title>Node2&#45;&gt;Node7</title>
<g id="a_edge6_Node000002_Node000007"><a xlink:title=" ">
<path fill="none" stroke="#63b8ff" d="M570.51,-65.87C553.37,-56.32 525.53,-40.81 505.44,-29.62"/>
<polygon fill="#63b8ff" stroke="#63b8ff" points="507,-26.48 496.56,-24.67 503.59,-32.59 507,-26.48"/>
</a>
</g>
</g>
<!-- Node8&#45;&gt;Node6 -->
<g id="edge68_Node000008_Node000006" class="edge">
<title>Node8&#45;&gt;Node6</title>
<g id="a_edge68_Node000008_Node000006"><a xlink:title=" ">
<path fill="none" stroke="#63b8ff" d="M1199.23,-318.65C984.84,-308.38 379.01,-274.51 312,-217 257.27,-170.03 253.17,-74.76 254.07,-34.56"/>
<polygon fill="#63b8ff" stroke="#63b8ff" points="257.57,-34.69 254.43,-24.57 250.57,-34.44 257.57,-34.69"/>
</a>
</g>
</g>
<!-- Node9 -->
<g id="Node000009" class="node">
<title>Node9</title>
<g id="a_Node000009"><a xlink:href="CasADiFunctionWrapper_8hpp.html" target="_top" xlink:title=" ">
<polygon fill="white" stroke="#666666" points="1563,-151 1399,-151 1399,-121 1563,-121 1563,-151"/>
<text text-anchor="start" x="1407" y="-139" font-family="Helvetica,sans-Serif" font-size="10.00">alpaqa/casadi/CasADiFunction</text>
<text text-anchor="middle" x="1481" y="-128" font-family="Helvetica,sans-Serif" font-size="10.00">Wrapper.hpp</text>
</a>
</g>
</g>
<!-- Node8&#45;&gt;Node9 -->
<g id="edge8_Node000008_Node000009" class="edge">
<title>Node8&#45;&gt;Node9</title>
<g id="a_edge8_Node000008_Node000009"><a xlink:title=" ">
<path fill="none" stroke="#63b8ff" d="M1348.58,-314.19C1402.55,-306.82 1468.9,-293.61 1486,-272 1511.13,-240.25 1500.09,-189.93 1490.24,-160.52"/>
<polygon fill="#63b8ff" stroke="#63b8ff" points="1493.52,-159.3 1486.86,-151.06 1486.93,-161.65 1493.52,-159.3"/>
</a>
</g>
</g>
<!-- Node10 -->
<g id="Node000010" class="node">
<title>Node10</title>
<g id="a_Node000010"><a xlink:title=" ">
<polygon fill="#e0e0e0" stroke="#999999" points="1394.5,-85 1329.5,-85 1329.5,-66 1394.5,-66 1394.5,-85"/>
<text text-anchor="middle" x="1362" y="-73" font-family="Helvetica,sans-Serif" font-size="10.00">stdexcept</text>
</a>
</g>
</g>
<!-- Node8&#45;&gt;Node10 -->
<g id="edge67_Node000008_Node000010" class="edge">
<title>Node8&#45;&gt;Node10</title>
<g id="a_edge67_Node000008_Node000010"><a xlink:title=" ">
<path fill="none" stroke="#63b8ff" d="M1282.17,-307.91C1298.34,-279.35 1334.37,-212.14 1352,-151 1357.3,-132.61 1359.81,-110.85 1360.99,-95.61"/>
<polygon fill="#63b8ff" stroke="#63b8ff" points="1364.49,-95.6 1361.65,-85.39 1357.51,-95.14 1364.49,-95.6"/>
</a>
</g>
</g>
<!-- Node15 -->
<g id="Node000015" class="node">
<title>Node15</title>
<g id="a_Node000015"><a xlink:href="CasADiProblem_8hpp.html" target="_top" xlink:title=" ">
<polygon fill="white" stroke="#666666" points="946,-272 762,-272 762,-253 946,-253 946,-272"/>
<text text-anchor="middle" x="854" y="-260" font-family="Helvetica,sans-Serif" font-size="10.00">alpaqa/casadi/CasADiProblem.hpp</text>
</a>
</g>
</g>
<!-- Node8&#45;&gt;Node15 -->
<g id="edge15_Node000008_Node000015" class="edge">
<title>Node8&#45;&gt;Node15</title>
<g id="a_edge15_Node000008_Node000015"><a xlink:title=" ">
<path fill="none" stroke="#63b8ff" d="M1199.4,-311.61C1121.9,-300.82 1001.53,-284.05 925.29,-273.43"/>
<polygon fill="#63b8ff" stroke="#63b8ff" points="925.68,-269.95 915.3,-272.04 924.72,-276.88 925.68,-269.95"/>
</a>
</g>
</g>
<!-- Node25 -->
<g id="Node000025" class="node">
<title>Node25</title>
<g id="a_Node000025"><a xlink:title=" ">
<polygon fill="#e0e0e0" stroke="#999999" points="2106,-85 2050,-85 2050,-66 2106,-66 2106,-85"/>
<text text-anchor="middle" x="2078" y="-73" font-family="Helvetica,sans-Serif" font-size="10.00">optional</text>
</a>
</g>
</g>
<!-- Node8&#45;&gt;Node25 -->
<g id="edge66_Node000008_Node000025" class="edge">
<title>Node8&#45;&gt;Node25</title>
<g id="a_edge66_Node000008_Node000025"><a xlink:title=" ">
<path fill="none" stroke="#63b8ff" d="M1348.75,-321.38C1558.42,-317.84 2143.98,-295.02 2253,-151 2290.49,-101.47 2178.39,-84.51 2116.3,-78.99"/>
<polygon fill="#63b8ff" stroke="#63b8ff" points="2116.32,-75.48 2106.06,-78.14 2115.74,-82.46 2116.32,-75.48"/>
</a>
</g>
</g>
<!-- Node30 -->
<g id="Node000030" class="node">
<title>Node30</title>
<g id="a_Node000030"><a xlink:title=" ">
<polygon fill="#e0e0e0" stroke="#999999" points="934,-145.5 882,-145.5 882,-126.5 934,-126.5 934,-145.5"/>
<text text-anchor="middle" x="908" y="-133.5" font-family="Helvetica,sans-Serif" font-size="10.00">cassert</text>
</a>
</g>
</g>
<!-- Node8&#45;&gt;Node30 -->
<g id="edge62_Node000008_Node000030" class="edge">
<title>Node8&#45;&gt;Node30</title>
<g id="a_edge62_Node000008_Node000030"><a xlink:title=" ">
<path fill="none" stroke="#63b8ff" d="M1260.45,-307.79C1228.08,-273.91 1148.4,-190.91 1141,-187 1061.93,-145.19 1028.95,-175.73 943,-151 941.07,-150.44 939.09,-149.82 937.11,-149.15"/>
<polygon fill="#63b8ff" stroke="#63b8ff" points="937.97,-145.74 927.38,-145.55 935.55,-152.3 937.97,-145.74"/>
</a>
</g>
</g>
<!-- Node33 -->
<g id="Node000033" class="node">
<title>Node33</title>
<g id="a_Node000033"><a xlink:title=" ">
<polygon fill="#e0e0e0" stroke="#999999" points="1010,-145.5 952,-145.5 952,-126.5 1010,-126.5 1010,-145.5"/>
<text text-anchor="middle" x="981" y="-133.5" font-family="Helvetica,sans-Serif" font-size="10.00">memory</text>
</a>
</g>
</g>
<!-- Node8&#45;&gt;Node33 -->
<g id="edge65_Node000008_Node000033" class="edge">
<title>Node8&#45;&gt;Node33</title>
<g id="a_edge65_Node000008_Node000033"><a xlink:title=" ">
<path fill="none" stroke="#63b8ff" d="M1267.77,-307.97C1254.68,-280.2 1221.55,-218.2 1174,-187 1114.87,-148.2 1086.76,-171.26 1019,-151 1016.87,-150.36 1014.68,-149.67 1012.48,-148.94"/>
<polygon fill="#63b8ff" stroke="#63b8ff" points="1013.54,-145.6 1002.95,-145.61 1011.24,-152.21 1013.54,-145.6"/>
</a>
</g>
</g>
<!-- Node34 -->
<g id="Node000034" class="node">
<title>Node34</title>
<g id="a_Node000034"><a xlink:title=" ">
<polygon fill="#e0e0e0" stroke="#999999" points="1132,-211.5 1064,-211.5 1064,-192.5 1132,-192.5 1132,-211.5"/>
<text text-anchor="middle" x="1098" y="-199.5" font-family="Helvetica,sans-Serif" font-size="10.00">filesystem</text>
</a>
</g>
</g>
<!-- Node8&#45;&gt;Node34 -->
<g id="edge63_Node000008_Node000034" class="edge">
<title>Node8&#45;&gt;Node34</title>
<g id="a_edge63_Node000008_Node000034"><a xlink:title=" ">
<path fill="none" stroke="#63b8ff" d="M1217.66,-307.94C1193.86,-300.08 1166.89,-288.47 1146,-272 1128.52,-258.21 1114.82,-236.35 1106.61,-220.94"/>
<polygon fill="#63b8ff" stroke="#63b8ff" points="1109.67,-219.22 1102.02,-211.89 1103.42,-222.39 1109.67,-219.22"/>
</a>
</g>
</g>
<!-- Node35 -->
<g id="Node000035" class="node">
<title>Node35</title>
<g id="a_Node000035"><a xlink:href="csv_8hpp.html" target="_top" xlink:title=" ">
<polygon fill="white" stroke="#666666" points="1148,-145.5 1028,-145.5 1028,-126.5 1148,-126.5 1148,-145.5"/>
<text text-anchor="middle" x="1088" y="-133.5" font-family="Helvetica,sans-Serif" font-size="10.00">alpaqa/util/io/csv.hpp</text>
</a>
</g>
</g>
<!-- Node8&#45;&gt;Node35 -->
<g id="edge43_Node000008_Node000035" class="edge">
<title>Node8&#45;&gt;Node35</title>
<g id="a_edge43_Node000008_Node000035"><a xlink:title=" ">
<path fill="none" stroke="#63b8ff" d="M1271.13,-307.74C1264.97,-280.64 1248.02,-221.36 1212,-187 1192.14,-168.06 1164.19,-155.95 1139.84,-148.4"/>
<polygon fill="#63b8ff" stroke="#63b8ff" points="1140.6,-144.98 1130.02,-145.54 1138.63,-151.7 1140.6,-144.98"/>
</a>
</g>
</g>
<!-- Node37 -->
<g id="Node000037" class="node">
<title>Node37</title>
<g id="a_Node000037"><a xlink:href="not-implemented_8hpp.html" target="_top" xlink:title=" ">
<polygon fill="white" stroke="#666666" points="1343.5,-145.5 1166.5,-145.5 1166.5,-126.5 1343.5,-126.5 1343.5,-145.5"/>
<text text-anchor="middle" x="1255" y="-133.5" font-family="Helvetica,sans-Serif" font-size="10.00">alpaqa/util/not&#45;implemented.hpp</text>
</a>
</g>
</g>
<!-- Node8&#45;&gt;Node37 -->
<g id="edge49_Node000008_Node000037" class="edge">
<title>Node8&#45;&gt;Node37</title>
<g id="a_edge49_Node000008_Node000037"><a xlink:title=" ">
<path fill="none" stroke="#63b8ff" d="M1272.54,-307.79C1269.15,-274.81 1260.76,-193.05 1256.94,-155.9"/>
<polygon fill="#63b8ff" stroke="#63b8ff" points="1260.38,-155.12 1255.88,-145.53 1253.42,-155.83 1260.38,-155.12"/>
</a>
</g>
</g>
<!-- Node38 -->
<g id="Node000038" class="node">
<title>Node38</title>
<g id="a_Node000038"><a xlink:href="CasADiLoader-util_8hpp.html" target="_top" xlink:title=" ">
<polygon fill="white" stroke="#666666" points="1951.5,-211.5 1826.5,-211.5 1826.5,-192.5 1951.5,-192.5 1951.5,-211.5"/>
<text text-anchor="middle" x="1889" y="-199.5" font-family="Helvetica,sans-Serif" font-size="10.00">CasADiLoader&#45;util.hpp</text>
</a>
</g>
</g>
<!-- Node8&#45;&gt;Node38 -->
<g id="edge52_Node000008_Node000038" class="edge">
<title>Node8&#45;&gt;Node38</title>
<g id="a_edge52_Node000008_Node000038"><a xlink:title=" ">
<path fill="none" stroke="#63b8ff" d="M1346.36,-308C1471.21,-283.84 1724.36,-234.86 1835.1,-213.43"/>
<polygon fill="#63b8ff" stroke="#63b8ff" points="1835.89,-216.84 1845.04,-211.51 1834.56,-209.97 1835.89,-216.84"/>
</a>
</g>
</g>
<!-- Node40 -->
<g id="Node000040" class="node">
<title>Node40</title>
<g id="a_Node000040"><a xlink:title=" ">
<polygon fill="#e0e0e0" stroke="#999999" points="2243.5,-145.5 2106.5,-145.5 2106.5,-126.5 2243.5,-126.5 2243.5,-145.5"/>
<text text-anchor="middle" x="2175" y="-133.5" font-family="Helvetica,sans-Serif" font-size="10.00">casadi/core/external.hpp</text>
</a>
</g>
</g>
<!-- Node8&#45;&gt;Node40 -->
<g id="edge60_Node000008_Node000040" class="edge">
<title>Node8&#45;&gt;Node40</title>
<g id="a_edge60_Node000008_Node000040"><a xlink:title=" ">
<path fill="none" stroke="#63b8ff" d="M1348.72,-315.67C1476.01,-303.75 1742.36,-273.92 1961,-217 2029.62,-199.14 2106.75,-167.21 2147.05,-149.57"/>
<polygon fill="#63b8ff" stroke="#63b8ff" points="2148.51,-152.76 2156.24,-145.52 2145.68,-146.35 2148.51,-152.76"/>
</a>
</g>
</g>
<!-- Node42 -->
<g id="Node000042" class="node">
<title>Node42</title>
<g id="a_Node000042"><a xlink:title=" ">
<polygon fill="#e0e0e0" stroke="#999999" points="1404,-272 1340,-272 1340,-253 1404,-253 1404,-272"/>
<text text-anchor="middle" x="1372" y="-260" font-family="Helvetica,sans-Serif" font-size="10.00">algorithm</text>
</a>
</g>
</g>
<!-- Node8&#45;&gt;Node42 -->
<g id="edge61_Node000008_Node000042" class="edge">
<title>Node8&#45;&gt;Node42</title>
<g id="a_edge61_Node000008_Node000042"><a xlink:title=" ">
<path fill="none" stroke="#63b8ff" d="M1297.72,-307.84C1313.2,-298.6 1333.32,-286.59 1348.71,-277.4"/>
<polygon fill="#63b8ff" stroke="#63b8ff" points="1350.81,-280.23 1357.6,-272.09 1347.22,-274.21 1350.81,-280.23"/>
</a>
</g>
</g>
<!-- Node43 -->
<g id="Node000043" class="node">
<title>Node43</title>
<g id="a_Node000043"><a xlink:title=" ">
<polygon fill="#e0e0e0" stroke="#999999" points="1477.5,-272 1422.5,-272 1422.5,-253 1477.5,-253 1477.5,-272"/>
<text text-anchor="middle" x="1450" y="-260" font-family="Helvetica,sans-Serif" font-size="10.00">fstream</text>
</a>
</g>
</g>
<!-- Node8&#45;&gt;Node43 -->
<g id="edge64_Node000008_Node000043" class="edge">
<title>Node8&#45;&gt;Node43</title>
<g id="a_edge64_Node000008_Node000043"><a xlink:title=" ">
<path fill="none" stroke="#63b8ff" d="M1316.16,-307.99C1346.27,-297.98 1386.31,-284.67 1414.73,-275.22"/>
<polygon fill="#63b8ff" stroke="#63b8ff" points="1415.88,-278.53 1424.27,-272.05 1413.67,-271.89 1415.88,-278.53"/>
</a>
</g>
</g>
<!-- Node9&#45;&gt;Node2 -->
<g id="edge9_Node000009_Node000002" class="edge">
<title>Node9&#45;&gt;Node2</title>
<g id="a_edge9_Node000009_Node000002"><a xlink:title=" ">
<path fill="none" stroke="#63b8ff" d="M1398.82,-125.46C1383.28,-123.83 1367.15,-122.26 1352,-121 1100.75,-100.08 802.32,-85.77 663.8,-79.73"/>
<polygon fill="#63b8ff" stroke="#63b8ff" points="663.85,-76.23 653.71,-79.29 663.55,-83.22 663.85,-76.23"/>
</a>
</g>
</g>
<!-- Node9&#45;&gt;Node10 -->
<g id="edge10_Node000009_Node000010" class="edge">
<title>Node9&#45;&gt;Node10</title>
<g id="a_edge10_Node000009_Node000010"><a xlink:title=" ">
<path fill="none" stroke="#63b8ff" d="M1452.5,-120.99C1433.09,-111.45 1407.57,-98.9 1388.58,-89.57"/>
<polygon fill="#63b8ff" stroke="#63b8ff" points="1390.09,-86.41 1379.57,-85.14 1387,-92.69 1390.09,-86.41"/>
</a>
</g>
</g>
<!-- Node11 -->
<g id="Node000011" class="node">
<title>Node11</title>
<g id="a_Node000011"><a xlink:title=" ">
<polygon fill="#e0e0e0" stroke="#999999" points="1715,-85 1671,-85 1671,-66 1715,-66 1715,-85"/>
<text text-anchor="middle" x="1693" y="-73" font-family="Helvetica,sans-Serif" font-size="10.00">string</text>
</a>
</g>
</g>
<!-- Node9&#45;&gt;Node11 -->
<g id="edge11_Node000009_Node000011" class="edge">
<title>Node9&#45;&gt;Node11</title>
<g id="a_edge11_Node000009_Node000011"><a xlink:title=" ">
<path fill="none" stroke="#63b8ff" d="M1531.78,-120.99C1571.85,-109.93 1626.54,-94.84 1660.8,-85.38"/>
<polygon fill="#63b8ff" stroke="#63b8ff" points="1662.03,-88.68 1670.74,-82.64 1660.17,-81.93 1662.03,-88.68"/>
</a>
</g>
</g>
<!-- Node12 -->
<g id="Node000012" class="node">
<title>Node12</title>
<g id="a_Node000012"><a xlink:title=" ">
<polygon fill="#e0e0e0" stroke="#999999" points="1300.5,-85 1253.5,-85 1253.5,-66 1300.5,-66 1300.5,-85"/>
<text text-anchor="middle" x="1277" y="-73" font-family="Helvetica,sans-Serif" font-size="10.00">vector</text>
</a>
</g>
</g>
<!-- Node9&#45;&gt;Node12 -->
<g id="edge12_Node000009_Node000012" class="edge">
<title>Node9&#45;&gt;Node12</title>
<g id="a_edge12_Node000009_Node000012"><a xlink:title=" ">
<path fill="none" stroke="#63b8ff" d="M1432.14,-120.99C1394.43,-110.17 1343.28,-95.51 1310.2,-86.02"/>
<polygon fill="#63b8ff" stroke="#63b8ff" points="1311.13,-82.65 1300.55,-83.25 1309.2,-89.38 1311.13,-82.65"/>
</a>
</g>
</g>
<!-- Node13 -->
<g id="Node000013" class="node">
<title>Node13</title>
<g id="a_Node000013"><a xlink:title=" ">
<polygon fill="#e0e0e0" stroke="#999999" points="1549,-85 1413,-85 1413,-66 1549,-66 1549,-85"/>
<text text-anchor="middle" x="1481" y="-73" font-family="Helvetica,sans-Serif" font-size="10.00">casadi/core/function.hpp</text>
</a>
</g>
</g>
<!-- Node9&#45;&gt;Node13 -->
<g id="edge13_Node000009_Node000013" class="edge">
<title>Node9&#45;&gt;Node13</title>
<g id="a_edge13_Node000009_Node000013"><a xlink:title=" ">
<path fill="none" stroke="#63b8ff" d="M1481,-120.84C1481,-113.21 1481,-103.7 1481,-95.45"/>
<polygon fill="#63b8ff" stroke="#63b8ff" points="1484.5,-95.27 1481,-85.27 1477.5,-95.27 1484.5,-95.27"/>
</a>
</g>
</g>
<!-- Node14 -->
<g id="Node000014" class="node">
<title>Node14</title>
<g id="a_Node000014"><a xlink:title=" ">
<polygon fill="#e0e0e0" stroke="#999999" points="1653,-85 1567,-85 1567,-66 1653,-66 1653,-85"/>
<text text-anchor="middle" x="1610" y="-73" font-family="Helvetica,sans-Serif" font-size="10.00">casadi/mem.h</text>
</a>
</g>
</g>
<!-- Node9&#45;&gt;Node14 -->
<g id="edge14_Node000009_Node000014" class="edge">
<title>Node9&#45;&gt;Node14</title>
<g id="a_edge14_Node000009_Node000014"><a xlink:title=" ">
<path fill="none" stroke="#63b8ff" d="M1511.9,-120.99C1533.13,-111.36 1561.11,-98.67 1581.75,-89.31"/>
<polygon fill="#63b8ff" stroke="#63b8ff" points="1583.29,-92.46 1590.95,-85.14 1580.4,-86.08 1583.29,-92.46"/>
</a>
</g>
</g>
<!-- Node15&#45;&gt;Node2 -->
<g id="edge18_Node000015_Node000002" class="edge">
<title>Node15&#45;&gt;Node2</title>
<g id="a_edge18_Node000015_Node000002"><a xlink:title=" ">
<path fill="none" stroke="#63b8ff" d="M774.57,-252.99C726.82,-246.38 665.35,-235.18 613,-217 553.65,-196.39 520.43,-204.8 488,-151 481.12,-139.58 480.78,-132.21 488,-121 498.16,-105.23 515.43,-94.98 532.66,-88.35"/>
<polygon fill="#63b8ff" stroke="#63b8ff" points="533.9,-91.63 542.19,-85.03 531.59,-85.02 533.9,-91.63"/>
</a>
</g>
</g>
<!-- Node16 -->
<g id="Node000016" class="node">
<title>Node16</title>
<g id="a_Node000016"><a xlink:href="casadi-loader-export_8hpp.html" target="_top" xlink:title=" ">
<polygon fill="white" stroke="#666666" points="440.5,-217 321.5,-217 321.5,-187 440.5,-187 440.5,-217"/>
<text text-anchor="start" x="329.5" y="-205" font-family="Helvetica,sans-Serif" font-size="10.00">alpaqa/casadi&#45;loader</text>
<text text-anchor="middle" x="381" y="-194" font-family="Helvetica,sans-Serif" font-size="10.00">&#45;export.hpp</text>
</a>
</g>
</g>
<!-- Node15&#45;&gt;Node16 -->
<g id="edge16_Node000015_Node000016" class="edge">
<title>Node15&#45;&gt;Node16</title>
<g id="a_edge16_Node000015_Node000016"><a xlink:title=" ">
<path fill="none" stroke="#63b8ff" d="M761.83,-253.22C680.79,-245.47 559.77,-232.73 455,-217 453.55,-216.78 452.08,-216.56 450.6,-216.32"/>
<polygon fill="#63b8ff" stroke="#63b8ff" points="451.14,-212.87 440.71,-214.7 450.01,-219.77 451.14,-212.87"/>
</a>
</g>
</g>
<!-- Node18 -->
<g id="Node000018" class="node">
<title>Node18</title>
<g id="a_Node000018"><a xlink:href="box-constr-problem_8hpp.html" target="_top" xlink:title=" ">
<polygon fill="white" stroke="#666666" points="1046,-217 930,-217 930,-187 1046,-187 1046,-217"/>
<text text-anchor="start" x="938" y="-205" font-family="Helvetica,sans-Serif" font-size="10.00">alpaqa/problem/box</text>
<text text-anchor="middle" x="988" y="-194" font-family="Helvetica,sans-Serif" font-size="10.00">&#45;constr&#45;problem.hpp</text>
</a>
</g>
</g>
<!-- Node15&#45;&gt;Node18 -->
<g id="edge19_Node000015_Node000018" class="edge">
<title>Node15&#45;&gt;Node18</title>
<g id="a_edge19_Node000015_Node000018"><a xlink:title=" ">
<path fill="none" stroke="#63b8ff" d="M873.48,-252.99C892.52,-244.68 922.09,-231.78 946.41,-221.16"/>
<polygon fill="#63b8ff" stroke="#63b8ff" points="948.02,-224.27 955.78,-217.06 945.22,-217.86 948.02,-224.27"/>
</a>
</g>
</g>
<!-- Node27 -->
<g id="Node000027" class="node">
<title>Node27</title>
<g id="a_Node000027"><a xlink:href="sparsity_8hpp.html" target="_top" xlink:title=" ">
<polygon fill="white" stroke="#666666" points="777.5,-211.5 622.5,-211.5 622.5,-192.5 777.5,-192.5 777.5,-211.5"/>
<text text-anchor="middle" x="700" y="-199.5" font-family="Helvetica,sans-Serif" font-size="10.00">alpaqa/problem/sparsity.hpp</text>
</a>
</g>
</g>
<!-- Node15&#45;&gt;Node27 -->
<g id="edge34_Node000015_Node000027" class="edge">
<title>Node15&#45;&gt;Node27</title>
<g id="a_edge34_Node000015_Node000027"><a xlink:title=" ">
<path fill="none" stroke="#63b8ff" d="M831.61,-252.99C805.38,-243.03 761.72,-226.45 731.94,-215.13"/>
<polygon fill="#63b8ff" stroke="#63b8ff" points="733.01,-211.8 722.42,-211.52 730.53,-218.34 733.01,-211.8"/>
</a>
</g>
</g>
<!-- Node32 -->
<g id="Node000032" class="node">
<title>Node32</title>
<g id="a_Node000032"><a xlink:href="copyable__unique__ptr_8hpp.html" target="_top" xlink:title=" ">
<polygon fill="white" stroke="#666666" points="912,-217 796,-217 796,-187 912,-187 912,-217"/>
<text text-anchor="start" x="804" y="-205" font-family="Helvetica,sans-Serif" font-size="10.00">alpaqa/util/copyable</text>
<text text-anchor="middle" x="854" y="-194" font-family="Helvetica,sans-Serif" font-size="10.00">_unique_ptr.hpp</text>
</a>
</g>
</g>
<!-- Node15&#45;&gt;Node32 -->
<g id="edge40_Node000015_Node000032" class="edge">
<title>Node15&#45;&gt;Node32</title>
<g id="a_edge40_Node000015_Node000032"><a xlink:title=" ">
<path fill="none" stroke="#63b8ff" d="M854,-252.87C854,-246.11 854,-236.35 854,-227.26"/>
<polygon fill="#63b8ff" stroke="#63b8ff" points="857.5,-227.11 854,-217.11 850.5,-227.11 857.5,-227.11"/>
</a>
</g>
</g>
<!-- Node15&#45;&gt;Node34 -->
<g id="edge42_Node000015_Node000034" class="edge">
<title>Node15&#45;&gt;Node34</title>
<g id="a_edge42_Node000015_Node000034"><a xlink:title=" ">
<path fill="none" stroke="#63b8ff" d="M898.22,-252.99C939.14,-244.82 1001.55,-231.58 1055,-217 1057.77,-216.24 1060.62,-215.42 1063.49,-214.56"/>
<polygon fill="#63b8ff" stroke="#63b8ff" points="1064.61,-217.88 1073.11,-211.56 1062.52,-211.19 1064.61,-217.88"/>
</a>
</g>
</g>
<!-- Node17 -->
<g id="Node000017" class="node">
<title>Node17</title>
<g id="a_Node000017"><a xlink:title=" ">
<polygon fill="#e0e0e0" stroke="#999999" points="440.5,-151 321.5,-151 321.5,-121 440.5,-121 440.5,-151"/>
<text text-anchor="start" x="329.5" y="-139" font-family="Helvetica,sans-Serif" font-size="10.00">alpaqa/casadi&#45;loader</text>
<text text-anchor="middle" x="381" y="-128" font-family="Helvetica,sans-Serif" font-size="10.00">&#45;export.h</text>
</a>
</g>
</g>
<!-- Node16&#45;&gt;Node17 -->
<g id="edge17_Node000016_Node000017" class="edge">
<title>Node16&#45;&gt;Node17</title>
<g id="a_edge17_Node000016_Node000017"><a xlink:title=" ">
<path fill="none" stroke="#63b8ff" d="M381,-186.8C381,-179.34 381,-169.99 381,-161.41"/>
<polygon fill="#63b8ff" stroke="#63b8ff" points="384.5,-161.16 381,-151.16 377.5,-161.16 384.5,-161.16"/>
</a>
</g>
</g>
<!-- Node19 -->
<g id="Node000019" class="node">
<title>Node19</title>
<g id="a_Node000019"><a xlink:href="box_8hpp.html" target="_top" xlink:title=" ">
<polygon fill="white" stroke="#666666" points="740.5,-145.5 605.5,-145.5 605.5,-126.5 740.5,-126.5 740.5,-145.5"/>
<text text-anchor="middle" x="673" y="-133.5" font-family="Helvetica,sans-Serif" font-size="10.00">alpaqa/problem/box.hpp</text>
</a>
</g>
</g>
<!-- Node18&#45;&gt;Node19 -->
<g id="edge20_Node000018_Node000019" class="edge">
<title>Node18&#45;&gt;Node19</title>
<g id="a_edge20_Node000018_Node000019"><a xlink:title=" ">
<path fill="none" stroke="#63b8ff" d="M929.9,-188.83C926.89,-188.21 923.91,-187.6 921,-187 853.78,-173.2 776.24,-157.62 726.01,-147.57"/>
<polygon fill="#63b8ff" stroke="#63b8ff" points="726.52,-144.11 716.03,-145.58 725.15,-150.97 726.52,-144.11"/>
</a>
</g>
</g>
<!-- Node24 -->
<g id="Node000024" class="node">
<title>Node24</title>
<g id="a_Node000024"><a xlink:href="check-dim_8hpp.html" target="_top" xlink:title=" ">
<polygon fill="white" stroke="#666666" points="1724.5,-145.5 1581.5,-145.5 1581.5,-126.5 1724.5,-126.5 1724.5,-145.5"/>
<text text-anchor="middle" x="1653" y="-133.5" font-family="Helvetica,sans-Serif" font-size="10.00">alpaqa/util/check&#45;dim.hpp</text>
</a>
</g>
</g>
<!-- Node18&#45;&gt;Node24 -->
<g id="edge28_Node000018_Node000024" class="edge">
<title>Node18&#45;&gt;Node24</title>
<g id="a_edge28_Node000018_Node000024"><a xlink:title=" ">
<path fill="none" stroke="#63b8ff" d="M1046.02,-188.37C1049.05,-187.87 1052.06,-187.41 1055,-187 1283.15,-155.37 1343.33,-178.65 1572,-151 1580.65,-149.95 1589.77,-148.61 1598.66,-147.17"/>
<polygon fill="#63b8ff" stroke="#63b8ff" points="1599.27,-150.62 1608.56,-145.52 1598.12,-143.72 1599.27,-150.62"/>
</a>
</g>
</g>
<!-- Node26 -->
<g id="Node000026" class="node">
<title>Node26</title>
<g id="a_Node000026"><a xlink:title=" ">
<polygon fill="#e0e0e0" stroke="#999999" points="1787.5,-145.5 1742.5,-145.5 1742.5,-126.5 1787.5,-126.5 1787.5,-145.5"/>
<text text-anchor="middle" x="1765" y="-133.5" font-family="Helvetica,sans-Serif" font-size="10.00">utility</text>
</a>
</g>
</g>
<!-- Node18&#45;&gt;Node26 -->
<g id="edge33_Node000018_Node000026" class="edge">
<title>Node18&#45;&gt;Node26</title>
<g id="a_edge33_Node000018_Node000026"><a xlink:title=" ">
<path fill="none" stroke="#63b8ff" d="M1046.01,-188.31C1049.04,-187.83 1052.05,-187.38 1055,-187 1354.23,-148.03 1439.38,-220.6 1733,-151 1734.95,-150.54 1736.92,-149.96 1738.89,-149.31"/>
<polygon fill="#63b8ff" stroke="#63b8ff" points="1740.41,-152.48 1748.45,-145.58 1737.86,-145.96 1740.41,-152.48"/>
</a>
</g>
</g>
<!-- Node19&#45;&gt;Node2 -->
<g id="edge21_Node000019_Node000002" class="edge">
<title>Node19&#45;&gt;Node2</title>
<g id="a_edge21_Node000019_Node000002"><a xlink:title=" ">
<path fill="none" stroke="#63b8ff" d="M660.16,-126.37C646.28,-117.04 623.93,-102.01 607.39,-90.88"/>
<polygon fill="#63b8ff" stroke="#63b8ff" points="609.14,-87.84 598.89,-85.17 605.24,-93.65 609.14,-87.84"/>
</a>
</g>
</g>
<!-- Node20 -->
<g id="Node000020" class="node">
<title>Node20</title>
<g id="a_Node000020"><a xlink:href="float_8hpp.html" target="_top" xlink:title=" ">
<polygon fill="white" stroke="#666666" points="227,-85 113,-85 113,-66 227,-66 227,-85"/>
<text text-anchor="middle" x="170" y="-73" font-family="Helvetica,sans-Serif" font-size="10.00">alpaqa/util/float.hpp</text>
</a>
</g>
</g>
<!-- Node19&#45;&gt;Node20 -->
<g id="edge22_Node000019_Node000020" class="edge">
<title>Node19&#45;&gt;Node20</title>
<g id="a_edge22_Node000019_Node000020"><a xlink:title=" ">
<path fill="none" stroke="#63b8ff" d="M605.23,-126.76C589.4,-124.85 572.61,-122.84 557,-121 444.83,-107.78 314.32,-92.87 237.13,-84.1"/>
<polygon fill="#63b8ff" stroke="#63b8ff" points="237.39,-80.61 227.06,-82.96 236.6,-87.57 237.39,-80.61"/>
</a>
</g>
</g>
<!-- Node20&#45;&gt;Node4 -->
<g id="edge23_Node000020_Node000004" class="edge">
<title>Node20&#45;&gt;Node4</title>
<g id="a_edge23_Node000020_Node000004"><a xlink:title=" ">
<path fill="none" stroke="#63b8ff" d="M198.79,-65.99C228.03,-57.35 274.11,-43.74 310.8,-32.9"/>
<polygon fill="#63b8ff" stroke="#63b8ff" points="311.8,-36.25 320.4,-30.06 309.82,-29.54 311.8,-36.25"/>
</a>
</g>
</g>
<!-- Node20&#45;&gt;Node6 -->
<g id="edge27_Node000020_Node000006" class="edge">
<title>Node20&#45;&gt;Node6</title>
<g id="a_edge27_Node000020_Node000006"><a xlink:title=" ">
<path fill="none" stroke="#63b8ff" d="M182.54,-65.87C196.1,-56.54 217.94,-41.51 234.1,-30.38"/>
<polygon fill="#63b8ff" stroke="#63b8ff" points="236.15,-33.22 242.41,-24.67 232.18,-27.45 236.15,-33.22"/>
</a>
</g>
</g>
<!-- Node21 -->
<g id="Node000021" class="node">
<title>Node21</title>
<g id="a_Node000021"><a xlink:title=" ">
<polygon fill="#e0e0e0" stroke="#999999" points="125.5,-24.5 78.5,-24.5 78.5,-5.5 125.5,-5.5 125.5,-24.5"/>
<text text-anchor="middle" x="102" y="-12.5" font-family="Helvetica,sans-Serif" font-size="10.00">cmath</text>
</a>
</g>
</g>
<!-- Node20&#45;&gt;Node21 -->
<g id="edge24_Node000020_Node000021" class="edge">
<title>Node20&#45;&gt;Node21</title>
<g id="a_edge24_Node000020_Node000021"><a xlink:title=" ">
<path fill="none" stroke="#63b8ff" d="M159.97,-65.87C149.42,-56.8 132.61,-42.34 119.81,-31.32"/>
<polygon fill="#63b8ff" stroke="#63b8ff" points="121.94,-28.54 112.07,-24.67 117.37,-33.84 121.94,-28.54"/>
</a>
</g>
</g>
<!-- Node22 -->
<g id="Node000022" class="node">
<title>Node22</title>
<g id="a_Node000022"><a xlink:title=" ">
<polygon fill="#e0e0e0" stroke="#999999" points="202.5,-24.5 143.5,-24.5 143.5,-5.5 202.5,-5.5 202.5,-24.5"/>
<text text-anchor="middle" x="173" y="-12.5" font-family="Helvetica,sans-Serif" font-size="10.00">complex</text>
</a>
</g>
</g>
<!-- Node20&#45;&gt;Node22 -->
<g id="edge25_Node000020_Node000022" class="edge">
<title>Node20&#45;&gt;Node22</title>
<g id="a_edge25_Node000020_Node000022"><a xlink:title=" ">
<path fill="none" stroke="#63b8ff" d="M170.44,-65.87C170.86,-57.75 171.5,-45.31 172.03,-34.89"/>
<polygon fill="#63b8ff" stroke="#63b8ff" points="175.54,-34.83 172.56,-24.67 168.55,-34.47 175.54,-34.83"/>
</a>
</g>
</g>
<!-- Node23 -->
<g id="Node000023" class="node">
<title>Node23</title>
<g id="a_Node000023"><a xlink:title=" ">
<polygon fill="#e0e0e0" stroke="#999999" points="60,-24.5 0,-24.5 0,-5.5 60,-5.5 60,-24.5"/>
<text text-anchor="middle" x="30" y="-12.5" font-family="Helvetica,sans-Serif" font-size="10.00">concepts</text>
</a>
</g>
</g>
<!-- Node20&#45;&gt;Node23 -->
<g id="edge26_Node000020_Node000023" class="edge">
<title>Node20&#45;&gt;Node23</title>
<g id="a_edge26_Node000020_Node000023"><a xlink:title=" ">
<path fill="none" stroke="#63b8ff" d="M149.64,-65.99C126,-56.12 86.8,-39.73 59.75,-28.43"/>
<polygon fill="#63b8ff" stroke="#63b8ff" points="60.96,-25.14 50.38,-24.52 58.26,-31.6 60.96,-25.14"/>
</a>
</g>
</g>
<!-- Node24&#45;&gt;Node2 -->
<g id="edge29_Node000024_Node000002" class="edge">
<title>Node24&#45;&gt;Node2</title>
<g id="a_edge29_Node000024_Node000002"><a xlink:title=" ">
<path fill="none" stroke="#63b8ff" d="M1609.42,-126.43C1597.35,-124.34 1584.2,-122.32 1572,-121 1396.5,-101.95 864.78,-84.74 663.94,-78.75"/>
<polygon fill="#63b8ff" stroke="#63b8ff" points="663.87,-75.24 653.77,-78.44 663.66,-82.24 663.87,-75.24"/>
</a>
</g>
</g>
<!-- Node24&#45;&gt;Node10 -->
<g id="edge31_Node000024_Node000010" class="edge">
<title>Node24&#45;&gt;Node10</title>
<g id="a_edge31_Node000024_Node000010"><a xlink:title=" ">
<path fill="none" stroke="#63b8ff" d="M1610.26,-126.44C1562.69,-116.9 1483.25,-100.97 1404.64,-85.13"/>
<polygon fill="#63b8ff" stroke="#63b8ff" points="1405.05,-81.64 1394.56,-83.09 1403.67,-88.5 1405.05,-81.64"/>
</a>
</g>
</g>
<!-- Node24&#45;&gt;Node11 -->
<g id="edge32_Node000024_Node000011" class="edge">
<title>Node24&#45;&gt;Node11</title>
<g id="a_edge32_Node000024_Node000011"><a xlink:title=" ">
<path fill="none" stroke="#63b8ff" d="M1658.9,-126.37C1664.75,-117.81 1673.87,-104.47 1681.21,-93.74"/>
<polygon fill="#63b8ff" stroke="#63b8ff" points="1684.32,-95.4 1687.07,-85.17 1678.54,-91.45 1684.32,-95.4"/>
</a>
</g>
</g>
<!-- Node24&#45;&gt;Node25 -->
<g id="edge30_Node000024_Node000025" class="edge">
<title>Node24&#45;&gt;Node25</title>
<g id="a_edge30_Node000024_Node000025"><a xlink:title=" ">
<path fill="none" stroke="#63b8ff" d="M1699.9,-126.43C1710.75,-124.55 1722.27,-122.63 1733,-121 1844.14,-104.12 1976.05,-88.26 2039.77,-80.86"/>
<polygon fill="#63b8ff" stroke="#63b8ff" points="2040.23,-84.33 2049.77,-79.71 2039.43,-77.38 2040.23,-84.33"/>
</a>
</g>
</g>
<!-- Node27&#45;&gt;Node2 -->
<g id="edge35_Node000027_Node000002" class="edge">
<title>Node27&#45;&gt;Node2</title>
<g id="a_edge35_Node000027_Node000002"><a xlink:title=" ">
<path fill="none" stroke="#63b8ff" d="M662.14,-192.48C639.32,-185.31 611.71,-172.64 596,-151 584.4,-135.02 583.02,-111.91 583.83,-95.68"/>
<polygon fill="#63b8ff" stroke="#63b8ff" points="587.35,-95.53 584.69,-85.27 580.38,-94.95 587.35,-95.53"/>
</a>
</g>
</g>
<!-- Node28 -->
<g id="Node000028" class="node">
<title>Node28</title>
<g id="a_Node000028"><a xlink:href="export_8hpp.html" target="_top" xlink:title=" ">
<polygon fill="white" stroke="#666666" points="863.5,-145.5 758.5,-145.5 758.5,-126.5 863.5,-126.5 863.5,-145.5"/>
<text text-anchor="middle" x="811" y="-133.5" font-family="Helvetica,sans-Serif" font-size="10.00">alpaqa/export.hpp</text>
</a>
</g>
</g>
<!-- Node27&#45;&gt;Node28 -->
<g id="edge36_Node000027_Node000028" class="edge">
<title>Node27&#45;&gt;Node28</title>
<g id="a_edge36_Node000027_Node000028"><a xlink:title=" ">
<path fill="none" stroke="#63b8ff" d="M714.97,-192.37C733.51,-181.68 765.31,-163.35 787.2,-150.72"/>
<polygon fill="#63b8ff" stroke="#63b8ff" points="789,-153.73 795.91,-145.7 785.5,-147.66 789,-153.73"/>
</a>
</g>
</g>
<!-- Node27&#45;&gt;Node30 -->
<g id="edge38_Node000027_Node000030" class="edge">
<title>Node27&#45;&gt;Node30</title>
<g id="a_edge38_Node000027_Node000030"><a xlink:title=" ">
<path fill="none" stroke="#63b8ff" d="M732.6,-192.44C767.39,-183.1 824,-167.28 872,-151 873.66,-150.44 875.35,-149.84 877.06,-149.23"/>
<polygon fill="#63b8ff" stroke="#63b8ff" points="878.65,-152.38 886.79,-145.6 876.2,-145.82 878.65,-152.38"/>
</a>
</g>
</g>
<!-- Node31 -->
<g id="Node000031" class="node">
<title>Node31</title>
<g id="a_Node000031"><a xlink:title=" ">
<polygon fill="#e0e0e0" stroke="#999999" points="548.5,-145.5 497.5,-145.5 497.5,-126.5 548.5,-126.5 548.5,-145.5"/>
<text text-anchor="middle" x="523" y="-133.5" font-family="Helvetica,sans-Serif" font-size="10.00">variant</text>
</a>
</g>
</g>
<!-- Node27&#45;&gt;Node31 -->
<g id="edge39_Node000027_Node000031" class="edge">
<title>Node27&#45;&gt;Node31</title>
<g id="a_edge39_Node000027_Node000031"><a xlink:title=" ">
<path fill="none" stroke="#63b8ff" d="M676.13,-192.37C645.3,-181.22 591.45,-161.75 556.52,-149.12"/>
<polygon fill="#63b8ff" stroke="#63b8ff" points="557.37,-145.71 546.77,-145.6 554.99,-152.29 557.37,-145.71"/>
</a>
</g>
</g>
<!-- Node29 -->
<g id="Node000029" class="node">
<title>Node29</title>
<g id="a_Node000029"><a xlink:title=" ">
<polygon fill="#e0e0e0" stroke="#999999" points="1179.5,-85 1086.5,-85 1086.5,-66 1179.5,-66 1179.5,-85"/>
<text text-anchor="middle" x="1133" y="-73" font-family="Helvetica,sans-Serif" font-size="10.00">alpaqa/export.h</text>
</a>
</g>
</g>
<!-- Node28&#45;&gt;Node29 -->
<g id="edge37_Node000028_Node000029" class="edge">
<title>Node28&#45;&gt;Node29</title>
<g id="a_edge37_Node000028_Node000029"><a xlink:title=" ">
<path fill="none" stroke="#63b8ff" d="M847.32,-126.46C855.74,-124.58 864.67,-122.65 873,-121 942.7,-107.18 1023.42,-93.76 1076.2,-85.34"/>
<polygon fill="#63b8ff" stroke="#63b8ff" points="1077.04,-88.75 1086.37,-83.72 1075.94,-81.84 1077.04,-88.75"/>
</a>
</g>
</g>
<!-- Node32&#45;&gt;Node33 -->
<g id="edge41_Node000032_Node000033" class="edge">
<title>Node32&#45;&gt;Node33</title>
<g id="a_edge41_Node000032_Node000033"><a xlink:title=" ">
<path fill="none" stroke="#63b8ff" d="M881.87,-186.95C903.65,-175.98 933.7,-160.83 954.99,-150.11"/>
<polygon fill="#63b8ff" stroke="#63b8ff" points="956.74,-153.14 964.1,-145.52 953.59,-146.89 956.74,-153.14"/>
</a>
</g>
</g>
<!-- Node35&#45;&gt;Node2 -->
<g id="edge44_Node000035_Node000002" class="edge">
<title>Node35&#45;&gt;Node2</title>
<g id="a_edge44_Node000035_Node000002"><a xlink:title=" ">
<path fill="none" stroke="#63b8ff" d="M1049.44,-126.48C1039.55,-124.49 1028.91,-122.51 1019,-121 895.4,-102.16 750.7,-89.08 663.81,-82.19"/>
<polygon fill="#63b8ff" stroke="#63b8ff" points="664,-78.7 653.76,-81.4 663.46,-85.67 664,-78.7"/>
</a>
</g>
</g>
<!-- Node35&#45;&gt;Node10 -->
<g id="edge47_Node000035_Node000010" class="edge">
<title>Node35&#45;&gt;Node10</title>
<g id="a_edge47_Node000035_Node000010"><a xlink:title=" ">
<path fill="none" stroke="#63b8ff" d="M1127.84,-126.49C1178.91,-115.59 1267.08,-96.77 1319.43,-85.59"/>
<polygon fill="#63b8ff" stroke="#63b8ff" points="1320.35,-88.97 1329.4,-83.46 1318.89,-82.12 1320.35,-88.97"/>
</a>
</g>
</g>
<!-- Node35&#45;&gt;Node12 -->
<g id="edge48_Node000035_Node000012" class="edge">
<title>Node35&#45;&gt;Node12</title>
<g id="a_edge48_Node000035_Node000012"><a xlink:title=" ">
<path fill="none" stroke="#63b8ff" d="M1115.48,-126.49C1149.45,-115.98 1207.23,-98.1 1243.69,-86.81"/>
<polygon fill="#63b8ff" stroke="#63b8ff" points="1244.85,-90.12 1253.37,-83.81 1242.78,-83.43 1244.85,-90.12"/>
</a>
</g>
</g>
<!-- Node35&#45;&gt;Node29 -->
<g id="edge45_Node000035_Node000029" class="edge">
<title>Node35&#45;&gt;Node29</title>
<g id="a_edge45_Node000035_Node000029"><a xlink:title=" ">
<path fill="none" stroke="#63b8ff" d="M1094.64,-126.37C1101.29,-117.73 1111.69,-104.2 1119.99,-93.42"/>
<polygon fill="#63b8ff" stroke="#63b8ff" points="1123.01,-95.23 1126.33,-85.17 1117.46,-90.96 1123.01,-95.23"/>
</a>
</g>
</g>
<!-- Node36 -->
<g id="Node000036" class="node">
<title>Node36</title>
<g id="a_Node000036"><a xlink:title=" ">
<polygon fill="#e0e0e0" stroke="#999999" points="1068,-85 1020,-85 1020,-66 1068,-66 1068,-85"/>
<text text-anchor="middle" x="1044" y="-73" font-family="Helvetica,sans-Serif" font-size="10.00">iosfwd</text>
</a>
</g>
</g>
<!-- Node35&#45;&gt;Node36 -->
<g id="edge46_Node000035_Node000036" class="edge">
<title>Node35&#45;&gt;Node36</title>
<g id="a_edge46_Node000035_Node000036"><a xlink:title=" ">
<path fill="none" stroke="#63b8ff" d="M1081.51,-126.37C1075.01,-117.73 1064.84,-104.2 1056.72,-93.42"/>
<polygon fill="#63b8ff" stroke="#63b8ff" points="1059.33,-91.06 1050.52,-85.17 1053.73,-95.26 1059.33,-91.06"/>
</a>
</g>
</g>
<!-- Node37&#45;&gt;Node10 -->
<g id="edge51_Node000037_Node000010" class="edge">
<title>Node37&#45;&gt;Node10</title>
<g id="a_edge51_Node000037_Node000010"><a xlink:title=" ">
<path fill="none" stroke="#63b8ff" d="M1270.79,-126.37C1288.33,-116.78 1316.88,-101.17 1337.37,-89.97"/>
<polygon fill="#63b8ff" stroke="#63b8ff" points="1339.05,-93.04 1346.15,-85.17 1335.69,-86.89 1339.05,-93.04"/>
</a>
</g>
</g>
<!-- Node37&#45;&gt;Node29 -->
<g id="edge50_Node000037_Node000029" class="edge">
<title>Node37&#45;&gt;Node29</title>
<g id="a_edge50_Node000037_Node000029"><a xlink:title=" ">
<path fill="none" stroke="#63b8ff" d="M1237.26,-126.49C1216.93,-116.75 1183.39,-100.66 1159.86,-89.38"/>
<polygon fill="#63b8ff" stroke="#63b8ff" points="1161.29,-86.18 1150.76,-85.02 1158.26,-92.5 1161.29,-86.18"/>
</a>
</g>
</g>
<!-- Node38&#45;&gt;Node10 -->
<g id="edge57_Node000038_Node000010" class="edge">
<title>Node38&#45;&gt;Node10</title>
<g id="a_edge57_Node000038_Node000010"><a xlink:title=" ">
<path fill="none" stroke="#63b8ff" d="M1879.76,-192.38C1858.43,-172.58 1806.83,-125.2 1797,-121 1638.68,-53.4 1579.74,-108.31 1404.99,-84.93"/>
<polygon fill="#63b8ff" stroke="#63b8ff" points="1405.35,-81.45 1394.96,-83.52 1404.37,-88.38 1405.35,-81.45"/>
</a>
</g>
</g>
<!-- Node38&#45;&gt;Node11 -->
<g id="edge58_Node000038_Node000011" class="edge">
<title>Node38&#45;&gt;Node11</title>
<g id="a_edge58_Node000038_Node000011"><a xlink:title=" ">
<path fill="none" stroke="#63b8ff" d="M1893.08,-192.41C1900,-176.42 1911.75,-141.84 1895,-121 1874.1,-95 1777.15,-83.3 1725.54,-78.84"/>
<polygon fill="#63b8ff" stroke="#63b8ff" points="1725.51,-75.32 1715.25,-77.99 1724.93,-82.3 1725.51,-75.32"/>
</a>
</g>
</g>
<!-- Node38&#45;&gt;Node25 -->
<g id="edge56_Node000038_Node000025" class="edge">
<title>Node38&#45;&gt;Node25</title>
<g id="a_edge56_Node000038_Node000025"><a xlink:title=" ">
<path fill="none" stroke="#63b8ff" d="M1951.83,-197.51C1987.83,-192.23 2031.24,-179.79 2059,-151 2073.3,-136.17 2077.27,-112.13 2078.16,-95.39"/>
<polygon fill="#63b8ff" stroke="#63b8ff" points="2081.66,-95.23 2078.37,-85.16 2074.66,-95.09 2081.66,-95.23"/>
</a>
</g>
</g>
<!-- Node38&#45;&gt;Node26 -->
<g id="edge59_Node000038_Node000026" class="edge">
<title>Node38&#45;&gt;Node26</title>
<g id="a_edge59_Node000038_Node000026"><a xlink:title=" ">
<path fill="none" stroke="#63b8ff" d="M1872.28,-192.37C1851.38,-181.59 1815.41,-163.02 1790.93,-150.38"/>
<polygon fill="#63b8ff" stroke="#63b8ff" points="1792.35,-147.18 1781.85,-145.7 1789.14,-153.4 1792.35,-147.18"/>
</a>
</g>
</g>
<!-- Node39 -->
<g id="Node000039" class="node">
<title>Node39</title>
<g id="a_Node000039"><a xlink:title=" ">
<polygon fill="#e0e0e0" stroke="#999999" points="2049.5,-151 1942.5,-151 1942.5,-121 2049.5,-121 2049.5,-151"/>
<text text-anchor="start" x="1950.5" y="-139" font-family="Helvetica,sans-Serif" font-size="10.00">casadi/core/casadi</text>
<text text-anchor="middle" x="1996" y="-128" font-family="Helvetica,sans-Serif" font-size="10.00">_types.hpp</text>
</a>
</g>
</g>
<!-- Node38&#45;&gt;Node39 -->
<g id="edge53_Node000038_Node000039" class="edge">
<title>Node38&#45;&gt;Node39</title>
<g id="a_edge53_Node000038_Node000039"><a xlink:title=" ">
<path fill="none" stroke="#63b8ff" d="M1903.43,-192.37C1918.77,-183.2 1943.52,-168.39 1963.57,-156.4"/>
<polygon fill="#63b8ff" stroke="#63b8ff" points="1965.62,-159.25 1972.4,-151.12 1962.02,-153.25 1965.62,-159.25"/>
</a>
</g>
</g>
<!-- Node38&#45;&gt;Node40 -->
<g id="edge54_Node000038_Node000040" class="edge">
<title>Node38&#45;&gt;Node40</title>
<g id="a_edge54_Node000038_Node000040"><a xlink:title=" ">
<path fill="none" stroke="#63b8ff" d="M1927.27,-192.44C1978.86,-180.89 2070.69,-160.34 2126.89,-147.77"/>
<polygon fill="#63b8ff" stroke="#63b8ff" points="2127.96,-151.11 2136.95,-145.51 2126.43,-144.28 2127.96,-151.11"/>
</a>
</g>
</g>
<!-- Node41 -->
<g id="Node000041" class="node">
<title>Node41</title>
<g id="a_Node000041"><a xlink:title=" ">
<polygon fill="#e0e0e0" stroke="#999999" points="1886,-145.5 1844,-145.5 1844,-126.5 1886,-126.5 1886,-145.5"/>
<text text-anchor="middle" x="1865" y="-133.5" font-family="Helvetica,sans-Serif" font-size="10.00">array</text>
</a>
</g>
</g>
<!-- Node38&#45;&gt;Node41 -->
<g id="edge55_Node000038_Node000041" class="edge">
<title>Node38&#45;&gt;Node41</title>
<g id="a_edge55_Node000038_Node000041"><a xlink:title=" ">
<path fill="none" stroke="#63b8ff" d="M1885.76,-192.37C1882.24,-182.97 1876.5,-167.67 1871.95,-155.53"/>
<polygon fill="#63b8ff" stroke="#63b8ff" points="1875.13,-154.04 1868.34,-145.91 1868.57,-156.5 1875.13,-154.04"/>
</a>
</g>
</g>
</g>
</svg>
