<?xml version="1.0" encoding="UTF-8" standalone="no"?>
<!DOCTYPE svg PUBLIC "-//W3C//DTD SVG 1.1//EN"
 "http://www.w3.org/Graphics/SVG/1.1/DTD/svg11.dtd">
<!-- Generated by graphviz version 2.43.0 (0)
 -->
<!-- Title: src/interop/casadi/include/alpaqa/implementation/casadi/CasADiLoader&#45;util.hpp Pages: 1 -->
<svg width="614pt" height="115pt"
 viewBox="0.00 0.00 614.00 115.00" xmlns="http://www.w3.org/2000/svg" xmlns:xlink="http://www.w3.org/1999/xlink">
<g id="graph0" class="graph" transform="scale(1 1) rotate(0) translate(4 111)">
<title>src/interop/casadi/include/alpaqa/implementation/casadi/CasADiLoader&#45;util.hpp</title>
<!-- Node1 -->
<g id="Node000001" class="node">
<title>Node1</title>
<g id="a_Node000001"><a xlink:title=" ">
<polygon fill="#999999" stroke="#666666" points="454.5,-107 282.5,-107 282.5,-66 454.5,-66 454.5,-107"/>
<text text-anchor="start" x="290.5" y="-95" font-family="Helvetica,sans-Serif" font-size="10.00">src/interop/casadi</text>
<text text-anchor="start" x="290.5" y="-84" font-family="Helvetica,sans-Serif" font-size="10.00">/include/alpaqa/implementation</text>
<text text-anchor="middle" x="368.5" y="-73" font-family="Helvetica,sans-Serif" font-size="10.00">/casadi/CasADiLoader&#45;util.hpp</text>
</a>
</g>
</g>
<!-- Node2 -->
<g id="Node000002" class="node">
<title>Node2</title>
<g id="a_Node000002"><a xlink:title=" ">
<polygon fill="#e0e0e0" stroke="#999999" points="107,-30 0,-30 0,0 107,0 107,-30"/>
<text text-anchor="start" x="8" y="-18" font-family="Helvetica,sans-Serif" font-size="10.00">casadi/core/casadi</text>
<text text-anchor="middle" x="53.5" y="-7" font-family="Helvetica,sans-Serif" font-size="10.00">_types.hpp</text>
</a>
</g>
</g>
<!-- Node1&#45;&gt;Node2 -->
<g id="edge1_Node000001_Node000002" class="edge">
<title>Node1&#45;&gt;Node2</title>
<g id="a_edge1_Node000001_Node000002"><a xlink:title=" ">
<path fill="none" stroke="#63b8ff" d="M282.4,-66.75C236.03,-56.62 177.57,-43.8 117.34,-30.4"/>
<polygon fill="#63b8ff" stroke="#63b8ff" points="117.79,-26.92 107.26,-28.16 116.27,-33.75 117.79,-26.92"/>
</a>
</g>
</g>
<!-- Node3 -->
<g id="Node000003" class="node">
<title>Node3</title>
<g id="a_Node000003"><a xlink:title=" ">
<polygon fill="#e0e0e0" stroke="#999999" points="262,-24.5 125,-24.5 125,-5.5 262,-5.5 262,-24.5"/>
<text text-anchor="middle" x="193.5" y="-12.5" font-family="Helvetica,sans-Serif" font-size="10.00">casadi/core/external.hpp</text>
</a>
</g>
</g>
<!-- Node1&#45;&gt;Node3 -->
<g id="edge2_Node000001_Node000003" class="edge">
<title>Node1&#45;&gt;Node3</title>
<g id="a_edge2_Node000001_Node000003"><a xlink:title=" ">
<path fill="none" stroke="#63b8ff" d="M319.29,-65.96C288.81,-53.85 250.61,-38.68 224.35,-28.25"/>
<polygon fill="#63b8ff" stroke="#63b8ff" points="225.5,-24.94 214.91,-24.5 222.91,-31.45 225.5,-24.94"/>
</a>
</g>
</g>
<!-- Node4 -->
<g id="Node000004" class="node">
<title>Node4</title>
<g id="a_Node000004"><a xlink:title=" ">
<polygon fill="#e0e0e0" stroke="#999999" points="322.5,-24.5 280.5,-24.5 280.5,-5.5 322.5,-5.5 322.5,-24.5"/>
<text text-anchor="middle" x="301.5" y="-12.5" font-family="Helvetica,sans-Serif" font-size="10.00">array</text>
</a>
</g>
</g>
<!-- Node1&#45;&gt;Node4 -->
<g id="edge3_Node000001_Node000004" class="edge">
<title>Node1&#45;&gt;Node4</title>
<g id="a_edge3_Node000001_Node000004"><a xlink:title=" ">
<path fill="none" stroke="#63b8ff" d="M349.48,-65.77C339.22,-55.13 326.72,-42.16 317.05,-32.13"/>
<polygon fill="#63b8ff" stroke="#63b8ff" points="319.46,-29.59 310,-24.82 314.42,-34.45 319.46,-29.59"/>
</a>
</g>
</g>
<!-- Node5 -->
<g id="Node000005" class="node">
<title>Node5</title>
<g id="a_Node000005"><a xlink:title=" ">
<polygon fill="#e0e0e0" stroke="#999999" points="396.5,-24.5 340.5,-24.5 340.5,-5.5 396.5,-5.5 396.5,-24.5"/>
<text text-anchor="middle" x="368.5" y="-12.5" font-family="Helvetica,sans-Serif" font-size="10.00">optional</text>
</a>
</g>
</g>
<!-- Node1&#45;&gt;Node5 -->
<g id="edge4_Node000001_Node000005" class="edge">
<title>Node1&#45;&gt;Node5</title>
<g id="a_edge4_Node000001_Node000005"><a xlink:title=" ">
<path fill="none" stroke="#63b8ff" d="M368.5,-65.77C368.5,-56.08 368.5,-44.46 368.5,-34.88"/>
<polygon fill="#63b8ff" stroke="#63b8ff" points="372,-34.82 368.5,-24.82 365,-34.82 372,-34.82"/>
</a>
</g>
</g>
<!-- Node6 -->
<g id="Node000006" class="node">
<title>Node6</title>
<g id="a_Node000006"><a xlink:title=" ">
<polygon fill="#e0e0e0" stroke="#999999" points="480,-24.5 415,-24.5 415,-5.5 480,-5.5 480,-24.5"/>
<text text-anchor="middle" x="447.5" y="-12.5" font-family="Helvetica,sans-Serif" font-size="10.00">stdexcept</text>
</a>
</g>
</g>
<!-- Node1&#45;&gt;Node6 -->
<g id="edge5_Node000001_Node000006" class="edge">
<title>Node1&#45;&gt;Node6</title>
<g id="a_edge5_Node000001_Node000006"><a xlink:title=" ">
<path fill="none" stroke="#63b8ff" d="M390.93,-65.77C403.26,-54.92 418.34,-41.65 429.83,-31.54"/>
<polygon fill="#63b8ff" stroke="#63b8ff" points="432.28,-34.05 437.47,-24.82 427.65,-28.8 432.28,-34.05"/>
</a>
</g>
</g>
<!-- Node7 -->
<g id="Node000007" class="node">
<title>Node7</title>
<g id="a_Node000007"><a xlink:title=" ">
<polygon fill="#e0e0e0" stroke="#999999" points="542.5,-24.5 498.5,-24.5 498.5,-5.5 542.5,-5.5 542.5,-24.5"/>
<text text-anchor="middle" x="520.5" y="-12.5" font-family="Helvetica,sans-Serif" font-size="10.00">string</text>
</a>
</g>
</g>
<!-- Node1&#45;&gt;Node7 -->
<g id="edge6_Node000001_Node000007" class="edge">
<title>Node1&#45;&gt;Node7</title>
<g id="a_edge6_Node000001_Node000007"><a xlink:title=" ">
<path fill="none" stroke="#63b8ff" d="M411.24,-65.96C437.37,-54.01 470.02,-39.08 492.79,-28.67"/>
<polygon fill="#63b8ff" stroke="#63b8ff" points="494.26,-31.84 501.9,-24.5 491.35,-25.48 494.26,-31.84"/>
</a>
</g>
</g>
<!-- Node8 -->
<g id="Node000008" class="node">
<title>Node8</title>
<g id="a_Node000008"><a xlink:title=" ">
<polygon fill="#e0e0e0" stroke="#999999" points="606,-24.5 561,-24.5 561,-5.5 606,-5.5 606,-24.5"/>
<text text-anchor="middle" x="583.5" y="-12.5" font-family="Helvetica,sans-Serif" font-size="10.00">utility</text>
</a>
</g>
</g>
<!-- Node1&#45;&gt;Node8 -->
<g id="edge7_Node000001_Node000008" class="edge">
<title>Node1&#45;&gt;Node8</title>
<g id="a_edge7_Node000001_Node000008"><a xlink:title=" ">
<path fill="none" stroke="#63b8ff" d="M439.97,-65.95C474.05,-56.08 515.21,-43.39 551.5,-30 552.89,-29.49 554.3,-28.95 555.72,-28.39"/>
<polygon fill="#63b8ff" stroke="#63b8ff" points="557.14,-31.59 565.04,-24.52 554.46,-25.12 557.14,-31.59"/>
</a>
</g>
</g>
</g>
</svg>
