<?xml version="1.0" encoding="UTF-8" standalone="no"?>
<!DOCTYPE svg PUBLIC "-//W3C//DTD SVG 1.1//EN"
 "http://www.w3.org/Graphics/SVG/1.1/DTD/svg11.dtd">
<!-- Generated by graphviz version 2.43.0 (0)
 -->
<!-- Title: PANTRSolver&lt; DirectionT &gt; Pages: 1 -->
<svg width="296pt" height="840pt"
 viewBox="0.00 0.00 296.00 840.00" xmlns="http://www.w3.org/2000/svg" xmlns:xlink="http://www.w3.org/1999/xlink">
<g id="graph0" class="graph" transform="scale(1 1) rotate(0) translate(4 836)">
<title>PANTRSolver&lt; DirectionT &gt;</title>
<!-- Node1 -->
<g id="Node000001" class="node">
<title>Node1</title>
<g id="a_Node000001"><a xlink:title="PANTR solver for ALM.">
<polygon fill="#999999" stroke="transparent" points="264.5,-214 118.5,-214 118.5,0 264.5,0 264.5,-214"/>
<text text-anchor="start" x="123.5" y="-202" font-family="Helvetica,sans-Serif" font-size="10.00">PANTRSolver&lt; DirectionT &gt;</text>
<text text-anchor="start" x="124.5" y="-187" font-family="Helvetica,sans-Serif" font-size="10.00">+</text>
<text text-anchor="start" x="139.5" y="-187" font-family="Helvetica,sans-Serif" font-size="10.00">direction</text>
<text text-anchor="start" x="124.5" y="-172" font-family="Helvetica,sans-Serif" font-size="10.00">+</text>
<text text-anchor="start" x="139.5" y="-172" font-family="Helvetica,sans-Serif" font-size="10.00">os</text>
<text text-anchor="start" x="127" y="-157" font-family="Helvetica,sans-Serif" font-size="10.00">&#45;</text>
<text text-anchor="start" x="139.5" y="-157" font-family="Helvetica,sans-Serif" font-size="10.00">progress_cb</text>
<text text-anchor="start" x="124.5" y="-142" font-family="Helvetica,sans-Serif" font-size="10.00">+</text>
<text text-anchor="start" x="139.5" y="-142" font-family="Helvetica,sans-Serif" font-size="10.00">PANTRSolver()</text>
<text text-anchor="start" x="124.5" y="-127" font-family="Helvetica,sans-Serif" font-size="10.00">+</text>
<text text-anchor="start" x="139.5" y="-127" font-family="Helvetica,sans-Serif" font-size="10.00">PANTRSolver()</text>
<text text-anchor="start" x="124.5" y="-112" font-family="Helvetica,sans-Serif" font-size="10.00">+</text>
<text text-anchor="start" x="139.5" y="-112" font-family="Helvetica,sans-Serif" font-size="10.00">PANTRSolver()</text>
<text text-anchor="start" x="124.5" y="-97" font-family="Helvetica,sans-Serif" font-size="10.00">+</text>
<text text-anchor="start" x="139.5" y="-97" font-family="Helvetica,sans-Serif" font-size="10.00">operator()()</text>
<text text-anchor="start" x="124.5" y="-82" font-family="Helvetica,sans-Serif" font-size="10.00">+</text>
<text text-anchor="start" x="139.5" y="-82" font-family="Helvetica,sans-Serif" font-size="10.00">operator()()</text>
<text text-anchor="start" x="124.5" y="-67" font-family="Helvetica,sans-Serif" font-size="10.00">+</text>
<text text-anchor="start" x="139.5" y="-67" font-family="Helvetica,sans-Serif" font-size="10.00">operator()()</text>
<text text-anchor="start" x="124.5" y="-52" font-family="Helvetica,sans-Serif" font-size="10.00">+</text>
<text text-anchor="start" x="139.5" y="-52" font-family="Helvetica,sans-Serif" font-size="10.00">set_progress_callback()</text>
<text text-anchor="start" x="124.5" y="-37" font-family="Helvetica,sans-Serif" font-size="10.00">+</text>
<text text-anchor="start" x="139.5" y="-37" font-family="Helvetica,sans-Serif" font-size="10.00">get_name()</text>
<text text-anchor="start" x="124.5" y="-22" font-family="Helvetica,sans-Serif" font-size="10.00">+</text>
<text text-anchor="start" x="139.5" y="-22" font-family="Helvetica,sans-Serif" font-size="10.00">stop()</text>
<text text-anchor="start" x="124.5" y="-7" font-family="Helvetica,sans-Serif" font-size="10.00">+</text>
<text text-anchor="start" x="139.5" y="-7" font-family="Helvetica,sans-Serif" font-size="10.00">get_params()</text>
<polygon fill="#666666" stroke="#666666" points="118.5,-197 118.5,-197 264.5,-197 264.5,-197 118.5,-197"/>
<polygon fill="#666666" stroke="#666666" points="118.5,-152 118.5,-152 137.5,-152 137.5,-152 118.5,-152"/>
<polygon fill="#666666" stroke="#666666" points="137.5,-152 137.5,-152 264.5,-152 264.5,-152 137.5,-152"/>
<polygon fill="none" stroke="#666666" points="118.5,0 118.5,-214 264.5,-214 264.5,0 118.5,0"/>
</a>
</g>
</g>
<!-- Node2 -->
<g id="Node000002" class="node">
<title>Node2</title>
<g id="a_Node000002"><a xlink:href="namespacealpaqa.html#namespacealpaqa" target="_top" xlink:title=" ">
<polygon fill="white" stroke="transparent" points="155,-680 0,-680 0,-261 155,-261 155,-680"/>
<text text-anchor="start" x="13" y="-667.5" font-family="Helvetica,sans-Serif" font-size="10.00">PANTRParams&lt; config_t &gt;</text>
<text text-anchor="start" x="4.5" y="-652.5" font-family="Helvetica,sans-Serif" font-size="10.00">+</text>
<text text-anchor="start" x="17.5" y="-652.5" font-family="Helvetica,sans-Serif" font-size="10.00">max_iter</text>
<text text-anchor="start" x="4.5" y="-637.5" font-family="Helvetica,sans-Serif" font-size="10.00">+</text>
<text text-anchor="start" x="17.5" y="-637.5" font-family="Helvetica,sans-Serif" font-size="10.00">max_time</text>
<text text-anchor="start" x="4.5" y="-622.5" font-family="Helvetica,sans-Serif" font-size="10.00">+</text>
<text text-anchor="start" x="17.5" y="-622.5" font-family="Helvetica,sans-Serif" font-size="10.00">L_min</text>
<text text-anchor="start" x="4.5" y="-607.5" font-family="Helvetica,sans-Serif" font-size="10.00">+</text>
<text text-anchor="start" x="17.5" y="-607.5" font-family="Helvetica,sans-Serif" font-size="10.00">L_max</text>
<text text-anchor="start" x="4.5" y="-592.5" font-family="Helvetica,sans-Serif" font-size="10.00">+</text>
<text text-anchor="start" x="17.5" y="-592.5" font-family="Helvetica,sans-Serif" font-size="10.00">stop_crit</text>
<text text-anchor="start" x="4.5" y="-577.5" font-family="Helvetica,sans-Serif" font-size="10.00">+</text>
<text text-anchor="start" x="17.5" y="-577.5" font-family="Helvetica,sans-Serif" font-size="10.00">max_no_progress</text>
<text text-anchor="start" x="4.5" y="-562.5" font-family="Helvetica,sans-Serif" font-size="10.00">+</text>
<text text-anchor="start" x="17.5" y="-562.5" font-family="Helvetica,sans-Serif" font-size="10.00">print_interval</text>
<text text-anchor="start" x="4.5" y="-547.5" font-family="Helvetica,sans-Serif" font-size="10.00">+</text>
<text text-anchor="start" x="17.5" y="-547.5" font-family="Helvetica,sans-Serif" font-size="10.00">print_precision</text>
<text text-anchor="start" x="4.5" y="-532.5" font-family="Helvetica,sans-Serif" font-size="10.00">+</text>
<text text-anchor="start" x="17.5" y="-532.5" font-family="Helvetica,sans-Serif" font-size="10.00">quadratic_upperbound</text>
<text text-anchor="start" x="17.5" y="-521.5" font-family="Helvetica,sans-Serif" font-size="10.00">_tolerance_factor</text>
<text text-anchor="start" x="4.5" y="-506.5" font-family="Helvetica,sans-Serif" font-size="10.00">+</text>
<text text-anchor="start" x="17.5" y="-506.5" font-family="Helvetica,sans-Serif" font-size="10.00">TR_tolerance_factor</text>
<text text-anchor="start" x="4.5" y="-491.5" font-family="Helvetica,sans-Serif" font-size="10.00">+</text>
<text text-anchor="start" x="17.5" y="-491.5" font-family="Helvetica,sans-Serif" font-size="10.00">ratio_threshold_acceptable</text>
<text text-anchor="start" x="4.5" y="-476.5" font-family="Helvetica,sans-Serif" font-size="10.00">+</text>
<text text-anchor="start" x="17.5" y="-476.5" font-family="Helvetica,sans-Serif" font-size="10.00">ratio_threshold_good</text>
<text text-anchor="start" x="4.5" y="-461.5" font-family="Helvetica,sans-Serif" font-size="10.00">+</text>
<text text-anchor="start" x="17.5" y="-461.5" font-family="Helvetica,sans-Serif" font-size="10.00">radius_factor_rejected</text>
<text text-anchor="start" x="4.5" y="-446.5" font-family="Helvetica,sans-Serif" font-size="10.00">+</text>
<text text-anchor="start" x="17.5" y="-446.5" font-family="Helvetica,sans-Serif" font-size="10.00">radius_factor_acceptable</text>
<text text-anchor="start" x="4.5" y="-431.5" font-family="Helvetica,sans-Serif" font-size="10.00">+</text>
<text text-anchor="start" x="17.5" y="-431.5" font-family="Helvetica,sans-Serif" font-size="10.00">radius_factor_good</text>
<text text-anchor="start" x="4.5" y="-416.5" font-family="Helvetica,sans-Serif" font-size="10.00">+</text>
<text text-anchor="start" x="17.5" y="-416.5" font-family="Helvetica,sans-Serif" font-size="10.00">initial_radius</text>
<text text-anchor="start" x="4.5" y="-401.5" font-family="Helvetica,sans-Serif" font-size="10.00">+</text>
<text text-anchor="start" x="17.5" y="-401.5" font-family="Helvetica,sans-Serif" font-size="10.00">min_radius</text>
<text text-anchor="start" x="4.5" y="-386.5" font-family="Helvetica,sans-Serif" font-size="10.00">+</text>
<text text-anchor="start" x="17.5" y="-386.5" font-family="Helvetica,sans-Serif" font-size="10.00">compute_ratio_using</text>
<text text-anchor="start" x="17.5" y="-375.5" font-family="Helvetica,sans-Serif" font-size="10.00">_new_stepsize</text>
<text text-anchor="start" x="4.5" y="-360.5" font-family="Helvetica,sans-Serif" font-size="10.00">+</text>
<text text-anchor="start" x="17.5" y="-360.5" font-family="Helvetica,sans-Serif" font-size="10.00">update_direction_on</text>
<text text-anchor="start" x="17.5" y="-349.5" font-family="Helvetica,sans-Serif" font-size="10.00">_prox_step</text>
<text text-anchor="start" x="4.5" y="-334.5" font-family="Helvetica,sans-Serif" font-size="10.00">+</text>
<text text-anchor="start" x="17.5" y="-334.5" font-family="Helvetica,sans-Serif" font-size="10.00">recompute_last_prox</text>
<text text-anchor="start" x="17.5" y="-323.5" font-family="Helvetica,sans-Serif" font-size="10.00">_step_after_direction_reset</text>
<text text-anchor="start" x="4.5" y="-308.5" font-family="Helvetica,sans-Serif" font-size="10.00">+</text>
<text text-anchor="start" x="17.5" y="-308.5" font-family="Helvetica,sans-Serif" font-size="10.00">disable_acceleration</text>
<text text-anchor="start" x="4.5" y="-293.5" font-family="Helvetica,sans-Serif" font-size="10.00">+</text>
<text text-anchor="start" x="17.5" y="-293.5" font-family="Helvetica,sans-Serif" font-size="10.00">ratio_approx_fbe_quadratic</text>
<text text-anchor="start" x="17.5" y="-282.5" font-family="Helvetica,sans-Serif" font-size="10.00">_model</text>
<text text-anchor="start" x="76" y="-267.5" font-family="Helvetica,sans-Serif" font-size="10.00"> </text>
<polygon fill="#666666" stroke="#666666" points="0.5,-662.5 0.5,-662.5 155.5,-662.5 155.5,-662.5 0.5,-662.5"/>
<polygon fill="#666666" stroke="#666666" points="0.5,-277.5 0.5,-277.5 15.5,-277.5 15.5,-277.5 0.5,-277.5"/>
<polygon fill="#666666" stroke="#666666" points="15.5,-277.5 15.5,-277.5 155.5,-277.5 155.5,-277.5 15.5,-277.5"/>
<polygon fill="none" stroke="#666666" points="0,-261 0,-680 155,-680 155,-261 0,-261"/>
</a>
</g>
</g>
<!-- Node2&#45;&gt;Node1 -->
<g id="edge1_Node000001_Node000002" class="edge">
<title>Node2&#45;&gt;Node1</title>
<g id="a_edge1_Node000001_Node000002"><a xlink:title=" ">
<path fill="none" stroke="#63b8ff" d="M143.32,-260.78C147.06,-248.93 150.74,-237.25 154.31,-225.94"/>
<polygon fill="none" stroke="#63b8ff" points="154.37,-225.74 152.36,-218.81 157.98,-214.29 159.99,-221.22 154.37,-225.74"/>
</a>
</g>
<text text-anchor="middle" x="173.5" y="-235" font-family="Helvetica,sans-Serif" font-size="10.00" fill="grey"> &#45;params</text>
</g>
<!-- Node3 -->
<g id="Node000003" class="node">
<title>Node3</title>
<g id="a_Node000003"><a xlink:href="structalpaqa_1_1LipschitzEstimateParams.html" target="_top" xlink:title=" ">
<polygon fill="white" stroke="transparent" points="144,-832 11,-832 11,-727 144,-727 144,-832"/>
<text text-anchor="start" x="16.5" y="-819.5" font-family="Helvetica,sans-Serif" font-size="10.00">LipschitzEstimateParams</text>
<text text-anchor="start" x="47.5" y="-808.5" font-family="Helvetica,sans-Serif" font-size="10.00">&lt; config_t &gt;</text>
<text text-anchor="start" x="32" y="-793.5" font-family="Helvetica,sans-Serif" font-size="10.00">+</text>
<text text-anchor="start" x="61.5" y="-793.5" font-family="Helvetica,sans-Serif" font-size="10.00">L_0</text>
<text text-anchor="start" x="32" y="-778.5" font-family="Helvetica,sans-Serif" font-size="10.00">+</text>
<text text-anchor="start" x="61.5" y="-778.5" font-family="Helvetica,sans-Serif" font-size="10.00">ε</text>
<text text-anchor="start" x="32" y="-763.5" font-family="Helvetica,sans-Serif" font-size="10.00">+</text>
<text text-anchor="start" x="61.5" y="-763.5" font-family="Helvetica,sans-Serif" font-size="10.00">δ</text>
<text text-anchor="start" x="32" y="-748.5" font-family="Helvetica,sans-Serif" font-size="10.00">+</text>
<text text-anchor="start" x="61.5" y="-748.5" font-family="Helvetica,sans-Serif" font-size="10.00">Lγ_factor</text>
<text text-anchor="start" x="32" y="-733.5" font-family="Helvetica,sans-Serif" font-size="10.00">+</text>
<text text-anchor="start" x="61.5" y="-733.5" font-family="Helvetica,sans-Serif" font-size="10.00">verify()</text>
<polygon fill="#666666" stroke="#666666" points="11.5,-803.5 11.5,-803.5 144.5,-803.5 144.5,-803.5 11.5,-803.5"/>
<polygon fill="#666666" stroke="#666666" points="11.5,-743.5 11.5,-743.5 59.5,-743.5 59.5,-743.5 11.5,-743.5"/>
<polygon fill="#666666" stroke="#666666" points="59.5,-743.5 59.5,-743.5 144.5,-743.5 144.5,-743.5 59.5,-743.5"/>
<polygon fill="none" stroke="#666666" points="11,-727 11,-832 144,-832 144,-727 11,-727"/>
</a>
</g>
</g>
<!-- Node3&#45;&gt;Node2 -->
<g id="edge2_Node000002_Node000003" class="edge">
<title>Node3&#45;&gt;Node2</title>
<g id="a_edge2_Node000002_Node000003"><a xlink:title=" ">
<path fill="none" stroke="#63b8ff" d="M77.5,-726.77C77.5,-716.28 77.5,-704.64 77.5,-692.27"/>
<polygon fill="none" stroke="#63b8ff" points="77.5,-692.2 73.5,-686.2 77.5,-680.2 81.5,-686.2 77.5,-692.2"/>
</a>
</g>
<text text-anchor="middle" x="105" y="-701" font-family="Helvetica,sans-Serif" font-size="10.00" fill="grey"> +Lipschitz</text>
</g>
<!-- Node4 -->
<g id="Node000004" class="node">
<title>Node4</title>
<g id="a_Node000004"><a xlink:href="classalpaqa_1_1AtomicStopSignal.html" target="_top" xlink:title=" ">
<polygon fill="white" stroke="transparent" points="288,-540 173,-540 173,-401 288,-401 288,-540"/>
<text text-anchor="start" x="187.5" y="-527.5" font-family="Helvetica,sans-Serif" font-size="10.00">AtomicStopSignal</text>
<text text-anchor="start" x="180" y="-512.5" font-family="Helvetica,sans-Serif" font-size="10.00">&#45;</text>
<text text-anchor="start" x="190.5" y="-512.5" font-family="Helvetica,sans-Serif" font-size="10.00">stop_flag</text>
<text text-anchor="start" x="177.5" y="-497.5" font-family="Helvetica,sans-Serif" font-size="10.00">+</text>
<text text-anchor="start" x="190.5" y="-497.5" font-family="Helvetica,sans-Serif" font-size="10.00">AtomicStopSignal()</text>
<text text-anchor="start" x="177.5" y="-482.5" font-family="Helvetica,sans-Serif" font-size="10.00">+</text>
<text text-anchor="start" x="190.5" y="-482.5" font-family="Helvetica,sans-Serif" font-size="10.00">AtomicStopSignal()</text>
<text text-anchor="start" x="177.5" y="-467.5" font-family="Helvetica,sans-Serif" font-size="10.00">+</text>
<text text-anchor="start" x="190.5" y="-467.5" font-family="Helvetica,sans-Serif" font-size="10.00">operator=()</text>
<text text-anchor="start" x="177.5" y="-452.5" font-family="Helvetica,sans-Serif" font-size="10.00">+</text>
<text text-anchor="start" x="190.5" y="-452.5" font-family="Helvetica,sans-Serif" font-size="10.00">AtomicStopSignal()</text>
<text text-anchor="start" x="177.5" y="-437.5" font-family="Helvetica,sans-Serif" font-size="10.00">+</text>
<text text-anchor="start" x="190.5" y="-437.5" font-family="Helvetica,sans-Serif" font-size="10.00">operator=()</text>
<text text-anchor="start" x="177.5" y="-422.5" font-family="Helvetica,sans-Serif" font-size="10.00">+</text>
<text text-anchor="start" x="190.5" y="-422.5" font-family="Helvetica,sans-Serif" font-size="10.00">stop()</text>
<text text-anchor="start" x="177.5" y="-407.5" font-family="Helvetica,sans-Serif" font-size="10.00">+</text>
<text text-anchor="start" x="190.5" y="-407.5" font-family="Helvetica,sans-Serif" font-size="10.00">stop_requested()</text>
<polygon fill="#666666" stroke="#666666" points="173.5,-522.5 173.5,-522.5 288.5,-522.5 288.5,-522.5 173.5,-522.5"/>
<polygon fill="#666666" stroke="#666666" points="173.5,-507.5 173.5,-507.5 188.5,-507.5 188.5,-507.5 173.5,-507.5"/>
<polygon fill="#666666" stroke="#666666" points="188.5,-507.5 188.5,-507.5 288.5,-507.5 288.5,-507.5 188.5,-507.5"/>
<polygon fill="none" stroke="#666666" points="173,-401 173,-540 288,-540 288,-401 173,-401"/>
</a>
</g>
</g>
<!-- Node4&#45;&gt;Node1 -->
<g id="edge3_Node000001_Node000004" class="edge">
<title>Node4&#45;&gt;Node1</title>
<g id="a_edge3_Node000001_Node000004"><a xlink:title=" ">
<path fill="none" stroke="#63b8ff" d="M223.07,-400.65C217.77,-351.5 210.5,-284.15 204.28,-226.45"/>
<polygon fill="none" stroke="#63b8ff" points="204.25,-226.22 199.63,-220.69 202.97,-214.29 207.59,-219.83 204.25,-226.22"/>
</a>
</g>
<text text-anchor="middle" x="236" y="-235" font-family="Helvetica,sans-Serif" font-size="10.00" fill="grey"> &#45;stop_signal</text>
</g>
</g>
</svg>
