<?xml version="1.0" encoding="UTF-8" standalone="no"?>
<!DOCTYPE svg PUBLIC "-//W3C//DTD SVG 1.1//EN"
 "http://www.w3.org/Graphics/SVG/1.1/DTD/svg11.dtd">
<!-- Generated by graphviz version 2.43.0 (0)
 -->
<!-- Title: demangled_typename Pages: 1 -->
<svg width="720pt" height="375pt"
 viewBox="0.00 0.00 720.00 375.00" xmlns="http://www.w3.org/2000/svg" xmlns:xlink="http://www.w3.org/1999/xlink">
<g id="graph0" class="graph" transform="scale(1 1) rotate(0) translate(4 371)">
<title>demangled_typename</title>
<!-- Node1 -->
<g id="Node000001" class="node">
<title>Node1</title>
<g id="a_Node000001"><a xlink:title="Get the pretty name of the given type as a string.">
<polygon fill="#999999" stroke="#666666" points="712,-193.5 586,-193.5 586,-174.5 712,-174.5 712,-193.5"/>
<text text-anchor="middle" x="649" y="-181.5" font-family="Helvetica,sans-Serif" font-size="10.00">demangled_typename</text>
</a>
</g>
</g>
<!-- Node2 -->
<g id="Node000002" class="node">
<title>Node2</title>
<g id="a_Node000002"><a xlink:href="namespacealpaqa_1_1params.html#a852289f9dfc45e0c4193de2da3432067" target="_top" xlink:title="Throw a meaningful error when s.key is not empty, to indicate that the given type T is not of struct ...">
<polygon fill="white" stroke="#666666" points="521,-367 393,-367 393,-337 521,-337 521,-367"/>
<text text-anchor="start" x="401" y="-355" font-family="Helvetica,sans-Serif" font-size="10.00">alpaqa::params::assert</text>
<text text-anchor="middle" x="457" y="-344" font-family="Helvetica,sans-Serif" font-size="10.00">_key_empty</text>
</a>
</g>
</g>
<!-- Node1&#45;&gt;Node2 -->
<g id="edge1_Node000001_Node000002" class="edge">
<title>Node1&#45;&gt;Node2</title>
<g id="a_edge1_Node000001_Node000002"><a xlink:title=" ">
<path fill="none" stroke="#63b8ff" d="M640.33,-203.15C626.86,-234.27 595.96,-295.59 550,-328 541.37,-334.09 531.3,-338.63 521.06,-342.02"/>
<polygon fill="#63b8ff" stroke="#63b8ff" points="643.6,-204.42 644.23,-193.84 637.14,-201.72 643.6,-204.42"/>
</a>
</g>
</g>
<!-- Node3 -->
<g id="Node000003" class="node">
<title>Node3</title>
<g id="a_Node000003"><a xlink:href="classalpaqa_1_1dl_1_1ExtraFuncs.html#a273e485fe28cedadf95bd27909a7448e" target="_top" xlink:title=" ">
<polygon fill="white" stroke="#666666" points="519,-319 395,-319 395,-289 519,-289 519,-319"/>
<text text-anchor="start" x="403" y="-307" font-family="Helvetica,sans-Serif" font-size="10.00">alpaqa::dl::ExtraFuncs</text>
<text text-anchor="middle" x="457" y="-296" font-family="Helvetica,sans-Serif" font-size="10.00">::extra_func</text>
</a>
</g>
</g>
<!-- Node1&#45;&gt;Node3 -->
<g id="edge2_Node000001_Node000003" class="edge">
<title>Node1&#45;&gt;Node3</title>
<g id="a_edge2_Node000001_Node000003"><a xlink:title=" ">
<path fill="none" stroke="#63b8ff" d="M634.86,-201.61C617.73,-223.31 585.7,-259.79 550,-280 540.52,-285.37 529.81,-289.56 519.14,-292.83"/>
<polygon fill="#63b8ff" stroke="#63b8ff" points="637.73,-203.62 641.07,-193.56 632.19,-199.34 637.73,-203.62"/>
</a>
</g>
</g>
<!-- Node10 -->
<g id="Node000010" class="node">
<title>Node10</title>
<g id="a_Node000010"><a xlink:href="namespacealpaqa_1_1params.html#abb19a28ac46b361195999fdff5cf575f" target="_top" xlink:title=" ">
<polygon fill="white" stroke="#666666" points="513.5,-271 400.5,-271 400.5,-241 513.5,-241 513.5,-271"/>
<text text-anchor="start" x="408.5" y="-259" font-family="Helvetica,sans-Serif" font-size="10.00">alpaqa::params::set</text>
<text text-anchor="middle" x="457" y="-248" font-family="Helvetica,sans-Serif" font-size="10.00">_param</text>
</a>
</g>
</g>
<!-- Node1&#45;&gt;Node10 -->
<g id="edge9_Node000001_Node000010" class="edge">
<title>Node1&#45;&gt;Node10</title>
<g id="a_edge9_Node000001_Node000010"><a xlink:title=" ">
<path fill="none" stroke="#63b8ff" d="M622.28,-198.37C602.87,-208.77 575.34,-222.6 550,-232 538.39,-236.31 525.69,-240.15 513.53,-243.43"/>
<polygon fill="#63b8ff" stroke="#63b8ff" points="623.99,-201.42 631.11,-193.57 620.65,-195.27 623.99,-201.42"/>
</a>
</g>
</g>
<!-- Node11 -->
<g id="Node000011" class="node">
<title>Node11</title>
<g id="a_Node000011"><a xlink:href="namespacealpaqa_1_1params.html#aa5e8773a37c56c8296385ae08d7f93e6" target="_top" xlink:title="Update/overwrite the first argument based on the option in s.">
<polygon fill="white" stroke="#666666" points="513.5,-223 400.5,-223 400.5,-193 513.5,-193 513.5,-223"/>
<text text-anchor="start" x="408.5" y="-211" font-family="Helvetica,sans-Serif" font-size="10.00">alpaqa::params::set</text>
<text text-anchor="middle" x="457" y="-200" font-family="Helvetica,sans-Serif" font-size="10.00">_param</text>
</a>
</g>
</g>
<!-- Node1&#45;&gt;Node11 -->
<g id="edge10_Node000001_Node000011" class="edge">
<title>Node1&#45;&gt;Node11</title>
<g id="a_edge10_Node000001_Node000011"><a xlink:title=" ">
<path fill="none" stroke="#63b8ff" d="M575.81,-193.12C555.2,-195.72 533.08,-198.52 513.62,-200.97"/>
<polygon fill="#63b8ff" stroke="#63b8ff" points="576.3,-196.58 585.79,-191.86 575.43,-189.64 576.3,-196.58"/>
</a>
</g>
</g>
<!-- Node12 -->
<g id="Node000012" class="node">
<title>Node12</title>
<g id="a_Node000012"><a xlink:href="namespacealpaqa_1_1params.html#a6085a1535aaa464dae1b548875f87c6f" target="_top" xlink:title="Use s to index into the struct type T and overwrite the attribute given by s.key.">
<polygon fill="white" stroke="#666666" points="513.5,-175 400.5,-175 400.5,-145 513.5,-145 513.5,-175"/>
<text text-anchor="start" x="408.5" y="-163" font-family="Helvetica,sans-Serif" font-size="10.00">alpaqa::params::set</text>
<text text-anchor="middle" x="457" y="-152" font-family="Helvetica,sans-Serif" font-size="10.00">_param</text>
</a>
</g>
</g>
<!-- Node1&#45;&gt;Node12 -->
<g id="edge11_Node000001_Node000012" class="edge">
<title>Node1&#45;&gt;Node12</title>
<g id="a_edge11_Node000001_Node000012"><a xlink:title=" ">
<path fill="none" stroke="#63b8ff" d="M575.81,-174.88C555.2,-172.28 533.08,-169.48 513.62,-167.03"/>
<polygon fill="#63b8ff" stroke="#63b8ff" points="575.43,-178.36 585.79,-176.14 576.3,-171.42 575.43,-178.36"/>
</a>
</g>
</g>
<!-- Node13 -->
<g id="Node000013" class="node">
<title>Node13</title>
<g id="a_Node000013"><a xlink:href="namespaceanonymous__namespace_02from__chars-compat_8ipp_03.html#ab5c7079df5a54decbee29b9ea001f204" target="_top" xlink:title=" ">
<polygon fill="white" stroke="#666666" points="527,-126.5 387,-126.5 387,-85.5 527,-85.5 527,-126.5"/>
<text text-anchor="start" x="395" y="-114.5" font-family="Helvetica,sans-Serif" font-size="10.00">anonymous_namespace</text>
<text text-anchor="start" x="395" y="-103.5" font-family="Helvetica,sans-Serif" font-size="10.00">{from_chars&#45;compat::</text>
<text text-anchor="middle" x="457" y="-92.5" font-family="Helvetica,sans-Serif" font-size="10.00">ipp}::set_param_float_int</text>
</a>
</g>
</g>
<!-- Node1&#45;&gt;Node13 -->
<g id="edge12_Node000001_Node000013" class="edge">
<title>Node1&#45;&gt;Node13</title>
<g id="a_edge12_Node000001_Node000013"><a xlink:title=" ">
<path fill="none" stroke="#63b8ff" d="M621.4,-169.71C601.94,-159.57 574.74,-146.04 550,-136 541.9,-132.72 533.3,-129.53 524.73,-126.53"/>
<polygon fill="#63b8ff" stroke="#63b8ff" points="619.8,-172.82 630.28,-174.38 623.06,-166.63 619.8,-172.82"/>
</a>
</g>
</g>
<!-- Node14 -->
<g id="Node000014" class="node">
<title>Node14</title>
<g id="a_Node000014"><a xlink:href="namespacealpaqa_1_1params.html#a665142b3480d021942f322e2fe154f22" target="_top" xlink:title="Throw a meaningful error to indicate that parameters of type T are not supported or implemented.">
<polygon fill="white" stroke="#666666" points="550,-67.5 364,-67.5 364,-48.5 550,-48.5 550,-67.5"/>
<text text-anchor="middle" x="457" y="-55.5" font-family="Helvetica,sans-Serif" font-size="10.00">alpaqa::params::unsupported_type</text>
</a>
</g>
</g>
<!-- Node1&#45;&gt;Node14 -->
<g id="edge13_Node000001_Node000014" class="edge">
<title>Node1&#45;&gt;Node14</title>
<g id="a_edge13_Node000001_Node000014"><a xlink:title=" ">
<path fill="none" stroke="#63b8ff" d="M636.79,-165.6C620.78,-141 588.94,-97.96 550,-76 543.9,-72.56 537.26,-69.77 530.43,-67.51"/>
<polygon fill="#63b8ff" stroke="#63b8ff" points="634.01,-167.75 642.31,-174.33 639.93,-164.01 634.01,-167.75"/>
</a>
</g>
</g>
<!-- Node15 -->
<g id="Node000015" class="node">
<title>Node15</title>
<g id="a_Node000015"><a xlink:href="classalpaqa_1_1util_1_1bad__type__erased__type.html#abf843cbb29dec939d0731e491bab6f70" target="_top" xlink:title=" ">
<polygon fill="white" stroke="#666666" points="518,-30 396,-30 396,0 518,0 518,-30"/>
<text text-anchor="start" x="404" y="-18" font-family="Helvetica,sans-Serif" font-size="10.00">alpaqa::util::bad_type</text>
<text text-anchor="middle" x="457" y="-7" font-family="Helvetica,sans-Serif" font-size="10.00">_erased_type::what</text>
</a>
</g>
</g>
<!-- Node1&#45;&gt;Node15 -->
<g id="edge14_Node000001_Node000015" class="edge">
<title>Node1&#45;&gt;Node15</title>
<g id="a_edge14_Node000001_Node000015"><a xlink:title=" ">
<path fill="none" stroke="#63b8ff" d="M640.56,-165.17C627.25,-133.98 596.35,-71.8 550,-39 540.57,-32.33 529.42,-27.51 518.19,-24.03"/>
<polygon fill="#63b8ff" stroke="#63b8ff" points="637.35,-166.56 644.4,-174.47 643.82,-163.89 637.35,-166.56"/>
</a>
</g>
</g>
<!-- Node4 -->
<g id="Node000004" class="node">
<title>Node4</title>
<g id="a_Node000004"><a xlink:href="classalpaqa_1_1dl_1_1ExtraFuncs.html#a5d9869864258e53a69bf9f419cd21a77" target="_top" xlink:title=" ">
<polygon fill="white" stroke="#666666" points="328,-367 195,-367 195,-337 328,-337 328,-367"/>
<text text-anchor="start" x="203" y="-355" font-family="Helvetica,sans-Serif" font-size="10.00">alpaqa::dl::ExtraFuncs</text>
<text text-anchor="middle" x="261.5" y="-344" font-family="Helvetica,sans-Serif" font-size="10.00">::call_extra_func_helper</text>
</a>
</g>
</g>
<!-- Node3&#45;&gt;Node4 -->
<g id="edge3_Node000003_Node000004" class="edge">
<title>Node3&#45;&gt;Node4</title>
<g id="a_edge3_Node000003_Node000004"><a xlink:title=" ">
<path fill="none" stroke="#63b8ff" d="M385.41,-321.51C364.94,-326.59 342.77,-332.09 322.98,-337"/>
<polygon fill="#63b8ff" stroke="#63b8ff" points="386.44,-324.86 395.31,-319.06 384.76,-318.07 386.44,-324.86"/>
</a>
</g>
</g>
<!-- Node5 -->
<g id="Node000005" class="node">
<title>Node5</title>
<g id="a_Node000005"><a xlink:href="classalpaqa_1_1dl_1_1ExtraFuncs.html#a21b1342c38b8fd3409ad0a80a134b34d" target="_top" xlink:title=" ">
<polygon fill="white" stroke="#666666" points="328,-319 195,-319 195,-289 328,-289 328,-319"/>
<text text-anchor="start" x="203" y="-307" font-family="Helvetica,sans-Serif" font-size="10.00">alpaqa::dl::ExtraFuncs</text>
<text text-anchor="middle" x="261.5" y="-296" font-family="Helvetica,sans-Serif" font-size="10.00">::call_extra_func_helper</text>
</a>
</g>
</g>
<!-- Node3&#45;&gt;Node5 -->
<g id="edge4_Node000003_Node000005" class="edge">
<title>Node3&#45;&gt;Node5</title>
<g id="a_edge4_Node000003_Node000005"><a xlink:title=" ">
<path fill="none" stroke="#63b8ff" d="M384.63,-304C366.1,-304 346.23,-304 328.01,-304"/>
<polygon fill="#63b8ff" stroke="#63b8ff" points="384.78,-307.5 394.78,-304 384.78,-300.5 384.78,-307.5"/>
</a>
</g>
</g>
<!-- Node9 -->
<g id="Node000009" class="node">
<title>Node9</title>
<g id="a_Node000009"><a xlink:href="classalpaqa_1_1dl_1_1ExtraFuncs.html#a21e49a1fa61f8fea5ac4cab66c678b1f" target="_top" xlink:title=" ">
<polygon fill="white" stroke="#666666" points="328,-271 195,-271 195,-241 328,-241 328,-271"/>
<text text-anchor="start" x="203" y="-259" font-family="Helvetica,sans-Serif" font-size="10.00">alpaqa::dl::ExtraFuncs</text>
<text text-anchor="middle" x="261.5" y="-248" font-family="Helvetica,sans-Serif" font-size="10.00">::call_extra_func_helper</text>
</a>
</g>
</g>
<!-- Node3&#45;&gt;Node9 -->
<g id="edge8_Node000003_Node000009" class="edge">
<title>Node3&#45;&gt;Node9</title>
<g id="a_edge8_Node000003_Node000009"><a xlink:title=" ">
<path fill="none" stroke="#63b8ff" d="M385.41,-286.49C364.94,-281.41 342.77,-275.91 322.98,-271"/>
<polygon fill="#63b8ff" stroke="#63b8ff" points="384.76,-289.93 395.31,-288.94 386.44,-283.14 384.76,-289.93"/>
</a>
</g>
</g>
<!-- Node6 -->
<g id="Node000006" class="node">
<title>Node6</title>
<g id="a_Node000006"><a xlink:href="classalpaqa_1_1dl_1_1DLProblem.html#accae698118d338bfb57705e6a27d9561" target="_top" xlink:title=" ">
<polygon fill="white" stroke="#666666" points="141.5,-367 17.5,-367 17.5,-337 141.5,-337 141.5,-367"/>
<text text-anchor="start" x="25.5" y="-355" font-family="Helvetica,sans-Serif" font-size="10.00">alpaqa::dl::DLProblem</text>
<text text-anchor="middle" x="79.5" y="-344" font-family="Helvetica,sans-Serif" font-size="10.00">::call_extra_func</text>
</a>
</g>
</g>
<!-- Node5&#45;&gt;Node6 -->
<g id="edge5_Node000005_Node000006" class="edge">
<title>Node5&#45;&gt;Node6</title>
<g id="a_edge5_Node000005_Node000006"><a xlink:title=" ">
<path fill="none" stroke="#63b8ff" d="M194.31,-321.65C175.41,-326.69 155.01,-332.13 136.76,-337"/>
<polygon fill="#63b8ff" stroke="#63b8ff" points="195.28,-325.01 204.04,-319.06 193.48,-318.25 195.28,-325.01"/>
</a>
</g>
</g>
<!-- Node7 -->
<g id="Node000007" class="node">
<title>Node7</title>
<g id="a_Node000007"><a xlink:href="classalpaqa_1_1dl_1_1DLControlProblem.html#accae698118d338bfb57705e6a27d9561" target="_top" xlink:title=" ">
<polygon fill="white" stroke="#666666" points="159,-319 0,-319 0,-289 159,-289 159,-319"/>
<text text-anchor="start" x="8" y="-307" font-family="Helvetica,sans-Serif" font-size="10.00">alpaqa::dl::DLControlProblem</text>
<text text-anchor="middle" x="79.5" y="-296" font-family="Helvetica,sans-Serif" font-size="10.00">::call_extra_func</text>
</a>
</g>
</g>
<!-- Node5&#45;&gt;Node7 -->
<g id="edge6_Node000005_Node000007" class="edge">
<title>Node5&#45;&gt;Node7</title>
<g id="a_edge6_Node000005_Node000007"><a xlink:title=" ">
<path fill="none" stroke="#63b8ff" d="M184.61,-304C176.21,-304 167.65,-304 159.22,-304"/>
<polygon fill="#63b8ff" stroke="#63b8ff" points="184.75,-307.5 194.75,-304 184.75,-300.5 184.75,-307.5"/>
</a>
</g>
</g>
<!-- Node8 -->
<g id="Node000008" class="node">
<title>Node8</title>
<g id="a_Node000008"><a xlink:href="classalpaqa_1_1dl_1_1DLControlProblem.html#a79b15472c5450095cb80df60b65b851b" target="_top" xlink:title=" ">
<polygon fill="white" stroke="#666666" points="159,-271 0,-271 0,-241 159,-241 159,-271"/>
<text text-anchor="start" x="8" y="-259" font-family="Helvetica,sans-Serif" font-size="10.00">alpaqa::dl::DLControlProblem</text>
<text text-anchor="middle" x="79.5" y="-248" font-family="Helvetica,sans-Serif" font-size="10.00">::call_extra_func</text>
</a>
</g>
</g>
<!-- Node5&#45;&gt;Node8 -->
<g id="edge7_Node000005_Node000008" class="edge">
<title>Node5&#45;&gt;Node8</title>
<g id="a_edge7_Node000005_Node000008"><a xlink:title=" ">
<path fill="none" stroke="#63b8ff" d="M194.31,-286.35C175.41,-281.31 155.01,-275.87 136.76,-271"/>
<polygon fill="#63b8ff" stroke="#63b8ff" points="193.48,-289.75 204.04,-288.94 195.28,-282.99 193.48,-289.75"/>
</a>
</g>
</g>
</g>
</svg>
