<?xml version="1.0" encoding="UTF-8" standalone="no"?>
<!DOCTYPE svg PUBLIC "-//W3C//DTD SVG 1.1//EN"
 "http://www.w3.org/Graphics/SVG/1.1/DTD/svg11.dtd">
<!-- Generated by graphviz version 2.43.0 (0)
 -->
<!-- Title: src/alpaqa/include/alpaqa/inner/directions/panoc/lbfgs.hpp Pages: 1 -->
<svg width="1986pt" height="500pt"
 viewBox="0.00 0.00 1985.54 500.00" xmlns="http://www.w3.org/2000/svg" xmlns:xlink="http://www.w3.org/1999/xlink">
<g id="graph0" class="graph" transform="scale(1 1) rotate(0) translate(4 496)">
<title>src/alpaqa/include/alpaqa/inner/directions/panoc/lbfgs.hpp</title>
<!-- Node1 -->
<g id="Node000001" class="node">
<title>Node1</title>
<g id="a_Node000001"><a xlink:title=" ">
<polygon fill="#999999" stroke="#666666" points="544.5,-492 413.5,-492 413.5,-451 544.5,-451 544.5,-492"/>
<text text-anchor="start" x="421.5" y="-480" font-family="Helvetica,sans-Serif" font-size="10.00">src/alpaqa/include</text>
<text text-anchor="start" x="421.5" y="-469" font-family="Helvetica,sans-Serif" font-size="10.00">/alpaqa/inner/directions</text>
<text text-anchor="middle" x="479" y="-458" font-family="Helvetica,sans-Serif" font-size="10.00">/panoc/lbfgs.hpp</text>
</a>
</g>
</g>
<!-- Node2 -->
<g id="Node000002" class="node">
<title>Node2</title>
<g id="a_Node000002"><a xlink:href="accelerators_2lbfgs_8hpp.html" target="_top" xlink:title=" ">
<polygon fill="white" stroke="#666666" points="219.5,-217 106.5,-217 106.5,-187 219.5,-187 219.5,-217"/>
<text text-anchor="start" x="114.5" y="-205" font-family="Helvetica,sans-Serif" font-size="10.00">alpaqa/accelerators</text>
<text text-anchor="middle" x="163" y="-194" font-family="Helvetica,sans-Serif" font-size="10.00">/lbfgs.hpp</text>
</a>
</g>
</g>
<!-- Node1&#45;&gt;Node2 -->
<g id="edge1_Node000001_Node000002" class="edge">
<title>Node1&#45;&gt;Node2</title>
<g id="a_edge1_Node000001_Node000002"><a xlink:title=" ">
<path fill="none" stroke="#63b8ff" d="M445.84,-450.95C429.48,-440.85 409.72,-427.95 393,-415 310.68,-351.26 222.66,-264.09 183.65,-224.33"/>
<polygon fill="#63b8ff" stroke="#63b8ff" points="186.01,-221.74 176.52,-217.03 181,-226.63 186.01,-221.74"/>
</a>
</g>
</g>
<!-- Node15 -->
<g id="Node000015" class="node">
<title>Node15</title>
<g id="a_Node000015"><a xlink:href="panoc-direction-update_8hpp.html" target="_top" xlink:title=" ">
<polygon fill="white" stroke="#666666" points="556,-415 402,-415 402,-385 556,-385 556,-415"/>
<text text-anchor="start" x="410" y="-403" font-family="Helvetica,sans-Serif" font-size="10.00">alpaqa/inner/directions</text>
<text text-anchor="middle" x="479" y="-392" font-family="Helvetica,sans-Serif" font-size="10.00">/panoc&#45;direction&#45;update.hpp</text>
</a>
</g>
</g>
<!-- Node1&#45;&gt;Node15 -->
<g id="edge15_Node000001_Node000015" class="edge">
<title>Node1&#45;&gt;Node15</title>
<g id="a_edge15_Node000001_Node000015"><a xlink:title=" ">
<path fill="none" stroke="#63b8ff" d="M479,-450.77C479,-442.85 479,-433.63 479,-425.3"/>
<polygon fill="#63b8ff" stroke="#63b8ff" points="482.5,-425.04 479,-415.04 475.5,-425.04 482.5,-425.04"/>
</a>
</g>
</g>
<!-- Node16 -->
<g id="Node000016" class="node">
<title>Node16</title>
<g id="a_Node000016"><a xlink:href="type-erased-problem_8hpp.html" target="_top" xlink:title=" ">
<polygon fill="white" stroke="#666666" points="853.5,-349 734.5,-349 734.5,-319 853.5,-319 853.5,-349"/>
<text text-anchor="start" x="742.5" y="-337" font-family="Helvetica,sans-Serif" font-size="10.00">alpaqa/problem/type</text>
<text text-anchor="middle" x="794" y="-326" font-family="Helvetica,sans-Serif" font-size="10.00">&#45;erased&#45;problem.hpp</text>
</a>
</g>
</g>
<!-- Node1&#45;&gt;Node16 -->
<g id="edge71_Node000001_Node000016" class="edge">
<title>Node1&#45;&gt;Node16</title>
<g id="a_edge71_Node000001_Node000016"><a xlink:title=" ">
<path fill="none" stroke="#63b8ff" d="M524.47,-450.94C585.31,-424.77 692.41,-378.7 751.63,-353.22"/>
<polygon fill="#63b8ff" stroke="#63b8ff" points="753.26,-356.34 761.06,-349.17 750.49,-349.9 753.26,-356.34"/>
</a>
</g>
</g>
<!-- Node3 -->
<g id="Node000003" class="node">
<title>Node3</title>
<g id="a_Node000003"><a xlink:href="config_8hpp.html" target="_top" xlink:title=" ">
<polygon fill="white" stroke="#666666" points="485.5,-145.5 350.5,-145.5 350.5,-126.5 485.5,-126.5 485.5,-145.5"/>
<text text-anchor="middle" x="418" y="-133.5" font-family="Helvetica,sans-Serif" font-size="10.00">alpaqa/config/config.hpp</text>
</a>
</g>
</g>
<!-- Node2&#45;&gt;Node3 -->
<g id="edge2_Node000002_Node000003" class="edge">
<title>Node2&#45;&gt;Node3</title>
<g id="a_edge2_Node000002_Node000003"><a xlink:title=" ">
<path fill="none" stroke="#63b8ff" d="M218.96,-186.95C265.65,-175.24 331.27,-158.77 374.2,-147.99"/>
<polygon fill="#63b8ff" stroke="#63b8ff" points="375.22,-151.35 384.06,-145.52 373.51,-144.56 375.22,-151.35"/>
</a>
</g>
</g>
<!-- Node6 -->
<g id="Node000006" class="node">
<title>Node6</title>
<g id="a_Node000006"><a xlink:title=" ">
<polygon fill="#e0e0e0" stroke="#999999" points="44,-79.5 0,-79.5 0,-60.5 44,-60.5 44,-79.5"/>
<text text-anchor="middle" x="22" y="-67.5" font-family="Helvetica,sans-Serif" font-size="10.00">limits</text>
</a>
</g>
</g>
<!-- Node2&#45;&gt;Node6 -->
<g id="edge11_Node000002_Node000006" class="edge">
<title>Node2&#45;&gt;Node6</title>
<g id="a_edge11_Node000002_Node000006"><a xlink:title=" ">
<path fill="none" stroke="#63b8ff" d="M106.37,-194.06C78.64,-187.59 47.34,-175.11 29,-151 15.64,-133.44 16.12,-107.02 18.44,-89.4"/>
<polygon fill="#63b8ff" stroke="#63b8ff" points="21.9,-89.94 20.05,-79.51 14.99,-88.81 21.9,-89.94"/>
</a>
</g>
</g>
<!-- Node9 -->
<g id="Node000009" class="node">
<title>Node9</title>
<g id="a_Node000009"><a xlink:href="export_8hpp.html" target="_top" xlink:title=" ">
<polygon fill="white" stroke="#666666" points="995.5,-79.5 890.5,-79.5 890.5,-60.5 995.5,-60.5 995.5,-79.5"/>
<text text-anchor="middle" x="943" y="-67.5" font-family="Helvetica,sans-Serif" font-size="10.00">alpaqa/export.hpp</text>
</a>
</g>
</g>
<!-- Node2&#45;&gt;Node9 -->
<g id="edge8_Node000002_Node000009" class="edge">
<title>Node2&#45;&gt;Node9</title>
<g id="a_edge8_Node000002_Node000009"><a xlink:title=" ">
<path fill="none" stroke="#63b8ff" d="M211.27,-186.92C238.15,-178.22 271.78,-165.88 300,-151 320.29,-140.3 320.46,-128.9 342,-121 366.97,-111.84 731.12,-85.71 880.14,-75.33"/>
<polygon fill="#63b8ff" stroke="#63b8ff" points="880.75,-78.79 890.49,-74.61 880.27,-71.81 880.75,-78.79"/>
</a>
</g>
</g>
<!-- Node11 -->
<g id="Node000011" class="node">
<title>Node11</title>
<g id="a_Node000011"><a xlink:title=" ">
<polygon fill="#e0e0e0" stroke="#999999" points="121.5,-79.5 74.5,-79.5 74.5,-60.5 121.5,-60.5 121.5,-79.5"/>
<text text-anchor="middle" x="98" y="-67.5" font-family="Helvetica,sans-Serif" font-size="10.00">cmath</text>
</a>
</g>
</g>
<!-- Node2&#45;&gt;Node11 -->
<g id="edge10_Node000002_Node000011" class="edge">
<title>Node2&#45;&gt;Node11</title>
<g id="a_edge10_Node000002_Node000011"><a xlink:title=" ">
<path fill="none" stroke="#63b8ff" d="M153.84,-186.84C147.62,-176.97 139.41,-163.41 133,-151 122.28,-130.22 111.77,-105.45 105.11,-89.03"/>
<polygon fill="#63b8ff" stroke="#63b8ff" points="108.29,-87.56 101.33,-79.57 101.8,-90.16 108.29,-87.56"/>
</a>
</g>
</g>
<!-- Node12 -->
<g id="Node000012" class="node">
<title>Node12</title>
<g id="a_Node000012"><a xlink:title=" ">
<polygon fill="#e0e0e0" stroke="#999999" points="705,-79.5 661,-79.5 661,-60.5 705,-60.5 705,-79.5"/>
<text text-anchor="middle" x="683" y="-67.5" font-family="Helvetica,sans-Serif" font-size="10.00">string</text>
</a>
</g>
</g>
<!-- Node2&#45;&gt;Node12 -->
<g id="edge12_Node000002_Node000012" class="edge">
<title>Node2&#45;&gt;Node12</title>
<g id="a_edge12_Node000002_Node000012"><a xlink:title=" ">
<path fill="none" stroke="#63b8ff" d="M194.9,-186.9C215.35,-177.49 242.23,-164.42 265,-151 285.08,-139.17 286.16,-129.14 308,-121 452.05,-67.32 503.61,-125.15 652,-85 653.69,-84.54 655.39,-84.01 657.1,-83.41"/>
<polygon fill="#63b8ff" stroke="#63b8ff" points="658.67,-86.55 666.63,-79.57 656.05,-80.06 658.67,-86.55"/>
</a>
</g>
</g>
<!-- Node13 -->
<g id="Node000013" class="node">
<title>Node13</title>
<g id="a_Node000013"><a xlink:title=" ">
<polygon fill="#e0e0e0" stroke="#999999" points="548.5,-145.5 503.5,-145.5 503.5,-126.5 548.5,-126.5 548.5,-145.5"/>
<text text-anchor="middle" x="526" y="-133.5" font-family="Helvetica,sans-Serif" font-size="10.00">utility</text>
</a>
</g>
</g>
<!-- Node2&#45;&gt;Node13 -->
<g id="edge13_Node000002_Node000013" class="edge">
<title>Node2&#45;&gt;Node13</title>
<g id="a_edge13_Node000002_Node000013"><a xlink:title=" ">
<path fill="none" stroke="#63b8ff" d="M219.84,-193.31C307.71,-181.28 469.18,-158.62 495,-151 496.64,-150.52 498.3,-149.97 499.96,-149.37"/>
<polygon fill="#63b8ff" stroke="#63b8ff" points="501.33,-152.59 509.27,-145.57 498.68,-146.11 501.33,-152.59"/>
</a>
</g>
</g>
<!-- Node14 -->
<g id="Node000014" class="node">
<title>Node14</title>
<g id="a_Node000014"><a xlink:title=" ">
<polygon fill="#e0e0e0" stroke="#999999" points="85.5,-145.5 38.5,-145.5 38.5,-126.5 85.5,-126.5 85.5,-145.5"/>
<text text-anchor="middle" x="62" y="-133.5" font-family="Helvetica,sans-Serif" font-size="10.00">vector</text>
</a>
</g>
</g>
<!-- Node2&#45;&gt;Node14 -->
<g id="edge14_Node000002_Node000014" class="edge">
<title>Node2&#45;&gt;Node14</title>
<g id="a_edge14_Node000002_Node000014"><a xlink:title=" ">
<path fill="none" stroke="#63b8ff" d="M140.58,-186.8C123.81,-176.17 100.99,-161.7 84.25,-151.1"/>
<polygon fill="#63b8ff" stroke="#63b8ff" points="85.98,-148.05 75.66,-145.66 82.24,-153.97 85.98,-148.05"/>
</a>
</g>
</g>
<!-- Node4 -->
<g id="Node000004" class="node">
<title>Node4</title>
<g id="a_Node000004"><a xlink:href="quadmath-print_8hpp.html" target="_top" xlink:title=" ">
<polygon fill="white" stroke="#666666" points="476.5,-85 355.5,-85 355.5,-55 476.5,-55 476.5,-85"/>
<text text-anchor="start" x="363.5" y="-73" font-family="Helvetica,sans-Serif" font-size="10.00">alpaqa/util/quadmath</text>
<text text-anchor="middle" x="416" y="-62" font-family="Helvetica,sans-Serif" font-size="10.00">/quadmath&#45;print.hpp</text>
</a>
</g>
</g>
<!-- Node3&#45;&gt;Node4 -->
<g id="edge3_Node000003_Node000004" class="edge">
<title>Node3&#45;&gt;Node4</title>
<g id="a_edge3_Node000003_Node000004"><a xlink:title=" ">
<path fill="none" stroke="#63b8ff" d="M417.73,-126.37C417.48,-118.49 417.11,-106.45 416.77,-95.6"/>
<polygon fill="#63b8ff" stroke="#63b8ff" points="420.26,-95.25 416.45,-85.36 413.26,-95.46 420.26,-95.25"/>
</a>
</g>
</g>
<!-- Node5 -->
<g id="Node000005" class="node">
<title>Node5</title>
<g id="a_Node000005"><a xlink:href="quadmath_8hpp.html" target="_top" xlink:title=" ">
<polygon fill="white" stroke="#666666" points="337.5,-85 216.5,-85 216.5,-55 337.5,-55 337.5,-85"/>
<text text-anchor="start" x="224.5" y="-73" font-family="Helvetica,sans-Serif" font-size="10.00">alpaqa/util/quadmath</text>
<text text-anchor="middle" x="277" y="-62" font-family="Helvetica,sans-Serif" font-size="10.00">/quadmath.hpp</text>
</a>
</g>
</g>
<!-- Node3&#45;&gt;Node5 -->
<g id="edge4_Node000003_Node000005" class="edge">
<title>Node3&#45;&gt;Node5</title>
<g id="a_edge4_Node000003_Node000005"><a xlink:title=" ">
<path fill="none" stroke="#63b8ff" d="M398.98,-126.37C378.14,-116.91 344.09,-101.45 317.26,-89.27"/>
<polygon fill="#63b8ff" stroke="#63b8ff" points="318.65,-86.06 308.1,-85.12 315.76,-92.44 318.65,-86.06"/>
</a>
</g>
</g>
<!-- Node3&#45;&gt;Node6 -->
<g id="edge5_Node000003_Node000006" class="edge">
<title>Node3&#45;&gt;Node6</title>
<g id="a_edge5_Node000003_Node000006"><a xlink:title=" ">
<path fill="none" stroke="#63b8ff" d="M350.34,-128.95C278.81,-121.73 162.98,-107.71 65,-85 61.34,-84.15 57.55,-83.13 53.81,-82.04"/>
<polygon fill="#63b8ff" stroke="#63b8ff" points="54.7,-78.65 44.11,-79.01 52.62,-85.33 54.7,-78.65"/>
</a>
</g>
</g>
<!-- Node7 -->
<g id="Node000007" class="node">
<title>Node7</title>
<g id="a_Node000007"><a xlink:title=" ">
<polygon fill="#e0e0e0" stroke="#999999" points="1413.5,-79.5 1344.5,-79.5 1344.5,-60.5 1413.5,-60.5 1413.5,-79.5"/>
<text text-anchor="middle" x="1379" y="-67.5" font-family="Helvetica,sans-Serif" font-size="10.00">type_traits</text>
</a>
</g>
</g>
<!-- Node3&#45;&gt;Node7 -->
<g id="edge6_Node000003_Node000007" class="edge">
<title>Node3&#45;&gt;Node7</title>
<g id="a_edge6_Node000003_Node000007"><a xlink:title=" ">
<path fill="none" stroke="#63b8ff" d="M459.82,-126.43C471.19,-124.36 483.53,-122.36 495,-121 660.26,-101.38 1178.36,-79.18 1334.21,-72.8"/>
<polygon fill="#63b8ff" stroke="#63b8ff" points="1334.52,-76.29 1344.37,-72.39 1334.24,-69.3 1334.52,-76.29"/>
</a>
</g>
</g>
<!-- Node8 -->
<g id="Node000008" class="node">
<title>Node8</title>
<g id="a_Node000008"><a xlink:title=" ">
<polygon fill="#e0e0e0" stroke="#999999" points="642.5,-79.5 573.5,-79.5 573.5,-60.5 642.5,-60.5 642.5,-79.5"/>
<text text-anchor="middle" x="608" y="-67.5" font-family="Helvetica,sans-Serif" font-size="10.00">Eigen/Core</text>
</a>
</g>
</g>
<!-- Node3&#45;&gt;Node8 -->
<g id="edge7_Node000003_Node000008" class="edge">
<title>Node3&#45;&gt;Node8</title>
<g id="a_edge7_Node000003_Node000008"><a xlink:title=" ">
<path fill="none" stroke="#63b8ff" d="M443.62,-126.37C477.01,-115.12 535.51,-95.42 572.97,-82.8"/>
<polygon fill="#63b8ff" stroke="#63b8ff" points="574.12,-86.11 582.48,-79.6 571.88,-79.47 574.12,-86.11"/>
</a>
</g>
</g>
<!-- Node10 -->
<g id="Node000010" class="node">
<title>Node10</title>
<g id="a_Node000010"><a xlink:title=" ">
<polygon fill="#e0e0e0" stroke="#999999" points="874.5,-19 781.5,-19 781.5,0 874.5,0 874.5,-19"/>
<text text-anchor="middle" x="828" y="-7" font-family="Helvetica,sans-Serif" font-size="10.00">alpaqa/export.h</text>
</a>
</g>
</g>
<!-- Node9&#45;&gt;Node10 -->
<g id="edge9_Node000009_Node000010" class="edge">
<title>Node9&#45;&gt;Node10</title>
<g id="a_edge9_Node000009_Node000010"><a xlink:title=" ">
<path fill="none" stroke="#63b8ff" d="M926.03,-60.37C907.09,-50.73 876.21,-35.03 854.17,-23.81"/>
<polygon fill="#63b8ff" stroke="#63b8ff" points="855.54,-20.58 845.04,-19.17 852.36,-26.82 855.54,-20.58"/>
</a>
</g>
</g>
<!-- Node15&#45;&gt;Node3 -->
<g id="edge16_Node000015_Node000003" class="edge">
<title>Node15&#45;&gt;Node3</title>
<g id="a_edge16_Node000015_Node000003"><a xlink:title=" ">
<path fill="none" stroke="#63b8ff" d="M450.26,-384.8C401.91,-359.08 305.87,-299.69 268,-217 262.45,-204.88 260.2,-197.82 268,-187 279.68,-170.8 326.53,-156.86 364.81,-147.85"/>
<polygon fill="#63b8ff" stroke="#63b8ff" points="365.87,-151.2 374.83,-145.55 364.31,-144.38 365.87,-151.2"/>
</a>
</g>
</g>
<!-- Node15&#45;&gt;Node16 -->
<g id="edge17_Node000015_Node000016" class="edge">
<title>Node15&#45;&gt;Node16</title>
<g id="a_edge17_Node000015_Node000016"><a xlink:title=" ">
<path fill="none" stroke="#63b8ff" d="M548.13,-384.95C600.45,-374.33 672,-359.79 724.43,-349.14"/>
<polygon fill="#63b8ff" stroke="#63b8ff" points="725.21,-352.55 734.31,-347.13 723.82,-345.69 725.21,-352.55"/>
</a>
</g>
</g>
<!-- Node16&#45;&gt;Node3 -->
<g id="edge18_Node000016_Node000003" class="edge">
<title>Node16&#45;&gt;Node3</title>
<g id="a_edge18_Node000016_Node000003"><a xlink:title=" ">
<path fill="none" stroke="#63b8ff" d="M734.26,-327.95C662.83,-320.97 548.48,-306.5 513,-283 465.41,-251.48 436.36,-187.07 424.37,-155.41"/>
<polygon fill="#63b8ff" stroke="#63b8ff" points="427.54,-153.89 420.84,-145.68 420.96,-156.28 427.54,-153.89"/>
</a>
</g>
</g>
<!-- Node16&#45;&gt;Node7 -->
<g id="edge69_Node000016_Node000007" class="edge">
<title>Node16&#45;&gt;Node7</title>
<g id="a_edge69_Node000016_Node000007"><a xlink:title=" ">
<path fill="none" stroke="#63b8ff" d="M853.71,-333.82C1073.31,-335.42 1830.69,-327.87 1971,-151 1979.29,-140.55 1980.02,-130.82 1971,-121 1966.36,-115.95 1560.72,-84.77 1423.66,-74.37"/>
<polygon fill="#63b8ff" stroke="#63b8ff" points="1423.75,-70.87 1413.51,-73.6 1423.22,-77.85 1423.75,-70.87"/>
</a>
</g>
</g>
<!-- Node16&#45;&gt;Node9 -->
<g id="edge19_Node000016_Node000009" class="edge">
<title>Node16&#45;&gt;Node9</title>
<g id="a_edge19_Node000016_Node000009"><a xlink:title=" ">
<path fill="none" stroke="#63b8ff" d="M853.78,-330.59C927.45,-323.96 1049.43,-300.24 1103,-217 1152.69,-139.78 1016.25,-181.12 981,-151 962.33,-135.04 952.16,-107.85 947.16,-89.66"/>
<polygon fill="#63b8ff" stroke="#63b8ff" points="950.54,-88.76 944.73,-79.9 943.75,-90.45 950.54,-88.76"/>
</a>
</g>
</g>
<!-- Node16&#45;&gt;Node13 -->
<g id="edge70_Node000016_Node000013" class="edge">
<title>Node16&#45;&gt;Node13</title>
<g id="a_edge70_Node000016_Node000013"><a xlink:title=" ">
<path fill="none" stroke="#63b8ff" d="M734.26,-329.65C665.96,-324.47 560.18,-311.92 534,-283 502.14,-247.8 512.56,-186.11 520.49,-155.42"/>
<polygon fill="#63b8ff" stroke="#63b8ff" points="523.91,-156.19 523.22,-145.62 517.16,-154.32 523.91,-156.19"/>
</a>
</g>
</g>
<!-- Node17 -->
<g id="Node000017" class="node">
<title>Node17</title>
<g id="a_Node000017"><a xlink:href="box_8hpp.html" target="_top" xlink:title=" ">
<polygon fill="white" stroke="#666666" points="411.5,-211.5 276.5,-211.5 276.5,-192.5 411.5,-192.5 411.5,-211.5"/>
<text text-anchor="middle" x="344" y="-199.5" font-family="Helvetica,sans-Serif" font-size="10.00">alpaqa/problem/box.hpp</text>
</a>
</g>
</g>
<!-- Node16&#45;&gt;Node17 -->
<g id="edge20_Node000016_Node000017" class="edge">
<title>Node16&#45;&gt;Node17</title>
<g id="a_edge20_Node000016_Node000017"><a xlink:title=" ">
<path fill="none" stroke="#63b8ff" d="M734.23,-329.43C644.29,-323.31 479.02,-308.88 426,-283 396.05,-268.38 370.17,-238.62 355.87,-219.81"/>
<polygon fill="#63b8ff" stroke="#63b8ff" points="358.55,-217.55 349.81,-211.56 352.91,-221.7 358.55,-217.55"/>
</a>
</g>
</g>
<!-- Node21 -->
<g id="Node000021" class="node">
<title>Node21</title>
<g id="a_Node000021"><a xlink:href="sparsity_8hpp.html" target="_top" xlink:title=" ">
<polygon fill="white" stroke="#666666" points="1093.5,-211.5 938.5,-211.5 938.5,-192.5 1093.5,-192.5 1093.5,-211.5"/>
<text text-anchor="middle" x="1016" y="-199.5" font-family="Helvetica,sans-Serif" font-size="10.00">alpaqa/problem/sparsity.hpp</text>
</a>
</g>
</g>
<!-- Node16&#45;&gt;Node21 -->
<g id="edge28_Node000016_Node000021" class="edge">
<title>Node16&#45;&gt;Node21</title>
<g id="a_edge28_Node000016_Node000021"><a xlink:title=" ">
<path fill="none" stroke="#63b8ff" d="M842.17,-318.95C867.51,-310.47 898.51,-298.33 924,-283 954.2,-264.84 984.03,-236.46 1001.2,-218.84"/>
<polygon fill="#63b8ff" stroke="#63b8ff" points="1003.77,-221.22 1008.15,-211.57 998.71,-216.38 1003.77,-221.22"/>
</a>
</g>
</g>
<!-- Node24 -->
<g id="Node000024" class="node">
<title>Node24</title>
<g id="a_Node000024"><a xlink:href="alloc-check_8hpp.html" target="_top" xlink:title=" ">
<polygon fill="white" stroke="#666666" points="691,-277.5 543,-277.5 543,-258.5 691,-258.5 691,-277.5"/>
<text text-anchor="middle" x="617" y="-265.5" font-family="Helvetica,sans-Serif" font-size="10.00">alpaqa/util/alloc&#45;check.hpp</text>
</a>
</g>
</g>
<!-- Node16&#45;&gt;Node24 -->
<g id="edge33_Node000016_Node000024" class="edge">
<title>Node16&#45;&gt;Node24</title>
<g id="a_edge33_Node000016_Node000024"><a xlink:title=" ">
<path fill="none" stroke="#63b8ff" d="M755.16,-318.95C723.71,-307.58 679.88,-291.74 650.09,-280.96"/>
<polygon fill="#63b8ff" stroke="#63b8ff" points="651.15,-277.63 640.56,-277.52 648.77,-284.21 651.15,-277.63"/>
</a>
</g>
</g>
<!-- Node25 -->
<g id="Node000025" class="node">
<title>Node25</title>
<g id="a_Node000025"><a xlink:href="check-dim_8hpp.html" target="_top" xlink:title=" ">
<polygon fill="white" stroke="#666666" points="687.5,-211.5 544.5,-211.5 544.5,-192.5 687.5,-192.5 687.5,-211.5"/>
<text text-anchor="middle" x="616" y="-199.5" font-family="Helvetica,sans-Serif" font-size="10.00">alpaqa/util/check&#45;dim.hpp</text>
</a>
</g>
</g>
<!-- Node16&#45;&gt;Node25 -->
<g id="edge35_Node000016_Node000025" class="edge">
<title>Node16&#45;&gt;Node25</title>
<g id="a_edge35_Node000016_Node000025"><a xlink:title=" ">
<path fill="none" stroke="#63b8ff" d="M779.02,-318.86C760.99,-302.19 729.45,-274.07 700,-253 681.02,-239.42 658.19,-226 641.12,-216.49"/>
<polygon fill="#63b8ff" stroke="#63b8ff" points="642.74,-213.39 632.3,-211.63 639.37,-219.52 642.74,-213.39"/>
</a>
</g>
</g>
<!-- Node27 -->
<g id="Node000027" class="node">
<title>Node27</title>
<g id="a_Node000027"><a xlink:title=" ">
<polygon fill="#e0e0e0" stroke="#999999" points="826.5,-145.5 761.5,-145.5 761.5,-126.5 826.5,-126.5 826.5,-145.5"/>
<text text-anchor="middle" x="794" y="-133.5" font-family="Helvetica,sans-Serif" font-size="10.00">stdexcept</text>
</a>
</g>
</g>
<!-- Node16&#45;&gt;Node27 -->
<g id="edge68_Node000016_Node000027" class="edge">
<title>Node16&#45;&gt;Node27</title>
<g id="a_edge68_Node000016_Node000027"><a xlink:title=" ">
<path fill="none" stroke="#63b8ff" d="M815.93,-318.96C853.28,-293.23 922.37,-236.59 892,-187 884.53,-174.8 852.22,-159.75 826.72,-149.36"/>
<polygon fill="#63b8ff" stroke="#63b8ff" points="827.93,-146.08 817.34,-145.63 825.34,-152.58 827.93,-146.08"/>
</a>
</g>
</g>
<!-- Node28 -->
<g id="Node000028" class="node">
<title>Node28</title>
<g id="a_Node000028"><a xlink:href="not-implemented_8hpp.html" target="_top" xlink:title=" ">
<polygon fill="white" stroke="#666666" points="882.5,-211.5 705.5,-211.5 705.5,-192.5 882.5,-192.5 882.5,-211.5"/>
<text text-anchor="middle" x="794" y="-199.5" font-family="Helvetica,sans-Serif" font-size="10.00">alpaqa/util/not&#45;implemented.hpp</text>
</a>
</g>
</g>
<!-- Node16&#45;&gt;Node28 -->
<g id="edge40_Node000016_Node000028" class="edge">
<title>Node16&#45;&gt;Node28</title>
<g id="a_edge40_Node000016_Node000028"><a xlink:title=" ">
<path fill="none" stroke="#63b8ff" d="M794,-318.84C794,-295.34 794,-248.26 794,-221.93"/>
<polygon fill="#63b8ff" stroke="#63b8ff" points="797.5,-221.75 794,-211.75 790.5,-221.75 797.5,-221.75"/>
</a>
</g>
</g>
<!-- Node29 -->
<g id="Node000029" class="node">
<title>Node29</title>
<g id="a_Node000029"><a xlink:href="required-method_8hpp.html" target="_top" xlink:title=" ">
<polygon fill="white" stroke="#666666" points="1397,-283 1285,-283 1285,-253 1397,-253 1397,-283"/>
<text text-anchor="start" x="1293" y="-271" font-family="Helvetica,sans-Serif" font-size="10.00">alpaqa/util/required</text>
<text text-anchor="middle" x="1341" y="-260" font-family="Helvetica,sans-Serif" font-size="10.00">&#45;method.hpp</text>
</a>
</g>
</g>
<!-- Node16&#45;&gt;Node29 -->
<g id="edge43_Node000016_Node000029" class="edge">
<title>Node16&#45;&gt;Node29</title>
<g id="a_edge43_Node000016_Node000029"><a xlink:title=" ">
<path fill="none" stroke="#63b8ff" d="M853.81,-327.13C940.57,-318.44 1106.35,-301.23 1247,-283 1256.01,-281.83 1265.5,-280.52 1274.84,-279.18"/>
<polygon fill="#63b8ff" stroke="#63b8ff" points="1275.49,-282.62 1284.88,-277.71 1274.48,-275.69 1275.49,-282.62"/>
</a>
</g>
</g>
<!-- Node30 -->
<g id="Node000030" class="node">
<title>Node30</title>
<g id="a_Node000030"><a xlink:href="type-erasure_8hpp.html" target="_top" xlink:title=" ">
<polygon fill="white" stroke="#666666" points="1418.5,-211.5 1263.5,-211.5 1263.5,-192.5 1418.5,-192.5 1418.5,-211.5"/>
<text text-anchor="middle" x="1341" y="-199.5" font-family="Helvetica,sans-Serif" font-size="10.00">alpaqa/util/type&#45;erasure.hpp</text>
</a>
</g>
</g>
<!-- Node16&#45;&gt;Node30 -->
<g id="edge66_Node000016_Node000030" class="edge">
<title>Node16&#45;&gt;Node30</title>
<g id="a_edge66_Node000016_Node000030"><a xlink:title=" ">
<path fill="none" stroke="#63b8ff" d="M853.6,-332.52C923.57,-330.12 1042,-320.24 1136,-283 1157.66,-274.42 1158.06,-263.23 1179,-253 1215.07,-235.38 1258.69,-222.35 1291.58,-214.01"/>
<polygon fill="#63b8ff" stroke="#63b8ff" points="1292.55,-217.37 1301.42,-211.57 1290.87,-210.58 1292.55,-217.37"/>
</a>
</g>
</g>
<!-- Node40 -->
<g id="Node000040" class="node">
<title>Node40</title>
<g id="a_Node000040"><a xlink:title=" ">
<polygon fill="#e0e0e0" stroke="#999999" points="1238,-277.5 1188,-277.5 1188,-258.5 1238,-258.5 1238,-277.5"/>
<text text-anchor="middle" x="1213" y="-265.5" font-family="Helvetica,sans-Serif" font-size="10.00">chrono</text>
</a>
</g>
</g>
<!-- Node16&#45;&gt;Node40 -->
<g id="edge67_Node000016_Node000040" class="edge">
<title>Node16&#45;&gt;Node40</title>
<g id="a_edge67_Node000016_Node000040"><a xlink:title=" ">
<path fill="none" stroke="#63b8ff" d="M853.63,-329.11C929.08,-323.3 1062.61,-309.99 1174,-283 1176.66,-282.36 1179.39,-281.59 1182.12,-280.76"/>
<polygon fill="#63b8ff" stroke="#63b8ff" points="1183.41,-284.02 1191.79,-277.54 1181.2,-277.38 1183.41,-284.02"/>
</a>
</g>
</g>
<!-- Node17&#45;&gt;Node3 -->
<g id="edge21_Node000017_Node000003" class="edge">
<title>Node17&#45;&gt;Node3</title>
<g id="a_edge21_Node000017_Node000003"><a xlink:title=" ">
<path fill="none" stroke="#63b8ff" d="M353.98,-192.37C365.72,-182.21 385.44,-165.16 399.9,-152.65"/>
<polygon fill="#63b8ff" stroke="#63b8ff" points="402.43,-155.09 407.7,-145.91 397.85,-149.8 402.43,-155.09"/>
</a>
</g>
</g>
<!-- Node18 -->
<g id="Node000018" class="node">
<title>Node18</title>
<g id="a_Node000018"><a xlink:href="float_8hpp.html" target="_top" xlink:title=" ">
<polygon fill="white" stroke="#666666" points="256,-145.5 142,-145.5 142,-126.5 256,-126.5 256,-145.5"/>
<text text-anchor="middle" x="199" y="-133.5" font-family="Helvetica,sans-Serif" font-size="10.00">alpaqa/util/float.hpp</text>
</a>
</g>
</g>
<!-- Node17&#45;&gt;Node18 -->
<g id="edge22_Node000017_Node000018" class="edge">
<title>Node17&#45;&gt;Node18</title>
<g id="a_edge22_Node000017_Node000018"><a xlink:title=" ">
<path fill="none" stroke="#63b8ff" d="M324.44,-192.37C299.69,-181.44 256.83,-162.52 228.19,-149.88"/>
<polygon fill="#63b8ff" stroke="#63b8ff" points="229.27,-146.54 218.71,-145.7 226.44,-152.94 229.27,-146.54"/>
</a>
</g>
</g>
<!-- Node18&#45;&gt;Node5 -->
<g id="edge23_Node000018_Node000005" class="edge">
<title>Node18&#45;&gt;Node5</title>
<g id="a_edge23_Node000018_Node000005"><a xlink:title=" ">
<path fill="none" stroke="#63b8ff" d="M209.52,-126.37C220.3,-117.53 237.45,-103.45 251.77,-91.71"/>
<polygon fill="#63b8ff" stroke="#63b8ff" points="254.29,-94.16 259.8,-85.12 249.85,-88.75 254.29,-94.16"/>
</a>
</g>
</g>
<!-- Node18&#45;&gt;Node7 -->
<g id="edge27_Node000018_Node000007" class="edge">
<title>Node18&#45;&gt;Node7</title>
<g id="a_edge27_Node000018_Node000007"><a xlink:title=" ">
<path fill="none" stroke="#63b8ff" d="M256,-128.77C282.18,-126.07 313.64,-123.07 342,-121 539.43,-106.58 1161.49,-80.1 1334.16,-72.87"/>
<polygon fill="#63b8ff" stroke="#63b8ff" points="1334.56,-76.35 1344.4,-72.44 1334.27,-69.36 1334.56,-76.35"/>
</a>
</g>
</g>
<!-- Node18&#45;&gt;Node11 -->
<g id="edge24_Node000018_Node000011" class="edge">
<title>Node18&#45;&gt;Node11</title>
<g id="a_edge24_Node000018_Node000011"><a xlink:title=" ">
<path fill="none" stroke="#63b8ff" d="M185.38,-126.37C168.66,-115.78 140.09,-97.67 120.19,-85.06"/>
<polygon fill="#63b8ff" stroke="#63b8ff" points="122.05,-82.1 111.73,-79.7 118.3,-88.01 122.05,-82.1"/>
</a>
</g>
</g>
<!-- Node19 -->
<g id="Node000019" class="node">
<title>Node19</title>
<g id="a_Node000019"><a xlink:title=" ">
<polygon fill="#e0e0e0" stroke="#999999" points="198.5,-79.5 139.5,-79.5 139.5,-60.5 198.5,-60.5 198.5,-79.5"/>
<text text-anchor="middle" x="169" y="-67.5" font-family="Helvetica,sans-Serif" font-size="10.00">complex</text>
</a>
</g>
</g>
<!-- Node18&#45;&gt;Node19 -->
<g id="edge25_Node000018_Node000019" class="edge">
<title>Node18&#45;&gt;Node19</title>
<g id="a_edge25_Node000018_Node000019"><a xlink:title=" ">
<path fill="none" stroke="#63b8ff" d="M194.95,-126.37C190.51,-116.88 183.23,-101.36 177.51,-89.16"/>
<polygon fill="#63b8ff" stroke="#63b8ff" points="180.59,-87.47 173.17,-79.91 174.25,-90.45 180.59,-87.47"/>
</a>
</g>
</g>
<!-- Node20 -->
<g id="Node000020" class="node">
<title>Node20</title>
<g id="a_Node000020"><a xlink:title=" ">
<polygon fill="#e0e0e0" stroke="#999999" points="555,-79.5 495,-79.5 495,-60.5 555,-60.5 555,-79.5"/>
<text text-anchor="middle" x="525" y="-67.5" font-family="Helvetica,sans-Serif" font-size="10.00">concepts</text>
</a>
</g>
</g>
<!-- Node18&#45;&gt;Node20 -->
<g id="edge26_Node000018_Node000020" class="edge">
<title>Node18&#45;&gt;Node20</title>
<g id="a_edge26_Node000018_Node000020"><a xlink:title=" ">
<path fill="none" stroke="#63b8ff" d="M241.39,-126.43C250.8,-124.59 260.73,-122.69 270,-121 365.75,-103.58 391.82,-109.54 486,-85 488.5,-84.35 491.06,-83.61 493.62,-82.81"/>
<polygon fill="#63b8ff" stroke="#63b8ff" points="494.98,-86.04 503.35,-79.55 492.76,-79.41 494.98,-86.04"/>
</a>
</g>
</g>
<!-- Node21&#45;&gt;Node3 -->
<g id="edge29_Node000021_Node000003" class="edge">
<title>Node21&#45;&gt;Node3</title>
<g id="a_edge29_Node000021_Node000003"><a xlink:title=" ">
<path fill="none" stroke="#63b8ff" d="M942.92,-192.48C926.2,-190.6 908.49,-188.68 892,-187 715.74,-169.06 670.55,-174.87 495,-151 487.24,-149.94 479.07,-148.65 471.06,-147.29"/>
<polygon fill="#63b8ff" stroke="#63b8ff" points="471.51,-143.81 461.06,-145.53 470.3,-150.71 471.51,-143.81"/>
</a>
</g>
</g>
<!-- Node21&#45;&gt;Node9 -->
<g id="edge30_Node000021_Node000009" class="edge">
<title>Node21&#45;&gt;Node9</title>
<g id="a_edge30_Node000021_Node000009"><a xlink:title=" ">
<path fill="none" stroke="#63b8ff" d="M996.42,-192.47C980.35,-184.33 958.6,-170.42 948,-151 937.71,-132.14 938.01,-106.94 939.87,-89.9"/>
<polygon fill="#63b8ff" stroke="#63b8ff" points="943.4,-89.97 941.3,-79.58 936.46,-89.01 943.4,-89.97"/>
</a>
</g>
</g>
<!-- Node22 -->
<g id="Node000022" class="node">
<title>Node22</title>
<g id="a_Node000022"><a xlink:title=" ">
<polygon fill="#e0e0e0" stroke="#999999" points="1042,-145.5 990,-145.5 990,-126.5 1042,-126.5 1042,-145.5"/>
<text text-anchor="middle" x="1016" y="-133.5" font-family="Helvetica,sans-Serif" font-size="10.00">cassert</text>
</a>
</g>
</g>
<!-- Node21&#45;&gt;Node22 -->
<g id="edge31_Node000021_Node000022" class="edge">
<title>Node21&#45;&gt;Node22</title>
<g id="a_edge31_Node000021_Node000022"><a xlink:title=" ">
<path fill="none" stroke="#63b8ff" d="M1016,-192.37C1016,-183.16 1016,-168.29 1016,-156.27"/>
<polygon fill="#63b8ff" stroke="#63b8ff" points="1019.5,-155.91 1016,-145.91 1012.5,-155.91 1019.5,-155.91"/>
</a>
</g>
</g>
<!-- Node23 -->
<g id="Node000023" class="node">
<title>Node23</title>
<g id="a_Node000023"><a xlink:title=" ">
<polygon fill="#e0e0e0" stroke="#999999" points="895.5,-145.5 844.5,-145.5 844.5,-126.5 895.5,-126.5 895.5,-145.5"/>
<text text-anchor="middle" x="870" y="-133.5" font-family="Helvetica,sans-Serif" font-size="10.00">variant</text>
</a>
</g>
</g>
<!-- Node21&#45;&gt;Node23 -->
<g id="edge32_Node000021_Node000023" class="edge">
<title>Node21&#45;&gt;Node23</title>
<g id="a_edge32_Node000021_Node000023"><a xlink:title=" ">
<path fill="none" stroke="#63b8ff" d="M996.31,-192.37C971.27,-181.39 927.85,-162.36 899.02,-149.72"/>
<polygon fill="#63b8ff" stroke="#63b8ff" points="900.41,-146.51 889.84,-145.7 897.6,-152.92 900.41,-146.51"/>
</a>
</g>
</g>
<!-- Node24&#45;&gt;Node8 -->
<g id="edge34_Node000024_Node000008" class="edge">
<title>Node24&#45;&gt;Node8</title>
<g id="a_edge34_Node000024_Node000008"><a xlink:title=" ">
<path fill="none" stroke="#63b8ff" d="M590.32,-258.44C571.44,-250.82 547.51,-237.64 536,-217 529.5,-205.36 532.34,-199.82 536,-187 536.39,-185.62 577.13,-120.37 597.15,-88.35"/>
<polygon fill="#63b8ff" stroke="#63b8ff" points="600.29,-89.92 602.62,-79.59 594.36,-86.21 600.29,-89.92"/>
</a>
</g>
</g>
<!-- Node25&#45;&gt;Node3 -->
<g id="edge36_Node000025_Node000003" class="edge">
<title>Node25&#45;&gt;Node3</title>
<g id="a_edge36_Node000025_Node000003"><a xlink:title=" ">
<path fill="none" stroke="#63b8ff" d="M589.3,-192.37C554.51,-181.12 493.54,-161.42 454.5,-148.8"/>
<polygon fill="#63b8ff" stroke="#63b8ff" points="455.19,-145.34 444.6,-145.6 453.03,-152 455.19,-145.34"/>
</a>
</g>
</g>
<!-- Node25&#45;&gt;Node12 -->
<g id="edge39_Node000025_Node000012" class="edge">
<title>Node25&#45;&gt;Node12</title>
<g id="a_edge39_Node000025_Node000012"><a xlink:title=" ">
<path fill="none" stroke="#63b8ff" d="M616.59,-192.05C617.93,-176.66 622.15,-144.56 635,-121 642.27,-107.66 654.04,-95.32 664.11,-86.23"/>
<polygon fill="#63b8ff" stroke="#63b8ff" points="666.41,-88.87 671.7,-79.69 661.84,-83.57 666.41,-88.87"/>
</a>
</g>
</g>
<!-- Node26 -->
<g id="Node000026" class="node">
<title>Node26</title>
<g id="a_Node000026"><a xlink:title=" ">
<polygon fill="#e0e0e0" stroke="#999999" points="700,-145.5 644,-145.5 644,-126.5 700,-126.5 700,-145.5"/>
<text text-anchor="middle" x="672" y="-133.5" font-family="Helvetica,sans-Serif" font-size="10.00">optional</text>
</a>
</g>
</g>
<!-- Node25&#45;&gt;Node26 -->
<g id="edge37_Node000025_Node000026" class="edge">
<title>Node25&#45;&gt;Node26</title>
<g id="a_edge37_Node000025_Node000026"><a xlink:title=" ">
<path fill="none" stroke="#63b8ff" d="M623.55,-192.37C632.19,-182.5 646.53,-166.11 657.37,-153.72"/>
<polygon fill="#63b8ff" stroke="#63b8ff" points="660.26,-155.74 664.21,-145.91 654.99,-151.13 660.26,-155.74"/>
</a>
</g>
</g>
<!-- Node25&#45;&gt;Node27 -->
<g id="edge38_Node000025_Node000027" class="edge">
<title>Node25&#45;&gt;Node27</title>
<g id="a_edge38_Node000025_Node000027"><a xlink:title=" ">
<path fill="none" stroke="#63b8ff" d="M640.01,-192.37C671.01,-181.22 725.16,-161.75 760.29,-149.12"/>
<polygon fill="#63b8ff" stroke="#63b8ff" points="761.86,-152.27 770.09,-145.6 759.5,-145.69 761.86,-152.27"/>
</a>
</g>
</g>
<!-- Node28&#45;&gt;Node10 -->
<g id="edge41_Node000028_Node000010" class="edge">
<title>Node28&#45;&gt;Node10</title>
<g id="a_edge41_Node000028_Node000010"><a xlink:title=" ">
<path fill="none" stroke="#63b8ff" d="M783.58,-192.31C773.55,-183.22 759.05,-167.91 753,-151 748.51,-138.45 749.08,-133.75 753,-121 764.61,-83.21 794.03,-46.74 812.38,-26.6"/>
<polygon fill="#63b8ff" stroke="#63b8ff" points="814.99,-28.93 819.26,-19.24 809.87,-24.15 814.99,-28.93"/>
</a>
</g>
</g>
<!-- Node28&#45;&gt;Node27 -->
<g id="edge42_Node000028_Node000027" class="edge">
<title>Node28&#45;&gt;Node27</title>
<g id="a_edge42_Node000028_Node000027"><a xlink:title=" ">
<path fill="none" stroke="#63b8ff" d="M794,-192.37C794,-183.16 794,-168.29 794,-156.27"/>
<polygon fill="#63b8ff" stroke="#63b8ff" points="797.5,-155.91 794,-145.91 790.5,-155.91 797.5,-155.91"/>
</a>
</g>
</g>
<!-- Node29&#45;&gt;Node30 -->
<g id="edge44_Node000029_Node000030" class="edge">
<title>Node29&#45;&gt;Node30</title>
<g id="a_edge44_Node000029_Node000030"><a xlink:title=" ">
<path fill="none" stroke="#63b8ff" d="M1341,-252.8C1341,-243.7 1341,-231.79 1341,-221.9"/>
<polygon fill="#63b8ff" stroke="#63b8ff" points="1344.5,-221.84 1341,-211.84 1337.5,-221.84 1344.5,-221.84"/>
</a>
</g>
</g>
<!-- Node38 -->
<g id="Node000038" class="node">
<title>Node38</title>
<g id="a_Node000038"><a xlink:title=" ">
<polygon fill="#e0e0e0" stroke="#999999" points="1961.5,-145.5 1896.5,-145.5 1896.5,-126.5 1961.5,-126.5 1961.5,-145.5"/>
<text text-anchor="middle" x="1929" y="-133.5" font-family="Helvetica,sans-Serif" font-size="10.00">functional</text>
</a>
</g>
</g>
<!-- Node29&#45;&gt;Node38 -->
<g id="edge65_Node000029_Node000038" class="edge">
<title>Node29&#45;&gt;Node38</title>
<g id="a_edge65_Node000029_Node000038"><a xlink:title=" ">
<path fill="none" stroke="#63b8ff" d="M1397.33,-254.58C1493.46,-233.37 1695.35,-188.81 1866,-151 1872.61,-149.53 1879.62,-147.98 1886.46,-146.46"/>
<polygon fill="#63b8ff" stroke="#63b8ff" points="1887.3,-149.86 1896.3,-144.27 1885.78,-143.03 1887.3,-149.86"/>
</a>
</g>
</g>
<!-- Node30&#45;&gt;Node7 -->
<g id="edge62_Node000030_Node000007" class="edge">
<title>Node30&#45;&gt;Node7</title>
<g id="a_edge62_Node000030_Node000007"><a xlink:title=" ">
<path fill="none" stroke="#63b8ff" d="M1343.49,-192.47C1349.56,-171.73 1365.19,-118.24 1373.54,-89.66"/>
<polygon fill="#63b8ff" stroke="#63b8ff" points="1377,-90.31 1376.45,-79.73 1370.28,-88.35 1377,-90.31"/>
</a>
</g>
</g>
<!-- Node30&#45;&gt;Node9 -->
<g id="edge45_Node000030_Node000009" class="edge">
<title>Node30&#45;&gt;Node9</title>
<g id="a_edge45_Node000030_Node000009"><a xlink:title=" ">
<path fill="none" stroke="#63b8ff" d="M1341.81,-192.46C1342.87,-175.93 1342.56,-139.56 1322,-121 1276.73,-80.13 1101.09,-72.17 1005.63,-70.93"/>
<polygon fill="#63b8ff" stroke="#63b8ff" points="1005.56,-67.43 995.52,-70.82 1005.48,-74.43 1005.56,-67.43"/>
</a>
</g>
</g>
<!-- Node30&#45;&gt;Node13 -->
<g id="edge64_Node000030_Node000013" class="edge">
<title>Node30&#45;&gt;Node13</title>
<g id="a_edge64_Node000030_Node000013"><a xlink:title=" ">
<path fill="none" stroke="#63b8ff" d="M1263.48,-196.07C1106.35,-185.99 755.06,-162.95 635,-151 609.22,-148.43 580.12,-144.65 558.48,-141.66"/>
<polygon fill="#63b8ff" stroke="#63b8ff" points="558.89,-138.19 548.5,-140.27 557.92,-145.12 558.89,-138.19"/>
</a>
</g>
</g>
<!-- Node30&#45;&gt;Node22 -->
<g id="edge56_Node000030_Node000022" class="edge">
<title>Node30&#45;&gt;Node22</title>
<g id="a_edge56_Node000030_Node000022"><a xlink:title=" ">
<path fill="none" stroke="#63b8ff" d="M1266.14,-192.48C1207.01,-184.71 1122.78,-171.3 1051,-151 1049.06,-150.45 1047.09,-149.83 1045.11,-149.17"/>
<polygon fill="#63b8ff" stroke="#63b8ff" points="1045.96,-145.76 1035.37,-145.59 1043.55,-152.33 1045.96,-145.76"/>
</a>
</g>
</g>
<!-- Node30&#45;&gt;Node27 -->
<g id="edge61_Node000030_Node000027" class="edge">
<title>Node30&#45;&gt;Node27</title>
<g id="a_edge61_Node000030_Node000027"><a xlink:title=" ">
<path fill="none" stroke="#63b8ff" d="M1263.43,-195.45C1142.7,-186.44 915.49,-167.96 836,-151 832.94,-150.35 829.79,-149.55 826.66,-148.67"/>
<polygon fill="#63b8ff" stroke="#63b8ff" points="827.44,-145.24 816.85,-145.64 825.38,-151.93 827.44,-145.24"/>
</a>
</g>
</g>
<!-- Node31 -->
<g id="Node000031" class="node">
<title>Node31</title>
<g id="a_Node000031"><a xlink:href="demangled-typename_8hpp.html" target="_top" xlink:title=" ">
<polygon fill="white" stroke="#666666" points="1186,-151 1060,-151 1060,-121 1186,-121 1186,-151"/>
<text text-anchor="start" x="1068" y="-139" font-family="Helvetica,sans-Serif" font-size="10.00">alpaqa/util/demangled</text>
<text text-anchor="middle" x="1123" y="-128" font-family="Helvetica,sans-Serif" font-size="10.00">&#45;typename.hpp</text>
</a>
</g>
</g>
<!-- Node30&#45;&gt;Node31 -->
<g id="edge46_Node000030_Node000031" class="edge">
<title>Node30&#45;&gt;Node31</title>
<g id="a_edge46_Node000030_Node000031"><a xlink:title=" ">
<path fill="none" stroke="#63b8ff" d="M1311.6,-192.37C1278.25,-182.58 1223.03,-166.37 1180.93,-154.01"/>
<polygon fill="#63b8ff" stroke="#63b8ff" points="1181.66,-150.57 1171.08,-151.12 1179.69,-157.29 1181.66,-150.57"/>
</a>
</g>
</g>
<!-- Node32 -->
<g id="Node000032" class="node">
<title>Node32</title>
<g id="a_Node000032"><a xlink:title=" ">
<polygon fill="#e0e0e0" stroke="#999999" points="1632.5,-79.5 1575.5,-79.5 1575.5,-60.5 1632.5,-60.5 1632.5,-79.5"/>
<text text-anchor="middle" x="1604" y="-67.5" font-family="Helvetica,sans-Serif" font-size="10.00">typeinfo</text>
</a>
</g>
</g>
<!-- Node30&#45;&gt;Node32 -->
<g id="edge63_Node000030_Node000032" class="edge">
<title>Node30&#45;&gt;Node32</title>
<g id="a_edge63_Node000030_Node000032"><a xlink:title=" ">
<path fill="none" stroke="#63b8ff" d="M1418.84,-196.41C1526.21,-189.26 1708.87,-173.89 1729,-151 1758.8,-117.11 1689.31,-92.15 1642.45,-79.76"/>
<polygon fill="#63b8ff" stroke="#63b8ff" points="1643.1,-76.31 1632.54,-77.24 1641.37,-83.1 1643.1,-76.31"/>
</a>
</g>
</g>
<!-- Node33 -->
<g id="Node000033" class="node">
<title>Node33</title>
<g id="a_Node000033"><a xlink:href="noop-delete_8hpp.html" target="_top" xlink:title=" ">
<polygon fill="white" stroke="#666666" points="1719.5,-145.5 1568.5,-145.5 1568.5,-126.5 1719.5,-126.5 1719.5,-145.5"/>
<text text-anchor="middle" x="1644" y="-133.5" font-family="Helvetica,sans-Serif" font-size="10.00">alpaqa/util/noop&#45;delete.hpp</text>
</a>
</g>
</g>
<!-- Node30&#45;&gt;Node33 -->
<g id="edge50_Node000030_Node000033" class="edge">
<title>Node30&#45;&gt;Node33</title>
<g id="a_edge50_Node000030_Node000033"><a xlink:title=" ">
<path fill="none" stroke="#63b8ff" d="M1381.55,-192.44C1436.43,-180.84 1534.3,-160.17 1593.77,-147.61"/>
<polygon fill="#63b8ff" stroke="#63b8ff" points="1594.63,-151.01 1603.69,-145.51 1593.18,-144.16 1594.63,-151.01"/>
</a>
</g>
</g>
<!-- Node34 -->
<g id="Node000034" class="node">
<title>Node34</title>
<g id="a_Node000034"><a xlink:href="type-traits_8hpp.html" target="_top" xlink:title=" ">
<polygon fill="white" stroke="#666666" points="1550.5,-145.5 1407.5,-145.5 1407.5,-126.5 1550.5,-126.5 1550.5,-145.5"/>
<text text-anchor="middle" x="1479" y="-133.5" font-family="Helvetica,sans-Serif" font-size="10.00">alpaqa/util/type&#45;traits.hpp</text>
</a>
</g>
</g>
<!-- Node30&#45;&gt;Node34 -->
<g id="edge51_Node000030_Node000034" class="edge">
<title>Node30&#45;&gt;Node34</title>
<g id="a_edge51_Node000030_Node000034"><a xlink:title=" ">
<path fill="none" stroke="#63b8ff" d="M1359.61,-192.37C1383.07,-181.49 1423.61,-162.69 1450.86,-150.05"/>
<polygon fill="#63b8ff" stroke="#63b8ff" points="1452.64,-153.08 1460.24,-145.7 1449.7,-146.73 1452.64,-153.08"/>
</a>
</g>
</g>
<!-- Node35 -->
<g id="Node000035" class="node">
<title>Node35</title>
<g id="a_Node000035"><a xlink:title=" ">
<polygon fill="#e0e0e0" stroke="#999999" points="1803,-79.5 1745,-79.5 1745,-60.5 1803,-60.5 1803,-79.5"/>
<text text-anchor="middle" x="1774" y="-67.5" font-family="Helvetica,sans-Serif" font-size="10.00">memory</text>
</a>
</g>
</g>
<!-- Node30&#45;&gt;Node35 -->
<g id="edge59_Node000030_Node000035" class="edge">
<title>Node30&#45;&gt;Node35</title>
<g id="a_edge59_Node000030_Node000035"><a xlink:title=" ">
<path fill="none" stroke="#63b8ff" d="M1418.72,-198.98C1553.89,-194.66 1820.69,-182.23 1849,-151 1870.57,-127.2 1831.12,-100.02 1801.72,-84.25"/>
<polygon fill="#63b8ff" stroke="#63b8ff" points="1803.11,-81.03 1792.62,-79.55 1799.9,-87.25 1803.11,-81.03"/>
</a>
</g>
</g>
<!-- Node36 -->
<g id="Node000036" class="node">
<title>Node36</title>
<g id="a_Node000036"><a xlink:title=" ">
<polygon fill="#e0e0e0" stroke="#999999" points="1840,-145.5 1776,-145.5 1776,-126.5 1840,-126.5 1840,-145.5"/>
<text text-anchor="middle" x="1808" y="-133.5" font-family="Helvetica,sans-Serif" font-size="10.00">algorithm</text>
</a>
</g>
</g>
<!-- Node30&#45;&gt;Node36 -->
<g id="edge55_Node000030_Node000036" class="edge">
<title>Node30&#45;&gt;Node36</title>
<g id="a_edge55_Node000030_Node000036"><a xlink:title=" ">
<path fill="none" stroke="#63b8ff" d="M1418.88,-195.9C1503.88,-189.38 1643.68,-175.83 1762,-151 1765.65,-150.24 1769.42,-149.31 1773.16,-148.31"/>
<polygon fill="#63b8ff" stroke="#63b8ff" points="1774.25,-151.64 1782.9,-145.52 1772.32,-144.91 1774.25,-151.64"/>
</a>
</g>
</g>
<!-- Node37 -->
<g id="Node000037" class="node">
<title>Node37</title>
<g id="a_Node000037"><a xlink:title=" ">
<polygon fill="#e0e0e0" stroke="#999999" points="1257.5,-145.5 1204.5,-145.5 1204.5,-126.5 1257.5,-126.5 1257.5,-145.5"/>
<text text-anchor="middle" x="1231" y="-133.5" font-family="Helvetica,sans-Serif" font-size="10.00">cstddef</text>
</a>
</g>
</g>
<!-- Node30&#45;&gt;Node37 -->
<g id="edge57_Node000030_Node000037" class="edge">
<title>Node30&#45;&gt;Node37</title>
<g id="a_edge57_Node000030_Node000037"><a xlink:title=" ">
<path fill="none" stroke="#63b8ff" d="M1326.16,-192.37C1307.88,-181.73 1276.56,-163.51 1254.87,-150.89"/>
<polygon fill="#63b8ff" stroke="#63b8ff" points="1256.36,-147.7 1245.95,-145.7 1252.83,-153.75 1256.36,-147.7"/>
</a>
</g>
</g>
<!-- Node30&#45;&gt;Node38 -->
<g id="edge58_Node000030_Node000038" class="edge">
<title>Node30&#45;&gt;Node38</title>
<g id="a_edge58_Node000030_Node000038"><a xlink:title=" ">
<path fill="none" stroke="#63b8ff" d="M1418.72,-198.63C1524.42,-194.31 1719,-182.49 1882,-151 1885.73,-150.28 1889.59,-149.38 1893.42,-148.4"/>
<polygon fill="#63b8ff" stroke="#63b8ff" points="1894.67,-151.68 1903.37,-145.63 1892.8,-144.94 1894.67,-151.68"/>
</a>
</g>
</g>
<!-- Node39 -->
<g id="Node000039" class="node">
<title>Node39</title>
<g id="a_Node000039"><a xlink:title=" ">
<polygon fill="#e0e0e0" stroke="#999999" points="1312.5,-145.5 1275.5,-145.5 1275.5,-126.5 1312.5,-126.5 1312.5,-145.5"/>
<text text-anchor="middle" x="1294" y="-133.5" font-family="Helvetica,sans-Serif" font-size="10.00">new</text>
</a>
</g>
</g>
<!-- Node30&#45;&gt;Node39 -->
<g id="edge60_Node000030_Node000039" class="edge">
<title>Node30&#45;&gt;Node39</title>
<g id="a_edge60_Node000030_Node000039"><a xlink:title=" ">
<path fill="none" stroke="#63b8ff" d="M1334.66,-192.37C1327.48,-182.59 1315.61,-166.42 1306.54,-154.08"/>
<polygon fill="#63b8ff" stroke="#63b8ff" points="1309.28,-151.89 1300.54,-145.91 1303.64,-156.04 1309.28,-151.89"/>
</a>
</g>
</g>
<!-- Node31&#45;&gt;Node9 -->
<g id="edge47_Node000031_Node000009" class="edge">
<title>Node31&#45;&gt;Node9</title>
<g id="a_edge47_Node000031_Node000009"><a xlink:title=" ">
<path fill="none" stroke="#63b8ff" d="M1083.5,-120.95C1051.51,-109.58 1006.95,-93.74 976.65,-82.96"/>
<polygon fill="#63b8ff" stroke="#63b8ff" points="977.55,-79.57 966.95,-79.52 975.2,-86.17 977.55,-79.57"/>
</a>
</g>
</g>
<!-- Node31&#45;&gt;Node12 -->
<g id="edge48_Node000031_Node000012" class="edge">
<title>Node31&#45;&gt;Node12</title>
<g id="a_edge48_Node000031_Node000012"><a xlink:title=" ">
<path fill="none" stroke="#63b8ff" d="M1059.82,-122.5C1056.84,-121.98 1053.89,-121.48 1051,-121 927.42,-100.61 779.49,-82.37 715.32,-74.76"/>
<polygon fill="#63b8ff" stroke="#63b8ff" points="715.39,-71.25 705.05,-73.55 714.57,-78.2 715.39,-71.25"/>
</a>
</g>
</g>
<!-- Node31&#45;&gt;Node32 -->
<g id="edge49_Node000031_Node000032" class="edge">
<title>Node31&#45;&gt;Node32</title>
<g id="a_edge49_Node000031_Node000032"><a xlink:title=" ">
<path fill="none" stroke="#63b8ff" d="M1186.26,-122.6C1189.55,-122.04 1192.81,-121.5 1196,-121 1331.06,-99.8 1492.47,-82.33 1565.15,-74.88"/>
<polygon fill="#63b8ff" stroke="#63b8ff" points="1565.62,-78.35 1575.22,-73.85 1564.91,-71.38 1565.62,-78.35"/>
</a>
</g>
</g>
<!-- Node34&#45;&gt;Node7 -->
<g id="edge54_Node000034_Node000007" class="edge">
<title>Node34&#45;&gt;Node7</title>
<g id="a_edge54_Node000034_Node000007"><a xlink:title=" ">
<path fill="none" stroke="#63b8ff" d="M1465.51,-126.37C1449.04,-115.82 1420.93,-97.84 1401.24,-85.23"/>
<polygon fill="#63b8ff" stroke="#63b8ff" points="1402.9,-82.14 1392.59,-79.7 1399.13,-88.04 1402.9,-82.14"/>
</a>
</g>
</g>
<!-- Node34&#45;&gt;Node20 -->
<g id="edge52_Node000034_Node000020" class="edge">
<title>Node34&#45;&gt;Node20</title>
<g id="a_edge52_Node000034_Node000020"><a xlink:title=" ">
<path fill="none" stroke="#63b8ff" d="M1407.14,-127.96C1380.43,-125.51 1349.85,-122.9 1322,-121 985.96,-98.04 895.63,-149.31 565,-85 561.92,-84.4 558.76,-83.61 555.63,-82.72"/>
<polygon fill="#63b8ff" stroke="#63b8ff" points="556.45,-79.31 545.86,-79.58 554.31,-85.97 556.45,-79.31"/>
</a>
</g>
</g>
<!-- Node34&#45;&gt;Node35 -->
<g id="edge53_Node000034_Node000035" class="edge">
<title>Node34&#45;&gt;Node35</title>
<g id="a_edge53_Node000034_Node000035"><a xlink:title=" ">
<path fill="none" stroke="#63b8ff" d="M1518.48,-126.44C1575.09,-114.15 1678.68,-91.68 1735.02,-79.46"/>
<polygon fill="#63b8ff" stroke="#63b8ff" points="1735.93,-82.84 1744.96,-77.3 1734.45,-76 1735.93,-82.84"/>
</a>
</g>
</g>
</g>
</svg>
