<?xml version="1.0" encoding="UTF-8" standalone="no"?>
<!DOCTYPE svg PUBLIC "-//W3C//DTD SVG 1.1//EN"
 "http://www.w3.org/Graphics/SVG/1.1/DTD/svg11.dtd">
<!-- Generated by graphviz version 2.43.0 (0)
 -->
<!-- Title: src/alpaqa/include/alpaqa/inner/internal/lipschitz.hpp Pages: 1 -->
<!--zoomable 335 -->

<svg id="main" version="1.1" xmlns="http://www.w3.org/2000/svg" xmlns:xlink="http://www.w3.org/1999/xlink" xml:space="preserve" onload="init(evt)">
<style type="text/css"><![CDATA[
.node, .edge {opacity: 0.7;}
.node.selected, .edge.selected {opacity: 1;}
.edge:hover path { stroke: red; }
.edge:hover polygon { stroke: red; fill: red; }
]]></style>

<defs>
  <circle id="rim" cx="0" cy="0" r="7"/>
  <circle id="rim2" cx="0" cy="0" r="3.5"/>
  <g id="zoomPlus">
    <use xlink:href="#rim" fill="#404040"><set attributeName="fill" to="#808080" begin="zoomplus.mouseover" end="zoomplus.mouseout"/></use>
    <path d="M-4,0h8M0,-4v8" fill="none" stroke="white" stroke-width="1.5" pointer-events="none"/>
  </g>
  <g id="zoomMin">
    <use xlink:href="#rim" fill="#404040"><set attributeName="fill" to="#808080" begin="zoomminus.mouseover" end="zoomminus.mouseout"/></use>
    <path d="M-4,0h8" fill="none" stroke="white" stroke-width="1.5" pointer-events="none"/>
  </g>
  <g id="arrowUp" transform="translate(30 24)">
    <use xlink:href="#rim"/>
    <path pointer-events="none" fill="none" stroke="white" stroke-width="1.5" d="M0,-3.0v7 M-2.5,-0.5L0,-3.0L2.5,-0.5"/>
  </g>
  <g id="arrowRight" transform="rotate(90) translate(36 -43)">
    <use xlink:href="#rim"/>
    <path pointer-events="none" fill="none" stroke="white" stroke-width="1.5" d="M0,-3.0v7 M-2.5,-0.5L0,-3.0L2.5,-0.5"/>
  </g>
  <g id="arrowDown" transform="rotate(180) translate(-30 -48)">
    <use xlink:href="#rim"/>
    <path pointer-events="none" fill="none" stroke="white" stroke-width="1.5" d="M0,-3.0v7 M-2.5,-0.5L0,-3.0L2.5,-0.5"/>
  </g>
  <g id="arrowLeft" transform="rotate(270) translate(-36 17)">
    <use xlink:href="#rim"/>
    <path pointer-events="none" fill="none" stroke="white" stroke-width="1.5" d="M0,-3.0v7 M-2.5,-0.5L0,-3.0L2.5,-0.5"/>
  </g>
  <g id="resetDef">
    <use xlink:href="#rim2" fill="#404040"><set attributeName="fill" to="#808080" begin="reset.mouseover" end="reset.mouseout"/></use>
  </g>
</defs>
<script type="application/ecmascript">
var viewWidth = 2254;
var viewHeight = 335;
var sectionId = 'dynsection-1';
</script>
<script type="application/ecmascript" xlink:href="svg.min.js"/>
<svg id="graph" class="graph">
<g id="viewport">
<title>src/alpaqa/include/alpaqa/inner/internal/lipschitz.hpp</title>
<!-- Node1 -->
<g id="Node000001" class="node">
<title>Node1</title>
<g id="a_Node000001"><a xlink:title=" ">
<polygon fill="#999999" stroke="#666666" points="785.5,-327 664.5,-327 664.5,-286 785.5,-286 785.5,-327"/>
<text text-anchor="start" x="672.5" y="-315" font-family="Helvetica,sans-Serif" font-size="10.00">src/alpaqa/include</text>
<text text-anchor="start" x="672.5" y="-304" font-family="Helvetica,sans-Serif" font-size="10.00">/alpaqa/inner/internal</text>
<text text-anchor="middle" x="725" y="-293" font-family="Helvetica,sans-Serif" font-size="10.00">/lipschitz.hpp</text>
</a>
</g>
</g>
<!-- Node2 -->
<g id="Node000002" class="node">
<title>Node2</title>
<g id="a_Node000002"><a xlink:href="panoc_8hpp.html" target="_top" xlink:title=" ">
<polygon fill="white" stroke="#666666" points="1034,-250 900,-250 900,-220 1034,-220 1034,-250"/>
<text text-anchor="start" x="908" y="-238" font-family="Helvetica,sans-Serif" font-size="10.00">src/alpaqa/include</text>
<text text-anchor="middle" x="967" y="-227" font-family="Helvetica,sans-Serif" font-size="10.00">/alpaqa/inner/panoc.hpp</text>
</a>
</g>
</g>
<!-- Node1&#45;&gt;Node2 -->
<g id="edge1_Node000001_Node000002" class="edge">
<title>Node1&#45;&gt;Node2</title>
<g id="a_edge1_Node000001_Node000002"><a xlink:title=" ">
<path fill="none" stroke="#63b8ff" d="M795.55,-285.24C834.86,-273.95 882.82,-260.18 918.01,-250.07"/>
<polygon fill="#63b8ff" stroke="#63b8ff" points="794.4,-281.93 785.75,-288.05 796.33,-288.66 794.4,-281.93"/>
</a>
</g>
</g>
<!-- Node10 -->
<g id="Node000010" class="node">
<title>Node10</title>
<g id="a_Node000010"><a xlink:href="params_8cpp.html" target="_top" xlink:title=" ">
<polygon fill="white" stroke="#666666" points="584,-101.5 460,-101.5 460,-71.5 584,-71.5 584,-101.5"/>
<text text-anchor="start" x="468" y="-89.5" font-family="Helvetica,sans-Serif" font-size="10.00">src/alpaqa/src/params</text>
<text text-anchor="middle" x="522" y="-78.5" font-family="Helvetica,sans-Serif" font-size="10.00">/params.cpp</text>
</a>
</g>
</g>
<!-- Node1&#45;&gt;Node10 -->
<g id="edge46_Node000001_Node000010" class="edge">
<title>Node1&#45;&gt;Node10</title>
<g id="a_edge46_Node000001_Node000010"><a xlink:title=" ">
<path fill="none" stroke="#63b8ff" d="M654.98,-284.88C607.11,-266.71 547.21,-235.02 518,-184 503.17,-158.1 510.9,-121.56 516.98,-101.7"/>
<polygon fill="#63b8ff" stroke="#63b8ff" points="653.79,-288.17 664.39,-288.33 656.21,-281.6 653.79,-288.17"/>
</a>
</g>
</g>
<!-- Node19 -->
<g id="Node000019" class="node">
<title>Node19</title>
<g id="a_Node000019"><a xlink:href="pantr_8hpp.html" target="_top" xlink:title=" ">
<polygon fill="white" stroke="#666666" points="415.5,-250 286.5,-250 286.5,-220 415.5,-220 415.5,-250"/>
<text text-anchor="start" x="294.5" y="-238" font-family="Helvetica,sans-Serif" font-size="10.00">src/alpaqa/include</text>
<text text-anchor="middle" x="351" y="-227" font-family="Helvetica,sans-Serif" font-size="10.00">/alpaqa/inner/pantr.hpp</text>
</a>
</g>
</g>
<!-- Node1&#45;&gt;Node19 -->
<g id="edge24_Node000001_Node000019" class="edge">
<title>Node1&#45;&gt;Node19</title>
<g id="a_edge24_Node000001_Node000019"><a xlink:title=" ">
<path fill="none" stroke="#63b8ff" d="M654.63,-292.42C586,-279.67 482.48,-260.43 415.81,-248.04"/>
<polygon fill="#63b8ff" stroke="#63b8ff" points="654.02,-295.87 664.49,-294.26 655.3,-288.99 654.02,-295.87"/>
</a>
</g>
</g>
<!-- Node25 -->
<g id="Node000025" class="node">
<title>Node25</title>
<g id="a_Node000025"><a xlink:href="zerofpr_8hpp.html" target="_top" xlink:title=" ">
<polygon fill="white" stroke="#666666" points="1776,-250 1638,-250 1638,-220 1776,-220 1776,-250"/>
<text text-anchor="start" x="1646" y="-238" font-family="Helvetica,sans-Serif" font-size="10.00">src/alpaqa/include</text>
<text text-anchor="middle" x="1707" y="-227" font-family="Helvetica,sans-Serif" font-size="10.00">/alpaqa/inner/zerofpr.hpp</text>
</a>
</g>
</g>
<!-- Node1&#45;&gt;Node25 -->
<g id="edge32_Node000001_Node000025" class="edge">
<title>Node1&#45;&gt;Node25</title>
<g id="a_edge32_Node000001_Node000025"><a xlink:title=" ">
<path fill="none" stroke="#63b8ff" d="M795.92,-300.48C977.57,-287.62 1457.83,-253.63 1637.69,-240.91"/>
<polygon fill="#63b8ff" stroke="#63b8ff" points="795.42,-297.01 785.69,-301.2 795.91,-303.99 795.42,-297.01"/>
</a>
</g>
</g>
<!-- Node3 -->
<g id="Node000003" class="node">
<title>Node3</title>
<g id="a_Node000003"><a xlink:href="panoc_8tpp.html" target="_top" xlink:title=" ">
<polygon fill="white" stroke="#666666" points="1186,-184 1052,-184 1052,-143 1186,-143 1186,-184"/>
<text text-anchor="start" x="1060" y="-172" font-family="Helvetica,sans-Serif" font-size="10.00">src/alpaqa/include</text>
<text text-anchor="start" x="1060" y="-161" font-family="Helvetica,sans-Serif" font-size="10.00">/alpaqa/implementation</text>
<text text-anchor="middle" x="1119" y="-150" font-family="Helvetica,sans-Serif" font-size="10.00">/inner/panoc.tpp</text>
</a>
</g>
</g>
<!-- Node2&#45;&gt;Node3 -->
<g id="edge2_Node000002_Node000003" class="edge">
<title>Node2&#45;&gt;Node3</title>
<g id="a_edge2_Node000002_Node000003"><a xlink:title=" ">
<path fill="none" stroke="#63b8ff" d="M1006.87,-215.77C1028.18,-206.02 1054.44,-194.02 1076.19,-184.07"/>
<polygon fill="#63b8ff" stroke="#63b8ff" points="1005.4,-212.59 997.76,-219.94 1008.31,-218.96 1005.4,-212.59"/>
</a>
</g>
</g>
<!-- Node9 -->
<g id="Node000009" class="node">
<title>Node9</title>
<g id="a_Node000009"><a xlink:href="structured-newton_8hpp.html" target="_top" xlink:title=" ">
<polygon fill="white" stroke="#666666" points="844,-184 682,-184 682,-143 844,-143 844,-184"/>
<text text-anchor="start" x="690" y="-172" font-family="Helvetica,sans-Serif" font-size="10.00">src/alpaqa/include</text>
<text text-anchor="start" x="690" y="-161" font-family="Helvetica,sans-Serif" font-size="10.00">/alpaqa/inner/directions</text>
<text text-anchor="middle" x="763" y="-150" font-family="Helvetica,sans-Serif" font-size="10.00">/panoc/structured&#45;newton.hpp</text>
</a>
</g>
</g>
<!-- Node2&#45;&gt;Node9 -->
<g id="edge8_Node000002_Node000009" class="edge">
<title>Node2&#45;&gt;Node9</title>
<g id="a_edge8_Node000002_Node000009"><a xlink:title=" ">
<path fill="none" stroke="#63b8ff" d="M916.17,-216.68C887.1,-206.78 850.56,-194.33 820.45,-184.07"/>
<polygon fill="#63b8ff" stroke="#63b8ff" points="915.12,-220.02 925.72,-219.94 917.38,-213.4 915.12,-220.02"/>
</a>
</g>
</g>
<!-- Node2&#45;&gt;Node10 -->
<g id="edge23_Node000002_Node000010" class="edge">
<title>Node2&#45;&gt;Node10</title>
<g id="a_edge23_Node000002_Node000010"><a xlink:title=" ">
<path fill="none" stroke="#63b8ff" d="M889.35,-229.79C773.45,-222.78 566.04,-207.17 541,-184 518.19,-162.89 518.21,-123.02 520.13,-101.74"/>
<polygon fill="#63b8ff" stroke="#63b8ff" points="889.4,-233.3 899.59,-230.4 889.82,-226.31 889.4,-233.3"/>
</a>
</g>
</g>
<!-- Node11 -->
<g id="Node000011" class="node">
<title>Node11</title>
<g id="a_Node000011"><a xlink:href="panoc-ocp_8hpp.html" target="_top" xlink:title=" ">
<polygon fill="white" stroke="#666666" points="663.5,-184 550.5,-184 550.5,-143 663.5,-143 663.5,-184"/>
<text text-anchor="start" x="558.5" y="-172" font-family="Helvetica,sans-Serif" font-size="10.00">src/alpaqa/include</text>
<text text-anchor="start" x="558.5" y="-161" font-family="Helvetica,sans-Serif" font-size="10.00">/alpaqa/inner/panoc</text>
<text text-anchor="middle" x="607" y="-150" font-family="Helvetica,sans-Serif" font-size="10.00">&#45;ocp.hpp</text>
</a>
</g>
</g>
<!-- Node2&#45;&gt;Node11 -->
<g id="edge11_Node000002_Node000011" class="edge">
<title>Node2&#45;&gt;Node11</title>
<g id="a_edge11_Node000002_Node000011"><a xlink:title=" ">
<path fill="none" stroke="#63b8ff" d="M889.91,-223.45C830.31,-214.68 745.95,-200.92 673,-184 669.97,-183.3 666.88,-182.54 663.77,-181.74"/>
<polygon fill="#63b8ff" stroke="#63b8ff" points="889.59,-226.94 899.99,-224.92 890.6,-220.01 889.59,-226.94"/>
</a>
</g>
</g>
<!-- Node14 -->
<g id="Node000014" class="node">
<title>Node14</title>
<g id="a_Node000014"><a xlink:href="panoc-alm_8hpp.html" target="_top" xlink:title=" ">
<polygon fill="white" stroke="#666666" points="1488,-178.5 1360,-178.5 1360,-148.5 1488,-148.5 1488,-178.5"/>
<text text-anchor="start" x="1368" y="-166.5" font-family="Helvetica,sans-Serif" font-size="10.00">src/alpaqa/include</text>
<text text-anchor="middle" x="1424" y="-155.5" font-family="Helvetica,sans-Serif" font-size="10.00">/alpaqa/panoc&#45;alm.hpp</text>
</a>
</g>
</g>
<!-- Node2&#45;&gt;Node14 -->
<g id="edge15_Node000002_Node000014" class="edge">
<title>Node2&#45;&gt;Node14</title>
<g id="a_edge15_Node000002_Node000014"><a xlink:title=" ">
<path fill="none" stroke="#63b8ff" d="M1044.24,-226.96C1122.13,-219.15 1245.59,-204.85 1351,-184 1358.85,-182.45 1367.1,-180.53 1375.12,-178.5"/>
<polygon fill="#63b8ff" stroke="#63b8ff" points="1043.64,-223.5 1034.03,-227.97 1044.33,-230.47 1043.64,-223.5"/>
</a>
</g>
</g>
<!-- Node16 -->
<g id="Node000016" class="node">
<title>Node16</title>
<g id="a_Node000016"><a xlink:href="panoc-anderson-alm_8hpp.html" target="_top" xlink:title=" ">
<polygon fill="white" stroke="#666666" points="1034,-184 900,-184 900,-143 1034,-143 1034,-184"/>
<text text-anchor="start" x="908" y="-172" font-family="Helvetica,sans-Serif" font-size="10.00">src/alpaqa/include</text>
<text text-anchor="start" x="908" y="-161" font-family="Helvetica,sans-Serif" font-size="10.00">/alpaqa/panoc&#45;anderson</text>
<text text-anchor="middle" x="967" y="-150" font-family="Helvetica,sans-Serif" font-size="10.00">&#45;alm.hpp</text>
</a>
</g>
</g>
<!-- Node2&#45;&gt;Node16 -->
<g id="edge18_Node000002_Node000016" class="edge">
<title>Node2&#45;&gt;Node16</title>
<g id="a_edge18_Node000002_Node000016"><a xlink:title=" ">
<path fill="none" stroke="#63b8ff" d="M967,-209.91C967,-201.47 967,-192.1 967,-184.07"/>
<polygon fill="#63b8ff" stroke="#63b8ff" points="963.5,-209.94 967,-219.94 970.5,-209.94 963.5,-209.94"/>
</a>
</g>
</g>
<!-- Node17 -->
<g id="Node000017" class="node">
<title>Node17</title>
<g id="a_Node000017"><a xlink:href="structured-panoc-alm_8hpp.html" target="_top" xlink:title=" ">
<polygon fill="white" stroke="#666666" points="1342,-184 1204,-184 1204,-143 1342,-143 1342,-184"/>
<text text-anchor="start" x="1212" y="-172" font-family="Helvetica,sans-Serif" font-size="10.00">src/alpaqa/include</text>
<text text-anchor="start" x="1212" y="-161" font-family="Helvetica,sans-Serif" font-size="10.00">/alpaqa/structured&#45;panoc</text>
<text text-anchor="middle" x="1273" y="-150" font-family="Helvetica,sans-Serif" font-size="10.00">&#45;alm.hpp</text>
</a>
</g>
</g>
<!-- Node2&#45;&gt;Node17 -->
<g id="edge20_Node000002_Node000017" class="edge">
<title>Node2&#45;&gt;Node17</title>
<g id="a_edge20_Node000002_Node000017"><a xlink:title=" ">
<path fill="none" stroke="#63b8ff" d="M1043.3,-217.85C1087.65,-208.31 1144.57,-195.83 1195,-184 1197.85,-183.33 1200.76,-182.64 1203.7,-181.94"/>
<polygon fill="#63b8ff" stroke="#63b8ff" points="1042.5,-214.44 1033.46,-219.96 1043.97,-221.28 1042.5,-214.44"/>
</a>
</g>
</g>
<!-- Node18 -->
<g id="Node000018" class="node">
<title>Node18</title>
<g id="a_Node000018"><a xlink:href="panoc-driver_8cpp.html" target="_top" xlink:title=" ">
<polygon fill="white" stroke="#666666" points="1622,-178.5 1506,-178.5 1506,-148.5 1622,-148.5 1622,-178.5"/>
<text text-anchor="start" x="1514" y="-166.5" font-family="Helvetica,sans-Serif" font-size="10.00">src/alpaqa/src/driver</text>
<text text-anchor="middle" x="1564" y="-155.5" font-family="Helvetica,sans-Serif" font-size="10.00">/panoc&#45;driver.cpp</text>
</a>
</g>
</g>
<!-- Node2&#45;&gt;Node18 -->
<g id="edge22_Node000002_Node000018" class="edge">
<title>Node2&#45;&gt;Node18</title>
<g id="a_edge22_Node000002_Node000018"><a xlink:title=" ">
<path fill="none" stroke="#63b8ff" d="M1044.16,-231.29C1147.91,-226.62 1337.76,-214.4 1497,-184 1504.5,-182.57 1512.36,-180.66 1519.96,-178.6"/>
<polygon fill="#63b8ff" stroke="#63b8ff" points="1043.92,-227.8 1034.09,-231.74 1044.23,-234.79 1043.92,-227.8"/>
</a>
</g>
</g>
<!-- Node4 -->
<g id="Node000004" class="node">
<title>Node4</title>
<g id="a_Node000004"><a xlink:href="structured-newton_8cpp.html" target="_top" xlink:title=" ">
<polygon fill="white" stroke="#666666" points="907,-107 755,-107 755,-66 907,-66 907,-107"/>
<text text-anchor="start" x="763" y="-95" font-family="Helvetica,sans-Serif" font-size="10.00">src/alpaqa/src/inner</text>
<text text-anchor="start" x="763" y="-84" font-family="Helvetica,sans-Serif" font-size="10.00">/directions/panoc/structured</text>
<text text-anchor="middle" x="831" y="-73" font-family="Helvetica,sans-Serif" font-size="10.00">&#45;newton.cpp</text>
</a>
</g>
</g>
<!-- Node3&#45;&gt;Node4 -->
<g id="edge3_Node000003_Node000004" class="edge">
<title>Node3&#45;&gt;Node4</title>
<g id="a_edge3_Node000003_Node000004"><a xlink:title=" ">
<path fill="none" stroke="#63b8ff" d="M1041.92,-142.43C999.82,-131.46 947.92,-117.95 906.13,-107.07"/>
<polygon fill="#63b8ff" stroke="#63b8ff" points="1041.28,-145.88 1051.84,-145.01 1043.05,-139.1 1041.28,-145.88"/>
</a>
</g>
</g>
<!-- Node5 -->
<g id="Node000005" class="node">
<title>Node5</title>
<g id="a_Node000005"><a xlink:href="panoc_8cpp.html" target="_top" xlink:title=" ">
<polygon fill="white" stroke="#666666" points="1173,-101.5 1061,-101.5 1061,-71.5 1173,-71.5 1173,-101.5"/>
<text text-anchor="start" x="1069" y="-89.5" font-family="Helvetica,sans-Serif" font-size="10.00">src/alpaqa/src/inner</text>
<text text-anchor="middle" x="1117" y="-78.5" font-family="Helvetica,sans-Serif" font-size="10.00">/panoc.cpp</text>
</a>
</g>
</g>
<!-- Node3&#45;&gt;Node5 -->
<g id="edge4_Node000003_Node000005" class="edge">
<title>Node3&#45;&gt;Node5</title>
<g id="a_edge4_Node000003_Node000005"><a xlink:title=" ">
<path fill="none" stroke="#63b8ff" d="M1118.2,-132.61C1117.92,-122.01 1117.62,-110.57 1117.38,-101.86"/>
<polygon fill="#63b8ff" stroke="#63b8ff" points="1114.71,-132.89 1118.47,-142.79 1121.71,-132.7 1114.71,-132.89"/>
</a>
</g>
</g>
<!-- Node6 -->
<g id="Node000006" class="node">
<title>Node6</title>
<g id="a_Node000006"><a xlink:href="panoc-alm_8cpp.html" target="_top" xlink:title=" ">
<polygon fill="white" stroke="#666666" points="1463,-101.5 1347,-101.5 1347,-71.5 1463,-71.5 1463,-101.5"/>
<text text-anchor="start" x="1355" y="-89.5" font-family="Helvetica,sans-Serif" font-size="10.00">src/alpaqa/src/panoc</text>
<text text-anchor="middle" x="1405" y="-78.5" font-family="Helvetica,sans-Serif" font-size="10.00">&#45;alm.cpp</text>
</a>
</g>
</g>
<!-- Node3&#45;&gt;Node6 -->
<g id="edge5_Node000003_Node000006" class="edge">
<title>Node3&#45;&gt;Node6</title>
<g id="a_edge5_Node000003_Node000006"><a xlink:title=" ">
<path fill="none" stroke="#63b8ff" d="M1195.95,-142.77C1260.14,-126.57 1277.71,-123.36 1338,-107 1344.31,-105.29 1350.94,-103.43 1357.48,-101.56"/>
<polygon fill="#63b8ff" stroke="#63b8ff" points="1194.97,-139.41 1186.13,-145.26 1196.69,-146.19 1194.97,-139.41"/>
</a>
</g>
</g>
<!-- Node7 -->
<g id="Node000007" class="node">
<title>Node7</title>
<g id="a_Node000007"><a xlink:href="panoc-anderson-alm_8cpp.html" target="_top" xlink:title=" ">
<polygon fill="white" stroke="#666666" points="1042,-101.5 926,-101.5 926,-71.5 1042,-71.5 1042,-101.5"/>
<text text-anchor="start" x="934" y="-89.5" font-family="Helvetica,sans-Serif" font-size="10.00">src/alpaqa/src/panoc</text>
<text text-anchor="middle" x="984" y="-78.5" font-family="Helvetica,sans-Serif" font-size="10.00">&#45;anderson&#45;alm.cpp</text>
</a>
</g>
</g>
<!-- Node3&#45;&gt;Node7 -->
<g id="edge6_Node000003_Node000007" class="edge">
<title>Node3&#45;&gt;Node7</title>
<g id="a_edge6_Node000003_Node000007"><a xlink:title=" ">
<path fill="none" stroke="#63b8ff" d="M1074.87,-137.98C1053.24,-125.97 1027.96,-111.92 1009.56,-101.7"/>
<polygon fill="#63b8ff" stroke="#63b8ff" points="1073.44,-141.19 1083.88,-142.99 1076.84,-135.07 1073.44,-141.19"/>
</a>
</g>
</g>
<!-- Node8 -->
<g id="Node000008" class="node">
<title>Node8</title>
<g id="a_Node000008"><a xlink:href="structured-panoc-alm_8cpp.html" target="_top" xlink:title=" ">
<polygon fill="white" stroke="#666666" points="1328.5,-101.5 1191.5,-101.5 1191.5,-71.5 1328.5,-71.5 1328.5,-101.5"/>
<text text-anchor="start" x="1199.5" y="-89.5" font-family="Helvetica,sans-Serif" font-size="10.00">src/alpaqa/src/structured</text>
<text text-anchor="middle" x="1260" y="-78.5" font-family="Helvetica,sans-Serif" font-size="10.00">&#45;panoc&#45;alm.cpp</text>
</a>
</g>
</g>
<!-- Node3&#45;&gt;Node8 -->
<g id="edge7_Node000003_Node000008" class="edge">
<title>Node3&#45;&gt;Node8</title>
<g id="a_edge7_Node000003_Node000008"><a xlink:title=" ">
<path fill="none" stroke="#63b8ff" d="M1164.79,-138.14C1187.45,-126.09 1214,-111.97 1233.3,-101.7"/>
<polygon fill="#63b8ff" stroke="#63b8ff" points="1162.86,-135.2 1155.68,-142.99 1166.15,-141.38 1162.86,-135.2"/>
</a>
</g>
</g>
<!-- Node9&#45;&gt;Node4 -->
<g id="edge9_Node000009_Node000004" class="edge">
<title>Node9&#45;&gt;Node4</title>
<g id="a_edge9_Node000009_Node000004"><a xlink:title=" ">
<path fill="none" stroke="#63b8ff" d="M787.72,-135.23C796.18,-125.91 805.46,-115.67 813.25,-107.07"/>
<polygon fill="#63b8ff" stroke="#63b8ff" points="784.99,-133.04 780.87,-142.79 790.18,-137.74 784.99,-133.04"/>
</a>
</g>
</g>
<!-- Node9&#45;&gt;Node10 -->
<g id="edge10_Node000009_Node000010" class="edge">
<title>Node9&#45;&gt;Node10</title>
<g id="a_edge10_Node000009_Node000010"><a xlink:title=" ">
<path fill="none" stroke="#63b8ff" d="M690.58,-139.96C650.51,-127.49 601.94,-112.38 567.25,-101.58"/>
<polygon fill="#63b8ff" stroke="#63b8ff" points="689.72,-143.36 700.31,-142.99 691.8,-136.68 689.72,-143.36"/>
</a>
</g>
</g>
<!-- Node11&#45;&gt;Node10 -->
<g id="edge14_Node000011_Node000010" class="edge">
<title>Node11&#45;&gt;Node10</title>
<g id="a_edge14_Node000011_Node000010"><a xlink:title=" ">
<path fill="none" stroke="#63b8ff" d="M577.16,-136.17C563.98,-124.55 549.02,-111.34 538.01,-101.63"/>
<polygon fill="#63b8ff" stroke="#63b8ff" points="574.85,-138.8 584.67,-142.79 579.48,-133.55 574.85,-138.8"/>
</a>
</g>
</g>
<!-- Node12 -->
<g id="Node000012" class="node">
<title>Node12</title>
<g id="a_Node000012"><a xlink:href="panoc-ocp_8tpp.html" target="_top" xlink:title=" ">
<polygon fill="white" stroke="#666666" points="736,-107 602,-107 602,-66 736,-66 736,-107"/>
<text text-anchor="start" x="610" y="-95" font-family="Helvetica,sans-Serif" font-size="10.00">src/alpaqa/include</text>
<text text-anchor="start" x="610" y="-84" font-family="Helvetica,sans-Serif" font-size="10.00">/alpaqa/implementation</text>
<text text-anchor="middle" x="669" y="-73" font-family="Helvetica,sans-Serif" font-size="10.00">/inner/panoc&#45;ocp.tpp</text>
</a>
</g>
</g>
<!-- Node11&#45;&gt;Node12 -->
<g id="edge12_Node000011_Node000012" class="edge">
<title>Node11&#45;&gt;Node12</title>
<g id="a_edge12_Node000011_Node000012"><a xlink:title=" ">
<path fill="none" stroke="#63b8ff" d="M629.77,-134.95C637.42,-125.7 645.78,-115.58 652.82,-107.07"/>
<polygon fill="#63b8ff" stroke="#63b8ff" points="626.96,-132.86 623.29,-142.79 632.36,-137.32 626.96,-132.86"/>
</a>
</g>
</g>
<!-- Node13 -->
<g id="Node000013" class="node">
<title>Node13</title>
<g id="a_Node000013"><a xlink:href="panoc-ocp_8cpp.html" target="_top" xlink:title=" ">
<polygon fill="white" stroke="#666666" points="725,-30 613,-30 613,0 725,0 725,-30"/>
<text text-anchor="start" x="621" y="-18" font-family="Helvetica,sans-Serif" font-size="10.00">src/alpaqa/src/inner</text>
<text text-anchor="middle" x="669" y="-7" font-family="Helvetica,sans-Serif" font-size="10.00">/panoc&#45;ocp.cpp</text>
</a>
</g>
</g>
<!-- Node12&#45;&gt;Node13 -->
<g id="edge13_Node000012_Node000013" class="edge">
<title>Node12&#45;&gt;Node13</title>
<g id="a_edge13_Node000012_Node000013"><a xlink:title=" ">
<path fill="none" stroke="#63b8ff" d="M669,-55.66C669,-46.76 669,-37.42 669,-30.04"/>
<polygon fill="#63b8ff" stroke="#63b8ff" points="665.5,-55.77 669,-65.77 672.5,-55.77 665.5,-55.77"/>
</a>
</g>
</g>
<!-- Node14&#45;&gt;Node6 -->
<g id="edge17_Node000014_Node000006" class="edge">
<title>Node14&#45;&gt;Node6</title>
<g id="a_edge17_Node000014_Node000006"><a xlink:title=" ">
<path fill="none" stroke="#63b8ff" d="M1417.9,-138.41C1414.81,-126.24 1411.18,-111.9 1408.56,-101.54"/>
<polygon fill="#63b8ff" stroke="#63b8ff" points="1414.58,-139.56 1420.43,-148.39 1421.36,-137.84 1414.58,-139.56"/>
</a>
</g>
</g>
<!-- Node15 -->
<g id="Node000015" class="node">
<title>Node15</title>
<g id="a_Node000015"><a xlink:href="alpaqa_8hpp.html" target="_top" xlink:title=" ">
<polygon fill="white" stroke="#666666" points="1591,-101.5 1481,-101.5 1481,-71.5 1591,-71.5 1591,-101.5"/>
<text text-anchor="start" x="1489" y="-89.5" font-family="Helvetica,sans-Serif" font-size="10.00">src/alpaqa/include</text>
<text text-anchor="middle" x="1536" y="-78.5" font-family="Helvetica,sans-Serif" font-size="10.00">/alpaqa/alpaqa.hpp</text>
</a>
</g>
</g>
<!-- Node14&#45;&gt;Node15 -->
<g id="edge16_Node000014_Node000015" class="edge">
<title>Node14&#45;&gt;Node15</title>
<g id="a_edge16_Node000014_Node000015"><a xlink:title=" ">
<path fill="none" stroke="#63b8ff" d="M1453.52,-142.73C1472.87,-129.78 1497.69,-113.15 1515.03,-101.54"/>
<polygon fill="#63b8ff" stroke="#63b8ff" points="1451.43,-139.92 1445.07,-148.39 1455.32,-145.74 1451.43,-139.92"/>
</a>
</g>
</g>
<!-- Node16&#45;&gt;Node7 -->
<g id="edge19_Node000016_Node000007" class="edge">
<title>Node16&#45;&gt;Node7</title>
<g id="a_edge19_Node000016_Node000007"><a xlink:title=" ">
<path fill="none" stroke="#63b8ff" d="M973.7,-132.94C976.12,-122.25 978.75,-110.66 980.74,-101.86"/>
<polygon fill="#63b8ff" stroke="#63b8ff" points="970.26,-132.27 971.47,-142.79 977.09,-133.82 970.26,-132.27"/>
</a>
</g>
</g>
<!-- Node17&#45;&gt;Node8 -->
<g id="edge21_Node000017_Node000008" class="edge">
<title>Node17&#45;&gt;Node8</title>
<g id="a_edge21_Node000017_Node000008"><a xlink:title=" ">
<path fill="none" stroke="#63b8ff" d="M1267.82,-132.61C1265.98,-122.01 1264,-110.57 1262.49,-101.86"/>
<polygon fill="#63b8ff" stroke="#63b8ff" points="1264.43,-133.54 1269.58,-142.79 1271.33,-132.34 1264.43,-133.54"/>
</a>
</g>
</g>
<!-- Node19&#45;&gt;Node10 -->
<g id="edge31_Node000019_Node000010" class="edge">
<title>Node19&#45;&gt;Node10</title>
<g id="a_edge31_Node000019_Node000010"><a xlink:title=" ">
<path fill="none" stroke="#63b8ff" d="M383.89,-214.5C397.68,-205.79 413.58,-195.02 427,-184 443.99,-170.05 486.85,-124.99 508.72,-101.71"/>
<polygon fill="#63b8ff" stroke="#63b8ff" points="381.84,-211.66 375.19,-219.91 385.53,-217.61 381.84,-211.66"/>
</a>
</g>
</g>
<!-- Node20 -->
<g id="Node000020" class="node">
<title>Node20</title>
<g id="a_Node000020"><a xlink:href="pantr_8tpp.html" target="_top" xlink:title=" ">
<polygon fill="white" stroke="#666666" points="418,-184 284,-184 284,-143 418,-143 418,-184"/>
<text text-anchor="start" x="292" y="-172" font-family="Helvetica,sans-Serif" font-size="10.00">src/alpaqa/include</text>
<text text-anchor="start" x="292" y="-161" font-family="Helvetica,sans-Serif" font-size="10.00">/alpaqa/implementation</text>
<text text-anchor="middle" x="351" y="-150" font-family="Helvetica,sans-Serif" font-size="10.00">/inner/pantr.tpp</text>
</a>
</g>
</g>
<!-- Node19&#45;&gt;Node20 -->
<g id="edge25_Node000019_Node000020" class="edge">
<title>Node19&#45;&gt;Node20</title>
<g id="a_edge25_Node000019_Node000020"><a xlink:title=" ">
<path fill="none" stroke="#63b8ff" d="M351,-209.91C351,-201.47 351,-192.1 351,-184.07"/>
<polygon fill="#63b8ff" stroke="#63b8ff" points="347.5,-209.94 351,-219.94 354.5,-209.94 347.5,-209.94"/>
</a>
</g>
</g>
<!-- Node23 -->
<g id="Node000023" class="node">
<title>Node23</title>
<g id="a_Node000023"><a xlink:href="newton-tr-pantr-alm_8hpp.html" target="_top" xlink:title=" ">
<polygon fill="white" stroke="#666666" points="266,-184 134,-184 134,-143 266,-143 266,-184"/>
<text text-anchor="start" x="142" y="-172" font-family="Helvetica,sans-Serif" font-size="10.00">src/alpaqa/include</text>
<text text-anchor="start" x="142" y="-161" font-family="Helvetica,sans-Serif" font-size="10.00">/alpaqa/newton&#45;tr&#45;pantr</text>
<text text-anchor="middle" x="200" y="-150" font-family="Helvetica,sans-Serif" font-size="10.00">&#45;alm.hpp</text>
</a>
</g>
</g>
<!-- Node19&#45;&gt;Node23 -->
<g id="edge28_Node000019_Node000023" class="edge">
<title>Node19&#45;&gt;Node23</title>
<g id="a_edge28_Node000019_Node000023"><a xlink:title=" ">
<path fill="none" stroke="#63b8ff" d="M311.11,-215.64C289.98,-205.92 264.03,-193.97 242.53,-184.07"/>
<polygon fill="#63b8ff" stroke="#63b8ff" points="309.9,-218.93 320.44,-219.94 312.82,-212.58 309.9,-218.93"/>
</a>
</g>
</g>
<!-- Node24 -->
<g id="Node000024" class="node">
<title>Node24</title>
<g id="a_Node000024"><a xlink:href="pantr-driver_8cpp.html" target="_top" xlink:title=" ">
<polygon fill="white" stroke="#666666" points="116,-178.5 0,-178.5 0,-148.5 116,-148.5 116,-178.5"/>
<text text-anchor="start" x="8" y="-166.5" font-family="Helvetica,sans-Serif" font-size="10.00">src/alpaqa/src/driver</text>
<text text-anchor="middle" x="58" y="-155.5" font-family="Helvetica,sans-Serif" font-size="10.00">/pantr&#45;driver.cpp</text>
</a>
</g>
</g>
<!-- Node19&#45;&gt;Node24 -->
<g id="edge30_Node000019_Node000024" class="edge">
<title>Node19&#45;&gt;Node24</title>
<g id="a_edge30_Node000019_Node000024"><a xlink:title=" ">
<path fill="none" stroke="#63b8ff" d="M276.64,-218.83C232.41,-209.49 175.31,-196.87 125,-184 118.43,-182.32 111.52,-180.44 104.75,-178.53"/>
<polygon fill="#63b8ff" stroke="#63b8ff" points="275.93,-222.26 286.44,-220.89 277.37,-215.41 275.93,-222.26"/>
</a>
</g>
</g>
<!-- Node21 -->
<g id="Node000021" class="node">
<title>Node21</title>
<g id="a_Node000021"><a xlink:href="pantr_8cpp.html" target="_top" xlink:title=" ">
<polygon fill="white" stroke="#666666" points="407,-101.5 295,-101.5 295,-71.5 407,-71.5 407,-101.5"/>
<text text-anchor="start" x="303" y="-89.5" font-family="Helvetica,sans-Serif" font-size="10.00">src/alpaqa/src/inner</text>
<text text-anchor="middle" x="351" y="-78.5" font-family="Helvetica,sans-Serif" font-size="10.00">/pantr.cpp</text>
</a>
</g>
</g>
<!-- Node20&#45;&gt;Node21 -->
<g id="edge26_Node000020_Node000021" class="edge">
<title>Node20&#45;&gt;Node21</title>
<g id="a_edge26_Node000020_Node000021"><a xlink:title=" ">
<path fill="none" stroke="#63b8ff" d="M351,-132.61C351,-122.01 351,-110.57 351,-101.86"/>
<polygon fill="#63b8ff" stroke="#63b8ff" points="347.5,-132.79 351,-142.79 354.5,-132.79 347.5,-132.79"/>
</a>
</g>
</g>
<!-- Node22 -->
<g id="Node000022" class="node">
<title>Node22</title>
<g id="a_Node000022"><a xlink:href="newton-tr-pantr-alm_8cpp.html" target="_top" xlink:title=" ">
<polygon fill="white" stroke="#666666" points="269.5,-101.5 146.5,-101.5 146.5,-71.5 269.5,-71.5 269.5,-101.5"/>
<text text-anchor="start" x="154.5" y="-89.5" font-family="Helvetica,sans-Serif" font-size="10.00">src/alpaqa/src/newton</text>
<text text-anchor="middle" x="208" y="-78.5" font-family="Helvetica,sans-Serif" font-size="10.00">&#45;tr&#45;pantr&#45;alm.cpp</text>
</a>
</g>
</g>
<!-- Node20&#45;&gt;Node22 -->
<g id="edge27_Node000020_Node000022" class="edge">
<title>Node20&#45;&gt;Node22</title>
<g id="a_edge27_Node000020_Node000022"><a xlink:title=" ">
<path fill="none" stroke="#63b8ff" d="M304.86,-138.3C281.82,-126.22 254.74,-112.01 235.07,-101.7"/>
<polygon fill="#63b8ff" stroke="#63b8ff" points="303.32,-141.45 313.8,-142.99 306.57,-135.25 303.32,-141.45"/>
</a>
</g>
</g>
<!-- Node23&#45;&gt;Node22 -->
<g id="edge29_Node000023_Node000022" class="edge">
<title>Node23&#45;&gt;Node22</title>
<g id="a_edge29_Node000023_Node000022"><a xlink:title=" ">
<path fill="none" stroke="#63b8ff" d="M203.19,-132.61C204.32,-122.01 205.54,-110.57 206.47,-101.86"/>
<polygon fill="#63b8ff" stroke="#63b8ff" points="199.68,-132.48 202.1,-142.79 206.64,-133.22 199.68,-132.48"/>
</a>
</g>
</g>
<!-- Node25&#45;&gt;Node10 -->
<g id="edge45_Node000025_Node000010" class="edge">
<title>Node25&#45;&gt;Node10</title>
<g id="a_edge45_Node000025_Node000010"><a xlink:title=" ">
<path fill="none" stroke="#63b8ff" d="M1627.7,-232.48C1435.63,-228.33 956.41,-214.98 891,-184 868.55,-173.37 875.03,-154.48 853,-143 749.55,-89.08 707.27,-130.5 593,-107 585.49,-105.46 577.6,-103.56 569.92,-101.57"/>
<polygon fill="#63b8ff" stroke="#63b8ff" points="1627.66,-235.98 1637.73,-232.7 1627.81,-228.98 1627.66,-235.98"/>
</a>
</g>
</g>
<!-- Node25&#45;&gt;Node18 -->
<g id="edge44_Node000025_Node000018" class="edge">
<title>Node25&#45;&gt;Node18</title>
<g id="a_edge44_Node000025_Node000018"><a xlink:title=" ">
<path fill="none" stroke="#63b8ff" d="M1668.93,-215.5C1645.07,-203.9 1614.79,-189.18 1592.9,-178.54"/>
<polygon fill="#63b8ff" stroke="#63b8ff" points="1667.54,-218.71 1678.06,-219.94 1670.6,-212.42 1667.54,-218.71"/>
</a>
</g>
</g>
<!-- Node26 -->
<g id="Node000026" class="node">
<title>Node26</title>
<g id="a_Node000026"><a xlink:href="zerofpr_8tpp.html" target="_top" xlink:title=" ">
<polygon fill="white" stroke="#666666" points="2084,-184 1950,-184 1950,-143 2084,-143 2084,-184"/>
<text text-anchor="start" x="1958" y="-172" font-family="Helvetica,sans-Serif" font-size="10.00">src/alpaqa/include</text>
<text text-anchor="start" x="1958" y="-161" font-family="Helvetica,sans-Serif" font-size="10.00">/alpaqa/implementation</text>
<text text-anchor="middle" x="2017" y="-150" font-family="Helvetica,sans-Serif" font-size="10.00">/inner/zerofpr.tpp</text>
</a>
</g>
</g>
<!-- Node25&#45;&gt;Node26 -->
<g id="edge33_Node000025_Node000026" class="edge">
<title>Node25&#45;&gt;Node26</title>
<g id="a_edge33_Node000025_Node000026"><a xlink:title=" ">
<path fill="none" stroke="#63b8ff" d="M1785.82,-217.99C1831.28,-208.55 1889.48,-196.11 1941,-184 1943.92,-183.31 1946.89,-182.6 1949.9,-181.87"/>
<polygon fill="#63b8ff" stroke="#63b8ff" points="1785.1,-214.56 1776.02,-220.02 1786.52,-221.42 1785.1,-214.56"/>
</a>
</g>
</g>
<!-- Node31 -->
<g id="Node000031" class="node">
<title>Node31</title>
<g id="a_Node000031"><a xlink:href="structured-zerofpr-alm_8hpp.html" target="_top" xlink:title=" ">
<polygon fill="white" stroke="#666666" points="2245.5,-184 2102.5,-184 2102.5,-143 2245.5,-143 2245.5,-184"/>
<text text-anchor="start" x="2110.5" y="-172" font-family="Helvetica,sans-Serif" font-size="10.00">src/alpaqa/include</text>
<text text-anchor="start" x="2110.5" y="-161" font-family="Helvetica,sans-Serif" font-size="10.00">/alpaqa/structured&#45;zerofpr</text>
<text text-anchor="middle" x="2174" y="-150" font-family="Helvetica,sans-Serif" font-size="10.00">&#45;alm.hpp</text>
</a>
</g>
</g>
<!-- Node25&#45;&gt;Node31 -->
<g id="edge38_Node000025_Node000031" class="edge">
<title>Node25&#45;&gt;Node31</title>
<g id="a_edge38_Node000025_Node000031"><a xlink:title=" ">
<path fill="none" stroke="#63b8ff" d="M1786.3,-226.25C1864.61,-218 1987.59,-203.46 2093,-184 2095.99,-183.45 2099.03,-182.86 2102.1,-182.23"/>
<polygon fill="#63b8ff" stroke="#63b8ff" points="1785.61,-222.8 1776.03,-227.32 1786.34,-229.76 1785.61,-222.8"/>
</a>
</g>
</g>
<!-- Node32 -->
<g id="Node000032" class="node">
<title>Node32</title>
<g id="a_Node000032"><a xlink:href="zerofpr-alm_8hpp.html" target="_top" xlink:title=" ">
<polygon fill="white" stroke="#666666" points="1774,-178.5 1640,-178.5 1640,-148.5 1774,-148.5 1774,-178.5"/>
<text text-anchor="start" x="1648" y="-166.5" font-family="Helvetica,sans-Serif" font-size="10.00">src/alpaqa/include</text>
<text text-anchor="middle" x="1707" y="-155.5" font-family="Helvetica,sans-Serif" font-size="10.00">/alpaqa/zerofpr&#45;alm.hpp</text>
</a>
</g>
</g>
<!-- Node25&#45;&gt;Node32 -->
<g id="edge40_Node000025_Node000032" class="edge">
<title>Node25&#45;&gt;Node32</title>
<g id="a_edge40_Node000025_Node000032"><a xlink:title=" ">
<path fill="none" stroke="#63b8ff" d="M1707,-209.75C1707,-199.31 1707,-187.49 1707,-178.54"/>
<polygon fill="#63b8ff" stroke="#63b8ff" points="1703.5,-209.94 1707,-219.94 1710.5,-209.94 1703.5,-209.94"/>
</a>
</g>
</g>
<!-- Node33 -->
<g id="Node000033" class="node">
<title>Node33</title>
<g id="a_Node000033"><a xlink:href="zerofpr-anderson-alm_8hpp.html" target="_top" xlink:title=" ">
<polygon fill="white" stroke="#666666" points="1931.5,-184 1792.5,-184 1792.5,-143 1931.5,-143 1931.5,-184"/>
<text text-anchor="start" x="1800.5" y="-172" font-family="Helvetica,sans-Serif" font-size="10.00">src/alpaqa/include</text>
<text text-anchor="start" x="1800.5" y="-161" font-family="Helvetica,sans-Serif" font-size="10.00">/alpaqa/zerofpr&#45;anderson</text>
<text text-anchor="middle" x="1862" y="-150" font-family="Helvetica,sans-Serif" font-size="10.00">&#45;alm.hpp</text>
</a>
</g>
</g>
<!-- Node25&#45;&gt;Node33 -->
<g id="edge42_Node000025_Node000033" class="edge">
<title>Node25&#45;&gt;Node33</title>
<g id="a_edge42_Node000025_Node000033"><a xlink:title=" ">
<path fill="none" stroke="#63b8ff" d="M1747.65,-215.77C1769.39,-206.02 1796.17,-194.02 1818.35,-184.07"/>
<polygon fill="#63b8ff" stroke="#63b8ff" points="1746.06,-212.65 1738.37,-219.94 1748.92,-219.04 1746.06,-212.65"/>
</a>
</g>
</g>
<!-- Node27 -->
<g id="Node000027" class="node">
<title>Node27</title>
<g id="a_Node000027"><a xlink:href="zerofpr_8cpp.html" target="_top" xlink:title=" ">
<polygon fill="white" stroke="#666666" points="2073,-101.5 1961,-101.5 1961,-71.5 2073,-71.5 2073,-101.5"/>
<text text-anchor="start" x="1969" y="-89.5" font-family="Helvetica,sans-Serif" font-size="10.00">src/alpaqa/src/inner</text>
<text text-anchor="middle" x="2017" y="-78.5" font-family="Helvetica,sans-Serif" font-size="10.00">/zerofpr.cpp</text>
</a>
</g>
</g>
<!-- Node26&#45;&gt;Node27 -->
<g id="edge34_Node000026_Node000027" class="edge">
<title>Node26&#45;&gt;Node27</title>
<g id="a_edge34_Node000026_Node000027"><a xlink:title=" ">
<path fill="none" stroke="#63b8ff" d="M2017,-132.61C2017,-122.01 2017,-110.57 2017,-101.86"/>
<polygon fill="#63b8ff" stroke="#63b8ff" points="2013.5,-132.79 2017,-142.79 2020.5,-132.79 2013.5,-132.79"/>
</a>
</g>
</g>
<!-- Node28 -->
<g id="Node000028" class="node">
<title>Node28</title>
<g id="a_Node000028"><a xlink:href="structured-zerofpr-alm_8cpp.html" target="_top" xlink:title=" ">
<polygon fill="white" stroke="#666666" points="2235.5,-101.5 2098.5,-101.5 2098.5,-71.5 2235.5,-71.5 2235.5,-101.5"/>
<text text-anchor="start" x="2106.5" y="-89.5" font-family="Helvetica,sans-Serif" font-size="10.00">src/alpaqa/src/structured</text>
<text text-anchor="middle" x="2167" y="-78.5" font-family="Helvetica,sans-Serif" font-size="10.00">&#45;zerofpr&#45;alm.cpp</text>
</a>
</g>
</g>
<!-- Node26&#45;&gt;Node28 -->
<g id="edge35_Node000026_Node000028" class="edge">
<title>Node26&#45;&gt;Node28</title>
<g id="a_edge35_Node000026_Node000028"><a xlink:title=" ">
<path fill="none" stroke="#63b8ff" d="M2065.07,-138.46C2089.32,-126.34 2117.89,-112.06 2138.6,-101.7"/>
<polygon fill="#63b8ff" stroke="#63b8ff" points="2063.4,-135.39 2056.02,-142.99 2066.53,-141.65 2063.4,-135.39"/>
</a>
</g>
</g>
<!-- Node29 -->
<g id="Node000029" class="node">
<title>Node29</title>
<g id="a_Node000029"><a xlink:href="zerofpr-alm_8cpp.html" target="_top" xlink:title=" ">
<polygon fill="white" stroke="#666666" points="1775,-101.5 1653,-101.5 1653,-71.5 1775,-71.5 1775,-101.5"/>
<text text-anchor="start" x="1661" y="-89.5" font-family="Helvetica,sans-Serif" font-size="10.00">src/alpaqa/src/zerofpr</text>
<text text-anchor="middle" x="1714" y="-78.5" font-family="Helvetica,sans-Serif" font-size="10.00">&#45;alm.cpp</text>
</a>
</g>
</g>
<!-- Node26&#45;&gt;Node29 -->
<g id="edge36_Node000026_Node000029" class="edge">
<title>Node26&#45;&gt;Node29</title>
<g id="a_edge36_Node000026_Node000029"><a xlink:title=" ">
<path fill="none" stroke="#63b8ff" d="M1939.81,-142.71C1877.14,-127.05 1815.91,-112.12 1772.36,-101.58"/>
<polygon fill="#63b8ff" stroke="#63b8ff" points="1939.32,-146.2 1949.87,-145.23 1941.02,-139.41 1939.32,-146.2"/>
</a>
</g>
</g>
<!-- Node30 -->
<g id="Node000030" class="node">
<title>Node30</title>
<g id="a_Node000030"><a xlink:href="zerofpr-anderson-alm_8cpp.html" target="_top" xlink:title=" ">
<polygon fill="white" stroke="#666666" points="1933,-101.5 1811,-101.5 1811,-71.5 1933,-71.5 1933,-101.5"/>
<text text-anchor="start" x="1819" y="-89.5" font-family="Helvetica,sans-Serif" font-size="10.00">src/alpaqa/src/zerofpr</text>
<text text-anchor="middle" x="1872" y="-78.5" font-family="Helvetica,sans-Serif" font-size="10.00">&#45;anderson&#45;alm.cpp</text>
</a>
</g>
</g>
<!-- Node26&#45;&gt;Node30 -->
<g id="edge37_Node000026_Node000030" class="edge">
<title>Node26&#45;&gt;Node30</title>
<g id="a_edge37_Node000026_Node000030"><a xlink:title=" ">
<path fill="none" stroke="#63b8ff" d="M1970.22,-138.3C1946.85,-126.22 1919.39,-112.01 1899.45,-101.7"/>
<polygon fill="#63b8ff" stroke="#63b8ff" points="1968.79,-141.5 1979.28,-142.99 1972.01,-135.29 1968.79,-141.5"/>
</a>
</g>
</g>
<!-- Node31&#45;&gt;Node28 -->
<g id="edge39_Node000031_Node000028" class="edge">
<title>Node31&#45;&gt;Node28</title>
<g id="a_edge39_Node000031_Node000028"><a xlink:title=" ">
<path fill="none" stroke="#63b8ff" d="M2171.21,-132.61C2170.22,-122.01 2169.15,-110.57 2168.34,-101.86"/>
<polygon fill="#63b8ff" stroke="#63b8ff" points="2167.75,-133.16 2172.16,-142.79 2174.72,-132.51 2167.75,-133.16"/>
</a>
</g>
</g>
<!-- Node32&#45;&gt;Node29 -->
<g id="edge41_Node000032_Node000029" class="edge">
<title>Node32&#45;&gt;Node29</title>
<g id="a_edge41_Node000032_Node000029"><a xlink:title=" ">
<path fill="none" stroke="#63b8ff" d="M1709.25,-138.41C1710.38,-126.24 1711.72,-111.9 1712.69,-101.54"/>
<polygon fill="#63b8ff" stroke="#63b8ff" points="1705.76,-138.11 1708.32,-148.39 1712.73,-138.76 1705.76,-138.11"/>
</a>
</g>
</g>
<!-- Node33&#45;&gt;Node30 -->
<g id="edge43_Node000033_Node000030" class="edge">
<title>Node33&#45;&gt;Node30</title>
<g id="a_edge43_Node000033_Node000030"><a xlink:title=" ">
<path fill="none" stroke="#63b8ff" d="M1865.99,-132.61C1867.4,-122.01 1868.92,-110.57 1870.09,-101.86"/>
<polygon fill="#63b8ff" stroke="#63b8ff" points="1862.48,-132.42 1864.63,-142.79 1869.42,-133.34 1862.48,-132.42"/>
</a>
</g>
</g>
</g>
</svg>

<g id="navigator" transform="translate(0 0)" fill="#404254">
  <rect fill="#f2f5e9" fill-opacity="0.5" stroke="#606060" stroke-width=".5" x="0" y="0" width="60" height="60"/>
  <use id="zoomplus" xlink:href="#zoomPlus" x="17" y="9" onmousedown="handleZoom(evt,'in')"/>
  <use id="zoomminus" xlink:href="#zoomMin" x="42" y="9" onmousedown="handleZoom(evt,'out')"/>
  <use id="reset" xlink:href="#resetDef" x="30" y="36" onmousedown="handleReset()"/>
   <use id="arrowup" xlink:href="#arrowUp" x="0" y="0" onmousedown="handlePan(0,-1)"/>
  <use id="arrowright" xlink:href="#arrowRight" x="0" y="0" onmousedown="handlePan(1,0)"/>
  <use id="arrowdown" xlink:href="#arrowDown" x="0" y="0" onmousedown="handlePan(0,1)"/>
  <use id="arrowleft" xlink:href="#arrowLeft" x="0" y="0" onmousedown="handlePan(-1,0)"/>
</g>
<svg viewBox="0 0 15 15" width="100%" height="30px" preserveAspectRatio="xMaxYMin meet">
 <g id="arrow_out" transform="scale(0.3 0.3)">
  <a xlink:href="lipschitz_8hpp__dep__incl_org.svg" target="_base">
   <rect id="button" ry="5" rx="5" y="6" x="6" height="38" width="38"
        fill="#f2f5e9" fill-opacity="0.5" stroke="#606060" stroke-width="1.0"/>
   <path id="arrow"
     d="M 11.500037,31.436501 C 11.940474,20.09759 22.043105,11.32322 32.158766,21.979434 L 37.068811,17.246167 C 37.068811,17.246167 37.088388,32 37.088388,32 L 22.160133,31.978069 C 22.160133,31.978069 26.997745,27.140456 26.997745,27.140456 C 18.528582,18.264221 13.291696,25.230495 11.500037,31.436501 z"
     style="fill:#404040;"/>
  </a>
 </g>
</svg>

<style type='text/css'>
<![CDATA[
[data-mouse-over-selected='false'] { opacity: 0.7; }
[data-mouse-over-selected='true']  { opacity: 1.0; }
]]>
</style>
<script type="application/ecmascript"><![CDATA[
document.addEventListener('DOMContentLoaded', (event) => {
  highlightEdges();
  highlightAdjacentNodes();
});
]]></script>
</svg>
