<?xml version="1.0" encoding="UTF-8" standalone="no"?>
<!DOCTYPE svg PUBLIC "-//W3C//DTD SVG 1.1//EN"
 "http://www.w3.org/Graphics/SVG/1.1/DTD/svg11.dtd">
<!-- Generated by graphviz version 2.43.0 (0)
 -->
<!-- Title: split_key Pages: 1 -->
<svg width="857pt" height="372pt"
 viewBox="0.00 0.00 857.00 372.33" xmlns="http://www.w3.org/2000/svg" xmlns:xlink="http://www.w3.org/1999/xlink">
<g id="graph0" class="graph" transform="scale(1 1) rotate(0) translate(4 368.33)">
<title>split_key</title>
<!-- Node1 -->
<g id="Node000001" class="node">
<title>Node1</title>
<g id="a_Node000001"><a xlink:title="Split the string full on the first occurrence of tok.">
<polygon fill="#999999" stroke="#666666" points="849,-279 789,-279 789,-260 849,-260 849,-279"/>
<text text-anchor="middle" x="819" y="-267" font-family="Helvetica,sans-Serif" font-size="10.00">split_key</text>
</a>
</g>
</g>
<!-- Node2 -->
<g id="Node000002" class="node">
<title>Node2</title>
<g id="a_Node000002"><a xlink:href="alpaqa-driver_8cpp.html#a3430011226186bf05d5c2552270587b7" target="_top" xlink:title=" ">
<polygon fill="white" stroke="#666666" points="519,-362 412,-362 412,-343 519,-343 519,-362"/>
<text text-anchor="middle" x="465.5" y="-350" font-family="Helvetica,sans-Serif" font-size="10.00">get_solver_builder</text>
</a>
</g>
</g>
<!-- Node1&#45;&gt;Node2 -->
<g id="edge1_Node000001_Node000002" class="edge">
<title>Node1&#45;&gt;Node2</title>
<g id="a_edge1_Node000001_Node000002"><a xlink:title=" ">
<path fill="none" stroke="#63b8ff" d="M803.74,-286.54C791.69,-299.64 773.2,-316.9 753,-325.5 676.47,-358.09 578.29,-359.71 519.01,-356.86"/>
<polygon fill="#63b8ff" stroke="#63b8ff" points="806.37,-288.85 810.37,-279.04 801.12,-284.21 806.37,-288.85"/>
</a>
</g>
</g>
<!-- Node4 -->
<g id="Node000004" class="node">
<title>Node4</title>
<g id="a_Node000004"><a xlink:href="namespacealpaqa_1_1params.html#a257fd29e6f4f447cb00eb1f8affdebec" target="_top" xlink:title=" ">
<polygon fill="white" stroke="#666666" points="750,-316 682,-316 682,-297 750,-297 750,-316"/>
<text text-anchor="middle" x="716" y="-304" font-family="Helvetica,sans-Serif" font-size="10.00">set_param</text>
</a>
</g>
</g>
<!-- Node1&#45;&gt;Node4 -->
<g id="edge3_Node000001_Node000004" class="edge">
<title>Node1&#45;&gt;Node4</title>
<g id="a_edge3_Node000001_Node000004"><a xlink:title=" ">
<path fill="none" stroke="#63b8ff" d="M782.47,-282.52C769.57,-287.24 755.23,-292.49 743.27,-296.88"/>
<polygon fill="#63b8ff" stroke="#63b8ff" points="783.8,-285.75 791.99,-279.03 781.4,-279.18 783.8,-285.75"/>
</a>
</g>
</g>
<!-- Node5 -->
<g id="Node000005" class="node">
<title>Node5</title>
<g id="a_Node000005"><a xlink:href="namespacealpaqa_1_1params.html#a6085a1535aaa464dae1b548875f87c6f" target="_top" xlink:title="Use s to index into the struct type T and overwrite the attribute given by s.key.">
<polygon fill="white" stroke="#666666" points="750,-279 682,-279 682,-260 750,-260 750,-279"/>
<text text-anchor="middle" x="716" y="-267" font-family="Helvetica,sans-Serif" font-size="10.00">set_param</text>
</a>
</g>
</g>
<!-- Node1&#45;&gt;Node5 -->
<g id="edge4_Node000001_Node000005" class="edge">
<title>Node1&#45;&gt;Node5</title>
<g id="a_edge4_Node000001_Node000005"><a xlink:title=" ">
<path fill="none" stroke="#63b8ff" d="M778.77,-269.5C769.28,-269.5 759.23,-269.5 750.05,-269.5"/>
<polygon fill="#63b8ff" stroke="#63b8ff" points="778.79,-273 788.79,-269.5 778.79,-266 778.79,-273"/>
</a>
</g>
</g>
<!-- Node6 -->
<g id="Node000006" class="node">
<title>Node6</title>
<g id="a_Node000006"><a xlink:href="namespacealpaqa_1_1params.html#af8d85f5413c4507303b00e5fb7279aea" target="_top" xlink:title=" ">
<polygon fill="white" stroke="#666666" points="750,-242 682,-242 682,-223 750,-223 750,-242"/>
<text text-anchor="middle" x="716" y="-230" font-family="Helvetica,sans-Serif" font-size="10.00">set_param</text>
</a>
</g>
</g>
<!-- Node1&#45;&gt;Node6 -->
<g id="edge5_Node000001_Node000006" class="edge">
<title>Node1&#45;&gt;Node6</title>
<g id="a_edge5_Node000001_Node000006"><a xlink:title=" ">
<path fill="none" stroke="#63b8ff" d="M782.47,-256.48C769.57,-251.76 755.23,-246.51 743.27,-242.12"/>
<polygon fill="#63b8ff" stroke="#63b8ff" points="781.4,-259.82 791.99,-259.97 783.8,-253.25 781.4,-259.82"/>
</a>
</g>
</g>
<!-- Node7 -->
<g id="Node000007" class="node">
<title>Node7</title>
<g id="a_Node000007"><a xlink:href="namespacealpaqa_1_1params.html#abadc98653193fbd05b658d62b34f75e7" target="_top" xlink:title="Overwrites t based on the options that start with prefix.">
<polygon fill="white" stroke="#666666" points="753,-195 679,-195 679,-176 753,-176 753,-195"/>
<text text-anchor="middle" x="716" y="-183" font-family="Helvetica,sans-Serif" font-size="10.00">set_params</text>
</a>
</g>
</g>
<!-- Node1&#45;&gt;Node7 -->
<g id="edge6_Node000001_Node000007" class="edge">
<title>Node1&#45;&gt;Node7</title>
<g id="a_edge6_Node000001_Node000007"><a xlink:title=" ">
<path fill="none" stroke="#63b8ff" d="M798.81,-253.05C785.92,-242.06 768.52,-227.32 753,-214.5 745.08,-207.96 736.08,-200.71 729.06,-195.09"/>
<polygon fill="#63b8ff" stroke="#63b8ff" points="796.69,-255.84 806.56,-259.68 801.24,-250.52 796.69,-255.84"/>
</a>
</g>
</g>
<!-- Node3 -->
<g id="Node000003" class="node">
<title>Node3</title>
<g id="a_Node000003"><a xlink:href="alpaqa-driver_8cpp.html#ac0f2228420376f4db7e1274f2b41667c" target="_top" xlink:title=" ">
<polygon fill="white" stroke="#666666" points="41,-305 0,-305 0,-286 41,-286 41,-305"/>
<text text-anchor="middle" x="20.5" y="-293" font-family="Helvetica,sans-Serif" font-size="10.00">main</text>
</a>
</g>
</g>
<!-- Node2&#45;&gt;Node3 -->
<g id="edge2_Node000002_Node000003" class="edge">
<title>Node2&#45;&gt;Node3</title>
<g id="a_edge2_Node000002_Node000003"><a xlink:title=" ">
<path fill="none" stroke="#63b8ff" d="M401.56,-359.7C323.26,-366.35 186.51,-370.36 77,-333.5 59.29,-327.54 42.04,-314.19 31.59,-305.01"/>
<polygon fill="#63b8ff" stroke="#63b8ff" points="402.1,-363.16 411.75,-358.79 401.48,-356.19 402.1,-363.16"/>
</a>
</g>
</g>
<!-- Node8 -->
<g id="Node000008" class="node">
<title>Node8</title>
<g id="a_Node000008"><a xlink:href="options_8hpp.html#a15ce06eb1492a582a4abe2ddd5e7f8a1" target="_top" xlink:title=" ">
<polygon fill="white" stroke="#666666" points="643,-174 569,-174 569,-155 643,-155 643,-174"/>
<text text-anchor="middle" x="606" y="-162" font-family="Helvetica,sans-Serif" font-size="10.00">set_params</text>
</a>
</g>
</g>
<!-- Node7&#45;&gt;Node8 -->
<g id="edge7_Node000007_Node000008" class="edge">
<title>Node7&#45;&gt;Node8</title>
<g id="a_edge7_Node000007_Node000008"><a xlink:title=" ">
<path fill="none" stroke="#63b8ff" d="M668.89,-176.53C660.35,-174.87 651.55,-173.16 643.35,-171.57"/>
<polygon fill="#63b8ff" stroke="#63b8ff" points="668.25,-179.98 678.74,-178.45 669.59,-173.1 668.25,-179.98"/>
</a>
</g>
</g>
<!-- Node8&#45;&gt;Node2 -->
<g id="edge12_Node000008_Node000002" class="edge">
<title>Node8&#45;&gt;Node2</title>
<g id="a_edge12_Node000008_Node000002"><a xlink:title=" ">
<path fill="none" stroke="#63b8ff" d="M601.57,-184.25C594.65,-218.35 575.86,-288.44 533,-328.5 526.28,-334.79 517.78,-339.45 509.14,-342.9"/>
<polygon fill="#63b8ff" stroke="#63b8ff" points="605.06,-184.64 603.48,-174.16 598.18,-183.34 605.06,-184.64"/>
</a>
</g>
</g>
<!-- Node9 -->
<g id="Node000009" class="node">
<title>Node9</title>
<g id="a_Node000009"><a xlink:href="alpaqa-driver_8cpp.html#abdc7f0491e5c38d6f9569a0aad3d2925" target="_top" xlink:title=" ">
<polygon fill="white" stroke="#666666" points="182,-324 81,-324 81,-305 182,-305 182,-324"/>
<text text-anchor="middle" x="131.5" y="-312" font-family="Helvetica,sans-Serif" font-size="10.00">get_output_paths</text>
</a>
</g>
</g>
<!-- Node8&#45;&gt;Node9 -->
<g id="edge8_Node000008_Node000009" class="edge">
<title>Node8&#45;&gt;Node9</title>
<g id="a_edge8_Node000008_Node000009"><a xlink:title=" ">
<path fill="none" stroke="#63b8ff" d="M600.16,-184.04C591.86,-212.96 571.91,-266.34 533,-290.5 475.75,-326.05 276.23,-321.57 182.22,-317.26"/>
<polygon fill="#63b8ff" stroke="#63b8ff" points="603.58,-184.83 602.79,-174.27 596.82,-183.01 603.58,-184.83"/>
</a>
</g>
</g>
<!-- Node10 -->
<g id="Node000010" class="node">
<title>Node10</title>
<g id="a_Node000010"><a xlink:href="alpaqa-driver_8cpp.html#a62667720f096806ed08c60e4207f8972" target="_top" xlink:title=" ">
<polygon fill="white" stroke="#666666" points="186,-286 77,-286 77,-267 186,-267 186,-286"/>
<text text-anchor="middle" x="131.5" y="-274" font-family="Helvetica,sans-Serif" font-size="10.00">get_output_stream</text>
</a>
</g>
</g>
<!-- Node8&#45;&gt;Node10 -->
<g id="edge10_Node000008_Node000010" class="edge">
<title>Node8&#45;&gt;Node10</title>
<g id="a_edge10_Node000008_Node000010"><a xlink:title=" ">
<path fill="none" stroke="#63b8ff" d="M596.67,-183.18C585.65,-205.37 563.95,-241.4 533,-257.5 417.06,-317.82 255.76,-299.88 178,-286.03"/>
<polygon fill="#63b8ff" stroke="#63b8ff" points="599.86,-184.62 600.98,-174.08 593.54,-181.63 599.86,-184.62"/>
</a>
</g>
</g>
<!-- Node11 -->
<g id="Node000011" class="node">
<title>Node11</title>
<g id="a_Node000011"><a xlink:href="namespaceanonymous__namespace_02problem_8cpp_03.html#ab42fb3dc0421d6c6c1f45d753a95a2c4" target="_top" xlink:title=" ">
<polygon fill="white" stroke="#666666" points="533,-230 398,-230 398,-189 533,-189 533,-230"/>
<text text-anchor="start" x="406" y="-218" font-family="Helvetica,sans-Serif" font-size="10.00">anonymous_namespace</text>
<text text-anchor="start" x="406" y="-207" font-family="Helvetica,sans-Serif" font-size="10.00">{problem::cpp}::load</text>
<text text-anchor="middle" x="465.5" y="-196" font-family="Helvetica,sans-Serif" font-size="10.00">_initial_guess</text>
</a>
</g>
</g>
<!-- Node8&#45;&gt;Node11 -->
<g id="edge13_Node000008_Node000011" class="edge">
<title>Node8&#45;&gt;Node11</title>
<g id="a_edge13_Node000008_Node000011"><a xlink:title=" ">
<path fill="none" stroke="#63b8ff" d="M566.08,-177.15C554.78,-180.82 542.13,-184.93 529.74,-188.95"/>
<polygon fill="#63b8ff" stroke="#63b8ff" points="567.2,-180.46 575.63,-174.04 565.04,-173.8 567.2,-180.46"/>
</a>
</g>
</g>
<!-- Node14 -->
<g id="Node000014" class="node">
<title>Node14</title>
<g id="a_Node000014"><a xlink:href="gradient-checker_8cpp.html#ac0f2228420376f4db7e1274f2b41667c" target="_top" xlink:title=" ">
<polygon fill="white" stroke="#666666" points="486,-171 445,-171 445,-152 486,-152 486,-171"/>
<text text-anchor="middle" x="465.5" y="-159" font-family="Helvetica,sans-Serif" font-size="10.00">main</text>
</a>
</g>
</g>
<!-- Node8&#45;&gt;Node14 -->
<g id="edge19_Node000008_Node000014" class="edge">
<title>Node8&#45;&gt;Node14</title>
<g id="a_edge19_Node000008_Node000014"><a xlink:title=" ">
<path fill="none" stroke="#63b8ff" d="M558.7,-163.5C534,-162.96 504.91,-162.33 486.11,-161.92"/>
<polygon fill="#63b8ff" stroke="#63b8ff" points="558.9,-167 568.97,-163.72 559.05,-160 558.9,-167"/>
</a>
</g>
</g>
<!-- Node15 -->
<g id="Node000015" class="node">
<title>Node15</title>
<g id="a_Node000015"><a xlink:href="alm-driver_8hpp.html#ae4ef291d9ec9d55ee804b5723ea2e641" target="_top" xlink:title=" ">
<polygon fill="white" stroke="#666666" points="517,-95 414,-95 414,-76 517,-76 517,-95"/>
<text text-anchor="middle" x="465.5" y="-83" font-family="Helvetica,sans-Serif" font-size="10.00">make_alm_solver</text>
</a>
</g>
</g>
<!-- Node8&#45;&gt;Node15 -->
<g id="edge20_Node000008_Node000015" class="edge">
<title>Node8&#45;&gt;Node15</title>
<g id="a_edge20_Node000008_Node000015"><a xlink:title=" ">
<path fill="none" stroke="#63b8ff" d="M586.68,-147.97C572.74,-136.05 552.67,-120.23 533,-109.5 522.44,-103.74 510.22,-98.87 499.16,-95.06"/>
<polygon fill="#63b8ff" stroke="#63b8ff" points="584.67,-150.86 594.5,-154.81 589.28,-145.59 584.67,-150.86"/>
</a>
</g>
</g>
<!-- Node16 -->
<g id="Node000016" class="node">
<title>Node16</title>
<g id="a_Node000016"><a xlink:href="namespaceanonymous__namespace_02panoc-driver_8cpp_03.html#a2646125ffd95200553629d634b9e9ee0" target="_top" xlink:title=" ">
<polygon fill="white" stroke="#666666" points="362,-136 222,-136 222,-95 362,-95 362,-136"/>
<text text-anchor="start" x="230" y="-124" font-family="Helvetica,sans-Serif" font-size="10.00">anonymous_namespace</text>
<text text-anchor="start" x="230" y="-113" font-family="Helvetica,sans-Serif" font-size="10.00">{panoc&#45;driver::cpp}</text>
<text text-anchor="middle" x="292" y="-102" font-family="Helvetica,sans-Serif" font-size="10.00">::make_panoc_like_driver</text>
</a>
</g>
</g>
<!-- Node8&#45;&gt;Node16 -->
<g id="edge24_Node000008_Node000016" class="edge">
<title>Node8&#45;&gt;Node16</title>
<g id="a_edge24_Node000008_Node000016"><a xlink:title=" ">
<path fill="none" stroke="#63b8ff" d="M568.1,-151.8C556.93,-148.34 544.56,-144.9 533,-142.5 476.03,-130.7 410.32,-123.76 362.07,-119.88"/>
<polygon fill="#63b8ff" stroke="#63b8ff" points="567.36,-155.24 577.96,-154.94 569.49,-148.57 567.36,-155.24"/>
</a>
</g>
</g>
<!-- Node17 -->
<g id="Node000017" class="node">
<title>Node17</title>
<g id="a_Node000017"><a xlink:href="namespaceanonymous__namespace_02pantr-driver_8cpp_03.html#ab33624b00d76e0611032d0e170e1152f" target="_top" xlink:title=" ">
<polygon fill="white" stroke="#666666" points="361,-73 223,-73 223,-32 361,-32 361,-73"/>
<text text-anchor="start" x="231" y="-61" font-family="Helvetica,sans-Serif" font-size="10.00">anonymous_namespace</text>
<text text-anchor="start" x="231" y="-50" font-family="Helvetica,sans-Serif" font-size="10.00">{pantr&#45;driver::cpp}</text>
<text text-anchor="middle" x="292" y="-39" font-family="Helvetica,sans-Serif" font-size="10.00">::make_pantr_like_solver</text>
</a>
</g>
</g>
<!-- Node8&#45;&gt;Node17 -->
<g id="edge25_Node000008_Node000017" class="edge">
<title>Node8&#45;&gt;Node17</title>
<g id="a_edge25_Node000008_Node000017"><a xlink:title=" ">
<path fill="none" stroke="#63b8ff" d="M597.23,-145.56C586.56,-122.33 565,-83.88 533,-66.5 480.46,-37.96 411.58,-36.97 361.08,-41.64"/>
<polygon fill="#63b8ff" stroke="#63b8ff" points="594.03,-147 601.24,-154.76 600.45,-144.2 594.03,-147"/>
</a>
</g>
</g>
<!-- Node18 -->
<g id="Node000018" class="node">
<title>Node18</title>
<g id="a_Node000018"><a xlink:href="alm-driver_8hpp.html#a51b2a2cde56762bcb43a2f4da0913f98" target="_top" xlink:title=" ">
<polygon fill="white" stroke="#666666" points="520,-19 411,-19 411,0 520,0 520,-19"/>
<text text-anchor="middle" x="465.5" y="-7" font-family="Helvetica,sans-Serif" font-size="10.00">make_inner_solver</text>
</a>
</g>
</g>
<!-- Node8&#45;&gt;Node18 -->
<g id="edge23_Node000008_Node000018" class="edge">
<title>Node8&#45;&gt;Node18</title>
<g id="a_edge23_Node000008_Node000018"><a xlink:title=" ">
<path fill="none" stroke="#63b8ff" d="M599.26,-145.16C589.89,-116.81 568.68,-64 533,-33.5 525.63,-27.2 516.48,-22.5 507.34,-19.02"/>
<polygon fill="#63b8ff" stroke="#63b8ff" points="595.93,-146.25 602.28,-154.74 602.61,-144.15 595.93,-146.25"/>
</a>
</g>
</g>
<!-- Node9&#45;&gt;Node3 -->
<g id="edge9_Node000009_Node000003" class="edge">
<title>Node9&#45;&gt;Node3</title>
<g id="a_edge9_Node000009_Node000003"><a xlink:title=" ">
<path fill="none" stroke="#63b8ff" d="M70.89,-304.11C60.15,-302.24 49.68,-300.41 41.16,-298.93"/>
<polygon fill="#63b8ff" stroke="#63b8ff" points="70.33,-307.56 80.78,-305.83 71.53,-300.67 70.33,-307.56"/>
</a>
</g>
</g>
<!-- Node10&#45;&gt;Node3 -->
<g id="edge11_Node000010_Node000003" class="edge">
<title>Node10&#45;&gt;Node3</title>
<g id="a_edge11_Node000010_Node000003"><a xlink:title=" ">
<path fill="none" stroke="#63b8ff" d="M67.08,-287.55C57.68,-289.19 48.65,-290.77 41.14,-292.08"/>
<polygon fill="#63b8ff" stroke="#63b8ff" points="67.71,-291 76.96,-285.83 66.51,-284.1 67.71,-291"/>
</a>
</g>
</g>
<!-- Node11&#45;&gt;Node11 -->
<g id="edge18_Node000011_Node000011" class="edge">
<title>Node11&#45;&gt;Node11</title>
<g id="a_edge18_Node000011_Node000011"><a xlink:title=" ">
<path fill="none" stroke="#63b8ff" d="M489.31,-240.32C485.6,-244.9 477.66,-248 465.5,-248 445.54,-248 436.96,-239.65 439.77,-230.1"/>
<polygon fill="#63b8ff" stroke="#63b8ff" points="492.82,-240.57 491.23,-230.1 485.94,-239.28 492.82,-240.57"/>
</a>
</g>
</g>
<!-- Node12 -->
<g id="Node000012" class="node">
<title>Node12</title>
<g id="a_Node000012"><a xlink:href="namespaceanonymous__namespace_02problem_8cpp_03.html#ae1c2ae0af996a5319970525430250542" target="_top" xlink:title=" ">
<polygon fill="white" stroke="#666666" points="359.5,-230 224.5,-230 224.5,-189 359.5,-189 359.5,-230"/>
<text text-anchor="start" x="232.5" y="-218" font-family="Helvetica,sans-Serif" font-size="10.00">anonymous_namespace</text>
<text text-anchor="start" x="232.5" y="-207" font-family="Helvetica,sans-Serif" font-size="10.00">{problem::cpp}::load</text>
<text text-anchor="middle" x="292" y="-196" font-family="Helvetica,sans-Serif" font-size="10.00">_dl_problem</text>
</a>
</g>
</g>
<!-- Node11&#45;&gt;Node12 -->
<g id="edge14_Node000011_Node000012" class="edge">
<title>Node11&#45;&gt;Node12</title>
<g id="a_edge14_Node000011_Node000012"><a xlink:title=" ">
<path fill="none" stroke="#63b8ff" d="M387.64,-209.5C378.29,-209.5 368.8,-209.5 359.62,-209.5"/>
<polygon fill="#63b8ff" stroke="#63b8ff" points="387.7,-213 397.7,-209.5 387.7,-206 387.7,-213"/>
</a>
</g>
</g>
<!-- Node12&#45;&gt;Node12 -->
<g id="edge15_Node000012_Node000012" class="edge">
<title>Node12&#45;&gt;Node12</title>
<g id="a_edge15_Node000012_Node000012"><a xlink:title=" ">
<path fill="none" stroke="#63b8ff" d="M319.53,-239.96C315.43,-244.74 306.26,-248 292,-248 269.19,-248 259.39,-239.65 262.59,-230.1"/>
<polygon fill="#63b8ff" stroke="#63b8ff" points="322.97,-240.58 321.41,-230.1 316.1,-239.26 322.97,-240.58"/>
</a>
</g>
</g>
<!-- Node13 -->
<g id="Node000013" class="node">
<title>Node13</title>
<g id="a_Node000013"><a xlink:href="problem_8cpp.html#ae36fc572e3716fb2dbe8ff77cfe1ee10" target="_top" xlink:title=" ">
<polygon fill="white" stroke="#666666" points="173,-234 90,-234 90,-215 173,-215 173,-234"/>
<text text-anchor="middle" x="131.5" y="-222" font-family="Helvetica,sans-Serif" font-size="10.00">load_problem</text>
</a>
</g>
</g>
<!-- Node12&#45;&gt;Node13 -->
<g id="edge16_Node000012_Node000013" class="edge">
<title>Node12&#45;&gt;Node13</title>
<g id="a_edge16_Node000012_Node000013"><a xlink:title=" ">
<path fill="none" stroke="#63b8ff" d="M214.06,-216.78C200.02,-218.11 185.89,-219.45 173.42,-220.63"/>
<polygon fill="#63b8ff" stroke="#63b8ff" points="214.62,-220.24 224.24,-215.82 213.96,-213.28 214.62,-220.24"/>
</a>
</g>
</g>
<!-- Node13&#45;&gt;Node3 -->
<g id="edge17_Node000013_Node000003" class="edge">
<title>Node13&#45;&gt;Node3</title>
<g id="a_edge17_Node000013_Node000003"><a xlink:title=" ">
<path fill="none" stroke="#63b8ff" d="M106.33,-239.71C97.12,-245.54 86.55,-252.29 77,-258.5 62.83,-267.72 46.77,-278.46 35.59,-285.99"/>
<polygon fill="#63b8ff" stroke="#63b8ff" points="108.41,-242.53 114.99,-234.23 104.67,-236.61 108.41,-242.53"/>
</a>
</g>
</g>
<!-- Node15&#45;&gt;Node16 -->
<g id="edge21_Node000015_Node000016" class="edge">
<title>Node15&#45;&gt;Node16</title>
<g id="a_edge21_Node000015_Node000016"><a xlink:title=" ">
<path fill="none" stroke="#63b8ff" d="M403.87,-96.11C390.4,-98.46 376.02,-100.98 362.23,-103.39"/>
<polygon fill="#63b8ff" stroke="#63b8ff" points="404.72,-99.51 413.97,-94.34 403.52,-92.61 404.72,-99.51"/>
</a>
</g>
</g>
<!-- Node15&#45;&gt;Node17 -->
<g id="edge22_Node000015_Node000017" class="edge">
<title>Node15&#45;&gt;Node17</title>
<g id="a_edge22_Node000015_Node000017"><a xlink:title=" ">
<path fill="none" stroke="#63b8ff" d="M404.87,-74.03C390.81,-71.32 375.72,-68.42 361.31,-65.64"/>
<polygon fill="#63b8ff" stroke="#63b8ff" points="404.41,-77.5 414.9,-75.96 405.74,-70.63 404.41,-77.5"/>
</a>
</g>
</g>
</g>
</svg>
