<?xml version="1.0" encoding="UTF-8" standalone="no"?>
<!DOCTYPE svg PUBLIC "-//W3C//DTD SVG 1.1//EN"
 "http://www.w3.org/Graphics/SVG/1.1/DTD/svg11.dtd">
<!-- Generated by graphviz version 2.43.0 (0)
 -->
<!-- Title: src/alpaqa/include/alpaqa/inner/directions/panoc/noop.hpp Pages: 1 -->
<!--zoomable 489 -->

<svg id="main" version="1.1" xmlns="http://www.w3.org/2000/svg" xmlns:xlink="http://www.w3.org/1999/xlink" xml:space="preserve" onload="init(evt)">
<style type="text/css"><![CDATA[
.node, .edge {opacity: 0.7;}
.node.selected, .edge.selected {opacity: 1;}
.edge:hover path { stroke: red; }
.edge:hover polygon { stroke: red; fill: red; }
]]></style>

<defs>
  <circle id="rim" cx="0" cy="0" r="7"/>
  <circle id="rim2" cx="0" cy="0" r="3.5"/>
  <g id="zoomPlus">
    <use xlink:href="#rim" fill="#404040"><set attributeName="fill" to="#808080" begin="zoomplus.mouseover" end="zoomplus.mouseout"/></use>
    <path d="M-4,0h8M0,-4v8" fill="none" stroke="white" stroke-width="1.5" pointer-events="none"/>
  </g>
  <g id="zoomMin">
    <use xlink:href="#rim" fill="#404040"><set attributeName="fill" to="#808080" begin="zoomminus.mouseover" end="zoomminus.mouseout"/></use>
    <path d="M-4,0h8" fill="none" stroke="white" stroke-width="1.5" pointer-events="none"/>
  </g>
  <g id="arrowUp" transform="translate(30 24)">
    <use xlink:href="#rim"/>
    <path pointer-events="none" fill="none" stroke="white" stroke-width="1.5" d="M0,-3.0v7 M-2.5,-0.5L0,-3.0L2.5,-0.5"/>
  </g>
  <g id="arrowRight" transform="rotate(90) translate(36 -43)">
    <use xlink:href="#rim"/>
    <path pointer-events="none" fill="none" stroke="white" stroke-width="1.5" d="M0,-3.0v7 M-2.5,-0.5L0,-3.0L2.5,-0.5"/>
  </g>
  <g id="arrowDown" transform="rotate(180) translate(-30 -48)">
    <use xlink:href="#rim"/>
    <path pointer-events="none" fill="none" stroke="white" stroke-width="1.5" d="M0,-3.0v7 M-2.5,-0.5L0,-3.0L2.5,-0.5"/>
  </g>
  <g id="arrowLeft" transform="rotate(270) translate(-36 17)">
    <use xlink:href="#rim"/>
    <path pointer-events="none" fill="none" stroke="white" stroke-width="1.5" d="M0,-3.0v7 M-2.5,-0.5L0,-3.0L2.5,-0.5"/>
  </g>
  <g id="resetDef">
    <use xlink:href="#rim2" fill="#404040"><set attributeName="fill" to="#808080" begin="reset.mouseover" end="reset.mouseout"/></use>
  </g>
</defs>
<script type="application/ecmascript">
var viewWidth = 1930;
var viewHeight = 489;
var sectionId = 'dynsection-0';
</script>
<script type="application/ecmascript" xlink:href="svg.min.js"/>
<svg id="graph" class="graph">
<g id="viewport">
<title>src/alpaqa/include/alpaqa/inner/directions/panoc/noop.hpp</title>
<!-- Node1 -->
<g id="Node000001" class="node">
<title>Node1</title>
<g id="a_Node000001"><a xlink:title=" ">
<polygon fill="#999999" stroke="#666666" points="840,-481 709,-481 709,-440 840,-440 840,-481"/>
<text text-anchor="start" x="717" y="-469" font-family="Helvetica,sans-Serif" font-size="10.00">src/alpaqa/include</text>
<text text-anchor="start" x="717" y="-458" font-family="Helvetica,sans-Serif" font-size="10.00">/alpaqa/inner/directions</text>
<text text-anchor="middle" x="774.5" y="-447" font-family="Helvetica,sans-Serif" font-size="10.00">/panoc/noop.hpp</text>
</a>
</g>
</g>
<!-- Node2 -->
<g id="Node000002" class="node">
<title>Node2</title>
<g id="a_Node000002"><a xlink:href="panoc-direction-update_8hpp.html" target="_top" xlink:title=" ">
<polygon fill="white" stroke="#666666" points="799.5,-404 645.5,-404 645.5,-374 799.5,-374 799.5,-404"/>
<text text-anchor="start" x="653.5" y="-392" font-family="Helvetica,sans-Serif" font-size="10.00">alpaqa/inner/directions</text>
<text text-anchor="middle" x="722.5" y="-381" font-family="Helvetica,sans-Serif" font-size="10.00">/panoc&#45;direction&#45;update.hpp</text>
</a>
</g>
</g>
<!-- Node1&#45;&gt;Node2 -->
<g id="edge1_Node000001_Node000002" class="edge">
<title>Node1&#45;&gt;Node2</title>
<g id="a_edge1_Node000001_Node000002"><a xlink:title=" ">
<path fill="none" stroke="#63b8ff" d="M759.74,-439.77C753.28,-431.13 745.67,-420.96 739.02,-412.08"/>
<polygon fill="#63b8ff" stroke="#63b8ff" points="741.8,-409.95 733,-404.04 736.19,-414.14 741.8,-409.95"/>
</a>
</g>
</g>
<!-- Node9 -->
<g id="Node000009" class="node">
<title>Node9</title>
<g id="a_Node000009"><a xlink:href="type-erased-problem_8hpp.html" target="_top" xlink:title=" ">
<polygon fill="white" stroke="#666666" points="887,-338 768,-338 768,-308 887,-308 887,-338"/>
<text text-anchor="start" x="776" y="-326" font-family="Helvetica,sans-Serif" font-size="10.00">alpaqa/problem/type</text>
<text text-anchor="middle" x="827.5" y="-315" font-family="Helvetica,sans-Serif" font-size="10.00">&#45;erased&#45;problem.hpp</text>
</a>
</g>
</g>
<!-- Node1&#45;&gt;Node9 -->
<g id="edge63_Node000001_Node000009" class="edge">
<title>Node1&#45;&gt;Node9</title>
<g id="a_edge63_Node000001_Node000009"><a xlink:title=" ">
<path fill="none" stroke="#63b8ff" d="M788.71,-439.76C795.53,-429.51 803.33,-416.53 808.5,-404 815.93,-385.99 820.84,-364.44 823.8,-348.25"/>
<polygon fill="#63b8ff" stroke="#63b8ff" points="827.32,-348.45 825.55,-338 820.42,-347.27 827.32,-348.45"/>
</a>
</g>
</g>
<!-- Node3 -->
<g id="Node000003" class="node">
<title>Node3</title>
<g id="a_Node000003"><a xlink:href="config_8hpp.html" target="_top" xlink:title=" ">
<polygon fill="white" stroke="#666666" points="413,-145.5 278,-145.5 278,-126.5 413,-126.5 413,-145.5"/>
<text text-anchor="middle" x="345.5" y="-133.5" font-family="Helvetica,sans-Serif" font-size="10.00">alpaqa/config/config.hpp</text>
</a>
</g>
</g>
<!-- Node2&#45;&gt;Node3 -->
<g id="edge2_Node000002_Node000003" class="edge">
<title>Node2&#45;&gt;Node3</title>
<g id="a_edge2_Node000002_Node000003"><a xlink:title=" ">
<path fill="none" stroke="#63b8ff" d="M645.23,-385.3C561.89,-378.07 431.27,-353.43 357.5,-272 328.49,-239.98 334.92,-184.44 340.88,-155.59"/>
<polygon fill="#63b8ff" stroke="#63b8ff" points="344.34,-156.16 343.14,-145.63 337.51,-154.61 344.34,-156.16"/>
</a>
</g>
</g>
<!-- Node2&#45;&gt;Node9 -->
<g id="edge8_Node000002_Node000009" class="edge">
<title>Node2&#45;&gt;Node9</title>
<g id="a_edge8_Node000002_Node000009"><a xlink:title=" ">
<path fill="none" stroke="#63b8ff" d="M745.54,-373.95C760.31,-364.95 779.69,-353.14 795.89,-343.27"/>
<polygon fill="#63b8ff" stroke="#63b8ff" points="797.79,-346.21 804.51,-338.01 794.15,-340.23 797.79,-346.21"/>
</a>
</g>
</g>
<!-- Node4 -->
<g id="Node000004" class="node">
<title>Node4</title>
<g id="a_Node000004"><a xlink:href="quadmath-print_8hpp.html" target="_top" xlink:title=" ">
<polygon fill="white" stroke="#666666" points="543,-85 422,-85 422,-55 543,-55 543,-85"/>
<text text-anchor="start" x="430" y="-73" font-family="Helvetica,sans-Serif" font-size="10.00">alpaqa/util/quadmath</text>
<text text-anchor="middle" x="482.5" y="-62" font-family="Helvetica,sans-Serif" font-size="10.00">/quadmath&#45;print.hpp</text>
</a>
</g>
</g>
<!-- Node3&#45;&gt;Node4 -->
<g id="edge3_Node000003_Node000004" class="edge">
<title>Node3&#45;&gt;Node4</title>
<g id="a_edge3_Node000003_Node000004"><a xlink:title=" ">
<path fill="none" stroke="#63b8ff" d="M363.98,-126.37C384.14,-116.95 417.02,-101.59 443.04,-89.43"/>
<polygon fill="#63b8ff" stroke="#63b8ff" points="444.7,-92.52 452.28,-85.12 441.74,-86.18 444.7,-92.52"/>
</a>
</g>
</g>
<!-- Node5 -->
<g id="Node000005" class="node">
<title>Node5</title>
<g id="a_Node000005"><a xlink:href="quadmath_8hpp.html" target="_top" xlink:title=" ">
<polygon fill="white" stroke="#666666" points="263,-85 142,-85 142,-55 263,-55 263,-85"/>
<text text-anchor="start" x="150" y="-73" font-family="Helvetica,sans-Serif" font-size="10.00">alpaqa/util/quadmath</text>
<text text-anchor="middle" x="202.5" y="-62" font-family="Helvetica,sans-Serif" font-size="10.00">/quadmath.hpp</text>
</a>
</g>
</g>
<!-- Node3&#45;&gt;Node5 -->
<g id="edge4_Node000003_Node000005" class="edge">
<title>Node3&#45;&gt;Node5</title>
<g id="a_edge4_Node000003_Node000005"><a xlink:title=" ">
<path fill="none" stroke="#63b8ff" d="M326.21,-126.37C305.07,-116.91 270.54,-101.45 243.33,-89.27"/>
<polygon fill="#63b8ff" stroke="#63b8ff" points="244.6,-86.01 234.04,-85.12 241.74,-92.4 244.6,-86.01"/>
</a>
</g>
</g>
<!-- Node6 -->
<g id="Node000006" class="node">
<title>Node6</title>
<g id="a_Node000006"><a xlink:title=" ">
<polygon fill="#e0e0e0" stroke="#999999" points="325.5,-79.5 281.5,-79.5 281.5,-60.5 325.5,-60.5 325.5,-79.5"/>
<text text-anchor="middle" x="303.5" y="-67.5" font-family="Helvetica,sans-Serif" font-size="10.00">limits</text>
</a>
</g>
</g>
<!-- Node3&#45;&gt;Node6 -->
<g id="edge5_Node000003_Node000006" class="edge">
<title>Node3&#45;&gt;Node6</title>
<g id="a_edge5_Node000003_Node000006"><a xlink:title=" ">
<path fill="none" stroke="#63b8ff" d="M339.84,-126.37C333.48,-116.69 323.02,-100.74 314.94,-88.44"/>
<polygon fill="#63b8ff" stroke="#63b8ff" points="317.76,-86.35 309.34,-79.91 311.9,-90.19 317.76,-86.35"/>
</a>
</g>
</g>
<!-- Node7 -->
<g id="Node000007" class="node">
<title>Node7</title>
<g id="a_Node000007"><a xlink:title=" ">
<polygon fill="#e0e0e0" stroke="#999999" points="717,-79.5 648,-79.5 648,-60.5 717,-60.5 717,-79.5"/>
<text text-anchor="middle" x="682.5" y="-67.5" font-family="Helvetica,sans-Serif" font-size="10.00">type_traits</text>
</a>
</g>
</g>
<!-- Node3&#45;&gt;Node7 -->
<g id="edge6_Node000003_Node000007" class="edge">
<title>Node3&#45;&gt;Node7</title>
<g id="a_edge6_Node000003_Node000007"><a xlink:title=" ">
<path fill="none" stroke="#63b8ff" d="M410.91,-126.5C470.64,-118.1 561.16,-103.81 638.5,-85 641.52,-84.27 644.63,-83.43 647.74,-82.55"/>
<polygon fill="#63b8ff" stroke="#63b8ff" points="648.97,-85.83 657.54,-79.6 646.96,-79.13 648.97,-85.83"/>
</a>
</g>
</g>
<!-- Node8 -->
<g id="Node000008" class="node">
<title>Node8</title>
<g id="a_Node000008"><a xlink:title=" ">
<polygon fill="#e0e0e0" stroke="#999999" points="630,-79.5 561,-79.5 561,-60.5 630,-60.5 630,-79.5"/>
<text text-anchor="middle" x="595.5" y="-67.5" font-family="Helvetica,sans-Serif" font-size="10.00">Eigen/Core</text>
</a>
</g>
</g>
<!-- Node3&#45;&gt;Node8 -->
<g id="edge7_Node000003_Node000008" class="edge">
<title>Node3&#45;&gt;Node8</title>
<g id="a_edge7_Node000003_Node000008"><a xlink:title=" ">
<path fill="none" stroke="#63b8ff" d="M384.05,-126.49C425.6,-117.12 493.56,-101.23 551.5,-85 554.25,-84.23 557.09,-83.4 559.93,-82.55"/>
<polygon fill="#63b8ff" stroke="#63b8ff" points="561.01,-85.88 569.53,-79.59 558.95,-79.19 561.01,-85.88"/>
</a>
</g>
</g>
<!-- Node9&#45;&gt;Node3 -->
<g id="edge9_Node000009_Node000003" class="edge">
<title>Node9&#45;&gt;Node3</title>
<g id="a_edge9_Node000009_Node000003"><a xlink:title=" ">
<path fill="none" stroke="#63b8ff" d="M767.92,-318.96C653.61,-312.6 412.24,-296.42 383.5,-272 349.26,-242.91 344.64,-185.63 344.73,-155.9"/>
<polygon fill="#63b8ff" stroke="#63b8ff" points="348.23,-155.72 344.95,-145.65 341.23,-155.57 348.23,-155.72"/>
</a>
</g>
</g>
<!-- Node9&#45;&gt;Node7 -->
<g id="edge61_Node000009_Node000007" class="edge">
<title>Node9&#45;&gt;Node7</title>
<g id="a_edge61_Node000009_Node000007"><a xlink:title=" ">
<path fill="none" stroke="#63b8ff" d="M777.83,-307.96C690,-282.64 514.97,-229.77 498.5,-206 476.98,-174.95 475.35,-150.85 498.5,-121 537.87,-70.23 576.75,-102.75 638.5,-85 641.24,-84.21 644.08,-83.37 646.92,-82.51"/>
<polygon fill="#63b8ff" stroke="#63b8ff" points="648,-85.84 656.52,-79.53 645.93,-79.15 648,-85.84"/>
</a>
</g>
</g>
<!-- Node10 -->
<g id="Node000010" class="node">
<title>Node10</title>
<g id="a_Node000010"><a xlink:href="export_8hpp.html" target="_top" xlink:title=" ">
<polygon fill="white" stroke="#666666" points="986,-79.5 881,-79.5 881,-60.5 986,-60.5 986,-79.5"/>
<text text-anchor="middle" x="933.5" y="-67.5" font-family="Helvetica,sans-Serif" font-size="10.00">alpaqa/export.hpp</text>
</a>
</g>
</g>
<!-- Node9&#45;&gt;Node10 -->
<g id="edge10_Node000009_Node000010" class="edge">
<title>Node9&#45;&gt;Node10</title>
<g id="a_edge10_Node000009_Node000010"><a xlink:title=" ">
<path fill="none" stroke="#63b8ff" d="M832.13,-307.74C839.59,-282.13 851.58,-227.27 832.5,-187 821.68,-164.17 799.32,-173.83 788.5,-151 782.79,-138.95 780.76,-131.86 788.5,-121 807.25,-94.7 840.78,-82.1 870.88,-76.12"/>
<polygon fill="#63b8ff" stroke="#63b8ff" points="871.69,-79.53 880.93,-74.33 870.47,-72.64 871.69,-79.53"/>
</a>
</g>
</g>
<!-- Node12 -->
<g id="Node000012" class="node">
<title>Node12</title>
<g id="a_Node000012"><a xlink:href="box_8hpp.html" target="_top" xlink:title=" ">
<polygon fill="white" stroke="#666666" points="298,-206 163,-206 163,-187 298,-187 298,-206"/>
<text text-anchor="middle" x="230.5" y="-194" font-family="Helvetica,sans-Serif" font-size="10.00">alpaqa/problem/box.hpp</text>
</a>
</g>
</g>
<!-- Node9&#45;&gt;Node12 -->
<g id="edge12_Node000009_Node000012" class="edge">
<title>Node9&#45;&gt;Node12</title>
<g id="a_edge12_Node000009_Node000012"><a xlink:title=" ">
<path fill="none" stroke="#63b8ff" d="M767.58,-319.07C657.22,-313.12 426.22,-297.94 350.5,-272 310.97,-258.46 270.91,-229.94 248.53,-212.38"/>
<polygon fill="#63b8ff" stroke="#63b8ff" points="250.58,-209.55 240.59,-206.03 246.21,-215.01 250.58,-209.55"/>
</a>
</g>
</g>
<!-- Node17 -->
<g id="Node000017" class="node">
<title>Node17</title>
<g id="a_Node000017"><a xlink:href="sparsity_8hpp.html" target="_top" xlink:title=" ">
<polygon fill="white" stroke="#666666" points="663,-206 508,-206 508,-187 663,-187 663,-206"/>
<text text-anchor="middle" x="585.5" y="-194" font-family="Helvetica,sans-Serif" font-size="10.00">alpaqa/problem/sparsity.hpp</text>
</a>
</g>
</g>
<!-- Node9&#45;&gt;Node17 -->
<g id="edge20_Node000009_Node000017" class="edge">
<title>Node9&#45;&gt;Node17</title>
<g id="a_edge20_Node000009_Node000017"><a xlink:title=" ">
<path fill="none" stroke="#63b8ff" d="M800.21,-307.96C753.13,-283.74 657.26,-234.42 611.26,-210.75"/>
<polygon fill="#63b8ff" stroke="#63b8ff" points="612.73,-207.57 602.24,-206.11 609.53,-213.8 612.73,-207.57"/>
</a>
</g>
</g>
<!-- Node20 -->
<g id="Node000020" class="node">
<title>Node20</title>
<g id="a_Node000020"><a xlink:href="alloc-check_8hpp.html" target="_top" xlink:title=" ">
<polygon fill="white" stroke="#666666" points="540.5,-266.5 392.5,-266.5 392.5,-247.5 540.5,-247.5 540.5,-266.5"/>
<text text-anchor="middle" x="466.5" y="-254.5" font-family="Helvetica,sans-Serif" font-size="10.00">alpaqa/util/alloc&#45;check.hpp</text>
</a>
</g>
</g>
<!-- Node9&#45;&gt;Node20 -->
<g id="edge25_Node000009_Node000020" class="edge">
<title>Node9&#45;&gt;Node20</title>
<g id="a_edge25_Node000009_Node000020"><a xlink:title=" ">
<path fill="none" stroke="#63b8ff" d="M767.89,-311.43C700.46,-299.48 591.37,-280.14 524.58,-268.3"/>
<polygon fill="#63b8ff" stroke="#63b8ff" points="525.09,-264.83 514.64,-266.53 523.87,-271.73 525.09,-264.83"/>
</a>
</g>
</g>
<!-- Node21 -->
<g id="Node000021" class="node">
<title>Node21</title>
<g id="a_Node000021"><a xlink:href="check-dim_8hpp.html" target="_top" xlink:title=" ">
<polygon fill="white" stroke="#666666" points="824,-206 681,-206 681,-187 824,-187 824,-206"/>
<text text-anchor="middle" x="752.5" y="-194" font-family="Helvetica,sans-Serif" font-size="10.00">alpaqa/util/check&#45;dim.hpp</text>
</a>
</g>
</g>
<!-- Node9&#45;&gt;Node21 -->
<g id="edge27_Node000009_Node000021" class="edge">
<title>Node9&#45;&gt;Node21</title>
<g id="a_edge27_Node000009_Node000021"><a xlink:title=" ">
<path fill="none" stroke="#63b8ff" d="M818.9,-307.72C805.04,-284.71 777.82,-239.53 762.9,-214.76"/>
<polygon fill="#63b8ff" stroke="#63b8ff" points="765.82,-212.83 757.66,-206.07 759.82,-216.44 765.82,-212.83"/>
</a>
</g>
</g>
<!-- Node23 -->
<g id="Node000023" class="node">
<title>Node23</title>
<g id="a_Node000023"><a xlink:title=" ">
<polygon fill="#e0e0e0" stroke="#999999" points="863,-145.5 798,-145.5 798,-126.5 863,-126.5 863,-145.5"/>
<text text-anchor="middle" x="830.5" y="-133.5" font-family="Helvetica,sans-Serif" font-size="10.00">stdexcept</text>
</a>
</g>
</g>
<!-- Node9&#45;&gt;Node23 -->
<g id="edge60_Node000009_Node000023" class="edge">
<title>Node9&#45;&gt;Node23</title>
<g id="a_edge60_Node000009_Node000023"><a xlink:title=" ">
<path fill="none" stroke="#63b8ff" d="M842.76,-307.84C851.55,-298.61 861.77,-285.74 866.5,-272 878.78,-236.28 878.1,-222.95 866.5,-187 862.43,-174.37 853.85,-162.25 846.09,-153.1"/>
<polygon fill="#63b8ff" stroke="#63b8ff" points="848.64,-150.69 839.35,-145.6 843.43,-155.38 848.64,-150.69"/>
</a>
</g>
</g>
<!-- Node25 -->
<g id="Node000025" class="node">
<title>Node25</title>
<g id="a_Node000025"><a xlink:href="not-implemented_8hpp.html" target="_top" xlink:title=" ">
<polygon fill="white" stroke="#666666" points="1095,-206 918,-206 918,-187 1095,-187 1095,-206"/>
<text text-anchor="middle" x="1006.5" y="-194" font-family="Helvetica,sans-Serif" font-size="10.00">alpaqa/util/not&#45;implemented.hpp</text>
</a>
</g>
</g>
<!-- Node9&#45;&gt;Node25 -->
<g id="edge32_Node000009_Node000025" class="edge">
<title>Node9&#45;&gt;Node25</title>
<g id="a_edge32_Node000009_Node000025"><a xlink:title=" ">
<path fill="none" stroke="#63b8ff" d="M849.95,-307.88C865.43,-298.04 886.39,-284.48 904.5,-272 933.6,-251.95 966.48,-227.62 986.85,-212.34"/>
<polygon fill="#63b8ff" stroke="#63b8ff" points="989.13,-215.01 995.02,-206.2 984.93,-209.41 989.13,-215.01"/>
</a>
</g>
</g>
<!-- Node26 -->
<g id="Node000026" class="node">
<title>Node26</title>
<g id="a_Node000026"><a xlink:href="required-method_8hpp.html" target="_top" xlink:title=" ">
<polygon fill="white" stroke="#666666" points="1303.5,-272 1191.5,-272 1191.5,-242 1303.5,-242 1303.5,-272"/>
<text text-anchor="start" x="1199.5" y="-260" font-family="Helvetica,sans-Serif" font-size="10.00">alpaqa/util/required</text>
<text text-anchor="middle" x="1247.5" y="-249" font-family="Helvetica,sans-Serif" font-size="10.00">&#45;method.hpp</text>
</a>
</g>
</g>
<!-- Node9&#45;&gt;Node26 -->
<g id="edge35_Node000009_Node000026" class="edge">
<title>Node9&#45;&gt;Node26</title>
<g id="a_edge35_Node000009_Node000026"><a xlink:title=" ">
<path fill="none" stroke="#63b8ff" d="M887.23,-312.9C964.98,-301.05 1100.45,-280.41 1181.27,-268.09"/>
<polygon fill="#63b8ff" stroke="#63b8ff" points="1181.97,-271.53 1191.33,-266.56 1180.92,-264.61 1181.97,-271.53"/>
</a>
</g>
</g>
<!-- Node27 -->
<g id="Node000027" class="node">
<title>Node27</title>
<g id="a_Node000027"><a xlink:href="type-erasure_8hpp.html" target="_top" xlink:title=" ">
<polygon fill="white" stroke="#666666" points="1334,-206 1179,-206 1179,-187 1334,-187 1334,-206"/>
<text text-anchor="middle" x="1256.5" y="-194" font-family="Helvetica,sans-Serif" font-size="10.00">alpaqa/util/type&#45;erasure.hpp</text>
</a>
</g>
</g>
<!-- Node9&#45;&gt;Node27 -->
<g id="edge58_Node000009_Node000027" class="edge">
<title>Node9&#45;&gt;Node27</title>
<g id="a_edge58_Node000009_Node000027"><a xlink:title=" ">
<path fill="none" stroke="#63b8ff" d="M875.88,-307.96C961.55,-283.1 1138.3,-231.8 1217.1,-208.94"/>
<polygon fill="#63b8ff" stroke="#63b8ff" points="1218.47,-212.18 1227.1,-206.03 1216.52,-205.46 1218.47,-212.18"/>
</a>
</g>
</g>
<!-- Node37 -->
<g id="Node000037" class="node">
<title>Node37</title>
<g id="a_Node000037"><a xlink:title=" ">
<polygon fill="#e0e0e0" stroke="#999999" points="1922,-145.5 1877,-145.5 1877,-126.5 1922,-126.5 1922,-145.5"/>
<text text-anchor="middle" x="1899.5" y="-133.5" font-family="Helvetica,sans-Serif" font-size="10.00">utility</text>
</a>
</g>
</g>
<!-- Node9&#45;&gt;Node37 -->
<g id="edge62_Node000009_Node000037" class="edge">
<title>Node9&#45;&gt;Node37</title>
<g id="a_edge62_Node000009_Node000037"><a xlink:title=" ">
<path fill="none" stroke="#63b8ff" d="M887.21,-319.6C989.03,-314.83 1202.49,-301.94 1380.5,-272 1600.86,-234.94 1657.36,-224.17 1868.5,-151 1869.89,-150.52 1871.31,-149.99 1872.74,-149.44"/>
<polygon fill="#63b8ff" stroke="#63b8ff" points="1874.15,-152.65 1882.02,-145.56 1871.44,-146.19 1874.15,-152.65"/>
</a>
</g>
</g>
<!-- Node38 -->
<g id="Node000038" class="node">
<title>Node38</title>
<g id="a_Node000038"><a xlink:title=" ">
<polygon fill="#e0e0e0" stroke="#999999" points="1371.5,-266.5 1321.5,-266.5 1321.5,-247.5 1371.5,-247.5 1371.5,-266.5"/>
<text text-anchor="middle" x="1346.5" y="-254.5" font-family="Helvetica,sans-Serif" font-size="10.00">chrono</text>
</a>
</g>
</g>
<!-- Node9&#45;&gt;Node38 -->
<g id="edge59_Node000009_Node000038" class="edge">
<title>Node9&#45;&gt;Node38</title>
<g id="a_edge59_Node000009_Node000038"><a xlink:title=" ">
<path fill="none" stroke="#63b8ff" d="M887.06,-321.34C979.49,-319.1 1162.49,-309.77 1312.5,-272 1314.66,-271.46 1316.87,-270.8 1319.07,-270.07"/>
<polygon fill="#63b8ff" stroke="#63b8ff" points="1320.34,-273.33 1328.48,-266.55 1317.88,-266.78 1320.34,-273.33"/>
</a>
</g>
</g>
<!-- Node11 -->
<g id="Node000011" class="node">
<title>Node11</title>
<g id="a_Node000011"><a xlink:title=" ">
<polygon fill="#e0e0e0" stroke="#999999" points="1058,-19 965,-19 965,0 1058,0 1058,-19"/>
<text text-anchor="middle" x="1011.5" y="-7" font-family="Helvetica,sans-Serif" font-size="10.00">alpaqa/export.h</text>
</a>
</g>
</g>
<!-- Node10&#45;&gt;Node11 -->
<g id="edge11_Node000010_Node000011" class="edge">
<title>Node10&#45;&gt;Node11</title>
<g id="a_edge11_Node000010_Node000011"><a xlink:title=" ">
<path fill="none" stroke="#63b8ff" d="M945.01,-60.37C957.34,-51.12 977.12,-36.28 991.91,-25.19"/>
<polygon fill="#63b8ff" stroke="#63b8ff" points="994.04,-27.97 999.94,-19.17 989.84,-22.37 994.04,-27.97"/>
</a>
</g>
</g>
<!-- Node12&#45;&gt;Node3 -->
<g id="edge13_Node000012_Node000003" class="edge">
<title>Node12&#45;&gt;Node3</title>
<g id="a_edge13_Node000012_Node000003"><a xlink:title=" ">
<path fill="none" stroke="#63b8ff" d="M247.47,-186.87C266.41,-177.23 297.29,-161.53 319.33,-150.31"/>
<polygon fill="#63b8ff" stroke="#63b8ff" points="321.14,-153.32 328.46,-145.67 317.96,-147.08 321.14,-153.32"/>
</a>
</g>
</g>
<!-- Node13 -->
<g id="Node000013" class="node">
<title>Node13</title>
<g id="a_Node000013"><a xlink:href="float_8hpp.html" target="_top" xlink:title=" ">
<polygon fill="white" stroke="#666666" points="259.5,-145.5 145.5,-145.5 145.5,-126.5 259.5,-126.5 259.5,-145.5"/>
<text text-anchor="middle" x="202.5" y="-133.5" font-family="Helvetica,sans-Serif" font-size="10.00">alpaqa/util/float.hpp</text>
</a>
</g>
</g>
<!-- Node12&#45;&gt;Node13 -->
<g id="edge14_Node000012_Node000013" class="edge">
<title>Node12&#45;&gt;Node13</title>
<g id="a_edge14_Node000012_Node000013"><a xlink:title=" ">
<path fill="none" stroke="#63b8ff" d="M226.37,-186.87C222.36,-178.49 216.15,-165.51 211.06,-154.89"/>
<polygon fill="#63b8ff" stroke="#63b8ff" points="214.12,-153.18 206.65,-145.67 207.81,-156.2 214.12,-153.18"/>
</a>
</g>
</g>
<!-- Node13&#45;&gt;Node5 -->
<g id="edge15_Node000013_Node000005" class="edge">
<title>Node13&#45;&gt;Node5</title>
<g id="a_edge15_Node000013_Node000005"><a xlink:title=" ">
<path fill="none" stroke="#63b8ff" d="M202.5,-126.37C202.5,-118.49 202.5,-106.45 202.5,-95.6"/>
<polygon fill="#63b8ff" stroke="#63b8ff" points="206,-95.36 202.5,-85.36 199,-95.36 206,-95.36"/>
</a>
</g>
</g>
<!-- Node13&#45;&gt;Node7 -->
<g id="edge19_Node000013_Node000007" class="edge">
<title>Node13&#45;&gt;Node7</title>
<g id="a_edge19_Node000013_Node000007"><a xlink:title=" ">
<path fill="none" stroke="#63b8ff" d="M239.02,-126.49C248.58,-124.47 258.89,-122.48 268.5,-121 431.79,-95.82 476.66,-118.23 638.5,-85 641.9,-84.3 645.41,-83.44 648.9,-82.49"/>
<polygon fill="#63b8ff" stroke="#63b8ff" points="649.94,-85.83 658.54,-79.63 647.95,-79.12 649.94,-85.83"/>
</a>
</g>
</g>
<!-- Node14 -->
<g id="Node000014" class="node">
<title>Node14</title>
<g id="a_Node000014"><a xlink:title=" ">
<polygon fill="#e0e0e0" stroke="#999999" points="47,-79.5 0,-79.5 0,-60.5 47,-60.5 47,-79.5"/>
<text text-anchor="middle" x="23.5" y="-67.5" font-family="Helvetica,sans-Serif" font-size="10.00">cmath</text>
</a>
</g>
</g>
<!-- Node13&#45;&gt;Node14 -->
<g id="edge16_Node000013_Node000014" class="edge">
<title>Node13&#45;&gt;Node14</title>
<g id="a_edge16_Node000013_Node000014"><a xlink:title=" ">
<path fill="none" stroke="#63b8ff" d="M175.16,-126.46C145.45,-117.01 96.72,-100.99 55.5,-85 54.29,-84.53 53.06,-84.04 51.82,-83.54"/>
<polygon fill="#63b8ff" stroke="#63b8ff" points="52.92,-80.21 42.34,-79.56 50.2,-86.66 52.92,-80.21"/>
</a>
</g>
</g>
<!-- Node15 -->
<g id="Node000015" class="node">
<title>Node15</title>
<g id="a_Node000015"><a xlink:title=" ">
<polygon fill="#e0e0e0" stroke="#999999" points="124,-79.5 65,-79.5 65,-60.5 124,-60.5 124,-79.5"/>
<text text-anchor="middle" x="94.5" y="-67.5" font-family="Helvetica,sans-Serif" font-size="10.00">complex</text>
</a>
</g>
</g>
<!-- Node13&#45;&gt;Node15 -->
<g id="edge17_Node000013_Node000015" class="edge">
<title>Node13&#45;&gt;Node15</title>
<g id="a_edge17_Node000013_Node000015"><a xlink:title=" ">
<path fill="none" stroke="#63b8ff" d="M187.93,-126.37C169.98,-115.73 139.23,-97.51 117.94,-84.89"/>
<polygon fill="#63b8ff" stroke="#63b8ff" points="119.57,-81.79 109.18,-79.7 116,-87.81 119.57,-81.79"/>
</a>
</g>
</g>
<!-- Node16 -->
<g id="Node000016" class="node">
<title>Node16</title>
<g id="a_Node000016"><a xlink:title=" ">
<polygon fill="#e0e0e0" stroke="#999999" points="403.5,-79.5 343.5,-79.5 343.5,-60.5 403.5,-60.5 403.5,-79.5"/>
<text text-anchor="middle" x="373.5" y="-67.5" font-family="Helvetica,sans-Serif" font-size="10.00">concepts</text>
</a>
</g>
</g>
<!-- Node13&#45;&gt;Node16 -->
<g id="edge18_Node000013_Node000016" class="edge">
<title>Node13&#45;&gt;Node16</title>
<g id="a_edge18_Node000013_Node000016"><a xlink:title=" ">
<path fill="none" stroke="#63b8ff" d="M225.56,-126.37C255.35,-115.22 307.37,-95.75 341.11,-83.12"/>
<polygon fill="#63b8ff" stroke="#63b8ff" points="342.39,-86.38 350.53,-79.6 339.94,-79.82 342.39,-86.38"/>
</a>
</g>
</g>
<!-- Node17&#45;&gt;Node3 -->
<g id="edge21_Node000017_Node000003" class="edge">
<title>Node17&#45;&gt;Node3</title>
<g id="a_edge21_Node000017_Node000003"><a xlink:title=" ">
<path fill="none" stroke="#63b8ff" d="M550.6,-186.99C508.21,-176.66 436.63,-159.21 390.23,-147.9"/>
<polygon fill="#63b8ff" stroke="#63b8ff" points="390.98,-144.48 380.44,-145.52 389.33,-151.29 390.98,-144.48"/>
</a>
</g>
</g>
<!-- Node17&#45;&gt;Node10 -->
<g id="edge22_Node000017_Node000010" class="edge">
<title>Node17&#45;&gt;Node10</title>
<g id="a_edge22_Node000017_Node000010"><a xlink:title=" ">
<path fill="none" stroke="#63b8ff" d="M585.15,-186.82C585.04,-171.1 587.27,-138 606.5,-121 625.97,-103.79 781.41,-85.92 870.79,-76.92"/>
<polygon fill="#63b8ff" stroke="#63b8ff" points="871.22,-80.4 880.82,-75.93 870.52,-73.43 871.22,-80.4"/>
</a>
</g>
</g>
<!-- Node18 -->
<g id="Node000018" class="node">
<title>Node18</title>
<g id="a_Node000018"><a xlink:title=" ">
<polygon fill="#e0e0e0" stroke="#999999" points="667.5,-145.5 615.5,-145.5 615.5,-126.5 667.5,-126.5 667.5,-145.5"/>
<text text-anchor="middle" x="641.5" y="-133.5" font-family="Helvetica,sans-Serif" font-size="10.00">cassert</text>
</a>
</g>
</g>
<!-- Node17&#45;&gt;Node18 -->
<g id="edge23_Node000017_Node000018" class="edge">
<title>Node17&#45;&gt;Node18</title>
<g id="a_edge23_Node000017_Node000018"><a xlink:title=" ">
<path fill="none" stroke="#63b8ff" d="M593.76,-186.87C602.28,-177.97 615.76,-163.89 626.23,-152.95"/>
<polygon fill="#63b8ff" stroke="#63b8ff" points="628.82,-155.31 633.2,-145.67 623.76,-150.47 628.82,-155.31"/>
</a>
</g>
</g>
<!-- Node19 -->
<g id="Node000019" class="node">
<title>Node19</title>
<g id="a_Node000019"><a xlink:title=" ">
<polygon fill="#e0e0e0" stroke="#999999" points="559,-145.5 508,-145.5 508,-126.5 559,-126.5 559,-145.5"/>
<text text-anchor="middle" x="533.5" y="-133.5" font-family="Helvetica,sans-Serif" font-size="10.00">variant</text>
</a>
</g>
</g>
<!-- Node17&#45;&gt;Node19 -->
<g id="edge24_Node000017_Node000019" class="edge">
<title>Node17&#45;&gt;Node19</title>
<g id="a_edge24_Node000017_Node000019"><a xlink:title=" ">
<path fill="none" stroke="#63b8ff" d="M577.83,-186.87C569.99,-178.05 557.64,-164.16 547.96,-153.27"/>
<polygon fill="#63b8ff" stroke="#63b8ff" points="550.46,-150.82 541.2,-145.67 545.23,-155.47 550.46,-150.82"/>
</a>
</g>
</g>
<!-- Node20&#45;&gt;Node8 -->
<g id="edge26_Node000020_Node000008" class="edge">
<title>Node20&#45;&gt;Node8</title>
<g id="a_edge26_Node000020_Node000008"><a xlink:title=" ">
<path fill="none" stroke="#63b8ff" d="M463.39,-247.45C455.64,-224.58 438.03,-160.99 465.5,-121 471.08,-112.87 522.36,-94.79 558.81,-82.75"/>
<polygon fill="#63b8ff" stroke="#63b8ff" points="560.24,-85.97 568.65,-79.53 558.06,-79.31 560.24,-85.97"/>
</a>
</g>
</g>
<!-- Node21&#45;&gt;Node3 -->
<g id="edge28_Node000021_Node000003" class="edge">
<title>Node21&#45;&gt;Node3</title>
<g id="a_edge28_Node000021_Node000003"><a xlink:title=" ">
<path fill="none" stroke="#63b8ff" d="M693.32,-186.99C619.47,-176.38 493.38,-158.26 415.01,-146.99"/>
<polygon fill="#63b8ff" stroke="#63b8ff" points="415.15,-143.48 404.75,-145.52 414.15,-150.4 415.15,-143.48"/>
</a>
</g>
</g>
<!-- Node22 -->
<g id="Node000022" class="node">
<title>Node22</title>
<g id="a_Node000022"><a xlink:title=" ">
<polygon fill="#e0e0e0" stroke="#999999" points="741.5,-145.5 685.5,-145.5 685.5,-126.5 741.5,-126.5 741.5,-145.5"/>
<text text-anchor="middle" x="713.5" y="-133.5" font-family="Helvetica,sans-Serif" font-size="10.00">optional</text>
</a>
</g>
</g>
<!-- Node21&#45;&gt;Node22 -->
<g id="edge29_Node000021_Node000022" class="edge">
<title>Node21&#45;&gt;Node22</title>
<g id="a_edge29_Node000021_Node000022"><a xlink:title=" ">
<path fill="none" stroke="#63b8ff" d="M746.75,-186.87C741.04,-178.31 732.15,-164.97 724.99,-154.24"/>
<polygon fill="#63b8ff" stroke="#63b8ff" points="727.74,-152.05 719.28,-145.67 721.91,-155.93 727.74,-152.05"/>
</a>
</g>
</g>
<!-- Node21&#45;&gt;Node23 -->
<g id="edge30_Node000021_Node000023" class="edge">
<title>Node21&#45;&gt;Node23</title>
<g id="a_edge30_Node000021_Node000023"><a xlink:title=" ">
<path fill="none" stroke="#63b8ff" d="M764.01,-186.87C776.34,-177.62 796.12,-162.78 810.91,-151.69"/>
<polygon fill="#63b8ff" stroke="#63b8ff" points="813.04,-154.47 818.94,-145.67 808.84,-148.87 813.04,-154.47"/>
</a>
</g>
</g>
<!-- Node24 -->
<g id="Node000024" class="node">
<title>Node24</title>
<g id="a_Node000024"><a xlink:title=" ">
<polygon fill="#e0e0e0" stroke="#999999" points="1440.5,-79.5 1396.5,-79.5 1396.5,-60.5 1440.5,-60.5 1440.5,-79.5"/>
<text text-anchor="middle" x="1418.5" y="-67.5" font-family="Helvetica,sans-Serif" font-size="10.00">string</text>
</a>
</g>
</g>
<!-- Node21&#45;&gt;Node24 -->
<g id="edge31_Node000021_Node000024" class="edge">
<title>Node21&#45;&gt;Node24</title>
<g id="a_edge31_Node000021_Node000024"><a xlink:title=" ">
<path fill="none" stroke="#63b8ff" d="M811.57,-186.98C868.53,-178.58 957.1,-164.98 1033.5,-151 1165.13,-126.92 1320.9,-92.81 1386.67,-78.15"/>
<polygon fill="#63b8ff" stroke="#63b8ff" points="1387.44,-81.57 1396.44,-75.97 1385.91,-74.73 1387.44,-81.57"/>
</a>
</g>
</g>
<!-- Node25&#45;&gt;Node11 -->
<g id="edge33_Node000025_Node000011" class="edge">
<title>Node25&#45;&gt;Node11</title>
<g id="a_edge33_Node000025_Node000011"><a xlink:title=" ">
<path fill="none" stroke="#63b8ff" d="M1013.9,-186.81C1028.44,-169.1 1060.29,-126.93 1071.5,-85 1074.94,-72.12 1077.49,-66.91 1071.5,-55 1064.81,-41.71 1052.06,-31.39 1040.03,-24.05"/>
<polygon fill="#63b8ff" stroke="#63b8ff" points="1041.51,-20.87 1031.08,-19.02 1038.08,-26.97 1041.51,-20.87"/>
</a>
</g>
</g>
<!-- Node25&#45;&gt;Node23 -->
<g id="edge34_Node000025_Node000023" class="edge">
<title>Node25&#45;&gt;Node23</title>
<g id="a_edge34_Node000025_Node000023"><a xlink:title=" ">
<path fill="none" stroke="#63b8ff" d="M980.34,-186.97C953.12,-178.07 909.28,-163.68 871.5,-151 869.41,-150.3 867.27,-149.58 865.11,-148.85"/>
<polygon fill="#63b8ff" stroke="#63b8ff" points="866.23,-145.53 855.64,-145.63 863.98,-152.16 866.23,-145.53"/>
</a>
</g>
</g>
<!-- Node26&#45;&gt;Node27 -->
<g id="edge36_Node000026_Node000027" class="edge">
<title>Node26&#45;&gt;Node27</title>
<g id="a_edge36_Node000026_Node000027"><a xlink:title=" ">
<path fill="none" stroke="#63b8ff" d="M1249.68,-241.84C1250.87,-234.13 1252.35,-224.49 1253.63,-216.17"/>
<polygon fill="#63b8ff" stroke="#63b8ff" points="1257.09,-216.68 1255.15,-206.27 1250.17,-215.62 1257.09,-216.68"/>
</a>
</g>
</g>
<!-- Node35 -->
<g id="Node000035" class="node">
<title>Node35</title>
<g id="a_Node000035"><a xlink:title=" ">
<polygon fill="#e0e0e0" stroke="#999999" points="1859,-145.5 1794,-145.5 1794,-126.5 1859,-126.5 1859,-145.5"/>
<text text-anchor="middle" x="1826.5" y="-133.5" font-family="Helvetica,sans-Serif" font-size="10.00">functional</text>
</a>
</g>
</g>
<!-- Node26&#45;&gt;Node35 -->
<g id="edge57_Node000026_Node000035" class="edge">
<title>Node26&#45;&gt;Node35</title>
<g id="a_edge57_Node000026_Node000035"><a xlink:title=" ">
<path fill="none" stroke="#63b8ff" d="M1274.1,-241.99C1306.03,-225.86 1361.65,-199.94 1412.5,-187 1564.48,-148.33 1608.7,-176.05 1763.5,-151 1770.19,-149.92 1777.23,-148.57 1784.09,-147.13"/>
<polygon fill="#63b8ff" stroke="#63b8ff" points="1784.91,-150.53 1793.94,-144.99 1783.43,-143.69 1784.91,-150.53"/>
</a>
</g>
</g>
<!-- Node27&#45;&gt;Node7 -->
<g id="edge54_Node000027_Node000007" class="edge">
<title>Node27&#45;&gt;Node7</title>
<g id="a_edge54_Node000027_Node000007"><a xlink:title=" ">
<path fill="none" stroke="#63b8ff" d="M1181.7,-186.94C1145.38,-180.6 1102.04,-169.68 1066.5,-151 1048.95,-141.78 1051.44,-129.44 1033.5,-121 980.02,-95.84 809.26,-80.29 727.27,-74.09"/>
<polygon fill="#63b8ff" stroke="#63b8ff" points="727.49,-70.6 717.25,-73.35 726.97,-77.58 727.49,-70.6"/>
</a>
</g>
</g>
<!-- Node27&#45;&gt;Node10 -->
<g id="edge37_Node000027_Node000010" class="edge">
<title>Node27&#45;&gt;Node10</title>
<g id="a_edge37_Node000027_Node000010"><a xlink:title=" ">
<path fill="none" stroke="#63b8ff" d="M1234.88,-186.91C1199.67,-172.94 1127.69,-144.5 1066.5,-121 1032.4,-107.91 993.25,-93.23 966.3,-83.18"/>
<polygon fill="#63b8ff" stroke="#63b8ff" points="967.2,-79.78 956.6,-79.57 964.75,-86.34 967.2,-79.78"/>
</a>
</g>
</g>
<!-- Node27&#45;&gt;Node18 -->
<g id="edge48_Node000027_Node000018" class="edge">
<title>Node27&#45;&gt;Node18</title>
<g id="a_edge48_Node000027_Node000018"><a xlink:title=" ">
<path fill="none" stroke="#63b8ff" d="M1178.75,-190.85C1031.9,-181.88 724.15,-162.08 676.5,-151 674.19,-150.46 671.83,-149.8 669.48,-149.05"/>
<polygon fill="#63b8ff" stroke="#63b8ff" points="670.65,-145.75 660.05,-145.63 668.26,-152.33 670.65,-145.75"/>
</a>
</g>
</g>
<!-- Node27&#45;&gt;Node23 -->
<g id="edge53_Node000027_Node000023" class="edge">
<title>Node27&#45;&gt;Node23</title>
<g id="a_edge53_Node000027_Node000023"><a xlink:title=" ">
<path fill="none" stroke="#63b8ff" d="M1178.99,-191.42C1100.65,-186.17 976.51,-174.71 871.5,-151 868.51,-150.33 865.44,-149.51 862.39,-148.62"/>
<polygon fill="#63b8ff" stroke="#63b8ff" points="863.4,-145.27 852.81,-145.58 861.28,-151.94 863.4,-145.27"/>
</a>
</g>
</g>
<!-- Node28 -->
<g id="Node000028" class="node">
<title>Node28</title>
<g id="a_Node000028"><a xlink:href="demangled-typename_8hpp.html" target="_top" xlink:title=" ">
<polygon fill="white" stroke="#666666" points="1737.5,-151 1611.5,-151 1611.5,-121 1737.5,-121 1737.5,-151"/>
<text text-anchor="start" x="1619.5" y="-139" font-family="Helvetica,sans-Serif" font-size="10.00">alpaqa/util/demangled</text>
<text text-anchor="middle" x="1674.5" y="-128" font-family="Helvetica,sans-Serif" font-size="10.00">&#45;typename.hpp</text>
</a>
</g>
</g>
<!-- Node27&#45;&gt;Node28 -->
<g id="edge38_Node000027_Node000028" class="edge">
<title>Node27&#45;&gt;Node28</title>
<g id="a_edge38_Node000027_Node000028"><a xlink:title=" ">
<path fill="none" stroke="#63b8ff" d="M1334,-186.97C1401.93,-179.17 1503.55,-166.7 1601.27,-151.14"/>
<polygon fill="#63b8ff" stroke="#63b8ff" points="1602.01,-154.56 1611.32,-149.52 1600.9,-147.65 1602.01,-154.56"/>
</a>
</g>
</g>
<!-- Node29 -->
<g id="Node000029" class="node">
<title>Node29</title>
<g id="a_Node000029"><a xlink:title=" ">
<polygon fill="#e0e0e0" stroke="#999999" points="1748,-79.5 1691,-79.5 1691,-60.5 1748,-60.5 1748,-79.5"/>
<text text-anchor="middle" x="1719.5" y="-67.5" font-family="Helvetica,sans-Serif" font-size="10.00">typeinfo</text>
</a>
</g>
</g>
<!-- Node27&#45;&gt;Node29 -->
<g id="edge55_Node000027_Node000029" class="edge">
<title>Node27&#45;&gt;Node29</title>
<g id="a_edge55_Node000027_Node000029"><a xlink:title=" ">
<path fill="none" stroke="#63b8ff" d="M1334.02,-189.12C1471.28,-177.74 1743.06,-154.77 1746.5,-151 1762.66,-133.3 1747.17,-105.58 1733.86,-87.85"/>
<polygon fill="#63b8ff" stroke="#63b8ff" points="1736.25,-85.24 1727.28,-79.6 1730.78,-89.6 1736.25,-85.24"/>
</a>
</g>
</g>
<!-- Node30 -->
<g id="Node000030" class="node">
<title>Node30</title>
<g id="a_Node000030"><a xlink:href="noop-delete_8hpp.html" target="_top" xlink:title=" ">
<polygon fill="white" stroke="#666666" points="1384,-145.5 1233,-145.5 1233,-126.5 1384,-126.5 1384,-145.5"/>
<text text-anchor="middle" x="1308.5" y="-133.5" font-family="Helvetica,sans-Serif" font-size="10.00">alpaqa/util/noop&#45;delete.hpp</text>
</a>
</g>
</g>
<!-- Node27&#45;&gt;Node30 -->
<g id="edge42_Node000027_Node000030" class="edge">
<title>Node27&#45;&gt;Node30</title>
<g id="a_edge42_Node000027_Node000030"><a xlink:title=" ">
<path fill="none" stroke="#63b8ff" d="M1264.17,-186.87C1272.01,-178.05 1284.36,-164.16 1294.04,-153.27"/>
<polygon fill="#63b8ff" stroke="#63b8ff" points="1296.77,-155.47 1300.8,-145.67 1291.54,-150.82 1296.77,-155.47"/>
</a>
</g>
</g>
<!-- Node31 -->
<g id="Node000031" class="node">
<title>Node31</title>
<g id="a_Node000031"><a xlink:href="type-traits_8hpp.html" target="_top" xlink:title=" ">
<polygon fill="white" stroke="#666666" points="1024,-145.5 881,-145.5 881,-126.5 1024,-126.5 1024,-145.5"/>
<text text-anchor="middle" x="952.5" y="-133.5" font-family="Helvetica,sans-Serif" font-size="10.00">alpaqa/util/type&#45;traits.hpp</text>
</a>
</g>
</g>
<!-- Node27&#45;&gt;Node31 -->
<g id="edge43_Node000027_Node000031" class="edge">
<title>Node27&#45;&gt;Node31</title>
<g id="a_edge43_Node000027_Node000031"><a xlink:title=" ">
<path fill="none" stroke="#63b8ff" d="M1212.3,-186.99C1157.81,-176.51 1065.26,-158.7 1006.59,-147.41"/>
<polygon fill="#63b8ff" stroke="#63b8ff" points="1007.24,-143.97 996.76,-145.52 1005.92,-150.84 1007.24,-143.97"/>
</a>
</g>
</g>
<!-- Node32 -->
<g id="Node000032" class="node">
<title>Node32</title>
<g id="a_Node000032"><a xlink:title=" ">
<polygon fill="#e0e0e0" stroke="#999999" points="1062.5,-79.5 1004.5,-79.5 1004.5,-60.5 1062.5,-60.5 1062.5,-79.5"/>
<text text-anchor="middle" x="1033.5" y="-67.5" font-family="Helvetica,sans-Serif" font-size="10.00">memory</text>
</a>
</g>
</g>
<!-- Node27&#45;&gt;Node32 -->
<g id="edge51_Node000027_Node000032" class="edge">
<title>Node27&#45;&gt;Node32</title>
<g id="a_edge51_Node000027_Node000032"><a xlink:title=" ">
<path fill="none" stroke="#63b8ff" d="M1249.91,-186.87C1237.78,-171.52 1210.4,-139.4 1180.5,-121 1146.78,-100.25 1103.35,-86.85 1072.47,-79.2"/>
<polygon fill="#63b8ff" stroke="#63b8ff" points="1073.04,-75.74 1062.5,-76.82 1071.42,-82.54 1073.04,-75.74"/>
</a>
</g>
</g>
<!-- Node33 -->
<g id="Node000033" class="node">
<title>Node33</title>
<g id="a_Node000033"><a xlink:title=" ">
<polygon fill="#e0e0e0" stroke="#999999" points="1466.5,-145.5 1402.5,-145.5 1402.5,-126.5 1466.5,-126.5 1466.5,-145.5"/>
<text text-anchor="middle" x="1434.5" y="-133.5" font-family="Helvetica,sans-Serif" font-size="10.00">algorithm</text>
</a>
</g>
</g>
<!-- Node27&#45;&gt;Node33 -->
<g id="edge47_Node000027_Node000033" class="edge">
<title>Node27&#45;&gt;Node33</title>
<g id="a_edge47_Node000027_Node000033"><a xlink:title=" ">
<path fill="none" stroke="#63b8ff" d="M1283.32,-186.92C1310.96,-178.05 1355.3,-163.72 1393.5,-151 1395.59,-150.3 1397.73,-149.59 1399.9,-148.86"/>
<polygon fill="#63b8ff" stroke="#63b8ff" points="1401.02,-152.17 1409.37,-145.65 1398.77,-145.54 1401.02,-152.17"/>
</a>
</g>
</g>
<!-- Node34 -->
<g id="Node000034" class="node">
<title>Node34</title>
<g id="a_Node000034"><a xlink:title=" ">
<polygon fill="#e0e0e0" stroke="#999999" points="1538,-145.5 1485,-145.5 1485,-126.5 1538,-126.5 1538,-145.5"/>
<text text-anchor="middle" x="1511.5" y="-133.5" font-family="Helvetica,sans-Serif" font-size="10.00">cstddef</text>
</a>
</g>
</g>
<!-- Node27&#45;&gt;Node34 -->
<g id="edge49_Node000027_Node000034" class="edge">
<title>Node27&#45;&gt;Node34</title>
<g id="a_edge49_Node000027_Node000034"><a xlink:title=" ">
<path fill="none" stroke="#63b8ff" d="M1311.58,-186.99C1356.26,-179.44 1420.59,-167.13 1475.5,-151 1477.43,-150.43 1479.4,-149.81 1481.38,-149.14"/>
<polygon fill="#63b8ff" stroke="#63b8ff" points="1482.94,-152.3 1491.15,-145.61 1480.55,-145.72 1482.94,-152.3"/>
</a>
</g>
</g>
<!-- Node27&#45;&gt;Node35 -->
<g id="edge50_Node000027_Node000035" class="edge">
<title>Node27&#45;&gt;Node35</title>
<g id="a_edge50_Node000027_Node000035"><a xlink:title=" ">
<path fill="none" stroke="#63b8ff" d="M1334.19,-189.31C1474.57,-178.07 1758.01,-155.07 1779.5,-151 1783.43,-150.25 1787.51,-149.31 1791.54,-148.27"/>
<polygon fill="#63b8ff" stroke="#63b8ff" points="1792.68,-151.58 1801.37,-145.52 1790.79,-144.84 1792.68,-151.58"/>
</a>
</g>
</g>
<!-- Node36 -->
<g id="Node000036" class="node">
<title>Node36</title>
<g id="a_Node000036"><a xlink:title=" ">
<polygon fill="#e0e0e0" stroke="#999999" points="1593,-145.5 1556,-145.5 1556,-126.5 1593,-126.5 1593,-145.5"/>
<text text-anchor="middle" x="1574.5" y="-133.5" font-family="Helvetica,sans-Serif" font-size="10.00">new</text>
</a>
</g>
</g>
<!-- Node27&#45;&gt;Node36 -->
<g id="edge52_Node000027_Node000036" class="edge">
<title>Node27&#45;&gt;Node36</title>
<g id="a_edge52_Node000027_Node000036"><a xlink:title=" ">
<path fill="none" stroke="#63b8ff" d="M1330.48,-186.97C1403.04,-178.11 1508.32,-163.77 1547.5,-151 1548.55,-150.66 1549.62,-150.27 1550.68,-149.86"/>
<polygon fill="#63b8ff" stroke="#63b8ff" points="1552.38,-152.94 1560.02,-145.61 1549.47,-146.57 1552.38,-152.94"/>
</a>
</g>
</g>
<!-- Node27&#45;&gt;Node37 -->
<g id="edge56_Node000027_Node000037" class="edge">
<title>Node27&#45;&gt;Node37</title>
<g id="a_edge56_Node000027_Node000037"><a xlink:title=" ">
<path fill="none" stroke="#63b8ff" d="M1334.08,-190.58C1493.04,-180.41 1843.02,-157.46 1868.5,-151 1870.23,-150.56 1871.99,-150.03 1873.74,-149.44"/>
<polygon fill="#63b8ff" stroke="#63b8ff" points="1875.5,-152.5 1883.48,-145.52 1872.89,-146 1875.5,-152.5"/>
</a>
</g>
</g>
<!-- Node28&#45;&gt;Node10 -->
<g id="edge39_Node000028_Node000010" class="edge">
<title>Node28&#45;&gt;Node10</title>
<g id="a_edge39_Node000028_Node000010"><a xlink:title=" ">
<path fill="none" stroke="#63b8ff" d="M1611.36,-122.23C1608.37,-121.78 1605.41,-121.37 1602.5,-121 1334.38,-87.13 1263.08,-122.89 995.5,-85 989.48,-84.15 983.18,-83.01 977,-81.76"/>
<polygon fill="#63b8ff" stroke="#63b8ff" points="977.29,-78.24 966.78,-79.56 975.82,-85.09 977.29,-78.24"/>
</a>
</g>
</g>
<!-- Node28&#45;&gt;Node24 -->
<g id="edge40_Node000028_Node000024" class="edge">
<title>Node28&#45;&gt;Node24</title>
<g id="a_edge40_Node000028_Node000024"><a xlink:title=" ">
<path fill="none" stroke="#63b8ff" d="M1618.32,-120.95C1566.9,-108.1 1492.6,-89.53 1450.6,-79.03"/>
<polygon fill="#63b8ff" stroke="#63b8ff" points="1451.2,-75.57 1440.65,-76.54 1449.51,-82.36 1451.2,-75.57"/>
</a>
</g>
</g>
<!-- Node28&#45;&gt;Node29 -->
<g id="edge41_Node000028_Node000029" class="edge">
<title>Node28&#45;&gt;Node29</title>
<g id="a_edge41_Node000028_Node000029"><a xlink:title=" ">
<path fill="none" stroke="#63b8ff" d="M1684.49,-120.8C1691.23,-111.21 1700.16,-98.5 1707.32,-88.32"/>
<polygon fill="#63b8ff" stroke="#63b8ff" points="1710.39,-90.04 1713.28,-79.84 1704.67,-86.01 1710.39,-90.04"/>
</a>
</g>
</g>
<!-- Node31&#45;&gt;Node7 -->
<g id="edge46_Node000031_Node000007" class="edge">
<title>Node31&#45;&gt;Node7</title>
<g id="a_edge46_Node000031_Node000007"><a xlink:title=" ">
<path fill="none" stroke="#63b8ff" d="M916.37,-126.44C867.36,-114.82 779.89,-94.08 726.93,-81.53"/>
<polygon fill="#63b8ff" stroke="#63b8ff" points="727.68,-78.11 717.14,-79.21 726.06,-84.92 727.68,-78.11"/>
</a>
</g>
</g>
<!-- Node31&#45;&gt;Node16 -->
<g id="edge44_Node000031_Node000016" class="edge">
<title>Node31&#45;&gt;Node16</title>
<g id="a_edge44_Node000031_Node000016"><a xlink:title=" ">
<path fill="none" stroke="#63b8ff" d="M907.62,-126.48C895.9,-124.46 883.25,-122.47 871.5,-121 668.46,-95.55 612.57,-127.95 412.5,-85 409.66,-84.39 406.76,-83.63 403.87,-82.77"/>
<polygon fill="#63b8ff" stroke="#63b8ff" points="404.84,-79.41 394.25,-79.6 402.65,-86.06 404.84,-79.41"/>
</a>
</g>
</g>
<!-- Node31&#45;&gt;Node32 -->
<g id="edge45_Node000031_Node000032" class="edge">
<title>Node31&#45;&gt;Node32</title>
<g id="a_edge45_Node000031_Node000032"><a xlink:title=" ">
<path fill="none" stroke="#63b8ff" d="M963.42,-126.37C976.47,-116.06 998.51,-98.65 1014.4,-86.09"/>
<polygon fill="#63b8ff" stroke="#63b8ff" points="1016.81,-88.64 1022.49,-79.7 1012.47,-83.15 1016.81,-88.64"/>
</a>
</g>
</g>
</g>
</svg>

<g id="navigator" transform="translate(0 0)" fill="#404254">
  <rect fill="#f2f5e9" fill-opacity="0.5" stroke="#606060" stroke-width=".5" x="0" y="0" width="60" height="60"/>
  <use id="zoomplus" xlink:href="#zoomPlus" x="17" y="9" onmousedown="handleZoom(evt,'in')"/>
  <use id="zoomminus" xlink:href="#zoomMin" x="42" y="9" onmousedown="handleZoom(evt,'out')"/>
  <use id="reset" xlink:href="#resetDef" x="30" y="36" onmousedown="handleReset()"/>
   <use id="arrowup" xlink:href="#arrowUp" x="0" y="0" onmousedown="handlePan(0,-1)"/>
  <use id="arrowright" xlink:href="#arrowRight" x="0" y="0" onmousedown="handlePan(1,0)"/>
  <use id="arrowdown" xlink:href="#arrowDown" x="0" y="0" onmousedown="handlePan(0,1)"/>
  <use id="arrowleft" xlink:href="#arrowLeft" x="0" y="0" onmousedown="handlePan(-1,0)"/>
</g>
<svg viewBox="0 0 15 15" width="100%" height="30px" preserveAspectRatio="xMaxYMin meet">
 <g id="arrow_out" transform="scale(0.3 0.3)">
  <a xlink:href="noop_8hpp__incl_org.svg" target="_base">
   <rect id="button" ry="5" rx="5" y="6" x="6" height="38" width="38"
        fill="#f2f5e9" fill-opacity="0.5" stroke="#606060" stroke-width="1.0"/>
   <path id="arrow"
     d="M 11.500037,31.436501 C 11.940474,20.09759 22.043105,11.32322 32.158766,21.979434 L 37.068811,17.246167 C 37.068811,17.246167 37.088388,32 37.088388,32 L 22.160133,31.978069 C 22.160133,31.978069 26.997745,27.140456 26.997745,27.140456 C 18.528582,18.264221 13.291696,25.230495 11.500037,31.436501 z"
     style="fill:#404040;"/>
  </a>
 </g>
</svg>

<style type='text/css'>
<![CDATA[
[data-mouse-over-selected='false'] { opacity: 0.7; }
[data-mouse-over-selected='true']  { opacity: 1.0; }
]]>
</style>
<script type="application/ecmascript"><![CDATA[
document.addEventListener('DOMContentLoaded', (event) => {
  highlightEdges();
  highlightAdjacentNodes();
});
]]></script>
</svg>
