<?xml version="1.0" encoding="UTF-8" standalone="no"?>
<!DOCTYPE svg PUBLIC "-//W3C//DTD SVG 1.1//EN"
 "http://www.w3.org/Graphics/SVG/1.1/DTD/svg11.dtd">
<!-- Generated by graphviz version 2.43.0 (0)
 -->
<!-- Title: src/alpaqa/src/driver/solver&#45;driver.hpp Pages: 1 -->
<svg width="1176pt" height="170pt"
 viewBox="0.00 0.00 1176.00 170.00" xmlns="http://www.w3.org/2000/svg" xmlns:xlink="http://www.w3.org/1999/xlink">
<g id="graph0" class="graph" transform="scale(1 1) rotate(0) translate(4 166)">
<title>src/alpaqa/src/driver/solver&#45;driver.hpp</title>
<!-- Node1 -->
<g id="Node000001" class="node">
<title>Node1</title>
<g id="a_Node000001"><a xlink:title=" ">
<polygon fill="#999999" stroke="#666666" points="642,-162 526,-162 526,-132 642,-132 642,-162"/>
<text text-anchor="start" x="534" y="-150" font-family="Helvetica,sans-Serif" font-size="10.00">src/alpaqa/src/driver</text>
<text text-anchor="middle" x="584" y="-139" font-family="Helvetica,sans-Serif" font-size="10.00">/solver&#45;driver.hpp</text>
</a>
</g>
</g>
<!-- Node2 -->
<g id="Node000002" class="node">
<title>Node2</title>
<g id="a_Node000002"><a xlink:href="alpaqa-driver_8cpp.html" target="_top" xlink:title=" ">
<polygon fill="white" stroke="#666666" points="436,-30 320,-30 320,0 436,0 436,-30"/>
<text text-anchor="start" x="328" y="-18" font-family="Helvetica,sans-Serif" font-size="10.00">src/alpaqa/src/driver</text>
<text text-anchor="middle" x="378" y="-7" font-family="Helvetica,sans-Serif" font-size="10.00">/alpaqa&#45;driver.cpp</text>
</a>
</g>
</g>
<!-- Node1&#45;&gt;Node2 -->
<g id="edge1_Node000001_Node000002" class="edge">
<title>Node1&#45;&gt;Node2</title>
<g id="a_edge1_Node000001_Node000002"><a xlink:title=" ">
<path fill="none" stroke="#63b8ff" d="M516.04,-134.12C487.68,-126.67 455.66,-114.78 431,-96 408.07,-78.54 391.93,-48.14 383.87,-30.27"/>
<polygon fill="#63b8ff" stroke="#63b8ff" points="515.36,-137.55 525.9,-136.57 517.05,-130.76 515.36,-137.55"/>
</a>
</g>
</g>
<!-- Node3 -->
<g id="Node000003" class="node">
<title>Node3</title>
<g id="a_Node000003"><a xlink:href="ipopt-driver_8cpp.html" target="_top" xlink:title=" ">
<polygon fill="white" stroke="#666666" points="900,-96 784,-96 784,-66 900,-66 900,-96"/>
<text text-anchor="start" x="792" y="-84" font-family="Helvetica,sans-Serif" font-size="10.00">src/alpaqa/src/driver</text>
<text text-anchor="middle" x="842" y="-73" font-family="Helvetica,sans-Serif" font-size="10.00">/ipopt&#45;driver.cpp</text>
</a>
</g>
</g>
<!-- Node1&#45;&gt;Node3 -->
<g id="edge2_Node000001_Node000003" class="edge">
<title>Node1&#45;&gt;Node3</title>
<g id="a_edge2_Node000001_Node000003"><a xlink:title=" ">
<path fill="none" stroke="#63b8ff" d="M650.45,-129.52C692.29,-119.14 745.72,-105.88 785.51,-96.01"/>
<polygon fill="#63b8ff" stroke="#63b8ff" points="649.48,-126.15 640.62,-131.95 651.17,-132.94 649.48,-126.15"/>
</a>
</g>
</g>
<!-- Node4 -->
<g id="Node000004" class="node">
<title>Node4</title>
<g id="a_Node000004"><a xlink:href="ipopt-driver_8hpp.html" target="_top" xlink:title=" ">
<polygon fill="white" stroke="#666666" points="116,-96 0,-96 0,-66 116,-66 116,-96"/>
<text text-anchor="start" x="8" y="-84" font-family="Helvetica,sans-Serif" font-size="10.00">src/alpaqa/src/driver</text>
<text text-anchor="middle" x="58" y="-73" font-family="Helvetica,sans-Serif" font-size="10.00">/ipopt&#45;driver.hpp</text>
</a>
</g>
</g>
<!-- Node1&#45;&gt;Node4 -->
<g id="edge3_Node000001_Node000004" class="edge">
<title>Node1&#45;&gt;Node4</title>
<g id="a_edge3_Node000001_Node000004"><a xlink:title=" ">
<path fill="none" stroke="#63b8ff" d="M515.73,-140.66C425.83,-133.14 262.98,-117.88 125,-96 122.07,-95.53 119.07,-95.03 116.04,-94.49"/>
<polygon fill="#63b8ff" stroke="#63b8ff" points="515.54,-144.15 525.79,-141.49 516.12,-137.18 515.54,-144.15"/>
</a>
</g>
</g>
<!-- Node5 -->
<g id="Node000005" class="node">
<title>Node5</title>
<g id="a_Node000005"><a xlink:href="lbfgsb-driver_8cpp.html" target="_top" xlink:title=" ">
<polygon fill="white" stroke="#666666" points="1034,-96 918,-96 918,-66 1034,-66 1034,-96"/>
<text text-anchor="start" x="926" y="-84" font-family="Helvetica,sans-Serif" font-size="10.00">src/alpaqa/src/driver</text>
<text text-anchor="middle" x="976" y="-73" font-family="Helvetica,sans-Serif" font-size="10.00">/lbfgsb&#45;driver.cpp</text>
</a>
</g>
</g>
<!-- Node1&#45;&gt;Node5 -->
<g id="edge5_Node000001_Node000005" class="edge">
<title>Node1&#45;&gt;Node5</title>
<g id="a_edge5_Node000001_Node000005"><a xlink:title=" ">
<path fill="none" stroke="#63b8ff" d="M652.53,-136.54C718.43,-127.19 820.76,-112 909,-96 911.92,-95.47 914.91,-94.91 917.93,-94.33"/>
<polygon fill="#63b8ff" stroke="#63b8ff" points="651.69,-133.12 642.28,-137.99 652.67,-140.06 651.69,-133.12"/>
</a>
</g>
</g>
<!-- Node6 -->
<g id="Node000006" class="node">
<title>Node6</title>
<g id="a_Node000006"><a xlink:href="lbfgsb-driver_8hpp.html" target="_top" xlink:title=" ">
<polygon fill="white" stroke="#666666" points="250,-96 134,-96 134,-66 250,-66 250,-96"/>
<text text-anchor="start" x="142" y="-84" font-family="Helvetica,sans-Serif" font-size="10.00">src/alpaqa/src/driver</text>
<text text-anchor="middle" x="192" y="-73" font-family="Helvetica,sans-Serif" font-size="10.00">/lbfgsb&#45;driver.hpp</text>
</a>
</g>
</g>
<!-- Node1&#45;&gt;Node6 -->
<g id="edge6_Node000001_Node000006" class="edge">
<title>Node1&#45;&gt;Node6</title>
<g id="a_edge6_Node000001_Node000006"><a xlink:title=" ">
<path fill="none" stroke="#63b8ff" d="M515.47,-136.54C449.57,-127.19 347.24,-112 259,-96 256.08,-95.47 253.09,-94.91 250.07,-94.33"/>
<polygon fill="#63b8ff" stroke="#63b8ff" points="515.33,-140.06 525.72,-137.99 516.31,-133.12 515.33,-140.06"/>
</a>
</g>
</g>
<!-- Node7 -->
<g id="Node000007" class="node">
<title>Node7</title>
<g id="a_Node000007"><a xlink:href="panoc-driver_8cpp.html" target="_top" xlink:title=" ">
<polygon fill="white" stroke="#666666" points="608,-30 492,-30 492,0 608,0 608,-30"/>
<text text-anchor="start" x="500" y="-18" font-family="Helvetica,sans-Serif" font-size="10.00">src/alpaqa/src/driver</text>
<text text-anchor="middle" x="550" y="-7" font-family="Helvetica,sans-Serif" font-size="10.00">/panoc&#45;driver.cpp</text>
</a>
</g>
</g>
<!-- Node1&#45;&gt;Node7 -->
<g id="edge8_Node000001_Node000007" class="edge">
<title>Node1&#45;&gt;Node7</title>
<g id="a_edge8_Node000001_Node000007"><a xlink:title=" ">
<path fill="none" stroke="#63b8ff" d="M578.62,-121.71C575,-105.8 569.99,-84.6 565,-66 561.76,-53.92 557.65,-40.34 554.56,-30.38"/>
<polygon fill="#63b8ff" stroke="#63b8ff" points="575.27,-122.79 580.88,-131.78 582.1,-121.25 575.27,-122.79"/>
</a>
</g>
</g>
<!-- Node8 -->
<g id="Node000008" class="node">
<title>Node8</title>
<g id="a_Node000008"><a xlink:href="panoc-driver_8hpp.html" target="_top" xlink:title=" ">
<polygon fill="white" stroke="#666666" points="556,-96 440,-96 440,-66 556,-66 556,-96"/>
<text text-anchor="start" x="448" y="-84" font-family="Helvetica,sans-Serif" font-size="10.00">src/alpaqa/src/driver</text>
<text text-anchor="middle" x="498" y="-73" font-family="Helvetica,sans-Serif" font-size="10.00">/panoc&#45;driver.hpp</text>
</a>
</g>
</g>
<!-- Node1&#45;&gt;Node8 -->
<g id="edge9_Node000001_Node000008" class="edge">
<title>Node1&#45;&gt;Node8</title>
<g id="a_edge9_Node000001_Node000008"><a xlink:title=" ">
<path fill="none" stroke="#63b8ff" d="M556.79,-125.75C543.86,-116.13 528.71,-104.86 517.03,-96.16"/>
<polygon fill="#63b8ff" stroke="#63b8ff" points="554.8,-128.63 564.91,-131.8 558.98,-123.02 554.8,-128.63"/>
</a>
</g>
</g>
<!-- Node9 -->
<g id="Node000009" class="node">
<title>Node9</title>
<g id="a_Node000009"><a xlink:href="pantr-driver_8cpp.html" target="_top" xlink:title=" ">
<polygon fill="white" stroke="#666666" points="761,-30 645,-30 645,0 761,0 761,-30"/>
<text text-anchor="start" x="653" y="-18" font-family="Helvetica,sans-Serif" font-size="10.00">src/alpaqa/src/driver</text>
<text text-anchor="middle" x="703" y="-7" font-family="Helvetica,sans-Serif" font-size="10.00">/pantr&#45;driver.cpp</text>
</a>
</g>
</g>
<!-- Node1&#45;&gt;Node9 -->
<g id="edge12_Node000001_Node000009" class="edge">
<title>Node1&#45;&gt;Node9</title>
<g id="a_edge12_Node000001_Node000009"><a xlink:title=" ">
<path fill="none" stroke="#63b8ff" d="M652.05,-141.45C683.24,-135.54 717.53,-122.84 737,-96 751.97,-75.35 732.36,-47.1 717.3,-30.29"/>
<polygon fill="#63b8ff" stroke="#63b8ff" points="651.33,-138.02 642.06,-143.13 652.5,-144.92 651.33,-138.02"/>
</a>
</g>
</g>
<!-- Node10 -->
<g id="Node000010" class="node">
<title>Node10</title>
<g id="a_Node000010"><a xlink:href="pantr-driver_8hpp.html" target="_top" xlink:title=" ">
<polygon fill="white" stroke="#666666" points="728,-96 612,-96 612,-66 728,-66 728,-96"/>
<text text-anchor="start" x="620" y="-84" font-family="Helvetica,sans-Serif" font-size="10.00">src/alpaqa/src/driver</text>
<text text-anchor="middle" x="670" y="-73" font-family="Helvetica,sans-Serif" font-size="10.00">/pantr&#45;driver.hpp</text>
</a>
</g>
</g>
<!-- Node1&#45;&gt;Node10 -->
<g id="edge13_Node000001_Node000010" class="edge">
<title>Node1&#45;&gt;Node10</title>
<g id="a_edge13_Node000001_Node000010"><a xlink:title=" ">
<path fill="none" stroke="#63b8ff" d="M611.21,-125.75C624.14,-116.13 639.29,-104.86 650.97,-96.16"/>
<polygon fill="#63b8ff" stroke="#63b8ff" points="609.02,-123.02 603.09,-131.8 613.2,-128.63 609.02,-123.02"/>
</a>
</g>
</g>
<!-- Node11 -->
<g id="Node000011" class="node">
<title>Node11</title>
<g id="a_Node000011"><a xlink:href="qpalm-driver_8cpp.html" target="_top" xlink:title=" ">
<polygon fill="white" stroke="#666666" points="1168,-96 1052,-96 1052,-66 1168,-66 1168,-96"/>
<text text-anchor="start" x="1060" y="-84" font-family="Helvetica,sans-Serif" font-size="10.00">src/alpaqa/src/driver</text>
<text text-anchor="middle" x="1110" y="-73" font-family="Helvetica,sans-Serif" font-size="10.00">/qpalm&#45;driver.cpp</text>
</a>
</g>
</g>
<!-- Node1&#45;&gt;Node11 -->
<g id="edge16_Node000001_Node000011" class="edge">
<title>Node1&#45;&gt;Node11</title>
<g id="a_edge16_Node000001_Node000011"><a xlink:title=" ">
<path fill="none" stroke="#63b8ff" d="M652.27,-140.66C742.17,-133.14 905.02,-117.88 1043,-96 1045.93,-95.53 1048.93,-95.03 1051.96,-94.49"/>
<polygon fill="#63b8ff" stroke="#63b8ff" points="651.88,-137.18 642.21,-141.49 652.46,-144.15 651.88,-137.18"/>
</a>
</g>
</g>
<!-- Node12 -->
<g id="Node000012" class="node">
<title>Node12</title>
<g id="a_Node000012"><a xlink:href="qpalm-driver_8hpp.html" target="_top" xlink:title=" ">
<polygon fill="white" stroke="#666666" points="384,-96 268,-96 268,-66 384,-66 384,-96"/>
<text text-anchor="start" x="276" y="-84" font-family="Helvetica,sans-Serif" font-size="10.00">src/alpaqa/src/driver</text>
<text text-anchor="middle" x="326" y="-73" font-family="Helvetica,sans-Serif" font-size="10.00">/qpalm&#45;driver.hpp</text>
</a>
</g>
</g>
<!-- Node1&#45;&gt;Node12 -->
<g id="edge17_Node000001_Node000012" class="edge">
<title>Node1&#45;&gt;Node12</title>
<g id="a_edge17_Node000001_Node000012"><a xlink:title=" ">
<path fill="none" stroke="#63b8ff" d="M517.55,-129.52C475.71,-119.14 422.28,-105.88 382.49,-96.01"/>
<polygon fill="#63b8ff" stroke="#63b8ff" points="516.83,-132.94 527.38,-131.95 518.52,-126.15 516.83,-132.94"/>
</a>
</g>
</g>
<!-- Node4&#45;&gt;Node2 -->
<g id="edge4_Node000004_Node000002" class="edge">
<title>Node4&#45;&gt;Node2</title>
<g id="a_edge4_Node000004_Node000002"><a xlink:title=" ">
<path fill="none" stroke="#63b8ff" d="M126.3,-65.75C198.65,-51.07 270.94,-36.86 319.93,-27.29"/>
<polygon fill="#63b8ff" stroke="#63b8ff" points="125.2,-62.4 116.1,-67.82 126.59,-69.26 125.2,-62.4"/>
</a>
</g>
</g>
<!-- Node6&#45;&gt;Node2 -->
<g id="edge7_Node000006_Node000002" class="edge">
<title>Node6&#45;&gt;Node2</title>
<g id="a_edge7_Node000006_Node000002"><a xlink:title=" ">
<path fill="none" stroke="#63b8ff" d="M242.6,-62.59C272.34,-52.36 309.44,-39.59 337.28,-30.01"/>
<polygon fill="#63b8ff" stroke="#63b8ff" points="241.14,-59.39 232.82,-65.95 243.41,-66.01 241.14,-59.39"/>
</a>
</g>
</g>
<!-- Node8&#45;&gt;Node2 -->
<g id="edge10_Node000008_Node000002" class="edge">
<title>Node8&#45;&gt;Node2</title>
<g id="a_edge10_Node000008_Node000002"><a xlink:title=" ">
<path fill="none" stroke="#63b8ff" d="M462.83,-61.24C444.1,-51.25 421.45,-39.18 404.27,-30.01"/>
<polygon fill="#63b8ff" stroke="#63b8ff" points="461.19,-64.34 471.67,-65.95 464.49,-58.16 461.19,-64.34"/>
</a>
</g>
</g>
<!-- Node8&#45;&gt;Node7 -->
<g id="edge11_Node000008_Node000007" class="edge">
<title>Node8&#45;&gt;Node7</title>
<g id="a_edge11_Node000008_Node000007"><a xlink:title=" ">
<path fill="none" stroke="#63b8ff" d="M516.03,-57.81C523.48,-48.64 531.9,-38.28 538.49,-30.16"/>
<polygon fill="#63b8ff" stroke="#63b8ff" points="513.13,-55.83 509.54,-65.8 518.56,-60.24 513.13,-55.83"/>
</a>
</g>
</g>
<!-- Node10&#45;&gt;Node2 -->
<g id="edge14_Node000010_Node000002" class="edge">
<title>Node10&#45;&gt;Node2</title>
<g id="a_edge14_Node000010_Node000002"><a xlink:title=" ">
<path fill="none" stroke="#63b8ff" d="M602.16,-65.13C551.95,-54.13 484.25,-39.29 436.43,-28.81"/>
<polygon fill="#63b8ff" stroke="#63b8ff" points="601.44,-68.56 611.96,-67.28 602.94,-61.72 601.44,-68.56"/>
</a>
</g>
</g>
<!-- Node10&#45;&gt;Node9 -->
<g id="edge15_Node000010_Node000009" class="edge">
<title>Node10&#45;&gt;Node9</title>
<g id="a_edge15_Node000010_Node000009"><a xlink:title=" ">
<path fill="none" stroke="#63b8ff" d="M682.02,-56.68C686.61,-47.79 691.68,-37.95 695.7,-30.16"/>
<polygon fill="#63b8ff" stroke="#63b8ff" points="678.8,-55.3 677.32,-65.8 685.02,-58.51 678.8,-55.3"/>
</a>
</g>
</g>
<!-- Node12&#45;&gt;Node2 -->
<g id="edge18_Node000012_Node000002" class="edge">
<title>Node12&#45;&gt;Node2</title>
<g id="a_edge18_Node000012_Node000002"><a xlink:title=" ">
<path fill="none" stroke="#63b8ff" d="M344.03,-57.81C351.48,-48.64 359.9,-38.28 366.49,-30.16"/>
<polygon fill="#63b8ff" stroke="#63b8ff" points="341.13,-55.83 337.54,-65.8 346.56,-60.24 341.13,-55.83"/>
</a>
</g>
</g>
</g>
</svg>
