<?xml version="1.0" encoding="UTF-8" standalone="no"?>
<!DOCTYPE svg PUBLIC "-//W3C//DTD SVG 1.1//EN"
 "http://www.w3.org/Graphics/SVG/1.1/DTD/svg11.dtd">
<!-- Generated by graphviz version 2.43.0 (0)
 -->
<!-- Title: alpaqa_problem_register_t Pages: 1 -->
<!--zoomable 646 -->

<svg id="main" version="1.1" xmlns="http://www.w3.org/2000/svg" xmlns:xlink="http://www.w3.org/1999/xlink" xml:space="preserve" onload="init(evt)">
<style type="text/css"><![CDATA[
.node, .edge {opacity: 0.7;}
.node.selected, .edge.selected {opacity: 1;}
.edge:hover path { stroke: red; }
.edge:hover polygon { stroke: red; fill: red; }
]]></style>

<defs>
  <circle id="rim" cx="0" cy="0" r="7"/>
  <circle id="rim2" cx="0" cy="0" r="3.5"/>
  <g id="zoomPlus">
    <use xlink:href="#rim" fill="#404040"><set attributeName="fill" to="#808080" begin="zoomplus.mouseover" end="zoomplus.mouseout"/></use>
    <path d="M-4,0h8M0,-4v8" fill="none" stroke="white" stroke-width="1.5" pointer-events="none"/>
  </g>
  <g id="zoomMin">
    <use xlink:href="#rim" fill="#404040"><set attributeName="fill" to="#808080" begin="zoomminus.mouseover" end="zoomminus.mouseout"/></use>
    <path d="M-4,0h8" fill="none" stroke="white" stroke-width="1.5" pointer-events="none"/>
  </g>
  <g id="arrowUp" transform="translate(30 24)">
    <use xlink:href="#rim"/>
    <path pointer-events="none" fill="none" stroke="white" stroke-width="1.5" d="M0,-3.0v7 M-2.5,-0.5L0,-3.0L2.5,-0.5"/>
  </g>
  <g id="arrowRight" transform="rotate(90) translate(36 -43)">
    <use xlink:href="#rim"/>
    <path pointer-events="none" fill="none" stroke="white" stroke-width="1.5" d="M0,-3.0v7 M-2.5,-0.5L0,-3.0L2.5,-0.5"/>
  </g>
  <g id="arrowDown" transform="rotate(180) translate(-30 -48)">
    <use xlink:href="#rim"/>
    <path pointer-events="none" fill="none" stroke="white" stroke-width="1.5" d="M0,-3.0v7 M-2.5,-0.5L0,-3.0L2.5,-0.5"/>
  </g>
  <g id="arrowLeft" transform="rotate(270) translate(-36 17)">
    <use xlink:href="#rim"/>
    <path pointer-events="none" fill="none" stroke="white" stroke-width="1.5" d="M0,-3.0v7 M-2.5,-0.5L0,-3.0L2.5,-0.5"/>
  </g>
  <g id="resetDef">
    <use xlink:href="#rim2" fill="#404040"><set attributeName="fill" to="#808080" begin="reset.mouseover" end="reset.mouseout"/></use>
  </g>
</defs>
<script type="application/ecmascript">
var viewWidth = 442;
var viewHeight = 646;
var sectionId = 'dynsection-0';
</script>
<script type="application/ecmascript" xlink:href="svg.min.js"/>
<svg id="graph" class="graph">
<g id="viewport">
<title>alpaqa_problem_register_t</title>
<!-- Node1 -->
<g id="Node000001" class="node">
<title>Node1</title>
<g id="a_Node000001"><a xlink:title=" ">
<polygon fill="#999999" stroke="transparent" points="299,-79 158,-79 158,0 299,0 299,-79"/>
<text text-anchor="start" x="163.5" y="-66.5" font-family="Helvetica,sans-Serif" font-size="10.00">alpaqa_problem_register_t</text>
<text text-anchor="start" x="178" y="-51.5" font-family="Helvetica,sans-Serif" font-size="10.00">+</text>
<text text-anchor="start" x="206.5" y="-51.5" font-family="Helvetica,sans-Serif" font-size="10.00">abi_version</text>
<text text-anchor="start" x="178" y="-36.5" font-family="Helvetica,sans-Serif" font-size="10.00">+</text>
<text text-anchor="start" x="206.5" y="-36.5" font-family="Helvetica,sans-Serif" font-size="10.00">instance</text>
<text text-anchor="start" x="178" y="-21.5" font-family="Helvetica,sans-Serif" font-size="10.00">+</text>
<text text-anchor="start" x="206.5" y="-21.5" font-family="Helvetica,sans-Serif" font-size="10.00">cleanup</text>
<text text-anchor="start" x="227" y="-6.5" font-family="Helvetica,sans-Serif" font-size="10.00"> </text>
<polygon fill="#666666" stroke="#666666" points="158.5,-61.5 158.5,-61.5 299.5,-61.5 299.5,-61.5 158.5,-61.5"/>
<polygon fill="#666666" stroke="#666666" points="158.5,-16.5 158.5,-16.5 204.5,-16.5 204.5,-16.5 158.5,-16.5"/>
<polygon fill="#666666" stroke="#666666" points="204.5,-16.5 204.5,-16.5 299.5,-16.5 299.5,-16.5 204.5,-16.5"/>
<polygon fill="none" stroke="#666666" points="158,0 158,-79 299,-79 299,0 158,0"/>
</a>
</g>
</g>
<!-- Node2 -->
<g id="Node000002" class="node">
<title>Node2</title>
<g id="a_Node000002"><a xlink:href="structalpaqa__problem__functions__t.html" target="_top" xlink:title="C API providing function pointers to problem functions.">
<polygon fill="white" stroke="transparent" points="149,-505 0,-505 0,-126 149,-126 149,-505"/>
<text text-anchor="start" x="5.5" y="-492.5" font-family="Helvetica,sans-Serif" font-size="10.00">alpaqa_problem_functions_t</text>
<text text-anchor="start" x="5.5" y="-477.5" font-family="Helvetica,sans-Serif" font-size="10.00">+</text>
<text text-anchor="start" x="19.5" y="-477.5" font-family="Helvetica,sans-Serif" font-size="10.00">n</text>
<text text-anchor="start" x="5.5" y="-462.5" font-family="Helvetica,sans-Serif" font-size="10.00">+</text>
<text text-anchor="start" x="19.5" y="-462.5" font-family="Helvetica,sans-Serif" font-size="10.00">m</text>
<text text-anchor="start" x="5.5" y="-447.5" font-family="Helvetica,sans-Serif" font-size="10.00">+</text>
<text text-anchor="start" x="19.5" y="-447.5" font-family="Helvetica,sans-Serif" font-size="10.00">eval_f</text>
<text text-anchor="start" x="5.5" y="-432.5" font-family="Helvetica,sans-Serif" font-size="10.00">+</text>
<text text-anchor="start" x="19.5" y="-432.5" font-family="Helvetica,sans-Serif" font-size="10.00">eval_grad_f</text>
<text text-anchor="start" x="5.5" y="-417.5" font-family="Helvetica,sans-Serif" font-size="10.00">+</text>
<text text-anchor="start" x="19.5" y="-417.5" font-family="Helvetica,sans-Serif" font-size="10.00">eval_g</text>
<text text-anchor="start" x="5.5" y="-402.5" font-family="Helvetica,sans-Serif" font-size="10.00">+</text>
<text text-anchor="start" x="19.5" y="-402.5" font-family="Helvetica,sans-Serif" font-size="10.00">eval_grad_g_prod</text>
<text text-anchor="start" x="5.5" y="-387.5" font-family="Helvetica,sans-Serif" font-size="10.00">+</text>
<text text-anchor="start" x="19.5" y="-387.5" font-family="Helvetica,sans-Serif" font-size="10.00">eval_jac_g</text>
<text text-anchor="start" x="5.5" y="-372.5" font-family="Helvetica,sans-Serif" font-size="10.00">+</text>
<text text-anchor="start" x="19.5" y="-372.5" font-family="Helvetica,sans-Serif" font-size="10.00">eval_grad_gi</text>
<text text-anchor="start" x="5.5" y="-357.5" font-family="Helvetica,sans-Serif" font-size="10.00">+</text>
<text text-anchor="start" x="19.5" y="-357.5" font-family="Helvetica,sans-Serif" font-size="10.00">eval_hess_L_prod</text>
<text text-anchor="start" x="5.5" y="-342.5" font-family="Helvetica,sans-Serif" font-size="10.00">+</text>
<text text-anchor="start" x="19.5" y="-342.5" font-family="Helvetica,sans-Serif" font-size="10.00">eval_hess_L</text>
<text text-anchor="start" x="5.5" y="-327.5" font-family="Helvetica,sans-Serif" font-size="10.00">+</text>
<text text-anchor="start" x="19.5" y="-327.5" font-family="Helvetica,sans-Serif" font-size="10.00">eval_hess_ψ_prod</text>
<text text-anchor="start" x="5.5" y="-312.5" font-family="Helvetica,sans-Serif" font-size="10.00">+</text>
<text text-anchor="start" x="19.5" y="-312.5" font-family="Helvetica,sans-Serif" font-size="10.00">eval_hess_ψ</text>
<text text-anchor="start" x="5.5" y="-297.5" font-family="Helvetica,sans-Serif" font-size="10.00">+</text>
<text text-anchor="start" x="19.5" y="-297.5" font-family="Helvetica,sans-Serif" font-size="10.00">eval_f_grad_f</text>
<text text-anchor="start" x="5.5" y="-282.5" font-family="Helvetica,sans-Serif" font-size="10.00">+</text>
<text text-anchor="start" x="19.5" y="-282.5" font-family="Helvetica,sans-Serif" font-size="10.00">eval_f_g</text>
<text text-anchor="start" x="5.5" y="-267.5" font-family="Helvetica,sans-Serif" font-size="10.00">+</text>
<text text-anchor="start" x="19.5" y="-267.5" font-family="Helvetica,sans-Serif" font-size="10.00">eval_grad_f_grad_g_prod</text>
<text text-anchor="start" x="5.5" y="-252.5" font-family="Helvetica,sans-Serif" font-size="10.00">+</text>
<text text-anchor="start" x="19.5" y="-252.5" font-family="Helvetica,sans-Serif" font-size="10.00">eval_grad_L</text>
<text text-anchor="start" x="5.5" y="-237.5" font-family="Helvetica,sans-Serif" font-size="10.00">+</text>
<text text-anchor="start" x="19.5" y="-237.5" font-family="Helvetica,sans-Serif" font-size="10.00">eval_ψ</text>
<text text-anchor="start" x="5.5" y="-222.5" font-family="Helvetica,sans-Serif" font-size="10.00">+</text>
<text text-anchor="start" x="19.5" y="-222.5" font-family="Helvetica,sans-Serif" font-size="10.00">eval_grad_ψ</text>
<text text-anchor="start" x="5.5" y="-207.5" font-family="Helvetica,sans-Serif" font-size="10.00">+</text>
<text text-anchor="start" x="19.5" y="-207.5" font-family="Helvetica,sans-Serif" font-size="10.00">eval_ψ_grad_ψ</text>
<text text-anchor="start" x="5.5" y="-192.5" font-family="Helvetica,sans-Serif" font-size="10.00">+</text>
<text text-anchor="start" x="19.5" y="-192.5" font-family="Helvetica,sans-Serif" font-size="10.00">eval_prox_grad_step</text>
<text text-anchor="start" x="5.5" y="-177.5" font-family="Helvetica,sans-Serif" font-size="10.00">+</text>
<text text-anchor="start" x="19.5" y="-177.5" font-family="Helvetica,sans-Serif" font-size="10.00">initialize_box_C</text>
<text text-anchor="start" x="5.5" y="-162.5" font-family="Helvetica,sans-Serif" font-size="10.00">+</text>
<text text-anchor="start" x="19.5" y="-162.5" font-family="Helvetica,sans-Serif" font-size="10.00">initialize_box_D</text>
<text text-anchor="start" x="5.5" y="-147.5" font-family="Helvetica,sans-Serif" font-size="10.00">+</text>
<text text-anchor="start" x="19.5" y="-147.5" font-family="Helvetica,sans-Serif" font-size="10.00">initialize_l1_reg</text>
<text text-anchor="start" x="73" y="-132.5" font-family="Helvetica,sans-Serif" font-size="10.00"> </text>
<polygon fill="#666666" stroke="#666666" points="0.5,-487.5 0.5,-487.5 149.5,-487.5 149.5,-487.5 0.5,-487.5"/>
<polygon fill="#666666" stroke="#666666" points="0.5,-142.5 0.5,-142.5 17.5,-142.5 17.5,-142.5 0.5,-142.5"/>
<polygon fill="#666666" stroke="#666666" points="17.5,-142.5 17.5,-142.5 149.5,-142.5 149.5,-142.5 17.5,-142.5"/>
<polygon fill="none" stroke="#666666" points="0,-126 0,-505 149,-505 149,-126 0,-126"/>
</a>
</g>
</g>
<!-- Node2&#45;&gt;Node1 -->
<g id="edge1_Node000001_Node000002" class="edge">
<title>Node2&#45;&gt;Node1</title>
<g id="a_edge1_Node000001_Node000002"><a xlink:title=" ">
<path fill="none" stroke="#63b8ff" d="M149.12,-125.78C154.93,-115.81 161.05,-106.15 167.5,-97 169.59,-94.03 171.87,-91.09 174.26,-88.22"/>
<polygon fill="none" stroke="#63b8ff" points="174.27,-88.21 175.28,-81.07 182.27,-79.26 181.25,-86.4 174.27,-88.21"/>
</a>
</g>
<text text-anchor="middle" x="196" y="-100" font-family="Helvetica,sans-Serif" font-size="10.00" fill="grey"> +functions</text>
</g>
<!-- Node3 -->
<g id="Node000003" class="node">
<title>Node3</title>
<g id="a_Node000003"><a xlink:href="structalpaqa__sparsity__t.html" target="_top" xlink:title="Sparsity of matrices.">
<polygon fill="white" stroke="transparent" points="123,-638 26,-638 26,-574 123,-574 123,-638"/>
<text text-anchor="start" x="31.5" y="-626" font-family="Helvetica,sans-Serif" font-size="10.00">alpaqa_sparsity_t</text>
<text text-anchor="start" x="44" y="-611" font-family="Helvetica,sans-Serif" font-size="10.00">+</text>
<text text-anchor="start" x="70.5" y="-611" font-family="Helvetica,sans-Serif" font-size="10.00">@7</text>
<text text-anchor="start" x="44" y="-596" font-family="Helvetica,sans-Serif" font-size="10.00">+</text>
<text text-anchor="start" x="70.5" y="-596" font-family="Helvetica,sans-Serif" font-size="10.00">kind</text>
<text text-anchor="start" x="73" y="-581" font-family="Helvetica,sans-Serif" font-size="10.00"> </text>
<polygon fill="#666666" stroke="#666666" points="26.5,-621 26.5,-621 123.5,-621 123.5,-621 26.5,-621"/>
<polygon fill="#666666" stroke="#666666" points="26.5,-591 26.5,-591 68.5,-591 68.5,-591 26.5,-591"/>
<polygon fill="#666666" stroke="#666666" points="68.5,-591 68.5,-591 123.5,-591 123.5,-591 68.5,-591"/>
<polygon fill="none" stroke="#666666" points="26,-574 26,-638 123,-638 123,-574 26,-574"/>
</a>
</g>
</g>
<!-- Node3&#45;&gt;Node2 -->
<g id="edge2_Node000002_Node000003" class="edge">
<title>Node3&#45;&gt;Node2</title>
<g id="a_edge2_Node000002_Node000003"><a xlink:title=" ">
<path fill="none" stroke="#63b8ff" d="M74.5,-573.85C74.5,-558.67 74.5,-539.01 74.5,-517.32"/>
<polygon fill="none" stroke="#63b8ff" points="74.5,-517.07 70.5,-511.07 74.5,-505.07 78.5,-511.07 74.5,-517.07"/>
</a>
</g>
<text text-anchor="middle" x="129.5" y="-548" font-family="Helvetica,sans-Serif" font-size="10.00" fill="grey"> +get_hess_L_sparsity</text>
<text text-anchor="middle" x="129.5" y="-537" font-family="Helvetica,sans-Serif" font-size="10.00" fill="grey">+get_hess_ψ_sparsity</text>
<text text-anchor="middle" x="129.5" y="-526" font-family="Helvetica,sans-Serif" font-size="10.00" fill="grey">+get_jac_g_sparsity</text>
</g>
<!-- Node4 -->
<g id="Node000004" class="node">
<title>Node4</title>
<g id="a_Node000004"><a xlink:href="dl-problem_8h.html#structalpaqa__function__dict__s" target="_top" xlink:title=" ">
<polygon fill="white" stroke="transparent" points="289.5,-340 167.5,-340 167.5,-291 289.5,-291 289.5,-340"/>
<text text-anchor="start" x="172.5" y="-327.5" font-family="Helvetica,sans-Serif" font-size="10.00">alpaqa_function_dict_s</text>
<text text-anchor="start" x="192" y="-312.5" font-family="Helvetica,sans-Serif" font-size="10.00">+</text>
<text text-anchor="start" x="225.5" y="-312.5" font-family="Helvetica,sans-Serif" font-size="10.00">dict</text>
<text text-anchor="start" x="226.5" y="-297.5" font-family="Helvetica,sans-Serif" font-size="10.00"> </text>
<polygon fill="#666666" stroke="#666666" points="167.5,-322.5 167.5,-322.5 289.5,-322.5 289.5,-322.5 167.5,-322.5"/>
<polygon fill="#666666" stroke="#666666" points="167.5,-307.5 167.5,-307.5 223.5,-307.5 223.5,-307.5 167.5,-307.5"/>
<polygon fill="#666666" stroke="#666666" points="223.5,-307.5 223.5,-307.5 289.5,-307.5 289.5,-307.5 223.5,-307.5"/>
<polygon fill="none" stroke="#666666" points="167.5,-291 167.5,-340 289.5,-340 289.5,-291 167.5,-291"/>
</a>
</g>
</g>
<!-- Node4&#45;&gt;Node1 -->
<g id="edge3_Node000001_Node000004" class="edge">
<title>Node4&#45;&gt;Node1</title>
<g id="a_edge3_Node000001_Node000004"><a xlink:title=" ">
<path fill="none" stroke="#63b8ff" d="M228.5,-290.66C228.5,-246.42 228.5,-150.7 228.5,-91.33"/>
<polygon fill="none" stroke="#63b8ff" points="228.5,-91.24 224.5,-85.24 228.5,-79.24 232.5,-85.24 228.5,-91.24"/>
</a>
</g>
<text text-anchor="middle" x="272.5" y="-100" font-family="Helvetica,sans-Serif" font-size="10.00" fill="grey"> +extra_functions</text>
</g>
<!-- Node5 -->
<g id="Node000005" class="node">
<title>Node5</title>
<g id="a_Node000005"><a xlink:href="dl-problem_8h.html#structalpaqa__exception__ptr__s" target="_top" xlink:title=" ">
<polygon fill="white" stroke="transparent" points="433.5,-340 307.5,-340 307.5,-291 433.5,-291 433.5,-340"/>
<text text-anchor="start" x="312.5" y="-327.5" font-family="Helvetica,sans-Serif" font-size="10.00">alpaqa_exception_ptr_s</text>
<text text-anchor="start" x="333" y="-312.5" font-family="Helvetica,sans-Serif" font-size="10.00">+</text>
<text text-anchor="start" x="367.5" y="-312.5" font-family="Helvetica,sans-Serif" font-size="10.00">exc</text>
<text text-anchor="start" x="368.5" y="-297.5" font-family="Helvetica,sans-Serif" font-size="10.00"> </text>
<polygon fill="#666666" stroke="#666666" points="307.5,-322.5 307.5,-322.5 433.5,-322.5 433.5,-322.5 307.5,-322.5"/>
<polygon fill="#666666" stroke="#666666" points="307.5,-307.5 307.5,-307.5 365.5,-307.5 365.5,-307.5 307.5,-307.5"/>
<polygon fill="#666666" stroke="#666666" points="365.5,-307.5 365.5,-307.5 433.5,-307.5 433.5,-307.5 365.5,-307.5"/>
<polygon fill="none" stroke="#666666" points="307.5,-291 307.5,-340 433.5,-340 433.5,-291 307.5,-291"/>
</a>
</g>
</g>
<!-- Node5&#45;&gt;Node1 -->
<g id="edge4_Node000001_Node000005" class="edge">
<title>Node5&#45;&gt;Node1</title>
<g id="a_edge4_Node000001_Node000005"><a xlink:title=" ">
<path fill="none" stroke="#63b8ff" d="M370.81,-290.84C370.23,-248.11 363.57,-156.94 320.5,-97 317.06,-92.21 313.07,-87.74 308.73,-83.59"/>
<polygon fill="none" stroke="#63b8ff" points="308.45,-83.36 301.3,-82.47 299.37,-75.52 306.52,-76.41 308.45,-83.36"/>
</a>
</g>
<text text-anchor="middle" x="356.5" y="-100" font-family="Helvetica,sans-Serif" font-size="10.00" fill="grey"> +exception</text>
</g>
</g>
</svg>

<g id="navigator" transform="translate(0 0)" fill="#404254">
  <rect fill="#f2f5e9" fill-opacity="0.5" stroke="#606060" stroke-width=".5" x="0" y="0" width="60" height="60"/>
  <use id="zoomplus" xlink:href="#zoomPlus" x="17" y="9" onmousedown="handleZoom(evt,'in')"/>
  <use id="zoomminus" xlink:href="#zoomMin" x="42" y="9" onmousedown="handleZoom(evt,'out')"/>
  <use id="reset" xlink:href="#resetDef" x="30" y="36" onmousedown="handleReset()"/>
   <use id="arrowup" xlink:href="#arrowUp" x="0" y="0" onmousedown="handlePan(0,-1)"/>
  <use id="arrowright" xlink:href="#arrowRight" x="0" y="0" onmousedown="handlePan(1,0)"/>
  <use id="arrowdown" xlink:href="#arrowDown" x="0" y="0" onmousedown="handlePan(0,1)"/>
  <use id="arrowleft" xlink:href="#arrowLeft" x="0" y="0" onmousedown="handlePan(-1,0)"/>
</g>
<svg viewBox="0 0 15 15" width="100%" height="30px" preserveAspectRatio="xMaxYMin meet">
 <g id="arrow_out" transform="scale(0.3 0.3)">
  <a xlink:href="structalpaqa__problem__register__t__coll__graph_org.svg" target="_base">
   <rect id="button" ry="5" rx="5" y="6" x="6" height="38" width="38"
        fill="#f2f5e9" fill-opacity="0.5" stroke="#606060" stroke-width="1.0"/>
   <path id="arrow"
     d="M 11.500037,31.436501 C 11.940474,20.09759 22.043105,11.32322 32.158766,21.979434 L 37.068811,17.246167 C 37.068811,17.246167 37.088388,32 37.088388,32 L 22.160133,31.978069 C 22.160133,31.978069 26.997745,27.140456 26.997745,27.140456 C 18.528582,18.264221 13.291696,25.230495 11.500037,31.436501 z"
     style="fill:#404040;"/>
  </a>
 </g>
</svg>

<style type='text/css'>
<![CDATA[
[data-mouse-over-selected='false'] { opacity: 0.7; }
[data-mouse-over-selected='true']  { opacity: 1.0; }
]]>
</style>
<script type="application/ecmascript"><![CDATA[
document.addEventListener('DOMContentLoaded', (event) => {
  highlightEdges();
  highlightAdjacentNodes();
});
]]></script>
</svg>
