<?xml version="1.0" encoding="UTF-8" standalone="no"?>
<!DOCTYPE svg PUBLIC "-//W3C//DTD SVG 1.1//EN"
 "http://www.w3.org/Graphics/SVG/1.1/DTD/svg11.dtd">
<!-- Generated by graphviz version 2.43.0 (0)
 -->
<!-- Title: anderson&#45;acceleration.hpp Pages: 1 -->
<svg width="495pt" height="285pt"
 viewBox="0.00 0.00 495.00 285.00" xmlns="http://www.w3.org/2000/svg" xmlns:xlink="http://www.w3.org/1999/xlink">
<g id="graph0" class="graph" transform="scale(1 1) rotate(0) translate(4 281)">
<title>anderson&#45;acceleration.hpp</title>
<polygon fill="white" stroke="transparent" points="-4,4 -4,-281 491,-281 491,4 -4,4"/>
<!-- Node1 -->
<g id="node1" class="node">
<title>Node1</title>
<g id="a_node1"><a xlink:title=" ">
<polygon fill="#bfbfbf" stroke="black" points="254,-257.5 254,-276.5 400,-276.5 400,-257.5 254,-257.5"/>
<text text-anchor="middle" x="327" y="-264.5" font-family="Helvetica,sans-Serif" font-size="10.00">anderson&#45;acceleration.hpp</text>
</a>
</g>
</g>
<!-- Node2 -->
<g id="node2" class="node">
<title>Node2</title>
<g id="a_node2"><a xlink:href="anderson-helpers_8hpp.html" target="_top" xlink:title=" ">
<polygon fill="white" stroke="black" points="192.5,-185 192.5,-215 317.5,-215 317.5,-185 192.5,-185"/>
<text text-anchor="start" x="200.5" y="-203" font-family="Helvetica,sans-Serif" font-size="10.00">alpaqa/inner/detail</text>
<text text-anchor="middle" x="255" y="-192" font-family="Helvetica,sans-Serif" font-size="10.00">/anderson&#45;helpers.hpp</text>
</a>
</g>
</g>
<!-- Node1&#45;&gt;Node2 -->
<g id="edge1" class="edge">
<title>Node1&#45;&gt;Node2</title>
<path fill="none" stroke="midnightblue" d="M317.29,-257.23C307.28,-248.2 291.3,-233.77 278.04,-221.8"/>
<polygon fill="midnightblue" stroke="midnightblue" points="280.37,-219.19 270.61,-215.09 275.68,-224.39 280.37,-219.19"/>
</g>
<!-- Node13 -->
<g id="node13" class="node">
<title>Node13</title>
<g id="a_node13"><a xlink:href="panoc-direction-update_8hpp.html" target="_top" xlink:title=" ">
<polygon fill="white" stroke="black" points="357,-179.5 357,-220.5 485,-220.5 485,-179.5 357,-179.5"/>
<text text-anchor="start" x="365" y="-208.5" font-family="Helvetica,sans-Serif" font-size="10.00">alpaqa/inner/directions</text>
<text text-anchor="start" x="365" y="-197.5" font-family="Helvetica,sans-Serif" font-size="10.00">/decl/panoc&#45;direction</text>
<text text-anchor="middle" x="421" y="-186.5" font-family="Helvetica,sans-Serif" font-size="10.00">&#45;update.hpp</text>
</a>
</g>
</g>
<!-- Node1&#45;&gt;Node13 -->
<g id="edge13" class="edge">
<title>Node1&#45;&gt;Node13</title>
<path fill="none" stroke="midnightblue" d="M339.68,-257.23C351.09,-249.34 368.45,-237.34 384.2,-226.45"/>
<polygon fill="midnightblue" stroke="midnightblue" points="386.5,-229.11 392.74,-220.54 382.52,-223.35 386.5,-229.11"/>
</g>
<!-- Node3 -->
<g id="node3" class="node">
<title>Node3</title>
<g id="a_node3"><a xlink:href="limited-memory-qr_8hpp.html" target="_top" xlink:title=" ">
<polygon fill="white" stroke="black" points="146.5,-112.5 146.5,-142.5 279.5,-142.5 279.5,-112.5 146.5,-112.5"/>
<text text-anchor="start" x="154.5" y="-130.5" font-family="Helvetica,sans-Serif" font-size="10.00">alpaqa/inner/detail</text>
<text text-anchor="middle" x="213" y="-119.5" font-family="Helvetica,sans-Serif" font-size="10.00">/limited&#45;memory&#45;qr.hpp</text>
</a>
</g>
</g>
<!-- Node2&#45;&gt;Node3 -->
<g id="edge2" class="edge">
<title>Node2&#45;&gt;Node3</title>
<path fill="none" stroke="midnightblue" d="M246.5,-184.73C240.81,-175.18 233.19,-162.39 226.65,-151.42"/>
<polygon fill="midnightblue" stroke="midnightblue" points="229.61,-149.55 221.49,-142.75 223.6,-153.13 229.61,-149.55"/>
</g>
<!-- Node4 -->
<g id="node4" class="node">
<title>Node4</title>
<g id="a_node4"><a xlink:title=" ">
<polygon fill="white" stroke="#bfbfbf" points="0,-56.5 0,-75.5 76,-75.5 76,-56.5 0,-56.5"/>
<text text-anchor="middle" x="38" y="-63.5" font-family="Helvetica,sans-Serif" font-size="10.00">Eigen/Jacobi</text>
</a>
</g>
</g>
<!-- Node3&#45;&gt;Node4 -->
<g id="edge3" class="edge">
<title>Node3&#45;&gt;Node4</title>
<path fill="none" stroke="midnightblue" d="M171.53,-112.4C141.42,-102.16 101.15,-88.47 72.73,-78.81"/>
<polygon fill="midnightblue" stroke="midnightblue" points="73.8,-75.48 63.21,-75.57 71.55,-82.1 73.8,-75.48"/>
</g>
<!-- Node5 -->
<g id="node5" class="node">
<title>Node5</title>
<g id="a_node5"><a xlink:title=" ">
<polygon fill="white" stroke="#bfbfbf" points="77.5,-0.5 77.5,-19.5 130.5,-19.5 130.5,-0.5 77.5,-0.5"/>
<text text-anchor="middle" x="104" y="-7.5" font-family="Helvetica,sans-Serif" font-size="10.00">cstddef</text>
</a>
</g>
</g>
<!-- Node3&#45;&gt;Node5 -->
<g id="edge4" class="edge">
<title>Node3&#45;&gt;Node5</title>
<path fill="none" stroke="midnightblue" d="M173.3,-112.3C155.63,-104.16 135.94,-92.27 123,-76 112.37,-62.64 107.69,-43.53 105.63,-29.48"/>
<polygon fill="midnightblue" stroke="midnightblue" points="109.1,-29.04 104.47,-19.51 102.14,-29.85 109.1,-29.04"/>
</g>
<!-- Node6 -->
<g id="node6" class="node">
<title>Node6</title>
<g id="a_node6"><a xlink:href="ringbuffer_8hpp.html" target="_top" xlink:title=" ">
<polygon fill="white" stroke="black" points="132.5,-56.5 132.5,-75.5 271.5,-75.5 271.5,-56.5 132.5,-56.5"/>
<text text-anchor="middle" x="202" y="-63.5" font-family="Helvetica,sans-Serif" font-size="10.00">alpaqa/util/ringbuffer.hpp</text>
</a>
</g>
</g>
<!-- Node3&#45;&gt;Node6 -->
<g id="edge5" class="edge">
<title>Node3&#45;&gt;Node6</title>
<path fill="none" stroke="midnightblue" d="M210.39,-112.4C208.91,-104.38 207.03,-94.23 205.43,-85.57"/>
<polygon fill="midnightblue" stroke="midnightblue" points="208.86,-84.85 203.6,-75.66 201.98,-86.13 208.86,-84.85"/>
</g>
<!-- Node10 -->
<g id="node10" class="node">
<title>Node10</title>
<g id="a_node10"><a xlink:href="vec_8hpp.html" target="_top" xlink:title=" ">
<polygon fill="white" stroke="black" points="377,-56.5 377,-75.5 487,-75.5 487,-56.5 377,-56.5"/>
<text text-anchor="middle" x="432" y="-63.5" font-family="Helvetica,sans-Serif" font-size="10.00">alpaqa/util/vec.hpp</text>
</a>
</g>
</g>
<!-- Node3&#45;&gt;Node10 -->
<g id="edge10" class="edge">
<title>Node3&#45;&gt;Node10</title>
<path fill="none" stroke="midnightblue" d="M264.62,-112.47C303.06,-102.03 354.86,-87.96 390.6,-78.25"/>
<polygon fill="midnightblue" stroke="midnightblue" points="391.96,-81.51 400.69,-75.51 390.12,-74.75 391.96,-81.51"/>
</g>
<!-- Node12 -->
<g id="node12" class="node">
<title>Node12</title>
<g id="a_node12"><a xlink:title=" ">
<polygon fill="white" stroke="#bfbfbf" points="289.5,-56.5 289.5,-75.5 358.5,-75.5 358.5,-56.5 289.5,-56.5"/>
<text text-anchor="middle" x="324" y="-63.5" font-family="Helvetica,sans-Serif" font-size="10.00">type_traits</text>
</a>
</g>
</g>
<!-- Node3&#45;&gt;Node12 -->
<g id="edge12" class="edge">
<title>Node3&#45;&gt;Node12</title>
<path fill="none" stroke="midnightblue" d="M239.31,-112.4C257.26,-102.77 280.92,-90.09 298.67,-80.58"/>
<polygon fill="midnightblue" stroke="midnightblue" points="300.69,-83.47 307.85,-75.66 297.38,-77.3 300.69,-83.47"/>
</g>
<!-- Node6&#45;&gt;Node5 -->
<g id="edge7" class="edge">
<title>Node6&#45;&gt;Node5</title>
<path fill="none" stroke="midnightblue" d="M186.25,-56.32C170.68,-47.74 146.62,-34.49 128.54,-24.52"/>
<polygon fill="midnightblue" stroke="midnightblue" points="130.15,-21.42 119.71,-19.65 126.78,-27.55 130.15,-21.42"/>
</g>
<!-- Node7 -->
<g id="node7" class="node">
<title>Node7</title>
<g id="a_node7"><a xlink:title=" ">
<polygon fill="white" stroke="#bfbfbf" points="149,-0.5 149,-19.5 213,-19.5 213,-0.5 149,-0.5"/>
<text text-anchor="middle" x="181" y="-7.5" font-family="Helvetica,sans-Serif" font-size="10.00">algorithm</text>
</a>
</g>
</g>
<!-- Node6&#45;&gt;Node7 -->
<g id="edge6" class="edge">
<title>Node6&#45;&gt;Node7</title>
<path fill="none" stroke="midnightblue" d="M198.53,-56.08C195.69,-48.77 191.57,-38.18 188.04,-29.1"/>
<polygon fill="midnightblue" stroke="midnightblue" points="191.29,-27.8 184.4,-19.75 184.77,-30.34 191.29,-27.8"/>
</g>
<!-- Node8 -->
<g id="node8" class="node">
<title>Node8</title>
<g id="a_node8"><a xlink:title=" ">
<polygon fill="white" stroke="#bfbfbf" points="231.5,-0.5 231.5,-19.5 284.5,-19.5 284.5,-0.5 231.5,-0.5"/>
<text text-anchor="middle" x="258" y="-7.5" font-family="Helvetica,sans-Serif" font-size="10.00">iterator</text>
</a>
</g>
</g>
<!-- Node6&#45;&gt;Node8 -->
<g id="edge8" class="edge">
<title>Node6&#45;&gt;Node8</title>
<path fill="none" stroke="midnightblue" d="M211,-56.32C219.19,-48.42 231.51,-36.55 241.47,-26.94"/>
<polygon fill="midnightblue" stroke="midnightblue" points="244.07,-29.29 248.84,-19.83 239.21,-24.26 244.07,-29.29"/>
</g>
<!-- Node9 -->
<g id="node9" class="node">
<title>Node9</title>
<g id="a_node9"><a xlink:title=" ">
<polygon fill="white" stroke="#bfbfbf" points="302.5,-0.5 302.5,-19.5 349.5,-19.5 349.5,-0.5 302.5,-0.5"/>
<text text-anchor="middle" x="326" y="-7.5" font-family="Helvetica,sans-Serif" font-size="10.00">vector</text>
</a>
</g>
</g>
<!-- Node6&#45;&gt;Node9 -->
<g id="edge9" class="edge">
<title>Node6&#45;&gt;Node9</title>
<path fill="none" stroke="midnightblue" d="M221.65,-56.44C241.96,-47.6 273.9,-33.69 297.1,-23.59"/>
<polygon fill="midnightblue" stroke="midnightblue" points="298.67,-26.72 306.44,-19.52 295.88,-20.3 298.67,-26.72"/>
</g>
<!-- Node11 -->
<g id="node11" class="node">
<title>Node11</title>
<g id="a_node11"><a xlink:title=" ">
<polygon fill="white" stroke="#bfbfbf" points="397.5,-0.5 397.5,-19.5 466.5,-19.5 466.5,-0.5 397.5,-0.5"/>
<text text-anchor="middle" x="432" y="-7.5" font-family="Helvetica,sans-Serif" font-size="10.00">Eigen/Core</text>
</a>
</g>
</g>
<!-- Node10&#45;&gt;Node11 -->
<g id="edge11" class="edge">
<title>Node10&#45;&gt;Node11</title>
<path fill="none" stroke="midnightblue" d="M432,-56.08C432,-49.01 432,-38.86 432,-29.99"/>
<polygon fill="midnightblue" stroke="midnightblue" points="435.5,-29.75 432,-19.75 428.5,-29.75 435.5,-29.75"/>
</g>
<!-- Node14 -->
<g id="node14" class="node">
<title>Node14</title>
<g id="a_node14"><a xlink:href="box_8hpp.html" target="_top" xlink:title=" ">
<polygon fill="white" stroke="black" points="371,-118 371,-137 481,-137 481,-118 371,-118"/>
<text text-anchor="middle" x="426" y="-125" font-family="Helvetica,sans-Serif" font-size="10.00">alpaqa/util/box.hpp</text>
</a>
</g>
</g>
<!-- Node13&#45;&gt;Node14 -->
<g id="edge14" class="edge">
<title>Node13&#45;&gt;Node14</title>
<path fill="none" stroke="midnightblue" d="M422.39,-179.36C423.11,-169.3 423.97,-157.1 424.68,-147.18"/>
<polygon fill="midnightblue" stroke="midnightblue" points="428.17,-147.4 425.38,-137.17 421.19,-146.9 428.17,-147.4"/>
</g>
<!-- Node14&#45;&gt;Node10 -->
<g id="edge15" class="edge">
<title>Node14&#45;&gt;Node10</title>
<path fill="none" stroke="midnightblue" d="M426.86,-117.98C427.71,-109.58 429.03,-96.48 430.12,-85.66"/>
<polygon fill="midnightblue" stroke="midnightblue" points="433.62,-85.81 431.14,-75.51 426.66,-85.11 433.62,-85.81"/>
</g>
</g>
</svg>
