<?xml version="1.0" encoding="UTF-8" standalone="no"?>
<!DOCTYPE svg PUBLIC "-//W3C//DTD SVG 1.1//EN"
 "http://www.w3.org/Graphics/SVG/1.1/DTD/svg11.dtd">
<!-- Generated by graphviz version 2.43.0 (0)
 -->
<!-- Title: n Pages: 1 -->
<svg width="930pt" height="555pt"
 viewBox="0.00 0.00 930.00 555.37" xmlns="http://www.w3.org/2000/svg" xmlns:xlink="http://www.w3.org/1999/xlink">
<g id="graph0" class="graph" transform="scale(1 1) rotate(0) translate(4 551.37)">
<title>n</title>
<polygon fill="white" stroke="transparent" points="-4,4 -4,-551.37 926,-551.37 926,4 -4,4"/>
<!-- Node1 -->
<g id="node1" class="node">
<title>Node1</title>
<g id="a_node1"><a xlink:title="Get the size of the s and y vectors in the buffer.">
<polygon fill="#bfbfbf" stroke="black" points="893,-241.64 893,-260.64 922,-260.64 922,-241.64 893,-241.64"/>
<text text-anchor="middle" x="907.5" y="-248.64" font-family="Helvetica,sans-Serif" font-size="10.00">n</text>
</a>
</g>
</g>
<!-- Node2 -->
<g id="node2" class="node">
<title>Node2</title>
<g id="a_node2"><a xlink:href="classalpaqa_1_1LBFGS.html#af78287282b1c23d282a586aa2386a15a" target="_top" xlink:title=" ">
<polygon fill="white" stroke="black" points="711,-97.64 711,-116.64 759,-116.64 759,-97.64 711,-97.64"/>
<text text-anchor="middle" x="735" y="-104.64" font-family="Helvetica,sans-Serif" font-size="10.00">LBFGS</text>
</a>
</g>
</g>
<!-- Node1&#45;&gt;Node2 -->
<g id="edge1" class="edge">
<title>Node1&#45;&gt;Node2</title>
<path fill="none" stroke="midnightblue" d="M900.08,-231.83C892.56,-211.83 878.36,-180.79 857,-161.14 828.73,-135.12 785.85,-120.07 759.45,-112.75"/>
<polygon fill="midnightblue" stroke="midnightblue" points="896.84,-233.17 903.49,-241.42 903.44,-230.83 896.84,-233.17"/>
</g>
<!-- Node3 -->
<g id="node3" class="node">
<title>Node3</title>
<g id="a_node3"><a xlink:href="alpaqa_8cpp.html#a52c00cccef0976f125d4a27f9906c36b" target="_top" xlink:title=" ">
<polygon fill="white" stroke="black" points="282.5,-332.64 282.5,-351.64 395.5,-351.64 395.5,-332.64 282.5,-332.64"/>
<text text-anchor="middle" x="339" y="-339.64" font-family="Helvetica,sans-Serif" font-size="10.00">PYBIND11_MODULE</text>
</a>
</g>
</g>
<!-- Node1&#45;&gt;Node3 -->
<g id="edge2" class="edge">
<title>Node1&#45;&gt;Node3</title>
<path fill="none" stroke="midnightblue" d="M884.08,-238.02C858.63,-223.95 815.4,-202.52 775,-194.14 707.16,-180.07 522.19,-185.51 476,-206.14 412.58,-234.46 362.44,-306.54 345.86,-332.57"/>
<polygon fill="midnightblue" stroke="midnightblue" points="882.49,-241.14 892.92,-243.01 885.93,-235.04 882.49,-241.14"/>
</g>
<!-- Node4 -->
<g id="node4" class="node">
<title>Node4</title>
<g id="a_node4"><a xlink:href="classalpaqa_1_1LBFGS.html#a57b2556ee8993b06958b9c14511fd4ba" target="_top" xlink:title="Re&#45;allocate storage for a problem with a different size.">
<polygon fill="white" stroke="black" points="811,-59.64 811,-78.64 857,-78.64 857,-59.64 811,-59.64"/>
<text text-anchor="middle" x="834" y="-66.64" font-family="Helvetica,sans-Serif" font-size="10.00">resize</text>
</a>
</g>
</g>
<!-- Node1&#45;&gt;Node4 -->
<g id="edge3" class="edge">
<title>Node1&#45;&gt;Node4</title>
<path fill="none" stroke="midnightblue" d="M899.25,-232.07C889.69,-207.02 872.31,-161.7 857,-123.14 850.8,-107.52 843.39,-89.45 838.95,-78.67"/>
<polygon fill="midnightblue" stroke="midnightblue" points="896,-233.38 902.83,-241.48 902.54,-230.89 896,-233.38"/>
</g>
<!-- Node6 -->
<g id="node6" class="node">
<title>Node6</title>
<g id="a_node6"><a xlink:href="classalpaqa_1_1LBFGS.html#a644d66009a70ccc909120ba9afa45ea5" target="_top" xlink:title=" ">
<polygon fill="white" stroke="black" points="720.5,-499.64 720.5,-518.64 749.5,-518.64 749.5,-499.64 720.5,-499.64"/>
<text text-anchor="middle" x="735" y="-506.64" font-family="Helvetica,sans-Serif" font-size="10.00">s</text>
</a>
</g>
</g>
<!-- Node1&#45;&gt;Node6 -->
<g id="edge7" class="edge">
<title>Node1&#45;&gt;Node6</title>
<path fill="none" stroke="midnightblue" d="M899.85,-270.34C884.13,-313.44 840.95,-419.25 775,-485.14 767.69,-492.44 757.75,-498.52 749.73,-502.73"/>
<polygon fill="midnightblue" stroke="midnightblue" points="903.19,-271.39 903.25,-260.8 896.6,-269.04 903.19,-271.39"/>
</g>
<!-- Node10 -->
<g id="node10" class="node">
<title>Node10</title>
<g id="a_node10"><a xlink:href="classalpaqa_1_1LBFGS.html#ac18c0672e61d25800877a42a1def3215" target="_top" xlink:title=" ">
<polygon fill="white" stroke="black" points="720.5,-354.64 720.5,-373.64 749.5,-373.64 749.5,-354.64 720.5,-354.64"/>
<text text-anchor="middle" x="735" y="-361.64" font-family="Helvetica,sans-Serif" font-size="10.00">y</text>
</a>
</g>
</g>
<!-- Node1&#45;&gt;Node10 -->
<g id="edge16" class="edge">
<title>Node1&#45;&gt;Node10</title>
<path fill="none" stroke="midnightblue" d="M884.08,-266C848.24,-289.75 779.09,-335.58 749.73,-355.04"/>
<polygon fill="midnightblue" stroke="midnightblue" points="886.43,-268.63 892.84,-260.19 882.57,-262.8 886.43,-268.63"/>
</g>
<!-- Node13 -->
<g id="node13" class="node">
<title>Node13</title>
<g id="a_node13"><a xlink:href="classalpaqa_1_1LBFGS.html#a7866204934238efa4a186fc9d48a8a2e" target="_top" xlink:title=" ">
<polygon fill="white" stroke="black" points="819.5,-241.64 819.5,-260.64 848.5,-260.64 848.5,-241.64 819.5,-241.64"/>
<text text-anchor="middle" x="834" y="-248.64" font-family="Helvetica,sans-Serif" font-size="10.00">α</text>
</a>
</g>
</g>
<!-- Node1&#45;&gt;Node13 -->
<g id="edge24" class="edge">
<title>Node1&#45;&gt;Node13</title>
<path fill="none" stroke="midnightblue" d="M882.63,-251.14C871.37,-251.14 858.33,-251.14 848.74,-251.14"/>
<polygon fill="midnightblue" stroke="midnightblue" points="882.71,-254.64 892.71,-251.14 882.71,-247.64 882.71,-254.64"/>
</g>
<!-- Node19 -->
<g id="node19" class="node">
<title>Node19</title>
<g id="a_node19"><a xlink:href="classalpaqa_1_1LBFGS.html#aebf0127f7a3e56b2c46e5f189d517f14" target="_top" xlink:title=" ">
<polygon fill="white" stroke="black" points="720.5,-423.64 720.5,-442.64 749.5,-442.64 749.5,-423.64 720.5,-423.64"/>
<text text-anchor="middle" x="735" y="-430.64" font-family="Helvetica,sans-Serif" font-size="10.00">ρ</text>
</a>
</g>
</g>
<!-- Node1&#45;&gt;Node19 -->
<g id="edge35" class="edge">
<title>Node1&#45;&gt;Node19</title>
<path fill="none" stroke="midnightblue" d="M893.5,-268.9C883.84,-281.8 870.11,-299.48 857,-314.14 818.69,-356.96 768.54,-403.59 746.81,-423.38"/>
<polygon fill="midnightblue" stroke="midnightblue" points="896.34,-270.95 899.48,-260.83 890.72,-266.78 896.34,-270.95"/>
</g>
<!-- Node4&#45;&gt;Node2 -->
<g id="edge4" class="edge">
<title>Node4&#45;&gt;Node2</title>
<path fill="none" stroke="midnightblue" d="M801.43,-81.5C787.71,-86.88 771.91,-93.07 759.28,-98.02"/>
<polygon fill="midnightblue" stroke="midnightblue" points="802.95,-84.67 810.99,-77.76 800.4,-78.15 802.95,-84.67"/>
</g>
<!-- Node4&#45;&gt;Node3 -->
<g id="edge6" class="edge">
<title>Node4&#45;&gt;Node3</title>
<path fill="none" stroke="midnightblue" d="M801.21,-57.09C734.86,-34.15 579.27,8.01 476,-57.14 474.35,-58.18 368.23,-282.44 344.62,-332.36"/>
<polygon fill="midnightblue" stroke="midnightblue" points="800.11,-60.42 810.7,-60.46 802.45,-53.82 800.11,-60.42"/>
</g>
<!-- Node5 -->
<g id="node5" class="node">
<title>Node5</title>
<g id="a_node5"><a xlink:href="classalpaqa_1_1StructuredPANOCLBFGSSolver.html#ade95d8a7a1892d4087d6fffc958cde6e" target="_top" xlink:title=" ">
<polygon fill="white" stroke="black" points="0,-450.14 0,-480.14 202,-480.14 202,-450.14 0,-450.14"/>
<text text-anchor="start" x="8" y="-468.14" font-family="Helvetica,sans-Serif" font-size="10.00">alpaqa::StructuredPANOCLBFGSSolver</text>
<text text-anchor="middle" x="101" y="-457.14" font-family="Helvetica,sans-Serif" font-size="10.00">::operator()</text>
</a>
</g>
</g>
<!-- Node4&#45;&gt;Node5 -->
<g id="edge5" class="edge">
<title>Node4&#45;&gt;Node5</title>
<path fill="none" stroke="midnightblue" d="M815.89,-52.78C805.07,-43.5 790.27,-32.67 775,-27.14 726.42,-9.52 710.65,-20.92 659,-19.14 469.92,-12.62 377.18,46.02 238,-82.14 180.25,-135.31 120.15,-385.37 105.41,-449.91"/>
<polygon fill="midnightblue" stroke="midnightblue" points="813.56,-55.38 823.34,-59.45 818.23,-50.17 813.56,-55.38"/>
</g>
<!-- Node6&#45;&gt;Node3 -->
<g id="edge12" class="edge">
<title>Node6&#45;&gt;Node3</title>
<path fill="none" stroke="midnightblue" d="M710.84,-518.42C663.69,-535.78 554.37,-567.92 476,-528.14 466.19,-523.16 372.8,-389.37 346.73,-351.84"/>
<polygon fill="midnightblue" stroke="midnightblue" points="712.33,-521.6 720.44,-514.78 709.84,-515.06 712.33,-521.6"/>
</g>
<!-- Node7 -->
<g id="node7" class="node">
<title>Node7</title>
<g id="a_node7"><a xlink:href="classalpaqa_1_1LBFGS.html#a33d8dd6fd12e1394c9637610086dae4c" target="_top" xlink:title="Apply the inverse Hessian approximation to the given vector q.">
<polygon fill="white" stroke="black" points="545.5,-499.64 545.5,-518.64 589.5,-518.64 589.5,-499.64 545.5,-499.64"/>
<text text-anchor="middle" x="567.5" y="-506.64" font-family="Helvetica,sans-Serif" font-size="10.00">apply</text>
</a>
</g>
</g>
<!-- Node6&#45;&gt;Node7 -->
<g id="edge8" class="edge">
<title>Node6&#45;&gt;Node7</title>
<path fill="none" stroke="midnightblue" d="M710.14,-509.14C677.79,-509.14 620.53,-509.14 589.65,-509.14"/>
<polygon fill="midnightblue" stroke="midnightblue" points="710.46,-512.64 720.46,-509.14 710.46,-505.64 710.46,-512.64"/>
</g>
<!-- Node9 -->
<g id="node9" class="node">
<title>Node9</title>
<g id="a_node9"><a xlink:href="classalpaqa_1_1LBFGS.html#a4db75f8c280c32a05a44bb83769befb1" target="_top" xlink:title="Update the inverse Hessian approximation using the new vectors xₖ₊₁ and pₖ₊₁.">
<polygon fill="white" stroke="black" points="542.5,-461.64 542.5,-480.64 592.5,-480.64 592.5,-461.64 542.5,-461.64"/>
<text text-anchor="middle" x="567.5" y="-468.64" font-family="Helvetica,sans-Serif" font-size="10.00">update</text>
</a>
</g>
</g>
<!-- Node6&#45;&gt;Node9 -->
<g id="edge13" class="edge">
<title>Node6&#45;&gt;Node9</title>
<path fill="none" stroke="midnightblue" d="M710.67,-502.96C695.9,-499.12 676.37,-494.16 659,-490.14 636.63,-484.96 611.02,-479.64 592.76,-475.95"/>
<polygon fill="midnightblue" stroke="midnightblue" points="709.93,-506.39 720.49,-505.54 711.71,-499.62 709.93,-506.39"/>
</g>
<!-- Node7&#45;&gt;Node3 -->
<g id="edge11" class="edge">
<title>Node7&#45;&gt;Node3</title>
<path fill="none" stroke="midnightblue" d="M535.31,-507.34C517.04,-505.16 494.08,-500.42 476,-490.14 412.91,-454.24 362.56,-378.97 345.9,-352.01"/>
<polygon fill="midnightblue" stroke="midnightblue" points="535.16,-510.84 545.45,-508.34 535.85,-503.87 535.16,-510.84"/>
</g>
<!-- Node8 -->
<g id="node8" class="node">
<title>Node8</title>
<g id="a_node8"><a xlink:href="classalpaqa_1_1StructuredPANOCLBFGSSolver.html#a92bf6e99eb0770f053457e48cc3a3435" target="_top" xlink:title=" ">
<polygon fill="white" stroke="black" points="238,-494.14 238,-524.14 440,-524.14 440,-494.14 238,-494.14"/>
<text text-anchor="start" x="246" y="-512.14" font-family="Helvetica,sans-Serif" font-size="10.00">alpaqa::StructuredPANOCLBFGSSolver</text>
<text text-anchor="middle" x="339" y="-501.14" font-family="Helvetica,sans-Serif" font-size="10.00">::compute_quasi_newton_step</text>
</a>
</g>
</g>
<!-- Node7&#45;&gt;Node8 -->
<g id="edge9" class="edge">
<title>Node7&#45;&gt;Node8</title>
<path fill="none" stroke="midnightblue" d="M534.99,-509.14C510.26,-509.14 474.42,-509.14 440.19,-509.14"/>
<polygon fill="midnightblue" stroke="midnightblue" points="535.19,-512.64 545.19,-509.14 535.19,-505.64 535.19,-512.64"/>
</g>
<!-- Node8&#45;&gt;Node5 -->
<g id="edge10" class="edge">
<title>Node8&#45;&gt;Node5</title>
<path fill="none" stroke="midnightblue" d="M247.41,-492.25C226.07,-488.27 203.46,-484.05 182.6,-480.16"/>
<polygon fill="midnightblue" stroke="midnightblue" points="246.97,-495.72 257.44,-494.12 248.25,-488.84 246.97,-495.72"/>
</g>
<!-- Node9&#45;&gt;Node3 -->
<g id="edge15" class="edge">
<title>Node9&#45;&gt;Node3</title>
<path fill="none" stroke="midnightblue" d="M531.86,-465.33C514.5,-461.59 493.5,-455.77 476,-447.14 423.03,-421 370.64,-372.48 349.62,-351.84"/>
<polygon fill="midnightblue" stroke="midnightblue" points="531.64,-468.85 542.13,-467.39 533.02,-461.99 531.64,-468.85"/>
</g>
<!-- Node9&#45;&gt;Node5 -->
<g id="edge14" class="edge">
<title>Node9&#45;&gt;Node5</title>
<path fill="none" stroke="midnightblue" d="M531.88,-470.69C462.89,-469.8 305.95,-467.77 202.01,-466.43"/>
<polygon fill="midnightblue" stroke="midnightblue" points="532.14,-474.19 542.18,-470.82 532.23,-467.19 532.14,-474.19"/>
</g>
<!-- Node10&#45;&gt;Node3 -->
<g id="edge20" class="edge">
<title>Node10&#45;&gt;Node3</title>
<path fill="none" stroke="midnightblue" d="M717.63,-346.91C703.56,-333.44 681.95,-315.76 659,-308.14 553.82,-273.2 419.4,-313.12 364.76,-332.63"/>
<polygon fill="midnightblue" stroke="midnightblue" points="715.44,-349.67 725,-354.25 720.38,-344.71 715.44,-349.67"/>
</g>
<!-- Node10&#45;&gt;Node7 -->
<g id="edge17" class="edge">
<title>Node10&#45;&gt;Node7</title>
<path fill="none" stroke="midnightblue" d="M718.73,-381.73C711.08,-391.01 701.99,-402.8 695,-414.14 675.39,-445.95 688.35,-466.99 659,-490.14 639.21,-505.74 609.65,-509.35 589.76,-509.81"/>
<polygon fill="midnightblue" stroke="midnightblue" points="721.48,-383.9 725.24,-374 716.12,-379.39 721.48,-383.9"/>
</g>
<!-- Node10&#45;&gt;Node9 -->
<g id="edge23" class="edge">
<title>Node10&#45;&gt;Node9</title>
<path fill="none" stroke="midnightblue" d="M711.72,-379.21C696.86,-389.21 676.84,-402.58 659,-414.14 632.82,-431.1 602.03,-450.35 583.95,-461.58"/>
<polygon fill="midnightblue" stroke="midnightblue" points="713.91,-381.95 720.25,-373.46 710,-376.15 713.91,-381.95"/>
</g>
<!-- Node11 -->
<g id="node11" class="node">
<title>Node11</title>
<g id="a_node11"><a xlink:href="classhanging__chain__dynamics_1_1HangingChain.html#a2e4d9874164cfa87334b099f3ce1f288" target="_top" xlink:title=" ">
<polygon fill="white" stroke="black" points="476,-318.14 476,-348.14 659,-348.14 659,-318.14 476,-318.14"/>
<text text-anchor="start" x="484" y="-336.14" font-family="Helvetica,sans-Serif" font-size="10.00">hanging_chain_dynamics.Hanging</text>
<text text-anchor="middle" x="567.5" y="-325.14" font-family="Helvetica,sans-Serif" font-size="10.00">Chain.dynamics</text>
</a>
</g>
</g>
<!-- Node10&#45;&gt;Node11 -->
<g id="edge18" class="edge">
<title>Node10&#45;&gt;Node11</title>
<path fill="none" stroke="midnightblue" d="M710.24,-359.69C693.88,-356.62 671.12,-352.36 648.61,-348.14"/>
<polygon fill="midnightblue" stroke="midnightblue" points="709.98,-363.2 720.46,-361.6 711.27,-356.32 709.98,-363.2"/>
</g>
<!-- Node12 -->
<g id="node12" class="node">
<title>Node12</title>
<g id="a_node12"><a xlink:href="classalpaqa_1_1LBFGS.html#adeddc1e1eb8ce1c1bbaf931b6f9a5b9c" target="_top" xlink:title="Scale the stored y vectors by the given factor.">
<polygon fill="white" stroke="black" points="541,-385.64 541,-404.64 594,-404.64 594,-385.64 541,-385.64"/>
<text text-anchor="middle" x="567.5" y="-392.64" font-family="Helvetica,sans-Serif" font-size="10.00">scale_y</text>
</a>
</g>
</g>
<!-- Node10&#45;&gt;Node12 -->
<g id="edge21" class="edge">
<title>Node10&#45;&gt;Node12</title>
<path fill="none" stroke="midnightblue" d="M710.63,-368.51C679.91,-374.27 626.13,-384.34 594.27,-390.31"/>
<polygon fill="midnightblue" stroke="midnightblue" points="711.27,-371.95 720.46,-366.67 709.98,-365.07 711.27,-371.95"/>
</g>
<!-- Node11&#45;&gt;Node11 -->
<g id="edge19" class="edge">
<title>Node11&#45;&gt;Node11</title>
<path fill="none" stroke="midnightblue" d="M597,-358.59C593.34,-363.32 583.5,-366.64 567.5,-366.64 541.24,-366.64 531.6,-357.69 538.57,-348.3"/>
<polygon fill="midnightblue" stroke="midnightblue" points="600.47,-358.09 596.43,-348.3 593.48,-358.47 600.47,-358.09"/>
</g>
<!-- Node12&#45;&gt;Node3 -->
<g id="edge22" class="edge">
<title>Node12&#45;&gt;Node3</title>
<path fill="none" stroke="midnightblue" d="M530.83,-387.43C514.16,-383.78 494.04,-379.32 476,-375.14 442.98,-367.48 405.56,-358.37 378.35,-351.66"/>
<polygon fill="midnightblue" stroke="midnightblue" points="530.21,-390.88 540.72,-389.59 531.7,-384.04 530.21,-390.88"/>
</g>
<!-- Node13&#45;&gt;Node3 -->
<g id="edge26" class="edge">
<title>Node13&#45;&gt;Node3</title>
<path fill="none" stroke="midnightblue" d="M808.83,-251.79C750.71,-253.81 598.82,-261.71 476,-291.14 433.82,-301.24 386.93,-320.79 360.69,-332.53"/>
<polygon fill="midnightblue" stroke="midnightblue" points="809.29,-255.28 819.17,-251.46 809.06,-248.28 809.29,-255.28"/>
</g>
<!-- Node13&#45;&gt;Node7 -->
<g id="edge25" class="edge">
<title>Node13&#45;&gt;Node7</title>
<path fill="none" stroke="midnightblue" d="M829.73,-270.74C821.83,-315.97 800.46,-425.75 775,-452.14 749.11,-478.97 637.11,-498.73 589.76,-506.04"/>
<polygon fill="midnightblue" stroke="midnightblue" points="833.21,-271.17 831.45,-260.73 826.31,-269.99 833.21,-271.17"/>
</g>
<!-- Node14 -->
<g id="node14" class="node">
<title>Node14</title>
<g id="a_node14"><a xlink:href="classalpaqa_1_1LBFGS.html#aaf9c6519c7a7d7ab977113f33c88e2e3" target="_top" xlink:title="Check if the new vectors s and y allow for a valid BFGS update that preserves the positive definitene...">
<polygon fill="white" stroke="black" points="695,-203.64 695,-222.64 775,-222.64 775,-203.64 695,-203.64"/>
<text text-anchor="middle" x="735" y="-210.64" font-family="Helvetica,sans-Serif" font-size="10.00">update_valid</text>
</a>
</g>
</g>
<!-- Node13&#45;&gt;Node14 -->
<g id="edge27" class="edge">
<title>Node13&#45;&gt;Node14</title>
<path fill="none" stroke="midnightblue" d="M809.59,-241.97C794.7,-236.13 775.45,-228.59 760.37,-222.68"/>
<polygon fill="midnightblue" stroke="midnightblue" points="808.51,-245.3 819.1,-245.69 811.07,-238.79 808.51,-245.3"/>
</g>
<!-- Node14&#45;&gt;Node3 -->
<g id="edge31" class="edge">
<title>Node14&#45;&gt;Node3</title>
<path fill="none" stroke="midnightblue" d="M684.64,-209.74C631.29,-207.86 544.67,-210.1 476,-237.14 420.49,-258.99 368.71,-310.79 348.71,-332.4"/>
<polygon fill="midnightblue" stroke="midnightblue" points="684.72,-213.24 694.86,-210.16 685.01,-206.25 684.72,-213.24"/>
</g>
<!-- Node14&#45;&gt;Node9 -->
<g id="edge34" class="edge">
<title>Node14&#45;&gt;Node9</title>
<path fill="none" stroke="midnightblue" d="M728.45,-232.7C715.51,-277.33 682.67,-385.04 659,-414.14 641.07,-436.17 612.25,-452.23 591.95,-461.58"/>
<polygon fill="midnightblue" stroke="midnightblue" points="731.83,-233.6 731.23,-223.03 725.1,-231.67 731.83,-233.6"/>
</g>
<!-- Node15 -->
<g id="node15" class="node">
<title>Node15</title>
<g id="a_node15"><a xlink:href="classalpaqa_1_1SpecializedLBFGS.html#a0b030867dbee1f90710a9b23360807a3" target="_top" xlink:title="L&#45;BFGS update when changing the step size γ, recomputing everything.">
<polygon fill="white" stroke="black" points="496,-67.14 496,-97.14 639,-97.14 639,-67.14 496,-67.14"/>
<text text-anchor="start" x="504" y="-85.14" font-family="Helvetica,sans-Serif" font-size="10.00">alpaqa::SpecializedLBFGS</text>
<text text-anchor="middle" x="567.5" y="-74.14" font-family="Helvetica,sans-Serif" font-size="10.00">::full_update</text>
</a>
</g>
</g>
<!-- Node14&#45;&gt;Node15 -->
<g id="edge28" class="edge">
<title>Node14&#45;&gt;Node15</title>
<path fill="none" stroke="midnightblue" d="M725.83,-194.24C714.42,-170.1 691.39,-128.74 659,-106.14 653,-101.95 646.32,-98.49 639.37,-95.64"/>
<polygon fill="midnightblue" stroke="midnightblue" points="722.68,-195.77 730.01,-203.43 729.06,-192.88 722.68,-195.77"/>
</g>
<!-- Node18 -->
<g id="node18" class="node">
<title>Node18</title>
<g id="a_node18"><a xlink:href="classalpaqa_1_1SpecializedLBFGS.html#a5a4a6bc855faa7998e2308d5e6d10224" target="_top" xlink:title="Standard L&#45;BFGS update without changing the step size γ.">
<polygon fill="white" stroke="black" points="496,-116.14 496,-146.14 639,-146.14 639,-116.14 496,-116.14"/>
<text text-anchor="start" x="504" y="-134.14" font-family="Helvetica,sans-Serif" font-size="10.00">alpaqa::SpecializedLBFGS</text>
<text text-anchor="middle" x="567.5" y="-123.14" font-family="Helvetica,sans-Serif" font-size="10.00">::standard_update</text>
</a>
</g>
</g>
<!-- Node14&#45;&gt;Node18 -->
<g id="edge32" class="edge">
<title>Node14&#45;&gt;Node18</title>
<path fill="none" stroke="midnightblue" d="M705.67,-199.1C675.94,-184.37 629.38,-161.3 598.9,-146.2"/>
<polygon fill="midnightblue" stroke="midnightblue" points="704.18,-202.27 714.69,-203.57 707.28,-195.99 704.18,-202.27"/>
</g>
<!-- Node16 -->
<g id="node16" class="node">
<title>Node16</title>
<g id="a_node16"><a xlink:href="classalpaqa_1_1SpecializedLBFGS.html#a747b26091f869cb17a768e38f17fbc8d" target="_top" xlink:title="Update the inverse Hessian approximation using the new vectors xₖ₊₁ and pₖ₊₁.">
<polygon fill="white" stroke="black" points="267.5,-92.14 267.5,-122.14 410.5,-122.14 410.5,-92.14 267.5,-92.14"/>
<text text-anchor="start" x="275.5" y="-110.14" font-family="Helvetica,sans-Serif" font-size="10.00">alpaqa::SpecializedLBFGS</text>
<text text-anchor="middle" x="339" y="-99.14" font-family="Helvetica,sans-Serif" font-size="10.00">::update</text>
</a>
</g>
</g>
<!-- Node15&#45;&gt;Node16 -->
<g id="edge29" class="edge">
<title>Node15&#45;&gt;Node16</title>
<path fill="none" stroke="midnightblue" d="M485.76,-91.05C461.2,-93.76 434.42,-96.71 410.59,-99.35"/>
<polygon fill="midnightblue" stroke="midnightblue" points="486.21,-94.52 495.77,-89.94 485.44,-87.56 486.21,-94.52"/>
</g>
<!-- Node17 -->
<g id="node17" class="node">
<title>Node17</title>
<g id="a_node17"><a xlink:href="structalpaqa_1_1PANOCDirection_3_01SpecializedLBFGS_01_4.html#a39a241c049e8d029cc86a30a89ef92cf" target="_top" xlink:title=" ">
<polygon fill="white" stroke="black" points="34,-86.64 34,-127.64 168,-127.64 168,-86.64 34,-86.64"/>
<text text-anchor="start" x="42" y="-115.64" font-family="Helvetica,sans-Serif" font-size="10.00">alpaqa::PANOCDirection</text>
<text text-anchor="start" x="42" y="-104.64" font-family="Helvetica,sans-Serif" font-size="10.00">&lt; SpecializedLBFGS &gt;::</text>
<text text-anchor="middle" x="101" y="-93.64" font-family="Helvetica,sans-Serif" font-size="10.00">update</text>
</a>
</g>
</g>
<!-- Node16&#45;&gt;Node17 -->
<g id="edge30" class="edge">
<title>Node16&#45;&gt;Node17</title>
<path fill="none" stroke="midnightblue" d="M257.1,-107.14C228.16,-107.14 195.89,-107.14 168.32,-107.14"/>
<polygon fill="midnightblue" stroke="midnightblue" points="257.19,-110.64 267.19,-107.14 257.19,-103.64 257.19,-110.64"/>
</g>
<!-- Node18&#45;&gt;Node16 -->
<g id="edge33" class="edge">
<title>Node18&#45;&gt;Node16</title>
<path fill="none" stroke="midnightblue" d="M485.76,-122.58C461.2,-119.98 434.42,-117.14 410.59,-114.62"/>
<polygon fill="midnightblue" stroke="midnightblue" points="485.45,-126.07 495.77,-123.64 486.19,-119.11 485.45,-126.07"/>
</g>
<!-- Node19&#45;&gt;Node3 -->
<g id="edge37" class="edge">
<title>Node19&#45;&gt;Node3</title>
<path fill="none" stroke="midnightblue" d="M710.01,-434.6C663.73,-436.73 559.34,-438.12 476,-414.14 427.73,-400.25 377.01,-367.93 353.47,-351.74"/>
<polygon fill="midnightblue" stroke="midnightblue" points="710.42,-438.09 720.23,-434.08 710.06,-431.1 710.42,-438.09"/>
</g>
<!-- Node19&#45;&gt;Node7 -->
<g id="edge36" class="edge">
<title>Node19&#45;&gt;Node7</title>
<path fill="none" stroke="midnightblue" d="M711.39,-446.04C705.89,-449.45 700.12,-453.27 695,-457.14 677.68,-470.22 678.31,-480.22 659,-490.14 637.01,-501.43 608.72,-506.01 589.68,-507.87"/>
<polygon fill="midnightblue" stroke="midnightblue" points="713.45,-448.89 720.23,-440.75 709.85,-442.89 713.45,-448.89"/>
</g>
<!-- Node19&#45;&gt;Node9 -->
<g id="edge39" class="edge">
<title>Node19&#45;&gt;Node9</title>
<path fill="none" stroke="midnightblue" d="M710.47,-438.54C679.25,-445.71 624.39,-458.3 592.79,-465.56"/>
<polygon fill="midnightblue" stroke="midnightblue" points="711.49,-441.9 720.46,-436.25 709.93,-435.07 711.49,-441.9"/>
</g>
<!-- Node19&#45;&gt;Node12 -->
<g id="edge38" class="edge">
<title>Node19&#45;&gt;Node12</title>
<path fill="none" stroke="midnightblue" d="M710.63,-427.77C679.91,-420.72 626.13,-408.37 594.27,-401.05"/>
<polygon fill="midnightblue" stroke="midnightblue" points="709.93,-431.2 720.46,-430.03 711.49,-424.38 709.93,-431.2"/>
</g>
</g>
</svg>
