<?xml version="1.0" encoding="UTF-8" standalone="no"?>
<!DOCTYPE svg PUBLIC "-//W3C//DTD SVG 1.1//EN"
 "http://www.w3.org/Graphics/SVG/1.1/DTD/svg11.dtd">
<!-- Generated by graphviz version 2.43.0 (0)
 -->
<!-- Title: ρ Pages: 1 -->
<svg width="602pt" height="144pt"
 viewBox="0.00 0.00 602.00 143.50" xmlns="http://www.w3.org/2000/svg" xmlns:xlink="http://www.w3.org/1999/xlink">
<g id="graph0" class="graph" transform="scale(1 1) rotate(0) translate(4 139.5)">
<title>ρ</title>
<polygon fill="white" stroke="transparent" points="-4,4 -4,-139.5 598,-139.5 598,4 -4,4"/>
<!-- Node1 -->
<g id="node1" class="node">
<title>Node1</title>
<g id="a_node1"><a xlink:title=" ">
<polygon fill="#bfbfbf" stroke="black" points="565,-57.5 565,-76.5 594,-76.5 594,-57.5 565,-57.5"/>
<text text-anchor="middle" x="579.5" y="-64.5" font-family="Helvetica,sans-Serif" font-size="10.00">ρ</text>
</a>
</g>
</g>
<!-- Node2 -->
<g id="node2" class="node">
<title>Node2</title>
<g id="a_node2"><a xlink:href="classalpaqa_1_1LBFGS.html#a33d8dd6fd12e1394c9637610086dae4c" target="_top" xlink:title="Apply the inverse Hessian approximation to the given vector q.">
<polygon fill="white" stroke="black" points="480.5,-114.5 480.5,-133.5 524.5,-133.5 524.5,-114.5 480.5,-114.5"/>
<text text-anchor="middle" x="502.5" y="-121.5" font-family="Helvetica,sans-Serif" font-size="10.00">apply</text>
</a>
</g>
</g>
<!-- Node1&#45;&gt;Node2 -->
<g id="edge1" class="edge">
<title>Node1&#45;&gt;Node2</title>
<path fill="none" stroke="midnightblue" d="M557.6,-82.88C544.24,-93.04 527.36,-105.87 516.03,-114.47"/>
<polygon fill="midnightblue" stroke="midnightblue" points="559.93,-85.51 565.78,-76.67 555.7,-79.93 559.93,-85.51"/>
</g>
<!-- Node5 -->
<g id="node5" class="node">
<title>Node5</title>
<g id="a_node5"><a xlink:href="alpaqa_8cpp.html#a52c00cccef0976f125d4a27f9906c36b" target="_top" xlink:title=" ">
<polygon fill="white" stroke="black" points="282.5,-62.5 282.5,-81.5 395.5,-81.5 395.5,-62.5 282.5,-62.5"/>
<text text-anchor="middle" x="339" y="-69.5" font-family="Helvetica,sans-Serif" font-size="10.00">PYBIND11_MODULE</text>
</a>
</g>
</g>
<!-- Node1&#45;&gt;Node5 -->
<g id="edge5" class="edge">
<title>Node1&#45;&gt;Node5</title>
<path fill="none" stroke="midnightblue" d="M554.75,-67.5C517.91,-68.27 445.98,-69.78 395.56,-70.84"/>
<polygon fill="midnightblue" stroke="midnightblue" points="555.07,-70.99 564.99,-67.28 554.92,-63.99 555.07,-70.99"/>
</g>
<!-- Node6 -->
<g id="node6" class="node">
<title>Node6</title>
<g id="a_node6"><a xlink:href="classalpaqa_1_1LBFGS.html#adeddc1e1eb8ce1c1bbaf931b6f9a5b9c" target="_top" xlink:title="Scale the stored y vectors by the given factor.">
<polygon fill="white" stroke="black" points="476,-38.5 476,-57.5 529,-57.5 529,-38.5 476,-38.5"/>
<text text-anchor="middle" x="502.5" y="-45.5" font-family="Helvetica,sans-Serif" font-size="10.00">scale_y</text>
</a>
</g>
</g>
<!-- Node1&#45;&gt;Node6 -->
<g id="edge6" class="edge">
<title>Node1&#45;&gt;Node6</title>
<path fill="none" stroke="midnightblue" d="M554.99,-61.05C546.74,-58.95 537.42,-56.59 529,-54.46"/>
<polygon fill="midnightblue" stroke="midnightblue" points="554.19,-64.45 564.74,-63.52 555.91,-57.67 554.19,-64.45"/>
</g>
<!-- Node7 -->
<g id="node7" class="node">
<title>Node7</title>
<g id="a_node7"><a xlink:href="classalpaqa_1_1LBFGS.html#a4db75f8c280c32a05a44bb83769befb1" target="_top" xlink:title="Update the inverse Hessian approximation using the new vectors xₖ₊₁ and pₖ₊₁.">
<polygon fill="white" stroke="black" points="477.5,-0.5 477.5,-19.5 527.5,-19.5 527.5,-0.5 477.5,-0.5"/>
<text text-anchor="middle" x="502.5" y="-7.5" font-family="Helvetica,sans-Serif" font-size="10.00">update</text>
</a>
</g>
</g>
<!-- Node1&#45;&gt;Node7 -->
<g id="edge8" class="edge">
<title>Node1&#45;&gt;Node7</title>
<path fill="none" stroke="midnightblue" d="M557.99,-51.15C549.1,-44.31 538.56,-36.23 529,-29 524.95,-25.94 520.52,-22.62 516.5,-19.63"/>
<polygon fill="midnightblue" stroke="midnightblue" points="555.87,-53.93 565.92,-57.27 560.14,-48.39 555.87,-53.93"/>
</g>
<!-- Node3 -->
<g id="node3" class="node">
<title>Node3</title>
<g id="a_node3"><a xlink:href="classalpaqa_1_1StructuredPANOCLBFGSSolver.html#a92bf6e99eb0770f053457e48cc3a3435" target="_top" xlink:title=" ">
<polygon fill="white" stroke="black" points="238,-105 238,-135 440,-135 440,-105 238,-105"/>
<text text-anchor="start" x="246" y="-123" font-family="Helvetica,sans-Serif" font-size="10.00">alpaqa::StructuredPANOCLBFGSSolver</text>
<text text-anchor="middle" x="339" y="-112" font-family="Helvetica,sans-Serif" font-size="10.00">::compute_quasi_newton_step</text>
</a>
</g>
</g>
<!-- Node2&#45;&gt;Node3 -->
<g id="edge2" class="edge">
<title>Node2&#45;&gt;Node3</title>
<path fill="none" stroke="midnightblue" d="M470.21,-123.23C461.29,-123 451.06,-122.75 440.34,-122.49"/>
<polygon fill="midnightblue" stroke="midnightblue" points="470.3,-126.73 480.39,-123.48 470.48,-119.73 470.3,-126.73"/>
</g>
<!-- Node2&#45;&gt;Node5 -->
<g id="edge4" class="edge">
<title>Node2&#45;&gt;Node5</title>
<path fill="none" stroke="midnightblue" d="M473.98,-110.11C463.52,-105.19 451.38,-99.92 440,-96 423.29,-90.25 404.54,-85.36 387.84,-81.52"/>
<polygon fill="midnightblue" stroke="midnightblue" points="472.51,-113.28 483.04,-114.47 475.55,-106.98 472.51,-113.28"/>
</g>
<!-- Node4 -->
<g id="node4" class="node">
<title>Node4</title>
<g id="a_node4"><a xlink:href="classalpaqa_1_1StructuredPANOCLBFGSSolver.html#ade95d8a7a1892d4087d6fffc958cde6e" target="_top" xlink:title=" ">
<polygon fill="white" stroke="black" points="0,-52 0,-82 202,-82 202,-52 0,-52"/>
<text text-anchor="start" x="8" y="-70" font-family="Helvetica,sans-Serif" font-size="10.00">alpaqa::StructuredPANOCLBFGSSolver</text>
<text text-anchor="middle" x="101" y="-59" font-family="Helvetica,sans-Serif" font-size="10.00">::operator()</text>
</a>
</g>
</g>
<!-- Node3&#45;&gt;Node4 -->
<g id="edge3" class="edge">
<title>Node3&#45;&gt;Node4</title>
<path fill="none" stroke="midnightblue" d="M261.11,-102.73C231.45,-96.07 197.83,-88.52 169.16,-82.08"/>
<polygon fill="midnightblue" stroke="midnightblue" points="260.48,-106.18 271,-104.95 262.01,-99.35 260.48,-106.18"/>
</g>
<!-- Node6&#45;&gt;Node5 -->
<g id="edge7" class="edge">
<title>Node6&#45;&gt;Node5</title>
<path fill="none" stroke="midnightblue" d="M465.99,-53.28C445.36,-56.34 418.9,-60.27 395.57,-63.74"/>
<polygon fill="midnightblue" stroke="midnightblue" points="466.53,-56.73 475.91,-51.8 465.5,-49.81 466.53,-56.73"/>
</g>
<!-- Node7&#45;&gt;Node4 -->
<g id="edge9" class="edge">
<title>Node7&#45;&gt;Node4</title>
<path fill="none" stroke="midnightblue" d="M467.3,-14.88C409.18,-23.17 289.03,-40.32 202.36,-52.68"/>
<polygon fill="midnightblue" stroke="midnightblue" points="468,-18.31 477.41,-13.44 467.02,-11.38 468,-18.31"/>
</g>
<!-- Node7&#45;&gt;Node5 -->
<g id="edge10" class="edge">
<title>Node7&#45;&gt;Node5</title>
<path fill="none" stroke="midnightblue" d="M474.37,-24.28C463.79,-29.57 451.48,-35.39 440,-40 418.52,-48.62 393.74,-56.57 374.22,-62.38"/>
<polygon fill="midnightblue" stroke="midnightblue" points="476.19,-27.28 483.51,-19.63 473.01,-21.04 476.19,-27.28"/>
</g>
</g>
</svg>
