<?xml version="1.0" encoding="UTF-8" standalone="no"?>
<!DOCTYPE svg PUBLIC "-//W3C//DTD SVG 1.1//EN"
 "http://www.w3.org/Graphics/SVG/1.1/DTD/svg11.dtd">
<!-- Generated by graphviz version 2.43.0 (0)
 -->
<!-- Title: alm.hpp Pages: 1 -->
<svg width="745pt" height="274pt"
 viewBox="0.00 0.00 745.00 274.00" xmlns="http://www.w3.org/2000/svg" xmlns:xlink="http://www.w3.org/1999/xlink">
<g id="graph0" class="graph" transform="scale(1 1) rotate(0) translate(4 270)">
<title>alm.hpp</title>
<polygon fill="white" stroke="transparent" points="-4,4 -4,-270 741,-270 741,4 -4,4"/>
<!-- Node1 -->
<g id="node1" class="node">
<title>Node1</title>
<g id="a_node1"><a xlink:title=" ">
<polygon fill="#bfbfbf" stroke="black" points="363,-246.5 363,-265.5 419,-265.5 419,-246.5 363,-246.5"/>
<text text-anchor="middle" x="391" y="-253.5" font-family="Helvetica,sans-Serif" font-size="10.00">alm.hpp</text>
</a>
</g>
</g>
<!-- Node2 -->
<g id="node2" class="node">
<title>Node2</title>
<g id="a_node2"><a xlink:href="panoc-fwd_8hpp.html" target="_top" xlink:title=" ">
<polygon fill="white" stroke="black" points="32.5,-179.5 32.5,-209.5 165.5,-209.5 165.5,-179.5 32.5,-179.5"/>
<text text-anchor="start" x="40.5" y="-197.5" font-family="Helvetica,sans-Serif" font-size="10.00">alpaqa/inner/decl/panoc</text>
<text text-anchor="middle" x="99" y="-186.5" font-family="Helvetica,sans-Serif" font-size="10.00">&#45;fwd.hpp</text>
</a>
</g>
</g>
<!-- Node1&#45;&gt;Node2 -->
<g id="edge1" class="edge">
<title>Node1&#45;&gt;Node2</title>
<path fill="none" stroke="midnightblue" d="M362.74,-249.24C319.96,-240.52 237.26,-223.67 175.82,-211.15"/>
<polygon fill="midnightblue" stroke="midnightblue" points="176.27,-207.67 165.77,-209.11 174.87,-214.53 176.27,-207.67"/>
</g>
<!-- Node4 -->
<g id="node4" class="node">
<title>Node4</title>
<g id="a_node4"><a xlink:href="include_2alpaqa_2util_2problem_8hpp.html" target="_top" xlink:title=" ">
<polygon fill="white" stroke="black" points="324.5,-185 324.5,-204 457.5,-204 457.5,-185 324.5,-185"/>
<text text-anchor="middle" x="391" y="-192" font-family="Helvetica,sans-Serif" font-size="10.00">alpaqa/util/problem.hpp</text>
</a>
</g>
</g>
<!-- Node1&#45;&gt;Node4 -->
<g id="edge3" class="edge">
<title>Node1&#45;&gt;Node4</title>
<path fill="none" stroke="midnightblue" d="M391,-246.48C391,-238.08 391,-224.98 391,-214.16"/>
<polygon fill="midnightblue" stroke="midnightblue" points="394.5,-214.01 391,-204.01 387.5,-214.01 394.5,-214.01"/>
</g>
<!-- Node9 -->
<g id="node9" class="node">
<title>Node9</title>
<g id="a_node9"><a xlink:title=" ">
<polygon fill="white" stroke="#bfbfbf" points="146,-118 146,-137 196,-137 196,-118 146,-118"/>
<text text-anchor="middle" x="171" y="-125" font-family="Helvetica,sans-Serif" font-size="10.00">chrono</text>
</a>
</g>
</g>
<!-- Node1&#45;&gt;Node9 -->
<g id="edge16" class="edge">
<title>Node1&#45;&gt;Node9</title>
<path fill="none" stroke="midnightblue" d="M375.88,-246.31C338.27,-224.68 240.26,-168.32 194.8,-142.18"/>
<polygon fill="midnightblue" stroke="midnightblue" points="196.35,-139.04 185.94,-137.09 192.86,-145.11 196.35,-139.04"/>
</g>
<!-- Node15 -->
<g id="node15" class="node">
<title>Node15</title>
<g id="a_node15"><a xlink:href="solverstatus_8hpp.html" target="_top" xlink:title=" ">
<polygon fill="white" stroke="black" points="476,-185 476,-204 628,-204 628,-185 476,-185"/>
<text text-anchor="middle" x="552" y="-192" font-family="Helvetica,sans-Serif" font-size="10.00">alpaqa/util/solverstatus.hpp</text>
</a>
</g>
</g>
<!-- Node1&#45;&gt;Node15 -->
<g id="edge14" class="edge">
<title>Node1&#45;&gt;Node15</title>
<path fill="none" stroke="midnightblue" d="M414.07,-246.48C441.68,-236.27 488.12,-219.11 519.4,-207.55"/>
<polygon fill="midnightblue" stroke="midnightblue" points="520.81,-210.76 528.98,-204.01 518.38,-204.19 520.81,-210.76"/>
</g>
<!-- Node16 -->
<g id="node16" class="node">
<title>Node16</title>
<g id="a_node16"><a xlink:title=" ">
<polygon fill="white" stroke="#bfbfbf" points="646,-185 646,-204 690,-204 690,-185 646,-185"/>
<text text-anchor="middle" x="668" y="-192" font-family="Helvetica,sans-Serif" font-size="10.00">string</text>
</a>
</g>
</g>
<!-- Node1&#45;&gt;Node16 -->
<g id="edge17" class="edge">
<title>Node1&#45;&gt;Node16</title>
<path fill="none" stroke="midnightblue" d="M419.24,-252.22C465.58,-247.13 560.28,-234.51 637,-210 638.67,-209.47 640.37,-208.86 642.07,-208.21"/>
<polygon fill="midnightblue" stroke="midnightblue" points="643.77,-211.29 651.58,-204.13 641.01,-204.86 643.77,-211.29"/>
</g>
<!-- Node3 -->
<g id="node3" class="node">
<title>Node3</title>
<g id="a_node3"><a xlink:href="lbfgs-fwd_8hpp.html" target="_top" xlink:title=" ">
<polygon fill="white" stroke="black" points="0,-112.5 0,-142.5 128,-142.5 128,-112.5 0,-112.5"/>
<text text-anchor="start" x="8" y="-130.5" font-family="Helvetica,sans-Serif" font-size="10.00">alpaqa/inner/directions</text>
<text text-anchor="middle" x="64" y="-119.5" font-family="Helvetica,sans-Serif" font-size="10.00">/decl/lbfgs&#45;fwd.hpp</text>
</a>
</g>
</g>
<!-- Node2&#45;&gt;Node3 -->
<g id="edge2" class="edge">
<title>Node2&#45;&gt;Node3</title>
<path fill="none" stroke="midnightblue" d="M91.41,-179.4C87,-171.22 81.35,-160.73 76.33,-151.39"/>
<polygon fill="midnightblue" stroke="midnightblue" points="79.4,-149.72 71.58,-142.58 73.24,-153.04 79.4,-149.72"/>
</g>
<!-- Node5 -->
<g id="node5" class="node">
<title>Node5</title>
<g id="a_node5"><a xlink:href="box_8hpp.html" target="_top" xlink:title=" ">
<polygon fill="white" stroke="black" points="214,-118 214,-137 270,-137 270,-118 214,-118"/>
<text text-anchor="middle" x="242" y="-125" font-family="Helvetica,sans-Serif" font-size="10.00">box.hpp</text>
</a>
</g>
</g>
<!-- Node4&#45;&gt;Node5 -->
<g id="edge4" class="edge">
<title>Node4&#45;&gt;Node5</title>
<path fill="none" stroke="midnightblue" d="M371.21,-184.87C345.61,-173.7 300.79,-154.15 271.25,-141.26"/>
<polygon fill="midnightblue" stroke="midnightblue" points="272.43,-137.96 261.87,-137.17 269.63,-144.37 272.43,-137.96"/>
</g>
<!-- Node8 -->
<g id="node8" class="node">
<title>Node8</title>
<g id="a_node8"><a xlink:title=" ">
<polygon fill="white" stroke="#bfbfbf" points="288,-118 288,-137 340,-137 340,-118 288,-118"/>
<text text-anchor="middle" x="314" y="-125" font-family="Helvetica,sans-Serif" font-size="10.00">cassert</text>
</a>
</g>
</g>
<!-- Node4&#45;&gt;Node8 -->
<g id="edge7" class="edge">
<title>Node4&#45;&gt;Node8</title>
<path fill="none" stroke="midnightblue" d="M380.62,-184.73C368.15,-174.21 347.03,-156.38 331.91,-143.62"/>
<polygon fill="midnightblue" stroke="midnightblue" points="334.12,-140.9 324.22,-137.13 329.6,-146.25 334.12,-140.9"/>
</g>
<!-- Node4&#45;&gt;Node9 -->
<g id="edge8" class="edge">
<title>Node4&#45;&gt;Node9</title>
<path fill="none" stroke="midnightblue" d="M353.49,-184.93C315.59,-175.89 255.58,-160.56 205,-143 203.14,-142.35 201.23,-141.65 199.32,-140.92"/>
<polygon fill="midnightblue" stroke="midnightblue" points="200.46,-137.61 189.88,-137.1 197.84,-144.1 200.46,-137.61"/>
</g>
<!-- Node10 -->
<g id="node10" class="node">
<title>Node10</title>
<g id="a_node10"><a xlink:title=" ">
<polygon fill="white" stroke="#bfbfbf" points="358.5,-118 358.5,-137 423.5,-137 423.5,-118 358.5,-118"/>
<text text-anchor="middle" x="391" y="-125" font-family="Helvetica,sans-Serif" font-size="10.00">functional</text>
</a>
</g>
</g>
<!-- Node4&#45;&gt;Node10 -->
<g id="edge9" class="edge">
<title>Node4&#45;&gt;Node10</title>
<path fill="none" stroke="midnightblue" d="M391,-184.73C391,-175.18 391,-159.62 391,-147.28"/>
<polygon fill="midnightblue" stroke="midnightblue" points="394.5,-147.13 391,-137.13 387.5,-147.13 394.5,-147.13"/>
</g>
<!-- Node11 -->
<g id="node11" class="node">
<title>Node11</title>
<g id="a_node11"><a xlink:title=" ">
<polygon fill="white" stroke="#bfbfbf" points="689,-118 689,-137 737,-137 737,-118 689,-118"/>
<text text-anchor="middle" x="713" y="-125" font-family="Helvetica,sans-Serif" font-size="10.00">iosfwd</text>
</a>
</g>
</g>
<!-- Node4&#45;&gt;Node11 -->
<g id="edge10" class="edge">
<title>Node4&#45;&gt;Node11</title>
<path fill="none" stroke="midnightblue" d="M434.78,-184.98C445.32,-182.98 456.56,-180.88 467,-179 561.49,-162 588.02,-170.52 680,-143 681.93,-142.42 683.9,-141.76 685.87,-141.04"/>
<polygon fill="midnightblue" stroke="midnightblue" points="687.53,-144.14 695.49,-137.15 684.91,-137.66 687.53,-144.14"/>
</g>
<!-- Node12 -->
<g id="node12" class="node">
<title>Node12</title>
<g id="a_node12"><a xlink:title=" ">
<polygon fill="white" stroke="#bfbfbf" points="442,-118 442,-137 500,-137 500,-118 442,-118"/>
<text text-anchor="middle" x="471" y="-125" font-family="Helvetica,sans-Serif" font-size="10.00">memory</text>
</a>
</g>
</g>
<!-- Node4&#45;&gt;Node12 -->
<g id="edge11" class="edge">
<title>Node4&#45;&gt;Node12</title>
<path fill="none" stroke="midnightblue" d="M401.79,-184.73C414.74,-174.21 436.69,-156.38 452.39,-143.62"/>
<polygon fill="midnightblue" stroke="midnightblue" points="454.83,-146.15 460.38,-137.13 450.41,-140.72 454.83,-146.15"/>
</g>
<!-- Node13 -->
<g id="node13" class="node">
<title>Node13</title>
<g id="a_node13"><a xlink:title=" ">
<polygon fill="white" stroke="#bfbfbf" points="518.5,-118 518.5,-137 583.5,-137 583.5,-118 518.5,-118"/>
<text text-anchor="middle" x="551" y="-125" font-family="Helvetica,sans-Serif" font-size="10.00">stdexcept</text>
</a>
</g>
</g>
<!-- Node4&#45;&gt;Node13 -->
<g id="edge12" class="edge">
<title>Node4&#45;&gt;Node13</title>
<path fill="none" stroke="midnightblue" d="M412.25,-184.87C439.94,-173.62 488.56,-153.87 520.27,-140.99"/>
<polygon fill="midnightblue" stroke="midnightblue" points="521.97,-144.07 529.92,-137.06 519.34,-137.58 521.97,-144.07"/>
</g>
<!-- Node14 -->
<g id="node14" class="node">
<title>Node14</title>
<g id="a_node14"><a xlink:title=" ">
<polygon fill="white" stroke="#bfbfbf" points="601.5,-118 601.5,-137 670.5,-137 670.5,-118 601.5,-118"/>
<text text-anchor="middle" x="636" y="-125" font-family="Helvetica,sans-Serif" font-size="10.00">type_traits</text>
</a>
</g>
</g>
<!-- Node4&#45;&gt;Node14 -->
<g id="edge13" class="edge">
<title>Node4&#45;&gt;Node14</title>
<path fill="none" stroke="midnightblue" d="M428.85,-185C469.62,-175.61 536.28,-159.62 593,-143 595.93,-142.14 598.96,-141.21 601.99,-140.25"/>
<polygon fill="midnightblue" stroke="midnightblue" points="603.13,-143.56 611.55,-137.12 600.96,-136.9 603.13,-143.56"/>
</g>
<!-- Node6 -->
<g id="node6" class="node">
<title>Node6</title>
<g id="a_node6"><a xlink:href="vec_8hpp.html" target="_top" xlink:title=" ">
<polygon fill="white" stroke="black" points="214.5,-56.5 214.5,-75.5 269.5,-75.5 269.5,-56.5 214.5,-56.5"/>
<text text-anchor="middle" x="242" y="-63.5" font-family="Helvetica,sans-Serif" font-size="10.00">vec.hpp</text>
</a>
</g>
</g>
<!-- Node5&#45;&gt;Node6 -->
<g id="edge5" class="edge">
<title>Node5&#45;&gt;Node6</title>
<path fill="none" stroke="midnightblue" d="M242,-117.98C242,-109.58 242,-96.48 242,-85.66"/>
<polygon fill="midnightblue" stroke="midnightblue" points="245.5,-85.51 242,-75.51 238.5,-85.51 245.5,-85.51"/>
</g>
<!-- Node7 -->
<g id="node7" class="node">
<title>Node7</title>
<g id="a_node7"><a xlink:title=" ">
<polygon fill="white" stroke="#bfbfbf" points="207.5,-0.5 207.5,-19.5 276.5,-19.5 276.5,-0.5 207.5,-0.5"/>
<text text-anchor="middle" x="242" y="-7.5" font-family="Helvetica,sans-Serif" font-size="10.00">Eigen/Core</text>
</a>
</g>
</g>
<!-- Node6&#45;&gt;Node7 -->
<g id="edge6" class="edge">
<title>Node6&#45;&gt;Node7</title>
<path fill="none" stroke="midnightblue" d="M242,-56.08C242,-49.01 242,-38.86 242,-29.99"/>
<polygon fill="midnightblue" stroke="midnightblue" points="245.5,-29.75 242,-19.75 238.5,-29.75 245.5,-29.75"/>
</g>
<!-- Node15&#45;&gt;Node11 -->
<g id="edge15" class="edge">
<title>Node15&#45;&gt;Node11</title>
<path fill="none" stroke="midnightblue" d="M574.3,-185C599.92,-175.16 643.18,-158.35 680,-143 681.41,-142.41 682.85,-141.81 684.3,-141.19"/>
<polygon fill="midnightblue" stroke="midnightblue" points="686.07,-144.24 693.86,-137.06 683.29,-137.81 686.07,-144.24"/>
</g>
</g>
</svg>
