<?xml version="1.0" encoding="UTF-8" standalone="no"?>
<!DOCTYPE svg PUBLIC "-//W3C//DTD SVG 1.1//EN"
 "http://www.w3.org/Graphics/SVG/1.1/DTD/svg11.dtd">
<!-- Generated by graphviz version 2.43.0 (0)
 -->
<!-- Title: alpaqa Pages: 1 -->
<svg width="374pt" height="399pt"
 viewBox="0.00 0.00 374.00 399.00" xmlns="http://www.w3.org/2000/svg" xmlns:xlink="http://www.w3.org/1999/xlink">
<g id="graph0" class="graph" transform="scale(1 1) rotate(0) translate(4 395)">
<title>alpaqa</title>
<polygon fill="white" stroke="transparent" points="-4,4 -4,-395 370,-395 370,4 -4,4"/>
<g id="clust1" class="cluster">
<title>clusterdir_b0856f6b0d80ccb263b2f415c91f9e17</title>
<g id="a_clust1"><a xlink:href="dir_b0856f6b0d80ccb263b2f415c91f9e17.html" target="_top" xlink:title="include">
<polygon fill="#ddddee" stroke="black" points="8,-8 8,-383 358,-383 358,-8 8,-8"/>
<text text-anchor="middle" x="183" y="-371" font-family="Helvetica,sans-Serif" font-size="10.00">include</text>
</a>
</g>
</g>
<g id="clust2" class="cluster">
<title>clusterdir_f57d8358e43ebe22b9790021173863ad</title>
<g id="a_clust2"><a xlink:href="dir_f57d8358e43ebe22b9790021173863ad.html" target="_top">
<polygon fill="#eeeeff" stroke="black" points="16,-16 16,-356 350,-356 350,-16 16,-16"/>
</a>
</g>
</g>
<!-- dir_f57d8358e43ebe22b9790021173863ad -->
<g id="node1" class="node">
<title>dir_f57d8358e43ebe22b9790021173863ad</title>
<text text-anchor="middle" x="305" y="-327.5" font-family="Helvetica,sans-Serif" font-size="10.00">alpaqa</text>
</g>
<!-- dir_c7047189e44a70232edc0831ac8b48d1 -->
<g id="node3" class="node">
<title>dir_c7047189e44a70232edc0831ac8b48d1</title>
<g id="a_node3"><a xlink:href="dir_c7047189e44a70232edc0831ac8b48d1.html" target="_top" xlink:title="detail">
<polygon fill="white" stroke="black" points="322,-276 268,-276 268,-240 322,-240 322,-276"/>
<text text-anchor="middle" x="295" y="-255.5" font-family="Helvetica,sans-Serif" font-size="10.00">detail</text>
</a>
</g>
</g>
<!-- dir_f57d8358e43ebe22b9790021173863ad&#45;&gt;dir_c7047189e44a70232edc0831ac8b48d1 -->
<g id="edge9" class="edge">
<title>dir_f57d8358e43ebe22b9790021173863ad&#45;&gt;dir_c7047189e44a70232edc0831ac8b48d1</title>
<path fill="none" stroke="black" d="M302.53,-311.7C301.43,-303.98 300.1,-294.71 298.87,-286.11"/>
<polygon fill="black" stroke="black" points="302.32,-285.51 297.44,-276.1 295.39,-286.5 302.32,-285.51"/>
<g id="a_edge9&#45;headlabel"><a xlink:href="dir_000020_000022.html" target="_top" xlink:title="1">
<text text-anchor="middle" x="305.64" y="-286.17" font-family="Helvetica,sans-Serif" font-size="10.00">1</text>
</a>
</g>
</g>
<!-- dir_f970061d1d9886b12ba388abbac18d91 -->
<g id="node8" class="node">
<title>dir_f970061d1d9886b12ba388abbac18d91</title>
<g id="a_node8"><a xlink:href="dir_f970061d1d9886b12ba388abbac18d91.html" target="_top" xlink:title="util">
<polygon fill="white" stroke="black" points="251,-60 197,-60 197,-24 251,-24 251,-60"/>
<text text-anchor="middle" x="224" y="-39.5" font-family="Helvetica,sans-Serif" font-size="10.00">util</text>
</a>
</g>
</g>
<!-- dir_f57d8358e43ebe22b9790021173863ad&#45;&gt;dir_f970061d1d9886b12ba388abbac18d91 -->
<g id="edge10" class="edge">
<title>dir_f57d8358e43ebe22b9790021173863ad&#45;&gt;dir_f970061d1d9886b12ba388abbac18d91</title>
<path fill="none" stroke="black" d="M316.05,-311.61C321.74,-301.62 328.08,-288.58 331,-276 349.13,-197.87 364.47,-161.37 318,-96 304.1,-76.45 280.59,-63.2 260.56,-54.83"/>
<polygon fill="black" stroke="black" points="261.65,-51.5 251.06,-51.11 259.1,-58.02 261.65,-51.5"/>
<g id="a_edge10&#45;headlabel"><a xlink:href="dir_000020_000033.html" target="_top" xlink:title="41">
<text text-anchor="middle" x="266.03" y="-47.67" font-family="Helvetica,sans-Serif" font-size="10.00">41</text>
</a>
</g>
</g>
<!-- dir_d25d4cd5290ccb2f67bbab9fc39c2632 -->
<g id="node2" class="node">
<title>dir_d25d4cd5290ccb2f67bbab9fc39c2632</title>
<g id="a_node2"><a xlink:href="dir_d25d4cd5290ccb2f67bbab9fc39c2632.html" target="_top" xlink:title="decl">
<polygon fill="white" stroke="black" points="322,-204 268,-204 268,-168 322,-168 322,-204"/>
<text text-anchor="middle" x="295" y="-183.5" font-family="Helvetica,sans-Serif" font-size="10.00">decl</text>
</a>
</g>
</g>
<!-- dir_7ca33c757e81da6d5a059c18204aa256 -->
<g id="node4" class="node">
<title>dir_7ca33c757e81da6d5a059c18204aa256</title>
<g id="a_node4"><a xlink:href="dir_7ca33c757e81da6d5a059c18204aa256.html" target="_top" xlink:title="inner">
<polygon fill="white" stroke="red" points="98,-132 44,-132 44,-96 98,-96 98,-132"/>
<text text-anchor="middle" x="71" y="-111.5" font-family="Helvetica,sans-Serif" font-size="10.00">inner</text>
</a>
</g>
</g>
<!-- dir_d25d4cd5290ccb2f67bbab9fc39c2632&#45;&gt;dir_7ca33c757e81da6d5a059c18204aa256 -->
<g id="edge6" class="edge">
<title>dir_d25d4cd5290ccb2f67bbab9fc39c2632&#45;&gt;dir_7ca33c757e81da6d5a059c18204aa256</title>
<path fill="none" stroke="black" d="M267.95,-178.73C231.21,-169.9 163.72,-152.56 108,-132 107.9,-131.96 107.8,-131.93 107.7,-131.89"/>
<polygon fill="black" stroke="black" points="108.86,-128.58 98.28,-128.11 106.26,-135.08 108.86,-128.58"/>
<g id="a_edge6&#45;headlabel"><a xlink:href="dir_000021_000023.html" target="_top" xlink:title="1">
<text text-anchor="middle" x="113.26" y="-124.79" font-family="Helvetica,sans-Serif" font-size="10.00">1</text>
</a>
</g>
</g>
<!-- dir_d25d4cd5290ccb2f67bbab9fc39c2632&#45;&gt;dir_f970061d1d9886b12ba388abbac18d91 -->
<g id="edge7" class="edge">
<title>dir_d25d4cd5290ccb2f67bbab9fc39c2632&#45;&gt;dir_f970061d1d9886b12ba388abbac18d91</title>
<path fill="none" stroke="black" d="M304.44,-167.82C313.37,-149.03 323.69,-118.58 311,-96 300.23,-76.83 279.4,-63.78 260.82,-55.42"/>
<polygon fill="black" stroke="black" points="261.96,-52.1 251.38,-51.48 259.26,-58.56 261.96,-52.1"/>
<g id="a_edge7&#45;headlabel"><a xlink:href="dir_000021_000033.html" target="_top" xlink:title="2">
<text text-anchor="middle" x="266.37" y="-48.37" font-family="Helvetica,sans-Serif" font-size="10.00">2</text>
</a>
</g>
</g>
<!-- dir_c7047189e44a70232edc0831ac8b48d1&#45;&gt;dir_d25d4cd5290ccb2f67bbab9fc39c2632 -->
<g id="edge5" class="edge">
<title>dir_c7047189e44a70232edc0831ac8b48d1&#45;&gt;dir_d25d4cd5290ccb2f67bbab9fc39c2632</title>
<path fill="none" stroke="black" d="M295,-239.7C295,-231.98 295,-222.71 295,-214.11"/>
<polygon fill="black" stroke="black" points="298.5,-214.1 295,-204.1 291.5,-214.1 298.5,-214.1"/>
<g id="a_edge5&#45;headlabel"><a xlink:href="dir_000022_000021.html" target="_top" xlink:title="1">
<text text-anchor="middle" x="301.34" y="-215.2" font-family="Helvetica,sans-Serif" font-size="10.00">1</text>
</a>
</g>
</g>
<!-- dir_7ca33c757e81da6d5a059c18204aa256&#45;&gt;dir_f970061d1d9886b12ba388abbac18d91 -->
<g id="edge4" class="edge">
<title>dir_7ca33c757e81da6d5a059c18204aa256&#45;&gt;dir_f970061d1d9886b12ba388abbac18d91</title>
<path fill="none" stroke="black" d="M98.07,-100.55C101.42,-99.02 104.79,-97.47 108,-96 134.6,-83.81 164.64,-70.09 187.48,-59.66"/>
<polygon fill="black" stroke="black" points="189.16,-62.74 196.8,-55.41 186.25,-56.37 189.16,-62.74"/>
<g id="a_edge4&#45;headlabel"><a xlink:href="dir_000023_000033.html" target="_top" xlink:title="30">
<text text-anchor="middle" x="187.07" y="-64.32" font-family="Helvetica,sans-Serif" font-size="10.00">30</text>
</a>
</g>
</g>
<!-- dir_6b78772af78d30cbc031af89b589b90a -->
<g id="node5" class="node">
<title>dir_6b78772af78d30cbc031af89b589b90a</title>
<g id="a_node5"><a xlink:href="dir_6b78772af78d30cbc031af89b589b90a.html" target="_top" xlink:title="interop">
<polygon fill="white" stroke="red" points="302,-132 248,-132 248,-96 302,-96 302,-132"/>
<text text-anchor="middle" x="275" y="-111.5" font-family="Helvetica,sans-Serif" font-size="10.00">interop</text>
</a>
</g>
</g>
<!-- dir_6b78772af78d30cbc031af89b589b90a&#45;&gt;dir_f970061d1d9886b12ba388abbac18d91 -->
<g id="edge3" class="edge">
<title>dir_6b78772af78d30cbc031af89b589b90a&#45;&gt;dir_f970061d1d9886b12ba388abbac18d91</title>
<path fill="none" stroke="black" d="M262.39,-95.7C256.4,-87.47 249.12,-77.48 242.52,-68.42"/>
<polygon fill="black" stroke="black" points="245.18,-66.13 236.46,-60.1 239.52,-70.25 245.18,-66.13"/>
<g id="a_edge3&#45;headlabel"><a xlink:href="dir_000028_000033.html" target="_top" xlink:title="3">
<text text-anchor="middle" x="249.59" y="-64.86" font-family="Helvetica,sans-Serif" font-size="10.00">3</text>
</a>
</g>
</g>
<!-- dir_f3d2fc08cfaaa4a4d8ce50d8c16f678c -->
<g id="node6" class="node">
<title>dir_f3d2fc08cfaaa4a4d8ce50d8c16f678c</title>
<g id="a_node6"><a xlink:href="dir_f3d2fc08cfaaa4a4d8ce50d8c16f678c.html" target="_top" xlink:title="reference&#45;problems">
<polygon fill="white" stroke="black" points="229.5,-132 116.5,-132 116.5,-96 229.5,-96 229.5,-132"/>
<text text-anchor="middle" x="173" y="-111.5" font-family="Helvetica,sans-Serif" font-size="10.00">reference&#45;problems</text>
</a>
</g>
</g>
<!-- dir_f3d2fc08cfaaa4a4d8ce50d8c16f678c&#45;&gt;dir_f970061d1d9886b12ba388abbac18d91 -->
<g id="edge8" class="edge">
<title>dir_f3d2fc08cfaaa4a4d8ce50d8c16f678c&#45;&gt;dir_f970061d1d9886b12ba388abbac18d91</title>
<path fill="none" stroke="black" d="M185.61,-95.7C191.6,-87.47 198.88,-77.48 205.48,-68.42"/>
<polygon fill="black" stroke="black" points="208.48,-70.25 211.54,-60.1 202.82,-66.13 208.48,-70.25"/>
<g id="a_edge8&#45;headlabel"><a xlink:href="dir_000031_000033.html" target="_top" xlink:title="2">
<text text-anchor="middle" x="208.66" y="-72.32" font-family="Helvetica,sans-Serif" font-size="10.00">2</text>
</a>
</g>
</g>
<!-- dir_31d7fed822d7341cdd262c3a79ffd3cb -->
<g id="node7" class="node">
<title>dir_31d7fed822d7341cdd262c3a79ffd3cb</title>
<g id="a_node7"><a xlink:href="dir_31d7fed822d7341cdd262c3a79ffd3cb.html" target="_top" xlink:title="standalone">
<polygon fill="white" stroke="black" points="101.5,-204 30.5,-204 30.5,-168 101.5,-168 101.5,-204"/>
<text text-anchor="middle" x="66" y="-183.5" font-family="Helvetica,sans-Serif" font-size="10.00">standalone</text>
</a>
</g>
</g>
<!-- dir_31d7fed822d7341cdd262c3a79ffd3cb&#45;&gt;dir_7ca33c757e81da6d5a059c18204aa256 -->
<g id="edge1" class="edge">
<title>dir_31d7fed822d7341cdd262c3a79ffd3cb&#45;&gt;dir_7ca33c757e81da6d5a059c18204aa256</title>
<path fill="none" stroke="black" d="M67.24,-167.7C67.79,-159.98 68.45,-150.71 69.06,-142.11"/>
<polygon fill="black" stroke="black" points="72.56,-142.33 69.78,-132.1 65.57,-141.83 72.56,-142.33"/>
<g id="a_edge1&#45;headlabel"><a xlink:href="dir_000032_000023.html" target="_top" xlink:title="2">
<text text-anchor="middle" x="75.13" y="-143.62" font-family="Helvetica,sans-Serif" font-size="10.00">2</text>
</a>
</g>
</g>
<!-- dir_31d7fed822d7341cdd262c3a79ffd3cb&#45;&gt;dir_f970061d1d9886b12ba388abbac18d91 -->
<g id="edge2" class="edge">
<title>dir_31d7fed822d7341cdd262c3a79ffd3cb&#45;&gt;dir_f970061d1d9886b12ba388abbac18d91</title>
<path fill="none" stroke="black" d="M51.12,-167.76C36.5,-148.64 18.59,-117.64 35,-96 53.26,-71.91 136.96,-55.76 186.64,-48.11"/>
<polygon fill="black" stroke="black" points="187.32,-51.55 196.69,-46.61 186.28,-44.63 187.32,-51.55"/>
<g id="a_edge2&#45;headlabel"><a xlink:href="dir_000032_000033.html" target="_top" xlink:title="3">
<text text-anchor="middle" x="184.18" y="-52.39" font-family="Helvetica,sans-Serif" font-size="10.00">3</text>
</a>
</g>
</g>
</g>
</svg>
