<?xml version="1.0" encoding="UTF-8" standalone="no"?>
<!DOCTYPE svg PUBLIC "-//W3C//DTD SVG 1.1//EN"
 "http://www.w3.org/Graphics/SVG/1.1/DTD/svg11.dtd">
<!-- Generated by graphviz version 2.43.0 (0)
 -->
<!-- Title: guarded&#45;aa&#45;pga.hpp Pages: 1 -->
<svg width="1235pt" height="330pt"
 viewBox="0.00 0.00 1234.50 330.00" xmlns="http://www.w3.org/2000/svg" xmlns:xlink="http://www.w3.org/1999/xlink">
<g id="graph0" class="graph" transform="scale(1 1) rotate(0) translate(4 326)">
<title>guarded&#45;aa&#45;pga.hpp</title>
<polygon fill="white" stroke="transparent" points="-4,4 -4,-326 1230.5,-326 1230.5,4 -4,4"/>
<!-- Node1 -->
<g id="node1" class="node">
<title>Node1</title>
<g id="a_node1"><a xlink:title=" ">
<polygon fill="#bfbfbf" stroke="black" points="846,-302.5 846,-321.5 961,-321.5 961,-302.5 846,-302.5"/>
<text text-anchor="middle" x="903.5" y="-309.5" font-family="Helvetica,sans-Serif" font-size="10.00">guarded&#45;aa&#45;pga.hpp</text>
</a>
</g>
</g>
<!-- Node2 -->
<g id="node2" class="node">
<title>Node2</title>
<g id="a_node2"><a xlink:href="panoc-stop-crit_8hpp.html" target="_top" xlink:title=" ">
<polygon fill="white" stroke="black" points="69,-168.5 69,-198.5 202,-198.5 202,-168.5 69,-168.5"/>
<text text-anchor="start" x="77" y="-186.5" font-family="Helvetica,sans-Serif" font-size="10.00">alpaqa/inner/decl/panoc</text>
<text text-anchor="middle" x="135.5" y="-175.5" font-family="Helvetica,sans-Serif" font-size="10.00">&#45;stop&#45;crit.hpp</text>
</a>
</g>
</g>
<!-- Node1&#45;&gt;Node2 -->
<g id="edge1" class="edge">
<title>Node1&#45;&gt;Node2</title>
<path fill="none" stroke="midnightblue" d="M845.78,-309.27C692.8,-304.39 284.75,-289.32 228.5,-266 197.61,-253.19 169.89,-225.8 152.91,-206.31"/>
<polygon fill="midnightblue" stroke="midnightblue" points="155.44,-203.89 146.31,-198.51 150.09,-208.41 155.44,-203.89"/>
</g>
<!-- Node4 -->
<g id="node4" class="node">
<title>Node4</title>
<g id="a_node4"><a xlink:title=" ">
<polygon fill="white" stroke="#bfbfbf" points="75,-112.5 75,-131.5 140,-131.5 140,-112.5 75,-112.5"/>
<text text-anchor="middle" x="107.5" y="-119.5" font-family="Helvetica,sans-Serif" font-size="10.00">stdexcept</text>
</a>
</g>
</g>
<!-- Node1&#45;&gt;Node4 -->
<g id="edge42" class="edge">
<title>Node1&#45;&gt;Node4</title>
<path fill="none" stroke="midnightblue" d="M845.78,-310.59C720.64,-309.04 428.22,-301.59 336.5,-266 270.36,-240.34 271.48,-204.26 210.5,-168 188.45,-154.89 161.88,-143.37 141.25,-135.27"/>
<polygon fill="midnightblue" stroke="midnightblue" points="142.23,-131.9 131.64,-131.58 139.72,-138.44 142.23,-131.9"/>
</g>
<!-- Node5 -->
<g id="node5" class="node">
<title>Node5</title>
<g id="a_node5"><a xlink:href="anderson-helpers_8hpp.html" target="_top" xlink:title=" ">
<polygon fill="white" stroke="black" points="346,-235.5 346,-265.5 471,-265.5 471,-235.5 346,-235.5"/>
<text text-anchor="start" x="354" y="-253.5" font-family="Helvetica,sans-Serif" font-size="10.00">alpaqa/inner/detail</text>
<text text-anchor="middle" x="408.5" y="-242.5" font-family="Helvetica,sans-Serif" font-size="10.00">/anderson&#45;helpers.hpp</text>
</a>
</g>
</g>
<!-- Node1&#45;&gt;Node5 -->
<g id="edge4" class="edge">
<title>Node1&#45;&gt;Node5</title>
<path fill="none" stroke="midnightblue" d="M845.75,-304.06C755.35,-293.19 580.56,-272.18 481.54,-260.28"/>
<polygon fill="midnightblue" stroke="midnightblue" points="481.67,-256.77 471.32,-259.05 480.83,-263.72 481.67,-256.77"/>
</g>
<!-- Node16 -->
<g id="node16" class="node">
<title>Node16</title>
<g id="a_node16"><a xlink:href="panoc-helpers_8hpp.html" target="_top" xlink:title=" ">
<polygon fill="white" stroke="black" points="614.5,-235.5 614.5,-265.5 724.5,-265.5 724.5,-235.5 614.5,-235.5"/>
<text text-anchor="start" x="622.5" y="-253.5" font-family="Helvetica,sans-Serif" font-size="10.00">alpaqa/inner/detail</text>
<text text-anchor="middle" x="669.5" y="-242.5" font-family="Helvetica,sans-Serif" font-size="10.00">/panoc&#45;helpers.hpp</text>
</a>
</g>
</g>
<!-- Node1&#45;&gt;Node16 -->
<g id="edge16" class="edge">
<title>Node1&#45;&gt;Node16</title>
<path fill="none" stroke="midnightblue" d="M869.97,-302.48C834.73,-293.51 778.39,-279.19 734.4,-268"/>
<polygon fill="midnightblue" stroke="midnightblue" points="735.2,-264.6 724.65,-265.52 733.48,-271.38 735.2,-264.6"/>
</g>
<!-- Node17 -->
<g id="node17" class="node">
<title>Node17</title>
<g id="a_node17"><a xlink:href="atomic__stop__signal_8hpp.html" target="_top" xlink:title=" ">
<polygon fill="white" stroke="black" points="951,-168.5 951,-198.5 1056,-198.5 1056,-168.5 951,-168.5"/>
<text text-anchor="start" x="959" y="-186.5" font-family="Helvetica,sans-Serif" font-size="10.00">alpaqa/util/atomic</text>
<text text-anchor="middle" x="1003.5" y="-175.5" font-family="Helvetica,sans-Serif" font-size="10.00">_stop_signal.hpp</text>
</a>
</g>
</g>
<!-- Node1&#45;&gt;Node17 -->
<g id="edge33" class="edge">
<title>Node1&#45;&gt;Node17</title>
<path fill="none" stroke="midnightblue" d="M910.37,-302.31C925.73,-282.88 963.23,-235.44 985.68,-207.04"/>
<polygon fill="midnightblue" stroke="midnightblue" points="988.67,-208.9 992.13,-198.89 983.18,-204.56 988.67,-208.9"/>
</g>
<!-- Node21 -->
<g id="node21" class="node">
<title>Node21</title>
<g id="a_node21"><a xlink:title=" ">
<polygon fill="white" stroke="#bfbfbf" points="874.5,-112.5 874.5,-131.5 926.5,-131.5 926.5,-112.5 874.5,-112.5"/>
<text text-anchor="middle" x="900.5" y="-119.5" font-family="Helvetica,sans-Serif" font-size="10.00">cassert</text>
</a>
</g>
</g>
<!-- Node1&#45;&gt;Node21 -->
<g id="edge37" class="edge">
<title>Node1&#45;&gt;Node21</title>
<path fill="none" stroke="midnightblue" d="M903.36,-302.43C902.91,-273.93 901.44,-181.82 900.8,-141.83"/>
<polygon fill="midnightblue" stroke="midnightblue" points="904.3,-141.56 900.64,-131.62 897.3,-141.67 904.3,-141.56"/>
</g>
<!-- Node22 -->
<g id="node22" class="node">
<title>Node22</title>
<g id="a_node22"><a xlink:title=" ">
<polygon fill="white" stroke="#bfbfbf" points="944.5,-112.5 944.5,-131.5 994.5,-131.5 994.5,-112.5 944.5,-112.5"/>
<text text-anchor="middle" x="969.5" y="-119.5" font-family="Helvetica,sans-Serif" font-size="10.00">chrono</text>
</a>
</g>
</g>
<!-- Node1&#45;&gt;Node22 -->
<g id="edge38" class="edge">
<title>Node1&#45;&gt;Node22</title>
<path fill="none" stroke="midnightblue" d="M904.88,-302.32C908.69,-279.57 920.5,-216.57 941.5,-168 945.75,-158.18 951.91,-148 957.37,-139.81"/>
<polygon fill="midnightblue" stroke="midnightblue" points="960.29,-141.75 963.11,-131.54 954.53,-137.76 960.29,-141.75"/>
</g>
<!-- Node26 -->
<g id="node26" class="node">
<title>Node26</title>
<g id="a_node26"><a xlink:href="solverstatus_8hpp.html" target="_top" xlink:title=" ">
<polygon fill="white" stroke="black" points="704.5,-174 704.5,-193 856.5,-193 856.5,-174 704.5,-174"/>
<text text-anchor="middle" x="780.5" y="-181" font-family="Helvetica,sans-Serif" font-size="10.00">alpaqa/util/solverstatus.hpp</text>
</a>
</g>
</g>
<!-- Node1&#45;&gt;Node26 -->
<g id="edge36" class="edge">
<title>Node1&#45;&gt;Node26</title>
<path fill="none" stroke="midnightblue" d="M895.05,-302.31C874.68,-281.36 822.65,-227.85 796.3,-200.75"/>
<polygon fill="midnightblue" stroke="midnightblue" points="798.49,-197.99 789.01,-193.26 793.48,-202.87 798.49,-197.99"/>
</g>
<!-- Node27 -->
<g id="node27" class="node">
<title>Node27</title>
<g id="a_node27"><a xlink:href="lipschitz_8hpp.html" target="_top" xlink:title=" ">
<polygon fill="white" stroke="black" points="1074,-174 1074,-193 1207,-193 1207,-174 1074,-174"/>
<text text-anchor="middle" x="1140.5" y="-181" font-family="Helvetica,sans-Serif" font-size="10.00">alpaqa/util/lipschitz.hpp</text>
</a>
</g>
</g>
<!-- Node1&#45;&gt;Node27 -->
<g id="edge34" class="edge">
<title>Node1&#45;&gt;Node27</title>
<path fill="none" stroke="midnightblue" d="M914.8,-302.47C934.91,-287.53 978.55,-256.22 1018.5,-235 1047.28,-219.72 1081.7,-205.84 1106.64,-196.51"/>
<polygon fill="midnightblue" stroke="midnightblue" points="1107.86,-199.79 1116.03,-193.05 1105.44,-193.23 1107.86,-199.79"/>
</g>
<!-- Node28 -->
<g id="node28" class="node">
<title>Node28</title>
<g id="a_node28"><a xlink:title=" ">
<polygon fill="white" stroke="#bfbfbf" points="1027,-241 1027,-260 1074,-260 1074,-241 1027,-241"/>
<text text-anchor="middle" x="1050.5" y="-248" font-family="Helvetica,sans-Serif" font-size="10.00">cmath</text>
</a>
</g>
</g>
<!-- Node1&#45;&gt;Node28 -->
<g id="edge39" class="edge">
<title>Node1&#45;&gt;Node28</title>
<path fill="none" stroke="midnightblue" d="M924.56,-302.48C949.56,-292.36 991.44,-275.4 1019.99,-263.85"/>
<polygon fill="midnightblue" stroke="midnightblue" points="1021.52,-267.01 1029.48,-260.01 1018.89,-260.52 1021.52,-267.01"/>
</g>
<!-- Node29 -->
<g id="node29" class="node">
<title>Node29</title>
<g id="a_node29"><a xlink:title=" ">
<polygon fill="white" stroke="#bfbfbf" points="1092.5,-241 1092.5,-260 1148.5,-260 1148.5,-241 1092.5,-241"/>
<text text-anchor="middle" x="1120.5" y="-248" font-family="Helvetica,sans-Serif" font-size="10.00">iomanip</text>
</a>
</g>
</g>
<!-- Node1&#45;&gt;Node29 -->
<g id="edge40" class="edge">
<title>Node1&#45;&gt;Node29</title>
<path fill="none" stroke="midnightblue" d="M943.95,-302.45C980.71,-294.31 1036.25,-281.1 1083.5,-266 1085.77,-265.27 1088.11,-264.48 1090.45,-263.65"/>
<polygon fill="midnightblue" stroke="midnightblue" points="1091.78,-266.88 1099.93,-260.1 1089.33,-260.33 1091.78,-266.88"/>
</g>
<!-- Node30 -->
<g id="node30" class="node">
<title>Node30</title>
<g id="a_node30"><a xlink:title=" ">
<polygon fill="white" stroke="#bfbfbf" points="1166.5,-241 1166.5,-260 1226.5,-260 1226.5,-241 1166.5,-241"/>
<text text-anchor="middle" x="1196.5" y="-248" font-family="Helvetica,sans-Serif" font-size="10.00">iostream</text>
</a>
</g>
</g>
<!-- Node1&#45;&gt;Node30 -->
<g id="edge41" class="edge">
<title>Node1&#45;&gt;Node30</title>
<path fill="none" stroke="midnightblue" d="M961.15,-303.81C1013.06,-296.63 1091.17,-284.05 1157.5,-266 1160.31,-265.24 1163.2,-264.35 1166.08,-263.41"/>
<polygon fill="midnightblue" stroke="midnightblue" points="1167.4,-266.65 1175.68,-260.03 1165.08,-260.05 1167.4,-266.65"/>
</g>
<!-- Node3 -->
<g id="node3" class="node">
<title>Node3</title>
<g id="a_node3"><a xlink:title=" ">
<polygon fill="white" stroke="#bfbfbf" points="0,-112.5 0,-131.5 57,-131.5 57,-112.5 0,-112.5"/>
<text text-anchor="middle" x="28.5" y="-119.5" font-family="Helvetica,sans-Serif" font-size="10.00">ostream</text>
</a>
</g>
</g>
<!-- Node2&#45;&gt;Node3 -->
<g id="edge2" class="edge">
<title>Node2&#45;&gt;Node3</title>
<path fill="none" stroke="midnightblue" d="M110.14,-168.4C92.83,-158.77 70.02,-146.09 52.92,-136.58"/>
<polygon fill="midnightblue" stroke="midnightblue" points="54.51,-133.46 44.07,-131.66 51.11,-139.58 54.51,-133.46"/>
</g>
<!-- Node2&#45;&gt;Node4 -->
<g id="edge3" class="edge">
<title>Node2&#45;&gt;Node4</title>
<path fill="none" stroke="midnightblue" d="M128.86,-168.4C124.96,-160.11 120,-149.55 115.83,-140.71"/>
<polygon fill="midnightblue" stroke="midnightblue" points="119,-139.22 111.57,-131.66 112.67,-142.2 119,-139.22"/>
</g>
<!-- Node6 -->
<g id="node6" class="node">
<title>Node6</title>
<g id="a_node6"><a xlink:href="limited-memory-qr_8hpp.html" target="_top" xlink:title=" ">
<polygon fill="white" stroke="black" points="318,-168.5 318,-198.5 451,-198.5 451,-168.5 318,-168.5"/>
<text text-anchor="start" x="326" y="-186.5" font-family="Helvetica,sans-Serif" font-size="10.00">alpaqa/inner/detail</text>
<text text-anchor="middle" x="384.5" y="-175.5" font-family="Helvetica,sans-Serif" font-size="10.00">/limited&#45;memory&#45;qr.hpp</text>
</a>
</g>
</g>
<!-- Node5&#45;&gt;Node6 -->
<g id="edge5" class="edge">
<title>Node5&#45;&gt;Node6</title>
<path fill="none" stroke="midnightblue" d="M403.29,-235.4C400.34,-227.39 396.56,-217.16 393.17,-207.98"/>
<polygon fill="midnightblue" stroke="midnightblue" points="396.44,-206.75 389.7,-198.58 389.88,-209.17 396.44,-206.75"/>
</g>
<!-- Node7 -->
<g id="node7" class="node">
<title>Node7</title>
<g id="a_node7"><a xlink:title=" ">
<polygon fill="white" stroke="#bfbfbf" points="158.5,-112.5 158.5,-131.5 234.5,-131.5 234.5,-112.5 158.5,-112.5"/>
<text text-anchor="middle" x="196.5" y="-119.5" font-family="Helvetica,sans-Serif" font-size="10.00">Eigen/Jacobi</text>
</a>
</g>
</g>
<!-- Node6&#45;&gt;Node7 -->
<g id="edge6" class="edge">
<title>Node6&#45;&gt;Node7</title>
<path fill="none" stroke="midnightblue" d="M339.95,-168.4C307.46,-158.12 263.96,-144.35 233.41,-134.68"/>
<polygon fill="midnightblue" stroke="midnightblue" points="234.17,-131.25 223.58,-131.57 232.06,-137.93 234.17,-131.25"/>
</g>
<!-- Node8 -->
<g id="node8" class="node">
<title>Node8</title>
<g id="a_node8"><a xlink:title=" ">
<polygon fill="white" stroke="#bfbfbf" points="236,-56.5 236,-75.5 289,-75.5 289,-56.5 236,-56.5"/>
<text text-anchor="middle" x="262.5" y="-63.5" font-family="Helvetica,sans-Serif" font-size="10.00">cstddef</text>
</a>
</g>
</g>
<!-- Node6&#45;&gt;Node8 -->
<g id="edge7" class="edge">
<title>Node6&#45;&gt;Node8</title>
<path fill="none" stroke="midnightblue" d="M336.24,-168.42C316.8,-160.55 295.67,-148.84 281.5,-132 270.51,-118.94 265.87,-99.79 263.92,-85.65"/>
<polygon fill="midnightblue" stroke="midnightblue" points="267.39,-85.18 262.86,-75.61 260.43,-85.92 267.39,-85.18"/>
</g>
<!-- Node9 -->
<g id="node9" class="node">
<title>Node9</title>
<g id="a_node9"><a xlink:href="ringbuffer_8hpp.html" target="_top" xlink:title=" ">
<polygon fill="white" stroke="black" points="291,-112.5 291,-131.5 430,-131.5 430,-112.5 291,-112.5"/>
<text text-anchor="middle" x="360.5" y="-119.5" font-family="Helvetica,sans-Serif" font-size="10.00">alpaqa/util/ringbuffer.hpp</text>
</a>
</g>
</g>
<!-- Node6&#45;&gt;Node9 -->
<g id="edge8" class="edge">
<title>Node6&#45;&gt;Node9</title>
<path fill="none" stroke="midnightblue" d="M378.81,-168.4C375.5,-160.2 371.3,-149.78 367.76,-140.99"/>
<polygon fill="midnightblue" stroke="midnightblue" points="370.98,-139.62 363.99,-131.66 364.49,-142.24 370.98,-139.62"/>
</g>
<!-- Node13 -->
<g id="node13" class="node">
<title>Node13</title>
<g id="a_node13"><a xlink:href="vec_8hpp.html" target="_top" xlink:title=" ">
<polygon fill="white" stroke="black" points="623.5,-56.5 623.5,-75.5 733.5,-75.5 733.5,-56.5 623.5,-56.5"/>
<text text-anchor="middle" x="678.5" y="-63.5" font-family="Helvetica,sans-Serif" font-size="10.00">alpaqa/util/vec.hpp</text>
</a>
</g>
</g>
<!-- Node6&#45;&gt;Node13 -->
<g id="edge13" class="edge">
<title>Node6&#45;&gt;Node13</title>
<path fill="none" stroke="midnightblue" d="M398.97,-168.31C416.22,-152.21 446.62,-126.33 477.5,-112 520.41,-92.09 572.65,-80.74 613.11,-74.42"/>
<polygon fill="midnightblue" stroke="midnightblue" points="613.76,-77.86 623.13,-72.92 612.73,-70.94 613.76,-77.86"/>
</g>
<!-- Node15 -->
<g id="node15" class="node">
<title>Node15</title>
<g id="a_node15"><a xlink:title=" ">
<polygon fill="white" stroke="#bfbfbf" points="487,-112.5 487,-131.5 556,-131.5 556,-112.5 487,-112.5"/>
<text text-anchor="middle" x="521.5" y="-119.5" font-family="Helvetica,sans-Serif" font-size="10.00">type_traits</text>
</a>
</g>
</g>
<!-- Node6&#45;&gt;Node15 -->
<g id="edge15" class="edge">
<title>Node6&#45;&gt;Node15</title>
<path fill="none" stroke="midnightblue" d="M416.97,-168.4C439.85,-158.46 470.23,-145.26 492.34,-135.66"/>
<polygon fill="midnightblue" stroke="midnightblue" points="493.79,-138.85 501.57,-131.66 491,-132.43 493.79,-138.85"/>
</g>
<!-- Node9&#45;&gt;Node8 -->
<g id="edge10" class="edge">
<title>Node9&#45;&gt;Node8</title>
<path fill="none" stroke="midnightblue" d="M344.75,-112.32C329.18,-103.74 305.12,-90.49 287.04,-80.52"/>
<polygon fill="midnightblue" stroke="midnightblue" points="288.65,-77.42 278.21,-75.65 285.28,-83.55 288.65,-77.42"/>
</g>
<!-- Node10 -->
<g id="node10" class="node">
<title>Node10</title>
<g id="a_node10"><a xlink:title=" ">
<polygon fill="white" stroke="#bfbfbf" points="307.5,-56.5 307.5,-75.5 371.5,-75.5 371.5,-56.5 307.5,-56.5"/>
<text text-anchor="middle" x="339.5" y="-63.5" font-family="Helvetica,sans-Serif" font-size="10.00">algorithm</text>
</a>
</g>
</g>
<!-- Node9&#45;&gt;Node10 -->
<g id="edge9" class="edge">
<title>Node9&#45;&gt;Node10</title>
<path fill="none" stroke="midnightblue" d="M357.03,-112.08C354.19,-104.77 350.07,-94.18 346.54,-85.1"/>
<polygon fill="midnightblue" stroke="midnightblue" points="349.79,-83.8 342.9,-75.75 343.27,-86.34 349.79,-83.8"/>
</g>
<!-- Node11 -->
<g id="node11" class="node">
<title>Node11</title>
<g id="a_node11"><a xlink:title=" ">
<polygon fill="white" stroke="#bfbfbf" points="390,-56.5 390,-75.5 443,-75.5 443,-56.5 390,-56.5"/>
<text text-anchor="middle" x="416.5" y="-63.5" font-family="Helvetica,sans-Serif" font-size="10.00">iterator</text>
</a>
</g>
</g>
<!-- Node9&#45;&gt;Node11 -->
<g id="edge11" class="edge">
<title>Node9&#45;&gt;Node11</title>
<path fill="none" stroke="midnightblue" d="M369.5,-112.32C377.69,-104.42 390.01,-92.55 399.97,-82.94"/>
<polygon fill="midnightblue" stroke="midnightblue" points="402.57,-85.29 407.34,-75.83 397.71,-80.26 402.57,-85.29"/>
</g>
<!-- Node12 -->
<g id="node12" class="node">
<title>Node12</title>
<g id="a_node12"><a xlink:title=" ">
<polygon fill="white" stroke="#bfbfbf" points="461,-56.5 461,-75.5 508,-75.5 508,-56.5 461,-56.5"/>
<text text-anchor="middle" x="484.5" y="-63.5" font-family="Helvetica,sans-Serif" font-size="10.00">vector</text>
</a>
</g>
</g>
<!-- Node9&#45;&gt;Node12 -->
<g id="edge12" class="edge">
<title>Node9&#45;&gt;Node12</title>
<path fill="none" stroke="midnightblue" d="M380.15,-112.44C400.46,-103.6 432.4,-89.69 455.6,-79.59"/>
<polygon fill="midnightblue" stroke="midnightblue" points="457.17,-82.72 464.94,-75.52 454.38,-76.3 457.17,-82.72"/>
</g>
<!-- Node14 -->
<g id="node14" class="node">
<title>Node14</title>
<g id="a_node14"><a xlink:title=" ">
<polygon fill="white" stroke="#bfbfbf" points="644,-0.5 644,-19.5 713,-19.5 713,-0.5 644,-0.5"/>
<text text-anchor="middle" x="678.5" y="-7.5" font-family="Helvetica,sans-Serif" font-size="10.00">Eigen/Core</text>
</a>
</g>
</g>
<!-- Node13&#45;&gt;Node14 -->
<g id="edge14" class="edge">
<title>Node13&#45;&gt;Node14</title>
<path fill="none" stroke="midnightblue" d="M678.5,-56.08C678.5,-49.01 678.5,-38.86 678.5,-29.99"/>
<polygon fill="midnightblue" stroke="midnightblue" points="682,-29.75 678.5,-19.75 675,-29.75 682,-29.75"/>
</g>
<!-- Node16&#45;&gt;Node2 -->
<g id="edge17" class="edge">
<title>Node16&#45;&gt;Node2</title>
<path fill="none" stroke="midnightblue" d="M614.36,-242.79C518.62,-231.13 321.45,-207.13 212.34,-193.85"/>
<polygon fill="midnightblue" stroke="midnightblue" points="212.74,-190.38 202.39,-192.64 211.89,-197.32 212.74,-190.38"/>
</g>
<!-- Node16&#45;&gt;Node4 -->
<g id="edge32" class="edge">
<title>Node16&#45;&gt;Node4</title>
<path fill="none" stroke="midnightblue" d="M614.34,-244.48C527.66,-236.15 363.72,-218.43 308.5,-199 283.12,-190.07 281.12,-178.86 256.5,-168 221.85,-152.71 180.48,-140.68 150.13,-132.91"/>
<polygon fill="midnightblue" stroke="midnightblue" points="150.84,-129.48 140.29,-130.45 149.14,-136.27 150.84,-129.48"/>
</g>
<!-- Node16&#45;&gt;Node17 -->
<g id="edge18" class="edge">
<title>Node16&#45;&gt;Node17</title>
<path fill="none" stroke="midnightblue" d="M724.65,-238.77C784.06,-227.2 878.43,-208.84 940.66,-196.73"/>
<polygon fill="midnightblue" stroke="midnightblue" points="941.6,-200.11 950.75,-194.77 940.26,-193.24 941.6,-200.11"/>
</g>
<!-- Node19 -->
<g id="node19" class="node">
<title>Node19</title>
<g id="a_node19"><a xlink:href="include_2alpaqa_2util_2problem_8hpp.html" target="_top" xlink:title=" ">
<polygon fill="white" stroke="black" points="553,-174 553,-193 686,-193 686,-174 553,-174"/>
<text text-anchor="middle" x="619.5" y="-181" font-family="Helvetica,sans-Serif" font-size="10.00">alpaqa/util/problem.hpp</text>
</a>
</g>
</g>
<!-- Node16&#45;&gt;Node19 -->
<g id="edge20" class="edge">
<title>Node16&#45;&gt;Node19</title>
<path fill="none" stroke="midnightblue" d="M658.65,-235.4C650.93,-225.36 640.53,-211.84 632.39,-201.25"/>
<polygon fill="midnightblue" stroke="midnightblue" points="635.06,-198.99 626.19,-193.19 629.51,-203.25 635.06,-198.99"/>
</g>
<!-- Node16&#45;&gt;Node26 -->
<g id="edge30" class="edge">
<title>Node16&#45;&gt;Node26</title>
<path fill="none" stroke="midnightblue" d="M693.59,-235.4C712.46,-224.34 738.56,-209.06 757.22,-198.13"/>
<polygon fill="midnightblue" stroke="midnightblue" points="759.11,-201.08 765.97,-193.01 755.57,-195.04 759.11,-201.08"/>
</g>
<!-- Node18 -->
<g id="node18" class="node">
<title>Node18</title>
<g id="a_node18"><a xlink:title=" ">
<polygon fill="white" stroke="#bfbfbf" points="1012.5,-112.5 1012.5,-131.5 1062.5,-131.5 1062.5,-112.5 1012.5,-112.5"/>
<text text-anchor="middle" x="1037.5" y="-119.5" font-family="Helvetica,sans-Serif" font-size="10.00">atomic</text>
</a>
</g>
</g>
<!-- Node17&#45;&gt;Node18 -->
<g id="edge19" class="edge">
<title>Node17&#45;&gt;Node18</title>
<path fill="none" stroke="midnightblue" d="M1011.56,-168.4C1016.35,-160.02 1022.46,-149.33 1027.54,-140.42"/>
<polygon fill="midnightblue" stroke="midnightblue" points="1030.63,-142.08 1032.55,-131.66 1024.55,-138.6 1030.63,-142.08"/>
</g>
<!-- Node19&#45;&gt;Node4 -->
<g id="edge28" class="edge">
<title>Node19&#45;&gt;Node4</title>
<path fill="none" stroke="midnightblue" d="M552.87,-176.21C446.39,-166.01 241.41,-145.76 150.45,-131.97"/>
<polygon fill="midnightblue" stroke="midnightblue" points="150.88,-128.49 140.45,-130.4 149.79,-135.41 150.88,-128.49"/>
</g>
<!-- Node19&#45;&gt;Node15 -->
<g id="edge29" class="edge">
<title>Node19&#45;&gt;Node15</title>
<path fill="none" stroke="midnightblue" d="M605.46,-173.98C589.45,-164.25 563.05,-148.23 544.13,-136.74"/>
<polygon fill="midnightblue" stroke="midnightblue" points="545.88,-133.71 535.51,-131.51 542.25,-139.69 545.88,-133.71"/>
</g>
<!-- Node20 -->
<g id="node20" class="node">
<title>Node20</title>
<g id="a_node20"><a xlink:href="box_8hpp.html" target="_top" xlink:title=" ">
<polygon fill="white" stroke="black" points="650.5,-112.5 650.5,-131.5 706.5,-131.5 706.5,-112.5 650.5,-112.5"/>
<text text-anchor="middle" x="678.5" y="-119.5" font-family="Helvetica,sans-Serif" font-size="10.00">box.hpp</text>
</a>
</g>
</g>
<!-- Node19&#45;&gt;Node20 -->
<g id="edge21" class="edge">
<title>Node19&#45;&gt;Node20</title>
<path fill="none" stroke="midnightblue" d="M627.95,-173.98C637.07,-164.78 651.77,-149.96 662.98,-138.66"/>
<polygon fill="midnightblue" stroke="midnightblue" points="665.51,-141.07 670.06,-131.51 660.54,-136.15 665.51,-141.07"/>
</g>
<!-- Node19&#45;&gt;Node21 -->
<g id="edge23" class="edge">
<title>Node19&#45;&gt;Node21</title>
<path fill="none" stroke="midnightblue" d="M664.53,-173.95C711.85,-164.8 788.66,-149.53 864.02,-132.26"/>
<polygon fill="midnightblue" stroke="midnightblue" points="865.2,-135.58 874.16,-129.92 863.63,-128.76 865.2,-135.58"/>
</g>
<!-- Node19&#45;&gt;Node22 -->
<g id="edge24" class="edge">
<title>Node19&#45;&gt;Node22</title>
<path fill="none" stroke="midnightblue" d="M662.45,-174C673.23,-171.95 684.77,-169.83 695.5,-168 798.71,-150.42 828.16,-153.62 934.48,-132.02"/>
<polygon fill="midnightblue" stroke="midnightblue" points="935.23,-135.44 944.32,-129.99 933.82,-128.58 935.23,-135.44"/>
</g>
<!-- Node23 -->
<g id="node23" class="node">
<title>Node23</title>
<g id="a_node23"><a xlink:title=" ">
<polygon fill="white" stroke="#bfbfbf" points="725,-112.5 725,-131.5 790,-131.5 790,-112.5 725,-112.5"/>
<text text-anchor="middle" x="757.5" y="-119.5" font-family="Helvetica,sans-Serif" font-size="10.00">functional</text>
</a>
</g>
</g>
<!-- Node19&#45;&gt;Node23 -->
<g id="edge25" class="edge">
<title>Node19&#45;&gt;Node23</title>
<path fill="none" stroke="midnightblue" d="M639.27,-173.98C662.64,-163.9 701.71,-147.05 728.5,-135.5"/>
<polygon fill="midnightblue" stroke="midnightblue" points="729.97,-138.68 737.76,-131.51 727.2,-132.25 729.97,-138.68"/>
</g>
<!-- Node24 -->
<g id="node24" class="node">
<title>Node24</title>
<g id="a_node24"><a xlink:title=" ">
<polygon fill="white" stroke="#bfbfbf" points="808.5,-112.5 808.5,-131.5 856.5,-131.5 856.5,-112.5 808.5,-112.5"/>
<text text-anchor="middle" x="832.5" y="-119.5" font-family="Helvetica,sans-Serif" font-size="10.00">iosfwd</text>
</a>
</g>
</g>
<!-- Node19&#45;&gt;Node24 -->
<g id="edge26" class="edge">
<title>Node19&#45;&gt;Node24</title>
<path fill="none" stroke="midnightblue" d="M650.02,-173.98C689.36,-162.98 757.57,-143.93 798.52,-132.49"/>
<polygon fill="midnightblue" stroke="midnightblue" points="799.62,-135.82 808.31,-129.76 797.74,-129.08 799.62,-135.82"/>
</g>
<!-- Node25 -->
<g id="node25" class="node">
<title>Node25</title>
<g id="a_node25"><a xlink:title=" ">
<polygon fill="white" stroke="#bfbfbf" points="574.5,-112.5 574.5,-131.5 632.5,-131.5 632.5,-112.5 574.5,-112.5"/>
<text text-anchor="middle" x="603.5" y="-119.5" font-family="Helvetica,sans-Serif" font-size="10.00">memory</text>
</a>
</g>
</g>
<!-- Node19&#45;&gt;Node25 -->
<g id="edge27" class="edge">
<title>Node19&#45;&gt;Node25</title>
<path fill="none" stroke="midnightblue" d="M617.21,-173.98C614.93,-165.49 611.35,-152.2 608.43,-141.32"/>
<polygon fill="midnightblue" stroke="midnightblue" points="611.76,-140.26 605.79,-131.51 605.01,-142.07 611.76,-140.26"/>
</g>
<!-- Node20&#45;&gt;Node13 -->
<g id="edge22" class="edge">
<title>Node20&#45;&gt;Node13</title>
<path fill="none" stroke="midnightblue" d="M678.5,-112.08C678.5,-105.01 678.5,-94.86 678.5,-85.99"/>
<polygon fill="midnightblue" stroke="midnightblue" points="682,-85.75 678.5,-75.75 675,-85.75 682,-85.75"/>
</g>
<!-- Node26&#45;&gt;Node24 -->
<g id="edge31" class="edge">
<title>Node26&#45;&gt;Node24</title>
<path fill="none" stroke="midnightblue" d="M787.95,-173.98C795.83,-164.96 808.44,-150.52 818.24,-139.31"/>
<polygon fill="midnightblue" stroke="midnightblue" points="821.12,-141.34 825.06,-131.51 815.85,-136.74 821.12,-141.34"/>
</g>
<!-- Node27&#45;&gt;Node13 -->
<g id="edge35" class="edge">
<title>Node27&#45;&gt;Node13</title>
<path fill="none" stroke="midnightblue" d="M1134.93,-173.71C1124.58,-158.21 1100.73,-126.3 1071.5,-112 1015.33,-84.51 840.19,-73.36 743.78,-69.21"/>
<polygon fill="midnightblue" stroke="midnightblue" points="743.7,-65.71 733.56,-68.79 743.41,-72.7 743.7,-65.71"/>
</g>
</g>
</svg>
