<?xml version="1.0" encoding="UTF-8" standalone="no"?>
<!DOCTYPE svg PUBLIC "-//W3C//DTD SVG 1.1//EN"
 "http://www.w3.org/Graphics/SVG/1.1/DTD/svg11.dtd">
<!-- Generated by graphviz version 2.43.0 (0)
 -->
<!-- Title: calc_err_z Pages: 1 -->
<svg width="311pt" height="372pt"
 viewBox="0.00 0.00 311.00 371.50" xmlns="http://www.w3.org/2000/svg" xmlns:xlink="http://www.w3.org/1999/xlink">
<g id="graph0" class="graph" transform="scale(1 1) rotate(0) translate(4 367.5)">
<title>calc_err_z</title>
<polygon fill="white" stroke="transparent" points="-4,4 -4,-367.5 307,-367.5 307,4 -4,4"/>
<!-- Node1 -->
<g id="node1" class="node">
<title>Node1</title>
<g id="a_node1"><a xlink:title="Calculate the error between ẑ and g(x).">
<polygon fill="#bfbfbf" stroke="black" points="238,-166.5 238,-185.5 303,-185.5 303,-166.5 238,-166.5"/>
<text text-anchor="middle" x="270.5" y="-173.5" font-family="Helvetica,sans-Serif" font-size="10.00">calc_err_z</text>
</a>
</g>
</g>
<!-- Node2 -->
<g id="node2" class="node">
<title>Node2</title>
<g id="a_node2"><a xlink:href="classalpaqa_1_1PANOCSolver.html#aaa9758a40bd362331202fb232b4bb7ae" target="_top" xlink:title=" ">
<polygon fill="white" stroke="black" points="41,-333 41,-363 161,-363 161,-333 41,-333"/>
<text text-anchor="start" x="49" y="-351" font-family="Helvetica,sans-Serif" font-size="10.00">alpaqa::PANOCSolver</text>
<text text-anchor="middle" x="101" y="-340" font-family="Helvetica,sans-Serif" font-size="10.00">::operator()</text>
</a>
</g>
</g>
<!-- Node1&#45;&gt;Node2 -->
<g id="edge1" class="edge">
<title>Node1&#45;&gt;Node2</title>
<path fill="none" stroke="midnightblue" d="M266.22,-195.62C259.81,-227.56 242.55,-290.58 202,-324 190.43,-333.54 175.68,-339.4 161.09,-342.97"/>
<polygon fill="midnightblue" stroke="midnightblue" points="269.67,-196.19 268.05,-185.72 262.79,-194.91 269.67,-196.19"/>
</g>
<!-- Node3 -->
<g id="node3" class="node">
<title>Node3</title>
<g id="a_node3"><a xlink:href="classalpaqa_1_1SecondOrderPANOCSolver.html#acb04b3f19dafad9b4e7e7c1c19018d19" target="_top" xlink:title=" ">
<polygon fill="white" stroke="black" points="10,-284 10,-314 192,-314 192,-284 10,-284"/>
<text text-anchor="start" x="18" y="-302" font-family="Helvetica,sans-Serif" font-size="10.00">alpaqa::SecondOrderPANOCSolver</text>
<text text-anchor="middle" x="101" y="-291" font-family="Helvetica,sans-Serif" font-size="10.00">::operator()</text>
</a>
</g>
</g>
<!-- Node1&#45;&gt;Node3 -->
<g id="edge2" class="edge">
<title>Node1&#45;&gt;Node3</title>
<path fill="none" stroke="midnightblue" d="M261.77,-194.88C251.52,-217.48 231.25,-254.82 202,-275 197,-278.45 191.57,-281.4 185.9,-283.94"/>
<polygon fill="midnightblue" stroke="midnightblue" points="265.01,-196.21 265.77,-185.64 258.59,-193.43 265.01,-196.21"/>
</g>
<!-- Node4 -->
<g id="node4" class="node">
<title>Node4</title>
<g id="a_node4"><a xlink:href="classalpaqa_1_1StructuredPANOCLBFGSSolver.html#ade95d8a7a1892d4087d6fffc958cde6e" target="_top" xlink:title=" ">
<polygon fill="white" stroke="black" points="0,-235 0,-265 202,-265 202,-235 0,-235"/>
<text text-anchor="start" x="8" y="-253" font-family="Helvetica,sans-Serif" font-size="10.00">alpaqa::StructuredPANOCLBFGSSolver</text>
<text text-anchor="middle" x="101" y="-242" font-family="Helvetica,sans-Serif" font-size="10.00">::operator()</text>
</a>
</g>
</g>
<!-- Node1&#45;&gt;Node4 -->
<g id="edge3" class="edge">
<title>Node1&#45;&gt;Node4</title>
<path fill="none" stroke="midnightblue" d="M251.73,-192.31C238.81,-203.33 220.43,-217.4 202,-226 194.64,-229.43 186.73,-232.41 178.71,-234.97"/>
<polygon fill="midnightblue" stroke="midnightblue" points="254.17,-194.82 259.37,-185.59 249.55,-189.56 254.17,-194.82"/>
</g>
<!-- Node5 -->
<g id="node5" class="node">
<title>Node5</title>
<g id="a_node5"><a xlink:href="classalpaqa_1_1LBFGSSolver.html#a8540540028b02dfe8b7e3ec0c49c07dd" target="_top" xlink:title=" ">
<polygon fill="white" stroke="black" points="42,-186 42,-216 160,-216 160,-186 42,-186"/>
<text text-anchor="start" x="50" y="-204" font-family="Helvetica,sans-Serif" font-size="10.00">alpaqa::LBFGSSolver</text>
<text text-anchor="middle" x="101" y="-193" font-family="Helvetica,sans-Serif" font-size="10.00">::operator()</text>
</a>
</g>
</g>
<!-- Node1&#45;&gt;Node5 -->
<g id="edge4" class="edge">
<title>Node1&#45;&gt;Node5</title>
<path fill="none" stroke="midnightblue" d="M228.04,-182.19C207.56,-185.24 182.51,-188.98 160.14,-192.32"/>
<polygon fill="midnightblue" stroke="midnightblue" points="228.62,-185.64 237.99,-180.7 227.59,-178.72 228.62,-185.64"/>
</g>
<!-- Node6 -->
<g id="node6" class="node">
<title>Node6</title>
<g id="a_node6"><a xlink:href="classalpaqa_1_1LBFGSBSolver.html#a8540540028b02dfe8b7e3ec0c49c07dd" target="_top" xlink:title=" ">
<polygon fill="white" stroke="black" points="38.5,-137 38.5,-167 163.5,-167 163.5,-137 38.5,-137"/>
<text text-anchor="start" x="46.5" y="-155" font-family="Helvetica,sans-Serif" font-size="10.00">alpaqa::LBFGSBSolver</text>
<text text-anchor="middle" x="101" y="-144" font-family="Helvetica,sans-Serif" font-size="10.00">::operator()</text>
</a>
</g>
</g>
<!-- Node1&#45;&gt;Node6 -->
<g id="edge5" class="edge">
<title>Node1&#45;&gt;Node6</title>
<path fill="none" stroke="midnightblue" d="M227.95,-170.05C208.53,-167.26 185,-163.89 163.56,-160.82"/>
<polygon fill="midnightblue" stroke="midnightblue" points="227.6,-173.53 237.99,-171.49 228.59,-166.6 227.6,-173.53"/>
</g>
<!-- Node7 -->
<g id="node7" class="node">
<title>Node7</title>
<g id="a_node7"><a xlink:href="classalpaqa_1_1GAAPGASolver.html#a570ec001ea8eee359be8a1b90b782cfb" target="_top" xlink:title=" ">
<polygon fill="white" stroke="black" points="37,-88 37,-118 165,-118 165,-88 37,-88"/>
<text text-anchor="start" x="45" y="-106" font-family="Helvetica,sans-Serif" font-size="10.00">alpaqa::GAAPGASolver</text>
<text text-anchor="middle" x="101" y="-95" font-family="Helvetica,sans-Serif" font-size="10.00">::operator()</text>
</a>
</g>
</g>
<!-- Node1&#45;&gt;Node7 -->
<g id="edge6" class="edge">
<title>Node1&#45;&gt;Node7</title>
<path fill="none" stroke="midnightblue" d="M251.13,-160.05C238.18,-149.56 220,-136.29 202,-128 190.46,-122.69 177.63,-118.4 165.11,-114.97"/>
<polygon fill="midnightblue" stroke="midnightblue" points="248.91,-162.76 258.83,-166.47 253.39,-157.38 248.91,-162.76"/>
</g>
<!-- Node8 -->
<g id="node8" class="node">
<title>Node8</title>
<g id="a_node8"><a xlink:href="classalpaqa_1_1PGASolver.html#af516b794e244432023aea7ba3cd0d1d8" target="_top" xlink:title=" ">
<polygon fill="white" stroke="black" points="44.5,-39 44.5,-69 157.5,-69 157.5,-39 44.5,-39"/>
<text text-anchor="start" x="52.5" y="-57" font-family="Helvetica,sans-Serif" font-size="10.00">alpaqa::PGASolver::</text>
<text text-anchor="middle" x="101" y="-46" font-family="Helvetica,sans-Serif" font-size="10.00">operator()</text>
</a>
</g>
</g>
<!-- Node1&#45;&gt;Node8 -->
<g id="edge7" class="edge">
<title>Node1&#45;&gt;Node8</title>
<path fill="none" stroke="midnightblue" d="M261.34,-156.91C250.86,-134.74 230.57,-98.71 202,-79 188.96,-70.01 172.99,-64.24 157.67,-60.55"/>
<polygon fill="midnightblue" stroke="midnightblue" points="258.26,-158.6 265.57,-166.28 264.64,-155.72 258.26,-158.6"/>
</g>
<!-- Node9 -->
<g id="node9" class="node">
<title>Node9</title>
<g id="a_node9"><a xlink:href="alpaqa_8cpp.html#a52c00cccef0976f125d4a27f9906c36b" target="_top" xlink:title=" ">
<polygon fill="white" stroke="black" points="44.5,-0.5 44.5,-19.5 157.5,-19.5 157.5,-0.5 44.5,-0.5"/>
<text text-anchor="middle" x="101" y="-7.5" font-family="Helvetica,sans-Serif" font-size="10.00">PYBIND11_MODULE</text>
</a>
</g>
</g>
<!-- Node1&#45;&gt;Node9 -->
<g id="edge8" class="edge">
<title>Node1&#45;&gt;Node9</title>
<path fill="none" stroke="midnightblue" d="M266.28,-156.47C259.95,-124.7 242.8,-62.17 202,-30 189.42,-20.08 173.23,-14.68 157.57,-11.83"/>
<polygon fill="midnightblue" stroke="midnightblue" points="262.84,-157.11 268.08,-166.32 269.72,-155.85 262.84,-157.11"/>
</g>
</g>
</svg>
