<?xml version="1.0" encoding="UTF-8" standalone="no"?>
<!DOCTYPE svg PUBLIC "-//W3C//DTD SVG 1.1//EN"
 "http://www.w3.org/Graphics/SVG/1.1/DTD/svg11.dtd">
<!-- Generated by graphviz version 2.43.0 (0)
 -->
<!-- Title: generate_casadi_problem Pages: 1 -->
<svg width="354pt" height="57pt"
 viewBox="0.00 0.00 354.00 57.00" xmlns="http://www.w3.org/2000/svg" xmlns:xlink="http://www.w3.org/1999/xlink">
<g id="graph0" class="graph" transform="scale(1 1) rotate(0) translate(4 53)">
<title>generate_casadi_problem</title>
<polygon fill="white" stroke="transparent" points="-4,4 -4,-53 350,-53 350,4 -4,4"/>
<!-- Node1 -->
<g id="node1" class="node">
<title>Node1</title>
<g id="a_node1"><a xlink:title=" ">
<polygon fill="#bfbfbf" stroke="black" points="203,-6 203,-25 346,-25 346,-6 203,-6"/>
<text text-anchor="middle" x="274.5" y="-13" font-family="Helvetica,sans-Serif" font-size="10.00">generate_casadi_problem</text>
</a>
</g>
</g>
<!-- Node1&#45;&gt;Node1 -->
<g id="edge3" class="edge">
<title>Node1&#45;&gt;Node1</title>
<path fill="none" stroke="midnightblue" d="M310.12,-33C310.12,-38.84 298.24,-43.5 274.5,-43.5 240.73,-43.5 230.97,-34.07 245.22,-25.26"/>
<polygon fill="midnightblue" stroke="midnightblue" points="312.83,-30.78 303.78,-25.26 307.41,-35.21 312.83,-30.78"/>
</g>
<!-- Node2 -->
<g id="node2" class="node">
<title>Node2</title>
<g id="a_node2"><a xlink:href="namespacealpaqa_1_1casadi__loader.html#ad27c80ddde399122350615a618f17700" target="_top" xlink:title=" ">
<polygon fill="white" stroke="black" points="0,-0.5 0,-30.5 167,-30.5 167,-0.5 0,-0.5"/>
<text text-anchor="start" x="8" y="-18.5" font-family="Helvetica,sans-Serif" font-size="10.00">alpaqa.casadi_loader.generate</text>
<text text-anchor="middle" x="83.5" y="-7.5" font-family="Helvetica,sans-Serif" font-size="10.00">_and_compile_casadi_problem</text>
</a>
</g>
</g>
<!-- Node1&#45;&gt;Node2 -->
<g id="edge1" class="edge">
<title>Node1&#45;&gt;Node2</title>
<path fill="none" stroke="midnightblue" d="M192.65,-15.5C184.21,-15.5 175.62,-15.5 167.16,-15.5"/>
<polygon fill="midnightblue" stroke="midnightblue" points="192.85,-19 202.85,-15.5 192.85,-12 192.85,-19"/>
</g>
<!-- Node2&#45;&gt;Node2 -->
<g id="edge2" class="edge">
<title>Node2&#45;&gt;Node2</title>
<path fill="none" stroke="midnightblue" d="M117.26,-40.96C113.07,-45.68 101.82,-49 83.5,-49 53.44,-49 42.4,-40.06 50.39,-30.66"/>
<polygon fill="midnightblue" stroke="midnightblue" points="120.73,-40.42 116.61,-30.66 113.75,-40.86 120.73,-40.42"/>
</g>
</g>
</svg>
