<?xml version="1.0" encoding="UTF-8" standalone="no"?>
<!DOCTYPE svg PUBLIC "-//W3C//DTD SVG 1.1//EN"
 "http://www.w3.org/Graphics/SVG/1.1/DTD/svg11.dtd">
<!-- Generated by graphviz version 2.43.0 (0)
 -->
<!-- Title: panoc Pages: 1 -->
<svg width="725pt" height="388pt"
 viewBox="0.00 0.00 725.00 387.50" xmlns="http://www.w3.org/2000/svg" xmlns:xlink="http://www.w3.org/1999/xlink">
<g id="graph0" class="graph" transform="scale(1 1) rotate(0) translate(4 383.5)">
<title>panoc</title>
<polygon fill="white" stroke="transparent" points="-4,4 -4,-383.5 721,-383.5 721,4 -4,4"/>
<!-- Node1 -->
<g id="node1" class="node">
<title>Node1</title>
<g id="a_node1"><a xlink:title=" ">
<polygon fill="#bfbfbf" stroke="black" points="0,-133 0,-152 46,-152 46,-133 0,-133"/>
<text text-anchor="middle" x="23" y="-140" font-family="Helvetica,sans-Serif" font-size="10.00">panoc</text>
</a>
</g>
</g>
<!-- Node2 -->
<g id="node2" class="node">
<title>Node2</title>
<g id="a_node2"><a xlink:href="namespacealpaqa.html#a623fe9757577812e38c5e4f85f484954" target="_top" xlink:title=" ">
<polygon fill="white" stroke="black" points="106,-177 106,-196 179,-196 179,-177 106,-177"/>
<text text-anchor="middle" x="142.5" y="-184" font-family="Helvetica,sans-Serif" font-size="10.00">panoc_impl</text>
</a>
</g>
</g>
<!-- Node1&#45;&gt;Node2 -->
<g id="edge1" class="edge">
<title>Node1&#45;&gt;Node2</title>
<path fill="none" stroke="midnightblue" d="M44.74,-152.03C55.71,-156.91 69.47,-162.81 82,-167.5 87.66,-169.62 93.68,-171.71 99.62,-173.7"/>
<polygon fill="midnightblue" stroke="midnightblue" points="98.9,-177.14 109.5,-176.91 101.07,-170.49 98.9,-177.14"/>
</g>
<!-- Node19 -->
<g id="node19" class="node">
<title>Node19</title>
<g id="a_node19"><a xlink:href="classalpaqa_1_1vec__allocator.html#a259cb5a711406a8c3e5d937eb9350cca" target="_top" xlink:title=" ">
<polygon fill="white" stroke="black" points="82,-127.5 82,-157.5 203,-157.5 203,-127.5 82,-127.5"/>
<text text-anchor="start" x="90" y="-145.5" font-family="Helvetica,sans-Serif" font-size="10.00">alpaqa::vec_allocator</text>
<text text-anchor="middle" x="142.5" y="-134.5" font-family="Helvetica,sans-Serif" font-size="10.00">::size</text>
</a>
</g>
</g>
<!-- Node1&#45;&gt;Node19 -->
<g id="edge20" class="edge">
<title>Node1&#45;&gt;Node19</title>
<path fill="none" stroke="midnightblue" d="M46.1,-142.5C53.62,-142.5 62.47,-142.5 71.7,-142.5"/>
<polygon fill="midnightblue" stroke="midnightblue" points="71.82,-146 81.82,-142.5 71.82,-139 71.82,-146"/>
</g>
<!-- Node20 -->
<g id="node20" class="node">
<title>Node20</title>
<g id="a_node20"><a xlink:href="classalpaqa_1_1vec__allocator.html#a2e036dd8859f446200ade78fabcc9a6a" target="_top" xlink:title=" ">
<polygon fill="white" stroke="black" points="82,-78.5 82,-108.5 203,-108.5 203,-78.5 82,-78.5"/>
<text text-anchor="start" x="90" y="-96.5" font-family="Helvetica,sans-Serif" font-size="10.00">alpaqa::vec_allocator</text>
<text text-anchor="middle" x="142.5" y="-85.5" font-family="Helvetica,sans-Serif" font-size="10.00">::vector_size</text>
</a>
</g>
</g>
<!-- Node1&#45;&gt;Node20 -->
<g id="edge21" class="edge">
<title>Node1&#45;&gt;Node20</title>
<path fill="none" stroke="midnightblue" d="M46.1,-133.28C60.12,-127.44 78.78,-119.65 95.88,-112.52"/>
<polygon fill="midnightblue" stroke="midnightblue" points="97.3,-115.73 105.18,-108.65 94.6,-109.27 97.3,-115.73"/>
</g>
<!-- Node3 -->
<g id="node3" class="node">
<title>Node3</title>
<g id="a_node3"><a xlink:href="classalpaqa_1_1vec__allocator.html#afa36e1f076dd1627a83324e717038836" target="_top" xlink:title=" ">
<polygon fill="white" stroke="black" points="242.5,-333.5 242.5,-363.5 363.5,-363.5 363.5,-333.5 242.5,-333.5"/>
<text text-anchor="start" x="250.5" y="-351.5" font-family="Helvetica,sans-Serif" font-size="10.00">alpaqa::vec_allocator</text>
<text text-anchor="middle" x="303" y="-340.5" font-family="Helvetica,sans-Serif" font-size="10.00">::alloc</text>
</a>
</g>
</g>
<!-- Node2&#45;&gt;Node3 -->
<g id="edge2" class="edge">
<title>Node2&#45;&gt;Node3</title>
<path fill="none" stroke="midnightblue" d="M147.76,-196.36C159.03,-221.33 191.99,-287.66 239,-324.5 240.76,-325.88 242.61,-327.18 244.52,-328.42"/>
<polygon fill="midnightblue" stroke="midnightblue" points="242.83,-331.49 253.25,-333.41 246.31,-325.41 242.83,-331.49"/>
</g>
<!-- Node4 -->
<g id="node4" class="node">
<title>Node4</title>
<g id="a_node4"><a xlink:href="namespacealpaqa_1_1detail.html#a164b2b3296b6868a4dd53b7c0d9d64e2" target="_top" xlink:title="Compute the ε from the stopping criterion, see PANOCStopCrit.">
<polygon fill="white" stroke="black" points="248.5,-284.5 248.5,-314.5 357.5,-314.5 357.5,-284.5 248.5,-284.5"/>
<text text-anchor="start" x="256.5" y="-302.5" font-family="Helvetica,sans-Serif" font-size="10.00">alpaqa::detail::calc</text>
<text text-anchor="middle" x="303" y="-291.5" font-family="Helvetica,sans-Serif" font-size="10.00">_error_stop_crit</text>
</a>
</g>
</g>
<!-- Node2&#45;&gt;Node4 -->
<g id="edge3" class="edge">
<title>Node2&#45;&gt;Node4</title>
<path fill="none" stroke="midnightblue" d="M152.82,-196.17C169.14,-212.72 204.46,-246.87 239,-269.5 244.65,-273.2 250.83,-276.71 257.04,-279.94"/>
<polygon fill="midnightblue" stroke="midnightblue" points="255.59,-283.13 266.1,-284.46 258.71,-276.87 255.59,-283.13"/>
</g>
<!-- Node10 -->
<g id="node10" class="node">
<title>Node10</title>
<g id="a_node10"><a xlink:href="namespacealpaqa_1_1detail.html#adaff98bd8130d1eee1f5bcaab5069026" target="_top" xlink:title=" ">
<polygon fill="white" stroke="black" points="414.5,-208 414.5,-227 534.5,-227 534.5,-208 414.5,-208"/>
<text text-anchor="middle" x="474.5" y="-215" font-family="Helvetica,sans-Serif" font-size="10.00">alpaqa::detail::calc_x̂</text>
</a>
</g>
</g>
<!-- Node2&#45;&gt;Node10 -->
<g id="edge9" class="edge">
<title>Node2&#45;&gt;Node10</title>
<path fill="none" stroke="midnightblue" d="M156.58,-196C174.25,-208.19 207.2,-228.68 239,-236.5 303.85,-252.45 381.52,-240.28 429.18,-229.4"/>
<polygon fill="midnightblue" stroke="midnightblue" points="430.24,-232.74 439.17,-227.03 428.63,-225.93 430.24,-232.74"/>
</g>
<!-- Node11 -->
<g id="node11" class="node">
<title>Node11</title>
<g id="a_node11"><a xlink:href="namespacealpaqa_1_1detail.html#a2ce2c8e78adf825044f1b9473f389160" target="_top" xlink:title="Check all stop conditions (required tolerance reached, out of time, maximum number of iterations exce...">
<polygon fill="white" stroke="black" points="244,-147.5 244,-177.5 362,-177.5 362,-147.5 244,-147.5"/>
<text text-anchor="start" x="252" y="-165.5" font-family="Helvetica,sans-Serif" font-size="10.00">alpaqa::detail::check</text>
<text text-anchor="middle" x="303" y="-154.5" font-family="Helvetica,sans-Serif" font-size="10.00">_all_stop_conditions</text>
</a>
</g>
</g>
<!-- Node2&#45;&gt;Node11 -->
<g id="edge11" class="edge">
<title>Node2&#45;&gt;Node11</title>
<path fill="none" stroke="midnightblue" d="M179.07,-181.11C195.24,-178.67 214.94,-175.68 233.79,-172.83"/>
<polygon fill="midnightblue" stroke="midnightblue" points="234.48,-176.26 243.84,-171.31 233.43,-169.34 234.48,-176.26"/>
</g>
<!-- Node13 -->
<g id="node13" class="node">
<title>Node13</title>
<g id="a_node13"><a xlink:href="namespacealpaqa_1_1detail.html#a3e432963691339ba0588d90186008735" target="_top" xlink:title="Increase the estimate of the Lipschitz constant of the objective gradient and decrease the step size ...">
<polygon fill="white" stroke="black" points="239,-196.5 239,-226.5 367,-226.5 367,-196.5 239,-196.5"/>
<text text-anchor="start" x="247" y="-214.5" font-family="Helvetica,sans-Serif" font-size="10.00">alpaqa::detail::descent</text>
<text text-anchor="middle" x="303" y="-203.5" font-family="Helvetica,sans-Serif" font-size="10.00">_lemma</text>
</a>
</g>
</g>
<!-- Node2&#45;&gt;Node13 -->
<g id="edge13" class="edge">
<title>Node2&#45;&gt;Node13</title>
<path fill="none" stroke="midnightblue" d="M179.07,-192.11C193.8,-194.43 211.45,-197.22 228.72,-199.94"/>
<polygon fill="midnightblue" stroke="midnightblue" points="228.4,-203.43 238.82,-201.53 229.49,-196.52 228.4,-203.43"/>
</g>
<!-- Node14 -->
<g id="node14" class="node">
<title>Node14</title>
<g id="a_node14"><a xlink:href="classalpaqa_1_1vec__allocator.html#a455bb0797853d67addd58875c671acef" target="_top" xlink:title=" ">
<polygon fill="white" stroke="black" points="242.5,-98.5 242.5,-128.5 363.5,-128.5 363.5,-98.5 242.5,-98.5"/>
<text text-anchor="start" x="250.5" y="-116.5" font-family="Helvetica,sans-Serif" font-size="10.00">alpaqa::vec_allocator</text>
<text text-anchor="middle" x="303" y="-105.5" font-family="Helvetica,sans-Serif" font-size="10.00">::free</text>
</a>
</g>
</g>
<!-- Node2&#45;&gt;Node14 -->
<g id="edge15" class="edge">
<title>Node2&#45;&gt;Node14</title>
<path fill="none" stroke="midnightblue" d="M179.3,-177.43C187.33,-174.75 195.65,-171.46 203,-167.5 221.09,-157.77 221.25,-148.85 239,-138.5 242.39,-136.52 245.97,-134.64 249.62,-132.85"/>
<polygon fill="midnightblue" stroke="midnightblue" points="251.2,-135.98 258.82,-128.62 248.27,-129.62 251.2,-135.98"/>
</g>
<!-- Node15 -->
<g id="node15" class="node">
<title>Node15</title>
<g id="a_node15"><a xlink:href="namespacealpaqa_1_1detail.html#a8a1a5d46f1a3fffc7501abc3e2561367" target="_top" xlink:title="Estimate the Lipschitz constant of the gradient &#160;using finite differences.">
<polygon fill="white" stroke="black" points="244.5,-49.5 244.5,-79.5 361.5,-79.5 361.5,-49.5 244.5,-49.5"/>
<text text-anchor="start" x="252.5" y="-67.5" font-family="Helvetica,sans-Serif" font-size="10.00">alpaqa::detail::initial</text>
<text text-anchor="middle" x="303" y="-56.5" font-family="Helvetica,sans-Serif" font-size="10.00">_lipschitz_estimate</text>
</a>
</g>
</g>
<!-- Node2&#45;&gt;Node15 -->
<g id="edge16" class="edge">
<title>Node2&#45;&gt;Node15</title>
<path fill="none" stroke="midnightblue" d="M179.05,-180.36C187.63,-177.55 196.26,-173.46 203,-167.5 231.61,-142.22 211.27,-115.75 239,-89.5 240.67,-87.92 242.44,-86.44 244.31,-85.05"/>
<polygon fill="midnightblue" stroke="midnightblue" points="246.42,-87.85 252.94,-79.5 242.63,-81.96 246.42,-87.85"/>
</g>
<!-- Node18 -->
<g id="node18" class="node">
<title>Node18</title>
<g id="a_node18"><a xlink:href="namespacealpaqa_1_1detail.html#af622b46ff2f9f3237cef3781eb65cf0c" target="_top" xlink:title=" ">
<polygon fill="white" stroke="black" points="247,-0.5 247,-30.5 359,-30.5 359,-0.5 247,-0.5"/>
<text text-anchor="start" x="255" y="-18.5" font-family="Helvetica,sans-Serif" font-size="10.00">alpaqa::detail::print</text>
<text text-anchor="middle" x="303" y="-7.5" font-family="Helvetica,sans-Serif" font-size="10.00">_progress</text>
</a>
</g>
</g>
<!-- Node2&#45;&gt;Node18 -->
<g id="edge19" class="edge">
<title>Node2&#45;&gt;Node18</title>
<path fill="none" stroke="midnightblue" d="M179.1,-181.26C187.88,-178.44 196.59,-174.12 203,-167.5 243.8,-125.34 199.67,-84.04 239,-40.5 240.19,-39.18 241.46,-37.93 242.8,-36.74"/>
<polygon fill="midnightblue" stroke="midnightblue" points="245.11,-39.39 251.08,-30.63 240.96,-33.75 245.11,-39.39"/>
</g>
<!-- Node5 -->
<g id="node5" class="node">
<title>Node5</title>
<g id="a_node5"><a xlink:href="namespacealpaqa_1_1vec__util.html#a8dc597c55e6fedeccc220e75360e2f87" target="_top" xlink:title="Get the 1&#45;norm of the given vector.">
<polygon fill="white" stroke="black" points="406,-360 406,-379 543,-379 543,-360 406,-360"/>
<text text-anchor="middle" x="474.5" y="-367" font-family="Helvetica,sans-Serif" font-size="10.00">alpaqa::vec_util::norm_1</text>
</a>
</g>
</g>
<!-- Node4&#45;&gt;Node5 -->
<g id="edge4" class="edge">
<title>Node4&#45;&gt;Node5</title>
<path fill="none" stroke="midnightblue" d="M346.35,-314.62C353.38,-317.61 360.5,-320.94 367,-324.5 384.31,-333.99 385.18,-342.02 403,-350.5 407.94,-352.85 413.21,-354.95 418.57,-356.81"/>
<polygon fill="midnightblue" stroke="midnightblue" points="417.65,-360.19 428.25,-359.92 419.79,-353.53 417.65,-360.19"/>
</g>
<!-- Node6 -->
<g id="node6" class="node">
<title>Node6</title>
<g id="a_node6"><a xlink:href="namespacealpaqa_1_1vec__util.html#adddb38b65e3176db3b57d07a68ff2b54" target="_top" xlink:title="Get the maximum or infinity&#45;norm of the given vector.">
<polygon fill="white" stroke="black" points="403,-322 403,-341 546,-341 546,-322 403,-322"/>
<text text-anchor="middle" x="474.5" y="-329" font-family="Helvetica,sans-Serif" font-size="10.00">alpaqa::vec_util::norm_inf</text>
</a>
</g>
</g>
<!-- Node4&#45;&gt;Node6 -->
<g id="edge5" class="edge">
<title>Node4&#45;&gt;Node6</title>
<path fill="none" stroke="midnightblue" d="M357.63,-309.62C375.31,-312.96 395.08,-316.7 413.22,-320.12"/>
<polygon fill="midnightblue" stroke="midnightblue" points="412.63,-323.57 423.1,-321.99 413.93,-316.69 412.63,-323.57"/>
</g>
<!-- Node7 -->
<g id="node7" class="node">
<title>Node7</title>
<g id="a_node7"><a xlink:href="namespacealpaqa_1_1detail.html#a48a7f210ac7bf8ab2cc19b6cb549cc8e" target="_top" xlink:title="Projected gradient step.">
<polygon fill="white" stroke="black" points="582,-218.5 582,-248.5 717,-248.5 717,-218.5 582,-218.5"/>
<text text-anchor="start" x="590" y="-236.5" font-family="Helvetica,sans-Serif" font-size="10.00">alpaqa::detail::projected</text>
<text text-anchor="middle" x="649.5" y="-225.5" font-family="Helvetica,sans-Serif" font-size="10.00">_gradient_step</text>
</a>
</g>
</g>
<!-- Node4&#45;&gt;Node7 -->
<g id="edge6" class="edge">
<title>Node4&#45;&gt;Node7</title>
<path fill="none" stroke="midnightblue" d="M357.51,-285.14C372.2,-281.43 388.17,-277.61 403,-274.5 459.17,-262.74 523.13,-252.15 571.68,-244.67"/>
<polygon fill="midnightblue" stroke="midnightblue" points="572.44,-248.1 581.8,-243.13 571.38,-241.18 572.44,-248.1"/>
</g>
<!-- Node8 -->
<g id="node8" class="node">
<title>Node8</title>
<g id="a_node8"><a xlink:href="namespacealpaqa.html#aebbd23b8fcae9c5fdf8aac14dcebf39e" target="_top" xlink:title="Get the difference between the given vector and its projection.">
<polygon fill="white" stroke="black" points="415,-284 415,-303 534,-303 534,-284 415,-284"/>
<text text-anchor="middle" x="474.5" y="-291" font-family="Helvetica,sans-Serif" font-size="10.00">projecting_difference</text>
</a>
</g>
</g>
<!-- Node4&#45;&gt;Node8 -->
<g id="edge7" class="edge">
<title>Node4&#45;&gt;Node8</title>
<path fill="none" stroke="midnightblue" d="M357.63,-297.6C372.59,-297.07 389.05,-296.49 404.75,-295.93"/>
<polygon fill="midnightblue" stroke="midnightblue" points="405.06,-299.42 414.93,-295.57 404.81,-292.43 405.06,-299.42"/>
</g>
<!-- Node9 -->
<g id="node9" class="node">
<title>Node9</title>
<g id="a_node9"><a xlink:href="namespacealpaqa.html#a161ffc9e716eaea97d3bbf5a2961f6fd" target="_top" xlink:title="Project a vector onto a box.">
<polygon fill="white" stroke="black" points="624.5,-284 624.5,-303 674.5,-303 674.5,-284 624.5,-284"/>
<text text-anchor="middle" x="649.5" y="-291" font-family="Helvetica,sans-Serif" font-size="10.00">project</text>
</a>
</g>
</g>
<!-- Node8&#45;&gt;Node9 -->
<g id="edge8" class="edge">
<title>Node8&#45;&gt;Node9</title>
<path fill="none" stroke="midnightblue" d="M534.07,-293.5C560.64,-293.5 591.15,-293.5 613.98,-293.5"/>
<polygon fill="midnightblue" stroke="midnightblue" points="614.21,-297 624.21,-293.5 614.21,-290 614.21,-297"/>
</g>
<!-- Node10&#45;&gt;Node7 -->
<g id="edge10" class="edge">
<title>Node10&#45;&gt;Node7</title>
<path fill="none" stroke="midnightblue" d="M534.55,-222.96C546.6,-224.08 559.44,-225.26 572,-226.42"/>
<polygon fill="midnightblue" stroke="midnightblue" points="571.71,-229.91 581.99,-227.35 572.35,-222.94 571.71,-229.91"/>
</g>
<!-- Node12 -->
<g id="node12" class="node">
<title>Node12</title>
<g id="a_node12"><a xlink:href="classalpaqa_1_1AtomicStopSignal.html#aa0097deccc19b49f8ab5344d8d6d5cf6" target="_top" xlink:title=" ">
<polygon fill="white" stroke="black" points="403.5,-147.5 403.5,-177.5 545.5,-177.5 545.5,-147.5 403.5,-147.5"/>
<text text-anchor="start" x="411.5" y="-165.5" font-family="Helvetica,sans-Serif" font-size="10.00">alpaqa::AtomicStopSignal</text>
<text text-anchor="middle" x="474.5" y="-154.5" font-family="Helvetica,sans-Serif" font-size="10.00">::stop_requested</text>
</a>
</g>
</g>
<!-- Node11&#45;&gt;Node12 -->
<g id="edge12" class="edge">
<title>Node11&#45;&gt;Node12</title>
<path fill="none" stroke="midnightblue" d="M362.33,-162.5C372.24,-162.5 382.69,-162.5 393.05,-162.5"/>
<polygon fill="midnightblue" stroke="midnightblue" points="393.36,-166 403.36,-162.5 393.36,-159 393.36,-166"/>
</g>
<!-- Node13&#45;&gt;Node10 -->
<g id="edge14" class="edge">
<title>Node13&#45;&gt;Node10</title>
<path fill="none" stroke="midnightblue" d="M367.12,-213.73C379.18,-214.16 391.86,-214.61 404.1,-215.04"/>
<polygon fill="midnightblue" stroke="midnightblue" points="404.14,-218.55 414.26,-215.4 404.39,-211.55 404.14,-218.55"/>
</g>
<!-- Node16 -->
<g id="node16" class="node">
<title>Node16</title>
<g id="a_node16"><a xlink:href="namespacealpaqa_1_1detail.html#a8f6ca1622de905436d84d5fe0f028d63" target="_top" xlink:title="Calculate the gradient ∇ψ(x).">
<polygon fill="white" stroke="black" points="420,-74.5 420,-104.5 529,-104.5 529,-74.5 420,-74.5"/>
<text text-anchor="start" x="428" y="-92.5" font-family="Helvetica,sans-Serif" font-size="10.00">alpaqa::detail::calc</text>
<text text-anchor="middle" x="474.5" y="-81.5" font-family="Helvetica,sans-Serif" font-size="10.00">_grad_ψ</text>
</a>
</g>
</g>
<!-- Node15&#45;&gt;Node16 -->
<g id="edge17" class="edge">
<title>Node15&#45;&gt;Node16</title>
<path fill="none" stroke="midnightblue" d="M361.86,-73.03C377.28,-75.31 394.02,-77.78 409.74,-80.1"/>
<polygon fill="midnightblue" stroke="midnightblue" points="409.49,-83.6 419.89,-81.59 410.51,-76.67 409.49,-83.6"/>
</g>
<!-- Node17 -->
<g id="node17" class="node">
<title>Node17</title>
<g id="a_node17"><a xlink:href="namespacealpaqa_1_1detail.html#a5895b05665103ffbaf9ad3385c957dc0" target="_top" xlink:title="Calculate both ψ(x) and its gradient ∇ψ(x).">
<polygon fill="white" stroke="black" points="420,-25.5 420,-55.5 529,-55.5 529,-25.5 420,-25.5"/>
<text text-anchor="start" x="428" y="-43.5" font-family="Helvetica,sans-Serif" font-size="10.00">alpaqa::detail::calc</text>
<text text-anchor="middle" x="474.5" y="-32.5" font-family="Helvetica,sans-Serif" font-size="10.00">_ψ_grad_ψ</text>
</a>
</g>
</g>
<!-- Node15&#45;&gt;Node17 -->
<g id="edge18" class="edge">
<title>Node15&#45;&gt;Node17</title>
<path fill="none" stroke="midnightblue" d="M361.86,-56.31C377.28,-54.12 394.02,-51.75 409.74,-49.53"/>
<polygon fill="midnightblue" stroke="midnightblue" points="410.48,-52.96 419.89,-48.09 409.5,-46.03 410.48,-52.96"/>
</g>
</g>
</svg>
