<?xml version="1.0" encoding="UTF-8" standalone="no"?>
<!DOCTYPE svg PUBLIC "-//W3C//DTD SVG 1.1//EN"
 "http://www.w3.org/Graphics/SVG/1.1/DTD/svg11.dtd">
<!-- Generated by graphviz version 2.43.0 (0)
 -->
<!-- Title: minimize_update_anderson Pages: 1 -->
<svg width="504pt" height="88pt"
 viewBox="0.00 0.00 504.00 88.00" xmlns="http://www.w3.org/2000/svg" xmlns:xlink="http://www.w3.org/1999/xlink">
<g id="graph0" class="graph" transform="scale(1 1) rotate(0) translate(4 84)">
<title>minimize_update_anderson</title>
<polygon fill="white" stroke="transparent" points="-4,4 -4,-84 500,-84 500,4 -4,4"/>
<!-- Node1 -->
<g id="node1" class="node">
<title>Node1</title>
<g id="a_node1"><a xlink:title="Solve one step of Anderson acceleration to find a fixed point of a function g(x):">
<polygon fill="#bfbfbf" stroke="black" points="344,-30 344,-49 496,-49 496,-30 344,-30"/>
<text text-anchor="middle" x="420" y="-37" font-family="Helvetica,sans-Serif" font-size="10.00">minimize_update_anderson</text>
</a>
</g>
</g>
<!-- Node2 -->
<g id="node2" class="node">
<title>Node2</title>
<g id="a_node2"><a xlink:href="classalpaqa_1_1AndersonAccel.html#a7cbecaa52700158ebe36c0d587791ed4" target="_top" xlink:title=" ">
<polygon fill="white" stroke="black" points="180,-49.5 180,-79.5 308,-79.5 308,-49.5 180,-49.5"/>
<text text-anchor="start" x="188" y="-67.5" font-family="Helvetica,sans-Serif" font-size="10.00">alpaqa::AndersonAccel</text>
<text text-anchor="middle" x="244" y="-56.5" font-family="Helvetica,sans-Serif" font-size="10.00">::compute</text>
</a>
</g>
</g>
<!-- Node1&#45;&gt;Node2 -->
<g id="edge1" class="edge">
<title>Node1&#45;&gt;Node2</title>
<path fill="none" stroke="midnightblue" d="M342.69,-50.46C331.18,-52.12 319.42,-53.81 308.23,-55.42"/>
<polygon fill="midnightblue" stroke="midnightblue" points="343.32,-53.91 352.72,-49.02 342.33,-46.98 343.32,-53.91"/>
</g>
<!-- Node4 -->
<g id="node4" class="node">
<title>Node4</title>
<g id="a_node4"><a xlink:href="classalpaqa_1_1GAAPGASolver.html#a570ec001ea8eee359be8a1b90b782cfb" target="_top" xlink:title=" ">
<polygon fill="white" stroke="black" points="180,-0.5 180,-30.5 308,-30.5 308,-0.5 180,-0.5"/>
<text text-anchor="start" x="188" y="-18.5" font-family="Helvetica,sans-Serif" font-size="10.00">alpaqa::GAAPGASolver</text>
<text text-anchor="middle" x="244" y="-7.5" font-family="Helvetica,sans-Serif" font-size="10.00">::operator()</text>
</a>
</g>
</g>
<!-- Node1&#45;&gt;Node4 -->
<g id="edge3" class="edge">
<title>Node1&#45;&gt;Node4</title>
<path fill="none" stroke="midnightblue" d="M339.82,-28.58C329.16,-27.11 318.34,-25.62 308,-24.19"/>
<polygon fill="midnightblue" stroke="midnightblue" points="339.6,-32.08 349.98,-29.98 340.55,-25.15 339.6,-32.08"/>
</g>
<!-- Node3 -->
<g id="node3" class="node">
<title>Node3</title>
<g id="a_node3"><a xlink:href="structalpaqa_1_1PANOCDirection_3_01AndersonAccel_01_4.html#a8cd152877142b9d307953209d5428969" target="_top" xlink:title=" ">
<polygon fill="white" stroke="black" points="0,-49.5 0,-79.5 144,-79.5 144,-49.5 0,-49.5"/>
<text text-anchor="start" x="8" y="-67.5" font-family="Helvetica,sans-Serif" font-size="10.00">alpaqa::PANOCDirection</text>
<text text-anchor="middle" x="72" y="-56.5" font-family="Helvetica,sans-Serif" font-size="10.00">&lt; AndersonAccel &gt;::apply</text>
</a>
</g>
</g>
<!-- Node2&#45;&gt;Node3 -->
<g id="edge2" class="edge">
<title>Node2&#45;&gt;Node3</title>
<path fill="none" stroke="midnightblue" d="M169.51,-64.5C161.07,-64.5 152.48,-64.5 144.08,-64.5"/>
<polygon fill="midnightblue" stroke="midnightblue" points="169.7,-68 179.7,-64.5 169.7,-61 169.7,-68"/>
</g>
</g>
</svg>
