<?xml version="1.0" encoding="UTF-8" standalone="no"?>
<!DOCTYPE svg PUBLIC "-//W3C//DTD SVG 1.1//EN"
 "http://www.w3.org/Graphics/SVG/1.1/DTD/svg11.dtd">
<!-- Generated by graphviz version 2.43.0 (0)
 -->
<!-- Title: projecting_difference Pages: 1 -->
<svg width="818pt" height="410pt"
 viewBox="0.00 0.00 818.00 410.00" xmlns="http://www.w3.org/2000/svg" xmlns:xlink="http://www.w3.org/1999/xlink">
<g id="graph0" class="graph" transform="scale(1 1) rotate(0) translate(4 406)">
<title>projecting_difference</title>
<polygon fill="white" stroke="transparent" points="-4,4 -4,-406 814,-406 814,4 -4,4"/>
<!-- Node1 -->
<g id="node1" class="node">
<title>Node1</title>
<g id="a_node1"><a xlink:title="Get the difference between the given vector and its projection.">
<polygon fill="#bfbfbf" stroke="black" points="691,-133 691,-152 810,-152 810,-133 691,-133"/>
<text text-anchor="middle" x="750.5" y="-140" font-family="Helvetica,sans-Serif" font-size="10.00">projecting_difference</text>
</a>
</g>
</g>
<!-- Node2 -->
<g id="node2" class="node">
<title>Node2</title>
<g id="a_node2"><a xlink:href="namespacealpaqa_1_1detail.html#a164b2b3296b6868a4dd53b7c0d9d64e2" target="_top" xlink:title="Compute the ε from the stopping criterion, see PANOCStopCrit.">
<polygon fill="white" stroke="black" points="546,-224.5 546,-254.5 655,-254.5 655,-224.5 546,-224.5"/>
<text text-anchor="start" x="554" y="-242.5" font-family="Helvetica,sans-Serif" font-size="10.00">alpaqa::detail::calc</text>
<text text-anchor="middle" x="600.5" y="-231.5" font-family="Helvetica,sans-Serif" font-size="10.00">_error_stop_crit</text>
</a>
</g>
</g>
<!-- Node1&#45;&gt;Node2 -->
<g id="edge1" class="edge">
<title>Node1&#45;&gt;Node2</title>
<path fill="none" stroke="midnightblue" d="M726.1,-157.84C698.31,-176.05 652.26,-206.23 624.61,-224.36"/>
<polygon fill="midnightblue" stroke="midnightblue" points="728.32,-160.56 734.77,-152.16 724.49,-154.71 728.32,-160.56"/>
</g>
<!-- Node10 -->
<g id="node10" class="node">
<title>Node10</title>
<g id="a_node10"><a xlink:href="structalpaqa_1_1Problem.html#a402f4f8ea8905d81d911404a59ae5eeb" target="_top" xlink:title="Given g(x), compute the intermediate results ŷ and dᵀŷ that can later be used to compute ψ(x) and ∇ψ(...">
<polygon fill="white" stroke="black" points="348,-74.5 348,-104.5 470,-104.5 470,-74.5 348,-74.5"/>
<text text-anchor="start" x="356" y="-92.5" font-family="Helvetica,sans-Serif" font-size="10.00">alpaqa::Problem::calc</text>
<text text-anchor="middle" x="409" y="-81.5" font-family="Helvetica,sans-Serif" font-size="10.00">_ŷ_dᵀŷ</text>
</a>
</g>
</g>
<!-- Node1&#45;&gt;Node10 -->
<g id="edge10" class="edge">
<title>Node1&#45;&gt;Node10</title>
<path fill="none" stroke="midnightblue" d="M680.78,-138.69C641.18,-135.85 590.56,-131.11 546,-123.5 518.05,-118.73 487.37,-111.26 462.24,-104.54"/>
<polygon fill="midnightblue" stroke="midnightblue" points="680.64,-142.19 690.86,-139.39 681.13,-135.21 680.64,-142.19"/>
</g>
<!-- Node14 -->
<g id="node14" class="node">
<title>Node14</title>
<g id="a_node14"><a xlink:href="namespacealpaqa.html#ad0cdf210b4e36a43a6d7f7a4a975d9f1" target="_top" xlink:title="Get the distance squared between the given vector and its projection.">
<polygon fill="white" stroke="black" points="561,-95 561,-114 640,-114 640,-95 561,-95"/>
<text text-anchor="middle" x="600.5" y="-102" font-family="Helvetica,sans-Serif" font-size="10.00">dist_squared</text>
</a>
</g>
</g>
<!-- Node1&#45;&gt;Node14 -->
<g id="edge17" class="edge">
<title>Node1&#45;&gt;Node14</title>
<path fill="none" stroke="midnightblue" d="M702.33,-130.39C681.71,-125.1 657.89,-118.98 638.58,-114.02"/>
<polygon fill="midnightblue" stroke="midnightblue" points="701.6,-133.81 712.15,-132.91 703.34,-127.03 701.6,-133.81"/>
</g>
<!-- Node3 -->
<g id="node3" class="node">
<title>Node3</title>
<g id="a_node3"><a xlink:href="classalpaqa_1_1SecondOrderPANOCSolver.html#acb04b3f19dafad9b4e7e7c1c19018d19" target="_top" xlink:title=" ">
<polygon fill="white" stroke="black" points="318,-371.5 318,-401.5 500,-401.5 500,-371.5 318,-371.5"/>
<text text-anchor="start" x="326" y="-389.5" font-family="Helvetica,sans-Serif" font-size="10.00">alpaqa::SecondOrderPANOCSolver</text>
<text text-anchor="middle" x="409" y="-378.5" font-family="Helvetica,sans-Serif" font-size="10.00">::operator()</text>
</a>
</g>
</g>
<!-- Node2&#45;&gt;Node3 -->
<g id="edge2" class="edge">
<title>Node2&#45;&gt;Node3</title>
<path fill="none" stroke="midnightblue" d="M588.39,-263.84C574.26,-292.02 547.13,-337.71 510,-362.5 504.8,-365.97 499.16,-368.94 493.28,-371.48"/>
<polygon fill="midnightblue" stroke="midnightblue" points="591.63,-265.19 592.85,-254.67 585.33,-262.14 591.63,-265.19"/>
</g>
<!-- Node4 -->
<g id="node4" class="node">
<title>Node4</title>
<g id="a_node4"><a xlink:href="classalpaqa_1_1StructuredPANOCLBFGSSolver.html#ade95d8a7a1892d4087d6fffc958cde6e" target="_top" xlink:title=" ">
<polygon fill="white" stroke="black" points="308,-322.5 308,-352.5 510,-352.5 510,-322.5 308,-322.5"/>
<text text-anchor="start" x="316" y="-340.5" font-family="Helvetica,sans-Serif" font-size="10.00">alpaqa::StructuredPANOCLBFGSSolver</text>
<text text-anchor="middle" x="409" y="-329.5" font-family="Helvetica,sans-Serif" font-size="10.00">::operator()</text>
</a>
</g>
</g>
<!-- Node2&#45;&gt;Node4 -->
<g id="edge3" class="edge">
<title>Node2&#45;&gt;Node4</title>
<path fill="none" stroke="midnightblue" d="M578.3,-261.87C561.33,-278.49 536.12,-300.45 510,-313.5 503.13,-316.93 495.75,-319.89 488.22,-322.43"/>
<polygon fill="midnightblue" stroke="midnightblue" points="580.91,-264.21 585.49,-254.66 575.95,-259.27 580.91,-264.21"/>
</g>
<!-- Node5 -->
<g id="node5" class="node">
<title>Node5</title>
<g id="a_node5"><a xlink:href="classalpaqa_1_1GAAPGASolver.html#a570ec001ea8eee359be8a1b90b782cfb" target="_top" xlink:title=" ">
<polygon fill="white" stroke="black" points="345,-273.5 345,-303.5 473,-303.5 473,-273.5 345,-273.5"/>
<text text-anchor="start" x="353" y="-291.5" font-family="Helvetica,sans-Serif" font-size="10.00">alpaqa::GAAPGASolver</text>
<text text-anchor="middle" x="409" y="-280.5" font-family="Helvetica,sans-Serif" font-size="10.00">::operator()</text>
</a>
</g>
</g>
<!-- Node2&#45;&gt;Node5 -->
<g id="edge4" class="edge">
<title>Node2&#45;&gt;Node5</title>
<path fill="none" stroke="midnightblue" d="M536.9,-257.3C527.88,-259.77 518.72,-262.24 510,-264.5 498.08,-267.6 485.31,-270.77 473.03,-273.75"/>
<polygon fill="midnightblue" stroke="midnightblue" points="537.87,-260.66 546.58,-254.63 536.01,-253.92 537.87,-260.66"/>
</g>
<!-- Node6 -->
<g id="node6" class="node">
<title>Node6</title>
<g id="a_node6"><a xlink:href="classalpaqa_1_1PGASolver.html#af516b794e244432023aea7ba3cd0d1d8" target="_top" xlink:title=" ">
<polygon fill="white" stroke="black" points="352.5,-224.5 352.5,-254.5 465.5,-254.5 465.5,-224.5 352.5,-224.5"/>
<text text-anchor="start" x="360.5" y="-242.5" font-family="Helvetica,sans-Serif" font-size="10.00">alpaqa::PGASolver::</text>
<text text-anchor="middle" x="409" y="-231.5" font-family="Helvetica,sans-Serif" font-size="10.00">operator()</text>
</a>
</g>
</g>
<!-- Node2&#45;&gt;Node6 -->
<g id="edge5" class="edge">
<title>Node2&#45;&gt;Node6</title>
<path fill="none" stroke="midnightblue" d="M535.74,-239.5C513.05,-239.5 487.69,-239.5 465.72,-239.5"/>
<polygon fill="midnightblue" stroke="midnightblue" points="535.96,-243 545.96,-239.5 535.96,-236 535.96,-243"/>
</g>
<!-- Node7 -->
<g id="node7" class="node">
<title>Node7</title>
<g id="a_node7"><a xlink:href="namespacealpaqa.html#a623fe9757577812e38c5e4f85f484954" target="_top" xlink:title=" ">
<polygon fill="white" stroke="black" points="372.5,-186 372.5,-205 445.5,-205 445.5,-186 372.5,-186"/>
<text text-anchor="middle" x="409" y="-193" font-family="Helvetica,sans-Serif" font-size="10.00">panoc_impl</text>
</a>
</g>
</g>
<!-- Node2&#45;&gt;Node7 -->
<g id="edge6" class="edge">
<title>Node2&#45;&gt;Node7</title>
<path fill="none" stroke="midnightblue" d="M535.95,-221.92C527.25,-219.67 518.42,-217.47 510,-215.5 488.79,-210.54 464.88,-205.73 445.76,-202.07"/>
<polygon fill="midnightblue" stroke="midnightblue" points="535.13,-225.32 545.69,-224.47 536.9,-218.55 535.13,-225.32"/>
</g>
<!-- Node9 -->
<g id="node9" class="node">
<title>Node9</title>
<g id="a_node9"><a xlink:href="alpaqa_8cpp.html#a52c00cccef0976f125d4a27f9906c36b" target="_top" xlink:title=" ">
<polygon fill="white" stroke="black" points="0,-104 0,-123 113,-123 113,-104 0,-104"/>
<text text-anchor="middle" x="56.5" y="-111" font-family="Helvetica,sans-Serif" font-size="10.00">PYBIND11_MODULE</text>
</a>
</g>
</g>
<!-- Node2&#45;&gt;Node9 -->
<g id="edge9" class="edge">
<title>Node2&#45;&gt;Node9</title>
<path fill="none" stroke="midnightblue" d="M575.76,-217.69C558.75,-203.43 534.6,-185.77 510,-176.5 358.99,-119.58 307.71,-166.72 149,-137.5 128.81,-133.78 106.52,-127.97 89,-123"/>
<polygon fill="midnightblue" stroke="midnightblue" points="573.64,-220.49 583.5,-224.37 578.21,-215.19 573.64,-220.49"/>
</g>
<!-- Node8 -->
<g id="node8" class="node">
<title>Node8</title>
<g id="a_node8"><a xlink:href="namespacealpaqa.html#a376c6e914033784e80698c416693b9c7" target="_top" xlink:title=" ">
<polygon fill="white" stroke="black" points="187.5,-186 187.5,-205 233.5,-205 233.5,-186 187.5,-186"/>
<text text-anchor="middle" x="210.5" y="-193" font-family="Helvetica,sans-Serif" font-size="10.00">panoc</text>
</a>
</g>
</g>
<!-- Node7&#45;&gt;Node8 -->
<g id="edge7" class="edge">
<title>Node7&#45;&gt;Node8</title>
<path fill="none" stroke="midnightblue" d="M362.28,-195.5C321.9,-195.5 264.75,-195.5 233.69,-195.5"/>
<polygon fill="midnightblue" stroke="midnightblue" points="362.42,-199 372.42,-195.5 362.42,-192 362.42,-199"/>
</g>
<!-- Node8&#45;&gt;Node9 -->
<g id="edge8" class="edge">
<title>Node8&#45;&gt;Node9</title>
<path fill="none" stroke="midnightblue" d="M177.78,-184.2C168.35,-180.51 158.12,-176.15 149,-171.5 120.01,-156.73 88.42,-135.43 70.98,-123.18"/>
<polygon fill="midnightblue" stroke="midnightblue" points="176.63,-187.51 187.22,-187.8 179.12,-180.97 176.63,-187.51"/>
</g>
<!-- Node11 -->
<g id="node11" class="node">
<title>Node11</title>
<g id="a_node11"><a xlink:href="structalpaqa_1_1Problem.html#af4e909497793ecd72eb8dcc4f5c2a55c" target="_top" xlink:title="Calculate the gradient ∇ψ(x).">
<polygon fill="white" stroke="black" points="149,-98.5 149,-128.5 272,-128.5 272,-98.5 149,-98.5"/>
<text text-anchor="start" x="157" y="-116.5" font-family="Helvetica,sans-Serif" font-size="10.00">alpaqa::Problem::eval</text>
<text text-anchor="middle" x="210.5" y="-105.5" font-family="Helvetica,sans-Serif" font-size="10.00">_grad_ψ</text>
</a>
</g>
</g>
<!-- Node10&#45;&gt;Node11 -->
<g id="edge11" class="edge">
<title>Node10&#45;&gt;Node11</title>
<path fill="none" stroke="midnightblue" d="M337.93,-98.06C316.44,-100.68 292.98,-103.55 272.17,-106.09"/>
<polygon fill="midnightblue" stroke="midnightblue" points="338.47,-101.52 347.98,-96.83 337.63,-94.57 338.47,-101.52"/>
</g>
<!-- Node12 -->
<g id="node12" class="node">
<title>Node12</title>
<g id="a_node12"><a xlink:href="structalpaqa_1_1Problem.html#aa0e2bd5f0128185dcdfc84d858d43bd0" target="_top" xlink:title="Calculate both ψ(x) and its gradient ∇ψ(x).">
<polygon fill="white" stroke="black" points="149,-49.5 149,-79.5 272,-79.5 272,-49.5 149,-49.5"/>
<text text-anchor="start" x="157" y="-67.5" font-family="Helvetica,sans-Serif" font-size="10.00">alpaqa::Problem::eval</text>
<text text-anchor="middle" x="210.5" y="-56.5" font-family="Helvetica,sans-Serif" font-size="10.00">_ψ_grad_ψ</text>
</a>
</g>
</g>
<!-- Node10&#45;&gt;Node12 -->
<g id="edge13" class="edge">
<title>Node10&#45;&gt;Node12</title>
<path fill="none" stroke="midnightblue" d="M337.93,-80.59C316.44,-77.85 292.98,-74.87 272.17,-72.22"/>
<polygon fill="midnightblue" stroke="midnightblue" points="337.61,-84.07 347.98,-81.86 338.5,-77.13 337.61,-84.07"/>
</g>
<!-- Node13 -->
<g id="node13" class="node">
<title>Node13</title>
<g id="a_node13"><a xlink:href="structalpaqa_1_1Problem.html#ae9336441a3bb074da2fc22d6f39e1347" target="_top" xlink:title="Calculate both ψ(x) and the vector ŷ that can later be used to compute ∇ψ.">
<polygon fill="white" stroke="black" points="149,-0.5 149,-30.5 272,-30.5 272,-0.5 149,-0.5"/>
<text text-anchor="start" x="157" y="-18.5" font-family="Helvetica,sans-Serif" font-size="10.00">alpaqa::Problem::eval</text>
<text text-anchor="middle" x="210.5" y="-7.5" font-family="Helvetica,sans-Serif" font-size="10.00">_ψ_ŷ</text>
</a>
</g>
</g>
<!-- Node10&#45;&gt;Node13 -->
<g id="edge15" class="edge">
<title>Node10&#45;&gt;Node13</title>
<path fill="none" stroke="midnightblue" d="M358.26,-70.77C325.15,-58.3 282.21,-42.13 251.35,-30.51"/>
<polygon fill="midnightblue" stroke="midnightblue" points="357.17,-74.1 367.76,-74.35 359.64,-67.55 357.17,-74.1"/>
</g>
<!-- Node11&#45;&gt;Node9 -->
<g id="edge12" class="edge">
<title>Node11&#45;&gt;Node9</title>
<path fill="none" stroke="midnightblue" d="M138.97,-113.5C130.38,-113.5 121.7,-113.5 113.36,-113.5"/>
<polygon fill="midnightblue" stroke="midnightblue" points="138.99,-117 148.99,-113.5 138.99,-110 138.99,-117"/>
</g>
<!-- Node12&#45;&gt;Node9 -->
<g id="edge14" class="edge">
<title>Node12&#45;&gt;Node9</title>
<path fill="none" stroke="midnightblue" d="M152.93,-82.74C130.61,-89.93 105.89,-97.9 87.2,-103.92"/>
<polygon fill="midnightblue" stroke="midnightblue" points="154.21,-86 162.65,-79.6 152.06,-79.34 154.21,-86"/>
</g>
<!-- Node13&#45;&gt;Node9 -->
<g id="edge16" class="edge">
<title>Node13&#45;&gt;Node9</title>
<path fill="none" stroke="midnightblue" d="M157.67,-34.82C154.69,-36.31 151.78,-37.88 149,-39.5 116.37,-58.57 83.11,-88.72 67.18,-103.98"/>
<polygon fill="midnightblue" stroke="midnightblue" points="159.18,-37.98 166.74,-30.57 156.2,-31.65 159.18,-37.98"/>
</g>
</g>
</svg>
