<?xml version="1.0" encoding="UTF-8" standalone="no"?>
<!DOCTYPE svg PUBLIC "-//W3C//DTD SVG 1.1//EN"
 "http://www.w3.org/Graphics/SVG/1.1/DTD/svg11.dtd">
<!-- Generated by graphviz version 2.43.0 (0)
 -->
<!-- Title: project Pages: 1 -->
<svg width="952pt" height="596pt"
 viewBox="0.00 0.00 952.00 596.00" xmlns="http://www.w3.org/2000/svg" xmlns:xlink="http://www.w3.org/1999/xlink">
<g id="graph0" class="graph" transform="scale(1 1) rotate(0) translate(4 592)">
<title>project</title>
<polygon fill="white" stroke="transparent" points="-4,4 -4,-592 948,-592 948,4 -4,4"/>
<!-- Node1 -->
<g id="node1" class="node">
<title>Node1</title>
<g id="a_node1"><a xlink:title="Project a vector onto a box.">
<polygon fill="#bfbfbf" stroke="black" points="894,-274 894,-293 944,-293 944,-274 894,-274"/>
<text text-anchor="middle" x="919" y="-281" font-family="Helvetica,sans-Serif" font-size="10.00">project</text>
</a>
</g>
</g>
<!-- Node2 -->
<g id="node2" class="node">
<title>Node2</title>
<g id="a_node2"><a xlink:href="namespacealpaqa_1_1detail.html#a609b04c1159d9c3a0346c2ff7fbacb86" target="_top" xlink:title="Calculate the error between ẑ and g(x).">
<polygon fill="white" stroke="black" points="546,-371.5 546,-401.5 655,-401.5 655,-371.5 546,-371.5"/>
<text text-anchor="start" x="554" y="-389.5" font-family="Helvetica,sans-Serif" font-size="10.00">alpaqa::detail::calc</text>
<text text-anchor="middle" x="600.5" y="-378.5" font-family="Helvetica,sans-Serif" font-size="10.00">_err_z</text>
</a>
</g>
</g>
<!-- Node1&#45;&gt;Node2 -->
<g id="edge1" class="edge">
<title>Node1&#45;&gt;Node2</title>
<path fill="none" stroke="midnightblue" d="M902.82,-300.69C891.59,-312.31 875.3,-327.03 858,-335.5 792.75,-367.44 708.87,-379.37 655.13,-383.84"/>
<polygon fill="midnightblue" stroke="midnightblue" points="905.49,-302.96 909.74,-293.26 900.36,-298.19 905.49,-302.96"/>
</g>
<!-- Node8 -->
<g id="node8" class="node">
<title>Node8</title>
<g id="a_node8"><a xlink:href="classalpaqa_1_1GAAPGASolver.html#a570ec001ea8eee359be8a1b90b782cfb" target="_top" xlink:title=" ">
<polygon fill="white" stroke="black" points="345,-273.5 345,-303.5 473,-303.5 473,-273.5 345,-273.5"/>
<text text-anchor="start" x="353" y="-291.5" font-family="Helvetica,sans-Serif" font-size="10.00">alpaqa::GAAPGASolver</text>
<text text-anchor="middle" x="409" y="-280.5" font-family="Helvetica,sans-Serif" font-size="10.00">::operator()</text>
</a>
</g>
</g>
<!-- Node1&#45;&gt;Node8 -->
<g id="edge13" class="edge">
<title>Node1&#45;&gt;Node8</title>
<path fill="none" stroke="midnightblue" d="M884.32,-296.15C875.85,-298.78 866.69,-301.16 858,-302.5 720.96,-323.68 684.48,-309.61 546,-302.5 522.18,-301.28 496.1,-298.86 473.21,-296.37"/>
<polygon fill="midnightblue" stroke="midnightblue" points="885.48,-299.45 893.88,-293 883.29,-292.81 885.48,-299.45"/>
</g>
<!-- Node11 -->
<g id="node11" class="node">
<title>Node11</title>
<g id="a_node11"><a xlink:href="namespacealpaqa.html#afbb5293539f52dbdf340e2543bea918d" target="_top" xlink:title="Get the distance squared between the given vector and its projection in the Σ norm.">
<polygon fill="white" stroke="black" points="735,-236 735,-255 814,-255 814,-236 735,-236"/>
<text text-anchor="middle" x="774.5" y="-243" font-family="Helvetica,sans-Serif" font-size="10.00">dist_squared</text>
</a>
</g>
</g>
<!-- Node1&#45;&gt;Node11 -->
<g id="edge10" class="edge">
<title>Node1&#45;&gt;Node11</title>
<path fill="none" stroke="midnightblue" d="M884.26,-272.29C875.73,-269.6 866.56,-266.84 858,-264.5 843.82,-260.63 828.13,-256.88 814.27,-253.76"/>
<polygon fill="midnightblue" stroke="midnightblue" points="883.31,-275.66 893.9,-275.38 885.45,-269 883.31,-275.66"/>
</g>
<!-- Node12 -->
<g id="node12" class="node">
<title>Node12</title>
<g id="a_node12"><a xlink:href="namespacealpaqa_1_1casadi__loader.html#ad27c80ddde399122350615a618f17700" target="_top" xlink:title=" ">
<polygon fill="white" stroke="black" points="691,-168.5 691,-198.5 858,-198.5 858,-168.5 691,-168.5"/>
<text text-anchor="start" x="699" y="-186.5" font-family="Helvetica,sans-Serif" font-size="10.00">alpaqa.casadi_loader.generate</text>
<text text-anchor="middle" x="774.5" y="-175.5" font-family="Helvetica,sans-Serif" font-size="10.00">_and_compile_casadi_problem</text>
</a>
</g>
</g>
<!-- Node1&#45;&gt;Node12 -->
<g id="edge11" class="edge">
<title>Node1&#45;&gt;Node12</title>
<path fill="none" stroke="midnightblue" d="M902.23,-266.13C890.72,-254.08 874.34,-238.17 858,-226.5 843.02,-215.8 825.02,-206.1 809.66,-198.64"/>
<polygon fill="midnightblue" stroke="midnightblue" points="899.97,-268.84 909.36,-273.76 905.08,-264.06 899.97,-268.84"/>
</g>
<!-- Node13 -->
<g id="node13" class="node">
<title>Node13</title>
<g id="a_node13"><a xlink:href="namespacealpaqa.html#aebbd23b8fcae9c5fdf8aac14dcebf39e" target="_top" xlink:title="Get the difference between the given vector and its projection.">
<polygon fill="white" stroke="black" points="715,-274 715,-293 834,-293 834,-274 715,-274"/>
<text text-anchor="middle" x="774.5" y="-281" font-family="Helvetica,sans-Serif" font-size="10.00">projecting_difference</text>
</a>
</g>
</g>
<!-- Node1&#45;&gt;Node13 -->
<g id="edge14" class="edge">
<title>Node1&#45;&gt;Node13</title>
<path fill="none" stroke="midnightblue" d="M883.61,-283.5C868.8,-283.5 851.04,-283.5 834.25,-283.5"/>
<polygon fill="midnightblue" stroke="midnightblue" points="883.83,-287 893.83,-283.5 883.83,-280 883.83,-287"/>
</g>
<!-- Node3 -->
<g id="node3" class="node">
<title>Node3</title>
<g id="a_node3"><a xlink:href="classalpaqa_1_1PANOCSolver.html#aaa9758a40bd362331202fb232b4bb7ae" target="_top" xlink:title=" ">
<polygon fill="white" stroke="black" points="349,-459.5 349,-489.5 469,-489.5 469,-459.5 349,-459.5"/>
<text text-anchor="start" x="357" y="-477.5" font-family="Helvetica,sans-Serif" font-size="10.00">alpaqa::PANOCSolver</text>
<text text-anchor="middle" x="409" y="-466.5" font-family="Helvetica,sans-Serif" font-size="10.00">::operator()</text>
</a>
</g>
</g>
<!-- Node2&#45;&gt;Node3 -->
<g id="edge2" class="edge">
<title>Node2&#45;&gt;Node3</title>
<path fill="none" stroke="midnightblue" d="M571.45,-407.63C554.39,-419.72 531.75,-434.44 510,-444.5 497.17,-450.44 482.87,-455.54 469.2,-459.77"/>
<polygon fill="midnightblue" stroke="midnightblue" points="573.77,-410.28 579.84,-401.59 569.68,-404.6 573.77,-410.28"/>
</g>
<!-- Node4 -->
<g id="node4" class="node">
<title>Node4</title>
<g id="a_node4"><a xlink:href="classalpaqa_1_1SecondOrderPANOCSolver.html#acb04b3f19dafad9b4e7e7c1c19018d19" target="_top" xlink:title=" ">
<polygon fill="white" stroke="black" points="318,-371.5 318,-401.5 500,-401.5 500,-371.5 318,-371.5"/>
<text text-anchor="start" x="326" y="-389.5" font-family="Helvetica,sans-Serif" font-size="10.00">alpaqa::SecondOrderPANOCSolver</text>
<text text-anchor="middle" x="409" y="-378.5" font-family="Helvetica,sans-Serif" font-size="10.00">::operator()</text>
</a>
</g>
</g>
<!-- Node2&#45;&gt;Node4 -->
<g id="edge3" class="edge">
<title>Node2&#45;&gt;Node4</title>
<path fill="none" stroke="midnightblue" d="M535.72,-386.5C524.35,-386.5 512.3,-386.5 500.35,-386.5"/>
<polygon fill="midnightblue" stroke="midnightblue" points="535.96,-390 545.96,-386.5 535.96,-383 535.96,-390"/>
</g>
<!-- Node5 -->
<g id="node5" class="node">
<title>Node5</title>
<g id="a_node5"><a xlink:href="classalpaqa_1_1StructuredPANOCLBFGSSolver.html#ade95d8a7a1892d4087d6fffc958cde6e" target="_top" xlink:title=" ">
<polygon fill="white" stroke="black" points="308,-322.5 308,-352.5 510,-352.5 510,-322.5 308,-322.5"/>
<text text-anchor="start" x="316" y="-340.5" font-family="Helvetica,sans-Serif" font-size="10.00">alpaqa::StructuredPANOCLBFGSSolver</text>
<text text-anchor="middle" x="409" y="-329.5" font-family="Helvetica,sans-Serif" font-size="10.00">::operator()</text>
</a>
</g>
</g>
<!-- Node2&#45;&gt;Node5 -->
<g id="edge4" class="edge">
<title>Node2&#45;&gt;Node5</title>
<path fill="none" stroke="midnightblue" d="M535.86,-369.29C527.18,-366.99 518.37,-364.67 510,-362.5 497.35,-359.22 483.79,-355.78 470.86,-352.54"/>
<polygon fill="midnightblue" stroke="midnightblue" points="535.02,-372.69 545.59,-371.88 536.82,-365.93 535.02,-372.69"/>
</g>
<!-- Node6 -->
<g id="node6" class="node">
<title>Node6</title>
<g id="a_node6"><a xlink:href="classalpaqa_1_1LBFGSSolver.html#a8540540028b02dfe8b7e3ec0c49c07dd" target="_top" xlink:title=" ">
<polygon fill="white" stroke="black" points="350,-557.5 350,-587.5 468,-587.5 468,-557.5 350,-557.5"/>
<text text-anchor="start" x="358" y="-575.5" font-family="Helvetica,sans-Serif" font-size="10.00">alpaqa::LBFGSSolver</text>
<text text-anchor="middle" x="409" y="-564.5" font-family="Helvetica,sans-Serif" font-size="10.00">::operator()</text>
</a>
</g>
</g>
<!-- Node2&#45;&gt;Node6 -->
<g id="edge5" class="edge">
<title>Node2&#45;&gt;Node6</title>
<path fill="none" stroke="midnightblue" d="M592.72,-411.47C581.63,-447.45 556.07,-513.42 510,-548.5 497.93,-557.69 482.85,-563.43 468.09,-566.99"/>
<polygon fill="midnightblue" stroke="midnightblue" points="596.12,-412.33 595.59,-401.74 589.41,-410.34 596.12,-412.33"/>
</g>
<!-- Node7 -->
<g id="node7" class="node">
<title>Node7</title>
<g id="a_node7"><a xlink:href="classalpaqa_1_1LBFGSBSolver.html#a8540540028b02dfe8b7e3ec0c49c07dd" target="_top" xlink:title=" ">
<polygon fill="white" stroke="black" points="346.5,-508.5 346.5,-538.5 471.5,-538.5 471.5,-508.5 346.5,-508.5"/>
<text text-anchor="start" x="354.5" y="-526.5" font-family="Helvetica,sans-Serif" font-size="10.00">alpaqa::LBFGSBSolver</text>
<text text-anchor="middle" x="409" y="-515.5" font-family="Helvetica,sans-Serif" font-size="10.00">::operator()</text>
</a>
</g>
</g>
<!-- Node2&#45;&gt;Node7 -->
<g id="edge6" class="edge">
<title>Node2&#45;&gt;Node7</title>
<path fill="none" stroke="midnightblue" d="M586.98,-410.45C572.14,-436.44 544.94,-477.19 510,-499.5 498.49,-506.85 484.93,-511.95 471.57,-515.49"/>
<polygon fill="midnightblue" stroke="midnightblue" points="590.1,-412.05 591.88,-401.61 583.98,-408.66 590.1,-412.05"/>
</g>
<!-- Node2&#45;&gt;Node8 -->
<g id="edge7" class="edge">
<title>Node2&#45;&gt;Node8</title>
<path fill="none" stroke="midnightblue" d="M577.9,-364.22C560.89,-347.9 535.81,-326.43 510,-313.5 498.56,-307.77 485.71,-303.29 473.13,-299.81"/>
<polygon fill="midnightblue" stroke="midnightblue" points="575.54,-366.8 585.13,-371.31 580.44,-361.8 575.54,-366.8"/>
</g>
<!-- Node9 -->
<g id="node9" class="node">
<title>Node9</title>
<g id="a_node9"><a xlink:href="classalpaqa_1_1PGASolver.html#af516b794e244432023aea7ba3cd0d1d8" target="_top" xlink:title=" ">
<polygon fill="white" stroke="black" points="352.5,-224.5 352.5,-254.5 465.5,-254.5 465.5,-224.5 352.5,-224.5"/>
<text text-anchor="start" x="360.5" y="-242.5" font-family="Helvetica,sans-Serif" font-size="10.00">alpaqa::PGASolver::</text>
<text text-anchor="middle" x="409" y="-231.5" font-family="Helvetica,sans-Serif" font-size="10.00">operator()</text>
</a>
</g>
</g>
<!-- Node2&#45;&gt;Node9 -->
<g id="edge8" class="edge">
<title>Node2&#45;&gt;Node9</title>
<path fill="none" stroke="midnightblue" d="M584.87,-362.78C564.89,-331.11 529.35,-277.5 510,-264.5 496.85,-255.67 480.84,-249.96 465.52,-246.26"/>
<polygon fill="midnightblue" stroke="midnightblue" points="582.03,-364.83 590.3,-371.45 587.96,-361.12 582.03,-364.83"/>
</g>
<!-- Node10 -->
<g id="node10" class="node">
<title>Node10</title>
<g id="a_node10"><a xlink:href="alpaqa_8cpp.html#a52c00cccef0976f125d4a27f9906c36b" target="_top" xlink:title=" ">
<polygon fill="white" stroke="black" points="0,-126 0,-145 113,-145 113,-126 0,-126"/>
<text text-anchor="middle" x="56.5" y="-133" font-family="Helvetica,sans-Serif" font-size="10.00">PYBIND11_MODULE</text>
</a>
</g>
</g>
<!-- Node2&#45;&gt;Node10 -->
<g id="edge9" class="edge">
<title>Node2&#45;&gt;Node10</title>
<path fill="none" stroke="midnightblue" d="M550.18,-404.74C490.21,-423.83 387.19,-446.57 308,-411.5 176.06,-353.07 83.9,-187.01 62.34,-145.16"/>
<polygon fill="midnightblue" stroke="midnightblue" points="551.37,-408.03 559.78,-401.59 549.19,-401.38 551.37,-408.03"/>
</g>
<!-- Node12&#45;&gt;Node12 -->
<g id="edge12" class="edge">
<title>Node12&#45;&gt;Node12</title>
<path fill="none" stroke="midnightblue" d="M800.09,-208.96C796.91,-213.68 788.38,-217 774.5,-217 751.72,-217 743.35,-208.06 749.41,-198.66"/>
<polygon fill="midnightblue" stroke="midnightblue" points="803.57,-208.48 799.59,-198.66 796.58,-208.81 803.57,-208.48"/>
</g>
<!-- Node14 -->
<g id="node14" class="node">
<title>Node14</title>
<g id="a_node14"><a xlink:href="namespacealpaqa_1_1detail.html#a164b2b3296b6868a4dd53b7c0d9d64e2" target="_top" xlink:title="Compute the ε from the stopping criterion, see PANOCStopCrit.">
<polygon fill="white" stroke="black" points="546,-224.5 546,-254.5 655,-254.5 655,-224.5 546,-224.5"/>
<text text-anchor="start" x="554" y="-242.5" font-family="Helvetica,sans-Serif" font-size="10.00">alpaqa::detail::calc</text>
<text text-anchor="middle" x="600.5" y="-231.5" font-family="Helvetica,sans-Serif" font-size="10.00">_error_stop_crit</text>
</a>
</g>
</g>
<!-- Node13&#45;&gt;Node14 -->
<g id="edge15" class="edge">
<title>Node13&#45;&gt;Node14</title>
<path fill="none" stroke="midnightblue" d="M720.18,-271.6C710.45,-269.32 700.41,-266.9 691,-264.5 678.96,-261.43 666.07,-257.95 653.92,-254.58"/>
<polygon fill="midnightblue" stroke="midnightblue" points="719.63,-275.06 730.16,-273.91 721.21,-268.25 719.63,-275.06"/>
</g>
<!-- Node17 -->
<g id="node17" class="node">
<title>Node17</title>
<g id="a_node17"><a xlink:href="structalpaqa_1_1Problem.html#a402f4f8ea8905d81d911404a59ae5eeb" target="_top" xlink:title="Given g(x), compute the intermediate results ŷ and dᵀŷ that can later be used to compute ψ(x) and ∇ψ(...">
<polygon fill="white" stroke="black" points="348,-74.5 348,-104.5 470,-104.5 470,-74.5 348,-74.5"/>
<text text-anchor="start" x="356" y="-92.5" font-family="Helvetica,sans-Serif" font-size="10.00">alpaqa::Problem::calc</text>
<text text-anchor="middle" x="409" y="-81.5" font-family="Helvetica,sans-Serif" font-size="10.00">_ŷ_dᵀŷ</text>
</a>
</g>
</g>
<!-- Node13&#45;&gt;Node17 -->
<g id="edge24" class="edge">
<title>Node13&#45;&gt;Node17</title>
<path fill="none" stroke="midnightblue" d="M705.6,-272.12C700.46,-269.99 695.53,-267.48 691,-264.5 668.42,-249.65 675.56,-233.03 655,-215.5 592.95,-162.59 504.87,-124.26 452.97,-104.57"/>
<polygon fill="midnightblue" stroke="midnightblue" points="704.4,-275.41 715,-275.53 706.79,-268.83 704.4,-275.41"/>
</g>
<!-- Node21 -->
<g id="node21" class="node">
<title>Node21</title>
<g id="a_node21"><a xlink:href="namespacealpaqa.html#ad0cdf210b4e36a43a6d7f7a4a975d9f1" target="_top" xlink:title="Get the distance squared between the given vector and its projection.">
<polygon fill="white" stroke="black" points="561,-274 561,-293 640,-293 640,-274 561,-274"/>
<text text-anchor="middle" x="600.5" y="-281" font-family="Helvetica,sans-Serif" font-size="10.00">dist_squared</text>
</a>
</g>
</g>
<!-- Node13&#45;&gt;Node21 -->
<g id="edge31" class="edge">
<title>Node13&#45;&gt;Node21</title>
<path fill="none" stroke="midnightblue" d="M704.53,-283.5C682.64,-283.5 659.21,-283.5 640.24,-283.5"/>
<polygon fill="midnightblue" stroke="midnightblue" points="704.79,-287 714.79,-283.5 704.79,-280 704.79,-287"/>
</g>
<!-- Node14&#45;&gt;Node4 -->
<g id="edge16" class="edge">
<title>Node14&#45;&gt;Node4</title>
<path fill="none" stroke="midnightblue" d="M549.88,-260.72C548.52,-261.92 547.22,-263.18 546,-264.5 514.61,-298.68 544.67,-331.66 510,-362.5 506.13,-365.94 501.86,-368.91 497.32,-371.47"/>
<polygon fill="midnightblue" stroke="midnightblue" points="552.34,-263.25 558.33,-254.51 548.2,-257.61 552.34,-263.25"/>
</g>
<!-- Node14&#45;&gt;Node5 -->
<g id="edge17" class="edge">
<title>Node14&#45;&gt;Node5</title>
<path fill="none" stroke="midnightblue" d="M552.25,-259.87C550.08,-261.34 547.98,-262.88 546,-264.5 525.11,-281.64 532.51,-298.55 510,-313.5 504.79,-316.96 499.14,-319.92 493.27,-322.45"/>
<polygon fill="midnightblue" stroke="midnightblue" points="554.21,-262.78 560.97,-254.61 550.6,-256.78 554.21,-262.78"/>
</g>
<!-- Node14&#45;&gt;Node8 -->
<g id="edge18" class="edge">
<title>Node14&#45;&gt;Node8</title>
<path fill="none" stroke="midnightblue" d="M536.9,-257.3C527.88,-259.77 518.72,-262.24 510,-264.5 498.08,-267.6 485.31,-270.77 473.03,-273.75"/>
<polygon fill="midnightblue" stroke="midnightblue" points="537.87,-260.66 546.58,-254.63 536.01,-253.92 537.87,-260.66"/>
</g>
<!-- Node14&#45;&gt;Node9 -->
<g id="edge19" class="edge">
<title>Node14&#45;&gt;Node9</title>
<path fill="none" stroke="midnightblue" d="M535.74,-239.5C513.05,-239.5 487.69,-239.5 465.72,-239.5"/>
<polygon fill="midnightblue" stroke="midnightblue" points="535.96,-243 545.96,-239.5 535.96,-236 535.96,-243"/>
</g>
<!-- Node14&#45;&gt;Node10 -->
<g id="edge23" class="edge">
<title>Node14&#45;&gt;Node10</title>
<path fill="none" stroke="midnightblue" d="M572.33,-218.01C551.17,-201.73 523.23,-181.36 510,-176.5 438.54,-150.27 217.64,-140.28 113.24,-136.96"/>
<polygon fill="midnightblue" stroke="midnightblue" points="570.31,-220.87 580.36,-224.24 574.6,-215.34 570.31,-220.87"/>
</g>
<!-- Node15 -->
<g id="node15" class="node">
<title>Node15</title>
<g id="a_node15"><a xlink:href="namespacealpaqa.html#a623fe9757577812e38c5e4f85f484954" target="_top" xlink:title=" ">
<polygon fill="white" stroke="black" points="372.5,-186 372.5,-205 445.5,-205 445.5,-186 372.5,-186"/>
<text text-anchor="middle" x="409" y="-193" font-family="Helvetica,sans-Serif" font-size="10.00">panoc_impl</text>
</a>
</g>
</g>
<!-- Node14&#45;&gt;Node15 -->
<g id="edge20" class="edge">
<title>Node14&#45;&gt;Node15</title>
<path fill="none" stroke="midnightblue" d="M535.95,-221.92C527.25,-219.67 518.42,-217.47 510,-215.5 488.79,-210.54 464.88,-205.73 445.76,-202.07"/>
<polygon fill="midnightblue" stroke="midnightblue" points="535.13,-225.32 545.69,-224.47 536.9,-218.55 535.13,-225.32"/>
</g>
<!-- Node16 -->
<g id="node16" class="node">
<title>Node16</title>
<g id="a_node16"><a xlink:href="namespacealpaqa.html#a376c6e914033784e80698c416693b9c7" target="_top" xlink:title=" ">
<polygon fill="white" stroke="black" points="187.5,-186 187.5,-205 233.5,-205 233.5,-186 187.5,-186"/>
<text text-anchor="middle" x="210.5" y="-193" font-family="Helvetica,sans-Serif" font-size="10.00">panoc</text>
</a>
</g>
</g>
<!-- Node15&#45;&gt;Node16 -->
<g id="edge21" class="edge">
<title>Node15&#45;&gt;Node16</title>
<path fill="none" stroke="midnightblue" d="M362.28,-195.5C321.9,-195.5 264.75,-195.5 233.69,-195.5"/>
<polygon fill="midnightblue" stroke="midnightblue" points="362.42,-199 372.42,-195.5 362.42,-192 362.42,-199"/>
</g>
<!-- Node16&#45;&gt;Node10 -->
<g id="edge22" class="edge">
<title>Node16&#45;&gt;Node10</title>
<path fill="none" stroke="midnightblue" d="M177.86,-183.01C149.22,-171.71 107.67,-155.3 81.64,-145.03"/>
<polygon fill="midnightblue" stroke="midnightblue" points="176.81,-186.36 187.4,-186.78 179.38,-179.85 176.81,-186.36"/>
</g>
<!-- Node18 -->
<g id="node18" class="node">
<title>Node18</title>
<g id="a_node18"><a xlink:href="structalpaqa_1_1Problem.html#af4e909497793ecd72eb8dcc4f5c2a55c" target="_top" xlink:title="Calculate the gradient ∇ψ(x).">
<polygon fill="white" stroke="black" points="149,-49.5 149,-79.5 272,-79.5 272,-49.5 149,-49.5"/>
<text text-anchor="start" x="157" y="-67.5" font-family="Helvetica,sans-Serif" font-size="10.00">alpaqa::Problem::eval</text>
<text text-anchor="middle" x="210.5" y="-56.5" font-family="Helvetica,sans-Serif" font-size="10.00">_grad_ψ</text>
</a>
</g>
</g>
<!-- Node17&#45;&gt;Node18 -->
<g id="edge25" class="edge">
<title>Node17&#45;&gt;Node18</title>
<path fill="none" stroke="midnightblue" d="M337.93,-80.59C316.44,-77.85 292.98,-74.87 272.17,-72.22"/>
<polygon fill="midnightblue" stroke="midnightblue" points="337.61,-84.07 347.98,-81.86 338.5,-77.13 337.61,-84.07"/>
</g>
<!-- Node19 -->
<g id="node19" class="node">
<title>Node19</title>
<g id="a_node19"><a xlink:href="structalpaqa_1_1Problem.html#aa0e2bd5f0128185dcdfc84d858d43bd0" target="_top" xlink:title="Calculate both ψ(x) and its gradient ∇ψ(x).">
<polygon fill="white" stroke="black" points="149,-0.5 149,-30.5 272,-30.5 272,-0.5 149,-0.5"/>
<text text-anchor="start" x="157" y="-18.5" font-family="Helvetica,sans-Serif" font-size="10.00">alpaqa::Problem::eval</text>
<text text-anchor="middle" x="210.5" y="-7.5" font-family="Helvetica,sans-Serif" font-size="10.00">_ψ_grad_ψ</text>
</a>
</g>
</g>
<!-- Node17&#45;&gt;Node19 -->
<g id="edge27" class="edge">
<title>Node17&#45;&gt;Node19</title>
<path fill="none" stroke="midnightblue" d="M358.26,-70.77C325.15,-58.3 282.21,-42.13 251.35,-30.51"/>
<polygon fill="midnightblue" stroke="midnightblue" points="357.17,-74.1 367.76,-74.35 359.64,-67.55 357.17,-74.1"/>
</g>
<!-- Node20 -->
<g id="node20" class="node">
<title>Node20</title>
<g id="a_node20"><a xlink:href="structalpaqa_1_1Problem.html#ae9336441a3bb074da2fc22d6f39e1347" target="_top" xlink:title="Calculate both ψ(x) and the vector ŷ that can later be used to compute ∇ψ.">
<polygon fill="white" stroke="black" points="149,-98.5 149,-128.5 272,-128.5 272,-98.5 149,-98.5"/>
<text text-anchor="start" x="157" y="-116.5" font-family="Helvetica,sans-Serif" font-size="10.00">alpaqa::Problem::eval</text>
<text text-anchor="middle" x="210.5" y="-105.5" font-family="Helvetica,sans-Serif" font-size="10.00">_ψ_ŷ</text>
</a>
</g>
</g>
<!-- Node17&#45;&gt;Node20 -->
<g id="edge29" class="edge">
<title>Node17&#45;&gt;Node20</title>
<path fill="none" stroke="midnightblue" d="M337.93,-98.06C316.44,-100.68 292.98,-103.55 272.17,-106.09"/>
<polygon fill="midnightblue" stroke="midnightblue" points="338.47,-101.52 347.98,-96.83 337.63,-94.57 338.47,-101.52"/>
</g>
<!-- Node18&#45;&gt;Node10 -->
<g id="edge26" class="edge">
<title>Node18&#45;&gt;Node10</title>
<path fill="none" stroke="midnightblue" d="M160.64,-83.41C156.68,-85.08 152.76,-86.79 149,-88.5 122.66,-100.46 93.01,-116.1 74.79,-125.98"/>
<polygon fill="midnightblue" stroke="midnightblue" points="161.99,-86.64 169.89,-79.57 159.31,-80.17 161.99,-86.64"/>
</g>
<!-- Node19&#45;&gt;Node10 -->
<g id="edge28" class="edge">
<title>Node19&#45;&gt;Node10</title>
<path fill="none" stroke="midnightblue" d="M156.04,-35.17C153.61,-36.54 151.25,-37.98 149,-39.5 111.97,-64.48 78.52,-106.73 64.49,-125.73"/>
<polygon fill="midnightblue" stroke="midnightblue" points="157.78,-38.21 165.07,-30.52 154.58,-31.98 157.78,-38.21"/>
</g>
<!-- Node20&#45;&gt;Node10 -->
<g id="edge30" class="edge">
<title>Node20&#45;&gt;Node10</title>
<path fill="none" stroke="midnightblue" d="M138.97,-123.71C130.38,-124.95 121.7,-126.21 113.36,-127.41"/>
<polygon fill="midnightblue" stroke="midnightblue" points="139.59,-127.15 148.99,-122.26 138.59,-120.23 139.59,-127.15"/>
</g>
</g>
</svg>
