<?xml version="1.0" encoding="UTF-8" standalone="no"?>
<!DOCTYPE svg PUBLIC "-//W3C//DTD SVG 1.1//EN"
 "http://www.w3.org/Graphics/SVG/1.1/DTD/svg11.dtd">
<!-- Generated by graphviz version 2.43.0 (0)
 -->
<!-- Title: second&#45;order&#45;panoc.hpp Pages: 1 -->
<svg width="1531pt" height="341pt"
 viewBox="0.00 0.00 1531.00 341.00" xmlns="http://www.w3.org/2000/svg" xmlns:xlink="http://www.w3.org/1999/xlink">
<g id="graph0" class="graph" transform="scale(1 1) rotate(0) translate(4 337)">
<title>second&#45;order&#45;panoc.hpp</title>
<polygon fill="white" stroke="transparent" points="-4,4 -4,-337 1527,-337 1527,4 -4,4"/>
<!-- Node1 -->
<g id="node1" class="node">
<title>Node1</title>
<g id="a_node1"><a xlink:title=" ">
<polygon fill="#bfbfbf" stroke="black" points="1144.5,-313.5 1144.5,-332.5 1278.5,-332.5 1278.5,-313.5 1144.5,-313.5"/>
<text text-anchor="middle" x="1211.5" y="-320.5" font-family="Helvetica,sans-Serif" font-size="10.00">second&#45;order&#45;panoc.hpp</text>
</a>
</g>
</g>
<!-- Node2 -->
<g id="node2" class="node">
<title>Node2</title>
<g id="a_node2"><a xlink:href="decl_2second-order-panoc_8hpp.html" target="_top" xlink:title=" ">
<polygon fill="white" stroke="black" points="405.5,-246.5 405.5,-276.5 543.5,-276.5 543.5,-246.5 405.5,-246.5"/>
<text text-anchor="start" x="413.5" y="-264.5" font-family="Helvetica,sans-Serif" font-size="10.00">alpaqa/inner/decl/second</text>
<text text-anchor="middle" x="474.5" y="-253.5" font-family="Helvetica,sans-Serif" font-size="10.00">&#45;order&#45;panoc.hpp</text>
</a>
</g>
</g>
<!-- Node1&#45;&gt;Node2 -->
<g id="edge1" class="edge">
<title>Node1&#45;&gt;Node2</title>
<path fill="none" stroke="midnightblue" d="M1144.47,-316.59C1008.29,-305.59 699.82,-280.69 553.87,-268.91"/>
<polygon fill="midnightblue" stroke="midnightblue" points="553.9,-265.4 543.65,-268.08 553.34,-272.38 553.9,-265.4"/>
</g>
<!-- Node7 -->
<g id="node7" class="node">
<title>Node7</title>
<g id="a_node7"><a xlink:title=" ">
<polygon fill="white" stroke="#bfbfbf" points="1077,-118 1077,-137 1142,-137 1142,-118 1077,-118"/>
<text text-anchor="middle" x="1109.5" y="-125" font-family="Helvetica,sans-Serif" font-size="10.00">stdexcept</text>
</a>
</g>
</g>
<!-- Node1&#45;&gt;Node7 -->
<g id="edge38" class="edge">
<title>Node1&#45;&gt;Node7</title>
<path fill="none" stroke="midnightblue" d="M1209.93,-313.33C1205.41,-290.06 1190.8,-224.89 1161.5,-179 1152.87,-165.48 1139.93,-152.9 1129.13,-143.68"/>
<polygon fill="midnightblue" stroke="midnightblue" points="1131.33,-140.96 1121.38,-137.32 1126.89,-146.37 1131.33,-140.96"/>
</g>
<!-- Node15 -->
<g id="node15" class="node">
<title>Node15</title>
<g id="a_node15"><a xlink:title=" ">
<polygon fill="white" stroke="#bfbfbf" points="1006.5,-118 1006.5,-137 1058.5,-137 1058.5,-118 1006.5,-118"/>
<text text-anchor="middle" x="1032.5" y="-125" font-family="Helvetica,sans-Serif" font-size="10.00">cassert</text>
</a>
</g>
</g>
<!-- Node1&#45;&gt;Node15 -->
<g id="edge34" class="edge">
<title>Node1&#45;&gt;Node15</title>
<path fill="none" stroke="midnightblue" d="M1204.84,-313.23C1187.22,-290.23 1137.54,-226.71 1090.5,-179 1078.13,-166.45 1063.1,-153.42 1051.44,-143.74"/>
<polygon fill="midnightblue" stroke="midnightblue" points="1053.58,-140.97 1043.63,-137.34 1049.14,-146.38 1053.58,-140.97"/>
</g>
<!-- Node24 -->
<g id="node24" class="node">
<title>Node24</title>
<g id="a_node24"><a xlink:href="panoc-helpers_8hpp.html" target="_top" xlink:title=" ">
<polygon fill="white" stroke="black" points="879.5,-246.5 879.5,-276.5 989.5,-276.5 989.5,-246.5 879.5,-246.5"/>
<text text-anchor="start" x="887.5" y="-264.5" font-family="Helvetica,sans-Serif" font-size="10.00">alpaqa/inner/detail</text>
<text text-anchor="middle" x="934.5" y="-253.5" font-family="Helvetica,sans-Serif" font-size="10.00">/panoc&#45;helpers.hpp</text>
</a>
</g>
</g>
<!-- Node1&#45;&gt;Node24 -->
<g id="edge28" class="edge">
<title>Node1&#45;&gt;Node24</title>
<path fill="none" stroke="midnightblue" d="M1171.81,-313.48C1126.91,-303.83 1053.1,-287.97 999.7,-276.51"/>
<polygon fill="midnightblue" stroke="midnightblue" points="1000.16,-273.02 989.64,-274.35 998.69,-279.87 1000.16,-273.02"/>
</g>
<!-- Node25 -->
<g id="node25" class="node">
<title>Node25</title>
<g id="a_node25"><a xlink:title=" ">
<polygon fill="white" stroke="#bfbfbf" points="1214,-252 1214,-271 1261,-271 1261,-252 1214,-252"/>
<text text-anchor="middle" x="1237.5" y="-259" font-family="Helvetica,sans-Serif" font-size="10.00">cmath</text>
</a>
</g>
</g>
<!-- Node1&#45;&gt;Node25 -->
<g id="edge35" class="edge">
<title>Node1&#45;&gt;Node25</title>
<path fill="none" stroke="midnightblue" d="M1215.23,-313.48C1218.97,-304.9 1224.86,-291.43 1229.64,-280.48"/>
<polygon fill="midnightblue" stroke="midnightblue" points="1232.98,-281.57 1233.78,-271.01 1226.57,-278.77 1232.98,-281.57"/>
</g>
<!-- Node26 -->
<g id="node26" class="node">
<title>Node26</title>
<g id="a_node26"><a xlink:title=" ">
<polygon fill="white" stroke="#bfbfbf" points="1279.5,-252 1279.5,-271 1335.5,-271 1335.5,-252 1279.5,-252"/>
<text text-anchor="middle" x="1307.5" y="-259" font-family="Helvetica,sans-Serif" font-size="10.00">iomanip</text>
</a>
</g>
</g>
<!-- Node1&#45;&gt;Node26 -->
<g id="edge36" class="edge">
<title>Node1&#45;&gt;Node26</title>
<path fill="none" stroke="midnightblue" d="M1225.25,-313.48C1240.87,-303.8 1266.56,-287.87 1285.08,-276.39"/>
<polygon fill="midnightblue" stroke="midnightblue" points="1287.12,-279.25 1293.77,-271.01 1283.43,-273.3 1287.12,-279.25"/>
</g>
<!-- Node27 -->
<g id="node27" class="node">
<title>Node27</title>
<g id="a_node27"><a xlink:title=" ">
<polygon fill="white" stroke="#bfbfbf" points="1353.5,-252 1353.5,-271 1413.5,-271 1413.5,-252 1353.5,-252"/>
<text text-anchor="middle" x="1383.5" y="-259" font-family="Helvetica,sans-Serif" font-size="10.00">iostream</text>
</a>
</g>
</g>
<!-- Node1&#45;&gt;Node27 -->
<g id="edge37" class="edge">
<title>Node1&#45;&gt;Node27</title>
<path fill="none" stroke="midnightblue" d="M1237.57,-313.43C1264.45,-304.54 1307.52,-290.13 1344.5,-277 1346.74,-276.2 1349.05,-275.37 1351.37,-274.53"/>
<polygon fill="midnightblue" stroke="midnightblue" points="1352.68,-277.78 1360.86,-271.05 1350.26,-271.21 1352.68,-277.78"/>
</g>
<!-- Node28 -->
<g id="node28" class="node">
<title>Node28</title>
<g id="a_node28"><a xlink:title=" ">
<polygon fill="white" stroke="#bfbfbf" points="1432,-252 1432,-271 1523,-271 1523,-252 1432,-252"/>
<text text-anchor="middle" x="1477.5" y="-259" font-family="Helvetica,sans-Serif" font-size="10.00">Eigen/Cholesky</text>
</a>
</g>
</g>
<!-- Node1&#45;&gt;Node28 -->
<g id="edge39" class="edge">
<title>Node1&#45;&gt;Node28</title>
<path fill="none" stroke="midnightblue" d="M1254.47,-313.46C1297.2,-304.82 1364.57,-290.81 1422.5,-277 1426.94,-275.94 1431.58,-274.79 1436.18,-273.62"/>
<polygon fill="midnightblue" stroke="midnightblue" points="1437.35,-276.93 1446.15,-271.04 1435.6,-270.16 1437.35,-276.93"/>
</g>
<!-- Node3 -->
<g id="node3" class="node">
<title>Node3</title>
<g id="a_node3"><a xlink:href="panoc-fwd_8hpp.html" target="_top" xlink:title=" ">
<polygon fill="white" stroke="black" points="151,-179.5 151,-209.5 284,-209.5 284,-179.5 151,-179.5"/>
<text text-anchor="start" x="159" y="-197.5" font-family="Helvetica,sans-Serif" font-size="10.00">alpaqa/inner/decl/panoc</text>
<text text-anchor="middle" x="217.5" y="-186.5" font-family="Helvetica,sans-Serif" font-size="10.00">&#45;fwd.hpp</text>
</a>
</g>
</g>
<!-- Node2&#45;&gt;Node3 -->
<g id="edge2" class="edge">
<title>Node2&#45;&gt;Node3</title>
<path fill="none" stroke="midnightblue" d="M419.05,-246.48C379.16,-236.39 325.21,-222.74 283.16,-212.11"/>
<polygon fill="midnightblue" stroke="midnightblue" points="283.85,-208.67 273.29,-209.61 282.13,-215.46 283.85,-208.67"/>
</g>
<!-- Node5 -->
<g id="node5" class="node">
<title>Node5</title>
<g id="a_node5"><a xlink:href="panoc-stop-crit_8hpp.html" target="_top" xlink:title=" ">
<polygon fill="white" stroke="black" points="948,-179.5 948,-209.5 1081,-209.5 1081,-179.5 948,-179.5"/>
<text text-anchor="start" x="956" y="-197.5" font-family="Helvetica,sans-Serif" font-size="10.00">alpaqa/inner/decl/panoc</text>
<text text-anchor="middle" x="1014.5" y="-186.5" font-family="Helvetica,sans-Serif" font-size="10.00">&#45;stop&#45;crit.hpp</text>
</a>
</g>
</g>
<!-- Node2&#45;&gt;Node5 -->
<g id="edge4" class="edge">
<title>Node2&#45;&gt;Node5</title>
<path fill="none" stroke="midnightblue" d="M543.51,-254.73C632.3,-246.92 791.5,-231.59 937.76,-210.03"/>
<polygon fill="midnightblue" stroke="midnightblue" points="938.45,-213.47 947.82,-208.53 937.42,-206.54 938.45,-213.47"/>
</g>
<!-- Node8 -->
<g id="node8" class="node">
<title>Node8</title>
<g id="a_node8"><a xlink:href="atomic__stop__signal_8hpp.html" target="_top" xlink:title=" ">
<polygon fill="white" stroke="black" points="503,-179.5 503,-209.5 608,-209.5 608,-179.5 503,-179.5"/>
<text text-anchor="start" x="511" y="-197.5" font-family="Helvetica,sans-Serif" font-size="10.00">alpaqa/util/atomic</text>
<text text-anchor="middle" x="555.5" y="-186.5" font-family="Helvetica,sans-Serif" font-size="10.00">_stop_signal.hpp</text>
</a>
</g>
</g>
<!-- Node2&#45;&gt;Node8 -->
<g id="edge7" class="edge">
<title>Node2&#45;&gt;Node8</title>
<path fill="none" stroke="midnightblue" d="M492.08,-246.4C503.11,-237.54 517.54,-225.96 529.85,-216.09"/>
<polygon fill="midnightblue" stroke="midnightblue" points="532.35,-218.56 537.96,-209.58 527.97,-213.11 532.35,-218.56"/>
</g>
<!-- Node9 -->
<g id="node9" class="node">
<title>Node9</title>
<g id="a_node9"><a xlink:title=" ">
<polygon fill="white" stroke="#bfbfbf" points="381.5,-118 381.5,-137 431.5,-137 431.5,-118 381.5,-118"/>
<text text-anchor="middle" x="406.5" y="-125" font-family="Helvetica,sans-Serif" font-size="10.00">atomic</text>
</a>
</g>
</g>
<!-- Node2&#45;&gt;Node9 -->
<g id="edge24" class="edge">
<title>Node2&#45;&gt;Node9</title>
<path fill="none" stroke="midnightblue" d="M467.22,-246.37C454.71,-222.08 429.14,-172.44 415.51,-146"/>
<polygon fill="midnightblue" stroke="midnightblue" points="418.62,-144.38 410.93,-137.1 412.4,-147.59 418.62,-144.38"/>
</g>
<!-- Node10 -->
<g id="node10" class="node">
<title>Node10</title>
<g id="a_node10"><a xlink:href="lipschitz_8hpp.html" target="_top" xlink:title=" ">
<polygon fill="white" stroke="black" points="0,-185 0,-204 133,-204 133,-185 0,-185"/>
<text text-anchor="middle" x="66.5" y="-192" font-family="Helvetica,sans-Serif" font-size="10.00">alpaqa/util/lipschitz.hpp</text>
</a>
</g>
</g>
<!-- Node2&#45;&gt;Node10 -->
<g id="edge9" class="edge">
<title>Node2&#45;&gt;Node10</title>
<path fill="none" stroke="midnightblue" d="M405.49,-250.87C338.05,-241.26 232.54,-225.7 141.5,-210 134.14,-208.73 126.39,-207.32 118.77,-205.89"/>
<polygon fill="midnightblue" stroke="midnightblue" points="119.36,-202.44 108.89,-204 118.05,-209.31 119.36,-202.44"/>
</g>
<!-- Node13 -->
<g id="node13" class="node">
<title>Node13</title>
<g id="a_node13"><a xlink:href="include_2alpaqa_2util_2problem_8hpp.html" target="_top" xlink:title=" ">
<polygon fill="white" stroke="black" points="626,-185 626,-204 759,-204 759,-185 626,-185"/>
<text text-anchor="middle" x="692.5" y="-192" font-family="Helvetica,sans-Serif" font-size="10.00">alpaqa/util/problem.hpp</text>
</a>
</g>
</g>
<!-- Node2&#45;&gt;Node13 -->
<g id="edge12" class="edge">
<title>Node2&#45;&gt;Node13</title>
<path fill="none" stroke="midnightblue" d="M521.53,-246.48C561.12,-234.67 617.04,-218 654,-206.98"/>
<polygon fill="midnightblue" stroke="midnightblue" points="655.31,-210.24 663.9,-204.03 653.31,-203.53 655.31,-210.24"/>
</g>
<!-- Node16 -->
<g id="node16" class="node">
<title>Node16</title>
<g id="a_node16"><a xlink:title=" ">
<polygon fill="white" stroke="#bfbfbf" points="449.5,-118 449.5,-137 499.5,-137 499.5,-118 449.5,-118"/>
<text text-anchor="middle" x="474.5" y="-125" font-family="Helvetica,sans-Serif" font-size="10.00">chrono</text>
</a>
</g>
</g>
<!-- Node2&#45;&gt;Node16 -->
<g id="edge25" class="edge">
<title>Node2&#45;&gt;Node16</title>
<path fill="none" stroke="midnightblue" d="M474.5,-246.37C474.5,-222.5 474.5,-174.18 474.5,-147.41"/>
<polygon fill="midnightblue" stroke="midnightblue" points="478,-147.1 474.5,-137.1 471,-147.1 478,-147.1"/>
</g>
<!-- Node21 -->
<g id="node21" class="node">
<title>Node21</title>
<g id="a_node21"><a xlink:href="solverstatus_8hpp.html" target="_top" xlink:title=" ">
<polygon fill="white" stroke="black" points="777.5,-185 777.5,-204 929.5,-204 929.5,-185 777.5,-185"/>
<text text-anchor="middle" x="853.5" y="-192" font-family="Helvetica,sans-Serif" font-size="10.00">alpaqa/util/solverstatus.hpp</text>
</a>
</g>
</g>
<!-- Node2&#45;&gt;Node21 -->
<g id="edge22" class="edge">
<title>Node2&#45;&gt;Node21</title>
<path fill="none" stroke="midnightblue" d="M543.57,-248.65C615.16,-236.38 725.9,-217.38 793.81,-205.74"/>
<polygon fill="midnightblue" stroke="midnightblue" points="794.65,-209.14 803.92,-204 793.47,-202.24 794.65,-209.14"/>
</g>
<!-- Node22 -->
<g id="node22" class="node">
<title>Node22</title>
<g id="a_node22"><a xlink:title=" ">
<polygon fill="white" stroke="#bfbfbf" points="302.5,-185 302.5,-204 346.5,-204 346.5,-185 302.5,-185"/>
<text text-anchor="middle" x="324.5" y="-192" font-family="Helvetica,sans-Serif" font-size="10.00">limits</text>
</a>
</g>
</g>
<!-- Node2&#45;&gt;Node22 -->
<g id="edge26" class="edge">
<title>Node2&#45;&gt;Node22</title>
<path fill="none" stroke="midnightblue" d="M440.51,-246.46C416.63,-236.5 383.99,-222.7 355.5,-210 354.31,-209.47 353.1,-208.92 351.87,-208.37"/>
<polygon fill="midnightblue" stroke="midnightblue" points="353.03,-205.05 342.48,-204.04 350.1,-211.41 353.03,-205.05"/>
</g>
<!-- Node23 -->
<g id="node23" class="node">
<title>Node23</title>
<g id="a_node23"><a xlink:title=" ">
<polygon fill="white" stroke="#bfbfbf" points="364.5,-185 364.5,-204 408.5,-204 408.5,-185 364.5,-185"/>
<text text-anchor="middle" x="386.5" y="-192" font-family="Helvetica,sans-Serif" font-size="10.00">string</text>
</a>
</g>
</g>
<!-- Node2&#45;&gt;Node23 -->
<g id="edge27" class="edge">
<title>Node2&#45;&gt;Node23</title>
<path fill="none" stroke="midnightblue" d="M455.41,-246.4C440.92,-235.7 421.07,-221.03 406.39,-210.19"/>
<polygon fill="midnightblue" stroke="midnightblue" points="408.14,-207.13 398.02,-204.01 403.98,-212.76 408.14,-207.13"/>
</g>
<!-- Node4 -->
<g id="node4" class="node">
<title>Node4</title>
<g id="a_node4"><a xlink:href="lbfgs-fwd_8hpp.html" target="_top" xlink:title=" ">
<polygon fill="white" stroke="black" points="153.5,-112.5 153.5,-142.5 281.5,-142.5 281.5,-112.5 153.5,-112.5"/>
<text text-anchor="start" x="161.5" y="-130.5" font-family="Helvetica,sans-Serif" font-size="10.00">alpaqa/inner/directions</text>
<text text-anchor="middle" x="217.5" y="-119.5" font-family="Helvetica,sans-Serif" font-size="10.00">/decl/lbfgs&#45;fwd.hpp</text>
</a>
</g>
</g>
<!-- Node3&#45;&gt;Node4 -->
<g id="edge3" class="edge">
<title>Node3&#45;&gt;Node4</title>
<path fill="none" stroke="midnightblue" d="M217.5,-179.4C217.5,-171.64 217.5,-161.81 217.5,-152.86"/>
<polygon fill="midnightblue" stroke="midnightblue" points="221,-152.58 217.5,-142.58 214,-152.58 221,-152.58"/>
</g>
<!-- Node6 -->
<g id="node6" class="node">
<title>Node6</title>
<g id="a_node6"><a xlink:title=" ">
<polygon fill="white" stroke="#bfbfbf" points="931,-118 931,-137 988,-137 988,-118 931,-118"/>
<text text-anchor="middle" x="959.5" y="-125" font-family="Helvetica,sans-Serif" font-size="10.00">ostream</text>
</a>
</g>
</g>
<!-- Node5&#45;&gt;Node6 -->
<g id="edge5" class="edge">
<title>Node5&#45;&gt;Node6</title>
<path fill="none" stroke="midnightblue" d="M1002.57,-179.4C993.99,-169.26 982.4,-155.57 973.41,-144.94"/>
<polygon fill="midnightblue" stroke="midnightblue" points="975.99,-142.57 966.86,-137.19 970.64,-147.09 975.99,-142.57"/>
</g>
<!-- Node5&#45;&gt;Node7 -->
<g id="edge6" class="edge">
<title>Node5&#45;&gt;Node7</title>
<path fill="none" stroke="midnightblue" d="M1035.11,-179.4C1050.9,-168.6 1072.59,-153.76 1088.47,-142.89"/>
<polygon fill="midnightblue" stroke="midnightblue" points="1090.79,-145.54 1097.07,-137.01 1086.84,-139.77 1090.79,-145.54"/>
</g>
<!-- Node8&#45;&gt;Node9 -->
<g id="edge8" class="edge">
<title>Node8&#45;&gt;Node9</title>
<path fill="none" stroke="midnightblue" d="M523.17,-179.4C497.03,-167.99 460.55,-152.08 435.38,-141.1"/>
<polygon fill="midnightblue" stroke="midnightblue" points="436.57,-137.8 426,-137.01 433.77,-144.21 436.57,-137.8"/>
</g>
<!-- Node11 -->
<g id="node11" class="node">
<title>Node11</title>
<g id="a_node11"><a xlink:href="vec_8hpp.html" target="_top" xlink:title=" ">
<polygon fill="white" stroke="black" points="333.5,-56.5 333.5,-75.5 443.5,-75.5 443.5,-56.5 333.5,-56.5"/>
<text text-anchor="middle" x="388.5" y="-63.5" font-family="Helvetica,sans-Serif" font-size="10.00">alpaqa/util/vec.hpp</text>
</a>
</g>
</g>
<!-- Node10&#45;&gt;Node11 -->
<g id="edge10" class="edge">
<title>Node10&#45;&gt;Node11</title>
<path fill="none" stroke="midnightblue" d="M71.95,-184.91C83.23,-167.93 110.89,-130.14 144.5,-112 200.12,-81.99 272.13,-71.59 323.48,-68.19"/>
<polygon fill="midnightblue" stroke="midnightblue" points="323.68,-71.69 333.46,-67.6 323.27,-64.7 323.68,-71.69"/>
</g>
<!-- Node12 -->
<g id="node12" class="node">
<title>Node12</title>
<g id="a_node12"><a xlink:title=" ">
<polygon fill="white" stroke="#bfbfbf" points="354,-0.5 354,-19.5 423,-19.5 423,-0.5 354,-0.5"/>
<text text-anchor="middle" x="388.5" y="-7.5" font-family="Helvetica,sans-Serif" font-size="10.00">Eigen/Core</text>
</a>
</g>
</g>
<!-- Node11&#45;&gt;Node12 -->
<g id="edge11" class="edge">
<title>Node11&#45;&gt;Node12</title>
<path fill="none" stroke="midnightblue" d="M388.5,-56.08C388.5,-49.01 388.5,-38.86 388.5,-29.99"/>
<polygon fill="midnightblue" stroke="midnightblue" points="392,-29.75 388.5,-19.75 385,-29.75 392,-29.75"/>
</g>
<!-- Node13&#45;&gt;Node7 -->
<g id="edge20" class="edge">
<title>Node13&#45;&gt;Node7</title>
<path fill="none" stroke="midnightblue" d="M734.62,-184.93C745.62,-182.84 757.48,-180.71 768.5,-179 900.76,-158.45 937.06,-173.01 1067.5,-143 1070.91,-142.22 1074.43,-141.25 1077.92,-140.2"/>
<polygon fill="midnightblue" stroke="midnightblue" points="1079.1,-143.5 1087.52,-137.07 1076.93,-136.84 1079.1,-143.5"/>
</g>
<!-- Node14 -->
<g id="node14" class="node">
<title>Node14</title>
<g id="a_node14"><a xlink:href="box_8hpp.html" target="_top" xlink:title=" ">
<polygon fill="white" stroke="black" points="681.5,-118 681.5,-137 737.5,-137 737.5,-118 681.5,-118"/>
<text text-anchor="middle" x="709.5" y="-125" font-family="Helvetica,sans-Serif" font-size="10.00">box.hpp</text>
</a>
</g>
</g>
<!-- Node13&#45;&gt;Node14 -->
<g id="edge13" class="edge">
<title>Node13&#45;&gt;Node14</title>
<path fill="none" stroke="midnightblue" d="M694.79,-184.73C697.32,-175.09 701.44,-159.3 704.69,-146.91"/>
<polygon fill="midnightblue" stroke="midnightblue" points="708.1,-147.69 707.24,-137.13 701.33,-145.92 708.1,-147.69"/>
</g>
<!-- Node13&#45;&gt;Node15 -->
<g id="edge15" class="edge">
<title>Node13&#45;&gt;Node15</title>
<path fill="none" stroke="midnightblue" d="M735.86,-184.97C746.52,-182.95 757.91,-180.84 768.5,-179 870,-161.34 898.33,-170.91 997.5,-143 999.94,-142.31 1002.43,-141.51 1004.92,-140.63"/>
<polygon fill="midnightblue" stroke="midnightblue" points="1006.2,-143.89 1014.26,-137.01 1003.67,-137.36 1006.2,-143.89"/>
</g>
<!-- Node13&#45;&gt;Node16 -->
<g id="edge16" class="edge">
<title>Node13&#45;&gt;Node16</title>
<path fill="none" stroke="midnightblue" d="M655.75,-184.97C618.28,-175.91 558.7,-160.5 508.5,-143 506.64,-142.35 504.73,-141.65 502.82,-140.91"/>
<polygon fill="midnightblue" stroke="midnightblue" points="503.97,-137.6 493.38,-137.09 501.34,-144.09 503.97,-137.6"/>
</g>
<!-- Node17 -->
<g id="node17" class="node">
<title>Node17</title>
<g id="a_node17"><a xlink:title=" ">
<polygon fill="white" stroke="#bfbfbf" points="756,-118 756,-137 821,-137 821,-118 756,-118"/>
<text text-anchor="middle" x="788.5" y="-125" font-family="Helvetica,sans-Serif" font-size="10.00">functional</text>
</a>
</g>
</g>
<!-- Node13&#45;&gt;Node17 -->
<g id="edge17" class="edge">
<title>Node13&#45;&gt;Node17</title>
<path fill="none" stroke="midnightblue" d="M705.45,-184.73C721.35,-173.96 748.55,-155.55 767.47,-142.74"/>
<polygon fill="midnightblue" stroke="midnightblue" points="769.44,-145.63 775.76,-137.13 765.52,-139.84 769.44,-145.63"/>
</g>
<!-- Node18 -->
<g id="node18" class="node">
<title>Node18</title>
<g id="a_node18"><a xlink:title=" ">
<polygon fill="white" stroke="#bfbfbf" points="839.5,-118 839.5,-137 887.5,-137 887.5,-118 839.5,-118"/>
<text text-anchor="middle" x="863.5" y="-125" font-family="Helvetica,sans-Serif" font-size="10.00">iosfwd</text>
</a>
</g>
</g>
<!-- Node13&#45;&gt;Node18 -->
<g id="edge18" class="edge">
<title>Node13&#45;&gt;Node18</title>
<path fill="none" stroke="midnightblue" d="M717.36,-184.94C745.13,-175.25 791.33,-158.76 830.5,-143 831.92,-142.43 833.36,-141.84 834.82,-141.23"/>
<polygon fill="midnightblue" stroke="midnightblue" points="836.57,-144.29 844.39,-137.14 833.82,-137.85 836.57,-144.29"/>
</g>
<!-- Node19 -->
<g id="node19" class="node">
<title>Node19</title>
<g id="a_node19"><a xlink:title=" ">
<polygon fill="white" stroke="#bfbfbf" points="517.5,-118 517.5,-137 575.5,-137 575.5,-118 517.5,-118"/>
<text text-anchor="middle" x="546.5" y="-125" font-family="Helvetica,sans-Serif" font-size="10.00">memory</text>
</a>
</g>
</g>
<!-- Node13&#45;&gt;Node19 -->
<g id="edge19" class="edge">
<title>Node13&#45;&gt;Node19</title>
<path fill="none" stroke="midnightblue" d="M673.11,-184.87C648.02,-173.7 604.11,-154.15 575.16,-141.26"/>
<polygon fill="midnightblue" stroke="midnightblue" points="576.53,-138.04 565.97,-137.17 573.68,-144.43 576.53,-138.04"/>
</g>
<!-- Node20 -->
<g id="node20" class="node">
<title>Node20</title>
<g id="a_node20"><a xlink:title=" ">
<polygon fill="white" stroke="#bfbfbf" points="594,-118 594,-137 663,-137 663,-118 594,-118"/>
<text text-anchor="middle" x="628.5" y="-125" font-family="Helvetica,sans-Serif" font-size="10.00">type_traits</text>
</a>
</g>
</g>
<!-- Node13&#45;&gt;Node20 -->
<g id="edge21" class="edge">
<title>Node13&#45;&gt;Node20</title>
<path fill="none" stroke="midnightblue" d="M683.87,-184.73C673.7,-174.4 656.6,-157.04 644.09,-144.33"/>
<polygon fill="midnightblue" stroke="midnightblue" points="646.5,-141.8 636.99,-137.13 641.52,-146.71 646.5,-141.8"/>
</g>
<!-- Node14&#45;&gt;Node11 -->
<g id="edge14" class="edge">
<title>Node14&#45;&gt;Node11</title>
<path fill="none" stroke="midnightblue" d="M689.8,-117.87C684.28,-115.7 678.23,-113.56 672.5,-112 598.88,-92 511.95,-79.84 453.83,-73.29"/>
<polygon fill="midnightblue" stroke="midnightblue" points="454.01,-69.79 443.69,-72.17 453.24,-76.74 454.01,-69.79"/>
</g>
<!-- Node21&#45;&gt;Node18 -->
<g id="edge23" class="edge">
<title>Node21&#45;&gt;Node18</title>
<path fill="none" stroke="midnightblue" d="M854.85,-184.73C856.32,-175.18 858.71,-159.62 860.61,-147.28"/>
<polygon fill="midnightblue" stroke="midnightblue" points="864.11,-147.54 862.17,-137.13 857.19,-146.48 864.11,-147.54"/>
</g>
<!-- Node24&#45;&gt;Node5 -->
<g id="edge29" class="edge">
<title>Node24&#45;&gt;Node5</title>
<path fill="none" stroke="midnightblue" d="M951.86,-246.4C962.76,-237.54 977.01,-225.96 989.16,-216.09"/>
<polygon fill="midnightblue" stroke="midnightblue" points="991.62,-218.6 997.18,-209.58 987.21,-213.17 991.62,-218.6"/>
</g>
<!-- Node24&#45;&gt;Node7 -->
<g id="edge33" class="edge">
<title>Node24&#45;&gt;Node7</title>
<path fill="none" stroke="midnightblue" d="M989.81,-256.1C1023.46,-250.51 1064.78,-237.98 1090.5,-210 1106.13,-192.99 1109.68,-165.67 1110.12,-147.41"/>
<polygon fill="midnightblue" stroke="midnightblue" points="1113.62,-147.37 1110.07,-137.38 1106.62,-147.4 1113.62,-147.37"/>
</g>
<!-- Node24&#45;&gt;Node8 -->
<g id="edge30" class="edge">
<title>Node24&#45;&gt;Node8</title>
<path fill="none" stroke="midnightblue" d="M879.31,-252.93C818,-244.25 715.89,-228.99 618.25,-210.06"/>
<polygon fill="midnightblue" stroke="midnightblue" points="618.7,-206.58 608.21,-208.1 617.35,-213.45 618.7,-206.58"/>
</g>
<!-- Node24&#45;&gt;Node13 -->
<g id="edge31" class="edge">
<title>Node24&#45;&gt;Node13</title>
<path fill="none" stroke="midnightblue" d="M882.29,-246.48C837.87,-234.55 774.94,-217.64 733.93,-206.63"/>
<polygon fill="midnightblue" stroke="midnightblue" points="734.82,-203.24 724.25,-204.03 733,-210 734.82,-203.24"/>
</g>
<!-- Node24&#45;&gt;Node21 -->
<g id="edge32" class="edge">
<title>Node24&#45;&gt;Node21</title>
<path fill="none" stroke="midnightblue" d="M916.92,-246.4C903.79,-235.86 885.87,-221.48 872.43,-210.69"/>
<polygon fill="midnightblue" stroke="midnightblue" points="874.32,-207.72 864.33,-204.19 869.94,-213.18 874.32,-207.72"/>
</g>
</g>
</svg>
