<?xml version="1.0" encoding="UTF-8" standalone="no"?>
<!DOCTYPE svg PUBLIC "-//W3C//DTD SVG 1.1//EN"
 "http://www.w3.org/Graphics/SVG/1.1/DTD/svg11.dtd">
<!-- Generated by graphviz version 2.43.0 (0)
 -->
<!-- Title: eval_f_grad_f Pages: 1 -->
<svg width="201pt" height="66pt"
 viewBox="0.00 0.00 201.00 66.00" xmlns="http://www.w3.org/2000/svg" xmlns:xlink="http://www.w3.org/1999/xlink">
<g id="graph0" class="graph" transform="scale(1 1) rotate(0) translate(4 62)">
<title>eval_f_grad_f</title>
<polygon fill="white" stroke="transparent" points="-4,4 -4,-62 197,-62 197,4 -4,4"/>
<!-- Node1 -->
<g id="node1" class="node">
<title>Node1</title>
<g id="a_node1"><a xlink:title="Evaluate both &#160;and its gradient, .">
<polygon fill="#bfbfbf" stroke="black" points="0,-19.5 0,-38.5 83,-38.5 83,-19.5 0,-19.5"/>
<text text-anchor="middle" x="41.5" y="-26.5" font-family="Helvetica,sans-Serif" font-size="10.00">eval_f_grad_f</text>
</a>
</g>
</g>
<!-- Node2 -->
<g id="node2" class="node">
<title>Node2</title>
<g id="a_node2"><a xlink:href="structalpaqa_1_1Problem.html#ae28e48d73d853a238c00ecceb16900d6" target="_top" xlink:title="Function that evaluates the cost, .">
<polygon fill="white" stroke="black" points="132.5,-38.5 132.5,-57.5 179.5,-57.5 179.5,-38.5 132.5,-38.5"/>
<text text-anchor="middle" x="156" y="-45.5" font-family="Helvetica,sans-Serif" font-size="10.00">eval_f</text>
</a>
</g>
</g>
<!-- Node1&#45;&gt;Node2 -->
<g id="edge1" class="edge">
<title>Node1&#45;&gt;Node2</title>
<path fill="none" stroke="midnightblue" d="M83.12,-35.86C95.97,-38.03 110,-40.4 122.23,-42.47"/>
<polygon fill="midnightblue" stroke="midnightblue" points="121.99,-45.98 132.44,-44.19 123.16,-39.07 121.99,-45.98"/>
</g>
<!-- Node3 -->
<g id="node3" class="node">
<title>Node3</title>
<g id="a_node3"><a xlink:href="structalpaqa_1_1Problem.html#aba98edc04bad2e0a3ad6645991cd7535" target="_top" xlink:title="Function that evaluates the gradient of the cost, .">
<polygon fill="white" stroke="black" points="119,-0.5 119,-19.5 193,-19.5 193,-0.5 119,-0.5"/>
<text text-anchor="middle" x="156" y="-7.5" font-family="Helvetica,sans-Serif" font-size="10.00">eval_grad_f</text>
</a>
</g>
</g>
<!-- Node1&#45;&gt;Node3 -->
<g id="edge2" class="edge">
<title>Node1&#45;&gt;Node3</title>
<path fill="none" stroke="midnightblue" d="M83.12,-22.14C91.53,-20.72 100.45,-19.21 109.04,-17.76"/>
<polygon fill="midnightblue" stroke="midnightblue" points="109.64,-21.21 118.92,-16.09 108.48,-14.31 109.64,-21.21"/>
</g>
</g>
</svg>
