<?xml version="1.0" encoding="UTF-8" standalone="no"?>
<!DOCTYPE svg PUBLIC "-//W3C//DTD SVG 1.1//EN"
 "http://www.w3.org/Graphics/SVG/1.1/DTD/svg11.dtd">
<!-- Generated by graphviz version 2.43.0 (0)
 -->
<!-- Title: eval_f_g Pages: 1 -->
<svg width="151pt" height="66pt"
 viewBox="0.00 0.00 151.00 66.00" xmlns="http://www.w3.org/2000/svg" xmlns:xlink="http://www.w3.org/1999/xlink">
<g id="graph0" class="graph" transform="scale(1 1) rotate(0) translate(4 62)">
<title>eval_f_g</title>
<polygon fill="white" stroke="transparent" points="-4,4 -4,-62 147,-62 147,4 -4,4"/>
<!-- Node1 -->
<g id="node1" class="node">
<title>Node1</title>
<g id="a_node1"><a xlink:title="Evaluate both &#160;and .">
<polygon fill="#bfbfbf" stroke="black" points="0,-19.5 0,-38.5 58,-38.5 58,-19.5 0,-19.5"/>
<text text-anchor="middle" x="29" y="-26.5" font-family="Helvetica,sans-Serif" font-size="10.00">eval_f_g</text>
</a>
</g>
</g>
<!-- Node2 -->
<g id="node2" class="node">
<title>Node2</title>
<g id="a_node2"><a xlink:href="structalpaqa_1_1Problem.html#ae28e48d73d853a238c00ecceb16900d6" target="_top" xlink:title="Function that evaluates the cost, .">
<polygon fill="white" stroke="black" points="95,-38.5 95,-57.5 142,-57.5 142,-38.5 95,-38.5"/>
<text text-anchor="middle" x="118.5" y="-45.5" font-family="Helvetica,sans-Serif" font-size="10.00">eval_f</text>
</a>
</g>
</g>
<!-- Node1&#45;&gt;Node2 -->
<g id="edge1" class="edge">
<title>Node1&#45;&gt;Node2</title>
<path fill="none" stroke="midnightblue" d="M58.17,-35.12C66.71,-36.97 76.17,-39.03 84.98,-40.94"/>
<polygon fill="midnightblue" stroke="midnightblue" points="84.41,-44.4 94.93,-43.1 85.9,-37.56 84.41,-44.4"/>
</g>
<!-- Node3 -->
<g id="node3" class="node">
<title>Node3</title>
<g id="a_node3"><a xlink:href="structalpaqa_1_1Problem.html#acdf5c7c7f249c05d53643e1715070f45" target="_top" xlink:title="Function that evaluates the constraints, .">
<polygon fill="white" stroke="black" points="94,-0.5 94,-19.5 143,-19.5 143,-0.5 94,-0.5"/>
<text text-anchor="middle" x="118.5" y="-7.5" font-family="Helvetica,sans-Serif" font-size="10.00">eval_g</text>
</a>
</g>
</g>
<!-- Node1&#45;&gt;Node3 -->
<g id="edge2" class="edge">
<title>Node1&#45;&gt;Node3</title>
<path fill="none" stroke="midnightblue" d="M58.17,-22.88C66.34,-21.11 75.34,-19.15 83.81,-17.32"/>
<polygon fill="midnightblue" stroke="midnightblue" points="84.76,-20.69 93.79,-15.15 83.27,-13.85 84.76,-20.69"/>
</g>
</g>
</svg>
