<?xml version="1.0" encoding="UTF-8" standalone="no"?>
<!DOCTYPE svg PUBLIC "-//W3C//DTD SVG 1.1//EN"
 "http://www.w3.org/Graphics/SVG/1.1/DTD/svg11.dtd">
<!-- Generated by graphviz version 2.43.0 (0)
 -->
<!-- Title: eval_g Pages: 1 -->
<svg width="461pt" height="161pt"
 viewBox="0.00 0.00 461.00 161.00" xmlns="http://www.w3.org/2000/svg" xmlns:xlink="http://www.w3.org/1999/xlink">
<g id="graph0" class="graph" transform="scale(1 1) rotate(0) translate(4 157)">
<title>eval_g</title>
<polygon fill="white" stroke="transparent" points="-4,4 -4,-157 457,-157 457,4 -4,4"/>
<!-- Node1 -->
<g id="node1" class="node">
<title>Node1</title>
<g id="a_node1"><a xlink:title="Function that evaluates the constraints, .">
<polygon fill="#bfbfbf" stroke="black" points="404,-38.5 404,-57.5 453,-57.5 453,-38.5 404,-38.5"/>
<text text-anchor="middle" x="428.5" y="-45.5" font-family="Helvetica,sans-Serif" font-size="10.00">eval_g</text>
</a>
</g>
</g>
<!-- Node2 -->
<g id="node2" class="node">
<title>Node2</title>
<g id="a_node2"><a xlink:href="structalpaqa_1_1Problem.html#ab0e71914b849242cd710193000401e60" target="_top" xlink:title="Evaluate both &#160;and .">
<polygon fill="white" stroke="black" points="292,-95.5 292,-114.5 350,-114.5 350,-95.5 292,-95.5"/>
<text text-anchor="middle" x="321" y="-102.5" font-family="Helvetica,sans-Serif" font-size="10.00">eval_f_g</text>
</a>
</g>
</g>
<!-- Node1&#45;&gt;Node2 -->
<g id="edge1" class="edge">
<title>Node1&#45;&gt;Node2</title>
<path fill="none" stroke="midnightblue" d="M401.64,-62.53C391.22,-68.34 379.07,-75.04 368,-81 359.12,-85.78 349.2,-90.97 340.86,-95.3"/>
<polygon fill="midnightblue" stroke="midnightblue" points="403.61,-65.44 410.64,-57.5 400.2,-59.33 403.61,-65.44"/>
</g>
<!-- Node4 -->
<g id="node4" class="node">
<title>Node4</title>
<g id="a_node4"><a xlink:href="alpaqa_8cpp.html#a52c00cccef0976f125d4a27f9906c36b" target="_top" xlink:title=" ">
<polygon fill="white" stroke="black" points="0,-76.5 0,-95.5 113,-95.5 113,-76.5 0,-76.5"/>
<text text-anchor="middle" x="56.5" y="-83.5" font-family="Helvetica,sans-Serif" font-size="10.00">PYBIND11_MODULE</text>
</a>
</g>
</g>
<!-- Node1&#45;&gt;Node4 -->
<g id="edge9" class="edge">
<title>Node1&#45;&gt;Node4</title>
<path fill="none" stroke="midnightblue" d="M393.46,-51.5C329.47,-58.07 190.71,-72.32 113.02,-80.3"/>
<polygon fill="midnightblue" stroke="midnightblue" points="394.2,-54.94 403.79,-50.43 393.49,-47.97 394.2,-54.94"/>
</g>
<!-- Node6 -->
<g id="node6" class="node">
<title>Node6</title>
<g id="a_node6"><a xlink:href="structalpaqa_1_1Problem.html#ac9c1de8ad2ed2be51c1838f0bec0cec5" target="_top" xlink:title="Evaluate , its gradient &#160;and .">
<polygon fill="white" stroke="black" points="274,-19.5 274,-38.5 368,-38.5 368,-19.5 274,-19.5"/>
<text text-anchor="middle" x="321" y="-26.5" font-family="Helvetica,sans-Serif" font-size="10.00">eval_f_grad_f_g</text>
</a>
</g>
</g>
<!-- Node1&#45;&gt;Node6 -->
<g id="edge6" class="edge">
<title>Node1&#45;&gt;Node6</title>
<path fill="none" stroke="midnightblue" d="M393.88,-41.95C385.68,-40.47 376.75,-38.86 368.08,-37.3"/>
<polygon fill="midnightblue" stroke="midnightblue" points="393.36,-45.41 403.82,-43.74 394.6,-38.52 393.36,-45.41"/>
</g>
<!-- Node7 -->
<g id="node7" class="node">
<title>Node7</title>
<g id="a_node7"><a xlink:href="structalpaqa_1_1Problem.html#af4e909497793ecd72eb8dcc4f5c2a55c" target="_top" xlink:title="Calculate the gradient ∇ψ(x).">
<polygon fill="white" stroke="black" points="155,-0.5 155,-19.5 232,-19.5 232,-0.5 155,-0.5"/>
<text text-anchor="middle" x="193.5" y="-7.5" font-family="Helvetica,sans-Serif" font-size="10.00">eval_grad_ψ</text>
</a>
</g>
</g>
<!-- Node1&#45;&gt;Node7 -->
<g id="edge7" class="edge">
<title>Node1&#45;&gt;Node7</title>
<path fill="none" stroke="midnightblue" d="M408.59,-31.95C397.53,-23.64 382.85,-14.34 368,-10 322.75,3.22 267.98,0.27 232.25,-4.01"/>
<polygon fill="midnightblue" stroke="midnightblue" points="406.6,-34.84 416.62,-38.3 410.94,-29.35 406.6,-34.84"/>
</g>
<!-- Node3 -->
<g id="node3" class="node">
<title>Node3</title>
<g id="a_node3"><a xlink:href="structalpaqa_1_1Problem.html#aa0e2bd5f0128185dcdfc84d858d43bd0" target="_top" xlink:title="Calculate both ψ(x) and its gradient ∇ψ(x).">
<polygon fill="white" stroke="black" points="149,-133.5 149,-152.5 238,-152.5 238,-133.5 149,-133.5"/>
<text text-anchor="middle" x="193.5" y="-140.5" font-family="Helvetica,sans-Serif" font-size="10.00">eval_ψ_grad_ψ</text>
</a>
</g>
</g>
<!-- Node2&#45;&gt;Node3 -->
<g id="edge2" class="edge">
<title>Node2&#45;&gt;Node3</title>
<path fill="none" stroke="midnightblue" d="M282.26,-116.43C264.34,-121.85 243.16,-128.27 226.1,-133.43"/>
<polygon fill="midnightblue" stroke="midnightblue" points="283.28,-119.78 291.84,-113.53 281.25,-113.08 283.28,-119.78"/>
</g>
<!-- Node5 -->
<g id="node5" class="node">
<title>Node5</title>
<g id="a_node5"><a xlink:href="structalpaqa_1_1Problem.html#ae9336441a3bb074da2fc22d6f39e1347" target="_top" xlink:title="Calculate both ψ(x) and the vector ŷ that can later be used to compute ∇ψ.">
<polygon fill="white" stroke="black" points="163,-95.5 163,-114.5 224,-114.5 224,-95.5 163,-95.5"/>
<text text-anchor="middle" x="193.5" y="-102.5" font-family="Helvetica,sans-Serif" font-size="10.00">eval_ψ_ŷ</text>
</a>
</g>
</g>
<!-- Node2&#45;&gt;Node5 -->
<g id="edge4" class="edge">
<title>Node2&#45;&gt;Node5</title>
<path fill="none" stroke="midnightblue" d="M281.71,-105C263.27,-105 241.5,-105 224.32,-105"/>
<polygon fill="midnightblue" stroke="midnightblue" points="281.84,-108.5 291.84,-105 281.84,-101.5 281.84,-108.5"/>
</g>
<!-- Node3&#45;&gt;Node4 -->
<g id="edge3" class="edge">
<title>Node3&#45;&gt;Node4</title>
<path fill="none" stroke="midnightblue" d="M160.58,-129.52C135.85,-119.08 102.2,-104.87 80.17,-95.57"/>
<polygon fill="midnightblue" stroke="midnightblue" points="159.33,-132.79 169.9,-133.46 162.05,-126.35 159.33,-132.79"/>
</g>
<!-- Node5&#45;&gt;Node4 -->
<g id="edge5" class="edge">
<title>Node5&#45;&gt;Node4</title>
<path fill="none" stroke="midnightblue" d="M152.84,-99.42C140.42,-97.67 126.47,-95.71 113.16,-93.83"/>
<polygon fill="midnightblue" stroke="midnightblue" points="152.48,-102.9 162.87,-100.83 153.46,-95.97 152.48,-102.9"/>
</g>
<!-- Node7&#45;&gt;Node4 -->
<g id="edge8" class="edge">
<title>Node7&#45;&gt;Node4</title>
<path fill="none" stroke="midnightblue" d="M166.47,-24.65C139.34,-39.93 97.61,-63.42 74.46,-76.45"/>
<polygon fill="midnightblue" stroke="midnightblue" points="168.41,-27.58 175.4,-19.63 164.97,-21.48 168.41,-27.58"/>
</g>
</g>
</svg>
