<?xml version="1.0" encoding="UTF-8" standalone="no"?>
<!DOCTYPE svg PUBLIC "-//W3C//DTD SVG 1.1//EN"
 "http://www.w3.org/Graphics/SVG/1.1/DTD/svg11.dtd">
<!-- Generated by graphviz version 2.43.0 (0)
 -->
<!-- Title: eval_grad_ψ_from_ŷ Pages: 1 -->
<svg width="386pt" height="47pt"
 viewBox="0.00 0.00 386.00 47.00" xmlns="http://www.w3.org/2000/svg" xmlns:xlink="http://www.w3.org/1999/xlink">
<g id="graph0" class="graph" transform="scale(1 1) rotate(0) translate(4 43)">
<title>eval_grad_ψ_from_ŷ</title>
<polygon fill="white" stroke="transparent" points="-4,4 -4,-43 382,-43 382,4 -4,4"/>
<!-- Node1 -->
<g id="node1" class="node">
<title>Node1</title>
<g id="a_node1"><a xlink:title="Calculate ∇ψ(x) using ŷ.">
<polygon fill="#bfbfbf" stroke="black" points="262,-0.5 262,-19.5 378,-19.5 378,-0.5 262,-0.5"/>
<text text-anchor="middle" x="320" y="-7.5" font-family="Helvetica,sans-Serif" font-size="10.00">eval_grad_ψ_from_ŷ</text>
</a>
</g>
</g>
<!-- Node2 -->
<g id="node2" class="node">
<title>Node2</title>
<g id="a_node2"><a xlink:href="structalpaqa_1_1Problem.html#af4e909497793ecd72eb8dcc4f5c2a55c" target="_top" xlink:title="Calculate the gradient ∇ψ(x).">
<polygon fill="white" stroke="black" points="149,-19.5 149,-38.5 226,-38.5 226,-19.5 149,-19.5"/>
<text text-anchor="middle" x="187.5" y="-26.5" font-family="Helvetica,sans-Serif" font-size="10.00">eval_grad_ψ</text>
</a>
</g>
</g>
<!-- Node1&#45;&gt;Node2 -->
<g id="edge1" class="edge">
<title>Node1&#45;&gt;Node2</title>
<path fill="none" stroke="midnightblue" d="M251.82,-19.78C243.01,-21.06 234.25,-22.34 226.17,-23.52"/>
<polygon fill="midnightblue" stroke="midnightblue" points="252.37,-23.24 261.76,-18.33 251.36,-16.31 252.37,-23.24"/>
</g>
<!-- Node3 -->
<g id="node3" class="node">
<title>Node3</title>
<g id="a_node3"><a xlink:href="alpaqa_8cpp.html#a52c00cccef0976f125d4a27f9906c36b" target="_top" xlink:title=" ">
<polygon fill="white" stroke="black" points="0,-0.5 0,-19.5 113,-19.5 113,-0.5 0,-0.5"/>
<text text-anchor="middle" x="56.5" y="-7.5" font-family="Helvetica,sans-Serif" font-size="10.00">PYBIND11_MODULE</text>
</a>
</g>
</g>
<!-- Node1&#45;&gt;Node3 -->
<g id="edge3" class="edge">
<title>Node1&#45;&gt;Node3</title>
<path fill="none" stroke="midnightblue" d="M251.84,-10C208.81,-10 153.65,-10 113.1,-10"/>
<polygon fill="midnightblue" stroke="midnightblue" points="251.94,-13.5 261.94,-10 251.94,-6.5 251.94,-13.5"/>
</g>
<!-- Node2&#45;&gt;Node3 -->
<g id="edge2" class="edge">
<title>Node2&#45;&gt;Node3</title>
<path fill="none" stroke="midnightblue" d="M138.88,-21.99C130.52,-20.75 121.75,-19.46 113.19,-18.2"/>
<polygon fill="midnightblue" stroke="midnightblue" points="138.44,-25.46 148.84,-23.45 139.46,-18.53 138.44,-25.46"/>
</g>
</g>
</svg>
