<?xml version="1.0" encoding="UTF-8" standalone="no"?>
<!DOCTYPE svg PUBLIC "-//W3C//DTD SVG 1.1//EN"
 "http://www.w3.org/Graphics/SVG/1.1/DTD/svg11.dtd">
<!-- Generated by graphviz version 2.43.0 (0)
 -->
<!-- Title: PANOCDirection&lt; LBFGS &gt; Pages: 1 -->
<svg width="160pt" height="650pt"
 viewBox="0.00 0.00 160.00 650.00" xmlns="http://www.w3.org/2000/svg" xmlns:xlink="http://www.w3.org/1999/xlink">
<g id="graph0" class="graph" transform="scale(1 1) rotate(0) translate(4 646)">
<title>PANOCDirection&lt; LBFGS &gt;</title>
<polygon fill="white" stroke="transparent" points="-4,4 -4,-646 156,-646 156,4 -4,4"/>
<!-- Node1 -->
<g id="node1" class="node">
<title>Node1</title>
<g id="a_node1"><a xlink:title=" ">
<polygon fill="#bfbfbf" stroke="black" points="1.5,-0.5 1.5,-156.5 150.5,-156.5 150.5,-0.5 1.5,-0.5"/>
<text text-anchor="middle" x="76" y="-144.5" font-family="Helvetica,sans-Serif" font-size="10.00">PANOCDirection&lt; LBFGS &gt;</text>
<polyline fill="none" stroke="black" points="1.5,-137.5 150.5,-137.5 "/>
<text text-anchor="middle" x="76" y="-125.5" font-family="Helvetica,sans-Serif" font-size="10.00"> </text>
<polyline fill="none" stroke="black" points="1.5,-118.5 150.5,-118.5 "/>
<text text-anchor="start" x="9.5" y="-106.5" font-family="Helvetica,sans-Serif" font-size="10.00">+ PANOCDirection()</text>
<text text-anchor="start" x="9.5" y="-95.5" font-family="Helvetica,sans-Serif" font-size="10.00">+ PANOCDirection()</text>
<text text-anchor="start" x="9.5" y="-84.5" font-family="Helvetica,sans-Serif" font-size="10.00">+ PANOCDirection()</text>
<text text-anchor="start" x="9.5" y="-73.5" font-family="Helvetica,sans-Serif" font-size="10.00">+ initialize()</text>
<text text-anchor="start" x="9.5" y="-62.5" font-family="Helvetica,sans-Serif" font-size="10.00">+ update()</text>
<text text-anchor="start" x="9.5" y="-51.5" font-family="Helvetica,sans-Serif" font-size="10.00">+ apply()</text>
<text text-anchor="start" x="9.5" y="-40.5" font-family="Helvetica,sans-Serif" font-size="10.00">+ changed_γ()</text>
<text text-anchor="start" x="9.5" y="-29.5" font-family="Helvetica,sans-Serif" font-size="10.00">+ reset()</text>
<text text-anchor="start" x="9.5" y="-18.5" font-family="Helvetica,sans-Serif" font-size="10.00">+ get_name()</text>
<text text-anchor="start" x="9.5" y="-7.5" font-family="Helvetica,sans-Serif" font-size="10.00">+ get_params()</text>
</a>
</g>
</g>
<!-- Node2 -->
<g id="node2" class="node">
<title>Node2</title>
<g id="a_node2"><a xlink:href="classalpaqa_1_1LBFGS.html" target="_top" xlink:title="Limited memory Broyden–Fletcher–Goldfarb–Shanno (L&#45;BFGS) algorithm.">
<polygon fill="white" stroke="black" points="27,-204.5 27,-514.5 125,-514.5 125,-204.5 27,-204.5"/>
<text text-anchor="middle" x="76" y="-502.5" font-family="Helvetica,sans-Serif" font-size="10.00">LBFGS</text>
<polyline fill="none" stroke="black" points="27,-495.5 125,-495.5 "/>
<text text-anchor="start" x="35" y="-483.5" font-family="Helvetica,sans-Serif" font-size="10.00">&#45; sto</text>
<text text-anchor="start" x="35" y="-472.5" font-family="Helvetica,sans-Serif" font-size="10.00">&#45; idx</text>
<text text-anchor="start" x="35" y="-461.5" font-family="Helvetica,sans-Serif" font-size="10.00">&#45; full</text>
<polyline fill="none" stroke="black" points="27,-454.5 125,-454.5 "/>
<text text-anchor="start" x="35" y="-442.5" font-family="Helvetica,sans-Serif" font-size="10.00">+ LBFGS()</text>
<text text-anchor="start" x="35" y="-431.5" font-family="Helvetica,sans-Serif" font-size="10.00">+ LBFGS()</text>
<text text-anchor="start" x="35" y="-420.5" font-family="Helvetica,sans-Serif" font-size="10.00">+ update()</text>
<text text-anchor="start" x="35" y="-409.5" font-family="Helvetica,sans-Serif" font-size="10.00">+ apply()</text>
<text text-anchor="start" x="35" y="-398.5" font-family="Helvetica,sans-Serif" font-size="10.00">+ apply()</text>
<text text-anchor="start" x="35" y="-387.5" font-family="Helvetica,sans-Serif" font-size="10.00">+ reset()</text>
<text text-anchor="start" x="35" y="-376.5" font-family="Helvetica,sans-Serif" font-size="10.00">+ resize()</text>
<text text-anchor="start" x="35" y="-365.5" font-family="Helvetica,sans-Serif" font-size="10.00">+ scale_y()</text>
<text text-anchor="start" x="35" y="-354.5" font-family="Helvetica,sans-Serif" font-size="10.00">+ get_name()</text>
<text text-anchor="start" x="35" y="-343.5" font-family="Helvetica,sans-Serif" font-size="10.00">+ get_params()</text>
<text text-anchor="start" x="35" y="-332.5" font-family="Helvetica,sans-Serif" font-size="10.00">+ n()</text>
<text text-anchor="start" x="35" y="-321.5" font-family="Helvetica,sans-Serif" font-size="10.00">+ history()</text>
<text text-anchor="start" x="35" y="-310.5" font-family="Helvetica,sans-Serif" font-size="10.00">+ succ()</text>
<text text-anchor="start" x="35" y="-299.5" font-family="Helvetica,sans-Serif" font-size="10.00">+ s()</text>
<text text-anchor="start" x="35" y="-288.5" font-family="Helvetica,sans-Serif" font-size="10.00">+ s()</text>
<text text-anchor="start" x="35" y="-277.5" font-family="Helvetica,sans-Serif" font-size="10.00">+ y()</text>
<text text-anchor="start" x="35" y="-266.5" font-family="Helvetica,sans-Serif" font-size="10.00">+ y()</text>
<text text-anchor="start" x="35" y="-255.5" font-family="Helvetica,sans-Serif" font-size="10.00">+ ρ()</text>
<text text-anchor="start" x="35" y="-244.5" font-family="Helvetica,sans-Serif" font-size="10.00">+ ρ()</text>
<text text-anchor="start" x="35" y="-233.5" font-family="Helvetica,sans-Serif" font-size="10.00">+ α()</text>
<text text-anchor="start" x="35" y="-222.5" font-family="Helvetica,sans-Serif" font-size="10.00">+ α()</text>
<text text-anchor="start" x="35" y="-211.5" font-family="Helvetica,sans-Serif" font-size="10.00">+ update_valid()</text>
</a>
</g>
</g>
<!-- Node2&#45;&gt;Node1 -->
<g id="edge1" class="edge">
<title>Node2&#45;&gt;Node1</title>
<path fill="none" stroke="#404040" d="M76,-204.31C76,-192.19 76,-180.21 76,-168.76"/>
<polygon fill="none" stroke="#404040" points="76,-168.55 72,-162.55 76,-156.55 80,-162.55 76,-168.55"/>
<text text-anchor="middle" x="94" y="-178" font-family="Helvetica,sans-Serif" font-size="10.00"> +lbfgs</text>
</g>
<!-- Node3 -->
<g id="node3" class="node">
<title>Node3</title>
<g id="a_node3"><a xlink:href="namespacealpaqa.html#structalpaqa_1_1LBFGSParams" target="_top" xlink:title="Parameters for the LBFGS and SpecializedLBFGS classes.">
<polygon fill="white" stroke="black" points="0,-562.5 0,-641.5 152,-641.5 152,-562.5 0,-562.5"/>
<text text-anchor="middle" x="76" y="-629.5" font-family="Helvetica,sans-Serif" font-size="10.00">LBFGSParams</text>
<polyline fill="none" stroke="black" points="0,-622.5 152,-622.5 "/>
<text text-anchor="start" x="8" y="-610.5" font-family="Helvetica,sans-Serif" font-size="10.00">+ memory</text>
<text text-anchor="start" x="8" y="-599.5" font-family="Helvetica,sans-Serif" font-size="10.00">+ cbfgs</text>
<text text-anchor="start" x="8" y="-588.5" font-family="Helvetica,sans-Serif" font-size="10.00">+ rescale_when_γ_changes</text>
<polyline fill="none" stroke="black" points="0,-581.5 152,-581.5 "/>
<text text-anchor="middle" x="76" y="-569.5" font-family="Helvetica,sans-Serif" font-size="10.00"> </text>
</a>
</g>
</g>
<!-- Node3&#45;&gt;Node2 -->
<g id="edge2" class="edge">
<title>Node3&#45;&gt;Node2</title>
<path fill="none" stroke="#404040" d="M76,-562.36C76,-551.84 76,-539.74 76,-526.8"/>
<polygon fill="none" stroke="#404040" points="76,-526.7 72,-520.7 76,-514.7 80,-520.7 76,-526.7"/>
<text text-anchor="middle" x="98" y="-536" font-family="Helvetica,sans-Serif" font-size="10.00"> &#45;params</text>
</g>
</g>
</svg>
