<?xml version="1.0" encoding="UTF-8" standalone="no"?>
<!DOCTYPE svg PUBLIC "-//W3C//DTD SVG 1.1//EN"
 "http://www.w3.org/Graphics/SVG/1.1/DTD/svg11.dtd">
<!-- Generated by graphviz version 2.43.0 (0)
 -->
<!-- Title: ProblemOnlyD Pages: 1 -->
<svg width="114pt" height="430pt"
 viewBox="0.00 0.00 114.00 430.00" xmlns="http://www.w3.org/2000/svg" xmlns:xlink="http://www.w3.org/1999/xlink">
<g id="graph0" class="graph" transform="scale(1 1) rotate(0) translate(4 426)">
<title>ProblemOnlyD</title>
<polygon fill="white" stroke="transparent" points="-4,4 -4,-426 110,-426 110,4 -4,4"/>
<!-- Node1 -->
<g id="node1" class="node">
<title>Node1</title>
<g id="a_node1"><a xlink:title="Moves the state constraints in the set C to the set D, resulting in an unconstraint inner problem.">
<polygon fill="#bfbfbf" stroke="black" points="0,-0.5 0,-79.5 106,-79.5 106,-0.5 0,-0.5"/>
<text text-anchor="middle" x="53" y="-67.5" font-family="Helvetica,sans-Serif" font-size="10.00">ProblemOnlyD</text>
<polyline fill="none" stroke="black" points="0,-60.5 106,-60.5 "/>
<text text-anchor="start" x="8" y="-48.5" font-family="Helvetica,sans-Serif" font-size="10.00">&#45; work</text>
<polyline fill="none" stroke="black" points="0,-41.5 106,-41.5 "/>
<text text-anchor="start" x="8" y="-29.5" font-family="Helvetica,sans-Serif" font-size="10.00">+ ProblemOnlyD()</text>
<text text-anchor="start" x="8" y="-18.5" font-family="Helvetica,sans-Serif" font-size="10.00">+ ProblemOnlyD()</text>
<text text-anchor="start" x="8" y="-7.5" font-family="Helvetica,sans-Serif" font-size="10.00">&#45; transform()</text>
</a>
</g>
</g>
<!-- Node2 -->
<g id="node2" class="node">
<title>Node2</title>
<g id="a_node2"><a xlink:href="structalpaqa_1_1Problem.html" target="_top" xlink:title="Problem description for minimization problems.">
<polygon fill="white" stroke="black" points="9,-127.5 9,-294.5 97,-294.5 97,-127.5 9,-127.5"/>
<text text-anchor="middle" x="53" y="-282.5" font-family="Helvetica,sans-Serif" font-size="10.00">Problem</text>
<polyline fill="none" stroke="black" points="9,-275.5 97,-275.5 "/>
<text text-anchor="start" x="17" y="-263.5" font-family="Helvetica,sans-Serif" font-size="10.00">+ n</text>
<text text-anchor="start" x="17" y="-252.5" font-family="Helvetica,sans-Serif" font-size="10.00">+ m</text>
<text text-anchor="start" x="17" y="-241.5" font-family="Helvetica,sans-Serif" font-size="10.00">+ f</text>
<text text-anchor="start" x="17" y="-230.5" font-family="Helvetica,sans-Serif" font-size="10.00">+ grad_f</text>
<text text-anchor="start" x="17" y="-219.5" font-family="Helvetica,sans-Serif" font-size="10.00">+ g</text>
<text text-anchor="start" x="17" y="-208.5" font-family="Helvetica,sans-Serif" font-size="10.00">+ grad_g_prod</text>
<text text-anchor="start" x="17" y="-197.5" font-family="Helvetica,sans-Serif" font-size="10.00">+ grad_gi</text>
<text text-anchor="start" x="17" y="-186.5" font-family="Helvetica,sans-Serif" font-size="10.00">+ hess_L_prod</text>
<text text-anchor="start" x="17" y="-175.5" font-family="Helvetica,sans-Serif" font-size="10.00">+ hess_L</text>
<polyline fill="none" stroke="black" points="9,-168.5 97,-168.5 "/>
<text text-anchor="start" x="17" y="-156.5" font-family="Helvetica,sans-Serif" font-size="10.00">+ Problem()</text>
<text text-anchor="start" x="17" y="-145.5" font-family="Helvetica,sans-Serif" font-size="10.00">+ Problem()</text>
<text text-anchor="start" x="17" y="-134.5" font-family="Helvetica,sans-Serif" font-size="10.00">+ Problem()</text>
</a>
</g>
</g>
<!-- Node2&#45;&gt;Node1 -->
<g id="edge1" class="edge">
<title>Node2&#45;&gt;Node1</title>
<path fill="none" stroke="midnightblue" d="M50.84,-117.2C50.84,-110.7 50.89,-104.25 51,-98 51.1,-92.06 51.27,-85.77 51.46,-79.63"/>
<polygon fill="none" stroke="midnightblue" points="47.34,-117.44 50.86,-127.43 54.34,-117.42 47.34,-117.44"/>
</g>
<!-- Node2&#45;&gt;Node1 -->
<g id="edge3" class="edge">
<title>Node2&#45;&gt;Node1</title>
<path fill="none" stroke="#404040" d="M53,-127.48C53,-115.3 53,-103.07 53,-91.8"/>
<polygon fill="none" stroke="#404040" points="53,-91.53 49,-85.53 53,-79.53 57,-85.53 53,-91.53"/>
<text text-anchor="middle" x="75" y="-101" font-family="Helvetica,sans-Serif" font-size="10.00"> &#45;original</text>
</g>
<!-- Node3 -->
<g id="node3" class="node">
<title>Node3</title>
<g id="a_node3"><a xlink:href="namespacealpaqa.html#structalpaqa_1_1Box" target="_top" xlink:title=" ">
<polygon fill="white" stroke="black" points="10,-353.5 10,-421.5 96,-421.5 96,-353.5 10,-353.5"/>
<text text-anchor="middle" x="53" y="-409.5" font-family="Helvetica,sans-Serif" font-size="10.00">Box</text>
<polyline fill="none" stroke="black" points="10,-402.5 96,-402.5 "/>
<text text-anchor="start" x="18" y="-390.5" font-family="Helvetica,sans-Serif" font-size="10.00">+ upperbound</text>
<text text-anchor="start" x="18" y="-379.5" font-family="Helvetica,sans-Serif" font-size="10.00">+ lowerbound</text>
<polyline fill="none" stroke="black" points="10,-372.5 96,-372.5 "/>
<text text-anchor="middle" x="53" y="-360.5" font-family="Helvetica,sans-Serif" font-size="10.00"> </text>
</a>
</g>
</g>
<!-- Node3&#45;&gt;Node2 -->
<g id="edge2" class="edge">
<title>Node3&#45;&gt;Node2</title>
<path fill="none" stroke="#404040" d="M53,-353.27C53,-339.82 53,-323.55 53,-306.9"/>
<polygon fill="none" stroke="#404040" points="53,-306.75 49,-300.75 53,-294.75 57,-300.75 53,-306.75"/>
<text text-anchor="middle" x="62.5" y="-327" font-family="Helvetica,sans-Serif" font-size="10.00"> +C</text>
<text text-anchor="middle" x="62.5" y="-316" font-family="Helvetica,sans-Serif" font-size="10.00">+D</text>
</g>
</g>
</svg>
