<?xml version="1.0" encoding="UTF-8" standalone="no"?>
<!DOCTYPE svg PUBLIC "-//W3C//DTD SVG 1.1//EN"
 "http://www.w3.org/Graphics/SVG/1.1/DTD/svg11.dtd">
<!-- Generated by graphviz version 2.43.0 (0)
 -->
<!-- Title: lbfgs.hpp Pages: 1 -->
<svg width="1058pt" height="252pt"
 viewBox="0.00 0.00 1058.00 252.00" xmlns="http://www.w3.org/2000/svg" xmlns:xlink="http://www.w3.org/1999/xlink">
<g id="graph0" class="graph" transform="scale(1 1) rotate(0) translate(4 248)">
<title>lbfgs.hpp</title>
<polygon fill="white" stroke="transparent" points="-4,4 -4,-248 1054,-248 1054,4 -4,4"/>
<!-- Node1 -->
<g id="node1" class="node">
<title>Node1</title>
<g id="a_node1"><a xlink:title=" ">
<polygon fill="#bfbfbf" stroke="black" points="632,-224.5 632,-243.5 694,-243.5 694,-224.5 632,-224.5"/>
<text text-anchor="middle" x="663" y="-231.5" font-family="Helvetica,sans-Serif" font-size="10.00">lbfgs.hpp</text>
</a>
</g>
</g>
<!-- Node2 -->
<g id="node2" class="node">
<title>Node2</title>
<g id="a_node2"><a xlink:href="kwargs-to-struct_8hpp.html" target="_top" xlink:title="This file defines mappings from Python dicts (kwargs) to simple parameter structs.">
<polygon fill="white" stroke="black" points="0,-112.5 0,-131.5 118,-131.5 118,-112.5 0,-112.5"/>
<text text-anchor="middle" x="59" y="-119.5" font-family="Helvetica,sans-Serif" font-size="10.00">kwargs&#45;to&#45;struct.hpp</text>
</a>
</g>
</g>
<!-- Node1&#45;&gt;Node2 -->
<g id="edge1" class="edge">
<title>Node1&#45;&gt;Node2</title>
<path fill="none" stroke="midnightblue" d="M621.52,-230.97C521.92,-225.78 271.52,-210.83 191,-188 144.8,-174.9 95.27,-145.99 72.21,-131.55"/>
<polygon fill="midnightblue" stroke="midnightblue" points="621.63,-234.48 631.79,-231.5 621.99,-227.49 621.63,-234.48"/>
</g>
<!-- Node4 -->
<g id="node4" class="node">
<title>Node4</title>
<g id="a_node4"><a xlink:href="lbfgs_8hpp.html" target="_top" xlink:title=" ">
<polygon fill="white" stroke="black" points="578,-168.5 578,-187.5 640,-187.5 640,-168.5 578,-168.5"/>
<text text-anchor="middle" x="609" y="-175.5" font-family="Helvetica,sans-Serif" font-size="10.00">lbfgs.hpp</text>
</a>
</g>
</g>
<!-- Node1&#45;&gt;Node4 -->
<g id="edge3" class="edge">
<title>Node1&#45;&gt;Node4</title>
<path fill="none" stroke="midnightblue" d="M647,-217C637.43,-207.43 625.64,-195.64 617.75,-187.75"/>
<polygon fill="midnightblue" stroke="midnightblue" points="644.54,-219.49 654.08,-224.08 649.49,-214.54 644.54,-219.49"/>
</g>
<!-- Node14 -->
<g id="node14" class="node">
<title>Node14</title>
<g id="a_node14"><a xlink:href="CasADi_2Rosenbrock_2main_8cpp.html" target="_top" xlink:title=" ">
<polygon fill="white" stroke="black" points="796,-168.5 796,-187.5 858,-187.5 858,-168.5 796,-168.5"/>
<text text-anchor="middle" x="827" y="-175.5" font-family="Helvetica,sans-Serif" font-size="10.00">main.cpp</text>
</a>
</g>
</g>
<!-- Node1&#45;&gt;Node14 -->
<g id="edge18" class="edge">
<title>Node1&#45;&gt;Node14</title>
<path fill="none" stroke="midnightblue" d="M698.52,-221.3C729.42,-211.13 773.47,-196.62 801.14,-187.52"/>
<polygon fill="midnightblue" stroke="midnightblue" points="697.39,-217.99 688.99,-224.44 699.58,-224.64 697.39,-217.99"/>
</g>
<!-- Node15 -->
<g id="node15" class="node">
<title>Node15</title>
<g id="a_node15"><a xlink:href="CUTEst_2Rosenbrock_2main_8cpp.html" target="_top" xlink:title=" ">
<polygon fill="white" stroke="black" points="876,-168.5 876,-187.5 938,-187.5 938,-168.5 876,-168.5"/>
<text text-anchor="middle" x="907" y="-175.5" font-family="Helvetica,sans-Serif" font-size="10.00">main.cpp</text>
</a>
</g>
</g>
<!-- Node1&#45;&gt;Node15 -->
<g id="edge19" class="edge">
<title>Node1&#45;&gt;Node15</title>
<path fill="none" stroke="midnightblue" d="M704.05,-224C745.25,-214.95 810.54,-200.58 867,-188 869.92,-187.35 872.96,-186.67 875.99,-185.99"/>
<polygon fill="midnightblue" stroke="midnightblue" points="703.13,-220.62 694.11,-226.18 704.63,-227.45 703.13,-220.62"/>
</g>
<!-- Node16 -->
<g id="node16" class="node">
<title>Node16</title>
<g id="a_node16"><a xlink:href="decl_2specialized-lbfgs_8hpp.html" target="_top" xlink:title=" ">
<polygon fill="white" stroke="black" points="658,-168.5 658,-187.5 778,-187.5 778,-168.5 658,-168.5"/>
<text text-anchor="middle" x="718" y="-175.5" font-family="Helvetica,sans-Serif" font-size="10.00">specialized&#45;lbfgs.hpp</text>
</a>
</g>
</g>
<!-- Node1&#45;&gt;Node16 -->
<g id="edge20" class="edge">
<title>Node1&#45;&gt;Node16</title>
<path fill="none" stroke="midnightblue" d="M679.29,-217C689.04,-207.43 701.05,-195.64 709.09,-187.75"/>
<polygon fill="midnightblue" stroke="midnightblue" points="676.77,-214.58 672.08,-224.08 681.67,-219.57 676.77,-214.58"/>
</g>
<!-- Node17 -->
<g id="node17" class="node">
<title>Node17</title>
<g id="a_node17"><a xlink:href="decl_2structured-panoc-lbfgs_8hpp.html" target="_top" xlink:title=" ">
<polygon fill="white" stroke="black" points="200,-168.5 200,-187.5 348,-187.5 348,-168.5 200,-168.5"/>
<text text-anchor="middle" x="274" y="-175.5" font-family="Helvetica,sans-Serif" font-size="10.00">structured&#45;panoc&#45;lbfgs.hpp</text>
</a>
</g>
</g>
<!-- Node1&#45;&gt;Node17 -->
<g id="edge22" class="edge">
<title>Node1&#45;&gt;Node17</title>
<path fill="none" stroke="midnightblue" d="M621.84,-227.29C553.35,-217.78 415.61,-198.66 335.54,-187.54"/>
<polygon fill="midnightblue" stroke="midnightblue" points="621.44,-230.76 631.82,-228.67 622.4,-223.83 621.44,-230.76"/>
</g>
<!-- Node3 -->
<g id="node3" class="node">
<title>Node3</title>
<g id="a_node3"><a xlink:href="alpaqa_8cpp.html" target="_top" xlink:title="This file defines all Python bindings.">
<polygon fill="white" stroke="black" points="399,-0.5 399,-19.5 469,-19.5 469,-0.5 399,-0.5"/>
<text text-anchor="middle" x="434" y="-7.5" font-family="Helvetica,sans-Serif" font-size="10.00">alpaqa.cpp</text>
</a>
</g>
</g>
<!-- Node2&#45;&gt;Node3 -->
<g id="edge2" class="edge">
<title>Node2&#45;&gt;Node3</title>
<path fill="none" stroke="midnightblue" d="M71.66,-103.96C84,-88.73 104.18,-67.14 127,-56 174.38,-32.87 328.8,-18.8 398.86,-13.46"/>
<polygon fill="midnightblue" stroke="midnightblue" points="68.73,-102.03 65.35,-112.07 74.26,-106.33 68.73,-102.03"/>
</g>
<!-- Node4&#45;&gt;Node3 -->
<g id="edge5" class="edge">
<title>Node4&#45;&gt;Node3</title>
<path fill="none" stroke="midnightblue" d="M628.87,-161.82C643.55,-148.68 659.33,-129.14 649,-112 610.58,-48.25 519.45,-24.18 469.05,-15.54"/>
<polygon fill="midnightblue" stroke="midnightblue" points="626.42,-159.31 621,-168.41 630.92,-164.67 626.42,-159.31"/>
</g>
<!-- Node5 -->
<g id="node5" class="node">
<title>Node5</title>
<g id="a_node5"><a xlink:href="alm_8cpp.html" target="_top" xlink:title=" ">
<polygon fill="white" stroke="black" points="696,-112.5 696,-131.5 752,-131.5 752,-112.5 696,-112.5"/>
<text text-anchor="middle" x="724" y="-119.5" font-family="Helvetica,sans-Serif" font-size="10.00">alm.cpp</text>
</a>
</g>
</g>
<!-- Node4&#45;&gt;Node5 -->
<g id="edge4" class="edge">
<title>Node4&#45;&gt;Node5</title>
<path fill="none" stroke="midnightblue" d="M636.48,-164.1C657.97,-154.01 687.22,-140.27 705.86,-131.52"/>
<polygon fill="midnightblue" stroke="midnightblue" points="634.79,-161.02 627.22,-168.44 637.76,-167.36 634.79,-161.02"/>
</g>
<!-- Node6 -->
<g id="node6" class="node">
<title>Node6</title>
<g id="a_node6"><a xlink:href="lbfgs_8cpp.html" target="_top" xlink:title=" ">
<polygon fill="white" stroke="black" points="770.5,-112.5 770.5,-131.5 831.5,-131.5 831.5,-112.5 770.5,-112.5"/>
<text text-anchor="middle" x="801" y="-119.5" font-family="Helvetica,sans-Serif" font-size="10.00">lbfgs.cpp</text>
</a>
</g>
</g>
<!-- Node4&#45;&gt;Node6 -->
<g id="edge6" class="edge">
<title>Node4&#45;&gt;Node6</title>
<path fill="none" stroke="midnightblue" d="M649.18,-165.7C685.42,-155.51 737.91,-140.74 770.72,-131.52"/>
<polygon fill="midnightblue" stroke="midnightblue" points="648.1,-162.37 639.42,-168.44 650,-169.11 648.1,-162.37"/>
</g>
<!-- Node7 -->
<g id="node7" class="node">
<title>Node7</title>
<g id="a_node7"><a xlink:href="Presentation_2Cpp_2main_8cpp.html" target="_top" xlink:title=" ">
<polygon fill="white" stroke="black" points="850,-112.5 850,-131.5 912,-131.5 912,-112.5 850,-112.5"/>
<text text-anchor="middle" x="881" y="-119.5" font-family="Helvetica,sans-Serif" font-size="10.00">main.cpp</text>
</a>
</g>
</g>
<!-- Node4&#45;&gt;Node7 -->
<g id="edge7" class="edge">
<title>Node4&#45;&gt;Node7</title>
<path fill="none" stroke="midnightblue" d="M650.29,-167.79C735.7,-150.38 759.04,-148.9 841,-132 843.79,-131.43 846.68,-130.81 849.58,-130.18"/>
<polygon fill="midnightblue" stroke="midnightblue" points="649.51,-164.38 640.42,-169.82 650.92,-171.24 649.51,-164.38"/>
</g>
<!-- Node8 -->
<g id="node8" class="node">
<title>Node8</title>
<g id="a_node8"><a xlink:href="panoc_8cpp.html" target="_top" xlink:title=" ">
<polygon fill="white" stroke="black" points="340,-112.5 340,-131.5 406,-131.5 406,-112.5 340,-112.5"/>
<text text-anchor="middle" x="373" y="-119.5" font-family="Helvetica,sans-Serif" font-size="10.00">panoc.cpp</text>
</a>
</g>
</g>
<!-- Node4&#45;&gt;Node8 -->
<g id="edge8" class="edge">
<title>Node4&#45;&gt;Node8</title>
<path fill="none" stroke="midnightblue" d="M567.75,-167.56C521.91,-157.07 448.77,-140.34 406.37,-130.64"/>
<polygon fill="midnightblue" stroke="midnightblue" points="567.13,-171.01 577.66,-169.83 568.69,-164.19 567.13,-171.01"/>
</g>
<!-- Node9 -->
<g id="node9" class="node">
<title>Node9</title>
<g id="a_node9"><a xlink:href="polymorphic-inner-solver_8hpp.html" target="_top" xlink:title=" ">
<polygon fill="white" stroke="black" points="354,-56.5 354,-75.5 514,-75.5 514,-56.5 354,-56.5"/>
<text text-anchor="middle" x="434" y="-63.5" font-family="Helvetica,sans-Serif" font-size="10.00">polymorphic&#45;inner&#45;solver.hpp</text>
</a>
</g>
</g>
<!-- Node4&#45;&gt;Node9 -->
<g id="edge9" class="edge">
<title>Node4&#45;&gt;Node9</title>
<path fill="none" stroke="midnightblue" d="M567.57,-175.71C532.52,-172.41 483.31,-162.2 453,-132 437.68,-116.73 434.56,-89.83 434.03,-75.91"/>
<polygon fill="midnightblue" stroke="midnightblue" points="567.71,-179.24 577.95,-176.53 568.26,-172.26 567.71,-179.24"/>
</g>
<!-- Node10 -->
<g id="node10" class="node">
<title>Node10</title>
<g id="a_node10"><a xlink:href="polymorphic-panoc-direction_8hpp.html" target="_top" xlink:title=" ">
<polygon fill="white" stroke="black" points="462,-112.5 462,-131.5 640,-131.5 640,-112.5 462,-112.5"/>
<text text-anchor="middle" x="551" y="-119.5" font-family="Helvetica,sans-Serif" font-size="10.00">polymorphic&#45;panoc&#45;direction.hpp</text>
</a>
</g>
</g>
<!-- Node4&#45;&gt;Node10 -->
<g id="edge11" class="edge">
<title>Node4&#45;&gt;Node10</title>
<path fill="none" stroke="midnightblue" d="M592.09,-161.25C581.8,-151.67 569.03,-139.79 560.49,-131.83"/>
<polygon fill="midnightblue" stroke="midnightblue" points="589.98,-164.07 599.68,-168.32 594.75,-158.95 589.98,-164.07"/>
</g>
<!-- Node11 -->
<g id="node11" class="node">
<title>Node11</title>
<g id="a_node11"><a xlink:href="specialized-lbfgs_8hpp.html" target="_top" xlink:title=" ">
<polygon fill="white" stroke="black" points="930,-112.5 930,-131.5 1050,-131.5 1050,-112.5 930,-112.5"/>
<text text-anchor="middle" x="990" y="-119.5" font-family="Helvetica,sans-Serif" font-size="10.00">specialized&#45;lbfgs.hpp</text>
</a>
</g>
</g>
<!-- Node4&#45;&gt;Node11 -->
<g id="edge14" class="edge">
<title>Node4&#45;&gt;Node11</title>
<path fill="none" stroke="midnightblue" d="M650.41,-168.1C692.46,-161.98 843.83,-142.13 929.76,-130.88"/>
<polygon fill="midnightblue" stroke="midnightblue" points="649.73,-164.66 640.39,-169.66 650.81,-171.58 649.73,-164.66"/>
</g>
<!-- Node12 -->
<g id="node12" class="node">
<title>Node12</title>
<g id="a_node12"><a xlink:href="structured-panoc-lbfgs_8hpp.html" target="_top" xlink:title=" ">
<polygon fill="white" stroke="black" points="136,-112.5 136,-131.5 284,-131.5 284,-112.5 136,-112.5"/>
<text text-anchor="middle" x="210" y="-119.5" font-family="Helvetica,sans-Serif" font-size="10.00">structured&#45;panoc&#45;lbfgs.hpp</text>
</a>
</g>
</g>
<!-- Node4&#45;&gt;Node12 -->
<g id="edge15" class="edge">
<title>Node4&#45;&gt;Node12</title>
<path fill="none" stroke="midnightblue" d="M567.49,-171.38C497.46,-161.9 355.42,-142.68 273.02,-131.53"/>
<polygon fill="midnightblue" stroke="midnightblue" points="567.31,-174.89 577.69,-172.76 568.25,-167.95 567.31,-174.89"/>
</g>
<!-- Node9&#45;&gt;Node3 -->
<g id="edge10" class="edge">
<title>Node9&#45;&gt;Node3</title>
<path fill="none" stroke="midnightblue" d="M434,-45.8C434,-36.91 434,-26.78 434,-19.75"/>
<polygon fill="midnightblue" stroke="midnightblue" points="430.5,-46.08 434,-56.08 437.5,-46.08 430.5,-46.08"/>
</g>
<!-- Node10&#45;&gt;Node3 -->
<g id="edge12" class="edge">
<title>Node10&#45;&gt;Node3</title>
<path fill="none" stroke="midnightblue" d="M546.67,-102.31C542.59,-88.16 535.22,-69 523,-56 506.51,-38.47 481.69,-26.71 462.45,-19.62"/>
<polygon fill="midnightblue" stroke="midnightblue" points="543.38,-103.57 549.28,-112.38 550.16,-101.82 543.38,-103.57"/>
</g>
<!-- Node10&#45;&gt;Node9 -->
<g id="edge13" class="edge">
<title>Node10&#45;&gt;Node9</title>
<path fill="none" stroke="midnightblue" d="M523.34,-108.23C501.45,-98.13 471.5,-84.31 452.45,-75.52"/>
<polygon fill="midnightblue" stroke="midnightblue" points="521.91,-111.43 532.46,-112.44 524.85,-105.08 521.91,-111.43"/>
</g>
<!-- Node12&#45;&gt;Node3 -->
<g id="edge16" class="edge">
<title>Node12&#45;&gt;Node3</title>
<path fill="none" stroke="midnightblue" d="M236.72,-107.88C283.15,-85.08 377.49,-38.75 416.5,-19.59"/>
<polygon fill="midnightblue" stroke="midnightblue" points="235.01,-104.82 227.58,-112.37 238.1,-111.1 235.01,-104.82"/>
</g>
<!-- Node13 -->
<g id="node13" class="node">
<title>Node13</title>
<g id="a_node13"><a xlink:href="structured-panoc-lbfgs_8cpp.html" target="_top" xlink:title=" ">
<polygon fill="white" stroke="black" points="136.5,-56.5 136.5,-75.5 283.5,-75.5 283.5,-56.5 136.5,-56.5"/>
<text text-anchor="middle" x="210" y="-63.5" font-family="Helvetica,sans-Serif" font-size="10.00">structured&#45;panoc&#45;lbfgs.cpp</text>
</a>
</g>
</g>
<!-- Node12&#45;&gt;Node13 -->
<g id="edge17" class="edge">
<title>Node12&#45;&gt;Node13</title>
<path fill="none" stroke="midnightblue" d="M210,-101.8C210,-92.91 210,-82.78 210,-75.75"/>
<polygon fill="midnightblue" stroke="midnightblue" points="206.5,-102.08 210,-112.08 213.5,-102.08 206.5,-102.08"/>
</g>
<!-- Node16&#45;&gt;Node11 -->
<g id="edge21" class="edge">
<title>Node16&#45;&gt;Node11</title>
<path fill="none" stroke="midnightblue" d="M771.02,-166.47C822.43,-156.27 899.44,-140.98 947.1,-131.52"/>
<polygon fill="midnightblue" stroke="midnightblue" points="770.23,-163.06 761.1,-168.44 771.59,-169.93 770.23,-163.06"/>
</g>
<!-- Node17&#45;&gt;Node2 -->
<g id="edge23" class="edge">
<title>Node17&#45;&gt;Node2</title>
<path fill="none" stroke="midnightblue" d="M230.04,-165.96C189.43,-155.76 129.96,-140.82 92.91,-131.52"/>
<polygon fill="midnightblue" stroke="midnightblue" points="229.38,-169.4 239.93,-168.44 231.09,-162.61 229.38,-169.4"/>
</g>
<!-- Node17&#45;&gt;Node9 -->
<g id="edge24" class="edge">
<title>Node17&#45;&gt;Node9</title>
<path fill="none" stroke="midnightblue" d="M285.68,-159.9C296.18,-145.57 312.71,-125.37 331,-112 353.84,-95.3 383.85,-83.08 405.58,-75.62"/>
<polygon fill="midnightblue" stroke="midnightblue" points="282.63,-158.15 279.7,-168.34 288.34,-162.2 282.63,-158.15"/>
</g>
<!-- Node17&#45;&gt;Node12 -->
<g id="edge25" class="edge">
<title>Node17&#45;&gt;Node12</title>
<path fill="none" stroke="midnightblue" d="M256.01,-161.82C244.54,-152.15 230.09,-139.95 220.47,-131.83"/>
<polygon fill="midnightblue" stroke="midnightblue" points="253.82,-164.55 263.72,-168.32 258.33,-159.2 253.82,-164.55"/>
</g>
</g>
</svg>
