<?xml version="1.0" encoding="UTF-8" standalone="no"?>
<!DOCTYPE svg PUBLIC "-//W3C//DTD SVG 1.1//EN"
 "http://www.w3.org/Graphics/SVG/1.1/DTD/svg11.dtd">
<!-- Generated by graphviz version 2.43.0 (0)
 -->
<!-- Title: second&#45;order&#45;panoc.hpp Pages: 1 -->
<svg width="1090pt" height="274pt"
 viewBox="0.00 0.00 1089.50 274.00" xmlns="http://www.w3.org/2000/svg" xmlns:xlink="http://www.w3.org/1999/xlink">
<g id="graph0" class="graph" transform="scale(1 1) rotate(0) translate(4 270)">
<title>second&#45;order&#45;panoc.hpp</title>
<polygon fill="white" stroke="transparent" points="-4,4 -4,-270 1085.5,-270 1085.5,4 -4,4"/>
<!-- Node1 -->
<g id="node1" class="node">
<title>Node1</title>
<g id="a_node1"><a xlink:title=" ">
<polygon fill="#bfbfbf" stroke="black" points="510.5,-246.5 510.5,-265.5 644.5,-265.5 644.5,-246.5 510.5,-246.5"/>
<text text-anchor="middle" x="577.5" y="-253.5" font-family="Helvetica,sans-Serif" font-size="10.00">second&#45;order&#45;panoc.hpp</text>
</a>
</g>
</g>
<!-- Node2 -->
<g id="node2" class="node">
<title>Node2</title>
<g id="a_node2"><a xlink:href="panoc-fwd_8hpp.html" target="_top" xlink:title=" ">
<polygon fill="white" stroke="black" points="0,-179.5 0,-209.5 133,-209.5 133,-179.5 0,-179.5"/>
<text text-anchor="start" x="8" y="-197.5" font-family="Helvetica,sans-Serif" font-size="10.00">alpaqa/inner/decl/panoc</text>
<text text-anchor="middle" x="66.5" y="-186.5" font-family="Helvetica,sans-Serif" font-size="10.00">&#45;fwd.hpp</text>
</a>
</g>
</g>
<!-- Node1&#45;&gt;Node2 -->
<g id="edge1" class="edge">
<title>Node1&#45;&gt;Node2</title>
<path fill="none" stroke="midnightblue" d="M510.42,-249.92C426.71,-243.18 278.97,-229.91 143.27,-210.19"/>
<polygon fill="midnightblue" stroke="midnightblue" points="143.51,-206.68 133.1,-208.69 142.49,-213.61 143.51,-206.68"/>
</g>
<!-- Node4 -->
<g id="node4" class="node">
<title>Node4</title>
<g id="a_node4"><a xlink:href="panoc-stop-crit_8hpp.html" target="_top" xlink:title=" ">
<polygon fill="white" stroke="black" points="151,-179.5 151,-209.5 284,-209.5 284,-179.5 151,-179.5"/>
<text text-anchor="start" x="159" y="-197.5" font-family="Helvetica,sans-Serif" font-size="10.00">alpaqa/inner/decl/panoc</text>
<text text-anchor="middle" x="217.5" y="-186.5" font-family="Helvetica,sans-Serif" font-size="10.00">&#45;stop&#45;crit.hpp</text>
</a>
</g>
</g>
<!-- Node1&#45;&gt;Node4 -->
<g id="edge3" class="edge">
<title>Node1&#45;&gt;Node4</title>
<path fill="none" stroke="midnightblue" d="M519.81,-246.49C464.37,-238.17 377.96,-224.86 294.08,-210.25"/>
<polygon fill="midnightblue" stroke="midnightblue" points="294.59,-206.78 284.13,-208.51 293.38,-213.68 294.59,-206.78"/>
</g>
<!-- Node7 -->
<g id="node7" class="node">
<title>Node7</title>
<g id="a_node7"><a xlink:href="atomic__stop__signal_8hpp.html" target="_top" xlink:title=" ">
<polygon fill="white" stroke="black" points="302,-179.5 302,-209.5 407,-209.5 407,-179.5 302,-179.5"/>
<text text-anchor="start" x="310" y="-197.5" font-family="Helvetica,sans-Serif" font-size="10.00">alpaqa/util/atomic</text>
<text text-anchor="middle" x="354.5" y="-186.5" font-family="Helvetica,sans-Serif" font-size="10.00">_stop_signal.hpp</text>
</a>
</g>
</g>
<!-- Node1&#45;&gt;Node7 -->
<g id="edge6" class="edge">
<title>Node1&#45;&gt;Node7</title>
<path fill="none" stroke="midnightblue" d="M545.55,-246.48C512.1,-237.55 458.72,-223.31 416.88,-212.14"/>
<polygon fill="midnightblue" stroke="midnightblue" points="417.62,-208.72 407.06,-209.52 415.82,-215.48 417.62,-208.72"/>
</g>
<!-- Node8 -->
<g id="node8" class="node">
<title>Node8</title>
<g id="a_node8"><a xlink:title=" ">
<polygon fill="white" stroke="#bfbfbf" points="343.5,-118 343.5,-137 393.5,-137 393.5,-118 343.5,-118"/>
<text text-anchor="middle" x="368.5" y="-125" font-family="Helvetica,sans-Serif" font-size="10.00">atomic</text>
</a>
</g>
</g>
<!-- Node1&#45;&gt;Node8 -->
<g id="edge21" class="edge">
<title>Node1&#45;&gt;Node8</title>
<path fill="none" stroke="midnightblue" d="M543.5,-246.43C518.06,-239.1 483.07,-227.02 455.5,-210 426.44,-192.06 398.7,-163.39 382.65,-145.27"/>
<polygon fill="midnightblue" stroke="midnightblue" points="384.95,-142.58 375.75,-137.32 379.66,-147.17 384.95,-142.58"/>
</g>
<!-- Node9 -->
<g id="node9" class="node">
<title>Node9</title>
<g id="a_node9"><a xlink:href="lipschitz_8hpp.html" target="_top" xlink:title=" ">
<polygon fill="white" stroke="black" points="464,-185 464,-204 597,-204 597,-185 464,-185"/>
<text text-anchor="middle" x="530.5" y="-192" font-family="Helvetica,sans-Serif" font-size="10.00">alpaqa/util/lipschitz.hpp</text>
</a>
</g>
</g>
<!-- Node1&#45;&gt;Node9 -->
<g id="edge8" class="edge">
<title>Node1&#45;&gt;Node9</title>
<path fill="none" stroke="midnightblue" d="M570.77,-246.48C563.72,-237.55 552.47,-223.31 543.65,-212.14"/>
<polygon fill="midnightblue" stroke="midnightblue" points="546.17,-209.69 537.22,-204.01 540.67,-214.03 546.17,-209.69"/>
</g>
<!-- Node12 -->
<g id="node12" class="node">
<title>Node12</title>
<g id="a_node12"><a xlink:href="include_2alpaqa_2util_2problem_8hpp.html" target="_top" xlink:title=" ">
<polygon fill="white" stroke="black" points="654,-185 654,-204 787,-204 787,-185 654,-185"/>
<text text-anchor="middle" x="720.5" y="-192" font-family="Helvetica,sans-Serif" font-size="10.00">alpaqa/util/problem.hpp</text>
</a>
</g>
</g>
<!-- Node1&#45;&gt;Node12 -->
<g id="edge11" class="edge">
<title>Node1&#45;&gt;Node12</title>
<path fill="none" stroke="midnightblue" d="M597.99,-246.48C622.31,-236.36 663.05,-219.4 690.82,-207.85"/>
<polygon fill="midnightblue" stroke="midnightblue" points="692.16,-211.08 700.05,-204.01 689.47,-204.62 692.16,-211.08"/>
</g>
<!-- Node15 -->
<g id="node15" class="node">
<title>Node15</title>
<g id="a_node15"><a xlink:title=" ">
<polygon fill="white" stroke="#bfbfbf" points="552.5,-118 552.5,-137 602.5,-137 602.5,-118 552.5,-118"/>
<text text-anchor="middle" x="577.5" y="-125" font-family="Helvetica,sans-Serif" font-size="10.00">chrono</text>
</a>
</g>
</g>
<!-- Node1&#45;&gt;Node15 -->
<g id="edge22" class="edge">
<title>Node1&#45;&gt;Node15</title>
<path fill="none" stroke="midnightblue" d="M585.17,-246.46C592.28,-237.93 602.35,-224.09 606.5,-210 610.39,-196.78 610.05,-192.31 606.5,-179 603.3,-166.98 596.48,-154.86 590.25,-145.5"/>
<polygon fill="midnightblue" stroke="midnightblue" points="593.01,-143.33 584.39,-137.17 587.29,-147.36 593.01,-143.33"/>
</g>
<!-- Node19 -->
<g id="node19" class="node">
<title>Node19</title>
<g id="a_node19"><a xlink:href="solverstatus_8hpp.html" target="_top" xlink:title=" ">
<polygon fill="white" stroke="black" points="805.5,-185 805.5,-204 957.5,-204 957.5,-185 805.5,-185"/>
<text text-anchor="middle" x="881.5" y="-192" font-family="Helvetica,sans-Serif" font-size="10.00">alpaqa/util/solverstatus.hpp</text>
</a>
</g>
</g>
<!-- Node1&#45;&gt;Node19 -->
<g id="edge19" class="edge">
<title>Node1&#45;&gt;Node19</title>
<path fill="none" stroke="midnightblue" d="M621.06,-246.48C675.69,-235.78 769.31,-217.46 828.17,-205.94"/>
<polygon fill="midnightblue" stroke="midnightblue" points="828.88,-209.36 838.03,-204.01 827.54,-202.5 828.88,-209.36"/>
</g>
<!-- Node21 -->
<g id="node21" class="node">
<title>Node21</title>
<g id="a_node21"><a xlink:title=" ">
<polygon fill="white" stroke="#bfbfbf" points="975.5,-185 975.5,-204 1019.5,-204 1019.5,-185 975.5,-185"/>
<text text-anchor="middle" x="997.5" y="-192" font-family="Helvetica,sans-Serif" font-size="10.00">limits</text>
</a>
</g>
</g>
<!-- Node1&#45;&gt;Node21 -->
<g id="edge23" class="edge">
<title>Node1&#45;&gt;Node21</title>
<path fill="none" stroke="midnightblue" d="M644.84,-253.75C723.43,-250.8 856.62,-241.16 966.5,-210 968.43,-209.45 970.39,-208.8 972.34,-208.07"/>
<polygon fill="midnightblue" stroke="midnightblue" points="973.96,-211.18 981.79,-204.04 971.22,-204.75 973.96,-211.18"/>
</g>
<!-- Node22 -->
<g id="node22" class="node">
<title>Node22</title>
<g id="a_node22"><a xlink:title=" ">
<polygon fill="white" stroke="#bfbfbf" points="1037.5,-185 1037.5,-204 1081.5,-204 1081.5,-185 1037.5,-185"/>
<text text-anchor="middle" x="1059.5" y="-192" font-family="Helvetica,sans-Serif" font-size="10.00">string</text>
</a>
</g>
</g>
<!-- Node1&#45;&gt;Node22 -->
<g id="edge24" class="edge">
<title>Node1&#45;&gt;Node22</title>
<path fill="none" stroke="midnightblue" d="M644.5,-255.31C733.73,-254.14 895.73,-246.53 1028.5,-210 1030.43,-209.47 1032.4,-208.82 1034.35,-208.11"/>
<polygon fill="midnightblue" stroke="midnightblue" points="1035.97,-211.22 1043.8,-204.09 1033.23,-204.78 1035.97,-211.22"/>
</g>
<!-- Node3 -->
<g id="node3" class="node">
<title>Node3</title>
<g id="a_node3"><a xlink:href="lbfgs-fwd_8hpp.html" target="_top" xlink:title=" ">
<polygon fill="white" stroke="black" points="2.5,-112.5 2.5,-142.5 130.5,-142.5 130.5,-112.5 2.5,-112.5"/>
<text text-anchor="start" x="10.5" y="-130.5" font-family="Helvetica,sans-Serif" font-size="10.00">alpaqa/inner/directions</text>
<text text-anchor="middle" x="66.5" y="-119.5" font-family="Helvetica,sans-Serif" font-size="10.00">/decl/lbfgs&#45;fwd.hpp</text>
</a>
</g>
</g>
<!-- Node2&#45;&gt;Node3 -->
<g id="edge2" class="edge">
<title>Node2&#45;&gt;Node3</title>
<path fill="none" stroke="midnightblue" d="M66.5,-179.4C66.5,-171.64 66.5,-161.81 66.5,-152.86"/>
<polygon fill="midnightblue" stroke="midnightblue" points="70,-152.58 66.5,-142.58 63,-152.58 70,-152.58"/>
</g>
<!-- Node5 -->
<g id="node5" class="node">
<title>Node5</title>
<g id="a_node5"><a xlink:title=" ">
<polygon fill="white" stroke="#bfbfbf" points="174,-118 174,-137 231,-137 231,-118 174,-118"/>
<text text-anchor="middle" x="202.5" y="-125" font-family="Helvetica,sans-Serif" font-size="10.00">ostream</text>
</a>
</g>
</g>
<!-- Node4&#45;&gt;Node5 -->
<g id="edge4" class="edge">
<title>Node4&#45;&gt;Node5</title>
<path fill="none" stroke="midnightblue" d="M214.25,-179.4C212.07,-169.96 209.18,-157.45 206.81,-147.19"/>
<polygon fill="midnightblue" stroke="midnightblue" points="210.17,-146.15 204.51,-137.19 203.34,-147.73 210.17,-146.15"/>
</g>
<!-- Node6 -->
<g id="node6" class="node">
<title>Node6</title>
<g id="a_node6"><a xlink:title=" ">
<polygon fill="white" stroke="#bfbfbf" points="249,-118 249,-137 314,-137 314,-118 249,-118"/>
<text text-anchor="middle" x="281.5" y="-125" font-family="Helvetica,sans-Serif" font-size="10.00">stdexcept</text>
</a>
</g>
</g>
<!-- Node4&#45;&gt;Node6 -->
<g id="edge5" class="edge">
<title>Node4&#45;&gt;Node6</title>
<path fill="none" stroke="midnightblue" d="M231.39,-179.4C241.46,-169.16 255.12,-155.3 265.63,-144.62"/>
<polygon fill="midnightblue" stroke="midnightblue" points="268.42,-146.78 272.94,-137.19 263.43,-141.86 268.42,-146.78"/>
</g>
<!-- Node7&#45;&gt;Node8 -->
<g id="edge7" class="edge">
<title>Node7&#45;&gt;Node8</title>
<path fill="none" stroke="midnightblue" d="M357.54,-179.4C359.57,-169.96 362.26,-157.45 364.47,-147.19"/>
<polygon fill="midnightblue" stroke="midnightblue" points="367.94,-147.71 366.63,-137.19 361.1,-146.23 367.94,-147.71"/>
</g>
<!-- Node10 -->
<g id="node10" class="node">
<title>Node10</title>
<g id="a_node10"><a xlink:href="vec_8hpp.html" target="_top" xlink:title=" ">
<polygon fill="white" stroke="black" points="531.5,-56.5 531.5,-75.5 641.5,-75.5 641.5,-56.5 531.5,-56.5"/>
<text text-anchor="middle" x="586.5" y="-63.5" font-family="Helvetica,sans-Serif" font-size="10.00">alpaqa/util/vec.hpp</text>
</a>
</g>
</g>
<!-- Node9&#45;&gt;Node10 -->
<g id="edge9" class="edge">
<title>Node9&#45;&gt;Node10</title>
<path fill="none" stroke="midnightblue" d="M530.23,-184.91C530.1,-169.47 531.4,-136.39 543.5,-112 549.16,-100.59 558.73,-90.14 567.4,-82.19"/>
<polygon fill="midnightblue" stroke="midnightblue" points="569.71,-84.83 574.98,-75.64 565.13,-79.53 569.71,-84.83"/>
</g>
<!-- Node11 -->
<g id="node11" class="node">
<title>Node11</title>
<g id="a_node11"><a xlink:title=" ">
<polygon fill="white" stroke="#bfbfbf" points="552,-0.5 552,-19.5 621,-19.5 621,-0.5 552,-0.5"/>
<text text-anchor="middle" x="586.5" y="-7.5" font-family="Helvetica,sans-Serif" font-size="10.00">Eigen/Core</text>
</a>
</g>
</g>
<!-- Node10&#45;&gt;Node11 -->
<g id="edge10" class="edge">
<title>Node10&#45;&gt;Node11</title>
<path fill="none" stroke="midnightblue" d="M586.5,-56.08C586.5,-49.01 586.5,-38.86 586.5,-29.99"/>
<polygon fill="midnightblue" stroke="midnightblue" points="590,-29.75 586.5,-19.75 583,-29.75 590,-29.75"/>
</g>
<!-- Node13 -->
<g id="node13" class="node">
<title>Node13</title>
<g id="a_node13"><a xlink:href="box_8hpp.html" target="_top" xlink:title=" ">
<polygon fill="white" stroke="black" points="620.5,-118 620.5,-137 676.5,-137 676.5,-118 620.5,-118"/>
<text text-anchor="middle" x="648.5" y="-125" font-family="Helvetica,sans-Serif" font-size="10.00">box.hpp</text>
</a>
</g>
</g>
<!-- Node12&#45;&gt;Node13 -->
<g id="edge12" class="edge">
<title>Node12&#45;&gt;Node13</title>
<path fill="none" stroke="midnightblue" d="M710.79,-184.73C699.24,-174.31 679.75,-156.71 665.64,-143.97"/>
<polygon fill="midnightblue" stroke="midnightblue" points="667.82,-141.23 658.06,-137.13 663.13,-146.43 667.82,-141.23"/>
</g>
<!-- Node14 -->
<g id="node14" class="node">
<title>Node14</title>
<g id="a_node14"><a xlink:title=" ">
<polygon fill="white" stroke="#bfbfbf" points="694.5,-118 694.5,-137 746.5,-137 746.5,-118 694.5,-118"/>
<text text-anchor="middle" x="720.5" y="-125" font-family="Helvetica,sans-Serif" font-size="10.00">cassert</text>
</a>
</g>
</g>
<!-- Node12&#45;&gt;Node14 -->
<g id="edge14" class="edge">
<title>Node12&#45;&gt;Node14</title>
<path fill="none" stroke="midnightblue" d="M720.5,-184.73C720.5,-175.18 720.5,-159.62 720.5,-147.28"/>
<polygon fill="midnightblue" stroke="midnightblue" points="724,-147.13 720.5,-137.13 717,-147.13 724,-147.13"/>
</g>
<!-- Node12&#45;&gt;Node15 -->
<g id="edge15" class="edge">
<title>Node12&#45;&gt;Node15</title>
<path fill="none" stroke="midnightblue" d="M701.51,-184.87C677.04,-173.75 634.3,-154.32 605.94,-141.43"/>
<polygon fill="midnightblue" stroke="midnightblue" points="607.12,-138.12 596.57,-137.17 604.22,-144.49 607.12,-138.12"/>
</g>
<!-- Node16 -->
<g id="node16" class="node">
<title>Node16</title>
<g id="a_node16"><a xlink:title=" ">
<polygon fill="white" stroke="#bfbfbf" points="765,-118 765,-137 830,-137 830,-118 765,-118"/>
<text text-anchor="middle" x="797.5" y="-125" font-family="Helvetica,sans-Serif" font-size="10.00">functional</text>
</a>
</g>
</g>
<!-- Node12&#45;&gt;Node16 -->
<g id="edge16" class="edge">
<title>Node12&#45;&gt;Node16</title>
<path fill="none" stroke="midnightblue" d="M730.88,-184.73C743.35,-174.21 764.47,-156.38 779.59,-143.62"/>
<polygon fill="midnightblue" stroke="midnightblue" points="781.9,-146.25 787.28,-137.13 777.38,-140.9 781.9,-146.25"/>
</g>
<!-- Node17 -->
<g id="node17" class="node">
<title>Node17</title>
<g id="a_node17"><a xlink:title=" ">
<polygon fill="white" stroke="#bfbfbf" points="848.5,-118 848.5,-137 906.5,-137 906.5,-118 848.5,-118"/>
<text text-anchor="middle" x="877.5" y="-125" font-family="Helvetica,sans-Serif" font-size="10.00">memory</text>
</a>
</g>
</g>
<!-- Node12&#45;&gt;Node17 -->
<g id="edge17" class="edge">
<title>Node12&#45;&gt;Node17</title>
<path fill="none" stroke="midnightblue" d="M741.35,-184.87C768.44,-173.65 815.96,-153.98 847.08,-141.09"/>
<polygon fill="midnightblue" stroke="midnightblue" points="848.66,-144.23 856.57,-137.17 845.99,-137.76 848.66,-144.23"/>
</g>
<!-- Node18 -->
<g id="node18" class="node">
<title>Node18</title>
<g id="a_node18"><a xlink:title=" ">
<polygon fill="white" stroke="#bfbfbf" points="925,-118 925,-137 994,-137 994,-118 925,-118"/>
<text text-anchor="middle" x="959.5" y="-125" font-family="Helvetica,sans-Serif" font-size="10.00">type_traits</text>
</a>
</g>
</g>
<!-- Node12&#45;&gt;Node18 -->
<g id="edge18" class="edge">
<title>Node12&#45;&gt;Node18</title>
<path fill="none" stroke="midnightblue" d="M756.27,-184.97C795.53,-175.45 860.31,-159.22 915.5,-143 918.49,-142.12 921.58,-141.18 924.68,-140.21"/>
<polygon fill="midnightblue" stroke="midnightblue" points="926.01,-143.45 934.46,-137.06 923.87,-136.79 926.01,-143.45"/>
</g>
<!-- Node13&#45;&gt;Node10 -->
<g id="edge13" class="edge">
<title>Node13&#45;&gt;Node10</title>
<path fill="none" stroke="midnightblue" d="M639.62,-117.98C630.04,-108.78 614.59,-93.96 602.81,-82.66"/>
<polygon fill="midnightblue" stroke="midnightblue" points="605.01,-79.91 595.37,-75.51 600.16,-84.96 605.01,-79.91"/>
</g>
<!-- Node20 -->
<g id="node20" class="node">
<title>Node20</title>
<g id="a_node20"><a xlink:title=" ">
<polygon fill="white" stroke="#bfbfbf" points="1012.5,-118 1012.5,-137 1060.5,-137 1060.5,-118 1012.5,-118"/>
<text text-anchor="middle" x="1036.5" y="-125" font-family="Helvetica,sans-Serif" font-size="10.00">iosfwd</text>
</a>
</g>
</g>
<!-- Node19&#45;&gt;Node20 -->
<g id="edge20" class="edge">
<title>Node19&#45;&gt;Node20</title>
<path fill="none" stroke="midnightblue" d="M902.72,-184.88C927.1,-174.94 968.29,-158.02 1003.5,-143 1004.9,-142.4 1006.34,-141.79 1007.79,-141.16"/>
<polygon fill="midnightblue" stroke="midnightblue" points="1009.56,-144.2 1017.34,-137 1006.77,-137.79 1009.56,-144.2"/>
</g>
</g>
</svg>
