<?xml version="1.0" encoding="UTF-8" standalone="no"?>
<!DOCTYPE svg PUBLIC "-//W3C//DTD SVG 1.1//EN"
 "http://www.w3.org/Graphics/SVG/1.1/DTD/svg11.dtd">
<!-- Generated by graphviz version 2.43.0 (0)
 -->
<!-- Title: detail Pages: 1 -->
<svg width="105pt" height="223pt"
 viewBox="0.00 0.00 105.00 223.00" xmlns="http://www.w3.org/2000/svg" xmlns:xlink="http://www.w3.org/1999/xlink">
<g id="graph0" class="graph" transform="scale(1 1) rotate(0) translate(4 219)">
<title>detail</title>
<polygon fill="white" stroke="transparent" points="-4,4 -4,-219 101,-219 101,4 -4,4"/>
<g id="clust1" class="cluster">
<title>clusterdir_7ca33c757e81da6d5a059c18204aa256</title>
<g id="a_clust1"><a xlink:href="dir_7ca33c757e81da6d5a059c18204aa256.html" target="_top" xlink:title="inner">
<polygon fill="#ddddee" stroke="black" points="8,-64 8,-207 78,-207 78,-64 8,-64"/>
<text text-anchor="middle" x="43" y="-195" font-family="Helvetica,sans-Serif" font-size="10.00">inner</text>
</a>
</g>
</g>
<!-- dir_ef70bfef315a9488cd8817fc0d4ed343 -->
<g id="node1" class="node">
<title>dir_ef70bfef315a9488cd8817fc0d4ed343</title>
<g id="a_node1"><a xlink:href="dir_ef70bfef315a9488cd8817fc0d4ed343.html" target="_top" xlink:title="decl">
<polygon fill="none" stroke="black" points="70,-108 16,-108 16,-72 70,-72 70,-108"/>
<text text-anchor="middle" x="43" y="-87.5" font-family="Helvetica,sans-Serif" font-size="10.00">decl</text>
</a>
</g>
</g>
<!-- dir_f970061d1d9886b12ba388abbac18d91 -->
<g id="node3" class="node">
<title>dir_f970061d1d9886b12ba388abbac18d91</title>
<g id="a_node3"><a xlink:href="dir_f970061d1d9886b12ba388abbac18d91.html" target="_top" xlink:title="util">
<polygon fill="none" stroke="black" points="97,-36 43,-36 43,0 97,0 97,-36"/>
<text text-anchor="middle" x="70" y="-15.5" font-family="Helvetica,sans-Serif" font-size="10.00">util</text>
</a>
</g>
</g>
<!-- dir_ef70bfef315a9488cd8817fc0d4ed343&#45;&gt;dir_f970061d1d9886b12ba388abbac18d91 -->
<g id="edge3" class="edge">
<title>dir_ef70bfef315a9488cd8817fc0d4ed343&#45;&gt;dir_f970061d1d9886b12ba388abbac18d91</title>
<path fill="none" stroke="black" d="M49.67,-71.7C52.71,-63.81 56.38,-54.3 59.76,-45.55"/>
<polygon fill="black" stroke="black" points="63.07,-46.69 63.4,-36.1 56.54,-44.17 63.07,-46.69"/>
<g id="a_edge3&#45;headlabel"><a xlink:href="dir_000022_000031.html" target="_top" xlink:title="12">
<text text-anchor="middle" x="64.42" y="-48.57" font-family="Helvetica,sans-Serif" font-size="10.00">12</text>
</a>
</g>
</g>
<!-- dir_8f645d168ecd08ffd48cbb01565d7bb6 -->
<g id="node2" class="node">
<title>dir_8f645d168ecd08ffd48cbb01565d7bb6</title>
<g id="a_node2"><a xlink:href="dir_8f645d168ecd08ffd48cbb01565d7bb6.html" target="_top" xlink:title="detail">
<polygon fill="#eeeeff" stroke="black" points="70,-180 16,-180 16,-144 70,-144 70,-180"/>
<text text-anchor="middle" x="43" y="-159.5" font-family="Helvetica,sans-Serif" font-size="10.00">detail</text>
</a>
</g>
</g>
<!-- dir_8f645d168ecd08ffd48cbb01565d7bb6&#45;&gt;dir_ef70bfef315a9488cd8817fc0d4ed343 -->
<g id="edge1" class="edge">
<title>dir_8f645d168ecd08ffd48cbb01565d7bb6&#45;&gt;dir_ef70bfef315a9488cd8817fc0d4ed343</title>
<path fill="none" stroke="black" d="M43,-143.7C43,-135.98 43,-126.71 43,-118.11"/>
<polygon fill="black" stroke="black" points="46.5,-118.1 43,-108.1 39.5,-118.1 46.5,-118.1"/>
<g id="a_edge1&#45;headlabel"><a xlink:href="dir_000023_000022.html" target="_top" xlink:title="1">
<text text-anchor="middle" x="49.34" y="-119.2" font-family="Helvetica,sans-Serif" font-size="10.00">1</text>
</a>
</g>
</g>
<!-- dir_8f645d168ecd08ffd48cbb01565d7bb6&#45;&gt;dir_f970061d1d9886b12ba388abbac18d91 -->
<g id="edge2" class="edge">
<title>dir_8f645d168ecd08ffd48cbb01565d7bb6&#45;&gt;dir_f970061d1d9886b12ba388abbac18d91</title>
<path fill="none" stroke="black" d="M58.61,-143.77C66.37,-134.03 74.95,-121.18 79,-108 85.22,-87.77 82.27,-63.87 78.15,-45.92"/>
<polygon fill="black" stroke="black" points="81.51,-44.95 75.65,-36.12 74.73,-46.68 81.51,-44.95"/>
<g id="a_edge2&#45;headlabel"><a xlink:href="dir_000023_000031.html" target="_top" xlink:title="5">
<text text-anchor="middle" x="85.15" y="-45.23" font-family="Helvetica,sans-Serif" font-size="10.00">5</text>
</a>
</g>
</g>
</g>
</svg>
