<?xml version="1.0" encoding="UTF-8" standalone="no"?>
<!DOCTYPE svg PUBLIC "-//W3C//DTD SVG 1.1//EN"
 "http://www.w3.org/Graphics/SVG/1.1/DTD/svg11.dtd">
<!-- Generated by graphviz version 2.43.0 (0)
 -->
<!-- Title: calc_ψ_ŷ Pages: 1 -->
<svg width="873pt" height="484pt"
 viewBox="0.00 0.00 873.00 484.20" xmlns="http://www.w3.org/2000/svg" xmlns:xlink="http://www.w3.org/1999/xlink">
<g id="graph0" class="graph" transform="scale(1 1) rotate(0) translate(4 480.2)">
<title>calc_ψ_ŷ</title>
<polygon fill="white" stroke="transparent" points="-4,4 -4,-480.2 869,-480.2 869,4 -4,4"/>
<!-- Node1 -->
<g id="node1" class="node">
<title>Node1</title>
<g id="a_node1"><a xlink:title="Calculate both ψ(x) and the vector ŷ that can later be used to compute ∇ψ.">
<polygon fill="#bfbfbf" stroke="black" points="806,-179.2 806,-198.2 865,-198.2 865,-179.2 806,-179.2"/>
<text text-anchor="middle" x="835.5" y="-186.2" font-family="Helvetica,sans-Serif" font-size="10.00">calc_ψ_ŷ</text>
</a>
</g>
</g>
<!-- Node2 -->
<g id="node2" class="node">
<title>Node2</title>
<g id="a_node2"><a xlink:href="namespacealpaqa_1_1detail.html#a5895b05665103ffbaf9ad3385c957dc0" target="_top" xlink:title="Calculate both ψ(x) and its gradient ∇ψ(x).">
<polygon fill="white" stroke="black" points="683,-261.2 683,-280.2 770,-280.2 770,-261.2 683,-261.2"/>
<text text-anchor="middle" x="726.5" y="-268.2" font-family="Helvetica,sans-Serif" font-size="10.00">calc_ψ_grad_ψ</text>
</a>
</g>
</g>
<!-- Node1&#45;&gt;Node2 -->
<g id="edge1" class="edge">
<title>Node1&#45;&gt;Node2</title>
<path fill="none" stroke="midnightblue" d="M813.81,-204.56C792,-221.27 758.35,-247.06 740.18,-260.99"/>
<polygon fill="midnightblue" stroke="midnightblue" points="816,-207.29 821.81,-198.43 811.74,-201.74 816,-207.29"/>
</g>
<!-- Node4 -->
<g id="node4" class="node">
<title>Node4</title>
<g id="a_node4"><a xlink:href="classalpaqa_1_1SecondOrderPANOCSolver.html#acb04b3f19dafad9b4e7e7c1c19018d19" target="_top" xlink:title=" ">
<polygon fill="white" stroke="black" points="280,-445.7 280,-475.7 462,-475.7 462,-445.7 280,-445.7"/>
<text text-anchor="start" x="288" y="-463.7" font-family="Helvetica,sans-Serif" font-size="10.00">alpaqa::SecondOrderPANOCSolver</text>
<text text-anchor="middle" x="371" y="-452.7" font-family="Helvetica,sans-Serif" font-size="10.00">::operator()</text>
</a>
</g>
</g>
<!-- Node1&#45;&gt;Node4 -->
<g id="edge25" class="edge">
<title>Node1&#45;&gt;Node4</title>
<path fill="none" stroke="midnightblue" d="M832.72,-208.63C828.38,-246.62 814.12,-330.29 770,-382.7 696.09,-470.51 554.95,-478.12 462.15,-472.07"/>
<polygon fill="midnightblue" stroke="midnightblue" points="836.23,-208.69 833.77,-198.39 829.27,-207.98 836.23,-208.69"/>
</g>
<!-- Node5 -->
<g id="node5" class="node">
<title>Node5</title>
<g id="a_node5"><a xlink:href="classalpaqa_1_1StructuredPANOCLBFGSSolver.html#ade95d8a7a1892d4087d6fffc958cde6e" target="_top" xlink:title=" ">
<polygon fill="white" stroke="black" points="270,-396.7 270,-426.7 472,-426.7 472,-396.7 270,-396.7"/>
<text text-anchor="start" x="278" y="-414.7" font-family="Helvetica,sans-Serif" font-size="10.00">alpaqa::StructuredPANOCLBFGSSolver</text>
<text text-anchor="middle" x="371" y="-403.7" font-family="Helvetica,sans-Serif" font-size="10.00">::operator()</text>
</a>
</g>
</g>
<!-- Node1&#45;&gt;Node5 -->
<g id="edge26" class="edge">
<title>Node1&#45;&gt;Node5</title>
<path fill="none" stroke="midnightblue" d="M827.96,-208.08C818.14,-235.39 797.76,-285.97 770,-322.7 725.96,-380.98 715.29,-405.8 647,-431.7 614.61,-443.99 530.93,-435.99 464.31,-426.71"/>
<polygon fill="midnightblue" stroke="midnightblue" points="831.3,-209.12 831.3,-198.52 824.69,-206.81 831.3,-209.12"/>
</g>
<!-- Node6 -->
<g id="node6" class="node">
<title>Node6</title>
<g id="a_node6"><a xlink:href="classalpaqa_1_1GAAPGASolver.html#a570ec001ea8eee359be8a1b90b782cfb" target="_top" xlink:title=" ">
<polygon fill="white" stroke="black" points="307,-259.7 307,-289.7 435,-289.7 435,-259.7 307,-259.7"/>
<text text-anchor="start" x="315" y="-277.7" font-family="Helvetica,sans-Serif" font-size="10.00">alpaqa::GAAPGASolver</text>
<text text-anchor="middle" x="371" y="-266.7" font-family="Helvetica,sans-Serif" font-size="10.00">::operator()</text>
</a>
</g>
</g>
<!-- Node1&#45;&gt;Node6 -->
<g id="edge29" class="edge">
<title>Node1&#45;&gt;Node6</title>
<path fill="none" stroke="midnightblue" d="M829.26,-169.33C821.24,-143.95 803.22,-100.46 770,-81.7 719.31,-53.07 553.26,-45.07 508,-81.7 448.31,-130.02 525.6,-195.71 472,-250.7 462.16,-260.8 448.86,-266.96 435.19,-270.64"/>
<polygon fill="midnightblue" stroke="midnightblue" points="825.92,-170.38 832.1,-178.98 832.63,-168.4 825.92,-170.38"/>
</g>
<!-- Node7 -->
<g id="node7" class="node">
<title>Node7</title>
<g id="a_node7"><a xlink:href="classalpaqa_1_1PGASolver.html#af516b794e244432023aea7ba3cd0d1d8" target="_top" xlink:title=" ">
<polygon fill="white" stroke="black" points="314.5,-308.7 314.5,-338.7 427.5,-338.7 427.5,-308.7 314.5,-308.7"/>
<text text-anchor="start" x="322.5" y="-326.7" font-family="Helvetica,sans-Serif" font-size="10.00">alpaqa::PGASolver::</text>
<text text-anchor="middle" x="371" y="-315.7" font-family="Helvetica,sans-Serif" font-size="10.00">operator()</text>
</a>
</g>
</g>
<!-- Node1&#45;&gt;Node7 -->
<g id="edge30" class="edge">
<title>Node1&#45;&gt;Node7</title>
<path fill="none" stroke="midnightblue" d="M813.34,-173.16C756.91,-133.73 600.81,-38.21 508,-114.7 443.36,-167.98 529.93,-239.2 472,-299.7 460.39,-311.83 443.83,-318.28 427.51,-321.6"/>
<polygon fill="midnightblue" stroke="midnightblue" points="811.34,-176.03 821.52,-178.97 815.39,-170.32 811.34,-176.03"/>
</g>
<!-- Node11 -->
<g id="node11" class="node">
<title>Node11</title>
<g id="a_node11"><a xlink:href="classalpaqa_1_1PANOCSolver.html#aaa9758a40bd362331202fb232b4bb7ae" target="_top" xlink:title=" ">
<polygon fill="white" stroke="black" points="311,-210.7 311,-240.7 431,-240.7 431,-210.7 311,-210.7"/>
<text text-anchor="start" x="319" y="-228.7" font-family="Helvetica,sans-Serif" font-size="10.00">alpaqa::PANOCSolver</text>
<text text-anchor="middle" x="371" y="-217.7" font-family="Helvetica,sans-Serif" font-size="10.00">::operator()</text>
</a>
</g>
</g>
<!-- Node1&#45;&gt;Node11 -->
<g id="edge24" class="edge">
<title>Node1&#45;&gt;Node11</title>
<path fill="none" stroke="midnightblue" d="M832.38,-168.88C827.7,-136.17 813.2,-71.77 770,-43.7 672.35,19.73 612.11,8.46 508,-43.7 436.06,-79.75 392.41,-173.92 377.65,-210.69"/>
<polygon fill="midnightblue" stroke="midnightblue" points="828.94,-169.52 833.66,-179.01 835.88,-168.65 828.94,-169.52"/>
</g>
<!-- Node12 -->
<g id="node12" class="node">
<title>Node12</title>
<g id="a_node12"><a xlink:href="classalpaqa_1_1LBFGSSolver.html#a8540540028b02dfe8b7e3ec0c49c07dd" target="_top" xlink:title=" ">
<polygon fill="white" stroke="black" points="518.5,-173.7 518.5,-203.7 636.5,-203.7 636.5,-173.7 518.5,-173.7"/>
<text text-anchor="start" x="526.5" y="-191.7" font-family="Helvetica,sans-Serif" font-size="10.00">alpaqa::LBFGSSolver</text>
<text text-anchor="middle" x="577.5" y="-180.7" font-family="Helvetica,sans-Serif" font-size="10.00">::operator()</text>
</a>
</g>
</g>
<!-- Node1&#45;&gt;Node12 -->
<g id="edge27" class="edge">
<title>Node1&#45;&gt;Node12</title>
<path fill="none" stroke="midnightblue" d="M795.46,-188.7C753.19,-188.7 685.3,-188.7 636.72,-188.7"/>
<polygon fill="midnightblue" stroke="midnightblue" points="795.63,-192.2 805.63,-188.7 795.63,-185.2 795.63,-192.2"/>
</g>
<!-- Node13 -->
<g id="node13" class="node">
<title>Node13</title>
<g id="a_node13"><a xlink:href="classalpaqa_1_1LBFGSBSolver.html#a8540540028b02dfe8b7e3ec0c49c07dd" target="_top" xlink:title=" ">
<polygon fill="white" stroke="black" points="515,-124.7 515,-154.7 640,-154.7 640,-124.7 515,-124.7"/>
<text text-anchor="start" x="523" y="-142.7" font-family="Helvetica,sans-Serif" font-size="10.00">alpaqa::LBFGSBSolver</text>
<text text-anchor="middle" x="577.5" y="-131.7" font-family="Helvetica,sans-Serif" font-size="10.00">::operator()</text>
</a>
</g>
</g>
<!-- Node1&#45;&gt;Node13 -->
<g id="edge28" class="edge">
<title>Node1&#45;&gt;Node13</title>
<path fill="none" stroke="midnightblue" d="M795.69,-181.27C754.38,-173.37 688.44,-160.75 640.04,-151.48"/>
<polygon fill="midnightblue" stroke="midnightblue" points="795.15,-184.74 805.63,-183.18 796.47,-177.86 795.15,-184.74"/>
</g>
<!-- Node14 -->
<g id="node14" class="node">
<title>Node14</title>
<g id="a_node14"><a xlink:href="namespacealpaqa_1_1detail.html#a3e432963691339ba0588d90186008735" target="_top" xlink:title="Increase the estimate of the Lipschitz constant of the objective gradient and decrease the step size ...">
<polygon fill="white" stroke="black" points="530,-337.2 530,-356.2 625,-356.2 625,-337.2 530,-337.2"/>
<text text-anchor="middle" x="577.5" y="-344.2" font-family="Helvetica,sans-Serif" font-size="10.00">descent_lemma</text>
</a>
</g>
</g>
<!-- Node1&#45;&gt;Node14 -->
<g id="edge17" class="edge">
<title>Node1&#45;&gt;Node14</title>
<path fill="none" stroke="midnightblue" d="M827.26,-207.7C817.61,-230.49 798.38,-268.31 770,-289.7 727.34,-321.86 666.71,-335.95 625.16,-342.08"/>
<polygon fill="midnightblue" stroke="midnightblue" points="830.52,-208.98 831.02,-198.39 824.03,-206.35 830.52,-208.98"/>
</g>
<!-- Node3 -->
<g id="node3" class="node">
<title>Node3</title>
<g id="a_node3"><a xlink:href="namespacealpaqa_1_1detail.html#a8a1a5d46f1a3fffc7501abc3e2561367" target="_top" xlink:title="Estimate the Lipschitz constant of the gradient &#160;using finite differences.">
<polygon fill="white" stroke="black" points="508,-375.2 508,-394.2 647,-394.2 647,-375.2 508,-375.2"/>
<text text-anchor="middle" x="577.5" y="-382.2" font-family="Helvetica,sans-Serif" font-size="10.00">initial_lipschitz_estimate</text>
</a>
</g>
</g>
<!-- Node2&#45;&gt;Node3 -->
<g id="edge2" class="edge">
<title>Node2&#45;&gt;Node3</title>
<path fill="none" stroke="midnightblue" d="M715,-289.31C701.86,-310.89 677.35,-346.02 647,-365.7 640.99,-369.6 634.19,-372.7 627.27,-375.18"/>
<polygon fill="midnightblue" stroke="midnightblue" points="718.16,-290.84 720.22,-280.45 712.12,-287.29 718.16,-290.84"/>
</g>
<!-- Node2&#45;&gt;Node4 -->
<g id="edge11" class="edge">
<title>Node2&#45;&gt;Node4</title>
<path fill="none" stroke="midnightblue" d="M722.23,-290.31C715.27,-325.24 695.49,-397.73 647,-431.7 593.72,-469.03 519.8,-474.97 462.02,-472.29"/>
<polygon fill="midnightblue" stroke="midnightblue" points="725.69,-290.86 724.06,-280.39 718.8,-289.59 725.69,-290.86"/>
</g>
<!-- Node2&#45;&gt;Node5 -->
<g id="edge12" class="edge">
<title>Node2&#45;&gt;Node5</title>
<path fill="none" stroke="midnightblue" d="M720.5,-290.22C711.54,-320.66 689.57,-378.57 647,-403.7 583.66,-441.1 497.01,-436.4 438.02,-426.72"/>
<polygon fill="midnightblue" stroke="midnightblue" points="723.93,-290.93 723.23,-280.35 717.19,-289.06 723.93,-290.93"/>
</g>
<!-- Node2&#45;&gt;Node6 -->
<g id="edge15" class="edge">
<title>Node2&#45;&gt;Node6</title>
<path fill="none" stroke="midnightblue" d="M672.67,-271.3C609.19,-272.02 502.79,-273.22 435.07,-273.99"/>
<polygon fill="midnightblue" stroke="midnightblue" points="672.9,-274.8 682.86,-271.19 672.82,-267.8 672.9,-274.8"/>
</g>
<!-- Node2&#45;&gt;Node7 -->
<g id="edge16" class="edge">
<title>Node2&#45;&gt;Node7</title>
<path fill="none" stroke="midnightblue" d="M672.82,-281.16C664.21,-282.75 655.36,-284.33 647,-285.7 571.26,-298.16 483.34,-309.83 427.69,-316.86"/>
<polygon fill="midnightblue" stroke="midnightblue" points="673.61,-284.57 682.79,-279.28 672.32,-277.69 673.61,-284.57"/>
</g>
<!-- Node2&#45;&gt;Node11 -->
<g id="edge10" class="edge">
<title>Node2&#45;&gt;Node11</title>
<path fill="none" stroke="midnightblue" d="M672.88,-264.01C608.23,-255.78 498.84,-241.85 431.28,-233.25"/>
<polygon fill="midnightblue" stroke="midnightblue" points="672.5,-267.48 682.86,-265.28 673.38,-260.54 672.5,-267.48"/>
</g>
<!-- Node2&#45;&gt;Node12 -->
<g id="edge13" class="edge">
<title>Node2&#45;&gt;Node12</title>
<path fill="none" stroke="midnightblue" d="M704.28,-255.2C688.82,-244.27 667.16,-229.69 647,-218.7 637.2,-213.36 626.25,-208.22 616.03,-203.75"/>
<polygon fill="midnightblue" stroke="midnightblue" points="702.43,-258.18 712.6,-261.15 706.5,-252.49 702.43,-258.18"/>
</g>
<!-- Node2&#45;&gt;Node13 -->
<g id="edge14" class="edge">
<title>Node2&#45;&gt;Node13</title>
<path fill="none" stroke="midnightblue" d="M716.16,-252.08C703.5,-228.6 678.78,-188.45 647,-164.7 641.93,-160.92 636.23,-157.65 630.33,-154.86"/>
<polygon fill="midnightblue" stroke="midnightblue" points="713.1,-253.78 720.83,-261.02 719.3,-250.54 713.1,-253.78"/>
</g>
<!-- Node3&#45;&gt;Node4 -->
<g id="edge3" class="edge">
<title>Node3&#45;&gt;Node4</title>
<path fill="none" stroke="midnightblue" d="M551.2,-399.32C530.47,-410.8 500.08,-426.5 472,-436.7 462.85,-440.03 453.07,-443.02 443.34,-445.68"/>
<polygon fill="midnightblue" stroke="midnightblue" points="553,-402.33 560.01,-394.38 549.57,-396.23 553,-402.33"/>
</g>
<!-- Node3&#45;&gt;Node5 -->
<g id="edge4" class="edge">
<title>Node3&#45;&gt;Node5</title>
<path fill="none" stroke="midnightblue" d="M497.73,-395.1C489.34,-396.21 480.73,-397.35 472.14,-398.48"/>
<polygon fill="midnightblue" stroke="midnightblue" points="498.38,-398.55 507.84,-393.77 497.46,-391.61 498.38,-398.55"/>
</g>
<!-- Node3&#45;&gt;Node6 -->
<g id="edge5" class="edge">
<title>Node3&#45;&gt;Node6</title>
<path fill="none" stroke="midnightblue" d="M515.38,-370.69C512.79,-369.2 510.31,-367.54 508,-365.7 481.83,-344.93 498.43,-320.14 472,-299.7 461.31,-291.44 448.23,-285.87 435.1,-282.14"/>
<polygon fill="midnightblue" stroke="midnightblue" points="514.04,-373.93 524.56,-375.19 517.12,-367.65 514.04,-373.93"/>
</g>
<!-- Node3&#45;&gt;Node7 -->
<g id="edge6" class="edge">
<title>Node3&#45;&gt;Node7</title>
<path fill="none" stroke="midnightblue" d="M527.93,-372.34C521.18,-370.3 514.37,-368.07 508,-365.7 491.41,-359.54 488.66,-354.66 472,-348.7 457.84,-343.65 442.21,-339.22 427.59,-335.55"/>
<polygon fill="midnightblue" stroke="midnightblue" points="527.15,-375.76 537.73,-375.19 529.1,-369.04 527.15,-375.76"/>
</g>
<!-- Node8 -->
<g id="node8" class="node">
<title>Node8</title>
<g id="a_node8"><a xlink:href="namespacealpaqa.html#a623fe9757577812e38c5e4f85f484954" target="_top" xlink:title=" ">
<polygon fill="white" stroke="black" points="315,-358.2 315,-377.2 427,-377.2 427,-358.2 315,-358.2"/>
<text text-anchor="middle" x="371" y="-365.2" font-family="Helvetica,sans-Serif" font-size="10.00">alpaqa::panoc_impl</text>
</a>
</g>
</g>
<!-- Node3&#45;&gt;Node8 -->
<g id="edge7" class="edge">
<title>Node3&#45;&gt;Node8</title>
<path fill="none" stroke="midnightblue" d="M497.86,-378.17C474.3,-376.21 448.97,-374.1 427.25,-372.3"/>
<polygon fill="midnightblue" stroke="midnightblue" points="497.58,-381.65 507.84,-379 498.16,-374.68 497.58,-381.65"/>
</g>
<!-- Node9 -->
<g id="node9" class="node">
<title>Node9</title>
<g id="a_node9"><a xlink:href="namespacealpaqa.html#a376c6e914033784e80698c416693b9c7" target="_top" xlink:title=" ">
<polygon fill="white" stroke="black" points="149,-358.2 149,-377.2 234,-377.2 234,-358.2 149,-358.2"/>
<text text-anchor="middle" x="191.5" y="-365.2" font-family="Helvetica,sans-Serif" font-size="10.00">alpaqa::panoc</text>
</a>
</g>
</g>
<!-- Node8&#45;&gt;Node9 -->
<g id="edge8" class="edge">
<title>Node8&#45;&gt;Node9</title>
<path fill="none" stroke="midnightblue" d="M304.53,-367.7C280.98,-367.7 255.08,-367.7 234.12,-367.7"/>
<polygon fill="midnightblue" stroke="midnightblue" points="304.81,-371.2 314.81,-367.7 304.81,-364.2 304.81,-371.2"/>
</g>
<!-- Node10 -->
<g id="node10" class="node">
<title>Node10</title>
<g id="a_node10"><a xlink:href="alpaqa_8cpp.html#a52c00cccef0976f125d4a27f9906c36b" target="_top" xlink:title=" ">
<polygon fill="white" stroke="black" points="0,-358.2 0,-377.2 113,-377.2 113,-358.2 0,-358.2"/>
<text text-anchor="middle" x="56.5" y="-365.2" font-family="Helvetica,sans-Serif" font-size="10.00">PYBIND11_MODULE</text>
</a>
</g>
</g>
<!-- Node9&#45;&gt;Node10 -->
<g id="edge9" class="edge">
<title>Node9&#45;&gt;Node10</title>
<path fill="none" stroke="midnightblue" d="M138.77,-367.7C130.39,-367.7 121.68,-367.7 113.21,-367.7"/>
<polygon fill="midnightblue" stroke="midnightblue" points="138.78,-371.2 148.78,-367.7 138.78,-364.2 138.78,-371.2"/>
</g>
<!-- Node14&#45;&gt;Node4 -->
<g id="edge19" class="edge">
<title>Node14&#45;&gt;Node4</title>
<path fill="none" stroke="midnightblue" d="M520.38,-357.91C515.94,-360.07 511.74,-362.64 508,-365.7 480.62,-388.12 499.76,-414.77 472,-436.7 467.66,-440.13 462.9,-443.09 457.89,-445.62"/>
<polygon fill="midnightblue" stroke="midnightblue" points="521.83,-361.1 529.73,-354.04 519.15,-354.63 521.83,-361.1"/>
</g>
<!-- Node14&#45;&gt;Node5 -->
<g id="edge20" class="edge">
<title>Node14&#45;&gt;Node5</title>
<path fill="none" stroke="midnightblue" d="M525.38,-359.31C519.44,-361.23 513.54,-363.37 508,-365.7 490.93,-372.91 489.16,-379.72 472,-386.7 462.72,-390.48 452.71,-393.8 442.74,-396.69"/>
<polygon fill="midnightblue" stroke="midnightblue" points="526.8,-362.53 535.34,-356.27 524.76,-355.84 526.8,-362.53"/>
</g>
<!-- Node14&#45;&gt;Node6 -->
<g id="edge21" class="edge">
<title>Node14&#45;&gt;Node6</title>
<path fill="none" stroke="midnightblue" d="M548.86,-332.64C528.1,-322.49 498.77,-308.99 472,-299.7 460.25,-295.63 447.51,-291.92 435.18,-288.69"/>
<polygon fill="midnightblue" stroke="midnightblue" points="547.52,-335.88 558.03,-337.19 550.62,-329.61 547.52,-335.88"/>
</g>
<!-- Node14&#45;&gt;Node7 -->
<g id="edge22" class="edge">
<title>Node14&#45;&gt;Node7</title>
<path fill="none" stroke="midnightblue" d="M519.54,-340.3C490.8,-337.07 456.08,-333.16 427.54,-329.95"/>
<polygon fill="midnightblue" stroke="midnightblue" points="519.51,-343.82 529.84,-341.46 520.29,-336.86 519.51,-343.82"/>
</g>
<!-- Node14&#45;&gt;Node8 -->
<g id="edge23" class="edge">
<title>Node14&#45;&gt;Node8</title>
<path fill="none" stroke="midnightblue" d="M519.88,-352.52C490.95,-355.49 455.89,-359.09 427.17,-362.04"/>
<polygon fill="midnightblue" stroke="midnightblue" points="520.25,-356 529.84,-351.5 519.53,-349.03 520.25,-356"/>
</g>
<!-- Node14&#45;&gt;Node11 -->
<g id="edge18" class="edge">
<title>Node14&#45;&gt;Node11</title>
<path fill="none" stroke="midnightblue" d="M562.51,-329.36C544.07,-307.66 509.53,-270.92 472,-250.7 459.47,-243.96 445.08,-238.99 431.2,-235.35"/>
<polygon fill="midnightblue" stroke="midnightblue" points="559.89,-331.68 568.98,-337.13 565.27,-327.2 559.89,-331.68"/>
</g>
</g>
</svg>
