<?xml version="1.0" encoding="UTF-8" standalone="no"?>
<!DOCTYPE svg PUBLIC "-//W3C//DTD SVG 1.1//EN"
 "http://www.w3.org/Graphics/SVG/1.1/DTD/svg11.dtd">
<!-- Generated by graphviz version 2.43.0 (0)
 -->
<!-- Title: panoc.cpp Pages: 1 -->
<svg width="1649pt" height="419pt"
 viewBox="0.00 0.00 1649.48 419.00" xmlns="http://www.w3.org/2000/svg" xmlns:xlink="http://www.w3.org/1999/xlink">
<g id="graph0" class="graph" transform="scale(1 1) rotate(0) translate(4 415)">
<title>panoc.cpp</title>
<polygon fill="white" stroke="transparent" points="-4,4 -4,-415 1645.48,-415 1645.48,4 -4,4"/>
<!-- Node1 -->
<g id="node1" class="node">
<title>Node1</title>
<g id="a_node1"><a xlink:title=" ">
<polygon fill="#bfbfbf" stroke="black" points="827.45,-391.5 827.45,-410.5 893.45,-410.5 893.45,-391.5 827.45,-391.5"/>
<text text-anchor="middle" x="860.45" y="-398.5" font-family="Helvetica,sans-Serif" font-size="10.00">panoc.cpp</text>
</a>
</g>
</g>
<!-- Node2 -->
<g id="node2" class="node">
<title>Node2</title>
<g id="a_node2"><a xlink:href="lbfgs_8hpp.html" target="_top" xlink:title=" ">
<polygon fill="white" stroke="black" points="722.45,-324.5 722.45,-354.5 850.45,-354.5 850.45,-324.5 722.45,-324.5"/>
<text text-anchor="start" x="730.45" y="-342.5" font-family="Helvetica,sans-Serif" font-size="10.00">alpaqa/inner/directions</text>
<text text-anchor="middle" x="786.45" y="-331.5" font-family="Helvetica,sans-Serif" font-size="10.00">/lbfgs.hpp</text>
</a>
</g>
</g>
<!-- Node1&#45;&gt;Node2 -->
<g id="edge1" class="edge">
<title>Node1&#45;&gt;Node2</title>
<path fill="none" stroke="midnightblue" d="M849.85,-391.48C840.01,-383.57 824.98,-371.48 812.03,-361.07"/>
<polygon fill="midnightblue" stroke="midnightblue" points="813.87,-358.06 803.89,-354.52 809.49,-363.52 813.87,-358.06"/>
</g>
<!-- Node11 -->
<g id="node11" class="node">
<title>Node11</title>
<g id="a_node11"><a xlink:href="inner_2panoc_8hpp.html" target="_top" xlink:title=" ">
<polygon fill="white" stroke="black" points="1248.95,-330 1248.95,-349 1379.95,-349 1379.95,-330 1248.95,-330"/>
<text text-anchor="middle" x="1314.45" y="-337" font-family="Helvetica,sans-Serif" font-size="10.00">alpaqa/inner/panoc.hpp</text>
</a>
</g>
</g>
<!-- Node1&#45;&gt;Node11 -->
<g id="edge12" class="edge">
<title>Node1&#45;&gt;Node11</title>
<path fill="none" stroke="midnightblue" d="M893.46,-395.67C965.67,-386.21 1139.14,-363.47 1239.43,-350.33"/>
<polygon fill="midnightblue" stroke="midnightblue" points="1240.03,-353.78 1249.49,-349.01 1239.12,-346.84 1240.03,-353.78"/>
</g>
<!-- Node3 -->
<g id="node3" class="node">
<title>Node3</title>
<g id="a_node3"><a xlink:href="decl_2lbfgs_8hpp.html" target="_top" xlink:title=" ">
<polygon fill="white" stroke="black" points="5.45,-257.5 5.45,-287.5 133.45,-287.5 133.45,-257.5 5.45,-257.5"/>
<text text-anchor="start" x="13.45" y="-275.5" font-family="Helvetica,sans-Serif" font-size="10.00">alpaqa/inner/directions</text>
<text text-anchor="middle" x="69.45" y="-264.5" font-family="Helvetica,sans-Serif" font-size="10.00">/decl/lbfgs.hpp</text>
</a>
</g>
</g>
<!-- Node2&#45;&gt;Node3 -->
<g id="edge2" class="edge">
<title>Node2&#45;&gt;Node3</title>
<path fill="none" stroke="midnightblue" d="M722.19,-332.67C589.31,-320.63 284.98,-293.04 143.85,-280.24"/>
<polygon fill="midnightblue" stroke="midnightblue" points="143.84,-276.73 133.56,-279.31 143.21,-283.7 143.84,-276.73"/>
</g>
<!-- Node9 -->
<g id="node9" class="node">
<title>Node9</title>
<g id="a_node9"><a xlink:title=" ">
<polygon fill="white" stroke="#bfbfbf" points="1563.95,-118 1563.95,-137 1628.95,-137 1628.95,-118 1563.95,-118"/>
<text text-anchor="middle" x="1596.45" y="-125" font-family="Helvetica,sans-Serif" font-size="10.00">stdexcept</text>
</a>
</g>
</g>
<!-- Node2&#45;&gt;Node9 -->
<g id="edge10" class="edge">
<title>Node2&#45;&gt;Node9</title>
<path fill="none" stroke="midnightblue" d="M850.48,-337.68C983.22,-335.24 1283.85,-325.6 1378.45,-288 1399.02,-279.82 1397.43,-266.46 1417.45,-257 1486.49,-224.38 1534.01,-277.44 1585.45,-221 1603.55,-201.13 1602.79,-168.07 1600.02,-147.32"/>
<polygon fill="midnightblue" stroke="midnightblue" points="1603.44,-146.53 1598.38,-137.22 1596.53,-147.65 1603.44,-146.53"/>
</g>
<!-- Node10 -->
<g id="node10" class="node">
<title>Node10</title>
<g id="a_node10"><a xlink:title=" ">
<polygon fill="white" stroke="#bfbfbf" points="426.95,-118 426.95,-137 495.95,-137 495.95,-118 426.95,-118"/>
<text text-anchor="middle" x="461.45" y="-125" font-family="Helvetica,sans-Serif" font-size="10.00">type_traits</text>
</a>
</g>
</g>
<!-- Node2&#45;&gt;Node10 -->
<g id="edge11" class="edge">
<title>Node2&#45;&gt;Node10</title>
<path fill="none" stroke="midnightblue" d="M722.33,-338.73C638.26,-335.14 493.51,-314.73 425.45,-221 408.25,-197.31 429.72,-164.34 446.12,-144.82"/>
<polygon fill="midnightblue" stroke="midnightblue" points="448.93,-146.93 452.93,-137.12 443.68,-142.3 448.93,-146.93"/>
</g>
<!-- Node4 -->
<g id="node4" class="node">
<title>Node4</title>
<g id="a_node4"><a xlink:href="box_8hpp.html" target="_top" xlink:title=" ">
<polygon fill="white" stroke="black" points="167.45,-118 167.45,-137 277.45,-137 277.45,-118 167.45,-118"/>
<text text-anchor="middle" x="222.45" y="-125" font-family="Helvetica,sans-Serif" font-size="10.00">alpaqa/util/box.hpp</text>
</a>
</g>
</g>
<!-- Node3&#45;&gt;Node4 -->
<g id="edge3" class="edge">
<title>Node3&#45;&gt;Node4</title>
<path fill="none" stroke="midnightblue" d="M68.4,-257.49C67.7,-237.65 69.4,-201.32 88.45,-179 100.64,-164.71 145.11,-149.7 179.52,-139.8"/>
<polygon fill="midnightblue" stroke="midnightblue" points="180.7,-143.1 189.37,-137.02 178.8,-136.36 180.7,-143.1"/>
</g>
<!-- Node5 -->
<g id="node5" class="node">
<title>Node5</title>
<g id="a_node5"><a xlink:href="vec_8hpp.html" target="_top" xlink:title=" ">
<polygon fill="white" stroke="black" points="194.95,-56.5 194.95,-75.5 249.95,-75.5 249.95,-56.5 194.95,-56.5"/>
<text text-anchor="middle" x="222.45" y="-63.5" font-family="Helvetica,sans-Serif" font-size="10.00">vec.hpp</text>
</a>
</g>
</g>
<!-- Node3&#45;&gt;Node5 -->
<g id="edge6" class="edge">
<title>Node3&#45;&gt;Node5</title>
<path fill="none" stroke="midnightblue" d="M55.96,-257.17C29.41,-227.22 -23.97,-157.05 12.45,-112 33.7,-85.71 130.19,-74.09 184.68,-69.54"/>
<polygon fill="midnightblue" stroke="midnightblue" points="184.97,-73.03 194.66,-68.75 184.42,-66.05 184.97,-73.03"/>
</g>
<!-- Node7 -->
<g id="node7" class="node">
<title>Node7</title>
<g id="a_node7"><a xlink:href="lbfgs-fwd_8hpp.html" target="_top" xlink:title=" ">
<polygon fill="white" stroke="black" points="21.45,-112.5 21.45,-142.5 149.45,-142.5 149.45,-112.5 21.45,-112.5"/>
<text text-anchor="start" x="29.45" y="-130.5" font-family="Helvetica,sans-Serif" font-size="10.00">alpaqa/inner/directions</text>
<text text-anchor="middle" x="85.45" y="-119.5" font-family="Helvetica,sans-Serif" font-size="10.00">/decl/lbfgs&#45;fwd.hpp</text>
</a>
</g>
</g>
<!-- Node3&#45;&gt;Node7 -->
<g id="edge7" class="edge">
<title>Node3&#45;&gt;Node7</title>
<path fill="none" stroke="midnightblue" d="M63.76,-257.5C57.12,-239.19 47.96,-206.25 55.45,-179 58.14,-169.18 63.3,-159.33 68.59,-150.98"/>
<polygon fill="midnightblue" stroke="midnightblue" points="71.58,-152.82 74.27,-142.57 65.78,-148.9 71.58,-152.82"/>
</g>
<!-- Node8 -->
<g id="node8" class="node">
<title>Node8</title>
<g id="a_node8"><a xlink:href="panoc-direction-update_8hpp.html" target="_top" xlink:title=" ">
<polygon fill="white" stroke="black" points="97.45,-179.5 97.45,-220.5 225.45,-220.5 225.45,-179.5 97.45,-179.5"/>
<text text-anchor="start" x="105.45" y="-208.5" font-family="Helvetica,sans-Serif" font-size="10.00">alpaqa/inner/directions</text>
<text text-anchor="start" x="105.45" y="-197.5" font-family="Helvetica,sans-Serif" font-size="10.00">/decl/panoc&#45;direction</text>
<text text-anchor="middle" x="161.45" y="-186.5" font-family="Helvetica,sans-Serif" font-size="10.00">&#45;update.hpp</text>
</a>
</g>
</g>
<!-- Node3&#45;&gt;Node8 -->
<g id="edge8" class="edge">
<title>Node3&#45;&gt;Node8</title>
<path fill="none" stroke="midnightblue" d="M88.07,-257.23C99.46,-248.5 114.37,-237.07 127.78,-226.8"/>
<polygon fill="midnightblue" stroke="midnightblue" points="130.08,-229.45 135.89,-220.59 125.82,-223.89 130.08,-229.45"/>
</g>
<!-- Node4&#45;&gt;Node5 -->
<g id="edge4" class="edge">
<title>Node4&#45;&gt;Node5</title>
<path fill="none" stroke="midnightblue" d="M222.45,-117.98C222.45,-109.58 222.45,-96.48 222.45,-85.66"/>
<polygon fill="midnightblue" stroke="midnightblue" points="225.95,-85.51 222.45,-75.51 218.95,-85.51 225.95,-85.51"/>
</g>
<!-- Node6 -->
<g id="node6" class="node">
<title>Node6</title>
<g id="a_node6"><a xlink:title=" ">
<polygon fill="white" stroke="#bfbfbf" points="187.95,-0.5 187.95,-19.5 256.95,-19.5 256.95,-0.5 187.95,-0.5"/>
<text text-anchor="middle" x="222.45" y="-7.5" font-family="Helvetica,sans-Serif" font-size="10.00">Eigen/Core</text>
</a>
</g>
</g>
<!-- Node5&#45;&gt;Node6 -->
<g id="edge5" class="edge">
<title>Node5&#45;&gt;Node6</title>
<path fill="none" stroke="midnightblue" d="M222.45,-56.08C222.45,-49.01 222.45,-38.86 222.45,-29.99"/>
<polygon fill="midnightblue" stroke="midnightblue" points="225.95,-29.75 222.45,-19.75 218.95,-29.75 225.95,-29.75"/>
</g>
<!-- Node8&#45;&gt;Node4 -->
<g id="edge9" class="edge">
<title>Node8&#45;&gt;Node4</title>
<path fill="none" stroke="midnightblue" d="M178.44,-179.36C187.8,-168.54 199.3,-155.26 208.19,-144.98"/>
<polygon fill="midnightblue" stroke="midnightblue" points="211.05,-147.03 214.94,-137.17 205.75,-142.45 211.05,-147.03"/>
</g>
<!-- Node11&#45;&gt;Node8 -->
<g id="edge44" class="edge">
<title>Node11&#45;&gt;Node8</title>
<path fill="none" stroke="midnightblue" d="M1248.74,-335.53C1079.34,-326.98 614.5,-297.81 235.45,-221 235.35,-220.98 235.24,-220.96 235.14,-220.94"/>
<polygon fill="midnightblue" stroke="midnightblue" points="236.02,-217.55 225.5,-218.85 234.54,-224.39 236.02,-217.55"/>
</g>
<!-- Node11&#45;&gt;Node9 -->
<g id="edge49" class="edge">
<title>Node11&#45;&gt;Node9</title>
<path fill="none" stroke="midnightblue" d="M1379.96,-337.79C1463.89,-335.33 1602.38,-325.52 1634.45,-288 1643.64,-277.24 1645.07,-225.93 1629.45,-179 1625.34,-166.65 1617.44,-154.39 1610.4,-145.04"/>
<polygon fill="midnightblue" stroke="midnightblue" points="1613.03,-142.72 1604.07,-137.06 1607.54,-147.07 1613.03,-142.72"/>
</g>
<!-- Node12 -->
<g id="node12" class="node">
<title>Node12</title>
<g id="a_node12"><a xlink:href="inner_2decl_2panoc_8hpp.html" target="_top" xlink:title=" ">
<polygon fill="white" stroke="black" points="734.45,-263 734.45,-282 888.45,-282 888.45,-263 734.45,-263"/>
<text text-anchor="middle" x="811.45" y="-270" font-family="Helvetica,sans-Serif" font-size="10.00">alpaqa/inner/decl/panoc.hpp</text>
</a>
</g>
</g>
<!-- Node11&#45;&gt;Node12 -->
<g id="edge13" class="edge">
<title>Node11&#45;&gt;Node12</title>
<path fill="none" stroke="midnightblue" d="M1248.95,-330.04C1155.93,-318.02 985.94,-296.05 887.48,-283.32"/>
<polygon fill="midnightblue" stroke="midnightblue" points="887.66,-279.82 877.3,-282.01 886.77,-286.76 887.66,-279.82"/>
</g>
<!-- Node21 -->
<g id="node21" class="node">
<title>Node21</title>
<g id="a_node21"><a xlink:title=" ">
<polygon fill="white" stroke="#bfbfbf" points="1020.45,-118 1020.45,-137 1072.45,-137 1072.45,-118 1020.45,-118"/>
<text text-anchor="middle" x="1046.45" y="-125" font-family="Helvetica,sans-Serif" font-size="10.00">cassert</text>
</a>
</g>
</g>
<!-- Node11&#45;&gt;Node21 -->
<g id="edge45" class="edge">
<title>Node11&#45;&gt;Node21</title>
<path fill="none" stroke="midnightblue" d="M1293.82,-329.91C1255.26,-313.16 1170.94,-273.13 1113.45,-221 1088.82,-198.67 1067.71,-165.91 1056.08,-145.96"/>
<polygon fill="midnightblue" stroke="midnightblue" points="1059,-144.03 1051.02,-137.06 1052.91,-147.48 1059,-144.03"/>
</g>
<!-- Node29 -->
<g id="node29" class="node">
<title>Node29</title>
<g id="a_node29"><a xlink:href="panoc-helpers_8hpp.html" target="_top" xlink:title=" ">
<polygon fill="white" stroke="black" points="1259.45,-257.5 1259.45,-287.5 1369.45,-287.5 1369.45,-257.5 1259.45,-257.5"/>
<text text-anchor="start" x="1267.45" y="-275.5" font-family="Helvetica,sans-Serif" font-size="10.00">alpaqa/inner/detail</text>
<text text-anchor="middle" x="1314.45" y="-264.5" font-family="Helvetica,sans-Serif" font-size="10.00">/panoc&#45;helpers.hpp</text>
</a>
</g>
</g>
<!-- Node11&#45;&gt;Node29 -->
<g id="edge38" class="edge">
<title>Node11&#45;&gt;Node29</title>
<path fill="none" stroke="midnightblue" d="M1314.45,-329.73C1314.45,-321.54 1314.45,-308.92 1314.45,-297.71"/>
<polygon fill="midnightblue" stroke="midnightblue" points="1317.95,-297.59 1314.45,-287.59 1310.95,-297.59 1317.95,-297.59"/>
</g>
<!-- Node30 -->
<g id="node30" class="node">
<title>Node30</title>
<g id="a_node30"><a xlink:title=" ">
<polygon fill="white" stroke="#bfbfbf" points="1425.95,-263 1425.95,-282 1472.95,-282 1472.95,-263 1425.95,-263"/>
<text text-anchor="middle" x="1449.45" y="-270" font-family="Helvetica,sans-Serif" font-size="10.00">cmath</text>
</a>
</g>
</g>
<!-- Node11&#45;&gt;Node30 -->
<g id="edge46" class="edge">
<title>Node11&#45;&gt;Node30</title>
<path fill="none" stroke="midnightblue" d="M1332.37,-329.87C1355.37,-318.8 1395.48,-299.49 1422.24,-286.6"/>
<polygon fill="midnightblue" stroke="midnightblue" points="1423.95,-289.66 1431.45,-282.17 1420.92,-283.35 1423.95,-289.66"/>
</g>
<!-- Node31 -->
<g id="node31" class="node">
<title>Node31</title>
<g id="a_node31"><a xlink:title=" ">
<polygon fill="white" stroke="#bfbfbf" points="1491.45,-263 1491.45,-282 1547.45,-282 1547.45,-263 1491.45,-263"/>
<text text-anchor="middle" x="1519.45" y="-270" font-family="Helvetica,sans-Serif" font-size="10.00">iomanip</text>
</a>
</g>
</g>
<!-- Node11&#45;&gt;Node31 -->
<g id="edge47" class="edge">
<title>Node11&#45;&gt;Node31</title>
<path fill="none" stroke="midnightblue" d="M1345.65,-329.94C1379.57,-320.45 1435.24,-304.32 1482.45,-288 1484.57,-287.27 1486.74,-286.49 1488.93,-285.68"/>
<polygon fill="midnightblue" stroke="midnightblue" points="1490.32,-288.9 1498.43,-282.08 1487.84,-282.36 1490.32,-288.9"/>
</g>
<!-- Node32 -->
<g id="node32" class="node">
<title>Node32</title>
<g id="a_node32"><a xlink:title=" ">
<polygon fill="white" stroke="#bfbfbf" points="1565.45,-263 1565.45,-282 1625.45,-282 1625.45,-263 1565.45,-263"/>
<text text-anchor="middle" x="1595.45" y="-270" font-family="Helvetica,sans-Serif" font-size="10.00">iostream</text>
</a>
</g>
</g>
<!-- Node11&#45;&gt;Node32 -->
<g id="edge48" class="edge">
<title>Node11&#45;&gt;Node32</title>
<path fill="none" stroke="midnightblue" d="M1366.46,-329.98C1415.84,-321.34 1491.91,-306.62 1556.45,-288 1559.09,-287.24 1561.81,-286.38 1564.52,-285.48"/>
<polygon fill="midnightblue" stroke="midnightblue" points="1565.92,-288.69 1574.18,-282.06 1563.59,-282.09 1565.92,-288.69"/>
</g>
<!-- Node12&#45;&gt;Node8 -->
<g id="edge20" class="edge">
<title>Node12&#45;&gt;Node8</title>
<path fill="none" stroke="midnightblue" d="M734.26,-266.43C600.08,-257.34 329.16,-237.64 235.45,-221 235.35,-220.98 235.24,-220.96 235.14,-220.95"/>
<polygon fill="midnightblue" stroke="midnightblue" points="235.95,-217.54 225.47,-219.04 234.6,-224.41 235.95,-217.54"/>
</g>
<!-- Node13 -->
<g id="node13" class="node">
<title>Node13</title>
<g id="a_node13"><a xlink:href="lbfgs-stepsize_8hpp.html" target="_top" xlink:title=" ">
<polygon fill="white" stroke="black" points="747.45,-185 747.45,-215 875.45,-215 875.45,-185 747.45,-185"/>
<text text-anchor="start" x="755.45" y="-203" font-family="Helvetica,sans-Serif" font-size="10.00">alpaqa/inner/decl/lbfgs</text>
<text text-anchor="middle" x="811.45" y="-192" font-family="Helvetica,sans-Serif" font-size="10.00">&#45;stepsize.hpp</text>
</a>
</g>
</g>
<!-- Node12&#45;&gt;Node13 -->
<g id="edge14" class="edge">
<title>Node12&#45;&gt;Node13</title>
<path fill="none" stroke="midnightblue" d="M811.45,-262.86C811.45,-253.55 811.45,-238.33 811.45,-225.31"/>
<polygon fill="midnightblue" stroke="midnightblue" points="814.95,-225.08 811.45,-215.08 807.95,-225.08 814.95,-225.08"/>
</g>
<!-- Node14 -->
<g id="node14" class="node">
<title>Node14</title>
<g id="a_node14"><a xlink:href="panoc-fwd_8hpp.html" target="_top" xlink:title=" ">
<polygon fill="white" stroke="black" points="243.95,-185 243.95,-215 376.95,-215 376.95,-185 243.95,-185"/>
<text text-anchor="start" x="251.95" y="-203" font-family="Helvetica,sans-Serif" font-size="10.00">alpaqa/inner/decl/panoc</text>
<text text-anchor="middle" x="310.45" y="-192" font-family="Helvetica,sans-Serif" font-size="10.00">&#45;fwd.hpp</text>
</a>
</g>
</g>
<!-- Node12&#45;&gt;Node14 -->
<g id="edge15" class="edge">
<title>Node12&#45;&gt;Node14</title>
<path fill="none" stroke="midnightblue" d="M739.11,-262.96C661.45,-253.57 534.52,-237.61 425.45,-221 413.04,-219.11 399.9,-216.96 387.12,-214.8"/>
<polygon fill="midnightblue" stroke="midnightblue" points="387.4,-211.29 376.96,-213.06 386.22,-218.19 387.4,-211.29"/>
</g>
<!-- Node15 -->
<g id="node15" class="node">
<title>Node15</title>
<g id="a_node15"><a xlink:href="panoc-stop-crit_8hpp.html" target="_top" xlink:title=" ">
<polygon fill="white" stroke="black" points="1415.95,-185 1415.95,-215 1548.95,-215 1548.95,-185 1415.95,-185"/>
<text text-anchor="start" x="1423.95" y="-203" font-family="Helvetica,sans-Serif" font-size="10.00">alpaqa/inner/decl/panoc</text>
<text text-anchor="middle" x="1482.45" y="-192" font-family="Helvetica,sans-Serif" font-size="10.00">&#45;stop&#45;crit.hpp</text>
</a>
</g>
</g>
<!-- Node12&#45;&gt;Node15 -->
<g id="edge17" class="edge">
<title>Node12&#45;&gt;Node15</title>
<path fill="none" stroke="midnightblue" d="M888.54,-269.2C1002.5,-264.85 1222.31,-252.8 1406.45,-221 1412.22,-220 1418.19,-218.78 1424.13,-217.43"/>
<polygon fill="midnightblue" stroke="midnightblue" points="1425.15,-220.79 1434.07,-215.06 1423.53,-213.98 1425.15,-220.79"/>
</g>
<!-- Node17 -->
<g id="node17" class="node">
<title>Node17</title>
<g id="a_node17"><a xlink:href="atomic__stop__signal_8hpp.html" target="_top" xlink:title=" ">
<polygon fill="white" stroke="black" points="1121.95,-185 1121.95,-215 1226.95,-215 1226.95,-185 1121.95,-185"/>
<text text-anchor="start" x="1129.95" y="-203" font-family="Helvetica,sans-Serif" font-size="10.00">alpaqa/util/atomic</text>
<text text-anchor="middle" x="1174.45" y="-192" font-family="Helvetica,sans-Serif" font-size="10.00">_stop_signal.hpp</text>
</a>
</g>
</g>
<!-- Node12&#45;&gt;Node17 -->
<g id="edge21" class="edge">
<title>Node12&#45;&gt;Node17</title>
<path fill="none" stroke="midnightblue" d="M874.54,-263C934.77,-254.35 1027.87,-239.59 1107.45,-221 1111.57,-220.04 1115.81,-218.96 1120.07,-217.83"/>
<polygon fill="midnightblue" stroke="midnightblue" points="1121.25,-221.14 1129.96,-215.1 1119.39,-214.39 1121.25,-221.14"/>
</g>
<!-- Node18 -->
<g id="node18" class="node">
<title>Node18</title>
<g id="a_node18"><a xlink:title=" ">
<polygon fill="white" stroke="#bfbfbf" points="1120.45,-118 1120.45,-137 1170.45,-137 1170.45,-118 1120.45,-118"/>
<text text-anchor="middle" x="1145.45" y="-125" font-family="Helvetica,sans-Serif" font-size="10.00">atomic</text>
</a>
</g>
</g>
<!-- Node12&#45;&gt;Node18 -->
<g id="edge34" class="edge">
<title>Node12&#45;&gt;Node18</title>
<path fill="none" stroke="midnightblue" d="M888.5,-263.55C933.45,-256.67 990.22,-244.03 1036.45,-221 1075.28,-201.65 1111.9,-165.6 1131.22,-144.68"/>
<polygon fill="midnightblue" stroke="midnightblue" points="1133.86,-146.98 1137.97,-137.22 1128.67,-142.29 1133.86,-146.98"/>
</g>
<!-- Node19 -->
<g id="node19" class="node">
<title>Node19</title>
<g id="a_node19"><a xlink:href="lipschitz_8hpp.html" target="_top" xlink:title=" ">
<polygon fill="white" stroke="black" points="433.95,-190.5 433.95,-209.5 566.95,-209.5 566.95,-190.5 433.95,-190.5"/>
<text text-anchor="middle" x="500.45" y="-197.5" font-family="Helvetica,sans-Serif" font-size="10.00">alpaqa/util/lipschitz.hpp</text>
</a>
</g>
</g>
<!-- Node12&#45;&gt;Node19 -->
<g id="edge23" class="edge">
<title>Node12&#45;&gt;Node19</title>
<path fill="none" stroke="midnightblue" d="M771.07,-262.97C725.09,-253.17 647.74,-236.46 581.45,-221 569.33,-218.17 556.21,-214.99 544.14,-212.01"/>
<polygon fill="midnightblue" stroke="midnightblue" points="544.84,-208.58 534.29,-209.56 543.16,-215.37 544.84,-208.58"/>
</g>
<!-- Node20 -->
<g id="node20" class="node">
<title>Node20</title>
<g id="a_node20"><a xlink:href="include_2alpaqa_2util_2problem_8hpp.html" target="_top" xlink:title=" ">
<polygon fill="white" stroke="black" points="893.95,-190.5 893.95,-209.5 1026.95,-209.5 1026.95,-190.5 893.95,-190.5"/>
<text text-anchor="middle" x="960.45" y="-197.5" font-family="Helvetica,sans-Serif" font-size="10.00">alpaqa/util/problem.hpp</text>
</a>
</g>
</g>
<!-- Node12&#45;&gt;Node20 -->
<g id="edge25" class="edge">
<title>Node12&#45;&gt;Node20</title>
<path fill="none" stroke="midnightblue" d="M829.42,-263C855.26,-250.77 903.12,-228.13 933.29,-213.85"/>
<polygon fill="midnightblue" stroke="midnightblue" points="934.87,-216.97 942.41,-209.53 931.87,-210.65 934.87,-216.97"/>
</g>
<!-- Node22 -->
<g id="node22" class="node">
<title>Node22</title>
<g id="a_node22"><a xlink:title=" ">
<polygon fill="white" stroke="#bfbfbf" points="678.45,-118 678.45,-137 728.45,-137 728.45,-118 678.45,-118"/>
<text text-anchor="middle" x="703.45" y="-125" font-family="Helvetica,sans-Serif" font-size="10.00">chrono</text>
</a>
</g>
</g>
<!-- Node12&#45;&gt;Node22 -->
<g id="edge35" class="edge">
<title>Node12&#45;&gt;Node22</title>
<path fill="none" stroke="midnightblue" d="M743.37,-262.98C692.95,-255.11 630.36,-241.5 614.45,-221 603,-206.25 605.05,-195.13 614.45,-179 626.07,-159.04 648.85,-146.33 668.45,-138.65"/>
<polygon fill="midnightblue" stroke="midnightblue" points="669.83,-141.87 678.04,-135.18 667.45,-135.29 669.83,-141.87"/>
</g>
<!-- Node25 -->
<g id="node25" class="node">
<title>Node25</title>
<g id="a_node25"><a xlink:href="solverstatus_8hpp.html" target="_top" xlink:title=" ">
<polygon fill="white" stroke="black" points="1245.45,-190.5 1245.45,-209.5 1397.45,-209.5 1397.45,-190.5 1245.45,-190.5"/>
<text text-anchor="middle" x="1321.45" y="-197.5" font-family="Helvetica,sans-Serif" font-size="10.00">alpaqa/util/solverstatus.hpp</text>
</a>
</g>
</g>
<!-- Node12&#45;&gt;Node25 -->
<g id="edge32" class="edge">
<title>Node12&#45;&gt;Node25</title>
<path fill="none" stroke="midnightblue" d="M888.61,-264.97C974.06,-257.13 1115.71,-242.31 1236.45,-221 1250.37,-218.54 1265.42,-215.22 1278.94,-211.99"/>
<polygon fill="midnightblue" stroke="midnightblue" points="1280.04,-215.33 1288.93,-209.56 1278.39,-208.53 1280.04,-215.33"/>
</g>
<!-- Node27 -->
<g id="node27" class="node">
<title>Node27</title>
<g id="a_node27"><a xlink:title=" ">
<polygon fill="white" stroke="#bfbfbf" points="623.45,-190.5 623.45,-209.5 667.45,-209.5 667.45,-190.5 623.45,-190.5"/>
<text text-anchor="middle" x="645.45" y="-197.5" font-family="Helvetica,sans-Serif" font-size="10.00">limits</text>
</a>
</g>
</g>
<!-- Node12&#45;&gt;Node27 -->
<g id="edge36" class="edge">
<title>Node12&#45;&gt;Node27</title>
<path fill="none" stroke="midnightblue" d="M783.3,-262.94C755.47,-254.01 712,-238.86 676.45,-221 672.98,-219.26 669.42,-217.22 666,-215.13"/>
<polygon fill="midnightblue" stroke="midnightblue" points="667.76,-212.09 657.46,-209.61 663.96,-217.97 667.76,-212.09"/>
</g>
<!-- Node28 -->
<g id="node28" class="node">
<title>Node28</title>
<g id="a_node28"><a xlink:title=" ">
<polygon fill="white" stroke="#bfbfbf" points="685.45,-190.5 685.45,-209.5 729.45,-209.5 729.45,-190.5 685.45,-190.5"/>
<text text-anchor="middle" x="707.45" y="-197.5" font-family="Helvetica,sans-Serif" font-size="10.00">string</text>
</a>
</g>
</g>
<!-- Node12&#45;&gt;Node28 -->
<g id="edge37" class="edge">
<title>Node12&#45;&gt;Node28</title>
<path fill="none" stroke="midnightblue" d="M798.7,-262.86C781.23,-251.02 749.64,-229.6 728.6,-215.34"/>
<polygon fill="midnightblue" stroke="midnightblue" points="730.55,-212.43 720.3,-209.72 726.62,-218.22 730.55,-212.43"/>
</g>
<!-- Node14&#45;&gt;Node7 -->
<g id="edge16" class="edge">
<title>Node14&#45;&gt;Node7</title>
<path fill="none" stroke="midnightblue" d="M265.73,-184.99C229.73,-173.71 178.97,-157.8 140.47,-145.74"/>
<polygon fill="midnightblue" stroke="midnightblue" points="141.06,-142.26 130.47,-142.61 138.97,-148.94 141.06,-142.26"/>
</g>
<!-- Node15&#45;&gt;Node9 -->
<g id="edge19" class="edge">
<title>Node15&#45;&gt;Node9</title>
<path fill="none" stroke="midnightblue" d="M1505.24,-184.9C1525.21,-172.55 1554.07,-154.71 1573.95,-142.41"/>
<polygon fill="midnightblue" stroke="midnightblue" points="1575.98,-145.27 1582.65,-137.03 1572.3,-139.32 1575.98,-145.27"/>
</g>
<!-- Node16 -->
<g id="node16" class="node">
<title>Node16</title>
<g id="a_node16"><a xlink:title=" ">
<polygon fill="white" stroke="#bfbfbf" points="1453.95,-118 1453.95,-137 1510.95,-137 1510.95,-118 1453.95,-118"/>
<text text-anchor="middle" x="1482.45" y="-125" font-family="Helvetica,sans-Serif" font-size="10.00">ostream</text>
</a>
</g>
</g>
<!-- Node15&#45;&gt;Node16 -->
<g id="edge18" class="edge">
<title>Node15&#45;&gt;Node16</title>
<path fill="none" stroke="midnightblue" d="M1482.45,-184.73C1482.45,-174 1482.45,-159.19 1482.45,-147.46"/>
<polygon fill="midnightblue" stroke="midnightblue" points="1485.95,-147.39 1482.45,-137.39 1478.95,-147.39 1485.95,-147.39"/>
</g>
<!-- Node17&#45;&gt;Node18 -->
<g id="edge22" class="edge">
<title>Node17&#45;&gt;Node18</title>
<path fill="none" stroke="midnightblue" d="M1168.58,-184.73C1164.07,-173.78 1157.82,-158.57 1152.95,-146.74"/>
<polygon fill="midnightblue" stroke="midnightblue" points="1156.15,-145.31 1149.11,-137.39 1149.67,-147.97 1156.15,-145.31"/>
</g>
<!-- Node19&#45;&gt;Node5 -->
<g id="edge24" class="edge">
<title>Node19&#45;&gt;Node5</title>
<path fill="none" stroke="midnightblue" d="M482.21,-190.34C434.57,-167.72 306.23,-106.78 249.76,-79.97"/>
<polygon fill="midnightblue" stroke="midnightblue" points="250.93,-76.65 240.39,-75.52 247.93,-82.97 250.93,-76.65"/>
</g>
<!-- Node20&#45;&gt;Node4 -->
<g id="edge26" class="edge">
<title>Node20&#45;&gt;Node4</title>
<path fill="none" stroke="midnightblue" d="M932.92,-190.47C918.6,-186.36 900.73,-181.74 884.45,-179 869.86,-176.54 452.65,-145.53 288.18,-133.36"/>
<polygon fill="midnightblue" stroke="midnightblue" points="287.95,-129.83 277.72,-132.58 287.44,-136.81 287.95,-129.83"/>
</g>
<!-- Node20&#45;&gt;Node10 -->
<g id="edge31" class="edge">
<title>Node20&#45;&gt;Node10</title>
<path fill="none" stroke="midnightblue" d="M931.79,-190.45C917.65,-186.49 900.26,-182.01 884.45,-179 747.92,-153.02 583.91,-137.97 506.33,-131.8"/>
<polygon fill="midnightblue" stroke="midnightblue" points="506.21,-128.28 495.96,-130.99 505.66,-135.26 506.21,-128.28"/>
</g>
<!-- Node20&#45;&gt;Node21 -->
<g id="edge27" class="edge">
<title>Node20&#45;&gt;Node21</title>
<path fill="none" stroke="midnightblue" d="M970.99,-190.36C985.18,-178.73 1010.63,-157.86 1028.01,-143.61"/>
<polygon fill="midnightblue" stroke="midnightblue" points="1030.3,-146.26 1035.82,-137.22 1025.86,-140.85 1030.3,-146.26"/>
</g>
<!-- Node20&#45;&gt;Node22 -->
<g id="edge28" class="edge">
<title>Node20&#45;&gt;Node22</title>
<path fill="none" stroke="midnightblue" d="M929.45,-190.5C881.36,-177.31 789.09,-151.99 738.59,-138.14"/>
<polygon fill="midnightblue" stroke="midnightblue" points="739.35,-134.72 728.78,-135.45 737.5,-141.47 739.35,-134.72"/>
</g>
<!-- Node23 -->
<g id="node23" class="node">
<title>Node23</title>
<g id="a_node23"><a xlink:title=" ">
<polygon fill="white" stroke="#bfbfbf" points="931.95,-118 931.95,-137 996.95,-137 996.95,-118 931.95,-118"/>
<text text-anchor="middle" x="964.45" y="-125" font-family="Helvetica,sans-Serif" font-size="10.00">functional</text>
</a>
</g>
</g>
<!-- Node20&#45;&gt;Node23 -->
<g id="edge29" class="edge">
<title>Node20&#45;&gt;Node23</title>
<path fill="none" stroke="midnightblue" d="M960.94,-190.36C961.54,-179.68 962.59,-161.22 963.38,-147.23"/>
<polygon fill="midnightblue" stroke="midnightblue" points="966.88,-147.4 963.95,-137.22 959.89,-147 966.88,-147.4"/>
</g>
<!-- Node24 -->
<g id="node24" class="node">
<title>Node24</title>
<g id="a_node24"><a xlink:title=" ">
<polygon fill="white" stroke="#bfbfbf" points="855.45,-118 855.45,-137 913.45,-137 913.45,-118 855.45,-118"/>
<text text-anchor="middle" x="884.45" y="-125" font-family="Helvetica,sans-Serif" font-size="10.00">memory</text>
</a>
</g>
</g>
<!-- Node20&#45;&gt;Node24 -->
<g id="edge30" class="edge">
<title>Node20&#45;&gt;Node24</title>
<path fill="none" stroke="midnightblue" d="M951.13,-190.36C938.82,-178.94 916.92,-158.62 901.58,-144.4"/>
<polygon fill="midnightblue" stroke="midnightblue" points="903.55,-141.45 893.84,-137.22 898.79,-146.58 903.55,-141.45"/>
</g>
<!-- Node26 -->
<g id="node26" class="node">
<title>Node26</title>
<g id="a_node26"><a xlink:title=" ">
<polygon fill="white" stroke="#bfbfbf" points="1297.45,-118 1297.45,-137 1345.45,-137 1345.45,-118 1297.45,-118"/>
<text text-anchor="middle" x="1321.45" y="-125" font-family="Helvetica,sans-Serif" font-size="10.00">iosfwd</text>
</a>
</g>
</g>
<!-- Node25&#45;&gt;Node26 -->
<g id="edge33" class="edge">
<title>Node25&#45;&gt;Node26</title>
<path fill="none" stroke="midnightblue" d="M1321.45,-190.36C1321.45,-179.68 1321.45,-161.22 1321.45,-147.23"/>
<polygon fill="midnightblue" stroke="midnightblue" points="1324.95,-147.22 1321.45,-137.22 1317.95,-147.22 1324.95,-147.22"/>
</g>
<!-- Node29&#45;&gt;Node9 -->
<g id="edge43" class="edge">
<title>Node29&#45;&gt;Node9</title>
<path fill="none" stroke="midnightblue" d="M1369.8,-259.85C1374.42,-258.88 1379.01,-257.92 1383.45,-257 1461.19,-240.83 1497.3,-271.66 1558.45,-221 1580.88,-202.41 1590.24,-168.44 1594.01,-147.24"/>
<polygon fill="midnightblue" stroke="midnightblue" points="1597.5,-147.63 1595.56,-137.22 1590.58,-146.57 1597.5,-147.63"/>
</g>
<!-- Node29&#45;&gt;Node15 -->
<g id="edge39" class="edge">
<title>Node29&#45;&gt;Node15</title>
<path fill="none" stroke="midnightblue" d="M1348.04,-257.4C1374.37,-246.36 1411.17,-230.91 1439.61,-218.97"/>
<polygon fill="midnightblue" stroke="midnightblue" points="1441.05,-222.17 1448.91,-215.07 1438.34,-215.72 1441.05,-222.17"/>
</g>
<!-- Node29&#45;&gt;Node17 -->
<g id="edge40" class="edge">
<title>Node29&#45;&gt;Node17</title>
<path fill="none" stroke="midnightblue" d="M1286.45,-257.4C1264.9,-246.55 1234.91,-231.45 1211.38,-219.6"/>
<polygon fill="midnightblue" stroke="midnightblue" points="1212.9,-216.44 1202.39,-215.07 1209.75,-222.7 1212.9,-216.44"/>
</g>
<!-- Node29&#45;&gt;Node20 -->
<g id="edge41" class="edge">
<title>Node29&#45;&gt;Node20</title>
<path fill="none" stroke="midnightblue" d="M1259.14,-260.48C1191.95,-247.1 1079.42,-224.69 1013.34,-211.53"/>
<polygon fill="midnightblue" stroke="midnightblue" points="1013.64,-208.02 1003.15,-209.5 1012.27,-214.89 1013.64,-208.02"/>
</g>
<!-- Node29&#45;&gt;Node25 -->
<g id="edge42" class="edge">
<title>Node29&#45;&gt;Node25</title>
<path fill="none" stroke="midnightblue" d="M1315.86,-257.23C1316.93,-246.5 1318.4,-231.69 1319.57,-219.96"/>
<polygon fill="midnightblue" stroke="midnightblue" points="1323.06,-220.19 1320.56,-209.89 1316.09,-219.5 1323.06,-220.19"/>
</g>
</g>
</svg>
