<?xml version="1.0" encoding="UTF-8" standalone="no"?>
<!DOCTYPE svg PUBLIC "-//W3C//DTD SVG 1.1//EN"
 "http://www.w3.org/Graphics/SVG/1.1/DTD/svg11.dtd">
<!-- Generated by graphviz version 2.43.0 (0)
 -->
<!-- Title: r_succ Pages: 1 -->
<svg width="708pt" height="112pt"
 viewBox="0.00 0.00 708.00 111.50" xmlns="http://www.w3.org/2000/svg" xmlns:xlink="http://www.w3.org/1999/xlink">
<g id="graph0" class="graph" transform="scale(1 1) rotate(0) translate(4 107.5)">
<title>r_succ</title>
<!-- Node1 -->
<g id="Node000001" class="node">
<title>Node1</title>
<g id="a_Node000001"><a xlink:title="Get the next index in the circular storage for R.">
<polygon fill="#999999" stroke="#666666" points="700,-56 653,-56 653,-37 700,-37 700,-56"/>
<text text-anchor="middle" x="676.5" y="-44" font-family="Helvetica,sans-Serif" font-size="10.00">r_succ</text>
</a>
</g>
</g>
<!-- Node2 -->
<g id="Node000002" class="node">
<title>Node2</title>
<g id="a_Node000002"><a xlink:href="classalpaqa_1_1LimitedMemoryQR.html#a5e3077223e98c1e4e286e01503f220d5" target="_top" xlink:title="Add the given column to the right.">
<polygon fill="white" stroke="#666666" points="607.5,-93 531.5,-93 531.5,-74 607.5,-74 607.5,-93"/>
<text text-anchor="middle" x="569.5" y="-81" font-family="Helvetica,sans-Serif" font-size="10.00">add_column</text>
</a>
</g>
</g>
<!-- Node1&#45;&gt;Node2 -->
<g id="edge1_Node000001_Node000002" class="edge">
<title>Node1&#45;&gt;Node2</title>
<g id="a_edge1_Node000001_Node000002"><a xlink:title=" ">
<path fill="none" stroke="#63b8ff" d="M643.36,-57.83C628.8,-62.96 611.77,-68.96 597.84,-73.87"/>
<polygon fill="#63b8ff" stroke="#63b8ff" points="644.71,-61.06 652.97,-54.44 642.38,-54.46 644.71,-61.06"/>
</a>
</g>
</g>
<!-- Node7 -->
<g id="Node000007" class="node">
<title>Node7</title>
<g id="a_Node000007"><a xlink:href="classalpaqa_1_1LimitedMemoryQR.html#a436c4dbbf0476354ca67a104bc005e55" target="_top" xlink:title="Remove the leftmost column.">
<polygon fill="white" stroke="#666666" points="617,-56 522,-56 522,-37 617,-37 617,-56"/>
<text text-anchor="middle" x="569.5" y="-44" font-family="Helvetica,sans-Serif" font-size="10.00">remove_column</text>
</a>
</g>
</g>
<!-- Node1&#45;&gt;Node7 -->
<g id="edge6_Node000001_Node000007" class="edge">
<title>Node1&#45;&gt;Node7</title>
<g id="a_edge6_Node000001_Node000007"><a xlink:title=" ">
<path fill="none" stroke="#63b8ff" d="M642.8,-46.5C634.68,-46.5 625.82,-46.5 617.16,-46.5"/>
<polygon fill="#63b8ff" stroke="#63b8ff" points="642.97,-50 652.97,-46.5 642.97,-43 642.97,-50"/>
</a>
</g>
</g>
<!-- Node8 -->
<g id="Node000008" class="node">
<title>Node8</title>
<g id="a_Node000008"><a xlink:href="classalpaqa_1_1LimitedMemoryQR.html#ad24371ff0ab7c48c4fb9750d5d66cd0c" target="_top" xlink:title="Get the next index in the circular buffer.">
<polygon fill="white" stroke="#666666" points="600.5,-19 538.5,-19 538.5,0 600.5,0 600.5,-19"/>
<text text-anchor="middle" x="569.5" y="-7" font-family="Helvetica,sans-Serif" font-size="10.00">ring_next</text>
</a>
</g>
</g>
<!-- Node1&#45;&gt;Node8 -->
<g id="edge8_Node000001_Node000008" class="edge">
<title>Node1&#45;&gt;Node8</title>
<g id="a_edge8_Node000001_Node000008"><a xlink:title=" ">
<path fill="none" stroke="#63b8ff" d="M643.36,-35.17C628.8,-30.04 611.77,-24.04 597.84,-19.13"/>
<polygon fill="#63b8ff" stroke="#63b8ff" points="642.38,-38.54 652.97,-38.56 644.71,-31.94 642.38,-38.54"/>
</a>
</g>
</g>
<!-- Node3 -->
<g id="Node000003" class="node">
<title>Node3</title>
<g id="a_Node000003"><a xlink:href="namespacealpaqa.html#adf8fd46412351c743b102d9c56c943b2" target="_top" xlink:title="Solve one step of Anderson acceleration to find a fixed point of a function g(x):">
<polygon fill="white" stroke="#666666" points="486,-79.5 346,-79.5 346,-49.5 486,-49.5 486,-79.5"/>
<text text-anchor="start" x="354" y="-67.5" font-family="Helvetica,sans-Serif" font-size="10.00">alpaqa::minimize_update</text>
<text text-anchor="middle" x="416" y="-56.5" font-family="Helvetica,sans-Serif" font-size="10.00">_anderson</text>
</a>
</g>
</g>
<!-- Node2&#45;&gt;Node3 -->
<g id="edge2_Node000002_Node000003" class="edge">
<title>Node2&#45;&gt;Node3</title>
<g id="a_edge2_Node000002_Node000003"><a xlink:title=" ">
<path fill="none" stroke="#63b8ff" d="M521.49,-77.6C510.31,-76.2 498.16,-74.68 486.22,-73.18"/>
<polygon fill="#63b8ff" stroke="#63b8ff" points="521.08,-81.08 531.44,-78.85 521.95,-74.13 521.08,-81.08"/>
</a>
</g>
</g>
<!-- Node4 -->
<g id="Node000004" class="node">
<title>Node4</title>
<g id="a_Node000004"><a xlink:href="classalpaqa_1_1AndersonAccel.html#a7cbecaa52700158ebe36c0d587791ed4" target="_top" xlink:title="Compute the accelerated iterate , given the function value at the current iterate &#160;and the correspond...">
<polygon fill="white" stroke="#666666" points="310,-103.5 182,-103.5 182,-73.5 310,-73.5 310,-103.5"/>
<text text-anchor="start" x="190" y="-91.5" font-family="Helvetica,sans-Serif" font-size="10.00">alpaqa::AndersonAccel</text>
<text text-anchor="middle" x="246" y="-80.5" font-family="Helvetica,sans-Serif" font-size="10.00">::compute</text>
</a>
</g>
</g>
<!-- Node3&#45;&gt;Node4 -->
<g id="edge3_Node000003_Node000004" class="edge">
<title>Node3&#45;&gt;Node4</title>
<g id="a_edge3_Node000003_Node000004"><a xlink:title=" ">
<path fill="none" stroke="#63b8ff" d="M335.71,-75.83C327.16,-77.05 318.54,-78.28 310.22,-79.47"/>
<polygon fill="#63b8ff" stroke="#63b8ff" points="336.29,-79.28 345.7,-74.4 335.3,-72.35 336.29,-79.28"/>
</a>
</g>
</g>
<!-- Node6 -->
<g id="Node000006" class="node">
<title>Node6</title>
<g id="a_Node000006"><a xlink:href="classalpaqa_1_1AndersonAccel.html#af02aae3147e83aeb9f83c4f0a17f537f" target="_top" xlink:title="Compute the accelerated iterate , given the function value at the current iterate &#160;and the correspond...">
<polygon fill="white" stroke="#666666" points="310,-55.5 182,-55.5 182,-25.5 310,-25.5 310,-55.5"/>
<text text-anchor="start" x="190" y="-43.5" font-family="Helvetica,sans-Serif" font-size="10.00">alpaqa::AndersonAccel</text>
<text text-anchor="middle" x="246" y="-32.5" font-family="Helvetica,sans-Serif" font-size="10.00">::compute</text>
</a>
</g>
</g>
<!-- Node3&#45;&gt;Node6 -->
<g id="edge5_Node000003_Node000006" class="edge">
<title>Node3&#45;&gt;Node6</title>
<g id="a_edge5_Node000003_Node000006"><a xlink:title=" ">
<path fill="none" stroke="#63b8ff" d="M335.71,-53.17C327.16,-51.95 318.54,-50.72 310.22,-49.53"/>
<polygon fill="#63b8ff" stroke="#63b8ff" points="335.3,-56.65 345.7,-54.6 336.29,-49.72 335.3,-56.65"/>
</a>
</g>
</g>
<!-- Node5 -->
<g id="Node000005" class="node">
<title>Node5</title>
<g id="a_Node000005"><a xlink:href="structalpaqa_1_1AndersonDirection.html#ad02c79a109cef288e13bc9c944af3b48" target="_top" xlink:title=" ">
<polygon fill="white" stroke="#666666" points="146,-103.5 0,-103.5 0,-73.5 146,-73.5 146,-103.5"/>
<text text-anchor="start" x="8" y="-91.5" font-family="Helvetica,sans-Serif" font-size="10.00">alpaqa::AndersonDirection</text>
<text text-anchor="middle" x="73" y="-80.5" font-family="Helvetica,sans-Serif" font-size="10.00">::apply</text>
</a>
</g>
</g>
<!-- Node4&#45;&gt;Node5 -->
<g id="edge4_Node000004_Node000005" class="edge">
<title>Node4&#45;&gt;Node5</title>
<g id="a_edge4_Node000004_Node000005"><a xlink:title=" ">
<path fill="none" stroke="#63b8ff" d="M171.62,-88.5C163.18,-88.5 154.58,-88.5 146.16,-88.5"/>
<polygon fill="#63b8ff" stroke="#63b8ff" points="171.81,-92 181.81,-88.5 171.81,-85 171.81,-92"/>
</a>
</g>
</g>
<!-- Node7&#45;&gt;Node3 -->
<g id="edge7_Node000007_Node000003" class="edge">
<title>Node7&#45;&gt;Node3</title>
<g id="a_edge7_Node000007_Node000003"><a xlink:title=" ">
<path fill="none" stroke="#63b8ff" d="M511.78,-53.24C503.4,-54.23 494.69,-55.27 486.09,-56.29"/>
<polygon fill="#63b8ff" stroke="#63b8ff" points="512.29,-56.7 521.81,-52.05 511.47,-49.75 512.29,-56.7"/>
</a>
</g>
</g>
</g>
</svg>
