<?xml version="1.0" encoding="UTF-8" standalone="no"?>
<!DOCTYPE svg PUBLIC "-//W3C//DTD SVG 1.1//EN"
 "http://www.w3.org/Graphics/SVG/1.1/DTD/svg11.dtd">
<!-- Generated by graphviz version 2.43.0 (0)
 -->
<!-- Title: is_complex_float&lt; std::complex&lt; T &gt; &gt; Pages: 1 -->
<svg width="127pt" height="153pt"
 viewBox="0.00 0.00 127.00 153.00" xmlns="http://www.w3.org/2000/svg" xmlns:xlink="http://www.w3.org/1999/xlink">
<g id="graph0" class="graph" transform="scale(1 1) rotate(0) translate(4 149)">
<title>is_complex_float&lt; std::complex&lt; T &gt; &gt;</title>
<!-- Node1 -->
<g id="Node000001" class="node">
<title>Node1</title>
<g id="a_Node000001"><a xlink:title=" ">
<polygon fill="#999999" stroke="transparent" points="119,-60 0,-60 0,0 119,0 119,-60"/>
<text text-anchor="start" x="5.5" y="-48" font-family="Helvetica,sans-Serif" font-size="10.00">is_complex_float&lt; std</text>
<text text-anchor="start" x="16" y="-37" font-family="Helvetica,sans-Serif" font-size="10.00">::complex&lt; T &gt; &gt;</text>
<text text-anchor="start" x="58" y="-22" font-family="Helvetica,sans-Serif" font-size="10.00"> </text>
<text text-anchor="start" x="58" y="-7" font-family="Helvetica,sans-Serif" font-size="10.00"> </text>
<polygon fill="#666666" stroke="#666666" points="0.5,-32 0.5,-32 119.5,-32 119.5,-32 0.5,-32"/>
<polygon fill="#666666" stroke="#666666" points="0.5,-17 0.5,-17 119.5,-17 119.5,-17 0.5,-17"/>
<polygon fill="none" stroke="#666666" points="0,0 0,-60 119,-60 119,0 0,0"/>
</a>
</g>
</g>
<!-- Node2 -->
<g id="Node000002" class="node">
<title>Node2</title>
<g id="a_Node000002"><a xlink:title=" ">
<polygon fill="white" stroke="transparent" points="88,-145 31,-145 31,-96 88,-96 88,-145"/>
<text text-anchor="start" x="36.5" y="-132.5" font-family="Helvetica,sans-Serif" font-size="10.00">true_type</text>
<text text-anchor="start" x="58" y="-117.5" font-family="Helvetica,sans-Serif" font-size="10.00"> </text>
<text text-anchor="start" x="58" y="-102.5" font-family="Helvetica,sans-Serif" font-size="10.00"> </text>
<polygon fill="#666666" stroke="#666666" points="31.5,-127.5 31.5,-127.5 88.5,-127.5 88.5,-127.5 31.5,-127.5"/>
<polygon fill="#666666" stroke="#666666" points="31.5,-112.5 31.5,-112.5 88.5,-112.5 88.5,-112.5 31.5,-112.5"/>
<polygon fill="none" stroke="#666666" points="31,-96 31,-145 88,-145 88,-96 31,-96"/>
</a>
</g>
</g>
<!-- Node2&#45;&gt;Node1 -->
<g id="edge1_Node000001_Node000002" class="edge">
<title>Node2&#45;&gt;Node1</title>
<g id="a_edge1_Node000001_Node000002"><a xlink:title=" ">
<path fill="none" stroke="#63b8ff" d="M59.5,-85.55C59.5,-77.18 59.5,-68.28 59.5,-60.16"/>
<polygon fill="none" stroke="#63b8ff" points="56,-85.78 59.5,-95.78 63,-85.78 56,-85.78"/>
</a>
</g>
</g>
</g>
</svg>
