<?xml version="1.0" encoding="UTF-8" standalone="no"?>
<!DOCTYPE svg PUBLIC "-//W3C//DTD SVG 1.1//EN"
 "http://www.w3.org/Graphics/SVG/1.1/DTD/svg11.dtd">
<!-- Generated by graphviz version 2.43.0 (0)
 -->
<!-- Title: src/alpaqa/include/alpaqa/util/type&#45;erasure.hpp Pages: 1 -->
<svg width="1251pt" height="214pt"
 viewBox="0.00 0.00 1251.00 214.00" xmlns="http://www.w3.org/2000/svg" xmlns:xlink="http://www.w3.org/1999/xlink">
<g id="graph0" class="graph" transform="scale(1 1) rotate(0) translate(4 210)">
<title>src/alpaqa/include/alpaqa/util/type&#45;erasure.hpp</title>
<!-- Node1 -->
<g id="Node000001" class="node">
<title>Node1</title>
<g id="a_Node000001"><a xlink:title=" ">
<polygon fill="#999999" stroke="#666666" points="781.5,-206 623.5,-206 623.5,-176 781.5,-176 781.5,-206"/>
<text text-anchor="start" x="631.5" y="-194" font-family="Helvetica,sans-Serif" font-size="10.00">src/alpaqa/include</text>
<text text-anchor="middle" x="702.5" y="-183" font-family="Helvetica,sans-Serif" font-size="10.00">/alpaqa/util/type&#45;erasure.hpp</text>
</a>
</g>
</g>
<!-- Node2 -->
<g id="Node000002" class="node">
<title>Node2</title>
<g id="a_Node000002"><a xlink:href="export_8hpp.html" target="_top" xlink:title=" ">
<polygon fill="white" stroke="#666666" points="105,-74 0,-74 0,-55 105,-55 105,-74"/>
<text text-anchor="middle" x="52.5" y="-62" font-family="Helvetica,sans-Serif" font-size="10.00">alpaqa/export.hpp</text>
</a>
</g>
</g>
<!-- Node1&#45;&gt;Node2 -->
<g id="edge1_Node000001_Node000002" class="edge">
<title>Node1&#45;&gt;Node2</title>
<g id="a_edge1_Node000001_Node000002"><a xlink:title=" ">
<path fill="none" stroke="#63b8ff" d="M623.39,-188.8C463.35,-185.65 112.84,-174.83 71.5,-140 55.42,-126.46 51.94,-101.38 51.63,-84.08"/>
<polygon fill="#63b8ff" stroke="#63b8ff" points="55.13,-84.1 51.79,-74.04 48.13,-83.99 55.13,-84.1"/>
</a>
</g>
</g>
<!-- Node4 -->
<g id="Node000004" class="node">
<title>Node4</title>
<g id="a_Node000004"><a xlink:href="demangled-typename_8hpp.html" target="_top" xlink:title=" ">
<polygon fill="white" stroke="#666666" points="206.5,-140 80.5,-140 80.5,-110 206.5,-110 206.5,-140"/>
<text text-anchor="start" x="88.5" y="-128" font-family="Helvetica,sans-Serif" font-size="10.00">alpaqa/util/demangled</text>
<text text-anchor="middle" x="143.5" y="-117" font-family="Helvetica,sans-Serif" font-size="10.00">&#45;typename.hpp</text>
</a>
</g>
</g>
<!-- Node1&#45;&gt;Node4 -->
<g id="edge3_Node000001_Node000004" class="edge">
<title>Node1&#45;&gt;Node4</title>
<g id="a_edge3_Node000001_Node000004"><a xlink:title=" ">
<path fill="none" stroke="#63b8ff" d="M623.37,-183.66C527.69,-175.57 361.88,-160.16 220.5,-140 219.39,-139.84 218.27,-139.68 217.15,-139.51"/>
<polygon fill="#63b8ff" stroke="#63b8ff" points="217.3,-136 206.89,-137.92 216.23,-142.91 217.3,-136"/>
</a>
</g>
</g>
<!-- Node6 -->
<g id="Node000006" class="node">
<title>Node6</title>
<g id="a_Node000006"><a xlink:title=" ">
<polygon fill="#e0e0e0" stroke="#999999" points="253,-74 196,-74 196,-55 253,-55 253,-74"/>
<text text-anchor="middle" x="224.5" y="-62" font-family="Helvetica,sans-Serif" font-size="10.00">typeinfo</text>
</a>
</g>
</g>
<!-- Node1&#45;&gt;Node6 -->
<g id="edge21_Node000001_Node000006" class="edge">
<title>Node1&#45;&gt;Node6</title>
<g id="a_edge21_Node000001_Node000006"><a xlink:title=" ">
<path fill="none" stroke="#63b8ff" d="M623.49,-190.78C510.37,-190.32 309.7,-183.19 253.5,-140 236.17,-126.68 229.18,-101.55 226.38,-84.18"/>
<polygon fill="#63b8ff" stroke="#63b8ff" points="229.83,-83.56 225.07,-74.1 222.88,-84.46 229.83,-83.56"/>
</a>
</g>
</g>
<!-- Node7 -->
<g id="Node000007" class="node">
<title>Node7</title>
<g id="a_Node000007"><a xlink:href="noop-delete_8hpp.html" target="_top" xlink:title=" ">
<polygon fill="white" stroke="#666666" points="414,-134.5 263,-134.5 263,-115.5 414,-115.5 414,-134.5"/>
<text text-anchor="middle" x="338.5" y="-122.5" font-family="Helvetica,sans-Serif" font-size="10.00">alpaqa/util/noop&#45;delete.hpp</text>
</a>
</g>
</g>
<!-- Node1&#45;&gt;Node7 -->
<g id="edge7_Node000001_Node000007" class="edge">
<title>Node1&#45;&gt;Node7</title>
<g id="a_edge7_Node000001_Node000007"><a xlink:title=" ">
<path fill="none" stroke="#63b8ff" d="M623.07,-176.03C554.9,-164.05 458.24,-147.05 396.96,-136.28"/>
<polygon fill="#63b8ff" stroke="#63b8ff" points="397.52,-132.82 387.07,-134.54 396.31,-139.72 397.52,-132.82"/>
</a>
</g>
</g>
<!-- Node8 -->
<g id="Node000008" class="node">
<title>Node8</title>
<g id="a_Node000008"><a xlink:href="type-traits_8hpp.html" target="_top" xlink:title=" ">
<polygon fill="white" stroke="#666666" points="614,-134.5 471,-134.5 471,-115.5 614,-115.5 614,-134.5"/>
<text text-anchor="middle" x="542.5" y="-122.5" font-family="Helvetica,sans-Serif" font-size="10.00">alpaqa/util/type&#45;traits.hpp</text>
</a>
</g>
</g>
<!-- Node1&#45;&gt;Node8 -->
<g id="edge8_Node000001_Node000008" class="edge">
<title>Node1&#45;&gt;Node8</title>
<g id="a_edge8_Node000001_Node000008"><a xlink:title=" ">
<path fill="none" stroke="#63b8ff" d="M667.39,-175.95C639.2,-164.68 600.03,-149.01 573.11,-138.25"/>
<polygon fill="#63b8ff" stroke="#63b8ff" points="574.38,-134.98 563.79,-134.52 571.78,-141.48 574.38,-134.98"/>
</a>
</g>
</g>
<!-- Node10 -->
<g id="Node000010" class="node">
<title>Node10</title>
<g id="a_Node000010"><a xlink:title=" ">
<polygon fill="#e0e0e0" stroke="#999999" points="482.5,-74 424.5,-74 424.5,-55 482.5,-55 482.5,-74"/>
<text text-anchor="middle" x="453.5" y="-62" font-family="Helvetica,sans-Serif" font-size="10.00">memory</text>
</a>
</g>
</g>
<!-- Node1&#45;&gt;Node10 -->
<g id="edge17_Node000001_Node000010" class="edge">
<title>Node1&#45;&gt;Node10</title>
<g id="a_edge17_Node000001_Node000010"><a xlink:title=" ">
<path fill="none" stroke="#63b8ff" d="M623.22,-183.52C561.54,-176.74 482.96,-163.66 461.5,-140 448.01,-125.12 447.88,-101.1 449.9,-84.37"/>
<polygon fill="#63b8ff" stroke="#63b8ff" points="453.41,-84.57 451.51,-74.15 446.5,-83.49 453.41,-84.57"/>
</a>
</g>
</g>
<!-- Node11 -->
<g id="Node000011" class="node">
<title>Node11</title>
<g id="a_Node000011"><a xlink:title=" ">
<polygon fill="#e0e0e0" stroke="#999999" points="668,-74 599,-74 599,-55 668,-55 668,-74"/>
<text text-anchor="middle" x="633.5" y="-62" font-family="Helvetica,sans-Serif" font-size="10.00">type_traits</text>
</a>
</g>
</g>
<!-- Node1&#45;&gt;Node11 -->
<g id="edge20_Node000001_Node000011" class="edge">
<title>Node1&#45;&gt;Node11</title>
<g id="a_edge20_Node000001_Node000011"><a xlink:title=" ">
<path fill="none" stroke="#63b8ff" d="M688.56,-175.63C679.9,-166.12 669.02,-153.03 661.5,-140 651.17,-122.09 643.35,-99.65 638.63,-84.11"/>
<polygon fill="#63b8ff" stroke="#63b8ff" points="641.9,-82.8 635.76,-74.17 635.17,-84.75 641.9,-82.8"/>
</a>
</g>
</g>
<!-- Node12 -->
<g id="Node000012" class="node">
<title>Node12</title>
<g id="a_Node000012"><a xlink:title=" ">
<polygon fill="#e0e0e0" stroke="#999999" points="734.5,-134.5 670.5,-134.5 670.5,-115.5 734.5,-115.5 734.5,-134.5"/>
<text text-anchor="middle" x="702.5" y="-122.5" font-family="Helvetica,sans-Serif" font-size="10.00">algorithm</text>
</a>
</g>
</g>
<!-- Node1&#45;&gt;Node12 -->
<g id="edge12_Node000001_Node000012" class="edge">
<title>Node1&#45;&gt;Node12</title>
<g id="a_edge12_Node000001_Node000012"><a xlink:title=" ">
<path fill="none" stroke="#63b8ff" d="M702.5,-175.8C702.5,-166.7 702.5,-154.79 702.5,-144.9"/>
<polygon fill="#63b8ff" stroke="#63b8ff" points="706,-144.84 702.5,-134.84 699,-144.84 706,-144.84"/>
</a>
</g>
</g>
<!-- Node13 -->
<g id="Node000013" class="node">
<title>Node13</title>
<g id="a_Node000013"><a xlink:title=" ">
<polygon fill="#e0e0e0" stroke="#999999" points="804.5,-134.5 752.5,-134.5 752.5,-115.5 804.5,-115.5 804.5,-134.5"/>
<text text-anchor="middle" x="778.5" y="-122.5" font-family="Helvetica,sans-Serif" font-size="10.00">cassert</text>
</a>
</g>
</g>
<!-- Node1&#45;&gt;Node13 -->
<g id="edge13_Node000001_Node000013" class="edge">
<title>Node1&#45;&gt;Node13</title>
<g id="a_edge13_Node000001_Node000013"><a xlink:title=" ">
<path fill="none" stroke="#63b8ff" d="M719.37,-175.8C731.45,-165.62 747.71,-151.93 760.12,-141.48"/>
<polygon fill="#63b8ff" stroke="#63b8ff" points="762.6,-143.96 768,-134.84 758.09,-138.61 762.6,-143.96"/>
</a>
</g>
</g>
<!-- Node14 -->
<g id="Node000014" class="node">
<title>Node14</title>
<g id="a_Node000014"><a xlink:title=" ">
<polygon fill="#e0e0e0" stroke="#999999" points="876,-134.5 823,-134.5 823,-115.5 876,-115.5 876,-134.5"/>
<text text-anchor="middle" x="849.5" y="-122.5" font-family="Helvetica,sans-Serif" font-size="10.00">cstddef</text>
</a>
</g>
</g>
<!-- Node1&#45;&gt;Node14 -->
<g id="edge14_Node000001_Node000014" class="edge">
<title>Node1&#45;&gt;Node14</title>
<g id="a_edge14_Node000001_Node000014"><a xlink:title=" ">
<path fill="none" stroke="#63b8ff" d="M734.76,-175.95C760.43,-164.78 796.01,-149.29 820.72,-138.53"/>
<polygon fill="#63b8ff" stroke="#63b8ff" points="822.17,-141.72 829.94,-134.52 819.37,-135.3 822.17,-141.72"/>
</a>
</g>
</g>
<!-- Node15 -->
<g id="Node000015" class="node">
<title>Node15</title>
<g id="a_Node000015"><a xlink:title=" ">
<polygon fill="#e0e0e0" stroke="#999999" points="959,-134.5 894,-134.5 894,-115.5 959,-115.5 959,-134.5"/>
<text text-anchor="middle" x="926.5" y="-122.5" font-family="Helvetica,sans-Serif" font-size="10.00">exception</text>
</a>
</g>
</g>
<!-- Node1&#45;&gt;Node15 -->
<g id="edge15_Node000001_Node000015" class="edge">
<title>Node1&#45;&gt;Node15</title>
<g id="a_edge15_Node000001_Node000015"><a xlink:title=" ">
<path fill="none" stroke="#63b8ff" d="M757.61,-175.9C794.07,-166.34 842.84,-153.1 885.5,-140 887.81,-139.29 890.18,-138.54 892.56,-137.77"/>
<polygon fill="#63b8ff" stroke="#63b8ff" points="893.91,-141.01 902.3,-134.54 891.71,-134.37 893.91,-141.01"/>
</a>
</g>
</g>
<!-- Node16 -->
<g id="Node000016" class="node">
<title>Node16</title>
<g id="a_Node000016"><a xlink:title=" ">
<polygon fill="#e0e0e0" stroke="#999999" points="1042,-134.5 977,-134.5 977,-115.5 1042,-115.5 1042,-134.5"/>
<text text-anchor="middle" x="1009.5" y="-122.5" font-family="Helvetica,sans-Serif" font-size="10.00">functional</text>
</a>
</g>
</g>
<!-- Node1&#45;&gt;Node16 -->
<g id="edge16_Node000001_Node000016" class="edge">
<title>Node1&#45;&gt;Node16</title>
<g id="a_edge16_Node000001_Node000016"><a xlink:title=" ">
<path fill="none" stroke="#63b8ff" d="M781.72,-178.16C834.97,-169.46 906.47,-156.33 968.5,-140 971.14,-139.31 973.85,-138.53 976.56,-137.7"/>
<polygon fill="#63b8ff" stroke="#63b8ff" points="977.81,-140.98 986.26,-134.58 975.67,-134.31 977.81,-140.98"/>
</a>
</g>
</g>
<!-- Node17 -->
<g id="Node000017" class="node">
<title>Node17</title>
<g id="a_Node000017"><a xlink:title=" ">
<polygon fill="#e0e0e0" stroke="#999999" points="1097,-134.5 1060,-134.5 1060,-115.5 1097,-115.5 1097,-134.5"/>
<text text-anchor="middle" x="1078.5" y="-122.5" font-family="Helvetica,sans-Serif" font-size="10.00">new</text>
</a>
</g>
</g>
<!-- Node1&#45;&gt;Node17 -->
<g id="edge18_Node000001_Node000017" class="edge">
<title>Node1&#45;&gt;Node17</title>
<g id="a_edge18_Node000001_Node000017"><a xlink:title=" ">
<path fill="none" stroke="#63b8ff" d="M781.81,-186.22C853.68,-181.03 961.74,-168.78 1051.5,-140 1052.56,-139.66 1053.62,-139.28 1054.68,-138.88"/>
<polygon fill="#63b8ff" stroke="#63b8ff" points="1056.37,-141.95 1064.03,-134.63 1053.48,-135.58 1056.37,-141.95"/>
</a>
</g>
</g>
<!-- Node18 -->
<g id="Node000018" class="node">
<title>Node18</title>
<g id="a_Node000018"><a xlink:title=" ">
<polygon fill="#e0e0e0" stroke="#999999" points="1180,-134.5 1115,-134.5 1115,-115.5 1180,-115.5 1180,-134.5"/>
<text text-anchor="middle" x="1147.5" y="-122.5" font-family="Helvetica,sans-Serif" font-size="10.00">stdexcept</text>
</a>
</g>
</g>
<!-- Node1&#45;&gt;Node18 -->
<g id="edge19_Node000001_Node000018" class="edge">
<title>Node1&#45;&gt;Node18</title>
<g id="a_edge19_Node000001_Node000018"><a xlink:title=" ">
<path fill="none" stroke="#63b8ff" d="M781.54,-185.05C863.59,-178.79 995.27,-165.59 1106.5,-140 1109.48,-139.31 1112.55,-138.49 1115.61,-137.6"/>
<polygon fill="#63b8ff" stroke="#63b8ff" points="1116.72,-140.92 1125.18,-134.55 1114.59,-134.25 1116.72,-140.92"/>
</a>
</g>
</g>
<!-- Node19 -->
<g id="Node000019" class="node">
<title>Node19</title>
<g id="a_Node000019"><a xlink:title=" ">
<polygon fill="#e0e0e0" stroke="#999999" points="1243,-134.5 1198,-134.5 1198,-115.5 1243,-115.5 1243,-134.5"/>
<text text-anchor="middle" x="1220.5" y="-122.5" font-family="Helvetica,sans-Serif" font-size="10.00">utility</text>
</a>
</g>
</g>
<!-- Node1&#45;&gt;Node19 -->
<g id="edge22_Node000001_Node000019" class="edge">
<title>Node1&#45;&gt;Node19</title>
<g id="a_edge22_Node000001_Node000019"><a xlink:title=" ">
<path fill="none" stroke="#63b8ff" d="M781.5,-189.63C879.02,-187.42 1049.17,-177.82 1189.5,-140 1191.19,-139.55 1192.9,-139.01 1194.6,-138.42"/>
<polygon fill="#63b8ff" stroke="#63b8ff" points="1196.17,-141.56 1204.13,-134.57 1193.55,-135.07 1196.17,-141.56"/>
</a>
</g>
</g>
<!-- Node3 -->
<g id="Node000003" class="node">
<title>Node3</title>
<g id="a_Node000003"><a xlink:title=" ">
<polygon fill="#e0e0e0" stroke="#999999" points="99,-19 6,-19 6,0 99,0 99,-19"/>
<text text-anchor="middle" x="52.5" y="-7" font-family="Helvetica,sans-Serif" font-size="10.00">alpaqa/export.h</text>
</a>
</g>
</g>
<!-- Node2&#45;&gt;Node3 -->
<g id="edge2_Node000002_Node000003" class="edge">
<title>Node2&#45;&gt;Node3</title>
<g id="a_edge2_Node000002_Node000003"><a xlink:title=" ">
<path fill="none" stroke="#63b8ff" d="M52.5,-54.75C52.5,-47.8 52.5,-37.85 52.5,-29.13"/>
<polygon fill="#63b8ff" stroke="#63b8ff" points="56,-29.09 52.5,-19.09 49,-29.09 56,-29.09"/>
</a>
</g>
</g>
<!-- Node4&#45;&gt;Node2 -->
<g id="edge4_Node000004_Node000002" class="edge">
<title>Node4&#45;&gt;Node2</title>
<g id="a_edge4_Node000004_Node000002"><a xlink:title=" ">
<path fill="none" stroke="#63b8ff" d="M121.47,-109.84C107.23,-100.68 88.77,-88.82 74.53,-79.66"/>
<polygon fill="#63b8ff" stroke="#63b8ff" points="76.17,-76.56 65.87,-74.09 72.39,-82.45 76.17,-76.56"/>
</a>
</g>
</g>
<!-- Node5 -->
<g id="Node000005" class="node">
<title>Node5</title>
<g id="a_Node000005"><a xlink:title=" ">
<polygon fill="#e0e0e0" stroke="#999999" points="167.5,-74 123.5,-74 123.5,-55 167.5,-55 167.5,-74"/>
<text text-anchor="middle" x="145.5" y="-62" font-family="Helvetica,sans-Serif" font-size="10.00">string</text>
</a>
</g>
</g>
<!-- Node4&#45;&gt;Node5 -->
<g id="edge5_Node000004_Node000005" class="edge">
<title>Node4&#45;&gt;Node5</title>
<g id="a_edge5_Node000004_Node000005"><a xlink:title=" ">
<path fill="none" stroke="#63b8ff" d="M143.98,-109.84C144.24,-102.21 144.57,-92.7 144.85,-84.45"/>
<polygon fill="#63b8ff" stroke="#63b8ff" points="148.36,-84.38 145.2,-74.27 141.36,-84.14 148.36,-84.38"/>
</a>
</g>
</g>
<!-- Node4&#45;&gt;Node6 -->
<g id="edge6_Node000004_Node000006" class="edge">
<title>Node4&#45;&gt;Node6</title>
<g id="a_edge6_Node000004_Node000006"><a xlink:title=" ">
<path fill="none" stroke="#63b8ff" d="M163.11,-109.84C175.47,-100.91 191.4,-89.41 203.93,-80.35"/>
<polygon fill="#63b8ff" stroke="#63b8ff" points="206.3,-82.96 212.36,-74.27 202.21,-77.28 206.3,-82.96"/>
</a>
</g>
</g>
<!-- Node9 -->
<g id="Node000009" class="node">
<title>Node9</title>
<g id="a_Node000009"><a xlink:title=" ">
<polygon fill="#e0e0e0" stroke="#999999" points="572.5,-74 512.5,-74 512.5,-55 572.5,-55 572.5,-74"/>
<text text-anchor="middle" x="542.5" y="-62" font-family="Helvetica,sans-Serif" font-size="10.00">concepts</text>
</a>
</g>
</g>
<!-- Node8&#45;&gt;Node9 -->
<g id="edge9_Node000008_Node000009" class="edge">
<title>Node8&#45;&gt;Node9</title>
<g id="a_edge9_Node000008_Node000009"><a xlink:title=" ">
<path fill="none" stroke="#63b8ff" d="M542.5,-115.37C542.5,-107.25 542.5,-94.81 542.5,-84.39"/>
<polygon fill="#63b8ff" stroke="#63b8ff" points="546,-84.17 542.5,-74.17 539,-84.17 546,-84.17"/>
</a>
</g>
</g>
<!-- Node8&#45;&gt;Node10 -->
<g id="edge10_Node000008_Node000010" class="edge">
<title>Node8&#45;&gt;Node10</title>
<g id="a_edge10_Node000008_Node000010"><a xlink:title=" ">
<path fill="none" stroke="#63b8ff" d="M529.37,-115.37C515.17,-106.04 492.3,-91.01 475.38,-79.88"/>
<polygon fill="#63b8ff" stroke="#63b8ff" points="476.97,-76.74 466.69,-74.17 473.12,-82.58 476.97,-76.74"/>
</a>
</g>
</g>
<!-- Node8&#45;&gt;Node11 -->
<g id="edge11_Node000008_Node000011" class="edge">
<title>Node8&#45;&gt;Node11</title>
<g id="a_edge11_Node000008_Node000011"><a xlink:title=" ">
<path fill="none" stroke="#63b8ff" d="M555.93,-115.37C570.58,-105.95 594.26,-90.73 611.6,-79.58"/>
<polygon fill="#63b8ff" stroke="#63b8ff" points="613.5,-82.52 620.02,-74.17 609.71,-76.63 613.5,-82.52"/>
</a>
</g>
</g>
</g>
</svg>
