<?xml version="1.0" encoding="UTF-8" standalone="no"?>
<!DOCTYPE svg PUBLIC "-//W3C//DTD SVG 1.1//EN"
 "http://www.w3.org/Graphics/SVG/1.1/DTD/svg11.dtd">
<!-- Generated by graphviz version 2.43.0 (0)
 -->
<!-- Title: src/alpaqa/include/alpaqa/inner/zerofpr.hpp Pages: 1 -->
<svg width="1319pt" height="181pt"
 viewBox="0.00 0.00 1318.50 181.00" xmlns="http://www.w3.org/2000/svg" xmlns:xlink="http://www.w3.org/1999/xlink">
<g id="graph0" class="graph" transform="scale(1 1) rotate(0) translate(4 177)">
<title>src/alpaqa/include/alpaqa/inner/zerofpr.hpp</title>
<!-- Node1 -->
<g id="Node000001" class="node">
<title>Node1</title>
<g id="a_Node000001"><a xlink:title=" ">
<polygon fill="#999999" stroke="#666666" points="756.5,-173 618.5,-173 618.5,-143 756.5,-143 756.5,-173"/>
<text text-anchor="start" x="626.5" y="-161" font-family="Helvetica,sans-Serif" font-size="10.00">src/alpaqa/include</text>
<text text-anchor="middle" x="687.5" y="-150" font-family="Helvetica,sans-Serif" font-size="10.00">/alpaqa/inner/zerofpr.hpp</text>
</a>
</g>
</g>
<!-- Node2 -->
<g id="Node000002" class="node">
<title>Node2</title>
<g id="a_Node000002"><a xlink:href="zerofpr_8tpp.html" target="_top" xlink:title=" ">
<polygon fill="white" stroke="#666666" points="447.5,-107 313.5,-107 313.5,-66 447.5,-66 447.5,-107"/>
<text text-anchor="start" x="321.5" y="-95" font-family="Helvetica,sans-Serif" font-size="10.00">src/alpaqa/include</text>
<text text-anchor="start" x="321.5" y="-84" font-family="Helvetica,sans-Serif" font-size="10.00">/alpaqa/implementation</text>
<text text-anchor="middle" x="380.5" y="-73" font-family="Helvetica,sans-Serif" font-size="10.00">/inner/zerofpr.tpp</text>
</a>
</g>
</g>
<!-- Node1&#45;&gt;Node2 -->
<g id="edge1_Node000001_Node000002" class="edge">
<title>Node1&#45;&gt;Node2</title>
<g id="a_edge1_Node000001_Node000002"><a xlink:title=" ">
<path fill="none" stroke="#63b8ff" d="M609.42,-140.87C564.58,-131.42 507.27,-119 456.5,-107 453.58,-106.31 450.61,-105.6 447.6,-104.86"/>
<polygon fill="#63b8ff" stroke="#63b8ff" points="608.87,-144.33 619.37,-142.96 610.31,-137.48 608.87,-144.33"/>
</a>
</g>
</g>
<!-- Node8 -->
<g id="Node000008" class="node">
<title>Node8</title>
<g id="a_Node000008"><a xlink:href="structured-zerofpr-alm_8hpp.html" target="_top" xlink:title=" ">
<polygon fill="white" stroke="#666666" points="143,-107 0,-107 0,-66 143,-66 143,-107"/>
<text text-anchor="start" x="8" y="-95" font-family="Helvetica,sans-Serif" font-size="10.00">src/alpaqa/include</text>
<text text-anchor="start" x="8" y="-84" font-family="Helvetica,sans-Serif" font-size="10.00">/alpaqa/structured&#45;zerofpr</text>
<text text-anchor="middle" x="71.5" y="-73" font-family="Helvetica,sans-Serif" font-size="10.00">&#45;alm.hpp</text>
</a>
</g>
</g>
<!-- Node1&#45;&gt;Node8 -->
<g id="edge7_Node000001_Node000008" class="edge">
<title>Node1&#45;&gt;Node8</title>
<g id="a_edge7_Node000001_Node000008"><a xlink:title=" ">
<path fill="none" stroke="#63b8ff" d="M608.07,-153.13C503.2,-147.22 313.03,-133.68 152.5,-107 149.5,-106.5 146.45,-105.95 143.38,-105.37"/>
<polygon fill="#63b8ff" stroke="#63b8ff" points="608.08,-156.64 618.26,-153.7 608.47,-149.65 608.08,-156.64"/>
</a>
</g>
</g>
<!-- Node9 -->
<g id="Node000009" class="node">
<title>Node9</title>
<g id="a_Node000009"><a xlink:href="zerofpr-alm_8hpp.html" target="_top" xlink:title=" ">
<polygon fill="white" stroke="#666666" points="295.5,-101.5 161.5,-101.5 161.5,-71.5 295.5,-71.5 295.5,-101.5"/>
<text text-anchor="start" x="169.5" y="-89.5" font-family="Helvetica,sans-Serif" font-size="10.00">src/alpaqa/include</text>
<text text-anchor="middle" x="228.5" y="-78.5" font-family="Helvetica,sans-Serif" font-size="10.00">/alpaqa/zerofpr&#45;alm.hpp</text>
</a>
</g>
</g>
<!-- Node1&#45;&gt;Node9 -->
<g id="edge9_Node000001_Node000009" class="edge">
<title>Node1&#45;&gt;Node9</title>
<g id="a_edge9_Node000001_Node000009"><a xlink:title=" ">
<path fill="none" stroke="#63b8ff" d="M608.05,-149.47C530.27,-141.43 408.63,-127.08 304.5,-107 296.47,-105.45 288.04,-103.56 279.82,-101.57"/>
<polygon fill="#63b8ff" stroke="#63b8ff" points="607.95,-152.98 618.25,-150.51 608.66,-146.01 607.95,-152.98"/>
</a>
</g>
</g>
<!-- Node10 -->
<g id="Node000010" class="node">
<title>Node10</title>
<g id="a_Node000010"><a xlink:href="zerofpr-anderson-alm_8hpp.html" target="_top" xlink:title=" ">
<polygon fill="white" stroke="#666666" points="605,-107 466,-107 466,-66 605,-66 605,-107"/>
<text text-anchor="start" x="474" y="-95" font-family="Helvetica,sans-Serif" font-size="10.00">src/alpaqa/include</text>
<text text-anchor="start" x="474" y="-84" font-family="Helvetica,sans-Serif" font-size="10.00">/alpaqa/zerofpr&#45;anderson</text>
<text text-anchor="middle" x="535.5" y="-73" font-family="Helvetica,sans-Serif" font-size="10.00">&#45;alm.hpp</text>
</a>
</g>
</g>
<!-- Node1&#45;&gt;Node10 -->
<g id="edge11_Node000001_Node000010" class="edge">
<title>Node1&#45;&gt;Node10</title>
<g id="a_edge11_Node000001_Node000010"><a xlink:title=" ">
<path fill="none" stroke="#63b8ff" d="M647.63,-138.77C626.32,-129.02 600.06,-117.02 578.31,-107.07"/>
<polygon fill="#63b8ff" stroke="#63b8ff" points="646.19,-141.96 656.74,-142.94 649.1,-135.59 646.19,-141.96"/>
</a>
</g>
</g>
<!-- Node11 -->
<g id="Node000011" class="node">
<title>Node11</title>
<g id="a_Node000011"><a xlink:href="zerofpr-convex-newton-alm_8hpp.html" target="_top" xlink:title=" ">
<polygon fill="white" stroke="#666666" points="752,-107 623,-107 623,-66 752,-66 752,-107"/>
<text text-anchor="start" x="631" y="-95" font-family="Helvetica,sans-Serif" font-size="10.00">src/alpaqa/include</text>
<text text-anchor="start" x="631" y="-84" font-family="Helvetica,sans-Serif" font-size="10.00">/alpaqa/zerofpr&#45;convex</text>
<text text-anchor="middle" x="687.5" y="-73" font-family="Helvetica,sans-Serif" font-size="10.00">&#45;newton&#45;alm.hpp</text>
</a>
</g>
</g>
<!-- Node1&#45;&gt;Node11 -->
<g id="edge13_Node000001_Node000011" class="edge">
<title>Node1&#45;&gt;Node11</title>
<g id="a_edge13_Node000001_Node000011"><a xlink:title=" ">
<path fill="none" stroke="#63b8ff" d="M687.5,-132.91C687.5,-124.47 687.5,-115.1 687.5,-107.07"/>
<polygon fill="#63b8ff" stroke="#63b8ff" points="684,-132.94 687.5,-142.94 691,-132.94 684,-132.94"/>
</a>
</g>
</g>
<!-- Node12 -->
<g id="Node000012" class="node">
<title>Node12</title>
<g id="a_Node000012"><a xlink:href="panoc-driver_8cpp.html" target="_top" xlink:title=" ">
<polygon fill="white" stroke="#666666" points="886.5,-101.5 770.5,-101.5 770.5,-71.5 886.5,-71.5 886.5,-101.5"/>
<text text-anchor="start" x="778.5" y="-89.5" font-family="Helvetica,sans-Serif" font-size="10.00">src/alpaqa/src/driver</text>
<text text-anchor="middle" x="828.5" y="-78.5" font-family="Helvetica,sans-Serif" font-size="10.00">/panoc&#45;driver.cpp</text>
</a>
</g>
</g>
<!-- Node1&#45;&gt;Node12 -->
<g id="edge15_Node000001_Node000012" class="edge">
<title>Node1&#45;&gt;Node12</title>
<g id="a_edge15_Node000001_Node000012"><a xlink:title=" ">
<path fill="none" stroke="#63b8ff" d="M725.04,-138.5C748.57,-126.9 778.42,-112.18 800.01,-101.54"/>
<polygon fill="#63b8ff" stroke="#63b8ff" points="723.46,-135.38 716.03,-142.94 726.55,-141.65 723.46,-135.38"/>
</a>
</g>
</g>
<!-- Node13 -->
<g id="Node000013" class="node">
<title>Node13</title>
<g id="a_Node000013"><a xlink:href="param-complete_8cpp.html" target="_top" xlink:title=" ">
<polygon fill="white" stroke="#666666" points="1026,-101.5 905,-101.5 905,-71.5 1026,-71.5 1026,-101.5"/>
<text text-anchor="start" x="913" y="-89.5" font-family="Helvetica,sans-Serif" font-size="10.00">src/alpaqa/src/driver</text>
<text text-anchor="middle" x="965.5" y="-78.5" font-family="Helvetica,sans-Serif" font-size="10.00">/param&#45;complete.cpp</text>
</a>
</g>
</g>
<!-- Node1&#45;&gt;Node13 -->
<g id="edge16_Node000001_Node000013" class="edge">
<title>Node1&#45;&gt;Node13</title>
<g id="a_edge16_Node000001_Node000013"><a xlink:title=" ">
<path fill="none" stroke="#63b8ff" d="M758.61,-140.57C798.87,-131.1 850.1,-118.78 895.5,-107 902.09,-105.29 909.02,-103.43 915.85,-101.57"/>
<polygon fill="#63b8ff" stroke="#63b8ff" points="757.56,-137.22 748.62,-142.91 759.16,-144.04 757.56,-137.22"/>
</a>
</g>
</g>
<!-- Node14 -->
<g id="Node000014" class="node">
<title>Node14</title>
<g id="a_Node000014"><a xlink:href="json_8cpp.html" target="_top" xlink:title=" ">
<polygon fill="white" stroke="#666666" points="1168.5,-101.5 1044.5,-101.5 1044.5,-71.5 1168.5,-71.5 1168.5,-101.5"/>
<text text-anchor="start" x="1052.5" y="-89.5" font-family="Helvetica,sans-Serif" font-size="10.00">src/alpaqa/src/params</text>
<text text-anchor="middle" x="1106.5" y="-78.5" font-family="Helvetica,sans-Serif" font-size="10.00">/json.cpp</text>
</a>
</g>
</g>
<!-- Node1&#45;&gt;Node14 -->
<g id="edge17_Node000001_Node000014" class="edge">
<title>Node1&#45;&gt;Node14</title>
<g id="a_edge17_Node000001_Node000014"><a xlink:title=" ">
<path fill="none" stroke="#63b8ff" d="M766.8,-148.48C837.66,-140.18 944.09,-126.04 1035.5,-107 1043.01,-105.44 1050.9,-103.53 1058.58,-101.54"/>
<polygon fill="#63b8ff" stroke="#63b8ff" points="766.14,-145.03 756.61,-149.66 766.95,-151.98 766.14,-145.03"/>
</a>
</g>
</g>
<!-- Node15 -->
<g id="Node000015" class="node">
<title>Node15</title>
<g id="a_Node000015"><a xlink:href="params_8cpp.html" target="_top" xlink:title=" ">
<polygon fill="white" stroke="#666666" points="1310.5,-101.5 1186.5,-101.5 1186.5,-71.5 1310.5,-71.5 1310.5,-101.5"/>
<text text-anchor="start" x="1194.5" y="-89.5" font-family="Helvetica,sans-Serif" font-size="10.00">src/alpaqa/src/params</text>
<text text-anchor="middle" x="1248.5" y="-78.5" font-family="Helvetica,sans-Serif" font-size="10.00">/params.cpp</text>
</a>
</g>
</g>
<!-- Node1&#45;&gt;Node15 -->
<g id="edge18_Node000001_Node000015" class="edge">
<title>Node1&#45;&gt;Node15</title>
<g id="a_edge18_Node000001_Node000015"><a xlink:title=" ">
<path fill="none" stroke="#63b8ff" d="M766.65,-152.98C864,-147.11 1034.01,-133.83 1177.5,-107 1185.42,-105.52 1193.74,-103.59 1201.78,-101.51"/>
<polygon fill="#63b8ff" stroke="#63b8ff" points="766.36,-149.49 756.59,-153.58 766.78,-156.48 766.36,-149.49"/>
</a>
</g>
</g>
<!-- Node3 -->
<g id="Node000003" class="node">
<title>Node3</title>
<g id="a_Node000003"><a xlink:href="zerofpr_8cpp.html" target="_top" xlink:title=" ">
<polygon fill="white" stroke="#666666" points="436.5,-30 324.5,-30 324.5,0 436.5,0 436.5,-30"/>
<text text-anchor="start" x="332.5" y="-18" font-family="Helvetica,sans-Serif" font-size="10.00">src/alpaqa/src/inner</text>
<text text-anchor="middle" x="380.5" y="-7" font-family="Helvetica,sans-Serif" font-size="10.00">/zerofpr.cpp</text>
</a>
</g>
</g>
<!-- Node2&#45;&gt;Node3 -->
<g id="edge2_Node000002_Node000003" class="edge">
<title>Node2&#45;&gt;Node3</title>
<g id="a_edge2_Node000002_Node000003"><a xlink:title=" ">
<path fill="none" stroke="#63b8ff" d="M380.5,-55.66C380.5,-46.76 380.5,-37.42 380.5,-30.04"/>
<polygon fill="#63b8ff" stroke="#63b8ff" points="377,-55.77 380.5,-65.77 384,-55.77 377,-55.77"/>
</a>
</g>
</g>
<!-- Node4 -->
<g id="Node000004" class="node">
<title>Node4</title>
<g id="a_Node000004"><a xlink:href="structured-zerofpr-alm_8cpp.html" target="_top" xlink:title=" ">
<polygon fill="white" stroke="#666666" points="153,-30 16,-30 16,0 153,0 153,-30"/>
<text text-anchor="start" x="24" y="-18" font-family="Helvetica,sans-Serif" font-size="10.00">src/alpaqa/src/structured</text>
<text text-anchor="middle" x="84.5" y="-7" font-family="Helvetica,sans-Serif" font-size="10.00">&#45;zerofpr&#45;alm.cpp</text>
</a>
</g>
</g>
<!-- Node2&#45;&gt;Node4 -->
<g id="edge3_Node000002_Node000004" class="edge">
<title>Node2&#45;&gt;Node4</title>
<g id="a_edge3_Node000002_Node000004"><a xlink:title=" ">
<path fill="none" stroke="#63b8ff" d="M303.36,-65.75C245.68,-51.87 190.17,-39.32 148.63,-30.08"/>
<polygon fill="#63b8ff" stroke="#63b8ff" points="302.85,-69.23 313.39,-68.17 304.49,-62.42 302.85,-69.23"/>
</a>
</g>
</g>
<!-- Node5 -->
<g id="Node000005" class="node">
<title>Node5</title>
<g id="a_Node000005"><a xlink:href="zerofpr-alm_8cpp.html" target="_top" xlink:title=" ">
<polygon fill="white" stroke="#666666" points="297.5,-30 175.5,-30 175.5,0 297.5,0 297.5,-30"/>
<text text-anchor="start" x="183.5" y="-18" font-family="Helvetica,sans-Serif" font-size="10.00">src/alpaqa/src/zerofpr</text>
<text text-anchor="middle" x="236.5" y="-7" font-family="Helvetica,sans-Serif" font-size="10.00">&#45;alm.cpp</text>
</a>
</g>
</g>
<!-- Node2&#45;&gt;Node5 -->
<g id="edge4_Node000002_Node000005" class="edge">
<title>Node2&#45;&gt;Node5</title>
<g id="a_edge4_Node000002_Node000005"><a xlink:title=" ">
<path fill="none" stroke="#63b8ff" d="M330.91,-61.56C309.19,-51.08 284.45,-39.14 265.74,-30.11"/>
<polygon fill="#63b8ff" stroke="#63b8ff" points="329.48,-64.76 340,-65.96 332.52,-58.46 329.48,-64.76"/>
</a>
</g>
</g>
<!-- Node6 -->
<g id="Node000006" class="node">
<title>Node6</title>
<g id="a_Node000006"><a xlink:href="zerofpr-anderson-alm_8cpp.html" target="_top" xlink:title=" ">
<polygon fill="white" stroke="#666666" points="586.5,-30 464.5,-30 464.5,0 586.5,0 586.5,-30"/>
<text text-anchor="start" x="472.5" y="-18" font-family="Helvetica,sans-Serif" font-size="10.00">src/alpaqa/src/zerofpr</text>
<text text-anchor="middle" x="525.5" y="-7" font-family="Helvetica,sans-Serif" font-size="10.00">&#45;anderson&#45;alm.cpp</text>
</a>
</g>
</g>
<!-- Node2&#45;&gt;Node6 -->
<g id="edge5_Node000002_Node000006" class="edge">
<title>Node2&#45;&gt;Node6</title>
<g id="a_edge5_Node000002_Node000006"><a xlink:title=" ">
<path fill="none" stroke="#63b8ff" d="M430.44,-61.56C452.31,-51.08 477.22,-39.14 496.06,-30.11"/>
<polygon fill="#63b8ff" stroke="#63b8ff" points="428.78,-58.48 421.28,-65.96 431.81,-64.79 428.78,-58.48"/>
</a>
</g>
</g>
<!-- Node7 -->
<g id="Node000007" class="node">
<title>Node7</title>
<g id="a_Node000007"><a xlink:href="zerofpr-convex-newton-alm_8cpp.html" target="_top" xlink:title=" ">
<polygon fill="white" stroke="#666666" points="749.5,-30 611.5,-30 611.5,0 749.5,0 749.5,-30"/>
<text text-anchor="start" x="619.5" y="-18" font-family="Helvetica,sans-Serif" font-size="10.00">src/alpaqa/src/zerofpr</text>
<text text-anchor="middle" x="680.5" y="-7" font-family="Helvetica,sans-Serif" font-size="10.00">&#45;convex&#45;newton&#45;alm.cpp</text>
</a>
</g>
</g>
<!-- Node2&#45;&gt;Node7 -->
<g id="edge6_Node000002_Node000007" class="edge">
<title>Node2&#45;&gt;Node7</title>
<g id="a_edge6_Node000002_Node000007"><a xlink:title=" ">
<path fill="none" stroke="#63b8ff" d="M457.43,-65.81C516.13,-51.81 572.8,-39.23 615.19,-30.01"/>
<polygon fill="#63b8ff" stroke="#63b8ff" points="456.52,-62.43 447.61,-68.16 458.15,-69.24 456.52,-62.43"/>
</a>
</g>
</g>
<!-- Node8&#45;&gt;Node4 -->
<g id="edge8_Node000008_Node000004" class="edge">
<title>Node8&#45;&gt;Node4</title>
<g id="a_edge8_Node000008_Node000004"><a xlink:title=" ">
<path fill="none" stroke="#63b8ff" d="M77.08,-55.66C78.75,-46.76 80.49,-37.42 81.87,-30.04"/>
<polygon fill="#63b8ff" stroke="#63b8ff" points="73.59,-55.3 75.19,-65.77 80.47,-56.58 73.59,-55.3"/>
</a>
</g>
</g>
<!-- Node9&#45;&gt;Node5 -->
<g id="edge10_Node000009_Node000005" class="edge">
<title>Node9&#45;&gt;Node5</title>
<g id="a_edge10_Node000009_Node000005"><a xlink:title=" ">
<path fill="none" stroke="#63b8ff" d="M231.29,-61.25C232.49,-50.81 233.85,-38.99 234.88,-30.04"/>
<polygon fill="#63b8ff" stroke="#63b8ff" points="227.79,-61.1 230.12,-71.44 234.74,-61.9 227.79,-61.1"/>
</a>
</g>
</g>
<!-- Node10&#45;&gt;Node6 -->
<g id="edge12_Node000010_Node000006" class="edge">
<title>Node10&#45;&gt;Node6</title>
<g id="a_edge12_Node000010_Node000006"><a xlink:title=" ">
<path fill="none" stroke="#63b8ff" d="M531.21,-55.66C529.93,-46.76 528.58,-37.42 527.52,-30.04"/>
<polygon fill="#63b8ff" stroke="#63b8ff" points="527.77,-56.37 532.66,-65.77 534.7,-55.37 527.77,-56.37"/>
</a>
</g>
</g>
<!-- Node11&#45;&gt;Node7 -->
<g id="edge14_Node000011_Node000007" class="edge">
<title>Node11&#45;&gt;Node7</title>
<g id="a_edge14_Node000011_Node000007"><a xlink:title=" ">
<path fill="none" stroke="#63b8ff" d="M684.49,-55.66C683.6,-46.76 682.66,-37.42 681.91,-30.04"/>
<polygon fill="#63b8ff" stroke="#63b8ff" points="681.03,-56.17 685.51,-65.77 687.99,-55.47 681.03,-56.17"/>
</a>
</g>
</g>
</g>
</svg>
