<?xml version="1.0" encoding="UTF-8" standalone="no"?>
<!DOCTYPE svg PUBLIC "-//W3C//DTD SVG 1.1//EN"
 "http://www.w3.org/Graphics/SVG/1.1/DTD/svg11.dtd">
<!-- Generated by graphviz version 2.43.0 (0)
 -->
<!-- Title: src/alpaqa/include/alpaqa/implementation/accelerators/lbfgs.tpp Pages: 1 -->
<svg width="800pt" height="236pt"
 viewBox="0.00 0.00 799.50 236.00" xmlns="http://www.w3.org/2000/svg" xmlns:xlink="http://www.w3.org/1999/xlink">
<g id="graph0" class="graph" transform="scale(1 1) rotate(0) translate(4 232)">
<title>src/alpaqa/include/alpaqa/implementation/accelerators/lbfgs.tpp</title>
<!-- Node1 -->
<g id="Node000001" class="node">
<title>Node1</title>
<g id="a_Node000001"><a xlink:title=" ">
<polygon fill="#999999" stroke="#666666" points="692.5,-228 558.5,-228 558.5,-187 692.5,-187 692.5,-228"/>
<text text-anchor="start" x="566.5" y="-216" font-family="Helvetica,sans-Serif" font-size="10.00">src/alpaqa/include</text>
<text text-anchor="start" x="566.5" y="-205" font-family="Helvetica,sans-Serif" font-size="10.00">/alpaqa/implementation</text>
<text text-anchor="middle" x="625.5" y="-194" font-family="Helvetica,sans-Serif" font-size="10.00">/accelerators/lbfgs.tpp</text>
</a>
</g>
</g>
<!-- Node2 -->
<g id="Node000002" class="node">
<title>Node2</title>
<g id="a_Node000002"><a xlink:href="accelerators_2lbfgs_8hpp.html" target="_top" xlink:title=" ">
<polygon fill="white" stroke="#666666" points="447,-151 334,-151 334,-121 447,-121 447,-151"/>
<text text-anchor="start" x="342" y="-139" font-family="Helvetica,sans-Serif" font-size="10.00">alpaqa/accelerators</text>
<text text-anchor="middle" x="390.5" y="-128" font-family="Helvetica,sans-Serif" font-size="10.00">/lbfgs.hpp</text>
</a>
</g>
</g>
<!-- Node1&#45;&gt;Node2 -->
<g id="edge1_Node000001_Node000002" class="edge">
<title>Node1&#45;&gt;Node2</title>
<g id="a_edge1_Node000001_Node000002"><a xlink:title=" ">
<path fill="none" stroke="#63b8ff" d="M559.41,-186.96C524.2,-176.54 481.31,-163.86 447.56,-153.88"/>
<polygon fill="#63b8ff" stroke="#63b8ff" points="448.43,-150.48 437.85,-151 446.45,-157.2 448.43,-150.48"/>
</a>
</g>
</g>
<!-- Node7 -->
<g id="Node000007" class="node">
<title>Node7</title>
<g id="a_Node000007"><a xlink:title=" ">
<polygon fill="#e0e0e0" stroke="#999999" points="791.5,-24.5 747.5,-24.5 747.5,-5.5 791.5,-5.5 791.5,-24.5"/>
<text text-anchor="middle" x="769.5" y="-12.5" font-family="Helvetica,sans-Serif" font-size="10.00">limits</text>
</a>
</g>
</g>
<!-- Node1&#45;&gt;Node7 -->
<g id="edge17_Node000001_Node000007" class="edge">
<title>Node1&#45;&gt;Node7</title>
<g id="a_edge17_Node000001_Node000007"><a xlink:title=" ">
<path fill="none" stroke="#63b8ff" d="M632.19,-186.78C638.83,-168.74 650.08,-141.78 664.5,-121 689.65,-84.75 728.1,-50.05 750.83,-31.02"/>
<polygon fill="#63b8ff" stroke="#63b8ff" points="753.22,-33.58 758.71,-24.52 748.76,-28.18 753.22,-33.58"/>
</a>
</g>
</g>
<!-- Node12 -->
<g id="Node000012" class="node">
<title>Node12</title>
<g id="a_Node000012"><a xlink:title=" ">
<polygon fill="#e0e0e0" stroke="#999999" points="616,-85 569,-85 569,-66 616,-66 616,-85"/>
<text text-anchor="middle" x="592.5" y="-73" font-family="Helvetica,sans-Serif" font-size="10.00">cmath</text>
</a>
</g>
</g>
<!-- Node1&#45;&gt;Node12 -->
<g id="edge16_Node000001_Node000012" class="edge">
<title>Node1&#45;&gt;Node12</title>
<g id="a_edge16_Node000001_Node000012"><a xlink:title=" ">
<path fill="none" stroke="#63b8ff" d="M620.49,-186.76C614.14,-161.75 603.29,-119 597.13,-94.73"/>
<polygon fill="#63b8ff" stroke="#63b8ff" points="600.51,-93.84 594.66,-85.01 593.73,-95.57 600.51,-93.84"/>
</a>
</g>
</g>
<!-- Node16 -->
<g id="Node000016" class="node">
<title>Node16</title>
<g id="a_Node000016"><a xlink:title=" ">
<polygon fill="#e0e0e0" stroke="#999999" points="738,-145.5 673,-145.5 673,-126.5 738,-126.5 738,-145.5"/>
<text text-anchor="middle" x="705.5" y="-133.5" font-family="Helvetica,sans-Serif" font-size="10.00">stdexcept</text>
</a>
</g>
</g>
<!-- Node1&#45;&gt;Node16 -->
<g id="edge18_Node000001_Node000016" class="edge">
<title>Node1&#45;&gt;Node16</title>
<g id="a_edge18_Node000001_Node000016"><a xlink:title=" ">
<path fill="none" stroke="#63b8ff" d="M648.21,-186.77C660.7,-175.92 675.98,-162.65 687.61,-152.54"/>
<polygon fill="#63b8ff" stroke="#63b8ff" points="690.09,-155.02 695.35,-145.82 685.5,-149.74 690.09,-155.02"/>
</a>
</g>
</g>
<!-- Node3 -->
<g id="Node000003" class="node">
<title>Node3</title>
<g id="a_Node000003"><a xlink:href="config_8hpp.html" target="_top" xlink:title=" ">
<polygon fill="white" stroke="#666666" points="512,-85 377,-85 377,-66 512,-66 512,-85"/>
<text text-anchor="middle" x="444.5" y="-73" font-family="Helvetica,sans-Serif" font-size="10.00">alpaqa/config/config.hpp</text>
</a>
</g>
</g>
<!-- Node2&#45;&gt;Node3 -->
<g id="edge2_Node000002_Node000003" class="edge">
<title>Node2&#45;&gt;Node3</title>
<g id="a_edge2_Node000002_Node000003"><a xlink:title=" ">
<path fill="none" stroke="#63b8ff" d="M403.57,-120.84C411.41,-112.35 421.41,-101.52 429.56,-92.69"/>
<polygon fill="#63b8ff" stroke="#63b8ff" points="432.2,-94.99 436.41,-85.27 427.05,-90.24 432.2,-94.99"/>
</a>
</g>
</g>
<!-- Node2&#45;&gt;Node7 -->
<g id="edge12_Node000002_Node000007" class="edge">
<title>Node2&#45;&gt;Node7</title>
<g id="a_edge12_Node000002_Node000007"><a xlink:title=" ">
<path fill="none" stroke="#63b8ff" d="M430.13,-120.91C456.31,-111.36 491.24,-98.12 521.5,-85 539.19,-77.33 542.23,-72.17 560.5,-66 637.38,-40.02 662.41,-55.34 739.5,-30 740.9,-29.54 742.32,-29.03 743.74,-28.49"/>
<polygon fill="#63b8ff" stroke="#63b8ff" points="745.13,-31.7 752.97,-24.57 742.39,-25.26 745.13,-31.7"/>
</a>
</g>
</g>
<!-- Node10 -->
<g id="Node000010" class="node">
<title>Node10</title>
<g id="a_Node000010"><a xlink:href="export_8hpp.html" target="_top" xlink:title=" ">
<polygon fill="white" stroke="#666666" points="134,-85 29,-85 29,-66 134,-66 134,-85"/>
<text text-anchor="middle" x="81.5" y="-73" font-family="Helvetica,sans-Serif" font-size="10.00">alpaqa/export.hpp</text>
</a>
</g>
</g>
<!-- Node2&#45;&gt;Node10 -->
<g id="edge9_Node000002_Node000010" class="edge">
<title>Node2&#45;&gt;Node10</title>
<g id="a_edge9_Node000002_Node000010"><a xlink:title=" ">
<path fill="none" stroke="#63b8ff" d="M333.82,-124.27C277.73,-113.65 192.41,-97.5 136.8,-86.97"/>
<polygon fill="#63b8ff" stroke="#63b8ff" points="137.25,-83.49 126.77,-85.07 135.95,-90.37 137.25,-83.49"/>
</a>
</g>
</g>
<!-- Node2&#45;&gt;Node12 -->
<g id="edge11_Node000002_Node000012" class="edge">
<title>Node2&#45;&gt;Node12</title>
<g id="a_edge11_Node000002_Node000012"><a xlink:title=" ">
<path fill="none" stroke="#63b8ff" d="M438.88,-120.99C475.96,-110.25 526.15,-95.71 558.92,-86.22"/>
<polygon fill="#63b8ff" stroke="#63b8ff" points="560.28,-89.48 568.91,-83.33 558.33,-82.75 560.28,-89.48"/>
</a>
</g>
</g>
<!-- Node13 -->
<g id="Node000013" class="node">
<title>Node13</title>
<g id="a_Node000013"><a xlink:title=" ">
<polygon fill="#e0e0e0" stroke="#999999" points="230.5,-85 186.5,-85 186.5,-66 230.5,-66 230.5,-85"/>
<text text-anchor="middle" x="208.5" y="-73" font-family="Helvetica,sans-Serif" font-size="10.00">string</text>
</a>
</g>
</g>
<!-- Node2&#45;&gt;Node13 -->
<g id="edge13_Node000002_Node000013" class="edge">
<title>Node2&#45;&gt;Node13</title>
<g id="a_edge13_Node000002_Node000013"><a xlink:title=" ">
<path fill="none" stroke="#63b8ff" d="M346.91,-120.99C314.17,-110.47 270.08,-96.29 240.54,-86.8"/>
<polygon fill="#63b8ff" stroke="#63b8ff" points="241.33,-83.38 230.74,-83.65 239.19,-90.04 241.33,-83.38"/>
</a>
</g>
</g>
<!-- Node14 -->
<g id="Node000014" class="node">
<title>Node14</title>
<g id="a_Node000014"><a xlink:title=" ">
<polygon fill="#e0e0e0" stroke="#999999" points="294,-85 249,-85 249,-66 294,-66 294,-85"/>
<text text-anchor="middle" x="271.5" y="-73" font-family="Helvetica,sans-Serif" font-size="10.00">utility</text>
</a>
</g>
</g>
<!-- Node2&#45;&gt;Node14 -->
<g id="edge14_Node000002_Node000014" class="edge">
<title>Node2&#45;&gt;Node14</title>
<g id="a_edge14_Node000002_Node000014"><a xlink:title=" ">
<path fill="none" stroke="#63b8ff" d="M362,-120.99C342.59,-111.45 317.07,-98.9 298.08,-89.57"/>
<polygon fill="#63b8ff" stroke="#63b8ff" points="299.59,-86.41 289.07,-85.14 296.5,-92.69 299.59,-86.41"/>
</a>
</g>
</g>
<!-- Node15 -->
<g id="Node000015" class="node">
<title>Node15</title>
<g id="a_Node000015"><a xlink:title=" ">
<polygon fill="#e0e0e0" stroke="#999999" points="359,-85 312,-85 312,-66 359,-66 359,-85"/>
<text text-anchor="middle" x="335.5" y="-73" font-family="Helvetica,sans-Serif" font-size="10.00">vector</text>
</a>
</g>
</g>
<!-- Node2&#45;&gt;Node15 -->
<g id="edge15_Node000002_Node000015" class="edge">
<title>Node2&#45;&gt;Node15</title>
<g id="a_edge15_Node000002_Node000015"><a xlink:title=" ">
<path fill="none" stroke="#63b8ff" d="M377.19,-120.84C369.2,-112.35 359.02,-101.52 350.72,-92.69"/>
<polygon fill="#63b8ff" stroke="#63b8ff" points="353.14,-90.15 343.74,-85.27 348.04,-94.95 353.14,-90.15"/>
</a>
</g>
</g>
<!-- Node4 -->
<g id="Node000004" class="node">
<title>Node4</title>
<g id="a_Node000004"><a xlink:title=" ">
<polygon fill="#e0e0e0" stroke="#999999" points="526.5,-30 362.5,-30 362.5,0 526.5,0 526.5,-30"/>
<text text-anchor="start" x="370.5" y="-18" font-family="Helvetica,sans-Serif" font-size="10.00">guanaqo/quadmath/quadmath</text>
<text text-anchor="middle" x="444.5" y="-7" font-family="Helvetica,sans-Serif" font-size="10.00">&#45;print.hpp</text>
</a>
</g>
</g>
<!-- Node3&#45;&gt;Node4 -->
<g id="edge3_Node000003_Node000004" class="edge">
<title>Node3&#45;&gt;Node4</title>
<g id="a_edge3_Node000003_Node000004"><a xlink:title=" ">
<path fill="none" stroke="#63b8ff" d="M444.5,-65.87C444.5,-59.11 444.5,-49.35 444.5,-40.26"/>
<polygon fill="#63b8ff" stroke="#63b8ff" points="448,-40.11 444.5,-30.11 441,-40.11 448,-40.11"/>
</a>
</g>
</g>
<!-- Node5 -->
<g id="Node000005" class="node">
<title>Node5</title>
<g id="a_Node000005"><a xlink:title=" ">
<polygon fill="#e0e0e0" stroke="#999999" points="730,-24.5 545,-24.5 545,-5.5 730,-5.5 730,-24.5"/>
<text text-anchor="middle" x="637.5" y="-12.5" font-family="Helvetica,sans-Serif" font-size="10.00">guanaqo/quadmath/quadmath.hpp</text>
</a>
</g>
</g>
<!-- Node3&#45;&gt;Node5 -->
<g id="edge4_Node000003_Node000005" class="edge">
<title>Node3&#45;&gt;Node5</title>
<g id="a_edge4_Node000003_Node000005"><a xlink:title=" ">
<path fill="none" stroke="#63b8ff" d="M472.56,-65.99C506.01,-55.86 562.06,-38.87 599.4,-27.55"/>
<polygon fill="#63b8ff" stroke="#63b8ff" points="600.85,-30.77 609.4,-24.52 598.82,-24.07 600.85,-30.77"/>
</a>
</g>
</g>
<!-- Node6 -->
<g id="Node000006" class="node">
<title>Node6</title>
<g id="a_Node000006"><a xlink:title=" ">
<polygon fill="#e0e0e0" stroke="#999999" points="170,-24.5 111,-24.5 111,-5.5 170,-5.5 170,-24.5"/>
<text text-anchor="middle" x="140.5" y="-12.5" font-family="Helvetica,sans-Serif" font-size="10.00">complex</text>
</a>
</g>
</g>
<!-- Node3&#45;&gt;Node6 -->
<g id="edge5_Node000003_Node000006" class="edge">
<title>Node3&#45;&gt;Node6</title>
<g id="a_edge5_Node000003_Node000006"><a xlink:title=" ">
<path fill="none" stroke="#63b8ff" d="M376.8,-66.73C322.59,-59.66 244.91,-47.62 178.5,-30 176.06,-29.35 173.56,-28.61 171.06,-27.82"/>
<polygon fill="#63b8ff" stroke="#63b8ff" points="172.17,-24.5 161.58,-24.56 169.9,-31.12 172.17,-24.5"/>
</a>
</g>
</g>
<!-- Node3&#45;&gt;Node7 -->
<g id="edge6_Node000003_Node000007" class="edge">
<title>Node3&#45;&gt;Node7</title>
<g id="a_edge6_Node000003_Node000007"><a xlink:title=" ">
<path fill="none" stroke="#63b8ff" d="M512.32,-66.56C585.85,-57.54 698.22,-42.46 739.5,-30 740.94,-29.56 742.41,-29.07 743.87,-28.54"/>
<polygon fill="#63b8ff" stroke="#63b8ff" points="745.46,-31.67 753.33,-24.58 742.75,-25.21 745.46,-31.67"/>
</a>
</g>
</g>
<!-- Node8 -->
<g id="Node000008" class="node">
<title>Node8</title>
<g id="a_Node000008"><a xlink:title=" ">
<polygon fill="#e0e0e0" stroke="#999999" points="257,-24.5 188,-24.5 188,-5.5 257,-5.5 257,-24.5"/>
<text text-anchor="middle" x="222.5" y="-12.5" font-family="Helvetica,sans-Serif" font-size="10.00">type_traits</text>
</a>
</g>
</g>
<!-- Node3&#45;&gt;Node8 -->
<g id="edge7_Node000003_Node000008" class="edge">
<title>Node3&#45;&gt;Node8</title>
<g id="a_edge7_Node000003_Node000008"><a xlink:title=" ">
<path fill="none" stroke="#63b8ff" d="M406.93,-65.98C370.56,-57.54 313.98,-43.9 265.5,-30 262.9,-29.25 260.22,-28.46 257.53,-27.63"/>
<polygon fill="#63b8ff" stroke="#63b8ff" points="258.46,-24.26 247.87,-24.59 256.36,-30.93 258.46,-24.26"/>
</a>
</g>
</g>
<!-- Node9 -->
<g id="Node000009" class="node">
<title>Node9</title>
<g id="a_Node000009"><a xlink:title=" ">
<polygon fill="#e0e0e0" stroke="#999999" points="344,-24.5 275,-24.5 275,-5.5 344,-5.5 344,-24.5"/>
<text text-anchor="middle" x="309.5" y="-12.5" font-family="Helvetica,sans-Serif" font-size="10.00">Eigen/Core</text>
</a>
</g>
</g>
<!-- Node3&#45;&gt;Node9 -->
<g id="edge8_Node000003_Node000009" class="edge">
<title>Node3&#45;&gt;Node9</title>
<g id="a_edge8_Node000003_Node000009"><a xlink:title=" ">
<path fill="none" stroke="#63b8ff" d="M424.87,-65.99C402.17,-56.16 364.6,-39.88 338.53,-28.58"/>
<polygon fill="#63b8ff" stroke="#63b8ff" points="339.72,-25.28 329.15,-24.52 336.94,-31.7 339.72,-25.28"/>
</a>
</g>
</g>
<!-- Node11 -->
<g id="Node000011" class="node">
<title>Node11</title>
<g id="a_Node000011"><a xlink:title=" ">
<polygon fill="#e0e0e0" stroke="#999999" points="93,-24.5 0,-24.5 0,-5.5 93,-5.5 93,-24.5"/>
<text text-anchor="middle" x="46.5" y="-12.5" font-family="Helvetica,sans-Serif" font-size="10.00">alpaqa/export.h</text>
</a>
</g>
</g>
<!-- Node10&#45;&gt;Node11 -->
<g id="edge10_Node000010_Node000011" class="edge">
<title>Node10&#45;&gt;Node11</title>
<g id="a_edge10_Node000010_Node000011"><a xlink:title=" ">
<path fill="none" stroke="#63b8ff" d="M76.34,-65.87C71.27,-57.4 63.4,-44.24 57.01,-33.57"/>
<polygon fill="#63b8ff" stroke="#63b8ff" points="59.82,-31.45 51.69,-24.67 53.82,-35.05 59.82,-31.45"/>
</a>
</g>
</g>
</g>
</svg>
