<?xml version="1.0" encoding="UTF-8" standalone="no"?>
<!DOCTYPE svg PUBLIC "-//W3C//DTD SVG 1.1//EN"
 "http://www.w3.org/Graphics/SVG/1.1/DTD/svg11.dtd">
<!-- Generated by graphviz version 2.43.0 (0)
 -->
<!-- Title: set_param_json Pages: 1 -->
<svg width="391pt" height="27pt"
 viewBox="0.00 0.00 391.00 27.00" xmlns="http://www.w3.org/2000/svg" xmlns:xlink="http://www.w3.org/1999/xlink">
<g id="graph0" class="graph" transform="scale(1 1) rotate(0) translate(4 23)">
<title>set_param_json</title>
<!-- Node1 -->
<g id="Node000001" class="node">
<title>Node1</title>
<g id="a_Node000001"><a xlink:title=" ">
<polygon fill="#999999" stroke="#666666" points="94,-19 0,-19 0,0 94,0 94,-19"/>
<text text-anchor="middle" x="47" y="-7" font-family="Helvetica,sans-Serif" font-size="10.00">set_param_json</text>
</a>
</g>
</g>
<!-- Node2 -->
<g id="Node000002" class="node">
<title>Node2</title>
<g id="a_Node000002"><a xlink:href="namespacealpaqa_1_1params_1_1detail.html#a5eef50360de8527b24463d00629819f8" target="_top" xlink:title=" ">
<polygon fill="white" stroke="#666666" points="249,-19 130,-19 130,0 249,0 249,-19"/>
<text text-anchor="middle" x="189.5" y="-7" font-family="Helvetica,sans-Serif" font-size="10.00">find_param_or_throw</text>
</a>
</g>
</g>
<!-- Node1&#45;&gt;Node2 -->
<g id="edge1_Node000001_Node000002" class="edge">
<title>Node1&#45;&gt;Node2</title>
<g id="a_edge1_Node000001_Node000002"><a xlink:title=" ">
<path fill="none" stroke="#63b8ff" d="M94,-9.5C102.23,-9.5 110.96,-9.5 119.66,-9.5"/>
<polygon fill="#63b8ff" stroke="#63b8ff" points="119.83,-13 129.83,-9.5 119.83,-6 119.83,-13"/>
</a>
</g>
</g>
<!-- Node3 -->
<g id="Node000003" class="node">
<title>Node3</title>
<g id="a_Node000003"><a xlink:href="namespacealpaqa_1_1params_1_1detail.html#a6aa41a8827ffd36b3e2a8e7346a44f19" target="_top" xlink:title=" ">
<polygon fill="white" stroke="#666666" points="383,-19 285,-19 285,0 383,0 383,-19"/>
<text text-anchor="middle" x="334" y="-7" font-family="Helvetica,sans-Serif" font-size="10.00">join_sorted_keys</text>
</a>
</g>
</g>
<!-- Node2&#45;&gt;Node3 -->
<g id="edge2_Node000002_Node000003" class="edge">
<title>Node2&#45;&gt;Node3</title>
<g id="a_edge2_Node000002_Node000003"><a xlink:title=" ">
<path fill="none" stroke="#63b8ff" d="M249.28,-9.5C257.68,-9.5 266.31,-9.5 274.69,-9.5"/>
<polygon fill="#63b8ff" stroke="#63b8ff" points="274.77,-13 284.77,-9.5 274.77,-6 274.77,-13"/>
</a>
</g>
</g>
</g>
</svg>
