<?xml version="1.0" encoding="UTF-8" standalone="no"?>
<!DOCTYPE svg PUBLIC "-//W3C//DTD SVG 1.1//EN"
 "http://www.w3.org/Graphics/SVG/1.1/DTD/svg11.dtd">
<!-- Generated by graphviz version 2.43.0 (0)
 -->
<!-- Title: PolymorphicPANOCDefaultConversion Pages: 1 -->
<svg width="412pt" height="66pt"
 viewBox="0.00 0.00 412.00 66.00" xmlns="http://www.w3.org/2000/svg" xmlns:xlink="http://www.w3.org/1999/xlink">
<g id="graph0" class="graph" transform="scale(1 1) rotate(0) translate(4 62)">
<title>PolymorphicPANOCDefaultConversion</title>
<polygon fill="white" stroke="transparent" points="-4,4 -4,-62 408,-62 408,4 -4,4"/>
<!-- Node1 -->
<g id="node1" class="node">
<title>Node1</title>
<g id="a_node1"><a xlink:title=" ">
<polygon fill="#bfbfbf" stroke="black" points="0,-19.5 0,-38.5 202,-38.5 202,-19.5 0,-19.5"/>
<text text-anchor="middle" x="101" y="-26.5" font-family="Helvetica,sans-Serif" font-size="10.00">PolymorphicPANOCDefaultConversion</text>
</a>
</g>
</g>
<!-- Node2 -->
<g id="node2" class="node">
<title>Node2</title>
<g id="a_node2"><a xlink:href="alpaqa_8cpp.html#a67465c26bee7fd06be2b8bab1465fe30" target="_top" xlink:title=" ">
<polygon fill="white" stroke="black" points="238,-38.5 238,-57.5 404,-57.5 404,-38.5 238,-38.5"/>
<text text-anchor="middle" x="321" y="-45.5" font-family="Helvetica,sans-Serif" font-size="10.00">PolymorphicPANOCConversion</text>
</a>
</g>
</g>
<!-- Node1&#45;&gt;Node2 -->
<g id="edge1" class="edge">
<title>Node1&#45;&gt;Node2</title>
<path fill="none" stroke="midnightblue" d="M202.07,-37.72C210.58,-38.46 219.17,-39.21 227.62,-39.95"/>
<polygon fill="midnightblue" stroke="midnightblue" points="227.58,-43.46 237.85,-40.84 228.19,-36.48 227.58,-43.46"/>
</g>
<!-- Node3 -->
<g id="node3" class="node">
<title>Node3</title>
<g id="a_node3"><a xlink:href="kwargs-to-struct_8hpp.html#a89c63460319971ac54e62f7b45550a70" target="_top" xlink:title=" ">
<polygon fill="white" stroke="black" points="260.5,-0.5 260.5,-19.5 381.5,-19.5 381.5,-0.5 260.5,-0.5"/>
<text text-anchor="middle" x="321" y="-7.5" font-family="Helvetica,sans-Serif" font-size="10.00">var_kwargs_to_struct</text>
</a>
</g>
</g>
<!-- Node1&#45;&gt;Node3 -->
<g id="edge2" class="edge">
<title>Node1&#45;&gt;Node3</title>
<path fill="none" stroke="midnightblue" d="M202.07,-20.28C218.26,-18.87 234.71,-17.43 249.98,-16.1"/>
<polygon fill="midnightblue" stroke="midnightblue" points="250.7,-19.55 260.35,-15.2 250.09,-12.58 250.7,-19.55"/>
</g>
</g>
</svg>
