<?xml version="1.0" encoding="UTF-8" standalone="no"?>
<!DOCTYPE svg PUBLIC "-//W3C//DTD SVG 1.1//EN"
 "http://www.w3.org/Graphics/SVG/1.1/DTD/svg11.dtd">
<!-- Generated by graphviz version 2.43.0 (0)
 -->
<!-- Title: main Pages: 1 -->
<svg width="344pt" height="39pt"
 viewBox="0.00 0.00 344.00 39.00" xmlns="http://www.w3.org/2000/svg" xmlns:xlink="http://www.w3.org/1999/xlink">
<g id="graph0" class="graph" transform="scale(1 1) rotate(0) translate(4 35)">
<title>main</title>
<polygon fill="white" stroke="transparent" points="-4,4 -4,-35 340,-35 340,4 -4,4"/>
<!-- Node1 -->
<g id="node1" class="node">
<title>Node1</title>
<g id="a_node1"><a xlink:title=" ">
<polygon fill="#bfbfbf" stroke="black" points="0,-6 0,-25 41,-25 41,-6 0,-6"/>
<text text-anchor="middle" x="20.5" y="-13" font-family="Helvetica,sans-Serif" font-size="10.00">main</text>
</a>
</g>
</g>
<!-- Node2 -->
<g id="node2" class="node">
<title>Node2</title>
<g id="a_node2"><a xlink:href="group__grp__ExternalProblemLoaders.html#ga9058ef9196ceb5977f1092e89812f860" target="_top" xlink:title="Load a problem generated by CasADi (without parameters).">
<polygon fill="white" stroke="black" points="77,-0.5 77,-30.5 194,-30.5 194,-0.5 77,-0.5"/>
<text text-anchor="start" x="85" y="-18.5" font-family="Helvetica,sans-Serif" font-size="10.00">alpaqa::load_CasADi</text>
<text text-anchor="middle" x="135.5" y="-7.5" font-family="Helvetica,sans-Serif" font-size="10.00">_problem</text>
</a>
</g>
</g>
<!-- Node1&#45;&gt;Node2 -->
<g id="edge1" class="edge">
<title>Node1&#45;&gt;Node2</title>
<path fill="none" stroke="midnightblue" d="M41.18,-15.5C48.52,-15.5 57.32,-15.5 66.55,-15.5"/>
<polygon fill="midnightblue" stroke="midnightblue" points="66.69,-19 76.69,-15.5 66.69,-12 66.69,-19"/>
</g>
<!-- Node3 -->
<g id="node3" class="node">
<title>Node3</title>
<g id="a_node3"><a xlink:href="namespacealpaqa.html#ae032fe01c63999e5a8110c634bf5a815" target="_top" xlink:title=" ">
<polygon fill="white" stroke="black" points="230,-6 230,-25 336,-25 336,-6 230,-6"/>
<text text-anchor="middle" x="283" y="-13" font-family="Helvetica,sans-Serif" font-size="10.00">alpaqa::wrap_load</text>
</a>
</g>
</g>
<!-- Node2&#45;&gt;Node3 -->
<g id="edge2" class="edge">
<title>Node2&#45;&gt;Node3</title>
<path fill="none" stroke="midnightblue" d="M194.01,-15.5C202.36,-15.5 211,-15.5 219.45,-15.5"/>
<polygon fill="midnightblue" stroke="midnightblue" points="219.64,-19 229.64,-15.5 219.64,-12 219.64,-19"/>
</g>
</g>
</svg>
