<?xml version="1.0" encoding="UTF-8" standalone="no"?>
<!DOCTYPE svg PUBLIC "-//W3C//DTD SVG 1.1//EN"
 "http://www.w3.org/Graphics/SVG/1.1/DTD/svg11.dtd">
<!-- Generated by graphviz version 2.43.0 (0)
 -->
<!-- Title: PolymorphicPANOCDirectionTrampoline Pages: 1 -->
<svg width="198pt" height="452pt"
 viewBox="0.00 0.00 198.00 452.00" xmlns="http://www.w3.org/2000/svg" xmlns:xlink="http://www.w3.org/1999/xlink">
<g id="graph0" class="graph" transform="scale(1 1) rotate(0) translate(4 448)">
<title>PolymorphicPANOCDirectionTrampoline</title>
<polygon fill="white" stroke="transparent" points="-4,4 -4,-448 194,-448 194,4 -4,4"/>
<!-- Node1 -->
<g id="node1" class="node">
<title>Node1</title>
<g id="a_node1"><a xlink:title=" ">
<polygon fill="#bfbfbf" stroke="black" points="17.5,-0.5 17.5,-134.5 172.5,-134.5 172.5,-0.5 17.5,-0.5"/>
<text text-anchor="start" x="25.5" y="-122.5" font-family="Helvetica,sans-Serif" font-size="10.00">PolymorphicPANOCDirection</text>
<text text-anchor="middle" x="95" y="-111.5" font-family="Helvetica,sans-Serif" font-size="10.00">Trampoline</text>
<polyline fill="none" stroke="black" points="17.5,-104.5 172.5,-104.5 "/>
<text text-anchor="middle" x="95" y="-92.5" font-family="Helvetica,sans-Serif" font-size="10.00"> </text>
<polyline fill="none" stroke="black" points="17.5,-85.5 172.5,-85.5 "/>
<text text-anchor="start" x="25.5" y="-73.5" font-family="Helvetica,sans-Serif" font-size="10.00">+ initialize()</text>
<text text-anchor="start" x="25.5" y="-62.5" font-family="Helvetica,sans-Serif" font-size="10.00">+ update()</text>
<text text-anchor="start" x="25.5" y="-51.5" font-family="Helvetica,sans-Serif" font-size="10.00">+ apply()</text>
<text text-anchor="start" x="25.5" y="-40.5" font-family="Helvetica,sans-Serif" font-size="10.00">+ changed_γ()</text>
<text text-anchor="start" x="25.5" y="-29.5" font-family="Helvetica,sans-Serif" font-size="10.00">+ reset()</text>
<text text-anchor="start" x="25.5" y="-18.5" font-family="Helvetica,sans-Serif" font-size="10.00">+ get_name()</text>
<text text-anchor="start" x="25.5" y="-7.5" font-family="Helvetica,sans-Serif" font-size="10.00">+ get_params()</text>
</a>
</g>
</g>
<!-- Node2 -->
<g id="node2" class="node">
<title>Node2</title>
<g id="a_node2"><a xlink:href="classalpaqa_1_1PolymorphicPANOCDirectionBase.html" target="_top" xlink:title=" ">
<polygon fill="white" stroke="black" points="5.5,-171.5 5.5,-327.5 184.5,-327.5 184.5,-171.5 5.5,-171.5"/>
<text text-anchor="middle" x="95" y="-315.5" font-family="Helvetica,sans-Serif" font-size="10.00">PolymorphicPANOCDirectionBase</text>
<polyline fill="none" stroke="black" points="5.5,-308.5 184.5,-308.5 "/>
<text text-anchor="middle" x="95" y="-296.5" font-family="Helvetica,sans-Serif" font-size="10.00"> </text>
<polyline fill="none" stroke="black" points="5.5,-289.5 184.5,-289.5 "/>
<text text-anchor="start" x="13.5" y="-277.5" font-family="Helvetica,sans-Serif" font-size="10.00">+ ~PolymorphicPANOCDirection</text>
<text text-anchor="start" x="13.5" y="-266.5" font-family="Helvetica,sans-Serif" font-size="10.00">Base()</text>
<text text-anchor="start" x="13.5" y="-255.5" font-family="Helvetica,sans-Serif" font-size="10.00">+ initialize()</text>
<text text-anchor="start" x="13.5" y="-244.5" font-family="Helvetica,sans-Serif" font-size="10.00">+ update()</text>
<text text-anchor="start" x="13.5" y="-233.5" font-family="Helvetica,sans-Serif" font-size="10.00">+ apply()</text>
<text text-anchor="start" x="13.5" y="-222.5" font-family="Helvetica,sans-Serif" font-size="10.00">+ changed_γ()</text>
<text text-anchor="start" x="13.5" y="-211.5" font-family="Helvetica,sans-Serif" font-size="10.00">+ reset()</text>
<text text-anchor="start" x="13.5" y="-200.5" font-family="Helvetica,sans-Serif" font-size="10.00">+ get_name()</text>
<text text-anchor="start" x="13.5" y="-189.5" font-family="Helvetica,sans-Serif" font-size="10.00">+ apply_ret()</text>
<text text-anchor="start" x="13.5" y="-178.5" font-family="Helvetica,sans-Serif" font-size="10.00">+ get_params()</text>
</a>
</g>
</g>
<!-- Node2&#45;&gt;Node1 -->
<g id="edge1" class="edge">
<title>Node2&#45;&gt;Node1</title>
<path fill="none" stroke="midnightblue" d="M95,-161.31C95,-152.36 95,-143.37 95,-134.69"/>
<polygon fill="none" stroke="midnightblue" points="91.5,-161.38 95,-171.38 98.5,-161.38 91.5,-161.38"/>
</g>
<!-- Node3 -->
<g id="node3" class="node">
<title>Node3</title>
<g id="a_node3"><a xlink:title=" ">
<polygon fill="white" stroke="#bfbfbf" points="0,-364.5 0,-443.5 190,-443.5 190,-364.5 0,-364.5"/>
<text text-anchor="start" x="8" y="-431.5" font-family="Helvetica,sans-Serif" font-size="10.00">enable_shared_from</text>
<text text-anchor="start" x="8" y="-420.5" font-family="Helvetica,sans-Serif" font-size="10.00">_this&lt; PolymorphicPANOCDirection</text>
<text text-anchor="middle" x="95" y="-409.5" font-family="Helvetica,sans-Serif" font-size="10.00">Base &gt;</text>
<polyline fill="none" stroke="#bfbfbf" points="0,-402.5 190,-402.5 "/>
<text text-anchor="middle" x="95" y="-390.5" font-family="Helvetica,sans-Serif" font-size="10.00"> </text>
<polyline fill="none" stroke="#bfbfbf" points="0,-383.5 190,-383.5 "/>
<text text-anchor="middle" x="95" y="-371.5" font-family="Helvetica,sans-Serif" font-size="10.00"> </text>
</a>
</g>
</g>
<!-- Node3&#45;&gt;Node2 -->
<g id="edge2" class="edge">
<title>Node3&#45;&gt;Node2</title>
<path fill="none" stroke="midnightblue" d="M95,-354.08C95,-345.61 95,-336.62 95,-327.61"/>
<polygon fill="none" stroke="midnightblue" points="91.5,-354.12 95,-364.12 98.5,-354.12 91.5,-354.12"/>
</g>
</g>
</svg>
