<?xml version="1.0" encoding="UTF-8" standalone="no"?>
<!DOCTYPE svg PUBLIC "-//W3C//DTD SVG 1.1//EN"
 "http://www.w3.org/Graphics/SVG/1.1/DTD/svg11.dtd">
<!-- Generated by graphviz version 2.43.0 (0)
 -->
<!-- Title: CasADiParamWrapper Pages: 1 -->
<svg width="583pt" height="375pt"
 viewBox="0.00 0.00 582.50 375.00" xmlns="http://www.w3.org/2000/svg" xmlns:xlink="http://www.w3.org/1999/xlink">
<g id="graph0" class="graph" transform="scale(1 1) rotate(0) translate(4 371)">
<title>CasADiParamWrapper</title>
<polygon fill="white" stroke="transparent" points="-4,4 -4,-371 578.5,-371 578.5,4 -4,4"/>
<!-- Node1 -->
<g id="node1" class="node">
<title>Node1</title>
<g id="a_node1"><a xlink:title=" ">
<polygon fill="#bfbfbf" stroke="black" points="150,-0.5 150,-90.5 288,-90.5 288,-0.5 150,-0.5"/>
<text text-anchor="middle" x="219" y="-78.5" font-family="Helvetica,sans-Serif" font-size="10.00">CasADiParamWrapper</text>
<polyline fill="none" stroke="black" points="150,-71.5 288,-71.5 "/>
<text text-anchor="middle" x="219" y="-59.5" font-family="Helvetica,sans-Serif" font-size="10.00"> </text>
<polyline fill="none" stroke="black" points="150,-52.5 288,-52.5 "/>
<text text-anchor="start" x="158" y="-40.5" font-family="Helvetica,sans-Serif" font-size="10.00">+ wrap()</text>
<text text-anchor="start" x="158" y="-29.5" font-family="Helvetica,sans-Serif" font-size="10.00">+ clone()</text>
<text text-anchor="start" x="158" y="-18.5" font-family="Helvetica,sans-Serif" font-size="10.00">+ create()</text>
<text text-anchor="start" x="158" y="-7.5" font-family="Helvetica,sans-Serif" font-size="10.00">&#45; CasADiParamWrapper()</text>
</a>
</g>
</g>
<!-- Node2 -->
<g id="node2" class="node">
<title>Node2</title>
<g id="a_node2"><a xlink:href="classalpaqa_1_1ParamWrapper.html" target="_top" xlink:title=" ">
<polygon fill="white" stroke="black" points="0,-138.5 0,-228.5 116,-228.5 116,-138.5 0,-138.5"/>
<text text-anchor="middle" x="58" y="-216.5" font-family="Helvetica,sans-Serif" font-size="10.00">ParamWrapper</text>
<polyline fill="none" stroke="black" points="0,-209.5 116,-209.5 "/>
<text text-anchor="start" x="8" y="-197.5" font-family="Helvetica,sans-Serif" font-size="10.00">+ param</text>
<polyline fill="none" stroke="black" points="0,-190.5 116,-190.5 "/>
<text text-anchor="start" x="8" y="-178.5" font-family="Helvetica,sans-Serif" font-size="10.00">+ ParamWrapper()</text>
<text text-anchor="start" x="8" y="-167.5" font-family="Helvetica,sans-Serif" font-size="10.00">+ ~ParamWrapper()</text>
<text text-anchor="start" x="8" y="-156.5" font-family="Helvetica,sans-Serif" font-size="10.00">+ wrap()</text>
<text text-anchor="start" x="8" y="-145.5" font-family="Helvetica,sans-Serif" font-size="10.00">+ clone()</text>
</a>
</g>
</g>
<!-- Node2&#45;&gt;Node1 -->
<g id="edge1" class="edge">
<title>Node2&#45;&gt;Node1</title>
<path fill="none" stroke="midnightblue" d="M118.02,-131.8C134.02,-118.29 151.17,-103.8 166.71,-90.67"/>
<polygon fill="none" stroke="midnightblue" points="115.65,-129.22 110.27,-138.34 120.17,-134.57 115.65,-129.22"/>
</g>
<!-- Node3 -->
<g id="node3" class="node">
<title>Node3</title>
<g id="a_node3"><a xlink:title=" ">
<polygon fill="white" stroke="#bfbfbf" points="134,-149.5 134,-217.5 304,-217.5 304,-149.5 134,-149.5"/>
<text text-anchor="start" x="142" y="-205.5" font-family="Helvetica,sans-Serif" font-size="10.00">enable_shared_from</text>
<text text-anchor="middle" x="219" y="-194.5" font-family="Helvetica,sans-Serif" font-size="10.00">_this&lt; CasADiParamWrapper &gt;</text>
<polyline fill="none" stroke="#bfbfbf" points="134,-187.5 304,-187.5 "/>
<text text-anchor="middle" x="219" y="-175.5" font-family="Helvetica,sans-Serif" font-size="10.00"> </text>
<polyline fill="none" stroke="#bfbfbf" points="134,-168.5 304,-168.5 "/>
<text text-anchor="middle" x="219" y="-156.5" font-family="Helvetica,sans-Serif" font-size="10.00"> </text>
</a>
</g>
</g>
<!-- Node3&#45;&gt;Node1 -->
<g id="edge2" class="edge">
<title>Node3&#45;&gt;Node1</title>
<path fill="none" stroke="midnightblue" d="M219,-138.92C219,-123.52 219,-106.18 219,-90.73"/>
<polygon fill="none" stroke="midnightblue" points="215.5,-139.23 219,-149.23 222.5,-139.23 215.5,-139.23"/>
</g>
<!-- Node4 -->
<g id="node4" class="node">
<title>Node4</title>
<g id="a_node4"><a xlink:href="classalpaqa_1_1CasADiParamWrapper.html#structalpaqa_1_1CasADiParamWrapper_1_1Functions" target="_top" xlink:title=" ">
<polygon fill="white" stroke="black" points="322,-149.5 322,-217.5 410,-217.5 410,-149.5 322,-149.5"/>
<text text-anchor="middle" x="366" y="-205.5" font-family="Helvetica,sans-Serif" font-size="10.00">Functions</text>
<polyline fill="none" stroke="black" points="322,-198.5 410,-198.5 "/>
<text text-anchor="start" x="330" y="-186.5" font-family="Helvetica,sans-Serif" font-size="10.00">+ hess_L</text>
<text text-anchor="start" x="330" y="-175.5" font-family="Helvetica,sans-Serif" font-size="10.00">+ hess_L_prod</text>
<polyline fill="none" stroke="black" points="322,-168.5 410,-168.5 "/>
<text text-anchor="middle" x="366" y="-156.5" font-family="Helvetica,sans-Serif" font-size="10.00"> </text>
</a>
</g>
</g>
<!-- Node4&#45;&gt;Node1 -->
<g id="edge3" class="edge">
<title>Node4&#45;&gt;Node1</title>
<path fill="none" stroke="#404040" d="M330.04,-149.23C313.68,-134.09 293.92,-115.82 275.64,-98.9"/>
<polygon fill="none" stroke="#404040" points="275.61,-98.88 268.49,-97.74 266.8,-90.73 273.92,-91.86 275.61,-98.88"/>
<text text-anchor="middle" x="307" y="-112" font-family="Helvetica,sans-Serif" font-size="10.00"> +cs</text>
</g>
<!-- Node5 -->
<g id="node5" class="node">
<title>Node5</title>
<g id="a_node5"><a xlink:href="classCasADiFun__2Vi1So.html" target="_top" xlink:title="Wrapper for CasADiFunctionEvaluator with 2 vector inputs, scalar output.">
<polygon fill="white" stroke="black" points="157.5,-293 157.5,-361 284.5,-361 284.5,-293 157.5,-293"/>
<text text-anchor="middle" x="221" y="-349" font-family="Helvetica,sans-Serif" font-size="10.00">CasADiFun_2Vi1So</text>
<polyline fill="none" stroke="black" points="157.5,-342 284.5,-342 "/>
<text text-anchor="start" x="165.5" y="-330" font-family="Helvetica,sans-Serif" font-size="10.00">&#45; fun</text>
<polyline fill="none" stroke="black" points="157.5,-323 284.5,-323 "/>
<text text-anchor="start" x="165.5" y="-311" font-family="Helvetica,sans-Serif" font-size="10.00">+ CasADiFun_2Vi1So()</text>
<text text-anchor="start" x="165.5" y="-300" font-family="Helvetica,sans-Serif" font-size="10.00">+ operator()()</text>
</a>
</g>
</g>
<!-- Node5&#45;&gt;Node4 -->
<g id="edge4" class="edge">
<title>Node5&#45;&gt;Node4</title>
<path fill="none" stroke="#404040" d="M255,-292.82C275.37,-272.94 301.47,-247.47 323.24,-226.23"/>
<polygon fill="none" stroke="#404040" points="323.38,-226.09 324.88,-219.04 331.97,-217.71 330.47,-224.77 323.38,-226.09"/>
<text text-anchor="middle" x="305" y="-255.5" font-family="Helvetica,sans-Serif" font-size="10.00"> +f</text>
</g>
<!-- Node6 -->
<g id="node6" class="node">
<title>Node6</title>
<g id="a_node6"><a xlink:href="classCasADiFun__2Vi1Vo.html" target="_top" xlink:title="Wrapper for CasADiFunctionEvaluator with 2 vector inputs, 1 vector output.">
<polygon fill="white" stroke="black" points="302.5,-287.5 302.5,-366.5 429.5,-366.5 429.5,-287.5 302.5,-287.5"/>
<text text-anchor="middle" x="366" y="-354.5" font-family="Helvetica,sans-Serif" font-size="10.00">CasADiFun_2Vi1Vo</text>
<polyline fill="none" stroke="black" points="302.5,-347.5 429.5,-347.5 "/>
<text text-anchor="start" x="310.5" y="-335.5" font-family="Helvetica,sans-Serif" font-size="10.00">&#45; fun</text>
<polyline fill="none" stroke="black" points="302.5,-328.5 429.5,-328.5 "/>
<text text-anchor="start" x="310.5" y="-316.5" font-family="Helvetica,sans-Serif" font-size="10.00">+ CasADiFun_2Vi1Vo()</text>
<text text-anchor="start" x="310.5" y="-305.5" font-family="Helvetica,sans-Serif" font-size="10.00">+ CasADiFun_2Vi1Vo()</text>
<text text-anchor="start" x="310.5" y="-294.5" font-family="Helvetica,sans-Serif" font-size="10.00">+ operator()()</text>
</a>
</g>
</g>
<!-- Node6&#45;&gt;Node4 -->
<g id="edge5" class="edge">
<title>Node6&#45;&gt;Node4</title>
<path fill="none" stroke="#404040" d="M366,-287.33C366,-269.56 366,-248.37 366,-229.85"/>
<polygon fill="none" stroke="#404040" points="366,-229.83 362,-223.83 366,-217.83 370,-223.83 366,-229.83"/>
<text text-anchor="middle" x="386" y="-261" font-family="Helvetica,sans-Serif" font-size="10.00"> +g</text>
<text text-anchor="middle" x="386" y="-250" font-family="Helvetica,sans-Serif" font-size="10.00">+grad_f</text>
</g>
<!-- Node7 -->
<g id="node7" class="node">
<title>Node7</title>
<g id="a_node7"><a xlink:href="classCasADiFun__3Vi1Vo.html" target="_top" xlink:title="Wrapper for CasADiFunctionEvaluator with 3 vector inputs, 1 vector output.">
<polygon fill="white" stroke="black" points="447.5,-293 447.5,-361 574.5,-361 574.5,-293 447.5,-293"/>
<text text-anchor="middle" x="511" y="-349" font-family="Helvetica,sans-Serif" font-size="10.00">CasADiFun_3Vi1Vo</text>
<polyline fill="none" stroke="black" points="447.5,-342 574.5,-342 "/>
<text text-anchor="start" x="455.5" y="-330" font-family="Helvetica,sans-Serif" font-size="10.00">&#45; fun</text>
<polyline fill="none" stroke="black" points="447.5,-323 574.5,-323 "/>
<text text-anchor="start" x="455.5" y="-311" font-family="Helvetica,sans-Serif" font-size="10.00">+ CasADiFun_3Vi1Vo()</text>
<text text-anchor="start" x="455.5" y="-300" font-family="Helvetica,sans-Serif" font-size="10.00">+ operator()()</text>
</a>
</g>
</g>
<!-- Node7&#45;&gt;Node4 -->
<g id="edge6" class="edge">
<title>Node7&#45;&gt;Node4</title>
<path fill="none" stroke="#404040" d="M477,-292.82C456.63,-272.94 430.53,-247.47 408.76,-226.23"/>
<polygon fill="none" stroke="#404040" points="408.62,-226.09 401.53,-224.77 400.03,-217.71 407.12,-219.04 408.62,-226.09"/>
<text text-anchor="middle" x="487" y="-255.5" font-family="Helvetica,sans-Serif" font-size="10.00"> +grad_g_prod</text>
</g>
</g>
</svg>
