<?xml version="1.0" encoding="UTF-8" standalone="no"?>
<!DOCTYPE svg PUBLIC "-//W3C//DTD SVG 1.1//EN"
 "http://www.w3.org/Graphics/SVG/1.1/DTD/svg11.dtd">
<!-- Generated by graphviz version 2.43.0 (0)
 -->
<!-- Title: solve Pages: 1 -->
<svg width="465pt" height="85pt"
 viewBox="0.00 0.00 465.00 85.00" xmlns="http://www.w3.org/2000/svg" xmlns:xlink="http://www.w3.org/1999/xlink">
<g id="graph0" class="graph" transform="scale(1 1) rotate(0) translate(4 81)">
<title>solve</title>
<polygon fill="white" stroke="transparent" points="-4,4 -4,-81 461,-81 461,4 -4,4"/>
<!-- Node1 -->
<g id="node1" class="node">
<title>Node1</title>
<g id="a_node1"><a xlink:title="Solve the least squares problem AX = B.">
<polygon fill="#bfbfbf" stroke="black" points="0,-38.5 0,-57.5 43,-57.5 43,-38.5 0,-38.5"/>
<text text-anchor="middle" x="21.5" y="-45.5" font-family="Helvetica,sans-Serif" font-size="10.00">solve</text>
</a>
</g>
</g>
<!-- Node2 -->
<g id="node2" class="node">
<title>Node2</title>
<g id="a_node2"><a xlink:href="classalpaqa_1_1LimitedMemoryQR.html#a98e2d9685769a3ebb2c0c9600a4c77b2" target="_top" xlink:title="Get the number of columns that are currently stored.">
<polygon fill="white" stroke="black" points="79,-57.5 79,-76.5 164,-76.5 164,-57.5 79,-57.5"/>
<text text-anchor="middle" x="121.5" y="-64.5" font-family="Helvetica,sans-Serif" font-size="10.00">num_columns</text>
</a>
</g>
</g>
<!-- Node1&#45;&gt;Node2 -->
<g id="edge1" class="edge">
<title>Node1&#45;&gt;Node2</title>
<path fill="none" stroke="midnightblue" d="M43.28,-52.03C50.88,-53.5 59.84,-55.24 68.92,-57"/>
<polygon fill="midnightblue" stroke="midnightblue" points="68.28,-60.44 78.76,-58.91 69.61,-53.57 68.28,-60.44"/>
</g>
<!-- Node3 -->
<g id="node3" class="node">
<title>Node3</title>
<g id="a_node3"><a xlink:href="classalpaqa_1_1LimitedMemoryQR.html#a7a60dfe0a5f68bc1efec69e406a2b619" target="_top" xlink:title="Solve the least squares problem Ax = b.">
<polygon fill="white" stroke="black" points="90.5,-19.5 90.5,-38.5 152.5,-38.5 152.5,-19.5 90.5,-19.5"/>
<text text-anchor="middle" x="121.5" y="-26.5" font-family="Helvetica,sans-Serif" font-size="10.00">solve_col</text>
</a>
</g>
</g>
<!-- Node1&#45;&gt;Node3 -->
<g id="edge2" class="edge">
<title>Node1&#45;&gt;Node3</title>
<path fill="none" stroke="midnightblue" d="M43.28,-43.97C54.1,-41.87 67.7,-39.24 80.46,-36.76"/>
<polygon fill="midnightblue" stroke="midnightblue" points="81.3,-40.17 90.45,-34.83 79.96,-33.29 81.3,-40.17"/>
</g>
<!-- Node4 -->
<g id="node4" class="node">
<title>Node4</title>
<g id="a_node4"><a xlink:href="classalpaqa_1_1LimitedMemoryQR.html#ae82972feb159f229f6914c036291c0d4" target="_top" xlink:title="Get iterators in the circular buffer.">
<polygon fill="white" stroke="black" points="335,-19.5 335,-38.5 392,-38.5 392,-19.5 335,-19.5"/>
<text text-anchor="middle" x="363.5" y="-26.5" font-family="Helvetica,sans-Serif" font-size="10.00">ring_iter</text>
</a>
</g>
</g>
<!-- Node3&#45;&gt;Node4 -->
<g id="edge3" class="edge">
<title>Node3&#45;&gt;Node4</title>
<path fill="none" stroke="midnightblue" d="M152.9,-29C196.64,-29 277.28,-29 324.77,-29"/>
<polygon fill="midnightblue" stroke="midnightblue" points="324.95,-32.5 334.95,-29 324.95,-25.5 324.95,-32.5"/>
</g>
<!-- Node6 -->
<g id="node6" class="node">
<title>Node6</title>
<g id="a_node6"><a xlink:href="classalpaqa_1_1LimitedMemoryQR.html#aa422d549bc3e631fa73047a8bfe4a5e5" target="_top" xlink:title="Get reverse iterators in the circular buffer.">
<polygon fill="white" stroke="black" points="200,-0.5 200,-19.5 299,-19.5 299,-0.5 200,-0.5"/>
<text text-anchor="middle" x="249.5" y="-7.5" font-family="Helvetica,sans-Serif" font-size="10.00">ring_reverse_iter</text>
</a>
</g>
</g>
<!-- Node3&#45;&gt;Node6 -->
<g id="edge5" class="edge">
<title>Node3&#45;&gt;Node6</title>
<path fill="none" stroke="midnightblue" d="M152.68,-24.45C163.82,-22.77 176.87,-20.8 189.68,-18.87"/>
<polygon fill="midnightblue" stroke="midnightblue" points="190.5,-22.28 199.87,-17.33 189.46,-15.36 190.5,-22.28"/>
</g>
<!-- Node5 -->
<g id="node5" class="node">
<title>Node5</title>
<g id="a_node5"><a xlink:href="classalpaqa_1_1LimitedMemoryQR.html#af83f6287b8ea07acdcfa4670af30cbbf" target="_top" xlink:title=" ">
<polygon fill="white" stroke="black" points="428,-19.5 428,-38.5 457,-38.5 457,-19.5 428,-19.5"/>
<text text-anchor="middle" x="442.5" y="-26.5" font-family="Helvetica,sans-Serif" font-size="10.00">m</text>
</a>
</g>
</g>
<!-- Node4&#45;&gt;Node5 -->
<g id="edge4" class="edge">
<title>Node4&#45;&gt;Node5</title>
<path fill="none" stroke="midnightblue" d="M392.3,-29C400.59,-29 409.6,-29 417.62,-29"/>
<polygon fill="midnightblue" stroke="midnightblue" points="417.78,-32.5 427.78,-29 417.78,-25.5 417.78,-32.5"/>
</g>
<!-- Node6&#45;&gt;Node4 -->
<g id="edge6" class="edge">
<title>Node6&#45;&gt;Node4</title>
<path fill="none" stroke="midnightblue" d="M299.3,-18.28C307.84,-19.73 316.6,-21.21 324.78,-22.6"/>
<polygon fill="midnightblue" stroke="midnightblue" points="324.33,-26.07 334.77,-24.3 325.5,-19.17 324.33,-26.07"/>
</g>
</g>
</svg>
