<?xml version="1.0" encoding="UTF-8" standalone="no"?>
<!DOCTYPE svg PUBLIC "-//W3C//DTD SVG 1.1//EN"
 "http://www.w3.org/Graphics/SVG/1.1/DTD/svg11.dtd">
<!-- Generated by graphviz version 2.43.0 (0)
 -->
<!-- Title: PolymorphicPANOCDirection&lt; DirectionProviderT &gt; Pages: 1 -->
<svg width="198pt" height="474pt"
 viewBox="0.00 0.00 198.00 474.00" xmlns="http://www.w3.org/2000/svg" xmlns:xlink="http://www.w3.org/1999/xlink">
<g id="graph0" class="graph" transform="scale(1 1) rotate(0) translate(4 470)">
<title>PolymorphicPANOCDirection&lt; DirectionProviderT &gt;</title>
<polygon fill="white" stroke="transparent" points="-4,4 -4,-470 194,-470 194,4 -4,4"/>
<!-- Node1 -->
<g id="node1" class="node">
<title>Node1</title>
<g id="a_node1"><a xlink:title=" ">
<polygon fill="#bfbfbf" stroke="black" points="8,-0.5 8,-156.5 182,-156.5 182,-0.5 8,-0.5"/>
<text text-anchor="start" x="16" y="-144.5" font-family="Helvetica,sans-Serif" font-size="10.00">PolymorphicPANOCDirection</text>
<text text-anchor="middle" x="95" y="-133.5" font-family="Helvetica,sans-Serif" font-size="10.00">&lt; DirectionProviderT &gt;</text>
<polyline fill="none" stroke="black" points="8,-126.5 182,-126.5 "/>
<text text-anchor="start" x="16" y="-114.5" font-family="Helvetica,sans-Serif" font-size="10.00">&#45; direction_provider</text>
<polyline fill="none" stroke="black" points="8,-107.5 182,-107.5 "/>
<text text-anchor="start" x="16" y="-95.5" font-family="Helvetica,sans-Serif" font-size="10.00">+ PolymorphicPANOCDirection()</text>
<text text-anchor="start" x="16" y="-84.5" font-family="Helvetica,sans-Serif" font-size="10.00">+ PolymorphicPANOCDirection()</text>
<text text-anchor="start" x="16" y="-73.5" font-family="Helvetica,sans-Serif" font-size="10.00">+ initialize()</text>
<text text-anchor="start" x="16" y="-62.5" font-family="Helvetica,sans-Serif" font-size="10.00">+ update()</text>
<text text-anchor="start" x="16" y="-51.5" font-family="Helvetica,sans-Serif" font-size="10.00">+ apply()</text>
<text text-anchor="start" x="16" y="-40.5" font-family="Helvetica,sans-Serif" font-size="10.00">+ changed_γ()</text>
<text text-anchor="start" x="16" y="-29.5" font-family="Helvetica,sans-Serif" font-size="10.00">+ reset()</text>
<text text-anchor="start" x="16" y="-18.5" font-family="Helvetica,sans-Serif" font-size="10.00">+ get_name()</text>
<text text-anchor="start" x="16" y="-7.5" font-family="Helvetica,sans-Serif" font-size="10.00">+ get_params()</text>
</a>
</g>
</g>
<!-- Node2 -->
<g id="node2" class="node">
<title>Node2</title>
<g id="a_node2"><a xlink:href="classalpaqa_1_1PolymorphicPANOCDirectionBase.html" target="_top" xlink:title=" ">
<polygon fill="white" stroke="black" points="5.5,-193.5 5.5,-349.5 184.5,-349.5 184.5,-193.5 5.5,-193.5"/>
<text text-anchor="middle" x="95" y="-337.5" font-family="Helvetica,sans-Serif" font-size="10.00">PolymorphicPANOCDirectionBase</text>
<polyline fill="none" stroke="black" points="5.5,-330.5 184.5,-330.5 "/>
<text text-anchor="middle" x="95" y="-318.5" font-family="Helvetica,sans-Serif" font-size="10.00"> </text>
<polyline fill="none" stroke="black" points="5.5,-311.5 184.5,-311.5 "/>
<text text-anchor="start" x="13.5" y="-299.5" font-family="Helvetica,sans-Serif" font-size="10.00">+ ~PolymorphicPANOCDirection</text>
<text text-anchor="start" x="13.5" y="-288.5" font-family="Helvetica,sans-Serif" font-size="10.00">Base()</text>
<text text-anchor="start" x="13.5" y="-277.5" font-family="Helvetica,sans-Serif" font-size="10.00">+ initialize()</text>
<text text-anchor="start" x="13.5" y="-266.5" font-family="Helvetica,sans-Serif" font-size="10.00">+ update()</text>
<text text-anchor="start" x="13.5" y="-255.5" font-family="Helvetica,sans-Serif" font-size="10.00">+ apply()</text>
<text text-anchor="start" x="13.5" y="-244.5" font-family="Helvetica,sans-Serif" font-size="10.00">+ changed_γ()</text>
<text text-anchor="start" x="13.5" y="-233.5" font-family="Helvetica,sans-Serif" font-size="10.00">+ reset()</text>
<text text-anchor="start" x="13.5" y="-222.5" font-family="Helvetica,sans-Serif" font-size="10.00">+ get_name()</text>
<text text-anchor="start" x="13.5" y="-211.5" font-family="Helvetica,sans-Serif" font-size="10.00">+ apply_ret()</text>
<text text-anchor="start" x="13.5" y="-200.5" font-family="Helvetica,sans-Serif" font-size="10.00">+ get_params()</text>
</a>
</g>
</g>
<!-- Node2&#45;&gt;Node1 -->
<g id="edge1" class="edge">
<title>Node2&#45;&gt;Node1</title>
<path fill="none" stroke="midnightblue" d="M95,-183.35C95,-174.43 95,-165.41 95,-156.61"/>
<polygon fill="none" stroke="midnightblue" points="91.5,-183.36 95,-193.36 98.5,-183.36 91.5,-183.36"/>
</g>
<!-- Node3 -->
<g id="node3" class="node">
<title>Node3</title>
<g id="a_node3"><a xlink:title=" ">
<polygon fill="white" stroke="#bfbfbf" points="0,-386.5 0,-465.5 190,-465.5 190,-386.5 0,-386.5"/>
<text text-anchor="start" x="8" y="-453.5" font-family="Helvetica,sans-Serif" font-size="10.00">enable_shared_from</text>
<text text-anchor="start" x="8" y="-442.5" font-family="Helvetica,sans-Serif" font-size="10.00">_this&lt; PolymorphicPANOCDirection</text>
<text text-anchor="middle" x="95" y="-431.5" font-family="Helvetica,sans-Serif" font-size="10.00">Base &gt;</text>
<polyline fill="none" stroke="#bfbfbf" points="0,-424.5 190,-424.5 "/>
<text text-anchor="middle" x="95" y="-412.5" font-family="Helvetica,sans-Serif" font-size="10.00"> </text>
<polyline fill="none" stroke="#bfbfbf" points="0,-405.5 190,-405.5 "/>
<text text-anchor="middle" x="95" y="-393.5" font-family="Helvetica,sans-Serif" font-size="10.00"> </text>
</a>
</g>
</g>
<!-- Node3&#45;&gt;Node2 -->
<g id="edge2" class="edge">
<title>Node3&#45;&gt;Node2</title>
<path fill="none" stroke="midnightblue" d="M95,-376.08C95,-367.61 95,-358.62 95,-349.61"/>
<polygon fill="none" stroke="midnightblue" points="91.5,-376.12 95,-386.12 98.5,-376.12 91.5,-376.12"/>
</g>
</g>
</svg>
