<?xml version="1.0" encoding="UTF-8" standalone="no"?>
<!DOCTYPE svg PUBLIC "-//W3C//DTD SVG 1.1//EN"
 "http://www.w3.org/Graphics/SVG/1.1/DTD/svg11.dtd">
<!-- Generated by graphviz version 2.43.0 (0)
 -->
<!-- Title: resize Pages: 1 -->
<svg width="140pt" height="66pt"
 viewBox="0.00 0.00 140.00 66.00" xmlns="http://www.w3.org/2000/svg" xmlns:xlink="http://www.w3.org/1999/xlink">
<g id="graph0" class="graph" transform="scale(1 1) rotate(0) translate(4 62)">
<title>resize</title>
<polygon fill="white" stroke="transparent" points="-4,4 -4,-62 136,-62 136,4 -4,4"/>
<!-- Node1 -->
<g id="node1" class="node">
<title>Node1</title>
<g id="a_node1"><a xlink:title="Re&#45;allocate storage for a problem with a different size.">
<polygon fill="#bfbfbf" stroke="black" points="0,-19.5 0,-38.5 46,-38.5 46,-19.5 0,-19.5"/>
<text text-anchor="middle" x="23" y="-26.5" font-family="Helvetica,sans-Serif" font-size="10.00">resize</text>
</a>
</g>
</g>
<!-- Node2 -->
<g id="node2" class="node">
<title>Node2</title>
<g id="a_node2"><a xlink:href="classalpaqa_1_1SpecializedLBFGS.html#a5b5fd504f983f6b5f9beb1576ebf591a" target="_top" xlink:title="Get the number of previous vectors s, y, x and g stored in the buffer.">
<polygon fill="white" stroke="black" points="82,-38.5 82,-57.5 132,-57.5 132,-38.5 82,-38.5"/>
<text text-anchor="middle" x="107" y="-45.5" font-family="Helvetica,sans-Serif" font-size="10.00">history</text>
</a>
</g>
</g>
<!-- Node1&#45;&gt;Node2 -->
<g id="edge1" class="edge">
<title>Node1&#45;&gt;Node2</title>
<path fill="none" stroke="midnightblue" d="M46.41,-34.19C54.31,-36.02 63.39,-38.13 72.04,-40.13"/>
<polygon fill="midnightblue" stroke="midnightblue" points="71.36,-43.57 81.9,-42.41 72.94,-36.75 71.36,-43.57"/>
</g>
<!-- Node3 -->
<g id="node3" class="node">
<title>Node3</title>
<g id="a_node3"><a xlink:href="classalpaqa_1_1SpecializedLBFGS.html#ac88f0961aa7ed7c7415550ab2cad49c8" target="_top" xlink:title="Get the size of the s, y, x and g vectors in the buffer.">
<polygon fill="white" stroke="black" points="92.5,-0.5 92.5,-19.5 121.5,-19.5 121.5,-0.5 92.5,-0.5"/>
<text text-anchor="middle" x="107" y="-7.5" font-family="Helvetica,sans-Serif" font-size="10.00">n</text>
</a>
</g>
</g>
<!-- Node1&#45;&gt;Node3 -->
<g id="edge2" class="edge">
<title>Node1&#45;&gt;Node3</title>
<path fill="none" stroke="midnightblue" d="M46.41,-23.81C57.47,-21.24 70.84,-18.15 82.1,-15.54"/>
<polygon fill="midnightblue" stroke="midnightblue" points="83.16,-18.88 92.11,-13.22 81.58,-12.07 83.16,-18.88"/>
</g>
</g>
</svg>
