<?xml version="1.0" encoding="UTF-8" standalone="no"?>
<!DOCTYPE svg PUBLIC "-//W3C//DTD SVG 1.1//EN"
 "http://www.w3.org/Graphics/SVG/1.1/DTD/svg11.dtd">
<!-- Generated by graphviz version 2.43.0 (0)
 -->
<!-- Title: history Pages: 1 -->
<svg width="699pt" height="400pt"
 viewBox="0.00 0.00 699.00 399.50" xmlns="http://www.w3.org/2000/svg" xmlns:xlink="http://www.w3.org/1999/xlink">
<g id="graph0" class="graph" transform="scale(1 1) rotate(0) translate(4 395.5)">
<title>history</title>
<polygon fill="white" stroke="transparent" points="-4,4 -4,-395.5 695,-395.5 695,4 -4,4"/>
<!-- Node1 -->
<g id="node1" class="node">
<title>Node1</title>
<g id="a_node1"><a xlink:title="Get the number of previous vectors s, y, x and g stored in the buffer.">
<polygon fill="#bfbfbf" stroke="black" points="641,-220 641,-239 691,-239 691,-220 641,-220"/>
<text text-anchor="middle" x="666" y="-227" font-family="Helvetica,sans-Serif" font-size="10.00">history</text>
</a>
</g>
</g>
<!-- Node2 -->
<g id="node2" class="node">
<title>Node2</title>
<g id="a_node2"><a xlink:href="classalpaqa_1_1SpecializedLBFGS.html#a3633932c88d15ff3118f72a11f4c58e4" target="_top" xlink:title=" ">
<polygon fill="white" stroke="black" points="379.5,-356 379.5,-375 483.5,-375 483.5,-356 379.5,-356"/>
<text text-anchor="middle" x="431.5" y="-363" font-family="Helvetica,sans-Serif" font-size="10.00">SpecializedLBFGS</text>
</a>
</g>
</g>
<!-- Node1&#45;&gt;Node2 -->
<g id="edge1" class="edge">
<title>Node1&#45;&gt;Node2</title>
<path fill="none" stroke="midnightblue" d="M658.13,-248.54C649.26,-270.31 631.73,-305.4 605,-324.5 569.56,-349.82 520.6,-359.68 483.89,-363.43"/>
<polygon fill="midnightblue" stroke="midnightblue" points="661.45,-249.64 661.78,-239.05 654.92,-247.12 661.45,-249.64"/>
</g>
<!-- Node3 -->
<g id="node3" class="node">
<title>Node3</title>
<g id="a_node3"><a xlink:href="classalpaqa_1_1SpecializedLBFGS.html#a37dd0ce624f9914a61118d8f02fa1c7f" target="_top" xlink:title="Apply the inverse Hessian approximation to the given vector q.">
<polygon fill="white" stroke="black" points="560,-296 560,-315 604,-315 604,-296 560,-296"/>
<text text-anchor="middle" x="582" y="-303" font-family="Helvetica,sans-Serif" font-size="10.00">apply</text>
</a>
</g>
</g>
<!-- Node1&#45;&gt;Node3 -->
<g id="edge2" class="edge">
<title>Node1&#45;&gt;Node3</title>
<path fill="none" stroke="midnightblue" d="M647.49,-246.56C635.63,-258 619.53,-273.33 605,-286.5 601.56,-289.62 597.75,-292.95 594.28,-295.94"/>
<polygon fill="midnightblue" stroke="midnightblue" points="650.2,-248.8 654.95,-239.33 645.33,-243.77 650.2,-248.8"/>
</g>
<!-- Node5 -->
<g id="node5" class="node">
<title>Node5</title>
<g id="a_node5"><a xlink:href="classalpaqa_1_1SpecializedLBFGS.html#a7e9b3fd96d52976693a1fb57fb32ba3c" target="_top" xlink:title=" ">
<polygon fill="white" stroke="black" points="567.5,-68 567.5,-87 596.5,-87 596.5,-68 567.5,-68"/>
<text text-anchor="middle" x="582" y="-75" font-family="Helvetica,sans-Serif" font-size="10.00">g</text>
</a>
</g>
</g>
<!-- Node1&#45;&gt;Node5 -->
<g id="edge4" class="edge">
<title>Node1&#45;&gt;Node5</title>
<path fill="none" stroke="midnightblue" d="M659.13,-209.84C650.35,-182.56 631.9,-132.54 605,-96.5 602.46,-93.1 599.22,-89.89 596.01,-87.1"/>
<polygon fill="midnightblue" stroke="midnightblue" points="655.89,-211.21 662.2,-219.72 662.57,-209.13 655.89,-211.21"/>
</g>
<!-- Node14 -->
<g id="node14" class="node">
<title>Node14</title>
<g id="a_node14"><a xlink:href="classalpaqa_1_1SpecializedLBFGS.html#a9cb23d843dff87dd08bd5a916d9eed95" target="_top" xlink:title=" ">
<polygon fill="white" stroke="black" points="567.5,-258 567.5,-277 596.5,-277 596.5,-258 567.5,-258"/>
<text text-anchor="middle" x="582" y="-265" font-family="Helvetica,sans-Serif" font-size="10.00">p</text>
</a>
</g>
</g>
<!-- Node1&#45;&gt;Node14 -->
<g id="edge15" class="edge">
<title>Node1&#45;&gt;Node14</title>
<path fill="none" stroke="midnightblue" d="M635.18,-243.32C622.13,-249.37 607.44,-256.17 596.98,-261.02"/>
<polygon fill="midnightblue" stroke="midnightblue" points="636.71,-246.47 644.31,-239.09 633.76,-240.12 636.71,-246.47"/>
</g>
<!-- Node15 -->
<g id="node15" class="node">
<title>Node15</title>
<g id="a_node15"><a xlink:href="classalpaqa_1_1SpecializedLBFGS.html#a366794fa1c1947b58c0e7cfd78529215" target="_top" xlink:title="Get the previous index in the circular buffer of previous s, y, x and g vectors.">
<polygon fill="white" stroke="black" points="563,-220 563,-239 601,-239 601,-220 563,-220"/>
<text text-anchor="middle" x="582" y="-227" font-family="Helvetica,sans-Serif" font-size="10.00">pred</text>
</a>
</g>
</g>
<!-- Node1&#45;&gt;Node15 -->
<g id="edge17" class="edge">
<title>Node1&#45;&gt;Node15</title>
<path fill="none" stroke="midnightblue" d="M630.56,-229.5C620.4,-229.5 609.68,-229.5 601,-229.5"/>
<polygon fill="midnightblue" stroke="midnightblue" points="630.84,-233 640.84,-229.5 630.84,-226 630.84,-233"/>
</g>
<!-- Node16 -->
<g id="node16" class="node">
<title>Node16</title>
<g id="a_node16"><a xlink:href="classalpaqa_1_1SpecializedLBFGS.html#ab94b4f1bcda8e0f0bace15126f54b6d3" target="_top" xlink:title="Re&#45;allocate storage for a problem with a different size.">
<polygon fill="white" stroke="black" points="559,-372 559,-391 605,-391 605,-372 559,-372"/>
<text text-anchor="middle" x="582" y="-379" font-family="Helvetica,sans-Serif" font-size="10.00">resize</text>
</a>
</g>
</g>
<!-- Node1&#45;&gt;Node16 -->
<g id="edge19" class="edge">
<title>Node1&#45;&gt;Node16</title>
<path fill="none" stroke="midnightblue" d="M658.11,-248.73C648.36,-274.64 629.02,-321.64 605,-357.5 601.6,-362.57 597.16,-367.64 593.15,-371.8"/>
<polygon fill="midnightblue" stroke="midnightblue" points="661.51,-249.6 661.68,-239.01 654.94,-247.19 661.51,-249.6"/>
</g>
<!-- Node17 -->
<g id="node17" class="node">
<title>Node17</title>
<g id="a_node17"><a xlink:href="classalpaqa_1_1SpecializedLBFGS.html#a0df701f7bb07249c37bcbf20d9c980fe" target="_top" xlink:title="Get the next index in the circular buffer of previous s, y, x and g vectors.">
<polygon fill="white" stroke="black" points="563,-144 563,-163 601,-163 601,-144 563,-144"/>
<text text-anchor="middle" x="582" y="-151" font-family="Helvetica,sans-Serif" font-size="10.00">succ</text>
</a>
</g>
</g>
<!-- Node1&#45;&gt;Node17 -->
<g id="edge21" class="edge">
<title>Node1&#45;&gt;Node17</title>
<path fill="none" stroke="midnightblue" d="M647.49,-212.44C635.63,-201 619.53,-185.67 605,-172.5 601.56,-169.38 597.75,-166.05 594.28,-163.06"/>
<polygon fill="midnightblue" stroke="midnightblue" points="645.33,-215.23 654.95,-219.67 650.2,-210.2 645.33,-215.23"/>
</g>
<!-- Node18 -->
<g id="node18" class="node">
<title>Node18</title>
<g id="a_node18"><a xlink:href="classalpaqa_1_1SpecializedLBFGS.html#a45235c456e26733897f13bbf1057323e" target="_top" xlink:title=" ">
<polygon fill="white" stroke="black" points="567.5,-182 567.5,-201 596.5,-201 596.5,-182 567.5,-182"/>
<text text-anchor="middle" x="582" y="-189" font-family="Helvetica,sans-Serif" font-size="10.00">w</text>
</a>
</g>
</g>
<!-- Node1&#45;&gt;Node18 -->
<g id="edge24" class="edge">
<title>Node1&#45;&gt;Node18</title>
<path fill="none" stroke="midnightblue" d="M635.18,-215.68C622.13,-209.63 607.44,-202.83 596.98,-197.98"/>
<polygon fill="midnightblue" stroke="midnightblue" points="633.76,-218.88 644.31,-219.91 636.71,-212.53 633.76,-218.88"/>
</g>
<!-- Node19 -->
<g id="node19" class="node">
<title>Node19</title>
<g id="a_node19"><a xlink:href="classalpaqa_1_1SpecializedLBFGS.html#ac8fb9b5f7c53b1285867cf99b0f79d17" target="_top" xlink:title=" ">
<polygon fill="white" stroke="black" points="567.5,-106 567.5,-125 596.5,-125 596.5,-106 567.5,-106"/>
<text text-anchor="middle" x="582" y="-113" font-family="Helvetica,sans-Serif" font-size="10.00">x</text>
</a>
</g>
</g>
<!-- Node1&#45;&gt;Node19 -->
<g id="edge26" class="edge">
<title>Node1&#45;&gt;Node19</title>
<path fill="none" stroke="midnightblue" d="M655.46,-210.99C644.68,-191.01 625.91,-158.78 605,-134.5 602.23,-131.29 598.91,-128.14 595.7,-125.36"/>
<polygon fill="midnightblue" stroke="midnightblue" points="652.44,-212.77 660.21,-219.98 658.63,-209.5 652.44,-212.77"/>
</g>
<!-- Node4 -->
<g id="node4" class="node">
<title>Node4</title>
<g id="a_node4"><a xlink:href="structalpaqa_1_1PANOCDirection_3_01SpecializedLBFGS_01_4.html#a896d954d179723ad79cb7925541c96c8" target="_top" xlink:title=" ">
<polygon fill="white" stroke="black" points="352,-290.5 352,-320.5 511,-320.5 511,-290.5 352,-290.5"/>
<text text-anchor="start" x="360" y="-308.5" font-family="Helvetica,sans-Serif" font-size="10.00">alpaqa::PANOCDirection</text>
<text text-anchor="middle" x="431.5" y="-297.5" font-family="Helvetica,sans-Serif" font-size="10.00">&lt; SpecializedLBFGS &gt;::apply</text>
</a>
</g>
</g>
<!-- Node3&#45;&gt;Node4 -->
<g id="edge3" class="edge">
<title>Node3&#45;&gt;Node4</title>
<path fill="none" stroke="midnightblue" d="M549.48,-305.5C538.09,-305.5 524.65,-305.5 511.03,-305.5"/>
<polygon fill="midnightblue" stroke="midnightblue" points="549.72,-309 559.72,-305.5 549.72,-302 549.72,-309"/>
</g>
<!-- Node6 -->
<g id="node6" class="node">
<title>Node6</title>
<g id="a_node6"><a xlink:href="classhanging__chain__dynamics_1_1HangingChain.html#a2e4d9874164cfa87334b099f3ce1f288" target="_top" xlink:title=" ">
<polygon fill="white" stroke="black" points="340,-0.5 340,-30.5 523,-30.5 523,-0.5 340,-0.5"/>
<text text-anchor="start" x="348" y="-18.5" font-family="Helvetica,sans-Serif" font-size="10.00">hanging_chain_dynamics.Hanging</text>
<text text-anchor="middle" x="431.5" y="-7.5" font-family="Helvetica,sans-Serif" font-size="10.00">Chain.dynamics</text>
</a>
</g>
</g>
<!-- Node5&#45;&gt;Node6 -->
<g id="edge5" class="edge">
<title>Node5&#45;&gt;Node6</title>
<path fill="none" stroke="midnightblue" d="M557.96,-67.88C534.06,-57.9 496.34,-42.15 468.5,-30.53"/>
<polygon fill="midnightblue" stroke="midnightblue" points="556.72,-71.16 567.3,-71.78 559.42,-64.7 556.72,-71.16"/>
</g>
<!-- Node7 -->
<g id="node7" class="node">
<title>Node7</title>
<g id="a_node7"><a xlink:href="classalpaqa_1_1SpecializedLBFGS.html#a0b030867dbee1f90710a9b23360807a3" target="_top" xlink:title="L&#45;BFGS update when changing the step size γ, recomputing everything.">
<polygon fill="white" stroke="black" points="396,-182 396,-201 467,-201 467,-182 396,-182"/>
<text text-anchor="middle" x="431.5" y="-189" font-family="Helvetica,sans-Serif" font-size="10.00">full_update</text>
</a>
</g>
</g>
<!-- Node5&#45;&gt;Node7 -->
<g id="edge7" class="edge">
<title>Node5&#45;&gt;Node7</title>
<path fill="none" stroke="midnightblue" d="M560.78,-94.31C560.16,-95.03 559.56,-95.76 559,-96.5 536.37,-126.24 552.35,-149.36 523,-172.5 507.37,-184.83 485.65,-189.67 467.4,-191.39"/>
<polygon fill="midnightblue" stroke="midnightblue" points="563.38,-96.66 568.03,-87.14 558.46,-91.68 563.38,-96.66"/>
</g>
<!-- Node10 -->
<g id="node10" class="node">
<title>Node10</title>
<g id="a_node10"><a xlink:href="classalpaqa_1_1SpecializedLBFGS.html#a3606f78438b923b36f682fb1f91764d7" target="_top" xlink:title="Initialize with the starting point x₀ and the gradient in that point.">
<polygon fill="white" stroke="black" points="402,-68 402,-87 461,-87 461,-68 402,-68"/>
<text text-anchor="middle" x="431.5" y="-75" font-family="Helvetica,sans-Serif" font-size="10.00">initialize</text>
</a>
</g>
</g>
<!-- Node5&#45;&gt;Node10 -->
<g id="edge10" class="edge">
<title>Node5&#45;&gt;Node10</title>
<path fill="none" stroke="midnightblue" d="M557.13,-77.5C530.96,-77.5 488.97,-77.5 461.07,-77.5"/>
<polygon fill="midnightblue" stroke="midnightblue" points="557.3,-81 567.3,-77.5 557.3,-74 557.3,-81"/>
</g>
<!-- Node12 -->
<g id="node12" class="node">
<title>Node12</title>
<g id="a_node12"><a xlink:href="classalpaqa_1_1SpecializedLBFGS.html#ad20897c5c8bd47f5d4005989bead0e55" target="_top" xlink:title="Throw away the approximation and all previous vectors s and y.">
<polygon fill="white" stroke="black" points="411,-106 411,-125 452,-125 452,-106 411,-106"/>
<text text-anchor="middle" x="431.5" y="-113" font-family="Helvetica,sans-Serif" font-size="10.00">reset</text>
</a>
</g>
</g>
<!-- Node5&#45;&gt;Node12 -->
<g id="edge12" class="edge">
<title>Node5&#45;&gt;Node12</title>
<path fill="none" stroke="midnightblue" d="M557.61,-85.81C547.11,-89.37 534.51,-93.42 523,-96.5 498.81,-102.98 470.49,-108.62 452.07,-112.03"/>
<polygon fill="midnightblue" stroke="midnightblue" points="558.99,-89.04 567.3,-82.46 556.7,-82.42 558.99,-89.04"/>
</g>
<!-- Node13 -->
<g id="node13" class="node">
<title>Node13</title>
<g id="a_node13"><a xlink:href="classalpaqa_1_1SpecializedLBFGS.html#a5a4a6bc855faa7998e2308d5e6d10224" target="_top" xlink:title="Standard L&#45;BFGS update without changing the step size γ.">
<polygon fill="white" stroke="black" points="382.5,-144 382.5,-163 480.5,-163 480.5,-144 382.5,-144"/>
<text text-anchor="middle" x="431.5" y="-151" font-family="Helvetica,sans-Serif" font-size="10.00">standard_update</text>
</a>
</g>
</g>
<!-- Node5&#45;&gt;Node13 -->
<g id="edge13" class="edge">
<title>Node5&#45;&gt;Node13</title>
<path fill="none" stroke="midnightblue" d="M561.47,-94.18C560.63,-94.96 559.8,-95.73 559,-96.5 542.18,-112.57 543.31,-123.15 523,-134.5 510.25,-141.63 495.13,-146.09 480.93,-148.88"/>
<polygon fill="midnightblue" stroke="midnightblue" points="564.01,-96.61 569.16,-87.35 559.36,-91.37 564.01,-96.61"/>
</g>
<!-- Node6&#45;&gt;Node6 -->
<g id="edge6" class="edge">
<title>Node6&#45;&gt;Node6</title>
<path fill="none" stroke="midnightblue" d="M458.15,-40.96C454.85,-45.68 445.96,-49 431.5,-49 407.77,-49 399.06,-40.06 405.36,-30.66"/>
<polygon fill="midnightblue" stroke="midnightblue" points="461.63,-40.47 457.64,-30.66 454.64,-40.82 461.63,-40.47"/>
</g>
<!-- Node8 -->
<g id="node8" class="node">
<title>Node8</title>
<g id="a_node8"><a xlink:href="classalpaqa_1_1SpecializedLBFGS.html#a747b26091f869cb17a768e38f17fbc8d" target="_top" xlink:title="Update the inverse Hessian approximation using the new vectors xₖ₊₁ and pₖ₊₁.">
<polygon fill="white" stroke="black" points="212,-163 212,-182 262,-182 262,-163 212,-163"/>
<text text-anchor="middle" x="237" y="-170" font-family="Helvetica,sans-Serif" font-size="10.00">update</text>
</a>
</g>
</g>
<!-- Node7&#45;&gt;Node8 -->
<g id="edge8" class="edge">
<title>Node7&#45;&gt;Node8</title>
<path fill="none" stroke="midnightblue" d="M385.23,-187.03C346.76,-183.23 293.03,-177.93 262.24,-174.89"/>
<polygon fill="midnightblue" stroke="midnightblue" points="385.34,-190.56 395.64,-188.06 386.03,-183.59 385.34,-190.56"/>
</g>
<!-- Node9 -->
<g id="node9" class="node">
<title>Node9</title>
<g id="a_node9"><a xlink:href="structalpaqa_1_1PANOCDirection_3_01SpecializedLBFGS_01_4.html#a39a241c049e8d029cc86a30a89ef92cf" target="_top" xlink:title=" ">
<polygon fill="white" stroke="black" points="0,-152 0,-193 134,-193 134,-152 0,-152"/>
<text text-anchor="start" x="8" y="-181" font-family="Helvetica,sans-Serif" font-size="10.00">alpaqa::PANOCDirection</text>
<text text-anchor="start" x="8" y="-170" font-family="Helvetica,sans-Serif" font-size="10.00">&lt; SpecializedLBFGS &gt;::</text>
<text text-anchor="middle" x="67" y="-159" font-family="Helvetica,sans-Serif" font-size="10.00">update</text>
</a>
</g>
</g>
<!-- Node8&#45;&gt;Node9 -->
<g id="edge9" class="edge">
<title>Node8&#45;&gt;Node9</title>
<path fill="none" stroke="midnightblue" d="M201.74,-172.5C182.27,-172.5 157.23,-172.5 134.1,-172.5"/>
<polygon fill="midnightblue" stroke="midnightblue" points="201.93,-176 211.93,-172.5 201.93,-169 201.93,-176"/>
</g>
<!-- Node11 -->
<g id="node11" class="node">
<title>Node11</title>
<g id="a_node11"><a xlink:href="structalpaqa_1_1PANOCDirection_3_01SpecializedLBFGS_01_4.html#a47b667371126ccfdb51898d979f2c786" target="_top" xlink:title=" ">
<polygon fill="white" stroke="black" points="170,-57 170,-98 304,-98 304,-57 170,-57"/>
<text text-anchor="start" x="178" y="-86" font-family="Helvetica,sans-Serif" font-size="10.00">alpaqa::PANOCDirection</text>
<text text-anchor="start" x="178" y="-75" font-family="Helvetica,sans-Serif" font-size="10.00">&lt; SpecializedLBFGS &gt;::</text>
<text text-anchor="middle" x="237" y="-64" font-family="Helvetica,sans-Serif" font-size="10.00">initialize</text>
</a>
</g>
</g>
<!-- Node10&#45;&gt;Node11 -->
<g id="edge11" class="edge">
<title>Node10&#45;&gt;Node11</title>
<path fill="none" stroke="midnightblue" d="M391.48,-77.5C366.42,-77.5 333.24,-77.5 304.15,-77.5"/>
<polygon fill="midnightblue" stroke="midnightblue" points="391.68,-81 401.68,-77.5 391.68,-74 391.68,-81"/>
</g>
<!-- Node13&#45;&gt;Node8 -->
<g id="edge14" class="edge">
<title>Node13&#45;&gt;Node8</title>
<path fill="none" stroke="midnightblue" d="M372.26,-159.25C335.33,-162.89 289.51,-167.42 262.07,-170.12"/>
<polygon fill="midnightblue" stroke="midnightblue" points="372.81,-162.71 382.42,-158.25 372.13,-155.74 372.81,-162.71"/>
</g>
<!-- Node14&#45;&gt;Node7 -->
<g id="edge16" class="edge">
<title>Node14&#45;&gt;Node7</title>
<path fill="none" stroke="midnightblue" d="M558.22,-255.84C528.89,-240.83 478.45,-215.02 451.23,-201.09"/>
<polygon fill="midnightblue" stroke="midnightblue" points="556.8,-259.05 567.3,-260.49 559.99,-252.81 556.8,-259.05"/>
</g>
<!-- Node15&#45;&gt;Node7 -->
<g id="edge18" class="edge">
<title>Node15&#45;&gt;Node7</title>
<path fill="none" stroke="midnightblue" d="M553.08,-222.35C528.68,-216.11 493.17,-207.02 467,-200.33"/>
<polygon fill="midnightblue" stroke="midnightblue" points="552.24,-225.75 562.79,-224.84 553.97,-218.97 552.24,-225.75"/>
</g>
<!-- Node16&#45;&gt;Node2 -->
<g id="edge20" class="edge">
<title>Node16&#45;&gt;Node2</title>
<path fill="none" stroke="midnightblue" d="M548.8,-378.03C529.74,-375.98 505.17,-373.33 483.53,-371"/>
<polygon fill="midnightblue" stroke="midnightblue" points="548.45,-381.51 558.77,-379.1 549.2,-374.55 548.45,-381.51"/>
</g>
<!-- Node17&#45;&gt;Node7 -->
<g id="edge22" class="edge">
<title>Node17&#45;&gt;Node7</title>
<path fill="none" stroke="midnightblue" d="M553.14,-163.31C543.65,-166.47 532.92,-169.84 523,-172.5 504.7,-177.4 484.04,-181.82 467.09,-185.16"/>
<polygon fill="midnightblue" stroke="midnightblue" points="554.53,-166.54 562.87,-160.01 552.27,-159.91 554.53,-166.54"/>
</g>
<!-- Node17&#45;&gt;Node13 -->
<g id="edge23" class="edge">
<title>Node17&#45;&gt;Node13</title>
<path fill="none" stroke="midnightblue" d="M552.61,-153.5C532.25,-153.5 504.32,-153.5 480.52,-153.5"/>
<polygon fill="midnightblue" stroke="midnightblue" points="552.79,-157 562.79,-153.5 552.79,-150 552.79,-157"/>
</g>
<!-- Node18&#45;&gt;Node7 -->
<g id="edge25" class="edge">
<title>Node18&#45;&gt;Node7</title>
<path fill="none" stroke="midnightblue" d="M557.18,-191.5C532.88,-191.5 494.92,-191.5 467.27,-191.5"/>
<polygon fill="midnightblue" stroke="midnightblue" points="557.3,-195 567.3,-191.5 557.3,-188 557.3,-195"/>
</g>
<!-- Node19&#45;&gt;Node7 -->
<g id="edge27" class="edge">
<title>Node19&#45;&gt;Node7</title>
<path fill="none" stroke="midnightblue" d="M561.47,-132.18C560.63,-132.96 559.8,-133.73 559,-134.5 542.18,-150.57 543.31,-161.15 523,-172.5 506.04,-181.98 484.9,-186.74 467.31,-189.13"/>
<polygon fill="midnightblue" stroke="midnightblue" points="564.01,-134.61 569.16,-125.35 559.36,-129.37 564.01,-134.61"/>
</g>
<!-- Node19&#45;&gt;Node10 -->
<g id="edge28" class="edge">
<title>Node19&#45;&gt;Node10</title>
<path fill="none" stroke="midnightblue" d="M557.61,-107.19C547.11,-103.63 534.51,-99.58 523,-96.5 502.53,-91.02 479.11,-86.14 461.22,-82.69"/>
<polygon fill="midnightblue" stroke="midnightblue" points="556.7,-110.58 567.3,-110.54 558.99,-103.96 556.7,-110.58"/>
</g>
<!-- Node19&#45;&gt;Node12 -->
<g id="edge29" class="edge">
<title>Node19&#45;&gt;Node12</title>
<path fill="none" stroke="midnightblue" d="M557.18,-115.5C528.07,-115.5 479.33,-115.5 452.22,-115.5"/>
<polygon fill="midnightblue" stroke="midnightblue" points="557.3,-119 567.3,-115.5 557.3,-112 557.3,-119"/>
</g>
<!-- Node19&#45;&gt;Node13 -->
<g id="edge30" class="edge">
<title>Node19&#45;&gt;Node13</title>
<path fill="none" stroke="midnightblue" d="M557.61,-123.81C547.11,-127.37 534.51,-131.42 523,-134.5 509.35,-138.16 494.4,-141.54 480.64,-144.42"/>
<polygon fill="midnightblue" stroke="midnightblue" points="558.99,-127.04 567.3,-120.46 556.7,-120.42 558.99,-127.04"/>
</g>
</g>
</svg>
