<?xml version="1.0" encoding="UTF-8" standalone="no"?>
<!DOCTYPE svg PUBLIC "-//W3C//DTD SVG 1.1//EN"
 "http://www.w3.org/Graphics/SVG/1.1/DTD/svg11.dtd">
<!-- Generated by graphviz version 2.43.0 (0)
 -->
<!-- Title: PolymorphicInnerSolverStatsAccumulatorBase Pages: 1 -->
<svg width="185pt" height="226pt"
 viewBox="0.00 0.00 185.00 226.00" xmlns="http://www.w3.org/2000/svg" xmlns:xlink="http://www.w3.org/1999/xlink">
<g id="graph0" class="graph" transform="scale(1 1) rotate(0) translate(4 222)">
<title>PolymorphicInnerSolverStatsAccumulatorBase</title>
<polygon fill="white" stroke="transparent" points="-4,4 -4,-222 181,-222 181,4 -4,4"/>
<!-- Node1 -->
<g id="node1" class="node">
<title>Node1</title>
<g id="a_node1"><a xlink:title=" ">
<polygon fill="#bfbfbf" stroke="black" points="0,-0.5 0,-101.5 177,-101.5 177,-0.5 0,-0.5"/>
<text text-anchor="start" x="8" y="-89.5" font-family="Helvetica,sans-Serif" font-size="10.00">PolymorphicInnerSolverStats</text>
<text text-anchor="middle" x="88.5" y="-78.5" font-family="Helvetica,sans-Serif" font-size="10.00">AccumulatorBase</text>
<polyline fill="none" stroke="black" points="0,-71.5 177,-71.5 "/>
<text text-anchor="middle" x="88.5" y="-59.5" font-family="Helvetica,sans-Serif" font-size="10.00"> </text>
<polyline fill="none" stroke="black" points="0,-52.5 177,-52.5 "/>
<text text-anchor="start" x="8" y="-40.5" font-family="Helvetica,sans-Serif" font-size="10.00">+ ~PolymorphicInnerSolverStats</text>
<text text-anchor="start" x="8" y="-29.5" font-family="Helvetica,sans-Serif" font-size="10.00">AccumulatorBase()</text>
<text text-anchor="start" x="8" y="-18.5" font-family="Helvetica,sans-Serif" font-size="10.00">+ to_dict()</text>
<text text-anchor="start" x="8" y="-7.5" font-family="Helvetica,sans-Serif" font-size="10.00">+ accumulate()</text>
</a>
</g>
</g>
<!-- Node2 -->
<g id="node2" class="node">
<title>Node2</title>
<g id="a_node2"><a xlink:title=" ">
<polygon fill="white" stroke="#bfbfbf" points="5,-138.5 5,-217.5 172,-217.5 172,-138.5 5,-138.5"/>
<text text-anchor="start" x="13" y="-205.5" font-family="Helvetica,sans-Serif" font-size="10.00">enable_shared_from</text>
<text text-anchor="start" x="13" y="-194.5" font-family="Helvetica,sans-Serif" font-size="10.00">_this&lt; PolymorphicInnerSolver</text>
<text text-anchor="middle" x="88.5" y="-183.5" font-family="Helvetica,sans-Serif" font-size="10.00">StatsAccumulatorBase &gt;</text>
<polyline fill="none" stroke="#bfbfbf" points="5,-176.5 172,-176.5 "/>
<text text-anchor="middle" x="88.5" y="-164.5" font-family="Helvetica,sans-Serif" font-size="10.00"> </text>
<polyline fill="none" stroke="#bfbfbf" points="5,-157.5 172,-157.5 "/>
<text text-anchor="middle" x="88.5" y="-145.5" font-family="Helvetica,sans-Serif" font-size="10.00"> </text>
</a>
</g>
</g>
<!-- Node2&#45;&gt;Node1 -->
<g id="edge1" class="edge">
<title>Node2&#45;&gt;Node1</title>
<path fill="none" stroke="midnightblue" d="M88.5,-128.41C88.5,-119.64 88.5,-110.49 88.5,-101.69"/>
<polygon fill="none" stroke="midnightblue" points="85,-128.48 88.5,-138.48 92,-128.48 85,-128.48"/>
</g>
</g>
</svg>
