<?xml version="1.0" encoding="UTF-8" standalone="no"?>
<!DOCTYPE svg PUBLIC "-//W3C//DTD SVG 1.1//EN"
 "http://www.w3.org/Graphics/SVG/1.1/DTD/svg11.dtd">
<!-- Generated by graphviz version 2.43.0 (0)
 -->
<!-- Title: cbegin Pages: 1 -->
<svg width="401pt" height="39pt"
 viewBox="0.00 0.00 401.00 39.00" xmlns="http://www.w3.org/2000/svg" xmlns:xlink="http://www.w3.org/1999/xlink">
<g id="graph0" class="graph" transform="scale(1 1) rotate(0) translate(4 35)">
<title>cbegin</title>
<polygon fill="white" stroke="transparent" points="-4,4 -4,-35 397,-35 397,4 -4,4"/>
<!-- Node1 -->
<g id="node1" class="node">
<title>Node1</title>
<g id="a_node1"><a xlink:title=" ">
<polygon fill="#bfbfbf" stroke="black" points="0,-6 0,-25 49,-25 49,-6 0,-6"/>
<text text-anchor="middle" x="24.5" y="-13" font-family="Helvetica,sans-Serif" font-size="10.00">cbegin</text>
</a>
</g>
</g>
<!-- Node2 -->
<g id="node2" class="node">
<title>Node2</title>
<g id="a_node2"><a xlink:href="classalpaqa_1_1CircularRange.html#a81f80a31923e85af56a7b1ae0712a33b" target="_top" xlink:title=" ">
<polygon fill="white" stroke="black" points="85,-0.5 85,-30.5 209,-30.5 209,-0.5 85,-0.5"/>
<text text-anchor="start" x="93" y="-18.5" font-family="Helvetica,sans-Serif" font-size="10.00">alpaqa::CircularRange</text>
<text text-anchor="middle" x="147" y="-7.5" font-family="Helvetica,sans-Serif" font-size="10.00">::crbegin</text>
</a>
</g>
</g>
<!-- Node1&#45;&gt;Node2 -->
<g id="edge1" class="edge">
<title>Node1&#45;&gt;Node2</title>
<path fill="none" stroke="midnightblue" d="M49.02,-15.5C56.61,-15.5 65.47,-15.5 74.68,-15.5"/>
<polygon fill="midnightblue" stroke="midnightblue" points="74.77,-19 84.77,-15.5 74.77,-12 74.77,-19"/>
</g>
<!-- Node3 -->
<g id="node3" class="node">
<title>Node3</title>
<g id="a_node3"><a xlink:href="classalpaqa_1_1CircularRange.html#a68b688a51bd0cf6fb5bc2cba292209a8" target="_top" xlink:title=" ">
<polygon fill="white" stroke="black" points="245,-6 245,-25 393,-25 393,-6 245,-6"/>
<text text-anchor="middle" x="319" y="-13" font-family="Helvetica,sans-Serif" font-size="10.00">alpaqa::CircularRange::end</text>
</a>
</g>
</g>
<!-- Node2&#45;&gt;Node3 -->
<g id="edge2" class="edge">
<title>Node2&#45;&gt;Node3</title>
<path fill="none" stroke="midnightblue" d="M209.37,-15.5C217.65,-15.5 226.24,-15.5 234.81,-15.5"/>
<polygon fill="midnightblue" stroke="midnightblue" points="234.84,-19 244.84,-15.5 234.84,-12 234.84,-19"/>
</g>
</g>
</svg>
