<?xml version="1.0" encoding="UTF-8" standalone="no"?>
<!DOCTYPE svg PUBLIC "-//W3C//DTD SVG 1.1//EN"
 "http://www.w3.org/Graphics/SVG/1.1/DTD/svg11.dtd">
<!-- Generated by graphviz version 2.43.0 (0)
 -->
<!-- Title: alm.hpp Pages: 1 -->
<svg width="662pt" height="274pt"
 viewBox="0.00 0.00 662.00 274.00" xmlns="http://www.w3.org/2000/svg" xmlns:xlink="http://www.w3.org/1999/xlink">
<g id="graph0" class="graph" transform="scale(1 1) rotate(0) translate(4 270)">
<title>alm.hpp</title>
<polygon fill="white" stroke="transparent" points="-4,4 -4,-270 658,-270 658,4 -4,4"/>
<!-- Node1 -->
<g id="node1" class="node">
<title>Node1</title>
<g id="a_node1"><a xlink:title=" ">
<polygon fill="#bfbfbf" stroke="black" points="286,-246.5 286,-265.5 342,-265.5 342,-246.5 286,-246.5"/>
<text text-anchor="middle" x="314" y="-253.5" font-family="Helvetica,sans-Serif" font-size="10.00">alm.hpp</text>
</a>
</g>
</g>
<!-- Node2 -->
<g id="node2" class="node">
<title>Node2</title>
<g id="a_node2"><a xlink:href="panoc-fwd_8hpp.html" target="_top" xlink:title=" ">
<polygon fill="white" stroke="black" points="27.5,-179.5 27.5,-209.5 160.5,-209.5 160.5,-179.5 27.5,-179.5"/>
<text text-anchor="start" x="35.5" y="-197.5" font-family="Helvetica,sans-Serif" font-size="10.00">alpaqa/inner/decl/panoc</text>
<text text-anchor="middle" x="94" y="-186.5" font-family="Helvetica,sans-Serif" font-size="10.00">&#45;fwd.hpp</text>
</a>
</g>
</g>
<!-- Node1&#45;&gt;Node2 -->
<g id="edge1" class="edge">
<title>Node1&#45;&gt;Node2</title>
<path fill="none" stroke="midnightblue" d="M285.69,-247.34C253.07,-238.52 198.48,-223.76 155.89,-212.24"/>
<polygon fill="midnightblue" stroke="midnightblue" points="156.74,-208.84 146.17,-209.61 154.91,-215.6 156.74,-208.84"/>
</g>
<!-- Node4 -->
<g id="node4" class="node">
<title>Node4</title>
<g id="a_node4"><a xlink:href="include_2alpaqa_2util_2problem_8hpp.html" target="_top" xlink:title=" ">
<polygon fill="white" stroke="black" points="247.5,-185 247.5,-204 380.5,-204 380.5,-185 247.5,-185"/>
<text text-anchor="middle" x="314" y="-192" font-family="Helvetica,sans-Serif" font-size="10.00">alpaqa/util/problem.hpp</text>
</a>
</g>
</g>
<!-- Node1&#45;&gt;Node4 -->
<g id="edge3" class="edge">
<title>Node1&#45;&gt;Node4</title>
<path fill="none" stroke="midnightblue" d="M314,-246.48C314,-238.08 314,-224.98 314,-214.16"/>
<polygon fill="midnightblue" stroke="midnightblue" points="317.5,-214.01 314,-204.01 310.5,-214.01 317.5,-214.01"/>
</g>
<!-- Node9 -->
<g id="node9" class="node">
<title>Node9</title>
<g id="a_node9"><a xlink:title=" ">
<polygon fill="white" stroke="#bfbfbf" points="146,-118 146,-137 196,-137 196,-118 146,-118"/>
<text text-anchor="middle" x="171" y="-125" font-family="Helvetica,sans-Serif" font-size="10.00">chrono</text>
</a>
</g>
</g>
<!-- Node1&#45;&gt;Node9 -->
<g id="edge14" class="edge">
<title>Node1&#45;&gt;Node9</title>
<path fill="none" stroke="midnightblue" d="M295.92,-246.34C279.99,-238.23 256.65,-225.11 239,-210 216.44,-190.69 195.34,-163.39 182.79,-145.82"/>
<polygon fill="midnightblue" stroke="midnightblue" points="185.35,-143.36 176.75,-137.17 179.61,-147.37 185.35,-143.36"/>
</g>
<!-- Node13 -->
<g id="node13" class="node">
<title>Node13</title>
<g id="a_node13"><a xlink:href="solverstatus_8hpp.html" target="_top" xlink:title=" ">
<polygon fill="white" stroke="black" points="399,-185 399,-204 551,-204 551,-185 399,-185"/>
<text text-anchor="middle" x="475" y="-192" font-family="Helvetica,sans-Serif" font-size="10.00">alpaqa/util/solverstatus.hpp</text>
</a>
</g>
</g>
<!-- Node1&#45;&gt;Node13 -->
<g id="edge12" class="edge">
<title>Node1&#45;&gt;Node13</title>
<path fill="none" stroke="midnightblue" d="M337.07,-246.48C364.68,-236.27 411.12,-219.11 442.4,-207.55"/>
<polygon fill="midnightblue" stroke="midnightblue" points="443.81,-210.76 451.98,-204.01 441.38,-204.19 443.81,-210.76"/>
</g>
<!-- Node15 -->
<g id="node15" class="node">
<title>Node15</title>
<g id="a_node15"><a xlink:title=" ">
<polygon fill="white" stroke="#bfbfbf" points="569,-185 569,-204 613,-204 613,-185 569,-185"/>
<text text-anchor="middle" x="591" y="-192" font-family="Helvetica,sans-Serif" font-size="10.00">string</text>
</a>
</g>
</g>
<!-- Node1&#45;&gt;Node15 -->
<g id="edge15" class="edge">
<title>Node1&#45;&gt;Node15</title>
<path fill="none" stroke="midnightblue" d="M342.24,-252.22C388.58,-247.13 483.28,-234.51 560,-210 561.67,-209.47 563.37,-208.86 565.07,-208.21"/>
<polygon fill="midnightblue" stroke="midnightblue" points="566.77,-211.29 574.58,-204.13 564.01,-204.86 566.77,-211.29"/>
</g>
<!-- Node3 -->
<g id="node3" class="node">
<title>Node3</title>
<g id="a_node3"><a xlink:href="lbfgs-fwd_8hpp.html" target="_top" xlink:title=" ">
<polygon fill="white" stroke="black" points="0,-112.5 0,-142.5 128,-142.5 128,-112.5 0,-112.5"/>
<text text-anchor="start" x="8" y="-130.5" font-family="Helvetica,sans-Serif" font-size="10.00">alpaqa/inner/directions</text>
<text text-anchor="middle" x="64" y="-119.5" font-family="Helvetica,sans-Serif" font-size="10.00">/decl/lbfgs&#45;fwd.hpp</text>
</a>
</g>
</g>
<!-- Node2&#45;&gt;Node3 -->
<g id="edge2" class="edge">
<title>Node2&#45;&gt;Node3</title>
<path fill="none" stroke="midnightblue" d="M87.49,-179.4C83.76,-171.3 78.97,-160.94 74.7,-151.69"/>
<polygon fill="midnightblue" stroke="midnightblue" points="77.87,-150.19 70.5,-142.58 71.51,-153.12 77.87,-150.19"/>
</g>
<!-- Node5 -->
<g id="node5" class="node">
<title>Node5</title>
<g id="a_node5"><a xlink:href="box_8hpp.html" target="_top" xlink:title=" ">
<polygon fill="white" stroke="black" points="214,-118 214,-137 270,-137 270,-118 214,-118"/>
<text text-anchor="middle" x="242" y="-125" font-family="Helvetica,sans-Serif" font-size="10.00">box.hpp</text>
</a>
</g>
</g>
<!-- Node4&#45;&gt;Node5 -->
<g id="edge4" class="edge">
<title>Node4&#45;&gt;Node5</title>
<path fill="none" stroke="midnightblue" d="M304.29,-184.73C292.74,-174.31 273.25,-156.71 259.14,-143.97"/>
<polygon fill="midnightblue" stroke="midnightblue" points="261.32,-141.23 251.56,-137.13 256.63,-146.43 261.32,-141.23"/>
</g>
<!-- Node8 -->
<g id="node8" class="node">
<title>Node8</title>
<g id="a_node8"><a xlink:title=" ">
<polygon fill="white" stroke="#bfbfbf" points="288,-118 288,-137 340,-137 340,-118 288,-118"/>
<text text-anchor="middle" x="314" y="-125" font-family="Helvetica,sans-Serif" font-size="10.00">cassert</text>
</a>
</g>
</g>
<!-- Node4&#45;&gt;Node8 -->
<g id="edge7" class="edge">
<title>Node4&#45;&gt;Node8</title>
<path fill="none" stroke="midnightblue" d="M314,-184.73C314,-175.18 314,-159.62 314,-147.28"/>
<polygon fill="midnightblue" stroke="midnightblue" points="317.5,-147.13 314,-137.13 310.5,-147.13 317.5,-147.13"/>
</g>
<!-- Node4&#45;&gt;Node9 -->
<g id="edge8" class="edge">
<title>Node4&#45;&gt;Node9</title>
<path fill="none" stroke="midnightblue" d="M295.01,-184.87C270.54,-173.75 227.8,-154.32 199.44,-141.43"/>
<polygon fill="midnightblue" stroke="midnightblue" points="200.62,-138.12 190.07,-137.17 197.72,-144.49 200.62,-138.12"/>
</g>
<!-- Node10 -->
<g id="node10" class="node">
<title>Node10</title>
<g id="a_node10"><a xlink:title=" ">
<polygon fill="white" stroke="#bfbfbf" points="358.5,-118 358.5,-137 423.5,-137 423.5,-118 358.5,-118"/>
<text text-anchor="middle" x="391" y="-125" font-family="Helvetica,sans-Serif" font-size="10.00">functional</text>
</a>
</g>
</g>
<!-- Node4&#45;&gt;Node10 -->
<g id="edge9" class="edge">
<title>Node4&#45;&gt;Node10</title>
<path fill="none" stroke="midnightblue" d="M324.38,-184.73C336.85,-174.21 357.97,-156.38 373.09,-143.62"/>
<polygon fill="midnightblue" stroke="midnightblue" points="375.4,-146.25 380.78,-137.13 370.88,-140.9 375.4,-146.25"/>
</g>
<!-- Node11 -->
<g id="node11" class="node">
<title>Node11</title>
<g id="a_node11"><a xlink:title=" ">
<polygon fill="white" stroke="#bfbfbf" points="442,-118 442,-137 500,-137 500,-118 442,-118"/>
<text text-anchor="middle" x="471" y="-125" font-family="Helvetica,sans-Serif" font-size="10.00">memory</text>
</a>
</g>
</g>
<!-- Node4&#45;&gt;Node11 -->
<g id="edge10" class="edge">
<title>Node4&#45;&gt;Node11</title>
<path fill="none" stroke="midnightblue" d="M334.85,-184.87C361.94,-173.65 409.46,-153.98 440.58,-141.09"/>
<polygon fill="midnightblue" stroke="midnightblue" points="442.16,-144.23 450.07,-137.17 439.49,-137.76 442.16,-144.23"/>
</g>
<!-- Node12 -->
<g id="node12" class="node">
<title>Node12</title>
<g id="a_node12"><a xlink:title=" ">
<polygon fill="white" stroke="#bfbfbf" points="518.5,-118 518.5,-137 587.5,-137 587.5,-118 518.5,-118"/>
<text text-anchor="middle" x="553" y="-125" font-family="Helvetica,sans-Serif" font-size="10.00">type_traits</text>
</a>
</g>
</g>
<!-- Node4&#45;&gt;Node12 -->
<g id="edge11" class="edge">
<title>Node4&#45;&gt;Node12</title>
<path fill="none" stroke="midnightblue" d="M349.77,-184.97C389.03,-175.45 453.81,-159.22 509,-143 511.99,-142.12 515.08,-141.18 518.18,-140.21"/>
<polygon fill="midnightblue" stroke="midnightblue" points="519.51,-143.45 527.96,-137.06 517.37,-136.79 519.51,-143.45"/>
</g>
<!-- Node6 -->
<g id="node6" class="node">
<title>Node6</title>
<g id="a_node6"><a xlink:href="vec_8hpp.html" target="_top" xlink:title=" ">
<polygon fill="white" stroke="black" points="214.5,-56.5 214.5,-75.5 269.5,-75.5 269.5,-56.5 214.5,-56.5"/>
<text text-anchor="middle" x="242" y="-63.5" font-family="Helvetica,sans-Serif" font-size="10.00">vec.hpp</text>
</a>
</g>
</g>
<!-- Node5&#45;&gt;Node6 -->
<g id="edge5" class="edge">
<title>Node5&#45;&gt;Node6</title>
<path fill="none" stroke="midnightblue" d="M242,-117.98C242,-109.58 242,-96.48 242,-85.66"/>
<polygon fill="midnightblue" stroke="midnightblue" points="245.5,-85.51 242,-75.51 238.5,-85.51 245.5,-85.51"/>
</g>
<!-- Node7 -->
<g id="node7" class="node">
<title>Node7</title>
<g id="a_node7"><a xlink:title=" ">
<polygon fill="white" stroke="#bfbfbf" points="207.5,-0.5 207.5,-19.5 276.5,-19.5 276.5,-0.5 207.5,-0.5"/>
<text text-anchor="middle" x="242" y="-7.5" font-family="Helvetica,sans-Serif" font-size="10.00">Eigen/Core</text>
</a>
</g>
</g>
<!-- Node6&#45;&gt;Node7 -->
<g id="edge6" class="edge">
<title>Node6&#45;&gt;Node7</title>
<path fill="none" stroke="midnightblue" d="M242,-56.08C242,-49.01 242,-38.86 242,-29.99"/>
<polygon fill="midnightblue" stroke="midnightblue" points="245.5,-29.75 242,-19.75 238.5,-29.75 245.5,-29.75"/>
</g>
<!-- Node14 -->
<g id="node14" class="node">
<title>Node14</title>
<g id="a_node14"><a xlink:title=" ">
<polygon fill="white" stroke="#bfbfbf" points="606,-118 606,-137 654,-137 654,-118 606,-118"/>
<text text-anchor="middle" x="630" y="-125" font-family="Helvetica,sans-Serif" font-size="10.00">iosfwd</text>
</a>
</g>
</g>
<!-- Node13&#45;&gt;Node14 -->
<g id="edge13" class="edge">
<title>Node13&#45;&gt;Node14</title>
<path fill="none" stroke="midnightblue" d="M496.22,-184.88C520.6,-174.94 561.79,-158.02 597,-143 598.4,-142.4 599.84,-141.79 601.29,-141.16"/>
<polygon fill="midnightblue" stroke="midnightblue" points="603.06,-144.2 610.84,-137 600.27,-137.79 603.06,-144.2"/>
</g>
</g>
</svg>
