<?xml version="1.0" encoding="UTF-8" standalone="no"?>
<!DOCTYPE svg PUBLIC "-//W3C//DTD SVG 1.1//EN"
 "http://www.w3.org/Graphics/SVG/1.1/DTD/svg11.dtd">
<!-- Generated by graphviz version 2.43.0 (0)
 -->
<!-- Title: Cpp Pages: 1 -->
<svg width="102pt" height="151pt"
 viewBox="0.00 0.00 102.00 151.00" xmlns="http://www.w3.org/2000/svg" xmlns:xlink="http://www.w3.org/1999/xlink">
<g id="graph0" class="graph" transform="scale(1 1) rotate(0) translate(4 147)">
<title>Cpp</title>
<polygon fill="white" stroke="transparent" points="-4,4 -4,-147 98,-147 98,4 -4,4"/>
<g id="clust1" class="cluster">
<title>clusterdir_1fd8892362710afd0ff1312ff0845237</title>
<g id="a_clust1"><a xlink:href="dir_1fd8892362710afd0ff1312ff0845237.html" target="_top" xlink:title="Presentation">
<polygon fill="#ddddee" stroke="black" points="8,-64 8,-135 86,-135 86,-64 8,-64"/>
<text text-anchor="middle" x="47" y="-123" font-family="Helvetica,sans-Serif" font-size="10.00">Presentation</text>
</a>
</g>
</g>
<!-- dir_2c0969b615ffb11bbb22365e8f90b47c -->
<g id="node1" class="node">
<title>dir_2c0969b615ffb11bbb22365e8f90b47c</title>
<g id="a_node1"><a xlink:href="dir_2c0969b615ffb11bbb22365e8f90b47c.html" target="_top" xlink:title="Cpp">
<polygon fill="#eeeeff" stroke="black" points="74,-108 20,-108 20,-72 74,-72 74,-108"/>
<text text-anchor="middle" x="47" y="-87.5" font-family="Helvetica,sans-Serif" font-size="10.00">Cpp</text>
</a>
</g>
</g>
<!-- dir_68267d1309a1af8e8297ef4c3efbcdba -->
<g id="node2" class="node">
<title>dir_68267d1309a1af8e8297ef4c3efbcdba</title>
<g id="a_node2"><a xlink:href="dir_68267d1309a1af8e8297ef4c3efbcdba.html" target="_top" xlink:title="src">
<polygon fill="white" stroke="red" points="74,-36 20,-36 20,0 74,0 74,-36"/>
<text text-anchor="middle" x="47" y="-15.5" font-family="Helvetica,sans-Serif" font-size="10.00">src</text>
</a>
</g>
</g>
<!-- dir_2c0969b615ffb11bbb22365e8f90b47c&#45;&gt;dir_68267d1309a1af8e8297ef4c3efbcdba -->
<g id="edge1" class="edge">
<title>dir_2c0969b615ffb11bbb22365e8f90b47c&#45;&gt;dir_68267d1309a1af8e8297ef4c3efbcdba</title>
<path fill="none" stroke="black" d="M47,-71.7C47,-63.98 47,-54.71 47,-46.11"/>
<polygon fill="black" stroke="black" points="50.5,-46.1 47,-36.1 43.5,-46.1 50.5,-46.1"/>
<g id="a_edge1&#45;headlabel"><a xlink:href="dir_000007_000015.html" target="_top" xlink:title="3">
<text text-anchor="middle" x="53.34" y="-47.2" font-family="Helvetica,sans-Serif" font-size="10.00">3</text>
</a>
</g>
</g>
</g>
</svg>
