<?xml version="1.0" encoding="UTF-8" standalone="no"?>
<!DOCTYPE svg PUBLIC "-//W3C//DTD SVG 1.1//EN"
 "http://www.w3.org/Graphics/SVG/1.1/DTD/svg11.dtd">
<!-- Generated by graphviz version 2.43.0 (0)
 -->
<!-- Title: examples Pages: 1 -->
<svg width="552pt" height="132pt"
 viewBox="0.00 0.00 552.00 132.00" xmlns="http://www.w3.org/2000/svg" xmlns:xlink="http://www.w3.org/1999/xlink">
<g id="graph0" class="graph" transform="scale(1 1) rotate(0) translate(4 128)">
<title>examples</title>
<polygon fill="white" stroke="transparent" points="-4,4 -4,-128 548,-128 548,4 -4,4"/>
<g id="clust1" class="cluster">
<title>clusterdir_d28a4824dc47e487b107a5db32ef43c4</title>
<g id="a_clust1"><a xlink:href="dir_d28a4824dc47e487b107a5db32ef43c4.html" target="_top">
<polygon fill="#eeeeff" stroke="black" points="8,-64 8,-116 536,-116 536,-64 8,-64"/>
</a>
</g>
</g>
<!-- dir_d28a4824dc47e487b107a5db32ef43c4 -->
<g id="node1" class="node">
<title>dir_d28a4824dc47e487b107a5db32ef43c4</title>
<text text-anchor="middle" x="495" y="-87.5" font-family="Helvetica,sans-Serif" font-size="10.00">examples</text>
</g>
<!-- dir_ec1fd854e558f8e9d0ef0dbf180823d9 -->
<g id="node2" class="node">
<title>dir_ec1fd854e558f8e9d0ef0dbf180823d9</title>
<g id="a_node2"><a xlink:href="dir_ec1fd854e558f8e9d0ef0dbf180823d9.html" target="_top" xlink:title="CasADi">
<polygon fill="white" stroke="red" points="444,-108 390,-108 390,-72 444,-72 444,-108"/>
<text text-anchor="middle" x="417" y="-87.5" font-family="Helvetica,sans-Serif" font-size="10.00">CasADi</text>
</a>
</g>
</g>
<!-- dir_68267d1309a1af8e8297ef4c3efbcdba -->
<g id="node7" class="node">
<title>dir_68267d1309a1af8e8297ef4c3efbcdba</title>
<g id="a_node7"><a xlink:href="dir_68267d1309a1af8e8297ef4c3efbcdba.html" target="_top" xlink:title="src">
<polygon fill="white" stroke="red" points="372,-36 318,-36 318,0 372,0 372,-36"/>
<text text-anchor="middle" x="345" y="-15.5" font-family="Helvetica,sans-Serif" font-size="10.00">src</text>
</a>
</g>
</g>
<!-- dir_ec1fd854e558f8e9d0ef0dbf180823d9&#45;&gt;dir_68267d1309a1af8e8297ef4c3efbcdba -->
<g id="edge3" class="edge">
<title>dir_ec1fd854e558f8e9d0ef0dbf180823d9&#45;&gt;dir_68267d1309a1af8e8297ef4c3efbcdba</title>
<path fill="none" stroke="black" d="M399.2,-71.7C390.4,-63.14 379.62,-52.66 370,-43.3"/>
<polygon fill="black" stroke="black" points="372.2,-40.57 362.59,-36.1 367.32,-45.58 372.2,-40.57"/>
<g id="a_edge3&#45;headlabel"><a xlink:href="dir_000002_000015.html" target="_top" xlink:title="4">
<text text-anchor="middle" x="376.76" y="-38.54" font-family="Helvetica,sans-Serif" font-size="10.00">4</text>
</a>
</g>
</g>
<!-- dir_8e00f3122b89f4402dfd722681639447 -->
<g id="node3" class="node">
<title>dir_8e00f3122b89f4402dfd722681639447</title>
<g id="a_node3"><a xlink:href="dir_8e00f3122b89f4402dfd722681639447.html" target="_top" xlink:title="CUTEst">
<polygon fill="white" stroke="red" points="372,-108 318,-108 318,-72 372,-72 372,-108"/>
<text text-anchor="middle" x="345" y="-87.5" font-family="Helvetica,sans-Serif" font-size="10.00">CUTEst</text>
</a>
</g>
</g>
<!-- dir_8e00f3122b89f4402dfd722681639447&#45;&gt;dir_68267d1309a1af8e8297ef4c3efbcdba -->
<g id="edge2" class="edge">
<title>dir_8e00f3122b89f4402dfd722681639447&#45;&gt;dir_68267d1309a1af8e8297ef4c3efbcdba</title>
<path fill="none" stroke="black" d="M345,-71.7C345,-63.98 345,-54.71 345,-46.11"/>
<polygon fill="black" stroke="black" points="348.5,-46.1 345,-36.1 341.5,-46.1 348.5,-46.1"/>
<g id="a_edge2&#45;headlabel"><a xlink:href="dir_000004_000015.html" target="_top" xlink:title="4">
<text text-anchor="middle" x="351.34" y="-47.2" font-family="Helvetica,sans-Serif" font-size="10.00">4</text>
</a>
</g>
</g>
<!-- dir_a6d0d206a08b6fa5447308d863e5961d -->
<g id="node4" class="node">
<title>dir_a6d0d206a08b6fa5447308d863e5961d</title>
<g id="a_node4"><a xlink:href="dir_a6d0d206a08b6fa5447308d863e5961d.html" target="_top" xlink:title="mpc">
<polygon fill="white" stroke="red" points="300,-108 246,-108 246,-72 300,-72 300,-108"/>
<text text-anchor="middle" x="273" y="-87.5" font-family="Helvetica,sans-Serif" font-size="10.00">mpc</text>
</a>
</g>
</g>
<!-- dir_1fd8892362710afd0ff1312ff0845237 -->
<g id="node5" class="node">
<title>dir_1fd8892362710afd0ff1312ff0845237</title>
<g id="a_node5"><a xlink:href="dir_1fd8892362710afd0ff1312ff0845237.html" target="_top" xlink:title="Presentation">
<polygon fill="white" stroke="red" points="228,-108 150,-108 150,-72 228,-72 228,-108"/>
<text text-anchor="middle" x="189" y="-87.5" font-family="Helvetica,sans-Serif" font-size="10.00">Presentation</text>
</a>
</g>
</g>
<!-- dir_1fd8892362710afd0ff1312ff0845237&#45;&gt;dir_68267d1309a1af8e8297ef4c3efbcdba -->
<g id="edge1" class="edge">
<title>dir_1fd8892362710afd0ff1312ff0845237&#45;&gt;dir_68267d1309a1af8e8297ef4c3efbcdba</title>
<path fill="none" stroke="black" d="M220.83,-71.94C226.19,-69.21 231.72,-66.47 237,-64 260.35,-53.08 287.09,-41.93 308.12,-33.46"/>
<polygon fill="black" stroke="black" points="309.66,-36.61 317.65,-29.65 307.06,-30.11 309.66,-36.61"/>
<g id="a_edge1&#45;headlabel"><a xlink:href="dir_000006_000015.html" target="_top" xlink:title="3">
<text text-anchor="middle" x="307.38" y="-38.08" font-family="Helvetica,sans-Serif" font-size="10.00">3</text>
</a>
</g>
</g>
<!-- dir_6db9965c87d1daa9d8300cacdfed3ed9 -->
<g id="node6" class="node">
<title>dir_6db9965c87d1daa9d8300cacdfed3ed9</title>
<g id="a_node6"><a xlink:href="dir_6db9965c87d1daa9d8300cacdfed3ed9.html" target="_top" xlink:title="simple_optimization">
<polygon fill="white" stroke="red" points="132,-108 16,-108 16,-72 132,-72 132,-108"/>
<text text-anchor="middle" x="74" y="-87.5" font-family="Helvetica,sans-Serif" font-size="10.00">simple_optimization</text>
</a>
</g>
</g>
</g>
</svg>
