<?xml version="1.0" encoding="UTF-8" standalone="no"?>
<!DOCTYPE svg PUBLIC "-//W3C//DTD SVG 1.1//EN"
 "http://www.w3.org/Graphics/SVG/1.1/DTD/svg11.dtd">
<!-- Generated by graphviz version 2.43.0 (0)
 -->
<!-- Title: Inner solvers Pages: 1 -->
<svg width="435pt" height="38pt"
 viewBox="0.00 0.00 435.00 38.00" xmlns="http://www.w3.org/2000/svg" xmlns:xlink="http://www.w3.org/1999/xlink">
<g id="graph0" class="graph" transform="scale(1 1) rotate(0) translate(4 34)">
<title>Inner solvers</title>
<polygon fill="white" stroke="transparent" points="-4,4 -4,-34 431,-34 431,4 -4,4"/>
<!-- Node2 -->
<g id="node1" class="node">
<title>Node2</title>
<g id="a_node1"><a xlink:href="group__grp__ALMSolver.html" target="_top" xlink:title="Augmented Lagrangian Method solver (ALM).">
<polygon fill="white" stroke="black" points="130,-30 0,-30 0,0 130,0 130,-30"/>
<text text-anchor="start" x="8" y="-18" font-family="Helvetica,sans-Serif" font-size="10.00">Augmented Lagrangian</text>
<text text-anchor="middle" x="65" y="-7" font-family="Helvetica,sans-Serif" font-size="10.00"> Method solver</text>
</a>
</g>
</g>
<!-- Node1 -->
<g id="node2" class="node">
<title>Node1</title>
<g id="a_node2"><a xlink:title="Solvers for the inner problem, such as PANOC.">
<polygon fill="#bfbfbf" stroke="black" points="246,-24.5 166,-24.5 166,-5.5 246,-5.5 246,-24.5"/>
<text text-anchor="middle" x="206" y="-12.5" font-family="Helvetica,sans-Serif" font-size="10.00">Inner solvers</text>
</a>
</g>
</g>
<!-- Node2&#45;&gt;Node1 -->
<g id="edge1" class="edge">
<title>Node2&#45;&gt;Node1</title>
<path fill="none" stroke="black" d="M140.43,-15C149.13,-15 157.72,-15 165.66,-15"/>
<polygon fill="black" stroke="black" points="140.21,-11.5 130.21,-15 140.21,-18.5 140.21,-11.5"/>
</g>
<!-- Node3 -->
<g id="node3" class="node">
<title>Node3</title>
<g id="a_node3"><a xlink:href="group__grp__PANOCDirectionProviders.html" target="_top" xlink:title="Algorithms that provide quasi&#45;Newton steps for the PANOC solver, such as L&#45;BFGS.">
<polygon fill="white" stroke="black" points="427,-24.5 282,-24.5 282,-5.5 427,-5.5 427,-24.5"/>
<text text-anchor="middle" x="354.5" y="-12.5" font-family="Helvetica,sans-Serif" font-size="10.00">PANOC direction providers</text>
</a>
</g>
</g>
<!-- Node1&#45;&gt;Node3 -->
<g id="edge2" class="edge">
<title>Node1&#45;&gt;Node3</title>
<path fill="none" stroke="black" d="M256.38,-15C264.6,-15 273.26,-15 281.89,-15"/>
<polygon fill="black" stroke="black" points="256.26,-11.5 246.26,-15 256.26,-18.5 256.26,-11.5"/>
</g>
</g>
</svg>
