<?xml version="1.0" encoding="UTF-8" standalone="no"?>
<!DOCTYPE svg PUBLIC "-//W3C//DTD SVG 1.1//EN"
 "http://www.w3.org/Graphics/SVG/1.1/DTD/svg11.dtd">
<!-- Generated by graphviz version 2.43.0 (0)
 -->
<!-- Title: guarded&#45;aa&#45;pga.hpp Pages: 1 -->
<svg width="316pt" height="140pt"
 viewBox="0.00 0.00 316.09 140.00" xmlns="http://www.w3.org/2000/svg" xmlns:xlink="http://www.w3.org/1999/xlink">
<g id="graph0" class="graph" transform="scale(1 1) rotate(0) translate(4 136)">
<title>guarded&#45;aa&#45;pga.hpp</title>
<polygon fill="white" stroke="transparent" points="-4,4 -4,-136 312.09,-136 312.09,4 -4,4"/>
<!-- Node1 -->
<g id="node1" class="node">
<title>Node1</title>
<g id="a_node1"><a xlink:title=" ">
<polygon fill="#bfbfbf" stroke="black" points="13.59,-112.5 13.59,-131.5 128.59,-131.5 128.59,-112.5 13.59,-112.5"/>
<text text-anchor="middle" x="71.09" y="-119.5" font-family="Helvetica,sans-Serif" font-size="10.00">guarded&#45;aa&#45;pga.hpp</text>
</a>
</g>
</g>
<!-- Node2 -->
<g id="node2" class="node">
<title>Node2</title>
<g id="a_node2"><a xlink:href="alpaqa_8cpp.html" target="_top" xlink:title="This file defines all Python bindings.">
<polygon fill="white" stroke="black" points="36.09,-0.5 36.09,-19.5 106.09,-19.5 106.09,-0.5 36.09,-0.5"/>
<text text-anchor="middle" x="71.09" y="-7.5" font-family="Helvetica,sans-Serif" font-size="10.00">alpaqa.cpp</text>
</a>
</g>
</g>
<!-- Node1&#45;&gt;Node2 -->
<g id="edge1" class="edge">
<title>Node1&#45;&gt;Node2</title>
<path fill="none" stroke="midnightblue" d="M38.49,-107.9C24.98,-100.65 10.71,-90.18 3.09,-76 -10.13,-51.4 24.65,-30.66 49.2,-19.6"/>
<polygon fill="midnightblue" stroke="midnightblue" points="37.12,-111.12 47.63,-112.41 40.21,-104.84 37.12,-111.12"/>
</g>
<!-- Node3 -->
<g id="node3" class="node">
<title>Node3</title>
<g id="a_node3"><a xlink:href="kwargs-to-struct_8hpp.html" target="_top" xlink:title="This file defines mappings from Python dicts (kwargs) to simple parameter structs.">
<polygon fill="white" stroke="black" points="12.09,-56.5 12.09,-75.5 130.09,-75.5 130.09,-56.5 12.09,-56.5"/>
<text text-anchor="middle" x="71.09" y="-63.5" font-family="Helvetica,sans-Serif" font-size="10.00">kwargs&#45;to&#45;struct.hpp</text>
</a>
</g>
</g>
<!-- Node1&#45;&gt;Node3 -->
<g id="edge2" class="edge">
<title>Node1&#45;&gt;Node3</title>
<path fill="none" stroke="midnightblue" d="M71.09,-101.8C71.09,-92.91 71.09,-82.78 71.09,-75.75"/>
<polygon fill="midnightblue" stroke="midnightblue" points="67.59,-102.08 71.09,-112.08 74.59,-102.08 67.59,-102.08"/>
</g>
<!-- Node4 -->
<g id="node4" class="node">
<title>Node4</title>
<g id="a_node4"><a xlink:href="polymorphic-inner-solver_8hpp.html" target="_top" xlink:title=" ">
<polygon fill="white" stroke="black" points="148.09,-56.5 148.09,-75.5 308.09,-75.5 308.09,-56.5 148.09,-56.5"/>
<text text-anchor="middle" x="228.09" y="-63.5" font-family="Helvetica,sans-Serif" font-size="10.00">polymorphic&#45;inner&#45;solver.hpp</text>
</a>
</g>
</g>
<!-- Node1&#45;&gt;Node4 -->
<g id="edge4" class="edge">
<title>Node1&#45;&gt;Node4</title>
<path fill="none" stroke="midnightblue" d="M105.48,-109.17C135.04,-99 176.96,-84.59 203.33,-75.52"/>
<polygon fill="midnightblue" stroke="midnightblue" points="104.28,-105.88 95.96,-112.44 106.56,-112.5 104.28,-105.88"/>
</g>
<!-- Node3&#45;&gt;Node2 -->
<g id="edge3" class="edge">
<title>Node3&#45;&gt;Node2</title>
<path fill="none" stroke="midnightblue" d="M71.09,-45.8C71.09,-36.91 71.09,-26.78 71.09,-19.75"/>
<polygon fill="midnightblue" stroke="midnightblue" points="67.59,-46.08 71.09,-56.08 74.59,-46.08 67.59,-46.08"/>
</g>
<!-- Node4&#45;&gt;Node2 -->
<g id="edge5" class="edge">
<title>Node4&#45;&gt;Node2</title>
<path fill="none" stroke="midnightblue" d="M193.7,-53.17C164.14,-43 122.21,-28.59 95.85,-19.52"/>
<polygon fill="midnightblue" stroke="midnightblue" points="192.62,-56.5 203.21,-56.44 194.89,-49.88 192.62,-56.5"/>
</g>
</g>
</svg>
