<?xml version="1.0" encoding="UTF-8" standalone="no"?>
<!DOCTYPE svg PUBLIC "-//W3C//DTD SVG 1.1//EN"
 "http://www.w3.org/Graphics/SVG/1.1/DTD/svg11.dtd">
<!-- Generated by graphviz version 2.43.0 (0)
 -->
<!-- Title: panoc.hpp Pages: 1 -->
<svg width="500pt" height="196pt"
 viewBox="0.00 0.00 500.00 196.00" xmlns="http://www.w3.org/2000/svg" xmlns:xlink="http://www.w3.org/1999/xlink">
<g id="graph0" class="graph" transform="scale(1 1) rotate(0) translate(4 192)">
<title>panoc.hpp</title>
<polygon fill="white" stroke="transparent" points="-4,4 -4,-192 496,-192 496,4 -4,4"/>
<!-- Node1 -->
<g id="node1" class="node">
<title>Node1</title>
<g id="a_node1"><a xlink:title=" ">
<polygon fill="#bfbfbf" stroke="black" points="150.5,-168.5 150.5,-187.5 217.5,-187.5 217.5,-168.5 150.5,-168.5"/>
<text text-anchor="middle" x="184" y="-175.5" font-family="Helvetica,sans-Serif" font-size="10.00">panoc.hpp</text>
</a>
</g>
</g>
<!-- Node2 -->
<g id="node2" class="node">
<title>Node2</title>
<g id="a_node2"><a xlink:href="alm_8cpp.html" target="_top" xlink:title=" ">
<polygon fill="white" stroke="black" points="0,-112.5 0,-131.5 56,-131.5 56,-112.5 0,-112.5"/>
<text text-anchor="middle" x="28" y="-119.5" font-family="Helvetica,sans-Serif" font-size="10.00">alm.cpp</text>
</a>
</g>
</g>
<!-- Node1&#45;&gt;Node2 -->
<g id="edge1" class="edge">
<title>Node1&#45;&gt;Node2</title>
<path fill="none" stroke="midnightblue" d="M149.83,-165.17C120.46,-155 78.8,-140.59 52.6,-131.52"/>
<polygon fill="midnightblue" stroke="midnightblue" points="148.69,-168.48 159.28,-168.44 150.98,-161.86 148.69,-168.48"/>
</g>
<!-- Node3 -->
<g id="node3" class="node">
<title>Node3</title>
<g id="a_node3"><a xlink:href="alpaqa_8cpp.html" target="_top" xlink:title="This file defines all Python bindings.">
<polygon fill="white" stroke="black" points="255,-0.5 255,-19.5 325,-19.5 325,-0.5 255,-0.5"/>
<text text-anchor="middle" x="290" y="-7.5" font-family="Helvetica,sans-Serif" font-size="10.00">alpaqa.cpp</text>
</a>
</g>
</g>
<!-- Node1&#45;&gt;Node3 -->
<g id="edge2" class="edge">
<title>Node1&#45;&gt;Node3</title>
<path fill="none" stroke="midnightblue" d="M146.77,-164.79C119.5,-153.65 89.44,-135.37 103,-112 135.22,-56.47 210.03,-29.77 254.65,-18.36"/>
<polygon fill="midnightblue" stroke="midnightblue" points="145.63,-168.1 156.22,-168.43 148.14,-161.57 145.63,-168.1"/>
</g>
<!-- Node4 -->
<g id="node4" class="node">
<title>Node4</title>
<g id="a_node4"><a xlink:href="Presentation_2Cpp_2main_8cpp.html" target="_top" xlink:title=" ">
<polygon fill="white" stroke="black" points="112,-112.5 112,-131.5 174,-131.5 174,-112.5 112,-112.5"/>
<text text-anchor="middle" x="143" y="-119.5" font-family="Helvetica,sans-Serif" font-size="10.00">main.cpp</text>
</a>
</g>
</g>
<!-- Node1&#45;&gt;Node4 -->
<g id="edge3" class="edge">
<title>Node1&#45;&gt;Node4</title>
<path fill="none" stroke="midnightblue" d="M170.98,-159.86C163.88,-150.5 155.4,-139.33 149.64,-131.75"/>
<polygon fill="midnightblue" stroke="midnightblue" points="168.39,-162.24 177.23,-168.08 173.97,-158 168.39,-162.24"/>
</g>
<!-- Node5 -->
<g id="node5" class="node">
<title>Node5</title>
<g id="a_node5"><a xlink:href="panoc_8cpp.html" target="_top" xlink:title=" ">
<polygon fill="white" stroke="black" points="192,-112.5 192,-131.5 258,-131.5 258,-112.5 192,-112.5"/>
<text text-anchor="middle" x="225" y="-119.5" font-family="Helvetica,sans-Serif" font-size="10.00">panoc.cpp</text>
</a>
</g>
</g>
<!-- Node1&#45;&gt;Node5 -->
<g id="edge4" class="edge">
<title>Node1&#45;&gt;Node5</title>
<path fill="none" stroke="midnightblue" d="M197.02,-159.86C204.12,-150.5 212.6,-139.33 218.36,-131.75"/>
<polygon fill="midnightblue" stroke="midnightblue" points="194.03,-158 190.77,-168.08 199.61,-162.24 194.03,-158"/>
</g>
<!-- Node6 -->
<g id="node6" class="node">
<title>Node6</title>
<g id="a_node6"><a xlink:href="polymorphic-inner-solver_8hpp.html" target="_top" xlink:title=" ">
<polygon fill="white" stroke="black" points="210,-56.5 210,-75.5 370,-75.5 370,-56.5 210,-56.5"/>
<text text-anchor="middle" x="290" y="-63.5" font-family="Helvetica,sans-Serif" font-size="10.00">polymorphic&#45;inner&#45;solver.hpp</text>
</a>
</g>
</g>
<!-- Node1&#45;&gt;Node6 -->
<g id="edge5" class="edge">
<title>Node1&#45;&gt;Node6</title>
<path fill="none" stroke="midnightblue" d="M219.81,-164.51C236.13,-157.24 254.54,-146.58 267,-132 281.31,-115.25 286.93,-89 288.96,-75.56"/>
<polygon fill="midnightblue" stroke="midnightblue" points="218.37,-161.31 210.5,-168.4 221.08,-167.77 218.37,-161.31"/>
</g>
<!-- Node7 -->
<g id="node7" class="node">
<title>Node7</title>
<g id="a_node7"><a xlink:href="polymorphic-panoc-direction_8hpp.html" target="_top" xlink:title=" ">
<polygon fill="white" stroke="black" points="314,-112.5 314,-131.5 492,-131.5 492,-112.5 314,-112.5"/>
<text text-anchor="middle" x="403" y="-119.5" font-family="Helvetica,sans-Serif" font-size="10.00">polymorphic&#45;panoc&#45;direction.hpp</text>
</a>
</g>
</g>
<!-- Node1&#45;&gt;Node7 -->
<g id="edge7" class="edge">
<title>Node1&#45;&gt;Node7</title>
<path fill="none" stroke="midnightblue" d="M227.55,-166.26C268.94,-156.05 330.39,-140.9 368.5,-131.51"/>
<polygon fill="midnightblue" stroke="midnightblue" points="226.61,-162.89 217.74,-168.68 228.29,-169.68 226.61,-162.89"/>
</g>
<!-- Node6&#45;&gt;Node3 -->
<g id="edge6" class="edge">
<title>Node6&#45;&gt;Node3</title>
<path fill="none" stroke="midnightblue" d="M290,-45.8C290,-36.91 290,-26.78 290,-19.75"/>
<polygon fill="midnightblue" stroke="midnightblue" points="286.5,-46.08 290,-56.08 293.5,-46.08 286.5,-46.08"/>
</g>
<!-- Node7&#45;&gt;Node3 -->
<g id="edge8" class="edge">
<title>Node7&#45;&gt;Node3</title>
<path fill="none" stroke="midnightblue" d="M399.94,-102.33C396.78,-88.19 390.62,-69.04 379,-56 363.1,-38.17 338.48,-26.48 319.16,-19.5"/>
<polygon fill="midnightblue" stroke="midnightblue" points="396.54,-103.23 401.87,-112.39 403.42,-101.91 396.54,-103.23"/>
</g>
<!-- Node7&#45;&gt;Node6 -->
<g id="edge9" class="edge">
<title>Node7&#45;&gt;Node6</title>
<path fill="none" stroke="midnightblue" d="M376,-108.1C354.89,-98.01 326.14,-84.27 307.82,-75.52"/>
<polygon fill="midnightblue" stroke="midnightblue" points="374.56,-111.29 385.09,-112.44 377.58,-104.97 374.56,-111.29"/>
</g>
</g>
</svg>
