<?xml version="1.0" encoding="UTF-8" standalone="no"?>
<!DOCTYPE svg PUBLIC "-//W3C//DTD SVG 1.1//EN"
 "http://www.w3.org/Graphics/SVG/1.1/DTD/svg11.dtd">
<!-- Generated by graphviz version 2.43.0 (0)
 -->
<!-- Title: project Pages: 1 -->
<svg width="1199pt" height="1012pt"
 viewBox="0.00 0.00 1199.00 1011.50" xmlns="http://www.w3.org/2000/svg" xmlns:xlink="http://www.w3.org/1999/xlink">
<g id="graph0" class="graph" transform="scale(1 1) rotate(0) translate(4 1007.5)">
<title>project</title>
<polygon fill="white" stroke="transparent" points="-4,4 -4,-1007.5 1195,-1007.5 1195,4 -4,4"/>
<!-- Node1 -->
<g id="node1" class="node">
<title>Node1</title>
<g id="a_node1"><a xlink:title="Project a vector onto a box.">
<polygon fill="#bfbfbf" stroke="black" points="1141,-106 1141,-125 1191,-125 1191,-106 1141,-106"/>
<text text-anchor="middle" x="1166" y="-113" font-family="Helvetica,sans-Serif" font-size="10.00">project</text>
</a>
</g>
</g>
<!-- Node2 -->
<g id="node2" class="node">
<title>Node2</title>
<g id="a_node2"><a xlink:href="namespacealpaqa_1_1detail.html#a609b04c1159d9c3a0346c2ff7fbacb86" target="_top" xlink:title="Calculate the error between ẑ and g(x).">
<polygon fill="white" stroke="black" points="639,-347.5 639,-377.5 748,-377.5 748,-347.5 639,-347.5"/>
<text text-anchor="start" x="647" y="-365.5" font-family="Helvetica,sans-Serif" font-size="10.00">alpaqa::detail::calc</text>
<text text-anchor="middle" x="693.5" y="-354.5" font-family="Helvetica,sans-Serif" font-size="10.00">_err_z</text>
</a>
</g>
</g>
<!-- Node1&#45;&gt;Node2 -->
<g id="edge1" class="edge">
<title>Node1&#45;&gt;Node2</title>
<path fill="none" stroke="midnightblue" d="M1137.59,-129.89C1054.82,-173.34 807.96,-302.94 723.34,-347.36"/>
<polygon fill="midnightblue" stroke="midnightblue" points="1139.62,-132.78 1146.84,-125.03 1136.36,-126.58 1139.62,-132.78"/>
</g>
<!-- Node8 -->
<g id="node8" class="node">
<title>Node8</title>
<g id="a_node8"><a xlink:href="classalpaqa_1_1GAAPGASolver.html#a570ec001ea8eee359be8a1b90b782cfb" target="_top" xlink:title=" ">
<polygon fill="white" stroke="black" points="268,-541.5 268,-571.5 396,-571.5 396,-541.5 268,-541.5"/>
<text text-anchor="start" x="276" y="-559.5" font-family="Helvetica,sans-Serif" font-size="10.00">alpaqa::GAAPGASolver</text>
<text text-anchor="middle" x="332" y="-548.5" font-family="Helvetica,sans-Serif" font-size="10.00">::operator()</text>
</a>
</g>
</g>
<!-- Node1&#45;&gt;Node8 -->
<g id="edge12" class="edge">
<title>Node1&#45;&gt;Node8</title>
<path fill="none" stroke="midnightblue" d="M1130.61,-115.5C1071.23,-115.5 945.63,-115.5 839.5,-115.5 839.5,-115.5 839.5,-115.5 692.5,-115.5 587.44,-115.5 538.09,-113.35 469,-192.5 415.06,-254.29 460.99,-296.4 433,-373.5 409.03,-439.52 363.96,-510.57 343.54,-541.12"/>
<polygon fill="midnightblue" stroke="midnightblue" points="1130.91,-119 1140.91,-115.5 1130.91,-112 1130.91,-119"/>
</g>
<!-- Node10 -->
<g id="node10" class="node">
<title>Node10</title>
<g id="a_node10"><a xlink:href="namespacealpaqa.html#afbb5293539f52dbdf340e2543bea918d" target="_top" xlink:title="Get the distance squared between the given vector and its projection in the Σ norm.">
<polygon fill="white" stroke="black" points="977.5,-68 977.5,-87 1056.5,-87 1056.5,-68 977.5,-68"/>
<text text-anchor="middle" x="1017" y="-75" font-family="Helvetica,sans-Serif" font-size="10.00">dist_squared</text>
</a>
</g>
</g>
<!-- Node1&#45;&gt;Node10 -->
<g id="edge9" class="edge">
<title>Node1&#45;&gt;Node10</title>
<path fill="none" stroke="midnightblue" d="M1130.83,-106.67C1108.11,-100.79 1078.28,-93.08 1054.99,-87.06"/>
<polygon fill="midnightblue" stroke="midnightblue" points="1130.17,-110.11 1140.73,-109.23 1131.92,-103.33 1130.17,-110.11"/>
</g>
<!-- Node11 -->
<g id="node11" class="node">
<title>Node11</title>
<g id="a_node11"><a xlink:href="namespacealpaqa_1_1casadi__problem.html#a361218207ebbd76dea6f929820337a0e" target="_top" xlink:title=" ">
<polygon fill="white" stroke="black" points="929,-0.5 929,-30.5 1105,-30.5 1105,-0.5 929,-0.5"/>
<text text-anchor="start" x="937" y="-18.5" font-family="Helvetica,sans-Serif" font-size="10.00">alpaqa.casadi_problem.generate</text>
<text text-anchor="middle" x="1017" y="-7.5" font-family="Helvetica,sans-Serif" font-size="10.00">_and_compile_casadi_problem</text>
</a>
</g>
</g>
<!-- Node1&#45;&gt;Node11 -->
<g id="edge10" class="edge">
<title>Node1&#45;&gt;Node11</title>
<path fill="none" stroke="midnightblue" d="M1149.3,-98.02C1137.83,-85.92 1121.46,-69.99 1105,-58.5 1089.39,-47.6 1070.61,-37.95 1054.5,-30.56"/>
<polygon fill="midnightblue" stroke="midnightblue" points="1147.04,-100.73 1156.4,-105.69 1152.18,-95.97 1147.04,-100.73"/>
</g>
<!-- Node12 -->
<g id="node12" class="node">
<title>Node12</title>
<g id="a_node12"><a xlink:href="namespacealpaqa.html#aebbd23b8fcae9c5fdf8aac14dcebf39e" target="_top" xlink:title="Get the difference between the given vector and its projection.">
<polygon fill="white" stroke="black" points="957.5,-525 957.5,-544 1076.5,-544 1076.5,-525 957.5,-525"/>
<text text-anchor="middle" x="1017" y="-532" font-family="Helvetica,sans-Serif" font-size="10.00">projecting_difference</text>
</a>
</g>
</g>
<!-- Node1&#45;&gt;Node12 -->
<g id="edge13" class="edge">
<title>Node1&#45;&gt;Node12</title>
<path fill="none" stroke="midnightblue" d="M1158.21,-134.86C1132.31,-208.67 1040.3,-470.94 1021.41,-524.79"/>
<polygon fill="midnightblue" stroke="midnightblue" points="1161.65,-135.63 1161.65,-125.04 1155.04,-133.32 1161.65,-135.63"/>
</g>
<!-- Node3 -->
<g id="node3" class="node">
<title>Node3</title>
<g id="a_node3"><a xlink:href="classalpaqa_1_1PANOCSolver.html#aaa9758a40bd362331202fb232b4bb7ae" target="_top" xlink:title=" ">
<polygon fill="white" stroke="black" points="272,-334.5 272,-364.5 392,-364.5 392,-334.5 272,-334.5"/>
<text text-anchor="start" x="280" y="-352.5" font-family="Helvetica,sans-Serif" font-size="10.00">alpaqa::PANOCSolver</text>
<text text-anchor="middle" x="332" y="-341.5" font-family="Helvetica,sans-Serif" font-size="10.00">::operator()</text>
</a>
</g>
</g>
<!-- Node2&#45;&gt;Node3 -->
<g id="edge2" class="edge">
<title>Node2&#45;&gt;Node3</title>
<path fill="none" stroke="midnightblue" d="M672.46,-339.91C655.8,-322.95 630.45,-301.07 603,-291.5 516.53,-261.37 408.79,-308.48 359.66,-334.35"/>
<polygon fill="midnightblue" stroke="midnightblue" points="670.06,-342.46 679.48,-347.3 675.13,-337.64 670.06,-342.46"/>
</g>
<!-- Node4 -->
<g id="node4" class="node">
<title>Node4</title>
<g id="a_node4"><a xlink:href="classalpaqa_1_1SecondOrderPANOCSolver.html#acb04b3f19dafad9b4e7e7c1c19018d19" target="_top" xlink:title=" ">
<polygon fill="white" stroke="black" points="241,-683.5 241,-713.5 423,-713.5 423,-683.5 241,-683.5"/>
<text text-anchor="start" x="249" y="-701.5" font-family="Helvetica,sans-Serif" font-size="10.00">alpaqa::SecondOrderPANOCSolver</text>
<text text-anchor="middle" x="332" y="-690.5" font-family="Helvetica,sans-Serif" font-size="10.00">::operator()</text>
</a>
</g>
</g>
<!-- Node2&#45;&gt;Node4 -->
<g id="edge3" class="edge">
<title>Node2&#45;&gt;Node4</title>
<path fill="none" stroke="midnightblue" d="M628.58,-365.14C570.47,-368.95 490.6,-378.2 469,-400.5 387.22,-484.93 506.99,-571.17 433,-662.5 425.62,-671.6 415.75,-678.41 405.08,-683.49"/>
<polygon fill="midnightblue" stroke="midnightblue" points="629.03,-368.62 638.8,-364.51 628.6,-361.63 629.03,-368.62"/>
</g>
<!-- Node5 -->
<g id="node5" class="node">
<title>Node5</title>
<g id="a_node5"><a xlink:href="classalpaqa_1_1StructuredPANOCLBFGSSolver.html#ade95d8a7a1892d4087d6fffc958cde6e" target="_top" xlink:title=" ">
<polygon fill="white" stroke="black" points="231,-842.5 231,-872.5 433,-872.5 433,-842.5 231,-842.5"/>
<text text-anchor="start" x="239" y="-860.5" font-family="Helvetica,sans-Serif" font-size="10.00">alpaqa::StructuredPANOCLBFGSSolver</text>
<text text-anchor="middle" x="332" y="-849.5" font-family="Helvetica,sans-Serif" font-size="10.00">::operator()</text>
</a>
</g>
</g>
<!-- Node2&#45;&gt;Node5 -->
<g id="edge4" class="edge">
<title>Node2&#45;&gt;Node5</title>
<path fill="none" stroke="midnightblue" d="M683.04,-387.21C670.96,-419.78 650.26,-479.1 639,-531.5 624.57,-598.66 652.69,-791.07 603,-838.5 579.08,-861.33 499.84,-864.8 433.35,-863.3"/>
<polygon fill="midnightblue" stroke="midnightblue" points="686.41,-388.21 686.64,-377.62 679.85,-385.75 686.41,-388.21"/>
</g>
<!-- Node6 -->
<g id="node6" class="node">
<title>Node6</title>
<g id="a_node6"><a xlink:href="classalpaqa_1_1LBFGSSolver.html#a8540540028b02dfe8b7e3ec0c49c07dd" target="_top" xlink:title=" ">
<polygon fill="white" stroke="black" points="477,-459.5 477,-489.5 595,-489.5 595,-459.5 477,-459.5"/>
<text text-anchor="start" x="485" y="-477.5" font-family="Helvetica,sans-Serif" font-size="10.00">alpaqa::LBFGSSolver</text>
<text text-anchor="middle" x="536" y="-466.5" font-family="Helvetica,sans-Serif" font-size="10.00">::operator()</text>
</a>
</g>
</g>
<!-- Node2&#45;&gt;Node6 -->
<g id="edge5" class="edge">
<title>Node2&#45;&gt;Node6</title>
<path fill="none" stroke="midnightblue" d="M673.74,-385.39C656.91,-404.69 630.68,-431.89 603,-449.5 597.11,-453.25 590.57,-456.57 583.96,-459.46"/>
<polygon fill="midnightblue" stroke="midnightblue" points="676.51,-387.53 680.35,-377.66 671.19,-382.99 676.51,-387.53"/>
</g>
<!-- Node7 -->
<g id="node7" class="node">
<title>Node7</title>
<g id="a_node7"><a xlink:href="classalpaqa_1_1LBFGSBSolver.html#a8540540028b02dfe8b7e3ec0c49c07dd" target="_top" xlink:title=" ">
<polygon fill="white" stroke="black" points="473.5,-410.5 473.5,-440.5 598.5,-440.5 598.5,-410.5 473.5,-410.5"/>
<text text-anchor="start" x="481.5" y="-428.5" font-family="Helvetica,sans-Serif" font-size="10.00">alpaqa::LBFGSBSolver</text>
<text text-anchor="middle" x="536" y="-417.5" font-family="Helvetica,sans-Serif" font-size="10.00">::operator()</text>
</a>
</g>
</g>
<!-- Node2&#45;&gt;Node7 -->
<g id="edge6" class="edge">
<title>Node2&#45;&gt;Node7</title>
<path fill="none" stroke="midnightblue" d="M645.73,-381.45C622.84,-390.72 595.67,-401.73 574.21,-410.42"/>
<polygon fill="midnightblue" stroke="midnightblue" points="647.3,-384.59 655.25,-377.59 644.67,-378.1 647.3,-384.59"/>
</g>
<!-- Node2&#45;&gt;Node8 -->
<g id="edge7" class="edge">
<title>Node2&#45;&gt;Node8</title>
<path fill="none" stroke="midnightblue" d="M654.41,-343.14C607.66,-322.33 527.42,-296.4 469,-329.5 447.57,-341.65 366.57,-492.81 340.87,-541.5"/>
<polygon fill="midnightblue" stroke="midnightblue" points="653.03,-346.36 663.58,-347.35 655.95,-340 653.03,-346.36"/>
</g>
<!-- Node9 -->
<g id="node9" class="node">
<title>Node9</title>
<g id="a_node9"><a xlink:href="classalpaqa_1_1PGASolver.html#af516b794e244432023aea7ba3cd0d1d8" target="_top" xlink:title=" ">
<polygon fill="white" stroke="black" points="275.5,-623.5 275.5,-653.5 388.5,-653.5 388.5,-623.5 275.5,-623.5"/>
<text text-anchor="start" x="283.5" y="-641.5" font-family="Helvetica,sans-Serif" font-size="10.00">alpaqa::PGASolver::</text>
<text text-anchor="middle" x="332" y="-630.5" font-family="Helvetica,sans-Serif" font-size="10.00">operator()</text>
</a>
</g>
</g>
<!-- Node2&#45;&gt;Node9 -->
<g id="edge8" class="edge">
<title>Node2&#45;&gt;Node9</title>
<path fill="none" stroke="midnightblue" d="M633.47,-345.11C583.64,-334.36 513.5,-329.03 469,-367.5 396.37,-430.29 487.71,-501.6 433,-580.5 419.33,-600.21 396.64,-614.16 376.32,-623.43"/>
<polygon fill="midnightblue" stroke="midnightblue" points="632.94,-348.58 643.47,-347.39 634.5,-341.75 632.94,-348.58"/>
</g>
<!-- Node11&#45;&gt;Node11 -->
<g id="edge11" class="edge">
<title>Node11&#45;&gt;Node11</title>
<path fill="none" stroke="midnightblue" d="M1043.3,-40.96C1040.03,-45.68 1031.27,-49 1017,-49 993.59,-49 984.99,-40.06 991.21,-30.66"/>
<polygon fill="midnightblue" stroke="midnightblue" points="1046.78,-40.48 1042.79,-30.66 1039.79,-40.82 1046.78,-40.48"/>
</g>
<!-- Node13 -->
<g id="node13" class="node">
<title>Node13</title>
<g id="a_node13"><a xlink:href="namespacealpaqa_1_1detail.html#a164b2b3296b6868a4dd53b7c0d9d64e2" target="_top" xlink:title="Compute the ε from the stopping criterion, see PANOCStopCrit.">
<polygon fill="white" stroke="black" points="481.5,-749.5 481.5,-779.5 590.5,-779.5 590.5,-749.5 481.5,-749.5"/>
<text text-anchor="start" x="489.5" y="-767.5" font-family="Helvetica,sans-Serif" font-size="10.00">alpaqa::detail::calc</text>
<text text-anchor="middle" x="536" y="-756.5" font-family="Helvetica,sans-Serif" font-size="10.00">_error_stop_crit</text>
</a>
</g>
</g>
<!-- Node12&#45;&gt;Node13 -->
<g id="edge14" class="edge">
<title>Node12&#45;&gt;Node13</title>
<path fill="none" stroke="midnightblue" d="M988.73,-548.73C940.5,-573.79 836.84,-627.15 748,-669.5 686.35,-698.89 613.53,-731.14 571.57,-749.49"/>
<polygon fill="midnightblue" stroke="midnightblue" points="990.36,-551.83 997.62,-544.11 987.13,-545.62 990.36,-551.83"/>
</g>
<!-- Node17 -->
<g id="node17" class="node">
<title>Node17</title>
<g id="a_node17"><a xlink:href="namespacealpaqa_1_1detail.html#a8f6ca1622de905436d84d5fe0f028d63" target="_top" xlink:title="Calculate the gradient ∇ψ(x).">
<polygon fill="white" stroke="black" points="639,-962.5 639,-992.5 748,-992.5 748,-962.5 639,-962.5"/>
<text text-anchor="start" x="647" y="-980.5" font-family="Helvetica,sans-Serif" font-size="10.00">alpaqa::detail::calc</text>
<text text-anchor="middle" x="693.5" y="-969.5" font-family="Helvetica,sans-Serif" font-size="10.00">_grad_ψ</text>
</a>
</g>
</g>
<!-- Node12&#45;&gt;Node17 -->
<g id="edge22" class="edge">
<title>Node12&#45;&gt;Node17</title>
<path fill="none" stroke="midnightblue" d="M1008.66,-553.43C982.84,-617.7 889.98,-830.15 748,-947.5 741.27,-953.06 733.36,-958.14 725.72,-962.47"/>
<polygon fill="midnightblue" stroke="midnightblue" points="1011.92,-554.7 1012.35,-544.11 1005.41,-552.12 1011.92,-554.7"/>
</g>
<!-- Node20 -->
<g id="node20" class="node">
<title>Node20</title>
<g id="a_node20"><a xlink:href="namespacealpaqa_1_1detail.html#a3610f01aab6727758fa7ffff75eb21e6" target="_top" xlink:title="Calculate both ψ(x) and the vector ŷ that can later be used to compute ∇ψ.">
<polygon fill="white" stroke="black" points="784,-519.5 784,-549.5 893,-549.5 893,-519.5 784,-519.5"/>
<text text-anchor="start" x="792" y="-537.5" font-family="Helvetica,sans-Serif" font-size="10.00">alpaqa::detail::calc</text>
<text text-anchor="middle" x="838.5" y="-526.5" font-family="Helvetica,sans-Serif" font-size="10.00">_ψ_ŷ</text>
</a>
</g>
</g>
<!-- Node12&#45;&gt;Node20 -->
<g id="edge31" class="edge">
<title>Node12&#45;&gt;Node20</title>
<path fill="none" stroke="midnightblue" d="M946.89,-534.5C929.07,-534.5 910.16,-534.5 893.25,-534.5"/>
<polygon fill="midnightblue" stroke="midnightblue" points="947.23,-538 957.23,-534.5 947.23,-531 947.23,-538"/>
</g>
<!-- Node23 -->
<g id="node23" class="node">
<title>Node23</title>
<g id="a_node23"><a xlink:href="namespacealpaqa.html#ad0cdf210b4e36a43a6d7f7a4a975d9f1" target="_top" xlink:title="Get the distance squared between the given vector and its projection.">
<polygon fill="white" stroke="black" points="799,-481 799,-500 878,-500 878,-481 799,-481"/>
<text text-anchor="middle" x="838.5" y="-488" font-family="Helvetica,sans-Serif" font-size="10.00">dist_squared</text>
</a>
</g>
</g>
<!-- Node12&#45;&gt;Node23 -->
<g id="edge55" class="edge">
<title>Node12&#45;&gt;Node23</title>
<path fill="none" stroke="midnightblue" d="M967.99,-522.53C939.62,-515.46 904.19,-506.63 877.72,-500.03"/>
<polygon fill="midnightblue" stroke="midnightblue" points="967.15,-525.93 977.7,-524.95 968.85,-519.14 967.15,-525.93"/>
</g>
<!-- Node13&#45;&gt;Node4 -->
<g id="edge15" class="edge">
<title>Node13&#45;&gt;Node4</title>
<path fill="none" stroke="midnightblue" d="M479.4,-746.33C447.93,-736.05 409.03,-723.34 379.24,-713.61"/>
<polygon fill="midnightblue" stroke="midnightblue" points="478.32,-749.66 488.91,-749.44 480.49,-743.01 478.32,-749.66"/>
</g>
<!-- Node13&#45;&gt;Node5 -->
<g id="edge16" class="edge">
<title>Node13&#45;&gt;Node5</title>
<path fill="none" stroke="midnightblue" d="M483.65,-783.37C478.67,-785.37 473.72,-787.43 469,-789.5 430.92,-806.18 388.22,-828.08 360.99,-842.45"/>
<polygon fill="midnightblue" stroke="midnightblue" points="485.18,-786.52 493.2,-779.6 482.61,-780.01 485.18,-786.52"/>
</g>
<!-- Node13&#45;&gt;Node8 -->
<g id="edge17" class="edge">
<title>Node13&#45;&gt;Node8</title>
<path fill="none" stroke="midnightblue" d="M507.78,-742.7C494.75,-731.21 479.69,-716.25 469,-700.5 445.49,-665.88 460.67,-644.89 433,-613.5 416.61,-594.91 392.64,-580.96 372.27,-571.51"/>
<polygon fill="midnightblue" stroke="midnightblue" points="505.7,-745.53 515.57,-749.39 510.26,-740.22 505.7,-745.53"/>
</g>
<!-- Node13&#45;&gt;Node9 -->
<g id="edge18" class="edge">
<title>Node13&#45;&gt;Node9</title>
<path fill="none" stroke="midnightblue" d="M511.95,-742C487.42,-718.43 449.88,-683.45 433,-673.5 419.29,-665.42 403.43,-658.81 388.44,-653.59"/>
<polygon fill="midnightblue" stroke="midnightblue" points="509.79,-744.78 519.41,-749.21 514.65,-739.75 509.79,-744.78"/>
</g>
<!-- Node14 -->
<g id="node14" class="node">
<title>Node14</title>
<g id="a_node14"><a xlink:href="namespacealpaqa.html#a623fe9757577812e38c5e4f85f484954" target="_top" xlink:title=" ">
<polygon fill="white" stroke="black" points="295.5,-755 295.5,-774 368.5,-774 368.5,-755 295.5,-755"/>
<text text-anchor="middle" x="332" y="-762" font-family="Helvetica,sans-Serif" font-size="10.00">panoc_impl</text>
</a>
</g>
</g>
<!-- Node13&#45;&gt;Node14 -->
<g id="edge19" class="edge">
<title>Node13&#45;&gt;Node14</title>
<path fill="none" stroke="midnightblue" d="M471.12,-764.5C437.28,-764.5 396.98,-764.5 368.67,-764.5"/>
<polygon fill="midnightblue" stroke="midnightblue" points="471.4,-768 481.4,-764.5 471.4,-761 471.4,-768"/>
</g>
<!-- Node15 -->
<g id="node15" class="node">
<title>Node15</title>
<g id="a_node15"><a xlink:href="namespacealpaqa.html#a376c6e914033784e80698c416693b9c7" target="_top" xlink:title=" ">
<polygon fill="white" stroke="black" points="149,-755 149,-774 195,-774 195,-755 149,-755"/>
<text text-anchor="middle" x="172" y="-762" font-family="Helvetica,sans-Serif" font-size="10.00">panoc</text>
</a>
</g>
</g>
<!-- Node14&#45;&gt;Node15 -->
<g id="edge20" class="edge">
<title>Node14&#45;&gt;Node15</title>
<path fill="none" stroke="midnightblue" d="M285.02,-764.5C255.42,-764.5 218.26,-764.5 195.07,-764.5"/>
<polygon fill="midnightblue" stroke="midnightblue" points="285.15,-768 295.15,-764.5 285.15,-761 285.15,-768"/>
</g>
<!-- Node16 -->
<g id="node16" class="node">
<title>Node16</title>
<g id="a_node16"><a xlink:href="alpaqa_8cpp.html#a52c00cccef0976f125d4a27f9906c36b" target="_top" xlink:title=" ">
<polygon fill="white" stroke="black" points="0,-755 0,-774 113,-774 113,-755 0,-755"/>
<text text-anchor="middle" x="56.5" y="-762" font-family="Helvetica,sans-Serif" font-size="10.00">PYBIND11_MODULE</text>
</a>
</g>
</g>
<!-- Node15&#45;&gt;Node16 -->
<g id="edge21" class="edge">
<title>Node15&#45;&gt;Node16</title>
<path fill="none" stroke="midnightblue" d="M138.8,-764.5C130.74,-764.5 121.86,-764.5 113.02,-764.5"/>
<polygon fill="midnightblue" stroke="midnightblue" points="138.85,-768 148.85,-764.5 138.85,-761 138.85,-768"/>
</g>
<!-- Node18 -->
<g id="node18" class="node">
<title>Node18</title>
<g id="a_node18"><a xlink:href="namespacealpaqa_1_1detail.html#a92f60c911dd553c7ddf561d87d8c60fd" target="_top" xlink:title="Compute the Hessian matrix of the augmented Lagrangian function multiplied by the given vector,...">
<polygon fill="white" stroke="black" points="469,-962 469,-1003 603,-1003 603,-962 469,-962"/>
<text text-anchor="start" x="477" y="-991" font-family="Helvetica,sans-Serif" font-size="10.00">alpaqa::detail::calc</text>
<text text-anchor="start" x="477" y="-980" font-family="Helvetica,sans-Serif" font-size="10.00">_augmented_lagrangian</text>
<text text-anchor="middle" x="536" y="-969" font-family="Helvetica,sans-Serif" font-size="10.00">_hessian_prod_fd</text>
</a>
</g>
</g>
<!-- Node17&#45;&gt;Node18 -->
<g id="edge23" class="edge">
<title>Node17&#45;&gt;Node18</title>
<path fill="none" stroke="midnightblue" d="M628.84,-979.55C620.4,-979.82 611.73,-980.1 603.25,-980.37"/>
<polygon fill="midnightblue" stroke="midnightblue" points="629.1,-983.04 638.99,-979.22 628.88,-976.04 629.1,-983.04"/>
</g>
<!-- Node19 -->
<g id="node19" class="node">
<title>Node19</title>
<g id="a_node19"><a xlink:href="namespacealpaqa_1_1detail.html#a8a1a5d46f1a3fffc7501abc3e2561367" target="_top" xlink:title="Estimate the Lipschitz constant of the gradient &#160;using finite differences.">
<polygon fill="white" stroke="black" points="477.5,-798.5 477.5,-828.5 594.5,-828.5 594.5,-798.5 477.5,-798.5"/>
<text text-anchor="start" x="485.5" y="-816.5" font-family="Helvetica,sans-Serif" font-size="10.00">alpaqa::detail::initial</text>
<text text-anchor="middle" x="536" y="-805.5" font-family="Helvetica,sans-Serif" font-size="10.00">_lipschitz_estimate</text>
</a>
</g>
</g>
<!-- Node17&#45;&gt;Node19 -->
<g id="edge25" class="edge">
<title>Node17&#45;&gt;Node19</title>
<path fill="none" stroke="midnightblue" d="M670.96,-954.78C638.7,-920.76 578.71,-857.49 551.32,-828.6"/>
<polygon fill="midnightblue" stroke="midnightblue" points="668.73,-957.52 678.15,-962.37 673.81,-952.7 668.73,-957.52"/>
</g>
<!-- Node18&#45;&gt;Node5 -->
<g id="edge24" class="edge">
<title>Node18&#45;&gt;Node5</title>
<path fill="none" stroke="midnightblue" d="M485.66,-957.01C480,-953.89 474.34,-950.67 469,-947.5 427.62,-922.91 381.22,-891.29 354.72,-872.82"/>
<polygon fill="midnightblue" stroke="midnightblue" points="484.06,-960.13 494.52,-961.83 487.41,-953.98 484.06,-960.13"/>
</g>
<!-- Node19&#45;&gt;Node4 -->
<g id="edge26" class="edge">
<title>Node19&#45;&gt;Node4</title>
<path fill="none" stroke="midnightblue" d="M475.54,-793.7C473.28,-792.38 471.09,-790.98 469,-789.5 448.39,-774.88 452.93,-761.04 433,-745.5 415.9,-732.17 394.42,-721.45 375.75,-713.64"/>
<polygon fill="midnightblue" stroke="midnightblue" points="474.06,-796.88 484.54,-798.42 477.31,-790.68 474.06,-796.88"/>
</g>
<!-- Node19&#45;&gt;Node5 -->
<g id="edge27" class="edge">
<title>Node19&#45;&gt;Node5</title>
<path fill="none" stroke="midnightblue" d="M467.57,-828.19C446.54,-832.77 423.31,-837.83 402.16,-842.44"/>
<polygon fill="midnightblue" stroke="midnightblue" points="468.36,-831.6 477.39,-826.05 466.87,-824.76 468.36,-831.6"/>
</g>
<!-- Node19&#45;&gt;Node8 -->
<g id="edge28" class="edge">
<title>Node19&#45;&gt;Node8</title>
<path fill="none" stroke="midnightblue" d="M471.31,-791.97C470.51,-791.18 469.74,-790.35 469,-789.5 416.84,-729.05 479.86,-678.14 433,-613.5 419.1,-594.33 396.64,-580.69 376.53,-571.57"/>
<polygon fill="midnightblue" stroke="midnightblue" points="469.23,-794.79 479.21,-798.36 473.63,-789.35 469.23,-794.79"/>
</g>
<!-- Node19&#45;&gt;Node9 -->
<g id="edge29" class="edge">
<title>Node19&#45;&gt;Node9</title>
<path fill="none" stroke="midnightblue" d="M471.89,-792.29C470.89,-791.4 469.92,-790.47 469,-789.5 431.75,-750.43 470.48,-712.35 433,-673.5 421.12,-661.19 404.68,-653.2 388.55,-648.03"/>
<polygon fill="midnightblue" stroke="midnightblue" points="470.08,-795.3 480.2,-798.42 474.23,-789.67 470.08,-795.3"/>
</g>
<!-- Node19&#45;&gt;Node14 -->
<g id="edge30" class="edge">
<title>Node19&#45;&gt;Node14</title>
<path fill="none" stroke="midnightblue" d="M467.34,-797.09C434.35,-789.09 396.02,-779.79 368.77,-773.18"/>
<polygon fill="midnightblue" stroke="midnightblue" points="466.84,-800.57 477.39,-799.52 468.49,-793.77 466.84,-800.57"/>
</g>
<!-- Node20&#45;&gt;Node3 -->
<g id="edge48" class="edge">
<title>Node20&#45;&gt;Node3</title>
<path fill="none" stroke="midnightblue" d="M786.49,-512.6C785.61,-511.61 784.77,-510.58 784,-509.5 742.85,-452.31 800.57,-241.41 748,-194.5 621.75,-81.85 406,-277.29 347.82,-334.48"/>
<polygon fill="midnightblue" stroke="midnightblue" points="784.32,-515.35 794.12,-519.36 788.96,-510.11 784.32,-515.35"/>
</g>
<!-- Node20&#45;&gt;Node4 -->
<g id="edge49" class="edge">
<title>Node20&#45;&gt;Node4</title>
<path fill="none" stroke="midnightblue" d="M817.26,-557C779.77,-596.61 694.93,-676.82 603,-700.5 544.44,-715.58 476.34,-714.96 423.18,-710.62"/>
<polygon fill="midnightblue" stroke="midnightblue" points="819.86,-559.35 824.12,-549.65 814.74,-554.58 819.86,-559.35"/>
</g>
<!-- Node20&#45;&gt;Node5 -->
<g id="edge50" class="edge">
<title>Node20&#45;&gt;Node5</title>
<path fill="none" stroke="midnightblue" d="M830.6,-559.48C809.88,-628.92 741.01,-824.13 603,-899.5 523.48,-942.93 412.32,-898.17 361,-872.65"/>
<polygon fill="midnightblue" stroke="midnightblue" points="833.98,-560.39 833.41,-549.81 827.25,-558.44 833.98,-560.39"/>
</g>
<!-- Node20&#45;&gt;Node6 -->
<g id="edge51" class="edge">
<title>Node20&#45;&gt;Node6</title>
<path fill="none" stroke="midnightblue" d="M773.84,-521.79C720.97,-511.23 646.4,-496.34 595.13,-486.11"/>
<polygon fill="midnightblue" stroke="midnightblue" points="773.28,-525.25 783.78,-523.77 774.66,-518.38 773.28,-525.25"/>
</g>
<!-- Node20&#45;&gt;Node7 -->
<g id="edge52" class="edge">
<title>Node20&#45;&gt;Node7</title>
<path fill="none" stroke="midnightblue" d="M795.91,-515.09C791.88,-513.2 787.86,-511.31 784,-509.5 767.98,-501.98 764.47,-498.97 748,-492.5 695.77,-471.98 634.49,-453.08 591.46,-440.62"/>
<polygon fill="midnightblue" stroke="midnightblue" points="794.7,-518.38 805.24,-519.45 797.66,-512.04 794.7,-518.38"/>
</g>
<!-- Node20&#45;&gt;Node8 -->
<g id="edge53" class="edge">
<title>Node20&#45;&gt;Node8</title>
<path fill="none" stroke="midnightblue" d="M786.59,-512.63C785.67,-511.63 784.81,-510.59 784,-509.5 715.69,-417.11 834.72,-328.88 748,-253.5 654.41,-172.15 568.48,-179.48 469,-253.5 424.33,-286.74 454.47,-322.12 433,-373.5 405.78,-438.64 362.01,-510.72 342.69,-541.38"/>
<polygon fill="midnightblue" stroke="midnightblue" points="784.63,-515.56 794.48,-519.47 789.21,-510.27 784.63,-515.56"/>
</g>
<!-- Node20&#45;&gt;Node9 -->
<g id="edge54" class="edge">
<title>Node20&#45;&gt;Node9</title>
<path fill="none" stroke="midnightblue" d="M787.07,-512.95C785.98,-511.86 784.95,-510.71 784,-509.5 735.5,-448.28 807.93,-387.58 748,-337.5 652.83,-257.99 562.8,-252.38 469,-333.5 385.09,-406.07 495.18,-488.63 433,-580.5 419.61,-600.28 397.06,-614.2 376.76,-623.44"/>
<polygon fill="midnightblue" stroke="midnightblue" points="785.04,-515.81 794.99,-519.45 789.48,-510.4 785.04,-515.81"/>
</g>
<!-- Node21 -->
<g id="node21" class="node">
<title>Node21</title>
<g id="a_node21"><a xlink:href="namespacealpaqa_1_1detail.html#a5895b05665103ffbaf9ad3385c957dc0" target="_top" xlink:title="Calculate both ψ(x) and its gradient ∇ψ(x).">
<polygon fill="white" stroke="black" points="639,-541.5 639,-571.5 748,-571.5 748,-541.5 639,-541.5"/>
<text text-anchor="start" x="647" y="-559.5" font-family="Helvetica,sans-Serif" font-size="10.00">alpaqa::detail::calc</text>
<text text-anchor="middle" x="693.5" y="-548.5" font-family="Helvetica,sans-Serif" font-size="10.00">_ψ_grad_ψ</text>
</a>
</g>
</g>
<!-- Node20&#45;&gt;Node21 -->
<g id="edge32" class="edge">
<title>Node20&#45;&gt;Node21</title>
<path fill="none" stroke="midnightblue" d="M773.95,-544.28C765.44,-545.59 756.78,-546.92 748.46,-548.2"/>
<polygon fill="midnightblue" stroke="midnightblue" points="774.49,-547.73 783.85,-542.75 773.43,-540.82 774.49,-547.73"/>
</g>
<!-- Node22 -->
<g id="node22" class="node">
<title>Node22</title>
<g id="a_node22"><a xlink:href="namespacealpaqa_1_1detail.html#a3e432963691339ba0588d90186008735" target="_top" xlink:title="Increase the estimate of the Lipschitz constant of the objective gradient and decrease the step size ...">
<polygon fill="white" stroke="black" points="472,-661.5 472,-691.5 600,-691.5 600,-661.5 472,-661.5"/>
<text text-anchor="start" x="480" y="-679.5" font-family="Helvetica,sans-Serif" font-size="10.00">alpaqa::detail::descent</text>
<text text-anchor="middle" x="536" y="-668.5" font-family="Helvetica,sans-Serif" font-size="10.00">_lemma</text>
</a>
</g>
</g>
<!-- Node20&#45;&gt;Node22 -->
<g id="edge41" class="edge">
<title>Node20&#45;&gt;Node22</title>
<path fill="none" stroke="midnightblue" d="M800.04,-554.26C784.08,-562.54 765.22,-572.16 748,-580.5 686.42,-610.31 613.58,-642.86 571.59,-661.37"/>
<polygon fill="midnightblue" stroke="midnightblue" points="801.81,-557.28 809.06,-549.56 798.57,-551.08 801.81,-557.28"/>
</g>
<!-- Node21&#45;&gt;Node3 -->
<g id="edge34" class="edge">
<title>Node21&#45;&gt;Node3</title>
<path fill="none" stroke="midnightblue" d="M628.55,-549.8C581.67,-542.63 517.94,-528 469,-498.5 410.51,-463.24 362.22,-395.25 342.52,-364.84"/>
<polygon fill="midnightblue" stroke="midnightblue" points="628.18,-553.29 638.58,-551.26 629.19,-546.36 628.18,-553.29"/>
</g>
<!-- Node21&#45;&gt;Node4 -->
<g id="edge35" class="edge">
<title>Node21&#45;&gt;Node4</title>
<path fill="none" stroke="midnightblue" d="M660.09,-577.07C643.44,-587.08 622.59,-598.81 603,-607.5 545.7,-632.92 528.4,-631.48 469,-651.5 437.87,-661.99 402.84,-674.1 376.12,-683.41"/>
<polygon fill="midnightblue" stroke="midnightblue" points="662.16,-579.9 668.87,-571.71 658.51,-573.93 662.16,-579.9"/>
</g>
<!-- Node21&#45;&gt;Node5 -->
<g id="edge36" class="edge">
<title>Node21&#45;&gt;Node5</title>
<path fill="none" stroke="midnightblue" d="M689.21,-581.89C679.75,-650.32 650.16,-835.87 603,-871.5 534.09,-923.56 424.75,-893.55 368.71,-872.55"/>
<polygon fill="midnightblue" stroke="midnightblue" points="692.73,-581.97 690.6,-571.59 685.79,-581.03 692.73,-581.97"/>
</g>
<!-- Node21&#45;&gt;Node6 -->
<g id="edge37" class="edge">
<title>Node21&#45;&gt;Node6</title>
<path fill="none" stroke="midnightblue" d="M659.35,-536.18C642.67,-526.23 622,-514.31 603,-504.5 593.05,-499.36 582.04,-494.17 571.91,-489.58"/>
<polygon fill="midnightblue" stroke="midnightblue" points="657.8,-539.33 668.17,-541.48 661.41,-533.33 657.8,-539.33"/>
</g>
<!-- Node21&#45;&gt;Node7 -->
<g id="edge38" class="edge">
<title>Node21&#45;&gt;Node7</title>
<path fill="none" stroke="midnightblue" d="M677.97,-532.65C662.22,-508.61 635,-471.94 603,-449.5 598.21,-446.14 592.89,-443.2 587.42,-440.63"/>
<polygon fill="midnightblue" stroke="midnightblue" points="675.1,-534.65 683.44,-541.19 681,-530.88 675.1,-534.65"/>
</g>
<!-- Node21&#45;&gt;Node8 -->
<g id="edge39" class="edge">
<title>Node21&#45;&gt;Node8</title>
<path fill="none" stroke="midnightblue" d="M628.47,-556.5C562.9,-556.5 461.59,-556.5 396.29,-556.5"/>
<polygon fill="midnightblue" stroke="midnightblue" points="628.68,-560 638.68,-556.5 628.68,-553 628.68,-560"/>
</g>
<!-- Node21&#45;&gt;Node9 -->
<g id="edge40" class="edge">
<title>Node21&#45;&gt;Node9</title>
<path fill="none" stroke="midnightblue" d="M628.92,-571C560.76,-586.55 453.61,-610.99 388.67,-625.8"/>
<polygon fill="midnightblue" stroke="midnightblue" points="629.71,-574.41 638.68,-568.78 628.15,-567.59 629.71,-574.41"/>
</g>
<!-- Node21&#45;&gt;Node19 -->
<g id="edge33" class="edge">
<title>Node21&#45;&gt;Node19</title>
<path fill="none" stroke="midnightblue" d="M689.7,-581.6C683.13,-628.75 662.51,-731.05 603,-789.5 599.52,-792.92 595.52,-795.85 591.24,-798.37"/>
<polygon fill="midnightblue" stroke="midnightblue" points="693.17,-582 690.99,-571.64 686.23,-581.1 693.17,-582"/>
</g>
<!-- Node22&#45;&gt;Node3 -->
<g id="edge42" class="edge">
<title>Node22&#45;&gt;Node3</title>
<path fill="none" stroke="midnightblue" d="M520.24,-652.6C480.97,-589.04 374.76,-417.1 342.45,-364.8"/>
<polygon fill="midnightblue" stroke="midnightblue" points="517.29,-654.5 525.53,-661.17 523.25,-650.82 517.29,-654.5"/>
</g>
<!-- Node22&#45;&gt;Node4 -->
<g id="edge43" class="edge">
<title>Node22&#45;&gt;Node4</title>
<path fill="none" stroke="midnightblue" d="M461.63,-684.49C449.2,-685.84 436.16,-687.26 423.36,-688.66"/>
<polygon fill="midnightblue" stroke="midnightblue" points="462.35,-687.93 471.92,-683.37 461.6,-680.97 462.35,-687.93"/>
</g>
<!-- Node22&#45;&gt;Node5 -->
<g id="edge44" class="edge">
<title>Node22&#45;&gt;Node5</title>
<path fill="none" stroke="midnightblue" d="M510.39,-698.64C497.67,-710.42 482.1,-725.35 469,-739.5 451.83,-758.04 451.3,-766.07 433,-783.5 409.07,-806.29 378.03,-828.27 356.92,-842.27"/>
<polygon fill="midnightblue" stroke="midnightblue" points="512.9,-701.09 517.9,-691.75 508.17,-695.93 512.9,-701.09"/>
</g>
<!-- Node22&#45;&gt;Node8 -->
<g id="edge45" class="edge">
<title>Node22&#45;&gt;Node8</title>
<path fill="none" stroke="midnightblue" d="M502.54,-656.05C482.58,-643.57 456.44,-627.41 433,-613.5 408.6,-599.02 380.5,-583.06 360.31,-571.73"/>
<polygon fill="midnightblue" stroke="midnightblue" points="500.91,-659.15 511.24,-661.5 504.62,-653.22 500.91,-659.15"/>
</g>
<!-- Node22&#45;&gt;Node9 -->
<g id="edge46" class="edge">
<title>Node22&#45;&gt;Node9</title>
<path fill="none" stroke="midnightblue" d="M462.08,-662.78C437.92,-658.24 411.43,-653.25 388.77,-648.99"/>
<polygon fill="midnightblue" stroke="midnightblue" points="461.44,-666.22 471.92,-664.63 462.74,-659.34 461.44,-666.22"/>
</g>
<!-- Node22&#45;&gt;Node14 -->
<g id="edge47" class="edge">
<title>Node22&#45;&gt;Node14</title>
<path fill="none" stroke="midnightblue" d="M492.78,-695.84C474.46,-704.15 452.72,-713.92 433,-722.5 406.76,-733.93 376.42,-746.59 356.11,-754.99"/>
<polygon fill="midnightblue" stroke="midnightblue" points="494.37,-698.96 502.02,-691.63 491.47,-692.59 494.37,-698.96"/>
</g>
</g>
</svg>
