<?xml version="1.0" encoding="UTF-8" standalone="no"?>
<!DOCTYPE svg PUBLIC "-//W3C//DTD SVG 1.1//EN"
 "http://www.w3.org/Graphics/SVG/1.1/DTD/svg11.dtd">
<!-- Generated by graphviz version 2.43.0 (0)
 -->
<!-- Title: wrap_load Pages: 1 -->
<svg width="384pt" height="116pt"
 viewBox="0.00 0.00 384.00 116.00" xmlns="http://www.w3.org/2000/svg" xmlns:xlink="http://www.w3.org/1999/xlink">
<g id="graph0" class="graph" transform="scale(1 1) rotate(0) translate(4 112)">
<title>wrap_load</title>
<polygon fill="white" stroke="transparent" points="-4,4 -4,-112 380,-112 380,4 -4,4"/>
<!-- Node1 -->
<g id="node1" class="node">
<title>Node1</title>
<g id="a_node1"><a xlink:title=" ">
<polygon fill="#bfbfbf" stroke="black" points="309,-44.5 309,-63.5 376,-63.5 376,-44.5 309,-44.5"/>
<text text-anchor="middle" x="342.5" y="-51.5" font-family="Helvetica,sans-Serif" font-size="10.00">wrap_load</text>
</a>
</g>
</g>
<!-- Node2 -->
<g id="node2" class="node">
<title>Node2</title>
<g id="a_node2"><a xlink:href="group__grp__ExternalProblemLoaders.html#ga9058ef9196ceb5977f1092e89812f860" target="_top" xlink:title="Load a problem generated by CasADi (without parameters).">
<polygon fill="white" stroke="black" points="149,-88.5 149,-107.5 273,-107.5 273,-88.5 149,-88.5"/>
<text text-anchor="middle" x="211" y="-95.5" font-family="Helvetica,sans-Serif" font-size="10.00">load_CasADi_problem</text>
</a>
</g>
</g>
<!-- Node1&#45;&gt;Node2 -->
<g id="edge1" class="edge">
<title>Node1&#45;&gt;Node2</title>
<path fill="none" stroke="midnightblue" d="M304.98,-66.95C294.66,-70.57 283.4,-74.47 273,-78 262.76,-81.47 251.52,-85.18 241.52,-88.46"/>
<polygon fill="midnightblue" stroke="midnightblue" points="306.27,-70.21 314.54,-63.59 303.95,-63.6 306.27,-70.21"/>
</g>
<!-- Node5 -->
<g id="node5" class="node">
<title>Node5</title>
<g id="a_node5"><a xlink:href="group__grp__ExternalProblemLoaders.html#ga779e3630a3c92415acace0c6439e7cf0" target="_top" xlink:title="Load a problem generated by CasADi (with parameters).">
<polygon fill="white" stroke="black" points="149,-39 149,-69 273,-69 273,-39 149,-39"/>
<text text-anchor="start" x="157" y="-57" font-family="Helvetica,sans-Serif" font-size="10.00">load_CasADi_problem</text>
<text text-anchor="middle" x="211" y="-46" font-family="Helvetica,sans-Serif" font-size="10.00">_with_param</text>
</a>
</g>
</g>
<!-- Node1&#45;&gt;Node5 -->
<g id="edge4" class="edge">
<title>Node1&#45;&gt;Node5</title>
<path fill="none" stroke="midnightblue" d="M298.77,-54C290.56,-54 281.83,-54 273.18,-54"/>
<polygon fill="midnightblue" stroke="midnightblue" points="298.82,-57.5 308.82,-54 298.82,-50.5 298.82,-57.5"/>
</g>
<!-- Node6 -->
<g id="node6" class="node">
<title>Node6</title>
<g id="a_node6"><a xlink:href="namespacealpaqa.html#a7b8abf697b764bb21ca7541499667708" target="_top" xlink:title=" ">
<polygon fill="white" stroke="black" points="168.5,-0.5 168.5,-19.5 253.5,-19.5 253.5,-0.5 168.5,-0.5"/>
<text text-anchor="middle" x="211" y="-7.5" font-family="Helvetica,sans-Serif" font-size="10.00">wrapped_load</text>
</a>
</g>
</g>
<!-- Node1&#45;&gt;Node6 -->
<g id="edge6" class="edge">
<title>Node1&#45;&gt;Node6</title>
<path fill="none" stroke="midnightblue" d="M306.72,-40.94C295.95,-37 284.02,-32.72 273,-29 263.54,-25.8 253.2,-22.51 243.75,-19.57"/>
<polygon fill="midnightblue" stroke="midnightblue" points="305.64,-44.27 316.23,-44.45 308.06,-37.7 305.64,-44.27"/>
</g>
<!-- Node3 -->
<g id="node3" class="node">
<title>Node3</title>
<g id="a_node3"><a xlink:href="CasADi_2Rosenbrock_2main_8cpp.html#a0ddf1224851353fc92bfbff6f499fa97" target="_top" xlink:title=" ">
<polygon fill="white" stroke="black" points="36,-88.5 36,-107.5 77,-107.5 77,-88.5 36,-88.5"/>
<text text-anchor="middle" x="56.5" y="-95.5" font-family="Helvetica,sans-Serif" font-size="10.00">main</text>
</a>
</g>
</g>
<!-- Node2&#45;&gt;Node3 -->
<g id="edge2" class="edge">
<title>Node2&#45;&gt;Node3</title>
<path fill="none" stroke="midnightblue" d="M138.59,-98C116.1,-98 93.04,-98 77.3,-98"/>
<polygon fill="midnightblue" stroke="midnightblue" points="138.85,-101.5 148.85,-98 138.85,-94.5 138.85,-101.5"/>
</g>
<!-- Node4 -->
<g id="node4" class="node">
<title>Node4</title>
<g id="a_node4"><a xlink:href="alpaqa_8cpp.html#a52c00cccef0976f125d4a27f9906c36b" target="_top" xlink:title=" ">
<polygon fill="white" stroke="black" points="0,-47.5 0,-66.5 113,-66.5 113,-47.5 0,-47.5"/>
<text text-anchor="middle" x="56.5" y="-54.5" font-family="Helvetica,sans-Serif" font-size="10.00">PYBIND11_MODULE</text>
</a>
</g>
</g>
<!-- Node2&#45;&gt;Node4 -->
<g id="edge3" class="edge">
<title>Node2&#45;&gt;Node4</title>
<path fill="none" stroke="midnightblue" d="M164.77,-85.84C141.82,-79.67 114.34,-72.28 92.94,-66.53"/>
<polygon fill="midnightblue" stroke="midnightblue" points="164.06,-89.27 174.63,-88.49 165.88,-82.51 164.06,-89.27"/>
</g>
<!-- Node5&#45;&gt;Node4 -->
<g id="edge5" class="edge">
<title>Node5&#45;&gt;Node4</title>
<path fill="none" stroke="midnightblue" d="M138.83,-55.4C130.24,-55.57 121.56,-55.74 113.23,-55.9"/>
<polygon fill="midnightblue" stroke="midnightblue" points="138.92,-58.9 148.85,-55.2 138.78,-51.9 138.92,-58.9"/>
</g>
</g>
</svg>
