<?xml version="1.0" encoding="UTF-8" standalone="no"?>
<!DOCTYPE svg PUBLIC "-//W3C//DTD SVG 1.1//EN"
 "http://www.w3.org/Graphics/SVG/1.1/DTD/svg11.dtd">
<!-- Generated by graphviz version 2.43.0 (0)
 -->
<!-- Title: polymorphic&#45;panoc&#45;direction.hpp Pages: 1 -->
<svg width="1914pt" height="419pt"
 viewBox="0.00 0.00 1913.95 419.00" xmlns="http://www.w3.org/2000/svg" xmlns:xlink="http://www.w3.org/1999/xlink">
<g id="graph0" class="graph" transform="scale(1 1) rotate(0) translate(4 415)">
<title>polymorphic&#45;panoc&#45;direction.hpp</title>
<polygon fill="white" stroke="transparent" points="-4,4 -4,-415 1909.95,-415 1909.95,4 -4,4"/>
<!-- Node1 -->
<g id="node1" class="node">
<title>Node1</title>
<g id="a_node1"><a xlink:title=" ">
<polygon fill="#bfbfbf" stroke="black" points="1563.45,-391.5 1563.45,-410.5 1741.45,-410.5 1741.45,-391.5 1563.45,-391.5"/>
<text text-anchor="middle" x="1652.45" y="-398.5" font-family="Helvetica,sans-Serif" font-size="10.00">polymorphic&#45;panoc&#45;direction.hpp</text>
</a>
</g>
</g>
<!-- Node2 -->
<g id="node2" class="node">
<title>Node2</title>
<g id="a_node2"><a xlink:href="lbfgs_8hpp.html" target="_top" xlink:title=" ">
<polygon fill="white" stroke="black" points="719.45,-324.5 719.45,-354.5 847.45,-354.5 847.45,-324.5 719.45,-324.5"/>
<text text-anchor="start" x="727.45" y="-342.5" font-family="Helvetica,sans-Serif" font-size="10.00">alpaqa/inner/directions</text>
<text text-anchor="middle" x="783.45" y="-331.5" font-family="Helvetica,sans-Serif" font-size="10.00">/lbfgs.hpp</text>
</a>
</g>
</g>
<!-- Node1&#45;&gt;Node2 -->
<g id="edge1" class="edge">
<title>Node1&#45;&gt;Node2</title>
<path fill="none" stroke="midnightblue" d="M1563.13,-393.88C1391.17,-382.11 1017.06,-356.5 857.72,-345.59"/>
<polygon fill="midnightblue" stroke="midnightblue" points="857.75,-342.08 847.54,-344.89 857.28,-349.06 857.75,-342.08"/>
</g>
<!-- Node11 -->
<g id="node11" class="node">
<title>Node11</title>
<g id="a_node11"><a xlink:href="inner_2panoc_8hpp.html" target="_top" xlink:title=" ">
<polygon fill="white" stroke="black" points="1092.95,-330 1092.95,-349 1223.95,-349 1223.95,-330 1092.95,-330"/>
<text text-anchor="middle" x="1158.45" y="-337" font-family="Helvetica,sans-Serif" font-size="10.00">alpaqa/inner/panoc.hpp</text>
</a>
</g>
</g>
<!-- Node1&#45;&gt;Node11 -->
<g id="edge12" class="edge">
<title>Node1&#45;&gt;Node11</title>
<path fill="none" stroke="midnightblue" d="M1581.67,-391.48C1489.39,-380.36 1328.63,-361 1234.04,-349.6"/>
<polygon fill="midnightblue" stroke="midnightblue" points="1234.32,-346.11 1223.97,-348.39 1233.48,-353.06 1234.32,-346.11"/>
</g>
<!-- Node24 -->
<g id="node24" class="node">
<title>Node24</title>
<g id="a_node24"><a xlink:title=" ">
<polygon fill="white" stroke="#bfbfbf" points="1072.45,-118 1072.45,-137 1130.45,-137 1130.45,-118 1072.45,-118"/>
<text text-anchor="middle" x="1101.45" y="-125" font-family="Helvetica,sans-Serif" font-size="10.00">memory</text>
</a>
</g>
</g>
<!-- Node1&#45;&gt;Node24 -->
<g id="edge50" class="edge">
<title>Node1&#45;&gt;Node24</title>
<path fill="none" stroke="midnightblue" d="M1655.13,-391.2C1664.7,-357.86 1693.47,-238.25 1633.45,-179 1594.28,-140.34 1193.17,-154.94 1139.45,-143 1136.44,-142.33 1133.36,-141.47 1130.31,-140.5"/>
<polygon fill="midnightblue" stroke="midnightblue" points="1131.43,-137.19 1120.83,-137.14 1129.09,-143.78 1131.43,-137.19"/>
</g>
<!-- Node33 -->
<g id="node33" class="node">
<title>Node33</title>
<g id="a_node33"><a xlink:title=" ">
<polygon fill="white" stroke="#bfbfbf" points="1680.45,-330 1680.45,-349 1774.45,-349 1774.45,-330 1680.45,-330"/>
<text text-anchor="middle" x="1727.45" y="-337" font-family="Helvetica,sans-Serif" font-size="10.00">pybind11/cast.h</text>
</a>
</g>
</g>
<!-- Node1&#45;&gt;Node33 -->
<g id="edge51" class="edge">
<title>Node1&#45;&gt;Node33</title>
<path fill="none" stroke="midnightblue" d="M1663.19,-391.48C1675,-382.11 1694.19,-366.88 1708.53,-355.51"/>
<polygon fill="midnightblue" stroke="midnightblue" points="1711.06,-357.97 1716.72,-349.01 1706.71,-352.48 1711.06,-357.97"/>
</g>
<!-- Node34 -->
<g id="node34" class="node">
<title>Node34</title>
<g id="a_node34"><a xlink:title=" ">
<polygon fill="white" stroke="#bfbfbf" points="1792.95,-330 1792.95,-349 1905.95,-349 1905.95,-330 1792.95,-330"/>
<text text-anchor="middle" x="1849.45" y="-337" font-family="Helvetica,sans-Serif" font-size="10.00">pybind11/pytypes.h</text>
</a>
</g>
</g>
<!-- Node1&#45;&gt;Node34 -->
<g id="edge52" class="edge">
<title>Node1&#45;&gt;Node34</title>
<path fill="none" stroke="midnightblue" d="M1680.67,-391.48C1715.05,-381.09 1773.26,-363.51 1811.52,-351.95"/>
<polygon fill="midnightblue" stroke="midnightblue" points="1812.71,-355.25 1821.27,-349.01 1810.69,-348.55 1812.71,-355.25"/>
</g>
<!-- Node3 -->
<g id="node3" class="node">
<title>Node3</title>
<g id="a_node3"><a xlink:href="decl_2lbfgs_8hpp.html" target="_top" xlink:title=" ">
<polygon fill="white" stroke="black" points="5.45,-257.5 5.45,-287.5 133.45,-287.5 133.45,-257.5 5.45,-257.5"/>
<text text-anchor="start" x="13.45" y="-275.5" font-family="Helvetica,sans-Serif" font-size="10.00">alpaqa/inner/directions</text>
<text text-anchor="middle" x="69.45" y="-264.5" font-family="Helvetica,sans-Serif" font-size="10.00">/decl/lbfgs.hpp</text>
</a>
</g>
</g>
<!-- Node2&#45;&gt;Node3 -->
<g id="edge2" class="edge">
<title>Node2&#45;&gt;Node3</title>
<path fill="none" stroke="midnightblue" d="M719.14,-332.65C586.71,-320.59 284.23,-293.05 143.72,-280.26"/>
<polygon fill="midnightblue" stroke="midnightblue" points="143.76,-276.75 133.48,-279.33 143.12,-283.72 143.76,-276.75"/>
</g>
<!-- Node9 -->
<g id="node9" class="node">
<title>Node9</title>
<g id="a_node9"><a xlink:title=" ">
<polygon fill="white" stroke="#bfbfbf" points="1267.95,-118 1267.95,-137 1332.95,-137 1332.95,-118 1267.95,-118"/>
<text text-anchor="middle" x="1300.45" y="-125" font-family="Helvetica,sans-Serif" font-size="10.00">stdexcept</text>
</a>
</g>
</g>
<!-- Node2&#45;&gt;Node9 -->
<g id="edge10" class="edge">
<title>Node2&#45;&gt;Node9</title>
<path fill="none" stroke="midnightblue" d="M847.56,-332.66C896.08,-326.38 963.35,-313.6 1017.45,-288 1037.46,-278.53 1036.37,-266.33 1056.45,-257 1130.04,-222.8 1167.5,-265.36 1235.45,-221 1263.55,-202.65 1283.12,-167.54 1293.01,-146.25"/>
<polygon fill="midnightblue" stroke="midnightblue" points="1296.23,-147.6 1297.08,-137.04 1289.83,-144.77 1296.23,-147.6"/>
</g>
<!-- Node10 -->
<g id="node10" class="node">
<title>Node10</title>
<g id="a_node10"><a xlink:title=" ">
<polygon fill="white" stroke="#bfbfbf" points="581.95,-118 581.95,-137 650.95,-137 650.95,-118 581.95,-118"/>
<text text-anchor="middle" x="616.45" y="-125" font-family="Helvetica,sans-Serif" font-size="10.00">type_traits</text>
</a>
</g>
</g>
<!-- Node2&#45;&gt;Node10 -->
<g id="edge11" class="edge">
<title>Node2&#45;&gt;Node10</title>
<path fill="none" stroke="midnightblue" d="M719.39,-330.44C686.41,-323.61 647.19,-311.05 618.45,-288 578.42,-255.9 564.81,-227.86 580.45,-179 584.52,-166.28 593.09,-154.03 600.86,-144.78"/>
<polygon fill="midnightblue" stroke="midnightblue" points="603.57,-147 607.6,-137.21 598.34,-142.35 603.57,-147"/>
</g>
<!-- Node4 -->
<g id="node4" class="node">
<title>Node4</title>
<g id="a_node4"><a xlink:href="box_8hpp.html" target="_top" xlink:title=" ">
<polygon fill="white" stroke="black" points="167.45,-118 167.45,-137 277.45,-137 277.45,-118 167.45,-118"/>
<text text-anchor="middle" x="222.45" y="-125" font-family="Helvetica,sans-Serif" font-size="10.00">alpaqa/util/box.hpp</text>
</a>
</g>
</g>
<!-- Node3&#45;&gt;Node4 -->
<g id="edge3" class="edge">
<title>Node3&#45;&gt;Node4</title>
<path fill="none" stroke="midnightblue" d="M68.4,-257.49C67.7,-237.65 69.4,-201.32 88.45,-179 100.64,-164.71 145.11,-149.7 179.52,-139.8"/>
<polygon fill="midnightblue" stroke="midnightblue" points="180.7,-143.1 189.37,-137.02 178.8,-136.36 180.7,-143.1"/>
</g>
<!-- Node5 -->
<g id="node5" class="node">
<title>Node5</title>
<g id="a_node5"><a xlink:href="vec_8hpp.html" target="_top" xlink:title=" ">
<polygon fill="white" stroke="black" points="194.95,-56.5 194.95,-75.5 249.95,-75.5 249.95,-56.5 194.95,-56.5"/>
<text text-anchor="middle" x="222.45" y="-63.5" font-family="Helvetica,sans-Serif" font-size="10.00">vec.hpp</text>
</a>
</g>
</g>
<!-- Node3&#45;&gt;Node5 -->
<g id="edge6" class="edge">
<title>Node3&#45;&gt;Node5</title>
<path fill="none" stroke="midnightblue" d="M55.96,-257.17C29.41,-227.22 -23.97,-157.05 12.45,-112 33.7,-85.71 130.19,-74.09 184.68,-69.54"/>
<polygon fill="midnightblue" stroke="midnightblue" points="184.97,-73.03 194.66,-68.75 184.42,-66.05 184.97,-73.03"/>
</g>
<!-- Node7 -->
<g id="node7" class="node">
<title>Node7</title>
<g id="a_node7"><a xlink:href="lbfgs-fwd_8hpp.html" target="_top" xlink:title=" ">
<polygon fill="white" stroke="black" points="21.45,-112.5 21.45,-142.5 149.45,-142.5 149.45,-112.5 21.45,-112.5"/>
<text text-anchor="start" x="29.45" y="-130.5" font-family="Helvetica,sans-Serif" font-size="10.00">alpaqa/inner/directions</text>
<text text-anchor="middle" x="85.45" y="-119.5" font-family="Helvetica,sans-Serif" font-size="10.00">/decl/lbfgs&#45;fwd.hpp</text>
</a>
</g>
</g>
<!-- Node3&#45;&gt;Node7 -->
<g id="edge7" class="edge">
<title>Node3&#45;&gt;Node7</title>
<path fill="none" stroke="midnightblue" d="M63.76,-257.5C57.12,-239.19 47.96,-206.25 55.45,-179 58.14,-169.18 63.3,-159.33 68.59,-150.98"/>
<polygon fill="midnightblue" stroke="midnightblue" points="71.58,-152.82 74.27,-142.57 65.78,-148.9 71.58,-152.82"/>
</g>
<!-- Node8 -->
<g id="node8" class="node">
<title>Node8</title>
<g id="a_node8"><a xlink:href="panoc-direction-update_8hpp.html" target="_top" xlink:title=" ">
<polygon fill="white" stroke="black" points="97.45,-179.5 97.45,-220.5 225.45,-220.5 225.45,-179.5 97.45,-179.5"/>
<text text-anchor="start" x="105.45" y="-208.5" font-family="Helvetica,sans-Serif" font-size="10.00">alpaqa/inner/directions</text>
<text text-anchor="start" x="105.45" y="-197.5" font-family="Helvetica,sans-Serif" font-size="10.00">/decl/panoc&#45;direction</text>
<text text-anchor="middle" x="161.45" y="-186.5" font-family="Helvetica,sans-Serif" font-size="10.00">&#45;update.hpp</text>
</a>
</g>
</g>
<!-- Node3&#45;&gt;Node8 -->
<g id="edge8" class="edge">
<title>Node3&#45;&gt;Node8</title>
<path fill="none" stroke="midnightblue" d="M88.07,-257.23C99.46,-248.5 114.37,-237.07 127.78,-226.8"/>
<polygon fill="midnightblue" stroke="midnightblue" points="130.08,-229.45 135.89,-220.59 125.82,-223.89 130.08,-229.45"/>
</g>
<!-- Node4&#45;&gt;Node5 -->
<g id="edge4" class="edge">
<title>Node4&#45;&gt;Node5</title>
<path fill="none" stroke="midnightblue" d="M222.45,-117.98C222.45,-109.58 222.45,-96.48 222.45,-85.66"/>
<polygon fill="midnightblue" stroke="midnightblue" points="225.95,-85.51 222.45,-75.51 218.95,-85.51 225.95,-85.51"/>
</g>
<!-- Node6 -->
<g id="node6" class="node">
<title>Node6</title>
<g id="a_node6"><a xlink:title=" ">
<polygon fill="white" stroke="#bfbfbf" points="187.95,-0.5 187.95,-19.5 256.95,-19.5 256.95,-0.5 187.95,-0.5"/>
<text text-anchor="middle" x="222.45" y="-7.5" font-family="Helvetica,sans-Serif" font-size="10.00">Eigen/Core</text>
</a>
</g>
</g>
<!-- Node5&#45;&gt;Node6 -->
<g id="edge5" class="edge">
<title>Node5&#45;&gt;Node6</title>
<path fill="none" stroke="midnightblue" d="M222.45,-56.08C222.45,-49.01 222.45,-38.86 222.45,-29.99"/>
<polygon fill="midnightblue" stroke="midnightblue" points="225.95,-29.75 222.45,-19.75 218.95,-29.75 225.95,-29.75"/>
</g>
<!-- Node8&#45;&gt;Node4 -->
<g id="edge9" class="edge">
<title>Node8&#45;&gt;Node4</title>
<path fill="none" stroke="midnightblue" d="M178.44,-179.36C187.8,-168.54 199.3,-155.26 208.19,-144.98"/>
<polygon fill="midnightblue" stroke="midnightblue" points="211.05,-147.03 214.94,-137.17 205.75,-142.45 211.05,-147.03"/>
</g>
<!-- Node11&#45;&gt;Node8 -->
<g id="edge44" class="edge">
<title>Node11&#45;&gt;Node8</title>
<path fill="none" stroke="midnightblue" d="M1092.59,-334.05C990.68,-326.77 788.77,-310.82 618.45,-288 447.17,-265.05 404.14,-258.47 235.45,-221 235.35,-220.98 235.24,-220.95 235.14,-220.93"/>
<polygon fill="midnightblue" stroke="midnightblue" points="236.07,-217.55 225.53,-218.7 234.48,-224.37 236.07,-217.55"/>
</g>
<!-- Node11&#45;&gt;Node9 -->
<g id="edge49" class="edge">
<title>Node11&#45;&gt;Node9</title>
<path fill="none" stroke="midnightblue" d="M1202.5,-329.92C1227.08,-322.83 1256.15,-310.18 1273.45,-288 1305.9,-246.38 1305.26,-179.92 1302.62,-147.51"/>
<polygon fill="midnightblue" stroke="midnightblue" points="1306.07,-146.83 1301.62,-137.22 1299.1,-147.51 1306.07,-146.83"/>
</g>
<!-- Node12 -->
<g id="node12" class="node">
<title>Node12</title>
<g id="a_node12"><a xlink:href="inner_2decl_2panoc_8hpp.html" target="_top" xlink:title=" ">
<polygon fill="white" stroke="black" points="854.45,-263 854.45,-282 1008.45,-282 1008.45,-263 854.45,-263"/>
<text text-anchor="middle" x="931.45" y="-270" font-family="Helvetica,sans-Serif" font-size="10.00">alpaqa/inner/decl/panoc.hpp</text>
</a>
</g>
</g>
<!-- Node11&#45;&gt;Node12 -->
<g id="edge13" class="edge">
<title>Node11&#45;&gt;Node12</title>
<path fill="none" stroke="midnightblue" d="M1128.3,-329.87C1087.83,-318.28 1015.83,-297.66 971.03,-284.83"/>
<polygon fill="midnightblue" stroke="midnightblue" points="971.93,-281.45 961.35,-282.06 970,-288.18 971.93,-281.45"/>
</g>
<!-- Node21 -->
<g id="node21" class="node">
<title>Node21</title>
<g id="a_node21"><a xlink:title=" ">
<polygon fill="white" stroke="#bfbfbf" points="730.45,-118 730.45,-137 782.45,-137 782.45,-118 730.45,-118"/>
<text text-anchor="middle" x="756.45" y="-125" font-family="Helvetica,sans-Serif" font-size="10.00">cassert</text>
</a>
</g>
</g>
<!-- Node11&#45;&gt;Node21 -->
<g id="edge45" class="edge">
<title>Node11&#45;&gt;Node21</title>
<path fill="none" stroke="midnightblue" d="M1092.82,-334.71C960.75,-325.52 670.57,-296.95 613.45,-221 602.23,-206.08 602.67,-194.24 613.45,-179 637.49,-145.01 686.4,-133.74 720.28,-130.1"/>
<polygon fill="midnightblue" stroke="midnightblue" points="720.62,-133.58 730.26,-129.19 719.99,-126.61 720.62,-133.58"/>
</g>
<!-- Node29 -->
<g id="node29" class="node">
<title>Node29</title>
<g id="a_node29"><a xlink:href="panoc-helpers_8hpp.html" target="_top" xlink:title=" ">
<polygon fill="white" stroke="black" points="1326.45,-257.5 1326.45,-287.5 1436.45,-287.5 1436.45,-257.5 1326.45,-257.5"/>
<text text-anchor="start" x="1334.45" y="-275.5" font-family="Helvetica,sans-Serif" font-size="10.00">alpaqa/inner/detail</text>
<text text-anchor="middle" x="1381.45" y="-264.5" font-family="Helvetica,sans-Serif" font-size="10.00">/panoc&#45;helpers.hpp</text>
</a>
</g>
</g>
<!-- Node11&#45;&gt;Node29 -->
<g id="edge38" class="edge">
<title>Node11&#45;&gt;Node29</title>
<path fill="none" stroke="midnightblue" d="M1188.06,-329.87C1222.46,-319.84 1280.05,-303.06 1323.45,-290.4"/>
<polygon fill="midnightblue" stroke="midnightblue" points="1324.7,-293.69 1333.32,-287.53 1322.74,-286.97 1324.7,-293.69"/>
</g>
<!-- Node30 -->
<g id="node30" class="node">
<title>Node30</title>
<g id="a_node30"><a xlink:title=" ">
<polygon fill="white" stroke="#bfbfbf" points="1064.95,-263 1064.95,-282 1111.95,-282 1111.95,-263 1064.95,-263"/>
<text text-anchor="middle" x="1088.45" y="-270" font-family="Helvetica,sans-Serif" font-size="10.00">cmath</text>
</a>
</g>
</g>
<!-- Node11&#45;&gt;Node30 -->
<g id="edge46" class="edge">
<title>Node11&#45;&gt;Node30</title>
<path fill="none" stroke="midnightblue" d="M1149.01,-329.73C1137.78,-319.31 1118.83,-301.71 1105.11,-288.97"/>
<polygon fill="midnightblue" stroke="midnightblue" points="1107.45,-286.37 1097.74,-282.13 1102.68,-291.5 1107.45,-286.37"/>
</g>
<!-- Node31 -->
<g id="node31" class="node">
<title>Node31</title>
<g id="a_node31"><a xlink:title=" ">
<polygon fill="white" stroke="#bfbfbf" points="1130.45,-263 1130.45,-282 1186.45,-282 1186.45,-263 1130.45,-263"/>
<text text-anchor="middle" x="1158.45" y="-270" font-family="Helvetica,sans-Serif" font-size="10.00">iomanip</text>
</a>
</g>
</g>
<!-- Node11&#45;&gt;Node31 -->
<g id="edge47" class="edge">
<title>Node11&#45;&gt;Node31</title>
<path fill="none" stroke="midnightblue" d="M1158.45,-329.73C1158.45,-320.18 1158.45,-304.62 1158.45,-292.28"/>
<polygon fill="midnightblue" stroke="midnightblue" points="1161.95,-292.13 1158.45,-282.13 1154.95,-292.13 1161.95,-292.13"/>
</g>
<!-- Node32 -->
<g id="node32" class="node">
<title>Node32</title>
<g id="a_node32"><a xlink:title=" ">
<polygon fill="white" stroke="#bfbfbf" points="1204.45,-263 1204.45,-282 1264.45,-282 1264.45,-263 1204.45,-263"/>
<text text-anchor="middle" x="1234.45" y="-270" font-family="Helvetica,sans-Serif" font-size="10.00">iostream</text>
</a>
</g>
</g>
<!-- Node11&#45;&gt;Node32 -->
<g id="edge48" class="edge">
<title>Node11&#45;&gt;Node32</title>
<path fill="none" stroke="midnightblue" d="M1168.7,-329.73C1180.89,-319.31 1201.47,-301.71 1216.36,-288.97"/>
<polygon fill="midnightblue" stroke="midnightblue" points="1219.04,-291.29 1224.36,-282.13 1214.49,-285.97 1219.04,-291.29"/>
</g>
<!-- Node12&#45;&gt;Node8 -->
<g id="edge20" class="edge">
<title>Node12&#45;&gt;Node8</title>
<path fill="none" stroke="midnightblue" d="M854.26,-267.77C698.74,-259.94 352.57,-240.89 235.45,-221 235.35,-220.98 235.24,-220.97 235.14,-220.95"/>
<polygon fill="midnightblue" stroke="midnightblue" points="235.93,-217.54 225.46,-219.1 234.63,-224.41 235.93,-217.54"/>
</g>
<!-- Node13 -->
<g id="node13" class="node">
<title>Node13</title>
<g id="a_node13"><a xlink:href="lbfgs-stepsize_8hpp.html" target="_top" xlink:title=" ">
<polygon fill="white" stroke="black" points="746.45,-185 746.45,-215 874.45,-215 874.45,-185 746.45,-185"/>
<text text-anchor="start" x="754.45" y="-203" font-family="Helvetica,sans-Serif" font-size="10.00">alpaqa/inner/decl/lbfgs</text>
<text text-anchor="middle" x="810.45" y="-192" font-family="Helvetica,sans-Serif" font-size="10.00">&#45;stepsize.hpp</text>
</a>
</g>
</g>
<!-- Node12&#45;&gt;Node13 -->
<g id="edge14" class="edge">
<title>Node12&#45;&gt;Node13</title>
<path fill="none" stroke="midnightblue" d="M916.61,-262.86C898.48,-252.29 867.27,-234.11 843.37,-220.18"/>
<polygon fill="midnightblue" stroke="midnightblue" points="845.01,-217.09 834.61,-215.08 841.49,-223.13 845.01,-217.09"/>
</g>
<!-- Node14 -->
<g id="node14" class="node">
<title>Node14</title>
<g id="a_node14"><a xlink:href="panoc-fwd_8hpp.html" target="_top" xlink:title=" ">
<polygon fill="white" stroke="black" points="243.95,-185 243.95,-215 376.95,-215 376.95,-185 243.95,-185"/>
<text text-anchor="start" x="251.95" y="-203" font-family="Helvetica,sans-Serif" font-size="10.00">alpaqa/inner/decl/panoc</text>
<text text-anchor="middle" x="310.45" y="-192" font-family="Helvetica,sans-Serif" font-size="10.00">&#45;fwd.hpp</text>
</a>
</g>
</g>
<!-- Node12&#45;&gt;Node14 -->
<g id="edge15" class="edge">
<title>Node12&#45;&gt;Node14</title>
<path fill="none" stroke="midnightblue" d="M854.2,-268.36C748.09,-263.13 551.61,-250.18 386.45,-221 380.68,-219.98 374.71,-218.74 368.77,-217.38"/>
<polygon fill="midnightblue" stroke="midnightblue" points="369.38,-213.93 358.84,-215.01 367.75,-220.74 369.38,-213.93"/>
</g>
<!-- Node15 -->
<g id="node15" class="node">
<title>Node15</title>
<g id="a_node15"><a xlink:href="panoc-stop-crit_8hpp.html" target="_top" xlink:title=" ">
<polygon fill="white" stroke="black" points="1320.95,-185 1320.95,-215 1453.95,-215 1453.95,-185 1320.95,-185"/>
<text text-anchor="start" x="1328.95" y="-203" font-family="Helvetica,sans-Serif" font-size="10.00">alpaqa/inner/decl/panoc</text>
<text text-anchor="middle" x="1387.45" y="-192" font-family="Helvetica,sans-Serif" font-size="10.00">&#45;stop&#45;crit.hpp</text>
</a>
</g>
</g>
<!-- Node12&#45;&gt;Node15 -->
<g id="edge17" class="edge">
<title>Node12&#45;&gt;Node15</title>
<path fill="none" stroke="midnightblue" d="M986.45,-263C1067.39,-250.48 1218.89,-227.06 1310.73,-212.86"/>
<polygon fill="midnightblue" stroke="midnightblue" points="1311.45,-216.29 1320.8,-211.3 1310.38,-209.37 1311.45,-216.29"/>
</g>
<!-- Node17 -->
<g id="node17" class="node">
<title>Node17</title>
<g id="a_node17"><a xlink:href="atomic__stop__signal_8hpp.html" target="_top" xlink:title=" ">
<polygon fill="white" stroke="black" points="1120.95,-185 1120.95,-215 1225.95,-215 1225.95,-185 1120.95,-185"/>
<text text-anchor="start" x="1128.95" y="-203" font-family="Helvetica,sans-Serif" font-size="10.00">alpaqa/util/atomic</text>
<text text-anchor="middle" x="1173.45" y="-192" font-family="Helvetica,sans-Serif" font-size="10.00">_stop_signal.hpp</text>
</a>
</g>
</g>
<!-- Node12&#45;&gt;Node17 -->
<g id="edge21" class="edge">
<title>Node12&#45;&gt;Node17</title>
<path fill="none" stroke="midnightblue" d="M961.51,-262.92C996.39,-252.93 1055.63,-235.92 1106.45,-221 1109.81,-220.01 1113.27,-218.99 1116.75,-217.96"/>
<polygon fill="midnightblue" stroke="midnightblue" points="1118.01,-221.24 1126.61,-215.04 1116.02,-214.53 1118.01,-221.24"/>
</g>
<!-- Node18 -->
<g id="node18" class="node">
<title>Node18</title>
<g id="a_node18"><a xlink:title=" ">
<polygon fill="white" stroke="#bfbfbf" points="1148.45,-118 1148.45,-137 1198.45,-137 1198.45,-118 1148.45,-118"/>
<text text-anchor="middle" x="1173.45" y="-125" font-family="Helvetica,sans-Serif" font-size="10.00">atomic</text>
</a>
</g>
</g>
<!-- Node12&#45;&gt;Node18 -->
<g id="edge34" class="edge">
<title>Node12&#45;&gt;Node18</title>
<path fill="none" stroke="midnightblue" d="M957.61,-262.94C982.97,-254.13 1022.1,-239.14 1053.45,-221 1074.39,-208.88 1127.2,-166.41 1155.27,-143.47"/>
<polygon fill="midnightblue" stroke="midnightblue" points="1157.6,-146.08 1163.12,-137.03 1153.17,-140.67 1157.6,-146.08"/>
</g>
<!-- Node19 -->
<g id="node19" class="node">
<title>Node19</title>
<g id="a_node19"><a xlink:href="lipschitz_8hpp.html" target="_top" xlink:title=" ">
<polygon fill="white" stroke="black" points="394.95,-190.5 394.95,-209.5 527.95,-209.5 527.95,-190.5 394.95,-190.5"/>
<text text-anchor="middle" x="461.45" y="-197.5" font-family="Helvetica,sans-Serif" font-size="10.00">alpaqa/util/lipschitz.hpp</text>
</a>
</g>
</g>
<!-- Node12&#45;&gt;Node19 -->
<g id="edge23" class="edge">
<title>Node12&#45;&gt;Node19</title>
<path fill="none" stroke="midnightblue" d="M874.75,-263C787.68,-249.94 621.38,-224.99 528.47,-211.05"/>
<polygon fill="midnightblue" stroke="midnightblue" points="528.75,-207.56 518.34,-209.53 527.71,-214.48 528.75,-207.56"/>
</g>
<!-- Node20 -->
<g id="node20" class="node">
<title>Node20</title>
<g id="a_node20"><a xlink:href="include_2alpaqa_2util_2problem_8hpp.html" target="_top" xlink:title=" ">
<polygon fill="white" stroke="black" points="892.95,-190.5 892.95,-209.5 1025.95,-209.5 1025.95,-190.5 892.95,-190.5"/>
<text text-anchor="middle" x="959.45" y="-197.5" font-family="Helvetica,sans-Serif" font-size="10.00">alpaqa/util/problem.hpp</text>
</a>
</g>
</g>
<!-- Node12&#45;&gt;Node20 -->
<g id="edge25" class="edge">
<title>Node12&#45;&gt;Node20</title>
<path fill="none" stroke="midnightblue" d="M934.88,-262.86C939.16,-252.07 946.6,-233.35 952.17,-219.32"/>
<polygon fill="midnightblue" stroke="midnightblue" points="955.55,-220.3 955.99,-209.72 949.04,-217.72 955.55,-220.3"/>
</g>
<!-- Node22 -->
<g id="node22" class="node">
<title>Node22</title>
<g id="a_node22"><a xlink:title=" ">
<polygon fill="white" stroke="#bfbfbf" points="1004.45,-118 1004.45,-137 1054.45,-137 1054.45,-118 1004.45,-118"/>
<text text-anchor="middle" x="1029.45" y="-125" font-family="Helvetica,sans-Serif" font-size="10.00">chrono</text>
</a>
</g>
</g>
<!-- Node12&#45;&gt;Node22 -->
<g id="edge35" class="edge">
<title>Node12&#45;&gt;Node22</title>
<path fill="none" stroke="midnightblue" d="M971.9,-263C994.79,-255.89 1021.55,-243.2 1035.45,-221 1049.5,-198.56 1043.01,-166.75 1036.58,-146.89"/>
<polygon fill="midnightblue" stroke="midnightblue" points="1039.79,-145.47 1033.14,-137.22 1033.19,-147.82 1039.79,-145.47"/>
</g>
<!-- Node25 -->
<g id="node25" class="node">
<title>Node25</title>
<g id="a_node25"><a xlink:href="solverstatus_8hpp.html" target="_top" xlink:title=" ">
<polygon fill="white" stroke="black" points="1472.45,-190.5 1472.45,-209.5 1624.45,-209.5 1624.45,-190.5 1472.45,-190.5"/>
<text text-anchor="middle" x="1548.45" y="-197.5" font-family="Helvetica,sans-Serif" font-size="10.00">alpaqa/util/solverstatus.hpp</text>
</a>
</g>
</g>
<!-- Node12&#45;&gt;Node25 -->
<g id="edge32" class="edge">
<title>Node12&#45;&gt;Node25</title>
<path fill="none" stroke="midnightblue" d="M1001.82,-263C1019.63,-260.94 1038.73,-258.81 1056.45,-257 1237.1,-238.54 1284.16,-249.87 1463.45,-221 1477.64,-218.71 1492.98,-215.38 1506.67,-212.08"/>
<polygon fill="midnightblue" stroke="midnightblue" points="1507.91,-215.38 1516.78,-209.59 1506.23,-208.59 1507.91,-215.38"/>
</g>
<!-- Node27 -->
<g id="node27" class="node">
<title>Node27</title>
<g id="a_node27"><a xlink:title=" ">
<polygon fill="white" stroke="#bfbfbf" points="622.45,-190.5 622.45,-209.5 666.45,-209.5 666.45,-190.5 622.45,-190.5"/>
<text text-anchor="middle" x="644.45" y="-197.5" font-family="Helvetica,sans-Serif" font-size="10.00">limits</text>
</a>
</g>
</g>
<!-- Node12&#45;&gt;Node27 -->
<g id="edge36" class="edge">
<title>Node12&#45;&gt;Node27</title>
<path fill="none" stroke="midnightblue" d="M854.23,-263.98C802.26,-257.07 732.99,-244.24 675.45,-221 671.62,-219.45 667.75,-217.41 664.1,-215.23"/>
<polygon fill="midnightblue" stroke="midnightblue" points="665.94,-212.25 655.65,-209.7 662.1,-218.11 665.94,-212.25"/>
</g>
<!-- Node28 -->
<g id="node28" class="node">
<title>Node28</title>
<g id="a_node28"><a xlink:title=" ">
<polygon fill="white" stroke="#bfbfbf" points="684.45,-190.5 684.45,-209.5 728.45,-209.5 728.45,-190.5 684.45,-190.5"/>
<text text-anchor="middle" x="706.45" y="-197.5" font-family="Helvetica,sans-Serif" font-size="10.00">string</text>
</a>
</g>
</g>
<!-- Node12&#45;&gt;Node28 -->
<g id="edge37" class="edge">
<title>Node12&#45;&gt;Node28</title>
<path fill="none" stroke="midnightblue" d="M880.95,-262.94C840.92,-255.08 784.13,-241.5 737.45,-221 733.66,-219.34 729.82,-217.24 726.18,-215.04"/>
<polygon fill="midnightblue" stroke="midnightblue" points="728.01,-212.06 717.73,-209.52 724.19,-217.92 728.01,-212.06"/>
</g>
<!-- Node14&#45;&gt;Node7 -->
<g id="edge16" class="edge">
<title>Node14&#45;&gt;Node7</title>
<path fill="none" stroke="midnightblue" d="M265.73,-184.99C229.73,-173.71 178.97,-157.8 140.47,-145.74"/>
<polygon fill="midnightblue" stroke="midnightblue" points="141.06,-142.26 130.47,-142.61 138.97,-148.94 141.06,-142.26"/>
</g>
<!-- Node15&#45;&gt;Node9 -->
<g id="edge19" class="edge">
<title>Node15&#45;&gt;Node9</title>
<path fill="none" stroke="midnightblue" d="M1369.84,-184.73C1355.23,-172.89 1334.49,-156.09 1319.5,-143.94"/>
<polygon fill="midnightblue" stroke="midnightblue" points="1321.4,-140.97 1311.42,-137.39 1316.99,-146.41 1321.4,-140.97"/>
</g>
<!-- Node16 -->
<g id="node16" class="node">
<title>Node16</title>
<g id="a_node16"><a xlink:title=" ">
<polygon fill="white" stroke="#bfbfbf" points="1358.95,-118 1358.95,-137 1415.95,-137 1415.95,-118 1358.95,-118"/>
<text text-anchor="middle" x="1387.45" y="-125" font-family="Helvetica,sans-Serif" font-size="10.00">ostream</text>
</a>
</g>
</g>
<!-- Node15&#45;&gt;Node16 -->
<g id="edge18" class="edge">
<title>Node15&#45;&gt;Node16</title>
<path fill="none" stroke="midnightblue" d="M1387.45,-184.73C1387.45,-174 1387.45,-159.19 1387.45,-147.46"/>
<polygon fill="midnightblue" stroke="midnightblue" points="1390.95,-147.39 1387.45,-137.39 1383.95,-147.39 1390.95,-147.39"/>
</g>
<!-- Node17&#45;&gt;Node18 -->
<g id="edge22" class="edge">
<title>Node17&#45;&gt;Node18</title>
<path fill="none" stroke="midnightblue" d="M1173.45,-184.73C1173.45,-174 1173.45,-159.19 1173.45,-147.46"/>
<polygon fill="midnightblue" stroke="midnightblue" points="1176.95,-147.39 1173.45,-137.39 1169.95,-147.39 1176.95,-147.39"/>
</g>
<!-- Node19&#45;&gt;Node5 -->
<g id="edge24" class="edge">
<title>Node19&#45;&gt;Node5</title>
<path fill="none" stroke="midnightblue" d="M445.77,-190.34C405.07,-167.86 295.85,-107.54 246.84,-80.47"/>
<polygon fill="midnightblue" stroke="midnightblue" points="248.32,-77.29 237.88,-75.52 244.94,-83.42 248.32,-77.29"/>
</g>
<!-- Node20&#45;&gt;Node4 -->
<g id="edge26" class="edge">
<title>Node20&#45;&gt;Node4</title>
<path fill="none" stroke="midnightblue" d="M931.92,-190.47C917.6,-186.36 899.73,-181.74 883.45,-179 667.3,-142.61 406.92,-132.42 287.75,-129.58"/>
<polygon fill="midnightblue" stroke="midnightblue" points="287.78,-126.08 277.7,-129.35 287.62,-133.08 287.78,-126.08"/>
</g>
<!-- Node20&#45;&gt;Node10 -->
<g id="edge31" class="edge">
<title>Node20&#45;&gt;Node10</title>
<path fill="none" stroke="midnightblue" d="M928.88,-190.43C915.06,-186.69 898.49,-182.4 883.45,-179 805.79,-161.46 714.5,-145.1 661.29,-135.99"/>
<polygon fill="midnightblue" stroke="midnightblue" points="661.62,-132.49 651.17,-134.26 660.44,-139.39 661.62,-132.49"/>
</g>
<!-- Node20&#45;&gt;Node21 -->
<g id="edge27" class="edge">
<title>Node20&#45;&gt;Node21</title>
<path fill="none" stroke="midnightblue" d="M934.96,-190.5C898.92,-177.98 831.43,-154.54 790.56,-140.35"/>
<polygon fill="midnightblue" stroke="midnightblue" points="791.62,-137.01 781.02,-137.03 789.32,-143.62 791.62,-137.01"/>
</g>
<!-- Node20&#45;&gt;Node22 -->
<g id="edge28" class="edge">
<title>Node20&#45;&gt;Node22</title>
<path fill="none" stroke="midnightblue" d="M968.03,-190.36C979.37,-178.94 999.54,-158.62 1013.66,-144.4"/>
<polygon fill="midnightblue" stroke="midnightblue" points="1016.23,-146.78 1020.79,-137.22 1011.26,-141.85 1016.23,-146.78"/>
</g>
<!-- Node23 -->
<g id="node23" class="node">
<title>Node23</title>
<g id="a_node23"><a xlink:title=" ">
<polygon fill="white" stroke="#bfbfbf" points="920.95,-118 920.95,-137 985.95,-137 985.95,-118 920.95,-118"/>
<text text-anchor="middle" x="953.45" y="-125" font-family="Helvetica,sans-Serif" font-size="10.00">functional</text>
</a>
</g>
</g>
<!-- Node20&#45;&gt;Node23 -->
<g id="edge29" class="edge">
<title>Node20&#45;&gt;Node23</title>
<path fill="none" stroke="midnightblue" d="M958.71,-190.36C957.8,-179.68 956.23,-161.22 955.04,-147.23"/>
<polygon fill="midnightblue" stroke="midnightblue" points="958.52,-146.88 954.19,-137.22 951.55,-147.48 958.52,-146.88"/>
</g>
<!-- Node20&#45;&gt;Node24 -->
<g id="edge30" class="edge">
<title>Node20&#45;&gt;Node24</title>
<path fill="none" stroke="midnightblue" d="M976.58,-190.5C1001.1,-178.32 1046.42,-155.82 1075.19,-141.54"/>
<polygon fill="midnightblue" stroke="midnightblue" points="1076.86,-144.62 1084.26,-137.03 1073.75,-138.35 1076.86,-144.62"/>
</g>
<!-- Node26 -->
<g id="node26" class="node">
<title>Node26</title>
<g id="a_node26"><a xlink:title=" ">
<polygon fill="white" stroke="#bfbfbf" points="1524.45,-118 1524.45,-137 1572.45,-137 1572.45,-118 1524.45,-118"/>
<text text-anchor="middle" x="1548.45" y="-125" font-family="Helvetica,sans-Serif" font-size="10.00">iosfwd</text>
</a>
</g>
</g>
<!-- Node25&#45;&gt;Node26 -->
<g id="edge33" class="edge">
<title>Node25&#45;&gt;Node26</title>
<path fill="none" stroke="midnightblue" d="M1548.45,-190.36C1548.45,-179.68 1548.45,-161.22 1548.45,-147.23"/>
<polygon fill="midnightblue" stroke="midnightblue" points="1551.95,-147.22 1548.45,-137.22 1544.95,-147.22 1551.95,-147.22"/>
</g>
<!-- Node29&#45;&gt;Node9 -->
<g id="edge43" class="edge">
<title>Node29&#45;&gt;Node9</title>
<path fill="none" stroke="midnightblue" d="M1436.52,-269.37C1527,-263.97 1691.59,-245.01 1633.45,-179 1591.54,-131.43 1412.52,-155.87 1350.45,-143 1346,-142.08 1341.36,-140.96 1336.79,-139.75"/>
<polygon fill="midnightblue" stroke="midnightblue" points="1337.55,-136.33 1326.98,-137.03 1335.68,-143.08 1337.55,-136.33"/>
</g>
<!-- Node29&#45;&gt;Node15 -->
<g id="edge39" class="edge">
<title>Node29&#45;&gt;Node15</title>
<path fill="none" stroke="midnightblue" d="M1382.66,-257.23C1383.44,-248.06 1384.48,-235.91 1385.38,-225.24"/>
<polygon fill="midnightblue" stroke="midnightblue" points="1388.87,-225.51 1386.24,-215.25 1381.9,-224.91 1388.87,-225.51"/>
</g>
<!-- Node29&#45;&gt;Node17 -->
<g id="edge40" class="edge">
<title>Node29&#45;&gt;Node17</title>
<path fill="none" stroke="midnightblue" d="M1339.86,-257.4C1306.7,-246.16 1260.1,-230.37 1224.65,-218.36"/>
<polygon fill="midnightblue" stroke="midnightblue" points="1225.56,-214.97 1214.97,-215.07 1223.31,-221.6 1225.56,-214.97"/>
</g>
<!-- Node29&#45;&gt;Node20 -->
<g id="edge41" class="edge">
<title>Node29&#45;&gt;Node20</title>
<path fill="none" stroke="midnightblue" d="M1326.28,-262.28C1247.25,-249.08 1102.31,-224.87 1020.27,-211.16"/>
<polygon fill="midnightblue" stroke="midnightblue" points="1020.78,-207.7 1010.34,-209.5 1019.63,-214.6 1020.78,-207.7"/>
</g>
<!-- Node29&#45;&gt;Node25 -->
<g id="edge42" class="edge">
<title>Node29&#45;&gt;Node25</title>
<path fill="none" stroke="midnightblue" d="M1414.84,-257.4C1445.29,-244.55 1489.83,-225.74 1518.98,-213.44"/>
<polygon fill="midnightblue" stroke="midnightblue" points="1520.38,-216.65 1528.23,-209.53 1517.66,-210.2 1520.38,-216.65"/>
</g>
</g>
</svg>
