<?xml version="1.0" encoding="UTF-8" standalone="no"?>
<!DOCTYPE svg PUBLIC "-//W3C//DTD SVG 1.1//EN"
 "http://www.w3.org/Graphics/SVG/1.1/DTD/svg11.dtd">
<!-- Generated by graphviz version 2.43.0 (0)
 -->
<!-- Title: solverstatus.hpp Pages: 1 -->
<svg width="1495pt" height="308pt"
 viewBox="0.00 0.00 1494.52 308.00" xmlns="http://www.w3.org/2000/svg" xmlns:xlink="http://www.w3.org/1999/xlink">
<g id="graph0" class="graph" transform="scale(1 1) rotate(0) translate(4 304)">
<title>solverstatus.hpp</title>
<polygon fill="white" stroke="transparent" points="-4,4 -4,-304 1490.52,-304 1490.52,4 -4,4"/>
<!-- Node1 -->
<g id="node1" class="node">
<title>Node1</title>
<g id="a_node1"><a xlink:title=" ">
<polygon fill="#bfbfbf" stroke="black" points="754.52,-280.5 754.52,-299.5 852.52,-299.5 852.52,-280.5 754.52,-280.5"/>
<text text-anchor="middle" x="803.52" y="-287.5" font-family="Helvetica,sans-Serif" font-size="10.00">solverstatus.hpp</text>
</a>
</g>
</g>
<!-- Node2 -->
<g id="node2" class="node">
<title>Node2</title>
<g id="a_node2"><a xlink:href="alm_8hpp.html" target="_top" xlink:title=" ">
<polygon fill="white" stroke="black" points="66.52,-112.5 66.52,-131.5 122.52,-131.5 122.52,-112.5 66.52,-112.5"/>
<text text-anchor="middle" x="94.52" y="-119.5" font-family="Helvetica,sans-Serif" font-size="10.00">alm.hpp</text>
</a>
</g>
</g>
<!-- Node1&#45;&gt;Node2 -->
<g id="edge1" class="edge">
<title>Node1&#45;&gt;Node2</title>
<path fill="none" stroke="midnightblue" d="M744.14,-289.6C637.61,-289.54 407.51,-284.22 218.52,-244 146.06,-228.58 104.21,-248.55 61.52,-188 48.4,-169.38 70.04,-144.81 84.05,-131.86"/>
<polygon fill="midnightblue" stroke="midnightblue" points="744.37,-293.1 754.36,-289.59 744.36,-286.1 744.37,-293.1"/>
</g>
<!-- Node5 -->
<g id="node5" class="node">
<title>Node5</title>
<g id="a_node5"><a xlink:href="polymorphic-inner-solver_8hpp.html" target="_top" xlink:title=" ">
<polygon fill="white" stroke="black" points="423.52,-56.5 423.52,-75.5 583.52,-75.5 583.52,-56.5 423.52,-56.5"/>
<text text-anchor="middle" x="503.52" y="-63.5" font-family="Helvetica,sans-Serif" font-size="10.00">polymorphic&#45;inner&#45;solver.hpp</text>
</a>
</g>
</g>
<!-- Node1&#45;&gt;Node5 -->
<g id="edge52" class="edge">
<title>Node1&#45;&gt;Node5</title>
<path fill="none" stroke="midnightblue" d="M744.16,-282.44C683.17,-272.53 589.71,-248 535.52,-188 520.23,-171.07 508.5,-100.49 504.77,-75.68"/>
<polygon fill="midnightblue" stroke="midnightblue" points="743.99,-285.95 754.41,-284.02 745.06,-279.03 743.99,-285.95"/>
</g>
<!-- Node6 -->
<g id="node6" class="node">
<title>Node6</title>
<g id="a_node6"><a xlink:href="alpaqa_8cpp.html" target="_top" xlink:title="This file defines all Python bindings.">
<polygon fill="white" stroke="black" points="576.52,-0.5 576.52,-19.5 646.52,-19.5 646.52,-0.5 576.52,-0.5"/>
<text text-anchor="middle" x="611.52" y="-7.5" font-family="Helvetica,sans-Serif" font-size="10.00">alpaqa.cpp</text>
</a>
</g>
</g>
<!-- Node1&#45;&gt;Node6 -->
<g id="edge14" class="edge">
<title>Node1&#45;&gt;Node6</title>
<path fill="none" stroke="midnightblue" d="M862.71,-284.26C971.14,-274.21 1194.81,-246.71 1241.52,-188 1265.59,-157.75 1339.1,-162.02 1225.52,-56 1183.09,-16.39 770.49,-11.6 646.55,-11.06"/>
<polygon fill="midnightblue" stroke="midnightblue" points="862.23,-280.79 852.59,-285.18 862.86,-287.76 862.23,-280.79"/>
</g>
<!-- Node7 -->
<g id="node7" class="node">
<title>Node7</title>
<g id="a_node7"><a xlink:href="decl_2alm_8hpp.html" target="_top" xlink:title=" ">
<polygon fill="white" stroke="black" points="227.52,-224.5 227.52,-243.5 283.52,-243.5 283.52,-224.5 227.52,-224.5"/>
<text text-anchor="middle" x="255.52" y="-231.5" font-family="Helvetica,sans-Serif" font-size="10.00">alm.hpp</text>
</a>
</g>
</g>
<!-- Node1&#45;&gt;Node7 -->
<g id="edge6" class="edge">
<title>Node1&#45;&gt;Node7</title>
<path fill="none" stroke="midnightblue" d="M744.15,-283.6C655.27,-275.45 482.34,-259.32 335.52,-244 318.29,-242.2 298.98,-240.03 283.65,-238.28"/>
<polygon fill="midnightblue" stroke="midnightblue" points="744.03,-287.1 754.31,-284.53 744.67,-280.13 744.03,-287.1"/>
</g>
<!-- Node12 -->
<g id="node12" class="node">
<title>Node12</title>
<g id="a_node12"><a xlink:href="guarded-aa-pga_8hpp.html" target="_top" xlink:title=" ">
<polygon fill="white" stroke="black" points="705.02,-168.5 705.02,-187.5 820.02,-187.5 820.02,-168.5 705.02,-168.5"/>
<text text-anchor="middle" x="762.52" y="-175.5" font-family="Helvetica,sans-Serif" font-size="10.00">guarded&#45;aa&#45;pga.hpp</text>
</a>
</g>
</g>
<!-- Node1&#45;&gt;Node12 -->
<g id="edge15" class="edge">
<title>Node1&#45;&gt;Node12</title>
<path fill="none" stroke="midnightblue" d="M794,-271.3C789.84,-263.14 785.1,-253.22 781.52,-244 773.88,-224.27 767.59,-200.15 764.53,-187.57"/>
<polygon fill="midnightblue" stroke="midnightblue" points="790.94,-273 798.68,-280.24 797.14,-269.75 790.94,-273"/>
</g>
<!-- Node13 -->
<g id="node13" class="node">
<title>Node13</title>
<g id="a_node13"><a xlink:href="lbfgspp_8hpp.html" target="_top" xlink:title=" ">
<polygon fill="white" stroke="black" points="976.52,-168.5 976.52,-187.5 1050.52,-187.5 1050.52,-168.5 976.52,-168.5"/>
<text text-anchor="middle" x="1013.52" y="-175.5" font-family="Helvetica,sans-Serif" font-size="10.00">lbfgspp.hpp</text>
</a>
</g>
</g>
<!-- Node1&#45;&gt;Node13 -->
<g id="edge19" class="edge">
<title>Node1&#45;&gt;Node13</title>
<path fill="none" stroke="midnightblue" d="M834.89,-276.58C855.56,-268.08 883.05,-256.19 906.52,-244 941.63,-225.77 980.9,-200.61 1000.67,-187.58"/>
<polygon fill="midnightblue" stroke="midnightblue" points="833.57,-273.34 825.62,-280.35 836.2,-279.82 833.57,-273.34"/>
</g>
<!-- Node14 -->
<g id="node14" class="node">
<title>Node14</title>
<g id="a_node14"><a xlink:href="panoc-helpers_8hpp.html" target="_top" xlink:title=" ">
<polygon fill="white" stroke="black" points="791.02,-224.5 791.02,-243.5 898.02,-243.5 898.02,-224.5 791.02,-224.5"/>
<text text-anchor="middle" x="844.52" y="-231.5" font-family="Helvetica,sans-Serif" font-size="10.00">panoc&#45;helpers.hpp</text>
</a>
</g>
</g>
<!-- Node1&#45;&gt;Node14 -->
<g id="edge20" class="edge">
<title>Node1&#45;&gt;Node14</title>
<path fill="none" stroke="midnightblue" d="M816.54,-271.86C823.64,-262.5 832.13,-251.33 837.88,-243.75"/>
<polygon fill="midnightblue" stroke="midnightblue" points="813.55,-270 810.29,-280.08 819.13,-274.24 813.55,-270"/>
</g>
<!-- Node19 -->
<g id="node19" class="node">
<title>Node19</title>
<g id="a_node19"><a xlink:href="pga_8hpp.html" target="_top" xlink:title=" ">
<polygon fill="white" stroke="black" points="630.52,-168.5 630.52,-187.5 686.52,-187.5 686.52,-168.5 630.52,-168.5"/>
<text text-anchor="middle" x="658.52" y="-175.5" font-family="Helvetica,sans-Serif" font-size="10.00">pga.hpp</text>
</a>
</g>
</g>
<!-- Node1&#45;&gt;Node19 -->
<g id="edge51" class="edge">
<title>Node1&#45;&gt;Node19</title>
<path fill="none" stroke="midnightblue" d="M783.91,-274.12C753.13,-250.77 694.47,-206.27 669.85,-187.59"/>
<polygon fill="midnightblue" stroke="midnightblue" points="782.06,-277.11 792.15,-280.37 786.29,-271.54 782.06,-277.11"/>
</g>
<!-- Node25 -->
<g id="node25" class="node">
<title>Node25</title>
<g id="a_node25"><a xlink:href="inner_2decl_2panoc_8hpp.html" target="_top" xlink:title=" ">
<polygon fill="white" stroke="black" points="345.02,-224.5 345.02,-243.5 412.02,-243.5 412.02,-224.5 345.02,-224.5"/>
<text text-anchor="middle" x="378.52" y="-231.5" font-family="Helvetica,sans-Serif" font-size="10.00">panoc.hpp</text>
</a>
</g>
</g>
<!-- Node1&#45;&gt;Node25 -->
<g id="edge44" class="edge">
<title>Node1&#45;&gt;Node25</title>
<path fill="none" stroke="midnightblue" d="M744.25,-281.47C653.72,-269.97 483.96,-248.4 412.06,-239.26"/>
<polygon fill="midnightblue" stroke="midnightblue" points="743.99,-284.96 754.36,-282.75 744.88,-278.02 743.99,-284.96"/>
</g>
<!-- Node26 -->
<g id="node26" class="node">
<title>Node26</title>
<g id="a_node26"><a xlink:href="decl_2second-order-panoc_8hpp.html" target="_top" xlink:title=" ">
<polygon fill="white" stroke="black" points="1352.52,-224.5 1352.52,-243.5 1486.52,-243.5 1486.52,-224.5 1352.52,-224.5"/>
<text text-anchor="middle" x="1419.52" y="-231.5" font-family="Helvetica,sans-Serif" font-size="10.00">second&#45;order&#45;panoc.hpp</text>
</a>
</g>
</g>
<!-- Node1&#45;&gt;Node26 -->
<g id="edge53" class="edge">
<title>Node1&#45;&gt;Node26</title>
<path fill="none" stroke="midnightblue" d="M862.87,-284.73C962.36,-277.43 1169.05,-261.6 1343.52,-244 1346.43,-243.71 1349.4,-243.4 1352.4,-243.08"/>
<polygon fill="midnightblue" stroke="midnightblue" points="862.43,-281.25 852.72,-285.48 862.95,-288.24 862.43,-281.25"/>
</g>
<!-- Node27 -->
<g id="node27" class="node">
<title>Node27</title>
<g id="a_node27"><a xlink:href="solverstatus_8cpp.html" target="_top" xlink:title=" ">
<polygon fill="white" stroke="black" points="1237.02,-224.5 1237.02,-243.5 1334.02,-243.5 1334.02,-224.5 1237.02,-224.5"/>
<text text-anchor="middle" x="1285.52" y="-231.5" font-family="Helvetica,sans-Serif" font-size="10.00">solverstatus.cpp</text>
</a>
</g>
</g>
<!-- Node1&#45;&gt;Node27 -->
<g id="edge55" class="edge">
<title>Node1&#45;&gt;Node27</title>
<path fill="none" stroke="midnightblue" d="M862.64,-283.31C943.85,-275.34 1094.43,-260.02 1222.52,-244 1227.13,-243.42 1231.92,-242.79 1236.71,-242.15"/>
<polygon fill="midnightblue" stroke="midnightblue" points="862.22,-279.83 852.61,-284.29 862.91,-286.8 862.22,-279.83"/>
</g>
<!-- Node28 -->
<g id="node28" class="node">
<title>Node28</title>
<g id="a_node28"><a xlink:href="decl_2structured-panoc-lbfgs_8hpp.html" target="_top" xlink:title=" ">
<polygon fill="white" stroke="black" points="1068.52,-168.5 1068.52,-187.5 1216.52,-187.5 1216.52,-168.5 1068.52,-168.5"/>
<text text-anchor="middle" x="1142.52" y="-175.5" font-family="Helvetica,sans-Serif" font-size="10.00">structured&#45;panoc&#45;lbfgs.hpp</text>
</a>
</g>
</g>
<!-- Node1&#45;&gt;Node28 -->
<g id="edge56" class="edge">
<title>Node1&#45;&gt;Node28</title>
<path fill="none" stroke="midnightblue" d="M839.76,-277.24C908.36,-254.98 1055.7,-207.17 1115.99,-187.61"/>
<polygon fill="midnightblue" stroke="midnightblue" points="838.27,-274.04 829.84,-280.46 840.43,-280.7 838.27,-274.04"/>
</g>
<!-- Node3 -->
<g id="node3" class="node">
<title>Node3</title>
<g id="a_node3"><a xlink:href="alm_8cpp.html" target="_top" xlink:title=" ">
<polygon fill="white" stroke="black" points="71.52,-56.5 71.52,-75.5 127.52,-75.5 127.52,-56.5 71.52,-56.5"/>
<text text-anchor="middle" x="99.52" y="-63.5" font-family="Helvetica,sans-Serif" font-size="10.00">alm.cpp</text>
</a>
</g>
</g>
<!-- Node2&#45;&gt;Node3 -->
<g id="edge2" class="edge">
<title>Node2&#45;&gt;Node3</title>
<path fill="none" stroke="midnightblue" d="M96.27,-102.1C97.1,-93.14 98.06,-82.86 98.71,-75.75"/>
<polygon fill="midnightblue" stroke="midnightblue" points="92.79,-101.8 95.35,-112.08 99.76,-102.45 92.79,-101.8"/>
</g>
<!-- Node4 -->
<g id="node4" class="node">
<title>Node4</title>
<g id="a_node4"><a xlink:href="Presentation_2Cpp_2main_8cpp.html" target="_top" xlink:title=" ">
<polygon fill="white" stroke="black" points="149.52,-56.5 149.52,-75.5 211.52,-75.5 211.52,-56.5 149.52,-56.5"/>
<text text-anchor="middle" x="180.52" y="-63.5" font-family="Helvetica,sans-Serif" font-size="10.00">main.cpp</text>
</a>
</g>
</g>
<!-- Node2&#45;&gt;Node4 -->
<g id="edge3" class="edge">
<title>Node2&#45;&gt;Node4</title>
<path fill="none" stroke="midnightblue" d="M116.98,-106.9C132.75,-97 153.34,-84.07 166.74,-75.65"/>
<polygon fill="midnightblue" stroke="midnightblue" points="114.95,-104.04 108.34,-112.32 118.67,-109.97 114.95,-104.04"/>
</g>
<!-- Node2&#45;&gt;Node5 -->
<g id="edge4" class="edge">
<title>Node2&#45;&gt;Node5</title>
<path fill="none" stroke="midnightblue" d="M132.78,-115.95C202.88,-106.69 352.6,-86.93 438.79,-75.55"/>
<polygon fill="midnightblue" stroke="midnightblue" points="132.09,-112.51 122.64,-117.29 133.01,-119.45 132.09,-112.51"/>
</g>
<!-- Node5&#45;&gt;Node6 -->
<g id="edge5" class="edge">
<title>Node5&#45;&gt;Node6</title>
<path fill="none" stroke="midnightblue" d="M530.07,-51.73C550.07,-41.73 576.91,-28.31 594.21,-19.65"/>
<polygon fill="midnightblue" stroke="midnightblue" points="528.25,-48.72 520.88,-56.32 531.39,-54.98 528.25,-48.72"/>
</g>
<!-- Node7&#45;&gt;Node6 -->
<g id="edge9" class="edge">
<title>Node7&#45;&gt;Node6</title>
<path fill="none" stroke="midnightblue" d="M217.45,-229.42C162.86,-223.57 65.99,-210.34 39.52,-188 -5.47,-150.03 -15.47,-95.12 28.52,-56 69.48,-19.57 456.37,-12.58 576.27,-11.28"/>
<polygon fill="midnightblue" stroke="midnightblue" points="217.14,-232.9 227.45,-230.46 217.86,-225.94 217.14,-232.9"/>
</g>
<!-- Node8 -->
<g id="node8" class="node">
<title>Node8</title>
<g id="a_node8"><a xlink:href="alm-helpers_8hpp.html" target="_top" xlink:title=" ">
<polygon fill="white" stroke="black" points="70.52,-168.5 70.52,-187.5 166.52,-187.5 166.52,-168.5 70.52,-168.5"/>
<text text-anchor="middle" x="118.52" y="-175.5" font-family="Helvetica,sans-Serif" font-size="10.00">alm&#45;helpers.hpp</text>
</a>
</g>
</g>
<!-- Node7&#45;&gt;Node8 -->
<g id="edge7" class="edge">
<title>Node7&#45;&gt;Node8</title>
<path fill="none" stroke="midnightblue" d="M224.5,-220.77C198.77,-210.63 162.84,-196.47 140.13,-187.52"/>
<polygon fill="midnightblue" stroke="midnightblue" points="223.23,-224.03 233.82,-224.44 225.8,-217.52 223.23,-224.03"/>
</g>
<!-- Node9 -->
<g id="node9" class="node">
<title>Node9</title>
<g id="a_node9"><a xlink:href="kwargs-to-struct_8hpp.html" target="_top" xlink:title="This file defines mappings from Python dicts (kwargs) to simple parameter structs.">
<polygon fill="white" stroke="black" points="686.52,-112.5 686.52,-131.5 804.52,-131.5 804.52,-112.5 686.52,-112.5"/>
<text text-anchor="middle" x="745.52" y="-119.5" font-family="Helvetica,sans-Serif" font-size="10.00">kwargs&#45;to&#45;struct.hpp</text>
</a>
</g>
</g>
<!-- Node7&#45;&gt;Node9 -->
<g id="edge10" class="edge">
<title>Node7&#45;&gt;Node9</title>
<path fill="none" stroke="midnightblue" d="M293.56,-223.33C327.12,-214.62 377.29,-201.21 420.52,-188 447,-179.91 452.68,-174.78 479.52,-168 549.69,-150.29 632.05,-137.57 686.32,-130.26"/>
<polygon fill="midnightblue" stroke="midnightblue" points="292.51,-219.98 283.7,-225.87 294.26,-226.76 292.51,-219.98"/>
</g>
<!-- Node10 -->
<g id="node10" class="node">
<title>Node10</title>
<g id="a_node10"><a xlink:href="CasADi_2Rosenbrock_2main_8cpp.html" target="_top" xlink:title=" ">
<polygon fill="white" stroke="black" points="184.52,-168.5 184.52,-187.5 246.52,-187.5 246.52,-168.5 184.52,-168.5"/>
<text text-anchor="middle" x="215.52" y="-175.5" font-family="Helvetica,sans-Serif" font-size="10.00">main.cpp</text>
</a>
</g>
</g>
<!-- Node7&#45;&gt;Node10 -->
<g id="edge12" class="edge">
<title>Node7&#45;&gt;Node10</title>
<path fill="none" stroke="midnightblue" d="M242.82,-215.86C235.9,-206.5 227.62,-195.33 222.01,-187.75"/>
<polygon fill="midnightblue" stroke="midnightblue" points="240.15,-218.13 248.92,-224.08 245.78,-213.96 240.15,-218.13"/>
</g>
<!-- Node11 -->
<g id="node11" class="node">
<title>Node11</title>
<g id="a_node11"><a xlink:href="CUTEst_2Rosenbrock_2main_8cpp.html" target="_top" xlink:title=" ">
<polygon fill="white" stroke="black" points="264.52,-168.5 264.52,-187.5 326.52,-187.5 326.52,-168.5 264.52,-168.5"/>
<text text-anchor="middle" x="295.52" y="-175.5" font-family="Helvetica,sans-Serif" font-size="10.00">main.cpp</text>
</a>
</g>
</g>
<!-- Node7&#45;&gt;Node11 -->
<g id="edge13" class="edge">
<title>Node7&#45;&gt;Node11</title>
<path fill="none" stroke="midnightblue" d="M268.22,-215.86C275.15,-206.5 283.43,-195.33 289.04,-187.75"/>
<polygon fill="midnightblue" stroke="midnightblue" points="265.27,-213.96 262.13,-224.08 270.89,-218.13 265.27,-213.96"/>
</g>
<!-- Node8&#45;&gt;Node2 -->
<g id="edge8" class="edge">
<title>Node8&#45;&gt;Node2</title>
<path fill="none" stroke="midnightblue" d="M110.39,-158.69C106.34,-149.59 101.64,-139.01 98.41,-131.75"/>
<polygon fill="midnightblue" stroke="midnightblue" points="107.3,-160.37 114.56,-168.08 113.7,-157.52 107.3,-160.37"/>
</g>
<!-- Node9&#45;&gt;Node6 -->
<g id="edge11" class="edge">
<title>Node9&#45;&gt;Node6</title>
<path fill="none" stroke="midnightblue" d="M728.64,-105.17C714.09,-91.72 692.35,-72.09 672.52,-56 656.17,-42.73 636.43,-28.47 623.93,-19.64"/>
<polygon fill="midnightblue" stroke="midnightblue" points="726.61,-108.06 736.31,-112.3 731.38,-102.93 726.61,-108.06"/>
</g>
<!-- Node12&#45;&gt;Node5 -->
<g id="edge18" class="edge">
<title>Node12&#45;&gt;Node5</title>
<path fill="none" stroke="midnightblue" d="M786.46,-162.76C806,-149.38 828.17,-128.93 813.52,-112 784.34,-78.28 665.33,-69.29 583.55,-67.19"/>
<polygon fill="midnightblue" stroke="midnightblue" points="784.29,-160 777.81,-168.38 788.1,-165.87 784.29,-160"/>
</g>
<!-- Node12&#45;&gt;Node6 -->
<g id="edge16" class="edge">
<title>Node12&#45;&gt;Node6</title>
<path fill="none" stroke="midnightblue" d="M793.36,-164.06C817.17,-152.08 843.97,-133.01 830.52,-112 789.78,-48.35 697.62,-24.24 646.8,-15.56"/>
<polygon fill="midnightblue" stroke="midnightblue" points="791.67,-160.99 784.14,-168.44 794.67,-167.31 791.67,-160.99"/>
</g>
<!-- Node12&#45;&gt;Node9 -->
<g id="edge17" class="edge">
<title>Node12&#45;&gt;Node9</title>
<path fill="none" stroke="midnightblue" d="M756.67,-158.4C753.82,-149.36 750.54,-138.94 748.28,-131.75"/>
<polygon fill="midnightblue" stroke="midnightblue" points="753.37,-159.6 759.72,-168.08 760.05,-157.49 753.37,-159.6"/>
</g>
<!-- Node14&#45;&gt;Node12 -->
<g id="edge21" class="edge">
<title>Node14&#45;&gt;Node12</title>
<path fill="none" stroke="midnightblue" d="M822.69,-218.62C807.71,-208.76 788.33,-195.99 775.67,-187.65"/>
<polygon fill="midnightblue" stroke="midnightblue" points="821.07,-221.75 831.35,-224.32 824.92,-215.9 821.07,-221.75"/>
</g>
<!-- Node14&#45;&gt;Node13 -->
<g id="edge22" class="edge">
<title>Node14&#45;&gt;Node13</title>
<path fill="none" stroke="midnightblue" d="M881.13,-221.3C912.97,-211.13 958.37,-196.62 986.87,-187.52"/>
<polygon fill="midnightblue" stroke="midnightblue" points="879.76,-218.07 871.3,-224.44 881.89,-224.73 879.76,-218.07"/>
</g>
<!-- Node15 -->
<g id="node15" class="node">
<title>Node15</title>
<g id="a_node15"><a xlink:href="inner_2panoc_8hpp.html" target="_top" xlink:title=" ">
<polygon fill="white" stroke="black" points="345.02,-168.5 345.02,-187.5 412.02,-187.5 412.02,-168.5 345.02,-168.5"/>
<text text-anchor="middle" x="378.52" y="-175.5" font-family="Helvetica,sans-Serif" font-size="10.00">panoc.hpp</text>
</a>
</g>
</g>
<!-- Node14&#45;&gt;Node15 -->
<g id="edge23" class="edge">
<title>Node14&#45;&gt;Node15</title>
<path fill="none" stroke="midnightblue" d="M780.61,-225.59C680.34,-213.97 489.56,-191.87 412.28,-182.91"/>
<polygon fill="midnightblue" stroke="midnightblue" points="780.28,-229.08 790.61,-226.75 781.08,-222.12 780.28,-229.08"/>
</g>
<!-- Node18 -->
<g id="node18" class="node">
<title>Node18</title>
<g id="a_node18"><a xlink:href="standalone_2panoc_8hpp.html" target="_top" xlink:title=" ">
<polygon fill="white" stroke="black" points="545.02,-168.5 545.02,-187.5 612.02,-187.5 612.02,-168.5 545.02,-168.5"/>
<text text-anchor="middle" x="578.52" y="-175.5" font-family="Helvetica,sans-Serif" font-size="10.00">panoc.hpp</text>
</a>
</g>
</g>
<!-- Node14&#45;&gt;Node18 -->
<g id="edge32" class="edge">
<title>Node14&#45;&gt;Node18</title>
<path fill="none" stroke="midnightblue" d="M791.88,-222.49C746.68,-213.44 679.79,-199.98 621.52,-188 618.54,-187.39 615.43,-186.74 612.32,-186.1"/>
<polygon fill="midnightblue" stroke="midnightblue" points="791.26,-225.93 801.75,-224.46 792.64,-219.07 791.26,-225.93"/>
</g>
<!-- Node14&#45;&gt;Node19 -->
<g id="edge34" class="edge">
<title>Node14&#45;&gt;Node19</title>
<path fill="none" stroke="midnightblue" d="M805.02,-221.53C769.49,-211.22 718.16,-196.31 686.64,-187.16"/>
<polygon fill="midnightblue" stroke="midnightblue" points="804.47,-225.02 815.05,-224.44 806.42,-218.29 804.47,-225.02"/>
</g>
<!-- Node20 -->
<g id="node20" class="node">
<title>Node20</title>
<g id="a_node20"><a xlink:href="second-order-panoc_8hpp.html" target="_top" xlink:title=" ">
<polygon fill="white" stroke="black" points="1317.52,-168.5 1317.52,-187.5 1451.52,-187.5 1451.52,-168.5 1317.52,-168.5"/>
<text text-anchor="middle" x="1384.52" y="-175.5" font-family="Helvetica,sans-Serif" font-size="10.00">second&#45;order&#45;panoc.hpp</text>
</a>
</g>
</g>
<!-- Node14&#45;&gt;Node20 -->
<g id="edge38" class="edge">
<title>Node14&#45;&gt;Node20</title>
<path fill="none" stroke="midnightblue" d="M908.51,-226.6C1011.3,-216.32 1212.27,-196.23 1317.16,-185.74"/>
<polygon fill="midnightblue" stroke="midnightblue" points="907.88,-223.15 898.27,-227.62 908.57,-230.11 907.88,-223.15"/>
</g>
<!-- Node22 -->
<g id="node22" class="node">
<title>Node22</title>
<g id="a_node22"><a xlink:href="specialized-lbfgs_8hpp.html" target="_top" xlink:title=" ">
<polygon fill="white" stroke="black" points="838.52,-168.5 838.52,-187.5 958.52,-187.5 958.52,-168.5 838.52,-168.5"/>
<text text-anchor="middle" x="898.52" y="-175.5" font-family="Helvetica,sans-Serif" font-size="10.00">specialized&#45;lbfgs.hpp</text>
</a>
</g>
</g>
<!-- Node14&#45;&gt;Node22 -->
<g id="edge40" class="edge">
<title>Node14&#45;&gt;Node22</title>
<path fill="none" stroke="midnightblue" d="M860.52,-217C870.09,-207.43 881.88,-195.64 889.77,-187.75"/>
<polygon fill="midnightblue" stroke="midnightblue" points="858.04,-214.54 853.44,-224.08 862.99,-219.49 858.04,-214.54"/>
</g>
<!-- Node23 -->
<g id="node23" class="node">
<title>Node23</title>
<g id="a_node23"><a xlink:href="structured-panoc-lbfgs_8hpp.html" target="_top" xlink:title=" ">
<polygon fill="white" stroke="black" points="1068.52,-112.5 1068.52,-131.5 1216.52,-131.5 1216.52,-112.5 1068.52,-112.5"/>
<text text-anchor="middle" x="1142.52" y="-119.5" font-family="Helvetica,sans-Serif" font-size="10.00">structured&#45;panoc&#45;lbfgs.hpp</text>
</a>
</g>
</g>
<!-- Node14&#45;&gt;Node23 -->
<g id="edge41" class="edge">
<title>Node14&#45;&gt;Node23</title>
<path fill="none" stroke="midnightblue" d="M908.41,-230.01C1011.42,-224.53 1204.86,-211.25 1225.52,-188 1246.62,-164.27 1201,-142.85 1169.4,-131.51"/>
<polygon fill="midnightblue" stroke="midnightblue" points="907.93,-226.53 898.12,-230.55 908.29,-233.52 907.93,-226.53"/>
</g>
<!-- Node15&#45;&gt;Node3 -->
<g id="edge24" class="edge">
<title>Node15&#45;&gt;Node3</title>
<path fill="none" stroke="midnightblue" d="M335.12,-167.6C283.52,-156.28 202.71,-138.04 189.52,-132 156.93,-117.07 124.19,-89.52 108.72,-75.57"/>
<polygon fill="midnightblue" stroke="midnightblue" points="334.5,-171.05 345.02,-169.77 336,-164.21 334.5,-171.05"/>
</g>
<!-- Node15&#45;&gt;Node4 -->
<g id="edge26" class="edge">
<title>Node15&#45;&gt;Node4</title>
<path fill="none" stroke="midnightblue" d="M334.98,-167.65C287.59,-157.15 217.22,-140.46 207.52,-132 190.39,-117.06 183.9,-89.52 181.63,-75.57"/>
<polygon fill="midnightblue" stroke="midnightblue" points="334.49,-171.13 345.01,-169.86 336,-164.29 334.49,-171.13"/>
</g>
<!-- Node15&#45;&gt;Node5 -->
<g id="edge28" class="edge">
<title>Node15&#45;&gt;Node5</title>
<path fill="none" stroke="midnightblue" d="M421.83,-168.95C444.46,-162.59 470.84,-151.4 487.52,-132 501.47,-115.79 503.63,-89.3 503.75,-75.69"/>
<polygon fill="midnightblue" stroke="midnightblue" points="420.88,-165.58 412.07,-171.47 422.63,-172.36 420.88,-165.58"/>
</g>
<!-- Node15&#45;&gt;Node6 -->
<g id="edge25" class="edge">
<title>Node15&#45;&gt;Node6</title>
<path fill="none" stroke="midnightblue" d="M334.63,-168.24C258.61,-159.38 96.8,-176.69 57.52,-132 45.99,-118.87 37.55,-80.79 62.52,-56 98.96,-19.83 460.6,-12.68 576.19,-11.31"/>
<polygon fill="midnightblue" stroke="midnightblue" points="334.38,-171.74 344.77,-169.68 335.36,-164.81 334.38,-171.74"/>
</g>
<!-- Node16 -->
<g id="node16" class="node">
<title>Node16</title>
<g id="a_node16"><a xlink:href="panoc_8cpp.html" target="_top" xlink:title=" ">
<polygon fill="white" stroke="black" points="216.52,-112.5 216.52,-131.5 282.52,-131.5 282.52,-112.5 216.52,-112.5"/>
<text text-anchor="middle" x="249.52" y="-119.5" font-family="Helvetica,sans-Serif" font-size="10.00">panoc.cpp</text>
</a>
</g>
</g>
<!-- Node15&#45;&gt;Node16 -->
<g id="edge27" class="edge">
<title>Node15&#45;&gt;Node16</title>
<path fill="none" stroke="midnightblue" d="M348.67,-164.5C324.49,-154.38 291.06,-140.39 269.87,-131.52"/>
<polygon fill="midnightblue" stroke="midnightblue" points="347.51,-167.81 358.08,-168.44 350.21,-161.35 347.51,-167.81"/>
</g>
<!-- Node17 -->
<g id="node17" class="node">
<title>Node17</title>
<g id="a_node17"><a xlink:href="polymorphic-panoc-direction_8hpp.html" target="_top" xlink:title=" ">
<polygon fill="white" stroke="black" points="300.52,-112.5 300.52,-131.5 478.52,-131.5 478.52,-112.5 300.52,-112.5"/>
<text text-anchor="middle" x="389.52" y="-119.5" font-family="Helvetica,sans-Serif" font-size="10.00">polymorphic&#45;panoc&#45;direction.hpp</text>
</a>
</g>
</g>
<!-- Node15&#45;&gt;Node17 -->
<g id="edge29" class="edge">
<title>Node15&#45;&gt;Node17</title>
<path fill="none" stroke="midnightblue" d="M382.37,-158.1C384.2,-149.14 386.29,-138.86 387.74,-131.75"/>
<polygon fill="midnightblue" stroke="midnightblue" points="378.91,-157.59 380.34,-168.08 385.77,-158.98 378.91,-157.59"/>
</g>
<!-- Node17&#45;&gt;Node5 -->
<g id="edge31" class="edge">
<title>Node17&#45;&gt;Node5</title>
<path fill="none" stroke="midnightblue" d="M416.77,-108.1C438.06,-98.01 467.07,-84.27 485.54,-75.52"/>
<polygon fill="midnightblue" stroke="midnightblue" points="415.13,-105 407.59,-112.44 418.12,-111.33 415.13,-105"/>
</g>
<!-- Node17&#45;&gt;Node6 -->
<g id="edge30" class="edge">
<title>Node17&#45;&gt;Node6</title>
<path fill="none" stroke="midnightblue" d="M391.88,-102.38C394.74,-87.67 400.98,-67.74 414.52,-56 438.45,-35.26 526.57,-21.4 576.47,-15.02"/>
<polygon fill="midnightblue" stroke="midnightblue" points="388.41,-101.96 390.3,-112.38 395.32,-103.05 388.41,-101.96"/>
</g>
<!-- Node18&#45;&gt;Node6 -->
<g id="edge33" class="edge">
<title>Node18&#45;&gt;Node6</title>
<path fill="none" stroke="midnightblue" d="M582.31,-157.93C589.47,-121.92 604.72,-45.23 609.82,-19.57"/>
<polygon fill="midnightblue" stroke="midnightblue" points="578.81,-157.58 580.3,-168.08 585.68,-158.95 578.81,-157.58"/>
</g>
<!-- Node19&#45;&gt;Node5 -->
<g id="edge37" class="edge">
<title>Node19&#45;&gt;Node5</title>
<path fill="none" stroke="midnightblue" d="M637.97,-162.42C605.19,-139.15 542.06,-94.35 515.63,-75.59"/>
<polygon fill="midnightblue" stroke="midnightblue" points="636.18,-165.44 646.36,-168.37 640.23,-159.73 636.18,-165.44"/>
</g>
<!-- Node19&#45;&gt;Node6 -->
<g id="edge35" class="edge">
<title>Node19&#45;&gt;Node6</title>
<path fill="none" stroke="midnightblue" d="M653.26,-158.39C643.12,-122.59 621.25,-45.34 613.95,-19.57"/>
<polygon fill="midnightblue" stroke="midnightblue" points="649.9,-159.41 656,-168.08 656.64,-157.5 649.9,-159.41"/>
</g>
<!-- Node19&#45;&gt;Node9 -->
<g id="edge36" class="edge">
<title>Node19&#45;&gt;Node9</title>
<path fill="none" stroke="midnightblue" d="M681.24,-162.9C697.19,-153 718.02,-140.07 731.58,-131.65"/>
<polygon fill="midnightblue" stroke="midnightblue" points="679.15,-160.08 672.5,-168.32 682.84,-166.02 679.15,-160.08"/>
</g>
<!-- Node21 -->
<g id="node21" class="node">
<title>Node21</title>
<g id="a_node21"><a xlink:href="second-order-panoc_8cpp.html" target="_top" xlink:title=" ">
<polygon fill="white" stroke="black" points="1317.52,-112.5 1317.52,-131.5 1451.52,-131.5 1451.52,-112.5 1317.52,-112.5"/>
<text text-anchor="middle" x="1384.52" y="-119.5" font-family="Helvetica,sans-Serif" font-size="10.00">second&#45;order&#45;panoc.cpp</text>
</a>
</g>
</g>
<!-- Node20&#45;&gt;Node21 -->
<g id="edge39" class="edge">
<title>Node20&#45;&gt;Node21</title>
<path fill="none" stroke="midnightblue" d="M1384.52,-157.8C1384.52,-148.91 1384.52,-138.78 1384.52,-131.75"/>
<polygon fill="midnightblue" stroke="midnightblue" points="1381.02,-158.08 1384.52,-168.08 1388.02,-158.08 1381.02,-158.08"/>
</g>
<!-- Node23&#45;&gt;Node6 -->
<g id="edge42" class="edge">
<title>Node23&#45;&gt;Node6</title>
<path fill="none" stroke="midnightblue" d="M1102.25,-109.74C1051.69,-95.87 962.16,-72.15 884.52,-56 799.64,-38.34 698.74,-23.21 646.6,-15.83"/>
<polygon fill="midnightblue" stroke="midnightblue" points="1101.56,-113.18 1112.13,-112.47 1103.42,-106.44 1101.56,-113.18"/>
</g>
<!-- Node24 -->
<g id="node24" class="node">
<title>Node24</title>
<g id="a_node24"><a xlink:href="structured-panoc-lbfgs_8cpp.html" target="_top" xlink:title=" ">
<polygon fill="white" stroke="black" points="1069.02,-56.5 1069.02,-75.5 1216.02,-75.5 1216.02,-56.5 1069.02,-56.5"/>
<text text-anchor="middle" x="1142.52" y="-63.5" font-family="Helvetica,sans-Serif" font-size="10.00">structured&#45;panoc&#45;lbfgs.cpp</text>
</a>
</g>
</g>
<!-- Node23&#45;&gt;Node24 -->
<g id="edge43" class="edge">
<title>Node23&#45;&gt;Node24</title>
<path fill="none" stroke="midnightblue" d="M1142.52,-101.8C1142.52,-92.91 1142.52,-82.78 1142.52,-75.75"/>
<polygon fill="midnightblue" stroke="midnightblue" points="1139.02,-102.08 1142.52,-112.08 1146.02,-102.08 1139.02,-102.08"/>
</g>
<!-- Node25&#45;&gt;Node6 -->
<g id="edge45" class="edge">
<title>Node25&#45;&gt;Node6</title>
<path fill="none" stroke="midnightblue" d="M334.69,-228.04C250.12,-218.28 71.8,-196.81 61.52,-188 16.69,-149.58 5.7,-98.65 46.52,-56 83.18,-17.7 458.49,-11.99 576.33,-11.15"/>
<polygon fill="midnightblue" stroke="midnightblue" points="334.43,-231.53 344.76,-229.19 335.23,-224.57 334.43,-231.53"/>
</g>
<!-- Node25&#45;&gt;Node9 -->
<g id="edge46" class="edge">
<title>Node25&#45;&gt;Node9</title>
<path fill="none" stroke="midnightblue" d="M405.74,-219.95C436.61,-205.57 488.76,-182.56 535.52,-168 588.21,-151.6 650.17,-139.12 693.07,-131.51"/>
<polygon fill="midnightblue" stroke="midnightblue" points="404.06,-216.88 396.5,-224.3 407.03,-223.21 404.06,-216.88"/>
</g>
<!-- Node25&#45;&gt;Node10 -->
<g id="edge47" class="edge">
<title>Node25&#45;&gt;Node10</title>
<path fill="none" stroke="midnightblue" d="M342.82,-221.17C312.13,-211 268.6,-196.59 241.23,-187.52"/>
<polygon fill="midnightblue" stroke="midnightblue" points="342.1,-224.62 352.7,-224.44 344.3,-217.98 342.1,-224.62"/>
</g>
<!-- Node25&#45;&gt;Node11 -->
<g id="edge48" class="edge">
<title>Node25&#45;&gt;Node11</title>
<path fill="none" stroke="midnightblue" d="M356.42,-218.62C341.26,-208.76 321.64,-195.99 308.83,-187.65"/>
<polygon fill="midnightblue" stroke="midnightblue" points="354.9,-221.8 365.19,-224.32 358.71,-215.94 354.9,-221.8"/>
</g>
<!-- Node25&#45;&gt;Node15 -->
<g id="edge49" class="edge">
<title>Node25&#45;&gt;Node15</title>
<path fill="none" stroke="midnightblue" d="M378.52,-213.8C378.52,-204.91 378.52,-194.78 378.52,-187.75"/>
<polygon fill="midnightblue" stroke="midnightblue" points="375.02,-214.08 378.52,-224.08 382.02,-214.08 375.02,-214.08"/>
</g>
<!-- Node25&#45;&gt;Node18 -->
<g id="edge50" class="edge">
<title>Node25&#45;&gt;Node18</title>
<path fill="none" stroke="midnightblue" d="M419.9,-221.83C457.66,-211.63 512.66,-196.78 546.98,-187.52"/>
<polygon fill="midnightblue" stroke="midnightblue" points="418.96,-218.46 410.21,-224.44 420.78,-225.22 418.96,-218.46"/>
</g>
<!-- Node26&#45;&gt;Node20 -->
<g id="edge54" class="edge">
<title>Node26&#45;&gt;Node20</title>
<path fill="none" stroke="midnightblue" d="M1408.22,-215.57C1402.2,-206.27 1395.05,-195.25 1390.2,-187.75"/>
<polygon fill="midnightblue" stroke="midnightblue" points="1405.37,-217.6 1413.74,-224.08 1411.24,-213.79 1405.37,-217.6"/>
</g>
<!-- Node28&#45;&gt;Node5 -->
<g id="edge58" class="edge">
<title>Node28&#45;&gt;Node5</title>
<path fill="none" stroke="midnightblue" d="M1095.64,-166.18C1034.76,-152.38 925.1,-128.34 830.52,-112 743.28,-96.93 642.24,-83.66 575.83,-75.5"/>
<polygon fill="midnightblue" stroke="midnightblue" points="1095.17,-169.67 1105.7,-168.47 1096.72,-162.84 1095.17,-169.67"/>
</g>
<!-- Node28&#45;&gt;Node9 -->
<g id="edge57" class="edge">
<title>Node28&#45;&gt;Node9</title>
<path fill="none" stroke="midnightblue" d="M1069.61,-167.08C993.37,-156.71 875.18,-140.64 804.57,-131.03"/>
<polygon fill="midnightblue" stroke="midnightblue" points="1069.24,-170.56 1079.62,-168.44 1070.18,-163.63 1069.24,-170.56"/>
</g>
<!-- Node28&#45;&gt;Node23 -->
<g id="edge59" class="edge">
<title>Node28&#45;&gt;Node23</title>
<path fill="none" stroke="midnightblue" d="M1142.52,-157.8C1142.52,-148.91 1142.52,-138.78 1142.52,-131.75"/>
<polygon fill="midnightblue" stroke="midnightblue" points="1139.02,-158.08 1142.52,-168.08 1146.02,-158.08 1139.02,-158.08"/>
</g>
</g>
</svg>
