<?xml version="1.0" encoding="UTF-8" standalone="no"?>
<!DOCTYPE svg PUBLIC "-//W3C//DTD SVG 1.1//EN"
 "http://www.w3.org/Graphics/SVG/1.1/DTD/svg11.dtd">
<!-- Generated by graphviz version 2.43.0 (0)
 -->
<!-- Title: vec_allocator::findstack Pages: 1 -->
<svg width="140pt" height="292pt"
 viewBox="0.00 0.00 140.00 292.00" xmlns="http://www.w3.org/2000/svg" xmlns:xlink="http://www.w3.org/1999/xlink">
<g id="graph0" class="graph" transform="scale(1 1) rotate(0) translate(4 288)">
<title>vec_allocator::findstack</title>
<polygon fill="white" stroke="transparent" points="-4,4 -4,-288 136,-288 136,4 -4,4"/>
<!-- Node1 -->
<g id="node1" class="node">
<title>Node1</title>
<g id="a_node1"><a xlink:title=" ">
<polygon fill="#bfbfbf" stroke="black" points="0,-0.5 0,-178.5 132,-178.5 132,-0.5 0,-0.5"/>
<text text-anchor="middle" x="66" y="-166.5" font-family="Helvetica,sans-Serif" font-size="10.00">vec_allocator::findstack</text>
<polyline fill="none" stroke="black" points="0,-159.5 132,-159.5 "/>
<text text-anchor="middle" x="66" y="-147.5" font-family="Helvetica,sans-Serif" font-size="10.00"> </text>
<polyline fill="none" stroke="black" points="0,-140.5 132,-140.5 "/>
<text text-anchor="start" x="8" y="-128.5" font-family="Helvetica,sans-Serif" font-size="10.00">+ begin()</text>
<text text-anchor="start" x="8" y="-117.5" font-family="Helvetica,sans-Serif" font-size="10.00">+ begin()</text>
<text text-anchor="start" x="8" y="-106.5" font-family="Helvetica,sans-Serif" font-size="10.00">+ end()</text>
<text text-anchor="start" x="8" y="-95.5" font-family="Helvetica,sans-Serif" font-size="10.00">+ end()</text>
<text text-anchor="start" x="8" y="-84.5" font-family="Helvetica,sans-Serif" font-size="10.00">+ cbegin()</text>
<text text-anchor="start" x="8" y="-73.5" font-family="Helvetica,sans-Serif" font-size="10.00">+ cend()</text>
<text text-anchor="start" x="8" y="-62.5" font-family="Helvetica,sans-Serif" font-size="10.00">+ rbegin()</text>
<text text-anchor="start" x="8" y="-51.5" font-family="Helvetica,sans-Serif" font-size="10.00">+ rbegin()</text>
<text text-anchor="start" x="8" y="-40.5" font-family="Helvetica,sans-Serif" font-size="10.00">+ rend()</text>
<text text-anchor="start" x="8" y="-29.5" font-family="Helvetica,sans-Serif" font-size="10.00">+ rend()</text>
<text text-anchor="start" x="8" y="-18.5" font-family="Helvetica,sans-Serif" font-size="10.00">+ crbegin()</text>
<text text-anchor="start" x="8" y="-7.5" font-family="Helvetica,sans-Serif" font-size="10.00">+ crend()</text>
</a>
</g>
</g>
<!-- Node2 -->
<g id="node2" class="node">
<title>Node2</title>
<g id="a_node2"><a xlink:title=" ">
<polygon fill="white" stroke="#bfbfbf" points="4.5,-215.5 4.5,-283.5 127.5,-283.5 127.5,-215.5 4.5,-215.5"/>
<text text-anchor="start" x="12.5" y="-271.5" font-family="Helvetica,sans-Serif" font-size="10.00">stack&lt; real_t *, std</text>
<text text-anchor="middle" x="66" y="-260.5" font-family="Helvetica,sans-Serif" font-size="10.00">::vector&lt; real_t * &gt; &gt;</text>
<polyline fill="none" stroke="#bfbfbf" points="4.5,-253.5 127.5,-253.5 "/>
<text text-anchor="middle" x="66" y="-241.5" font-family="Helvetica,sans-Serif" font-size="10.00"> </text>
<polyline fill="none" stroke="#bfbfbf" points="4.5,-234.5 127.5,-234.5 "/>
<text text-anchor="middle" x="66" y="-222.5" font-family="Helvetica,sans-Serif" font-size="10.00"> </text>
</a>
</g>
</g>
<!-- Node2&#45;&gt;Node1 -->
<g id="edge1" class="edge">
<title>Node2&#45;&gt;Node1</title>
<path fill="none" stroke="midnightblue" d="M66,-205.19C66,-196.83 66,-187.8 66,-178.59"/>
<polygon fill="none" stroke="midnightblue" points="62.5,-205.38 66,-215.38 69.5,-205.38 62.5,-205.38"/>
</g>
</g>
</svg>
