<?xml version="1.0" encoding="UTF-8" standalone="no"?>
<!DOCTYPE svg PUBLIC "-//W3C//DTD SVG 1.1//EN"
 "http://www.w3.org/Graphics/SVG/1.1/DTD/svg11.dtd">
<!-- Generated by graphviz version 2.43.0 (0)
 -->
<!-- Title: SecondOrderPANOCSolver::ProgressInfo Pages: 1 -->
<svg width="362pt" height="595pt"
 viewBox="0.00 0.00 362.00 595.00" xmlns="http://www.w3.org/2000/svg" xmlns:xlink="http://www.w3.org/1999/xlink">
<g id="graph0" class="graph" transform="scale(1 1) rotate(0) translate(4 591)">
<title>SecondOrderPANOCSolver::ProgressInfo</title>
<polygon fill="white" stroke="transparent" points="-4,4 -4,-591 358,-591 358,4 -4,4"/>
<!-- Node1 -->
<g id="node1" class="node">
<title>Node1</title>
<g id="a_node1"><a xlink:title=" ">
<polygon fill="#bfbfbf" stroke="black" points="44.5,-0.5 44.5,-211.5 187.5,-211.5 187.5,-0.5 44.5,-0.5"/>
<text text-anchor="start" x="52.5" y="-199.5" font-family="Helvetica,sans-Serif" font-size="10.00">SecondOrderPANOCSolver</text>
<text text-anchor="middle" x="116" y="-188.5" font-family="Helvetica,sans-Serif" font-size="10.00">::ProgressInfo</text>
<polyline fill="none" stroke="black" points="44.5,-181.5 187.5,-181.5 "/>
<text text-anchor="start" x="52.5" y="-169.5" font-family="Helvetica,sans-Serif" font-size="10.00">+ k</text>
<text text-anchor="start" x="52.5" y="-158.5" font-family="Helvetica,sans-Serif" font-size="10.00">+ x</text>
<text text-anchor="start" x="52.5" y="-147.5" font-family="Helvetica,sans-Serif" font-size="10.00">+ p</text>
<text text-anchor="start" x="52.5" y="-136.5" font-family="Helvetica,sans-Serif" font-size="10.00">+ norm_sq_p</text>
<text text-anchor="start" x="52.5" y="-125.5" font-family="Helvetica,sans-Serif" font-size="10.00">+ x_hat</text>
<text text-anchor="start" x="52.5" y="-114.5" font-family="Helvetica,sans-Serif" font-size="10.00">+ ψ</text>
<text text-anchor="start" x="52.5" y="-103.5" font-family="Helvetica,sans-Serif" font-size="10.00">+ grad_ψ</text>
<text text-anchor="start" x="52.5" y="-92.5" font-family="Helvetica,sans-Serif" font-size="10.00">+ ψ_hat</text>
<text text-anchor="start" x="52.5" y="-81.5" font-family="Helvetica,sans-Serif" font-size="10.00">+ grad_ψ_hat</text>
<text text-anchor="start" x="52.5" y="-70.5" font-family="Helvetica,sans-Serif" font-size="10.00">+ L</text>
<text text-anchor="start" x="52.5" y="-59.5" font-family="Helvetica,sans-Serif" font-size="10.00">+ γ</text>
<text text-anchor="start" x="52.5" y="-48.5" font-family="Helvetica,sans-Serif" font-size="10.00">+ ε</text>
<text text-anchor="start" x="52.5" y="-37.5" font-family="Helvetica,sans-Serif" font-size="10.00">+ Σ</text>
<text text-anchor="start" x="52.5" y="-26.5" font-family="Helvetica,sans-Serif" font-size="10.00">+ y</text>
<polyline fill="none" stroke="black" points="44.5,-19.5 187.5,-19.5 "/>
<text text-anchor="middle" x="116" y="-7.5" font-family="Helvetica,sans-Serif" font-size="10.00"> </text>
</a>
</g>
</g>
<!-- Node2 -->
<g id="node2" class="node">
<title>Node2</title>
<g id="a_node2"><a xlink:href="structalpaqa_1_1Problem.html" target="_top" xlink:title="Problem description for minimization problems.">
<polygon fill="white" stroke="black" points="0,-265 0,-432 88,-432 88,-265 0,-265"/>
<text text-anchor="middle" x="44" y="-420" font-family="Helvetica,sans-Serif" font-size="10.00">Problem</text>
<polyline fill="none" stroke="black" points="0,-413 88,-413 "/>
<text text-anchor="start" x="8" y="-401" font-family="Helvetica,sans-Serif" font-size="10.00">+ n</text>
<text text-anchor="start" x="8" y="-390" font-family="Helvetica,sans-Serif" font-size="10.00">+ m</text>
<text text-anchor="start" x="8" y="-379" font-family="Helvetica,sans-Serif" font-size="10.00">+ f</text>
<text text-anchor="start" x="8" y="-368" font-family="Helvetica,sans-Serif" font-size="10.00">+ grad_f</text>
<text text-anchor="start" x="8" y="-357" font-family="Helvetica,sans-Serif" font-size="10.00">+ g</text>
<text text-anchor="start" x="8" y="-346" font-family="Helvetica,sans-Serif" font-size="10.00">+ grad_g_prod</text>
<text text-anchor="start" x="8" y="-335" font-family="Helvetica,sans-Serif" font-size="10.00">+ grad_gi</text>
<text text-anchor="start" x="8" y="-324" font-family="Helvetica,sans-Serif" font-size="10.00">+ hess_L_prod</text>
<text text-anchor="start" x="8" y="-313" font-family="Helvetica,sans-Serif" font-size="10.00">+ hess_L</text>
<polyline fill="none" stroke="black" points="0,-306 88,-306 "/>
<text text-anchor="start" x="8" y="-294" font-family="Helvetica,sans-Serif" font-size="10.00">+ Problem()</text>
<text text-anchor="start" x="8" y="-283" font-family="Helvetica,sans-Serif" font-size="10.00">+ Problem()</text>
<text text-anchor="start" x="8" y="-272" font-family="Helvetica,sans-Serif" font-size="10.00">+ Problem()</text>
</a>
</g>
</g>
<!-- Node2&#45;&gt;Node1 -->
<g id="edge1" class="edge">
<title>Node2&#45;&gt;Node1</title>
<path fill="none" stroke="#404040" d="M68.78,-264.73C72.78,-251.36 76.99,-237.3 81.18,-223.3"/>
<polygon fill="none" stroke="#404040" points="81.25,-223.08 79.14,-216.19 84.69,-211.59 86.8,-218.48 81.25,-223.08"/>
<text text-anchor="middle" x="104" y="-233" font-family="Helvetica,sans-Serif" font-size="10.00"> +problem</text>
</g>
<!-- Node3 -->
<g id="node3" class="node">
<title>Node3</title>
<g id="a_node3"><a xlink:href="namespacealpaqa.html#structalpaqa_1_1Box" target="_top" xlink:title=" ">
<polygon fill="white" stroke="black" points="1,-507.5 1,-575.5 87,-575.5 87,-507.5 1,-507.5"/>
<text text-anchor="middle" x="44" y="-563.5" font-family="Helvetica,sans-Serif" font-size="10.00">Box</text>
<polyline fill="none" stroke="black" points="1,-556.5 87,-556.5 "/>
<text text-anchor="start" x="9" y="-544.5" font-family="Helvetica,sans-Serif" font-size="10.00">+ upperbound</text>
<text text-anchor="start" x="9" y="-533.5" font-family="Helvetica,sans-Serif" font-size="10.00">+ lowerbound</text>
<polyline fill="none" stroke="black" points="1,-526.5 87,-526.5 "/>
<text text-anchor="middle" x="44" y="-514.5" font-family="Helvetica,sans-Serif" font-size="10.00"> </text>
</a>
</g>
</g>
<!-- Node3&#45;&gt;Node2 -->
<g id="edge2" class="edge">
<title>Node3&#45;&gt;Node2</title>
<path fill="none" stroke="#404040" d="M44,-507.23C44,-489.56 44,-466.86 44,-444.22"/>
<polygon fill="none" stroke="#404040" points="44,-444.05 40,-438.05 44,-432.05 48,-438.05 44,-444.05"/>
<text text-anchor="middle" x="53.5" y="-470" font-family="Helvetica,sans-Serif" font-size="10.00"> +C</text>
<text text-anchor="middle" x="53.5" y="-459" font-family="Helvetica,sans-Serif" font-size="10.00">+D</text>
</g>
<!-- Node4 -->
<g id="node4" class="node">
<title>Node4</title>
<g id="a_node4"><a xlink:href="namespacealpaqa.html#structalpaqa_1_1SecondOrderPANOCParams" target="_top" xlink:title="Tuning parameters for the second order PANOC algorithm.">
<polygon fill="white" stroke="black" points="106.5,-259.5 106.5,-437.5 271.5,-437.5 271.5,-259.5 106.5,-259.5"/>
<text text-anchor="middle" x="189" y="-425.5" font-family="Helvetica,sans-Serif" font-size="10.00">SecondOrderPANOCParams</text>
<polyline fill="none" stroke="black" points="106.5,-418.5 271.5,-418.5 "/>
<text text-anchor="start" x="114.5" y="-406.5" font-family="Helvetica,sans-Serif" font-size="10.00">+ max_iter</text>
<text text-anchor="start" x="114.5" y="-395.5" font-family="Helvetica,sans-Serif" font-size="10.00">+ τ_min</text>
<text text-anchor="start" x="114.5" y="-384.5" font-family="Helvetica,sans-Serif" font-size="10.00">+ L_min</text>
<text text-anchor="start" x="114.5" y="-373.5" font-family="Helvetica,sans-Serif" font-size="10.00">+ L_max</text>
<text text-anchor="start" x="114.5" y="-362.5" font-family="Helvetica,sans-Serif" font-size="10.00">+ stop_crit</text>
<text text-anchor="start" x="114.5" y="-351.5" font-family="Helvetica,sans-Serif" font-size="10.00">+ max_no_progress</text>
<text text-anchor="start" x="114.5" y="-340.5" font-family="Helvetica,sans-Serif" font-size="10.00">+ print_interval</text>
<text text-anchor="start" x="114.5" y="-329.5" font-family="Helvetica,sans-Serif" font-size="10.00">+ quadratic_upperbound</text>
<text text-anchor="start" x="114.5" y="-318.5" font-family="Helvetica,sans-Serif" font-size="10.00">_tolerance_factor</text>
<text text-anchor="start" x="114.5" y="-307.5" font-family="Helvetica,sans-Serif" font-size="10.00">+ update_lipschitz_in</text>
<text text-anchor="start" x="114.5" y="-296.5" font-family="Helvetica,sans-Serif" font-size="10.00">_linesearch</text>
<text text-anchor="start" x="114.5" y="-285.5" font-family="Helvetica,sans-Serif" font-size="10.00">+ alternative_linesearch_cond</text>
<polyline fill="none" stroke="black" points="106.5,-278.5 271.5,-278.5 "/>
<text text-anchor="middle" x="189" y="-266.5" font-family="Helvetica,sans-Serif" font-size="10.00"> </text>
</a>
</g>
</g>
<!-- Node4&#45;&gt;Node1 -->
<g id="edge3" class="edge">
<title>Node4&#45;&gt;Node1</title>
<path fill="none" stroke="#404040" d="M162.23,-259.31C158.69,-247.63 155.01,-235.51 151.34,-223.44"/>
<polygon fill="none" stroke="#404040" points="151.33,-223.39 145.76,-218.81 147.84,-211.9 153.41,-216.48 151.33,-223.39"/>
<text text-anchor="middle" x="179.5" y="-233" font-family="Helvetica,sans-Serif" font-size="10.00"> +params</text>
</g>
<!-- Node5 -->
<g id="node5" class="node">
<title>Node5</title>
<g id="a_node5"><a xlink:href="namespacealpaqa.html#structalpaqa_1_1LipschitzEstimateParams" target="_top" xlink:title=" ">
<polygon fill="white" stroke="black" points="112.5,-496.5 112.5,-586.5 251.5,-586.5 251.5,-496.5 112.5,-496.5"/>
<text text-anchor="middle" x="182" y="-574.5" font-family="Helvetica,sans-Serif" font-size="10.00">LipschitzEstimateParams</text>
<polyline fill="none" stroke="black" points="112.5,-567.5 251.5,-567.5 "/>
<text text-anchor="start" x="120.5" y="-555.5" font-family="Helvetica,sans-Serif" font-size="10.00">+ L₀</text>
<text text-anchor="start" x="120.5" y="-544.5" font-family="Helvetica,sans-Serif" font-size="10.00">+ ε</text>
<text text-anchor="start" x="120.5" y="-533.5" font-family="Helvetica,sans-Serif" font-size="10.00">+ δ</text>
<text text-anchor="start" x="120.5" y="-522.5" font-family="Helvetica,sans-Serif" font-size="10.00">+ Lγ_factor</text>
<polyline fill="none" stroke="black" points="112.5,-515.5 251.5,-515.5 "/>
<text text-anchor="middle" x="182" y="-503.5" font-family="Helvetica,sans-Serif" font-size="10.00"> </text>
</a>
</g>
</g>
<!-- Node5&#45;&gt;Node4 -->
<g id="edge4" class="edge">
<title>Node5&#45;&gt;Node4</title>
<path fill="none" stroke="#404040" d="M183.62,-496.2C184.14,-482.24 184.72,-466.2 185.32,-449.97"/>
<polygon fill="none" stroke="#404040" points="185.33,-449.55 181.56,-443.41 185.77,-437.56 189.55,-443.7 185.33,-449.55"/>
<text text-anchor="middle" x="213.5" y="-464.5" font-family="Helvetica,sans-Serif" font-size="10.00"> +Lipschitz</text>
</g>
<!-- Node6 -->
<g id="node6" class="node">
<title>Node6</title>
<g id="a_node6"><a xlink:title=" ">
<polygon fill="white" stroke="#bfbfbf" points="270,-513 270,-570 354,-570 354,-513 270,-513"/>
<text text-anchor="middle" x="312" y="-558" font-family="Helvetica,sans-Serif" font-size="10.00">microseconds</text>
<polyline fill="none" stroke="#bfbfbf" points="270,-551 354,-551 "/>
<text text-anchor="middle" x="312" y="-539" font-family="Helvetica,sans-Serif" font-size="10.00"> </text>
<polyline fill="none" stroke="#bfbfbf" points="270,-532 354,-532 "/>
<text text-anchor="middle" x="312" y="-520" font-family="Helvetica,sans-Serif" font-size="10.00"> </text>
</a>
</g>
</g>
<!-- Node6&#45;&gt;Node4 -->
<g id="edge5" class="edge">
<title>Node6&#45;&gt;Node4</title>
<path fill="none" stroke="#404040" d="M294.11,-512.73C282.92,-495.35 267.76,-471.8 252.43,-448"/>
<polygon fill="none" stroke="#404040" points="252.36,-447.89 245.75,-445.01 245.86,-437.8 252.48,-440.68 252.36,-447.89"/>
<text text-anchor="middle" x="299.5" y="-464.5" font-family="Helvetica,sans-Serif" font-size="10.00"> +max_time</text>
</g>
</g>
</svg>
