<?xml version="1.0" encoding="UTF-8" standalone="no"?>
<!DOCTYPE svg PUBLIC "-//W3C//DTD SVG 1.1//EN"
 "http://www.w3.org/Graphics/SVG/1.1/DTD/svg11.dtd">
<!-- Generated by graphviz version 2.43.0 (0)
 -->
<!-- Title: StructuredPANOCLBFGSProgressInfo Pages: 1 -->
<svg width="362pt" height="683pt"
 viewBox="0.00 0.00 362.00 683.00" xmlns="http://www.w3.org/2000/svg" xmlns:xlink="http://www.w3.org/1999/xlink">
<g id="graph0" class="graph" transform="scale(1 1) rotate(0) translate(4 679)">
<title>StructuredPANOCLBFGSProgressInfo</title>
<polygon fill="white" stroke="transparent" points="-4,4 -4,-679 358,-679 358,4 -4,4"/>
<!-- Node1 -->
<g id="node1" class="node">
<title>Node1</title>
<g id="a_node1"><a xlink:title=" ">
<polygon fill="#bfbfbf" stroke="black" points="19.5,-0.5 19.5,-222.5 212.5,-222.5 212.5,-0.5 19.5,-0.5"/>
<text text-anchor="middle" x="116" y="-210.5" font-family="Helvetica,sans-Serif" font-size="10.00">StructuredPANOCLBFGSProgressInfo</text>
<polyline fill="none" stroke="black" points="19.5,-203.5 212.5,-203.5 "/>
<text text-anchor="start" x="27.5" y="-191.5" font-family="Helvetica,sans-Serif" font-size="10.00">+ k</text>
<text text-anchor="start" x="27.5" y="-180.5" font-family="Helvetica,sans-Serif" font-size="10.00">+ x</text>
<text text-anchor="start" x="27.5" y="-169.5" font-family="Helvetica,sans-Serif" font-size="10.00">+ p</text>
<text text-anchor="start" x="27.5" y="-158.5" font-family="Helvetica,sans-Serif" font-size="10.00">+ norm_sq_p</text>
<text text-anchor="start" x="27.5" y="-147.5" font-family="Helvetica,sans-Serif" font-size="10.00">+ x_hat</text>
<text text-anchor="start" x="27.5" y="-136.5" font-family="Helvetica,sans-Serif" font-size="10.00">+ φγ</text>
<text text-anchor="start" x="27.5" y="-125.5" font-family="Helvetica,sans-Serif" font-size="10.00">+ ψ</text>
<text text-anchor="start" x="27.5" y="-114.5" font-family="Helvetica,sans-Serif" font-size="10.00">+ grad_ψ</text>
<text text-anchor="start" x="27.5" y="-103.5" font-family="Helvetica,sans-Serif" font-size="10.00">+ ψ_hat</text>
<text text-anchor="start" x="27.5" y="-92.5" font-family="Helvetica,sans-Serif" font-size="10.00">+ grad_ψ_hat</text>
<text text-anchor="start" x="27.5" y="-81.5" font-family="Helvetica,sans-Serif" font-size="10.00">+ L</text>
<text text-anchor="start" x="27.5" y="-70.5" font-family="Helvetica,sans-Serif" font-size="10.00">+ γ</text>
<text text-anchor="start" x="27.5" y="-59.5" font-family="Helvetica,sans-Serif" font-size="10.00">+ τ</text>
<text text-anchor="start" x="27.5" y="-48.5" font-family="Helvetica,sans-Serif" font-size="10.00">+ ε</text>
<text text-anchor="start" x="27.5" y="-37.5" font-family="Helvetica,sans-Serif" font-size="10.00">+ Σ</text>
<text text-anchor="start" x="27.5" y="-26.5" font-family="Helvetica,sans-Serif" font-size="10.00">+ y</text>
<polyline fill="none" stroke="black" points="19.5,-19.5 212.5,-19.5 "/>
<text text-anchor="middle" x="116" y="-7.5" font-family="Helvetica,sans-Serif" font-size="10.00"> </text>
</a>
</g>
</g>
<!-- Node2 -->
<g id="node2" class="node">
<title>Node2</title>
<g id="a_node2"><a xlink:href="structalpaqa_1_1Problem.html" target="_top" xlink:title="Problem description for minimization problems.">
<polygon fill="white" stroke="black" points="0,-314.5 0,-481.5 88,-481.5 88,-314.5 0,-314.5"/>
<text text-anchor="middle" x="44" y="-469.5" font-family="Helvetica,sans-Serif" font-size="10.00">Problem</text>
<polyline fill="none" stroke="black" points="0,-462.5 88,-462.5 "/>
<text text-anchor="start" x="8" y="-450.5" font-family="Helvetica,sans-Serif" font-size="10.00">+ n</text>
<text text-anchor="start" x="8" y="-439.5" font-family="Helvetica,sans-Serif" font-size="10.00">+ m</text>
<text text-anchor="start" x="8" y="-428.5" font-family="Helvetica,sans-Serif" font-size="10.00">+ f</text>
<text text-anchor="start" x="8" y="-417.5" font-family="Helvetica,sans-Serif" font-size="10.00">+ grad_f</text>
<text text-anchor="start" x="8" y="-406.5" font-family="Helvetica,sans-Serif" font-size="10.00">+ g</text>
<text text-anchor="start" x="8" y="-395.5" font-family="Helvetica,sans-Serif" font-size="10.00">+ grad_g_prod</text>
<text text-anchor="start" x="8" y="-384.5" font-family="Helvetica,sans-Serif" font-size="10.00">+ grad_gi</text>
<text text-anchor="start" x="8" y="-373.5" font-family="Helvetica,sans-Serif" font-size="10.00">+ hess_L_prod</text>
<text text-anchor="start" x="8" y="-362.5" font-family="Helvetica,sans-Serif" font-size="10.00">+ hess_L</text>
<polyline fill="none" stroke="black" points="0,-355.5 88,-355.5 "/>
<text text-anchor="start" x="8" y="-343.5" font-family="Helvetica,sans-Serif" font-size="10.00">+ Problem()</text>
<text text-anchor="start" x="8" y="-332.5" font-family="Helvetica,sans-Serif" font-size="10.00">+ Problem()</text>
<text text-anchor="start" x="8" y="-321.5" font-family="Helvetica,sans-Serif" font-size="10.00">+ Problem()</text>
</a>
</g>
</g>
<!-- Node2&#45;&gt;Node1 -->
<g id="edge1" class="edge">
<title>Node2&#45;&gt;Node1</title>
<path fill="none" stroke="#404040" d="M64.92,-314.33C71.23,-289.39 78.3,-261.47 85.12,-234.54"/>
<polygon fill="none" stroke="#404040" points="85.18,-234.29 82.77,-227.49 88.12,-222.66 90.53,-229.46 85.18,-234.29"/>
<text text-anchor="middle" x="109" y="-244" font-family="Helvetica,sans-Serif" font-size="10.00"> +problem</text>
</g>
<!-- Node3 -->
<g id="node3" class="node">
<title>Node3</title>
<g id="a_node3"><a xlink:href="namespacealpaqa.html#structalpaqa_1_1Box" target="_top" xlink:title=" ">
<polygon fill="white" stroke="black" points="1,-595.5 1,-663.5 87,-663.5 87,-595.5 1,-595.5"/>
<text text-anchor="middle" x="44" y="-651.5" font-family="Helvetica,sans-Serif" font-size="10.00">Box</text>
<polyline fill="none" stroke="black" points="1,-644.5 87,-644.5 "/>
<text text-anchor="start" x="9" y="-632.5" font-family="Helvetica,sans-Serif" font-size="10.00">+ upperbound</text>
<text text-anchor="start" x="9" y="-621.5" font-family="Helvetica,sans-Serif" font-size="10.00">+ lowerbound</text>
<polyline fill="none" stroke="black" points="1,-614.5 87,-614.5 "/>
<text text-anchor="middle" x="44" y="-602.5" font-family="Helvetica,sans-Serif" font-size="10.00"> </text>
</a>
</g>
</g>
<!-- Node3&#45;&gt;Node2 -->
<g id="edge2" class="edge">
<title>Node3&#45;&gt;Node2</title>
<path fill="none" stroke="#404040" d="M44,-595.13C44,-568.55 44,-529.96 44,-494.03"/>
<polygon fill="none" stroke="#404040" points="44,-493.97 40,-487.97 44,-481.97 48,-487.97 44,-493.97"/>
<text text-anchor="middle" x="53.5" y="-558" font-family="Helvetica,sans-Serif" font-size="10.00"> +C</text>
<text text-anchor="middle" x="53.5" y="-547" font-family="Helvetica,sans-Serif" font-size="10.00">+D</text>
</g>
<!-- Node4 -->
<g id="node4" class="node">
<title>Node4</title>
<g id="a_node4"><a xlink:href="namespacealpaqa.html#structalpaqa_1_1StructuredPANOCLBFGSParams" target="_top" xlink:title="Tuning parameters for the second order PANOC algorithm.">
<polygon fill="white" stroke="black" points="106,-270.5 106,-525.5 274,-525.5 274,-270.5 106,-270.5"/>
<text text-anchor="middle" x="190" y="-513.5" font-family="Helvetica,sans-Serif" font-size="10.00">StructuredPANOCLBFGSParams</text>
<polyline fill="none" stroke="black" points="106,-506.5 274,-506.5 "/>
<text text-anchor="start" x="114" y="-494.5" font-family="Helvetica,sans-Serif" font-size="10.00">+ max_iter</text>
<text text-anchor="start" x="114" y="-483.5" font-family="Helvetica,sans-Serif" font-size="10.00">+ τ_min</text>
<text text-anchor="start" x="114" y="-472.5" font-family="Helvetica,sans-Serif" font-size="10.00">+ L_min</text>
<text text-anchor="start" x="114" y="-461.5" font-family="Helvetica,sans-Serif" font-size="10.00">+ L_max</text>
<text text-anchor="start" x="114" y="-450.5" font-family="Helvetica,sans-Serif" font-size="10.00">+ nonmonotone_linesearch</text>
<text text-anchor="start" x="114" y="-439.5" font-family="Helvetica,sans-Serif" font-size="10.00">+ stop_crit</text>
<text text-anchor="start" x="114" y="-428.5" font-family="Helvetica,sans-Serif" font-size="10.00">+ max_no_progress</text>
<text text-anchor="start" x="114" y="-417.5" font-family="Helvetica,sans-Serif" font-size="10.00">+ print_interval</text>
<text text-anchor="start" x="114" y="-406.5" font-family="Helvetica,sans-Serif" font-size="10.00">+ quadratic_upperbound</text>
<text text-anchor="start" x="114" y="-395.5" font-family="Helvetica,sans-Serif" font-size="10.00">_tolerance_factor</text>
<text text-anchor="start" x="114" y="-384.5" font-family="Helvetica,sans-Serif" font-size="10.00">+ update_lipschitz_in</text>
<text text-anchor="start" x="114" y="-373.5" font-family="Helvetica,sans-Serif" font-size="10.00">_linesearch</text>
<text text-anchor="start" x="114" y="-362.5" font-family="Helvetica,sans-Serif" font-size="10.00">+ alternative_linesearch_cond</text>
<text text-anchor="start" x="114" y="-351.5" font-family="Helvetica,sans-Serif" font-size="10.00">+ hessian_vec</text>
<text text-anchor="start" x="114" y="-340.5" font-family="Helvetica,sans-Serif" font-size="10.00">+ hessian_vec_finite</text>
<text text-anchor="start" x="114" y="-329.5" font-family="Helvetica,sans-Serif" font-size="10.00">_differences</text>
<text text-anchor="start" x="114" y="-318.5" font-family="Helvetica,sans-Serif" font-size="10.00">+ full_augmented_hessian</text>
<text text-anchor="start" x="114" y="-307.5" font-family="Helvetica,sans-Serif" font-size="10.00">+ hessian_step_size_heuristic</text>
<text text-anchor="start" x="114" y="-296.5" font-family="Helvetica,sans-Serif" font-size="10.00">+ lbfgs_stepsize</text>
<polyline fill="none" stroke="black" points="106,-289.5 274,-289.5 "/>
<text text-anchor="middle" x="190" y="-277.5" font-family="Helvetica,sans-Serif" font-size="10.00"> </text>
</a>
</g>
</g>
<!-- Node4&#45;&gt;Node1 -->
<g id="edge3" class="edge">
<title>Node4&#45;&gt;Node1</title>
<path fill="none" stroke="#404040" d="M157,-270.14C153.91,-258.25 150.78,-246.22 147.7,-234.37"/>
<polygon fill="none" stroke="#404040" points="147.66,-234.22 142.28,-229.42 144.64,-222.6 150.02,-227.4 147.66,-234.22"/>
<text text-anchor="middle" x="175.5" y="-244" font-family="Helvetica,sans-Serif" font-size="10.00"> +params</text>
</g>
<!-- Node5 -->
<g id="node5" class="node">
<title>Node5</title>
<g id="a_node5"><a xlink:href="namespacealpaqa.html#structalpaqa_1_1LipschitzEstimateParams" target="_top" xlink:title=" ">
<polygon fill="white" stroke="black" points="112.5,-584.5 112.5,-674.5 251.5,-674.5 251.5,-584.5 112.5,-584.5"/>
<text text-anchor="middle" x="182" y="-662.5" font-family="Helvetica,sans-Serif" font-size="10.00">LipschitzEstimateParams</text>
<polyline fill="none" stroke="black" points="112.5,-655.5 251.5,-655.5 "/>
<text text-anchor="start" x="120.5" y="-643.5" font-family="Helvetica,sans-Serif" font-size="10.00">+ L₀</text>
<text text-anchor="start" x="120.5" y="-632.5" font-family="Helvetica,sans-Serif" font-size="10.00">+ ε</text>
<text text-anchor="start" x="120.5" y="-621.5" font-family="Helvetica,sans-Serif" font-size="10.00">+ δ</text>
<text text-anchor="start" x="120.5" y="-610.5" font-family="Helvetica,sans-Serif" font-size="10.00">+ Lγ_factor</text>
<polyline fill="none" stroke="black" points="112.5,-603.5 251.5,-603.5 "/>
<text text-anchor="middle" x="182" y="-591.5" font-family="Helvetica,sans-Serif" font-size="10.00"> </text>
</a>
</g>
</g>
<!-- Node5&#45;&gt;Node4 -->
<g id="edge4" class="edge">
<title>Node5&#45;&gt;Node4</title>
<path fill="none" stroke="#404040" d="M183.54,-584.25C184.02,-570.52 184.58,-554.59 185.16,-537.95"/>
<polygon fill="none" stroke="#404040" points="185.16,-537.72 181.38,-531.59 185.58,-525.73 189.37,-531.86 185.16,-537.72"/>
<text text-anchor="middle" x="212.5" y="-552.5" font-family="Helvetica,sans-Serif" font-size="10.00"> +Lipschitz</text>
</g>
<!-- Node6 -->
<g id="node6" class="node">
<title>Node6</title>
<g id="a_node6"><a xlink:title=" ">
<polygon fill="white" stroke="#bfbfbf" points="270,-601 270,-658 354,-658 354,-601 270,-601"/>
<text text-anchor="middle" x="312" y="-646" font-family="Helvetica,sans-Serif" font-size="10.00">microseconds</text>
<polyline fill="none" stroke="#bfbfbf" points="270,-639 354,-639 "/>
<text text-anchor="middle" x="312" y="-627" font-family="Helvetica,sans-Serif" font-size="10.00"> </text>
<polyline fill="none" stroke="#bfbfbf" points="270,-620 354,-620 "/>
<text text-anchor="middle" x="312" y="-608" font-family="Helvetica,sans-Serif" font-size="10.00"> </text>
</a>
</g>
</g>
<!-- Node6&#45;&gt;Node4 -->
<g id="edge5" class="edge">
<title>Node6&#45;&gt;Node4</title>
<path fill="none" stroke="#404040" d="M297.28,-600.82C288.31,-583.94 276.1,-560.97 263.13,-536.57"/>
<polygon fill="none" stroke="#404040" points="262.96,-536.25 256.61,-532.83 257.33,-525.65 263.68,-529.07 262.96,-536.25"/>
<text text-anchor="middle" x="306.5" y="-552.5" font-family="Helvetica,sans-Serif" font-size="10.00"> +max_time</text>
</g>
</g>
</svg>
