<?xml version="1.0" encoding="UTF-8" standalone="no"?>
<!DOCTYPE svg PUBLIC "-//W3C//DTD SVG 1.1//EN"
 "http://www.w3.org/Graphics/SVG/1.1/DTD/svg11.dtd">
<!-- Generated by graphviz version 2.43.0 (0)
 -->
<!-- Title: PGAProgressInfo Pages: 1 -->
<svg width="355pt" height="573pt"
 viewBox="0.00 0.00 355.00 573.00" xmlns="http://www.w3.org/2000/svg" xmlns:xlink="http://www.w3.org/1999/xlink">
<g id="graph0" class="graph" transform="scale(1 1) rotate(0) translate(4 569)">
<title>PGAProgressInfo</title>
<polygon fill="white" stroke="transparent" points="-4,4 -4,-569 351,-569 351,4 -4,4"/>
<!-- Node1 -->
<g id="node1" class="node">
<title>Node1</title>
<g id="a_node1"><a xlink:title=" ">
<polygon fill="#bfbfbf" stroke="black" points="60,-0.5 60,-200.5 158,-200.5 158,-0.5 60,-0.5"/>
<text text-anchor="middle" x="109" y="-188.5" font-family="Helvetica,sans-Serif" font-size="10.00">PGAProgressInfo</text>
<polyline fill="none" stroke="black" points="60,-181.5 158,-181.5 "/>
<text text-anchor="start" x="68" y="-169.5" font-family="Helvetica,sans-Serif" font-size="10.00">+ k</text>
<text text-anchor="start" x="68" y="-158.5" font-family="Helvetica,sans-Serif" font-size="10.00">+ x</text>
<text text-anchor="start" x="68" y="-147.5" font-family="Helvetica,sans-Serif" font-size="10.00">+ p</text>
<text text-anchor="start" x="68" y="-136.5" font-family="Helvetica,sans-Serif" font-size="10.00">+ norm_sq_p</text>
<text text-anchor="start" x="68" y="-125.5" font-family="Helvetica,sans-Serif" font-size="10.00">+ x_hat</text>
<text text-anchor="start" x="68" y="-114.5" font-family="Helvetica,sans-Serif" font-size="10.00">+ ψ</text>
<text text-anchor="start" x="68" y="-103.5" font-family="Helvetica,sans-Serif" font-size="10.00">+ grad_ψ</text>
<text text-anchor="start" x="68" y="-92.5" font-family="Helvetica,sans-Serif" font-size="10.00">+ ψ_hat</text>
<text text-anchor="start" x="68" y="-81.5" font-family="Helvetica,sans-Serif" font-size="10.00">+ grad_ψ_hat</text>
<text text-anchor="start" x="68" y="-70.5" font-family="Helvetica,sans-Serif" font-size="10.00">+ L</text>
<text text-anchor="start" x="68" y="-59.5" font-family="Helvetica,sans-Serif" font-size="10.00">+ γ</text>
<text text-anchor="start" x="68" y="-48.5" font-family="Helvetica,sans-Serif" font-size="10.00">+ ε</text>
<text text-anchor="start" x="68" y="-37.5" font-family="Helvetica,sans-Serif" font-size="10.00">+ Σ</text>
<text text-anchor="start" x="68" y="-26.5" font-family="Helvetica,sans-Serif" font-size="10.00">+ y</text>
<polyline fill="none" stroke="black" points="60,-19.5 158,-19.5 "/>
<text text-anchor="middle" x="109" y="-7.5" font-family="Helvetica,sans-Serif" font-size="10.00"> </text>
</a>
</g>
</g>
<!-- Node2 -->
<g id="node2" class="node">
<title>Node2</title>
<g id="a_node2"><a xlink:href="structalpaqa_1_1Problem.html" target="_top" xlink:title="Problem description for minimization problems.">
<polygon fill="white" stroke="black" points="0,-248.5 0,-415.5 88,-415.5 88,-248.5 0,-248.5"/>
<text text-anchor="middle" x="44" y="-403.5" font-family="Helvetica,sans-Serif" font-size="10.00">Problem</text>
<polyline fill="none" stroke="black" points="0,-396.5 88,-396.5 "/>
<text text-anchor="start" x="8" y="-384.5" font-family="Helvetica,sans-Serif" font-size="10.00">+ n</text>
<text text-anchor="start" x="8" y="-373.5" font-family="Helvetica,sans-Serif" font-size="10.00">+ m</text>
<text text-anchor="start" x="8" y="-362.5" font-family="Helvetica,sans-Serif" font-size="10.00">+ f</text>
<text text-anchor="start" x="8" y="-351.5" font-family="Helvetica,sans-Serif" font-size="10.00">+ grad_f</text>
<text text-anchor="start" x="8" y="-340.5" font-family="Helvetica,sans-Serif" font-size="10.00">+ g</text>
<text text-anchor="start" x="8" y="-329.5" font-family="Helvetica,sans-Serif" font-size="10.00">+ grad_g_prod</text>
<text text-anchor="start" x="8" y="-318.5" font-family="Helvetica,sans-Serif" font-size="10.00">+ grad_gi</text>
<text text-anchor="start" x="8" y="-307.5" font-family="Helvetica,sans-Serif" font-size="10.00">+ hess_L_prod</text>
<text text-anchor="start" x="8" y="-296.5" font-family="Helvetica,sans-Serif" font-size="10.00">+ hess_L</text>
<polyline fill="none" stroke="black" points="0,-289.5 88,-289.5 "/>
<text text-anchor="start" x="8" y="-277.5" font-family="Helvetica,sans-Serif" font-size="10.00">+ Problem()</text>
<text text-anchor="start" x="8" y="-266.5" font-family="Helvetica,sans-Serif" font-size="10.00">+ Problem()</text>
<text text-anchor="start" x="8" y="-255.5" font-family="Helvetica,sans-Serif" font-size="10.00">+ Problem()</text>
</a>
</g>
</g>
<!-- Node2&#45;&gt;Node1 -->
<g id="edge1" class="edge">
<title>Node2&#45;&gt;Node1</title>
<path fill="none" stroke="#404040" d="M67.37,-248.47C70.71,-236.69 74.19,-224.41 77.65,-212.19"/>
<polygon fill="none" stroke="#404040" points="77.69,-212.07 75.47,-205.2 80.96,-200.52 83.17,-207.38 77.69,-212.07"/>
<text text-anchor="middle" x="101" y="-222" font-family="Helvetica,sans-Serif" font-size="10.00"> +problem</text>
</g>
<!-- Node3 -->
<g id="node3" class="node">
<title>Node3</title>
<g id="a_node3"><a xlink:href="namespacealpaqa.html#structalpaqa_1_1Box" target="_top" xlink:title=" ">
<polygon fill="white" stroke="black" points="1,-485.5 1,-553.5 87,-553.5 87,-485.5 1,-485.5"/>
<text text-anchor="middle" x="44" y="-541.5" font-family="Helvetica,sans-Serif" font-size="10.00">Box</text>
<polyline fill="none" stroke="black" points="1,-534.5 87,-534.5 "/>
<text text-anchor="start" x="9" y="-522.5" font-family="Helvetica,sans-Serif" font-size="10.00">+ upperbound</text>
<text text-anchor="start" x="9" y="-511.5" font-family="Helvetica,sans-Serif" font-size="10.00">+ lowerbound</text>
<polyline fill="none" stroke="black" points="1,-504.5 87,-504.5 "/>
<text text-anchor="middle" x="44" y="-492.5" font-family="Helvetica,sans-Serif" font-size="10.00"> </text>
</a>
</g>
</g>
<!-- Node3&#45;&gt;Node2 -->
<g id="edge2" class="edge">
<title>Node3&#45;&gt;Node2</title>
<path fill="none" stroke="#404040" d="M44,-485.34C44,-469.05 44,-448.5 44,-427.82"/>
<polygon fill="none" stroke="#404040" points="44,-427.66 40,-421.66 44,-415.66 48,-421.66 44,-427.66"/>
<text text-anchor="middle" x="53.5" y="-448" font-family="Helvetica,sans-Serif" font-size="10.00"> +C</text>
<text text-anchor="middle" x="53.5" y="-437" font-family="Helvetica,sans-Serif" font-size="10.00">+D</text>
</g>
<!-- Node4 -->
<g id="node4" class="node">
<title>Node4</title>
<g id="a_node4"><a xlink:href="namespacealpaqa.html#structalpaqa_1_1PGAParams" target="_top" xlink:title=" ">
<polygon fill="white" stroke="black" points="106.5,-270.5 106.5,-393.5 243.5,-393.5 243.5,-270.5 106.5,-270.5"/>
<text text-anchor="middle" x="175" y="-381.5" font-family="Helvetica,sans-Serif" font-size="10.00">PGAParams</text>
<polyline fill="none" stroke="black" points="106.5,-374.5 243.5,-374.5 "/>
<text text-anchor="start" x="114.5" y="-362.5" font-family="Helvetica,sans-Serif" font-size="10.00">+ max_iter</text>
<text text-anchor="start" x="114.5" y="-351.5" font-family="Helvetica,sans-Serif" font-size="10.00">+ L_min</text>
<text text-anchor="start" x="114.5" y="-340.5" font-family="Helvetica,sans-Serif" font-size="10.00">+ L_max</text>
<text text-anchor="start" x="114.5" y="-329.5" font-family="Helvetica,sans-Serif" font-size="10.00">+ stop_crit</text>
<text text-anchor="start" x="114.5" y="-318.5" font-family="Helvetica,sans-Serif" font-size="10.00">+ print_interval</text>
<text text-anchor="start" x="114.5" y="-307.5" font-family="Helvetica,sans-Serif" font-size="10.00">+ quadratic_upperbound</text>
<text text-anchor="start" x="114.5" y="-296.5" font-family="Helvetica,sans-Serif" font-size="10.00">_tolerance_factor</text>
<polyline fill="none" stroke="black" points="106.5,-289.5 243.5,-289.5 "/>
<text text-anchor="middle" x="175" y="-277.5" font-family="Helvetica,sans-Serif" font-size="10.00"> </text>
</a>
</g>
</g>
<!-- Node4&#45;&gt;Node1 -->
<g id="edge3" class="edge">
<title>Node4&#45;&gt;Node1</title>
<path fill="none" stroke="#404040" d="M157.57,-270.4C152.43,-252.53 146.64,-232.38 140.89,-212.39"/>
<polygon fill="none" stroke="#404040" points="140.83,-212.19 135.33,-207.53 137.52,-200.66 143.02,-205.32 140.83,-212.19"/>
<text text-anchor="middle" x="170.5" y="-222" font-family="Helvetica,sans-Serif" font-size="10.00"> +params</text>
</g>
<!-- Node5 -->
<g id="node5" class="node">
<title>Node5</title>
<g id="a_node5"><a xlink:href="namespacealpaqa.html#structalpaqa_1_1LipschitzEstimateParams" target="_top" xlink:title=" ">
<polygon fill="white" stroke="black" points="105.5,-474.5 105.5,-564.5 244.5,-564.5 244.5,-474.5 105.5,-474.5"/>
<text text-anchor="middle" x="175" y="-552.5" font-family="Helvetica,sans-Serif" font-size="10.00">LipschitzEstimateParams</text>
<polyline fill="none" stroke="black" points="105.5,-545.5 244.5,-545.5 "/>
<text text-anchor="start" x="113.5" y="-533.5" font-family="Helvetica,sans-Serif" font-size="10.00">+ L₀</text>
<text text-anchor="start" x="113.5" y="-522.5" font-family="Helvetica,sans-Serif" font-size="10.00">+ ε</text>
<text text-anchor="start" x="113.5" y="-511.5" font-family="Helvetica,sans-Serif" font-size="10.00">+ δ</text>
<text text-anchor="start" x="113.5" y="-500.5" font-family="Helvetica,sans-Serif" font-size="10.00">+ Lγ_factor</text>
<polyline fill="none" stroke="black" points="105.5,-493.5 244.5,-493.5 "/>
<text text-anchor="middle" x="175" y="-481.5" font-family="Helvetica,sans-Serif" font-size="10.00"> </text>
</a>
</g>
</g>
<!-- Node5&#45;&gt;Node4 -->
<g id="edge4" class="edge">
<title>Node5&#45;&gt;Node4</title>
<path fill="none" stroke="#404040" d="M175,-474.07C175,-453.63 175,-428.84 175,-405.78"/>
<polygon fill="none" stroke="#404040" points="175,-405.55 171,-399.55 175,-393.55 179,-399.55 175,-405.55"/>
<text text-anchor="middle" x="202.5" y="-442.5" font-family="Helvetica,sans-Serif" font-size="10.00"> +Lipschitz</text>
</g>
<!-- Node6 -->
<g id="node6" class="node">
<title>Node6</title>
<g id="a_node6"><a xlink:title=" ">
<polygon fill="white" stroke="#bfbfbf" points="263,-491 263,-548 347,-548 347,-491 263,-491"/>
<text text-anchor="middle" x="305" y="-536" font-family="Helvetica,sans-Serif" font-size="10.00">microseconds</text>
<polyline fill="none" stroke="#bfbfbf" points="263,-529 347,-529 "/>
<text text-anchor="middle" x="305" y="-517" font-family="Helvetica,sans-Serif" font-size="10.00"> </text>
<polyline fill="none" stroke="#bfbfbf" points="263,-510 347,-510 "/>
<text text-anchor="middle" x="305" y="-498" font-family="Helvetica,sans-Serif" font-size="10.00"> </text>
</a>
</g>
</g>
<!-- Node6&#45;&gt;Node4 -->
<g id="edge5" class="edge">
<title>Node6&#45;&gt;Node4</title>
<path fill="none" stroke="#404040" d="M285.54,-490.73C269.44,-467.75 245.85,-434.09 224.59,-403.76"/>
<polygon fill="none" stroke="#404040" points="224.37,-403.45 217.65,-400.83 217.48,-393.62 224.2,-396.24 224.37,-403.45"/>
<text text-anchor="middle" x="290.5" y="-442.5" font-family="Helvetica,sans-Serif" font-size="10.00"> +max_time</text>
</g>
</g>
</svg>
