<?xml version="1.0" encoding="UTF-8" standalone="no"?>
<!DOCTYPE svg PUBLIC "-//W3C//DTD SVG 1.1//EN"
 "http://www.w3.org/Graphics/SVG/1.1/DTD/svg11.dtd">
<!-- Generated by graphviz version 2.43.0 (0)
 -->
<!-- Title: PolymorphicInnerSolver&lt; InnerSolver &gt;::WrappedStats Pages: 1 -->
<svg width="190pt" height="342pt"
 viewBox="0.00 0.00 190.00 342.00" xmlns="http://www.w3.org/2000/svg" xmlns:xlink="http://www.w3.org/1999/xlink">
<g id="graph0" class="graph" transform="scale(1 1) rotate(0) translate(4 338)">
<title>PolymorphicInnerSolver&lt; InnerSolver &gt;::WrappedStats</title>
<polygon fill="white" stroke="transparent" points="-4,4 -4,-338 186,-338 186,4 -4,4"/>
<!-- Node1 -->
<g id="node1" class="node">
<title>Node1</title>
<g id="a_node1"><a xlink:title=" ">
<polygon fill="#bfbfbf" stroke="black" points="6.5,-0.5 6.5,-90.5 175.5,-90.5 175.5,-0.5 6.5,-0.5"/>
<text text-anchor="start" x="14.5" y="-78.5" font-family="Helvetica,sans-Serif" font-size="10.00">PolymorphicInnerSolver</text>
<text text-anchor="middle" x="91" y="-67.5" font-family="Helvetica,sans-Serif" font-size="10.00">&lt; InnerSolver &gt;::WrappedStats</text>
<polyline fill="none" stroke="black" points="6.5,-60.5 175.5,-60.5 "/>
<text text-anchor="start" x="14.5" y="-48.5" font-family="Helvetica,sans-Serif" font-size="10.00">+ stats</text>
<polyline fill="none" stroke="black" points="6.5,-41.5 175.5,-41.5 "/>
<text text-anchor="start" x="14.5" y="-29.5" font-family="Helvetica,sans-Serif" font-size="10.00">+ WrappedStats()</text>
<text text-anchor="start" x="14.5" y="-18.5" font-family="Helvetica,sans-Serif" font-size="10.00">+ accumulator()</text>
<text text-anchor="start" x="14.5" y="-7.5" font-family="Helvetica,sans-Serif" font-size="10.00">+ to_dict()</text>
</a>
</g>
</g>
<!-- Node2 -->
<g id="node2" class="node">
<title>Node2</title>
<g id="a_node2"><a xlink:href="classalpaqa_1_1PolymorphicInnerSolverStatsBase.html" target="_top" xlink:title=" ">
<polygon fill="white" stroke="black" points="0,-127.5 0,-217.5 182,-217.5 182,-127.5 0,-127.5"/>
<text text-anchor="middle" x="91" y="-205.5" font-family="Helvetica,sans-Serif" font-size="10.00">PolymorphicInnerSolverStatsBase</text>
<polyline fill="none" stroke="black" points="0,-198.5 182,-198.5 "/>
<text text-anchor="middle" x="91" y="-186.5" font-family="Helvetica,sans-Serif" font-size="10.00"> </text>
<polyline fill="none" stroke="black" points="0,-179.5 182,-179.5 "/>
<text text-anchor="start" x="8" y="-167.5" font-family="Helvetica,sans-Serif" font-size="10.00">+ ~PolymorphicInnerSolverStats</text>
<text text-anchor="start" x="8" y="-156.5" font-family="Helvetica,sans-Serif" font-size="10.00">Base()</text>
<text text-anchor="start" x="8" y="-145.5" font-family="Helvetica,sans-Serif" font-size="10.00">+ to_dict()</text>
<text text-anchor="start" x="8" y="-134.5" font-family="Helvetica,sans-Serif" font-size="10.00">+ accumulator()</text>
</a>
</g>
</g>
<!-- Node2&#45;&gt;Node1 -->
<g id="edge1" class="edge">
<title>Node2&#45;&gt;Node1</title>
<path fill="none" stroke="midnightblue" d="M91,-117.16C91,-108.28 91,-99.18 91,-90.59"/>
<polygon fill="none" stroke="midnightblue" points="87.5,-117.43 91,-127.43 94.5,-117.43 87.5,-117.43"/>
</g>
<!-- Node3 -->
<g id="node3" class="node">
<title>Node3</title>
<g id="a_node3"><a xlink:title=" ">
<polygon fill="white" stroke="#bfbfbf" points="7.5,-254.5 7.5,-333.5 174.5,-333.5 174.5,-254.5 7.5,-254.5"/>
<text text-anchor="start" x="15.5" y="-321.5" font-family="Helvetica,sans-Serif" font-size="10.00">enable_shared_from</text>
<text text-anchor="start" x="15.5" y="-310.5" font-family="Helvetica,sans-Serif" font-size="10.00">_this&lt; PolymorphicInnerSolver</text>
<text text-anchor="middle" x="91" y="-299.5" font-family="Helvetica,sans-Serif" font-size="10.00">StatsBase &gt;</text>
<polyline fill="none" stroke="#bfbfbf" points="7.5,-292.5 174.5,-292.5 "/>
<text text-anchor="middle" x="91" y="-280.5" font-family="Helvetica,sans-Serif" font-size="10.00"> </text>
<polyline fill="none" stroke="#bfbfbf" points="7.5,-273.5 174.5,-273.5 "/>
<text text-anchor="middle" x="91" y="-261.5" font-family="Helvetica,sans-Serif" font-size="10.00"> </text>
</a>
</g>
</g>
<!-- Node3&#45;&gt;Node2 -->
<g id="edge2" class="edge">
<title>Node3&#45;&gt;Node2</title>
<path fill="none" stroke="midnightblue" d="M91,-244.19C91,-235.49 91,-226.48 91,-217.91"/>
<polygon fill="none" stroke="midnightblue" points="87.5,-244.2 91,-254.2 94.5,-244.2 87.5,-244.2"/>
</g>
</g>
</svg>
