<?xml version="1.0" encoding="UTF-8" standalone="no"?>
<!DOCTYPE svg PUBLIC "-//W3C//DTD SVG 1.1//EN"
 "http://www.w3.org/Graphics/SVG/1.1/DTD/svg11.dtd">
<!-- Generated by graphviz version 2.43.0 (0)
 -->
<!-- Title: GAAPGAProgressInfo Pages: 1 -->
<svg width="356pt" height="573pt"
 viewBox="0.00 0.00 356.00 573.00" xmlns="http://www.w3.org/2000/svg" xmlns:xlink="http://www.w3.org/1999/xlink">
<g id="graph0" class="graph" transform="scale(1 1) rotate(0) translate(4 569)">
<title>GAAPGAProgressInfo</title>
<polygon fill="white" stroke="transparent" points="-4,4 -4,-569 352,-569 352,4 -4,4"/>
<!-- Node1 -->
<g id="node1" class="node">
<title>Node1</title>
<g id="a_node1"><a xlink:title=" ">
<polygon fill="#bfbfbf" stroke="black" points="50.5,-0.5 50.5,-200.5 169.5,-200.5 169.5,-0.5 50.5,-0.5"/>
<text text-anchor="middle" x="110" y="-188.5" font-family="Helvetica,sans-Serif" font-size="10.00">GAAPGAProgressInfo</text>
<polyline fill="none" stroke="black" points="50.5,-181.5 169.5,-181.5 "/>
<text text-anchor="start" x="58.5" y="-169.5" font-family="Helvetica,sans-Serif" font-size="10.00">+ k</text>
<text text-anchor="start" x="58.5" y="-158.5" font-family="Helvetica,sans-Serif" font-size="10.00">+ x</text>
<text text-anchor="start" x="58.5" y="-147.5" font-family="Helvetica,sans-Serif" font-size="10.00">+ p</text>
<text text-anchor="start" x="58.5" y="-136.5" font-family="Helvetica,sans-Serif" font-size="10.00">+ norm_sq_p</text>
<text text-anchor="start" x="58.5" y="-125.5" font-family="Helvetica,sans-Serif" font-size="10.00">+ x_hat</text>
<text text-anchor="start" x="58.5" y="-114.5" font-family="Helvetica,sans-Serif" font-size="10.00">+ ψ</text>
<text text-anchor="start" x="58.5" y="-103.5" font-family="Helvetica,sans-Serif" font-size="10.00">+ grad_ψ</text>
<text text-anchor="start" x="58.5" y="-92.5" font-family="Helvetica,sans-Serif" font-size="10.00">+ ψ_hat</text>
<text text-anchor="start" x="58.5" y="-81.5" font-family="Helvetica,sans-Serif" font-size="10.00">+ grad_ψ_hat</text>
<text text-anchor="start" x="58.5" y="-70.5" font-family="Helvetica,sans-Serif" font-size="10.00">+ L</text>
<text text-anchor="start" x="58.5" y="-59.5" font-family="Helvetica,sans-Serif" font-size="10.00">+ γ</text>
<text text-anchor="start" x="58.5" y="-48.5" font-family="Helvetica,sans-Serif" font-size="10.00">+ ε</text>
<text text-anchor="start" x="58.5" y="-37.5" font-family="Helvetica,sans-Serif" font-size="10.00">+ Σ</text>
<text text-anchor="start" x="58.5" y="-26.5" font-family="Helvetica,sans-Serif" font-size="10.00">+ y</text>
<polyline fill="none" stroke="black" points="50.5,-19.5 169.5,-19.5 "/>
<text text-anchor="middle" x="110" y="-7.5" font-family="Helvetica,sans-Serif" font-size="10.00"> </text>
</a>
</g>
</g>
<!-- Node2 -->
<g id="node2" class="node">
<title>Node2</title>
<g id="a_node2"><a xlink:href="structalpaqa_1_1Problem.html" target="_top" xlink:title="Problem description for minimization problems.">
<polygon fill="white" stroke="black" points="0,-248.5 0,-415.5 88,-415.5 88,-248.5 0,-248.5"/>
<text text-anchor="middle" x="44" y="-403.5" font-family="Helvetica,sans-Serif" font-size="10.00">Problem</text>
<polyline fill="none" stroke="black" points="0,-396.5 88,-396.5 "/>
<text text-anchor="start" x="8" y="-384.5" font-family="Helvetica,sans-Serif" font-size="10.00">+ n</text>
<text text-anchor="start" x="8" y="-373.5" font-family="Helvetica,sans-Serif" font-size="10.00">+ m</text>
<text text-anchor="start" x="8" y="-362.5" font-family="Helvetica,sans-Serif" font-size="10.00">+ f</text>
<text text-anchor="start" x="8" y="-351.5" font-family="Helvetica,sans-Serif" font-size="10.00">+ grad_f</text>
<text text-anchor="start" x="8" y="-340.5" font-family="Helvetica,sans-Serif" font-size="10.00">+ g</text>
<text text-anchor="start" x="8" y="-329.5" font-family="Helvetica,sans-Serif" font-size="10.00">+ grad_g_prod</text>
<text text-anchor="start" x="8" y="-318.5" font-family="Helvetica,sans-Serif" font-size="10.00">+ grad_gi</text>
<text text-anchor="start" x="8" y="-307.5" font-family="Helvetica,sans-Serif" font-size="10.00">+ hess_L_prod</text>
<text text-anchor="start" x="8" y="-296.5" font-family="Helvetica,sans-Serif" font-size="10.00">+ hess_L</text>
<polyline fill="none" stroke="black" points="0,-289.5 88,-289.5 "/>
<text text-anchor="start" x="8" y="-277.5" font-family="Helvetica,sans-Serif" font-size="10.00">+ Problem()</text>
<text text-anchor="start" x="8" y="-266.5" font-family="Helvetica,sans-Serif" font-size="10.00">+ Problem()</text>
<text text-anchor="start" x="8" y="-255.5" font-family="Helvetica,sans-Serif" font-size="10.00">+ Problem()</text>
</a>
</g>
</g>
<!-- Node2&#45;&gt;Node1 -->
<g id="edge1" class="edge">
<title>Node2&#45;&gt;Node1</title>
<path fill="none" stroke="#404040" d="M67.73,-248.47C71.12,-236.69 74.65,-224.41 78.17,-212.19"/>
<polygon fill="none" stroke="#404040" points="78.21,-212.05 76.02,-205.18 81.52,-200.52 83.71,-207.39 78.21,-212.05"/>
<text text-anchor="middle" x="102" y="-222" font-family="Helvetica,sans-Serif" font-size="10.00"> +problem</text>
</g>
<!-- Node3 -->
<g id="node3" class="node">
<title>Node3</title>
<g id="a_node3"><a xlink:href="namespacealpaqa.html#structalpaqa_1_1Box" target="_top" xlink:title=" ">
<polygon fill="white" stroke="black" points="1,-485.5 1,-553.5 87,-553.5 87,-485.5 1,-485.5"/>
<text text-anchor="middle" x="44" y="-541.5" font-family="Helvetica,sans-Serif" font-size="10.00">Box</text>
<polyline fill="none" stroke="black" points="1,-534.5 87,-534.5 "/>
<text text-anchor="start" x="9" y="-522.5" font-family="Helvetica,sans-Serif" font-size="10.00">+ upperbound</text>
<text text-anchor="start" x="9" y="-511.5" font-family="Helvetica,sans-Serif" font-size="10.00">+ lowerbound</text>
<polyline fill="none" stroke="black" points="1,-504.5 87,-504.5 "/>
<text text-anchor="middle" x="44" y="-492.5" font-family="Helvetica,sans-Serif" font-size="10.00"> </text>
</a>
</g>
</g>
<!-- Node3&#45;&gt;Node2 -->
<g id="edge2" class="edge">
<title>Node3&#45;&gt;Node2</title>
<path fill="none" stroke="#404040" d="M44,-485.34C44,-469.05 44,-448.5 44,-427.82"/>
<polygon fill="none" stroke="#404040" points="44,-427.66 40,-421.66 44,-415.66 48,-421.66 44,-427.66"/>
<text text-anchor="middle" x="53.5" y="-448" font-family="Helvetica,sans-Serif" font-size="10.00"> +C</text>
<text text-anchor="middle" x="53.5" y="-437" font-family="Helvetica,sans-Serif" font-size="10.00">+D</text>
</g>
<!-- Node4 -->
<g id="node4" class="node">
<title>Node4</title>
<g id="a_node4"><a xlink:href="namespacealpaqa.html#structalpaqa_1_1GAAPGAParams" target="_top" xlink:title=" ">
<polygon fill="white" stroke="black" points="106.5,-254 106.5,-410 247.5,-410 247.5,-254 106.5,-254"/>
<text text-anchor="middle" x="177" y="-398" font-family="Helvetica,sans-Serif" font-size="10.00">GAAPGAParams</text>
<polyline fill="none" stroke="black" points="106.5,-391 247.5,-391 "/>
<text text-anchor="start" x="114.5" y="-379" font-family="Helvetica,sans-Serif" font-size="10.00">+ limitedqr_mem</text>
<text text-anchor="start" x="114.5" y="-368" font-family="Helvetica,sans-Serif" font-size="10.00">+ max_iter</text>
<text text-anchor="start" x="114.5" y="-357" font-family="Helvetica,sans-Serif" font-size="10.00">+ L_min</text>
<text text-anchor="start" x="114.5" y="-346" font-family="Helvetica,sans-Serif" font-size="10.00">+ L_max</text>
<text text-anchor="start" x="114.5" y="-335" font-family="Helvetica,sans-Serif" font-size="10.00">+ stop_crit</text>
<text text-anchor="start" x="114.5" y="-324" font-family="Helvetica,sans-Serif" font-size="10.00">+ print_interval</text>
<text text-anchor="start" x="114.5" y="-313" font-family="Helvetica,sans-Serif" font-size="10.00">+ quadratic_upperbound</text>
<text text-anchor="start" x="114.5" y="-302" font-family="Helvetica,sans-Serif" font-size="10.00">_tolerance_factor</text>
<text text-anchor="start" x="114.5" y="-291" font-family="Helvetica,sans-Serif" font-size="10.00">+ max_no_progress</text>
<text text-anchor="start" x="114.5" y="-280" font-family="Helvetica,sans-Serif" font-size="10.00">+ full_flush_on_γ_change</text>
<polyline fill="none" stroke="black" points="106.5,-273 247.5,-273 "/>
<text text-anchor="middle" x="177" y="-261" font-family="Helvetica,sans-Serif" font-size="10.00"> </text>
</a>
</g>
</g>
<!-- Node4&#45;&gt;Node1 -->
<g id="edge3" class="edge">
<title>Node4&#45;&gt;Node1</title>
<path fill="none" stroke="#404040" d="M154.5,-253.94C150.61,-240.61 146.5,-226.52 142.41,-212.51"/>
<polygon fill="none" stroke="#404040" points="142.34,-212.29 136.82,-207.65 138.98,-200.77 144.5,-205.41 142.34,-212.29"/>
<text text-anchor="middle" x="172.5" y="-222" font-family="Helvetica,sans-Serif" font-size="10.00"> +params</text>
</g>
<!-- Node5 -->
<g id="node5" class="node">
<title>Node5</title>
<g id="a_node5"><a xlink:href="namespacealpaqa.html#structalpaqa_1_1LipschitzEstimateParams" target="_top" xlink:title=" ">
<polygon fill="white" stroke="black" points="106.5,-474.5 106.5,-564.5 245.5,-564.5 245.5,-474.5 106.5,-474.5"/>
<text text-anchor="middle" x="176" y="-552.5" font-family="Helvetica,sans-Serif" font-size="10.00">LipschitzEstimateParams</text>
<polyline fill="none" stroke="black" points="106.5,-545.5 245.5,-545.5 "/>
<text text-anchor="start" x="114.5" y="-533.5" font-family="Helvetica,sans-Serif" font-size="10.00">+ L₀</text>
<text text-anchor="start" x="114.5" y="-522.5" font-family="Helvetica,sans-Serif" font-size="10.00">+ ε</text>
<text text-anchor="start" x="114.5" y="-511.5" font-family="Helvetica,sans-Serif" font-size="10.00">+ δ</text>
<text text-anchor="start" x="114.5" y="-500.5" font-family="Helvetica,sans-Serif" font-size="10.00">+ Lγ_factor</text>
<polyline fill="none" stroke="black" points="106.5,-493.5 245.5,-493.5 "/>
<text text-anchor="middle" x="176" y="-481.5" font-family="Helvetica,sans-Serif" font-size="10.00"> </text>
</a>
</g>
</g>
<!-- Node5&#45;&gt;Node4 -->
<g id="edge4" class="edge">
<title>Node5&#45;&gt;Node4</title>
<path fill="none" stroke="#404040" d="M176.24,-474.07C176.32,-458.4 176.42,-440.19 176.52,-422.16"/>
<polygon fill="none" stroke="#404040" points="176.52,-422.05 172.55,-416.03 176.58,-410.05 180.55,-416.07 176.52,-422.05"/>
<text text-anchor="middle" x="204.5" y="-442.5" font-family="Helvetica,sans-Serif" font-size="10.00"> +Lipschitz</text>
</g>
<!-- Node6 -->
<g id="node6" class="node">
<title>Node6</title>
<g id="a_node6"><a xlink:title=" ">
<polygon fill="white" stroke="#bfbfbf" points="264,-491 264,-548 348,-548 348,-491 264,-491"/>
<text text-anchor="middle" x="306" y="-536" font-family="Helvetica,sans-Serif" font-size="10.00">microseconds</text>
<polyline fill="none" stroke="#bfbfbf" points="264,-529 348,-529 "/>
<text text-anchor="middle" x="306" y="-517" font-family="Helvetica,sans-Serif" font-size="10.00"> </text>
<polyline fill="none" stroke="#bfbfbf" points="264,-510 348,-510 "/>
<text text-anchor="middle" x="306" y="-498" font-family="Helvetica,sans-Serif" font-size="10.00"> </text>
</a>
</g>
</g>
<!-- Node6&#45;&gt;Node4 -->
<g id="edge5" class="edge">
<title>Node6&#45;&gt;Node4</title>
<path fill="none" stroke="#404040" d="M286.69,-490.73C273.59,-471.9 255.51,-445.9 237.8,-420.43"/>
<polygon fill="none" stroke="#404040" points="237.63,-420.18 230.92,-417.54 230.78,-410.33 237.49,-412.98 237.63,-420.18"/>
<text text-anchor="middle" x="291.5" y="-442.5" font-family="Helvetica,sans-Serif" font-size="10.00"> +max_time</text>
</g>
</g>
</svg>
