<?xml version="1.0" encoding="UTF-8" standalone="no"?>
<!DOCTYPE svg PUBLIC "-//W3C//DTD SVG 1.1//EN"
 "http://www.w3.org/Graphics/SVG/1.1/DTD/svg11.dtd">
<!-- Generated by graphviz version 2.43.0 (0)
 -->
<!-- Title: apply Pages: 1 -->
<svg width="613pt" height="192pt"
 viewBox="0.00 0.00 613.00 191.50" xmlns="http://www.w3.org/2000/svg" xmlns:xlink="http://www.w3.org/1999/xlink">
<g id="graph0" class="graph" transform="scale(1 1) rotate(0) translate(4 187.5)">
<title>apply</title>
<polygon fill="white" stroke="transparent" points="-4,4 -4,-187.5 609,-187.5 609,4 -4,4"/>
<!-- Node1 -->
<g id="node1" class="node">
<title>Node1</title>
<g id="a_node1"><a xlink:title=" ">
<polygon fill="#bfbfbf" stroke="black" points="0,-76.5 0,-95.5 44,-95.5 44,-76.5 0,-76.5"/>
<text text-anchor="middle" x="22" y="-83.5" font-family="Helvetica,sans-Serif" font-size="10.00">apply</text>
</a>
</g>
</g>
<!-- Node2 -->
<g id="node2" class="node">
<title>Node2</title>
<g id="a_node2"><a xlink:href="classalpaqa_1_1SpecializedLBFGS.html#a37dd0ce624f9914a61118d8f02fa1c7f" target="_top" xlink:title="Apply the inverse Hessian approximation to the given vector q.">
<polygon fill="white" stroke="black" points="80,-71 80,-101 223,-101 223,-71 80,-71"/>
<text text-anchor="start" x="88" y="-89" font-family="Helvetica,sans-Serif" font-size="10.00">alpaqa::SpecializedLBFGS</text>
<text text-anchor="middle" x="151.5" y="-78" font-family="Helvetica,sans-Serif" font-size="10.00">::apply</text>
</a>
</g>
</g>
<!-- Node1&#45;&gt;Node2 -->
<g id="edge1" class="edge">
<title>Node1&#45;&gt;Node2</title>
<path fill="none" stroke="midnightblue" d="M44.05,-86C51.43,-86 60.22,-86 69.53,-86"/>
<polygon fill="midnightblue" stroke="midnightblue" points="69.81,-89.5 79.81,-86 69.81,-82.5 69.81,-89.5"/>
</g>
<!-- Node3 -->
<g id="node3" class="node">
<title>Node3</title>
<g id="a_node3"><a xlink:href="classalpaqa_1_1SpecializedLBFGS.html#a5b5fd504f983f6b5f9beb1576ebf591a" target="_top" xlink:title="Get the number of previous vectors s, y, x and g stored in the buffer.">
<polygon fill="white" stroke="black" points="265,-153 265,-183 408,-183 408,-153 265,-153"/>
<text text-anchor="start" x="273" y="-171" font-family="Helvetica,sans-Serif" font-size="10.00">alpaqa::SpecializedLBFGS</text>
<text text-anchor="middle" x="336.5" y="-160" font-family="Helvetica,sans-Serif" font-size="10.00">::history</text>
</a>
</g>
</g>
<!-- Node2&#45;&gt;Node3 -->
<g id="edge2" class="edge">
<title>Node2&#45;&gt;Node3</title>
<path fill="none" stroke="midnightblue" d="M177.7,-101.12C198.9,-113.43 230.26,-130.73 259,-143 264.35,-145.29 269.98,-147.49 275.67,-149.58"/>
<polygon fill="midnightblue" stroke="midnightblue" points="274.64,-152.93 285.24,-152.97 276.99,-146.33 274.64,-152.93"/>
</g>
<!-- Node4 -->
<g id="node4" class="node">
<title>Node4</title>
<g id="a_node4"><a xlink:href="classalpaqa_1_1SpecializedLBFGS.html#a644d66009a70ccc909120ba9afa45ea5" target="_top" xlink:title=" ">
<polygon fill="white" stroke="black" points="259.5,-114.5 259.5,-133.5 413.5,-133.5 413.5,-114.5 259.5,-114.5"/>
<text text-anchor="middle" x="336.5" y="-121.5" font-family="Helvetica,sans-Serif" font-size="10.00">alpaqa::SpecializedLBFGS::s</text>
</a>
</g>
</g>
<!-- Node2&#45;&gt;Node4 -->
<g id="edge3" class="edge">
<title>Node2&#45;&gt;Node4</title>
<path fill="none" stroke="midnightblue" d="M223.25,-100.69C241.83,-104.55 261.62,-108.66 279.32,-112.33"/>
<polygon fill="midnightblue" stroke="midnightblue" points="278.98,-115.84 289.48,-114.44 280.4,-108.98 278.98,-115.84"/>
</g>
<!-- Node6 -->
<g id="node6" class="node">
<title>Node6</title>
<g id="a_node6"><a xlink:href="classalpaqa_1_1SpecializedLBFGS.html#ac18c0672e61d25800877a42a1def3215" target="_top" xlink:title=" ">
<polygon fill="white" stroke="black" points="259,-76.5 259,-95.5 414,-95.5 414,-76.5 259,-76.5"/>
<text text-anchor="middle" x="336.5" y="-83.5" font-family="Helvetica,sans-Serif" font-size="10.00">alpaqa::SpecializedLBFGS::y</text>
</a>
</g>
</g>
<!-- Node2&#45;&gt;Node6 -->
<g id="edge5" class="edge">
<title>Node2&#45;&gt;Node6</title>
<path fill="none" stroke="midnightblue" d="M223.25,-86C231.64,-86 240.27,-86 248.84,-86"/>
<polygon fill="midnightblue" stroke="midnightblue" points="248.86,-89.5 258.86,-86 248.86,-82.5 248.86,-89.5"/>
</g>
<!-- Node7 -->
<g id="node7" class="node">
<title>Node7</title>
<g id="a_node7"><a xlink:href="classalpaqa_1_1SpecializedLBFGS.html#a7866204934238efa4a186fc9d48a8a2e" target="_top" xlink:title=" ">
<polygon fill="white" stroke="black" points="259,-38.5 259,-57.5 414,-57.5 414,-38.5 259,-38.5"/>
<text text-anchor="middle" x="336.5" y="-45.5" font-family="Helvetica,sans-Serif" font-size="10.00">alpaqa::SpecializedLBFGS::α</text>
</a>
</g>
</g>
<!-- Node2&#45;&gt;Node7 -->
<g id="edge7" class="edge">
<title>Node2&#45;&gt;Node7</title>
<path fill="none" stroke="midnightblue" d="M223.25,-71.31C241.83,-67.45 261.62,-63.34 279.32,-59.67"/>
<polygon fill="midnightblue" stroke="midnightblue" points="280.4,-63.02 289.48,-57.56 278.98,-56.16 280.4,-63.02"/>
</g>
<!-- Node8 -->
<g id="node8" class="node">
<title>Node8</title>
<g id="a_node8"><a xlink:href="classalpaqa_1_1SpecializedLBFGS.html#aebf0127f7a3e56b2c46e5f189d517f14" target="_top" xlink:title=" ">
<polygon fill="white" stroke="black" points="259,-0.5 259,-19.5 414,-19.5 414,-0.5 259,-0.5"/>
<text text-anchor="middle" x="336.5" y="-7.5" font-family="Helvetica,sans-Serif" font-size="10.00">alpaqa::SpecializedLBFGS::ρ</text>
</a>
</g>
</g>
<!-- Node2&#45;&gt;Node8 -->
<g id="edge9" class="edge">
<title>Node2&#45;&gt;Node8</title>
<path fill="none" stroke="midnightblue" d="M176.64,-70.84C197.7,-58.16 229.45,-40.38 259,-29 265.44,-26.52 272.3,-24.28 279.18,-22.29"/>
<polygon fill="midnightblue" stroke="midnightblue" points="280.5,-25.56 289.22,-19.53 278.65,-18.8 280.5,-25.56"/>
</g>
<!-- Node5 -->
<g id="node5" class="node">
<title>Node5</title>
<g id="a_node5"><a xlink:href="classalpaqa_1_1SpecializedLBFGS.html#ac88f0961aa7ed7c7415550ab2cad49c8" target="_top" xlink:title="Get the size of the s, y, x and g vectors in the buffer.">
<polygon fill="white" stroke="black" points="450,-57.5 450,-76.5 605,-76.5 605,-57.5 450,-57.5"/>
<text text-anchor="middle" x="527.5" y="-64.5" font-family="Helvetica,sans-Serif" font-size="10.00">alpaqa::SpecializedLBFGS::n</text>
</a>
</g>
</g>
<!-- Node4&#45;&gt;Node5 -->
<g id="edge4" class="edge">
<title>Node4&#45;&gt;Node5</title>
<path fill="none" stroke="midnightblue" d="M378.56,-114.46C390.08,-111.61 402.57,-108.34 414,-105 439.91,-97.42 468.75,-87.65 490.74,-79.92"/>
<polygon fill="midnightblue" stroke="midnightblue" points="492.07,-83.16 500.33,-76.52 489.73,-76.56 492.07,-83.16"/>
</g>
<!-- Node6&#45;&gt;Node5 -->
<g id="edge6" class="edge">
<title>Node6&#45;&gt;Node5</title>
<path fill="none" stroke="midnightblue" d="M414.1,-78.3C422.56,-77.45 431.22,-76.58 439.79,-75.72"/>
<polygon fill="midnightblue" stroke="midnightblue" points="440.19,-79.19 449.79,-74.71 439.49,-72.23 440.19,-79.19"/>
</g>
<!-- Node7&#45;&gt;Node5 -->
<g id="edge8" class="edge">
<title>Node7&#45;&gt;Node5</title>
<path fill="none" stroke="midnightblue" d="M414.1,-55.7C422.56,-56.55 431.22,-57.42 439.79,-58.28"/>
<polygon fill="midnightblue" stroke="midnightblue" points="439.49,-61.77 449.79,-59.29 440.19,-54.81 439.49,-61.77"/>
</g>
<!-- Node8&#45;&gt;Node5 -->
<g id="edge10" class="edge">
<title>Node8&#45;&gt;Node5</title>
<path fill="none" stroke="midnightblue" d="M378.56,-19.54C390.08,-22.39 402.57,-25.66 414,-29 439.91,-36.58 468.75,-46.35 490.74,-54.08"/>
<polygon fill="midnightblue" stroke="midnightblue" points="489.73,-57.44 500.33,-57.48 492.07,-50.84 489.73,-57.44"/>
</g>
</g>
</svg>
