<?xml version="1.0" encoding="UTF-8" standalone="no"?>
<!DOCTYPE svg PUBLIC "-//W3C//DTD SVG 1.1//EN"
 "http://www.w3.org/Graphics/SVG/1.1/DTD/svg11.dtd">
<!-- Generated by graphviz version 2.43.0 (0)
 -->
<!-- Title: src/interop/casadi/include/alpaqa/casadi/CasADiProblem.hpp Pages: 1 -->
<svg width="937pt" height="302pt"
 viewBox="0.00 0.00 936.50 302.00" xmlns="http://www.w3.org/2000/svg" xmlns:xlink="http://www.w3.org/1999/xlink">
<g id="graph0" class="graph" transform="scale(1 1) rotate(0) translate(4 298)">
<title>src/interop/casadi/include/alpaqa/casadi/CasADiProblem.hpp</title>
<!-- Node1 -->
<g id="Node000001" class="node">
<title>Node1</title>
<g id="a_Node000001"><a xlink:title=" ">
<polygon fill="#999999" stroke="#666666" points="640,-294 515,-294 515,-253 640,-253 640,-294"/>
<text text-anchor="start" x="523" y="-282" font-family="Helvetica,sans-Serif" font-size="10.00">src/interop/casadi</text>
<text text-anchor="start" x="523" y="-271" font-family="Helvetica,sans-Serif" font-size="10.00">/include/alpaqa/casadi</text>
<text text-anchor="middle" x="577.5" y="-260" font-family="Helvetica,sans-Serif" font-size="10.00">/CasADiProblem.hpp</text>
</a>
</g>
</g>
<!-- Node2 -->
<g id="Node000002" class="node">
<title>Node2</title>
<g id="a_Node000002"><a xlink:href="casadi-loader-export_8hpp.html" target="_top" xlink:title=" ">
<polygon fill="white" stroke="#666666" points="182,-217 63,-217 63,-187 182,-187 182,-217"/>
<text text-anchor="start" x="71" y="-205" font-family="Helvetica,sans-Serif" font-size="10.00">alpaqa/casadi&#45;loader</text>
<text text-anchor="middle" x="122.5" y="-194" font-family="Helvetica,sans-Serif" font-size="10.00">&#45;export.hpp</text>
</a>
</g>
</g>
<!-- Node1&#45;&gt;Node2 -->
<g id="edge1_Node000001_Node000002" class="edge">
<title>Node1&#45;&gt;Node2</title>
<g id="a_edge1_Node000001_Node000002"><a xlink:title=" ">
<path fill="none" stroke="#63b8ff" d="M514.71,-262.91C430.17,-250 280.24,-227.09 192.26,-213.66"/>
<polygon fill="#63b8ff" stroke="#63b8ff" points="192.53,-210.16 182.11,-212.11 191.47,-217.08 192.53,-210.16"/>
</a>
</g>
</g>
<!-- Node4 -->
<g id="Node000004" class="node">
<title>Node4</title>
<g id="a_Node000004"><a xlink:href="config_8hpp.html" target="_top" xlink:title=" ">
<polygon fill="white" stroke="#666666" points="592,-85 457,-85 457,-66 592,-66 592,-85"/>
<text text-anchor="middle" x="524.5" y="-73" font-family="Helvetica,sans-Serif" font-size="10.00">alpaqa/config/config.hpp</text>
</a>
</g>
</g>
<!-- Node1&#45;&gt;Node4 -->
<g id="edge3_Node000001_Node000004" class="edge">
<title>Node1&#45;&gt;Node4</title>
<g id="a_edge3_Node000001_Node000004"><a xlink:title=" ">
<path fill="none" stroke="#63b8ff" d="M562.76,-252.97C555.8,-242.77 548.05,-229.77 543.5,-217 528.62,-175.2 525.27,-122.61 524.6,-95.15"/>
<polygon fill="#63b8ff" stroke="#63b8ff" points="528.1,-94.96 524.45,-85.02 521.1,-95.07 528.1,-94.96"/>
</a>
</g>
</g>
<!-- Node10 -->
<g id="Node000010" class="node">
<title>Node10</title>
<g id="a_Node000010"><a xlink:href="box-constr-problem_8hpp.html" target="_top" xlink:title=" ">
<polygon fill="white" stroke="#666666" points="432.5,-217 316.5,-217 316.5,-187 432.5,-187 432.5,-217"/>
<text text-anchor="start" x="324.5" y="-205" font-family="Helvetica,sans-Serif" font-size="10.00">alpaqa/problem/box</text>
<text text-anchor="middle" x="374.5" y="-194" font-family="Helvetica,sans-Serif" font-size="10.00">&#45;constr&#45;problem.hpp</text>
</a>
</g>
</g>
<!-- Node1&#45;&gt;Node10 -->
<g id="edge9_Node000001_Node000010" class="edge">
<title>Node1&#45;&gt;Node10</title>
<g id="a_edge9_Node000001_Node000010"><a xlink:title=" ">
<path fill="none" stroke="#63b8ff" d="M520.41,-252.96C490.39,-242.68 453.9,-230.18 424.92,-220.26"/>
<polygon fill="#63b8ff" stroke="#63b8ff" points="426,-216.93 415.4,-217 423.73,-223.55 426,-216.93"/>
</a>
</g>
</g>
<!-- Node21 -->
<g id="Node000021" class="node">
<title>Node21</title>
<g id="a_Node000021"><a xlink:href="sparsity_8hpp.html" target="_top" xlink:title=" ">
<polygon fill="white" stroke="#666666" points="708,-211.5 553,-211.5 553,-192.5 708,-192.5 708,-211.5"/>
<text text-anchor="middle" x="630.5" y="-199.5" font-family="Helvetica,sans-Serif" font-size="10.00">alpaqa/problem/sparsity.hpp</text>
</a>
</g>
</g>
<!-- Node1&#45;&gt;Node21 -->
<g id="edge24_Node000001_Node000021" class="edge">
<title>Node1&#45;&gt;Node21</title>
<g id="a_edge24_Node000001_Node000021"><a xlink:title=" ">
<path fill="none" stroke="#63b8ff" d="M592.55,-252.77C600.42,-242.45 609.96,-229.93 617.51,-220.04"/>
<polygon fill="#63b8ff" stroke="#63b8ff" points="620.49,-221.89 623.77,-211.82 614.93,-217.65 620.49,-221.89"/>
</a>
</g>
</g>
<!-- Node26 -->
<g id="Node000026" class="node">
<title>Node26</title>
<g id="a_Node000026"><a xlink:href="copyable__unique__ptr_8hpp.html" target="_top" xlink:title=" ">
<polygon fill="white" stroke="#666666" points="842.5,-217 726.5,-217 726.5,-187 842.5,-187 842.5,-217"/>
<text text-anchor="start" x="734.5" y="-205" font-family="Helvetica,sans-Serif" font-size="10.00">alpaqa/util/copyable</text>
<text text-anchor="middle" x="784.5" y="-194" font-family="Helvetica,sans-Serif" font-size="10.00">_unique_ptr.hpp</text>
</a>
</g>
</g>
<!-- Node1&#45;&gt;Node26 -->
<g id="edge30_Node000001_Node000026" class="edge">
<title>Node1&#45;&gt;Node26</title>
<g id="a_edge30_Node000001_Node000026"><a xlink:title=" ">
<path fill="none" stroke="#63b8ff" d="M635.71,-252.96C666.33,-242.68 703.54,-230.18 733.08,-220.26"/>
<polygon fill="#63b8ff" stroke="#63b8ff" points="734.42,-223.5 742.79,-217 732.2,-216.87 734.42,-223.5"/>
</a>
</g>
</g>
<!-- Node28 -->
<g id="Node000028" class="node">
<title>Node28</title>
<g id="a_Node000028"><a xlink:title=" ">
<polygon fill="#e0e0e0" stroke="#999999" points="928.5,-211.5 860.5,-211.5 860.5,-192.5 928.5,-192.5 928.5,-211.5"/>
<text text-anchor="middle" x="894.5" y="-199.5" font-family="Helvetica,sans-Serif" font-size="10.00">filesystem</text>
</a>
</g>
</g>
<!-- Node1&#45;&gt;Node28 -->
<g id="edge32_Node000001_Node000028" class="edge">
<title>Node1&#45;&gt;Node28</title>
<g id="a_edge32_Node000001_Node000028"><a xlink:title=" ">
<path fill="none" stroke="#63b8ff" d="M640.27,-261.91C696.11,-251.98 779.8,-235.87 851.5,-217 854.28,-216.27 857.14,-215.46 860,-214.61"/>
<polygon fill="#63b8ff" stroke="#63b8ff" points="861.11,-217.93 869.63,-211.63 859.04,-211.25 861.11,-217.93"/>
</a>
</g>
</g>
<!-- Node3 -->
<g id="Node000003" class="node">
<title>Node3</title>
<g id="a_Node000003"><a xlink:title=" ">
<polygon fill="#e0e0e0" stroke="#999999" points="119,-151 0,-151 0,-121 119,-121 119,-151"/>
<text text-anchor="start" x="8" y="-139" font-family="Helvetica,sans-Serif" font-size="10.00">alpaqa/casadi&#45;loader</text>
<text text-anchor="middle" x="59.5" y="-128" font-family="Helvetica,sans-Serif" font-size="10.00">&#45;export.h</text>
</a>
</g>
</g>
<!-- Node2&#45;&gt;Node3 -->
<g id="edge2_Node000002_Node000003" class="edge">
<title>Node2&#45;&gt;Node3</title>
<g id="a_edge2_Node000002_Node000003"><a xlink:title=" ">
<path fill="none" stroke="#63b8ff" d="M108.52,-186.8C100.28,-178.43 89.7,-167.68 80.48,-158.31"/>
<polygon fill="#63b8ff" stroke="#63b8ff" points="82.95,-155.84 73.44,-151.16 77.96,-160.75 82.95,-155.84"/>
</a>
</g>
</g>
<!-- Node5 -->
<g id="Node000005" class="node">
<title>Node5</title>
<g id="a_Node000005"><a xlink:href="quadmath-print_8hpp.html" target="_top" xlink:title=" ">
<polygon fill="white" stroke="#666666" points="769,-30 648,-30 648,0 769,0 769,-30"/>
<text text-anchor="start" x="656" y="-18" font-family="Helvetica,sans-Serif" font-size="10.00">alpaqa/util/quadmath</text>
<text text-anchor="middle" x="708.5" y="-7" font-family="Helvetica,sans-Serif" font-size="10.00">/quadmath&#45;print.hpp</text>
</a>
</g>
</g>
<!-- Node4&#45;&gt;Node5 -->
<g id="edge4_Node000004_Node000005" class="edge">
<title>Node4&#45;&gt;Node5</title>
<g id="a_edge4_Node000004_Node000005"><a xlink:title=" ">
<path fill="none" stroke="#63b8ff" d="M551.26,-65.99C578.2,-57.43 620.52,-43.97 654.48,-33.18"/>
<polygon fill="#63b8ff" stroke="#63b8ff" points="655.79,-36.43 664.26,-30.06 653.67,-29.76 655.79,-36.43"/>
</a>
</g>
</g>
<!-- Node6 -->
<g id="Node000006" class="node">
<title>Node6</title>
<g id="a_Node000006"><a xlink:href="quadmath_8hpp.html" target="_top" xlink:title=" ">
<polygon fill="white" stroke="#666666" points="456,-30 335,-30 335,0 456,0 456,-30"/>
<text text-anchor="start" x="343" y="-18" font-family="Helvetica,sans-Serif" font-size="10.00">alpaqa/util/quadmath</text>
<text text-anchor="middle" x="395.5" y="-7" font-family="Helvetica,sans-Serif" font-size="10.00">/quadmath.hpp</text>
</a>
</g>
</g>
<!-- Node4&#45;&gt;Node6 -->
<g id="edge5_Node000004_Node000006" class="edge">
<title>Node4&#45;&gt;Node6</title>
<g id="a_edge5_Node000004_Node000006"><a xlink:title=" ">
<path fill="none" stroke="#63b8ff" d="M505.74,-65.99C487.56,-57.75 459.4,-44.98 436.08,-34.4"/>
<polygon fill="#63b8ff" stroke="#63b8ff" points="437.32,-31.12 426.76,-30.18 434.43,-37.5 437.32,-31.12"/>
</a>
</g>
</g>
<!-- Node7 -->
<g id="Node000007" class="node">
<title>Node7</title>
<g id="a_Node000007"><a xlink:title=" ">
<polygon fill="#e0e0e0" stroke="#999999" points="831.5,-24.5 787.5,-24.5 787.5,-5.5 831.5,-5.5 831.5,-24.5"/>
<text text-anchor="middle" x="809.5" y="-12.5" font-family="Helvetica,sans-Serif" font-size="10.00">limits</text>
</a>
</g>
</g>
<!-- Node4&#45;&gt;Node7 -->
<g id="edge6_Node000004_Node000007" class="edge">
<title>Node4&#45;&gt;Node7</title>
<g id="a_edge6_Node000004_Node000007"><a xlink:title=" ">
<path fill="none" stroke="#63b8ff" d="M592.1,-67.06C643.65,-60.32 716.02,-48.56 777.5,-30 779.14,-29.51 780.8,-28.95 782.47,-28.35"/>
<polygon fill="#63b8ff" stroke="#63b8ff" points="783.85,-31.57 791.84,-24.62 781.26,-25.07 783.85,-31.57"/>
</a>
</g>
</g>
<!-- Node8 -->
<g id="Node000008" class="node">
<title>Node8</title>
<g id="a_Node000008"><a xlink:title=" ">
<polygon fill="#e0e0e0" stroke="#999999" points="543,-24.5 474,-24.5 474,-5.5 543,-5.5 543,-24.5"/>
<text text-anchor="middle" x="508.5" y="-12.5" font-family="Helvetica,sans-Serif" font-size="10.00">type_traits</text>
</a>
</g>
</g>
<!-- Node4&#45;&gt;Node8 -->
<g id="edge7_Node000004_Node000008" class="edge">
<title>Node4&#45;&gt;Node8</title>
<g id="a_edge7_Node000004_Node000008"><a xlink:title=" ">
<path fill="none" stroke="#63b8ff" d="M522.14,-65.87C519.89,-57.66 516.44,-45.04 513.57,-34.55"/>
<polygon fill="#63b8ff" stroke="#63b8ff" points="516.88,-33.39 510.87,-24.67 510.13,-35.24 516.88,-33.39"/>
</a>
</g>
</g>
<!-- Node9 -->
<g id="Node000009" class="node">
<title>Node9</title>
<g id="a_Node000009"><a xlink:title=" ">
<polygon fill="#e0e0e0" stroke="#999999" points="630,-24.5 561,-24.5 561,-5.5 630,-5.5 630,-24.5"/>
<text text-anchor="middle" x="595.5" y="-12.5" font-family="Helvetica,sans-Serif" font-size="10.00">Eigen/Core</text>
</a>
</g>
</g>
<!-- Node4&#45;&gt;Node9 -->
<g id="edge8_Node000004_Node000009" class="edge">
<title>Node4&#45;&gt;Node9</title>
<g id="a_edge8_Node000004_Node000009"><a xlink:title=" ">
<path fill="none" stroke="#63b8ff" d="M534.98,-65.87C545.99,-56.8 563.54,-42.34 576.91,-31.32"/>
<polygon fill="#63b8ff" stroke="#63b8ff" points="579.49,-33.73 584.98,-24.67 575.04,-28.33 579.49,-33.73"/>
</a>
</g>
</g>
<!-- Node11 -->
<g id="Node000011" class="node">
<title>Node11</title>
<g id="a_Node000011"><a xlink:href="box_8hpp.html" target="_top" xlink:title=" ">
<polygon fill="white" stroke="#666666" points="496,-145.5 361,-145.5 361,-126.5 496,-126.5 496,-145.5"/>
<text text-anchor="middle" x="428.5" y="-133.5" font-family="Helvetica,sans-Serif" font-size="10.00">alpaqa/problem/box.hpp</text>
</a>
</g>
</g>
<!-- Node10&#45;&gt;Node11 -->
<g id="edge10_Node000010_Node000011" class="edge">
<title>Node10&#45;&gt;Node11</title>
<g id="a_edge10_Node000010_Node000011"><a xlink:title=" ">
<path fill="none" stroke="#63b8ff" d="M386.48,-186.8C394.74,-177.01 405.74,-163.98 414.41,-153.7"/>
<polygon fill="#63b8ff" stroke="#63b8ff" points="417.26,-155.74 421.04,-145.84 411.91,-151.23 417.26,-155.74"/>
</a>
</g>
</g>
<!-- Node16 -->
<g id="Node000016" class="node">
<title>Node16</title>
<g id="a_Node000016"><a xlink:href="check-dim_8hpp.html" target="_top" xlink:title=" ">
<polygon fill="white" stroke="#666666" points="280,-145.5 137,-145.5 137,-126.5 280,-126.5 280,-145.5"/>
<text text-anchor="middle" x="208.5" y="-133.5" font-family="Helvetica,sans-Serif" font-size="10.00">alpaqa/util/check&#45;dim.hpp</text>
</a>
</g>
</g>
<!-- Node10&#45;&gt;Node16 -->
<g id="edge18_Node000010_Node000016" class="edge">
<title>Node10&#45;&gt;Node16</title>
<g id="a_edge18_Node000010_Node000016"><a xlink:title=" ">
<path fill="none" stroke="#63b8ff" d="M338.07,-186.95C308.83,-175.68 268.19,-160.01 240.26,-149.25"/>
<polygon fill="#63b8ff" stroke="#63b8ff" points="241.18,-145.85 230.59,-145.52 238.66,-152.38 241.18,-145.85"/>
</a>
</g>
</g>
<!-- Node20 -->
<g id="Node000020" class="node">
<title>Node20</title>
<g id="a_Node000020"><a xlink:title=" ">
<polygon fill="#e0e0e0" stroke="#999999" points="343,-145.5 298,-145.5 298,-126.5 343,-126.5 343,-145.5"/>
<text text-anchor="middle" x="320.5" y="-133.5" font-family="Helvetica,sans-Serif" font-size="10.00">utility</text>
</a>
</g>
</g>
<!-- Node10&#45;&gt;Node20 -->
<g id="edge23_Node000010_Node000020" class="edge">
<title>Node10&#45;&gt;Node20</title>
<g id="a_edge23_Node000010_Node000020"><a xlink:title=" ">
<path fill="none" stroke="#63b8ff" d="M362.52,-186.8C354.26,-177.01 343.26,-163.98 334.59,-153.7"/>
<polygon fill="#63b8ff" stroke="#63b8ff" points="337.09,-151.23 327.96,-145.84 331.74,-155.74 337.09,-151.23"/>
</a>
</g>
</g>
<!-- Node11&#45;&gt;Node4 -->
<g id="edge11_Node000011_Node000004" class="edge">
<title>Node11&#45;&gt;Node4</title>
<g id="a_edge11_Node000011_Node000004"><a xlink:title=" ">
<path fill="none" stroke="#63b8ff" d="M442.67,-126.37C458.19,-116.91 483.33,-101.59 501.65,-90.42"/>
<polygon fill="#63b8ff" stroke="#63b8ff" points="503.56,-93.36 510.28,-85.17 499.92,-87.38 503.56,-93.36"/>
</a>
</g>
</g>
<!-- Node12 -->
<g id="Node000012" class="node">
<title>Node12</title>
<g id="a_Node000012"><a xlink:href="float_8hpp.html" target="_top" xlink:title=" ">
<polygon fill="white" stroke="#666666" points="437.5,-85 323.5,-85 323.5,-66 437.5,-66 437.5,-85"/>
<text text-anchor="middle" x="380.5" y="-73" font-family="Helvetica,sans-Serif" font-size="10.00">alpaqa/util/float.hpp</text>
</a>
</g>
</g>
<!-- Node11&#45;&gt;Node12 -->
<g id="edge12_Node000011_Node000012" class="edge">
<title>Node11&#45;&gt;Node12</title>
<g id="a_edge12_Node000011_Node000012"><a xlink:title=" ">
<path fill="none" stroke="#63b8ff" d="M421.42,-126.37C414.26,-117.64 403.01,-103.93 394.11,-93.09"/>
<polygon fill="#63b8ff" stroke="#63b8ff" points="396.66,-90.68 387.61,-85.17 391.25,-95.12 396.66,-90.68"/>
</a>
</g>
</g>
<!-- Node12&#45;&gt;Node6 -->
<g id="edge13_Node000012_Node000006" class="edge">
<title>Node12&#45;&gt;Node6</title>
<g id="a_edge13_Node000012_Node000006"><a xlink:title=" ">
<path fill="none" stroke="#63b8ff" d="M382.71,-65.87C384.47,-59.03 387,-49.14 389.35,-39.97"/>
<polygon fill="#63b8ff" stroke="#63b8ff" points="392.79,-40.67 391.88,-30.11 386.01,-38.93 392.79,-40.67"/>
</a>
</g>
</g>
<!-- Node12&#45;&gt;Node8 -->
<g id="edge17_Node000012_Node000008" class="edge">
<title>Node12&#45;&gt;Node8</title>
<g id="a_edge17_Node000012_Node000008"><a xlink:title=" ">
<path fill="none" stroke="#63b8ff" d="M399.11,-65.99C420.54,-56.2 455.94,-40.02 480.65,-28.73"/>
<polygon fill="#63b8ff" stroke="#63b8ff" points="482.22,-31.86 489.87,-24.52 479.32,-25.49 482.22,-31.86"/>
</a>
</g>
</g>
<!-- Node13 -->
<g id="Node000013" class="node">
<title>Node13</title>
<g id="a_Node000013"><a xlink:title=" ">
<polygon fill="#e0e0e0" stroke="#999999" points="240,-24.5 193,-24.5 193,-5.5 240,-5.5 240,-24.5"/>
<text text-anchor="middle" x="216.5" y="-12.5" font-family="Helvetica,sans-Serif" font-size="10.00">cmath</text>
</a>
</g>
</g>
<!-- Node12&#45;&gt;Node13 -->
<g id="edge14_Node000012_Node000013" class="edge">
<title>Node12&#45;&gt;Node13</title>
<g id="a_edge14_Node000012_Node000013"><a xlink:title=" ">
<path fill="none" stroke="#63b8ff" d="M352.95,-65.98C326.07,-57.5 284.14,-43.77 248.5,-30 247.29,-29.53 246.06,-29.05 244.82,-28.55"/>
<polygon fill="#63b8ff" stroke="#63b8ff" points="245.91,-25.21 235.34,-24.57 243.2,-31.66 245.91,-25.21"/>
</a>
</g>
</g>
<!-- Node14 -->
<g id="Node000014" class="node">
<title>Node14</title>
<g id="a_Node000014"><a xlink:title=" ">
<polygon fill="#e0e0e0" stroke="#999999" points="317,-24.5 258,-24.5 258,-5.5 317,-5.5 317,-24.5"/>
<text text-anchor="middle" x="287.5" y="-12.5" font-family="Helvetica,sans-Serif" font-size="10.00">complex</text>
</a>
</g>
</g>
<!-- Node12&#45;&gt;Node14 -->
<g id="edge15_Node000012_Node000014" class="edge">
<title>Node12&#45;&gt;Node14</title>
<g id="a_edge15_Node000012_Node000014"><a xlink:title=" ">
<path fill="none" stroke="#63b8ff" d="M366.78,-65.87C351.8,-56.45 327.61,-41.23 309.88,-30.08"/>
<polygon fill="#63b8ff" stroke="#63b8ff" points="311.61,-27.03 301.28,-24.67 307.88,-32.95 311.61,-27.03"/>
</a>
</g>
</g>
<!-- Node15 -->
<g id="Node000015" class="node">
<title>Node15</title>
<g id="a_Node000015"><a xlink:title=" ">
<polygon fill="#e0e0e0" stroke="#999999" points="174.5,-24.5 114.5,-24.5 114.5,-5.5 174.5,-5.5 174.5,-24.5"/>
<text text-anchor="middle" x="144.5" y="-12.5" font-family="Helvetica,sans-Serif" font-size="10.00">concepts</text>
</a>
</g>
</g>
<!-- Node12&#45;&gt;Node15 -->
<g id="edge16_Node000012_Node000015" class="edge">
<title>Node12&#45;&gt;Node15</title>
<g id="a_edge16_Node000012_Node000015"><a xlink:title=" ">
<path fill="none" stroke="#63b8ff" d="M335.5,-65.97C295.31,-57.97 235.01,-45 183.5,-30 181.23,-29.34 178.89,-28.61 176.55,-27.86"/>
<polygon fill="#63b8ff" stroke="#63b8ff" points="177.63,-24.52 167.03,-24.62 175.37,-31.15 177.63,-24.52"/>
</a>
</g>
</g>
<!-- Node16&#45;&gt;Node4 -->
<g id="edge19_Node000016_Node000004" class="edge">
<title>Node16&#45;&gt;Node4</title>
<g id="a_edge19_Node000016_Node000004"><a xlink:title=" ">
<path fill="none" stroke="#63b8ff" d="M254.45,-126.49C311.2,-115.99 407.69,-98.12 468.66,-86.84"/>
<polygon fill="#63b8ff" stroke="#63b8ff" points="469.3,-90.28 478.5,-85.02 468.03,-83.4 469.3,-90.28"/>
</a>
</g>
</g>
<!-- Node17 -->
<g id="Node000017" class="node">
<title>Node17</title>
<g id="a_Node000017"><a xlink:title=" ">
<polygon fill="#e0e0e0" stroke="#999999" points="304.5,-85 248.5,-85 248.5,-66 304.5,-66 304.5,-85"/>
<text text-anchor="middle" x="276.5" y="-73" font-family="Helvetica,sans-Serif" font-size="10.00">optional</text>
</a>
</g>
</g>
<!-- Node16&#45;&gt;Node17 -->
<g id="edge20_Node000016_Node000017" class="edge">
<title>Node16&#45;&gt;Node17</title>
<g id="a_edge20_Node000016_Node000017"><a xlink:title=" ">
<path fill="none" stroke="#63b8ff" d="M218.53,-126.37C229.08,-117.3 245.89,-102.84 258.69,-91.82"/>
<polygon fill="#63b8ff" stroke="#63b8ff" points="261.13,-94.34 266.43,-85.17 256.56,-89.04 261.13,-94.34"/>
</a>
</g>
</g>
<!-- Node18 -->
<g id="Node000018" class="node">
<title>Node18</title>
<g id="a_Node000018"><a xlink:title=" ">
<polygon fill="#e0e0e0" stroke="#999999" points="168,-85 103,-85 103,-66 168,-66 168,-85"/>
<text text-anchor="middle" x="135.5" y="-73" font-family="Helvetica,sans-Serif" font-size="10.00">stdexcept</text>
</a>
</g>
</g>
<!-- Node16&#45;&gt;Node18 -->
<g id="edge21_Node000016_Node000018" class="edge">
<title>Node16&#45;&gt;Node18</title>
<g id="a_edge21_Node000016_Node000018"><a xlink:title=" ">
<path fill="none" stroke="#63b8ff" d="M197.73,-126.37C186.3,-117.21 168.02,-102.56 154.22,-91.51"/>
<polygon fill="#63b8ff" stroke="#63b8ff" points="156.31,-88.69 146.32,-85.17 151.93,-94.15 156.31,-88.69"/>
</a>
</g>
</g>
<!-- Node19 -->
<g id="Node000019" class="node">
<title>Node19</title>
<g id="a_Node000019"><a xlink:title=" ">
<polygon fill="#e0e0e0" stroke="#999999" points="230.5,-85 186.5,-85 186.5,-66 230.5,-66 230.5,-85"/>
<text text-anchor="middle" x="208.5" y="-73" font-family="Helvetica,sans-Serif" font-size="10.00">string</text>
</a>
</g>
</g>
<!-- Node16&#45;&gt;Node19 -->
<g id="edge22_Node000016_Node000019" class="edge">
<title>Node16&#45;&gt;Node19</title>
<g id="a_edge22_Node000016_Node000019"><a xlink:title=" ">
<path fill="none" stroke="#63b8ff" d="M208.5,-126.37C208.5,-118.25 208.5,-105.81 208.5,-95.39"/>
<polygon fill="#63b8ff" stroke="#63b8ff" points="212,-95.17 208.5,-85.17 205,-95.17 212,-95.17"/>
</a>
</g>
</g>
<!-- Node21&#45;&gt;Node4 -->
<g id="edge25_Node000021_Node000004" class="edge">
<title>Node21&#45;&gt;Node4</title>
<g id="a_edge25_Node000021_Node000004"><a xlink:title=" ">
<path fill="none" stroke="#63b8ff" d="M621.49,-192.46C611.4,-182.74 594.72,-166.25 581.5,-151 565.07,-132.05 547.78,-108.93 536.61,-93.52"/>
<polygon fill="#63b8ff" stroke="#63b8ff" points="539.18,-91.11 530.5,-85.03 533.5,-95.19 539.18,-91.11"/>
</a>
</g>
</g>
<!-- Node22 -->
<g id="Node000022" class="node">
<title>Node22</title>
<g id="a_Node000022"><a xlink:href="export_8hpp.html" target="_top" xlink:title=" ">
<polygon fill="white" stroke="#666666" points="835,-145.5 730,-145.5 730,-126.5 835,-126.5 835,-145.5"/>
<text text-anchor="middle" x="782.5" y="-133.5" font-family="Helvetica,sans-Serif" font-size="10.00">alpaqa/export.hpp</text>
</a>
</g>
</g>
<!-- Node21&#45;&gt;Node22 -->
<g id="edge26_Node000021_Node000022" class="edge">
<title>Node21&#45;&gt;Node22</title>
<g id="a_edge26_Node000021_Node000022"><a xlink:title=" ">
<path fill="none" stroke="#63b8ff" d="M651,-192.37C677.06,-181.39 722.28,-162.36 752.29,-149.72"/>
<polygon fill="#63b8ff" stroke="#63b8ff" points="753.98,-152.81 761.84,-145.7 751.27,-146.35 753.98,-152.81"/>
</a>
</g>
</g>
<!-- Node24 -->
<g id="Node000024" class="node">
<title>Node24</title>
<g id="a_Node000024"><a xlink:title=" ">
<polygon fill="#e0e0e0" stroke="#999999" points="642.5,-145.5 590.5,-145.5 590.5,-126.5 642.5,-126.5 642.5,-145.5"/>
<text text-anchor="middle" x="616.5" y="-133.5" font-family="Helvetica,sans-Serif" font-size="10.00">cassert</text>
</a>
</g>
</g>
<!-- Node21&#45;&gt;Node24 -->
<g id="edge28_Node000021_Node000024" class="edge">
<title>Node21&#45;&gt;Node24</title>
<g id="a_edge28_Node000021_Node000024"><a xlink:title=" ">
<path fill="none" stroke="#63b8ff" d="M628.61,-192.37C626.58,-183.07 623.28,-167.98 620.63,-155.9"/>
<polygon fill="#63b8ff" stroke="#63b8ff" points="624,-154.93 618.45,-145.91 617.17,-156.42 624,-154.93"/>
</a>
</g>
</g>
<!-- Node25 -->
<g id="Node000025" class="node">
<title>Node25</title>
<g id="a_Node000025"><a xlink:title=" ">
<polygon fill="#e0e0e0" stroke="#999999" points="712,-145.5 661,-145.5 661,-126.5 712,-126.5 712,-145.5"/>
<text text-anchor="middle" x="686.5" y="-133.5" font-family="Helvetica,sans-Serif" font-size="10.00">variant</text>
</a>
</g>
</g>
<!-- Node21&#45;&gt;Node25 -->
<g id="edge29_Node000021_Node000025" class="edge">
<title>Node21&#45;&gt;Node25</title>
<g id="a_edge29_Node000021_Node000025"><a xlink:title=" ">
<path fill="none" stroke="#63b8ff" d="M638.05,-192.37C646.69,-182.5 661.03,-166.11 671.87,-153.72"/>
<polygon fill="#63b8ff" stroke="#63b8ff" points="674.76,-155.74 678.71,-145.91 669.49,-151.13 674.76,-155.74"/>
</a>
</g>
</g>
<!-- Node23 -->
<g id="Node000023" class="node">
<title>Node23</title>
<g id="a_Node000023"><a xlink:title=" ">
<polygon fill="#e0e0e0" stroke="#999999" points="829,-85 736,-85 736,-66 829,-66 829,-85"/>
<text text-anchor="middle" x="782.5" y="-73" font-family="Helvetica,sans-Serif" font-size="10.00">alpaqa/export.h</text>
</a>
</g>
</g>
<!-- Node22&#45;&gt;Node23 -->
<g id="edge27_Node000022_Node000023" class="edge">
<title>Node22&#45;&gt;Node23</title>
<g id="a_edge27_Node000022_Node000023"><a xlink:title=" ">
<path fill="none" stroke="#63b8ff" d="M782.5,-126.37C782.5,-118.25 782.5,-105.81 782.5,-95.39"/>
<polygon fill="#63b8ff" stroke="#63b8ff" points="786,-95.17 782.5,-85.17 779,-95.17 786,-95.17"/>
</a>
</g>
</g>
<!-- Node27 -->
<g id="Node000027" class="node">
<title>Node27</title>
<g id="a_Node000027"><a xlink:title=" ">
<polygon fill="#e0e0e0" stroke="#999999" points="911.5,-145.5 853.5,-145.5 853.5,-126.5 911.5,-126.5 911.5,-145.5"/>
<text text-anchor="middle" x="882.5" y="-133.5" font-family="Helvetica,sans-Serif" font-size="10.00">memory</text>
</a>
</g>
</g>
<!-- Node26&#45;&gt;Node27 -->
<g id="edge31_Node000026_Node000027" class="edge">
<title>Node26&#45;&gt;Node27</title>
<g id="a_edge31_Node000026_Node000027"><a xlink:title=" ">
<path fill="none" stroke="#63b8ff" d="M806.25,-186.8C822.37,-176.27 844.26,-161.97 860.45,-151.4"/>
<polygon fill="#63b8ff" stroke="#63b8ff" points="862.78,-154.06 869.24,-145.66 858.96,-148.2 862.78,-154.06"/>
</a>
</g>
</g>
</g>
</svg>
