<?xml version="1.0" encoding="UTF-8" standalone="no"?>
<!DOCTYPE svg PUBLIC "-//W3C//DTD SVG 1.1//EN"
 "http://www.w3.org/Graphics/SVG/1.1/DTD/svg11.dtd">
<!-- Generated by graphviz version 2.43.0 (0)
 -->
<!-- Title: ALMSolver&lt; InnerSolverT &gt; Pages: 1 -->
<svg width="155pt" height="651pt"
 viewBox="0.00 0.00 155.00 651.00" xmlns="http://www.w3.org/2000/svg" xmlns:xlink="http://www.w3.org/1999/xlink">
<g id="graph0" class="graph" transform="scale(1 1) rotate(0) translate(4 647)">
<title>ALMSolver&lt; InnerSolverT &gt;</title>
<!-- Node1 -->
<g id="Node000001" class="node">
<title>Node1</title>
<g id="a_Node000001"><a xlink:title="Augmented Lagrangian Method solver.">
<polygon fill="#999999" stroke="transparent" points="146.5,-154 0.5,-154 0.5,0 146.5,0 146.5,-154"/>
<text text-anchor="start" x="5.5" y="-142" font-family="Helvetica,sans-Serif" font-size="10.00">ALMSolver&lt; InnerSolverT &gt;</text>
<text text-anchor="start" x="19" y="-127" font-family="Helvetica,sans-Serif" font-size="10.00">+</text>
<text text-anchor="start" x="46.5" y="-127" font-family="Helvetica,sans-Serif" font-size="10.00">inner_solver</text>
<text text-anchor="start" x="19" y="-112" font-family="Helvetica,sans-Serif" font-size="10.00">+</text>
<text text-anchor="start" x="46.5" y="-112" font-family="Helvetica,sans-Serif" font-size="10.00">os</text>
<text text-anchor="start" x="19" y="-97" font-family="Helvetica,sans-Serif" font-size="10.00">+</text>
<text text-anchor="start" x="46.5" y="-97" font-family="Helvetica,sans-Serif" font-size="10.00">ALMSolver()</text>
<text text-anchor="start" x="19" y="-82" font-family="Helvetica,sans-Serif" font-size="10.00">+</text>
<text text-anchor="start" x="46.5" y="-82" font-family="Helvetica,sans-Serif" font-size="10.00">ALMSolver()</text>
<text text-anchor="start" x="19" y="-67" font-family="Helvetica,sans-Serif" font-size="10.00">+</text>
<text text-anchor="start" x="46.5" y="-67" font-family="Helvetica,sans-Serif" font-size="10.00">operator()()</text>
<text text-anchor="start" x="19" y="-52" font-family="Helvetica,sans-Serif" font-size="10.00">+</text>
<text text-anchor="start" x="46.5" y="-52" font-family="Helvetica,sans-Serif" font-size="10.00">operator()()</text>
<text text-anchor="start" x="19" y="-37" font-family="Helvetica,sans-Serif" font-size="10.00">+</text>
<text text-anchor="start" x="46.5" y="-37" font-family="Helvetica,sans-Serif" font-size="10.00">get_name()</text>
<text text-anchor="start" x="19" y="-22" font-family="Helvetica,sans-Serif" font-size="10.00">+</text>
<text text-anchor="start" x="46.5" y="-22" font-family="Helvetica,sans-Serif" font-size="10.00">stop()</text>
<text text-anchor="start" x="19" y="-7" font-family="Helvetica,sans-Serif" font-size="10.00">+</text>
<text text-anchor="start" x="46.5" y="-7" font-family="Helvetica,sans-Serif" font-size="10.00">get_params()</text>
<polygon fill="#666666" stroke="#666666" points="0.5,-137 0.5,-137 146.5,-137 146.5,-137 0.5,-137"/>
<polygon fill="#666666" stroke="#666666" points="0.5,-107 0.5,-107 44.5,-107 44.5,-107 0.5,-107"/>
<polygon fill="#666666" stroke="#666666" points="44.5,-107 44.5,-107 146.5,-107 146.5,-107 44.5,-107"/>
<polygon fill="none" stroke="#666666" points="0.5,0 0.5,-154 146.5,-154 146.5,0 0.5,0"/>
</a>
</g>
</g>
<!-- Node2 -->
<g id="Node000002" class="node">
<title>Node2</title>
<g id="a_Node000002"><a xlink:href="namespacealpaqa.html#namespacealpaqa" target="_top" xlink:title=" ">
<polygon fill="white" stroke="transparent" points="147,-643 0,-643 0,-201 147,-201 147,-643"/>
<text text-anchor="start" x="15" y="-631" font-family="Helvetica,sans-Serif" font-size="10.00">ALMParams&lt; config_t &gt;</text>
<text text-anchor="start" x="4.5" y="-616" font-family="Helvetica,sans-Serif" font-size="10.00">+</text>
<text text-anchor="start" x="17.5" y="-616" font-family="Helvetica,sans-Serif" font-size="10.00">tolerance</text>
<text text-anchor="start" x="4.5" y="-601" font-family="Helvetica,sans-Serif" font-size="10.00">+</text>
<text text-anchor="start" x="17.5" y="-601" font-family="Helvetica,sans-Serif" font-size="10.00">dual_tolerance</text>
<text text-anchor="start" x="4.5" y="-586" font-family="Helvetica,sans-Serif" font-size="10.00">+</text>
<text text-anchor="start" x="17.5" y="-586" font-family="Helvetica,sans-Serif" font-size="10.00">penalty_update_factor</text>
<text text-anchor="start" x="4.5" y="-571" font-family="Helvetica,sans-Serif" font-size="10.00">+</text>
<text text-anchor="start" x="17.5" y="-571" font-family="Helvetica,sans-Serif" font-size="10.00">penalty_update_factor</text>
<text text-anchor="start" x="17.5" y="-560" font-family="Helvetica,sans-Serif" font-size="10.00">_lower</text>
<text text-anchor="start" x="4.5" y="-545" font-family="Helvetica,sans-Serif" font-size="10.00">+</text>
<text text-anchor="start" x="17.5" y="-545" font-family="Helvetica,sans-Serif" font-size="10.00">min_penalty_update</text>
<text text-anchor="start" x="17.5" y="-534" font-family="Helvetica,sans-Serif" font-size="10.00">_factor</text>
<text text-anchor="start" x="4.5" y="-519" font-family="Helvetica,sans-Serif" font-size="10.00">+</text>
<text text-anchor="start" x="17.5" y="-519" font-family="Helvetica,sans-Serif" font-size="10.00">initial_penalty</text>
<text text-anchor="start" x="4.5" y="-504" font-family="Helvetica,sans-Serif" font-size="10.00">+</text>
<text text-anchor="start" x="17.5" y="-504" font-family="Helvetica,sans-Serif" font-size="10.00">initial_penalty_factor</text>
<text text-anchor="start" x="4.5" y="-489" font-family="Helvetica,sans-Serif" font-size="10.00">+</text>
<text text-anchor="start" x="17.5" y="-489" font-family="Helvetica,sans-Serif" font-size="10.00">initial_penalty_lower</text>
<text text-anchor="start" x="4.5" y="-474" font-family="Helvetica,sans-Serif" font-size="10.00">+</text>
<text text-anchor="start" x="17.5" y="-474" font-family="Helvetica,sans-Serif" font-size="10.00">initial_tolerance</text>
<text text-anchor="start" x="4.5" y="-459" font-family="Helvetica,sans-Serif" font-size="10.00">+</text>
<text text-anchor="start" x="17.5" y="-459" font-family="Helvetica,sans-Serif" font-size="10.00">initial_tolerance_increase</text>
<text text-anchor="start" x="4.5" y="-444" font-family="Helvetica,sans-Serif" font-size="10.00">+</text>
<text text-anchor="start" x="17.5" y="-444" font-family="Helvetica,sans-Serif" font-size="10.00">tolerance_update_factor</text>
<text text-anchor="start" x="4.5" y="-429" font-family="Helvetica,sans-Serif" font-size="10.00">+</text>
<text text-anchor="start" x="17.5" y="-429" font-family="Helvetica,sans-Serif" font-size="10.00">ρ_increase</text>
<text text-anchor="start" x="4.5" y="-414" font-family="Helvetica,sans-Serif" font-size="10.00">+</text>
<text text-anchor="start" x="17.5" y="-414" font-family="Helvetica,sans-Serif" font-size="10.00">ρ_max</text>
<text text-anchor="start" x="4.5" y="-399" font-family="Helvetica,sans-Serif" font-size="10.00">+</text>
<text text-anchor="start" x="17.5" y="-399" font-family="Helvetica,sans-Serif" font-size="10.00">rel_penalty_increase</text>
<text text-anchor="start" x="17.5" y="-388" font-family="Helvetica,sans-Serif" font-size="10.00">_threshold</text>
<text text-anchor="start" x="4.5" y="-373" font-family="Helvetica,sans-Serif" font-size="10.00">+</text>
<text text-anchor="start" x="17.5" y="-373" font-family="Helvetica,sans-Serif" font-size="10.00">max_multiplier</text>
<text text-anchor="start" x="4.5" y="-358" font-family="Helvetica,sans-Serif" font-size="10.00">+</text>
<text text-anchor="start" x="17.5" y="-358" font-family="Helvetica,sans-Serif" font-size="10.00">max_penalty</text>
<text text-anchor="start" x="4.5" y="-343" font-family="Helvetica,sans-Serif" font-size="10.00">+</text>
<text text-anchor="start" x="17.5" y="-343" font-family="Helvetica,sans-Serif" font-size="10.00">min_penalty</text>
<text text-anchor="start" x="4.5" y="-328" font-family="Helvetica,sans-Serif" font-size="10.00">+</text>
<text text-anchor="start" x="17.5" y="-328" font-family="Helvetica,sans-Serif" font-size="10.00">max_iter</text>
<text text-anchor="start" x="4.5" y="-313" font-family="Helvetica,sans-Serif" font-size="10.00">+</text>
<text text-anchor="start" x="17.5" y="-313" font-family="Helvetica,sans-Serif" font-size="10.00">max_time</text>
<text text-anchor="start" x="4.5" y="-298" font-family="Helvetica,sans-Serif" font-size="10.00">+</text>
<text text-anchor="start" x="17.5" y="-298" font-family="Helvetica,sans-Serif" font-size="10.00">max_num_initial_retries</text>
<text text-anchor="start" x="4.5" y="-283" font-family="Helvetica,sans-Serif" font-size="10.00">+</text>
<text text-anchor="start" x="17.5" y="-283" font-family="Helvetica,sans-Serif" font-size="10.00">max_num_retries</text>
<text text-anchor="start" x="4.5" y="-268" font-family="Helvetica,sans-Serif" font-size="10.00">+</text>
<text text-anchor="start" x="17.5" y="-268" font-family="Helvetica,sans-Serif" font-size="10.00">max_total_num_retries</text>
<text text-anchor="start" x="4.5" y="-253" font-family="Helvetica,sans-Serif" font-size="10.00">+</text>
<text text-anchor="start" x="17.5" y="-253" font-family="Helvetica,sans-Serif" font-size="10.00">print_interval</text>
<text text-anchor="start" x="4.5" y="-238" font-family="Helvetica,sans-Serif" font-size="10.00">+</text>
<text text-anchor="start" x="17.5" y="-238" font-family="Helvetica,sans-Serif" font-size="10.00">print_precision</text>
<text text-anchor="start" x="4.5" y="-223" font-family="Helvetica,sans-Serif" font-size="10.00">+</text>
<text text-anchor="start" x="17.5" y="-223" font-family="Helvetica,sans-Serif" font-size="10.00">single_penalty_factor</text>
<text text-anchor="start" x="72" y="-208" font-family="Helvetica,sans-Serif" font-size="10.00"> </text>
<polygon fill="#666666" stroke="#666666" points="0.5,-626 0.5,-626 147.5,-626 147.5,-626 0.5,-626"/>
<polygon fill="#666666" stroke="#666666" points="0.5,-218 0.5,-218 15.5,-218 15.5,-218 0.5,-218"/>
<polygon fill="#666666" stroke="#666666" points="15.5,-218 15.5,-218 147.5,-218 147.5,-218 15.5,-218"/>
<polygon fill="none" stroke="#666666" points="0,-201 0,-643 147,-643 147,-201 0,-201"/>
</a>
</g>
</g>
<!-- Node2&#45;&gt;Node1 -->
<g id="edge1_Node000001_Node000002" class="edge">
<title>Node2&#45;&gt;Node1</title>
<g id="a_edge1_Node000001_Node000002"><a xlink:title=" ">
<path fill="none" stroke="#63b8ff" d="M73.5,-200.86C73.5,-188.92 73.5,-177.32 73.5,-166.32"/>
<polygon fill="none" stroke="#63b8ff" points="73.5,-166.17 69.5,-160.17 73.5,-154.17 77.5,-160.17 73.5,-166.17"/>
</a>
</g>
<text text-anchor="middle" x="95.5" y="-175" font-family="Helvetica,sans-Serif" font-size="10.00" fill="grey"> &#45;params</text>
</g>
</g>
</svg>
