<?xml version="1.0" encoding="UTF-8" standalone="no"?>
<!DOCTYPE svg PUBLIC "-//W3C//DTD SVG 1.1//EN"
 "http://www.w3.org/Graphics/SVG/1.1/DTD/svg11.dtd">
<!-- Generated by graphviz version 2.43.0 (0)
 -->
<!-- Title: used Pages: 1 -->
<!--zoomable 407 -->

<svg id="main" version="1.1" xmlns="http://www.w3.org/2000/svg" xmlns:xlink="http://www.w3.org/1999/xlink" xml:space="preserve" onload="init(evt)">
<style type="text/css"><![CDATA[
.node, .edge {opacity: 0.7;}
.node.selected, .edge.selected {opacity: 1;}
.edge:hover path { stroke: red; }
.edge:hover polygon { stroke: red; fill: red; }
]]></style>

<defs>
  <circle id="rim" cx="0" cy="0" r="7"/>
  <circle id="rim2" cx="0" cy="0" r="3.5"/>
  <g id="zoomPlus">
    <use xlink:href="#rim" fill="#404040"><set attributeName="fill" to="#808080" begin="zoomplus.mouseover" end="zoomplus.mouseout"/></use>
    <path d="M-4,0h8M0,-4v8" fill="none" stroke="white" stroke-width="1.5" pointer-events="none"/>
  </g>
  <g id="zoomMin">
    <use xlink:href="#rim" fill="#404040"><set attributeName="fill" to="#808080" begin="zoomminus.mouseover" end="zoomminus.mouseout"/></use>
    <path d="M-4,0h8" fill="none" stroke="white" stroke-width="1.5" pointer-events="none"/>
  </g>
  <g id="arrowUp" transform="translate(30 24)">
    <use xlink:href="#rim"/>
    <path pointer-events="none" fill="none" stroke="white" stroke-width="1.5" d="M0,-3.0v7 M-2.5,-0.5L0,-3.0L2.5,-0.5"/>
  </g>
  <g id="arrowRight" transform="rotate(90) translate(36 -43)">
    <use xlink:href="#rim"/>
    <path pointer-events="none" fill="none" stroke="white" stroke-width="1.5" d="M0,-3.0v7 M-2.5,-0.5L0,-3.0L2.5,-0.5"/>
  </g>
  <g id="arrowDown" transform="rotate(180) translate(-30 -48)">
    <use xlink:href="#rim"/>
    <path pointer-events="none" fill="none" stroke="white" stroke-width="1.5" d="M0,-3.0v7 M-2.5,-0.5L0,-3.0L2.5,-0.5"/>
  </g>
  <g id="arrowLeft" transform="rotate(270) translate(-36 17)">
    <use xlink:href="#rim"/>
    <path pointer-events="none" fill="none" stroke="white" stroke-width="1.5" d="M0,-3.0v7 M-2.5,-0.5L0,-3.0L2.5,-0.5"/>
  </g>
  <g id="resetDef">
    <use xlink:href="#rim2" fill="#404040"><set attributeName="fill" to="#808080" begin="reset.mouseover" end="reset.mouseout"/></use>
  </g>
</defs>
<script type="application/ecmascript">
var viewWidth = 727;
var viewHeight = 407;
var sectionId = 'dynsection-2';
</script>
<script type="application/ecmascript" xlink:href="svg.min.js"/>
<svg id="graph" class="graph">
<g id="viewport">
<title>used</title>
<!-- Node1 -->
<g id="Node000001" class="node">
<title>Node1</title>
<g id="a_Node000001"><a xlink:title=" ">
<polygon fill="#999999" stroke="#666666" points="719,-286 679,-286 679,-267 719,-267 719,-286"/>
<text text-anchor="middle" x="699" y="-274" font-family="Helvetica,sans-Serif" font-size="10.00">used</text>
</a>
</g>
</g>
<!-- Node2 -->
<g id="Node000002" class="node">
<title>Node2</title>
<g id="a_Node000002"><a xlink:href="problem_8cpp.html#ae36fc572e3716fb2dbe8ff77cfe1ee10" target="_top" xlink:title=" ">
<polygon fill="white" stroke="#666666" points="173,-334 90,-334 90,-315 173,-315 173,-334"/>
<text text-anchor="middle" x="131.5" y="-322" font-family="Helvetica,sans-Serif" font-size="10.00">load_problem</text>
</a>
</g>
</g>
<!-- Node1&#45;&gt;Node2 -->
<g id="edge1_Node000001_Node000002" class="edge">
<title>Node1&#45;&gt;Node2</title>
<g id="a_edge1_Node000001_Node000002"><a xlink:title=" ">
<path fill="none" stroke="#63b8ff" d="M678.4,-292.62C648.99,-315.66 590.71,-356.93 533,-372.5 399.55,-408.5 356.06,-406.18 222,-372.5 192.42,-365.07 161.94,-345.76 145.29,-334.02"/>
<polygon fill="#63b8ff" stroke="#63b8ff" points="680.94,-295.08 686.57,-286.1 676.57,-289.6 680.94,-295.08"/>
</a>
</g>
</g>
<!-- Node4 -->
<g id="Node000004" class="node">
<title>Node4</title>
<g id="a_Node000004"><a xlink:href="options_8hpp.html#a15ce06eb1492a582a4abe2ddd5e7f8a1" target="_top" xlink:title=" ">
<polygon fill="white" stroke="#666666" points="643,-190 569,-190 569,-171 643,-171 643,-190"/>
<text text-anchor="middle" x="606" y="-178" font-family="Helvetica,sans-Serif" font-size="10.00">set_params</text>
</a>
</g>
</g>
<!-- Node1&#45;&gt;Node4 -->
<g id="edge3_Node000001_Node000004" class="edge">
<title>Node1&#45;&gt;Node4</title>
<g id="a_edge3_Node000001_Node000004"><a xlink:title=" ">
<path fill="none" stroke="#63b8ff" d="M682.03,-259.65C662.86,-239.43 631.39,-206.24 616.02,-190.02"/>
<polygon fill="#63b8ff" stroke="#63b8ff" points="679.52,-262.09 688.94,-266.94 684.6,-257.28 679.52,-262.09"/>
</a>
</g>
</g>
<!-- Node3 -->
<g id="Node000003" class="node">
<title>Node3</title>
<g id="a_Node000003"><a xlink:href="alpaqa-driver_8cpp.html#ac0f2228420376f4db7e1274f2b41667c" target="_top" xlink:title=" ">
<polygon fill="white" stroke="#666666" points="41,-266 0,-266 0,-247 41,-247 41,-266"/>
<text text-anchor="middle" x="20.5" y="-254" font-family="Helvetica,sans-Serif" font-size="10.00">main</text>
</a>
</g>
</g>
<!-- Node2&#45;&gt;Node3 -->
<g id="edge2_Node000002_Node000003" class="edge">
<title>Node2&#45;&gt;Node3</title>
<g id="a_edge2_Node000002_Node000003"><a xlink:title=" ">
<path fill="none" stroke="#63b8ff" d="M103.56,-310.01C94.98,-305.23 85.5,-299.78 77,-294.5 62.32,-285.38 46.06,-274.11 34.96,-266.21"/>
<polygon fill="#63b8ff" stroke="#63b8ff" points="101.99,-313.14 112.43,-314.89 105.36,-307.01 101.99,-313.14"/>
</a>
</g>
</g>
<!-- Node5 -->
<g id="Node000005" class="node">
<title>Node5</title>
<g id="a_Node000005"><a xlink:href="alpaqa-driver_8cpp.html#abdc7f0491e5c38d6f9569a0aad3d2925" target="_top" xlink:title=" ">
<polygon fill="white" stroke="#666666" points="182,-285 81,-285 81,-266 182,-266 182,-285"/>
<text text-anchor="middle" x="131.5" y="-273" font-family="Helvetica,sans-Serif" font-size="10.00">get_output_paths</text>
</a>
</g>
</g>
<!-- Node4&#45;&gt;Node5 -->
<g id="edge4_Node000004_Node000005" class="edge">
<title>Node4&#45;&gt;Node5</title>
<g id="a_edge4_Node000004_Node000005"><a xlink:title=" ">
<path fill="none" stroke="#63b8ff" d="M584.87,-196.43C571.08,-206.48 551.91,-218.78 533,-225.5 412.17,-268.43 259.43,-275.53 182.15,-276.09"/>
<polygon fill="#63b8ff" stroke="#63b8ff" points="587.22,-199.05 593.11,-190.24 583.01,-193.45 587.22,-199.05"/>
</a>
</g>
</g>
<!-- Node6 -->
<g id="Node000006" class="node">
<title>Node6</title>
<g id="a_Node000006"><a xlink:href="alpaqa-driver_8cpp.html#a62667720f096806ed08c60e4207f8972" target="_top" xlink:title=" ">
<polygon fill="white" stroke="#666666" points="186,-247 77,-247 77,-228 186,-228 186,-247"/>
<text text-anchor="middle" x="131.5" y="-235" font-family="Helvetica,sans-Serif" font-size="10.00">get_output_stream</text>
</a>
</g>
</g>
<!-- Node4&#45;&gt;Node6 -->
<g id="edge6_Node000004_Node000006" class="edge">
<title>Node4&#45;&gt;Node6</title>
<g id="a_edge6_Node000004_Node000006"><a xlink:title=" ">
<path fill="none" stroke="#63b8ff" d="M568.75,-193.15C557.42,-196.67 544.8,-200.17 533,-202.5 410.43,-226.7 263.46,-234.17 186.14,-236.47"/>
<polygon fill="#63b8ff" stroke="#63b8ff" points="569.87,-196.46 578.32,-190.07 567.73,-189.8 569.87,-196.46"/>
</a>
</g>
</g>
<!-- Node7 -->
<g id="Node000007" class="node">
<title>Node7</title>
<g id="a_Node000007"><a xlink:href="alpaqa-driver_8cpp.html#a3430011226186bf05d5c2552270587b7" target="_top" xlink:title=" ">
<polygon fill="white" stroke="#666666" points="345.5,-209 238.5,-209 238.5,-190 345.5,-190 345.5,-209"/>
<text text-anchor="middle" x="292" y="-197" font-family="Helvetica,sans-Serif" font-size="10.00">get_solver_builder</text>
</a>
</g>
</g>
<!-- Node4&#45;&gt;Node7 -->
<g id="edge8_Node000004_Node000007" class="edge">
<title>Node4&#45;&gt;Node7</title>
<g id="a_edge8_Node000004_Node000007"><a xlink:title=" ">
<path fill="none" stroke="#63b8ff" d="M558.75,-183.32C501.81,-186.78 405.35,-192.66 345.63,-196.29"/>
<polygon fill="#63b8ff" stroke="#63b8ff" points="559.14,-186.8 568.9,-182.7 558.71,-179.81 559.14,-186.8"/>
</a>
</g>
</g>
<!-- Node8 -->
<g id="Node000008" class="node">
<title>Node8</title>
<g id="a_Node000008"><a xlink:href="namespaceanonymous__namespace_02problem_8cpp_03.html#ab42fb3dc0421d6c6c1f45d753a95a2c4" target="_top" xlink:title=" ">
<polygon fill="white" stroke="#666666" points="533,-345 398,-345 398,-304 533,-304 533,-345"/>
<text text-anchor="start" x="406" y="-333" font-family="Helvetica,sans-Serif" font-size="10.00">anonymous_namespace</text>
<text text-anchor="start" x="406" y="-322" font-family="Helvetica,sans-Serif" font-size="10.00">{problem::cpp}::load</text>
<text text-anchor="middle" x="465.5" y="-311" font-family="Helvetica,sans-Serif" font-size="10.00">_initial_guess</text>
</a>
</g>
</g>
<!-- Node4&#45;&gt;Node8 -->
<g id="edge10_Node000004_Node000008" class="edge">
<title>Node4&#45;&gt;Node8</title>
<g id="a_edge10_Node000004_Node000008"><a xlink:title=" ">
<path fill="none" stroke="#63b8ff" d="M596.27,-199.35C584.6,-222.89 562,-263.25 533,-289.5 527.1,-294.84 520.24,-299.62 513.2,-303.81"/>
<polygon fill="#63b8ff" stroke="#63b8ff" points="599.53,-200.64 600.71,-190.11 593.23,-197.6 599.53,-200.64"/>
</a>
</g>
</g>
<!-- Node10 -->
<g id="Node000010" class="node">
<title>Node10</title>
<g id="a_Node000010"><a xlink:href="gradient-checker_8cpp.html#ac0f2228420376f4db7e1274f2b41667c" target="_top" xlink:title=" ">
<polygon fill="white" stroke="#666666" points="486,-171 445,-171 445,-152 486,-152 486,-171"/>
<text text-anchor="middle" x="465.5" y="-159" font-family="Helvetica,sans-Serif" font-size="10.00">main</text>
</a>
</g>
</g>
<!-- Node4&#45;&gt;Node10 -->
<g id="edge15_Node000004_Node000010" class="edge">
<title>Node4&#45;&gt;Node10</title>
<g id="a_edge15_Node000004_Node000010"><a xlink:title=" ">
<path fill="none" stroke="#63b8ff" d="M559.03,-174.19C534.26,-170.8 505,-166.78 486.11,-164.19"/>
<polygon fill="#63b8ff" stroke="#63b8ff" points="558.59,-177.67 568.97,-175.56 559.54,-170.73 558.59,-177.67"/>
</a>
</g>
</g>
<!-- Node11 -->
<g id="Node000011" class="node">
<title>Node11</title>
<g id="a_Node000011"><a xlink:href="alm-driver_8hpp.html#ae4ef291d9ec9d55ee804b5723ea2e641" target="_top" xlink:title=" ">
<polygon fill="white" stroke="#666666" points="517,-95 414,-95 414,-76 517,-76 517,-95"/>
<text text-anchor="middle" x="465.5" y="-83" font-family="Helvetica,sans-Serif" font-size="10.00">make_alm_solver</text>
</a>
</g>
</g>
<!-- Node4&#45;&gt;Node11 -->
<g id="edge16_Node000004_Node000011" class="edge">
<title>Node4&#45;&gt;Node11</title>
<g id="a_edge16_Node000004_Node000011"><a xlink:title=" ">
<path fill="none" stroke="#63b8ff" d="M591.04,-162.92C577.63,-147.05 556.06,-124.03 533,-109.5 523.45,-103.48 512.17,-98.69 501.65,-95.02"/>
<polygon fill="#63b8ff" stroke="#63b8ff" points="588.55,-165.4 597.6,-170.9 593.95,-160.95 588.55,-165.4"/>
</a>
</g>
</g>
<!-- Node12 -->
<g id="Node000012" class="node">
<title>Node12</title>
<g id="a_Node000012"><a xlink:href="namespaceanonymous__namespace_02panoc-driver_8cpp_03.html#a2646125ffd95200553629d634b9e9ee0" target="_top" xlink:title=" ">
<polygon fill="white" stroke="#666666" points="362,-136 222,-136 222,-95 362,-95 362,-136"/>
<text text-anchor="start" x="230" y="-124" font-family="Helvetica,sans-Serif" font-size="10.00">anonymous_namespace</text>
<text text-anchor="start" x="230" y="-113" font-family="Helvetica,sans-Serif" font-size="10.00">{panoc&#45;driver::cpp}</text>
<text text-anchor="middle" x="292" y="-102" font-family="Helvetica,sans-Serif" font-size="10.00">::make_panoc_like_driver</text>
</a>
</g>
</g>
<!-- Node4&#45;&gt;Node12 -->
<g id="edge20_Node000004_Node000012" class="edge">
<title>Node4&#45;&gt;Node12</title>
<g id="a_edge20_Node000004_Node000012"><a xlink:title=" ">
<path fill="none" stroke="#63b8ff" d="M581.5,-165.69C567.86,-157.81 550.04,-148.69 533,-143.5 477.02,-126.46 410.78,-119.68 362.09,-117.03"/>
<polygon fill="#63b8ff" stroke="#63b8ff" points="579.84,-168.78 590.23,-170.9 583.43,-162.77 579.84,-168.78"/>
</a>
</g>
</g>
<!-- Node13 -->
<g id="Node000013" class="node">
<title>Node13</title>
<g id="a_Node000013"><a xlink:href="namespaceanonymous__namespace_02pantr-driver_8cpp_03.html#ab33624b00d76e0611032d0e170e1152f" target="_top" xlink:title=" ">
<polygon fill="white" stroke="#666666" points="361,-73 223,-73 223,-32 361,-32 361,-73"/>
<text text-anchor="start" x="231" y="-61" font-family="Helvetica,sans-Serif" font-size="10.00">anonymous_namespace</text>
<text text-anchor="start" x="231" y="-50" font-family="Helvetica,sans-Serif" font-size="10.00">{pantr&#45;driver::cpp}</text>
<text text-anchor="middle" x="292" y="-39" font-family="Helvetica,sans-Serif" font-size="10.00">::make_pantr_like_solver</text>
</a>
</g>
</g>
<!-- Node4&#45;&gt;Node13 -->
<g id="edge21_Node000004_Node000013" class="edge">
<title>Node4&#45;&gt;Node13</title>
<g id="a_edge21_Node000004_Node000013"><a xlink:title=" ">
<path fill="none" stroke="#63b8ff" d="M599.08,-161.28C589.78,-134.73 568.97,-87.72 533,-66.5 481.32,-36.02 412.01,-35.36 361.16,-40.63"/>
<polygon fill="#63b8ff" stroke="#63b8ff" points="595.82,-162.57 602.28,-170.97 602.47,-160.38 595.82,-162.57"/>
</a>
</g>
</g>
<!-- Node14 -->
<g id="Node000014" class="node">
<title>Node14</title>
<g id="a_Node000014"><a xlink:href="alm-driver_8hpp.html#a51b2a2cde56762bcb43a2f4da0913f98" target="_top" xlink:title=" ">
<polygon fill="white" stroke="#666666" points="520,-19 411,-19 411,0 520,0 520,-19"/>
<text text-anchor="middle" x="465.5" y="-7" font-family="Helvetica,sans-Serif" font-size="10.00">make_inner_solver</text>
</a>
</g>
</g>
<!-- Node4&#45;&gt;Node14 -->
<g id="edge19_Node000004_Node000014" class="edge">
<title>Node4&#45;&gt;Node14</title>
<g id="a_edge19_Node000004_Node000014"><a xlink:title=" ">
<path fill="none" stroke="#63b8ff" d="M600.41,-160.62C592.17,-129.31 572.01,-68.47 533,-33.5 525.96,-27.19 517.14,-22.51 508.25,-19.04"/>
<polygon fill="#63b8ff" stroke="#63b8ff" points="597.11,-161.86 602.91,-170.72 603.9,-160.17 597.11,-161.86"/>
</a>
</g>
</g>
<!-- Node5&#45;&gt;Node3 -->
<g id="edge5_Node000005_Node000003" class="edge">
<title>Node5&#45;&gt;Node3</title>
<g id="a_edge5_Node000005_Node000003"><a xlink:title=" ">
<path fill="none" stroke="#63b8ff" d="M70.89,-265.11C60.15,-263.24 49.68,-261.41 41.16,-259.93"/>
<polygon fill="#63b8ff" stroke="#63b8ff" points="70.33,-268.56 80.78,-266.83 71.53,-261.67 70.33,-268.56"/>
</a>
</g>
</g>
<!-- Node6&#45;&gt;Node3 -->
<g id="edge7_Node000006_Node000003" class="edge">
<title>Node6&#45;&gt;Node3</title>
<g id="a_edge7_Node000006_Node000003"><a xlink:title=" ">
<path fill="none" stroke="#63b8ff" d="M67.08,-248.55C57.68,-250.19 48.65,-251.77 41.14,-253.08"/>
<polygon fill="#63b8ff" stroke="#63b8ff" points="67.71,-252 76.96,-246.83 66.51,-245.1 67.71,-252"/>
</a>
</g>
</g>
<!-- Node7&#45;&gt;Node3 -->
<g id="edge9_Node000007_Node000003" class="edge">
<title>Node7&#45;&gt;Node3</title>
<g id="a_edge9_Node000007_Node000003"><a xlink:title=" ">
<path fill="none" stroke="#63b8ff" d="M228.27,-197.36C184.66,-197.77 125.84,-202.19 77,-219.5 59.97,-225.53 43.09,-237.95 32.5,-246.74"/>
<polygon fill="#63b8ff" stroke="#63b8ff" points="228.46,-200.86 238.45,-197.33 228.44,-193.86 228.46,-200.86"/>
</a>
</g>
</g>
<!-- Node8&#45;&gt;Node8 -->
<g id="edge14_Node000008_Node000008" class="edge">
<title>Node8&#45;&gt;Node8</title>
<g id="a_edge14_Node000008_Node000008"><a xlink:title=" ">
<path fill="none" stroke="#63b8ff" d="M489.31,-355.32C485.6,-359.9 477.66,-363 465.5,-363 445.54,-363 436.96,-354.65 439.77,-345.1"/>
<polygon fill="#63b8ff" stroke="#63b8ff" points="492.82,-355.57 491.23,-345.1 485.94,-354.28 492.82,-355.57"/>
</a>
</g>
</g>
<!-- Node9 -->
<g id="Node000009" class="node">
<title>Node9</title>
<g id="a_Node000009"><a xlink:href="namespaceanonymous__namespace_02problem_8cpp_03.html#ae1c2ae0af996a5319970525430250542" target="_top" xlink:title=" ">
<polygon fill="white" stroke="#666666" points="359.5,-345 224.5,-345 224.5,-304 359.5,-304 359.5,-345"/>
<text text-anchor="start" x="232.5" y="-333" font-family="Helvetica,sans-Serif" font-size="10.00">anonymous_namespace</text>
<text text-anchor="start" x="232.5" y="-322" font-family="Helvetica,sans-Serif" font-size="10.00">{problem::cpp}::load</text>
<text text-anchor="middle" x="292" y="-311" font-family="Helvetica,sans-Serif" font-size="10.00">_dl_problem</text>
</a>
</g>
</g>
<!-- Node8&#45;&gt;Node9 -->
<g id="edge11_Node000008_Node000009" class="edge">
<title>Node8&#45;&gt;Node9</title>
<g id="a_edge11_Node000008_Node000009"><a xlink:title=" ">
<path fill="none" stroke="#63b8ff" d="M387.64,-324.5C378.29,-324.5 368.8,-324.5 359.62,-324.5"/>
<polygon fill="#63b8ff" stroke="#63b8ff" points="387.7,-328 397.7,-324.5 387.7,-321 387.7,-328"/>
</a>
</g>
</g>
<!-- Node9&#45;&gt;Node2 -->
<g id="edge13_Node000009_Node000002" class="edge">
<title>Node9&#45;&gt;Node2</title>
<g id="a_edge13_Node000009_Node000002"><a xlink:title=" ">
<path fill="none" stroke="#63b8ff" d="M214.06,-324.5C200.02,-324.5 185.89,-324.5 173.42,-324.5"/>
<polygon fill="#63b8ff" stroke="#63b8ff" points="214.24,-328 224.24,-324.5 214.24,-321 214.24,-328"/>
</a>
</g>
</g>
<!-- Node9&#45;&gt;Node9 -->
<g id="edge12_Node000009_Node000009" class="edge">
<title>Node9&#45;&gt;Node9</title>
<g id="a_edge12_Node000009_Node000009"><a xlink:title=" ">
<path fill="none" stroke="#63b8ff" d="M319.53,-354.96C315.43,-359.74 306.26,-363 292,-363 269.19,-363 259.39,-354.65 262.59,-345.1"/>
<polygon fill="#63b8ff" stroke="#63b8ff" points="322.97,-355.58 321.41,-345.1 316.1,-354.26 322.97,-355.58"/>
</a>
</g>
</g>
<!-- Node11&#45;&gt;Node12 -->
<g id="edge17_Node000011_Node000012" class="edge">
<title>Node11&#45;&gt;Node12</title>
<g id="a_edge17_Node000011_Node000012"><a xlink:title=" ">
<path fill="none" stroke="#63b8ff" d="M403.87,-96.11C390.4,-98.46 376.02,-100.98 362.23,-103.39"/>
<polygon fill="#63b8ff" stroke="#63b8ff" points="404.72,-99.51 413.97,-94.34 403.52,-92.61 404.72,-99.51"/>
</a>
</g>
</g>
<!-- Node11&#45;&gt;Node13 -->
<g id="edge18_Node000011_Node000013" class="edge">
<title>Node11&#45;&gt;Node13</title>
<g id="a_edge18_Node000011_Node000013"><a xlink:title=" ">
<path fill="none" stroke="#63b8ff" d="M404.87,-74.03C390.81,-71.32 375.72,-68.42 361.31,-65.64"/>
<polygon fill="#63b8ff" stroke="#63b8ff" points="404.41,-77.5 414.9,-75.96 405.74,-70.63 404.41,-77.5"/>
</a>
</g>
</g>
</g>
</svg>

<g id="navigator" transform="translate(0 0)" fill="#404254">
  <rect fill="#f2f5e9" fill-opacity="0.5" stroke="#606060" stroke-width=".5" x="0" y="0" width="60" height="60"/>
  <use id="zoomplus" xlink:href="#zoomPlus" x="17" y="9" onmousedown="handleZoom(evt,'in')"/>
  <use id="zoomminus" xlink:href="#zoomMin" x="42" y="9" onmousedown="handleZoom(evt,'out')"/>
  <use id="reset" xlink:href="#resetDef" x="30" y="36" onmousedown="handleReset()"/>
   <use id="arrowup" xlink:href="#arrowUp" x="0" y="0" onmousedown="handlePan(0,-1)"/>
  <use id="arrowright" xlink:href="#arrowRight" x="0" y="0" onmousedown="handlePan(1,0)"/>
  <use id="arrowdown" xlink:href="#arrowDown" x="0" y="0" onmousedown="handlePan(0,1)"/>
  <use id="arrowleft" xlink:href="#arrowLeft" x="0" y="0" onmousedown="handlePan(-1,0)"/>
</g>
<svg viewBox="0 0 15 15" width="100%" height="30px" preserveAspectRatio="xMaxYMin meet">
 <g id="arrow_out" transform="scale(0.3 0.3)">
  <a xlink:href="classOptions_a12df8f934f6bafb37bf4e64529917d06_icgraph_org.svg" target="_base">
   <rect id="button" ry="5" rx="5" y="6" x="6" height="38" width="38"
        fill="#f2f5e9" fill-opacity="0.5" stroke="#606060" stroke-width="1.0"/>
   <path id="arrow"
     d="M 11.500037,31.436501 C 11.940474,20.09759 22.043105,11.32322 32.158766,21.979434 L 37.068811,17.246167 C 37.068811,17.246167 37.088388,32 37.088388,32 L 22.160133,31.978069 C 22.160133,31.978069 26.997745,27.140456 26.997745,27.140456 C 18.528582,18.264221 13.291696,25.230495 11.500037,31.436501 z"
     style="fill:#404040;"/>
  </a>
 </g>
</svg>

<style type='text/css'>
<![CDATA[
[data-mouse-over-selected='false'] { opacity: 0.7; }
[data-mouse-over-selected='true']  { opacity: 1.0; }
]]>
</style>
<script type="application/ecmascript"><![CDATA[
document.addEventListener('DOMContentLoaded', (event) => {
  highlightEdges();
  highlightAdjacentNodes();
});
]]></script>
</svg>
