<?xml version="1.0" encoding="UTF-8" standalone="no"?>
<!DOCTYPE svg PUBLIC "-//W3C//DTD SVG 1.1//EN"
 "http://www.w3.org/Graphics/SVG/1.1/DTD/svg11.dtd">
<!-- Generated by graphviz version 2.43.0 (0)
 -->
<!-- Title: src/alpaqa/include/alpaqa/inner/panoc.hpp Pages: 1 -->
<svg width="1159pt" height="258pt"
 viewBox="0.00 0.00 1159.00 258.00" xmlns="http://www.w3.org/2000/svg" xmlns:xlink="http://www.w3.org/1999/xlink">
<g id="graph0" class="graph" transform="scale(1 1) rotate(0) translate(4 254)">
<title>src/alpaqa/include/alpaqa/inner/panoc.hpp</title>
<!-- Node1 -->
<g id="Node000001" class="node">
<title>Node1</title>
<g id="a_Node000001"><a xlink:title=" ">
<polygon fill="#999999" stroke="#666666" points="639,-250 505,-250 505,-220 639,-220 639,-250"/>
<text text-anchor="start" x="513" y="-238" font-family="Helvetica,sans-Serif" font-size="10.00">src/alpaqa/include</text>
<text text-anchor="middle" x="572" y="-227" font-family="Helvetica,sans-Serif" font-size="10.00">/alpaqa/inner/panoc.hpp</text>
</a>
</g>
</g>
<!-- Node2 -->
<g id="Node000002" class="node">
<title>Node2</title>
<g id="a_Node000002"><a xlink:href="panoc_8tpp.html" target="_top" xlink:title=" ">
<polygon fill="white" stroke="#666666" points="715,-184 581,-184 581,-143 715,-143 715,-184"/>
<text text-anchor="start" x="589" y="-172" font-family="Helvetica,sans-Serif" font-size="10.00">src/alpaqa/include</text>
<text text-anchor="start" x="589" y="-161" font-family="Helvetica,sans-Serif" font-size="10.00">/alpaqa/implementation</text>
<text text-anchor="middle" x="648" y="-150" font-family="Helvetica,sans-Serif" font-size="10.00">/inner/panoc.tpp</text>
</a>
</g>
</g>
<!-- Node1&#45;&gt;Node2 -->
<g id="edge1_Node000001_Node000002" class="edge">
<title>Node1&#45;&gt;Node2</title>
<g id="a_edge1_Node000001_Node000002"><a xlink:title=" ">
<path fill="none" stroke="#63b8ff" d="M595.01,-212.96C605.05,-203.78 616.75,-193.08 626.6,-184.07"/>
<polygon fill="#63b8ff" stroke="#63b8ff" points="592.4,-210.6 587.38,-219.94 597.12,-215.77 592.4,-210.6"/>
</a>
</g>
</g>
<!-- Node8 -->
<g id="Node000008" class="node">
<title>Node8</title>
<g id="a_Node000008"><a xlink:href="structured-newton_8hpp.html" target="_top" xlink:title=" ">
<polygon fill="white" stroke="#666666" points="411,-184 249,-184 249,-143 411,-143 411,-184"/>
<text text-anchor="start" x="257" y="-172" font-family="Helvetica,sans-Serif" font-size="10.00">src/alpaqa/include</text>
<text text-anchor="start" x="257" y="-161" font-family="Helvetica,sans-Serif" font-size="10.00">/alpaqa/inner/directions</text>
<text text-anchor="middle" x="330" y="-150" font-family="Helvetica,sans-Serif" font-size="10.00">/panoc/structured&#45;newton.hpp</text>
</a>
</g>
</g>
<!-- Node1&#45;&gt;Node8 -->
<g id="edge7_Node000001_Node000008" class="edge">
<title>Node1&#45;&gt;Node8</title>
<g id="a_edge7_Node000001_Node000008"><a xlink:title=" ">
<path fill="none" stroke="#63b8ff" d="M513.04,-217.07C478.35,-207.11 434.33,-194.46 398.16,-184.07"/>
<polygon fill="#63b8ff" stroke="#63b8ff" points="512.45,-220.54 523.03,-219.94 514.38,-213.81 512.45,-220.54"/>
</a>
</g>
</g>
<!-- Node9 -->
<g id="Node000009" class="node">
<title>Node9</title>
<g id="a_Node000009"><a xlink:href="params_8cpp.html" target="_top" xlink:title=" ">
<polygon fill="white" stroke="#666666" points="276,-101.5 152,-101.5 152,-71.5 276,-71.5 276,-101.5"/>
<text text-anchor="start" x="160" y="-89.5" font-family="Helvetica,sans-Serif" font-size="10.00">src/alpaqa/src/params</text>
<text text-anchor="middle" x="214" y="-78.5" font-family="Helvetica,sans-Serif" font-size="10.00">/params.cpp</text>
</a>
</g>
</g>
<!-- Node1&#45;&gt;Node9 -->
<g id="edge22_Node000001_Node000009" class="edge">
<title>Node1&#45;&gt;Node9</title>
<g id="a_edge22_Node000001_Node000009"><a xlink:title=" ">
<path fill="none" stroke="#63b8ff" d="M494.74,-231.92C408.62,-227.99 276.61,-216.66 240,-184 216.44,-162.98 213.24,-123.07 213.36,-101.76"/>
<polygon fill="#63b8ff" stroke="#63b8ff" points="494.61,-235.41 504.75,-232.35 494.91,-228.42 494.61,-235.41"/>
</a>
</g>
</g>
<!-- Node10 -->
<g id="Node000010" class="node">
<title>Node10</title>
<g id="a_Node000010"><a xlink:href="panoc-ocp_8hpp.html" target="_top" xlink:title=" ">
<polygon fill="white" stroke="#666666" points="192.5,-184 79.5,-184 79.5,-143 192.5,-143 192.5,-184"/>
<text text-anchor="start" x="87.5" y="-172" font-family="Helvetica,sans-Serif" font-size="10.00">src/alpaqa/include</text>
<text text-anchor="start" x="87.5" y="-161" font-family="Helvetica,sans-Serif" font-size="10.00">/alpaqa/inner/panoc</text>
<text text-anchor="middle" x="136" y="-150" font-family="Helvetica,sans-Serif" font-size="10.00">&#45;ocp.hpp</text>
</a>
</g>
</g>
<!-- Node1&#45;&gt;Node10 -->
<g id="edge10_Node000001_Node000010" class="edge">
<title>Node1&#45;&gt;Node10</title>
<g id="a_edge10_Node000001_Node000010"><a xlink:title=" ">
<path fill="none" stroke="#63b8ff" d="M494.75,-226.41C420.53,-218.41 305.44,-204.17 207,-184 202.37,-183.05 197.59,-181.97 192.81,-180.81"/>
<polygon fill="#63b8ff" stroke="#63b8ff" points="494.63,-229.92 504.95,-227.5 495.38,-222.96 494.63,-229.92"/>
</a>
</g>
</g>
<!-- Node13 -->
<g id="Node000013" class="node">
<title>Node13</title>
<g id="a_Node000013"><a xlink:href="panoc-alm_8hpp.html" target="_top" xlink:title=" ">
<polygon fill="white" stroke="#666666" points="1017,-178.5 889,-178.5 889,-148.5 1017,-148.5 1017,-178.5"/>
<text text-anchor="start" x="897" y="-166.5" font-family="Helvetica,sans-Serif" font-size="10.00">src/alpaqa/include</text>
<text text-anchor="middle" x="953" y="-155.5" font-family="Helvetica,sans-Serif" font-size="10.00">/alpaqa/panoc&#45;alm.hpp</text>
</a>
</g>
</g>
<!-- Node1&#45;&gt;Node13 -->
<g id="edge14_Node000001_Node000013" class="edge">
<title>Node1&#45;&gt;Node13</title>
<g id="a_edge14_Node000001_Node000013"><a xlink:title=" ">
<path fill="none" stroke="#63b8ff" d="M649.23,-223.65C711.77,-214.74 801.97,-200.71 880,-184 887.44,-182.41 895.26,-180.53 902.89,-178.59"/>
<polygon fill="#63b8ff" stroke="#63b8ff" points="648.46,-220.22 639.05,-225.09 649.44,-227.15 648.46,-220.22"/>
</a>
</g>
</g>
<!-- Node15 -->
<g id="Node000015" class="node">
<title>Node15</title>
<g id="a_Node000015"><a xlink:href="panoc-anderson-alm_8hpp.html" target="_top" xlink:title=" ">
<polygon fill="white" stroke="#666666" points="563,-184 429,-184 429,-143 563,-143 563,-184"/>
<text text-anchor="start" x="437" y="-172" font-family="Helvetica,sans-Serif" font-size="10.00">src/alpaqa/include</text>
<text text-anchor="start" x="437" y="-161" font-family="Helvetica,sans-Serif" font-size="10.00">/alpaqa/panoc&#45;anderson</text>
<text text-anchor="middle" x="496" y="-150" font-family="Helvetica,sans-Serif" font-size="10.00">&#45;alm.hpp</text>
</a>
</g>
</g>
<!-- Node1&#45;&gt;Node15 -->
<g id="edge17_Node000001_Node000015" class="edge">
<title>Node1&#45;&gt;Node15</title>
<g id="a_edge17_Node000001_Node000015"><a xlink:title=" ">
<path fill="none" stroke="#63b8ff" d="M548.99,-212.96C538.95,-203.78 527.25,-193.08 517.4,-184.07"/>
<polygon fill="#63b8ff" stroke="#63b8ff" points="546.88,-215.77 556.62,-219.94 551.6,-210.6 546.88,-215.77"/>
</a>
</g>
</g>
<!-- Node16 -->
<g id="Node000016" class="node">
<title>Node16</title>
<g id="a_Node000016"><a xlink:href="structured-panoc-alm_8hpp.html" target="_top" xlink:title=" ">
<polygon fill="white" stroke="#666666" points="871,-184 733,-184 733,-143 871,-143 871,-184"/>
<text text-anchor="start" x="741" y="-172" font-family="Helvetica,sans-Serif" font-size="10.00">src/alpaqa/include</text>
<text text-anchor="start" x="741" y="-161" font-family="Helvetica,sans-Serif" font-size="10.00">/alpaqa/structured&#45;panoc</text>
<text text-anchor="middle" x="802" y="-150" font-family="Helvetica,sans-Serif" font-size="10.00">&#45;alm.hpp</text>
</a>
</g>
</g>
<!-- Node1&#45;&gt;Node16 -->
<g id="edge19_Node000001_Node000016" class="edge">
<title>Node1&#45;&gt;Node16</title>
<g id="a_edge19_Node000001_Node000016"><a xlink:title=" ">
<path fill="none" stroke="#63b8ff" d="M628.46,-216.94C661.36,-207 702.99,-194.42 737.22,-184.07"/>
<polygon fill="#63b8ff" stroke="#63b8ff" points="627.1,-213.69 618.54,-219.94 629.13,-220.39 627.1,-213.69"/>
</a>
</g>
</g>
<!-- Node17 -->
<g id="Node000017" class="node">
<title>Node17</title>
<g id="a_Node000017"><a xlink:href="panoc-driver_8cpp.html" target="_top" xlink:title=" ">
<polygon fill="white" stroke="#666666" points="1151,-178.5 1035,-178.5 1035,-148.5 1151,-148.5 1151,-178.5"/>
<text text-anchor="start" x="1043" y="-166.5" font-family="Helvetica,sans-Serif" font-size="10.00">src/alpaqa/src/driver</text>
<text text-anchor="middle" x="1093" y="-155.5" font-family="Helvetica,sans-Serif" font-size="10.00">/panoc&#45;driver.cpp</text>
</a>
</g>
</g>
<!-- Node1&#45;&gt;Node17 -->
<g id="edge21_Node000001_Node000017" class="edge">
<title>Node1&#45;&gt;Node17</title>
<g id="a_edge21_Node000001_Node000017"><a xlink:title=" ">
<path fill="none" stroke="#63b8ff" d="M649.31,-229.58C740.17,-223.45 895.14,-210.04 1026,-184 1033.37,-182.53 1041.09,-180.63 1048.58,-178.6"/>
<polygon fill="#63b8ff" stroke="#63b8ff" points="648.84,-226.11 639.1,-230.26 649.31,-233.09 648.84,-226.11"/>
</a>
</g>
</g>
<!-- Node3 -->
<g id="Node000003" class="node">
<title>Node3</title>
<g id="a_Node000003"><a xlink:href="structured-newton_8cpp.html" target="_top" xlink:title=" ">
<polygon fill="white" stroke="#666666" points="446,-107 294,-107 294,-66 446,-66 446,-107"/>
<text text-anchor="start" x="302" y="-95" font-family="Helvetica,sans-Serif" font-size="10.00">src/alpaqa/src/inner</text>
<text text-anchor="start" x="302" y="-84" font-family="Helvetica,sans-Serif" font-size="10.00">/directions/panoc/structured</text>
<text text-anchor="middle" x="370" y="-73" font-family="Helvetica,sans-Serif" font-size="10.00">&#45;newton.cpp</text>
</a>
</g>
</g>
<!-- Node2&#45;&gt;Node3 -->
<g id="edge2_Node000002_Node000003" class="edge">
<title>Node2&#45;&gt;Node3</title>
<g id="a_edge2_Node000002_Node000003"><a xlink:title=" ">
<path fill="none" stroke="#63b8ff" d="M570.96,-141.72C530.81,-130.88 481.99,-117.71 442.52,-107.06"/>
<polygon fill="#63b8ff" stroke="#63b8ff" points="570.14,-145.12 580.7,-144.34 571.96,-138.36 570.14,-145.12"/>
</a>
</g>
</g>
<!-- Node4 -->
<g id="Node000004" class="node">
<title>Node4</title>
<g id="a_Node000004"><a xlink:href="panoc_8cpp.html" target="_top" xlink:title=" ">
<polygon fill="white" stroke="#666666" points="710,-101.5 598,-101.5 598,-71.5 710,-71.5 710,-101.5"/>
<text text-anchor="start" x="606" y="-89.5" font-family="Helvetica,sans-Serif" font-size="10.00">src/alpaqa/src/inner</text>
<text text-anchor="middle" x="654" y="-78.5" font-family="Helvetica,sans-Serif" font-size="10.00">/panoc.cpp</text>
</a>
</g>
</g>
<!-- Node2&#45;&gt;Node4 -->
<g id="edge3_Node000002_Node000004" class="edge">
<title>Node2&#45;&gt;Node4</title>
<g id="a_edge3_Node000002_Node000004"><a xlink:title=" ">
<path fill="none" stroke="#63b8ff" d="M650.39,-132.61C651.24,-122.01 652.15,-110.57 652.85,-101.86"/>
<polygon fill="#63b8ff" stroke="#63b8ff" points="646.89,-132.55 649.58,-142.79 653.86,-133.11 646.89,-132.55"/>
</a>
</g>
</g>
<!-- Node5 -->
<g id="Node000005" class="node">
<title>Node5</title>
<g id="a_Node000005"><a xlink:href="panoc-alm_8cpp.html" target="_top" xlink:title=" ">
<polygon fill="white" stroke="#666666" points="1000,-101.5 884,-101.5 884,-71.5 1000,-71.5 1000,-101.5"/>
<text text-anchor="start" x="892" y="-89.5" font-family="Helvetica,sans-Serif" font-size="10.00">src/alpaqa/src/panoc</text>
<text text-anchor="middle" x="942" y="-78.5" font-family="Helvetica,sans-Serif" font-size="10.00">&#45;alm.cpp</text>
</a>
</g>
</g>
<!-- Node2&#45;&gt;Node5 -->
<g id="edge4_Node000002_Node000005" class="edge">
<title>Node2&#45;&gt;Node5</title>
<g id="a_edge4_Node000002_Node000005"><a xlink:title=" ">
<path fill="none" stroke="#63b8ff" d="M725,-142.78C792.63,-126.23 811.3,-123.85 875,-107 881.44,-105.3 888.21,-103.42 894.86,-101.53"/>
<polygon fill="#63b8ff" stroke="#63b8ff" points="723.99,-139.42 715.12,-145.21 725.67,-146.22 723.99,-139.42"/>
</a>
</g>
</g>
<!-- Node6 -->
<g id="Node000006" class="node">
<title>Node6</title>
<g id="a_Node000006"><a xlink:href="panoc-anderson-alm_8cpp.html" target="_top" xlink:title=" ">
<polygon fill="white" stroke="#666666" points="580,-101.5 464,-101.5 464,-71.5 580,-71.5 580,-101.5"/>
<text text-anchor="start" x="472" y="-89.5" font-family="Helvetica,sans-Serif" font-size="10.00">src/alpaqa/src/panoc</text>
<text text-anchor="middle" x="522" y="-78.5" font-family="Helvetica,sans-Serif" font-size="10.00">&#45;anderson&#45;alm.cpp</text>
</a>
</g>
</g>
<!-- Node2&#45;&gt;Node6 -->
<g id="edge5_Node000002_Node000006" class="edge">
<title>Node2&#45;&gt;Node6</title>
<g id="a_edge5_Node000002_Node000006"><a xlink:title=" ">
<path fill="none" stroke="#63b8ff" d="M606.54,-137.82C586.41,-125.84 562.95,-111.87 545.86,-101.7"/>
<polygon fill="#63b8ff" stroke="#63b8ff" points="604.84,-140.88 615.22,-142.99 608.42,-134.87 604.84,-140.88"/>
</a>
</g>
</g>
<!-- Node7 -->
<g id="Node000007" class="node">
<title>Node7</title>
<g id="a_Node000007"><a xlink:href="structured-panoc-alm_8cpp.html" target="_top" xlink:title=" ">
<polygon fill="white" stroke="#666666" points="865.5,-101.5 728.5,-101.5 728.5,-71.5 865.5,-71.5 865.5,-101.5"/>
<text text-anchor="start" x="736.5" y="-89.5" font-family="Helvetica,sans-Serif" font-size="10.00">src/alpaqa/src/structured</text>
<text text-anchor="middle" x="797" y="-78.5" font-family="Helvetica,sans-Serif" font-size="10.00">&#45;panoc&#45;alm.cpp</text>
</a>
</g>
</g>
<!-- Node2&#45;&gt;Node7 -->
<g id="edge6_Node000002_Node000007" class="edge">
<title>Node2&#45;&gt;Node7</title>
<g id="a_edge6_Node000002_Node000007"><a xlink:title=" ">
<path fill="none" stroke="#63b8ff" d="M695.75,-138.46C719.83,-126.34 748.21,-112.06 768.79,-101.7"/>
<polygon fill="#63b8ff" stroke="#63b8ff" points="694.12,-135.37 686.76,-142.99 697.26,-141.62 694.12,-135.37"/>
</a>
</g>
</g>
<!-- Node8&#45;&gt;Node3 -->
<g id="edge8_Node000008_Node000003" class="edge">
<title>Node8&#45;&gt;Node3</title>
<g id="a_edge8_Node000008_Node000003"><a xlink:title=" ">
<path fill="none" stroke="#63b8ff" d="M345.29,-133.83C350.06,-124.89 355.21,-115.24 359.56,-107.07"/>
<polygon fill="#63b8ff" stroke="#63b8ff" points="342.13,-132.32 340.51,-142.79 348.3,-135.62 342.13,-132.32"/>
</a>
</g>
</g>
<!-- Node8&#45;&gt;Node9 -->
<g id="edge9_Node000008_Node000009" class="edge">
<title>Node8&#45;&gt;Node9</title>
<g id="a_edge9_Node000008_Node000009"><a xlink:title=" ">
<path fill="none" stroke="#63b8ff" d="M291.33,-137.5C272.91,-125.59 251.56,-111.78 235.96,-101.7"/>
<polygon fill="#63b8ff" stroke="#63b8ff" points="289.53,-140.5 299.83,-142.99 293.33,-134.62 289.53,-140.5"/>
</a>
</g>
</g>
<!-- Node10&#45;&gt;Node9 -->
<g id="edge13_Node000010_Node000009" class="edge">
<title>Node10&#45;&gt;Node9</title>
<g id="a_edge13_Node000010_Node000009"><a xlink:title=" ">
<path fill="none" stroke="#63b8ff" d="M164.01,-135.57C175.85,-124.18 189.16,-111.39 199.06,-101.86"/>
<polygon fill="#63b8ff" stroke="#63b8ff" points="161.28,-133.34 156.49,-142.79 166.13,-138.39 161.28,-133.34"/>
</a>
</g>
</g>
<!-- Node11 -->
<g id="Node000011" class="node">
<title>Node11</title>
<g id="a_Node000011"><a xlink:href="panoc-ocp_8tpp.html" target="_top" xlink:title=" ">
<polygon fill="white" stroke="#666666" points="134,-107 0,-107 0,-66 134,-66 134,-107"/>
<text text-anchor="start" x="8" y="-95" font-family="Helvetica,sans-Serif" font-size="10.00">src/alpaqa/include</text>
<text text-anchor="start" x="8" y="-84" font-family="Helvetica,sans-Serif" font-size="10.00">/alpaqa/implementation</text>
<text text-anchor="middle" x="67" y="-73" font-family="Helvetica,sans-Serif" font-size="10.00">/inner/panoc&#45;ocp.tpp</text>
</a>
</g>
</g>
<!-- Node10&#45;&gt;Node11 -->
<g id="edge11_Node000010_Node000011" class="edge">
<title>Node10&#45;&gt;Node11</title>
<g id="a_edge11_Node000010_Node000011"><a xlink:title=" ">
<path fill="none" stroke="#63b8ff" d="M110.91,-135.23C102.34,-125.91 92.92,-115.67 85.01,-107.07"/>
<polygon fill="#63b8ff" stroke="#63b8ff" points="108.52,-137.81 117.87,-142.79 113.68,-133.07 108.52,-137.81"/>
</a>
</g>
</g>
<!-- Node12 -->
<g id="Node000012" class="node">
<title>Node12</title>
<g id="a_Node000012"><a xlink:href="panoc-ocp_8cpp.html" target="_top" xlink:title=" ">
<polygon fill="white" stroke="#666666" points="123,-30 11,-30 11,0 123,0 123,-30"/>
<text text-anchor="start" x="19" y="-18" font-family="Helvetica,sans-Serif" font-size="10.00">src/alpaqa/src/inner</text>
<text text-anchor="middle" x="67" y="-7" font-family="Helvetica,sans-Serif" font-size="10.00">/panoc&#45;ocp.cpp</text>
</a>
</g>
</g>
<!-- Node11&#45;&gt;Node12 -->
<g id="edge12_Node000011_Node000012" class="edge">
<title>Node11&#45;&gt;Node12</title>
<g id="a_edge12_Node000011_Node000012"><a xlink:title=" ">
<path fill="none" stroke="#63b8ff" d="M67,-55.66C67,-46.76 67,-37.42 67,-30.04"/>
<polygon fill="#63b8ff" stroke="#63b8ff" points="63.5,-55.77 67,-65.77 70.5,-55.77 63.5,-55.77"/>
</a>
</g>
</g>
<!-- Node13&#45;&gt;Node5 -->
<g id="edge16_Node000013_Node000005" class="edge">
<title>Node13&#45;&gt;Node5</title>
<g id="a_edge16_Node000013_Node000005"><a xlink:title=" ">
<path fill="none" stroke="#63b8ff" d="M949.47,-138.41C947.68,-126.24 945.58,-111.9 944.06,-101.54"/>
<polygon fill="#63b8ff" stroke="#63b8ff" points="946.02,-139.01 950.93,-148.39 952.94,-137.99 946.02,-139.01"/>
</a>
</g>
</g>
<!-- Node14 -->
<g id="Node000014" class="node">
<title>Node14</title>
<g id="a_Node000014"><a xlink:href="alpaqa_8hpp.html" target="_top" xlink:title=" ">
<polygon fill="white" stroke="#666666" points="1128,-101.5 1018,-101.5 1018,-71.5 1128,-71.5 1128,-101.5"/>
<text text-anchor="start" x="1026" y="-89.5" font-family="Helvetica,sans-Serif" font-size="10.00">src/alpaqa/include</text>
<text text-anchor="middle" x="1073" y="-78.5" font-family="Helvetica,sans-Serif" font-size="10.00">/alpaqa/alpaqa.hpp</text>
</a>
</g>
</g>
<!-- Node13&#45;&gt;Node14 -->
<g id="edge15_Node000013_Node000014" class="edge">
<title>Node13&#45;&gt;Node14</title>
<g id="a_edge15_Node000013_Node000014"><a xlink:title=" ">
<path fill="none" stroke="#63b8ff" d="M984.07,-143.08C1004.88,-130.08 1031.79,-113.26 1050.53,-101.54"/>
<polygon fill="#63b8ff" stroke="#63b8ff" points="982.2,-140.13 975.57,-148.39 985.91,-146.06 982.2,-140.13"/>
</a>
</g>
</g>
<!-- Node15&#45;&gt;Node6 -->
<g id="edge18_Node000015_Node000006" class="edge">
<title>Node15&#45;&gt;Node6</title>
<g id="a_edge18_Node000015_Node000006"><a xlink:title=" ">
<path fill="none" stroke="#63b8ff" d="M506.13,-133.27C509.87,-122.49 513.94,-110.75 517.02,-101.86"/>
<polygon fill="#63b8ff" stroke="#63b8ff" points="502.8,-132.2 502.83,-142.79 509.41,-134.49 502.8,-132.2"/>
</a>
</g>
</g>
<!-- Node16&#45;&gt;Node7 -->
<g id="edge20_Node000016_Node000007" class="edge">
<title>Node16&#45;&gt;Node7</title>
<g id="a_edge20_Node000016_Node000007"><a xlink:title=" ">
<path fill="none" stroke="#63b8ff" d="M800.01,-132.61C799.3,-122.01 798.54,-110.57 797.96,-101.86"/>
<polygon fill="#63b8ff" stroke="#63b8ff" points="796.53,-133.05 800.69,-142.79 803.51,-132.58 796.53,-133.05"/>
</a>
</g>
</g>
</g>
</svg>
