<?xml version="1.0" encoding="UTF-8" standalone="no"?>
<!DOCTYPE svg PUBLIC "-//W3C//DTD SVG 1.1//EN"
 "http://www.w3.org/Graphics/SVG/1.1/DTD/svg11.dtd">
<!-- Generated by graphviz version 2.43.0 (0)
 -->
<!-- Title: load_problem Pages: 1 -->
<!--zoomable 259 -->

<svg id="main" version="1.1" xmlns="http://www.w3.org/2000/svg" xmlns:xlink="http://www.w3.org/1999/xlink" xml:space="preserve" onload="init(evt)">
<style type="text/css"><![CDATA[
.node, .edge {opacity: 0.7;}
.node.selected, .edge.selected {opacity: 1;}
.edge:hover path { stroke: red; }
.edge:hover polygon { stroke: red; fill: red; }
]]></style>

<defs>
  <circle id="rim" cx="0" cy="0" r="7"/>
  <circle id="rim2" cx="0" cy="0" r="3.5"/>
  <g id="zoomPlus">
    <use xlink:href="#rim" fill="#404040"><set attributeName="fill" to="#808080" begin="zoomplus.mouseover" end="zoomplus.mouseout"/></use>
    <path d="M-4,0h8M0,-4v8" fill="none" stroke="white" stroke-width="1.5" pointer-events="none"/>
  </g>
  <g id="zoomMin">
    <use xlink:href="#rim" fill="#404040"><set attributeName="fill" to="#808080" begin="zoomminus.mouseover" end="zoomminus.mouseout"/></use>
    <path d="M-4,0h8" fill="none" stroke="white" stroke-width="1.5" pointer-events="none"/>
  </g>
  <g id="arrowUp" transform="translate(30 24)">
    <use xlink:href="#rim"/>
    <path pointer-events="none" fill="none" stroke="white" stroke-width="1.5" d="M0,-3.0v7 M-2.5,-0.5L0,-3.0L2.5,-0.5"/>
  </g>
  <g id="arrowRight" transform="rotate(90) translate(36 -43)">
    <use xlink:href="#rim"/>
    <path pointer-events="none" fill="none" stroke="white" stroke-width="1.5" d="M0,-3.0v7 M-2.5,-0.5L0,-3.0L2.5,-0.5"/>
  </g>
  <g id="arrowDown" transform="rotate(180) translate(-30 -48)">
    <use xlink:href="#rim"/>
    <path pointer-events="none" fill="none" stroke="white" stroke-width="1.5" d="M0,-3.0v7 M-2.5,-0.5L0,-3.0L2.5,-0.5"/>
  </g>
  <g id="arrowLeft" transform="rotate(270) translate(-36 17)">
    <use xlink:href="#rim"/>
    <path pointer-events="none" fill="none" stroke="white" stroke-width="1.5" d="M0,-3.0v7 M-2.5,-0.5L0,-3.0L2.5,-0.5"/>
  </g>
  <g id="resetDef">
    <use xlink:href="#rim2" fill="#404040"><set attributeName="fill" to="#808080" begin="reset.mouseover" end="reset.mouseout"/></use>
  </g>
</defs>
<script type="application/ecmascript">
var viewWidth = 963;
var viewHeight = 259;
var sectionId = 'dynsection-1';
</script>
<script type="application/ecmascript" xlink:href="svg.min.js"/>
<svg id="graph" class="graph">
<g id="viewport">
<title>load_problem</title>
<!-- Node1 -->
<g id="Node000001" class="node">
<title>Node1</title>
<g id="a_Node000001"><a xlink:title=" ">
<polygon fill="#999999" stroke="#666666" points="83,-35.15 0,-35.15 0,-16.15 83,-16.15 83,-35.15"/>
<text text-anchor="middle" x="41.5" y="-23.15" font-family="Helvetica,sans-Serif" font-size="10.00">load_problem</text>
</a>
</g>
</g>
<!-- Node2 -->
<g id="Node000002" class="node">
<title>Node2</title>
<g id="a_Node000002"><a xlink:href="namespaceanonymous__namespace_02problem_8cpp_03.html#ae1c2ae0af996a5319970525430250542" target="_top" xlink:title=" ">
<polygon fill="white" stroke="#666666" points="254,-133.15 119,-133.15 119,-92.15 254,-92.15 254,-133.15"/>
<text text-anchor="start" x="127" y="-121.15" font-family="Helvetica,sans-Serif" font-size="10.00">anonymous_namespace</text>
<text text-anchor="start" x="127" y="-110.15" font-family="Helvetica,sans-Serif" font-size="10.00">{problem::cpp}::load</text>
<text text-anchor="middle" x="186.5" y="-99.15" font-family="Helvetica,sans-Serif" font-size="10.00">_dl_problem</text>
</a>
</g>
</g>
<!-- Node1&#45;&gt;Node2 -->
<g id="edge1_Node000001_Node000002" class="edge">
<title>Node1&#45;&gt;Node2</title>
<g id="a_edge1_Node000001_Node000002"><a xlink:title=" ">
<path fill="none" stroke="#63b8ff" d="M58.35,-35.29C78.65,-47.64 114.6,-69.51 143.11,-86.86"/>
<polygon fill="#63b8ff" stroke="#63b8ff" points="141.33,-89.87 151.7,-92.08 144.97,-83.89 141.33,-89.87"/>
</a>
</g>
</g>
<!-- Node10 -->
<g id="Node000010" class="node">
<title>Node10</title>
<g id="a_Node000010"><a xlink:href="classOptions.html#a502ee531f4e5cdc1c8dd78e9409a4e8e" target="_top" xlink:title=" ">
<polygon fill="white" stroke="#666666" points="768.5,-56.15 672.5,-56.15 672.5,-37.15 768.5,-37.15 768.5,-56.15"/>
<text text-anchor="middle" x="720.5" y="-44.15" font-family="Helvetica,sans-Serif" font-size="10.00">Options::options</text>
</a>
</g>
</g>
<!-- Node1&#45;&gt;Node10 -->
<g id="edge17_Node000001_Node000010" class="edge">
<title>Node1&#45;&gt;Node10</title>
<g id="a_edge17_Node000001_Node000010"><a xlink:title=" ">
<path fill="none" stroke="#63b8ff" d="M83.07,-26.9C198.45,-30.48 528.7,-40.73 662.34,-44.87"/>
<polygon fill="#63b8ff" stroke="#63b8ff" points="662.27,-48.37 672.37,-45.18 662.49,-41.38 662.27,-48.37"/>
</a>
</g>
</g>
<!-- Node14 -->
<g id="Node000014" class="node">
<title>Node14</title>
<g id="a_Node000014"><a xlink:href="classOptions.html#a12df8f934f6bafb37bf4e64529917d06" target="_top" xlink:title=" ">
<polygon fill="white" stroke="#666666" points="762,-19.15 679,-19.15 679,-0.15 762,-0.15 762,-19.15"/>
<text text-anchor="middle" x="720.5" y="-7.15" font-family="Helvetica,sans-Serif" font-size="10.00">Options::used</text>
</a>
</g>
</g>
<!-- Node1&#45;&gt;Node14 -->
<g id="edge18_Node000001_Node000014" class="edge">
<title>Node1&#45;&gt;Node14</title>
<g id="a_edge18_Node000001_Node000014"><a xlink:title=" ">
<path fill="none" stroke="#63b8ff" d="M83.21,-16.81C94.72,-14.69 107.3,-12.73 119,-11.65 321.99,7.12 565.22,-1.62 668.8,-6.79"/>
<polygon fill="#63b8ff" stroke="#63b8ff" points="668.8,-10.29 678.97,-7.31 669.16,-3.3 668.8,-10.29"/>
</a>
</g>
</g>
<!-- Node2&#45;&gt;Node2 -->
<g id="edge6_Node000002_Node000002" class="edge">
<title>Node2&#45;&gt;Node2</title>
<g id="a_edge6_Node000002_Node000002"><a xlink:title=" ">
<path fill="none" stroke="#63b8ff" d="M160.03,-133.24C157.15,-142.8 165.97,-151.15 186.5,-151.15 199.33,-151.15 207.59,-147.89 211.27,-143.11"/>
<polygon fill="#63b8ff" stroke="#63b8ff" points="214.73,-143.69 212.97,-133.24 207.83,-142.51 214.73,-143.69"/>
</a>
</g>
</g>
<!-- Node3 -->
<g id="Node000003" class="node">
<title>Node3</title>
<g id="a_Node000003"><a xlink:href="classalpaqa_1_1util_1_1TypeErased.html#aa90e763da394543aae1dfe5953688555" target="_top" xlink:title="Convert the type&#45;erased object to the given type.">
<polygon fill="white" stroke="#666666" points="440,-245.15 290,-245.15 290,-226.15 440,-226.15 440,-245.15"/>
<text text-anchor="middle" x="365" y="-233.15" font-family="Helvetica,sans-Serif" font-size="10.00">alpaqa::util::TypeErased::as</text>
</a>
</g>
</g>
<!-- Node2&#45;&gt;Node3 -->
<g id="edge2_Node000002_Node000003" class="edge">
<title>Node2&#45;&gt;Node3</title>
<g id="a_edge2_Node000002_Node000003"><a xlink:title=" ">
<path fill="none" stroke="#63b8ff" d="M202.01,-133.4C219.91,-157.4 252.6,-196.33 290,-217.65 293.08,-219.4 296.33,-220.99 299.67,-222.42"/>
<polygon fill="#63b8ff" stroke="#63b8ff" points="298.71,-225.8 309.3,-226.06 301.18,-219.25 298.71,-225.8"/>
</a>
</g>
</g>
<!-- Node5 -->
<g id="Node000005" class="node">
<title>Node5</title>
<g id="a_Node000005"><a xlink:href="namespaceanonymous__namespace_02problem_8cpp_03.html#aa3e6b9b05c276ab46ba86debee10f87e" target="_top" xlink:title=" ">
<polygon fill="white" stroke="#666666" points="432.5,-190.15 297.5,-190.15 297.5,-149.15 432.5,-149.15 432.5,-190.15"/>
<text text-anchor="start" x="305.5" y="-178.15" font-family="Helvetica,sans-Serif" font-size="10.00">anonymous_namespace</text>
<text text-anchor="start" x="305.5" y="-167.15" font-family="Helvetica,sans-Serif" font-size="10.00">{problem::cpp}::get</text>
<text text-anchor="middle" x="365" y="-156.15" font-family="Helvetica,sans-Serif" font-size="10.00">_prefix_option</text>
</a>
</g>
</g>
<!-- Node2&#45;&gt;Node5 -->
<g id="edge4_Node000002_Node000005" class="edge">
<title>Node2&#45;&gt;Node5</title>
<g id="a_edge4_Node000002_Node000005"><a xlink:title=" ">
<path fill="none" stroke="#63b8ff" d="M251.22,-133.22C263.97,-137.34 277.46,-141.7 290.5,-145.91"/>
<polygon fill="#63b8ff" stroke="#63b8ff" points="289.78,-149.36 300.37,-149.1 291.93,-142.69 289.78,-149.36"/>
</a>
</g>
</g>
<!-- Node6 -->
<g id="Node000006" class="node">
<title>Node6</title>
<g id="a_Node000006"><a xlink:href="namespaceanonymous__namespace_02problem_8cpp_03.html#ab42fb3dc0421d6c6c1f45d753a95a2c4" target="_top" xlink:title=" ">
<polygon fill="white" stroke="#666666" points="432.5,-113.15 297.5,-113.15 297.5,-72.15 432.5,-72.15 432.5,-113.15"/>
<text text-anchor="start" x="305.5" y="-101.15" font-family="Helvetica,sans-Serif" font-size="10.00">anonymous_namespace</text>
<text text-anchor="start" x="305.5" y="-90.15" font-family="Helvetica,sans-Serif" font-size="10.00">{problem::cpp}::load</text>
<text text-anchor="middle" x="365" y="-79.15" font-family="Helvetica,sans-Serif" font-size="10.00">_initial_guess</text>
</a>
</g>
</g>
<!-- Node2&#45;&gt;Node6 -->
<g id="edge7_Node000002_Node000006" class="edge">
<title>Node2&#45;&gt;Node6</title>
<g id="a_edge7_Node000002_Node000006"><a xlink:title=" ">
<path fill="none" stroke="#63b8ff" d="M254.23,-105.09C265.06,-103.86 276.36,-102.58 287.41,-101.32"/>
<polygon fill="#63b8ff" stroke="#63b8ff" points="287.93,-104.79 297.47,-100.18 287.14,-97.83 287.93,-104.79"/>
</a>
</g>
</g>
<!-- Node4 -->
<g id="Node000004" class="node">
<title>Node4</title>
<g id="a_Node000004"><a xlink:href="classalpaqa_1_1util_1_1TypeErased.html#af8c918a4d2bc243a10f9ab866c318fed" target="_top" xlink:title="Query the contained type.">
<polygon fill="white" stroke="#666666" points="618.5,-250.65 485.5,-250.65 485.5,-220.65 618.5,-220.65 618.5,-250.65"/>
<text text-anchor="start" x="493.5" y="-238.65" font-family="Helvetica,sans-Serif" font-size="10.00">alpaqa::util::TypeErased</text>
<text text-anchor="middle" x="552" y="-227.65" font-family="Helvetica,sans-Serif" font-size="10.00">::type</text>
</a>
</g>
</g>
<!-- Node3&#45;&gt;Node4 -->
<g id="edge3_Node000003_Node000004" class="edge">
<title>Node3&#45;&gt;Node4</title>
<g id="a_edge3_Node000003_Node000004"><a xlink:title=" ">
<path fill="none" stroke="#63b8ff" d="M440.18,-235.65C451.77,-235.65 463.75,-235.65 475.37,-235.65"/>
<polygon fill="#63b8ff" stroke="#63b8ff" points="475.46,-239.15 485.46,-235.65 475.46,-232.15 475.46,-239.15"/>
</a>
</g>
</g>
<!-- Node5&#45;&gt;Node5 -->
<g id="edge5_Node000005_Node000005" class="edge">
<title>Node5&#45;&gt;Node5</title>
<g id="a_edge5_Node000005_Node000005"><a xlink:title=" ">
<path fill="none" stroke="#63b8ff" d="M332.29,-190.24C328.72,-199.8 339.62,-208.15 365,-208.15 380.86,-208.15 391.07,-204.89 395.62,-200.11"/>
<polygon fill="#63b8ff" stroke="#63b8ff" points="399.06,-200.75 397.71,-190.24 392.22,-199.3 399.06,-200.75"/>
</a>
</g>
</g>
<!-- Node6&#45;&gt;Node6 -->
<g id="edge10_Node000006_Node000006" class="edge">
<title>Node6&#45;&gt;Node6</title>
<g id="a_edge10_Node000006_Node000006"><a xlink:title=" ">
<path fill="none" stroke="#63b8ff" d="M332.29,-113.24C328.72,-122.8 339.62,-131.15 365,-131.15 380.86,-131.15 391.07,-127.89 395.62,-123.11"/>
<polygon fill="#63b8ff" stroke="#63b8ff" points="399.06,-123.75 397.71,-113.24 392.22,-122.3 399.06,-123.75"/>
</a>
</g>
</g>
<!-- Node7 -->
<g id="Node000007" class="node">
<title>Node7</title>
<g id="a_Node000007"><a xlink:href="classalpaqa_1_1TypeErasedProblem.html#a4cb358cffb880a83ec60933c6d44cef4" target="_top" xlink:title="[Required] Number of constraints.">
<polygon fill="white" stroke="#666666" points="628,-83.65 476,-83.65 476,-53.65 628,-53.65 628,-83.65"/>
<text text-anchor="start" x="484" y="-71.65" font-family="Helvetica,sans-Serif" font-size="10.00">alpaqa::TypeErasedProblem</text>
<text text-anchor="middle" x="552" y="-60.65" font-family="Helvetica,sans-Serif" font-size="10.00">::get_m</text>
</a>
</g>
</g>
<!-- Node6&#45;&gt;Node7 -->
<g id="edge8_Node000006_Node000007" class="edge">
<title>Node6&#45;&gt;Node7</title>
<g id="a_edge8_Node000006_Node000007"><a xlink:title=" ">
<path fill="none" stroke="#63b8ff" d="M432.53,-84.02C443.31,-82.62 454.61,-81.15 465.77,-79.7"/>
<polygon fill="#63b8ff" stroke="#63b8ff" points="466.49,-83.14 475.96,-78.38 465.59,-76.2 466.49,-83.14"/>
</a>
</g>
</g>
<!-- Node8 -->
<g id="Node000008" class="node">
<title>Node8</title>
<g id="a_Node000008"><a xlink:href="classalpaqa_1_1TypeErasedProblem.html#a3e0872a0f29741da3d5429fce2749a34" target="_top" xlink:title="[Required] Number of decision variables.">
<polygon fill="white" stroke="#666666" points="628,-169.65 476,-169.65 476,-139.65 628,-139.65 628,-169.65"/>
<text text-anchor="start" x="484" y="-157.65" font-family="Helvetica,sans-Serif" font-size="10.00">alpaqa::TypeErasedProblem</text>
<text text-anchor="middle" x="552" y="-146.65" font-family="Helvetica,sans-Serif" font-size="10.00">::get_n</text>
</a>
</g>
</g>
<!-- Node6&#45;&gt;Node8 -->
<g id="edge9_Node000006_Node000008" class="edge">
<title>Node6&#45;&gt;Node8</title>
<g id="a_edge9_Node000006_Node000008"><a xlink:title=" ">
<path fill="none" stroke="#63b8ff" d="M424.72,-113.21C441.27,-118.93 459.32,-125.1 476,-130.65 481.65,-132.53 487.55,-134.46 493.45,-136.38"/>
<polygon fill="#63b8ff" stroke="#63b8ff" points="492.74,-139.83 503.34,-139.57 494.9,-133.17 492.74,-139.83"/>
</a>
</g>
</g>
<!-- Node9 -->
<g id="Node000009" class="node">
<title>Node9</title>
<g id="a_Node000009"><a xlink:href="options_8hpp.html#a15ce06eb1492a582a4abe2ddd5e7f8a1" target="_top" xlink:title=" ">
<polygon fill="white" stroke="#666666" points="589,-121.15 515,-121.15 515,-102.15 589,-102.15 589,-121.15"/>
<text text-anchor="middle" x="552" y="-109.15" font-family="Helvetica,sans-Serif" font-size="10.00">set_params</text>
</a>
</g>
</g>
<!-- Node6&#45;&gt;Node9 -->
<g id="edge11_Node000006_Node000009" class="edge">
<title>Node6&#45;&gt;Node9</title>
<g id="a_edge11_Node000006_Node000009"><a xlink:title=" ">
<path fill="none" stroke="#63b8ff" d="M432.53,-99.48C456.49,-101.94 482.99,-104.66 504.84,-106.91"/>
<polygon fill="#63b8ff" stroke="#63b8ff" points="504.54,-110.39 514.84,-107.93 505.25,-103.43 504.54,-110.39"/>
</a>
</g>
</g>
<!-- Node9&#45;&gt;Node10 -->
<g id="edge12_Node000009_Node000010" class="edge">
<title>Node9&#45;&gt;Node10</title>
<g id="a_edge12_Node000009_Node000010"><a xlink:title=" ">
<path fill="none" stroke="#63b8ff" d="M589.35,-104.12C601.78,-101.11 615.67,-97.25 628,-92.65 651.27,-83.97 676.38,-71.07 694.4,-61.14"/>
<polygon fill="#63b8ff" stroke="#63b8ff" points="696.11,-64.19 703.13,-56.25 692.69,-58.08 696.11,-64.19"/>
</a>
</g>
</g>
<!-- Node11 -->
<g id="Node000011" class="node">
<title>Node11</title>
<g id="a_Node000011"><a xlink:href="namespacealpaqa_1_1params.html#abadc98653193fbd05b658d62b34f75e7" target="_top" xlink:title="Overwrites t based on the options that start with prefix.">
<polygon fill="white" stroke="#666666" points="777,-126.65 664,-126.65 664,-96.65 777,-96.65 777,-126.65"/>
<text text-anchor="start" x="672" y="-114.65" font-family="Helvetica,sans-Serif" font-size="10.00">alpaqa::params::set</text>
<text text-anchor="middle" x="720.5" y="-103.65" font-family="Helvetica,sans-Serif" font-size="10.00">_params</text>
</a>
</g>
</g>
<!-- Node9&#45;&gt;Node11 -->
<g id="edge13_Node000009_Node000011" class="edge">
<title>Node9&#45;&gt;Node11</title>
<g id="a_edge13_Node000009_Node000011"><a xlink:title=" ">
<path fill="none" stroke="#63b8ff" d="M589.13,-111.65C607.95,-111.65 631.57,-111.65 653.52,-111.65"/>
<polygon fill="#63b8ff" stroke="#63b8ff" points="653.79,-115.15 663.79,-111.65 653.79,-108.15 653.79,-115.15"/>
</a>
</g>
</g>
<!-- Node9&#45;&gt;Node14 -->
<g id="edge16_Node000009_Node000014" class="edge">
<title>Node9&#45;&gt;Node14</title>
<g id="a_edge16_Node000009_Node000014"><a xlink:title=" ">
<path fill="none" stroke="#63b8ff" d="M589.19,-108.49C602.45,-105.86 616.91,-101.14 628,-92.65 653.92,-72.81 638.92,-49.52 664,-28.65 666.02,-26.96 668.2,-25.43 670.48,-24.03"/>
<polygon fill="#63b8ff" stroke="#63b8ff" points="672.42,-26.96 679.69,-19.26 669.2,-20.75 672.42,-26.96"/>
</a>
</g>
</g>
<!-- Node12 -->
<g id="Node000012" class="node">
<title>Node12</title>
<g id="a_Node000012"><a xlink:href="namespacealpaqa_1_1params.html#a0de0baee3dda47aba5143ba83bd11712" target="_top" xlink:title=" ">
<polygon fill="white" stroke="#666666" points="940.5,-147.65 827.5,-147.65 827.5,-117.65 940.5,-117.65 940.5,-147.65"/>
<text text-anchor="start" x="835.5" y="-135.65" font-family="Helvetica,sans-Serif" font-size="10.00">alpaqa::params::set</text>
<text text-anchor="middle" x="884" y="-124.65" font-family="Helvetica,sans-Serif" font-size="10.00">_param</text>
</a>
</g>
</g>
<!-- Node11&#45;&gt;Node12 -->
<g id="edge14_Node000011_Node000012" class="edge">
<title>Node11&#45;&gt;Node12</title>
<g id="a_edge14_Node000011_Node000012"><a xlink:title=" ">
<path fill="none" stroke="#63b8ff" d="M777.08,-118.87C790.02,-120.56 803.92,-122.36 817.26,-124.1"/>
<polygon fill="#63b8ff" stroke="#63b8ff" points="816.95,-127.59 827.32,-125.41 817.85,-120.65 816.95,-127.59"/>
</a>
</g>
</g>
<!-- Node13 -->
<g id="Node000013" class="node">
<title>Node13</title>
<g id="a_Node000013"><a xlink:href="namespacealpaqa_1_1params.html#aa3666becfea1ef2eb24d83f592c123e9" target="_top" xlink:title="Split the string full on the first occurrence of tok.">
<polygon fill="white" stroke="#666666" points="955,-99.15 813,-99.15 813,-80.15 955,-80.15 955,-99.15"/>
<text text-anchor="middle" x="884" y="-87.15" font-family="Helvetica,sans-Serif" font-size="10.00">alpaqa::params::split_key</text>
</a>
</g>
</g>
<!-- Node11&#45;&gt;Node13 -->
<g id="edge15_Node000011_Node000013" class="edge">
<title>Node11&#45;&gt;Node13</title>
<g id="a_edge15_Node000011_Node000013"><a xlink:title=" ">
<path fill="none" stroke="#63b8ff" d="M777.08,-104.08C785.5,-102.93 794.32,-101.73 803.13,-100.53"/>
<polygon fill="#63b8ff" stroke="#63b8ff" points="803.62,-103.99 813.05,-99.17 802.67,-97.06 803.62,-103.99"/>
</a>
</g>
</g>
</g>
</svg>

<g id="navigator" transform="translate(0 0)" fill="#404254">
  <rect fill="#f2f5e9" fill-opacity="0.5" stroke="#606060" stroke-width=".5" x="0" y="0" width="60" height="60"/>
  <use id="zoomplus" xlink:href="#zoomPlus" x="17" y="9" onmousedown="handleZoom(evt,'in')"/>
  <use id="zoomminus" xlink:href="#zoomMin" x="42" y="9" onmousedown="handleZoom(evt,'out')"/>
  <use id="reset" xlink:href="#resetDef" x="30" y="36" onmousedown="handleReset()"/>
   <use id="arrowup" xlink:href="#arrowUp" x="0" y="0" onmousedown="handlePan(0,-1)"/>
  <use id="arrowright" xlink:href="#arrowRight" x="0" y="0" onmousedown="handlePan(1,0)"/>
  <use id="arrowdown" xlink:href="#arrowDown" x="0" y="0" onmousedown="handlePan(0,1)"/>
  <use id="arrowleft" xlink:href="#arrowLeft" x="0" y="0" onmousedown="handlePan(-1,0)"/>
</g>
<svg viewBox="0 0 15 15" width="100%" height="30px" preserveAspectRatio="xMaxYMin meet">
 <g id="arrow_out" transform="scale(0.3 0.3)">
  <a xlink:href="problem_8cpp_ae36fc572e3716fb2dbe8ff77cfe1ee10_cgraph_org.svg" target="_base">
   <rect id="button" ry="5" rx="5" y="6" x="6" height="38" width="38"
        fill="#f2f5e9" fill-opacity="0.5" stroke="#606060" stroke-width="1.0"/>
   <path id="arrow"
     d="M 11.500037,31.436501 C 11.940474,20.09759 22.043105,11.32322 32.158766,21.979434 L 37.068811,17.246167 C 37.068811,17.246167 37.088388,32 37.088388,32 L 22.160133,31.978069 C 22.160133,31.978069 26.997745,27.140456 26.997745,27.140456 C 18.528582,18.264221 13.291696,25.230495 11.500037,31.436501 z"
     style="fill:#404040;"/>
  </a>
 </g>
</svg>

<style type='text/css'>
<![CDATA[
[data-mouse-over-selected='false'] { opacity: 0.7; }
[data-mouse-over-selected='true']  { opacity: 1.0; }
]]>
</style>
<script type="application/ecmascript"><![CDATA[
document.addEventListener('DOMContentLoaded', (event) => {
  highlightEdges();
  highlightAdjacentNodes();
});
]]></script>
</svg>
