<?xml version="1.0" encoding="UTF-8" standalone="no"?>
<!DOCTYPE svg PUBLIC "-//W3C//DTD SVG 1.1//EN"
 "http://www.w3.org/Graphics/SVG/1.1/DTD/svg11.dtd">
<!-- Generated by graphviz version 2.43.0 (0)
 -->
<!-- Title: ALMSolver&lt; InnerSolverT &gt;::Stats Pages: 1 -->
<svg width="164pt" height="306pt"
 viewBox="0.00 0.00 164.00 306.00" xmlns="http://www.w3.org/2000/svg" xmlns:xlink="http://www.w3.org/1999/xlink">
<g id="graph0" class="graph" transform="scale(1 1) rotate(0) translate(4 302)">
<title>ALMSolver&lt; InnerSolverT &gt;::Stats</title>
<!-- Node1 -->
<g id="Node000001" class="node">
<title>Node1</title>
<g id="a_Node000001"><a xlink:title=" ">
<polygon fill="#999999" stroke="transparent" points="156,-180 0,-180 0,0 156,0 156,-180"/>
<text text-anchor="start" x="15.5" y="-168" font-family="Helvetica,sans-Serif" font-size="10.00">ALMSolver&lt; InnerSolverT</text>
<text text-anchor="start" x="56.5" y="-157" font-family="Helvetica,sans-Serif" font-size="10.00"> &gt;::Stats</text>
<text text-anchor="start" x="4" y="-142" font-family="Helvetica,sans-Serif" font-size="10.00">+</text>
<text text-anchor="start" x="17" y="-142" font-family="Helvetica,sans-Serif" font-size="10.00">outer_iterations</text>
<text text-anchor="start" x="4" y="-127" font-family="Helvetica,sans-Serif" font-size="10.00">+</text>
<text text-anchor="start" x="17" y="-127" font-family="Helvetica,sans-Serif" font-size="10.00">elapsed_time</text>
<text text-anchor="start" x="4" y="-112" font-family="Helvetica,sans-Serif" font-size="10.00">+</text>
<text text-anchor="start" x="17" y="-112" font-family="Helvetica,sans-Serif" font-size="10.00">initial_penalty_reduced</text>
<text text-anchor="start" x="4" y="-97" font-family="Helvetica,sans-Serif" font-size="10.00">+</text>
<text text-anchor="start" x="17" y="-97" font-family="Helvetica,sans-Serif" font-size="10.00">penalty_reduced</text>
<text text-anchor="start" x="4" y="-82" font-family="Helvetica,sans-Serif" font-size="10.00">+</text>
<text text-anchor="start" x="17" y="-82" font-family="Helvetica,sans-Serif" font-size="10.00">inner_convergence_failures</text>
<text text-anchor="start" x="4" y="-67" font-family="Helvetica,sans-Serif" font-size="10.00">+</text>
<text text-anchor="start" x="17" y="-67" font-family="Helvetica,sans-Serif" font-size="10.00">ε</text>
<text text-anchor="start" x="4" y="-52" font-family="Helvetica,sans-Serif" font-size="10.00">+</text>
<text text-anchor="start" x="17" y="-52" font-family="Helvetica,sans-Serif" font-size="10.00">δ</text>
<text text-anchor="start" x="4" y="-37" font-family="Helvetica,sans-Serif" font-size="10.00">+</text>
<text text-anchor="start" x="17" y="-37" font-family="Helvetica,sans-Serif" font-size="10.00">norm_penalty</text>
<text text-anchor="start" x="4" y="-22" font-family="Helvetica,sans-Serif" font-size="10.00">+</text>
<text text-anchor="start" x="17" y="-22" font-family="Helvetica,sans-Serif" font-size="10.00">status</text>
<text text-anchor="start" x="76" y="-7" font-family="Helvetica,sans-Serif" font-size="10.00"> </text>
<polygon fill="#666666" stroke="#666666" points="0,-152 0,-152 156,-152 156,-152 0,-152"/>
<polygon fill="#666666" stroke="#666666" points="0,-17 0,-17 15,-17 15,-17 0,-17"/>
<polygon fill="#666666" stroke="#666666" points="15,-17 15,-17 156,-17 156,-17 15,-17"/>
<polygon fill="none" stroke="#666666" points="0,0 0,-180 156,-180 156,0 0,0"/>
</a>
</g>
</g>
<!-- Node2 -->
<g id="Node000002" class="node">
<title>Node2</title>
<g id="a_Node000002"><a xlink:href="namespacealpaqa.html#namespacealpaqa" target="_top" xlink:title=" ">
<polygon fill="white" stroke="transparent" points="143,-298 13,-298 13,-227 143,-227 143,-298"/>
<text text-anchor="start" x="18" y="-285.5" font-family="Helvetica,sans-Serif" font-size="10.00">InnerStatsAccumulator</text>
<text text-anchor="start" x="18" y="-274.5" font-family="Helvetica,sans-Serif" font-size="10.00">&lt; typename InnerSolver</text>
<text text-anchor="start" x="56.5" y="-263.5" font-family="Helvetica,sans-Serif" font-size="10.00">::Stats &gt;</text>
<text text-anchor="start" x="76" y="-248.5" font-family="Helvetica,sans-Serif" font-size="10.00"> </text>
<text text-anchor="start" x="76" y="-233.5" font-family="Helvetica,sans-Serif" font-size="10.00"> </text>
<polygon fill="#666666" stroke="#666666" points="13,-258.5 13,-258.5 143,-258.5 143,-258.5 13,-258.5"/>
<polygon fill="#666666" stroke="#666666" points="13,-243.5 13,-243.5 143,-243.5 143,-243.5 13,-243.5"/>
<polygon fill="none" stroke="#666666" points="13,-227 13,-298 143,-298 143,-227 13,-227"/>
</a>
</g>
</g>
<!-- Node2&#45;&gt;Node1 -->
<g id="edge1_Node000001_Node000002" class="edge">
<title>Node2&#45;&gt;Node1</title>
<g id="a_edge1_Node000001_Node000002"><a xlink:title=" ">
<path fill="none" stroke="#63b8ff" d="M78,-227C78,-216.6 78,-204.62 78,-192.17"/>
<polygon fill="none" stroke="#63b8ff" points="78,-192.12 74,-186.12 78,-180.12 82,-186.12 78,-192.12"/>
</a>
</g>
<text text-anchor="middle" x="96.5" y="-201" font-family="Helvetica,sans-Serif" font-size="10.00" fill="grey"> +inner</text>
</g>
</g>
</svg>
