<?xml version="1.0" encoding="UTF-8" standalone="no"?>
<!DOCTYPE svg PUBLIC "-//W3C//DTD SVG 1.1//EN"
 "http://www.w3.org/Graphics/SVG/1.1/DTD/svg11.dtd">
<!-- Generated by graphviz version 2.43.0 (0)
 -->
<!-- Title: compute_complement Pages: 1 -->
<svg width="320pt" height="198pt"
 viewBox="0.00 0.00 320.00 197.50" xmlns="http://www.w3.org/2000/svg" xmlns:xlink="http://www.w3.org/1999/xlink">
<g id="graph0" class="graph" transform="scale(1 1) rotate(0) translate(4 193.5)">
<title>compute_complement</title>
<!-- Node1 -->
<g id="Node000001" class="node">
<title>Node1</title>
<g id="a_Node000001"><a xlink:title=" ">
<polygon fill="#999999" stroke="#666666" points="312,-93 186,-93 186,-74 312,-74 312,-93"/>
<text text-anchor="middle" x="249" y="-81" font-family="Helvetica,sans-Serif" font-size="10.00">compute_complement</text>
</a>
</g>
</g>
<!-- Node1&#45;&gt;Node1 -->
<g id="edge4_Node000001_Node000001" class="edge">
<title>Node1&#45;&gt;Node1</title>
<g id="a_edge4_Node000001_Node000001"><a xlink:title=" ">
<path fill="none" stroke="#63b8ff" d="M281.56,-101.45C280.63,-106.82 269.78,-111 249,-111 218.07,-111 209.13,-101.73 222.18,-93.08"/>
<polygon fill="#63b8ff" stroke="#63b8ff" points="284.36,-99.35 275.82,-93.08 278.59,-103.31 284.36,-99.35"/>
</a>
</g>
</g>
<!-- Node2 -->
<g id="Node000002" class="node">
<title>Node2</title>
<g id="a_Node000002"><a xlink:href="structalpaqa_1_1NewtonTRDirection.html#a23d8f300b8c4eb814e1aef62ab9c6176" target="_top" xlink:title=" ">
<polygon fill="white" stroke="#666666" points="150,-189.5 0,-189.5 0,-159.5 150,-159.5 150,-189.5"/>
<text text-anchor="start" x="8" y="-177.5" font-family="Helvetica,sans-Serif" font-size="10.00">alpaqa::NewtonTRDirection</text>
<text text-anchor="middle" x="75" y="-166.5" font-family="Helvetica,sans-Serif" font-size="10.00">::apply</text>
</a>
</g>
</g>
<!-- Node1&#45;&gt;Node2 -->
<g id="edge1_Node000001_Node000002" class="edge">
<title>Node1&#45;&gt;Node2</title>
<g id="a_edge1_Node000001_Node000002"><a xlink:title=" ">
<path fill="none" stroke="#63b8ff" d="M228.38,-99.42C209.31,-114.28 179.03,-136.24 150,-150.5 143.33,-153.78 136.11,-156.75 128.89,-159.41"/>
<polygon fill="#63b8ff" stroke="#63b8ff" points="230.64,-102.1 236.32,-93.15 226.3,-96.6 230.64,-102.1"/>
</a>
</g>
</g>
<!-- Node3 -->
<g id="Node000003" class="node">
<title>Node3</title>
<g id="a_Node000003"><a xlink:href="structalpaqa_1_1StructuredNewtonDirection.html#ad02c79a109cef288e13bc9c944af3b48" target="_top" xlink:title=" ">
<polygon fill="white" stroke="#666666" points="146.5,-141.5 3.5,-141.5 3.5,-111.5 146.5,-111.5 146.5,-141.5"/>
<text text-anchor="start" x="11.5" y="-129.5" font-family="Helvetica,sans-Serif" font-size="10.00">alpaqa::StructuredNewton</text>
<text text-anchor="middle" x="75" y="-118.5" font-family="Helvetica,sans-Serif" font-size="10.00">Direction::apply</text>
</a>
</g>
</g>
<!-- Node1&#45;&gt;Node3 -->
<g id="edge2_Node000001_Node000003" class="edge">
<title>Node1&#45;&gt;Node3</title>
<g id="a_edge2_Node000001_Node000003"><a xlink:title=" ">
<path fill="none" stroke="#63b8ff" d="M200.08,-95.48C180.23,-100.44 156.99,-106.25 136.03,-111.49"/>
<polygon fill="#63b8ff" stroke="#63b8ff" points="200.98,-98.86 209.83,-93.04 199.28,-92.07 200.98,-98.86"/>
</a>
</g>
</g>
<!-- Node4 -->
<g id="Node000004" class="node">
<title>Node4</title>
<g id="a_Node000004"><a xlink:href="structalpaqa_1_1detail_1_1IndexSet.html#a5594e06797eddf3202aa328ddc4cb583" target="_top" xlink:title=" ">
<polygon fill="white" stroke="#666666" points="138,-93 12,-93 12,-74 138,-74 138,-93"/>
<text text-anchor="middle" x="75" y="-81" font-family="Helvetica,sans-Serif" font-size="10.00">compute_complement</text>
</a>
</g>
</g>
<!-- Node1&#45;&gt;Node4 -->
<g id="edge3_Node000001_Node000004" class="edge">
<title>Node1&#45;&gt;Node4</title>
<g id="a_edge3_Node000001_Node000004"><a xlink:title=" ">
<path fill="none" stroke="#63b8ff" d="M175.53,-83.5C163.05,-83.5 150.18,-83.5 138,-83.5"/>
<polygon fill="#63b8ff" stroke="#63b8ff" points="175.9,-87 185.9,-83.5 175.9,-80 175.9,-87"/>
</a>
</g>
</g>
<!-- Node5 -->
<g id="Node000005" class="node">
<title>Node5</title>
<g id="a_Node000005"><a xlink:href="structalpaqa_1_1detail_1_1IndexSet.html#a5da4752f7e899cc327e65e7690129f70" target="_top" xlink:title=" ">
<polygon fill="white" stroke="#666666" points="138,-56 12,-56 12,-37 138,-37 138,-56"/>
<text text-anchor="middle" x="75" y="-44" font-family="Helvetica,sans-Serif" font-size="10.00">compute_complement</text>
</a>
</g>
</g>
<!-- Node1&#45;&gt;Node5 -->
<g id="edge5_Node000001_Node000005" class="edge">
<title>Node1&#45;&gt;Node5</title>
<g id="a_edge5_Node000001_Node000005"><a xlink:title=" ">
<path fill="none" stroke="#63b8ff" d="M193.83,-71.85C170.21,-66.77 142.85,-60.88 120.44,-56.06"/>
<polygon fill="#63b8ff" stroke="#63b8ff" points="193.19,-75.29 203.71,-73.97 194.67,-68.45 193.19,-75.29"/>
</a>
</g>
</g>
<!-- Node6 -->
<g id="Node000006" class="node">
<title>Node6</title>
<g id="a_Node000006"><a xlink:href="structalpaqa_1_1detail_1_1IndexSet.html#ad8d66add92f514f8124024c6fb8e359d" target="_top" xlink:title=" ">
<polygon fill="white" stroke="#666666" points="100,-19 50,-19 50,0 100,0 100,-19"/>
<text text-anchor="middle" x="75" y="-7" font-family="Helvetica,sans-Serif" font-size="10.00">update</text>
</a>
</g>
</g>
<!-- Node1&#45;&gt;Node6 -->
<g id="edge6_Node000001_Node000006" class="edge">
<title>Node1&#45;&gt;Node6</title>
<g id="a_edge6_Node000001_Node000006"><a xlink:title=" ">
<path fill="none" stroke="#63b8ff" d="M225.23,-68.46C205.89,-56.26 177.04,-39.35 150,-28.5 133.87,-22.03 114.87,-17.21 100.16,-14.04"/>
<polygon fill="#63b8ff" stroke="#63b8ff" points="223.35,-71.42 233.65,-73.87 227.13,-65.52 223.35,-71.42"/>
</a>
</g>
</g>
</g>
</svg>
