<?xml version="1.0" encoding="UTF-8" standalone="no"?>
<!DOCTYPE svg PUBLIC "-//W3C//DTD SVG 1.1//EN"
 "http://www.w3.org/Graphics/SVG/1.1/DTD/svg11.dtd">
<!-- Generated by graphviz version 2.43.0 (0)
 -->
<!-- Title: src/alpaqa/include/alpaqa/problem/kkt&#45;error.hpp Pages: 1 -->
<!--zoomable 313 -->

<svg id="main" version="1.1" xmlns="http://www.w3.org/2000/svg" xmlns:xlink="http://www.w3.org/1999/xlink" xml:space="preserve" onload="init(evt)">
<style type="text/css"><![CDATA[
.node, .edge {opacity: 0.7;}
.node.selected, .edge.selected {opacity: 1;}
.edge:hover path { stroke: red; }
.edge:hover polygon { stroke: red; fill: red; }
]]></style>

<defs>
  <circle id="rim" cx="0" cy="0" r="7"/>
  <circle id="rim2" cx="0" cy="0" r="3.5"/>
  <g id="zoomPlus">
    <use xlink:href="#rim" fill="#404040"><set attributeName="fill" to="#808080" begin="zoomplus.mouseover" end="zoomplus.mouseout"/></use>
    <path d="M-4,0h8M0,-4v8" fill="none" stroke="white" stroke-width="1.5" pointer-events="none"/>
  </g>
  <g id="zoomMin">
    <use xlink:href="#rim" fill="#404040"><set attributeName="fill" to="#808080" begin="zoomminus.mouseover" end="zoomminus.mouseout"/></use>
    <path d="M-4,0h8" fill="none" stroke="white" stroke-width="1.5" pointer-events="none"/>
  </g>
  <g id="arrowUp" transform="translate(30 24)">
    <use xlink:href="#rim"/>
    <path pointer-events="none" fill="none" stroke="white" stroke-width="1.5" d="M0,-3.0v7 M-2.5,-0.5L0,-3.0L2.5,-0.5"/>
  </g>
  <g id="arrowRight" transform="rotate(90) translate(36 -43)">
    <use xlink:href="#rim"/>
    <path pointer-events="none" fill="none" stroke="white" stroke-width="1.5" d="M0,-3.0v7 M-2.5,-0.5L0,-3.0L2.5,-0.5"/>
  </g>
  <g id="arrowDown" transform="rotate(180) translate(-30 -48)">
    <use xlink:href="#rim"/>
    <path pointer-events="none" fill="none" stroke="white" stroke-width="1.5" d="M0,-3.0v7 M-2.5,-0.5L0,-3.0L2.5,-0.5"/>
  </g>
  <g id="arrowLeft" transform="rotate(270) translate(-36 17)">
    <use xlink:href="#rim"/>
    <path pointer-events="none" fill="none" stroke="white" stroke-width="1.5" d="M0,-3.0v7 M-2.5,-0.5L0,-3.0L2.5,-0.5"/>
  </g>
  <g id="resetDef">
    <use xlink:href="#rim2" fill="#404040"><set attributeName="fill" to="#808080" begin="reset.mouseover" end="reset.mouseout"/></use>
  </g>
</defs>
<script type="application/ecmascript">
var viewWidth = 1479;
var viewHeight = 313;
var sectionId = 'dynsection-1';
</script>
<script type="application/ecmascript" xlink:href="svg.min.js"/>
<svg id="graph" class="graph">
<g id="viewport">
<title>src/alpaqa/include/alpaqa/problem/kkt&#45;error.hpp</title>
<!-- Node1 -->
<g id="Node000001" class="node">
<title>Node1</title>
<g id="a_Node000001"><a xlink:title=" ">
<polygon fill="#999999" stroke="#666666" points="222.45,-305 107.45,-305 107.45,-264 222.45,-264 222.45,-305"/>
<text text-anchor="start" x="115.45" y="-293" font-family="Helvetica,sans-Serif" font-size="10.00">src/alpaqa/include</text>
<text text-anchor="start" x="115.45" y="-282" font-family="Helvetica,sans-Serif" font-size="10.00">/alpaqa/problem/kkt</text>
<text text-anchor="middle" x="164.95" y="-271" font-family="Helvetica,sans-Serif" font-size="10.00">&#45;error.hpp</text>
</a>
</g>
</g>
<!-- Node2 -->
<g id="Node000002" class="node">
<title>Node2</title>
<g id="a_Node000002"><a xlink:href="alpaqa-driver_8cpp.html" target="_top" xlink:title=" ">
<polygon fill="white" stroke="#666666" points="351.95,-30 235.95,-30 235.95,0 351.95,0 351.95,-30"/>
<text text-anchor="start" x="243.95" y="-18" font-family="Helvetica,sans-Serif" font-size="10.00">src/alpaqa/src/driver</text>
<text text-anchor="middle" x="293.95" y="-7" font-family="Helvetica,sans-Serif" font-size="10.00">/alpaqa&#45;driver.cpp</text>
</a>
</g>
</g>
<!-- Node1&#45;&gt;Node2 -->
<g id="edge1_Node000001_Node000002" class="edge">
<title>Node1&#45;&gt;Node2</title>
<g id="a_edge1_Node000001_Node000002"><a xlink:title=" ">
<path fill="none" stroke="#63b8ff" d="M124.77,-257.84C64.06,-215.97 -38.48,-131.09 15.95,-66 43.4,-33.18 162.6,-21.87 235.71,-18"/>
<polygon fill="#63b8ff" stroke="#63b8ff" points="123.16,-260.98 133.4,-263.7 127.09,-255.19 123.16,-260.98"/>
</a>
</g>
</g>
<!-- Node3 -->
<g id="Node000003" class="node">
<title>Node3</title>
<g id="a_Node000003"><a xlink:href="results_8hpp.html" target="_top" xlink:title=" ">
<polygon fill="white" stroke="#666666" points="418.95,-228 302.95,-228 302.95,-198 418.95,-198 418.95,-228"/>
<text text-anchor="start" x="310.95" y="-216" font-family="Helvetica,sans-Serif" font-size="10.00">src/alpaqa/src/driver</text>
<text text-anchor="middle" x="360.95" y="-205" font-family="Helvetica,sans-Serif" font-size="10.00">/results.hpp</text>
</a>
</g>
</g>
<!-- Node1&#45;&gt;Node3 -->
<g id="edge2_Node000001_Node000003" class="edge">
<title>Node1&#45;&gt;Node3</title>
<g id="a_edge2_Node000001_Node000003"><a xlink:title=" ">
<path fill="none" stroke="#63b8ff" d="M229.73,-260.53C260.05,-249.78 295.18,-237.32 321.46,-228"/>
<polygon fill="#63b8ff" stroke="#63b8ff" points="228.33,-257.31 220.07,-263.96 230.66,-263.91 228.33,-257.31"/>
</a>
</g>
</g>
<!-- Node3&#45;&gt;Node2 -->
<g id="edge6_Node000003_Node000002" class="edge">
<title>Node3&#45;&gt;Node2</title>
<g id="a_edge6_Node000003_Node000002"><a xlink:title=" ">
<path fill="none" stroke="#63b8ff" d="M292.49,-210.68C212.95,-204.99 85.09,-182.04 25.95,-96 18.4,-85.01 17.43,-76.26 25.95,-66 52.07,-34.55 164.98,-22.78 235.65,-18.45"/>
<polygon fill="#63b8ff" stroke="#63b8ff" points="292.69,-214.2 302.9,-211.34 293.14,-207.21 292.69,-214.2"/>
</a>
</g>
</g>
<!-- Node4 -->
<g id="Node000004" class="node">
<title>Node4</title>
<g id="a_Node000004"><a xlink:href="alm-driver_8hpp.html" target="_top" xlink:title=" ">
<polygon fill="white" stroke="#666666" points="1470.95,-96 1354.95,-96 1354.95,-66 1470.95,-66 1470.95,-96"/>
<text text-anchor="start" x="1362.95" y="-84" font-family="Helvetica,sans-Serif" font-size="10.00">src/alpaqa/src/driver</text>
<text text-anchor="middle" x="1412.95" y="-73" font-family="Helvetica,sans-Serif" font-size="10.00">/alm&#45;driver.hpp</text>
</a>
</g>
</g>
<!-- Node3&#45;&gt;Node4 -->
<g id="edge3_Node000003_Node000004" class="edge">
<title>Node3&#45;&gt;Node4</title>
<g id="a_edge3_Node000003_Node000004"><a xlink:title=" ">
<path fill="none" stroke="#63b8ff" d="M429.37,-207.06C532.16,-199.32 732.49,-183.03 901.95,-162 1090.78,-138.57 1137,-125.61 1324.95,-96 1334.58,-94.48 1344.8,-92.86 1354.73,-91.29"/>
<polygon fill="#63b8ff" stroke="#63b8ff" points="428.83,-203.59 419.12,-207.83 429.36,-210.57 428.83,-203.59"/>
</a>
</g>
</g>
<!-- Node7 -->
<g id="Node000007" class="node">
<title>Node7</title>
<g id="a_Node000007"><a xlink:href="ipopt-driver_8hpp.html" target="_top" xlink:title=" ">
<polygon fill="white" stroke="#666666" points="150.95,-96 34.95,-96 34.95,-66 150.95,-66 150.95,-96"/>
<text text-anchor="start" x="42.95" y="-84" font-family="Helvetica,sans-Serif" font-size="10.00">src/alpaqa/src/driver</text>
<text text-anchor="middle" x="92.95" y="-73" font-family="Helvetica,sans-Serif" font-size="10.00">/ipopt&#45;driver.hpp</text>
</a>
</g>
</g>
<!-- Node3&#45;&gt;Node7 -->
<g id="edge7_Node000003_Node000007" class="edge">
<title>Node3&#45;&gt;Node7</title>
<g id="a_edge7_Node000003_Node000007"><a xlink:title=" ">
<path fill="none" stroke="#63b8ff" d="M322.76,-193.48C268.66,-167.23 170.88,-119.8 122.17,-96.17"/>
<polygon fill="#63b8ff" stroke="#63b8ff" points="321.49,-196.75 332.02,-197.96 324.55,-190.45 321.49,-196.75"/>
</a>
</g>
</g>
<!-- Node8 -->
<g id="Node000008" class="node">
<title>Node8</title>
<g id="a_Node000008"><a xlink:href="lbfgsb-driver_8hpp.html" target="_top" xlink:title=" ">
<polygon fill="white" stroke="#666666" points="418.95,-96 302.95,-96 302.95,-66 418.95,-66 418.95,-96"/>
<text text-anchor="start" x="310.95" y="-84" font-family="Helvetica,sans-Serif" font-size="10.00">src/alpaqa/src/driver</text>
<text text-anchor="middle" x="360.95" y="-73" font-family="Helvetica,sans-Serif" font-size="10.00">/lbfgsb&#45;driver.hpp</text>
</a>
</g>
</g>
<!-- Node3&#45;&gt;Node8 -->
<g id="edge9_Node000003_Node000008" class="edge">
<title>Node3&#45;&gt;Node8</title>
<g id="a_edge9_Node000003_Node000008"><a xlink:title=" ">
<path fill="none" stroke="#63b8ff" d="M360.95,-187.68C360.95,-160.7 360.95,-118.11 360.95,-96.14"/>
<polygon fill="#63b8ff" stroke="#63b8ff" points="357.45,-187.84 360.95,-197.84 364.45,-187.84 357.45,-187.84"/>
</a>
</g>
</g>
<!-- Node9 -->
<g id="Node000009" class="node">
<title>Node9</title>
<g id="a_Node000009"><a xlink:href="panoc-driver_8hpp.html" target="_top" xlink:title=" ">
<polygon fill="white" stroke="#666666" points="1030.95,-96 914.95,-96 914.95,-66 1030.95,-66 1030.95,-96"/>
<text text-anchor="start" x="922.95" y="-84" font-family="Helvetica,sans-Serif" font-size="10.00">src/alpaqa/src/driver</text>
<text text-anchor="middle" x="972.95" y="-73" font-family="Helvetica,sans-Serif" font-size="10.00">/panoc&#45;driver.hpp</text>
</a>
</g>
</g>
<!-- Node3&#45;&gt;Node9 -->
<g id="edge11_Node000003_Node000009" class="edge">
<title>Node3&#45;&gt;Node9</title>
<g id="a_edge11_Node000003_Node000009"><a xlink:title=" ">
<path fill="none" stroke="#63b8ff" d="M429.37,-206.75C504.72,-200.06 629.1,-186.34 733.95,-162 808.11,-144.78 891.87,-114.01 937.92,-96.07"/>
<polygon fill="#63b8ff" stroke="#63b8ff" points="428.73,-203.29 419.07,-207.65 429.34,-210.27 428.73,-203.29"/>
</a>
</g>
</g>
<!-- Node10 -->
<g id="Node000010" class="node">
<title>Node10</title>
<g id="a_Node000010"><a xlink:href="pantr-driver_8hpp.html" target="_top" xlink:title=" ">
<polygon fill="white" stroke="#666666" points="1298.95,-96 1182.95,-96 1182.95,-66 1298.95,-66 1298.95,-96"/>
<text text-anchor="start" x="1190.95" y="-84" font-family="Helvetica,sans-Serif" font-size="10.00">src/alpaqa/src/driver</text>
<text text-anchor="middle" x="1240.95" y="-73" font-family="Helvetica,sans-Serif" font-size="10.00">/pantr&#45;driver.hpp</text>
</a>
</g>
</g>
<!-- Node3&#45;&gt;Node10 -->
<g id="edge14_Node000003_Node000010" class="edge">
<title>Node3&#45;&gt;Node10</title>
<g id="a_edge14_Node000003_Node000010"><a xlink:title=" ">
<path fill="none" stroke="#63b8ff" d="M429.43,-205.41C515.43,-196.85 667.43,-180.75 796.95,-162 965.3,-137.63 1006.9,-128.07 1173.95,-96 1176.87,-95.44 1179.86,-94.86 1182.87,-94.26"/>
<polygon fill="#63b8ff" stroke="#63b8ff" points="428.88,-201.95 419.27,-206.42 429.57,-208.91 428.88,-201.95"/>
</a>
</g>
</g>
<!-- Node11 -->
<g id="Node000011" class="node">
<title>Node11</title>
<g id="a_Node000011"><a xlink:href="qpalm-driver_8hpp.html" target="_top" xlink:title=" ">
<polygon fill="white" stroke="#666666" points="284.95,-96 168.95,-96 168.95,-66 284.95,-66 284.95,-96"/>
<text text-anchor="start" x="176.95" y="-84" font-family="Helvetica,sans-Serif" font-size="10.00">src/alpaqa/src/driver</text>
<text text-anchor="middle" x="226.95" y="-73" font-family="Helvetica,sans-Serif" font-size="10.00">/qpalm&#45;driver.hpp</text>
</a>
</g>
</g>
<!-- Node3&#45;&gt;Node11 -->
<g id="edge17_Node000003_Node000011" class="edge">
<title>Node3&#45;&gt;Node11</title>
<g id="a_edge17_Node000003_Node000011"><a xlink:title=" ">
<path fill="none" stroke="#63b8ff" d="M339.14,-190.84C311.62,-164.15 265.08,-118.99 241.53,-96.14"/>
<polygon fill="#63b8ff" stroke="#63b8ff" points="336.74,-193.39 346.36,-197.84 341.62,-188.36 336.74,-193.39"/>
</a>
</g>
</g>
<!-- Node12 -->
<g id="Node000012" class="node">
<title>Node12</title>
<g id="a_Node000012"><a xlink:href="solver-driver_8hpp.html" target="_top" xlink:title=" ">
<polygon fill="white" stroke="#666666" points="724.95,-162 608.95,-162 608.95,-132 724.95,-132 724.95,-162"/>
<text text-anchor="start" x="616.95" y="-150" font-family="Helvetica,sans-Serif" font-size="10.00">src/alpaqa/src/driver</text>
<text text-anchor="middle" x="666.95" y="-139" font-family="Helvetica,sans-Serif" font-size="10.00">/solver&#45;driver.hpp</text>
</a>
</g>
</g>
<!-- Node3&#45;&gt;Node12 -->
<g id="edge19_Node000003_Node000012" class="edge">
<title>Node3&#45;&gt;Node12</title>
<g id="a_edge19_Node000003_Node000012"><a xlink:title=" ">
<path fill="none" stroke="#63b8ff" d="M429.06,-197.76C483.06,-186.46 557.7,-170.85 608.89,-160.14"/>
<polygon fill="#63b8ff" stroke="#63b8ff" points="428.3,-194.34 419.23,-199.81 429.73,-201.19 428.3,-194.34"/>
</a>
</g>
</g>
<!-- Node5 -->
<g id="Node000005" class="node">
<title>Node5</title>
<g id="a_Node000005"><a xlink:href="panoc-driver_8cpp.html" target="_top" xlink:title=" ">
<polygon fill="white" stroke="#666666" points="1130.95,-30 1014.95,-30 1014.95,0 1130.95,0 1130.95,-30"/>
<text text-anchor="start" x="1022.95" y="-18" font-family="Helvetica,sans-Serif" font-size="10.00">src/alpaqa/src/driver</text>
<text text-anchor="middle" x="1072.95" y="-7" font-family="Helvetica,sans-Serif" font-size="10.00">/panoc&#45;driver.cpp</text>
</a>
</g>
</g>
<!-- Node4&#45;&gt;Node5 -->
<g id="edge4_Node000004_Node000005" class="edge">
<title>Node4&#45;&gt;Node5</title>
<g id="a_edge4_Node000004_Node000005"><a xlink:title=" ">
<path fill="none" stroke="#63b8ff" d="M1344.71,-67.15C1282.07,-55.36 1190.27,-38.08 1131.06,-26.94"/>
<polygon fill="#63b8ff" stroke="#63b8ff" points="1344.41,-70.66 1354.89,-69.07 1345.71,-63.78 1344.41,-70.66"/>
</a>
</g>
</g>
<!-- Node6 -->
<g id="Node000006" class="node">
<title>Node6</title>
<g id="a_Node000006"><a xlink:href="pantr-driver_8cpp.html" target="_top" xlink:title=" ">
<polygon fill="white" stroke="#666666" points="1331.95,-30 1215.95,-30 1215.95,0 1331.95,0 1331.95,-30"/>
<text text-anchor="start" x="1223.95" y="-18" font-family="Helvetica,sans-Serif" font-size="10.00">src/alpaqa/src/driver</text>
<text text-anchor="middle" x="1273.95" y="-7" font-family="Helvetica,sans-Serif" font-size="10.00">/pantr&#45;driver.cpp</text>
</a>
</g>
</g>
<!-- Node4&#45;&gt;Node6 -->
<g id="edge5_Node000004_Node000006" class="edge">
<title>Node4&#45;&gt;Node6</title>
<g id="a_edge5_Node000004_Node000006"><a xlink:title=" ">
<path fill="none" stroke="#63b8ff" d="M1373.1,-61.65C1351.23,-51.58 1324.56,-39.3 1304.38,-30.01"/>
<polygon fill="#63b8ff" stroke="#63b8ff" points="1371.9,-64.95 1382.45,-65.95 1374.83,-58.59 1371.9,-64.95"/>
</a>
</g>
</g>
<!-- Node7&#45;&gt;Node2 -->
<g id="edge8_Node000007_Node000002" class="edge">
<title>Node7&#45;&gt;Node2</title>
<g id="a_edge8_Node000007_Node000002"><a xlink:title=" ">
<path fill="none" stroke="#63b8ff" d="M146.79,-62.86C179.07,-52.58 219.6,-39.68 249.94,-30.01"/>
<polygon fill="#63b8ff" stroke="#63b8ff" points="145.53,-59.59 137.06,-65.95 147.65,-66.26 145.53,-59.59"/>
</a>
</g>
</g>
<!-- Node8&#45;&gt;Node2 -->
<g id="edge10_Node000008_Node000002" class="edge">
<title>Node8&#45;&gt;Node2</title>
<g id="a_edge10_Node000008_Node000002"><a xlink:title=" ">
<path fill="none" stroke="#63b8ff" d="M338.6,-58.65C328.78,-49.27 317.53,-38.53 308.78,-30.16"/>
<polygon fill="#63b8ff" stroke="#63b8ff" points="336.43,-61.42 346.08,-65.8 341.27,-56.36 336.43,-61.42"/>
</a>
</g>
</g>
<!-- Node9&#45;&gt;Node2 -->
<g id="edge12_Node000009_Node000002" class="edge">
<title>Node9&#45;&gt;Node2</title>
<g id="a_edge12_Node000009_Node000002"><a xlink:title=" ">
<path fill="none" stroke="#63b8ff" d="M904.58,-70.42C892.39,-68.85 879.8,-67.31 867.95,-66 679.78,-45.27 456.13,-27.86 352.29,-20.2"/>
<polygon fill="#63b8ff" stroke="#63b8ff" points="904.32,-73.92 914.69,-71.75 905.23,-66.98 904.32,-73.92"/>
</a>
</g>
</g>
<!-- Node9&#45;&gt;Node5 -->
<g id="edge13_Node000009_Node000005" class="edge">
<title>Node9&#45;&gt;Node5</title>
<g id="a_edge13_Node000009_Node000005"><a xlink:title=" ">
<path fill="none" stroke="#63b8ff" d="M1003.73,-60.3C1018.95,-50.56 1036.98,-39.02 1050.82,-30.16"/>
<polygon fill="#63b8ff" stroke="#63b8ff" points="1001.68,-57.46 995.14,-65.8 1005.45,-63.35 1001.68,-57.46"/>
</a>
</g>
</g>
<!-- Node10&#45;&gt;Node2 -->
<g id="edge15_Node000010_Node000002" class="edge">
<title>Node10&#45;&gt;Node2</title>
<g id="a_edge15_Node000010_Node000002"><a xlink:title=" ">
<path fill="none" stroke="#63b8ff" d="M1172.71,-65.98C858.2,-25.17 492.03,-17.7 352.15,-16.31"/>
<polygon fill="#63b8ff" stroke="#63b8ff" points="1172.57,-69.49 1182.94,-67.33 1173.48,-62.55 1172.57,-69.49"/>
</a>
</g>
</g>
<!-- Node10&#45;&gt;Node6 -->
<g id="edge16_Node000010_Node000006" class="edge">
<title>Node10&#45;&gt;Node6</title>
<g id="a_edge16_Node000010_Node000006"><a xlink:title=" ">
<path fill="none" stroke="#63b8ff" d="M1252.98,-56.68C1257.56,-47.79 1262.64,-37.95 1266.65,-30.16"/>
<polygon fill="#63b8ff" stroke="#63b8ff" points="1249.75,-55.3 1248.28,-65.8 1255.97,-58.51 1249.75,-55.3"/>
</a>
</g>
</g>
<!-- Node11&#45;&gt;Node2 -->
<g id="edge18_Node000011_Node000002" class="edge">
<title>Node11&#45;&gt;Node2</title>
<g id="a_edge18_Node000011_Node000002"><a xlink:title=" ">
<path fill="none" stroke="#63b8ff" d="M249.31,-58.65C259.12,-49.27 270.37,-38.53 279.12,-30.16"/>
<polygon fill="#63b8ff" stroke="#63b8ff" points="246.63,-56.36 241.82,-65.8 251.47,-61.42 246.63,-56.36"/>
</a>
</g>
</g>
<!-- Node12&#45;&gt;Node2 -->
<g id="edge20_Node000012_Node000002" class="edge">
<title>Node12&#45;&gt;Node2</title>
<g id="a_edge20_Node000012_Node000002"><a xlink:title=" ">
<path fill="none" stroke="#63b8ff" d="M598.87,-136.47C558.72,-129.07 507.77,-116.51 465.95,-96 446.63,-86.52 446.7,-76.56 427.95,-66 401.01,-50.84 368.58,-38.59 342.37,-30.02"/>
<polygon fill="#63b8ff" stroke="#63b8ff" points="598.37,-139.93 608.83,-138.24 599.59,-133.04 598.37,-139.93"/>
</a>
</g>
</g>
<!-- Node12&#45;&gt;Node5 -->
<g id="edge28_Node000012_Node000005" class="edge">
<title>Node12&#45;&gt;Node5</title>
<g id="a_edge28_Node000012_Node000005"><a xlink:title=" ">
<path fill="none" stroke="#63b8ff" d="M735.04,-136.47C775.18,-129.07 826.14,-116.51 867.95,-96 887.27,-86.52 886.86,-75.93 905.95,-66 940.19,-48.19 981.74,-35.72 1014.84,-27.69"/>
<polygon fill="#63b8ff" stroke="#63b8ff" points="734.31,-133.04 725.08,-138.24 735.54,-139.93 734.31,-133.04"/>
</a>
</g>
</g>
<!-- Node12&#45;&gt;Node6 -->
<g id="edge30_Node000012_Node000006" class="edge">
<title>Node12&#45;&gt;Node6</title>
<g id="a_edge30_Node000012_Node000006"><a xlink:title=" ">
<path fill="none" stroke="#63b8ff" d="M735.22,-145.79C892.47,-144.59 1269.66,-137.39 1307.95,-96 1325.58,-76.95 1304.17,-47.38 1288.22,-30.03"/>
<polygon fill="#63b8ff" stroke="#63b8ff" points="735.17,-142.29 725.19,-145.86 735.22,-149.29 735.17,-142.29"/>
</a>
</g>
</g>
<!-- Node12&#45;&gt;Node7 -->
<g id="edge25_Node000012_Node000007" class="edge">
<title>Node12&#45;&gt;Node7</title>
<g id="a_edge25_Node000012_Node000007"><a xlink:title=" ">
<path fill="none" stroke="#63b8ff" d="M598.88,-141.63C501.3,-134.83 316.16,-119.95 159.95,-96 157.01,-95.55 154.01,-95.05 150.99,-94.53"/>
<polygon fill="#63b8ff" stroke="#63b8ff" points="598.69,-145.12 608.91,-142.32 599.18,-138.14 598.69,-145.12"/>
</a>
</g>
</g>
<!-- Node12&#45;&gt;Node8 -->
<g id="edge27_Node000012_Node000008" class="edge">
<title>Node12&#45;&gt;Node8</title>
<g id="a_edge27_Node000012_Node000008"><a xlink:title=" ">
<path fill="none" stroke="#63b8ff" d="M598.84,-131.76C544.84,-120.46 470.2,-104.85 419.01,-94.14"/>
<polygon fill="#63b8ff" stroke="#63b8ff" points="598.17,-135.19 608.67,-133.81 599.6,-128.34 598.17,-135.19"/>
</a>
</g>
</g>
<!-- Node12&#45;&gt;Node9 -->
<g id="edge29_Node000012_Node000009" class="edge">
<title>Node12&#45;&gt;Node9</title>
<g id="a_edge29_Node000012_Node000009"><a xlink:title=" ">
<path fill="none" stroke="#63b8ff" d="M735.06,-131.76C789.06,-120.46 863.7,-104.85 914.89,-94.14"/>
<polygon fill="#63b8ff" stroke="#63b8ff" points="734.3,-128.34 725.23,-133.81 735.73,-135.19 734.3,-128.34"/>
</a>
</g>
</g>
<!-- Node12&#45;&gt;Node10 -->
<g id="edge31_Node000012_Node000010" class="edge">
<title>Node12&#45;&gt;Node10</title>
<g id="a_edge31_Node000012_Node000010"><a xlink:title=" ">
<path fill="none" stroke="#63b8ff" d="M735.02,-141.63C832.61,-134.83 1017.74,-119.95 1173.95,-96 1176.89,-95.55 1179.89,-95.05 1182.92,-94.53"/>
<polygon fill="#63b8ff" stroke="#63b8ff" points="734.73,-138.14 724.99,-142.32 735.21,-145.12 734.73,-138.14"/>
</a>
</g>
</g>
<!-- Node12&#45;&gt;Node11 -->
<g id="edge33_Node000012_Node000011" class="edge">
<title>Node12&#45;&gt;Node11</title>
<g id="a_edge33_Node000012_Node000011"><a xlink:title=" ">
<path fill="none" stroke="#63b8ff" d="M598.68,-138.36C523.71,-129.62 399.89,-114.14 293.95,-96 291.02,-95.5 288.03,-94.96 285.01,-94.4"/>
<polygon fill="#63b8ff" stroke="#63b8ff" points="598.59,-141.87 608.93,-139.55 599.39,-134.92 598.59,-141.87"/>
</a>
</g>
</g>
<!-- Node13 -->
<g id="Node000013" class="node">
<title>Node13</title>
<g id="a_Node000013"><a xlink:href="extra-stats_8hpp.html" target="_top" xlink:title=" ">
<polygon fill="white" stroke="#666666" points="1164.95,-96 1048.95,-96 1048.95,-66 1164.95,-66 1164.95,-96"/>
<text text-anchor="start" x="1056.95" y="-84" font-family="Helvetica,sans-Serif" font-size="10.00">src/alpaqa/src/driver</text>
<text text-anchor="middle" x="1106.95" y="-73" font-family="Helvetica,sans-Serif" font-size="10.00">/extra&#45;stats.hpp</text>
</a>
</g>
</g>
<!-- Node12&#45;&gt;Node13 -->
<g id="edge21_Node000012_Node000013" class="edge">
<title>Node12&#45;&gt;Node13</title>
<g id="a_edge21_Node000012_Node000013"><a xlink:title=" ">
<path fill="none" stroke="#63b8ff" d="M735.22,-138.36C810.19,-129.62 934.01,-114.14 1039.95,-96 1042.88,-95.5 1045.87,-94.96 1048.9,-94.4"/>
<polygon fill="#63b8ff" stroke="#63b8ff" points="734.51,-134.92 724.98,-139.55 735.31,-141.87 734.51,-134.92"/>
</a>
</g>
</g>
<!-- Node14 -->
<g id="Node000014" class="node">
<title>Node14</title>
<g id="a_Node000014"><a xlink:href="ipopt-driver_8cpp.html" target="_top" xlink:title=" ">
<polygon fill="white" stroke="#666666" points="724.95,-96 608.95,-96 608.95,-66 724.95,-66 724.95,-96"/>
<text text-anchor="start" x="616.95" y="-84" font-family="Helvetica,sans-Serif" font-size="10.00">src/alpaqa/src/driver</text>
<text text-anchor="middle" x="666.95" y="-73" font-family="Helvetica,sans-Serif" font-size="10.00">/ipopt&#45;driver.cpp</text>
</a>
</g>
</g>
<!-- Node12&#45;&gt;Node14 -->
<g id="edge24_Node000012_Node000014" class="edge">
<title>Node12&#45;&gt;Node14</title>
<g id="a_edge24_Node000012_Node000014"><a xlink:title=" ">
<path fill="none" stroke="#63b8ff" d="M666.95,-121.54C666.95,-112.96 666.95,-103.61 666.95,-96.16"/>
<polygon fill="#63b8ff" stroke="#63b8ff" points="663.45,-121.8 666.95,-131.8 670.45,-121.8 663.45,-121.8"/>
</a>
</g>
</g>
<!-- Node15 -->
<g id="Node000015" class="node">
<title>Node15</title>
<g id="a_Node000015"><a xlink:href="lbfgsb-driver_8cpp.html" target="_top" xlink:title=" ">
<polygon fill="white" stroke="#666666" points="858.95,-96 742.95,-96 742.95,-66 858.95,-66 858.95,-96"/>
<text text-anchor="start" x="750.95" y="-84" font-family="Helvetica,sans-Serif" font-size="10.00">src/alpaqa/src/driver</text>
<text text-anchor="middle" x="800.95" y="-73" font-family="Helvetica,sans-Serif" font-size="10.00">/lbfgsb&#45;driver.cpp</text>
</a>
</g>
</g>
<!-- Node12&#45;&gt;Node15 -->
<g id="edge26_Node000012_Node000015" class="edge">
<title>Node12&#45;&gt;Node15</title>
<g id="a_edge26_Node000012_Node000015"><a xlink:title=" ">
<path fill="none" stroke="#63b8ff" d="M705.66,-127.51C726.68,-117.47 752.25,-105.26 771.61,-96.01"/>
<polygon fill="#63b8ff" stroke="#63b8ff" points="703.87,-124.49 696.36,-131.95 706.89,-130.8 703.87,-124.49"/>
</a>
</g>
</g>
<!-- Node16 -->
<g id="Node000016" class="node">
<title>Node16</title>
<g id="a_Node000016"><a xlink:href="qpalm-driver_8cpp.html" target="_top" xlink:title=" ">
<polygon fill="white" stroke="#666666" points="590.95,-96 474.95,-96 474.95,-66 590.95,-66 590.95,-96"/>
<text text-anchor="start" x="482.95" y="-84" font-family="Helvetica,sans-Serif" font-size="10.00">src/alpaqa/src/driver</text>
<text text-anchor="middle" x="532.95" y="-73" font-family="Helvetica,sans-Serif" font-size="10.00">/qpalm&#45;driver.cpp</text>
</a>
</g>
</g>
<!-- Node12&#45;&gt;Node16 -->
<g id="edge32_Node000012_Node000016" class="edge">
<title>Node12&#45;&gt;Node16</title>
<g id="a_edge32_Node000012_Node000016"><a xlink:title=" ">
<path fill="none" stroke="#63b8ff" d="M628.24,-127.51C607.22,-117.47 581.65,-105.26 562.29,-96.01"/>
<polygon fill="#63b8ff" stroke="#63b8ff" points="627.01,-130.8 637.54,-131.95 630.03,-124.49 627.01,-130.8"/>
</a>
</g>
</g>
<!-- Node13&#45;&gt;Node5 -->
<g id="edge22_Node000013_Node000005" class="edge">
<title>Node13&#45;&gt;Node5</title>
<g id="a_edge22_Node000013_Node000005"><a xlink:title=" ">
<path fill="none" stroke="#63b8ff" d="M1094.71,-56.96C1089.95,-48 1084.65,-38.03 1080.48,-30.16"/>
<polygon fill="#63b8ff" stroke="#63b8ff" points="1091.62,-58.61 1099.41,-65.8 1097.8,-55.32 1091.62,-58.61"/>
</a>
</g>
</g>
<!-- Node13&#45;&gt;Node6 -->
<g id="edge23_Node000013_Node000006" class="edge">
<title>Node13&#45;&gt;Node6</title>
<g id="a_edge23_Node000013_Node000006"><a xlink:title=" ">
<path fill="none" stroke="#63b8ff" d="M1153.08,-62.32C1179.66,-52.14 1212.61,-39.51 1237.39,-30.01"/>
<polygon fill="#63b8ff" stroke="#63b8ff" points="1151.69,-59.11 1143.6,-65.95 1154.19,-65.64 1151.69,-59.11"/>
</a>
</g>
</g>
</g>
</svg>

<g id="navigator" transform="translate(0 0)" fill="#404254">
  <rect fill="#f2f5e9" fill-opacity="0.5" stroke="#606060" stroke-width=".5" x="0" y="0" width="60" height="60"/>
  <use id="zoomplus" xlink:href="#zoomPlus" x="17" y="9" onmousedown="handleZoom(evt,'in')"/>
  <use id="zoomminus" xlink:href="#zoomMin" x="42" y="9" onmousedown="handleZoom(evt,'out')"/>
  <use id="reset" xlink:href="#resetDef" x="30" y="36" onmousedown="handleReset()"/>
   <use id="arrowup" xlink:href="#arrowUp" x="0" y="0" onmousedown="handlePan(0,-1)"/>
  <use id="arrowright" xlink:href="#arrowRight" x="0" y="0" onmousedown="handlePan(1,0)"/>
  <use id="arrowdown" xlink:href="#arrowDown" x="0" y="0" onmousedown="handlePan(0,1)"/>
  <use id="arrowleft" xlink:href="#arrowLeft" x="0" y="0" onmousedown="handlePan(-1,0)"/>
</g>
<svg viewBox="0 0 15 15" width="100%" height="30px" preserveAspectRatio="xMaxYMin meet">
 <g id="arrow_out" transform="scale(0.3 0.3)">
  <a xlink:href="kkt-error_8hpp__dep__incl_org.svg" target="_base">
   <rect id="button" ry="5" rx="5" y="6" x="6" height="38" width="38"
        fill="#f2f5e9" fill-opacity="0.5" stroke="#606060" stroke-width="1.0"/>
   <path id="arrow"
     d="M 11.500037,31.436501 C 11.940474,20.09759 22.043105,11.32322 32.158766,21.979434 L 37.068811,17.246167 C 37.068811,17.246167 37.088388,32 37.088388,32 L 22.160133,31.978069 C 22.160133,31.978069 26.997745,27.140456 26.997745,27.140456 C 18.528582,18.264221 13.291696,25.230495 11.500037,31.436501 z"
     style="fill:#404040;"/>
  </a>
 </g>
</svg>

<style type='text/css'>
<![CDATA[
[data-mouse-over-selected='false'] { opacity: 0.7; }
[data-mouse-over-selected='true']  { opacity: 1.0; }
]]>
</style>
<script type="application/ecmascript"><![CDATA[
document.addEventListener('DOMContentLoaded', (event) => {
  highlightEdges();
  highlightAdjacentNodes();
});
]]></script>
</svg>
