<?xml version="1.0" encoding="UTF-8" standalone="no"?>
<!DOCTYPE svg PUBLIC "-//W3C//DTD SVG 1.1//EN"
 "http://www.w3.org/Graphics/SVG/1.1/DTD/svg11.dtd">
<!-- Generated by graphviz version 2.43.0 (0)
 -->
<!-- Title: dims Pages: 1 -->
<svg width="473pt" height="98pt"
 viewBox="0.00 0.00 473.00 97.50" xmlns="http://www.w3.org/2000/svg" xmlns:xlink="http://www.w3.org/1999/xlink">
<g id="graph0" class="graph" transform="scale(1 1) rotate(0) translate(4 93.5)">
<title>dims</title>
<!-- Node1 -->
<g id="Node000001" class="node">
<title>Node1</title>
<g id="a_Node000001"><a xlink:title=" ">
<polygon fill="#999999" stroke="#666666" points="465,-51.5 424,-51.5 424,-32.5 465,-32.5 465,-51.5"/>
<text text-anchor="middle" x="444.5" y="-39.5" font-family="Helvetica,sans-Serif" font-size="10.00">dims</text>
</a>
</g>
</g>
<!-- Node2 -->
<g id="Node000002" class="node">
<title>Node2</title>
<g id="a_Node000002"><a xlink:href="structalpaqa_1_1casadi__loader_1_1CasADiControlFunctionsWithParam.html#a315acb62b6609d1fa6bbf298fcc1064b" target="_top" xlink:title=" ">
<polygon fill="white" stroke="#666666" points="376.5,-89.5 214.5,-89.5 214.5,-48.5 376.5,-48.5 376.5,-89.5"/>
<text text-anchor="start" x="222.5" y="-77.5" font-family="Helvetica,sans-Serif" font-size="10.00">alpaqa::casadi_loader</text>
<text text-anchor="start" x="222.5" y="-66.5" font-family="Helvetica,sans-Serif" font-size="10.00">::CasADiControlFunctionsWith</text>
<text text-anchor="middle" x="295.5" y="-55.5" font-family="Helvetica,sans-Serif" font-size="10.00">Param::load</text>
</a>
</g>
</g>
<!-- Node1&#45;&gt;Node2 -->
<g id="edge1_Node000001_Node000002" class="edge">
<title>Node1&#45;&gt;Node2</title>
<g id="a_edge1_Node000001_Node000002"><a xlink:title=" ">
<path fill="none" stroke="#63b8ff" d="M414.14,-47.39C403.15,-49.41 390.07,-51.81 376.69,-54.27"/>
<polygon fill="#63b8ff" stroke="#63b8ff" points="414.78,-50.83 423.98,-45.59 413.51,-43.95 414.78,-50.83"/>
</a>
</g>
</g>
<!-- Node4 -->
<g id="Node000004" class="node">
<title>Node4</title>
<g id="a_Node000004"><a xlink:href="structalpaqa_1_1casadi__loader_1_1CasADiFunctionsWithParam.html#a4304eda8f003a82248635198d91a4379" target="_top" xlink:title=" ">
<polygon fill="white" stroke="#666666" points="388,-30 203,-30 203,0 388,0 388,-30"/>
<text text-anchor="start" x="211" y="-18" font-family="Helvetica,sans-Serif" font-size="10.00">alpaqa::casadi_loader</text>
<text text-anchor="middle" x="295.5" y="-7" font-family="Helvetica,sans-Serif" font-size="10.00">::CasADiFunctionsWithParam::load</text>
</a>
</g>
</g>
<!-- Node1&#45;&gt;Node4 -->
<g id="edge3_Node000001_Node000004" class="edge">
<title>Node1&#45;&gt;Node4</title>
<g id="a_edge3_Node000001_Node000004"><a xlink:title=" ">
<path fill="none" stroke="#63b8ff" d="M414.14,-36.61C403.61,-34.67 391.15,-32.38 378.35,-30.03"/>
<polygon fill="#63b8ff" stroke="#63b8ff" points="413.51,-40.05 423.98,-38.41 414.78,-33.17 413.51,-40.05"/>
</a>
</g>
</g>
<!-- Node3 -->
<g id="Node000003" class="node">
<title>Node3</title>
<g id="a_Node000003"><a xlink:href="classalpaqa_1_1CasADiControlProblem.html#aec943d4cc9c1bbfc4d4b7244f9390d08" target="_top" xlink:title=" ">
<polygon fill="white" stroke="#666666" points="167,-84 0,-84 0,-54 167,-54 167,-84"/>
<text text-anchor="start" x="8" y="-72" font-family="Helvetica,sans-Serif" font-size="10.00">alpaqa::CasADiControlProblem</text>
<text text-anchor="middle" x="83.5" y="-61" font-family="Helvetica,sans-Serif" font-size="10.00">::CasADiControlProblem</text>
</a>
</g>
</g>
<!-- Node2&#45;&gt;Node3 -->
<g id="edge2_Node000002_Node000003" class="edge">
<title>Node2&#45;&gt;Node3</title>
<g id="a_edge2_Node000002_Node000003"><a xlink:title=" ">
<path fill="none" stroke="#63b8ff" d="M204.01,-69C191.78,-69 179.27,-69 167.18,-69"/>
<polygon fill="#63b8ff" stroke="#63b8ff" points="204.21,-72.5 214.21,-69 204.21,-65.5 204.21,-72.5"/>
</a>
</g>
</g>
</g>
</svg>
