<?xml version="1.0" encoding="UTF-8" standalone="no"?>
<!DOCTYPE svg PUBLIC "-//W3C//DTD SVG 1.1//EN"
 "http://www.w3.org/Graphics/SVG/1.1/DTD/svg11.dtd">
<!-- Generated by graphviz version 2.43.0 (0)
 -->
<!-- Title: is_bound Pages: 1 -->
<svg width="233pt" height="112pt"
 viewBox="0.00 0.00 233.00 111.50" xmlns="http://www.w3.org/2000/svg" xmlns:xlink="http://www.w3.org/1999/xlink">
<g id="graph0" class="graph" transform="scale(1 1) rotate(0) translate(4 107.5)">
<title>is_bound</title>
<!-- Node1 -->
<g id="Node000001" class="node">
<title>Node1</title>
<g id="a_Node000001"><a xlink:title=" ">
<polygon fill="#999999" stroke="#666666" points="225,-49 165,-49 165,-30 225,-30 225,-49"/>
<text text-anchor="middle" x="195" y="-37" font-family="Helvetica,sans-Serif" font-size="10.00">is_bound</text>
</a>
</g>
</g>
<!-- Node1&#45;&gt;Node1 -->
<g id="edge5_Node000001_Node000001" class="edge">
<title>Node1&#45;&gt;Node1</title>
<g id="a_edge5_Node000001_Node000001"><a xlink:title=" ">
<path fill="none" stroke="#63b8ff" d="M219.18,-58.19C217.86,-63.2 209.8,-67 195,-67 171.89,-67 165.22,-57.73 174.96,-49.08"/>
<polygon fill="#63b8ff" stroke="#63b8ff" points="222.36,-56.73 215.04,-49.08 215.99,-59.63 222.36,-56.73"/>
</a>
</g>
</g>
<!-- Node2 -->
<g id="Node000002" class="node">
<title>Node2</title>
<g id="a_Node000002"><a xlink:href="namespacealpaqa_1_1anonymous__namespace_02qpalm-adapter_8cpp_03.html#a2799769dc17d125a1ba68a5cda0b93f9" target="_top" xlink:title="Update the constraint matrix A, such that for each constraint C(i) with finite bounds,...">
<polygon fill="white" stroke="#666666" points="124.5,-85.5 4.5,-85.5 4.5,-55.5 124.5,-55.5 124.5,-85.5"/>
<text text-anchor="start" x="12.5" y="-73.5" font-family="Helvetica,sans-Serif" font-size="10.00">add_bound_constr_to</text>
<text text-anchor="middle" x="64.5" y="-62.5" font-family="Helvetica,sans-Serif" font-size="10.00">_constr_matrix</text>
</a>
</g>
</g>
<!-- Node1&#45;&gt;Node2 -->
<g id="edge1_Node000001_Node000002" class="edge">
<title>Node1&#45;&gt;Node2</title>
<g id="a_edge1_Node000001_Node000002"><a xlink:title=" ">
<path fill="none" stroke="#63b8ff" d="M154.9,-48.93C145.37,-51.23 134.97,-53.74 124.74,-56.21"/>
<polygon fill="#63b8ff" stroke="#63b8ff" points="155.94,-52.28 164.84,-46.53 154.3,-45.48 155.94,-52.28"/>
</a>
</g>
</g>
<!-- Node3 -->
<g id="Node000003" class="node">
<title>Node3</title>
<g id="a_Node000003"><a xlink:href="namespacealpaqa_1_1anonymous__namespace_02qpalm-adapter_8cpp_03.html#a0b356e52e87b4ddc08b242ea6126fb03" target="_top" xlink:title="For each constraint C(i) with finite bounds, insert these bounds into b(i), followed by all bounds D,...">
<polygon fill="white" stroke="#666666" points="129,-19 0,-19 0,0 129,0 129,-19"/>
<text text-anchor="middle" x="64.5" y="-7" font-family="Helvetica,sans-Serif" font-size="10.00">combine_bound_constr</text>
</a>
</g>
</g>
<!-- Node1&#45;&gt;Node3 -->
<g id="edge3_Node000001_Node000003" class="edge">
<title>Node1&#45;&gt;Node3</title>
<g id="a_edge3_Node000001_Node000003"><a xlink:title=" ">
<path fill="none" stroke="#63b8ff" d="M155.07,-30.41C139.62,-26.81 121.85,-22.66 106.23,-19.01"/>
<polygon fill="#63b8ff" stroke="#63b8ff" points="154.31,-33.83 164.84,-32.69 155.9,-27.01 154.31,-33.83"/>
</a>
</g>
</g>
<!-- Node2&#45;&gt;Node2 -->
<g id="edge2_Node000002_Node000002" class="edge">
<title>Node2&#45;&gt;Node2</title>
<g id="a_edge2_Node000002_Node000002"><a xlink:title=" ">
<path fill="none" stroke="#63b8ff" d="M87.25,-96.1C84.15,-100.47 76.56,-103.5 64.5,-103.5 44.19,-103.5 36.57,-94.91 41.65,-85.78"/>
<polygon fill="#63b8ff" stroke="#63b8ff" points="90.76,-95.81 87.35,-85.78 83.76,-95.74 90.76,-95.81"/>
</a>
</g>
</g>
<!-- Node3&#45;&gt;Node3 -->
<g id="edge4_Node000003_Node000003" class="edge">
<title>Node3&#45;&gt;Node3</title>
<g id="a_edge4_Node000003_Node000003"><a xlink:title=" ">
<path fill="none" stroke="#63b8ff" d="M88.68,-28.19C87.36,-33.2 79.3,-37 64.5,-37 41.39,-37 34.72,-27.73 44.46,-19.08"/>
<polygon fill="#63b8ff" stroke="#63b8ff" points="91.86,-26.73 84.54,-19.08 85.49,-29.63 91.86,-26.73"/>
</a>
</g>
</g>
</g>
</svg>
