<?xml version="1.0" encoding="UTF-8" standalone="no"?>
<!DOCTYPE svg PUBLIC "-//W3C//DTD SVG 1.1//EN"
 "http://www.w3.org/Graphics/SVG/1.1/DTD/svg11.dtd">
<!-- Generated by graphviz version 2.43.0 (0)
 -->
<!-- Title: norm_inf Pages: 1 -->
<svg width="441pt" height="214pt"
 viewBox="0.00 0.00 441.00 214.00" xmlns="http://www.w3.org/2000/svg" xmlns:xlink="http://www.w3.org/1999/xlink">

<svg id="main" version="1.1" xmlns="http://www.w3.org/2000/svg" xmlns:xlink="http://www.w3.org/1999/xlink" xml:space="preserve" onload="init(evt)">
<style type="text/css"><![CDATA[
.node, .edge {opacity: 0.7;}
.node.selected, .edge.selected {opacity: 1;}
.edge:hover path { stroke: red; }
.edge:hover polygon { stroke: red; fill: red; }
]]></style>
<script type="application/ecmascript" xlink:href="svg.min.js"/>
<svg id="graph" class="graph">
<g id="graph0" class="graph" transform="scale(1 1) rotate(0) translate(4 210)">
<title>norm_inf</title>
<!-- Node1 -->
<g id="Node000001" class="node">
<title>Node1</title>
<g id="a_Node000001"><a xlink:title="Get the maximum or infinity&#45;norm of the given vector.">
<polygon fill="#999999" stroke="#666666" points="433,-128.5 373,-128.5 373,-109.5 433,-109.5 433,-128.5"/>
<text text-anchor="middle" x="403" y="-116.5" font-family="Helvetica,sans-Serif" font-size="10.00">norm_inf</text>
</a>
</g>
</g>
<!-- Node2 -->
<g id="Node000002" class="node">
<title>Node2</title>
<g id="a_Node000002"><a xlink:href="structalpaqa_1_1detail_1_1PANOCHelpers.html#a9ef6f3ba7e945c7855e6b0f74878f227" target="_top" xlink:title="Compute the ε from the stopping criterion, see PANOCStopCrit.">
<polygon fill="white" stroke="#666666" points="337,-206 176,-206 176,-176 337,-176 337,-206"/>
<text text-anchor="start" x="184" y="-194" font-family="Helvetica,sans-Serif" font-size="10.00">alpaqa::detail::PANOCHelpers</text>
<text text-anchor="middle" x="256.5" y="-183" font-family="Helvetica,sans-Serif" font-size="10.00">::calc_error_stop_crit</text>
</a>
</g>
</g>
<!-- Node1&#45;&gt;Node2 -->
<g id="edge1_Node000001_Node000002" class="edge">
<title>Node1&#45;&gt;Node2</title>
<g id="a_edge1_Node000001_Node000002"><a xlink:title=" ">
<path fill="none" stroke="#63b8ff" d="M383.48,-135.37C371.05,-145.65 353.91,-158.52 337,-167 330.3,-170.36 323.04,-173.34 315.72,-175.97"/>
<polygon fill="#63b8ff" stroke="#63b8ff" points="385.91,-137.9 391.27,-128.76 381.38,-132.56 385.91,-137.9"/>
</a>
</g>
</g>
<!-- Node3 -->
<g id="Node000003" class="node">
<title>Node3</title>
<g id="a_Node000003"><a xlink:href="namespacealpaqa.html#afb0811428e64aa5c800ec37e76ddd051" target="_top" xlink:title=" ">
<polygon fill="white" stroke="#666666" points="316,-158 197,-158 197,-128 316,-128 316,-158"/>
<text text-anchor="start" x="205" y="-146" font-family="Helvetica,sans-Serif" font-size="10.00">alpaqa::compute_kkt</text>
<text text-anchor="middle" x="256.5" y="-135" font-family="Helvetica,sans-Serif" font-size="10.00">_error</text>
</a>
</g>
</g>
<!-- Node1&#45;&gt;Node3 -->
<g id="edge2_Node000001_Node000003" class="edge">
<title>Node1&#45;&gt;Node3</title>
<g id="a_edge2_Node000001_Node000003"><a xlink:title=" ">
<path fill="none" stroke="#63b8ff" d="M362.76,-125.52C348.44,-127.9 331.91,-130.64 316.25,-133.24"/>
<polygon fill="#63b8ff" stroke="#63b8ff" points="363.47,-128.95 372.76,-123.86 362.32,-122.04 363.47,-128.95"/>
</a>
</g>
</g>
<!-- Node5 -->
<g id="Node000005" class="node">
<title>Node5</title>
<g id="a_Node000005"><a xlink:href="classalpaqa_1_1PANOCOCPSolver.html#ab1efa2b14ea4439cabe383cd997688e5" target="_top" xlink:title=" ">
<polygon fill="white" stroke="#666666" points="326.5,-110 186.5,-110 186.5,-80 326.5,-80 326.5,-110"/>
<text text-anchor="start" x="194.5" y="-98" font-family="Helvetica,sans-Serif" font-size="10.00">alpaqa::PANOCOCPSolver</text>
<text text-anchor="middle" x="256.5" y="-87" font-family="Helvetica,sans-Serif" font-size="10.00">::operator()</text>
</a>
</g>
</g>
<!-- Node1&#45;&gt;Node5 -->
<g id="edge4_Node000001_Node000005" class="edge">
<title>Node1&#45;&gt;Node5</title>
<g id="a_edge4_Node000001_Node000005"><a xlink:title=" ">
<path fill="none" stroke="#63b8ff" d="M362.56,-112.45C351.45,-110.6 339.02,-108.54 326.71,-106.5"/>
<polygon fill="#63b8ff" stroke="#63b8ff" points="362.32,-115.96 372.76,-114.14 363.47,-109.05 362.32,-115.96"/>
</a>
</g>
</g>
<!-- Node8 -->
<g id="Node000008" class="node">
<title>Node8</title>
<g id="a_Node000008"><a xlink:href="classalpaqa_1_1ALMSolver.html#addcbcd08131cd8fb2d837cdbe59a51ff" target="_top" xlink:title=" ">
<polygon fill="white" stroke="#666666" points="313,-51 200,-51 200,-21 313,-21 313,-51"/>
<text text-anchor="start" x="208" y="-39" font-family="Helvetica,sans-Serif" font-size="10.00">alpaqa::ALMSolver::</text>
<text text-anchor="middle" x="256.5" y="-28" font-family="Helvetica,sans-Serif" font-size="10.00">operator()</text>
</a>
</g>
</g>
<!-- Node1&#45;&gt;Node8 -->
<g id="edge7_Node000001_Node000008" class="edge">
<title>Node1&#45;&gt;Node8</title>
<g id="a_edge7_Node000001_Node000008"><a xlink:title=" ">
<path fill="none" stroke="#63b8ff" d="M382.65,-102.94C370.12,-93 353.17,-80.38 337,-71 324.21,-63.59 309.57,-56.72 296.36,-51.07"/>
<polygon fill="#63b8ff" stroke="#63b8ff" points="380.58,-105.77 390.56,-109.33 384.98,-100.32 380.58,-105.77"/>
</a>
</g>
</g>
<!-- Node4 -->
<g id="Node000004" class="node">
<title>Node4</title>
<g id="a_Node000004"><a xlink:href="alpaqa-driver_8cpp.html#ac0f2228420376f4db7e1274f2b41667c" target="_top" xlink:title=" ">
<polygon fill="white" stroke="#666666" points="90.5,-163.5 49.5,-163.5 49.5,-144.5 90.5,-144.5 90.5,-163.5"/>
<text text-anchor="middle" x="70" y="-151.5" font-family="Helvetica,sans-Serif" font-size="10.00">main</text>
</a>
</g>
</g>
<!-- Node3&#45;&gt;Node4 -->
<g id="edge3_Node000003_Node000004" class="edge">
<title>Node3&#45;&gt;Node4</title>
<g id="a_edge3_Node000003_Node000004"><a xlink:title=" ">
<path fill="none" stroke="#63b8ff" d="M186.85,-147.09C152.5,-149.14 113.46,-151.47 90.6,-152.83"/>
<polygon fill="#63b8ff" stroke="#63b8ff" points="187.1,-150.58 196.87,-146.5 186.68,-143.6 187.1,-150.58"/>
</a>
</g>
</g>
<!-- Node6 -->
<g id="Node000006" class="node">
<title>Node6</title>
<g id="a_Node000006"><a xlink:href="classalpaqa_1_1PANOCOCPSolver.html#ab2cdbacaa27c59db09315b64cab7edee" target="_top" xlink:title=" ">
<polygon fill="white" stroke="#666666" points="140,-126 0,-126 0,-96 140,-96 140,-126"/>
<text text-anchor="start" x="8" y="-114" font-family="Helvetica,sans-Serif" font-size="10.00">alpaqa::PANOCOCPSolver</text>
<text text-anchor="middle" x="70" y="-103" font-family="Helvetica,sans-Serif" font-size="10.00">::operator()</text>
</a>
</g>
</g>
<!-- Node5&#45;&gt;Node6 -->
<g id="edge5_Node000005_Node000006" class="edge">
<title>Node5&#45;&gt;Node6</title>
<g id="a_edge5_Node000005_Node000006"><a xlink:title=" ">
<path fill="none" stroke="#63b8ff" d="M176.23,-101.87C164.18,-102.92 151.82,-103.99 140,-105.02"/>
<polygon fill="#63b8ff" stroke="#63b8ff" points="176.61,-105.35 186.27,-101 176.01,-98.38 176.61,-105.35"/>
</a>
</g>
</g>
<!-- Node7 -->
<g id="Node000007" class="node">
<title>Node7</title>
<g id="a_Node000007"><a xlink:href="classalpaqa_1_1PANOCOCPSolver.html#a74e7957a17047f1b0e6d5ccfcf575a09" target="_top" xlink:title=" ">
<polygon fill="white" stroke="#666666" points="140,-78 0,-78 0,-48 140,-48 140,-78"/>
<text text-anchor="start" x="8" y="-66" font-family="Helvetica,sans-Serif" font-size="10.00">alpaqa::PANOCOCPSolver</text>
<text text-anchor="middle" x="70" y="-55" font-family="Helvetica,sans-Serif" font-size="10.00">::operator()</text>
</a>
</g>
</g>
<!-- Node5&#45;&gt;Node7 -->
<g id="edge6_Node000005_Node000007" class="edge">
<title>Node5&#45;&gt;Node7</title>
<g id="a_edge6_Node000005_Node000007"><a xlink:title=" ">
<path fill="none" stroke="#63b8ff" d="M176.23,-81.25C164.18,-79.16 151.82,-77.02 140,-74.97"/>
<polygon fill="#63b8ff" stroke="#63b8ff" points="175.82,-84.73 186.27,-82.99 177.02,-77.84 175.82,-84.73"/>
</a>
</g>
</g>
<!-- Node9 -->
<g id="Node000009" class="node">
<title>Node9</title>
<g id="a_Node000009"><a xlink:href="classalpaqa_1_1ALMSolver.html#abf8cdbf0da02bdb631d4c6701b9c7100" target="_top" xlink:title=" ">
<polygon fill="white" stroke="#666666" points="126.5,-30 13.5,-30 13.5,0 126.5,0 126.5,-30"/>
<text text-anchor="start" x="21.5" y="-18" font-family="Helvetica,sans-Serif" font-size="10.00">alpaqa::ALMSolver::</text>
<text text-anchor="middle" x="70" y="-7" font-family="Helvetica,sans-Serif" font-size="10.00">operator()</text>
</a>
</g>
</g>
<!-- Node8&#45;&gt;Node9 -->
<g id="edge8_Node000008_Node000009" class="edge">
<title>Node8&#45;&gt;Node9</title>
<g id="a_edge8_Node000008_Node000009"><a xlink:title=" ">
<path fill="none" stroke="#63b8ff" d="M189.94,-28.54C169.3,-26.19 146.71,-23.62 126.81,-21.35"/>
<polygon fill="#63b8ff" stroke="#63b8ff" points="189.56,-32.02 199.89,-29.67 190.35,-25.06 189.56,-32.02"/>
</a>
</g>
</g>
</g>
</svg>
</svg>

<style type='text/css'>
<![CDATA[
[data-mouse-over-selected='false'] { opacity: 0.7; }
[data-mouse-over-selected='true']  { opacity: 1.0; }
]]>
</style>
<script type="application/ecmascript"><![CDATA[
document.addEventListener('DOMContentLoaded', (event) => {
  highlightEdges();
  highlightAdjacentNodes();
});
]]></script>
</svg>
