<?xml version="1.0" encoding="UTF-8" standalone="no"?>
<!DOCTYPE svg PUBLIC "-//W3C//DTD SVG 1.1//EN"
 "http://www.w3.org/Graphics/SVG/1.1/DTD/svg11.dtd">
<!-- Generated by graphviz version 2.43.0 (0)
 -->
<!-- Title: make_panoc_like_driver Pages: 1 -->
<svg width="844pt" height="216pt"
 viewBox="0.00 0.00 844.00 215.50" xmlns="http://www.w3.org/2000/svg" xmlns:xlink="http://www.w3.org/1999/xlink">
<g id="graph0" class="graph" transform="scale(1 1) rotate(0) translate(4 211.5)">
<title>make_panoc_like_driver</title>
<!-- Node1 -->
<g id="Node000001" class="node">
<title>Node1</title>
<g id="a_Node000001"><a xlink:title=" ">
<polygon fill="#999999" stroke="#666666" points="134,-133.5 0,-133.5 0,-114.5 134,-114.5 134,-133.5"/>
<text text-anchor="middle" x="67" y="-121.5" font-family="Helvetica,sans-Serif" font-size="10.00">make_panoc_like_driver</text>
</a>
</g>
</g>
<!-- Node2 -->
<g id="Node000002" class="node">
<title>Node2</title>
<g id="a_Node000002"><a xlink:href="namespacealpaqa.html#aab07e5e969c7c3cb284b49f5b7931bf3" target="_top" xlink:title="Attach SIGINT and SIGTERM handlers to stop the given solver.">
<polygon fill="white" stroke="#666666" points="321,-207.5 170,-207.5 170,-188.5 321,-188.5 321,-207.5"/>
<text text-anchor="middle" x="245.5" y="-195.5" font-family="Helvetica,sans-Serif" font-size="10.00">alpaqa::attach_cancellation</text>
</a>
</g>
</g>
<!-- Node1&#45;&gt;Node2 -->
<g id="edge1_Node000001_Node000002" class="edge">
<title>Node1&#45;&gt;Node2</title>
<g id="a_edge1_Node000001_Node000002"><a xlink:title=" ">
<path fill="none" stroke="#63b8ff" d="M82.6,-133.65C101.88,-146 137.22,-167.3 170,-180 175.41,-182.09 181.13,-184 186.9,-185.71"/>
<polygon fill="#63b8ff" stroke="#63b8ff" points="186.06,-189.11 196.63,-188.42 187.94,-182.37 186.06,-189.11"/>
</a>
</g>
</g>
<!-- Node3 -->
<g id="Node000003" class="node">
<title>Node3</title>
<g id="a_Node000003"><a xlink:href="util_8hpp.html#af497b5fe6ea036f154766b39508b338b" target="_top" xlink:title=" ">
<polygon fill="white" stroke="#666666" points="297,-170.5 194,-170.5 194,-151.5 297,-151.5 297,-170.5"/>
<text text-anchor="middle" x="245.5" y="-158.5" font-family="Helvetica,sans-Serif" font-size="10.00">format_string_list</text>
</a>
</g>
</g>
<!-- Node1&#45;&gt;Node3 -->
<g id="edge2_Node000001_Node000003" class="edge">
<title>Node1&#45;&gt;Node3</title>
<g id="a_edge2_Node000001_Node000003"><a xlink:title=" ">
<path fill="none" stroke="#63b8ff" d="M113.45,-133.53C136.52,-138.36 164.74,-144.28 189.08,-149.38"/>
<polygon fill="#63b8ff" stroke="#63b8ff" points="188.39,-152.81 198.89,-151.44 189.83,-145.96 188.39,-152.81"/>
</a>
</g>
</g>
<!-- Node4 -->
<g id="Node000004" class="node">
<title>Node4</title>
<g id="a_Node000004"><a xlink:href="alm-driver_8hpp.html#ae4ef291d9ec9d55ee804b5723ea2e641" target="_top" xlink:title=" ">
<polygon fill="white" stroke="#666666" points="297,-133.5 194,-133.5 194,-114.5 297,-114.5 297,-133.5"/>
<text text-anchor="middle" x="245.5" y="-121.5" font-family="Helvetica,sans-Serif" font-size="10.00">make_alm_solver</text>
</a>
</g>
</g>
<!-- Node1&#45;&gt;Node4 -->
<g id="edge3_Node000001_Node000004" class="edge">
<title>Node1&#45;&gt;Node4</title>
<g id="a_edge3_Node000001_Node000004"><a xlink:title=" ">
<path fill="none" stroke="#63b8ff" d="M134.22,-124C150.43,-124 167.7,-124 183.64,-124"/>
<polygon fill="#63b8ff" stroke="#63b8ff" points="183.91,-127.5 193.91,-124 183.91,-120.5 183.91,-127.5"/>
</a>
</g>
</g>
<!-- Node5 -->
<g id="Node000005" class="node">
<title>Node5</title>
<g id="a_Node000005"><a xlink:href="options_8hpp.html#a15ce06eb1492a582a4abe2ddd5e7f8a1" target="_top" xlink:title=" ">
<polygon fill="white" stroke="#666666" points="470,-123.5 396,-123.5 396,-104.5 470,-104.5 470,-123.5"/>
<text text-anchor="middle" x="433" y="-111.5" font-family="Helvetica,sans-Serif" font-size="10.00">set_params</text>
</a>
</g>
</g>
<!-- Node1&#45;&gt;Node5 -->
<g id="edge13_Node000001_Node000005" class="edge">
<title>Node1&#45;&gt;Node5</title>
<g id="a_edge13_Node000001_Node000005"><a xlink:title=" ">
<path fill="none" stroke="#63b8ff" d="M112.21,-114.46C130.06,-111.07 150.92,-107.67 170,-106 245.44,-99.39 333.51,-104.76 385.91,-109.32"/>
<polygon fill="#63b8ff" stroke="#63b8ff" points="385.63,-112.81 395.9,-110.22 386.25,-105.84 385.63,-112.81"/>
</a>
</g>
</g>
<!-- Node11 -->
<g id="Node000011" class="node">
<title>Node11</title>
<g id="a_Node000011"><a xlink:href="alm-driver_8hpp.html#aa7ce176e5df1fd415e66c420646cf10d" target="_top" xlink:title=" ">
<polygon fill="white" stroke="#666666" points="291.5,-57.5 199.5,-57.5 199.5,-38.5 291.5,-38.5 291.5,-57.5"/>
<text text-anchor="middle" x="245.5" y="-45.5" font-family="Helvetica,sans-Serif" font-size="10.00">run_alm_solver</text>
</a>
</g>
</g>
<!-- Node1&#45;&gt;Node11 -->
<g id="edge10_Node000001_Node000011" class="edge">
<title>Node1&#45;&gt;Node11</title>
<g id="a_edge10_Node000001_Node000011"><a xlink:title=" ">
<path fill="none" stroke="#63b8ff" d="M84.93,-114.31C104.85,-103.16 139.13,-84.74 170,-72 179.99,-67.87 190.97,-63.99 201.36,-60.61"/>
<polygon fill="#63b8ff" stroke="#63b8ff" points="202.61,-63.88 211.08,-57.52 200.49,-57.21 202.61,-63.88"/>
</a>
</g>
</g>
<!-- Node4&#45;&gt;Node5 -->
<g id="edge4_Node000004_Node000005" class="edge">
<title>Node4&#45;&gt;Node5</title>
<g id="a_edge4_Node000004_Node000005"><a xlink:title=" ">
<path fill="none" stroke="#63b8ff" d="M297.19,-121.27C324.75,-119.78 358.59,-117.96 385.47,-116.51"/>
<polygon fill="#63b8ff" stroke="#63b8ff" points="385.98,-119.99 395.78,-115.95 385.61,-113 385.98,-119.99"/>
</a>
</g>
</g>
<!-- Node6 -->
<g id="Node000006" class="node">
<title>Node6</title>
<g id="a_Node000006"><a xlink:href="classOptions.html#a502ee531f4e5cdc1c8dd78e9409a4e8e" target="_top" xlink:title=" ">
<polygon fill="white" stroke="#666666" points="649.5,-166.5 553.5,-166.5 553.5,-147.5 649.5,-147.5 649.5,-166.5"/>
<text text-anchor="middle" x="601.5" y="-154.5" font-family="Helvetica,sans-Serif" font-size="10.00">Options::options</text>
</a>
</g>
</g>
<!-- Node5&#45;&gt;Node6 -->
<g id="edge5_Node000005_Node000006" class="edge">
<title>Node5&#45;&gt;Node6</title>
<g id="a_edge5_Node000005_Node000006"><a xlink:title=" ">
<path fill="none" stroke="#63b8ff" d="M470.13,-123.33C494.64,-129.66 527.27,-138.09 553.76,-144.93"/>
<polygon fill="#63b8ff" stroke="#63b8ff" points="553.02,-148.35 563.58,-147.46 554.77,-141.58 553.02,-148.35"/>
</a>
</g>
</g>
<!-- Node7 -->
<g id="Node000007" class="node">
<title>Node7</title>
<g id="a_Node000007"><a xlink:href="namespacealpaqa_1_1params.html#abadc98653193fbd05b658d62b34f75e7" target="_top" xlink:title="Overwrites t based on the options that start with prefix.">
<polygon fill="white" stroke="#666666" points="658,-129 545,-129 545,-99 658,-99 658,-129"/>
<text text-anchor="start" x="553" y="-117" font-family="Helvetica,sans-Serif" font-size="10.00">alpaqa::params::set</text>
<text text-anchor="middle" x="601.5" y="-106" font-family="Helvetica,sans-Serif" font-size="10.00">_params</text>
</a>
</g>
</g>
<!-- Node5&#45;&gt;Node7 -->
<g id="edge6_Node000005_Node000007" class="edge">
<title>Node5&#45;&gt;Node7</title>
<g id="a_edge6_Node000005_Node000007"><a xlink:title=" ">
<path fill="none" stroke="#63b8ff" d="M470.13,-114C488.95,-114 512.57,-114 534.52,-114"/>
<polygon fill="#63b8ff" stroke="#63b8ff" points="534.79,-117.5 544.79,-114 534.79,-110.5 534.79,-117.5"/>
</a>
</g>
</g>
<!-- Node10 -->
<g id="Node000010" class="node">
<title>Node10</title>
<g id="a_Node000010"><a xlink:href="classOptions.html#a12df8f934f6bafb37bf4e64529917d06" target="_top" xlink:title=" ">
<polygon fill="white" stroke="#666666" points="643,-80.5 560,-80.5 560,-61.5 643,-61.5 643,-80.5"/>
<text text-anchor="middle" x="601.5" y="-68.5" font-family="Helvetica,sans-Serif" font-size="10.00">Options::used</text>
</a>
</g>
</g>
<!-- Node5&#45;&gt;Node10 -->
<g id="edge9_Node000005_Node000010" class="edge">
<title>Node5&#45;&gt;Node10</title>
<g id="a_edge9_Node000005_Node000010"><a xlink:title=" ">
<path fill="none" stroke="#63b8ff" d="M470.13,-104.67C494.64,-98.34 527.27,-89.91 553.76,-83.07"/>
<polygon fill="#63b8ff" stroke="#63b8ff" points="554.77,-86.42 563.58,-80.54 553.02,-79.65 554.77,-86.42"/>
</a>
</g>
</g>
<!-- Node8 -->
<g id="Node000008" class="node">
<title>Node8</title>
<g id="a_Node000008"><a xlink:href="namespacealpaqa_1_1params.html#a0de0baee3dda47aba5143ba83bd11712" target="_top" xlink:title=" ">
<polygon fill="white" stroke="#666666" points="821.5,-151 708.5,-151 708.5,-121 821.5,-121 821.5,-151"/>
<text text-anchor="start" x="716.5" y="-139" font-family="Helvetica,sans-Serif" font-size="10.00">alpaqa::params::set</text>
<text text-anchor="middle" x="765" y="-128" font-family="Helvetica,sans-Serif" font-size="10.00">_param</text>
</a>
</g>
</g>
<!-- Node7&#45;&gt;Node8 -->
<g id="edge7_Node000007_Node000008" class="edge">
<title>Node7&#45;&gt;Node8</title>
<g id="a_edge7_Node000007_Node000008"><a xlink:title=" ">
<path fill="none" stroke="#63b8ff" d="M658.08,-121.57C671.02,-123.33 684.92,-125.23 698.26,-127.04"/>
<polygon fill="#63b8ff" stroke="#63b8ff" points="697.94,-130.53 708.32,-128.41 698.88,-123.6 697.94,-130.53"/>
</a>
</g>
</g>
<!-- Node9 -->
<g id="Node000009" class="node">
<title>Node9</title>
<g id="a_Node000009"><a xlink:href="namespacealpaqa_1_1params.html#aa3666becfea1ef2eb24d83f592c123e9" target="_top" xlink:title="Split the string full on the first occurrence of tok.">
<polygon fill="white" stroke="#666666" points="836,-102.5 694,-102.5 694,-83.5 836,-83.5 836,-102.5"/>
<text text-anchor="middle" x="765" y="-90.5" font-family="Helvetica,sans-Serif" font-size="10.00">alpaqa::params::split_key</text>
</a>
</g>
</g>
<!-- Node7&#45;&gt;Node9 -->
<g id="edge8_Node000007_Node000009" class="edge">
<title>Node7&#45;&gt;Node9</title>
<g id="a_edge8_Node000007_Node000009"><a xlink:title=" ">
<path fill="none" stroke="#63b8ff" d="M658.08,-106.77C666.34,-105.7 675,-104.57 683.64,-103.45"/>
<polygon fill="#63b8ff" stroke="#63b8ff" points="684.3,-106.89 693.77,-102.13 683.4,-99.95 684.3,-106.89"/>
</a>
</g>
</g>
<!-- Node12 -->
<g id="Node000012" class="node">
<title>Node12</title>
<g id="a_Node000012"><a xlink:href="ipopt-enums_8hpp.html#a78dc4442f5ab598a9c86a57e0c067f98" target="_top" xlink:title=" ">
<polygon fill="white" stroke="#666666" points="471.5,-67.5 394.5,-67.5 394.5,-48.5 471.5,-48.5 471.5,-67.5"/>
<text text-anchor="middle" x="433" y="-55.5" font-family="Helvetica,sans-Serif" font-size="10.00">enum_name</text>
</a>
</g>
</g>
<!-- Node11&#45;&gt;Node12 -->
<g id="edge11_Node000011_Node000012" class="edge">
<title>Node11&#45;&gt;Node12</title>
<g id="a_edge11_Node000011_Node000012"><a xlink:title=" ">
<path fill="none" stroke="#63b8ff" d="M291.88,-50.45C319.87,-51.96 355.73,-53.89 384.16,-55.42"/>
<polygon fill="#63b8ff" stroke="#63b8ff" points="384.1,-58.92 394.27,-55.97 384.47,-51.93 384.1,-58.92"/>
</a>
</g>
</g>
<!-- Node13 -->
<g id="Node000013" class="node">
<title>Node13</title>
<g id="a_Node000013"><a xlink:href="classalpaqa_1_1TypeErasedProblem.html#a4cb358cffb880a83ec60933c6d44cef4" target="_top" xlink:title="[Required] Number of constraints.">
<polygon fill="white" stroke="#666666" points="509,-30 357,-30 357,0 509,0 509,-30"/>
<text text-anchor="start" x="365" y="-18" font-family="Helvetica,sans-Serif" font-size="10.00">alpaqa::TypeErasedProblem</text>
<text text-anchor="middle" x="433" y="-7" font-family="Helvetica,sans-Serif" font-size="10.00">::get_m</text>
</a>
</g>
</g>
<!-- Node11&#45;&gt;Node13 -->
<g id="edge12_Node000011_Node000013" class="edge">
<title>Node11&#45;&gt;Node13</title>
<g id="a_edge12_Node000011_Node000013"><a xlink:title=" ">
<path fill="none" stroke="#63b8ff" d="M291.88,-39.93C308.5,-36.97 327.9,-33.52 346.87,-30.14"/>
<polygon fill="#63b8ff" stroke="#63b8ff" points="347.5,-33.59 356.74,-28.39 346.28,-26.69 347.5,-33.59"/>
</a>
</g>
</g>
</g>
</svg>
