<?xml version="1.0" encoding="UTF-8" standalone="no"?>
<!DOCTYPE svg PUBLIC "-//W3C//DTD SVG 1.1//EN"
 "http://www.w3.org/Graphics/SVG/1.1/DTD/svg11.dtd">
<!-- Generated by graphviz version 2.43.0 (0)
 -->
<!-- Title: src/alpaqa/src/driver/problem.hpp Pages: 1 -->
<!--zoomable 302 -->

<svg id="main" version="1.1" xmlns="http://www.w3.org/2000/svg" xmlns:xlink="http://www.w3.org/1999/xlink" xml:space="preserve" onload="init(evt)">
<style type="text/css"><![CDATA[
.node, .edge {opacity: 0.7;}
.node.selected, .edge.selected {opacity: 1;}
.edge:hover path { stroke: red; }
.edge:hover polygon { stroke: red; fill: red; }
]]></style>

<defs>
  <circle id="rim" cx="0" cy="0" r="7"/>
  <circle id="rim2" cx="0" cy="0" r="3.5"/>
  <g id="zoomPlus">
    <use xlink:href="#rim" fill="#404040"><set attributeName="fill" to="#808080" begin="zoomplus.mouseover" end="zoomplus.mouseout"/></use>
    <path d="M-4,0h8M0,-4v8" fill="none" stroke="white" stroke-width="1.5" pointer-events="none"/>
  </g>
  <g id="zoomMin">
    <use xlink:href="#rim" fill="#404040"><set attributeName="fill" to="#808080" begin="zoomminus.mouseover" end="zoomminus.mouseout"/></use>
    <path d="M-4,0h8" fill="none" stroke="white" stroke-width="1.5" pointer-events="none"/>
  </g>
  <g id="arrowUp" transform="translate(30 24)">
    <use xlink:href="#rim"/>
    <path pointer-events="none" fill="none" stroke="white" stroke-width="1.5" d="M0,-3.0v7 M-2.5,-0.5L0,-3.0L2.5,-0.5"/>
  </g>
  <g id="arrowRight" transform="rotate(90) translate(36 -43)">
    <use xlink:href="#rim"/>
    <path pointer-events="none" fill="none" stroke="white" stroke-width="1.5" d="M0,-3.0v7 M-2.5,-0.5L0,-3.0L2.5,-0.5"/>
  </g>
  <g id="arrowDown" transform="rotate(180) translate(-30 -48)">
    <use xlink:href="#rim"/>
    <path pointer-events="none" fill="none" stroke="white" stroke-width="1.5" d="M0,-3.0v7 M-2.5,-0.5L0,-3.0L2.5,-0.5"/>
  </g>
  <g id="arrowLeft" transform="rotate(270) translate(-36 17)">
    <use xlink:href="#rim"/>
    <path pointer-events="none" fill="none" stroke="white" stroke-width="1.5" d="M0,-3.0v7 M-2.5,-0.5L0,-3.0L2.5,-0.5"/>
  </g>
  <g id="resetDef">
    <use xlink:href="#rim2" fill="#404040"><set attributeName="fill" to="#808080" begin="reset.mouseover" end="reset.mouseout"/></use>
  </g>
</defs>
<script type="application/ecmascript">
var viewWidth = 1373;
var viewHeight = 302;
var sectionId = 'dynsection-1';
</script>
<script type="application/ecmascript" xlink:href="svg.min.js"/>
<svg id="graph" class="graph">
<g id="viewport">
<title>src/alpaqa/src/driver/problem.hpp</title>
<!-- Node1 -->
<g id="Node000001" class="node">
<title>Node1</title>
<g id="a_Node000001"><a xlink:title=" ">
<polygon fill="#999999" stroke="#666666" points="813.63,-294 697.63,-294 697.63,-264 813.63,-264 813.63,-294"/>
<text text-anchor="start" x="705.63" y="-282" font-family="Helvetica,sans-Serif" font-size="10.00">src/alpaqa/src/driver</text>
<text text-anchor="middle" x="755.63" y="-271" font-family="Helvetica,sans-Serif" font-size="10.00">/problem.hpp</text>
</a>
</g>
</g>
<!-- Node2 -->
<g id="Node000002" class="node">
<title>Node2</title>
<g id="a_Node000002"><a xlink:href="alm-driver_8hpp.html" target="_top" xlink:title=" ">
<polygon fill="white" stroke="#666666" points="157.63,-162 41.63,-162 41.63,-132 157.63,-132 157.63,-162"/>
<text text-anchor="start" x="49.63" y="-150" font-family="Helvetica,sans-Serif" font-size="10.00">src/alpaqa/src/driver</text>
<text text-anchor="middle" x="99.63" y="-139" font-family="Helvetica,sans-Serif" font-size="10.00">/alm&#45;driver.hpp</text>
</a>
</g>
</g>
<!-- Node1&#45;&gt;Node2 -->
<g id="edge1_Node000001_Node000002" class="edge">
<title>Node1&#45;&gt;Node2</title>
<g id="a_edge1_Node000001_Node000002"><a xlink:title=" ">
<path fill="none" stroke="#63b8ff" d="M687.19,-273.03C607.58,-266.4 472.52,-252.57 358.63,-228 278.58,-210.73 187.69,-179.98 137.68,-162.05"/>
<polygon fill="#63b8ff" stroke="#63b8ff" points="687.31,-276.55 697.57,-273.88 687.88,-269.57 687.31,-276.55"/>
</a>
</g>
</g>
<!-- Node5 -->
<g id="Node000005" class="node">
<title>Node5</title>
<g id="a_Node000005"><a xlink:href="gradient-checker_8cpp.html" target="_top" xlink:title=" ">
<polygon fill="white" stroke="#666666" points="489.13,-228 368.13,-228 368.13,-198 489.13,-198 489.13,-228"/>
<text text-anchor="start" x="376.13" y="-216" font-family="Helvetica,sans-Serif" font-size="10.00">src/alpaqa/src/driver</text>
<text text-anchor="middle" x="428.63" y="-205" font-family="Helvetica,sans-Serif" font-size="10.00">/gradient&#45;checker.cpp</text>
</a>
</g>
</g>
<!-- Node1&#45;&gt;Node5 -->
<g id="edge4_Node000001_Node000005" class="edge">
<title>Node1&#45;&gt;Node5</title>
<g id="a_edge4_Node000001_Node000005"><a xlink:title=" ">
<path fill="none" stroke="#63b8ff" d="M687.65,-264.7C629.13,-253.24 545.48,-236.87 489.21,-225.86"/>
<polygon fill="#63b8ff" stroke="#63b8ff" points="687.05,-268.15 697.54,-266.63 688.4,-261.28 687.05,-268.15"/>
</a>
</g>
</g>
<!-- Node6 -->
<g id="Node000006" class="node">
<title>Node6</title>
<g id="a_Node000006"><a xlink:href="ipopt-driver_8hpp.html" target="_top" xlink:title=" ">
<polygon fill="white" stroke="#666666" points="1081.63,-96 965.63,-96 965.63,-66 1081.63,-66 1081.63,-96"/>
<text text-anchor="start" x="973.63" y="-84" font-family="Helvetica,sans-Serif" font-size="10.00">src/alpaqa/src/driver</text>
<text text-anchor="middle" x="1023.63" y="-73" font-family="Helvetica,sans-Serif" font-size="10.00">/ipopt&#45;driver.hpp</text>
</a>
</g>
</g>
<!-- Node1&#45;&gt;Node6 -->
<g id="edge5_Node000001_Node000006" class="edge">
<title>Node1&#45;&gt;Node6</title>
<g id="a_edge5_Node000001_Node000006"><a xlink:title=" ">
<path fill="none" stroke="#63b8ff" d="M783.02,-257.97C837.26,-218.29 957.15,-130.62 1004.17,-96.23"/>
<polygon fill="#63b8ff" stroke="#63b8ff" points="780.9,-255.18 774.9,-263.9 785.04,-260.83 780.9,-255.18"/>
</a>
</g>
</g>
<!-- Node8 -->
<g id="Node000008" class="node">
<title>Node8</title>
<g id="a_Node000008"><a xlink:href="lbfgsb-driver_8hpp.html" target="_top" xlink:title=" ">
<polygon fill="white" stroke="#666666" points="1349.63,-96 1233.63,-96 1233.63,-66 1349.63,-66 1349.63,-96"/>
<text text-anchor="start" x="1241.63" y="-84" font-family="Helvetica,sans-Serif" font-size="10.00">src/alpaqa/src/driver</text>
<text text-anchor="middle" x="1291.63" y="-73" font-family="Helvetica,sans-Serif" font-size="10.00">/lbfgsb&#45;driver.hpp</text>
</a>
</g>
</g>
<!-- Node1&#45;&gt;Node8 -->
<g id="edge7_Node000001_Node000008" class="edge">
<title>Node1&#45;&gt;Node8</title>
<g id="a_edge7_Node000001_Node000008"><a xlink:title=" ">
<path fill="none" stroke="#63b8ff" d="M823.76,-275.07C888.01,-270.45 986.04,-258.57 1065.63,-228 1151.75,-194.92 1239.5,-125.98 1275.11,-96.21"/>
<polygon fill="#63b8ff" stroke="#63b8ff" points="823.49,-271.58 813.75,-275.75 823.96,-278.56 823.49,-271.58"/>
</a>
</g>
</g>
<!-- Node9 -->
<g id="Node000009" class="node">
<title>Node9</title>
<g id="a_Node000009"><a xlink:href="panoc-driver_8hpp.html" target="_top" xlink:title=" ">
<polygon fill="white" stroke="#666666" points="469.63,-96 353.63,-96 353.63,-66 469.63,-66 469.63,-96"/>
<text text-anchor="start" x="361.63" y="-84" font-family="Helvetica,sans-Serif" font-size="10.00">src/alpaqa/src/driver</text>
<text text-anchor="middle" x="411.63" y="-73" font-family="Helvetica,sans-Serif" font-size="10.00">/panoc&#45;driver.hpp</text>
</a>
</g>
</g>
<!-- Node1&#45;&gt;Node9 -->
<g id="edge9_Node000001_Node000009" class="edge">
<title>Node1&#45;&gt;Node9</title>
<g id="a_edge9_Node000001_Node000009"><a xlink:title=" ">
<path fill="none" stroke="#63b8ff" d="M728.42,-257.92C687.23,-228.06 605.96,-171.29 531.63,-132 505.29,-118.08 474.21,-105.22 450.27,-96.03"/>
<polygon fill="#63b8ff" stroke="#63b8ff" points="726.44,-260.8 736.58,-263.86 730.56,-255.15 726.44,-260.8"/>
</a>
</g>
</g>
<!-- Node10 -->
<g id="Node000010" class="node">
<title>Node10</title>
<g id="a_Node000010"><a xlink:href="pantr-driver_8hpp.html" target="_top" xlink:title=" ">
<polygon fill="white" stroke="#666666" points="163.63,-96 47.63,-96 47.63,-66 163.63,-66 163.63,-96"/>
<text text-anchor="start" x="55.63" y="-84" font-family="Helvetica,sans-Serif" font-size="10.00">src/alpaqa/src/driver</text>
<text text-anchor="middle" x="105.63" y="-73" font-family="Helvetica,sans-Serif" font-size="10.00">/pantr&#45;driver.hpp</text>
</a>
</g>
</g>
<!-- Node1&#45;&gt;Node10 -->
<g id="edge12_Node000001_Node000010" class="edge">
<title>Node1&#45;&gt;Node10</title>
<g id="a_edge12_Node000001_Node000010"><a xlink:title=" ">
<path fill="none" stroke="#63b8ff" d="M701.22,-260.9C649.05,-244.57 568.04,-219.33 497.63,-198 374,-160.54 228.03,-117.72 153.96,-96.09"/>
<polygon fill="#63b8ff" stroke="#63b8ff" points="700.35,-264.3 710.93,-263.95 702.44,-257.62 700.35,-264.3"/>
</a>
</g>
</g>
<!-- Node11 -->
<g id="Node000011" class="node">
<title>Node11</title>
<g id="a_Node000011"><a xlink:href="problem_8cpp.html" target="_top" xlink:title=" ">
<polygon fill="white" stroke="#666666" points="1023.63,-228 907.63,-228 907.63,-198 1023.63,-198 1023.63,-228"/>
<text text-anchor="start" x="915.63" y="-216" font-family="Helvetica,sans-Serif" font-size="10.00">src/alpaqa/src/driver</text>
<text text-anchor="middle" x="965.63" y="-205" font-family="Helvetica,sans-Serif" font-size="10.00">/problem.cpp</text>
</a>
</g>
</g>
<!-- Node1&#45;&gt;Node11 -->
<g id="edge15_Node000001_Node000011" class="edge">
<title>Node1&#45;&gt;Node11</title>
<g id="a_edge15_Node000001_Node000011"><a xlink:title=" ">
<path fill="none" stroke="#63b8ff" d="M811.44,-260.99C845.23,-250.69 887.8,-237.72 919.65,-228.01"/>
<polygon fill="#63b8ff" stroke="#63b8ff" points="810.26,-257.69 801.71,-263.95 812.3,-264.39 810.26,-257.69"/>
</a>
</g>
</g>
<!-- Node12 -->
<g id="Node000012" class="node">
<title>Node12</title>
<g id="a_Node000012"><a xlink:href="qpalm-driver_8hpp.html" target="_top" xlink:title=" ">
<polygon fill="white" stroke="#666666" points="1215.63,-96 1099.63,-96 1099.63,-66 1215.63,-66 1215.63,-96"/>
<text text-anchor="start" x="1107.63" y="-84" font-family="Helvetica,sans-Serif" font-size="10.00">src/alpaqa/src/driver</text>
<text text-anchor="middle" x="1157.63" y="-73" font-family="Helvetica,sans-Serif" font-size="10.00">/qpalm&#45;driver.hpp</text>
</a>
</g>
</g>
<!-- Node1&#45;&gt;Node12 -->
<g id="edge16_Node000001_Node000012" class="edge">
<title>Node1&#45;&gt;Node12</title>
<g id="a_edge16_Node000001_Node000012"><a xlink:title=" ">
<path fill="none" stroke="#63b8ff" d="M824.14,-278.23C883.02,-275.6 968.34,-264.86 1032.63,-228 1089.94,-195.13 1133.37,-125.77 1150.11,-96.03"/>
<polygon fill="#63b8ff" stroke="#63b8ff" points="823.69,-274.74 813.83,-278.61 823.95,-281.73 823.69,-274.74"/>
</a>
</g>
</g>
<!-- Node13 -->
<g id="Node000013" class="node">
<title>Node13</title>
<g id="a_Node000013"><a xlink:href="results_8hpp.html" target="_top" xlink:title=" ">
<polygon fill="white" stroke="#666666" points="813.63,-228 697.63,-228 697.63,-198 813.63,-198 813.63,-228"/>
<text text-anchor="start" x="705.63" y="-216" font-family="Helvetica,sans-Serif" font-size="10.00">src/alpaqa/src/driver</text>
<text text-anchor="middle" x="755.63" y="-205" font-family="Helvetica,sans-Serif" font-size="10.00">/results.hpp</text>
</a>
</g>
</g>
<!-- Node1&#45;&gt;Node13 -->
<g id="edge18_Node000001_Node000013" class="edge">
<title>Node1&#45;&gt;Node13</title>
<g id="a_edge18_Node000001_Node000013"><a xlink:title=" ">
<path fill="none" stroke="#63b8ff" d="M755.63,-253.54C755.63,-244.96 755.63,-235.61 755.63,-228.16"/>
<polygon fill="#63b8ff" stroke="#63b8ff" points="752.13,-253.8 755.63,-263.8 759.13,-253.8 752.13,-253.8"/>
</a>
</g>
</g>
<!-- Node3 -->
<g id="Node000003" class="node">
<title>Node3</title>
<g id="a_Node000003"><a xlink:href="panoc-driver_8cpp.html" target="_top" xlink:title=" ">
<polygon fill="white" stroke="#666666" points="368.63,-30 252.63,-30 252.63,0 368.63,0 368.63,-30"/>
<text text-anchor="start" x="260.63" y="-18" font-family="Helvetica,sans-Serif" font-size="10.00">src/alpaqa/src/driver</text>
<text text-anchor="middle" x="310.63" y="-7" font-family="Helvetica,sans-Serif" font-size="10.00">/panoc&#45;driver.cpp</text>
</a>
</g>
</g>
<!-- Node2&#45;&gt;Node3 -->
<g id="edge2_Node000002_Node000003" class="edge">
<title>Node2&#45;&gt;Node3</title>
<g id="a_edge2_Node000002_Node000003"><a xlink:title=" ">
<path fill="none" stroke="#63b8ff" d="M67.42,-125.93C45.08,-109.52 22.07,-85.87 38.63,-66 42.06,-61.87 173.68,-39.07 252.54,-25.73"/>
<polygon fill="#63b8ff" stroke="#63b8ff" points="65.67,-128.98 75.86,-131.84 69.68,-123.24 65.67,-128.98"/>
</a>
</g>
</g>
<!-- Node4 -->
<g id="Node000004" class="node">
<title>Node4</title>
<g id="a_Node000004"><a xlink:href="pantr-driver_8cpp.html" target="_top" xlink:title=" ">
<polygon fill="white" stroke="#666666" points="215.63,-30 99.63,-30 99.63,0 215.63,0 215.63,-30"/>
<text text-anchor="start" x="107.63" y="-18" font-family="Helvetica,sans-Serif" font-size="10.00">src/alpaqa/src/driver</text>
<text text-anchor="middle" x="157.63" y="-7" font-family="Helvetica,sans-Serif" font-size="10.00">/pantr&#45;driver.cpp</text>
</a>
</g>
</g>
<!-- Node2&#45;&gt;Node4 -->
<g id="edge3_Node000002_Node000004" class="edge">
<title>Node2&#45;&gt;Node4</title>
<g id="a_edge3_Node000002_Node000004"><a xlink:title=" ">
<path fill="none" stroke="#63b8ff" d="M41.62,-127.41C27.4,-119.96 13.9,-109.78 5.63,-96 -1.24,-84.57 -2.19,-76.8 5.63,-66 26.96,-36.52 66.26,-24.12 99.56,-19.04"/>
<polygon fill="#63b8ff" stroke="#63b8ff" points="40.49,-130.75 51.02,-131.92 43.52,-124.44 40.49,-130.75"/>
</a>
</g>
</g>
<!-- Node7 -->
<g id="Node000007" class="node">
<title>Node7</title>
<g id="a_Node000007"><a xlink:href="alpaqa-driver_8cpp.html" target="_top" xlink:title=" ">
<polygon fill="white" stroke="#666666" points="1081.63,-30 965.63,-30 965.63,0 1081.63,0 1081.63,-30"/>
<text text-anchor="start" x="973.63" y="-18" font-family="Helvetica,sans-Serif" font-size="10.00">src/alpaqa/src/driver</text>
<text text-anchor="middle" x="1023.63" y="-7" font-family="Helvetica,sans-Serif" font-size="10.00">/alpaqa&#45;driver.cpp</text>
</a>
</g>
</g>
<!-- Node6&#45;&gt;Node7 -->
<g id="edge6_Node000006_Node000007" class="edge">
<title>Node6&#45;&gt;Node7</title>
<g id="a_edge6_Node000006_Node000007"><a xlink:title=" ">
<path fill="none" stroke="#63b8ff" d="M1023.63,-55.54C1023.63,-46.96 1023.63,-37.61 1023.63,-30.16"/>
<polygon fill="#63b8ff" stroke="#63b8ff" points="1020.13,-55.8 1023.63,-65.8 1027.13,-55.8 1020.13,-55.8"/>
</a>
</g>
</g>
<!-- Node8&#45;&gt;Node7 -->
<g id="edge8_Node000008_Node000007" class="edge">
<title>Node8&#45;&gt;Node7</title>
<g id="a_edge8_Node000008_Node000007"><a xlink:title=" ">
<path fill="none" stroke="#63b8ff" d="M1223.47,-63.73C1179.66,-53.26 1123.34,-39.81 1081.66,-29.86"/>
<polygon fill="#63b8ff" stroke="#63b8ff" points="1222.93,-67.19 1233.47,-66.11 1224.56,-60.39 1222.93,-67.19"/>
</a>
</g>
</g>
<!-- Node9&#45;&gt;Node3 -->
<g id="edge11_Node000009_Node000003" class="edge">
<title>Node9&#45;&gt;Node3</title>
<g id="a_edge11_Node000009_Node000003"><a xlink:title=" ">
<path fill="none" stroke="#63b8ff" d="M380.54,-60.3C365.16,-50.56 346.96,-39.02 332.98,-30.16"/>
<polygon fill="#63b8ff" stroke="#63b8ff" points="378.89,-63.4 389.21,-65.8 382.64,-57.49 378.89,-63.4"/>
</a>
</g>
</g>
<!-- Node9&#45;&gt;Node7 -->
<g id="edge10_Node000009_Node000007" class="edge">
<title>Node9&#45;&gt;Node7</title>
<g id="a_edge10_Node000009_Node000007"><a xlink:title=" ">
<path fill="none" stroke="#63b8ff" d="M480.01,-70.54C492.2,-68.95 504.78,-67.37 516.63,-66 678.95,-47.18 871.04,-29.48 965.39,-21.09"/>
<polygon fill="#63b8ff" stroke="#63b8ff" points="479.35,-67.09 469.9,-71.87 480.27,-74.03 479.35,-67.09"/>
</a>
</g>
</g>
<!-- Node10&#45;&gt;Node4 -->
<g id="edge14_Node000010_Node000004" class="edge">
<title>Node10&#45;&gt;Node4</title>
<g id="a_edge14_Node000010_Node000004"><a xlink:title=" ">
<path fill="none" stroke="#63b8ff" d="M123.66,-57.81C131.11,-48.64 139.53,-38.28 146.12,-30.16"/>
<polygon fill="#63b8ff" stroke="#63b8ff" points="120.76,-55.83 117.17,-65.8 126.19,-60.24 120.76,-55.83"/>
</a>
</g>
</g>
<!-- Node10&#45;&gt;Node7 -->
<g id="edge13_Node000010_Node000007" class="edge">
<title>Node10&#45;&gt;Node7</title>
<g id="a_edge13_Node000010_Node000007"><a xlink:title=" ">
<path fill="none" stroke="#63b8ff" d="M173.97,-70.17C186.16,-68.62 198.76,-67.15 210.63,-66 492.82,-38.54 831.69,-23.42 965.35,-18.16"/>
<polygon fill="#63b8ff" stroke="#63b8ff" points="173.32,-66.73 163.86,-71.49 174.22,-73.67 173.32,-66.73"/>
</a>
</g>
</g>
<!-- Node12&#45;&gt;Node7 -->
<g id="edge17_Node000012_Node000007" class="edge">
<title>Node12&#45;&gt;Node7</title>
<g id="a_edge17_Node000012_Node000007"><a xlink:title=" ">
<path fill="none" stroke="#63b8ff" d="M1118.92,-61.51C1097.9,-51.47 1072.32,-39.26 1052.96,-30.01"/>
<polygon fill="#63b8ff" stroke="#63b8ff" points="1117.69,-64.8 1128.22,-65.95 1120.7,-58.49 1117.69,-64.8"/>
</a>
</g>
</g>
<!-- Node13&#45;&gt;Node2 -->
<g id="edge19_Node000013_Node000002" class="edge">
<title>Node13&#45;&gt;Node2</title>
<g id="a_edge19_Node000013_Node000002"><a xlink:title=" ">
<path fill="none" stroke="#63b8ff" d="M687.22,-205.33C557.7,-192.69 278.8,-165.48 157.71,-153.67"/>
<polygon fill="#63b8ff" stroke="#63b8ff" points="687.12,-208.83 697.41,-206.32 687.8,-201.87 687.12,-208.83"/>
</a>
</g>
</g>
<!-- Node13&#45;&gt;Node6 -->
<g id="edge21_Node000013_Node000006" class="edge">
<title>Node13&#45;&gt;Node6</title>
<g id="a_edge21_Node000013_Node000006"><a xlink:title=" ">
<path fill="none" stroke="#63b8ff" d="M770.22,-189.5C783.17,-171.32 803.72,-146.46 827.63,-132 839.55,-124.79 912.06,-107.29 965.42,-95.04"/>
<polygon fill="#63b8ff" stroke="#63b8ff" points="767.28,-187.59 764.49,-197.81 773.05,-191.57 767.28,-187.59"/>
</a>
</g>
</g>
<!-- Node13&#45;&gt;Node7 -->
<g id="edge20_Node000013_Node000007" class="edge">
<title>Node13&#45;&gt;Node7</title>
<g id="a_edge20_Node000013_Node000007"><a xlink:title=" ">
<path fill="none" stroke="#63b8ff" d="M823.84,-203.82C974.47,-185.06 1324.88,-137.39 1358.63,-96 1367.05,-85.67 1367.33,-76.1 1358.63,-66 1323.6,-25.35 1168.26,-17.25 1081.95,-15.95"/>
<polygon fill="#63b8ff" stroke="#63b8ff" points="823.27,-200.36 813.78,-205.06 824.13,-207.31 823.27,-200.36"/>
</a>
</g>
</g>
<!-- Node13&#45;&gt;Node8 -->
<g id="edge22_Node000013_Node000008" class="edge">
<title>Node13&#45;&gt;Node8</title>
<g id="a_edge22_Node000013_Node000008"><a xlink:title=" ">
<path fill="none" stroke="#63b8ff" d="M823.47,-195.54C929.76,-169.77 1133.69,-120.3 1233.59,-96.08"/>
<polygon fill="#63b8ff" stroke="#63b8ff" points="822.39,-192.21 813.5,-197.96 824.04,-199.01 822.39,-192.21"/>
</a>
</g>
</g>
<!-- Node13&#45;&gt;Node9 -->
<g id="edge23_Node000013_Node000009" class="edge">
<title>Node13&#45;&gt;Node9</title>
<g id="a_edge23_Node000013_Node000009"><a xlink:title=" ">
<path fill="none" stroke="#63b8ff" d="M713.06,-193.67C693.64,-184.81 670.57,-173.6 650.63,-162 630.48,-150.28 628.81,-141.7 607.63,-132 583.28,-120.85 518.39,-105.24 469.89,-94.44"/>
<polygon fill="#63b8ff" stroke="#63b8ff" points="711.72,-196.9 722.28,-197.81 714.59,-190.52 711.72,-196.9"/>
</a>
</g>
</g>
<!-- Node13&#45;&gt;Node10 -->
<g id="edge24_Node000013_Node000010" class="edge">
<title>Node13&#45;&gt;Node10</title>
<g id="a_edge24_Node000013_Node000010"><a xlink:title=" ">
<path fill="none" stroke="#63b8ff" d="M702.35,-194.72C674.08,-185.37 638.84,-173.42 607.63,-162 573.52,-149.52 566.91,-140.58 531.63,-132 377.96,-94.62 334.07,-119.12 177.63,-96 173.09,-95.33 168.41,-94.57 163.71,-93.76"/>
<polygon fill="#63b8ff" stroke="#63b8ff" points="701.44,-198.1 712.04,-197.91 703.63,-191.46 701.44,-198.1"/>
</a>
</g>
</g>
<!-- Node13&#45;&gt;Node12 -->
<g id="edge25_Node000013_Node000012" class="edge">
<title>Node13&#45;&gt;Node12</title>
<g id="a_edge25_Node000013_Node000012"><a xlink:title=" ">
<path fill="none" stroke="#63b8ff" d="M801.89,-194.3C846.76,-177.4 916.92,-151.66 978.63,-132 1020.13,-118.78 1067.64,-105.6 1103.28,-96.09"/>
<polygon fill="#63b8ff" stroke="#63b8ff" points="800.55,-191.06 792.44,-197.87 803.03,-197.61 800.55,-191.06"/>
</a>
</g>
</g>
<!-- Node14 -->
<g id="Node000014" class="node">
<title>Node14</title>
<g id="a_Node000014"><a xlink:href="solver-driver_8hpp.html" target="_top" xlink:title=" ">
<polygon fill="white" stroke="#666666" points="775.63,-162 659.63,-162 659.63,-132 775.63,-132 775.63,-162"/>
<text text-anchor="start" x="667.63" y="-150" font-family="Helvetica,sans-Serif" font-size="10.00">src/alpaqa/src/driver</text>
<text text-anchor="middle" x="717.63" y="-139" font-family="Helvetica,sans-Serif" font-size="10.00">/solver&#45;driver.hpp</text>
</a>
</g>
</g>
<!-- Node13&#45;&gt;Node14 -->
<g id="edge26_Node000013_Node000014" class="edge">
<title>Node13&#45;&gt;Node14</title>
<g id="a_edge26_Node000013_Node000014"><a xlink:title=" ">
<path fill="none" stroke="#63b8ff" d="M741.95,-188.96C736.63,-180 730.7,-170.03 726.04,-162.16"/>
<polygon fill="#63b8ff" stroke="#63b8ff" points="739.08,-190.98 747.19,-197.8 745.1,-187.41 739.08,-190.98"/>
</a>
</g>
</g>
<!-- Node14&#45;&gt;Node3 -->
<g id="edge35_Node000014_Node000003" class="edge">
<title>Node14&#45;&gt;Node3</title>
<g id="a_edge35_Node000014_Node000003"><a xlink:title=" ">
<path fill="none" stroke="#63b8ff" d="M649.29,-132.23C600.62,-121.81 539.88,-107.41 516.63,-96 497.31,-86.52 497.72,-75.91 478.63,-66 444.05,-48.06 402.05,-35.56 368.7,-27.54"/>
<polygon fill="#63b8ff" stroke="#63b8ff" points="648.66,-135.67 659.16,-134.32 650.11,-128.82 648.66,-135.67"/>
</a>
</g>
</g>
<!-- Node14&#45;&gt;Node4 -->
<g id="edge37_Node000014_Node000004" class="edge">
<title>Node14&#45;&gt;Node4</title>
<g id="a_edge37_Node000014_Node000004"><a xlink:title=" ">
<path fill="none" stroke="#63b8ff" d="M649.49,-136.94C635.65,-135.21 621.18,-133.48 607.63,-132 519.56,-122.41 286.69,-141.4 210.63,-96 185.45,-80.97 169.84,-48.8 162.54,-30.15"/>
<polygon fill="#63b8ff" stroke="#63b8ff" points="649.08,-140.41 659.44,-138.2 649.96,-133.47 649.08,-140.41"/>
</a>
</g>
</g>
<!-- Node14&#45;&gt;Node6 -->
<g id="edge32_Node000014_Node000006" class="edge">
<title>Node14&#45;&gt;Node6</title>
<g id="a_edge32_Node000014_Node000006"><a xlink:title=" ">
<path fill="none" stroke="#63b8ff" d="M785.73,-131.76C839.73,-120.46 914.37,-104.85 965.57,-94.14"/>
<polygon fill="#63b8ff" stroke="#63b8ff" points="784.97,-128.34 775.9,-133.81 786.41,-135.19 784.97,-128.34"/>
</a>
</g>
</g>
<!-- Node14&#45;&gt;Node7 -->
<g id="edge27_Node000014_Node000007" class="edge">
<title>Node14&#45;&gt;Node7</title>
<g id="a_edge27_Node000014_Node000007"><a xlink:title=" ">
<path fill="none" stroke="#63b8ff" d="M785.96,-132.23C834.63,-121.81 895.37,-107.41 918.63,-96 937.94,-86.52 939.56,-79.1 956.63,-66 972.63,-53.72 991.01,-40.03 1004.46,-30.09"/>
<polygon fill="#63b8ff" stroke="#63b8ff" points="785.14,-128.82 776.09,-134.32 786.59,-135.67 785.14,-128.82"/>
</a>
</g>
</g>
<!-- Node14&#45;&gt;Node8 -->
<g id="edge34_Node000014_Node000008" class="edge">
<title>Node14&#45;&gt;Node8</title>
<g id="a_edge34_Node000014_Node000008"><a xlink:title=" ">
<path fill="none" stroke="#63b8ff" d="M785.69,-141.63C883.28,-134.83 1068.42,-119.95 1224.63,-96 1227.56,-95.55 1230.56,-95.05 1233.59,-94.53"/>
<polygon fill="#63b8ff" stroke="#63b8ff" points="785.4,-138.14 775.67,-142.32 785.88,-145.12 785.4,-138.14"/>
</a>
</g>
</g>
<!-- Node14&#45;&gt;Node9 -->
<g id="edge36_Node000014_Node000009" class="edge">
<title>Node14&#45;&gt;Node9</title>
<g id="a_edge36_Node000014_Node000009"><a xlink:title=" ">
<path fill="none" stroke="#63b8ff" d="M649.52,-131.76C595.52,-120.46 520.88,-104.85 469.68,-94.14"/>
<polygon fill="#63b8ff" stroke="#63b8ff" points="648.84,-135.19 659.35,-133.81 650.28,-128.34 648.84,-135.19"/>
</a>
</g>
</g>
<!-- Node14&#45;&gt;Node10 -->
<g id="edge38_Node000014_Node000010" class="edge">
<title>Node14&#45;&gt;Node10</title>
<g id="a_edge38_Node000014_Node000010"><a xlink:title=" ">
<path fill="none" stroke="#63b8ff" d="M649.5,-136.87C635.66,-135.14 621.18,-133.43 607.63,-132 416.9,-111.89 367.59,-122.34 177.63,-96 173.08,-95.37 168.4,-94.64 163.69,-93.85"/>
<polygon fill="#63b8ff" stroke="#63b8ff" points="649.09,-140.34 659.45,-138.12 649.97,-133.4 649.09,-140.34"/>
</a>
</g>
</g>
<!-- Node14&#45;&gt;Node12 -->
<g id="edge40_Node000014_Node000012" class="edge">
<title>Node14&#45;&gt;Node12</title>
<g id="a_edge40_Node000014_Node000012"><a xlink:title=" ">
<path fill="none" stroke="#63b8ff" d="M785.76,-137.14C885.16,-124.17 1061.32,-101.02 1090.63,-96 1093.55,-95.5 1096.55,-94.96 1099.57,-94.4"/>
<polygon fill="#63b8ff" stroke="#63b8ff" points="785.27,-133.67 775.8,-138.44 786.17,-140.62 785.27,-133.67"/>
</a>
</g>
</g>
<!-- Node15 -->
<g id="Node000015" class="node">
<title>Node15</title>
<g id="a_Node000015"><a xlink:href="extra-stats_8hpp.html" target="_top" xlink:title=" ">
<polygon fill="white" stroke="#666666" points="335.63,-96 219.63,-96 219.63,-66 335.63,-66 335.63,-96"/>
<text text-anchor="start" x="227.63" y="-84" font-family="Helvetica,sans-Serif" font-size="10.00">src/alpaqa/src/driver</text>
<text text-anchor="middle" x="277.63" y="-73" font-family="Helvetica,sans-Serif" font-size="10.00">/extra&#45;stats.hpp</text>
</a>
</g>
</g>
<!-- Node14&#45;&gt;Node15 -->
<g id="edge28_Node000014_Node000015" class="edge">
<title>Node14&#45;&gt;Node15</title>
<g id="a_edge28_Node000014_Node000015"><a xlink:title=" ">
<path fill="none" stroke="#63b8ff" d="M649.49,-137.14C550.09,-124.17 373.93,-101.02 344.63,-96 341.7,-95.5 338.7,-94.96 335.68,-94.4"/>
<polygon fill="#63b8ff" stroke="#63b8ff" points="649.08,-140.62 659.45,-138.44 649.98,-133.67 649.08,-140.62"/>
</a>
</g>
</g>
<!-- Node16 -->
<g id="Node000016" class="node">
<title>Node16</title>
<g id="a_Node000016"><a xlink:href="ipopt-driver_8cpp.html" target="_top" xlink:title=" ">
<polygon fill="white" stroke="#666666" points="641.63,-96 525.63,-96 525.63,-66 641.63,-66 641.63,-96"/>
<text text-anchor="start" x="533.63" y="-84" font-family="Helvetica,sans-Serif" font-size="10.00">src/alpaqa/src/driver</text>
<text text-anchor="middle" x="583.63" y="-73" font-family="Helvetica,sans-Serif" font-size="10.00">/ipopt&#45;driver.cpp</text>
</a>
</g>
</g>
<!-- Node14&#45;&gt;Node16 -->
<g id="edge31_Node000014_Node000016" class="edge">
<title>Node14&#45;&gt;Node16</title>
<g id="a_edge31_Node000014_Node000016"><a xlink:title=" ">
<path fill="none" stroke="#63b8ff" d="M678.92,-127.51C657.9,-117.47 632.32,-105.26 612.96,-96.01"/>
<polygon fill="#63b8ff" stroke="#63b8ff" points="677.69,-130.8 688.22,-131.95 680.7,-124.49 677.69,-130.8"/>
</a>
</g>
</g>
<!-- Node17 -->
<g id="Node000017" class="node">
<title>Node17</title>
<g id="a_Node000017"><a xlink:href="lbfgsb-driver_8cpp.html" target="_top" xlink:title=" ">
<polygon fill="white" stroke="#666666" points="775.63,-96 659.63,-96 659.63,-66 775.63,-66 775.63,-96"/>
<text text-anchor="start" x="667.63" y="-84" font-family="Helvetica,sans-Serif" font-size="10.00">src/alpaqa/src/driver</text>
<text text-anchor="middle" x="717.63" y="-73" font-family="Helvetica,sans-Serif" font-size="10.00">/lbfgsb&#45;driver.cpp</text>
</a>
</g>
</g>
<!-- Node14&#45;&gt;Node17 -->
<g id="edge33_Node000014_Node000017" class="edge">
<title>Node14&#45;&gt;Node17</title>
<g id="a_edge33_Node000014_Node000017"><a xlink:title=" ">
<path fill="none" stroke="#63b8ff" d="M717.63,-121.54C717.63,-112.96 717.63,-103.61 717.63,-96.16"/>
<polygon fill="#63b8ff" stroke="#63b8ff" points="714.13,-121.8 717.63,-131.8 721.13,-121.8 714.13,-121.8"/>
</a>
</g>
</g>
<!-- Node18 -->
<g id="Node000018" class="node">
<title>Node18</title>
<g id="a_Node000018"><a xlink:href="qpalm-driver_8cpp.html" target="_top" xlink:title=" ">
<polygon fill="white" stroke="#666666" points="909.63,-96 793.63,-96 793.63,-66 909.63,-66 909.63,-96"/>
<text text-anchor="start" x="801.63" y="-84" font-family="Helvetica,sans-Serif" font-size="10.00">src/alpaqa/src/driver</text>
<text text-anchor="middle" x="851.63" y="-73" font-family="Helvetica,sans-Serif" font-size="10.00">/qpalm&#45;driver.cpp</text>
</a>
</g>
</g>
<!-- Node14&#45;&gt;Node18 -->
<g id="edge39_Node000014_Node000018" class="edge">
<title>Node14&#45;&gt;Node18</title>
<g id="a_edge39_Node000014_Node000018"><a xlink:title=" ">
<path fill="none" stroke="#63b8ff" d="M756.33,-127.51C777.35,-117.47 802.93,-105.26 822.29,-96.01"/>
<polygon fill="#63b8ff" stroke="#63b8ff" points="754.55,-124.49 747.03,-131.95 757.56,-130.8 754.55,-124.49"/>
</a>
</g>
</g>
<!-- Node15&#45;&gt;Node3 -->
<g id="edge29_Node000015_Node000003" class="edge">
<title>Node15&#45;&gt;Node3</title>
<g id="a_edge29_Node000015_Node000003"><a xlink:title=" ">
<path fill="none" stroke="#63b8ff" d="M289.65,-56.68C294.23,-47.79 299.31,-37.95 303.32,-30.16"/>
<polygon fill="#63b8ff" stroke="#63b8ff" points="286.42,-55.3 284.95,-65.8 292.64,-58.51 286.42,-55.3"/>
</a>
</g>
</g>
<!-- Node15&#45;&gt;Node4 -->
<g id="edge30_Node000015_Node000004" class="edge">
<title>Node15&#45;&gt;Node4</title>
<g id="a_edge30_Node000015_Node000004"><a xlink:title=" ">
<path fill="none" stroke="#63b8ff" d="M242.45,-61.24C223.73,-51.25 201.08,-39.18 183.9,-30.01"/>
<polygon fill="#63b8ff" stroke="#63b8ff" points="240.82,-64.34 251.29,-65.95 244.11,-58.16 240.82,-64.34"/>
</a>
</g>
</g>
</g>
</svg>

<g id="navigator" transform="translate(0 0)" fill="#404254">
  <rect fill="#f2f5e9" fill-opacity="0.5" stroke="#606060" stroke-width=".5" x="0" y="0" width="60" height="60"/>
  <use id="zoomplus" xlink:href="#zoomPlus" x="17" y="9" onmousedown="handleZoom(evt,'in')"/>
  <use id="zoomminus" xlink:href="#zoomMin" x="42" y="9" onmousedown="handleZoom(evt,'out')"/>
  <use id="reset" xlink:href="#resetDef" x="30" y="36" onmousedown="handleReset()"/>
   <use id="arrowup" xlink:href="#arrowUp" x="0" y="0" onmousedown="handlePan(0,-1)"/>
  <use id="arrowright" xlink:href="#arrowRight" x="0" y="0" onmousedown="handlePan(1,0)"/>
  <use id="arrowdown" xlink:href="#arrowDown" x="0" y="0" onmousedown="handlePan(0,1)"/>
  <use id="arrowleft" xlink:href="#arrowLeft" x="0" y="0" onmousedown="handlePan(-1,0)"/>
</g>
<svg viewBox="0 0 15 15" width="100%" height="30px" preserveAspectRatio="xMaxYMin meet">
 <g id="arrow_out" transform="scale(0.3 0.3)">
  <a xlink:href="problem_8hpp__dep__incl_org.svg" target="_base">
   <rect id="button" ry="5" rx="5" y="6" x="6" height="38" width="38"
        fill="#f2f5e9" fill-opacity="0.5" stroke="#606060" stroke-width="1.0"/>
   <path id="arrow"
     d="M 11.500037,31.436501 C 11.940474,20.09759 22.043105,11.32322 32.158766,21.979434 L 37.068811,17.246167 C 37.068811,17.246167 37.088388,32 37.088388,32 L 22.160133,31.978069 C 22.160133,31.978069 26.997745,27.140456 26.997745,27.140456 C 18.528582,18.264221 13.291696,25.230495 11.500037,31.436501 z"
     style="fill:#404040;"/>
  </a>
 </g>
</svg>

<style type='text/css'>
<![CDATA[
[data-mouse-over-selected='false'] { opacity: 0.7; }
[data-mouse-over-selected='true']  { opacity: 1.0; }
]]>
</style>
<script type="application/ecmascript"><![CDATA[
document.addEventListener('DOMContentLoaded', (event) => {
  highlightEdges();
  highlightAdjacentNodes();
});
]]></script>
</svg>
