<?xml version="1.0" encoding="UTF-8" standalone="no"?>
<!DOCTYPE svg PUBLIC "-//W3C//DTD SVG 1.1//EN"
 "http://www.w3.org/Graphics/SVG/1.1/DTD/svg11.dtd">
<!-- Generated by graphviz version 2.43.0 (0)
 -->
<!-- Title: print_results Pages: 1 -->
<!--zoomable 129 -->

<svg id="main" version="1.1" xmlns="http://www.w3.org/2000/svg" xmlns:xlink="http://www.w3.org/1999/xlink" xml:space="preserve" onload="init(evt)">
<style type="text/css"><![CDATA[
.node, .edge {opacity: 0.7;}
.node.selected, .edge.selected {opacity: 1;}
.edge:hover path { stroke: red; }
.edge:hover polygon { stroke: red; fill: red; }
]]></style>

<defs>
  <circle id="rim" cx="0" cy="0" r="7"/>
  <circle id="rim2" cx="0" cy="0" r="3.5"/>
  <g id="zoomPlus">
    <use xlink:href="#rim" fill="#404040"><set attributeName="fill" to="#808080" begin="zoomplus.mouseover" end="zoomplus.mouseout"/></use>
    <path d="M-4,0h8M0,-4v8" fill="none" stroke="white" stroke-width="1.5" pointer-events="none"/>
  </g>
  <g id="zoomMin">
    <use xlink:href="#rim" fill="#404040"><set attributeName="fill" to="#808080" begin="zoomminus.mouseover" end="zoomminus.mouseout"/></use>
    <path d="M-4,0h8" fill="none" stroke="white" stroke-width="1.5" pointer-events="none"/>
  </g>
  <g id="arrowUp" transform="translate(30 24)">
    <use xlink:href="#rim"/>
    <path pointer-events="none" fill="none" stroke="white" stroke-width="1.5" d="M0,-3.0v7 M-2.5,-0.5L0,-3.0L2.5,-0.5"/>
  </g>
  <g id="arrowRight" transform="rotate(90) translate(36 -43)">
    <use xlink:href="#rim"/>
    <path pointer-events="none" fill="none" stroke="white" stroke-width="1.5" d="M0,-3.0v7 M-2.5,-0.5L0,-3.0L2.5,-0.5"/>
  </g>
  <g id="arrowDown" transform="rotate(180) translate(-30 -48)">
    <use xlink:href="#rim"/>
    <path pointer-events="none" fill="none" stroke="white" stroke-width="1.5" d="M0,-3.0v7 M-2.5,-0.5L0,-3.0L2.5,-0.5"/>
  </g>
  <g id="arrowLeft" transform="rotate(270) translate(-36 17)">
    <use xlink:href="#rim"/>
    <path pointer-events="none" fill="none" stroke="white" stroke-width="1.5" d="M0,-3.0v7 M-2.5,-0.5L0,-3.0L2.5,-0.5"/>
  </g>
  <g id="resetDef">
    <use xlink:href="#rim2" fill="#404040"><set attributeName="fill" to="#808080" begin="reset.mouseover" end="reset.mouseout"/></use>
  </g>
</defs>
<script type="application/ecmascript">
var viewWidth = 585;
var viewHeight = 129;
var sectionId = 'dynsection-3';
</script>
<script type="application/ecmascript" xlink:href="svg.min.js"/>
<svg id="graph" class="graph">
<g id="viewport">
<title>print_results</title>
<!-- Node1 -->
<g id="Node000001" class="node">
<title>Node1</title>
<g id="a_Node000001"><a xlink:title=" ">
<polygon fill="#999999" stroke="#666666" points="77,-72.5 0,-72.5 0,-53.5 77,-53.5 77,-72.5"/>
<text text-anchor="middle" x="38.5" y="-60.5" font-family="Helvetica,sans-Serif" font-size="10.00">print_results</text>
</a>
</g>
</g>
<!-- Node2 -->
<g id="Node000002" class="node">
<title>Node2</title>
<g id="a_Node000002"><a xlink:href="namespacealpaqa.html#ae50af6bf82d3c0cc4093c46b8e2c4379" target="_top" xlink:title=" ">
<polygon fill="white" stroke="#666666" points="244,-115.5 134,-115.5 134,-96.5 244,-96.5 244,-115.5"/>
<text text-anchor="middle" x="189" y="-103.5" font-family="Helvetica,sans-Serif" font-size="10.00">alpaqa::float_to_str</text>
</a>
</g>
</g>
<!-- Node1&#45;&gt;Node2 -->
<g id="edge1_Node000001_Node000002" class="edge">
<title>Node1&#45;&gt;Node2</title>
<g id="a_edge1_Node000001_Node000002"><a xlink:title=" ">
<path fill="none" stroke="#63b8ff" d="M67.28,-72.56C80.98,-77.15 97.79,-82.59 113,-87 121.16,-89.36 129.87,-91.72 138.35,-93.93"/>
<polygon fill="#63b8ff" stroke="#63b8ff" points="137.61,-97.35 148.16,-96.44 139.34,-90.57 137.61,-97.35"/>
</a>
</g>
</g>
<!-- Node5 -->
<g id="Node000005" class="node">
<title>Node5</title>
<g id="a_Node000005"><a xlink:href="classalpaqa_1_1TypeErasedProblem.html#a4cb358cffb880a83ec60933c6d44cef4" target="_top" xlink:title="[Required] Number of constraints.">
<polygon fill="white" stroke="#666666" points="265,-78 113,-78 113,-48 265,-48 265,-78"/>
<text text-anchor="start" x="121" y="-66" font-family="Helvetica,sans-Serif" font-size="10.00">alpaqa::TypeErasedProblem</text>
<text text-anchor="middle" x="189" y="-55" font-family="Helvetica,sans-Serif" font-size="10.00">::get_m</text>
</a>
</g>
</g>
<!-- Node1&#45;&gt;Node5 -->
<g id="edge4_Node000001_Node000005" class="edge">
<title>Node1&#45;&gt;Node5</title>
<g id="a_edge4_Node000001_Node000005"><a xlink:title=" ">
<path fill="none" stroke="#63b8ff" d="M77.36,-63C85.29,-63 93.95,-63 102.83,-63"/>
<polygon fill="#63b8ff" stroke="#63b8ff" points="102.91,-66.5 112.91,-63 102.91,-59.5 102.91,-66.5"/>
</a>
</g>
</g>
<!-- Node6 -->
<g id="Node000006" class="node">
<title>Node6</title>
<g id="a_Node000006"><a xlink:href="classalpaqa_1_1TypeErasedProblem.html#a3e0872a0f29741da3d5429fce2749a34" target="_top" xlink:title="[Required] Number of decision variables.">
<polygon fill="white" stroke="#666666" points="265,-30 113,-30 113,0 265,0 265,-30"/>
<text text-anchor="start" x="121" y="-18" font-family="Helvetica,sans-Serif" font-size="10.00">alpaqa::TypeErasedProblem</text>
<text text-anchor="middle" x="189" y="-7" font-family="Helvetica,sans-Serif" font-size="10.00">::get_n</text>
</a>
</g>
</g>
<!-- Node1&#45;&gt;Node6 -->
<g id="edge5_Node000001_Node000006" class="edge">
<title>Node1&#45;&gt;Node6</title>
<g id="a_edge5_Node000001_Node000006"><a xlink:title=" ">
<path fill="none" stroke="#63b8ff" d="M68.46,-53.5C81.99,-49.07 98.31,-43.75 113,-39 118.89,-37.1 125.04,-35.11 131.18,-33.14"/>
<polygon fill="#63b8ff" stroke="#63b8ff" points="132.32,-36.45 140.78,-30.06 130.19,-29.79 132.32,-36.45"/>
</a>
</g>
</g>
<!-- Node3 -->
<g id="Node000003" class="node">
<title>Node3</title>
<g id="a_Node000003"><a xlink:href="namespacealpaqa.html#ab5ac74453b63ae65ae675f0fb385fc32" target="_top" xlink:title=" ">
<polygon fill="white" stroke="#666666" points="431,-115.5 301,-115.5 301,-96.5 431,-96.5 431,-115.5"/>
<text text-anchor="middle" x="366" y="-103.5" font-family="Helvetica,sans-Serif" font-size="10.00">alpaqa::float_to_str_vw</text>
</a>
</g>
</g>
<!-- Node2&#45;&gt;Node3 -->
<g id="edge2_Node000002_Node000003" class="edge">
<title>Node2&#45;&gt;Node3</title>
<g id="a_edge2_Node000002_Node000003"><a xlink:title=" ">
<path fill="none" stroke="#63b8ff" d="M244.41,-106C259.06,-106 275.16,-106 290.7,-106"/>
<polygon fill="#63b8ff" stroke="#63b8ff" points="290.8,-109.5 300.8,-106 290.8,-102.5 290.8,-109.5"/>
</a>
</g>
</g>
<!-- Node4 -->
<g id="Node000004" class="node">
<title>Node4</title>
<g id="a_Node000004"><a xlink:href="namespacealpaqa.html#a3d355dd7c275da0f2e297743294d582b" target="_top" xlink:title=" ">
<polygon fill="white" stroke="#666666" points="577,-121 467,-121 467,-91 577,-91 577,-121"/>
<text text-anchor="start" x="475" y="-109" font-family="Helvetica,sans-Serif" font-size="10.00">alpaqa::float_to_str</text>
<text text-anchor="middle" x="522" y="-98" font-family="Helvetica,sans-Serif" font-size="10.00">_vw_snprintf</text>
</a>
</g>
</g>
<!-- Node3&#45;&gt;Node4 -->
<g id="edge3_Node000003_Node000004" class="edge">
<title>Node3&#45;&gt;Node4</title>
<g id="a_edge3_Node000003_Node000004"><a xlink:title=" ">
<path fill="none" stroke="#63b8ff" d="M431.42,-106C439.74,-106 448.26,-106 456.58,-106"/>
<polygon fill="#63b8ff" stroke="#63b8ff" points="456.6,-109.5 466.6,-106 456.6,-102.5 456.6,-109.5"/>
</a>
</g>
</g>
</g>
</svg>

<g id="navigator" transform="translate(0 0)" fill="#404254">
  <rect fill="#f2f5e9" fill-opacity="0.5" stroke="#606060" stroke-width=".5" x="0" y="0" width="60" height="60"/>
  <use id="zoomplus" xlink:href="#zoomPlus" x="17" y="9" onmousedown="handleZoom(evt,'in')"/>
  <use id="zoomminus" xlink:href="#zoomMin" x="42" y="9" onmousedown="handleZoom(evt,'out')"/>
  <use id="reset" xlink:href="#resetDef" x="30" y="36" onmousedown="handleReset()"/>
   <use id="arrowup" xlink:href="#arrowUp" x="0" y="0" onmousedown="handlePan(0,-1)"/>
  <use id="arrowright" xlink:href="#arrowRight" x="0" y="0" onmousedown="handlePan(1,0)"/>
  <use id="arrowdown" xlink:href="#arrowDown" x="0" y="0" onmousedown="handlePan(0,1)"/>
  <use id="arrowleft" xlink:href="#arrowLeft" x="0" y="0" onmousedown="handlePan(-1,0)"/>
</g>
<svg viewBox="0 0 15 15" width="100%" height="30px" preserveAspectRatio="xMaxYMin meet">
 <g id="arrow_out" transform="scale(0.3 0.3)">
  <a xlink:href="results_8hpp_ac44ace62be5699e983e8e4596ea74cf1_cgraph_org.svg" target="_base">
   <rect id="button" ry="5" rx="5" y="6" x="6" height="38" width="38"
        fill="#f2f5e9" fill-opacity="0.5" stroke="#606060" stroke-width="1.0"/>
   <path id="arrow"
     d="M 11.500037,31.436501 C 11.940474,20.09759 22.043105,11.32322 32.158766,21.979434 L 37.068811,17.246167 C 37.068811,17.246167 37.088388,32 37.088388,32 L 22.160133,31.978069 C 22.160133,31.978069 26.997745,27.140456 26.997745,27.140456 C 18.528582,18.264221 13.291696,25.230495 11.500037,31.436501 z"
     style="fill:#404040;"/>
  </a>
 </g>
</svg>

<style type='text/css'>
<![CDATA[
[data-mouse-over-selected='false'] { opacity: 0.7; }
[data-mouse-over-selected='true']  { opacity: 1.0; }
]]>
</style>
<script type="application/ecmascript"><![CDATA[
document.addEventListener('DOMContentLoaded', (event) => {
  highlightEdges();
  highlightAdjacentNodes();
});
]]></script>
</svg>
