<?xml version="1.0" encoding="UTF-8" standalone="no"?>
<!DOCTYPE svg PUBLIC "-//W3C//DTD SVG 1.1//EN"
 "http://www.w3.org/Graphics/SVG/1.1/DTD/svg11.dtd">
<!-- Generated by graphviz version 2.43.0 (0)
 -->
<!-- Title: CasADiFunctionsWithParam&lt; Conf &gt; Pages: 1 -->
<svg width="500pt" height="415pt"
 viewBox="0.00 0.00 500.00 415.00" xmlns="http://www.w3.org/2000/svg" xmlns:xlink="http://www.w3.org/1999/xlink">

<svg id="main" version="1.1" xmlns="http://www.w3.org/2000/svg" xmlns:xlink="http://www.w3.org/1999/xlink" xml:space="preserve" onload="init(evt)">
<style type="text/css"><![CDATA[
.node, .edge {opacity: 0.7;}
.node.selected, .edge.selected {opacity: 1;}
.edge:hover path { stroke: red; }
.edge:hover polygon { stroke: red; fill: red; }
]]></style>
<script type="application/ecmascript" xlink:href="svg.min.js"/>
<svg id="graph" class="graph">
<g id="graph0" class="graph" transform="scale(1 1) rotate(0) translate(4 411)">
<title>CasADiFunctionsWithParam&lt; Conf &gt;</title>
<!-- Node1 -->
<g id="Node000001" class="node">
<title>Node1</title>
<g id="a_Node000001"><a xlink:title=" ">
<polygon fill="#999999" stroke="transparent" points="319,-180 173,-180 173,0 319,0 319,-180"/>
<text text-anchor="start" x="178" y="-168" font-family="Helvetica,sans-Serif" font-size="10.00">CasADiFunctionsWithParam</text>
<text text-anchor="start" x="223" y="-157" font-family="Helvetica,sans-Serif" font-size="10.00">&lt; Conf &gt;</text>
<text text-anchor="start" x="192.5" y="-142" font-family="Helvetica,sans-Serif" font-size="10.00">+</text>
<text text-anchor="start" x="221" y="-142" font-family="Helvetica,sans-Serif" font-size="10.00">n</text>
<text text-anchor="start" x="192.5" y="-127" font-family="Helvetica,sans-Serif" font-size="10.00">+</text>
<text text-anchor="start" x="221" y="-127" font-family="Helvetica,sans-Serif" font-size="10.00">m</text>
<text text-anchor="start" x="192.5" y="-112" font-family="Helvetica,sans-Serif" font-size="10.00">+</text>
<text text-anchor="start" x="221" y="-112" font-family="Helvetica,sans-Serif" font-size="10.00">p</text>
<text text-anchor="start" x="192.5" y="-97" font-family="Helvetica,sans-Serif" font-size="10.00">+</text>
<text text-anchor="start" x="221" y="-97" font-family="Helvetica,sans-Serif" font-size="10.00">constr</text>
<text text-anchor="start" x="192.5" y="-82" font-family="Helvetica,sans-Serif" font-size="10.00">+</text>
<text text-anchor="start" x="221" y="-82" font-family="Helvetica,sans-Serif" font-size="10.00">hess_L_prod</text>
<text text-anchor="start" x="192.5" y="-67" font-family="Helvetica,sans-Serif" font-size="10.00">+</text>
<text text-anchor="start" x="221" y="-67" font-family="Helvetica,sans-Serif" font-size="10.00">hess_L</text>
<text text-anchor="start" x="192.5" y="-52" font-family="Helvetica,sans-Serif" font-size="10.00">+</text>
<text text-anchor="start" x="221" y="-52" font-family="Helvetica,sans-Serif" font-size="10.00">hess_ψ_prod</text>
<text text-anchor="start" x="192.5" y="-37" font-family="Helvetica,sans-Serif" font-size="10.00">+</text>
<text text-anchor="start" x="221" y="-37" font-family="Helvetica,sans-Serif" font-size="10.00">hess_ψ</text>
<text text-anchor="start" x="192.5" y="-22" font-family="Helvetica,sans-Serif" font-size="10.00">+</text>
<text text-anchor="start" x="221" y="-22" font-family="Helvetica,sans-Serif" font-size="10.00">jac_g</text>
<text text-anchor="start" x="192.5" y="-7" font-family="Helvetica,sans-Serif" font-size="10.00">+</text>
<text text-anchor="start" x="221" y="-7" font-family="Helvetica,sans-Serif" font-size="10.00">load()</text>
<polygon fill="#666666" stroke="#666666" points="173,-152 173,-152 319,-152 319,-152 173,-152"/>
<polygon fill="#666666" stroke="#666666" points="173,-17 173,-17 219,-17 219,-17 173,-17"/>
<polygon fill="#666666" stroke="#666666" points="219,-17 219,-17 319,-17 319,-17 219,-17"/>
<polygon fill="none" stroke="#666666" points="173,0 173,-180 319,-180 319,0 173,0"/>
</a>
</g>
</g>
<!-- Node2 -->
<g id="Node000002" class="node">
<title>Node2</title>
<g id="a_Node000002"><a xlink:href="classalpaqa_1_1casadi__loader_1_1CasADiFunctionEvaluator.html" target="_top" xlink:title=" ">
<polygon fill="white" stroke="transparent" points="152,-407 0,-407 0,-227 152,-227 152,-407"/>
<text text-anchor="start" x="14" y="-395" font-family="Helvetica,sans-Serif" font-size="10.00">CasADiFunctionEvaluator</text>
<text text-anchor="start" x="41" y="-384" font-family="Helvetica,sans-Serif" font-size="10.00">&lt; Conf, 2, 1 &gt;</text>
<text text-anchor="start" x="4" y="-369" font-family="Helvetica,sans-Serif" font-size="10.00">+</text>
<text text-anchor="start" x="17" y="-369" font-family="Helvetica,sans-Serif" font-size="10.00">fun</text>
<text text-anchor="start" x="6.5" y="-354" font-family="Helvetica,sans-Serif" font-size="10.00">&#45;</text>
<text text-anchor="start" x="17" y="-354" font-family="Helvetica,sans-Serif" font-size="10.00">iwork</text>
<text text-anchor="start" x="6.5" y="-339" font-family="Helvetica,sans-Serif" font-size="10.00">&#45;</text>
<text text-anchor="start" x="17" y="-339" font-family="Helvetica,sans-Serif" font-size="10.00">dwork</text>
<text text-anchor="start" x="6.5" y="-324" font-family="Helvetica,sans-Serif" font-size="10.00">&#45;</text>
<text text-anchor="start" x="17" y="-324" font-family="Helvetica,sans-Serif" font-size="10.00">arg_work</text>
<text text-anchor="start" x="6.5" y="-309" font-family="Helvetica,sans-Serif" font-size="10.00">&#45;</text>
<text text-anchor="start" x="17" y="-309" font-family="Helvetica,sans-Serif" font-size="10.00">res_work</text>
<text text-anchor="start" x="4" y="-294" font-family="Helvetica,sans-Serif" font-size="10.00">+</text>
<text text-anchor="start" x="17" y="-294" font-family="Helvetica,sans-Serif" font-size="10.00">CasADiFunctionEvaluator()</text>
<text text-anchor="start" x="4" y="-279" font-family="Helvetica,sans-Serif" font-size="10.00">+</text>
<text text-anchor="start" x="17" y="-279" font-family="Helvetica,sans-Serif" font-size="10.00">CasADiFunctionEvaluator()</text>
<text text-anchor="start" x="4" y="-264" font-family="Helvetica,sans-Serif" font-size="10.00">+</text>
<text text-anchor="start" x="17" y="-264" font-family="Helvetica,sans-Serif" font-size="10.00">validate_dimensions()</text>
<text text-anchor="start" x="4" y="-249" font-family="Helvetica,sans-Serif" font-size="10.00">+</text>
<text text-anchor="start" x="17" y="-249" font-family="Helvetica,sans-Serif" font-size="10.00">operator()()</text>
<text text-anchor="start" x="4" y="-234" font-family="Helvetica,sans-Serif" font-size="10.00">#</text>
<text text-anchor="start" x="17" y="-234" font-family="Helvetica,sans-Serif" font-size="10.00">operator()()</text>
<polygon fill="#666666" stroke="#666666" points="0,-379 0,-379 152,-379 152,-379 0,-379"/>
<polygon fill="#666666" stroke="#666666" points="0,-304 0,-304 15,-304 15,-304 0,-304"/>
<polygon fill="#666666" stroke="#666666" points="15,-304 15,-304 152,-304 152,-304 15,-304"/>
<polygon fill="none" stroke="#666666" points="0,-227 0,-407 152,-407 152,-227 0,-227"/>
</a>
</g>
</g>
<!-- Node2&#45;&gt;Node1 -->
<g id="edge1_Node000001_Node000002" class="edge">
<title>Node2&#45;&gt;Node1</title>
<g id="a_edge1_Node000001_Node000002"><a xlink:title=" ">
<path fill="none" stroke="#63b8ff" d="M143.43,-226.75C152.58,-214.65 162,-202.17 171.26,-189.91"/>
<polygon fill="none" stroke="#63b8ff" points="171.41,-189.72 171.84,-182.52 178.65,-180.14 178.22,-187.34 171.41,-189.72"/>
</a>
</g>
<text text-anchor="middle" x="169" y="-201" font-family="Helvetica,sans-Serif" font-size="10.00" fill="grey"> +f</text>
</g>
<!-- Node3 -->
<g id="Node000003" class="node">
<title>Node3</title>
<g id="a_Node000003"><a xlink:href="classalpaqa_1_1casadi__loader_1_1CasADiFunctionEvaluator.html" target="_top" xlink:title=" ">
<polygon fill="white" stroke="transparent" points="322,-407 170,-407 170,-227 322,-227 322,-407"/>
<text text-anchor="start" x="184" y="-395" font-family="Helvetica,sans-Serif" font-size="10.00">CasADiFunctionEvaluator</text>
<text text-anchor="start" x="211" y="-384" font-family="Helvetica,sans-Serif" font-size="10.00">&lt; Conf, 2, 2 &gt;</text>
<text text-anchor="start" x="174" y="-369" font-family="Helvetica,sans-Serif" font-size="10.00">+</text>
<text text-anchor="start" x="187" y="-369" font-family="Helvetica,sans-Serif" font-size="10.00">fun</text>
<text text-anchor="start" x="176.5" y="-354" font-family="Helvetica,sans-Serif" font-size="10.00">&#45;</text>
<text text-anchor="start" x="187" y="-354" font-family="Helvetica,sans-Serif" font-size="10.00">iwork</text>
<text text-anchor="start" x="176.5" y="-339" font-family="Helvetica,sans-Serif" font-size="10.00">&#45;</text>
<text text-anchor="start" x="187" y="-339" font-family="Helvetica,sans-Serif" font-size="10.00">dwork</text>
<text text-anchor="start" x="176.5" y="-324" font-family="Helvetica,sans-Serif" font-size="10.00">&#45;</text>
<text text-anchor="start" x="187" y="-324" font-family="Helvetica,sans-Serif" font-size="10.00">arg_work</text>
<text text-anchor="start" x="176.5" y="-309" font-family="Helvetica,sans-Serif" font-size="10.00">&#45;</text>
<text text-anchor="start" x="187" y="-309" font-family="Helvetica,sans-Serif" font-size="10.00">res_work</text>
<text text-anchor="start" x="174" y="-294" font-family="Helvetica,sans-Serif" font-size="10.00">+</text>
<text text-anchor="start" x="187" y="-294" font-family="Helvetica,sans-Serif" font-size="10.00">CasADiFunctionEvaluator()</text>
<text text-anchor="start" x="174" y="-279" font-family="Helvetica,sans-Serif" font-size="10.00">+</text>
<text text-anchor="start" x="187" y="-279" font-family="Helvetica,sans-Serif" font-size="10.00">CasADiFunctionEvaluator()</text>
<text text-anchor="start" x="174" y="-264" font-family="Helvetica,sans-Serif" font-size="10.00">+</text>
<text text-anchor="start" x="187" y="-264" font-family="Helvetica,sans-Serif" font-size="10.00">validate_dimensions()</text>
<text text-anchor="start" x="174" y="-249" font-family="Helvetica,sans-Serif" font-size="10.00">+</text>
<text text-anchor="start" x="187" y="-249" font-family="Helvetica,sans-Serif" font-size="10.00">operator()()</text>
<text text-anchor="start" x="174" y="-234" font-family="Helvetica,sans-Serif" font-size="10.00">#</text>
<text text-anchor="start" x="187" y="-234" font-family="Helvetica,sans-Serif" font-size="10.00">operator()()</text>
<polygon fill="#666666" stroke="#666666" points="170,-379 170,-379 322,-379 322,-379 170,-379"/>
<polygon fill="#666666" stroke="#666666" points="170,-304 170,-304 185,-304 185,-304 170,-304"/>
<polygon fill="#666666" stroke="#666666" points="185,-304 185,-304 322,-304 322,-304 185,-304"/>
<polygon fill="none" stroke="#666666" points="170,-227 170,-407 322,-407 322,-227 170,-227"/>
</a>
</g>
</g>
<!-- Node3&#45;&gt;Node1 -->
<g id="edge2_Node000001_Node000003" class="edge">
<title>Node3&#45;&gt;Node1</title>
<g id="a_edge2_Node000001_Node000003"><a xlink:title=" ">
<path fill="none" stroke="#63b8ff" d="M246,-226.75C246,-215.49 246,-203.9 246,-192.47"/>
<polygon fill="none" stroke="#63b8ff" points="246,-192.14 242,-186.14 246,-180.14 250,-186.14 246,-192.14"/>
</a>
</g>
<text text-anchor="middle" x="272" y="-201" font-family="Helvetica,sans-Serif" font-size="10.00" fill="grey"> +f_grad_f</text>
</g>
<!-- Node4 -->
<g id="Node000004" class="node">
<title>Node4</title>
<g id="a_Node000004"><a xlink:href="classalpaqa_1_1casadi__loader_1_1CasADiFunctionEvaluator.html" target="_top" xlink:title=" ">
<polygon fill="white" stroke="transparent" points="492,-407 340,-407 340,-227 492,-227 492,-407"/>
<text text-anchor="start" x="354" y="-395" font-family="Helvetica,sans-Serif" font-size="10.00">CasADiFunctionEvaluator</text>
<text text-anchor="start" x="381" y="-384" font-family="Helvetica,sans-Serif" font-size="10.00">&lt; Conf, 6, 2 &gt;</text>
<text text-anchor="start" x="344" y="-369" font-family="Helvetica,sans-Serif" font-size="10.00">+</text>
<text text-anchor="start" x="357" y="-369" font-family="Helvetica,sans-Serif" font-size="10.00">fun</text>
<text text-anchor="start" x="346.5" y="-354" font-family="Helvetica,sans-Serif" font-size="10.00">&#45;</text>
<text text-anchor="start" x="357" y="-354" font-family="Helvetica,sans-Serif" font-size="10.00">iwork</text>
<text text-anchor="start" x="346.5" y="-339" font-family="Helvetica,sans-Serif" font-size="10.00">&#45;</text>
<text text-anchor="start" x="357" y="-339" font-family="Helvetica,sans-Serif" font-size="10.00">dwork</text>
<text text-anchor="start" x="346.5" y="-324" font-family="Helvetica,sans-Serif" font-size="10.00">&#45;</text>
<text text-anchor="start" x="357" y="-324" font-family="Helvetica,sans-Serif" font-size="10.00">arg_work</text>
<text text-anchor="start" x="346.5" y="-309" font-family="Helvetica,sans-Serif" font-size="10.00">&#45;</text>
<text text-anchor="start" x="357" y="-309" font-family="Helvetica,sans-Serif" font-size="10.00">res_work</text>
<text text-anchor="start" x="344" y="-294" font-family="Helvetica,sans-Serif" font-size="10.00">+</text>
<text text-anchor="start" x="357" y="-294" font-family="Helvetica,sans-Serif" font-size="10.00">CasADiFunctionEvaluator()</text>
<text text-anchor="start" x="344" y="-279" font-family="Helvetica,sans-Serif" font-size="10.00">+</text>
<text text-anchor="start" x="357" y="-279" font-family="Helvetica,sans-Serif" font-size="10.00">CasADiFunctionEvaluator()</text>
<text text-anchor="start" x="344" y="-264" font-family="Helvetica,sans-Serif" font-size="10.00">+</text>
<text text-anchor="start" x="357" y="-264" font-family="Helvetica,sans-Serif" font-size="10.00">validate_dimensions()</text>
<text text-anchor="start" x="344" y="-249" font-family="Helvetica,sans-Serif" font-size="10.00">+</text>
<text text-anchor="start" x="357" y="-249" font-family="Helvetica,sans-Serif" font-size="10.00">operator()()</text>
<text text-anchor="start" x="344" y="-234" font-family="Helvetica,sans-Serif" font-size="10.00">#</text>
<text text-anchor="start" x="357" y="-234" font-family="Helvetica,sans-Serif" font-size="10.00">operator()()</text>
<polygon fill="#666666" stroke="#666666" points="340,-379 340,-379 492,-379 492,-379 340,-379"/>
<polygon fill="#666666" stroke="#666666" points="340,-304 340,-304 355,-304 355,-304 340,-304"/>
<polygon fill="#666666" stroke="#666666" points="355,-304 355,-304 492,-304 492,-304 355,-304"/>
<polygon fill="none" stroke="#666666" points="340,-227 340,-407 492,-407 492,-227 340,-227"/>
</a>
</g>
</g>
<!-- Node4&#45;&gt;Node1 -->
<g id="edge3_Node000001_Node000004" class="edge">
<title>Node4&#45;&gt;Node1</title>
<g id="a_edge3_Node000001_Node000004"><a xlink:title=" ">
<path fill="none" stroke="#63b8ff" d="M348.57,-226.75C339.42,-214.65 330,-202.17 320.74,-189.91"/>
<polygon fill="none" stroke="#63b8ff" points="320.59,-189.72 313.78,-187.34 313.35,-180.14 320.16,-182.52 320.59,-189.72"/>
</a>
</g>
<text text-anchor="middle" x="360" y="-201" font-family="Helvetica,sans-Serif" font-size="10.00" fill="grey"> +ψ_grad_ψ</text>
</g>
</g>
</svg>
</svg>

<style type='text/css'>
<![CDATA[
[data-mouse-over-selected='false'] { opacity: 0.7; }
[data-mouse-over-selected='true']  { opacity: 1.0; }
]]>
</style>
<script type="application/ecmascript"><![CDATA[
document.addEventListener('DOMContentLoaded', (event) => {
  highlightEdges();
  highlightAdjacentNodes();
});
]]></script>
</svg>
