<?xml version="1.0" encoding="UTF-8" standalone="no"?>
<!DOCTYPE svg PUBLIC "-//W3C//DTD SVG 1.1//EN"
 "http://www.w3.org/Graphics/SVG/1.1/DTD/svg11.dtd">
<!-- Generated by graphviz version 2.43.0 (0)
 -->
<!-- Title: EigenConfigl Pages: 1 -->
<svg width="156pt" height="142pt"
 viewBox="0.00 0.00 156.00 142.00" xmlns="http://www.w3.org/2000/svg" xmlns:xlink="http://www.w3.org/1999/xlink">

<svg id="main" version="1.1" xmlns="http://www.w3.org/2000/svg" xmlns:xlink="http://www.w3.org/1999/xlink" xml:space="preserve" onload="init(evt)">
<style type="text/css"><![CDATA[
.node, .edge {opacity: 0.7;}
.node.selected, .edge.selected {opacity: 1;}
.edge:hover path { stroke: red; }
.edge:hover polygon { stroke: red; fill: red; }
]]></style>
<script type="application/ecmascript" xlink:href="svg.min.js"/>
<svg id="graph" class="graph">
<g id="graph0" class="graph" transform="scale(1 1) rotate(0) translate(4 138)">
<title>EigenConfigl</title>
<!-- Node1 -->
<g id="Node000001" class="node">
<title>Node1</title>
<g id="a_Node000001"><a xlink:title="long double configuration.">
<polygon fill="#999999" stroke="transparent" points="113,-49 35,-49 35,0 113,0 113,-49"/>
<text text-anchor="start" x="43.5" y="-36.5" font-family="Helvetica,sans-Serif" font-size="10.00">EigenConfigl</text>
<text text-anchor="start" x="72" y="-21.5" font-family="Helvetica,sans-Serif" font-size="10.00"> </text>
<text text-anchor="start" x="39" y="-6.5" font-family="Helvetica,sans-Serif" font-size="10.00">+</text>
<text text-anchor="start" x="52" y="-6.5" font-family="Helvetica,sans-Serif" font-size="10.00">get_name()</text>
<polygon fill="#666666" stroke="#666666" points="35,-31.5 35,-31.5 113,-31.5 113,-31.5 35,-31.5"/>
<polygon fill="#666666" stroke="#666666" points="35,-16.5 35,-16.5 113,-16.5 113,-16.5 35,-16.5"/>
<polygon fill="none" stroke="#666666" points="35,0 35,-49 113,-49 113,0 35,0"/>
</a>
</g>
</g>
<!-- Node2 -->
<g id="Node000002" class="node">
<title>Node2</title>
<g id="a_Node000002"><a xlink:href="namespacealpaqa.html" target="_top" xlink:title=" ">
<polygon fill="white" stroke="transparent" points="148,-134 0,-134 0,-85 148,-85 148,-134"/>
<text text-anchor="start" x="5" y="-121.5" font-family="Helvetica,sans-Serif" font-size="10.00">EigenConfig&lt; long double &gt;</text>
<text text-anchor="start" x="72" y="-106.5" font-family="Helvetica,sans-Serif" font-size="10.00"> </text>
<text text-anchor="start" x="72" y="-91.5" font-family="Helvetica,sans-Serif" font-size="10.00"> </text>
<polygon fill="#666666" stroke="#666666" points="0,-116.5 0,-116.5 148,-116.5 148,-116.5 0,-116.5"/>
<polygon fill="#666666" stroke="#666666" points="0,-101.5 0,-101.5 148,-101.5 148,-101.5 0,-101.5"/>
<polygon fill="none" stroke="#666666" points="0,-85 0,-134 148,-134 148,-85 0,-85"/>
</a>
</g>
</g>
<!-- Node2&#45;&gt;Node1 -->
<g id="edge1_Node000001_Node000002" class="edge">
<title>Node2&#45;&gt;Node1</title>
<g id="a_edge1_Node000001_Node000002"><a xlink:title=" ">
<path fill="none" stroke="#63b8ff" d="M74,-74.77C74,-66.17 74,-57.1 74,-49.12"/>
<polygon fill="none" stroke="#63b8ff" points="70.5,-74.94 74,-84.94 77.5,-74.94 70.5,-74.94"/>
</a>
</g>
</g>
</g>
</svg>
</svg>

<style type='text/css'>
<![CDATA[
[data-mouse-over-selected='false'] { opacity: 0.7; }
[data-mouse-over-selected='true']  { opacity: 1.0; }
]]>
</style>
<script type="application/ecmascript"><![CDATA[
document.addEventListener('DOMContentLoaded', (event) => {
  highlightEdges();
  highlightAdjacentNodes();
});
]]></script>
</svg>
