<?xml version="1.0" encoding="UTF-8" standalone="no"?>
<!DOCTYPE svg PUBLIC "-//W3C//DTD SVG 1.1//EN"
 "http://www.w3.org/Graphics/SVG/1.1/DTD/svg11.dtd">
<!-- Generated by graphviz version 2.43.0 (0)
 -->
<!-- Title: get_output_paths Pages: 1 -->
<svg width="1477pt" height="285pt"
 viewBox="0.00 0.00 1477.00 284.50" xmlns="http://www.w3.org/2000/svg" xmlns:xlink="http://www.w3.org/1999/xlink">
<g id="graph0" class="graph" transform="scale(1 1) rotate(0) translate(4 280.5)">
<title>get_output_paths</title>
<!-- Node1 -->
<g id="Node000001" class="node">
<title>Node1</title>
<g id="a_Node000001"><a xlink:title=" ">
<polygon fill="#999999" stroke="#666666" points="101,-143 0,-143 0,-124 101,-124 101,-143"/>
<text text-anchor="middle" x="50.5" y="-131" font-family="Helvetica,sans-Serif" font-size="10.00">get_output_paths</text>
</a>
</g>
</g>
<!-- Node2 -->
<g id="Node000002" class="node">
<title>Node2</title>
<g id="a_Node000002"><a xlink:href="options_8hpp.html#a91fca5414dbe50bec5104c59d9ebda11" target="_top" xlink:title=" ">
<polygon fill="white" stroke="#666666" points="211,-143 137,-143 137,-124 211,-124 211,-143"/>
<text text-anchor="middle" x="174" y="-131" font-family="Helvetica,sans-Serif" font-size="10.00">set_params</text>
</a>
</g>
</g>
<!-- Node1&#45;&gt;Node2 -->
<g id="edge1_Node000001_Node000002" class="edge">
<title>Node1&#45;&gt;Node2</title>
<g id="a_edge1_Node000001_Node000002"><a xlink:title=" ">
<path fill="none" stroke="#63b8ff" d="M101.27,-133.5C109.66,-133.5 118.33,-133.5 126.63,-133.5"/>
<polygon fill="#63b8ff" stroke="#63b8ff" points="126.88,-137 136.88,-133.5 126.88,-130 126.88,-137"/>
</a>
</g>
</g>
<!-- Node3 -->
<g id="Node000003" class="node">
<title>Node3</title>
<g id="a_Node000003"><a xlink:href="classOptions.html#a8ca2e3915e8acf3cd04e02180e66e9ab" target="_top" xlink:title=" ">
<polygon fill="white" stroke="#666666" points="364,-143 247,-143 247,-124 364,-124 364,-143"/>
<text text-anchor="middle" x="305.5" y="-131" font-family="Helvetica,sans-Serif" font-size="10.00">Options::set_params</text>
</a>
</g>
</g>
<!-- Node2&#45;&gt;Node3 -->
<g id="edge2_Node000002_Node000003" class="edge">
<title>Node2&#45;&gt;Node3</title>
<g id="a_edge2_Node000002_Node000003"><a xlink:title=" ">
<path fill="none" stroke="#63b8ff" d="M211.07,-133.5C219.12,-133.5 227.91,-133.5 236.77,-133.5"/>
<polygon fill="#63b8ff" stroke="#63b8ff" points="236.77,-137 246.77,-133.5 236.77,-130 236.77,-137"/>
</a>
</g>
</g>
<!-- Node4 -->
<g id="Node000004" class="node">
<title>Node4</title>
<g id="a_Node000004"><a xlink:href="namespacealpaqa_1_1params.html#a1f2f7590328c20e04138a91eee5e0e98" target="_top" xlink:title="Get the first argument as a JSON object j.">
<polygon fill="white" stroke="#666666" points="514,-276.5 400,-276.5 400,-246.5 514,-246.5 514,-276.5"/>
<text text-anchor="start" x="408" y="-264.5" font-family="Helvetica,sans-Serif" font-size="10.00">alpaqa::params::get</text>
<text text-anchor="middle" x="457" y="-253.5" font-family="Helvetica,sans-Serif" font-size="10.00">_param</text>
</a>
</g>
</g>
<!-- Node3&#45;&gt;Node4 -->
<g id="edge3_Node000003_Node000004" class="edge">
<title>Node3&#45;&gt;Node4</title>
<g id="a_edge3_Node000003_Node000004"><a xlink:title=" ">
<path fill="none" stroke="#63b8ff" d="M312.91,-143.09C326.71,-163.07 361.12,-209.64 400,-237.5 401.89,-238.85 403.86,-240.15 405.89,-241.39"/>
<polygon fill="#63b8ff" stroke="#63b8ff" points="404.65,-244.7 415.1,-246.47 408.03,-238.57 404.65,-244.7"/>
</a>
</g>
</g>
<!-- Node7 -->
<g id="Node000007" class="node">
<title>Node7</title>
<g id="a_Node000007"><a xlink:href="namespacealpaqa_1_1util.html#a381655901120dbb2a07cec1df230595e" target="_top" xlink:title="Join the list of strings into a single string, using the separator given by opt.">
<polygon fill="white" stroke="#666666" points="504.5,-228.5 409.5,-228.5 409.5,-198.5 504.5,-198.5 504.5,-228.5"/>
<text text-anchor="start" x="417.5" y="-216.5" font-family="Helvetica,sans-Serif" font-size="10.00">alpaqa::util::join</text>
<text text-anchor="middle" x="457" y="-205.5" font-family="Helvetica,sans-Serif" font-size="10.00">_quote</text>
</a>
</g>
</g>
<!-- Node3&#45;&gt;Node7 -->
<g id="edge6_Node000003_Node000007" class="edge">
<title>Node3&#45;&gt;Node7</title>
<g id="a_edge6_Node000003_Node000007"><a xlink:title=" ">
<path fill="none" stroke="#63b8ff" d="M321.05,-143.05C339.15,-154.74 371.19,-174.78 400,-189.5 403.11,-191.09 406.35,-192.67 409.63,-194.21"/>
<polygon fill="#63b8ff" stroke="#63b8ff" points="408.37,-197.48 418.92,-198.45 411.28,-191.11 408.37,-197.48"/>
</a>
</g>
</g>
<!-- Node8 -->
<g id="Node000008" class="node">
<title>Node8</title>
<g id="a_Node000008"><a xlink:href="classOptions.html#a32a1a00438ef83609a2ecf66d9e77056" target="_top" xlink:title=" ">
<polygon fill="white" stroke="#666666" points="511.5,-180 402.5,-180 402.5,-161 511.5,-161 511.5,-180"/>
<text text-anchor="middle" x="457" y="-168" font-family="Helvetica,sans-Serif" font-size="10.00">Options::json_flags</text>
</a>
</g>
</g>
<!-- Node3&#45;&gt;Node8 -->
<g id="edge7_Node000003_Node000008" class="edge">
<title>Node3&#45;&gt;Node8</title>
<g id="a_edge7_Node000003_Node000008"><a xlink:title=" ">
<path fill="none" stroke="#63b8ff" d="M345,-143.03C364.02,-147.74 387.17,-153.47 407.4,-158.47"/>
<polygon fill="#63b8ff" stroke="#63b8ff" points="406.82,-161.93 417.37,-160.94 408.5,-155.14 406.82,-161.93"/>
</a>
</g>
</g>
<!-- Node9 -->
<g id="Node000009" class="node">
<title>Node9</title>
<g id="a_Node000009"><a xlink:href="classOptions.html#a502ee531f4e5cdc1c8dd78e9409a4e8e" target="_top" xlink:title=" ">
<polygon fill="white" stroke="#666666" points="505,-143 409,-143 409,-124 505,-124 505,-143"/>
<text text-anchor="middle" x="457" y="-131" font-family="Helvetica,sans-Serif" font-size="10.00">Options::options</text>
</a>
</g>
</g>
<!-- Node3&#45;&gt;Node9 -->
<g id="edge8_Node000003_Node000009" class="edge">
<title>Node3&#45;&gt;Node9</title>
<g id="a_edge8_Node000003_Node000009"><a xlink:title=" ">
<path fill="none" stroke="#63b8ff" d="M364.3,-133.5C375.62,-133.5 387.5,-133.5 398.8,-133.5"/>
<polygon fill="#63b8ff" stroke="#63b8ff" points="398.99,-137 408.99,-133.5 398.99,-130 398.99,-137"/>
</a>
</g>
</g>
<!-- Node10 -->
<g id="Node000010" class="node">
<title>Node10</title>
<g id="a_Node000010"><a xlink:href="namespacealpaqa_1_1params.html#ab8eefa468e61c2fa2c0e5349c1b3ef12" target="_top" xlink:title="Update/overwrite the first argument based on the JSON object j.">
<polygon fill="white" stroke="#666666" points="677.5,-110.5 564.5,-110.5 564.5,-80.5 677.5,-80.5 677.5,-110.5"/>
<text text-anchor="start" x="572.5" y="-98.5" font-family="Helvetica,sans-Serif" font-size="10.00">alpaqa::params::set</text>
<text text-anchor="middle" x="621" y="-87.5" font-family="Helvetica,sans-Serif" font-size="10.00">_param</text>
</a>
</g>
</g>
<!-- Node3&#45;&gt;Node10 -->
<g id="edge9_Node000003_Node000010" class="edge">
<title>Node3&#45;&gt;Node10</title>
<g id="a_edge9_Node000003_Node000010"><a xlink:title=" ">
<path fill="none" stroke="#63b8ff" d="M351.05,-123.98C366.5,-120.94 383.96,-117.77 400,-115.5 451.5,-108.22 510.18,-103.04 553.98,-99.78"/>
<polygon fill="#63b8ff" stroke="#63b8ff" points="554.5,-103.25 564.22,-99.03 553.99,-96.27 554.5,-103.25"/>
</a>
</g>
</g>
<!-- Node18 -->
<g id="Node000018" class="node">
<title>Node18</title>
<g id="a_Node000018"><a xlink:href="namespacealpaqa_1_1params.html#abadc98653193fbd05b658d62b34f75e7" target="_top" xlink:title="Overwrites t based on the options that start with prefix.">
<polygon fill="white" stroke="#666666" points="513.5,-67.5 400.5,-67.5 400.5,-37.5 513.5,-37.5 513.5,-67.5"/>
<text text-anchor="start" x="408.5" y="-55.5" font-family="Helvetica,sans-Serif" font-size="10.00">alpaqa::params::set</text>
<text text-anchor="middle" x="457" y="-44.5" font-family="Helvetica,sans-Serif" font-size="10.00">_params</text>
</a>
</g>
</g>
<!-- Node3&#45;&gt;Node18 -->
<g id="edge17_Node000003_Node000018" class="edge">
<title>Node3&#45;&gt;Node18</title>
<g id="a_edge17_Node000003_Node000018"><a xlink:title=" ">
<path fill="none" stroke="#63b8ff" d="M323.31,-123.95C341.96,-113.41 373,-96 400,-81.5 405.63,-78.48 411.61,-75.32 417.48,-72.25"/>
<polygon fill="#63b8ff" stroke="#63b8ff" points="419.3,-75.26 426.56,-67.54 416.07,-69.04 419.3,-75.26"/>
</a>
</g>
</g>
<!-- Node20 -->
<g id="Node000020" class="node">
<title>Node20</title>
<g id="a_Node000020"><a xlink:href="classOptions.html#a12df8f934f6bafb37bf4e64529917d06" target="_top" xlink:title=" ">
<polygon fill="white" stroke="#666666" points="498.5,-19 415.5,-19 415.5,0 498.5,0 498.5,-19"/>
<text text-anchor="middle" x="457" y="-7" font-family="Helvetica,sans-Serif" font-size="10.00">Options::used</text>
</a>
</g>
</g>
<!-- Node3&#45;&gt;Node20 -->
<g id="edge20_Node000003_Node000020" class="edge">
<title>Node3&#45;&gt;Node20</title>
<g id="a_edge20_Node000003_Node000020"><a xlink:title=" ">
<path fill="none" stroke="#63b8ff" d="M312.52,-123.88C325.81,-103.41 359.71,-55.2 400,-28.5 402.96,-26.54 406.14,-24.76 409.42,-23.16"/>
<polygon fill="#63b8ff" stroke="#63b8ff" points="411.09,-26.25 418.88,-19.06 408.31,-19.83 411.09,-26.25"/>
</a>
</g>
</g>
<!-- Node5 -->
<g id="Node000005" class="node">
<title>Node5</title>
<g id="a_Node000005"><a xlink:href="namespacealpaqa_1_1params.html#a2ed398728f87219847d2db047fa70195" target="_top" xlink:title=" ">
<polygon fill="white" stroke="#666666" points="678,-276.5 564,-276.5 564,-246.5 678,-246.5 678,-276.5"/>
<text text-anchor="start" x="572" y="-264.5" font-family="Helvetica,sans-Serif" font-size="10.00">alpaqa::params::get</text>
<text text-anchor="middle" x="621" y="-253.5" font-family="Helvetica,sans-Serif" font-size="10.00">_param_default</text>
</a>
</g>
</g>
<!-- Node4&#45;&gt;Node5 -->
<g id="edge4_Node000004_Node000005" class="edge">
<title>Node4&#45;&gt;Node5</title>
<g id="a_edge4_Node000004_Node000005"><a xlink:title=" ">
<path fill="none" stroke="#63b8ff" d="M514.21,-261.5C526.9,-261.5 540.49,-261.5 553.55,-261.5"/>
<polygon fill="#63b8ff" stroke="#63b8ff" points="553.89,-265 563.89,-261.5 553.89,-258 553.89,-265"/>
</a>
</g>
</g>
<!-- Node6 -->
<g id="Node000006" class="node">
<title>Node6</title>
<g id="a_Node000006"><a xlink:href="namespacealpaqa.html#ad0c64aea84b4b70c07be417122dd8e3f" target="_top" xlink:title=" ">
<polygon fill="white" stroke="#666666" points="844,-271 728,-271 728,-252 844,-252 844,-271"/>
<text text-anchor="middle" x="786" y="-259" font-family="Helvetica,sans-Serif" font-size="10.00">alpaqa::enum_name</text>
</a>
</g>
</g>
<!-- Node5&#45;&gt;Node6 -->
<g id="edge5_Node000005_Node000006" class="edge">
<title>Node5&#45;&gt;Node6</title>
<g id="a_edge5_Node000005_Node000006"><a xlink:title=" ">
<path fill="none" stroke="#63b8ff" d="M678.1,-261.5C690.94,-261.5 704.71,-261.5 717.97,-261.5"/>
<polygon fill="#63b8ff" stroke="#63b8ff" points="717.97,-265 727.97,-261.5 717.97,-258 717.97,-265"/>
</a>
</g>
</g>
<!-- Node11 -->
<g id="Node000011" class="node">
<title>Node11</title>
<g id="a_Node000011"><a xlink:href="namespacealpaqa_1_1params.html#a39fab1bdf1cebbc5e1574eac16a9af53" target="_top" xlink:title=" ">
<polygon fill="white" stroke="#666666" points="842.5,-110.5 729.5,-110.5 729.5,-80.5 842.5,-80.5 842.5,-110.5"/>
<text text-anchor="start" x="737.5" y="-98.5" font-family="Helvetica,sans-Serif" font-size="10.00">alpaqa::params::set</text>
<text text-anchor="middle" x="786" y="-87.5" font-family="Helvetica,sans-Serif" font-size="10.00">_param_default</text>
</a>
</g>
</g>
<!-- Node10&#45;&gt;Node11 -->
<g id="edge10_Node000010_Node000011" class="edge">
<title>Node10&#45;&gt;Node11</title>
<g id="a_edge10_Node000010_Node000011"><a xlink:title=" ">
<path fill="none" stroke="#63b8ff" d="M677.64,-95.5C690.94,-95.5 705.27,-95.5 718.99,-95.5"/>
<polygon fill="#63b8ff" stroke="#63b8ff" points="719.33,-99 729.33,-95.5 719.33,-92 719.33,-99"/>
</a>
</g>
</g>
<!-- Node12 -->
<g id="Node000012" class="node">
<title>Node12</title>
<g id="a_Node000012"><a xlink:href="demangled-typename_8cpp.html#a994032931a27ca4de5eea3f786057b17" target="_top" xlink:title="Get the pretty name of the given type as a string.">
<polygon fill="white" stroke="#666666" points="1006,-127 880,-127 880,-108 1006,-108 1006,-127"/>
<text text-anchor="middle" x="943" y="-115" font-family="Helvetica,sans-Serif" font-size="10.00">demangled_typename</text>
</a>
</g>
</g>
<!-- Node11&#45;&gt;Node12 -->
<g id="edge11_Node000011_Node000012" class="edge">
<title>Node11&#45;&gt;Node12</title>
<g id="a_edge11_Node000011_Node000012"><a xlink:title=" ">
<path fill="none" stroke="#63b8ff" d="M842.52,-103.38C851.39,-104.64 860.67,-105.96 869.86,-107.26"/>
<polygon fill="#63b8ff" stroke="#63b8ff" points="869.37,-110.73 879.76,-108.67 870.35,-103.8 869.37,-110.73"/>
</a>
</g>
</g>
<!-- Node13 -->
<g id="Node000013" class="node">
<title>Node13</title>
<g id="a_Node000013"><a xlink:href="namespacealpaqa_1_1params_1_1detail.html#a13c61ce864494c3fe91b86bf8ffda476" target="_top" xlink:title=" ">
<polygon fill="white" stroke="#666666" points="1006,-89.5 880,-89.5 880,-59.5 1006,-59.5 1006,-89.5"/>
<text text-anchor="start" x="888" y="-77.5" font-family="Helvetica,sans-Serif" font-size="10.00">alpaqa::params::detail</text>
<text text-anchor="middle" x="943" y="-66.5" font-family="Helvetica,sans-Serif" font-size="10.00">::set_param_json</text>
</a>
</g>
</g>
<!-- Node11&#45;&gt;Node13 -->
<g id="edge12_Node000011_Node000013" class="edge">
<title>Node11&#45;&gt;Node13</title>
<g id="a_edge12_Node000011_Node000013"><a xlink:title=" ">
<path fill="none" stroke="#63b8ff" d="M842.52,-87.98C851.29,-86.79 860.48,-85.55 869.57,-84.31"/>
<polygon fill="#63b8ff" stroke="#63b8ff" points="870.32,-87.74 879.76,-82.93 869.38,-80.81 870.32,-87.74"/>
</a>
</g>
</g>
<!-- Node14 -->
<g id="Node000014" class="node">
<title>Node14</title>
<g id="a_Node000014"><a xlink:href="namespacealpaqa_1_1params_1_1detail.html#a5eef50360de8527b24463d00629819f8" target="_top" xlink:title=" ">
<polygon fill="white" stroke="#666666" points="1168,-89.5 1042,-89.5 1042,-59.5 1168,-59.5 1168,-89.5"/>
<text text-anchor="start" x="1050" y="-77.5" font-family="Helvetica,sans-Serif" font-size="10.00">alpaqa::params::detail</text>
<text text-anchor="middle" x="1105" y="-66.5" font-family="Helvetica,sans-Serif" font-size="10.00">::find_param_or_throw</text>
</a>
</g>
</g>
<!-- Node13&#45;&gt;Node14 -->
<g id="edge13_Node000013_Node000014" class="edge">
<title>Node13&#45;&gt;Node14</title>
<g id="a_edge13_Node000013_Node000014"><a xlink:title=" ">
<path fill="none" stroke="#63b8ff" d="M1006.32,-74.5C1014.62,-74.5 1023.18,-74.5 1031.63,-74.5"/>
<polygon fill="#63b8ff" stroke="#63b8ff" points="1031.85,-78 1041.85,-74.5 1031.85,-71 1031.85,-78"/>
</a>
</g>
</g>
<!-- Node15 -->
<g id="Node000015" class="node">
<title>Node15</title>
<g id="a_Node000015"><a xlink:href="namespacealpaqa_1_1params_1_1detail.html#a6aa41a8827ffd36b3e2a8e7346a44f19" target="_top" xlink:title=" ">
<polygon fill="white" stroke="#666666" points="1330,-89.5 1204,-89.5 1204,-59.5 1330,-59.5 1330,-89.5"/>
<text text-anchor="start" x="1212" y="-77.5" font-family="Helvetica,sans-Serif" font-size="10.00">alpaqa::params::detail</text>
<text text-anchor="middle" x="1267" y="-66.5" font-family="Helvetica,sans-Serif" font-size="10.00">::join_sorted_keys</text>
</a>
</g>
</g>
<!-- Node14&#45;&gt;Node15 -->
<g id="edge14_Node000014_Node000015" class="edge">
<title>Node14&#45;&gt;Node15</title>
<g id="a_edge14_Node000014_Node000015"><a xlink:title=" ">
<path fill="none" stroke="#63b8ff" d="M1168.32,-74.5C1176.62,-74.5 1185.18,-74.5 1193.63,-74.5"/>
<polygon fill="#63b8ff" stroke="#63b8ff" points="1193.85,-78 1203.85,-74.5 1193.85,-71 1193.85,-78"/>
</a>
</g>
</g>
<!-- Node16 -->
<g id="Node000016" class="node">
<title>Node16</title>
<g id="a_Node000016"><a xlink:href="namespacealpaqa_1_1util.html#aa93b2039064bcb3304233064c0485c9b" target="_top" xlink:title="Join the list of strings into a single string, using the separator given by opt.">
<polygon fill="white" stroke="#666666" points="1465,-106 1370,-106 1370,-87 1465,-87 1465,-106"/>
<text text-anchor="middle" x="1417.5" y="-94" font-family="Helvetica,sans-Serif" font-size="10.00">alpaqa::util::join</text>
</a>
</g>
</g>
<!-- Node15&#45;&gt;Node16 -->
<g id="edge15_Node000015_Node000016" class="edge">
<title>Node15&#45;&gt;Node16</title>
<g id="a_edge15_Node000015_Node000016"><a xlink:title=" ">
<path fill="none" stroke="#63b8ff" d="M1330.12,-83.7C1340.03,-85.17 1350.23,-86.68 1360,-88.13"/>
<polygon fill="#63b8ff" stroke="#63b8ff" points="1359.59,-91.61 1370,-89.61 1360.62,-84.68 1359.59,-91.61"/>
</a>
</g>
</g>
<!-- Node17 -->
<g id="Node000017" class="node">
<title>Node17</title>
<g id="a_Node000017"><a xlink:href="namespacealpaqa_1_1util.html#ab38ac790b4155e7631dfb11d7dfff1c3" target="_top" xlink:title="Sort the given range of strings in&#45;place in a case&#45;insensitive manner.">
<polygon fill="white" stroke="#666666" points="1469,-68.5 1366,-68.5 1366,-38.5 1469,-38.5 1469,-68.5"/>
<text text-anchor="start" x="1374" y="-56.5" font-family="Helvetica,sans-Serif" font-size="10.00">alpaqa::util::sort</text>
<text text-anchor="middle" x="1417.5" y="-45.5" font-family="Helvetica,sans-Serif" font-size="10.00">_case_insensitive</text>
</a>
</g>
</g>
<!-- Node15&#45;&gt;Node17 -->
<g id="edge16_Node000015_Node000017" class="edge">
<title>Node15&#45;&gt;Node17</title>
<g id="a_edge16_Node000015_Node000017"><a xlink:title=" ">
<path fill="none" stroke="#63b8ff" d="M1330.12,-65.72C1338.59,-64.52 1347.28,-63.29 1355.74,-62.09"/>
<polygon fill="#63b8ff" stroke="#63b8ff" points="1356.48,-65.52 1365.89,-60.66 1355.5,-58.59 1356.48,-65.52"/>
</a>
</g>
</g>
<!-- Node18&#45;&gt;Node10 -->
<g id="edge18_Node000018_Node000010" class="edge">
<title>Node18&#45;&gt;Node10</title>
<g id="a_edge18_Node000018_Node000010"><a xlink:title=" ">
<path fill="none" stroke="#63b8ff" d="M513.75,-67.3C526.93,-70.8 541.11,-74.56 554.67,-78.16"/>
<polygon fill="#63b8ff" stroke="#63b8ff" points="553.86,-81.56 564.42,-80.75 555.65,-74.8 553.86,-81.56"/>
</a>
</g>
</g>
<!-- Node19 -->
<g id="Node000019" class="node">
<title>Node19</title>
<g id="a_Node000019"><a xlink:href="namespacealpaqa_1_1params.html#aa3666becfea1ef2eb24d83f592c123e9" target="_top" xlink:title="Split the string full on the first occurrence of tok.">
<polygon fill="white" stroke="#666666" points="692,-62 550,-62 550,-43 692,-43 692,-62"/>
<text text-anchor="middle" x="621" y="-50" font-family="Helvetica,sans-Serif" font-size="10.00">alpaqa::params::split_key</text>
</a>
</g>
</g>
<!-- Node18&#45;&gt;Node19 -->
<g id="edge19_Node000018_Node000019" class="edge">
<title>Node18&#45;&gt;Node19</title>
<g id="a_edge19_Node000018_Node000019"><a xlink:title=" ">
<path fill="none" stroke="#63b8ff" d="M513.75,-52.5C522.11,-52.5 530.86,-52.5 539.6,-52.5"/>
<polygon fill="#63b8ff" stroke="#63b8ff" points="539.84,-56 549.84,-52.5 539.84,-49 539.84,-56"/>
</a>
</g>
</g>
</g>
</svg>
