<?xml version="1.0" encoding="UTF-8" standalone="no"?>
<!DOCTYPE svg PUBLIC "-//W3C//DTD SVG 1.1//EN"
 "http://www.w3.org/Graphics/SVG/1.1/DTD/svg11.dtd">
<!-- Generated by graphviz version 2.43.0 (0)
 -->
<!-- Title: src/interop/casadi/src/CompleteCasADiProblem.cpp Pages: 1 -->
<!--zoomable 423 -->

<svg id="main" version="1.1" xmlns="http://www.w3.org/2000/svg" xmlns:xlink="http://www.w3.org/1999/xlink" xml:space="preserve" onload="init(evt)">
<style type="text/css"><![CDATA[
.node, .edge {opacity: 0.7;}
.node.selected, .edge.selected {opacity: 1;}
.edge:hover path { stroke: red; }
.edge:hover polygon { stroke: red; fill: red; }
]]></style>

<defs>
  <circle id="rim" cx="0" cy="0" r="7"/>
  <circle id="rim2" cx="0" cy="0" r="3.5"/>
  <g id="zoomPlus">
    <use xlink:href="#rim" fill="#404040"><set attributeName="fill" to="#808080" begin="zoomplus.mouseover" end="zoomplus.mouseout"/></use>
    <path d="M-4,0h8M0,-4v8" fill="none" stroke="white" stroke-width="1.5" pointer-events="none"/>
  </g>
  <g id="zoomMin">
    <use xlink:href="#rim" fill="#404040"><set attributeName="fill" to="#808080" begin="zoomminus.mouseover" end="zoomminus.mouseout"/></use>
    <path d="M-4,0h8" fill="none" stroke="white" stroke-width="1.5" pointer-events="none"/>
  </g>
  <g id="arrowUp" transform="translate(30 24)">
    <use xlink:href="#rim"/>
    <path pointer-events="none" fill="none" stroke="white" stroke-width="1.5" d="M0,-3.0v7 M-2.5,-0.5L0,-3.0L2.5,-0.5"/>
  </g>
  <g id="arrowRight" transform="rotate(90) translate(36 -43)">
    <use xlink:href="#rim"/>
    <path pointer-events="none" fill="none" stroke="white" stroke-width="1.5" d="M0,-3.0v7 M-2.5,-0.5L0,-3.0L2.5,-0.5"/>
  </g>
  <g id="arrowDown" transform="rotate(180) translate(-30 -48)">
    <use xlink:href="#rim"/>
    <path pointer-events="none" fill="none" stroke="white" stroke-width="1.5" d="M0,-3.0v7 M-2.5,-0.5L0,-3.0L2.5,-0.5"/>
  </g>
  <g id="arrowLeft" transform="rotate(270) translate(-36 17)">
    <use xlink:href="#rim"/>
    <path pointer-events="none" fill="none" stroke="white" stroke-width="1.5" d="M0,-3.0v7 M-2.5,-0.5L0,-3.0L2.5,-0.5"/>
  </g>
  <g id="resetDef">
    <use xlink:href="#rim2" fill="#404040"><set attributeName="fill" to="#808080" begin="reset.mouseover" end="reset.mouseout"/></use>
  </g>
</defs>
<script type="application/ecmascript">
var viewWidth = 1574;
var viewHeight = 423;
var sectionId = 'dynsection-0';
</script>
<script type="application/ecmascript" xlink:href="svg.min.js"/>
<svg id="graph" class="graph">
<g id="viewport">
<title>src/interop/casadi/src/CompleteCasADiProblem.cpp</title>
<!-- Node1 -->
<g id="Node000001" class="node">
<title>Node1</title>
<g id="a_Node000001"><a xlink:title=" ">
<polygon fill="#999999" stroke="#666666" points="897,-415 717,-415 717,-385 897,-385 897,-415"/>
<text text-anchor="start" x="725" y="-403" font-family="Helvetica,sans-Serif" font-size="10.00">src/interop/casadi</text>
<text text-anchor="middle" x="807" y="-392" font-family="Helvetica,sans-Serif" font-size="10.00">/src/CompleteCasADiProblem.cpp</text>
</a>
</g>
</g>
<!-- Node2 -->
<g id="Node000002" class="node">
<title>Node2</title>
<g id="a_Node000002"><a xlink:href="CasADiFunctionWrapper_8hpp.html" target="_top" xlink:title=" ">
<polygon fill="white" stroke="#666666" points="279,-151 115,-151 115,-121 279,-121 279,-151"/>
<text text-anchor="start" x="123" y="-139" font-family="Helvetica,sans-Serif" font-size="10.00">alpaqa/casadi/CasADiFunction</text>
<text text-anchor="middle" x="197" y="-128" font-family="Helvetica,sans-Serif" font-size="10.00">Wrapper.hpp</text>
</a>
</g>
</g>
<!-- Node1&#45;&gt;Node2 -->
<g id="edge1_Node000001_Node000002" class="edge">
<title>Node1&#45;&gt;Node2</title>
<g id="a_edge1_Node000001_Node000002"><a xlink:title=" ">
<path fill="none" stroke="#63b8ff" d="M774.2,-384.91C671.18,-340.67 354.1,-204.48 239.16,-155.11"/>
<polygon fill="#63b8ff" stroke="#63b8ff" points="240.53,-151.89 229.96,-151.16 237.77,-158.32 240.53,-151.89"/>
</a>
</g>
</g>
<!-- Node3 -->
<g id="Node000003" class="node">
<title>Node3</title>
<g id="a_Node000003"><a xlink:href="config_8hpp.html" target="_top" xlink:title=" ">
<polygon fill="white" stroke="#666666" points="1047.5,-85 912.5,-85 912.5,-66 1047.5,-66 1047.5,-85"/>
<text text-anchor="middle" x="980" y="-73" font-family="Helvetica,sans-Serif" font-size="10.00">alpaqa/config/config.hpp</text>
</a>
</g>
</g>
<!-- Node1&#45;&gt;Node3 -->
<g id="edge47_Node000001_Node000003" class="edge">
<title>Node1&#45;&gt;Node3</title>
<g id="a_edge47_Node000001_Node000003"><a xlink:title=" ">
<path fill="none" stroke="#63b8ff" d="M803.36,-384.85C794.7,-347.57 777.02,-245.51 826,-187 865.03,-140.37 914.55,-193.55 958,-151 972.87,-136.43 977.81,-112.34 979.38,-95.51"/>
<polygon fill="#63b8ff" stroke="#63b8ff" points="982.9,-95.42 980.02,-85.23 975.91,-94.99 982.9,-95.42"/>
</a>
</g>
</g>
<!-- Node15 -->
<g id="Node000015" class="node">
<title>Node15</title>
<g id="a_Node000015"><a xlink:href="CompleteCasADiProblem_8hpp.html" target="_top" xlink:title=" ">
<polygon fill="white" stroke="#666666" points="1068,-349 916,-349 916,-319 1068,-319 1068,-349"/>
<text text-anchor="start" x="924" y="-337" font-family="Helvetica,sans-Serif" font-size="10.00">alpaqa/casadi/CompleteCas</text>
<text text-anchor="middle" x="992" y="-326" font-family="Helvetica,sans-Serif" font-size="10.00">ADiProblem.hpp</text>
</a>
</g>
</g>
<!-- Node1&#45;&gt;Node15 -->
<g id="edge14_Node000001_Node000015" class="edge">
<title>Node1&#45;&gt;Node15</title>
<g id="a_edge14_Node000001_Node000015"><a xlink:title=" ">
<path fill="none" stroke="#63b8ff" d="M847.6,-384.95C875.31,-375.37 912.21,-362.6 941.78,-352.37"/>
<polygon fill="#63b8ff" stroke="#63b8ff" points="943.19,-355.59 951.5,-349.01 940.9,-348.97 943.19,-355.59"/>
</a>
</g>
</g>
<!-- Node36 -->
<g id="Node000036" class="node">
<title>Node36</title>
<g id="a_Node000036"><a xlink:href="CasADiLoader-util_8hpp.html" target="_top" xlink:title=" ">
<polygon fill="white" stroke="#666666" points="604.5,-228 473.5,-228 473.5,-187 604.5,-187 604.5,-228"/>
<text text-anchor="start" x="481.5" y="-216" font-family="Helvetica,sans-Serif" font-size="10.00">alpaqa/implementation</text>
<text text-anchor="start" x="481.5" y="-205" font-family="Helvetica,sans-Serif" font-size="10.00">/casadi/CasADiLoader</text>
<text text-anchor="middle" x="539" y="-194" font-family="Helvetica,sans-Serif" font-size="10.00">&#45;util.hpp</text>
</a>
</g>
</g>
<!-- Node1&#45;&gt;Node36 -->
<g id="edge48_Node000001_Node000036" class="edge">
<title>Node1&#45;&gt;Node36</title>
<g id="a_edge48_Node000001_Node000036"><a xlink:title=" ">
<path fill="none" stroke="#63b8ff" d="M787.29,-384.99C742.45,-353.12 632.25,-274.78 574.94,-234.04"/>
<polygon fill="#63b8ff" stroke="#63b8ff" points="576.72,-231.02 566.54,-228.08 572.67,-236.73 576.72,-231.02"/>
</a>
</g>
</g>
<!-- Node41 -->
<g id="Node000041" class="node">
<title>Node41</title>
<g id="a_Node000041"><a xlink:title=" ">
<polygon fill="#e0e0e0" stroke="#999999" points="1190,-343.5 1086,-343.5 1086,-324.5 1190,-324.5 1190,-343.5"/>
<text text-anchor="middle" x="1138" y="-331.5" font-family="Helvetica,sans-Serif" font-size="10.00">casadi/casadi.hpp</text>
</a>
</g>
</g>
<!-- Node1&#45;&gt;Node41 -->
<g id="edge59_Node000001_Node000041" class="edge">
<title>Node1&#45;&gt;Node41</title>
<g id="a_edge59_Node000001_Node000041"><a xlink:title=" ">
<path fill="none" stroke="#63b8ff" d="M887.81,-384.96C941.55,-375.4 1013.63,-362.13 1077,-349 1081.8,-348 1086.8,-346.93 1091.79,-345.82"/>
<polygon fill="#63b8ff" stroke="#63b8ff" points="1092.94,-349.15 1101.93,-343.55 1091.41,-342.32 1092.94,-349.15"/>
</a>
</g>
</g>
<!-- Node2&#45;&gt;Node3 -->
<g id="edge2_Node000002_Node000003" class="edge">
<title>Node2&#45;&gt;Node3</title>
<g id="a_edge2_Node000002_Node000003"><a xlink:title=" ">
<path fill="none" stroke="#63b8ff" d="M279.3,-121.99C282.23,-121.64 285.14,-121.31 288,-121 548.33,-93.06 614.84,-103.66 876,-85 884.53,-84.39 893.46,-83.72 902.34,-83.02"/>
<polygon fill="#63b8ff" stroke="#63b8ff" points="902.63,-86.51 912.32,-82.23 902.08,-79.53 902.63,-86.51"/>
</a>
</g>
</g>
<!-- Node10 -->
<g id="Node000010" class="node">
<title>Node10</title>
<g id="a_Node000010"><a xlink:title=" ">
<polygon fill="#e0e0e0" stroke="#999999" points="525.5,-85 460.5,-85 460.5,-66 525.5,-66 525.5,-85"/>
<text text-anchor="middle" x="493" y="-73" font-family="Helvetica,sans-Serif" font-size="10.00">stdexcept</text>
</a>
</g>
</g>
<!-- Node2&#45;&gt;Node10 -->
<g id="edge9_Node000002_Node000010" class="edge">
<title>Node2&#45;&gt;Node10</title>
<g id="a_edge9_Node000002_Node000010"><a xlink:title=" ">
<path fill="none" stroke="#63b8ff" d="M267.9,-120.99C324.78,-109.75 402.75,-94.34 450.41,-84.92"/>
<polygon fill="#63b8ff" stroke="#63b8ff" points="451.26,-88.32 460.39,-82.95 449.9,-81.45 451.26,-88.32"/>
</a>
</g>
</g>
<!-- Node11 -->
<g id="Node000011" class="node">
<title>Node11</title>
<g id="a_Node000011"><a xlink:title=" ">
<polygon fill="#e0e0e0" stroke="#999999" points="669,-85 625,-85 625,-66 669,-66 669,-85"/>
<text text-anchor="middle" x="647" y="-73" font-family="Helvetica,sans-Serif" font-size="10.00">string</text>
</a>
</g>
</g>
<!-- Node2&#45;&gt;Node11 -->
<g id="edge10_Node000002_Node000011" class="edge">
<title>Node2&#45;&gt;Node11</title>
<g id="a_edge10_Node000002_Node000011"><a xlink:title=" ">
<path fill="none" stroke="#63b8ff" d="M279.32,-122.17C282.25,-121.77 285.15,-121.38 288,-121 429.7,-102.31 469.5,-111.41 614.55,-84.77"/>
<polygon fill="#63b8ff" stroke="#63b8ff" points="615.53,-88.15 624.72,-82.88 614.25,-81.27 615.53,-88.15"/>
</a>
</g>
</g>
<!-- Node12 -->
<g id="Node000012" class="node">
<title>Node12</title>
<g id="a_Node000012"><a xlink:title=" ">
<polygon fill="#e0e0e0" stroke="#999999" points="305.5,-85 258.5,-85 258.5,-66 305.5,-66 305.5,-85"/>
<text text-anchor="middle" x="282" y="-73" font-family="Helvetica,sans-Serif" font-size="10.00">vector</text>
</a>
</g>
</g>
<!-- Node2&#45;&gt;Node12 -->
<g id="edge11_Node000002_Node000012" class="edge">
<title>Node2&#45;&gt;Node12</title>
<g id="a_edge11_Node000002_Node000012"><a xlink:title=" ">
<path fill="none" stroke="#63b8ff" d="M217.58,-120.84C230.67,-111.83 247.59,-100.18 260.8,-91.09"/>
<polygon fill="#63b8ff" stroke="#63b8ff" points="263.01,-93.82 269.26,-85.27 259.04,-88.05 263.01,-93.82"/>
</a>
</g>
</g>
<!-- Node13 -->
<g id="Node000013" class="node">
<title>Node13</title>
<g id="a_Node000013"><a xlink:title=" ">
<polygon fill="#e0e0e0" stroke="#999999" points="136,-85 0,-85 0,-66 136,-66 136,-85"/>
<text text-anchor="middle" x="68" y="-73" font-family="Helvetica,sans-Serif" font-size="10.00">casadi/core/function.hpp</text>
</a>
</g>
</g>
<!-- Node2&#45;&gt;Node13 -->
<g id="edge12_Node000002_Node000013" class="edge">
<title>Node2&#45;&gt;Node13</title>
<g id="a_edge12_Node000002_Node000013"><a xlink:title=" ">
<path fill="none" stroke="#63b8ff" d="M166.1,-120.99C144.87,-111.36 116.89,-98.67 96.25,-89.31"/>
<polygon fill="#63b8ff" stroke="#63b8ff" points="97.6,-86.08 87.05,-85.14 94.71,-92.46 97.6,-86.08"/>
</a>
</g>
</g>
<!-- Node14 -->
<g id="Node000014" class="node">
<title>Node14</title>
<g id="a_Node000014"><a xlink:title=" ">
<polygon fill="#e0e0e0" stroke="#999999" points="240,-85 154,-85 154,-66 240,-66 240,-85"/>
<text text-anchor="middle" x="197" y="-73" font-family="Helvetica,sans-Serif" font-size="10.00">casadi/mem.h</text>
</a>
</g>
</g>
<!-- Node2&#45;&gt;Node14 -->
<g id="edge13_Node000002_Node000014" class="edge">
<title>Node2&#45;&gt;Node14</title>
<g id="a_edge13_Node000002_Node000014"><a xlink:title=" ">
<path fill="none" stroke="#63b8ff" d="M197,-120.84C197,-113.21 197,-103.7 197,-95.45"/>
<polygon fill="#63b8ff" stroke="#63b8ff" points="200.5,-95.27 197,-85.27 193.5,-95.27 200.5,-95.27"/>
</a>
</g>
</g>
<!-- Node4 -->
<g id="Node000004" class="node">
<title>Node4</title>
<g id="a_Node000004"><a xlink:href="quadmath-print_8hpp.html" target="_top" xlink:title=" ">
<polygon fill="white" stroke="#666666" points="784.5,-30 663.5,-30 663.5,0 784.5,0 784.5,-30"/>
<text text-anchor="start" x="671.5" y="-18" font-family="Helvetica,sans-Serif" font-size="10.00">alpaqa/util/quadmath</text>
<text text-anchor="middle" x="724" y="-7" font-family="Helvetica,sans-Serif" font-size="10.00">/quadmath&#45;print.hpp</text>
</a>
</g>
</g>
<!-- Node3&#45;&gt;Node4 -->
<g id="edge3_Node000003_Node000004" class="edge">
<title>Node3&#45;&gt;Node4</title>
<g id="a_edge3_Node000003_Node000004"><a xlink:title=" ">
<path fill="none" stroke="#63b8ff" d="M942.78,-65.99C904.07,-57.15 842.53,-43.09 794.57,-32.13"/>
<polygon fill="#63b8ff" stroke="#63b8ff" points="795.09,-28.65 784.56,-29.84 793.53,-35.48 795.09,-28.65"/>
</a>
</g>
</g>
<!-- Node5 -->
<g id="Node000005" class="node">
<title>Node5</title>
<g id="a_Node000005"><a xlink:href="quadmath_8hpp.html" target="_top" xlink:title=" ">
<polygon fill="white" stroke="#666666" points="1237.5,-30 1116.5,-30 1116.5,0 1237.5,0 1237.5,-30"/>
<text text-anchor="start" x="1124.5" y="-18" font-family="Helvetica,sans-Serif" font-size="10.00">alpaqa/util/quadmath</text>
<text text-anchor="middle" x="1177" y="-7" font-family="Helvetica,sans-Serif" font-size="10.00">/quadmath.hpp</text>
</a>
</g>
</g>
<!-- Node3&#45;&gt;Node5 -->
<g id="edge4_Node000003_Node000005" class="edge">
<title>Node3&#45;&gt;Node5</title>
<g id="a_edge4_Node000003_Node000005"><a xlink:title=" ">
<path fill="none" stroke="#63b8ff" d="M1008.65,-65.99C1037.62,-57.39 1083.2,-43.86 1119.63,-33.04"/>
<polygon fill="#63b8ff" stroke="#63b8ff" points="1121.05,-36.27 1129.64,-30.06 1119.06,-29.56 1121.05,-36.27"/>
</a>
</g>
</g>
<!-- Node6 -->
<g id="Node000006" class="node">
<title>Node6</title>
<g id="a_Node000006"><a xlink:title=" ">
<polygon fill="#e0e0e0" stroke="#999999" points="1011.5,-24.5 952.5,-24.5 952.5,-5.5 1011.5,-5.5 1011.5,-24.5"/>
<text text-anchor="middle" x="982" y="-12.5" font-family="Helvetica,sans-Serif" font-size="10.00">complex</text>
</a>
</g>
</g>
<!-- Node3&#45;&gt;Node6 -->
<g id="edge5_Node000003_Node000006" class="edge">
<title>Node3&#45;&gt;Node6</title>
<g id="a_edge5_Node000003_Node000006"><a xlink:title=" ">
<path fill="none" stroke="#63b8ff" d="M980.3,-65.87C980.57,-57.75 981,-45.31 981.35,-34.89"/>
<polygon fill="#63b8ff" stroke="#63b8ff" points="984.86,-34.78 981.7,-24.67 977.86,-34.54 984.86,-34.78"/>
</a>
</g>
</g>
<!-- Node7 -->
<g id="Node000007" class="node">
<title>Node7</title>
<g id="a_Node000007"><a xlink:title=" ">
<polygon fill="#e0e0e0" stroke="#999999" points="847,-24.5 803,-24.5 803,-5.5 847,-5.5 847,-24.5"/>
<text text-anchor="middle" x="825" y="-12.5" font-family="Helvetica,sans-Serif" font-size="10.00">limits</text>
</a>
</g>
</g>
<!-- Node3&#45;&gt;Node7 -->
<g id="edge6_Node000003_Node000007" class="edge">
<title>Node3&#45;&gt;Node7</title>
<g id="a_edge6_Node000003_Node000007"><a xlink:title=" ">
<path fill="none" stroke="#63b8ff" d="M954.85,-65.94C929.86,-57.31 890.53,-43.39 857,-30 855.83,-29.53 854.63,-29.05 853.43,-28.55"/>
<polygon fill="#63b8ff" stroke="#63b8ff" points="854.78,-25.32 844.2,-24.64 852.05,-31.77 854.78,-25.32"/>
</a>
</g>
</g>
<!-- Node8 -->
<g id="Node000008" class="node">
<title>Node8</title>
<g id="a_Node000008"><a xlink:title=" ">
<polygon fill="#e0e0e0" stroke="#999999" points="1098.5,-24.5 1029.5,-24.5 1029.5,-5.5 1098.5,-5.5 1098.5,-24.5"/>
<text text-anchor="middle" x="1064" y="-12.5" font-family="Helvetica,sans-Serif" font-size="10.00">type_traits</text>
</a>
</g>
</g>
<!-- Node3&#45;&gt;Node8 -->
<g id="edge7_Node000003_Node000008" class="edge">
<title>Node3&#45;&gt;Node8</title>
<g id="a_edge7_Node000003_Node000008"><a xlink:title=" ">
<path fill="none" stroke="#63b8ff" d="M992.39,-65.87C1005.79,-56.54 1027.38,-41.51 1043.35,-30.38"/>
<polygon fill="#63b8ff" stroke="#63b8ff" points="1045.35,-33.25 1051.55,-24.67 1041.35,-27.51 1045.35,-33.25"/>
</a>
</g>
</g>
<!-- Node9 -->
<g id="Node000009" class="node">
<title>Node9</title>
<g id="a_Node000009"><a xlink:title=" ">
<polygon fill="#e0e0e0" stroke="#999999" points="934.5,-24.5 865.5,-24.5 865.5,-5.5 934.5,-5.5 934.5,-24.5"/>
<text text-anchor="middle" x="900" y="-12.5" font-family="Helvetica,sans-Serif" font-size="10.00">Eigen/Core</text>
</a>
</g>
</g>
<!-- Node3&#45;&gt;Node9 -->
<g id="edge8_Node000003_Node000009" class="edge">
<title>Node3&#45;&gt;Node9</title>
<g id="a_edge8_Node000003_Node000009"><a xlink:title=" ">
<path fill="none" stroke="#63b8ff" d="M968.2,-65.87C955.55,-56.62 935.26,-41.78 920.09,-30.69"/>
<polygon fill="#63b8ff" stroke="#63b8ff" points="921.99,-27.74 911.85,-24.67 917.86,-33.4 921.99,-27.74"/>
</a>
</g>
</g>
<!-- Node16 -->
<g id="Node000016" class="node">
<title>Node16</title>
<g id="a_Node000016"><a xlink:title=" ">
<polygon fill="#e0e0e0" stroke="#999999" points="1565.5,-151 1446.5,-151 1446.5,-121 1565.5,-121 1565.5,-151"/>
<text text-anchor="start" x="1454.5" y="-139" font-family="Helvetica,sans-Serif" font-size="10.00">alpaqa/casadi&#45;loader</text>
<text text-anchor="middle" x="1506" y="-128" font-family="Helvetica,sans-Serif" font-size="10.00">&#45;export.h</text>
</a>
</g>
</g>
<!-- Node15&#45;&gt;Node16 -->
<g id="edge15_Node000015_Node000016" class="edge">
<title>Node15&#45;&gt;Node16</title>
<g id="a_edge15_Node000015_Node000016"><a xlink:title=" ">
<path fill="none" stroke="#63b8ff" d="M1068.04,-319.17C1203.35,-294.25 1473.21,-242.99 1488,-228 1505.16,-210.61 1508.3,-181.86 1508.02,-161.34"/>
<polygon fill="#63b8ff" stroke="#63b8ff" points="1511.51,-161.02 1507.59,-151.18 1504.51,-161.31 1511.51,-161.02"/>
</a>
</g>
</g>
<!-- Node17 -->
<g id="Node000017" class="node">
<title>Node17</title>
<g id="a_Node000017"><a xlink:href="CasADiProblem_8hpp.html" target="_top" xlink:title=" ">
<polygon fill="white" stroke="#666666" points="1165,-283 981,-283 981,-264 1165,-264 1165,-283"/>
<text text-anchor="middle" x="1073" y="-271" font-family="Helvetica,sans-Serif" font-size="10.00">alpaqa/casadi/CasADiProblem.hpp</text>
</a>
</g>
</g>
<!-- Node15&#45;&gt;Node17 -->
<g id="edge16_Node000015_Node000017" class="edge">
<title>Node15&#45;&gt;Node17</title>
<g id="a_edge16_Node000015_Node000017"><a xlink:title=" ">
<path fill="none" stroke="#63b8ff" d="M1011.61,-318.84C1023.97,-309.91 1039.9,-298.41 1052.43,-289.35"/>
<polygon fill="#63b8ff" stroke="#63b8ff" points="1054.8,-291.96 1060.86,-283.27 1050.71,-286.28 1054.8,-291.96"/>
</a>
</g>
</g>
<!-- Node17&#45;&gt;Node3 -->
<g id="edge19_Node000017_Node000003" class="edge">
<title>Node17&#45;&gt;Node3</title>
<g id="a_edge19_Node000017_Node000003"><a xlink:title=" ">
<path fill="none" stroke="#63b8ff" d="M1094.79,-263.9C1110.05,-256.68 1129.52,-244.83 1140,-228 1165.24,-187.45 1179.19,-158.81 1150,-121 1137.88,-105.3 1094.24,-94.08 1054.22,-86.82"/>
<polygon fill="#63b8ff" stroke="#63b8ff" points="1054.59,-83.34 1044.14,-85.06 1053.39,-90.23 1054.59,-83.34"/>
</a>
</g>
</g>
<!-- Node17&#45;&gt;Node11 -->
<g id="edge46_Node000017_Node000011" class="edge">
<title>Node17&#45;&gt;Node11</title>
<g id="a_edge46_Node000017_Node000011"><a xlink:title=" ">
<path fill="none" stroke="#63b8ff" d="M1057.91,-263.89C1043.84,-255.55 1022.59,-242.11 1006,-228 987.07,-211.9 989.62,-199.23 968,-187 900.02,-148.54 866.96,-183.63 796,-151 776.13,-141.86 775.98,-131.87 757,-121 732.04,-106.71 701.59,-94.77 679.06,-86.87"/>
<polygon fill="#63b8ff" stroke="#63b8ff" points="679.91,-83.46 669.31,-83.53 677.64,-90.08 679.91,-83.46"/>
</a>
</g>
</g>
<!-- Node18 -->
<g id="Node000018" class="node">
<title>Node18</title>
<g id="a_Node000018"><a xlink:href="casadi-loader-export_8hpp.html" target="_top" xlink:title=" ">
<polygon fill="white" stroke="#666666" points="1478.5,-222.5 1359.5,-222.5 1359.5,-192.5 1478.5,-192.5 1478.5,-222.5"/>
<text text-anchor="start" x="1367.5" y="-210.5" font-family="Helvetica,sans-Serif" font-size="10.00">alpaqa/casadi&#45;loader</text>
<text text-anchor="middle" x="1419" y="-199.5" font-family="Helvetica,sans-Serif" font-size="10.00">&#45;export.hpp</text>
</a>
</g>
</g>
<!-- Node17&#45;&gt;Node18 -->
<g id="edge17_Node000017_Node000018" class="edge">
<title>Node17&#45;&gt;Node18</title>
<g id="a_edge17_Node000017_Node000018"><a xlink:title=" ">
<path fill="none" stroke="#63b8ff" d="M1135.71,-263.98C1191.04,-256.04 1273.75,-243.18 1345,-228 1349.36,-227.07 1353.84,-226.05 1358.35,-224.98"/>
<polygon fill="#63b8ff" stroke="#63b8ff" points="1359.32,-228.35 1368.2,-222.57 1357.65,-221.55 1359.32,-228.35"/>
</a>
</g>
</g>
<!-- Node19 -->
<g id="Node000019" class="node">
<title>Node19</title>
<g id="a_Node000019"><a xlink:href="box-constr-problem_8hpp.html" target="_top" xlink:title=" ">
<polygon fill="white" stroke="#666666" points="1131,-222.5 1015,-222.5 1015,-192.5 1131,-192.5 1131,-222.5"/>
<text text-anchor="start" x="1023" y="-210.5" font-family="Helvetica,sans-Serif" font-size="10.00">alpaqa/problem/box</text>
<text text-anchor="middle" x="1073" y="-199.5" font-family="Helvetica,sans-Serif" font-size="10.00">&#45;constr&#45;problem.hpp</text>
</a>
</g>
</g>
<!-- Node17&#45;&gt;Node19 -->
<g id="edge20_Node000017_Node000019" class="edge">
<title>Node17&#45;&gt;Node19</title>
<g id="a_edge20_Node000017_Node000019"><a xlink:title=" ">
<path fill="none" stroke="#63b8ff" d="M1073,-263.87C1073,-255.99 1073,-243.95 1073,-233.1"/>
<polygon fill="#63b8ff" stroke="#63b8ff" points="1076.5,-232.86 1073,-222.86 1069.5,-232.86 1076.5,-232.86"/>
</a>
</g>
</g>
<!-- Node27 -->
<g id="Node000027" class="node">
<title>Node27</title>
<g id="a_Node000027"><a xlink:href="sparsity_8hpp.html" target="_top" xlink:title=" ">
<polygon fill="white" stroke="#666666" points="1428.5,-145.5 1273.5,-145.5 1273.5,-126.5 1428.5,-126.5 1428.5,-145.5"/>
<text text-anchor="middle" x="1351" y="-133.5" font-family="Helvetica,sans-Serif" font-size="10.00">alpaqa/problem/sparsity.hpp</text>
</a>
</g>
</g>
<!-- Node17&#45;&gt;Node27 -->
<g id="edge35_Node000017_Node000027" class="edge">
<title>Node17&#45;&gt;Node27</title>
<g id="a_edge35_Node000017_Node000027"><a xlink:title=" ">
<path fill="none" stroke="#63b8ff" d="M1165.29,-264.3C1222.57,-257.54 1289.43,-246.07 1312,-228 1334.52,-209.97 1344.28,-176.47 1348.32,-155.53"/>
<polygon fill="#63b8ff" stroke="#63b8ff" points="1351.78,-156.06 1349.99,-145.62 1344.88,-154.9 1351.78,-156.06"/>
</a>
</g>
</g>
<!-- Node32 -->
<g id="Node000032" class="node">
<title>Node32</title>
<g id="a_Node000032"><a xlink:href="copyable__unique__ptr_8hpp.html" target="_top" xlink:title=" ">
<polygon fill="white" stroke="#666666" points="1303,-222.5 1187,-222.5 1187,-192.5 1303,-192.5 1303,-222.5"/>
<text text-anchor="start" x="1195" y="-210.5" font-family="Helvetica,sans-Serif" font-size="10.00">alpaqa/util/copyable</text>
<text text-anchor="middle" x="1245" y="-199.5" font-family="Helvetica,sans-Serif" font-size="10.00">_unique_ptr.hpp</text>
</a>
</g>
</g>
<!-- Node17&#45;&gt;Node32 -->
<g id="edge42_Node000017_Node000032" class="edge">
<title>Node17&#45;&gt;Node32</title>
<g id="a_edge42_Node000017_Node000032"><a xlink:title=" ">
<path fill="none" stroke="#63b8ff" d="M1096.2,-263.87C1122.07,-254.24 1164.61,-238.41 1197.6,-226.14"/>
<polygon fill="#63b8ff" stroke="#63b8ff" points="1198.91,-229.38 1207.06,-222.62 1196.47,-222.82 1198.91,-229.38"/>
</a>
</g>
</g>
<!-- Node34 -->
<g id="Node000034" class="node">
<title>Node34</title>
<g id="a_Node000034"><a xlink:title=" ">
<polygon fill="#e0e0e0" stroke="#999999" points="903,-217 835,-217 835,-198 903,-198 903,-217"/>
<text text-anchor="middle" x="869" y="-205" font-family="Helvetica,sans-Serif" font-size="10.00">filesystem</text>
</a>
</g>
</g>
<!-- Node17&#45;&gt;Node34 -->
<g id="edge44_Node000017_Node000034" class="edge">
<title>Node17&#45;&gt;Node34</title>
<g id="a_edge44_Node000017_Node000034"><a xlink:title=" ">
<path fill="none" stroke="#63b8ff" d="M1035.72,-263.95C1002.75,-255.98 953.58,-243.07 912,-228 906.61,-226.04 900.95,-223.7 895.57,-221.33"/>
<polygon fill="#63b8ff" stroke="#63b8ff" points="896.87,-218.07 886.32,-217.1 893.96,-224.44 896.87,-218.07"/>
</a>
</g>
</g>
<!-- Node35 -->
<g id="Node000035" class="node">
<title>Node35</title>
<g id="a_Node000035"><a xlink:title=" ">
<polygon fill="#e0e0e0" stroke="#999999" points="959,-217 921,-217 921,-198 959,-198 959,-217"/>
<text text-anchor="middle" x="940" y="-205" font-family="Helvetica,sans-Serif" font-size="10.00">map</text>
</a>
</g>
</g>
<!-- Node17&#45;&gt;Node35 -->
<g id="edge45_Node000017_Node000035" class="edge">
<title>Node17&#45;&gt;Node35</title>
<g id="a_edge45_Node000017_Node000035"><a xlink:title=" ">
<path fill="none" stroke="#63b8ff" d="M1051.99,-263.98C1031.52,-255.49 999.68,-241.76 973,-228 969.54,-226.22 965.95,-224.23 962.45,-222.23"/>
<polygon fill="#63b8ff" stroke="#63b8ff" points="964,-219.08 953.61,-217.02 960.45,-225.11 964,-219.08"/>
</a>
</g>
</g>
<!-- Node18&#45;&gt;Node16 -->
<g id="edge18_Node000018_Node000016" class="edge">
<title>Node18&#45;&gt;Node16</title>
<g id="a_edge18_Node000018_Node000016"><a xlink:title=" ">
<path fill="none" stroke="#63b8ff" d="M1436.61,-192.44C1449.22,-182.36 1466.41,-168.63 1480.52,-157.35"/>
<polygon fill="#63b8ff" stroke="#63b8ff" points="1482.79,-160.02 1488.42,-151.04 1478.42,-154.55 1482.79,-160.02"/>
</a>
</g>
</g>
<!-- Node20 -->
<g id="Node000020" class="node">
<title>Node20</title>
<g id="a_Node000020"><a xlink:href="box_8hpp.html" target="_top" xlink:title=" ">
<polygon fill="white" stroke="#666666" points="1140.5,-145.5 1005.5,-145.5 1005.5,-126.5 1140.5,-126.5 1140.5,-145.5"/>
<text text-anchor="middle" x="1073" y="-133.5" font-family="Helvetica,sans-Serif" font-size="10.00">alpaqa/problem/box.hpp</text>
</a>
</g>
</g>
<!-- Node19&#45;&gt;Node20 -->
<g id="edge21_Node000019_Node000020" class="edge">
<title>Node19&#45;&gt;Node20</title>
<g id="a_edge21_Node000019_Node000020"><a xlink:title=" ">
<path fill="none" stroke="#63b8ff" d="M1073,-192.44C1073,-181.96 1073,-167.55 1073,-156.05"/>
<polygon fill="#63b8ff" stroke="#63b8ff" points="1076.5,-155.77 1073,-145.77 1069.5,-155.77 1076.5,-155.77"/>
</a>
</g>
</g>
<!-- Node24 -->
<g id="Node000024" class="node">
<title>Node24</title>
<g id="a_Node000024"><a xlink:href="check-dim_8hpp.html" target="_top" xlink:title=" ">
<polygon fill="white" stroke="#666666" points="948.5,-145.5 805.5,-145.5 805.5,-126.5 948.5,-126.5 948.5,-145.5"/>
<text text-anchor="middle" x="877" y="-133.5" font-family="Helvetica,sans-Serif" font-size="10.00">alpaqa/util/check&#45;dim.hpp</text>
</a>
</g>
</g>
<!-- Node19&#45;&gt;Node24 -->
<g id="edge29_Node000019_Node000024" class="edge">
<title>Node19&#45;&gt;Node24</title>
<g id="a_edge29_Node000019_Node000024"><a xlink:title=" ">
<path fill="none" stroke="#63b8ff" d="M1033.34,-192.44C997.3,-179.66 944.71,-161.01 910.67,-148.94"/>
<polygon fill="#63b8ff" stroke="#63b8ff" points="911.76,-145.61 901.16,-145.57 909.42,-152.21 911.76,-145.61"/>
</a>
</g>
</g>
<!-- Node26 -->
<g id="Node000026" class="node">
<title>Node26</title>
<g id="a_Node000026"><a xlink:title=" ">
<polygon fill="#e0e0e0" stroke="#999999" points="748.5,-145.5 703.5,-145.5 703.5,-126.5 748.5,-126.5 748.5,-145.5"/>
<text text-anchor="middle" x="726" y="-133.5" font-family="Helvetica,sans-Serif" font-size="10.00">utility</text>
</a>
</g>
</g>
<!-- Node19&#45;&gt;Node26 -->
<g id="edge34_Node000019_Node000026" class="edge">
<title>Node19&#45;&gt;Node26</title>
<g id="a_edge34_Node000019_Node000026"><a xlink:title=" ">
<path fill="none" stroke="#63b8ff" d="M1014.92,-194.87C941.39,-180.14 817.24,-155.27 758.57,-143.52"/>
<polygon fill="#63b8ff" stroke="#63b8ff" points="759.23,-140.09 748.74,-141.55 757.86,-146.95 759.23,-140.09"/>
</a>
</g>
</g>
<!-- Node20&#45;&gt;Node3 -->
<g id="edge22_Node000020_Node000003" class="edge">
<title>Node20&#45;&gt;Node3</title>
<g id="a_edge22_Node000020_Node000003"><a xlink:title=" ">
<path fill="none" stroke="#63b8ff" d="M1059.28,-126.37C1044.3,-116.95 1020.11,-101.73 1002.38,-90.58"/>
<polygon fill="#63b8ff" stroke="#63b8ff" points="1004.11,-87.53 993.78,-85.17 1000.38,-93.45 1004.11,-87.53"/>
</a>
</g>
</g>
<!-- Node21 -->
<g id="Node000021" class="node">
<title>Node21</title>
<g id="a_Node000021"><a xlink:href="float_8hpp.html" target="_top" xlink:title=" ">
<polygon fill="white" stroke="#666666" points="1207,-85 1093,-85 1093,-66 1207,-66 1207,-85"/>
<text text-anchor="middle" x="1150" y="-73" font-family="Helvetica,sans-Serif" font-size="10.00">alpaqa/util/float.hpp</text>
</a>
</g>
</g>
<!-- Node20&#45;&gt;Node21 -->
<g id="edge23_Node000020_Node000021" class="edge">
<title>Node20&#45;&gt;Node21</title>
<g id="a_edge23_Node000020_Node000021"><a xlink:title=" ">
<path fill="none" stroke="#63b8ff" d="M1084.36,-126.37C1096.42,-117.21 1115.7,-102.56 1130.25,-91.51"/>
<polygon fill="#63b8ff" stroke="#63b8ff" points="1132.75,-94 1138.59,-85.17 1128.51,-88.43 1132.75,-94"/>
</a>
</g>
</g>
<!-- Node21&#45;&gt;Node5 -->
<g id="edge24_Node000021_Node000005" class="edge">
<title>Node21&#45;&gt;Node5</title>
<g id="a_edge24_Node000021_Node000005"><a xlink:title=" ">
<path fill="none" stroke="#63b8ff" d="M1153.98,-65.87C1157.21,-58.89 1161.9,-48.71 1166.21,-39.38"/>
<polygon fill="#63b8ff" stroke="#63b8ff" points="1169.47,-40.66 1170.49,-30.11 1163.12,-37.73 1169.47,-40.66"/>
</a>
</g>
</g>
<!-- Node21&#45;&gt;Node6 -->
<g id="edge26_Node000021_Node000006" class="edge">
<title>Node21&#45;&gt;Node6</title>
<g id="a_edge26_Node000021_Node000006"><a xlink:title=" ">
<path fill="none" stroke="#63b8ff" d="M1124.75,-65.9C1098.73,-57 1056.98,-42.66 1021,-30 1019.17,-29.36 1017.29,-28.69 1015.39,-28.02"/>
<polygon fill="#63b8ff" stroke="#63b8ff" points="1016.5,-24.7 1005.91,-24.64 1014.15,-31.29 1016.5,-24.7"/>
</a>
</g>
</g>
<!-- Node21&#45;&gt;Node8 -->
<g id="edge28_Node000021_Node000008" class="edge">
<title>Node21&#45;&gt;Node8</title>
<g id="a_edge28_Node000021_Node000008"><a xlink:title=" ">
<path fill="none" stroke="#63b8ff" d="M1137.31,-65.87C1123.59,-56.54 1101.5,-41.51 1085.15,-30.38"/>
<polygon fill="#63b8ff" stroke="#63b8ff" points="1086.98,-27.4 1076.74,-24.67 1083.04,-33.19 1086.98,-27.4"/>
</a>
</g>
</g>
<!-- Node22 -->
<g id="Node000022" class="node">
<title>Node22</title>
<g id="a_Node000022"><a xlink:title=" ">
<polygon fill="#e0e0e0" stroke="#999999" points="1302.5,-24.5 1255.5,-24.5 1255.5,-5.5 1302.5,-5.5 1302.5,-24.5"/>
<text text-anchor="middle" x="1279" y="-12.5" font-family="Helvetica,sans-Serif" font-size="10.00">cmath</text>
</a>
</g>
</g>
<!-- Node21&#45;&gt;Node22 -->
<g id="edge25_Node000021_Node000022" class="edge">
<title>Node21&#45;&gt;Node22</title>
<g id="a_edge25_Node000021_Node000022"><a xlink:title=" ">
<path fill="none" stroke="#63b8ff" d="M1168.76,-65.99C1190.35,-56.2 1226.03,-40.02 1250.93,-28.73"/>
<polygon fill="#63b8ff" stroke="#63b8ff" points="1252.56,-31.83 1260.22,-24.52 1249.67,-25.46 1252.56,-31.83"/>
</a>
</g>
</g>
<!-- Node23 -->
<g id="Node000023" class="node">
<title>Node23</title>
<g id="a_Node000023"><a xlink:title=" ">
<polygon fill="#e0e0e0" stroke="#999999" points="1381,-24.5 1321,-24.5 1321,-5.5 1381,-5.5 1381,-24.5"/>
<text text-anchor="middle" x="1351" y="-12.5" font-family="Helvetica,sans-Serif" font-size="10.00">concepts</text>
</a>
</g>
</g>
<!-- Node21&#45;&gt;Node23 -->
<g id="edge27_Node000021_Node000023" class="edge">
<title>Node21&#45;&gt;Node23</title>
<g id="a_edge27_Node000021_Node000023"><a xlink:title=" ">
<path fill="none" stroke="#63b8ff" d="M1184.04,-65.96C1216.98,-57.51 1268.2,-43.85 1312,-30 1314.12,-29.33 1316.29,-28.62 1318.48,-27.88"/>
<polygon fill="#63b8ff" stroke="#63b8ff" points="1319.7,-31.17 1328,-24.59 1317.41,-24.55 1319.7,-31.17"/>
</a>
</g>
</g>
<!-- Node24&#45;&gt;Node3 -->
<g id="edge30_Node000024_Node000003" class="edge">
<title>Node24&#45;&gt;Node3</title>
<g id="a_edge30_Node000024_Node000003"><a xlink:title=" ">
<path fill="none" stroke="#63b8ff" d="M892.2,-126.37C909.01,-116.82 936.32,-101.31 956.02,-90.12"/>
<polygon fill="#63b8ff" stroke="#63b8ff" points="957.77,-93.15 964.74,-85.17 954.32,-87.06 957.77,-93.15"/>
</a>
</g>
</g>
<!-- Node24&#45;&gt;Node10 -->
<g id="edge32_Node000024_Node000010" class="edge">
<title>Node24&#45;&gt;Node10</title>
<g id="a_edge32_Node000024_Node000010"><a xlink:title=" ">
<path fill="none" stroke="#63b8ff" d="M815.41,-126.46C747.78,-116.94 636.01,-100.8 540,-85 538.54,-84.76 537.06,-84.51 535.56,-84.26"/>
<polygon fill="#63b8ff" stroke="#63b8ff" points="536.04,-80.79 525.59,-82.53 534.85,-87.69 536.04,-80.79"/>
</a>
</g>
</g>
<!-- Node24&#45;&gt;Node11 -->
<g id="edge33_Node000024_Node000011" class="edge">
<title>Node24&#45;&gt;Node11</title>
<g id="a_edge33_Node000024_Node000011"><a xlink:title=" ">
<path fill="none" stroke="#63b8ff" d="M842.07,-126.46C804.23,-117.16 741.84,-101.68 679.01,-85.23"/>
<polygon fill="#63b8ff" stroke="#63b8ff" points="679.9,-81.84 669.34,-82.69 678.12,-88.61 679.9,-81.84"/>
</a>
</g>
</g>
<!-- Node25 -->
<g id="Node000025" class="node">
<title>Node25</title>
<g id="a_Node000025"><a xlink:title=" ">
<polygon fill="#e0e0e0" stroke="#999999" points="743,-85 687,-85 687,-66 743,-66 743,-85"/>
<text text-anchor="middle" x="715" y="-73" font-family="Helvetica,sans-Serif" font-size="10.00">optional</text>
</a>
</g>
</g>
<!-- Node24&#45;&gt;Node25 -->
<g id="edge31_Node000024_Node000025" class="edge">
<title>Node24&#45;&gt;Node25</title>
<g id="a_edge31_Node000024_Node000025"><a xlink:title=" ">
<path fill="none" stroke="#63b8ff" d="M853.44,-126.49C825.73,-116.49 779.53,-99.8 748.19,-88.49"/>
<polygon fill="#63b8ff" stroke="#63b8ff" points="749.18,-85.12 738.58,-85.02 746.8,-91.71 749.18,-85.12"/>
</a>
</g>
</g>
<!-- Node27&#45;&gt;Node3 -->
<g id="edge36_Node000027_Node000003" class="edge">
<title>Node27&#45;&gt;Node3</title>
<g id="a_edge36_Node000027_Node000003"><a xlink:title=" ">
<path fill="none" stroke="#63b8ff" d="M1298.1,-126.45C1286.84,-124.64 1275.03,-122.75 1264,-121 1188.79,-109.06 1102.34,-95.54 1044.77,-86.57"/>
<polygon fill="#63b8ff" stroke="#63b8ff" points="1045.14,-83.09 1034.72,-85.01 1044.06,-90 1045.14,-83.09"/>
</a>
</g>
</g>
<!-- Node27&#45;&gt;Node23 -->
<g id="edge40_Node000027_Node000023" class="edge">
<title>Node27&#45;&gt;Node23</title>
<g id="a_edge40_Node000027_Node000023"><a xlink:title=" ">
<path fill="none" stroke="#63b8ff" d="M1351,-126.44C1351,-107.41 1351,-61.19 1351,-34.97"/>
<polygon fill="#63b8ff" stroke="#63b8ff" points="1354.5,-34.8 1351,-24.8 1347.5,-34.8 1354.5,-34.8"/>
</a>
</g>
</g>
<!-- Node28 -->
<g id="Node000028" class="node">
<title>Node28</title>
<g id="a_Node000028"><a xlink:href="export_8hpp.html" target="_top" xlink:title=" ">
<polygon fill="white" stroke="#666666" points="866.5,-85 761.5,-85 761.5,-66 866.5,-66 866.5,-85"/>
<text text-anchor="middle" x="814" y="-73" font-family="Helvetica,sans-Serif" font-size="10.00">alpaqa/export.hpp</text>
</a>
</g>
</g>
<!-- Node27&#45;&gt;Node28 -->
<g id="edge37_Node000027_Node000028" class="edge">
<title>Node27&#45;&gt;Node28</title>
<g id="a_edge37_Node000027_Node000028"><a xlink:title=" ">
<path fill="none" stroke="#63b8ff" d="M1301.39,-126.48C1289.18,-124.53 1276.14,-122.58 1264,-121 1226.59,-116.15 991.7,-93.5 876.95,-82.51"/>
<polygon fill="#63b8ff" stroke="#63b8ff" points="877.18,-79.02 866.9,-81.55 876.52,-85.98 877.18,-79.02"/>
</a>
</g>
</g>
<!-- Node30 -->
<g id="Node000030" class="node">
<title>Node30</title>
<g id="a_Node000030"><a xlink:title=" ">
<polygon fill="#e0e0e0" stroke="#999999" points="1431,-85 1379,-85 1379,-66 1431,-66 1431,-85"/>
<text text-anchor="middle" x="1405" y="-73" font-family="Helvetica,sans-Serif" font-size="10.00">cassert</text>
</a>
</g>
</g>
<!-- Node27&#45;&gt;Node30 -->
<g id="edge39_Node000027_Node000030" class="edge">
<title>Node27&#45;&gt;Node30</title>
<g id="a_edge39_Node000027_Node000030"><a xlink:title=" ">
<path fill="none" stroke="#63b8ff" d="M1358.97,-126.37C1367.1,-117.55 1379.93,-103.66 1389.98,-92.77"/>
<polygon fill="#63b8ff" stroke="#63b8ff" points="1392.79,-94.89 1397,-85.17 1387.64,-90.14 1392.79,-94.89"/>
</a>
</g>
</g>
<!-- Node31 -->
<g id="Node000031" class="node">
<title>Node31</title>
<g id="a_Node000031"><a xlink:title=" ">
<polygon fill="#e0e0e0" stroke="#999999" points="1322.5,-85 1271.5,-85 1271.5,-66 1322.5,-66 1322.5,-85"/>
<text text-anchor="middle" x="1297" y="-73" font-family="Helvetica,sans-Serif" font-size="10.00">variant</text>
</a>
</g>
</g>
<!-- Node27&#45;&gt;Node31 -->
<g id="edge41_Node000027_Node000031" class="edge">
<title>Node27&#45;&gt;Node31</title>
<g id="a_edge41_Node000027_Node000031"><a xlink:title=" ">
<path fill="none" stroke="#63b8ff" d="M1343.03,-126.37C1334.9,-117.55 1322.07,-103.66 1312.02,-92.77"/>
<polygon fill="#63b8ff" stroke="#63b8ff" points="1314.36,-90.14 1305,-85.17 1309.21,-94.89 1314.36,-90.14"/>
</a>
</g>
</g>
<!-- Node29 -->
<g id="Node000029" class="node">
<title>Node29</title>
<g id="a_Node000029"><a xlink:title=" ">
<polygon fill="#e0e0e0" stroke="#999999" points="645.5,-24.5 552.5,-24.5 552.5,-5.5 645.5,-5.5 645.5,-24.5"/>
<text text-anchor="middle" x="599" y="-12.5" font-family="Helvetica,sans-Serif" font-size="10.00">alpaqa/export.h</text>
</a>
</g>
</g>
<!-- Node28&#45;&gt;Node29 -->
<g id="edge38_Node000028_Node000029" class="edge">
<title>Node28&#45;&gt;Node29</title>
<g id="a_edge38_Node000028_Node000029"><a xlink:title=" ">
<path fill="none" stroke="#63b8ff" d="M782.74,-65.99C745.08,-55.75 681.71,-38.5 640.12,-27.19"/>
<polygon fill="#63b8ff" stroke="#63b8ff" points="640.87,-23.77 630.3,-24.52 639.03,-30.52 640.87,-23.77"/>
</a>
</g>
</g>
<!-- Node33 -->
<g id="Node000033" class="node">
<title>Node33</title>
<g id="a_Node000033"><a xlink:title=" ">
<polygon fill="#e0e0e0" stroke="#999999" points="1255,-145.5 1197,-145.5 1197,-126.5 1255,-126.5 1255,-145.5"/>
<text text-anchor="middle" x="1226" y="-133.5" font-family="Helvetica,sans-Serif" font-size="10.00">memory</text>
</a>
</g>
</g>
<!-- Node32&#45;&gt;Node33 -->
<g id="edge43_Node000032_Node000033" class="edge">
<title>Node32&#45;&gt;Node33</title>
<g id="a_edge43_Node000032_Node000033"><a xlink:title=" ">
<path fill="none" stroke="#63b8ff" d="M1241.16,-192.44C1238.26,-181.86 1234.27,-167.25 1231.11,-155.69"/>
<polygon fill="#63b8ff" stroke="#63b8ff" points="1234.41,-154.49 1228.4,-145.77 1227.66,-156.34 1234.41,-154.49"/>
</a>
</g>
</g>
<!-- Node36&#45;&gt;Node2 -->
<g id="edge49_Node000036_Node000002" class="edge">
<title>Node36&#45;&gt;Node2</title>
<g id="a_edge49_Node000036_Node000002"><a xlink:title=" ">
<path fill="none" stroke="#63b8ff" d="M473.46,-193.18C417.27,-181.76 336.14,-165.28 276.29,-153.11"/>
<polygon fill="#63b8ff" stroke="#63b8ff" points="276.63,-149.61 266.13,-151.05 275.23,-156.47 276.63,-149.61"/>
</a>
</g>
</g>
<!-- Node36&#45;&gt;Node10 -->
<g id="edge57_Node000036_Node000010" class="edge">
<title>Node36&#45;&gt;Node10</title>
<g id="a_edge57_Node000036_Node000010"><a xlink:title=" ">
<path fill="none" stroke="#63b8ff" d="M528.25,-186.89C522.84,-176.45 516.5,-163.27 512,-151 505.27,-132.62 500.01,-110.86 496.75,-95.61"/>
<polygon fill="#63b8ff" stroke="#63b8ff" points="500.1,-94.49 494.66,-85.39 493.24,-95.89 500.1,-94.49"/>
</a>
</g>
</g>
<!-- Node36&#45;&gt;Node25 -->
<g id="edge56_Node000036_Node000025" class="edge">
<title>Node36&#45;&gt;Node25</title>
<g id="a_edge56_Node000036_Node000025"><a xlink:title=" ">
<path fill="none" stroke="#63b8ff" d="M593.22,-186.95C614.08,-177.9 637.35,-165.84 656,-151 676.29,-134.86 693.9,-110.46 704.48,-94.02"/>
<polygon fill="#63b8ff" stroke="#63b8ff" points="707.54,-95.73 709.86,-85.39 701.6,-92.03 707.54,-95.73"/>
</a>
</g>
</g>
<!-- Node36&#45;&gt;Node26 -->
<g id="edge58_Node000036_Node000026" class="edge">
<title>Node36&#45;&gt;Node26</title>
<g id="a_edge58_Node000036_Node000026"><a xlink:title=" ">
<path fill="none" stroke="#63b8ff" d="M592.14,-186.95C620.84,-176.36 656.88,-163.02 689,-151 690.59,-150.4 692.22,-149.79 693.87,-149.17"/>
<polygon fill="#63b8ff" stroke="#63b8ff" points="695.19,-152.42 703.31,-145.61 692.72,-145.87 695.19,-152.42"/>
</a>
</g>
</g>
<!-- Node37 -->
<g id="Node000037" class="node">
<title>Node37</title>
<g id="a_Node000037"><a xlink:href="demangled-typename_8hpp.html" target="_top" xlink:title=" ">
<polygon fill="white" stroke="#666666" points="647,-151 521,-151 521,-121 647,-121 647,-151"/>
<text text-anchor="start" x="529" y="-139" font-family="Helvetica,sans-Serif" font-size="10.00">alpaqa/util/demangled</text>
<text text-anchor="middle" x="584" y="-128" font-family="Helvetica,sans-Serif" font-size="10.00">&#45;typename.hpp</text>
</a>
</g>
</g>
<!-- Node36&#45;&gt;Node37 -->
<g id="edge50_Node000036_Node000037" class="edge">
<title>Node36&#45;&gt;Node37</title>
<g id="a_edge50_Node000036_Node000037"><a xlink:title=" ">
<path fill="none" stroke="#63b8ff" d="M551.77,-186.77C557.25,-178.31 563.68,-168.38 569.35,-159.63"/>
<polygon fill="#63b8ff" stroke="#63b8ff" points="572.41,-161.33 574.91,-151.04 566.54,-157.53 572.41,-161.33"/>
</a>
</g>
</g>
<!-- Node39 -->
<g id="Node000039" class="node">
<title>Node39</title>
<g id="a_Node000039"><a xlink:title=" ">
<polygon fill="#e0e0e0" stroke="#999999" points="404.5,-151 297.5,-151 297.5,-121 404.5,-121 404.5,-151"/>
<text text-anchor="start" x="305.5" y="-139" font-family="Helvetica,sans-Serif" font-size="10.00">casadi/core/casadi</text>
<text text-anchor="middle" x="351" y="-128" font-family="Helvetica,sans-Serif" font-size="10.00">_types.hpp</text>
</a>
</g>
</g>
<!-- Node36&#45;&gt;Node39 -->
<g id="edge54_Node000036_Node000039" class="edge">
<title>Node36&#45;&gt;Node39</title>
<g id="a_edge54_Node000036_Node000039"><a xlink:title=" ">
<path fill="none" stroke="#63b8ff" d="M486.13,-186.96C458.56,-176.76 425.12,-164.4 398.4,-154.52"/>
<polygon fill="#63b8ff" stroke="#63b8ff" points="399.47,-151.19 388.88,-151 397.05,-157.75 399.47,-151.19"/>
</a>
</g>
</g>
<!-- Node40 -->
<g id="Node000040" class="node">
<title>Node40</title>
<g id="a_Node000040"><a xlink:title=" ">
<polygon fill="#e0e0e0" stroke="#999999" points="465,-145.5 423,-145.5 423,-126.5 465,-126.5 465,-145.5"/>
<text text-anchor="middle" x="444" y="-133.5" font-family="Helvetica,sans-Serif" font-size="10.00">array</text>
</a>
</g>
</g>
<!-- Node36&#45;&gt;Node40 -->
<g id="edge55_Node000036_Node000040" class="edge">
<title>Node36&#45;&gt;Node40</title>
<g id="a_edge55_Node000036_Node000040"><a xlink:title=" ">
<path fill="none" stroke="#63b8ff" d="M512.28,-186.96C496.98,-175.76 478.08,-161.94 464.05,-151.67"/>
<polygon fill="#63b8ff" stroke="#63b8ff" points="465.76,-148.58 455.62,-145.5 461.63,-154.23 465.76,-148.58"/>
</a>
</g>
</g>
<!-- Node37&#45;&gt;Node11 -->
<g id="edge52_Node000037_Node000011" class="edge">
<title>Node37&#45;&gt;Node11</title>
<g id="a_edge52_Node000037_Node000011"><a xlink:title=" ">
<path fill="none" stroke="#63b8ff" d="M599.25,-120.84C608.58,-112.17 620.53,-101.08 630.15,-92.15"/>
<polygon fill="#63b8ff" stroke="#63b8ff" points="632.61,-94.64 637.56,-85.27 627.85,-89.51 632.61,-94.64"/>
</a>
</g>
</g>
<!-- Node37&#45;&gt;Node28 -->
<g id="edge51_Node000037_Node000028" class="edge">
<title>Node37&#45;&gt;Node28</title>
<g id="a_edge51_Node000037_Node000028"><a xlink:title=" ">
<path fill="none" stroke="#63b8ff" d="M639.09,-120.99C679.3,-110.76 733.06,-97.09 770.32,-87.61"/>
<polygon fill="#63b8ff" stroke="#63b8ff" points="771.54,-90.91 780.37,-85.05 769.82,-84.13 771.54,-90.91"/>
</a>
</g>
</g>
<!-- Node38 -->
<g id="Node000038" class="node">
<title>Node38</title>
<g id="a_Node000038"><a xlink:title=" ">
<polygon fill="#e0e0e0" stroke="#999999" points="606.5,-85 549.5,-85 549.5,-66 606.5,-66 606.5,-85"/>
<text text-anchor="middle" x="578" y="-73" font-family="Helvetica,sans-Serif" font-size="10.00">typeinfo</text>
</a>
</g>
</g>
<!-- Node37&#45;&gt;Node38 -->
<g id="edge53_Node000037_Node000038" class="edge">
<title>Node37&#45;&gt;Node38</title>
<g id="a_edge53_Node000037_Node000038"><a xlink:title=" ">
<path fill="none" stroke="#63b8ff" d="M582.55,-120.84C581.77,-113.21 580.79,-103.7 579.94,-95.45"/>
<polygon fill="#63b8ff" stroke="#63b8ff" points="583.4,-94.86 578.9,-85.27 576.44,-95.57 583.4,-94.86"/>
</a>
</g>
</g>
</g>
</svg>

<g id="navigator" transform="translate(0 0)" fill="#404254">
  <rect fill="#f2f5e9" fill-opacity="0.5" stroke="#606060" stroke-width=".5" x="0" y="0" width="60" height="60"/>
  <use id="zoomplus" xlink:href="#zoomPlus" x="17" y="9" onmousedown="handleZoom(evt,'in')"/>
  <use id="zoomminus" xlink:href="#zoomMin" x="42" y="9" onmousedown="handleZoom(evt,'out')"/>
  <use id="reset" xlink:href="#resetDef" x="30" y="36" onmousedown="handleReset()"/>
   <use id="arrowup" xlink:href="#arrowUp" x="0" y="0" onmousedown="handlePan(0,-1)"/>
  <use id="arrowright" xlink:href="#arrowRight" x="0" y="0" onmousedown="handlePan(1,0)"/>
  <use id="arrowdown" xlink:href="#arrowDown" x="0" y="0" onmousedown="handlePan(0,1)"/>
  <use id="arrowleft" xlink:href="#arrowLeft" x="0" y="0" onmousedown="handlePan(-1,0)"/>
</g>
<svg viewBox="0 0 15 15" width="100%" height="30px" preserveAspectRatio="xMaxYMin meet">
 <g id="arrow_out" transform="scale(0.3 0.3)">
  <a xlink:href="CompleteCasADiProblem_8cpp__incl_org.svg" target="_base">
   <rect id="button" ry="5" rx="5" y="6" x="6" height="38" width="38"
        fill="#f2f5e9" fill-opacity="0.5" stroke="#606060" stroke-width="1.0"/>
   <path id="arrow"
     d="M 11.500037,31.436501 C 11.940474,20.09759 22.043105,11.32322 32.158766,21.979434 L 37.068811,17.246167 C 37.068811,17.246167 37.088388,32 37.088388,32 L 22.160133,31.978069 C 22.160133,31.978069 26.997745,27.140456 26.997745,27.140456 C 18.528582,18.264221 13.291696,25.230495 11.500037,31.436501 z"
     style="fill:#404040;"/>
  </a>
 </g>
</svg>

<style type='text/css'>
<![CDATA[
[data-mouse-over-selected='false'] { opacity: 0.7; }
[data-mouse-over-selected='true']  { opacity: 1.0; }
]]>
</style>
<script type="application/ecmascript"><![CDATA[
document.addEventListener('DOMContentLoaded', (event) => {
  highlightEdges();
  highlightAdjacentNodes();
});
]]></script>
</svg>
