<?xml version="1.0" encoding="UTF-8" standalone="no"?>
<!DOCTYPE svg PUBLIC "-//W3C//DTD SVG 1.1//EN"
 "http://www.w3.org/Graphics/SVG/1.1/DTD/svg11.dtd">
<!-- Generated by graphviz version 2.43.0 (0)
 -->
<!-- Title: split Pages: 1 -->
<svg width="287pt" height="150pt"
 viewBox="0.00 0.00 287.00 149.50" xmlns="http://www.w3.org/2000/svg" xmlns:xlink="http://www.w3.org/1999/xlink">
<g id="graph0" class="graph" transform="scale(1 1) rotate(0) translate(4 145.5)">
<title>split</title>
<!-- Node1 -->
<g id="Node000001" class="node">
<title>Node1</title>
<g id="a_Node000001"><a xlink:title="Split the string full on the first occurrence of tok.">
<polygon fill="#999999" stroke="#666666" points="279,-74 241,-74 241,-55 279,-55 279,-74"/>
<text text-anchor="middle" x="260" y="-62" font-family="Helvetica,sans-Serif" font-size="10.00">split</text>
</a>
</g>
</g>
<!-- Node2 -->
<g id="Node000002" class="node">
<title>Node2</title>
<g id="a_Node000002"><a xlink:href="namespacealpaqa_1_1params.html#a037370222e8d36556f0559d15f0a98bd" target="_top" xlink:title="Struct types.">
<polygon fill="white" stroke="#666666" points="198,-141.5 84,-141.5 84,-111.5 198,-111.5 198,-141.5"/>
<text text-anchor="start" x="92" y="-129.5" font-family="Helvetica,sans-Serif" font-size="10.00">alpaqa::params::get</text>
<text text-anchor="middle" x="141" y="-118.5" font-family="Helvetica,sans-Serif" font-size="10.00">_members</text>
</a>
</g>
</g>
<!-- Node1&#45;&gt;Node2 -->
<g id="edge1_Node000001_Node000002" class="edge">
<title>Node1&#45;&gt;Node2</title>
<g id="a_edge1_Node000001_Node000002"><a xlink:title=" ">
<path fill="none" stroke="#63b8ff" d="M239.14,-80.27C229.26,-87.64 216.9,-96.17 205,-102.5 198.9,-105.74 192.27,-108.76 185.67,-111.5"/>
<polygon fill="#63b8ff" stroke="#63b8ff" points="241.3,-83.02 247.12,-74.17 237.05,-77.46 241.3,-83.02"/>
</a>
</g>
</g>
<!-- Node3 -->
<g id="Node000003" class="node">
<title>Node3</title>
<g id="a_Node000003"><a xlink:href="param-complete_8cpp.html#a10fa41deecd7e55df92e83bb80bcdeff" target="_top" xlink:title=" ">
<polygon fill="white" stroke="#666666" points="200.5,-93 81.5,-93 81.5,-74 200.5,-74 200.5,-93"/>
<text text-anchor="middle" x="141" y="-81" font-family="Helvetica,sans-Serif" font-size="10.00">get_results_fista_like</text>
</a>
</g>
</g>
<!-- Node1&#45;&gt;Node3 -->
<g id="edge2_Node000001_Node000003" class="edge">
<title>Node1&#45;&gt;Node3</title>
<g id="a_edge2_Node000001_Node000003"><a xlink:title=" ">
<path fill="none" stroke="#63b8ff" d="M230.93,-69.06C221.76,-70.55 211.2,-72.26 200.64,-73.98"/>
<polygon fill="#63b8ff" stroke="#63b8ff" points="231.67,-72.48 240.98,-67.43 230.54,-65.58 231.67,-72.48"/>
</a>
</g>
</g>
<!-- Node4 -->
<g id="Node000004" class="node">
<title>Node4</title>
<g id="a_Node000004"><a xlink:href="param-complete_8cpp.html#a6ee2311c0d0e0ef40481118430c19f24" target="_top" xlink:title=" ">
<polygon fill="white" stroke="#666666" points="205,-56 77,-56 77,-37 205,-37 205,-56"/>
<text text-anchor="middle" x="141" y="-44" font-family="Helvetica,sans-Serif" font-size="10.00">get_results_panoc_like</text>
</a>
</g>
</g>
<!-- Node1&#45;&gt;Node4 -->
<g id="edge3_Node000001_Node000004" class="edge">
<title>Node1&#45;&gt;Node4</title>
<g id="a_edge3_Node000001_Node000004"><a xlink:title=" ">
<path fill="none" stroke="#63b8ff" d="M230.92,-60.18C222.72,-58.92 213.42,-57.49 203.99,-56.04"/>
<polygon fill="#63b8ff" stroke="#63b8ff" points="230.56,-63.67 240.98,-61.73 231.62,-56.75 230.56,-63.67"/>
</a>
</g>
</g>
<!-- Node5 -->
<g id="Node000005" class="node">
<title>Node5</title>
<g id="a_Node000005"><a xlink:href="param-complete_8cpp.html#ac4321d2b6dc1c99aced49f6b8de3f719" target="_top" xlink:title=" ">
<polygon fill="white" stroke="#666666" points="190.5,-19 91.5,-19 91.5,0 190.5,0 190.5,-19"/>
<text text-anchor="middle" x="141" y="-7" font-family="Helvetica,sans-Serif" font-size="10.00">print_completion</text>
</a>
</g>
</g>
<!-- Node1&#45;&gt;Node5 -->
<g id="edge4_Node000001_Node000005" class="edge">
<title>Node1&#45;&gt;Node5</title>
<g id="a_edge4_Node000001_Node000005"><a xlink:title=" ">
<path fill="none" stroke="#63b8ff" d="M238.53,-48.77C228.78,-41.83 216.7,-34.02 205,-28.5 197.25,-24.85 188.63,-21.7 180.32,-19.08"/>
<polygon fill="#63b8ff" stroke="#63b8ff" points="236.62,-51.71 246.76,-54.8 240.76,-46.06 236.62,-51.71"/>
</a>
</g>
</g>
<!-- Node6 -->
<g id="Node000006" class="node">
<title>Node6</title>
<g id="a_Node000006"><a xlink:href="alpaqa-driver_8cpp.html#ac0f2228420376f4db7e1274f2b41667c" target="_top" xlink:title=" ">
<polygon fill="white" stroke="#666666" points="41,-19 0,-19 0,0 41,0 41,-19"/>
<text text-anchor="middle" x="20.5" y="-7" font-family="Helvetica,sans-Serif" font-size="10.00">main</text>
</a>
</g>
</g>
<!-- Node5&#45;&gt;Node6 -->
<g id="edge5_Node000005_Node000006" class="edge">
<title>Node5&#45;&gt;Node6</title>
<g id="a_edge5_Node000005_Node000006"><a xlink:title=" ">
<path fill="none" stroke="#63b8ff" d="M81.44,-9.5C66.9,-9.5 52.29,-9.5 41.14,-9.5"/>
<polygon fill="#63b8ff" stroke="#63b8ff" points="81.46,-13 91.46,-9.5 81.46,-6 81.46,-13"/>
</a>
</g>
</g>
</g>
</svg>
