<?xml version="1.0" encoding="UTF-8" standalone="no"?>
<!DOCTYPE svg PUBLIC "-//W3C//DTD SVG 1.1//EN"
 "http://www.w3.org/Graphics/SVG/1.1/DTD/svg11.dtd">
<!-- Generated by graphviz version 2.43.0 (0)
 -->
<!-- Title: make_pantr_like_solver Pages: 1 -->
<svg width="1773pt" height="360pt"
 viewBox="0.00 0.00 1773.00 360.00" xmlns="http://www.w3.org/2000/svg" xmlns:xlink="http://www.w3.org/1999/xlink">
<g id="graph0" class="graph" transform="scale(1 1) rotate(0) translate(4 356)">
<title>make_pantr_like_solver</title>
<!-- Node1 -->
<g id="Node000001" class="node">
<title>Node1</title>
<g id="a_Node000001"><a xlink:title=" ">
<polygon fill="#999999" stroke="#666666" points="132,-276 0,-276 0,-257 132,-257 132,-276"/>
<text text-anchor="middle" x="66" y="-264" font-family="Helvetica,sans-Serif" font-size="10.00">make_pantr_like_solver</text>
</a>
</g>
</g>
<!-- Node2 -->
<g id="Node000002" class="node">
<title>Node2</title>
<g id="a_Node000002"><a xlink:href="namespacealpaqa.html#aab07e5e969c7c3cb284b49f5b7931bf3" target="_top" xlink:title="Attach SIGINT and SIGTERM handlers to stop the given solver.">
<polygon fill="white" stroke="#666666" points="319,-352 168,-352 168,-333 319,-333 319,-352"/>
<text text-anchor="middle" x="243.5" y="-340" font-family="Helvetica,sans-Serif" font-size="10.00">alpaqa::attach_cancellation</text>
</a>
</g>
</g>
<!-- Node1&#45;&gt;Node2 -->
<g id="edge1_Node000001_Node000002" class="edge">
<title>Node1&#45;&gt;Node2</title>
<g id="a_edge1_Node000001_Node000002"><a xlink:title=" ">
<path fill="none" stroke="#63b8ff" d="M83.4,-276.01C103.06,-287.15 137.22,-305.72 168,-318.5 177.89,-322.61 188.75,-326.46 199.05,-329.83"/>
<polygon fill="#63b8ff" stroke="#63b8ff" points="198.11,-333.2 208.7,-332.9 200.23,-326.53 198.11,-333.2"/>
</a>
</g>
</g>
<!-- Node3 -->
<g id="Node000003" class="node">
<title>Node3</title>
<g id="a_Node000003"><a xlink:href="namespacealpaqa_1_1util.html#aa93b2039064bcb3304233064c0485c9b" target="_top" xlink:title="Join the list of strings into a single string, using the separator given by opt.">
<polygon fill="white" stroke="#666666" points="1761,-278 1666,-278 1666,-259 1761,-259 1761,-278"/>
<text text-anchor="middle" x="1713.5" y="-266" font-family="Helvetica,sans-Serif" font-size="10.00">alpaqa::util::join</text>
</a>
</g>
</g>
<!-- Node1&#45;&gt;Node3 -->
<g id="edge2_Node000001_Node000003" class="edge">
<title>Node1&#45;&gt;Node3</title>
<g id="a_edge2_Node000001_Node000003"><a xlink:title=" ">
<path fill="none" stroke="#63b8ff" d="M111.57,-276.01C129.09,-279.46 149.42,-283.09 168,-285.5 283.78,-300.54 313.25,-304.5 430,-304.5 430,-304.5 430,-304.5 1402,-304.5 1491.19,-304.5 1593.83,-289.66 1655.9,-279.04"/>
<polygon fill="#63b8ff" stroke="#63b8ff" points="1656.62,-282.47 1665.88,-277.31 1655.43,-275.57 1656.62,-282.47"/>
</a>
</g>
</g>
<!-- Node4 -->
<g id="Node000004" class="node">
<title>Node4</title>
<g id="a_Node000004"><a xlink:href="alm-driver_8hpp.html#ae4ef291d9ec9d55ee804b5723ea2e641" target="_top" xlink:title=" ">
<polygon fill="white" stroke="#666666" points="295,-276 192,-276 192,-257 295,-257 295,-276"/>
<text text-anchor="middle" x="243.5" y="-264" font-family="Helvetica,sans-Serif" font-size="10.00">make_alm_solver</text>
</a>
</g>
</g>
<!-- Node1&#45;&gt;Node4 -->
<g id="edge3_Node000001_Node000004" class="edge">
<title>Node1&#45;&gt;Node4</title>
<g id="a_edge3_Node000001_Node000004"><a xlink:title=" ">
<path fill="none" stroke="#63b8ff" d="M132.35,-266.5C148.5,-266.5 165.73,-266.5 181.66,-266.5"/>
<polygon fill="#63b8ff" stroke="#63b8ff" points="181.91,-270 191.91,-266.5 181.91,-263 181.91,-270"/>
</a>
</g>
</g>
<!-- Node5 -->
<g id="Node000005" class="node">
<title>Node5</title>
<g id="a_Node000005"><a xlink:href="options_8hpp.html#a91fca5414dbe50bec5104c59d9ebda11" target="_top" xlink:title=" ">
<polygon fill="white" stroke="#666666" points="468,-238 394,-238 394,-219 468,-219 468,-238"/>
<text text-anchor="middle" x="431" y="-226" font-family="Helvetica,sans-Serif" font-size="10.00">set_params</text>
</a>
</g>
</g>
<!-- Node1&#45;&gt;Node5 -->
<g id="edge27_Node000001_Node000005" class="edge">
<title>Node1&#45;&gt;Node5</title>
<g id="a_edge27_Node000001_Node000005"><a xlink:title=" ">
<path fill="none" stroke="#63b8ff" d="M114.63,-257C131.44,-253.92 150.51,-250.72 168,-248.5 243.31,-238.94 331.41,-233.36 383.86,-230.62"/>
<polygon fill="#63b8ff" stroke="#63b8ff" points="384.05,-234.12 393.86,-230.11 383.7,-227.13 384.05,-234.12"/>
</a>
</g>
</g>
<!-- Node23 -->
<g id="Node000023" class="node">
<title>Node23</title>
<g id="a_Node000023"><a xlink:href="alm-driver_8hpp.html#aa7ce176e5df1fd415e66c420646cf10d" target="_top" xlink:title=" ">
<polygon fill="white" stroke="#666666" points="289.5,-200 197.5,-200 197.5,-181 289.5,-181 289.5,-200"/>
<text text-anchor="middle" x="243.5" y="-188" font-family="Helvetica,sans-Serif" font-size="10.00">run_alm_solver</text>
</a>
</g>
</g>
<!-- Node1&#45;&gt;Node23 -->
<g id="edge24_Node000001_Node000023" class="edge">
<title>Node1&#45;&gt;Node23</title>
<g id="a_edge24_Node000001_Node000023"><a xlink:title=" ">
<path fill="none" stroke="#63b8ff" d="M83.4,-256.99C103.06,-245.85 137.22,-227.28 168,-214.5 177.89,-210.39 188.75,-206.54 199.05,-203.17"/>
<polygon fill="#63b8ff" stroke="#63b8ff" points="200.23,-206.47 208.7,-200.1 198.11,-199.8 200.23,-206.47"/>
</a>
</g>
</g>
<!-- Node4&#45;&gt;Node5 -->
<g id="edge4_Node000004_Node000005" class="edge">
<title>Node4&#45;&gt;Node5</title>
<g id="a_edge4_Node000004_Node000005"><a xlink:title=" ">
<path fill="none" stroke="#63b8ff" d="M291.31,-256.91C319.6,-251.11 355.53,-243.76 383.73,-237.98"/>
<polygon fill="#63b8ff" stroke="#63b8ff" points="384.64,-241.36 393.74,-235.93 383.24,-234.51 384.64,-241.36"/>
</a>
</g>
</g>
<!-- Node6 -->
<g id="Node000006" class="node">
<title>Node6</title>
<g id="a_Node000006"><a xlink:href="classOptions.html#a8ca2e3915e8acf3cd04e02180e66e9ab" target="_top" xlink:title=" ">
<polygon fill="white" stroke="#666666" points="660,-162 543,-162 543,-143 660,-143 660,-162"/>
<text text-anchor="middle" x="601.5" y="-150" font-family="Helvetica,sans-Serif" font-size="10.00">Options::set_params</text>
</a>
</g>
</g>
<!-- Node5&#45;&gt;Node6 -->
<g id="edge5_Node000005_Node000006" class="edge">
<title>Node5&#45;&gt;Node6</title>
<g id="a_edge5_Node000005_Node000006"><a xlink:title=" ">
<path fill="none" stroke="#63b8ff" d="M468.19,-221.64C480.75,-218.66 494.74,-214.65 507,-209.5 533.36,-198.42 561.02,-180.69 579.35,-167.94"/>
<polygon fill="#63b8ff" stroke="#63b8ff" points="581.41,-170.77 587.55,-162.14 577.37,-165.06 581.41,-170.77"/>
</a>
</g>
</g>
<!-- Node7 -->
<g id="Node000007" class="node">
<title>Node7</title>
<g id="a_Node000007"><a xlink:href="namespacealpaqa_1_1params.html#a1f2f7590328c20e04138a91eee5e0e98" target="_top" xlink:title="Get the first argument as a JSON object j.">
<polygon fill="white" stroke="#666666" points="810,-276.5 696,-276.5 696,-246.5 810,-246.5 810,-276.5"/>
<text text-anchor="start" x="704" y="-264.5" font-family="Helvetica,sans-Serif" font-size="10.00">alpaqa::params::get</text>
<text text-anchor="middle" x="753" y="-253.5" font-family="Helvetica,sans-Serif" font-size="10.00">_param</text>
</a>
</g>
</g>
<!-- Node6&#45;&gt;Node7 -->
<g id="edge6_Node000006_Node000007" class="edge">
<title>Node6&#45;&gt;Node7</title>
<g id="a_edge6_Node000006_Node000007"><a xlink:title=" ">
<path fill="none" stroke="#63b8ff" d="M610.95,-162.04C626.42,-179.06 660.94,-214.96 696,-237.5 698.3,-238.98 700.7,-240.4 703.17,-241.77"/>
<polygon fill="#63b8ff" stroke="#63b8ff" points="701.79,-244.99 712.29,-246.45 704.99,-238.77 701.79,-244.99"/>
</a>
</g>
</g>
<!-- Node10 -->
<g id="Node000010" class="node">
<title>Node10</title>
<g id="a_Node000010"><a xlink:href="namespacealpaqa_1_1util.html#a381655901120dbb2a07cec1df230595e" target="_top" xlink:title="Join the list of strings into a single string, using the separator given by opt.">
<polygon fill="white" stroke="#666666" points="800.5,-228.5 705.5,-228.5 705.5,-198.5 800.5,-198.5 800.5,-228.5"/>
<text text-anchor="start" x="713.5" y="-216.5" font-family="Helvetica,sans-Serif" font-size="10.00">alpaqa::util::join</text>
<text text-anchor="middle" x="753" y="-205.5" font-family="Helvetica,sans-Serif" font-size="10.00">_quote</text>
</a>
</g>
</g>
<!-- Node6&#45;&gt;Node10 -->
<g id="edge9_Node000006_Node000010" class="edge">
<title>Node6&#45;&gt;Node10</title>
<g id="a_edge9_Node000006_Node000010"><a xlink:title=" ">
<path fill="none" stroke="#63b8ff" d="M625.86,-162.03C647.14,-170.72 679.2,-183.8 705.67,-194.6"/>
<polygon fill="#63b8ff" stroke="#63b8ff" points="704.56,-197.92 715.14,-198.46 707.2,-191.44 704.56,-197.92"/>
</a>
</g>
</g>
<!-- Node11 -->
<g id="Node000011" class="node">
<title>Node11</title>
<g id="a_Node000011"><a xlink:href="classOptions.html#a32a1a00438ef83609a2ecf66d9e77056" target="_top" xlink:title=" ">
<polygon fill="white" stroke="#666666" points="807.5,-180 698.5,-180 698.5,-161 807.5,-161 807.5,-180"/>
<text text-anchor="middle" x="753" y="-168" font-family="Helvetica,sans-Serif" font-size="10.00">Options::json_flags</text>
</a>
</g>
</g>
<!-- Node6&#45;&gt;Node11 -->
<g id="edge10_Node000006_Node000011" class="edge">
<title>Node6&#45;&gt;Node11</title>
<g id="a_edge10_Node000006_Node000011"><a xlink:title=" ">
<path fill="none" stroke="#63b8ff" d="M660.3,-159.46C669.47,-160.56 679,-161.71 688.3,-162.83"/>
<polygon fill="#63b8ff" stroke="#63b8ff" points="687.92,-166.31 698.27,-164.03 688.76,-159.36 687.92,-166.31"/>
</a>
</g>
</g>
<!-- Node12 -->
<g id="Node000012" class="node">
<title>Node12</title>
<g id="a_Node000012"><a xlink:href="classOptions.html#a502ee531f4e5cdc1c8dd78e9409a4e8e" target="_top" xlink:title=" ">
<polygon fill="white" stroke="#666666" points="801,-143 705,-143 705,-124 801,-124 801,-143"/>
<text text-anchor="middle" x="753" y="-131" font-family="Helvetica,sans-Serif" font-size="10.00">Options::options</text>
</a>
</g>
</g>
<!-- Node6&#45;&gt;Node12 -->
<g id="edge11_Node000006_Node000012" class="edge">
<title>Node6&#45;&gt;Node12</title>
<g id="a_edge11_Node000006_Node000012"><a xlink:title=" ">
<path fill="none" stroke="#63b8ff" d="M660.3,-145.15C671.62,-143.71 683.5,-142.21 694.8,-140.77"/>
<polygon fill="#63b8ff" stroke="#63b8ff" points="695.51,-144.21 704.99,-139.47 694.63,-137.26 695.51,-144.21"/>
</a>
</g>
</g>
<!-- Node13 -->
<g id="Node000013" class="node">
<title>Node13</title>
<g id="a_Node000013"><a xlink:href="namespacealpaqa_1_1params.html#ab8eefa468e61c2fa2c0e5349c1b3ef12" target="_top" xlink:title="Update/overwrite the first argument based on the JSON object j.">
<polygon fill="white" stroke="#666666" points="973.5,-110.5 860.5,-110.5 860.5,-80.5 973.5,-80.5 973.5,-110.5"/>
<text text-anchor="start" x="868.5" y="-98.5" font-family="Helvetica,sans-Serif" font-size="10.00">alpaqa::params::set</text>
<text text-anchor="middle" x="917" y="-87.5" font-family="Helvetica,sans-Serif" font-size="10.00">_param</text>
</a>
</g>
</g>
<!-- Node6&#45;&gt;Node13 -->
<g id="edge12_Node000006_Node000013" class="edge">
<title>Node6&#45;&gt;Node13</title>
<g id="a_edge12_Node000006_Node000013"><a xlink:title=" ">
<path fill="none" stroke="#63b8ff" d="M621.28,-142.9C639.78,-133.93 669.08,-120.98 696,-114.5 746.83,-102.27 805.94,-97.68 850.08,-96.06"/>
<polygon fill="#63b8ff" stroke="#63b8ff" points="850.23,-99.56 860.11,-95.73 850,-92.56 850.23,-99.56"/>
</a>
</g>
</g>
<!-- Node20 -->
<g id="Node000020" class="node">
<title>Node20</title>
<g id="a_Node000020"><a xlink:href="namespacealpaqa_1_1params.html#abadc98653193fbd05b658d62b34f75e7" target="_top" xlink:title="Overwrites t based on the options that start with prefix.">
<polygon fill="white" stroke="#666666" points="809.5,-67.5 696.5,-67.5 696.5,-37.5 809.5,-37.5 809.5,-67.5"/>
<text text-anchor="start" x="704.5" y="-55.5" font-family="Helvetica,sans-Serif" font-size="10.00">alpaqa::params::set</text>
<text text-anchor="middle" x="753" y="-44.5" font-family="Helvetica,sans-Serif" font-size="10.00">_params</text>
</a>
</g>
</g>
<!-- Node6&#45;&gt;Node20 -->
<g id="edge20_Node000006_Node000020" class="edge">
<title>Node6&#45;&gt;Node20</title>
<g id="a_edge20_Node000006_Node000020"><a xlink:title=" ">
<path fill="none" stroke="#63b8ff" d="M613.84,-142.86C630.99,-128.54 664.81,-101.21 696,-81.5 700.98,-78.35 706.34,-75.25 711.7,-72.3"/>
<polygon fill="#63b8ff" stroke="#63b8ff" points="713.48,-75.32 720.66,-67.53 710.19,-69.14 713.48,-75.32"/>
</a>
</g>
</g>
<!-- Node22 -->
<g id="Node000022" class="node">
<title>Node22</title>
<g id="a_Node000022"><a xlink:href="classOptions.html#a12df8f934f6bafb37bf4e64529917d06" target="_top" xlink:title=" ">
<polygon fill="white" stroke="#666666" points="794.5,-19 711.5,-19 711.5,0 794.5,0 794.5,-19"/>
<text text-anchor="middle" x="753" y="-7" font-family="Helvetica,sans-Serif" font-size="10.00">Options::used</text>
</a>
</g>
</g>
<!-- Node6&#45;&gt;Node22 -->
<g id="edge23_Node000006_Node000022" class="edge">
<title>Node6&#45;&gt;Node22</title>
<g id="a_edge23_Node000006_Node000022"><a xlink:title=" ">
<path fill="none" stroke="#63b8ff" d="M607.16,-142.88C618.84,-119.75 651.64,-60.56 696,-28.5 698.66,-26.58 701.53,-24.84 704.52,-23.26"/>
<polygon fill="#63b8ff" stroke="#63b8ff" points="706.11,-26.39 713.74,-19.04 703.19,-20.02 706.11,-26.39"/>
</a>
</g>
</g>
<!-- Node8 -->
<g id="Node000008" class="node">
<title>Node8</title>
<g id="a_Node000008"><a xlink:href="namespacealpaqa_1_1params.html#a2ed398728f87219847d2db047fa70195" target="_top" xlink:title=" ">
<polygon fill="white" stroke="#666666" points="974,-276.5 860,-276.5 860,-246.5 974,-246.5 974,-276.5"/>
<text text-anchor="start" x="868" y="-264.5" font-family="Helvetica,sans-Serif" font-size="10.00">alpaqa::params::get</text>
<text text-anchor="middle" x="917" y="-253.5" font-family="Helvetica,sans-Serif" font-size="10.00">_param_default</text>
</a>
</g>
</g>
<!-- Node7&#45;&gt;Node8 -->
<g id="edge7_Node000007_Node000008" class="edge">
<title>Node7&#45;&gt;Node8</title>
<g id="a_edge7_Node000007_Node000008"><a xlink:title=" ">
<path fill="none" stroke="#63b8ff" d="M810.21,-261.5C822.9,-261.5 836.49,-261.5 849.55,-261.5"/>
<polygon fill="#63b8ff" stroke="#63b8ff" points="849.89,-265 859.89,-261.5 849.89,-258 849.89,-265"/>
</a>
</g>
</g>
<!-- Node9 -->
<g id="Node000009" class="node">
<title>Node9</title>
<g id="a_Node000009"><a xlink:href="namespacealpaqa.html#ad0c64aea84b4b70c07be417122dd8e3f" target="_top" xlink:title=" ">
<polygon fill="white" stroke="#666666" points="1140,-271 1024,-271 1024,-252 1140,-252 1140,-271"/>
<text text-anchor="middle" x="1082" y="-259" font-family="Helvetica,sans-Serif" font-size="10.00">alpaqa::enum_name</text>
</a>
</g>
</g>
<!-- Node8&#45;&gt;Node9 -->
<g id="edge8_Node000008_Node000009" class="edge">
<title>Node8&#45;&gt;Node9</title>
<g id="a_edge8_Node000008_Node000009"><a xlink:title=" ">
<path fill="none" stroke="#63b8ff" d="M974.1,-261.5C986.94,-261.5 1000.71,-261.5 1013.97,-261.5"/>
<polygon fill="#63b8ff" stroke="#63b8ff" points="1013.97,-265 1023.97,-261.5 1013.97,-258 1013.97,-265"/>
</a>
</g>
</g>
<!-- Node14 -->
<g id="Node000014" class="node">
<title>Node14</title>
<g id="a_Node000014"><a xlink:href="namespacealpaqa_1_1params.html#a39fab1bdf1cebbc5e1574eac16a9af53" target="_top" xlink:title=" ">
<polygon fill="white" stroke="#666666" points="1138.5,-172.5 1025.5,-172.5 1025.5,-142.5 1138.5,-142.5 1138.5,-172.5"/>
<text text-anchor="start" x="1033.5" y="-160.5" font-family="Helvetica,sans-Serif" font-size="10.00">alpaqa::params::set</text>
<text text-anchor="middle" x="1082" y="-149.5" font-family="Helvetica,sans-Serif" font-size="10.00">_param_default</text>
</a>
</g>
</g>
<!-- Node13&#45;&gt;Node14 -->
<g id="edge13_Node000013_Node000014" class="edge">
<title>Node13&#45;&gt;Node14</title>
<g id="a_edge13_Node000013_Node000014"><a xlink:title=" ">
<path fill="none" stroke="#63b8ff" d="M957.46,-110.51C979.82,-119.01 1007.99,-129.73 1031.78,-138.78"/>
<polygon fill="#63b8ff" stroke="#63b8ff" points="1030.75,-142.13 1041.34,-142.41 1033.24,-135.59 1030.75,-142.13"/>
</a>
</g>
</g>
<!-- Node15 -->
<g id="Node000015" class="node">
<title>Node15</title>
<g id="a_Node000015"><a xlink:href="demangled-typename_8cpp.html#a994032931a27ca4de5eea3f786057b17" target="_top" xlink:title="Get the pretty name of the given type as a string.">
<polygon fill="white" stroke="#666666" points="1302,-210 1176,-210 1176,-191 1302,-191 1302,-210"/>
<text text-anchor="middle" x="1239" y="-198" font-family="Helvetica,sans-Serif" font-size="10.00">demangled_typename</text>
</a>
</g>
</g>
<!-- Node14&#45;&gt;Node15 -->
<g id="edge14_Node000014_Node000015" class="edge">
<title>Node14&#45;&gt;Node15</title>
<g id="a_edge14_Node000014_Node000015"><a xlink:title=" ">
<path fill="none" stroke="#63b8ff" d="M1137.21,-172.54C1155.6,-177.64 1175.92,-183.28 1193.47,-188.15"/>
<polygon fill="#63b8ff" stroke="#63b8ff" points="1192.87,-191.61 1203.44,-190.91 1194.74,-184.87 1192.87,-191.61"/>
</a>
</g>
</g>
<!-- Node16 -->
<g id="Node000016" class="node">
<title>Node16</title>
<g id="a_Node000016"><a xlink:href="namespacealpaqa_1_1params_1_1detail.html#a13c61ce864494c3fe91b86bf8ffda476" target="_top" xlink:title=" ">
<polygon fill="white" stroke="#666666" points="1302,-172.5 1176,-172.5 1176,-142.5 1302,-142.5 1302,-172.5"/>
<text text-anchor="start" x="1184" y="-160.5" font-family="Helvetica,sans-Serif" font-size="10.00">alpaqa::params::detail</text>
<text text-anchor="middle" x="1239" y="-149.5" font-family="Helvetica,sans-Serif" font-size="10.00">::set_param_json</text>
</a>
</g>
</g>
<!-- Node14&#45;&gt;Node16 -->
<g id="edge15_Node000014_Node000016" class="edge">
<title>Node14&#45;&gt;Node16</title>
<g id="a_edge15_Node000014_Node000016"><a xlink:title=" ">
<path fill="none" stroke="#63b8ff" d="M1138.52,-157.5C1147.29,-157.5 1156.48,-157.5 1165.57,-157.5"/>
<polygon fill="#63b8ff" stroke="#63b8ff" points="1165.76,-161 1175.76,-157.5 1165.76,-154 1165.76,-161"/>
</a>
</g>
</g>
<!-- Node17 -->
<g id="Node000017" class="node">
<title>Node17</title>
<g id="a_Node000017"><a xlink:href="namespacealpaqa_1_1params_1_1detail.html#a5eef50360de8527b24463d00629819f8" target="_top" xlink:title=" ">
<polygon fill="white" stroke="#666666" points="1464,-208.5 1338,-208.5 1338,-178.5 1464,-178.5 1464,-208.5"/>
<text text-anchor="start" x="1346" y="-196.5" font-family="Helvetica,sans-Serif" font-size="10.00">alpaqa::params::detail</text>
<text text-anchor="middle" x="1401" y="-185.5" font-family="Helvetica,sans-Serif" font-size="10.00">::find_param_or_throw</text>
</a>
</g>
</g>
<!-- Node16&#45;&gt;Node17 -->
<g id="edge16_Node000016_Node000017" class="edge">
<title>Node16&#45;&gt;Node17</title>
<g id="a_edge16_Node000016_Node000017"><a xlink:title=" ">
<path fill="none" stroke="#63b8ff" d="M1302.32,-171.52C1310.71,-173.41 1319.37,-175.36 1327.91,-177.28"/>
<polygon fill="#63b8ff" stroke="#63b8ff" points="1327.33,-180.74 1337.85,-179.52 1328.86,-173.91 1327.33,-180.74"/>
</a>
</g>
</g>
<!-- Node18 -->
<g id="Node000018" class="node">
<title>Node18</title>
<g id="a_Node000018"><a xlink:href="namespacealpaqa_1_1params_1_1detail.html#a6aa41a8827ffd36b3e2a8e7346a44f19" target="_top" xlink:title=" ">
<polygon fill="white" stroke="#666666" points="1626,-229.5 1500,-229.5 1500,-199.5 1626,-199.5 1626,-229.5"/>
<text text-anchor="start" x="1508" y="-217.5" font-family="Helvetica,sans-Serif" font-size="10.00">alpaqa::params::detail</text>
<text text-anchor="middle" x="1563" y="-206.5" font-family="Helvetica,sans-Serif" font-size="10.00">::join_sorted_keys</text>
</a>
</g>
</g>
<!-- Node17&#45;&gt;Node18 -->
<g id="edge17_Node000017_Node000018" class="edge">
<title>Node17&#45;&gt;Node18</title>
<g id="a_edge17_Node000017_Node000018"><a xlink:title=" ">
<path fill="none" stroke="#63b8ff" d="M1464.32,-201.68C1472.71,-202.78 1481.37,-203.92 1489.91,-205.04"/>
<polygon fill="#63b8ff" stroke="#63b8ff" points="1489.48,-208.51 1499.85,-206.34 1490.39,-201.57 1489.48,-208.51"/>
</a>
</g>
</g>
<!-- Node18&#45;&gt;Node3 -->
<g id="edge18_Node000018_Node000003" class="edge">
<title>Node18&#45;&gt;Node3</title>
<g id="a_edge18_Node000018_Node000003"><a xlink:title=" ">
<path fill="none" stroke="#63b8ff" d="M1605.37,-229.54C1627.84,-237.71 1655.35,-247.72 1676.87,-255.54"/>
<polygon fill="#63b8ff" stroke="#63b8ff" points="1675.7,-258.84 1686.3,-258.97 1678.09,-252.26 1675.7,-258.84"/>
</a>
</g>
</g>
<!-- Node19 -->
<g id="Node000019" class="node">
<title>Node19</title>
<g id="a_Node000019"><a xlink:href="namespacealpaqa_1_1util.html#ab38ac790b4155e7631dfb11d7dfff1c3" target="_top" xlink:title="Sort the given range of strings in&#45;place in a case&#45;insensitive manner.">
<polygon fill="white" stroke="#666666" points="1765,-229.5 1662,-229.5 1662,-199.5 1765,-199.5 1765,-229.5"/>
<text text-anchor="start" x="1670" y="-217.5" font-family="Helvetica,sans-Serif" font-size="10.00">alpaqa::util::sort</text>
<text text-anchor="middle" x="1713.5" y="-206.5" font-family="Helvetica,sans-Serif" font-size="10.00">_case_insensitive</text>
</a>
</g>
</g>
<!-- Node18&#45;&gt;Node19 -->
<g id="edge19_Node000018_Node000019" class="edge">
<title>Node18&#45;&gt;Node19</title>
<g id="a_edge19_Node000018_Node000019"><a xlink:title=" ">
<path fill="none" stroke="#63b8ff" d="M1626.12,-214.5C1634.59,-214.5 1643.28,-214.5 1651.74,-214.5"/>
<polygon fill="#63b8ff" stroke="#63b8ff" points="1651.89,-218 1661.89,-214.5 1651.89,-211 1651.89,-218"/>
</a>
</g>
</g>
<!-- Node20&#45;&gt;Node13 -->
<g id="edge21_Node000020_Node000013" class="edge">
<title>Node20&#45;&gt;Node13</title>
<g id="a_edge21_Node000020_Node000013"><a xlink:title=" ">
<path fill="none" stroke="#63b8ff" d="M809.75,-67.3C822.93,-70.8 837.11,-74.56 850.67,-78.16"/>
<polygon fill="#63b8ff" stroke="#63b8ff" points="849.86,-81.56 860.42,-80.75 851.65,-74.8 849.86,-81.56"/>
</a>
</g>
</g>
<!-- Node21 -->
<g id="Node000021" class="node">
<title>Node21</title>
<g id="a_Node000021"><a xlink:href="namespacealpaqa_1_1params.html#aa3666becfea1ef2eb24d83f592c123e9" target="_top" xlink:title="Split the string full on the first occurrence of tok.">
<polygon fill="white" stroke="#666666" points="988,-62 846,-62 846,-43 988,-43 988,-62"/>
<text text-anchor="middle" x="917" y="-50" font-family="Helvetica,sans-Serif" font-size="10.00">alpaqa::params::split_key</text>
</a>
</g>
</g>
<!-- Node20&#45;&gt;Node21 -->
<g id="edge22_Node000020_Node000021" class="edge">
<title>Node20&#45;&gt;Node21</title>
<g id="a_edge22_Node000020_Node000021"><a xlink:title=" ">
<path fill="none" stroke="#63b8ff" d="M809.75,-52.5C818.11,-52.5 826.86,-52.5 835.6,-52.5"/>
<polygon fill="#63b8ff" stroke="#63b8ff" points="835.84,-56 845.84,-52.5 835.84,-49 835.84,-56"/>
</a>
</g>
</g>
<!-- Node24 -->
<g id="Node000024" class="node">
<title>Node24</title>
<g id="a_Node000024"><a xlink:href="ipopt-enums_8hpp.html#a78dc4442f5ab598a9c86a57e0c067f98" target="_top" xlink:title=" ">
<polygon fill="white" stroke="#666666" points="469.5,-201 392.5,-201 392.5,-182 469.5,-182 469.5,-201"/>
<text text-anchor="middle" x="431" y="-189" font-family="Helvetica,sans-Serif" font-size="10.00">enum_name</text>
</a>
</g>
</g>
<!-- Node23&#45;&gt;Node24 -->
<g id="edge25_Node000023_Node000024" class="edge">
<title>Node23&#45;&gt;Node24</title>
<g id="a_edge25_Node000023_Node000024"><a xlink:title=" ">
<path fill="none" stroke="#63b8ff" d="M289.88,-190.74C317.87,-190.9 353.73,-191.09 382.16,-191.24"/>
<polygon fill="#63b8ff" stroke="#63b8ff" points="382.25,-194.74 392.27,-191.3 382.29,-187.74 382.25,-194.74"/>
</a>
</g>
</g>
<!-- Node25 -->
<g id="Node000025" class="node">
<title>Node25</title>
<g id="a_Node000025"><a xlink:href="classalpaqa_1_1TypeErasedProblem.html#a4cb358cffb880a83ec60933c6d44cef4" target="_top" xlink:title="[Required] Number of constraints.">
<polygon fill="white" stroke="#666666" points="507,-163.5 355,-163.5 355,-133.5 507,-133.5 507,-163.5"/>
<text text-anchor="start" x="363" y="-151.5" font-family="Helvetica,sans-Serif" font-size="10.00">alpaqa::TypeErasedProblem</text>
<text text-anchor="middle" x="431" y="-140.5" font-family="Helvetica,sans-Serif" font-size="10.00">::get_m</text>
</a>
</g>
</g>
<!-- Node23&#45;&gt;Node25 -->
<g id="edge26_Node000023_Node000025" class="edge">
<title>Node23&#45;&gt;Node25</title>
<g id="a_edge26_Node000023_Node000025"><a xlink:title=" ">
<path fill="none" stroke="#63b8ff" d="M286.59,-180.97C306.52,-176.46 330.94,-170.93 353.94,-165.72"/>
<polygon fill="#63b8ff" stroke="#63b8ff" points="354.72,-169.13 363.7,-163.51 353.17,-162.31 354.72,-169.13"/>
</a>
</g>
</g>
</g>
</svg>
