<?xml version="1.0" encoding="UTF-8" standalone="no"?>
<!DOCTYPE svg PUBLIC "-//W3C//DTD SVG 1.1//EN"
 "http://www.w3.org/Graphics/SVG/1.1/DTD/svg11.dtd">
<!-- Generated by graphviz version 2.43.0 (0)
 -->
<!-- Title: initialize Pages: 1 -->
<svg width="255pt" height="230pt"
 viewBox="0.00 0.00 255.00 230.00" xmlns="http://www.w3.org/2000/svg" xmlns:xlink="http://www.w3.org/1999/xlink">

<svg id="main" version="1.1" xmlns="http://www.w3.org/2000/svg" xmlns:xlink="http://www.w3.org/1999/xlink" xml:space="preserve" onload="init(evt)">
<style type="text/css"><![CDATA[
.node, .edge {opacity: 0.7;}
.node.selected, .edge.selected {opacity: 1;}
.edge:hover path { stroke: red; }
.edge:hover polygon { stroke: red; fill: red; }
]]></style>
<script type="application/ecmascript" xlink:href="svg.min.js"/>
<svg id="graph" class="graph">
<g id="graph0" class="graph" transform="scale(1 1) rotate(0) translate(4 226)">
<title>initialize</title>
<!-- Node1 -->
<g id="Node000001" class="node">
<title>Node1</title>
<g id="a_Node000001"><a xlink:title=" ">
<polygon fill="#999999" stroke="#666666" points="59,-120.5 0,-120.5 0,-101.5 59,-101.5 59,-120.5"/>
<text text-anchor="middle" x="29.5" y="-108.5" font-family="Helvetica,sans-Serif" font-size="10.00">initialize</text>
</a>
</g>
</g>
<!-- Node2 -->
<g id="Node000002" class="node">
<title>Node2</title>
<g id="a_Node000002"><a xlink:href="classalpaqa_1_1TypeErasedProblem.html#a37c7d4b0b4e437f4834d17243eb21ab6" target="_top" xlink:title="[Optional] Function that returns (a view of) the sparsity pattern of the Hessian of the augmented Lag...">
<polygon fill="white" stroke="#666666" points="247,-222 95,-222 95,-192 247,-192 247,-222"/>
<text text-anchor="start" x="103" y="-210" font-family="Helvetica,sans-Serif" font-size="10.00">alpaqa::TypeErasedProblem</text>
<text text-anchor="middle" x="171" y="-199" font-family="Helvetica,sans-Serif" font-size="10.00">::get_hess_ψ_sparsity</text>
</a>
</g>
</g>
<!-- Node1&#45;&gt;Node2 -->
<g id="edge1_Node000001_Node000002" class="edge">
<title>Node1&#45;&gt;Node2</title>
<g id="a_edge1_Node000001_Node000002"><a xlink:title=" ">
<path fill="none" stroke="#63b8ff" d="M36.79,-120.9C47.1,-136.36 69.09,-166.21 95,-183 97.56,-184.66 100.24,-186.21 103,-187.66"/>
<polygon fill="#63b8ff" stroke="#63b8ff" points="101.51,-190.83 112.05,-191.95 104.51,-184.5 101.51,-190.83"/>
</a>
</g>
</g>
<!-- Node3 -->
<g id="Node000003" class="node">
<title>Node3</title>
<g id="a_Node000003"><a xlink:href="classalpaqa_1_1TypeErasedProblem.html#a3e0872a0f29741da3d5429fce2749a34" target="_top" xlink:title="[Required] Number of decision variables.">
<polygon fill="white" stroke="#666666" points="247,-174 95,-174 95,-144 247,-144 247,-174"/>
<text text-anchor="start" x="103" y="-162" font-family="Helvetica,sans-Serif" font-size="10.00">alpaqa::TypeErasedProblem</text>
<text text-anchor="middle" x="171" y="-151" font-family="Helvetica,sans-Serif" font-size="10.00">::get_n</text>
</a>
</g>
</g>
<!-- Node1&#45;&gt;Node3 -->
<g id="edge2_Node000001_Node000003" class="edge">
<title>Node1&#45;&gt;Node3</title>
<g id="a_edge2_Node000001_Node000003"><a xlink:title=" ">
<path fill="none" stroke="#63b8ff" d="M55.21,-120.5C67.18,-125.03 81.79,-130.43 95,-135 100.55,-136.92 106.34,-138.87 112.14,-140.78"/>
<polygon fill="#63b8ff" stroke="#63b8ff" points="111.29,-144.19 121.88,-143.97 113.46,-137.53 111.29,-144.19"/>
</a>
</g>
</g>
<!-- Node4 -->
<g id="Node000004" class="node">
<title>Node4</title>
<g id="a_Node000004"><a xlink:href="classalpaqa_1_1TypeErasedProblem.html#a23a7eb67244853ec477fceda3be3cc2a" target="_top" xlink:title="Returns true if the problem provides an implementation of get_box_C.">
<polygon fill="white" stroke="#666666" points="247,-126 95,-126 95,-96 247,-96 247,-126"/>
<text text-anchor="start" x="103" y="-114" font-family="Helvetica,sans-Serif" font-size="10.00">alpaqa::TypeErasedProblem</text>
<text text-anchor="middle" x="171" y="-103" font-family="Helvetica,sans-Serif" font-size="10.00">::provides_get_box_C</text>
</a>
</g>
</g>
<!-- Node1&#45;&gt;Node4 -->
<g id="edge3_Node000001_Node000004" class="edge">
<title>Node1&#45;&gt;Node4</title>
<g id="a_edge3_Node000001_Node000004"><a xlink:title=" ">
<path fill="none" stroke="#63b8ff" d="M59.07,-111C66.79,-111 75.57,-111 84.72,-111"/>
<polygon fill="#63b8ff" stroke="#63b8ff" points="84.77,-114.5 94.77,-111 84.77,-107.5 84.77,-114.5"/>
</a>
</g>
</g>
<!-- Node5 -->
<g id="Node000005" class="node">
<title>Node5</title>
<g id="a_Node000005"><a xlink:href="classalpaqa_1_1TypeErasedProblem.html#ae00dab51fb2143c5d88a29e8a0a564c5" target="_top" xlink:title="Returns true if the problem provides an implementation of get_box_D.">
<polygon fill="white" stroke="#666666" points="247,-78 95,-78 95,-48 247,-48 247,-78"/>
<text text-anchor="start" x="103" y="-66" font-family="Helvetica,sans-Serif" font-size="10.00">alpaqa::TypeErasedProblem</text>
<text text-anchor="middle" x="171" y="-55" font-family="Helvetica,sans-Serif" font-size="10.00">::provides_get_box_D</text>
</a>
</g>
</g>
<!-- Node1&#45;&gt;Node5 -->
<g id="edge4_Node000001_Node000005" class="edge">
<title>Node1&#45;&gt;Node5</title>
<g id="a_edge4_Node000001_Node000005"><a xlink:title=" ">
<path fill="none" stroke="#63b8ff" d="M55.21,-101.5C67.18,-96.97 81.79,-91.57 95,-87 100.55,-85.08 106.34,-83.13 112.14,-81.22"/>
<polygon fill="#63b8ff" stroke="#63b8ff" points="113.46,-84.47 121.88,-78.03 111.29,-77.81 113.46,-84.47"/>
</a>
</g>
</g>
<!-- Node6 -->
<g id="Node000006" class="node">
<title>Node6</title>
<g id="a_Node000006"><a xlink:href="classalpaqa_1_1TypeErasedProblem.html#ab3d0395bba6c08c5215c7eed1258b165" target="_top" xlink:title="Returns true if eval_hess_ψ can be called.">
<polygon fill="white" stroke="#666666" points="247,-30 95,-30 95,0 247,0 247,-30"/>
<text text-anchor="start" x="103" y="-18" font-family="Helvetica,sans-Serif" font-size="10.00">alpaqa::TypeErasedProblem</text>
<text text-anchor="middle" x="171" y="-7" font-family="Helvetica,sans-Serif" font-size="10.00">::supports_eval_hess_ψ</text>
</a>
</g>
</g>
<!-- Node1&#45;&gt;Node6 -->
<g id="edge5_Node000001_Node000006" class="edge">
<title>Node1&#45;&gt;Node6</title>
<g id="a_edge5_Node000001_Node000006"><a xlink:title=" ">
<path fill="none" stroke="#63b8ff" d="M36.79,-101.1C47.1,-85.64 69.09,-55.79 95,-39 97.56,-37.34 100.24,-35.79 103,-34.34"/>
<polygon fill="#63b8ff" stroke="#63b8ff" points="104.51,-37.5 112.05,-30.05 101.51,-31.17 104.51,-37.5"/>
</a>
</g>
</g>
</g>
</svg>
</svg>

<style type='text/css'>
<![CDATA[
[data-mouse-over-selected='false'] { opacity: 0.7; }
[data-mouse-over-selected='true']  { opacity: 1.0; }
]]>
</style>
<script type="application/ecmascript"><![CDATA[
document.addEventListener('DOMContentLoaded', (event) => {
  highlightEdges();
  highlightAdjacentNodes();
});
]]></script>
</svg>
