<?xml version="1.0" encoding="UTF-8" standalone="no"?>
<!DOCTYPE svg PUBLIC "-//W3C//DTD SVG 1.1//EN"
 "http://www.w3.org/Graphics/SVG/1.1/DTD/svg11.dtd">
<!-- Generated by graphviz version 2.43.0 (0)
 -->
<!-- Title: src/alpaqa/include/alpaqa/params/structs.hpp Pages: 1 -->
<svg width="1231pt" height="258pt"
 viewBox="0.00 0.00 1230.50 258.00" xmlns="http://www.w3.org/2000/svg" xmlns:xlink="http://www.w3.org/1999/xlink">
<g id="graph0" class="graph" transform="scale(1 1) rotate(0) translate(4 254)">
<title>src/alpaqa/include/alpaqa/params/structs.hpp</title>
<!-- Node1 -->
<g id="Node000001" class="node">
<title>Node1</title>
<g id="a_Node000001"><a xlink:title=" ">
<polygon fill="#999999" stroke="#666666" points="729.5,-250 580.5,-250 580.5,-220 729.5,-220 729.5,-250"/>
<text text-anchor="start" x="588.5" y="-238" font-family="Helvetica,sans-Serif" font-size="10.00">src/alpaqa/include</text>
<text text-anchor="middle" x="655" y="-227" font-family="Helvetica,sans-Serif" font-size="10.00">/alpaqa/params/structs.hpp</text>
</a>
</g>
</g>
<!-- Node2 -->
<g id="Node000002" class="node">
<title>Node2</title>
<g id="a_Node000002"><a xlink:href="params_8tpp.html" target="_top" xlink:title=" ">
<polygon fill="white" stroke="#666666" points="509,-184 375,-184 375,-143 509,-143 509,-184"/>
<text text-anchor="start" x="383" y="-172" font-family="Helvetica,sans-Serif" font-size="10.00">src/alpaqa/include</text>
<text text-anchor="start" x="383" y="-161" font-family="Helvetica,sans-Serif" font-size="10.00">/alpaqa/implementation</text>
<text text-anchor="middle" x="442" y="-150" font-family="Helvetica,sans-Serif" font-size="10.00">/params/params.tpp</text>
</a>
</g>
</g>
<!-- Node1&#45;&gt;Node2 -->
<g id="edge1_Node000001_Node000002" class="edge">
<title>Node1&#45;&gt;Node2</title>
<g id="a_edge1_Node000001_Node000002"><a xlink:title=" ">
<path fill="none" stroke="#63b8ff" d="M602.32,-216.81C571.91,-206.89 533.56,-194.37 501.99,-184.07"/>
<polygon fill="#63b8ff" stroke="#63b8ff" points="601.3,-220.16 611.9,-219.94 603.48,-213.51 601.3,-220.16"/>
</a>
</g>
</g>
<!-- Node8 -->
<g id="Node000008" class="node">
<title>Node8</title>
<g id="a_Node000008"><a xlink:href="json_8hpp.html" target="_top" xlink:title=" ">
<polygon fill="white" stroke="#666666" points="956.5,-178.5 819.5,-178.5 819.5,-148.5 956.5,-148.5 956.5,-178.5"/>
<text text-anchor="start" x="827.5" y="-166.5" font-family="Helvetica,sans-Serif" font-size="10.00">src/alpaqa/include</text>
<text text-anchor="middle" x="888" y="-155.5" font-family="Helvetica,sans-Serif" font-size="10.00">/alpaqa/params/json.hpp</text>
</a>
</g>
</g>
<!-- Node1&#45;&gt;Node8 -->
<g id="edge7_Node000001_Node000008" class="edge">
<title>Node1&#45;&gt;Node8</title>
<g id="a_edge7_Node000001_Node000008"><a xlink:title=" ">
<path fill="none" stroke="#63b8ff" d="M711.93,-217.02C751.52,-205.21 803.67,-189.65 840.92,-178.54"/>
<polygon fill="#63b8ff" stroke="#63b8ff" points="710.73,-213.72 702.15,-219.94 712.73,-220.43 710.73,-213.72"/>
</a>
</g>
</g>
<!-- Node14 -->
<g id="Node000014" class="node">
<title>Node14</title>
<g id="a_Node000014"><a xlink:href="param-complete_8hpp.html" target="_top" xlink:title=" ">
<polygon fill="white" stroke="#666666" points="716,-178.5 594,-178.5 594,-148.5 716,-148.5 716,-178.5"/>
<text text-anchor="start" x="602" y="-166.5" font-family="Helvetica,sans-Serif" font-size="10.00">src/alpaqa/src/driver</text>
<text text-anchor="middle" x="655" y="-155.5" font-family="Helvetica,sans-Serif" font-size="10.00">/param&#45;complete.hpp</text>
</a>
</g>
</g>
<!-- Node1&#45;&gt;Node14 -->
<g id="edge13_Node000001_Node000014" class="edge">
<title>Node1&#45;&gt;Node14</title>
<g id="a_edge13_Node000001_Node000014"><a xlink:title=" ">
<path fill="none" stroke="#63b8ff" d="M655,-209.75C655,-199.31 655,-187.49 655,-178.54"/>
<polygon fill="#63b8ff" stroke="#63b8ff" points="651.5,-209.94 655,-219.94 658.5,-209.94 651.5,-209.94"/>
</a>
</g>
</g>
<!-- Node3 -->
<g id="Node000003" class="node">
<title>Node3</title>
<g id="a_Node000003"><a xlink:href="param-complete_8cpp.html" target="_top" xlink:title=" ">
<polygon fill="white" stroke="#666666" points="678.5,-101.5 557.5,-101.5 557.5,-71.5 678.5,-71.5 678.5,-101.5"/>
<text text-anchor="start" x="565.5" y="-89.5" font-family="Helvetica,sans-Serif" font-size="10.00">src/alpaqa/src/driver</text>
<text text-anchor="middle" x="618" y="-78.5" font-family="Helvetica,sans-Serif" font-size="10.00">/param&#45;complete.cpp</text>
</a>
</g>
</g>
<!-- Node2&#45;&gt;Node3 -->
<g id="edge2_Node000002_Node000003" class="edge">
<title>Node2&#45;&gt;Node3</title>
<g id="a_edge2_Node000002_Node000003"><a xlink:title=" ">
<path fill="none" stroke="#63b8ff" d="M497.31,-138.93C526.1,-126.66 560.32,-112.08 584.95,-101.58"/>
<polygon fill="#63b8ff" stroke="#63b8ff" points="495.61,-135.85 487.78,-142.99 498.35,-142.29 495.61,-135.85"/>
</a>
</g>
</g>
<!-- Node4 -->
<g id="Node000004" class="node">
<title>Node4</title>
<g id="a_Node000004"><a xlink:href="params_8cpp.html" target="_top" xlink:title=" ">
<polygon fill="white" stroke="#666666" points="124,-101.5 0,-101.5 0,-71.5 124,-71.5 124,-101.5"/>
<text text-anchor="start" x="8" y="-89.5" font-family="Helvetica,sans-Serif" font-size="10.00">src/alpaqa/src/params</text>
<text text-anchor="middle" x="62" y="-78.5" font-family="Helvetica,sans-Serif" font-size="10.00">/params.cpp</text>
</a>
</g>
</g>
<!-- Node2&#45;&gt;Node4 -->
<g id="edge3_Node000002_Node000004" class="edge">
<title>Node2&#45;&gt;Node4</title>
<g id="a_edge3_Node000002_Node000004"><a xlink:title=" ">
<path fill="none" stroke="#63b8ff" d="M364.53,-150.58C301.79,-140.44 211.3,-124.75 133,-107 125.77,-105.36 118.17,-103.46 110.74,-101.51"/>
<polygon fill="#63b8ff" stroke="#63b8ff" points="364.31,-154.09 374.74,-152.22 365.42,-147.18 364.31,-154.09"/>
</a>
</g>
</g>
<!-- Node5 -->
<g id="Node000005" class="node">
<title>Node5</title>
<g id="a_Node000005"><a xlink:href="ipopt-params_8cpp.html" target="_top" xlink:title=" ">
<polygon fill="white" stroke="#666666" points="255.5,-101.5 142.5,-101.5 142.5,-71.5 255.5,-71.5 255.5,-101.5"/>
<text text-anchor="start" x="150.5" y="-89.5" font-family="Helvetica,sans-Serif" font-size="10.00">src/interop/ipopt/src</text>
<text text-anchor="middle" x="199" y="-78.5" font-family="Helvetica,sans-Serif" font-size="10.00">/ipopt&#45;params.cpp</text>
</a>
</g>
</g>
<!-- Node2&#45;&gt;Node5 -->
<g id="edge4_Node000002_Node000005" class="edge">
<title>Node2&#45;&gt;Node5</title>
<g id="a_edge4_Node000002_Node000005"><a xlink:title=" ">
<path fill="none" stroke="#63b8ff" d="M368.98,-139.96C328.57,-127.49 279.61,-112.38 244.63,-101.58"/>
<polygon fill="#63b8ff" stroke="#63b8ff" points="368.2,-143.39 378.79,-142.99 370.27,-136.7 368.2,-143.39"/>
</a>
</g>
</g>
<!-- Node6 -->
<g id="Node000006" class="node">
<title>Node6</title>
<g id="a_Node000006"><a xlink:href="lbfgsb-params_8cpp.html" target="_top" xlink:title=" ">
<polygon fill="white" stroke="#666666" points="402,-101.5 274,-101.5 274,-71.5 402,-71.5 402,-101.5"/>
<text text-anchor="start" x="282" y="-89.5" font-family="Helvetica,sans-Serif" font-size="10.00">src/interop/lbfgsb</text>
<text text-anchor="middle" x="338" y="-78.5" font-family="Helvetica,sans-Serif" font-size="10.00">/src/lbfgsb&#45;params.cpp</text>
</a>
</g>
</g>
<!-- Node2&#45;&gt;Node6 -->
<g id="edge5_Node000002_Node000006" class="edge">
<title>Node2&#45;&gt;Node6</title>
<g id="a_edge5_Node000002_Node000006"><a xlink:title=" ">
<path fill="none" stroke="#63b8ff" d="M406.66,-137.01C390.3,-125.22 371.48,-111.65 357.69,-101.7"/>
<polygon fill="#63b8ff" stroke="#63b8ff" points="404.79,-139.98 414.95,-142.99 408.88,-134.3 404.79,-139.98"/>
</a>
</g>
</g>
<!-- Node7 -->
<g id="Node000007" class="node">
<title>Node7</title>
<g id="a_Node000007"><a xlink:href="qpalm-params_8cpp.html" target="_top" xlink:title=" ">
<polygon fill="white" stroke="#666666" points="539.5,-101.5 420.5,-101.5 420.5,-71.5 539.5,-71.5 539.5,-101.5"/>
<text text-anchor="start" x="428.5" y="-89.5" font-family="Helvetica,sans-Serif" font-size="10.00">src/interop/qpalm/src</text>
<text text-anchor="middle" x="480" y="-78.5" font-family="Helvetica,sans-Serif" font-size="10.00">/qpalm&#45;params.cpp</text>
</a>
</g>
</g>
<!-- Node2&#45;&gt;Node7 -->
<g id="edge6_Node000002_Node000007" class="edge">
<title>Node2&#45;&gt;Node7</title>
<g id="a_edge6_Node000002_Node000007"><a xlink:title=" ">
<path fill="none" stroke="#63b8ff" d="M456.64,-133.6C462.15,-122.73 468.17,-110.84 472.72,-101.86"/>
<polygon fill="#63b8ff" stroke="#63b8ff" points="453.38,-132.29 451.98,-142.79 459.63,-135.46 453.38,-132.29"/>
</a>
</g>
</g>
<!-- Node9 -->
<g id="Node000009" class="node">
<title>Node9</title>
<g id="a_Node000009"><a xlink:href="json_8tpp.html" target="_top" xlink:title=" ">
<polygon fill="white" stroke="#666666" points="1097,-107 963,-107 963,-66 1097,-66 1097,-107"/>
<text text-anchor="start" x="971" y="-95" font-family="Helvetica,sans-Serif" font-size="10.00">src/alpaqa/include</text>
<text text-anchor="start" x="971" y="-84" font-family="Helvetica,sans-Serif" font-size="10.00">/alpaqa/implementation</text>
<text text-anchor="middle" x="1030" y="-73" font-family="Helvetica,sans-Serif" font-size="10.00">/params/json.tpp</text>
</a>
</g>
</g>
<!-- Node8&#45;&gt;Node9 -->
<g id="edge8_Node000008_Node000009" class="edge">
<title>Node8&#45;&gt;Node9</title>
<g id="a_edge8_Node000008_Node000009"><a xlink:title=" ">
<path fill="none" stroke="#63b8ff" d="M923.69,-143.65C944.84,-132.48 971.59,-118.35 992.96,-107.06"/>
<polygon fill="#63b8ff" stroke="#63b8ff" points="921.92,-140.63 914.71,-148.39 925.19,-146.82 921.92,-140.63"/>
</a>
</g>
</g>
<!-- Node13 -->
<g id="Node000013" class="node">
<title>Node13</title>
<g id="a_Node000013"><a xlink:href="ipopt-json_8cpp.html" target="_top" xlink:title=" ">
<polygon fill="white" stroke="#666666" points="944.5,-101.5 831.5,-101.5 831.5,-71.5 944.5,-71.5 944.5,-101.5"/>
<text text-anchor="start" x="839.5" y="-89.5" font-family="Helvetica,sans-Serif" font-size="10.00">src/interop/ipopt/src</text>
<text text-anchor="middle" x="888" y="-78.5" font-family="Helvetica,sans-Serif" font-size="10.00">/ipopt&#45;json.cpp</text>
</a>
</g>
</g>
<!-- Node8&#45;&gt;Node13 -->
<g id="edge12_Node000008_Node000013" class="edge">
<title>Node8&#45;&gt;Node13</title>
<g id="a_edge12_Node000008_Node000013"><a xlink:title=" ">
<path fill="none" stroke="#63b8ff" d="M888,-138.04C888,-125.95 888,-111.79 888,-101.54"/>
<polygon fill="#63b8ff" stroke="#63b8ff" points="884.5,-138.39 888,-148.39 891.5,-138.39 884.5,-138.39"/>
</a>
</g>
</g>
<!-- Node10 -->
<g id="Node000010" class="node">
<title>Node10</title>
<g id="a_Node000010"><a xlink:href="json_8cpp.html" target="_top" xlink:title=" ">
<polygon fill="white" stroke="#666666" points="956,-30 832,-30 832,0 956,0 956,-30"/>
<text text-anchor="start" x="840" y="-18" font-family="Helvetica,sans-Serif" font-size="10.00">src/alpaqa/src/params</text>
<text text-anchor="middle" x="894" y="-7" font-family="Helvetica,sans-Serif" font-size="10.00">/json.cpp</text>
</a>
</g>
</g>
<!-- Node9&#45;&gt;Node10 -->
<g id="edge9_Node000009_Node000010" class="edge">
<title>Node9&#45;&gt;Node10</title>
<g id="a_edge9_Node000009_Node000010"><a xlink:title=" ">
<path fill="none" stroke="#63b8ff" d="M982.61,-61.28C962.23,-50.87 939.12,-39.06 921.62,-30.11"/>
<polygon fill="#63b8ff" stroke="#63b8ff" points="981.26,-64.52 991.75,-65.96 984.44,-58.29 981.26,-64.52"/>
</a>
</g>
</g>
<!-- Node11 -->
<g id="Node000011" class="node">
<title>Node11</title>
<g id="a_Node000011"><a xlink:href="lbfgsb-json_8cpp.html" target="_top" xlink:title=" ">
<polygon fill="white" stroke="#666666" points="1085.5,-30 974.5,-30 974.5,0 1085.5,0 1085.5,-30"/>
<text text-anchor="start" x="982.5" y="-18" font-family="Helvetica,sans-Serif" font-size="10.00">src/interop/lbfgsb</text>
<text text-anchor="middle" x="1030" y="-7" font-family="Helvetica,sans-Serif" font-size="10.00">/src/lbfgsb&#45;json.cpp</text>
</a>
</g>
</g>
<!-- Node9&#45;&gt;Node11 -->
<g id="edge10_Node000009_Node000011" class="edge">
<title>Node9&#45;&gt;Node11</title>
<g id="a_edge10_Node000009_Node000011"><a xlink:title=" ">
<path fill="none" stroke="#63b8ff" d="M1030,-55.66C1030,-46.76 1030,-37.42 1030,-30.04"/>
<polygon fill="#63b8ff" stroke="#63b8ff" points="1026.5,-55.77 1030,-65.77 1033.5,-55.77 1026.5,-55.77"/>
</a>
</g>
</g>
<!-- Node12 -->
<g id="Node000012" class="node">
<title>Node12</title>
<g id="a_Node000012"><a xlink:href="qpalm-json_8cpp.html" target="_top" xlink:title=" ">
<polygon fill="white" stroke="#666666" points="1222.5,-30 1103.5,-30 1103.5,0 1222.5,0 1222.5,-30"/>
<text text-anchor="start" x="1111.5" y="-18" font-family="Helvetica,sans-Serif" font-size="10.00">src/interop/qpalm/src</text>
<text text-anchor="middle" x="1163" y="-7" font-family="Helvetica,sans-Serif" font-size="10.00">/qpalm&#45;json.cpp</text>
</a>
</g>
</g>
<!-- Node9&#45;&gt;Node12 -->
<g id="edge11_Node000009_Node000012" class="edge">
<title>Node9&#45;&gt;Node12</title>
<g id="a_edge11_Node000009_Node000012"><a xlink:title=" ">
<path fill="none" stroke="#63b8ff" d="M1076.34,-61.28C1096.27,-50.87 1118.87,-39.06 1135.99,-30.11"/>
<polygon fill="#63b8ff" stroke="#63b8ff" points="1074.64,-58.22 1067.4,-65.96 1077.89,-64.43 1074.64,-58.22"/>
</a>
</g>
</g>
<!-- Node14&#45;&gt;Node3 -->
<g id="edge15_Node000014_Node000003" class="edge">
<title>Node14&#45;&gt;Node3</title>
<g id="a_edge15_Node000014_Node000003"><a xlink:title=" ">
<path fill="none" stroke="#63b8ff" d="M643.48,-139.15C637.4,-126.82 630.14,-112.11 624.93,-101.54"/>
<polygon fill="#63b8ff" stroke="#63b8ff" points="640.48,-140.97 648.04,-148.39 646.76,-137.88 640.48,-140.97"/>
</a>
</g>
</g>
<!-- Node15 -->
<g id="Node000015" class="node">
<title>Node15</title>
<g id="a_Node000015"><a xlink:href="alpaqa-driver_8cpp.html" target="_top" xlink:title=" ">
<polygon fill="white" stroke="#666666" points="813,-101.5 697,-101.5 697,-71.5 813,-71.5 813,-101.5"/>
<text text-anchor="start" x="705" y="-89.5" font-family="Helvetica,sans-Serif" font-size="10.00">src/alpaqa/src/driver</text>
<text text-anchor="middle" x="755" y="-78.5" font-family="Helvetica,sans-Serif" font-size="10.00">/alpaqa&#45;driver.cpp</text>
</a>
</g>
</g>
<!-- Node14&#45;&gt;Node15 -->
<g id="edge14_Node000014_Node000015" class="edge">
<title>Node14&#45;&gt;Node15</title>
<g id="a_edge14_Node000014_Node000015"><a xlink:title=" ">
<path fill="none" stroke="#63b8ff" d="M681.83,-142.38C699.03,-129.48 720.93,-113.05 736.28,-101.54"/>
<polygon fill="#63b8ff" stroke="#63b8ff" points="679.71,-139.59 673.81,-148.39 683.91,-145.19 679.71,-139.59"/>
</a>
</g>
</g>
</g>
</svg>
