<?xml version="1.0" encoding="UTF-8" standalone="no"?>
<!DOCTYPE svg PUBLIC "-//W3C//DTD SVG 1.1//EN"
 "http://www.w3.org/Graphics/SVG/1.1/DTD/svg11.dtd">
<!-- Generated by graphviz version 2.43.0 (0)
 -->
<!-- Title: forward Pages: 1 -->
<svg width="417pt" height="684pt"
 viewBox="0.00 0.00 417.00 684.00" xmlns="http://www.w3.org/2000/svg" xmlns:xlink="http://www.w3.org/1999/xlink">
<g id="graph0" class="graph" transform="scale(1 1) rotate(0) translate(4 680)">
<title>forward</title>
<!-- Node1 -->
<g id="Node000001" class="node">
<title>Node1</title>
<g id="a_Node000001"><a xlink:title=" ">
<polygon fill="#999999" stroke="#666666" points="54,-323 0,-323 0,-304 54,-304 54,-323"/>
<text text-anchor="middle" x="27" y="-311" font-family="Helvetica,sans-Serif" font-size="10.00">forward</text>
</a>
</g>
</g>
<!-- Node2 -->
<g id="Node000002" class="node">
<title>Node2</title>
<g id="a_Node000002"><a xlink:href="structalpaqa_1_1OCPVariables.html#a391b2381bfd92a7c2fd61a9fa322e3c0" target="_top" xlink:title=" ">
<polygon fill="white" stroke="#666666" points="232,-676 94,-676 94,-657 232,-657 232,-676"/>
<text text-anchor="middle" x="163" y="-664" font-family="Helvetica,sans-Serif" font-size="10.00">alpaqa::OCPVariables::ck</text>
</a>
</g>
</g>
<!-- Node1&#45;&gt;Node2 -->
<g id="edge1_Node000001_Node000002" class="edge">
<title>Node1&#45;&gt;Node2</title>
<g id="a_edge1_Node000001_Node000002"><a xlink:title=" ">
<path fill="none" stroke="#63b8ff" d="M28.44,-323.17C30.87,-372.78 44.36,-598.33 90,-647.5 91.21,-648.8 92.5,-650.02 93.85,-651.16"/>
<polygon fill="#63b8ff" stroke="#63b8ff" points="92,-654.13 102.24,-656.84 95.92,-648.33 92,-654.13"/>
</a>
</g>
</g>
<!-- Node3 -->
<g id="Node000003" class="node">
<title>Node3</title>
<g id="a_Node000003"><a xlink:href="classalpaqa_1_1TypeErasedControlProblem.html#a86c96723a0f613e2269ebd81f72c9c83" target="_top" xlink:title="Stage constraints .">
<polygon fill="white" stroke="#666666" points="236,-638.5 90,-638.5 90,-608.5 236,-608.5 236,-638.5"/>
<text text-anchor="start" x="98" y="-626.5" font-family="Helvetica,sans-Serif" font-size="10.00">alpaqa::TypeErasedControl</text>
<text text-anchor="middle" x="163" y="-615.5" font-family="Helvetica,sans-Serif" font-size="10.00">Problem::eval_constr</text>
</a>
</g>
</g>
<!-- Node1&#45;&gt;Node3 -->
<g id="edge2_Node000001_Node000003" class="edge">
<title>Node1&#45;&gt;Node3</title>
<g id="a_edge2_Node000001_Node000003"><a xlink:title=" ">
<path fill="none" stroke="#63b8ff" d="M28.83,-323.19C32.86,-368.27 51.83,-556.96 90,-599.5 90.77,-600.36 91.57,-601.19 92.4,-601.98"/>
<polygon fill="#63b8ff" stroke="#63b8ff" points="90.53,-604.97 100.55,-608.4 94.86,-599.46 90.53,-604.97"/>
</a>
</g>
</g>
<!-- Node4 -->
<g id="Node000004" class="node">
<title>Node4</title>
<g id="a_Node000004"><a xlink:href="classalpaqa_1_1TypeErasedControlProblem.html#a4e9cccc0dd3e9920bd9a0d2510270c44" target="_top" xlink:title="Terminal constraints .">
<polygon fill="white" stroke="#666666" points="236,-590.5 90,-590.5 90,-560.5 236,-560.5 236,-590.5"/>
<text text-anchor="start" x="98" y="-578.5" font-family="Helvetica,sans-Serif" font-size="10.00">alpaqa::TypeErasedControl</text>
<text text-anchor="middle" x="163" y="-567.5" font-family="Helvetica,sans-Serif" font-size="10.00">Problem::eval_constr_N</text>
</a>
</g>
</g>
<!-- Node1&#45;&gt;Node4 -->
<g id="edge3_Node000001_Node000004" class="edge">
<title>Node1&#45;&gt;Node4</title>
<g id="a_edge3_Node000001_Node000004"><a xlink:title=" ">
<path fill="none" stroke="#63b8ff" d="M27.49,-323.18C26.16,-358.73 26.42,-483.52 90,-551.5 90.91,-552.47 91.86,-553.41 92.85,-554.31"/>
<polygon fill="#63b8ff" stroke="#63b8ff" points="90.95,-557.26 101.05,-560.47 95.16,-551.66 90.95,-557.26"/>
</a>
</g>
</g>
<!-- Node5 -->
<g id="Node000005" class="node">
<title>Node5</title>
<g id="a_Node000005"><a xlink:href="classalpaqa_1_1TypeErasedControlProblem.html#aea104db5b0d6d2a3fd975b31762901ef" target="_top" xlink:title="Discrete&#45;time dynamics .">
<polygon fill="white" stroke="#666666" points="236,-542.5 90,-542.5 90,-512.5 236,-512.5 236,-542.5"/>
<text text-anchor="start" x="98" y="-530.5" font-family="Helvetica,sans-Serif" font-size="10.00">alpaqa::TypeErasedControl</text>
<text text-anchor="middle" x="163" y="-519.5" font-family="Helvetica,sans-Serif" font-size="10.00">Problem::eval_f</text>
</a>
</g>
</g>
<!-- Node1&#45;&gt;Node5 -->
<g id="edge4_Node000001_Node000005" class="edge">
<title>Node1&#45;&gt;Node5</title>
<g id="a_edge4_Node000001_Node000005"><a xlink:title=" ">
<path fill="none" stroke="#63b8ff" d="M28.25,-323.34C29.58,-354.36 37.91,-451.08 90,-503.5 91.07,-504.58 92.2,-505.61 93.36,-506.6"/>
<polygon fill="#63b8ff" stroke="#63b8ff" points="91.44,-509.52 101.62,-512.45 95.49,-503.81 91.44,-509.52"/>
</a>
</g>
</g>
<!-- Node7 -->
<g id="Node000007" class="node">
<title>Node7</title>
<g id="a_Node000007"><a xlink:href="classalpaqa_1_1TypeErasedControlProblem.html#a9412e49fd073645733eb50f1e93b889a" target="_top" xlink:title="Stage output mapping .">
<polygon fill="white" stroke="#666666" points="236,-494.5 90,-494.5 90,-464.5 236,-464.5 236,-494.5"/>
<text text-anchor="start" x="98" y="-482.5" font-family="Helvetica,sans-Serif" font-size="10.00">alpaqa::TypeErasedControl</text>
<text text-anchor="middle" x="163" y="-471.5" font-family="Helvetica,sans-Serif" font-size="10.00">Problem::eval_h</text>
</a>
</g>
</g>
<!-- Node1&#45;&gt;Node7 -->
<g id="edge6_Node000001_Node000007" class="edge">
<title>Node1&#45;&gt;Node7</title>
<g id="a_edge6_Node000001_Node000007"><a xlink:title=" ">
<path fill="none" stroke="#63b8ff" d="M29.49,-323.36C33.87,-348.95 49.09,-418.12 90,-455.5 91.3,-456.69 92.67,-457.82 94.08,-458.9"/>
<polygon fill="#63b8ff" stroke="#63b8ff" points="92.39,-461.97 102.68,-464.47 96.19,-456.1 92.39,-461.97"/>
</a>
</g>
</g>
<!-- Node8 -->
<g id="Node000008" class="node">
<title>Node8</title>
<g id="a_Node000008"><a xlink:href="classalpaqa_1_1TypeErasedControlProblem.html#af14bea7b59a44b2bbf009de9aa3ff3a7" target="_top" xlink:title="Terminal output mapping .">
<polygon fill="white" stroke="#666666" points="236,-446.5 90,-446.5 90,-416.5 236,-416.5 236,-446.5"/>
<text text-anchor="start" x="98" y="-434.5" font-family="Helvetica,sans-Serif" font-size="10.00">alpaqa::TypeErasedControl</text>
<text text-anchor="middle" x="163" y="-423.5" font-family="Helvetica,sans-Serif" font-size="10.00">Problem::eval_h_N</text>
</a>
</g>
</g>
<!-- Node1&#45;&gt;Node8 -->
<g id="edge8_Node000001_Node000008" class="edge">
<title>Node1&#45;&gt;Node8</title>
<g id="a_edge8_Node000001_Node000008"><a xlink:title=" ">
<path fill="none" stroke="#63b8ff" d="M31.73,-323.01C39.62,-341.9 59.76,-384.29 90,-407.5 91.83,-408.9 93.74,-410.22 95.72,-411.47"/>
<polygon fill="#63b8ff" stroke="#63b8ff" points="94.3,-414.69 104.75,-416.47 97.69,-408.56 94.3,-414.69"/>
</a>
</g>
</g>
<!-- Node9 -->
<g id="Node000009" class="node">
<title>Node9</title>
<g id="a_Node000009"><a xlink:href="classalpaqa_1_1TypeErasedControlProblem.html#a676d1700119cbb315a5a7e799689ca0e" target="_top" xlink:title="Stage cost .">
<polygon fill="white" stroke="#666666" points="236,-398.5 90,-398.5 90,-368.5 236,-368.5 236,-398.5"/>
<text text-anchor="start" x="98" y="-386.5" font-family="Helvetica,sans-Serif" font-size="10.00">alpaqa::TypeErasedControl</text>
<text text-anchor="middle" x="163" y="-375.5" font-family="Helvetica,sans-Serif" font-size="10.00">Problem::eval_l</text>
</a>
</g>
</g>
<!-- Node1&#45;&gt;Node9 -->
<g id="edge10_Node000001_Node000009" class="edge">
<title>Node1&#45;&gt;Node9</title>
<g id="a_edge10_Node000001_Node000009"><a xlink:title=" ">
<path fill="none" stroke="#63b8ff" d="M38.71,-323.12C50.54,-333.33 70.5,-349.35 90,-359.5 93.45,-361.3 97.06,-363 100.76,-364.6"/>
<polygon fill="#63b8ff" stroke="#63b8ff" points="99.47,-367.86 110.05,-368.39 102.11,-361.37 99.47,-367.86"/>
</a>
</g>
</g>
<!-- Node10 -->
<g id="Node000010" class="node">
<title>Node10</title>
<g id="a_Node000010"><a xlink:href="classalpaqa_1_1TypeErasedControlProblem.html#a62f0734c14da4c35d7504c1c6fd4e255" target="_top" xlink:title="Terminal cost .">
<polygon fill="white" stroke="#666666" points="236,-350.5 90,-350.5 90,-320.5 236,-320.5 236,-350.5"/>
<text text-anchor="start" x="98" y="-338.5" font-family="Helvetica,sans-Serif" font-size="10.00">alpaqa::TypeErasedControl</text>
<text text-anchor="middle" x="163" y="-327.5" font-family="Helvetica,sans-Serif" font-size="10.00">Problem::eval_l_N</text>
</a>
</g>
</g>
<!-- Node1&#45;&gt;Node10 -->
<g id="edge12_Node000001_Node000010" class="edge">
<title>Node1&#45;&gt;Node10</title>
<g id="a_edge12_Node000001_Node000010"><a xlink:title=" ">
<path fill="none" stroke="#63b8ff" d="M54.15,-317.79C61.82,-319.05 70.63,-320.5 79.85,-322.01"/>
<polygon fill="#63b8ff" stroke="#63b8ff" points="79.54,-325.51 89.98,-323.68 80.68,-318.6 79.54,-325.51"/>
</a>
</g>
</g>
<!-- Node11 -->
<g id="Node000011" class="node">
<title>Node11</title>
<g id="a_Node000011"><a xlink:href="structalpaqa_1_1OCPVariables.html#ad2e98c60f4f2abe43a52aea5afc9bad4" target="_top" xlink:title=" ">
<polygon fill="white" stroke="#666666" points="232.5,-302 93.5,-302 93.5,-283 232.5,-283 232.5,-302"/>
<text text-anchor="middle" x="163" y="-290" font-family="Helvetica,sans-Serif" font-size="10.00">alpaqa::OCPVariables::hk</text>
</a>
</g>
</g>
<!-- Node1&#45;&gt;Node11 -->
<g id="edge14_Node000001_Node000011" class="edge">
<title>Node1&#45;&gt;Node11</title>
<g id="a_edge14_Node000001_Node000011"><a xlink:title=" ">
<path fill="none" stroke="#63b8ff" d="M54.15,-309.4C64.9,-307.72 77.91,-305.68 91.12,-303.61"/>
<polygon fill="#63b8ff" stroke="#63b8ff" points="91.89,-307.03 101.22,-302.02 90.8,-300.12 91.89,-307.03"/>
</a>
</g>
</g>
<!-- Node12 -->
<g id="Node000012" class="node">
<title>Node12</title>
<g id="a_Node000012"><a xlink:href="structalpaqa_1_1OCPVariables.html#ac23599fc3855d4c3d79c3e689dd86f6c" target="_top" xlink:title=" ">
<polygon fill="white" stroke="#666666" points="232,-265 94,-265 94,-246 232,-246 232,-265"/>
<text text-anchor="middle" x="163" y="-253" font-family="Helvetica,sans-Serif" font-size="10.00">alpaqa::OCPVariables::nc</text>
</a>
</g>
</g>
<!-- Node1&#45;&gt;Node12 -->
<g id="edge15_Node000001_Node000012" class="edge">
<title>Node1&#45;&gt;Node12</title>
<g id="a_edge15_Node000001_Node000012"><a xlink:title=" ">
<path fill="none" stroke="#63b8ff" d="M40.66,-303.91C52.76,-295.16 71.8,-282.4 90,-274.5 95.47,-272.12 101.31,-269.99 107.2,-268.08"/>
<polygon fill="#63b8ff" stroke="#63b8ff" points="108.55,-271.33 117.11,-265.09 106.53,-264.63 108.55,-271.33"/>
</a>
</g>
</g>
<!-- Node13 -->
<g id="Node000013" class="node">
<title>Node13</title>
<g id="a_Node000013"><a xlink:href="structalpaqa_1_1OCPVariables.html#a9b03b81e6526f30c99d5d9e0fa537768" target="_top" xlink:title=" ">
<polygon fill="white" stroke="#666666" points="223.5,-227.5 102.5,-227.5 102.5,-197.5 223.5,-197.5 223.5,-227.5"/>
<text text-anchor="start" x="110.5" y="-215.5" font-family="Helvetica,sans-Serif" font-size="10.00">alpaqa::OCPVariables</text>
<text text-anchor="middle" x="163" y="-204.5" font-family="Helvetica,sans-Serif" font-size="10.00">::nc_N</text>
</a>
</g>
</g>
<!-- Node1&#45;&gt;Node13 -->
<g id="edge16_Node000001_Node000013" class="edge">
<title>Node1&#45;&gt;Node13</title>
<g id="a_edge16_Node000001_Node000013"><a xlink:title=" ">
<path fill="none" stroke="#63b8ff" d="M33.4,-303.89C42.85,-287.89 63.91,-255.75 90,-237.5 92.71,-235.6 95.58,-233.84 98.55,-232.2"/>
<polygon fill="#63b8ff" stroke="#63b8ff" points="100.31,-235.23 107.7,-227.65 97.19,-228.97 100.31,-235.23"/>
</a>
</g>
</g>
<!-- Node14 -->
<g id="Node000014" class="node">
<title>Node14</title>
<g id="a_Node000014"><a xlink:href="structalpaqa_1_1OCPVariables.html#a6d6559d215012fc0f573883117ec5398" target="_top" xlink:title=" ">
<polygon fill="white" stroke="#666666" points="232.5,-179 93.5,-179 93.5,-160 232.5,-160 232.5,-179"/>
<text text-anchor="middle" x="163" y="-167" font-family="Helvetica,sans-Serif" font-size="10.00">alpaqa::OCPVariables::nh</text>
</a>
</g>
</g>
<!-- Node1&#45;&gt;Node14 -->
<g id="edge17_Node000001_Node000014" class="edge">
<title>Node1&#45;&gt;Node14</title>
<g id="a_edge17_Node000001_Node000014"><a xlink:title=" ">
<path fill="none" stroke="#63b8ff" d="M29.89,-303.99C35.07,-280.56 51.7,-219.73 90,-188.5 92.06,-186.82 94.25,-185.29 96.55,-183.89"/>
<polygon fill="#63b8ff" stroke="#63b8ff" points="98.51,-186.82 105.8,-179.13 95.31,-180.59 98.51,-186.82"/>
</a>
</g>
</g>
<!-- Node15 -->
<g id="Node000015" class="node">
<title>Node15</title>
<g id="a_Node000015"><a xlink:href="structalpaqa_1_1OCPVariables.html#a2f879d2af95b130c8c92b49b11e55b9f" target="_top" xlink:title=" ">
<polygon fill="white" stroke="#666666" points="223.5,-141.5 102.5,-141.5 102.5,-111.5 223.5,-111.5 223.5,-141.5"/>
<text text-anchor="start" x="110.5" y="-129.5" font-family="Helvetica,sans-Serif" font-size="10.00">alpaqa::OCPVariables</text>
<text text-anchor="middle" x="163" y="-118.5" font-family="Helvetica,sans-Serif" font-size="10.00">::nh_N</text>
</a>
</g>
</g>
<!-- Node1&#45;&gt;Node15 -->
<g id="edge18_Node000001_Node000015" class="edge">
<title>Node1&#45;&gt;Node15</title>
<g id="a_edge18_Node000001_Node000015"><a xlink:title=" ">
<path fill="none" stroke="#63b8ff" d="M28.89,-303.95C31.96,-276.33 44.59,-195.51 90,-151.5 91.62,-149.93 93.35,-148.46 95.15,-147.08"/>
<polygon fill="#63b8ff" stroke="#63b8ff" points="97.09,-149.99 103.54,-141.59 93.26,-144.13 97.09,-149.99"/>
</a>
</g>
</g>
<!-- Node16 -->
<g id="Node000016" class="node">
<title>Node16</title>
<g id="a_Node000016"><a xlink:href="structalpaqa_1_1OCPVariables.html#a88158344aedc0355f0e563e54c779ae7" target="_top" xlink:title=" ">
<polygon fill="white" stroke="#666666" points="232.5,-93 93.5,-93 93.5,-74 232.5,-74 232.5,-93"/>
<text text-anchor="middle" x="163" y="-81" font-family="Helvetica,sans-Serif" font-size="10.00">alpaqa::OCPVariables::uk</text>
</a>
</g>
</g>
<!-- Node1&#45;&gt;Node16 -->
<g id="edge19_Node000001_Node000016" class="edge">
<title>Node1&#45;&gt;Node16</title>
<g id="a_edge19_Node000001_Node000016"><a xlink:title=" ">
<path fill="none" stroke="#63b8ff" d="M27.74,-303.87C27.39,-270.68 30.88,-160 90,-102.5 91.49,-101.05 93.09,-99.7 94.76,-98.46"/>
<polygon fill="#63b8ff" stroke="#63b8ff" points="96.96,-101.21 103.69,-93.02 93.33,-95.23 96.96,-101.21"/>
</a>
</g>
</g>
<!-- Node17 -->
<g id="Node000017" class="node">
<title>Node17</title>
<g id="a_Node000017"><a xlink:href="structalpaqa_1_1OCPVariables.html#a5468d87fecd1ab7d60817e223428990b" target="_top" xlink:title=" ">
<polygon fill="white" stroke="#666666" points="232.5,-56 93.5,-56 93.5,-37 232.5,-37 232.5,-56"/>
<text text-anchor="middle" x="163" y="-44" font-family="Helvetica,sans-Serif" font-size="10.00">alpaqa::OCPVariables::xk</text>
</a>
</g>
</g>
<!-- Node1&#45;&gt;Node17 -->
<g id="edge20_Node000001_Node000017" class="edge">
<title>Node1&#45;&gt;Node17</title>
<g id="a_edge20_Node000001_Node000017"><a xlink:title=" ">
<path fill="none" stroke="#63b8ff" d="M29.09,-303.96C33.99,-262.76 55.24,-100.72 90,-65.5 91.43,-64.05 92.96,-62.71 94.56,-61.46"/>
<polygon fill="#63b8ff" stroke="#63b8ff" points="96.58,-64.33 103.17,-56.03 92.85,-58.41 96.58,-64.33"/>
</a>
</g>
</g>
<!-- Node18 -->
<g id="Node000018" class="node">
<title>Node18</title>
<g id="a_Node000018"><a xlink:href="structalpaqa_1_1OCPVariables.html#ad17879d70c1e3a6e1709166481bdc8c6" target="_top" xlink:title=" ">
<polygon fill="white" stroke="#666666" points="235.5,-19 90.5,-19 90.5,0 235.5,0 235.5,-19"/>
<text text-anchor="middle" x="163" y="-7" font-family="Helvetica,sans-Serif" font-size="10.00">alpaqa::OCPVariables::xuk</text>
</a>
</g>
</g>
<!-- Node1&#45;&gt;Node18 -->
<g id="edge21_Node000001_Node000018" class="edge">
<title>Node1&#45;&gt;Node18</title>
<g id="a_edge21_Node000001_Node000018"><a xlink:title=" ">
<path fill="none" stroke="#63b8ff" d="M28.77,-303.79C32.57,-258.62 50.61,-69.65 90,-28.5 91.26,-27.18 92.6,-25.95 94.01,-24.81"/>
<polygon fill="#63b8ff" stroke="#63b8ff" points="96.27,-27.51 102.7,-19.09 92.42,-21.66 96.27,-27.51"/>
</a>
</g>
</g>
<!-- Node6 -->
<g id="Node000006" class="node">
<title>Node6</title>
<g id="a_Node000006"><a xlink:href="namespacealpaqa.html#a886edac65634ad8f9fe77aac2e5f178d" target="_top" xlink:title="If the given vector v is not finite, break or throw an exception with the given message msg.">
<polygon fill="white" stroke="#666666" points="409,-441 272,-441 272,-422 409,-422 409,-441"/>
<text text-anchor="middle" x="340.5" y="-429" font-family="Helvetica,sans-Serif" font-size="10.00">alpaqa::check_finiteness</text>
</a>
</g>
</g>
<!-- Node5&#45;&gt;Node6 -->
<g id="edge5_Node000005_Node000006" class="edge">
<title>Node5&#45;&gt;Node6</title>
<g id="a_edge5_Node000005_Node000006"><a xlink:title=" ">
<path fill="none" stroke="#63b8ff" d="M215.09,-512.5C222.25,-509.82 229.4,-506.81 236,-503.5 267.36,-487.77 300.02,-463.52 320.07,-447.57"/>
<polygon fill="#63b8ff" stroke="#63b8ff" points="322.51,-450.1 328.09,-441.1 318.11,-444.66 322.51,-450.1"/>
</a>
</g>
</g>
<!-- Node7&#45;&gt;Node6 -->
<g id="edge7_Node000007_Node000006" class="edge">
<title>Node7&#45;&gt;Node6</title>
<g id="a_edge7_Node000007_Node000006"><a xlink:title=" ">
<path fill="none" stroke="#63b8ff" d="M219.05,-464.44C243.39,-457.79 271.65,-450.06 294.68,-443.76"/>
<polygon fill="#63b8ff" stroke="#63b8ff" points="295.81,-447.08 304.53,-441.06 293.96,-440.33 295.81,-447.08"/>
</a>
</g>
</g>
<!-- Node8&#45;&gt;Node6 -->
<g id="edge9_Node000008_Node000006" class="edge">
<title>Node8&#45;&gt;Node6</title>
<g id="a_edge9_Node000008_Node000006"><a xlink:title=" ">
<path fill="none" stroke="#63b8ff" d="M236.14,-431.5C244.54,-431.5 253.14,-431.5 261.62,-431.5"/>
<polygon fill="#63b8ff" stroke="#63b8ff" points="261.87,-435 271.87,-431.5 261.87,-428 261.87,-435"/>
</a>
</g>
</g>
<!-- Node9&#45;&gt;Node6 -->
<g id="edge11_Node000009_Node000006" class="edge">
<title>Node9&#45;&gt;Node6</title>
<g id="a_edge11_Node000009_Node000006"><a xlink:title=" ">
<path fill="none" stroke="#63b8ff" d="M219.05,-398.56C243.39,-405.21 271.65,-412.94 294.68,-419.24"/>
<polygon fill="#63b8ff" stroke="#63b8ff" points="293.96,-422.67 304.53,-421.94 295.81,-415.92 293.96,-422.67"/>
</a>
</g>
</g>
<!-- Node10&#45;&gt;Node6 -->
<g id="edge13_Node000010_Node000006" class="edge">
<title>Node10&#45;&gt;Node6</title>
<g id="a_edge13_Node000010_Node000006"><a xlink:title=" ">
<path fill="none" stroke="#63b8ff" d="M215.09,-350.5C222.25,-353.18 229.4,-356.19 236,-359.5 267.36,-375.23 300.02,-399.48 320.07,-415.43"/>
<polygon fill="#63b8ff" stroke="#63b8ff" points="318.11,-418.34 328.09,-421.9 322.51,-412.9 318.11,-418.34"/>
</a>
</g>
</g>
</g>
</svg>
