<?xml version="1.0" encoding="UTF-8" standalone="no"?>
<!DOCTYPE svg PUBLIC "-//W3C//DTD SVG 1.1//EN"
 "http://www.w3.org/Graphics/SVG/1.1/DTD/svg11.dtd">
<!-- Generated by graphviz version 2.43.0 (0)
 -->
<!-- Title: get_m Pages: 1 -->
<!--zoomable 570 -->

<svg id="main" version="1.1" xmlns="http://www.w3.org/2000/svg" xmlns:xlink="http://www.w3.org/1999/xlink" xml:space="preserve" onload="init(evt)">
<style type="text/css"><![CDATA[
.node, .edge {opacity: 0.7;}
.node.selected, .edge.selected {opacity: 1;}
.edge:hover path { stroke: red; }
.edge:hover polygon { stroke: red; fill: red; }
]]></style>

<defs>
  <circle id="rim" cx="0" cy="0" r="7"/>
  <circle id="rim2" cx="0" cy="0" r="3.5"/>
  <g id="zoomPlus">
    <use xlink:href="#rim" fill="#404040"><set attributeName="fill" to="#808080" begin="zoomplus.mouseover" end="zoomplus.mouseout"/></use>
    <path d="M-4,0h8M0,-4v8" fill="none" stroke="white" stroke-width="1.5" pointer-events="none"/>
  </g>
  <g id="zoomMin">
    <use xlink:href="#rim" fill="#404040"><set attributeName="fill" to="#808080" begin="zoomminus.mouseover" end="zoomminus.mouseout"/></use>
    <path d="M-4,0h8" fill="none" stroke="white" stroke-width="1.5" pointer-events="none"/>
  </g>
  <g id="arrowUp" transform="translate(30 24)">
    <use xlink:href="#rim"/>
    <path pointer-events="none" fill="none" stroke="white" stroke-width="1.5" d="M0,-3.0v7 M-2.5,-0.5L0,-3.0L2.5,-0.5"/>
  </g>
  <g id="arrowRight" transform="rotate(90) translate(36 -43)">
    <use xlink:href="#rim"/>
    <path pointer-events="none" fill="none" stroke="white" stroke-width="1.5" d="M0,-3.0v7 M-2.5,-0.5L0,-3.0L2.5,-0.5"/>
  </g>
  <g id="arrowDown" transform="rotate(180) translate(-30 -48)">
    <use xlink:href="#rim"/>
    <path pointer-events="none" fill="none" stroke="white" stroke-width="1.5" d="M0,-3.0v7 M-2.5,-0.5L0,-3.0L2.5,-0.5"/>
  </g>
  <g id="arrowLeft" transform="rotate(270) translate(-36 17)">
    <use xlink:href="#rim"/>
    <path pointer-events="none" fill="none" stroke="white" stroke-width="1.5" d="M0,-3.0v7 M-2.5,-0.5L0,-3.0L2.5,-0.5"/>
  </g>
  <g id="resetDef">
    <use xlink:href="#rim2" fill="#404040"><set attributeName="fill" to="#808080" begin="reset.mouseover" end="reset.mouseout"/></use>
  </g>
</defs>
<script type="application/ecmascript">
var viewWidth = 449;
var viewHeight = 570;
var sectionId = 'dynsection-3';
</script>
<script type="application/ecmascript" xlink:href="svg.min.js"/>
<svg id="graph" class="graph">
<g id="viewport">
<title>get_m</title>
<!-- Node1 -->
<g id="Node000001" class="node">
<title>Node1</title>
<g id="a_Node000001"><a xlink:title="[Required] Number of constraints.">
<polygon fill="#999999" stroke="#666666" points="441,-340 394,-340 394,-321 441,-321 441,-340"/>
<text text-anchor="middle" x="417.5" y="-328" font-family="Helvetica,sans-Serif" font-size="10.00">get_m</text>
</a>
</g>
</g>
<!-- Node2 -->
<g id="Node000002" class="node">
<title>Node2</title>
<g id="a_Node000002"><a xlink:href="namespacealpaqa.html#a4ca1e55c8c5fb7305b9e55d746d7929e" target="_top" xlink:title=" ">
<polygon fill="white" stroke="#666666" points="325,-561.5 209,-561.5 209,-531.5 325,-531.5 325,-561.5"/>
<text text-anchor="start" x="217" y="-549.5" font-family="Helvetica,sans-Serif" font-size="10.00">alpaqa::build_qpalm</text>
<text text-anchor="middle" x="267" y="-538.5" font-family="Helvetica,sans-Serif" font-size="10.00">_problem</text>
</a>
</g>
</g>
<!-- Node1&#45;&gt;Node2 -->
<g id="edge1_Node000001_Node000002" class="edge">
<title>Node1&#45;&gt;Node2</title>
<g id="a_edge1_Node000001_Node000002"><a xlink:title=" ">
<path fill="none" stroke="#63b8ff" d="M416.42,-350.61C415.15,-389.55 406.62,-475.56 358,-522.5 349.04,-531.15 337.33,-536.77 325.33,-540.39"/>
<polygon fill="#63b8ff" stroke="#63b8ff" points="419.93,-350.19 416.62,-340.13 412.93,-350.06 419.93,-350.19"/>
</a>
</g>
</g>
<!-- Node3 -->
<g id="Node000003" class="node">
<title>Node3</title>
<g id="a_Node000003"><a xlink:href="structalpaqa_1_1detail_1_1PANOCHelpers.html#abbe7a9499d34168ba294d9737ab1516d" target="_top" xlink:title="Calculate the error between ẑ and g(x).">
<polygon fill="white" stroke="#666666" points="347.5,-513.5 186.5,-513.5 186.5,-483.5 347.5,-483.5 347.5,-513.5"/>
<text text-anchor="start" x="194.5" y="-501.5" font-family="Helvetica,sans-Serif" font-size="10.00">alpaqa::detail::PANOCHelpers</text>
<text text-anchor="middle" x="267" y="-490.5" font-family="Helvetica,sans-Serif" font-size="10.00">::calc_err_z</text>
</a>
</g>
</g>
<!-- Node1&#45;&gt;Node3 -->
<g id="edge2_Node000001_Node000003" class="edge">
<title>Node1&#45;&gt;Node3</title>
<g id="a_edge2_Node000001_Node000003"><a xlink:title=" ">
<path fill="none" stroke="#63b8ff" d="M414.09,-350.29C409.22,-381.4 395.31,-441.59 358,-474.5 354.12,-477.92 349.8,-480.86 345.22,-483.39"/>
<polygon fill="#63b8ff" stroke="#63b8ff" points="417.57,-350.64 415.5,-340.25 410.64,-349.66 417.57,-350.64"/>
</a>
</g>
</g>
<!-- Node4 -->
<g id="Node000004" class="node">
<title>Node4</title>
<g id="a_Node000004"><a xlink:href="classalpaqa_1_1IpoptAdapter.html#a9eaf7ceaf6c5549371845b11c0ed305b" target="_top" xlink:title=" ">
<polygon fill="white" stroke="#666666" points="326.5,-465.5 207.5,-465.5 207.5,-435.5 326.5,-435.5 326.5,-465.5"/>
<text text-anchor="start" x="215.5" y="-453.5" font-family="Helvetica,sans-Serif" font-size="10.00">alpaqa::IpoptAdapter</text>
<text text-anchor="middle" x="267" y="-442.5" font-family="Helvetica,sans-Serif" font-size="10.00">::get_nlp_info</text>
</a>
</g>
</g>
<!-- Node1&#45;&gt;Node4 -->
<g id="edge3_Node000001_Node000004" class="edge">
<title>Node1&#45;&gt;Node4</title>
<g id="a_edge3_Node000001_Node000004"><a xlink:title=" ">
<path fill="none" stroke="#63b8ff" d="M409.89,-349.6C401.34,-371.47 384.33,-406.81 358,-426.5 348.8,-433.38 337.79,-438.28 326.67,-441.79"/>
<polygon fill="#63b8ff" stroke="#63b8ff" points="413.23,-350.67 413.41,-340.07 406.66,-348.24 413.23,-350.67"/>
</a>
</g>
</g>
<!-- Node5 -->
<g id="Node000005" class="node">
<title>Node5</title>
<g id="a_Node000005"><a xlink:href="structalpaqa_1_1StructuredLBFGSDirection.html#abef09c52cdc391877cde2c5825fe65e6" target="_top" xlink:title=" ">
<polygon fill="white" stroke="#666666" points="358,-417.5 176,-417.5 176,-387.5 358,-387.5 358,-417.5"/>
<text text-anchor="start" x="184" y="-405.5" font-family="Helvetica,sans-Serif" font-size="10.00">alpaqa::StructuredLBFGSDirection</text>
<text text-anchor="middle" x="267" y="-394.5" font-family="Helvetica,sans-Serif" font-size="10.00">::initialize</text>
</a>
</g>
</g>
<!-- Node1&#45;&gt;Node5 -->
<g id="edge4_Node000001_Node000005" class="edge">
<title>Node1&#45;&gt;Node5</title>
<g id="a_edge4_Node000001_Node000005"><a xlink:title=" ">
<path fill="none" stroke="#63b8ff" d="M400.27,-347.07C389.23,-357.47 373.8,-370.4 358,-378.5 351.38,-381.89 344.23,-384.84 336.96,-387.4"/>
<polygon fill="#63b8ff" stroke="#63b8ff" points="402.76,-349.53 407.48,-340.05 397.87,-344.52 402.76,-349.53"/>
</a>
</g>
</g>
<!-- Node6 -->
<g id="Node000006" class="node">
<title>Node6</title>
<g id="a_Node000006"><a xlink:href="structalpaqa_1_1NewtonTRDirection.html#abef09c52cdc391877cde2c5825fe65e6" target="_top" xlink:title=" ">
<polygon fill="white" stroke="#666666" points="342,-369.5 192,-369.5 192,-339.5 342,-339.5 342,-369.5"/>
<text text-anchor="start" x="200" y="-357.5" font-family="Helvetica,sans-Serif" font-size="10.00">alpaqa::NewtonTRDirection</text>
<text text-anchor="middle" x="267" y="-346.5" font-family="Helvetica,sans-Serif" font-size="10.00">::initialize</text>
</a>
</g>
</g>
<!-- Node1&#45;&gt;Node6 -->
<g id="edge5_Node000001_Node000006" class="edge">
<title>Node1&#45;&gt;Node6</title>
<g id="a_edge5_Node000001_Node000006"><a xlink:title=" ">
<path fill="none" stroke="#63b8ff" d="M383.71,-335.8C371.33,-337.8 356.69,-340.17 342.06,-342.53"/>
<polygon fill="#63b8ff" stroke="#63b8ff" points="384.63,-339.2 393.95,-334.15 383.52,-332.29 384.63,-339.2"/>
</a>
</g>
</g>
<!-- Node7 -->
<g id="Node000007" class="node">
<title>Node7</title>
<g id="a_Node000007"><a xlink:href="structalpaqa_1_1detail_1_1ALMHelpers.html#aa91b6b1a0715e1efaf34b25131d0e8f1" target="_top" xlink:title=" ">
<polygon fill="white" stroke="#666666" points="341,-321.5 193,-321.5 193,-291.5 341,-291.5 341,-321.5"/>
<text text-anchor="start" x="201" y="-309.5" font-family="Helvetica,sans-Serif" font-size="10.00">alpaqa::detail::ALMHelpers</text>
<text text-anchor="middle" x="267" y="-298.5" font-family="Helvetica,sans-Serif" font-size="10.00">::initialize_penalty</text>
</a>
</g>
</g>
<!-- Node1&#45;&gt;Node7 -->
<g id="edge6_Node000001_Node000007" class="edge">
<title>Node1&#45;&gt;Node7</title>
<g id="a_edge6_Node000001_Node000007"><a xlink:title=" ">
<path fill="none" stroke="#63b8ff" d="M383.9,-325.23C371.21,-323.18 356.11,-320.74 341.08,-318.31"/>
<polygon fill="#63b8ff" stroke="#63b8ff" points="383.52,-328.71 393.95,-326.85 384.63,-321.8 383.52,-328.71"/>
</a>
</g>
</g>
<!-- Node8 -->
<g id="Node000008" class="node">
<title>Node8</title>
<g id="a_Node000008"><a xlink:href="namespaceanonymous__namespace_02problem_8cpp_03.html#ab42fb3dc0421d6c6c1f45d753a95a2c4" target="_top" xlink:title=" ">
<polygon fill="white" stroke="#666666" points="334.5,-255 199.5,-255 199.5,-214 334.5,-214 334.5,-255"/>
<text text-anchor="start" x="207.5" y="-243" font-family="Helvetica,sans-Serif" font-size="10.00">anonymous_namespace</text>
<text text-anchor="start" x="207.5" y="-232" font-family="Helvetica,sans-Serif" font-size="10.00">{problem::cpp}::load</text>
<text text-anchor="middle" x="267" y="-221" font-family="Helvetica,sans-Serif" font-size="10.00">_initial_guess</text>
</a>
</g>
</g>
<!-- Node1&#45;&gt;Node8 -->
<g id="edge7_Node000001_Node000008" class="edge">
<title>Node1&#45;&gt;Node8</title>
<g id="a_edge7_Node000001_Node000008"><a xlink:title=" ">
<path fill="none" stroke="#63b8ff" d="M398.44,-314.11C387.23,-304.34 372.28,-292.03 358,-282.5 343.12,-272.57 325.98,-263.01 310.67,-255.06"/>
<polygon fill="#63b8ff" stroke="#63b8ff" points="396.4,-316.98 406.21,-320.99 401.04,-311.74 396.4,-316.98"/>
</a>
</g>
</g>
<!-- Node9 -->
<g id="Node000009" class="node">
<title>Node9</title>
<g id="a_Node000009"><a xlink:href="alpaqa-driver_8cpp.html#aac67f64489af66b9fd58dcc6976f4d21" target="_top" xlink:title=" ">
<polygon fill="white" stroke="#666666" points="339,-196 195,-196 195,-177 339,-177 339,-196"/>
<text text-anchor="middle" x="267" y="-184" font-family="Helvetica,sans-Serif" font-size="10.00">print_problem_description</text>
</a>
</g>
</g>
<!-- Node1&#45;&gt;Node9 -->
<g id="edge9_Node000001_Node000009" class="edge">
<title>Node1&#45;&gt;Node9</title>
<g id="a_edge9_Node000001_Node000009"><a xlink:title=" ">
<path fill="none" stroke="#63b8ff" d="M412.96,-310.75C406.87,-282.81 391.66,-232.2 358,-205.5 352.37,-201.03 345.94,-197.55 339.16,-194.84"/>
<polygon fill="#63b8ff" stroke="#63b8ff" points="409.59,-311.76 414.98,-320.88 416.45,-310.39 409.59,-311.76"/>
</a>
</g>
</g>
<!-- Node11 -->
<g id="Node000011" class="node">
<title>Node11</title>
<g id="a_Node000011"><a xlink:href="results_8hpp.html#ac44ace62be5699e983e8e4596ea74cf1" target="_top" xlink:title=" ">
<polygon fill="white" stroke="#666666" points="305.5,-159 228.5,-159 228.5,-140 305.5,-140 305.5,-159"/>
<text text-anchor="middle" x="267" y="-147" font-family="Helvetica,sans-Serif" font-size="10.00">print_results</text>
</a>
</g>
</g>
<!-- Node1&#45;&gt;Node11 -->
<g id="edge11_Node000001_Node000011" class="edge">
<title>Node1&#45;&gt;Node11</title>
<g id="a_edge11_Node000001_Node000011"><a xlink:title=" ">
<path fill="none" stroke="#63b8ff" d="M415.32,-310.46C412.16,-275.98 400.56,-205.54 358,-168.5 343.79,-156.13 323.55,-151.13 305.87,-149.33"/>
<polygon fill="#63b8ff" stroke="#63b8ff" points="411.85,-310.98 416.1,-320.68 418.83,-310.44 411.85,-310.98"/>
</a>
</g>
</g>
<!-- Node12 -->
<g id="Node000012" class="node">
<title>Node12</title>
<g id="a_Node000012"><a xlink:href="alm-driver_8hpp.html#aa7ce176e5df1fd415e66c420646cf10d" target="_top" xlink:title=" ">
<polygon fill="white" stroke="#666666" points="313,-106 221,-106 221,-87 313,-87 313,-106"/>
<text text-anchor="middle" x="267" y="-94" font-family="Helvetica,sans-Serif" font-size="10.00">run_alm_solver</text>
</a>
</g>
</g>
<!-- Node1&#45;&gt;Node12 -->
<g id="edge13_Node000001_Node000012" class="edge">
<title>Node1&#45;&gt;Node12</title>
<g id="a_edge13_Node000001_Node000012"><a xlink:title=" ">
<path fill="none" stroke="#63b8ff" d="M416.2,-310.66C414.56,-271.4 405.44,-183.16 358,-131.5 346.21,-118.66 329.14,-110.47 313.03,-105.28"/>
<polygon fill="#63b8ff" stroke="#63b8ff" points="412.71,-310.88 416.5,-320.77 419.71,-310.67 412.71,-310.88"/>
</a>
</g>
</g>
<!-- Node8&#45;&gt;Node8 -->
<g id="edge8_Node000008_Node000008" class="edge">
<title>Node8&#45;&gt;Node8</title>
<g id="a_edge8_Node000008_Node000008"><a xlink:title=" ">
<path fill="none" stroke="#63b8ff" d="M292.81,-264.96C288.97,-269.74 280.37,-273 267,-273 245.61,-273 236.42,-264.65 239.43,-255.1"/>
<polygon fill="#63b8ff" stroke="#63b8ff" points="296.26,-265.56 294.57,-255.1 289.36,-264.33 296.26,-265.56"/>
</a>
</g>
</g>
<!-- Node10 -->
<g id="Node000010" class="node">
<title>Node10</title>
<g id="a_Node000010"><a xlink:href="alpaqa-driver_8cpp.html#ac0f2228420376f4db7e1274f2b41667c" target="_top" xlink:title=" ">
<polygon fill="white" stroke="#666666" points="90.5,-196 49.5,-196 49.5,-177 90.5,-177 90.5,-196"/>
<text text-anchor="middle" x="70" y="-184" font-family="Helvetica,sans-Serif" font-size="10.00">main</text>
</a>
</g>
</g>
<!-- Node9&#45;&gt;Node10 -->
<g id="edge10_Node000009_Node000010" class="edge">
<title>Node9&#45;&gt;Node10</title>
<g id="a_edge10_Node000009_Node000010"><a xlink:title=" ">
<path fill="none" stroke="#63b8ff" d="M184.63,-186.5C150.04,-186.5 112.66,-186.5 90.57,-186.5"/>
<polygon fill="#63b8ff" stroke="#63b8ff" points="184.77,-190 194.77,-186.5 184.77,-183 184.77,-190"/>
</a>
</g>
</g>
<!-- Node11&#45;&gt;Node10 -->
<g id="edge12_Node000011_Node000010" class="edge">
<title>Node11&#45;&gt;Node10</title>
<g id="a_edge12_Node000011_Node000010"><a xlink:title=" ">
<path fill="none" stroke="#63b8ff" d="M218.35,-158.54C177.36,-166.32 120.28,-177.15 90.64,-182.77"/>
<polygon fill="#63b8ff" stroke="#63b8ff" points="219.23,-161.94 228.4,-156.63 217.92,-155.06 219.23,-161.94"/>
</a>
</g>
</g>
<!-- Node13 -->
<g id="Node000013" class="node">
<title>Node13</title>
<g id="a_Node000013"><a xlink:href="namespaceanonymous__namespace_02fista-driver_8cpp_03.html#a479d5f0dacbf404f04a694bb1be6f6c5" target="_top" xlink:title=" ">
<polygon fill="white" stroke="#666666" points="138.5,-159 1.5,-159 1.5,-118 138.5,-118 138.5,-159"/>
<text text-anchor="start" x="9.5" y="-147" font-family="Helvetica,sans-Serif" font-size="10.00">anonymous_namespace</text>
<text text-anchor="start" x="9.5" y="-136" font-family="Helvetica,sans-Serif" font-size="10.00">{fista&#45;driver::cpp}</text>
<text text-anchor="middle" x="70" y="-125" font-family="Helvetica,sans-Serif" font-size="10.00">::make_fista_driver_impl</text>
</a>
</g>
</g>
<!-- Node12&#45;&gt;Node13 -->
<g id="edge14_Node000012_Node000013" class="edge">
<title>Node12&#45;&gt;Node13</title>
<g id="a_edge14_Node000012_Node000013"><a xlink:title=" ">
<path fill="none" stroke="#63b8ff" d="M211.67,-108.2C189.09,-113.07 162.64,-118.76 138.8,-123.9"/>
<polygon fill="#63b8ff" stroke="#63b8ff" points="212.71,-111.56 221.75,-106.03 211.24,-104.71 212.71,-111.56"/>
</a>
</g>
</g>
<!-- Node14 -->
<g id="Node000014" class="node">
<title>Node14</title>
<g id="a_Node000014"><a xlink:href="namespaceanonymous__namespace_02panoc-driver_8cpp_03.html#ab2ca1091ea82102367666b62756cd7f6" target="_top" xlink:title=" ">
<polygon fill="white" stroke="#666666" points="140,-100 0,-100 0,-59 140,-59 140,-100"/>
<text text-anchor="start" x="8" y="-88" font-family="Helvetica,sans-Serif" font-size="10.00">anonymous_namespace</text>
<text text-anchor="start" x="8" y="-77" font-family="Helvetica,sans-Serif" font-size="10.00">{panoc&#45;driver::cpp}</text>
<text text-anchor="middle" x="70" y="-66" font-family="Helvetica,sans-Serif" font-size="10.00">::make_panoc_like_driver</text>
</a>
</g>
</g>
<!-- Node12&#45;&gt;Node14 -->
<g id="edge15_Node000012_Node000014" class="edge">
<title>Node12&#45;&gt;Node14</title>
<g id="a_edge15_Node000012_Node000014"><a xlink:title=" ">
<path fill="none" stroke="#63b8ff" d="M210.63,-91.67C188.68,-89.76 163.2,-87.54 140.06,-85.52"/>
<polygon fill="#63b8ff" stroke="#63b8ff" points="210.51,-95.18 220.77,-92.56 211.11,-88.2 210.51,-95.18"/>
</a>
</g>
</g>
<!-- Node15 -->
<g id="Node000015" class="node">
<title>Node15</title>
<g id="a_Node000015"><a xlink:href="namespaceanonymous__namespace_02pantr-driver_8cpp_03.html#a39b6aa8ff07d8400d404f191bdccd499" target="_top" xlink:title=" ">
<polygon fill="white" stroke="#666666" points="139,-41 1,-41 1,0 139,0 139,-41"/>
<text text-anchor="start" x="9" y="-29" font-family="Helvetica,sans-Serif" font-size="10.00">anonymous_namespace</text>
<text text-anchor="start" x="9" y="-18" font-family="Helvetica,sans-Serif" font-size="10.00">{pantr&#45;driver::cpp}</text>
<text text-anchor="middle" x="70" y="-7" font-family="Helvetica,sans-Serif" font-size="10.00">::make_pantr_like_solver</text>
</a>
</g>
</g>
<!-- Node12&#45;&gt;Node15 -->
<g id="edge16_Node000012_Node000015" class="edge">
<title>Node12&#45;&gt;Node15</title>
<g id="a_edge16_Node000012_Node000015"><a xlink:title=" ">
<path fill="none" stroke="#63b8ff" d="M231.74,-83.15C201.87,-71.5 158.06,-54.43 123.72,-41.05"/>
<polygon fill="#63b8ff" stroke="#63b8ff" points="230.71,-86.5 241.3,-86.87 233.26,-79.98 230.71,-86.5"/>
</a>
</g>
</g>
</g>
</svg>

<g id="navigator" transform="translate(0 0)" fill="#404254">
  <rect fill="#f2f5e9" fill-opacity="0.5" stroke="#606060" stroke-width=".5" x="0" y="0" width="60" height="60"/>
  <use id="zoomplus" xlink:href="#zoomPlus" x="17" y="9" onmousedown="handleZoom(evt,'in')"/>
  <use id="zoomminus" xlink:href="#zoomMin" x="42" y="9" onmousedown="handleZoom(evt,'out')"/>
  <use id="reset" xlink:href="#resetDef" x="30" y="36" onmousedown="handleReset()"/>
   <use id="arrowup" xlink:href="#arrowUp" x="0" y="0" onmousedown="handlePan(0,-1)"/>
  <use id="arrowright" xlink:href="#arrowRight" x="0" y="0" onmousedown="handlePan(1,0)"/>
  <use id="arrowdown" xlink:href="#arrowDown" x="0" y="0" onmousedown="handlePan(0,1)"/>
  <use id="arrowleft" xlink:href="#arrowLeft" x="0" y="0" onmousedown="handlePan(-1,0)"/>
</g>
<svg viewBox="0 0 15 15" width="100%" height="30px" preserveAspectRatio="xMaxYMin meet">
 <g id="arrow_out" transform="scale(0.3 0.3)">
  <a xlink:href="classalpaqa_1_1TypeErasedProblem_a4cb358cffb880a83ec60933c6d44cef4_icgraph_org.svg" target="_base">
   <rect id="button" ry="5" rx="5" y="6" x="6" height="38" width="38"
        fill="#f2f5e9" fill-opacity="0.5" stroke="#606060" stroke-width="1.0"/>
   <path id="arrow"
     d="M 11.500037,31.436501 C 11.940474,20.09759 22.043105,11.32322 32.158766,21.979434 L 37.068811,17.246167 C 37.068811,17.246167 37.088388,32 37.088388,32 L 22.160133,31.978069 C 22.160133,31.978069 26.997745,27.140456 26.997745,27.140456 C 18.528582,18.264221 13.291696,25.230495 11.500037,31.436501 z"
     style="fill:#404040;"/>
  </a>
 </g>
</svg>

<style type='text/css'>
<![CDATA[
[data-mouse-over-selected='false'] { opacity: 0.7; }
[data-mouse-over-selected='true']  { opacity: 1.0; }
]]>
</style>
<script type="application/ecmascript"><![CDATA[
document.addEventListener('DOMContentLoaded', (event) => {
  highlightEdges();
  highlightAdjacentNodes();
});
]]></script>
</svg>
