<?xml version="1.0" encoding="UTF-8" standalone="no"?>
<!DOCTYPE svg PUBLIC "-//W3C//DTD SVG 1.1//EN"
 "http://www.w3.org/Graphics/SVG/1.1/DTD/svg11.dtd">
<!-- Generated by graphviz version 2.43.0 (0)
 -->
<!-- Title: cleanup Pages: 1 -->
<svg width="179pt" height="64pt"
 viewBox="0.00 0.00 179.00 64.00" xmlns="http://www.w3.org/2000/svg" xmlns:xlink="http://www.w3.org/1999/xlink">
<g id="graph0" class="graph" transform="scale(1 1) rotate(0) translate(4 60)">
<title>cleanup</title>
<!-- Node1 -->
<g id="Node000001" class="node">
<title>Node1</title>
<g id="a_Node000001"><a xlink:title="Destroy the type&#45;erased object (if not empty), and deallocate the memory if necessary.">
<polygon fill="#999999" stroke="#666666" points="171,-37 116,-37 116,-18 171,-18 171,-37"/>
<text text-anchor="middle" x="143.5" y="-25" font-family="Helvetica,sans-Serif" font-size="10.00">cleanup</text>
</a>
</g>
</g>
<!-- Node2 -->
<g id="Node000002" class="node">
<title>Node2</title>
<g id="a_Node000002"><a xlink:href="classalpaqa_1_1util_1_1TypeErased.html#a5e33ed4b3e1700f789f9866c319c9bce" target="_top" xlink:title="Destructor.">
<polygon fill="white" stroke="#666666" points="80,-56 0,-56 0,-37 80,-37 80,-56"/>
<text text-anchor="middle" x="40" y="-44" font-family="Helvetica,sans-Serif" font-size="10.00">~TypeErased</text>
</a>
</g>
</g>
<!-- Node1&#45;&gt;Node2 -->
<g id="edge1_Node000001_Node000002" class="edge">
<title>Node1&#45;&gt;Node2</title>
<g id="a_edge1_Node000001_Node000002"><a xlink:title=" ">
<path fill="none" stroke="#63b8ff" d="M105.94,-34.34C97.55,-35.91 88.59,-37.59 80.09,-39.18"/>
<polygon fill="#63b8ff" stroke="#63b8ff" points="106.65,-37.77 115.83,-32.49 105.36,-30.89 106.65,-37.77"/>
</a>
</g>
</g>
<!-- Node3 -->
<g id="Node000003" class="node">
<title>Node3</title>
<g id="a_Node000003"><a xlink:href="classalpaqa_1_1util_1_1TypeErased.html#ab2e7ab1a4dd3191ddfa7b0e83f7761fa" target="_top" xlink:title="Move assignment.">
<polygon fill="white" stroke="#666666" points="73,-19 7,-19 7,0 73,0 73,-19"/>
<text text-anchor="middle" x="40" y="-7" font-family="Helvetica,sans-Serif" font-size="10.00">operator=</text>
</a>
</g>
</g>
<!-- Node1&#45;&gt;Node3 -->
<g id="edge2_Node000001_Node000003" class="edge">
<title>Node1&#45;&gt;Node3</title>
<g id="a_edge2_Node000001_Node000003"><a xlink:title=" ">
<path fill="none" stroke="#63b8ff" d="M105.94,-21.02C95.26,-19.12 83.67,-17.07 73.28,-15.22"/>
<polygon fill="#63b8ff" stroke="#63b8ff" points="105.37,-24.47 115.83,-22.77 106.6,-17.58 105.37,-24.47"/>
</a>
</g>
</g>
</g>
</svg>
