<?xml version="1.0" encoding="UTF-8" standalone="no"?>
<!DOCTYPE svg PUBLIC "-//W3C//DTD SVG 1.1//EN"
 "http://www.w3.org/Graphics/SVG/1.1/DTD/svg11.dtd">
<!-- Generated by graphviz version 2.43.0 (0)
 -->
<!-- Title: parse_duration Pages: 1 -->
<svg width="419pt" height="64pt"
 viewBox="0.00 0.00 419.00 64.00" xmlns="http://www.w3.org/2000/svg" xmlns:xlink="http://www.w3.org/1999/xlink">
<g id="graph0" class="graph" transform="scale(1 1) rotate(0) translate(4 60)">
<title>parse_duration</title>
<!-- Node1 -->
<g id="Node000001" class="node">
<title>Node1</title>
<g id="a_Node000001"><a xlink:title="Adds the sum of the durations in the string s to the duration t.">
<polygon fill="#999999" stroke="#666666" points="89,-37 0,-37 0,-18 89,-18 89,-37"/>
<text text-anchor="middle" x="44.5" y="-25" font-family="Helvetica,sans-Serif" font-size="10.00">parse_duration</text>
</a>
</g>
</g>
<!-- Node2 -->
<g id="Node000002" class="node">
<title>Node2</title>
<g id="a_Node000002"><a xlink:href="namespacealpaqa_1_1util.html#a2803e4b1b7bfcfd27157e478e735c235" target="_top" xlink:title="Adds the first duration in the string s to the duration t.">
<polygon fill="white" stroke="#666666" points="249,-37 125,-37 125,-18 249,-18 249,-37"/>
<text text-anchor="middle" x="187" y="-25" font-family="Helvetica,sans-Serif" font-size="10.00">parse_single_duration</text>
</a>
</g>
</g>
<!-- Node1&#45;&gt;Node2 -->
<g id="edge1_Node000001_Node000002" class="edge">
<title>Node1&#45;&gt;Node2</title>
<g id="a_edge1_Node000001_Node000002"><a xlink:title=" ">
<path fill="none" stroke="#63b8ff" d="M89.18,-27.5C97.29,-27.5 105.95,-27.5 114.63,-27.5"/>
<polygon fill="#63b8ff" stroke="#63b8ff" points="114.8,-31 124.8,-27.5 114.8,-24 114.8,-31"/>
</a>
</g>
</g>
<!-- Node3 -->
<g id="Node000003" class="node">
<title>Node3</title>
<g id="a_Node000003"><a xlink:href="demangled-typename_8cpp.html#a994032931a27ca4de5eea3f786057b17" target="_top" xlink:title="Get the pretty name of the given type as a string.">
<polygon fill="white" stroke="#666666" points="411,-56 285,-56 285,-37 411,-37 411,-56"/>
<text text-anchor="middle" x="348" y="-44" font-family="Helvetica,sans-Serif" font-size="10.00">demangled_typename</text>
</a>
</g>
</g>
<!-- Node2&#45;&gt;Node3 -->
<g id="edge2_Node000002_Node000003" class="edge">
<title>Node2&#45;&gt;Node3</title>
<g id="a_edge2_Node000002_Node000003"><a xlink:title=" ">
<path fill="none" stroke="#63b8ff" d="M249.02,-34.79C257.45,-35.8 266.18,-36.84 274.8,-37.87"/>
<polygon fill="#63b8ff" stroke="#63b8ff" points="274.48,-41.36 284.83,-39.07 275.32,-34.41 274.48,-41.36"/>
</a>
</g>
</g>
<!-- Node4 -->
<g id="Node000004" class="node">
<title>Node4</title>
<g id="a_Node000004"><a xlink:href="namespacealpaqa_1_1util.html#a8d08e39b0a4742aea14e6e2bd145db22" target="_top" xlink:title=" ">
<polygon fill="white" stroke="#666666" points="383.5,-19 312.5,-19 312.5,0 383.5,0 383.5,-19"/>
<text text-anchor="middle" x="348" y="-7" font-family="Helvetica,sans-Serif" font-size="10.00">from_chars</text>
</a>
</g>
</g>
<!-- Node2&#45;&gt;Node4 -->
<g id="edge3_Node000002_Node000004" class="edge">
<title>Node2&#45;&gt;Node4</title>
<g id="a_edge3_Node000002_Node000004"><a xlink:title=" ">
<path fill="none" stroke="#63b8ff" d="M249.02,-20.59C266.55,-18.61 285.35,-16.48 301.74,-14.62"/>
<polygon fill="#63b8ff" stroke="#63b8ff" points="302.59,-18.05 312.13,-13.45 301.8,-11.09 302.59,-18.05"/>
</a>
</g>
</g>
</g>
</svg>
