<?xml version="1.0" encoding="UTF-8" standalone="no"?>
<!DOCTYPE svg PUBLIC "-//W3C//DTD SVG 1.1//EN"
 "http://www.w3.org/Graphics/SVG/1.1/DTD/svg11.dtd">
<!-- Generated by graphviz version 2.43.0 (0)
 -->
<!-- Title: SparsityConverter&lt; SparseCSC&lt; Conf, StorageIndexFrom &gt;, SparseCSC&lt; Conf, StorageIndexTo &gt; &gt; Pages: 1 -->
<svg width="250pt" height="377pt"
 viewBox="0.00 0.00 250.00 377.00" xmlns="http://www.w3.org/2000/svg" xmlns:xlink="http://www.w3.org/1999/xlink">

<svg id="main" version="1.1" xmlns="http://www.w3.org/2000/svg" xmlns:xlink="http://www.w3.org/1999/xlink" xml:space="preserve" onload="init(evt)">
<style type="text/css"><![CDATA[
.node, .edge {opacity: 0.7;}
.node.selected, .edge.selected {opacity: 1;}
.edge:hover path { stroke: red; }
.edge:hover polygon { stroke: red; fill: red; }
]]></style>
<script type="application/ecmascript" xlink:href="svg.min.js"/>
<svg id="graph" class="graph">
<g id="graph0" class="graph" transform="scale(1 1) rotate(0) translate(4 373)">
<title>SparsityConverter&lt; SparseCSC&lt; Conf, StorageIndexFrom &gt;, SparseCSC&lt; Conf, StorageIndexTo &gt; &gt;</title>
<!-- Node1 -->
<g id="Node000001" class="node">
<title>Node1</title>
<g id="a_Node000001"><a xlink:title=" ">
<polygon fill="#999999" stroke="transparent" points="242,-187 0,-187 0,0 242,0 242,-187"/>
<text text-anchor="start" x="5" y="-174.5" font-family="Helvetica,sans-Serif" font-size="10.00">SparsityConverter&lt;</text>
<text text-anchor="start" x="5" y="-163.5" font-family="Helvetica,sans-Serif" font-size="10.00"> SparseCSC&lt; Conf, StorageIndex</text>
<text text-anchor="start" x="5" y="-152.5" font-family="Helvetica,sans-Serif" font-size="10.00">From &gt;, SparseCSC&lt; Conf, StorageIndexTo &gt; &gt;</text>
<text text-anchor="start" x="27" y="-137.5" font-family="Helvetica,sans-Serif" font-size="10.00">+</text>
<text text-anchor="start" x="63" y="-137.5" font-family="Helvetica,sans-Serif" font-size="10.00">inner_idx</text>
<text text-anchor="start" x="27" y="-122.5" font-family="Helvetica,sans-Serif" font-size="10.00">+</text>
<text text-anchor="start" x="63" y="-122.5" font-family="Helvetica,sans-Serif" font-size="10.00">outer_ptr</text>
<text text-anchor="start" x="27" y="-107.5" font-family="Helvetica,sans-Serif" font-size="10.00">+</text>
<text text-anchor="start" x="63" y="-107.5" font-family="Helvetica,sans-Serif" font-size="10.00">permutation</text>
<text text-anchor="start" x="27" y="-92.5" font-family="Helvetica,sans-Serif" font-size="10.00">+</text>
<text text-anchor="start" x="63" y="-92.5" font-family="Helvetica,sans-Serif" font-size="10.00">work</text>
<text text-anchor="start" x="27" y="-77.5" font-family="Helvetica,sans-Serif" font-size="10.00">+</text>
<text text-anchor="start" x="63" y="-77.5" font-family="Helvetica,sans-Serif" font-size="10.00">convert_sparsity()</text>
<text text-anchor="start" x="27" y="-62.5" font-family="Helvetica,sans-Serif" font-size="10.00">+</text>
<text text-anchor="start" x="63" y="-62.5" font-family="Helvetica,sans-Serif" font-size="10.00">SparsityConverter()</text>
<text text-anchor="start" x="27" y="-47.5" font-family="Helvetica,sans-Serif" font-size="10.00">+</text>
<text text-anchor="start" x="63" y="-47.5" font-family="Helvetica,sans-Serif" font-size="10.00">operator const to_sparsity</text>
<text text-anchor="start" x="63" y="-36.5" font-family="Helvetica,sans-Serif" font-size="10.00">_t &amp;()</text>
<text text-anchor="start" x="27" y="-21.5" font-family="Helvetica,sans-Serif" font-size="10.00">+</text>
<text text-anchor="start" x="63" y="-21.5" font-family="Helvetica,sans-Serif" font-size="10.00">get_sparsity()</text>
<text text-anchor="start" x="27" y="-6.5" font-family="Helvetica,sans-Serif" font-size="10.00">+</text>
<text text-anchor="start" x="63" y="-6.5" font-family="Helvetica,sans-Serif" font-size="10.00">convert_values()</text>
<polygon fill="#666666" stroke="#666666" points="0,-147.5 0,-147.5 242,-147.5 242,-147.5 0,-147.5"/>
<polygon fill="#666666" stroke="#666666" points="0,-87.5 0,-87.5 61,-87.5 61,-87.5 0,-87.5"/>
<polygon fill="#666666" stroke="#666666" points="61,-87.5 61,-87.5 242,-87.5 242,-87.5 61,-87.5"/>
<polygon fill="none" stroke="#666666" points="0,0 0,-187 242,-187 242,0 0,0"/>
</a>
</g>
</g>
<!-- Node2 -->
<g id="Node000002" class="node">
<title>Node2</title>
<g id="a_Node000002"><a xlink:href="structalpaqa_1_1sparsity_1_1SparseCSC.html" target="_top" xlink:title=" ">
<polygon fill="white" stroke="transparent" points="191,-369 51,-369 51,-234 191,-234 191,-369"/>
<text text-anchor="start" x="56" y="-356.5" font-family="Helvetica,sans-Serif" font-size="10.00">SparseCSC&lt; Conf, Storage</text>
<text text-anchor="start" x="96.5" y="-345.5" font-family="Helvetica,sans-Serif" font-size="10.00">IndexTo &gt;</text>
<text text-anchor="start" x="72" y="-330.5" font-family="Helvetica,sans-Serif" font-size="10.00">+</text>
<text text-anchor="start" x="102" y="-330.5" font-family="Helvetica,sans-Serif" font-size="10.00">rows</text>
<text text-anchor="start" x="72" y="-315.5" font-family="Helvetica,sans-Serif" font-size="10.00">+</text>
<text text-anchor="start" x="102" y="-315.5" font-family="Helvetica,sans-Serif" font-size="10.00">cols</text>
<text text-anchor="start" x="72" y="-300.5" font-family="Helvetica,sans-Serif" font-size="10.00">+</text>
<text text-anchor="start" x="102" y="-300.5" font-family="Helvetica,sans-Serif" font-size="10.00">symmetry</text>
<text text-anchor="start" x="72" y="-285.5" font-family="Helvetica,sans-Serif" font-size="10.00">+</text>
<text text-anchor="start" x="102" y="-285.5" font-family="Helvetica,sans-Serif" font-size="10.00">inner_idx</text>
<text text-anchor="start" x="72" y="-270.5" font-family="Helvetica,sans-Serif" font-size="10.00">+</text>
<text text-anchor="start" x="102" y="-270.5" font-family="Helvetica,sans-Serif" font-size="10.00">outer_ptr</text>
<text text-anchor="start" x="72" y="-255.5" font-family="Helvetica,sans-Serif" font-size="10.00">+</text>
<text text-anchor="start" x="102" y="-255.5" font-family="Helvetica,sans-Serif" font-size="10.00">order</text>
<text text-anchor="start" x="72" y="-240.5" font-family="Helvetica,sans-Serif" font-size="10.00">+</text>
<text text-anchor="start" x="102" y="-240.5" font-family="Helvetica,sans-Serif" font-size="10.00">nnz()</text>
<polygon fill="#666666" stroke="#666666" points="51,-340.5 51,-340.5 191,-340.5 191,-340.5 51,-340.5"/>
<polygon fill="#666666" stroke="#666666" points="51,-250.5 51,-250.5 100,-250.5 100,-250.5 51,-250.5"/>
<polygon fill="#666666" stroke="#666666" points="100,-250.5 100,-250.5 191,-250.5 191,-250.5 100,-250.5"/>
<polygon fill="none" stroke="#666666" points="51,-234 51,-369 191,-369 191,-234 51,-234"/>
</a>
</g>
</g>
<!-- Node2&#45;&gt;Node1 -->
<g id="edge1_Node000001_Node000002" class="edge">
<title>Node2&#45;&gt;Node1</title>
<g id="a_edge1_Node000001_Node000002"><a xlink:title=" ">
<path fill="none" stroke="#63b8ff" d="M121,-233.9C121,-222.82 121,-211.1 121,-199.34"/>
<polygon fill="none" stroke="#63b8ff" points="121,-199.1 117,-193.1 121,-187.1 125,-193.1 121,-199.1"/>
</a>
</g>
<text text-anchor="middle" x="146.5" y="-208" font-family="Helvetica,sans-Serif" font-size="10.00" fill="grey"> +sparsity</text>
</g>
</g>
</svg>
</svg>

<style type='text/css'>
<![CDATA[
[data-mouse-over-selected='false'] { opacity: 0.7; }
[data-mouse-over-selected='true']  { opacity: 1.0; }
]]>
</style>
<script type="application/ecmascript"><![CDATA[
document.addEventListener('DOMContentLoaded', (event) => {
  highlightEdges();
  highlightAdjacentNodes();
});
]]></script>
</svg>
