<?xml version="1.0" encoding="UTF-8" standalone="no"?>
<!DOCTYPE svg PUBLIC "-//W3C//DTD SVG 1.1//EN"
 "http://www.w3.org/Graphics/SVG/1.1/DTD/svg11.dtd">
<!-- Generated by graphviz version 2.43.0 (0)
 -->
<!-- Title: alpaqa_problem_register_t Pages: 1 -->
<svg width="442pt" height="646pt"
 viewBox="0.00 0.00 441.50 646.00" xmlns="http://www.w3.org/2000/svg" xmlns:xlink="http://www.w3.org/1999/xlink">
<g id="graph0" class="graph" transform="scale(1 1) rotate(0) translate(4 642)">
<title>alpaqa_problem_register_t</title>
<!-- Node1 -->
<g id="Node000001" class="node">
<title>Node1</title>
<g id="a_Node000001"><a xlink:title=" ">
<polygon fill="#999999" stroke="transparent" points="299,-79 158,-79 158,0 299,0 299,-79"/>
<text text-anchor="start" x="163.5" y="-66.5" font-family="Helvetica,sans-Serif" font-size="10.00">alpaqa_problem_register_t</text>
<text text-anchor="start" x="178" y="-51.5" font-family="Helvetica,sans-Serif" font-size="10.00">+</text>
<text text-anchor="start" x="206.5" y="-51.5" font-family="Helvetica,sans-Serif" font-size="10.00">abi_version</text>
<text text-anchor="start" x="178" y="-36.5" font-family="Helvetica,sans-Serif" font-size="10.00">+</text>
<text text-anchor="start" x="206.5" y="-36.5" font-family="Helvetica,sans-Serif" font-size="10.00">instance</text>
<text text-anchor="start" x="178" y="-21.5" font-family="Helvetica,sans-Serif" font-size="10.00">+</text>
<text text-anchor="start" x="206.5" y="-21.5" font-family="Helvetica,sans-Serif" font-size="10.00">cleanup</text>
<text text-anchor="start" x="227" y="-6.5" font-family="Helvetica,sans-Serif" font-size="10.00"> </text>
<polygon fill="#666666" stroke="#666666" points="158.5,-61.5 158.5,-61.5 299.5,-61.5 299.5,-61.5 158.5,-61.5"/>
<polygon fill="#666666" stroke="#666666" points="158.5,-16.5 158.5,-16.5 204.5,-16.5 204.5,-16.5 158.5,-16.5"/>
<polygon fill="#666666" stroke="#666666" points="204.5,-16.5 204.5,-16.5 299.5,-16.5 299.5,-16.5 204.5,-16.5"/>
<polygon fill="none" stroke="#666666" points="158,0 158,-79 299,-79 299,0 158,0"/>
</a>
</g>
</g>
<!-- Node2 -->
<g id="Node000002" class="node">
<title>Node2</title>
<g id="a_Node000002"><a xlink:href="structalpaqa__problem__functions__t.html" target="_top" xlink:title="C API providing function pointers to problem functions.">
<polygon fill="white" stroke="transparent" points="149,-505 0,-505 0,-126 149,-126 149,-505"/>
<text text-anchor="start" x="5.5" y="-492.5" font-family="Helvetica,sans-Serif" font-size="10.00">alpaqa_problem_functions_t</text>
<text text-anchor="start" x="5.5" y="-477.5" font-family="Helvetica,sans-Serif" font-size="10.00">+</text>
<text text-anchor="start" x="19.5" y="-477.5" font-family="Helvetica,sans-Serif" font-size="10.00">n</text>
<text text-anchor="start" x="5.5" y="-462.5" font-family="Helvetica,sans-Serif" font-size="10.00">+</text>
<text text-anchor="start" x="19.5" y="-462.5" font-family="Helvetica,sans-Serif" font-size="10.00">m</text>
<text text-anchor="start" x="5.5" y="-447.5" font-family="Helvetica,sans-Serif" font-size="10.00">+</text>
<text text-anchor="start" x="19.5" y="-447.5" font-family="Helvetica,sans-Serif" font-size="10.00">eval_f</text>
<text text-anchor="start" x="5.5" y="-432.5" font-family="Helvetica,sans-Serif" font-size="10.00">+</text>
<text text-anchor="start" x="19.5" y="-432.5" font-family="Helvetica,sans-Serif" font-size="10.00">eval_grad_f</text>
<text text-anchor="start" x="5.5" y="-417.5" font-family="Helvetica,sans-Serif" font-size="10.00">+</text>
<text text-anchor="start" x="19.5" y="-417.5" font-family="Helvetica,sans-Serif" font-size="10.00">eval_g</text>
<text text-anchor="start" x="5.5" y="-402.5" font-family="Helvetica,sans-Serif" font-size="10.00">+</text>
<text text-anchor="start" x="19.5" y="-402.5" font-family="Helvetica,sans-Serif" font-size="10.00">eval_grad_g_prod</text>
<text text-anchor="start" x="5.5" y="-387.5" font-family="Helvetica,sans-Serif" font-size="10.00">+</text>
<text text-anchor="start" x="19.5" y="-387.5" font-family="Helvetica,sans-Serif" font-size="10.00">eval_jac_g</text>
<text text-anchor="start" x="5.5" y="-372.5" font-family="Helvetica,sans-Serif" font-size="10.00">+</text>
<text text-anchor="start" x="19.5" y="-372.5" font-family="Helvetica,sans-Serif" font-size="10.00">eval_grad_gi</text>
<text text-anchor="start" x="5.5" y="-357.5" font-family="Helvetica,sans-Serif" font-size="10.00">+</text>
<text text-anchor="start" x="19.5" y="-357.5" font-family="Helvetica,sans-Serif" font-size="10.00">eval_hess_L_prod</text>
<text text-anchor="start" x="5.5" y="-342.5" font-family="Helvetica,sans-Serif" font-size="10.00">+</text>
<text text-anchor="start" x="19.5" y="-342.5" font-family="Helvetica,sans-Serif" font-size="10.00">eval_hess_L</text>
<text text-anchor="start" x="5.5" y="-327.5" font-family="Helvetica,sans-Serif" font-size="10.00">+</text>
<text text-anchor="start" x="19.5" y="-327.5" font-family="Helvetica,sans-Serif" font-size="10.00">eval_hess_ψ_prod</text>
<text text-anchor="start" x="5.5" y="-312.5" font-family="Helvetica,sans-Serif" font-size="10.00">+</text>
<text text-anchor="start" x="19.5" y="-312.5" font-family="Helvetica,sans-Serif" font-size="10.00">eval_hess_ψ</text>
<text text-anchor="start" x="5.5" y="-297.5" font-family="Helvetica,sans-Serif" font-size="10.00">+</text>
<text text-anchor="start" x="19.5" y="-297.5" font-family="Helvetica,sans-Serif" font-size="10.00">eval_f_grad_f</text>
<text text-anchor="start" x="5.5" y="-282.5" font-family="Helvetica,sans-Serif" font-size="10.00">+</text>
<text text-anchor="start" x="19.5" y="-282.5" font-family="Helvetica,sans-Serif" font-size="10.00">eval_f_g</text>
<text text-anchor="start" x="5.5" y="-267.5" font-family="Helvetica,sans-Serif" font-size="10.00">+</text>
<text text-anchor="start" x="19.5" y="-267.5" font-family="Helvetica,sans-Serif" font-size="10.00">eval_grad_f_grad_g_prod</text>
<text text-anchor="start" x="5.5" y="-252.5" font-family="Helvetica,sans-Serif" font-size="10.00">+</text>
<text text-anchor="start" x="19.5" y="-252.5" font-family="Helvetica,sans-Serif" font-size="10.00">eval_grad_L</text>
<text text-anchor="start" x="5.5" y="-237.5" font-family="Helvetica,sans-Serif" font-size="10.00">+</text>
<text text-anchor="start" x="19.5" y="-237.5" font-family="Helvetica,sans-Serif" font-size="10.00">eval_ψ</text>
<text text-anchor="start" x="5.5" y="-222.5" font-family="Helvetica,sans-Serif" font-size="10.00">+</text>
<text text-anchor="start" x="19.5" y="-222.5" font-family="Helvetica,sans-Serif" font-size="10.00">eval_grad_ψ</text>
<text text-anchor="start" x="5.5" y="-207.5" font-family="Helvetica,sans-Serif" font-size="10.00">+</text>
<text text-anchor="start" x="19.5" y="-207.5" font-family="Helvetica,sans-Serif" font-size="10.00">eval_ψ_grad_ψ</text>
<text text-anchor="start" x="5.5" y="-192.5" font-family="Helvetica,sans-Serif" font-size="10.00">+</text>
<text text-anchor="start" x="19.5" y="-192.5" font-family="Helvetica,sans-Serif" font-size="10.00">eval_prox_grad_step</text>
<text text-anchor="start" x="5.5" y="-177.5" font-family="Helvetica,sans-Serif" font-size="10.00">+</text>
<text text-anchor="start" x="19.5" y="-177.5" font-family="Helvetica,sans-Serif" font-size="10.00">initialize_box_C</text>
<text text-anchor="start" x="5.5" y="-162.5" font-family="Helvetica,sans-Serif" font-size="10.00">+</text>
<text text-anchor="start" x="19.5" y="-162.5" font-family="Helvetica,sans-Serif" font-size="10.00">initialize_box_D</text>
<text text-anchor="start" x="5.5" y="-147.5" font-family="Helvetica,sans-Serif" font-size="10.00">+</text>
<text text-anchor="start" x="19.5" y="-147.5" font-family="Helvetica,sans-Serif" font-size="10.00">initialize_l1_reg</text>
<text text-anchor="start" x="73" y="-132.5" font-family="Helvetica,sans-Serif" font-size="10.00"> </text>
<polygon fill="#666666" stroke="#666666" points="0.5,-487.5 0.5,-487.5 149.5,-487.5 149.5,-487.5 0.5,-487.5"/>
<polygon fill="#666666" stroke="#666666" points="0.5,-142.5 0.5,-142.5 17.5,-142.5 17.5,-142.5 0.5,-142.5"/>
<polygon fill="#666666" stroke="#666666" points="17.5,-142.5 17.5,-142.5 149.5,-142.5 149.5,-142.5 17.5,-142.5"/>
<polygon fill="none" stroke="#666666" points="0,-126 0,-505 149,-505 149,-126 0,-126"/>
</a>
</g>
</g>
<!-- Node2&#45;&gt;Node1 -->
<g id="edge1_Node000001_Node000002" class="edge">
<title>Node2&#45;&gt;Node1</title>
<g id="a_edge1_Node000001_Node000002"><a xlink:title=" ">
<path fill="none" stroke="#63b8ff" d="M149.12,-125.78C154.93,-115.81 161.05,-106.15 167.5,-97 169.59,-94.03 171.87,-91.09 174.26,-88.22"/>
<polygon fill="none" stroke="#63b8ff" points="174.27,-88.21 175.28,-81.07 182.27,-79.26 181.25,-86.4 174.27,-88.21"/>
</a>
</g>
<text text-anchor="middle" x="196" y="-100" font-family="Helvetica,sans-Serif" font-size="10.00" fill="grey"> +functions</text>
</g>
<!-- Node3 -->
<g id="Node000003" class="node">
<title>Node3</title>
<g id="a_Node000003"><a xlink:href="structalpaqa__sparsity__t.html" target="_top" xlink:title="Sparsity of matrices.">
<polygon fill="white" stroke="transparent" points="123,-638 26,-638 26,-574 123,-574 123,-638"/>
<text text-anchor="start" x="31.5" y="-626" font-family="Helvetica,sans-Serif" font-size="10.00">alpaqa_sparsity_t</text>
<text text-anchor="start" x="44" y="-611" font-family="Helvetica,sans-Serif" font-size="10.00">+</text>
<text text-anchor="start" x="70.5" y="-611" font-family="Helvetica,sans-Serif" font-size="10.00">@7</text>
<text text-anchor="start" x="44" y="-596" font-family="Helvetica,sans-Serif" font-size="10.00">+</text>
<text text-anchor="start" x="70.5" y="-596" font-family="Helvetica,sans-Serif" font-size="10.00">kind</text>
<text text-anchor="start" x="73" y="-581" font-family="Helvetica,sans-Serif" font-size="10.00"> </text>
<polygon fill="#666666" stroke="#666666" points="26.5,-621 26.5,-621 123.5,-621 123.5,-621 26.5,-621"/>
<polygon fill="#666666" stroke="#666666" points="26.5,-591 26.5,-591 68.5,-591 68.5,-591 26.5,-591"/>
<polygon fill="#666666" stroke="#666666" points="68.5,-591 68.5,-591 123.5,-591 123.5,-591 68.5,-591"/>
<polygon fill="none" stroke="#666666" points="26,-574 26,-638 123,-638 123,-574 26,-574"/>
</a>
</g>
</g>
<!-- Node3&#45;&gt;Node2 -->
<g id="edge2_Node000002_Node000003" class="edge">
<title>Node3&#45;&gt;Node2</title>
<g id="a_edge2_Node000002_Node000003"><a xlink:title=" ">
<path fill="none" stroke="#63b8ff" d="M74.5,-573.85C74.5,-558.67 74.5,-539.01 74.5,-517.32"/>
<polygon fill="none" stroke="#63b8ff" points="74.5,-517.07 70.5,-511.07 74.5,-505.07 78.5,-511.07 74.5,-517.07"/>
</a>
</g>
<text text-anchor="middle" x="129.5" y="-548" font-family="Helvetica,sans-Serif" font-size="10.00" fill="grey"> +get_hess_L_sparsity</text>
<text text-anchor="middle" x="129.5" y="-537" font-family="Helvetica,sans-Serif" font-size="10.00" fill="grey">+get_hess_ψ_sparsity</text>
<text text-anchor="middle" x="129.5" y="-526" font-family="Helvetica,sans-Serif" font-size="10.00" fill="grey">+get_jac_g_sparsity</text>
</g>
<!-- Node4 -->
<g id="Node000004" class="node">
<title>Node4</title>
<g id="a_Node000004"><a xlink:href="dl-problem_8h.html#structalpaqa__function__dict__s" target="_top" xlink:title=" ">
<polygon fill="white" stroke="transparent" points="289.5,-340 167.5,-340 167.5,-291 289.5,-291 289.5,-340"/>
<text text-anchor="start" x="172.5" y="-327.5" font-family="Helvetica,sans-Serif" font-size="10.00">alpaqa_function_dict_s</text>
<text text-anchor="start" x="192" y="-312.5" font-family="Helvetica,sans-Serif" font-size="10.00">+</text>
<text text-anchor="start" x="225.5" y="-312.5" font-family="Helvetica,sans-Serif" font-size="10.00">dict</text>
<text text-anchor="start" x="226.5" y="-297.5" font-family="Helvetica,sans-Serif" font-size="10.00"> </text>
<polygon fill="#666666" stroke="#666666" points="167.5,-322.5 167.5,-322.5 289.5,-322.5 289.5,-322.5 167.5,-322.5"/>
<polygon fill="#666666" stroke="#666666" points="167.5,-307.5 167.5,-307.5 223.5,-307.5 223.5,-307.5 167.5,-307.5"/>
<polygon fill="#666666" stroke="#666666" points="223.5,-307.5 223.5,-307.5 289.5,-307.5 289.5,-307.5 223.5,-307.5"/>
<polygon fill="none" stroke="#666666" points="167.5,-291 167.5,-340 289.5,-340 289.5,-291 167.5,-291"/>
</a>
</g>
</g>
<!-- Node4&#45;&gt;Node1 -->
<g id="edge3_Node000001_Node000004" class="edge">
<title>Node4&#45;&gt;Node1</title>
<g id="a_edge3_Node000001_Node000004"><a xlink:title=" ">
<path fill="none" stroke="#63b8ff" d="M228.5,-290.66C228.5,-246.42 228.5,-150.7 228.5,-91.33"/>
<polygon fill="none" stroke="#63b8ff" points="228.5,-91.24 224.5,-85.24 228.5,-79.24 232.5,-85.24 228.5,-91.24"/>
</a>
</g>
<text text-anchor="middle" x="272.5" y="-100" font-family="Helvetica,sans-Serif" font-size="10.00" fill="grey"> +extra_functions</text>
</g>
<!-- Node5 -->
<g id="Node000005" class="node">
<title>Node5</title>
<g id="a_Node000005"><a xlink:href="dl-problem_8h.html#structalpaqa__exception__ptr__s" target="_top" xlink:title=" ">
<polygon fill="white" stroke="transparent" points="433.5,-340 307.5,-340 307.5,-291 433.5,-291 433.5,-340"/>
<text text-anchor="start" x="312.5" y="-327.5" font-family="Helvetica,sans-Serif" font-size="10.00">alpaqa_exception_ptr_s</text>
<text text-anchor="start" x="333" y="-312.5" font-family="Helvetica,sans-Serif" font-size="10.00">+</text>
<text text-anchor="start" x="367.5" y="-312.5" font-family="Helvetica,sans-Serif" font-size="10.00">exc</text>
<text text-anchor="start" x="368.5" y="-297.5" font-family="Helvetica,sans-Serif" font-size="10.00"> </text>
<polygon fill="#666666" stroke="#666666" points="307.5,-322.5 307.5,-322.5 433.5,-322.5 433.5,-322.5 307.5,-322.5"/>
<polygon fill="#666666" stroke="#666666" points="307.5,-307.5 307.5,-307.5 365.5,-307.5 365.5,-307.5 307.5,-307.5"/>
<polygon fill="#666666" stroke="#666666" points="365.5,-307.5 365.5,-307.5 433.5,-307.5 433.5,-307.5 365.5,-307.5"/>
<polygon fill="none" stroke="#666666" points="307.5,-291 307.5,-340 433.5,-340 433.5,-291 307.5,-291"/>
</a>
</g>
</g>
<!-- Node5&#45;&gt;Node1 -->
<g id="edge4_Node000001_Node000005" class="edge">
<title>Node5&#45;&gt;Node1</title>
<g id="a_edge4_Node000001_Node000005"><a xlink:title=" ">
<path fill="none" stroke="#63b8ff" d="M370.81,-290.84C370.23,-248.11 363.57,-156.94 320.5,-97 317.06,-92.21 313.07,-87.74 308.73,-83.59"/>
<polygon fill="none" stroke="#63b8ff" points="308.45,-83.36 301.3,-82.47 299.37,-75.52 306.52,-76.41 308.45,-83.36"/>
</a>
</g>
<text text-anchor="middle" x="356.5" y="-100" font-family="Helvetica,sans-Serif" font-size="10.00" fill="grey"> +exception</text>
</g>
</g>
</svg>
