<?xml version="1.0" encoding="UTF-8" standalone="no"?>
<!DOCTYPE svg PUBLIC "-//W3C//DTD SVG 1.1//EN"
 "http://www.w3.org/Graphics/SVG/1.1/DTD/svg11.dtd">
<!-- Generated by graphviz version 2.43.0 (0)
 -->
<!-- Title: resize Pages: 1 -->
<svg width="131pt" height="66pt"
 viewBox="0.00 0.00 131.00 66.00" xmlns="http://www.w3.org/2000/svg" xmlns:xlink="http://www.w3.org/1999/xlink">
<g id="graph0" class="graph" transform="scale(1 1) rotate(0) translate(4 62)">
<title>resize</title>
<polygon fill="white" stroke="transparent" points="-4,4 -4,-62 127,-62 127,4 -4,4"/>
<!-- Node1 -->
<g id="node1" class="node">
<title>Node1</title>
<g id="a_node1"><a xlink:title="Re&#45;allocate storage for a problem with a different size.">
<polygon fill="#bfbfbf" stroke="black" points="0,-19.5 0,-38.5 46,-38.5 46,-19.5 0,-19.5"/>
<text text-anchor="middle" x="23" y="-26.5" font-family="Helvetica,sans-Serif" font-size="10.00">resize</text>
</a>
</g>
</g>
<!-- Node2 -->
<g id="node2" class="node">
<title>Node2</title>
<g id="a_node2"><a xlink:href="classalpaqa_1_1LBFGS.html#ac88f0961aa7ed7c7415550ab2cad49c8" target="_top" xlink:title="Get the size of the s and y vectors in the buffer.">
<polygon fill="white" stroke="black" points="88,-38.5 88,-57.5 117,-57.5 117,-38.5 88,-38.5"/>
<text text-anchor="middle" x="102.5" y="-45.5" font-family="Helvetica,sans-Serif" font-size="10.00">n</text>
</a>
</g>
</g>
<!-- Node1&#45;&gt;Node2 -->
<g id="edge1" class="edge">
<title>Node1&#45;&gt;Node2</title>
<path fill="none" stroke="midnightblue" d="M46,-34.39C55.97,-36.84 67.76,-39.73 77.91,-42.22"/>
<polygon fill="midnightblue" stroke="midnightblue" points="77.19,-45.64 87.74,-44.63 78.86,-38.85 77.19,-45.64"/>
</g>
<!-- Node3 -->
<g id="node3" class="node">
<title>Node3</title>
<g id="a_node3"><a xlink:href="classalpaqa_1_1LBFGS.html#ad20897c5c8bd47f5d4005989bead0e55" target="_top" xlink:title="Throw away the approximation and all previous vectors s and y.">
<polygon fill="white" stroke="black" points="82,-0.5 82,-19.5 123,-19.5 123,-0.5 82,-0.5"/>
<text text-anchor="middle" x="102.5" y="-7.5" font-family="Helvetica,sans-Serif" font-size="10.00">reset</text>
</a>
</g>
</g>
<!-- Node1&#45;&gt;Node3 -->
<g id="edge2" class="edge">
<title>Node1&#45;&gt;Node3</title>
<path fill="none" stroke="midnightblue" d="M46,-23.61C54.11,-21.62 63.42,-19.34 72.08,-17.21"/>
<polygon fill="midnightblue" stroke="midnightblue" points="72.95,-20.6 81.82,-14.82 71.28,-13.81 72.95,-20.6"/>
</g>
</g>
</svg>
