<?xml version="1.0" encoding="UTF-8" standalone="no"?>
<!DOCTYPE svg PUBLIC "-//W3C//DTD SVG 1.1//EN"
 "http://www.w3.org/Graphics/SVG/1.1/DTD/svg11.dtd">
<!-- Generated by graphviz version 2.43.0 (0)
 -->
<!-- Title: x Pages: 1 -->
<svg width="511pt" height="153pt"
 viewBox="0.00 0.00 511.00 153.00" xmlns="http://www.w3.org/2000/svg" xmlns:xlink="http://www.w3.org/1999/xlink">
<g id="graph0" class="graph" transform="scale(1 1) rotate(0) translate(4 149)">
<title>x</title>
<polygon fill="white" stroke="transparent" points="-4,4 -4,-149 507,-149 507,4 -4,4"/>
<!-- Node1 -->
<g id="node1" class="node">
<title>Node1</title>
<g id="a_node1"><a xlink:title=" ">
<polygon fill="#bfbfbf" stroke="black" points="474,-57.5 474,-76.5 503,-76.5 503,-57.5 474,-57.5"/>
<text text-anchor="middle" x="488.5" y="-64.5" font-family="Helvetica,sans-Serif" font-size="10.00">x</text>
</a>
</g>
</g>
<!-- Node2 -->
<g id="node2" class="node">
<title>Node2</title>
<g id="a_node2"><a xlink:href="classalpaqa_1_1SpecializedLBFGS.html#a0b030867dbee1f90710a9b23360807a3" target="_top" xlink:title="L&#45;BFGS update when changing the step size γ, recomputing everything.">
<polygon fill="white" stroke="black" points="353.5,-76.5 353.5,-95.5 424.5,-95.5 424.5,-76.5 353.5,-76.5"/>
<text text-anchor="middle" x="389" y="-83.5" font-family="Helvetica,sans-Serif" font-size="10.00">full_update</text>
</a>
</g>
</g>
<!-- Node1&#45;&gt;Node2 -->
<g id="edge1" class="edge">
<title>Node1&#45;&gt;Node2</title>
<path fill="none" stroke="midnightblue" d="M464.04,-71.57C452.3,-73.86 437.85,-76.67 424.85,-79.21"/>
<polygon fill="midnightblue" stroke="midnightblue" points="464.8,-74.99 473.94,-69.64 463.46,-68.12 464.8,-74.99"/>
</g>
<!-- Node5 -->
<g id="node5" class="node">
<title>Node5</title>
<g id="a_node5"><a xlink:href="classalpaqa_1_1SpecializedLBFGS.html#a3606f78438b923b36f682fb1f91764d7" target="_top" xlink:title="Initialize with the starting point x₀ and the gradient in that point.">
<polygon fill="white" stroke="black" points="359.5,-114.5 359.5,-133.5 418.5,-133.5 418.5,-114.5 359.5,-114.5"/>
<text text-anchor="middle" x="389" y="-121.5" font-family="Helvetica,sans-Serif" font-size="10.00">initialize</text>
</a>
</g>
</g>
<!-- Node1&#45;&gt;Node5 -->
<g id="edge4" class="edge">
<title>Node1&#45;&gt;Node5</title>
<path fill="none" stroke="midnightblue" d="M468.9,-83.26C459.96,-90.54 448.86,-98.84 438,-105 431.76,-108.54 424.74,-111.72 418.02,-114.42"/>
<polygon fill="midnightblue" stroke="midnightblue" points="471.31,-85.8 476.72,-76.7 466.81,-80.44 471.31,-85.8"/>
</g>
<!-- Node7 -->
<g id="node7" class="node">
<title>Node7</title>
<g id="a_node7"><a xlink:href="classalpaqa_1_1SpecializedLBFGS.html#ad20897c5c8bd47f5d4005989bead0e55" target="_top" xlink:title="Throw away the approximation and all previous vectors s and y.">
<polygon fill="white" stroke="black" points="368.5,-38.5 368.5,-57.5 409.5,-57.5 409.5,-38.5 368.5,-38.5"/>
<text text-anchor="middle" x="389" y="-45.5" font-family="Helvetica,sans-Serif" font-size="10.00">reset</text>
</a>
</g>
</g>
<!-- Node1&#45;&gt;Node7 -->
<g id="edge6" class="edge">
<title>Node1&#45;&gt;Node7</title>
<path fill="none" stroke="midnightblue" d="M463.96,-62.41C447.41,-59.19 425.52,-54.92 409.86,-51.87"/>
<polygon fill="midnightblue" stroke="midnightblue" points="463.46,-65.88 473.94,-64.36 464.8,-59.01 463.46,-65.88"/>
</g>
<!-- Node8 -->
<g id="node8" class="node">
<title>Node8</title>
<g id="a_node8"><a xlink:href="classalpaqa_1_1SpecializedLBFGS.html#a5a4a6bc855faa7998e2308d5e6d10224" target="_top" xlink:title="Standard L&#45;BFGS update without changing the step size γ.">
<polygon fill="white" stroke="black" points="340,-0.5 340,-19.5 438,-19.5 438,-0.5 340,-0.5"/>
<text text-anchor="middle" x="389" y="-7.5" font-family="Helvetica,sans-Serif" font-size="10.00">standard_update</text>
</a>
</g>
</g>
<!-- Node1&#45;&gt;Node8 -->
<g id="edge7" class="edge">
<title>Node1&#45;&gt;Node8</title>
<path fill="none" stroke="midnightblue" d="M468.9,-50.74C459.96,-43.46 448.86,-35.16 438,-29 431.76,-25.46 424.74,-22.28 418.02,-19.58"/>
<polygon fill="midnightblue" stroke="midnightblue" points="466.81,-53.56 476.72,-57.3 471.31,-48.2 466.81,-53.56"/>
</g>
<!-- Node3 -->
<g id="node3" class="node">
<title>Node3</title>
<g id="a_node3"><a xlink:href="classalpaqa_1_1SpecializedLBFGS.html#a747b26091f869cb17a768e38f17fbc8d" target="_top" xlink:title="Update the inverse Hessian approximation using the new vectors xₖ₊₁ and pₖ₊₁.">
<polygon fill="white" stroke="black" points="212,-32.5 212,-51.5 262,-51.5 262,-32.5 212,-32.5"/>
<text text-anchor="middle" x="237" y="-39.5" font-family="Helvetica,sans-Serif" font-size="10.00">update</text>
</a>
</g>
</g>
<!-- Node2&#45;&gt;Node3 -->
<g id="edge2" class="edge">
<title>Node2&#45;&gt;Node3</title>
<path fill="none" stroke="midnightblue" d="M345.84,-73.63C318.8,-65.7 284.66,-55.69 262.12,-49.07"/>
<polygon fill="midnightblue" stroke="midnightblue" points="344.87,-77 355.45,-76.45 346.84,-70.28 344.87,-77"/>
</g>
<!-- Node4 -->
<g id="node4" class="node">
<title>Node4</title>
<g id="a_node4"><a xlink:href="structalpaqa_1_1PANOCDirection_3_01SpecializedLBFGS_01_4.html#a39a241c049e8d029cc86a30a89ef92cf" target="_top" xlink:title=" ">
<polygon fill="white" stroke="black" points="0,-21.5 0,-62.5 134,-62.5 134,-21.5 0,-21.5"/>
<text text-anchor="start" x="8" y="-50.5" font-family="Helvetica,sans-Serif" font-size="10.00">alpaqa::PANOCDirection</text>
<text text-anchor="start" x="8" y="-39.5" font-family="Helvetica,sans-Serif" font-size="10.00">&lt; SpecializedLBFGS &gt;::</text>
<text text-anchor="middle" x="67" y="-28.5" font-family="Helvetica,sans-Serif" font-size="10.00">update</text>
</a>
</g>
</g>
<!-- Node3&#45;&gt;Node4 -->
<g id="edge3" class="edge">
<title>Node3&#45;&gt;Node4</title>
<path fill="none" stroke="midnightblue" d="M201.74,-42C182.27,-42 157.23,-42 134.1,-42"/>
<polygon fill="midnightblue" stroke="midnightblue" points="201.93,-45.5 211.93,-42 201.93,-38.5 201.93,-45.5"/>
</g>
<!-- Node6 -->
<g id="node6" class="node">
<title>Node6</title>
<g id="a_node6"><a xlink:href="structalpaqa_1_1PANOCDirection_3_01SpecializedLBFGS_01_4.html#a47b667371126ccfdb51898d979f2c786" target="_top" xlink:title=" ">
<polygon fill="white" stroke="black" points="170,-103.5 170,-144.5 304,-144.5 304,-103.5 170,-103.5"/>
<text text-anchor="start" x="178" y="-132.5" font-family="Helvetica,sans-Serif" font-size="10.00">alpaqa::PANOCDirection</text>
<text text-anchor="start" x="178" y="-121.5" font-family="Helvetica,sans-Serif" font-size="10.00">&lt; SpecializedLBFGS &gt;::</text>
<text text-anchor="middle" x="237" y="-110.5" font-family="Helvetica,sans-Serif" font-size="10.00">initialize</text>
</a>
</g>
</g>
<!-- Node5&#45;&gt;Node6 -->
<g id="edge5" class="edge">
<title>Node5&#45;&gt;Node6</title>
<path fill="none" stroke="midnightblue" d="M349.34,-124C335.53,-124 319.55,-124 304.08,-124"/>
<polygon fill="midnightblue" stroke="midnightblue" points="349.43,-127.5 359.43,-124 349.43,-120.5 349.43,-127.5"/>
</g>
<!-- Node8&#45;&gt;Node3 -->
<g id="edge8" class="edge">
<title>Node8&#45;&gt;Node3</title>
<path fill="none" stroke="midnightblue" d="M333.5,-21.63C309.03,-26.85 281.42,-32.74 262.2,-36.84"/>
<polygon fill="midnightblue" stroke="midnightblue" points="334.35,-25.02 343.4,-19.51 332.89,-18.18 334.35,-25.02"/>
</g>
</g>
</svg>
