<?xml version="1.0" encoding="UTF-8" standalone="no"?>
<!DOCTYPE svg PUBLIC "-//W3C//DTD SVG 1.1//EN"
 "http://www.w3.org/Graphics/SVG/1.1/DTD/svg11.dtd">
<!-- Generated by graphviz version 2.43.0 (0)
 -->
<!-- Title: PANOCSolver&lt; DirectionProviderT &gt; Pages: 1 -->
<svg width="366pt" height="518pt"
 viewBox="0.00 0.00 365.50 518.00" xmlns="http://www.w3.org/2000/svg" xmlns:xlink="http://www.w3.org/1999/xlink">
<g id="graph0" class="graph" transform="scale(1 1) rotate(0) translate(4 514)">
<title>PANOCSolver&lt; DirectionProviderT &gt;</title>
<polygon fill="white" stroke="transparent" points="-4,4 -4,-514 361.5,-514 361.5,4 -4,4"/>
<!-- Node1 -->
<g id="node1" class="node">
<title>Node1</title>
<g id="a_node1"><a xlink:title="PANOC solver for ALM.">
<polygon fill="#bfbfbf" stroke="black" points="118.5,-0.5 118.5,-134.5 312.5,-134.5 312.5,-0.5 118.5,-0.5"/>
<text text-anchor="middle" x="215.5" y="-122.5" font-family="Helvetica,sans-Serif" font-size="10.00">PANOCSolver&lt; DirectionProviderT &gt;</text>
<polyline fill="none" stroke="black" points="118.5,-115.5 312.5,-115.5 "/>
<text text-anchor="start" x="126.5" y="-103.5" font-family="Helvetica,sans-Serif" font-size="10.00">+ direction_provider</text>
<text text-anchor="start" x="126.5" y="-92.5" font-family="Helvetica,sans-Serif" font-size="10.00">&#45; progress_cb</text>
<polyline fill="none" stroke="black" points="118.5,-85.5 312.5,-85.5 "/>
<text text-anchor="start" x="126.5" y="-73.5" font-family="Helvetica,sans-Serif" font-size="10.00">+ PANOCSolver()</text>
<text text-anchor="start" x="126.5" y="-62.5" font-family="Helvetica,sans-Serif" font-size="10.00">+ PANOCSolver()</text>
<text text-anchor="start" x="126.5" y="-51.5" font-family="Helvetica,sans-Serif" font-size="10.00">+ operator()()</text>
<text text-anchor="start" x="126.5" y="-40.5" font-family="Helvetica,sans-Serif" font-size="10.00">+ set_progress_callback()</text>
<text text-anchor="start" x="126.5" y="-29.5" font-family="Helvetica,sans-Serif" font-size="10.00">+ get_name()</text>
<text text-anchor="start" x="126.5" y="-18.5" font-family="Helvetica,sans-Serif" font-size="10.00">+ stop()</text>
<text text-anchor="start" x="126.5" y="-7.5" font-family="Helvetica,sans-Serif" font-size="10.00">+ get_params()</text>
</a>
</g>
</g>
<!-- Node2 -->
<g id="node2" class="node">
<title>Node2</title>
<g id="a_node2"><a xlink:href="namespacealpaqa.html#structalpaqa_1_1PANOCParams" target="_top" xlink:title="Tuning parameters for the PANOC algorithm.">
<polygon fill="white" stroke="black" points="52,-182.5 52,-371.5 217,-371.5 217,-182.5 52,-182.5"/>
<text text-anchor="middle" x="134.5" y="-359.5" font-family="Helvetica,sans-Serif" font-size="10.00">PANOCParams</text>
<polyline fill="none" stroke="black" points="52,-352.5 217,-352.5 "/>
<text text-anchor="start" x="60" y="-340.5" font-family="Helvetica,sans-Serif" font-size="10.00">+ max_iter</text>
<text text-anchor="start" x="60" y="-329.5" font-family="Helvetica,sans-Serif" font-size="10.00">+ τ_min</text>
<text text-anchor="start" x="60" y="-318.5" font-family="Helvetica,sans-Serif" font-size="10.00">+ L_min</text>
<text text-anchor="start" x="60" y="-307.5" font-family="Helvetica,sans-Serif" font-size="10.00">+ L_max</text>
<text text-anchor="start" x="60" y="-296.5" font-family="Helvetica,sans-Serif" font-size="10.00">+ stop_crit</text>
<text text-anchor="start" x="60" y="-285.5" font-family="Helvetica,sans-Serif" font-size="10.00">+ max_no_progress</text>
<text text-anchor="start" x="60" y="-274.5" font-family="Helvetica,sans-Serif" font-size="10.00">+ print_interval</text>
<text text-anchor="start" x="60" y="-263.5" font-family="Helvetica,sans-Serif" font-size="10.00">+ quadratic_upperbound</text>
<text text-anchor="start" x="60" y="-252.5" font-family="Helvetica,sans-Serif" font-size="10.00">_tolerance_factor</text>
<text text-anchor="start" x="60" y="-241.5" font-family="Helvetica,sans-Serif" font-size="10.00">+ update_lipschitz_in</text>
<text text-anchor="start" x="60" y="-230.5" font-family="Helvetica,sans-Serif" font-size="10.00">_linesearch</text>
<text text-anchor="start" x="60" y="-219.5" font-family="Helvetica,sans-Serif" font-size="10.00">+ alternative_linesearch_cond</text>
<text text-anchor="start" x="60" y="-208.5" font-family="Helvetica,sans-Serif" font-size="10.00">+ lbfgs_stepsize</text>
<polyline fill="none" stroke="black" points="52,-201.5 217,-201.5 "/>
<text text-anchor="middle" x="134.5" y="-189.5" font-family="Helvetica,sans-Serif" font-size="10.00"> </text>
</a>
</g>
</g>
<!-- Node2&#45;&gt;Node1 -->
<g id="edge1" class="edge">
<title>Node2&#45;&gt;Node1</title>
<path fill="none" stroke="#404040" d="M171.09,-182.27C175.86,-170.06 180.69,-157.66 185.34,-145.77"/>
<polygon fill="none" stroke="#404040" points="185.36,-145.71 183.81,-138.67 189.72,-134.53 191.27,-141.58 185.36,-145.71"/>
<text text-anchor="middle" x="204.5" y="-156" font-family="Helvetica,sans-Serif" font-size="10.00"> &#45;params</text>
</g>
<!-- Node3 -->
<g id="node3" class="node">
<title>Node3</title>
<g id="a_node3"><a xlink:href="namespacealpaqa.html#structalpaqa_1_1LipschitzEstimateParams" target="_top" xlink:title=" ">
<polygon fill="white" stroke="black" points="0,-419.5 0,-509.5 139,-509.5 139,-419.5 0,-419.5"/>
<text text-anchor="middle" x="69.5" y="-497.5" font-family="Helvetica,sans-Serif" font-size="10.00">LipschitzEstimateParams</text>
<polyline fill="none" stroke="black" points="0,-490.5 139,-490.5 "/>
<text text-anchor="start" x="8" y="-478.5" font-family="Helvetica,sans-Serif" font-size="10.00">+ L₀</text>
<text text-anchor="start" x="8" y="-467.5" font-family="Helvetica,sans-Serif" font-size="10.00">+ ε</text>
<text text-anchor="start" x="8" y="-456.5" font-family="Helvetica,sans-Serif" font-size="10.00">+ δ</text>
<text text-anchor="start" x="8" y="-445.5" font-family="Helvetica,sans-Serif" font-size="10.00">+ Lγ_factor</text>
<polyline fill="none" stroke="black" points="0,-438.5 139,-438.5 "/>
<text text-anchor="middle" x="69.5" y="-426.5" font-family="Helvetica,sans-Serif" font-size="10.00"> </text>
</a>
</g>
</g>
<!-- Node3&#45;&gt;Node2 -->
<g id="edge2" class="edge">
<title>Node3&#45;&gt;Node2</title>
<path fill="none" stroke="#404040" d="M85.07,-419.07C88.92,-408.07 93.22,-395.82 97.62,-383.25"/>
<polygon fill="none" stroke="#404040" points="97.72,-382.98 95.92,-375.99 101.68,-371.65 103.47,-378.64 97.72,-382.98"/>
<text text-anchor="middle" x="122" y="-393" font-family="Helvetica,sans-Serif" font-size="10.00"> +Lipschitz</text>
</g>
<!-- Node4 -->
<g id="node4" class="node">
<title>Node4</title>
<g id="a_node4"><a xlink:title=" ">
<polygon fill="white" stroke="#bfbfbf" points="157.5,-436 157.5,-493 241.5,-493 241.5,-436 157.5,-436"/>
<text text-anchor="middle" x="199.5" y="-481" font-family="Helvetica,sans-Serif" font-size="10.00">microseconds</text>
<polyline fill="none" stroke="#bfbfbf" points="157.5,-474 241.5,-474 "/>
<text text-anchor="middle" x="199.5" y="-462" font-family="Helvetica,sans-Serif" font-size="10.00"> </text>
<polyline fill="none" stroke="#bfbfbf" points="157.5,-455 241.5,-455 "/>
<text text-anchor="middle" x="199.5" y="-443" font-family="Helvetica,sans-Serif" font-size="10.00"> </text>
</a>
</g>
</g>
<!-- Node4&#45;&gt;Node2 -->
<g id="edge3" class="edge">
<title>Node4&#45;&gt;Node2</title>
<path fill="none" stroke="#404040" d="M189.77,-435.73C184.71,-421.28 178.16,-402.61 171.36,-383.19"/>
<polygon fill="none" stroke="#404040" points="171.3,-383.02 165.54,-378.69 167.33,-371.7 173.09,-376.04 171.3,-383.02"/>
<text text-anchor="middle" x="208" y="-393" font-family="Helvetica,sans-Serif" font-size="10.00"> +max_time</text>
</g>
<!-- Node5 -->
<g id="node5" class="node">
<title>Node5</title>
<g id="a_node5"><a xlink:href="classalpaqa_1_1AtomicStopSignal.html" target="_top" xlink:title=" ">
<polygon fill="white" stroke="black" points="235.5,-215.5 235.5,-338.5 357.5,-338.5 357.5,-215.5 235.5,-215.5"/>
<text text-anchor="middle" x="296.5" y="-326.5" font-family="Helvetica,sans-Serif" font-size="10.00">AtomicStopSignal</text>
<polyline fill="none" stroke="black" points="235.5,-319.5 357.5,-319.5 "/>
<text text-anchor="start" x="243.5" y="-307.5" font-family="Helvetica,sans-Serif" font-size="10.00">&#45; stop_flag</text>
<polyline fill="none" stroke="black" points="235.5,-300.5 357.5,-300.5 "/>
<text text-anchor="start" x="243.5" y="-288.5" font-family="Helvetica,sans-Serif" font-size="10.00">+ AtomicStopSignal()</text>
<text text-anchor="start" x="243.5" y="-277.5" font-family="Helvetica,sans-Serif" font-size="10.00">+ AtomicStopSignal()</text>
<text text-anchor="start" x="243.5" y="-266.5" font-family="Helvetica,sans-Serif" font-size="10.00">+ operator=()</text>
<text text-anchor="start" x="243.5" y="-255.5" font-family="Helvetica,sans-Serif" font-size="10.00">+ AtomicStopSignal()</text>
<text text-anchor="start" x="243.5" y="-244.5" font-family="Helvetica,sans-Serif" font-size="10.00">+ operator=()</text>
<text text-anchor="start" x="243.5" y="-233.5" font-family="Helvetica,sans-Serif" font-size="10.00">+ stop()</text>
<text text-anchor="start" x="243.5" y="-222.5" font-family="Helvetica,sans-Serif" font-size="10.00">+ stop_requested()</text>
</a>
</g>
</g>
<!-- Node5&#45;&gt;Node1 -->
<g id="edge4" class="edge">
<title>Node5&#45;&gt;Node1</title>
<path fill="none" stroke="#404040" d="M272.85,-215.42C264.38,-193.73 254.72,-168.97 245.77,-146.04"/>
<polygon fill="none" stroke="#404040" points="245.66,-145.77 239.76,-141.64 241.3,-134.6 247.21,-138.73 245.66,-145.77"/>
<text text-anchor="middle" x="282" y="-156" font-family="Helvetica,sans-Serif" font-size="10.00"> &#45;stop_signal</text>
</g>
</g>
</svg>
