<?xml version="1.0" encoding="UTF-8" standalone="no"?>
<!DOCTYPE svg PUBLIC "-//W3C//DTD SVG 1.1//EN"
 "http://www.w3.org/Graphics/SVG/1.1/DTD/svg11.dtd">
<!-- Generated by graphviz version 2.43.0 (0)
 -->
<!-- Title: r_succ Pages: 1 -->
<svg width="706pt" height="116pt"
 viewBox="0.00 0.00 706.00 115.50" xmlns="http://www.w3.org/2000/svg" xmlns:xlink="http://www.w3.org/1999/xlink">
<g id="graph0" class="graph" transform="scale(1 1) rotate(0) translate(4 111.5)">
<title>r_succ</title>
<polygon fill="white" stroke="transparent" points="-4,4 -4,-111.5 702,-111.5 702,4 -4,4"/>
<!-- Node1 -->
<g id="node1" class="node">
<title>Node1</title>
<g id="a_node1"><a xlink:title="Get the next index in the circular storage for R.">
<polygon fill="#bfbfbf" stroke="black" points="651,-38.5 651,-57.5 698,-57.5 698,-38.5 651,-38.5"/>
<text text-anchor="middle" x="674.5" y="-45.5" font-family="Helvetica,sans-Serif" font-size="10.00">r_succ</text>
</a>
</g>
</g>
<!-- Node2 -->
<g id="node2" class="node">
<title>Node2</title>
<g id="a_node2"><a xlink:href="classalpaqa_1_1LimitedMemoryQR.html#a5e3077223e98c1e4e286e01503f220d5" target="_top" xlink:title="Add the given column to the right.">
<polygon fill="white" stroke="black" points="529.5,-76.5 529.5,-95.5 605.5,-95.5 605.5,-76.5 529.5,-76.5"/>
<text text-anchor="middle" x="567.5" y="-83.5" font-family="Helvetica,sans-Serif" font-size="10.00">add_column</text>
</a>
</g>
</g>
<!-- Node1&#45;&gt;Node2 -->
<g id="edge1" class="edge">
<title>Node1&#45;&gt;Node2</title>
<path fill="none" stroke="midnightblue" d="M641.21,-59.69C626.42,-65.04 609.1,-71.31 595.07,-76.38"/>
<polygon fill="midnightblue" stroke="midnightblue" points="642.76,-62.85 650.97,-56.15 640.38,-56.26 642.76,-62.85"/>
</g>
<!-- Node7 -->
<g id="node7" class="node">
<title>Node7</title>
<g id="a_node7"><a xlink:href="classalpaqa_1_1LimitedMemoryQR.html#a436c4dbbf0476354ca67a104bc005e55" target="_top" xlink:title="Remove the leftmost column.">
<polygon fill="white" stroke="black" points="520,-38.5 520,-57.5 615,-57.5 615,-38.5 520,-38.5"/>
<text text-anchor="middle" x="567.5" y="-45.5" font-family="Helvetica,sans-Serif" font-size="10.00">remove_column</text>
</a>
</g>
</g>
<!-- Node1&#45;&gt;Node7 -->
<g id="edge6" class="edge">
<title>Node1&#45;&gt;Node7</title>
<path fill="none" stroke="midnightblue" d="M640.8,-48C632.68,-48 623.82,-48 615.16,-48"/>
<polygon fill="midnightblue" stroke="midnightblue" points="640.97,-51.5 650.97,-48 640.97,-44.5 640.97,-51.5"/>
</g>
<!-- Node8 -->
<g id="node8" class="node">
<title>Node8</title>
<g id="a_node8"><a xlink:href="classalpaqa_1_1LimitedMemoryQR.html#af7f8c95bb4f88ce659d9eee262afae4b" target="_top" xlink:title="Get the next index in the circular buffer.">
<polygon fill="white" stroke="black" points="536.5,-0.5 536.5,-19.5 598.5,-19.5 598.5,-0.5 536.5,-0.5"/>
<text text-anchor="middle" x="567.5" y="-7.5" font-family="Helvetica,sans-Serif" font-size="10.00">ring_next</text>
</a>
</g>
</g>
<!-- Node1&#45;&gt;Node8 -->
<g id="edge8" class="edge">
<title>Node1&#45;&gt;Node8</title>
<path fill="none" stroke="midnightblue" d="M641.21,-36.31C626.42,-30.96 609.1,-24.69 595.07,-19.62"/>
<polygon fill="midnightblue" stroke="midnightblue" points="640.38,-39.74 650.97,-39.85 642.76,-33.15 640.38,-39.74"/>
</g>
<!-- Node3 -->
<g id="node3" class="node">
<title>Node3</title>
<g id="a_node3"><a xlink:href="namespacealpaqa.html#a129a6d7bacdc8362a3c7bcbdca662742" target="_top" xlink:title="Solve one step of Anderson acceleration to find a fixed point of a function g(x):">
<polygon fill="white" stroke="black" points="344,-52 344,-82 484,-82 484,-52 344,-52"/>
<text text-anchor="start" x="352" y="-70" font-family="Helvetica,sans-Serif" font-size="10.00">alpaqa::minimize_update</text>
<text text-anchor="middle" x="414" y="-59" font-family="Helvetica,sans-Serif" font-size="10.00">_anderson</text>
</a>
</g>
</g>
<!-- Node2&#45;&gt;Node3 -->
<g id="edge2" class="edge">
<title>Node2&#45;&gt;Node3</title>
<path fill="none" stroke="midnightblue" d="M519.49,-80.1C508.31,-78.7 496.16,-77.18 484.22,-75.68"/>
<polygon fill="midnightblue" stroke="midnightblue" points="519.08,-83.58 529.44,-81.35 519.95,-76.63 519.08,-83.58"/>
</g>
<!-- Node4 -->
<g id="node4" class="node">
<title>Node4</title>
<g id="a_node4"><a xlink:href="classalpaqa_1_1AndersonAccel.html#a7cbecaa52700158ebe36c0d587791ed4" target="_top" xlink:title=" ">
<polygon fill="white" stroke="black" points="180,-77 180,-107 308,-107 308,-77 180,-77"/>
<text text-anchor="start" x="188" y="-95" font-family="Helvetica,sans-Serif" font-size="10.00">alpaqa::AndersonAccel</text>
<text text-anchor="middle" x="244" y="-84" font-family="Helvetica,sans-Serif" font-size="10.00">::compute</text>
</a>
</g>
</g>
<!-- Node3&#45;&gt;Node4 -->
<g id="edge3" class="edge">
<title>Node3&#45;&gt;Node4</title>
<path fill="none" stroke="midnightblue" d="M333.71,-78.8C325.16,-80.07 316.54,-81.35 308.22,-82.59"/>
<polygon fill="midnightblue" stroke="midnightblue" points="334.32,-82.25 343.7,-77.31 333.29,-75.32 334.32,-82.25"/>
</g>
<!-- Node6 -->
<g id="node6" class="node">
<title>Node6</title>
<g id="a_node6"><a xlink:href="classalpaqa_1_1GAAPGASolver.html#a570ec001ea8eee359be8a1b90b782cfb" target="_top" xlink:title=" ">
<polygon fill="white" stroke="black" points="180,-28 180,-58 308,-58 308,-28 180,-28"/>
<text text-anchor="start" x="188" y="-46" font-family="Helvetica,sans-Serif" font-size="10.00">alpaqa::GAAPGASolver</text>
<text text-anchor="middle" x="244" y="-35" font-family="Helvetica,sans-Serif" font-size="10.00">::operator()</text>
</a>
</g>
</g>
<!-- Node3&#45;&gt;Node6 -->
<g id="edge5" class="edge">
<title>Node3&#45;&gt;Node6</title>
<path fill="none" stroke="midnightblue" d="M333.71,-55.67C325.16,-54.45 316.54,-53.22 308.22,-52.03"/>
<polygon fill="midnightblue" stroke="midnightblue" points="333.3,-59.15 343.7,-57.1 334.29,-52.22 333.3,-59.15"/>
</g>
<!-- Node5 -->
<g id="node5" class="node">
<title>Node5</title>
<g id="a_node5"><a xlink:href="structalpaqa_1_1PANOCDirection_3_01AndersonAccel_01_4.html#a8cd152877142b9d307953209d5428969" target="_top" xlink:title=" ">
<polygon fill="white" stroke="black" points="0,-77 0,-107 144,-107 144,-77 0,-77"/>
<text text-anchor="start" x="8" y="-95" font-family="Helvetica,sans-Serif" font-size="10.00">alpaqa::PANOCDirection</text>
<text text-anchor="middle" x="72" y="-84" font-family="Helvetica,sans-Serif" font-size="10.00">&lt; AndersonAccel &gt;::apply</text>
</a>
</g>
</g>
<!-- Node4&#45;&gt;Node5 -->
<g id="edge4" class="edge">
<title>Node4&#45;&gt;Node5</title>
<path fill="none" stroke="midnightblue" d="M169.51,-92C161.07,-92 152.48,-92 144.08,-92"/>
<polygon fill="midnightblue" stroke="midnightblue" points="169.7,-95.5 179.7,-92 169.7,-88.5 169.7,-95.5"/>
</g>
<!-- Node7&#45;&gt;Node3 -->
<g id="edge7" class="edge">
<title>Node7&#45;&gt;Node3</title>
<path fill="none" stroke="midnightblue" d="M509.78,-55.11C501.4,-56.16 492.69,-57.26 484.09,-58.33"/>
<polygon fill="midnightblue" stroke="midnightblue" points="510.32,-58.57 519.81,-53.86 509.45,-51.63 510.32,-58.57"/>
</g>
</g>
</svg>
