<?xml version="1.0" encoding="UTF-8" standalone="no"?>
<!DOCTYPE svg PUBLIC "-//W3C//DTD SVG 1.1//EN"
 "http://www.w3.org/Graphics/SVG/1.1/DTD/svg11.dtd">
<!-- Generated by graphviz version 2.43.0 (0)
 -->
<!-- Title: projected_gradient_step Pages: 1 -->
<svg width="1008pt" height="335pt"
 viewBox="0.00 0.00 1008.00 334.50" xmlns="http://www.w3.org/2000/svg" xmlns:xlink="http://www.w3.org/1999/xlink">
<g id="graph0" class="graph" transform="scale(1 1) rotate(0) translate(4 330.5)">
<title>projected_gradient_step</title>
<polygon fill="white" stroke="transparent" points="-4,4 -4,-330.5 1004,-330.5 1004,4 -4,4"/>
<!-- Node1 -->
<g id="node1" class="node">
<title>Node1</title>
<g id="a_node1"><a xlink:title="Projected gradient step.">
<polygon fill="#bfbfbf" stroke="black" points="866,-169.5 866,-188.5 1000,-188.5 1000,-169.5 866,-169.5"/>
<text text-anchor="middle" x="933" y="-176.5" font-family="Helvetica,sans-Serif" font-size="10.00">projected_gradient_step</text>
</a>
</g>
</g>
<!-- Node2 -->
<g id="node2" class="node">
<title>Node2</title>
<g id="a_node2"><a xlink:href="namespacealpaqa_1_1detail.html#a164b2b3296b6868a4dd53b7c0d9d64e2" target="_top" xlink:title="Compute the ε from the stopping criterion, see PANOCStopCrit.">
<polygon fill="white" stroke="black" points="523.5,-245.5 523.5,-264.5 635.5,-264.5 635.5,-245.5 523.5,-245.5"/>
<text text-anchor="middle" x="579.5" y="-252.5" font-family="Helvetica,sans-Serif" font-size="10.00">calc_error_stop_crit</text>
</a>
</g>
</g>
<!-- Node1&#45;&gt;Node2 -->
<g id="edge1" class="edge">
<title>Node1&#45;&gt;Node2</title>
<path fill="none" stroke="midnightblue" d="M877.95,-190.69C808.37,-205.73 688.79,-231.59 624.48,-245.49"/>
<polygon fill="midnightblue" stroke="midnightblue" points="878.8,-194.08 887.84,-188.55 877.32,-187.24 878.8,-194.08"/>
</g>
<!-- Node10 -->
<g id="node10" class="node">
<title>Node10</title>
<g id="a_node10"><a xlink:href="namespacealpaqa_1_1detail.html#adaff98bd8130d1eee1f5bcaab5069026" target="_top" xlink:title=" ">
<polygon fill="white" stroke="black" points="735,-169.5 735,-188.5 782,-188.5 782,-169.5 735,-169.5"/>
<text text-anchor="middle" x="758.5" y="-176.5" font-family="Helvetica,sans-Serif" font-size="10.00">calc_x̂</text>
</a>
</g>
</g>
<!-- Node1&#45;&gt;Node10 -->
<g id="edge9" class="edge">
<title>Node1&#45;&gt;Node10</title>
<path fill="none" stroke="midnightblue" d="M855.69,-179C829.07,-179 801.18,-179 782.33,-179"/>
<polygon fill="midnightblue" stroke="midnightblue" points="855.8,-182.5 865.8,-179 855.8,-175.5 855.8,-182.5"/>
</g>
<!-- Node13 -->
<g id="node13" class="node">
<title>Node13</title>
<g id="a_node13"><a xlink:href="classalpaqa_1_1SpecializedLBFGS.html#a0b030867dbee1f90710a9b23360807a3" target="_top" xlink:title="L&#45;BFGS update when changing the step size γ, recomputing everything.">
<polygon fill="white" stroke="black" points="687,-63 687,-93 830,-93 830,-63 687,-63"/>
<text text-anchor="start" x="695" y="-81" font-family="Helvetica,sans-Serif" font-size="10.00">alpaqa::SpecializedLBFGS</text>
<text text-anchor="middle" x="758.5" y="-70" font-family="Helvetica,sans-Serif" font-size="10.00">::full_update</text>
</a>
</g>
</g>
<!-- Node1&#45;&gt;Node13 -->
<g id="edge23" class="edge">
<title>Node1&#45;&gt;Node13</title>
<path fill="none" stroke="midnightblue" d="M906.89,-164.3C874.4,-145.27 818.07,-112.29 785.26,-93.08"/>
<polygon fill="midnightblue" stroke="midnightblue" points="905.37,-167.47 915.77,-169.5 908.91,-161.43 905.37,-167.47"/>
</g>
<!-- Node3 -->
<g id="node3" class="node">
<title>Node3</title>
<g id="a_node3"><a xlink:href="classalpaqa_1_1SecondOrderPANOCSolver.html#acb04b3f19dafad9b4e7e7c1c19018d19" target="_top" xlink:title=" ">
<polygon fill="white" stroke="black" points="280,-159 280,-189 462,-189 462,-159 280,-159"/>
<text text-anchor="start" x="288" y="-177" font-family="Helvetica,sans-Serif" font-size="10.00">alpaqa::SecondOrderPANOCSolver</text>
<text text-anchor="middle" x="371" y="-166" font-family="Helvetica,sans-Serif" font-size="10.00">::operator()</text>
</a>
</g>
</g>
<!-- Node2&#45;&gt;Node3 -->
<g id="edge2" class="edge">
<title>Node2&#45;&gt;Node3</title>
<path fill="none" stroke="midnightblue" d="M554.56,-240.28C533.47,-227.84 501.58,-210.29 472,-199 462.22,-195.27 451.69,-191.94 441.26,-189.02"/>
<polygon fill="midnightblue" stroke="midnightblue" points="552.79,-243.3 563.17,-245.43 556.39,-237.3 552.79,-243.3"/>
</g>
<!-- Node4 -->
<g id="node4" class="node">
<title>Node4</title>
<g id="a_node4"><a xlink:href="classalpaqa_1_1StructuredPANOCLBFGSSolver.html#ade95d8a7a1892d4087d6fffc958cde6e" target="_top" xlink:title=" ">
<polygon fill="white" stroke="black" points="270,-110 270,-140 472,-140 472,-110 270,-110"/>
<text text-anchor="start" x="278" y="-128" font-family="Helvetica,sans-Serif" font-size="10.00">alpaqa::StructuredPANOCLBFGSSolver</text>
<text text-anchor="middle" x="371" y="-117" font-family="Helvetica,sans-Serif" font-size="10.00">::operator()</text>
</a>
</g>
</g>
<!-- Node2&#45;&gt;Node4 -->
<g id="edge3" class="edge">
<title>Node2&#45;&gt;Node4</title>
<path fill="none" stroke="midnightblue" d="M556.23,-239.33C541.7,-228.56 522.76,-213.46 508,-198 489.34,-178.45 494.51,-163.95 472,-149 466.79,-145.54 461.14,-142.58 455.27,-140.05"/>
<polygon fill="midnightblue" stroke="midnightblue" points="554.49,-242.39 564.64,-245.44 558.61,-236.73 554.49,-242.39"/>
</g>
<!-- Node5 -->
<g id="node5" class="node">
<title>Node5</title>
<g id="a_node5"><a xlink:href="classalpaqa_1_1GAAPGASolver.html#a570ec001ea8eee359be8a1b90b782cfb" target="_top" xlink:title=" ">
<polygon fill="white" stroke="black" points="307,-296 307,-326 435,-326 435,-296 307,-296"/>
<text text-anchor="start" x="315" y="-314" font-family="Helvetica,sans-Serif" font-size="10.00">alpaqa::GAAPGASolver</text>
<text text-anchor="middle" x="371" y="-303" font-family="Helvetica,sans-Serif" font-size="10.00">::operator()</text>
</a>
</g>
</g>
<!-- Node2&#45;&gt;Node5 -->
<g id="edge4" class="edge">
<title>Node2&#45;&gt;Node5</title>
<path fill="none" stroke="midnightblue" d="M538.65,-267.55C518.72,-273.69 494.16,-281.02 472,-287 460.11,-290.21 447.36,-293.44 435.08,-296.43"/>
<polygon fill="midnightblue" stroke="midnightblue" points="539.81,-270.86 548.33,-264.56 537.74,-264.17 539.81,-270.86"/>
</g>
<!-- Node6 -->
<g id="node6" class="node">
<title>Node6</title>
<g id="a_node6"><a xlink:href="classalpaqa_1_1PGASolver.html#af516b794e244432023aea7ba3cd0d1d8" target="_top" xlink:title=" ">
<polygon fill="white" stroke="black" points="314.5,-247 314.5,-277 427.5,-277 427.5,-247 314.5,-247"/>
<text text-anchor="start" x="322.5" y="-265" font-family="Helvetica,sans-Serif" font-size="10.00">alpaqa::PGASolver::</text>
<text text-anchor="middle" x="371" y="-254" font-family="Helvetica,sans-Serif" font-size="10.00">operator()</text>
</a>
</g>
</g>
<!-- Node2&#45;&gt;Node6 -->
<g id="edge5" class="edge">
<title>Node2&#45;&gt;Node6</title>
<path fill="none" stroke="midnightblue" d="M513.12,-257.22C485.63,-258.15 453.98,-259.22 427.63,-260.11"/>
<polygon fill="midnightblue" stroke="midnightblue" points="513.56,-260.7 523.43,-256.87 513.32,-253.71 513.56,-260.7"/>
</g>
<!-- Node7 -->
<g id="node7" class="node">
<title>Node7</title>
<g id="a_node7"><a xlink:href="namespacealpaqa.html#a623fe9757577812e38c5e4f85f484954" target="_top" xlink:title=" ">
<polygon fill="white" stroke="black" points="315,-208.5 315,-227.5 427,-227.5 427,-208.5 315,-208.5"/>
<text text-anchor="middle" x="371" y="-215.5" font-family="Helvetica,sans-Serif" font-size="10.00">alpaqa::panoc_impl</text>
</a>
</g>
</g>
<!-- Node2&#45;&gt;Node7 -->
<g id="edge6" class="edge">
<title>Node2&#45;&gt;Node7</title>
<path fill="none" stroke="midnightblue" d="M515.36,-243.69C486.57,-238.53 452.86,-232.49 425.36,-227.56"/>
<polygon fill="midnightblue" stroke="midnightblue" points="514.86,-247.15 525.32,-245.47 516.1,-240.26 514.86,-247.15"/>
</g>
<!-- Node8 -->
<g id="node8" class="node">
<title>Node8</title>
<g id="a_node8"><a xlink:href="namespacealpaqa.html#a376c6e914033784e80698c416693b9c7" target="_top" xlink:title=" ">
<polygon fill="white" stroke="black" points="149,-208.5 149,-227.5 234,-227.5 234,-208.5 149,-208.5"/>
<text text-anchor="middle" x="191.5" y="-215.5" font-family="Helvetica,sans-Serif" font-size="10.00">alpaqa::panoc</text>
</a>
</g>
</g>
<!-- Node7&#45;&gt;Node8 -->
<g id="edge7" class="edge">
<title>Node7&#45;&gt;Node8</title>
<path fill="none" stroke="midnightblue" d="M304.53,-218C280.98,-218 255.08,-218 234.12,-218"/>
<polygon fill="midnightblue" stroke="midnightblue" points="304.81,-221.5 314.81,-218 304.81,-214.5 304.81,-221.5"/>
</g>
<!-- Node9 -->
<g id="node9" class="node">
<title>Node9</title>
<g id="a_node9"><a xlink:href="alpaqa_8cpp.html#a52c00cccef0976f125d4a27f9906c36b" target="_top" xlink:title=" ">
<polygon fill="white" stroke="black" points="0,-208.5 0,-227.5 113,-227.5 113,-208.5 0,-208.5"/>
<text text-anchor="middle" x="56.5" y="-215.5" font-family="Helvetica,sans-Serif" font-size="10.00">PYBIND11_MODULE</text>
</a>
</g>
</g>
<!-- Node8&#45;&gt;Node9 -->
<g id="edge8" class="edge">
<title>Node8&#45;&gt;Node9</title>
<path fill="none" stroke="midnightblue" d="M138.77,-218C130.39,-218 121.68,-218 113.21,-218"/>
<polygon fill="midnightblue" stroke="midnightblue" points="138.78,-221.5 148.78,-218 138.78,-214.5 138.78,-221.5"/>
</g>
<!-- Node10&#45;&gt;Node3 -->
<g id="edge18" class="edge">
<title>Node10&#45;&gt;Node3</title>
<path fill="none" stroke="midnightblue" d="M724.81,-171.63C703.85,-167.28 675.97,-162.21 651,-160 588.08,-154.43 516.96,-158.15 462.27,-163.15"/>
<polygon fill="midnightblue" stroke="midnightblue" points="724.29,-175.09 734.8,-173.75 725.75,-168.25 724.29,-175.09"/>
</g>
<!-- Node10&#45;&gt;Node4 -->
<g id="edge19" class="edge">
<title>Node10&#45;&gt;Node4</title>
<path fill="none" stroke="midnightblue" d="M725.12,-170.27C704.12,-164.89 676.11,-158.23 651,-154 592.05,-144.06 525.49,-136.98 472.17,-132.31"/>
<polygon fill="midnightblue" stroke="midnightblue" points="724.26,-173.66 734.82,-172.79 726.02,-166.89 724.26,-173.66"/>
</g>
<!-- Node10&#45;&gt;Node5 -->
<g id="edge20" class="edge">
<title>Node10&#45;&gt;Node5</title>
<path fill="none" stroke="midnightblue" d="M747.19,-197.44C730.82,-224.65 696.09,-274.61 651,-296 582.63,-328.44 493.99,-326.91 435.16,-320.77"/>
<polygon fill="midnightblue" stroke="midnightblue" points="750.36,-198.95 752.37,-188.55 744.31,-195.43 750.36,-198.95"/>
</g>
<!-- Node10&#45;&gt;Node6 -->
<g id="edge21" class="edge">
<title>Node10&#45;&gt;Node6</title>
<path fill="none" stroke="midnightblue" d="M744.37,-196.96C726.33,-219.92 691.47,-258.57 651,-274 577.61,-301.98 485.38,-289.74 427.54,-276.98"/>
<polygon fill="midnightblue" stroke="midnightblue" points="747.36,-198.8 750.64,-188.73 741.79,-194.56 747.36,-198.8"/>
</g>
<!-- Node10&#45;&gt;Node7 -->
<g id="edge22" class="edge">
<title>Node10&#45;&gt;Node7</title>
<path fill="none" stroke="midnightblue" d="M724.75,-185.76C703.75,-189.87 675.87,-194.9 651,-198 573.66,-207.64 483.63,-213.06 427.22,-215.75"/>
<polygon fill="midnightblue" stroke="midnightblue" points="725.63,-189.16 734.75,-183.77 724.26,-182.29 725.63,-189.16"/>
</g>
<!-- Node11 -->
<g id="node11" class="node">
<title>Node11</title>
<g id="a_node11"><a xlink:href="namespacealpaqa_1_1detail.html#a3e432963691339ba0588d90186008735" target="_top" xlink:title="Increase the estimate of the Lipschitz constant of the objective gradient and decrease the step size ...">
<polygon fill="white" stroke="black" points="532,-169.5 532,-188.5 627,-188.5 627,-169.5 532,-169.5"/>
<text text-anchor="middle" x="579.5" y="-176.5" font-family="Helvetica,sans-Serif" font-size="10.00">descent_lemma</text>
</a>
</g>
</g>
<!-- Node10&#45;&gt;Node11 -->
<g id="edge10" class="edge">
<title>Node10&#45;&gt;Node11</title>
<path fill="none" stroke="midnightblue" d="M724.48,-179C697.05,-179 657.7,-179 627.07,-179"/>
<polygon fill="midnightblue" stroke="midnightblue" points="724.72,-182.5 734.72,-179 724.72,-175.5 724.72,-182.5"/>
</g>
<!-- Node12 -->
<g id="node12" class="node">
<title>Node12</title>
<g id="a_node12"><a xlink:href="classalpaqa_1_1PANOCSolver.html#aaa9758a40bd362331202fb232b4bb7ae" target="_top" xlink:title=" ">
<polygon fill="white" stroke="black" points="311,-61 311,-91 431,-91 431,-61 311,-61"/>
<text text-anchor="start" x="319" y="-79" font-family="Helvetica,sans-Serif" font-size="10.00">alpaqa::PANOCSolver</text>
<text text-anchor="middle" x="371" y="-68" font-family="Helvetica,sans-Serif" font-size="10.00">::operator()</text>
</a>
</g>
</g>
<!-- Node10&#45;&gt;Node12 -->
<g id="edge17" class="edge">
<title>Node10&#45;&gt;Node12</title>
<path fill="none" stroke="midnightblue" d="M729.67,-165.09C708.52,-155 678.49,-141.64 651,-133 576.72,-109.65 488.23,-93.45 431.14,-84.45"/>
<polygon fill="midnightblue" stroke="midnightblue" points="728.19,-168.27 738.71,-169.47 731.24,-161.96 728.19,-168.27"/>
</g>
<!-- Node11&#45;&gt;Node3 -->
<g id="edge12" class="edge">
<title>Node11&#45;&gt;Node3</title>
<path fill="none" stroke="midnightblue" d="M521.7,-177.62C503.36,-177.18 482.55,-176.68 462.4,-176.19"/>
<polygon fill="midnightblue" stroke="midnightblue" points="521.82,-181.13 531.9,-177.87 521.99,-174.13 521.82,-181.13"/>
</g>
<!-- Node11&#45;&gt;Node4 -->
<g id="edge13" class="edge">
<title>Node11&#45;&gt;Node4</title>
<path fill="none" stroke="midnightblue" d="M536.16,-166.66C516.67,-161.09 493.21,-154.53 472,-149 460.51,-146 448.24,-142.95 436.38,-140.06"/>
<polygon fill="midnightblue" stroke="midnightblue" points="535.38,-170.08 545.96,-169.48 537.32,-163.35 535.38,-170.08"/>
</g>
<!-- Node11&#45;&gt;Node5 -->
<g id="edge14" class="edge">
<title>Node11&#45;&gt;Node5</title>
<path fill="none" stroke="midnightblue" d="M555.87,-194.78C541.33,-205.49 522.53,-220.49 508,-236 489.03,-256.25 494.96,-271.43 472,-287 461.06,-294.41 448.1,-299.55 435.18,-303.1"/>
<polygon fill="midnightblue" stroke="midnightblue" points="558.24,-197.38 564.29,-188.69 554.14,-191.71 558.24,-197.38"/>
</g>
<!-- Node11&#45;&gt;Node6 -->
<g id="edge15" class="edge">
<title>Node11&#45;&gt;Node6</title>
<path fill="none" stroke="midnightblue" d="M555.36,-193.85C534.32,-206.79 502.07,-225.27 472,-237 457.91,-242.49 442.23,-247.08 427.54,-250.77"/>
<polygon fill="midnightblue" stroke="midnightblue" points="557.28,-196.77 563.91,-188.51 553.58,-190.83 557.28,-196.77"/>
</g>
<!-- Node11&#45;&gt;Node7 -->
<g id="edge16" class="edge">
<title>Node11&#45;&gt;Node7</title>
<path fill="none" stroke="midnightblue" d="M522.06,-189.66C490.91,-195.54 452.54,-202.79 422.4,-208.48"/>
<polygon fill="midnightblue" stroke="midnightblue" points="522.72,-193.1 531.9,-187.8 521.42,-186.22 522.72,-193.1"/>
</g>
<!-- Node11&#45;&gt;Node12 -->
<g id="edge11" class="edge">
<title>Node11&#45;&gt;Node12</title>
<path fill="none" stroke="midnightblue" d="M561.15,-162.61C541.17,-144.63 506.65,-116.18 472,-100 459.3,-94.07 444.99,-89.52 431.24,-86.06"/>
<polygon fill="midnightblue" stroke="midnightblue" points="558.8,-165.2 568.53,-169.38 563.53,-160.04 558.8,-165.2"/>
</g>
<!-- Node14 -->
<g id="node14" class="node">
<title>Node14</title>
<g id="a_node14"><a xlink:href="classalpaqa_1_1SpecializedLBFGS.html#a747b26091f869cb17a768e38f17fbc8d" target="_top" xlink:title="Update the inverse Hessian approximation using the new vectors xₖ₊₁ and pₖ₊₁.">
<polygon fill="white" stroke="black" points="508,-6 508,-36 651,-36 651,-6 508,-6"/>
<text text-anchor="start" x="516" y="-24" font-family="Helvetica,sans-Serif" font-size="10.00">alpaqa::SpecializedLBFGS</text>
<text text-anchor="middle" x="579.5" y="-13" font-family="Helvetica,sans-Serif" font-size="10.00">::update</text>
</a>
</g>
</g>
<!-- Node13&#45;&gt;Node14 -->
<g id="edge24" class="edge">
<title>Node13&#45;&gt;Node14</title>
<path fill="none" stroke="midnightblue" d="M700.95,-59.79C677.22,-52.15 649.96,-43.37 627.38,-36.1"/>
<polygon fill="midnightblue" stroke="midnightblue" points="699.94,-63.14 710.53,-62.87 702.09,-56.48 699.94,-63.14"/>
</g>
<!-- Node15 -->
<g id="node15" class="node">
<title>Node15</title>
<g id="a_node15"><a xlink:href="structalpaqa_1_1PANOCDirection_3_01SpecializedLBFGS_01_4.html#a39a241c049e8d029cc86a30a89ef92cf" target="_top" xlink:title=" ">
<polygon fill="white" stroke="black" points="304,-0.5 304,-41.5 438,-41.5 438,-0.5 304,-0.5"/>
<text text-anchor="start" x="312" y="-29.5" font-family="Helvetica,sans-Serif" font-size="10.00">alpaqa::PANOCDirection</text>
<text text-anchor="start" x="312" y="-18.5" font-family="Helvetica,sans-Serif" font-size="10.00">&lt; SpecializedLBFGS &gt;::</text>
<text text-anchor="middle" x="371" y="-7.5" font-family="Helvetica,sans-Serif" font-size="10.00">update</text>
</a>
</g>
</g>
<!-- Node14&#45;&gt;Node15 -->
<g id="edge25" class="edge">
<title>Node14&#45;&gt;Node15</title>
<path fill="none" stroke="midnightblue" d="M497.55,-21C477.88,-21 457.06,-21 438.16,-21"/>
<polygon fill="midnightblue" stroke="midnightblue" points="497.72,-24.5 507.72,-21 497.72,-17.5 497.72,-24.5"/>
</g>
</g>
</svg>
