<?xml version="1.0" encoding="UTF-8" standalone="no"?>
<!DOCTYPE svg PUBLIC "-//W3C//DTD SVG 1.1//EN"
 "http://www.w3.org/Graphics/SVG/1.1/DTD/svg11.dtd">
<!-- Generated by graphviz version 2.43.0 (0)
 -->
<!-- Title: set_params Pages: 1 -->
<svg width="487pt" height="97pt"
 viewBox="0.00 0.00 487.00 96.50" xmlns="http://www.w3.org/2000/svg" xmlns:xlink="http://www.w3.org/1999/xlink">
<g id="graph0" class="graph" transform="scale(1 1) rotate(0) translate(4 92.5)">
<title>set_params</title>
<!-- Node1 -->
<g id="Node000001" class="node">
<title>Node1</title>
<g id="a_Node000001"><a xlink:title="Overwrites t based on the options that start with prefix.">
<polygon fill="#999999" stroke="#666666" points="74,-47.5 0,-47.5 0,-28.5 74,-28.5 74,-47.5"/>
<text text-anchor="middle" x="37" y="-35.5" font-family="Helvetica,sans-Serif" font-size="10.00">set_params</text>
</a>
</g>
</g>
<!-- Node2 -->
<g id="Node000002" class="node">
<title>Node2</title>
<g id="a_Node000002"><a xlink:href="namespacealpaqa_1_1params.html#af3ba03bed80f69ff9920df80e5223601" target="_top" xlink:title="Update/overwrite the first argument based on the JSON object j.">
<polygon fill="white" stroke="#666666" points="178,-66.5 110,-66.5 110,-47.5 178,-47.5 178,-66.5"/>
<text text-anchor="middle" x="144" y="-54.5" font-family="Helvetica,sans-Serif" font-size="10.00">set_param</text>
</a>
</g>
</g>
<!-- Node1&#45;&gt;Node2 -->
<g id="edge1_Node000001_Node000002" class="edge">
<title>Node1&#45;&gt;Node2</title>
<g id="a_edge1_Node000001_Node000002"><a xlink:title=" ">
<path fill="none" stroke="#63b8ff" d="M74.14,-44.54C82.49,-46.05 91.46,-47.67 100.08,-49.23"/>
<polygon fill="#63b8ff" stroke="#63b8ff" points="99.51,-52.69 109.97,-51.02 100.75,-45.8 99.51,-52.69"/>
</a>
</g>
</g>
<!-- Node7 -->
<g id="Node000007" class="node">
<title>Node7</title>
<g id="a_Node000007"><a xlink:href="namespacealpaqa_1_1params.html#aa3666becfea1ef2eb24d83f592c123e9" target="_top" xlink:title="Split the string full on the first occurrence of tok.">
<polygon fill="white" stroke="#666666" points="174,-29.5 114,-29.5 114,-10.5 174,-10.5 174,-29.5"/>
<text text-anchor="middle" x="144" y="-17.5" font-family="Helvetica,sans-Serif" font-size="10.00">split_key</text>
</a>
</g>
</g>
<!-- Node1&#45;&gt;Node7 -->
<g id="edge6_Node000001_Node000007" class="edge">
<title>Node1&#45;&gt;Node7</title>
<g id="a_edge6_Node000001_Node000007"><a xlink:title=" ">
<path fill="none" stroke="#63b8ff" d="M74.14,-31.81C83.73,-30.16 94.14,-28.38 103.89,-26.7"/>
<polygon fill="#63b8ff" stroke="#63b8ff" points="104.48,-30.15 113.75,-25.01 103.3,-23.25 104.48,-30.15"/>
</a>
</g>
</g>
<!-- Node3 -->
<g id="Node000003" class="node">
<title>Node3</title>
<g id="a_Node000003"><a xlink:href="demangled-typename_8cpp.html#a994032931a27ca4de5eea3f786057b17" target="_top" xlink:title="Get the pretty name of the given type as a string.">
<polygon fill="white" stroke="#666666" points="340,-88.5 214,-88.5 214,-69.5 340,-69.5 340,-88.5"/>
<text text-anchor="middle" x="277" y="-76.5" font-family="Helvetica,sans-Serif" font-size="10.00">demangled_typename</text>
</a>
</g>
</g>
<!-- Node2&#45;&gt;Node3 -->
<g id="edge2_Node000002_Node000003" class="edge">
<title>Node2&#45;&gt;Node3</title>
<g id="a_edge2_Node000002_Node000003"><a xlink:title=" ">
<path fill="none" stroke="#63b8ff" d="M178.06,-62.55C187.63,-64.16 198.44,-65.98 209.3,-67.8"/>
<polygon fill="#63b8ff" stroke="#63b8ff" points="208.81,-71.26 219.25,-69.47 209.97,-64.36 208.81,-71.26"/>
</a>
</g>
</g>
<!-- Node4 -->
<g id="Node000004" class="node">
<title>Node4</title>
<g id="a_Node000004"><a xlink:href="namespacealpaqa_1_1params_1_1detail.html#a6aa41a8827ffd36b3e2a8e7346a44f19" target="_top" xlink:title=" ">
<polygon fill="white" stroke="#666666" points="340,-51 214,-51 214,-21 340,-21 340,-51"/>
<text text-anchor="start" x="222" y="-39" font-family="Helvetica,sans-Serif" font-size="10.00">alpaqa::params::detail</text>
<text text-anchor="middle" x="277" y="-28" font-family="Helvetica,sans-Serif" font-size="10.00">::join_sorted_keys</text>
</a>
</g>
</g>
<!-- Node2&#45;&gt;Node4 -->
<g id="edge3_Node000002_Node000004" class="edge">
<title>Node2&#45;&gt;Node4</title>
<g id="a_edge3_Node000002_Node000004"><a xlink:title=" ">
<path fill="none" stroke="#63b8ff" d="M178.06,-51.7C185.99,-50.43 194.77,-49.02 203.72,-47.59"/>
<polygon fill="#63b8ff" stroke="#63b8ff" points="204.54,-51 213.86,-45.96 203.43,-44.09 204.54,-51"/>
</a>
</g>
</g>
<!-- Node5 -->
<g id="Node000005" class="node">
<title>Node5</title>
<g id="a_Node000005"><a xlink:href="namespacealpaqa_1_1util.html#aa93b2039064bcb3304233064c0485c9b" target="_top" xlink:title="Join the list of strings into a single string, using the separator given by opt.">
<polygon fill="white" stroke="#666666" points="475,-67.5 380,-67.5 380,-48.5 475,-48.5 475,-67.5"/>
<text text-anchor="middle" x="427.5" y="-55.5" font-family="Helvetica,sans-Serif" font-size="10.00">alpaqa::util::join</text>
</a>
</g>
</g>
<!-- Node4&#45;&gt;Node5 -->
<g id="edge4_Node000004_Node000005" class="edge">
<title>Node4&#45;&gt;Node5</title>
<g id="a_edge4_Node000004_Node000005"><a xlink:title=" ">
<path fill="none" stroke="#63b8ff" d="M340.12,-45.2C350.03,-46.67 360.23,-48.18 370,-49.63"/>
<polygon fill="#63b8ff" stroke="#63b8ff" points="369.59,-53.11 380,-51.11 370.62,-46.18 369.59,-53.11"/>
</a>
</g>
</g>
<!-- Node6 -->
<g id="Node000006" class="node">
<title>Node6</title>
<g id="a_Node000006"><a xlink:href="namespacealpaqa_1_1util.html#ab38ac790b4155e7631dfb11d7dfff1c3" target="_top" xlink:title="Sort the given range of strings in&#45;place in a case&#45;insensitive manner.">
<polygon fill="white" stroke="#666666" points="479,-30 376,-30 376,0 479,0 479,-30"/>
<text text-anchor="start" x="384" y="-18" font-family="Helvetica,sans-Serif" font-size="10.00">alpaqa::util::sort</text>
<text text-anchor="middle" x="427.5" y="-7" font-family="Helvetica,sans-Serif" font-size="10.00">_case_insensitive</text>
</a>
</g>
</g>
<!-- Node4&#45;&gt;Node6 -->
<g id="edge5_Node000004_Node000006" class="edge">
<title>Node4&#45;&gt;Node6</title>
<g id="a_edge5_Node000004_Node000006"><a xlink:title=" ">
<path fill="none" stroke="#63b8ff" d="M340.12,-27.22C348.59,-26.02 357.28,-24.79 365.74,-23.59"/>
<polygon fill="#63b8ff" stroke="#63b8ff" points="366.48,-27.02 375.89,-22.16 365.5,-20.09 366.48,-27.02"/>
</a>
</g>
</g>
</g>
</svg>
