<?xml version="1.0" encoding="UTF-8" standalone="no"?>
<!DOCTYPE svg PUBLIC "-//W3C//DTD SVG 1.1//EN"
 "http://www.w3.org/Graphics/SVG/1.1/DTD/svg11.dtd">
<!-- Generated by graphviz version 2.43.0 (0)
 -->
<!-- Title: NewtonTRDirection&lt; Conf &gt;::Params Pages: 1 -->
<svg width="332pt" height="209pt"
 viewBox="0.00 0.00 331.50 209.00" xmlns="http://www.w3.org/2000/svg" xmlns:xlink="http://www.w3.org/1999/xlink">
<g id="graph0" class="graph" transform="scale(1 1) rotate(0) translate(4 205)">
<title>NewtonTRDirection&lt; Conf &gt;::Params</title>
<!-- Node1 -->
<g id="Node000001" class="node">
<title>Node1</title>
<g id="a_Node000001"><a xlink:title=" ">
<polygon fill="#999999" stroke="transparent" points="223.5,-60 110.5,-60 110.5,0 223.5,0 223.5,-60"/>
<text text-anchor="start" x="116" y="-48" font-family="Helvetica,sans-Serif" font-size="10.00">NewtonTRDirection&lt;</text>
<text text-anchor="start" x="128" y="-37" font-family="Helvetica,sans-Serif" font-size="10.00"> Conf &gt;::Params</text>
<text text-anchor="start" x="165.5" y="-22" font-family="Helvetica,sans-Serif" font-size="10.00"> </text>
<text text-anchor="start" x="165.5" y="-7" font-family="Helvetica,sans-Serif" font-size="10.00"> </text>
<polygon fill="#666666" stroke="#666666" points="111,-32 111,-32 224,-32 224,-32 111,-32"/>
<polygon fill="#666666" stroke="#666666" points="111,-17 111,-17 224,-17 224,-17 111,-17"/>
<polygon fill="none" stroke="#666666" points="110.5,0 110.5,-60 223.5,-60 223.5,0 110.5,0"/>
</a>
</g>
</g>
<!-- Node2 -->
<g id="Node000002" class="node">
<title>Node2</title>
<g id="a_Node000002"><a xlink:href="namespacealpaqa.html#group__grp__Parameters" target="_top" xlink:title=" ">
<polygon fill="white" stroke="transparent" points="164,-201 0,-201 0,-107 164,-107 164,-201"/>
<text text-anchor="start" x="5" y="-189" font-family="Helvetica,sans-Serif" font-size="10.00">SteihaugCGParams&lt; config_t &gt;</text>
<text text-anchor="start" x="20" y="-174" font-family="Helvetica,sans-Serif" font-size="10.00">+</text>
<text text-anchor="start" x="49" y="-174" font-family="Helvetica,sans-Serif" font-size="10.00">tol_scale</text>
<text text-anchor="start" x="20" y="-159" font-family="Helvetica,sans-Serif" font-size="10.00">+</text>
<text text-anchor="start" x="49" y="-159" font-family="Helvetica,sans-Serif" font-size="10.00">tol_scale_root</text>
<text text-anchor="start" x="20" y="-144" font-family="Helvetica,sans-Serif" font-size="10.00">+</text>
<text text-anchor="start" x="49" y="-144" font-family="Helvetica,sans-Serif" font-size="10.00">tol_max</text>
<text text-anchor="start" x="20" y="-129" font-family="Helvetica,sans-Serif" font-size="10.00">+</text>
<text text-anchor="start" x="49" y="-129" font-family="Helvetica,sans-Serif" font-size="10.00">max_iter_factor</text>
<text text-anchor="start" x="80" y="-114" font-family="Helvetica,sans-Serif" font-size="10.00"> </text>
<polygon fill="#666666" stroke="#666666" points="0,-184 0,-184 164,-184 164,-184 0,-184"/>
<polygon fill="#666666" stroke="#666666" points="0,-124 0,-124 47,-124 47,-124 0,-124"/>
<polygon fill="#666666" stroke="#666666" points="47,-124 47,-124 164,-124 164,-124 47,-124"/>
<polygon fill="none" stroke="#666666" points="0,-107 0,-201 164,-201 164,-107 0,-107"/>
</a>
</g>
</g>
<!-- Node2&#45;&gt;Node1 -->
<g id="edge1_Node000001_Node000002" class="edge">
<title>Node2&#45;&gt;Node1</title>
<g id="a_edge1_Node000001_Node000002"><a xlink:title=" ">
<path fill="none" stroke="#63b8ff" d="M114.13,-106.88C122.57,-94.77 131.59,-81.83 139.74,-70.13"/>
<polygon fill="none" stroke="#63b8ff" points="139.79,-70.06 139.94,-62.85 146.65,-60.21 146.5,-67.42 139.79,-70.06"/>
</a>
</g>
<text text-anchor="middle" x="166.5" y="-81" font-family="Helvetica,sans-Serif" font-size="10.00" fill="grey"> +accelerator</text>
</g>
<!-- Node3 -->
<g id="Node000003" class="node">
<title>Node3</title>
<g id="a_Node000003"><a xlink:href="namespacealpaqa.html#group__grp__Parameters" target="_top" xlink:title=" ">
<polygon fill="white" stroke="transparent" points="323.5,-199 182.5,-199 182.5,-109 323.5,-109 323.5,-199"/>
<text text-anchor="start" x="188" y="-187" font-family="Helvetica,sans-Serif" font-size="10.00">NewtonTRDirectionParams</text>
<text text-anchor="start" x="223" y="-176" font-family="Helvetica,sans-Serif" font-size="10.00">&lt; config_t &gt;</text>
<text text-anchor="start" x="193.5" y="-161" font-family="Helvetica,sans-Serif" font-size="10.00">+</text>
<text text-anchor="start" x="213" y="-161" font-family="Helvetica,sans-Serif" font-size="10.00">hessian_vec_factor</text>
<text text-anchor="start" x="193.5" y="-146" font-family="Helvetica,sans-Serif" font-size="10.00">+</text>
<text text-anchor="start" x="213" y="-146" font-family="Helvetica,sans-Serif" font-size="10.00">finite_diff</text>
<text text-anchor="start" x="193.5" y="-131" font-family="Helvetica,sans-Serif" font-size="10.00">+</text>
<text text-anchor="start" x="213" y="-131" font-family="Helvetica,sans-Serif" font-size="10.00">finite_diff_stepsize</text>
<text text-anchor="start" x="251.5" y="-116" font-family="Helvetica,sans-Serif" font-size="10.00"> </text>
<polygon fill="#666666" stroke="#666666" points="183,-171 183,-171 324,-171 324,-171 183,-171"/>
<polygon fill="#666666" stroke="#666666" points="183,-126 183,-126 211,-126 211,-126 183,-126"/>
<polygon fill="#666666" stroke="#666666" points="211,-126 211,-126 324,-126 324,-126 211,-126"/>
<polygon fill="none" stroke="#666666" points="182.5,-109 182.5,-199 323.5,-199 323.5,-109 182.5,-109"/>
</a>
</g>
</g>
<!-- Node3&#45;&gt;Node1 -->
<g id="edge2_Node000001_Node000003" class="edge">
<title>Node3&#45;&gt;Node1</title>
<g id="a_edge2_Node000001_Node000003"><a xlink:title=" ">
<path fill="none" stroke="#63b8ff" d="M225.14,-108.94C218.39,-98.67 211.08,-87.85 204,-78 202.01,-75.23 199.93,-72.4 197.8,-69.57"/>
<polygon fill="none" stroke="#63b8ff" points="197.79,-69.56 190.97,-67.22 190.5,-60.03 197.32,-62.36 197.79,-69.56"/>
</a>
</g>
<text text-anchor="middle" x="238.5" y="-81" font-family="Helvetica,sans-Serif" font-size="10.00" fill="grey"> +direction</text>
</g>
</g>
</svg>
