<?xml version="1.0" encoding="UTF-8" standalone="no"?>
<!DOCTYPE svg PUBLIC "-//W3C//DTD SVG 1.1//EN"
 "http://www.w3.org/Graphics/SVG/1.1/DTD/svg11.dtd">
<!-- Generated by graphviz version 2.43.0 (0)
 -->
<!-- Title: src/alpaqa/include/alpaqa/util/timed.hpp Pages: 1 -->
<svg width="2128pt" height="346pt"
 viewBox="0.00 0.00 2128.00 346.00" xmlns="http://www.w3.org/2000/svg" xmlns:xlink="http://www.w3.org/1999/xlink">
<g id="graph0" class="graph" transform="scale(1 1) rotate(0) translate(4 342)">
<title>src/alpaqa/include/alpaqa/util/timed.hpp</title>
<!-- Node1 -->
<g id="Node000001" class="node">
<title>Node1</title>
<g id="a_Node000001"><a xlink:title=" ">
<polygon fill="#999999" stroke="#666666" points="1302,-338 1178,-338 1178,-308 1302,-308 1302,-338"/>
<text text-anchor="start" x="1186" y="-326" font-family="Helvetica,sans-Serif" font-size="10.00">src/alpaqa/include</text>
<text text-anchor="middle" x="1240" y="-315" font-family="Helvetica,sans-Serif" font-size="10.00">/alpaqa/util/timed.hpp</text>
</a>
</g>
</g>
<!-- Node2 -->
<g id="Node000002" class="node">
<title>Node2</title>
<g id="a_Node000002"><a xlink:href="fista_8tpp.html" target="_top" xlink:title=" ">
<polygon fill="white" stroke="#666666" points="759,-272 625,-272 625,-231 759,-231 759,-272"/>
<text text-anchor="start" x="633" y="-260" font-family="Helvetica,sans-Serif" font-size="10.00">src/alpaqa/include</text>
<text text-anchor="start" x="633" y="-249" font-family="Helvetica,sans-Serif" font-size="10.00">/alpaqa/implementation</text>
<text text-anchor="middle" x="692" y="-238" font-family="Helvetica,sans-Serif" font-size="10.00">/inner/fista.tpp</text>
</a>
</g>
</g>
<!-- Node1&#45;&gt;Node2 -->
<g id="edge1_Node000001_Node000002" class="edge">
<title>Node1&#45;&gt;Node2</title>
<g id="a_edge1_Node000001_Node000002"><a xlink:title=" ">
<path fill="none" stroke="#63b8ff" d="M1167.65,-317.17C1075.51,-310.36 911.62,-296 773,-272 768.44,-271.21 763.75,-270.31 759.04,-269.35"/>
<polygon fill="#63b8ff" stroke="#63b8ff" points="1167.47,-320.67 1177.7,-317.91 1167.98,-313.69 1167.47,-320.67"/>
</a>
</g>
</g>
<!-- Node4 -->
<g id="Node000004" class="node">
<title>Node4</title>
<g id="a_Node000004"><a xlink:href="panoc-ocp_8tpp.html" target="_top" xlink:title=" ">
<polygon fill="white" stroke="#666666" points="2019,-118 1885,-118 1885,-77 2019,-77 2019,-118"/>
<text text-anchor="start" x="1893" y="-106" font-family="Helvetica,sans-Serif" font-size="10.00">src/alpaqa/include</text>
<text text-anchor="start" x="1893" y="-95" font-family="Helvetica,sans-Serif" font-size="10.00">/alpaqa/implementation</text>
<text text-anchor="middle" x="1952" y="-84" font-family="Helvetica,sans-Serif" font-size="10.00">/inner/panoc&#45;ocp.tpp</text>
</a>
</g>
</g>
<!-- Node1&#45;&gt;Node4 -->
<g id="edge3_Node000001_Node000004" class="edge">
<title>Node1&#45;&gt;Node4</title>
<g id="a_edge3_Node000001_Node000004"><a xlink:title=" ">
<path fill="none" stroke="#63b8ff" d="M1312.57,-317.42C1421.47,-307.93 1630.91,-279.35 1786,-195 1811.55,-181.1 1812.41,-169.53 1837,-154 1858.55,-140.38 1883.95,-127.8 1905.39,-118.07"/>
<polygon fill="#63b8ff" stroke="#63b8ff" points="1312.02,-313.95 1302.35,-318.28 1312.61,-320.93 1312.02,-313.95"/>
</a>
</g>
</g>
<!-- Node6 -->
<g id="Node000006" class="node">
<title>Node6</title>
<g id="a_Node000006"><a xlink:href="panoc_8tpp.html" target="_top" xlink:title=" ">
<polygon fill="white" stroke="#666666" points="498,-118 364,-118 364,-77 498,-77 498,-118"/>
<text text-anchor="start" x="372" y="-106" font-family="Helvetica,sans-Serif" font-size="10.00">src/alpaqa/include</text>
<text text-anchor="start" x="372" y="-95" font-family="Helvetica,sans-Serif" font-size="10.00">/alpaqa/implementation</text>
<text text-anchor="middle" x="431" y="-84" font-family="Helvetica,sans-Serif" font-size="10.00">/inner/panoc.tpp</text>
</a>
</g>
</g>
<!-- Node1&#45;&gt;Node6 -->
<g id="edge5_Node000001_Node000006" class="edge">
<title>Node1&#45;&gt;Node6</title>
<g id="a_edge5_Node000001_Node000006"><a xlink:title=" ">
<path fill="none" stroke="#63b8ff" d="M1167.54,-318.08C1074.2,-312.04 917.91,-298.3 867,-272 803.3,-239.09 820.11,-188.03 757,-154 713.35,-130.46 580.16,-113.42 498.16,-104.82"/>
<polygon fill="#63b8ff" stroke="#63b8ff" points="1167.56,-321.58 1177.76,-318.72 1168,-314.6 1167.56,-321.58"/>
</a>
</g>
</g>
<!-- Node12 -->
<g id="Node000012" class="node">
<title>Node12</title>
<g id="a_Node000012"><a xlink:href="pantr_8tpp.html" target="_top" xlink:title=" ">
<polygon fill="white" stroke="#666666" points="1010,-272 876,-272 876,-231 1010,-231 1010,-272"/>
<text text-anchor="start" x="884" y="-260" font-family="Helvetica,sans-Serif" font-size="10.00">src/alpaqa/include</text>
<text text-anchor="start" x="884" y="-249" font-family="Helvetica,sans-Serif" font-size="10.00">/alpaqa/implementation</text>
<text text-anchor="middle" x="943" y="-238" font-family="Helvetica,sans-Serif" font-size="10.00">/inner/pantr.tpp</text>
</a>
</g>
</g>
<!-- Node1&#45;&gt;Node12 -->
<g id="edge11_Node000001_Node000012" class="edge">
<title>Node1&#45;&gt;Node12</title>
<g id="a_edge11_Node000001_Node000012"><a xlink:title=" ">
<path fill="none" stroke="#63b8ff" d="M1170.13,-305.65C1121.76,-294.33 1057.74,-279.35 1010,-268.18"/>
<polygon fill="#63b8ff" stroke="#63b8ff" points="1169.36,-309.06 1179.9,-307.94 1170.96,-302.25 1169.36,-309.06"/>
</a>
</g>
</g>
<!-- Node15 -->
<g id="Node000015" class="node">
<title>Node15</title>
<g id="a_Node000015"><a xlink:href="zerofpr_8tpp.html" target="_top" xlink:title=" ">
<polygon fill="white" stroke="#666666" points="1139,-118 1005,-118 1005,-77 1139,-77 1139,-118"/>
<text text-anchor="start" x="1013" y="-106" font-family="Helvetica,sans-Serif" font-size="10.00">src/alpaqa/include</text>
<text text-anchor="start" x="1013" y="-95" font-family="Helvetica,sans-Serif" font-size="10.00">/alpaqa/implementation</text>
<text text-anchor="middle" x="1072" y="-84" font-family="Helvetica,sans-Serif" font-size="10.00">/inner/zerofpr.tpp</text>
</a>
</g>
</g>
<!-- Node1&#45;&gt;Node15 -->
<g id="edge14_Node000001_Node000015" class="edge">
<title>Node1&#45;&gt;Node15</title>
<g id="a_edge14_Node000001_Node000015"><a xlink:title=" ">
<path fill="none" stroke="#63b8ff" d="M1218.53,-300.72C1194.62,-276.4 1155.57,-234.81 1127,-195 1108.9,-169.78 1091.81,-138.11 1081.62,-118.08"/>
<polygon fill="#63b8ff" stroke="#63b8ff" points="1216.2,-303.34 1225.73,-307.98 1221.17,-298.42 1216.2,-303.34"/>
</a>
</g>
</g>
<!-- Node20 -->
<g id="Node000020" class="node">
<title>Node20</title>
<g id="a_Node000020"><a xlink:href="ocproblem_8hpp.html" target="_top" xlink:title=" ">
<polygon fill="white" stroke="#666666" points="1544,-266.5 1372,-266.5 1372,-236.5 1544,-236.5 1544,-266.5"/>
<text text-anchor="start" x="1380" y="-254.5" font-family="Helvetica,sans-Serif" font-size="10.00">src/alpaqa/include</text>
<text text-anchor="middle" x="1458" y="-243.5" font-family="Helvetica,sans-Serif" font-size="10.00">/alpaqa/problem/ocproblem.hpp</text>
</a>
</g>
</g>
<!-- Node1&#45;&gt;Node20 -->
<g id="edge19_Node000001_Node000020" class="edge">
<title>Node1&#45;&gt;Node20</title>
<g id="a_edge19_Node000001_Node000020"><a xlink:title=" ">
<path fill="none" stroke="#63b8ff" d="M1293.74,-304.87C1330.72,-293.08 1379.25,-277.61 1413.95,-266.54"/>
<polygon fill="#63b8ff" stroke="#63b8ff" points="1292.58,-301.56 1284.12,-307.94 1294.71,-308.23 1292.58,-301.56"/>
</a>
</g>
</g>
<!-- Node32 -->
<g id="Node000032" class="node">
<title>Node32</title>
<g id="a_Node000032"><a xlink:href="problem-with-counters_8hpp.html" target="_top" xlink:title=" ">
<polygon fill="white" stroke="#666666" points="1974,-272 1834,-272 1834,-231 1974,-231 1974,-272"/>
<text text-anchor="start" x="1842" y="-260" font-family="Helvetica,sans-Serif" font-size="10.00">src/alpaqa/include</text>
<text text-anchor="start" x="1842" y="-249" font-family="Helvetica,sans-Serif" font-size="10.00">/alpaqa/problem/problem</text>
<text text-anchor="middle" x="1904" y="-238" font-family="Helvetica,sans-Serif" font-size="10.00">&#45;with&#45;counters.hpp</text>
</a>
</g>
</g>
<!-- Node1&#45;&gt;Node32 -->
<g id="edge41_Node000001_Node000032" class="edge">
<title>Node1&#45;&gt;Node32</title>
<g id="a_edge41_Node000001_Node000032"><a xlink:title=" ">
<path fill="none" stroke="#63b8ff" d="M1312.15,-319.08C1422.24,-313.88 1638.5,-300.74 1820,-272 1824.44,-271.3 1828.99,-270.49 1833.56,-269.62"/>
<polygon fill="#63b8ff" stroke="#63b8ff" points="1311.98,-315.58 1302.15,-319.54 1312.31,-322.57 1311.98,-315.58"/>
</a>
</g>
</g>
<!-- Node34 -->
<g id="Node000034" class="node">
<title>Node34</title>
<g id="a_Node000034"><a xlink:href="lbfgsb_2src_2lbfgsb-adapter_8cpp.html" target="_top" xlink:title=" ">
<polygon fill="white" stroke="#666666" points="2120,-266.5 1992,-266.5 1992,-236.5 2120,-236.5 2120,-266.5"/>
<text text-anchor="start" x="2000" y="-254.5" font-family="Helvetica,sans-Serif" font-size="10.00">src/interop/lbfgsb</text>
<text text-anchor="middle" x="2056" y="-243.5" font-family="Helvetica,sans-Serif" font-size="10.00">/src/lbfgsb&#45;adapter.cpp</text>
</a>
</g>
</g>
<!-- Node1&#45;&gt;Node34 -->
<g id="edge43_Node000001_Node000034" class="edge">
<title>Node1&#45;&gt;Node34</title>
<g id="a_edge43_Node000001_Node000034"><a xlink:title=" ">
<path fill="none" stroke="#63b8ff" d="M1312.21,-321.77C1445.62,-320.32 1739.35,-312.35 1983,-272 1991.41,-270.61 2000.26,-268.66 2008.78,-266.54"/>
<polygon fill="#63b8ff" stroke="#63b8ff" points="1312.08,-318.27 1302.11,-321.87 1312.15,-325.27 1312.08,-318.27"/>
</a>
</g>
</g>
<!-- Node3 -->
<g id="Node000003" class="node">
<title>Node3</title>
<g id="a_Node000003"><a xlink:href="fista_8cpp.html" target="_top" xlink:title=" ">
<polygon fill="white" stroke="#666666" points="748,-189.5 636,-189.5 636,-159.5 748,-159.5 748,-189.5"/>
<text text-anchor="start" x="644" y="-177.5" font-family="Helvetica,sans-Serif" font-size="10.00">src/alpaqa/src/inner</text>
<text text-anchor="middle" x="692" y="-166.5" font-family="Helvetica,sans-Serif" font-size="10.00">/fista.cpp</text>
</a>
</g>
</g>
<!-- Node2&#45;&gt;Node3 -->
<g id="edge2_Node000002_Node000003" class="edge">
<title>Node2&#45;&gt;Node3</title>
<g id="a_edge2_Node000002_Node000003"><a xlink:title=" ">
<path fill="none" stroke="#63b8ff" d="M692,-220.61C692,-210.01 692,-198.57 692,-189.86"/>
<polygon fill="#63b8ff" stroke="#63b8ff" points="688.5,-220.79 692,-230.79 695.5,-220.79 688.5,-220.79"/>
</a>
</g>
</g>
<!-- Node5 -->
<g id="Node000005" class="node">
<title>Node5</title>
<g id="a_Node000005"><a xlink:href="panoc-ocp_8cpp.html" target="_top" xlink:title=" ">
<polygon fill="white" stroke="#666666" points="2008,-35.5 1896,-35.5 1896,-5.5 2008,-5.5 2008,-35.5"/>
<text text-anchor="start" x="1904" y="-23.5" font-family="Helvetica,sans-Serif" font-size="10.00">src/alpaqa/src/inner</text>
<text text-anchor="middle" x="1952" y="-12.5" font-family="Helvetica,sans-Serif" font-size="10.00">/panoc&#45;ocp.cpp</text>
</a>
</g>
</g>
<!-- Node4&#45;&gt;Node5 -->
<g id="edge4_Node000004_Node000005" class="edge">
<title>Node4&#45;&gt;Node5</title>
<g id="a_edge4_Node000004_Node000005"><a xlink:title=" ">
<path fill="none" stroke="#63b8ff" d="M1952,-66.61C1952,-56.01 1952,-44.57 1952,-35.86"/>
<polygon fill="#63b8ff" stroke="#63b8ff" points="1948.5,-66.79 1952,-76.79 1955.5,-66.79 1948.5,-66.79"/>
</a>
</g>
</g>
<!-- Node7 -->
<g id="Node000007" class="node">
<title>Node7</title>
<g id="a_Node000007"><a xlink:href="structured-newton_8cpp.html" target="_top" xlink:title=" ">
<polygon fill="white" stroke="#666666" points="282,-41 130,-41 130,0 282,0 282,-41"/>
<text text-anchor="start" x="138" y="-29" font-family="Helvetica,sans-Serif" font-size="10.00">src/alpaqa/src/inner</text>
<text text-anchor="start" x="138" y="-18" font-family="Helvetica,sans-Serif" font-size="10.00">/directions/panoc/structured</text>
<text text-anchor="middle" x="206" y="-7" font-family="Helvetica,sans-Serif" font-size="10.00">&#45;newton.cpp</text>
</a>
</g>
</g>
<!-- Node6&#45;&gt;Node7 -->
<g id="edge6_Node000006_Node000007" class="edge">
<title>Node6&#45;&gt;Node7</title>
<g id="a_edge6_Node000006_Node000007"><a xlink:title=" ">
<path fill="none" stroke="#63b8ff" d="M362.93,-73.81C331.57,-63.36 294.73,-51.08 264.63,-41.04"/>
<polygon fill="#63b8ff" stroke="#63b8ff" points="361.88,-77.15 372.47,-76.99 364.09,-70.51 361.88,-77.15"/>
</a>
</g>
</g>
<!-- Node8 -->
<g id="Node000008" class="node">
<title>Node8</title>
<g id="a_Node000008"><a xlink:href="panoc_8cpp.html" target="_top" xlink:title=" ">
<polygon fill="white" stroke="#666666" points="112,-35.5 0,-35.5 0,-5.5 112,-5.5 112,-35.5"/>
<text text-anchor="start" x="8" y="-23.5" font-family="Helvetica,sans-Serif" font-size="10.00">src/alpaqa/src/inner</text>
<text text-anchor="middle" x="56" y="-12.5" font-family="Helvetica,sans-Serif" font-size="10.00">/panoc.cpp</text>
</a>
</g>
</g>
<!-- Node6&#45;&gt;Node8 -->
<g id="edge7_Node000006_Node000008" class="edge">
<title>Node6&#45;&gt;Node8</title>
<g id="a_edge7_Node000006_Node000008"><a xlink:title=" ">
<path fill="none" stroke="#63b8ff" d="M353.46,-85.14C290.45,-75.3 199.46,-59.73 121,-41 114.24,-39.39 107.14,-37.48 100.22,-35.5"/>
<polygon fill="#63b8ff" stroke="#63b8ff" points="353.3,-88.66 363.72,-86.73 354.38,-81.74 353.3,-88.66"/>
</a>
</g>
</g>
<!-- Node9 -->
<g id="Node000009" class="node">
<title>Node9</title>
<g id="a_Node000009"><a xlink:href="panoc-alm_8cpp.html" target="_top" xlink:title=" ">
<polygon fill="white" stroke="#666666" points="706,-35.5 590,-35.5 590,-5.5 706,-5.5 706,-35.5"/>
<text text-anchor="start" x="598" y="-23.5" font-family="Helvetica,sans-Serif" font-size="10.00">src/alpaqa/src/panoc</text>
<text text-anchor="middle" x="648" y="-12.5" font-family="Helvetica,sans-Serif" font-size="10.00">&#45;alm.cpp</text>
</a>
</g>
</g>
<!-- Node6&#45;&gt;Node9 -->
<g id="edge8_Node000006_Node000009" class="edge">
<title>Node6&#45;&gt;Node9</title>
<g id="a_edge8_Node000006_Node000009"><a xlink:title=" ">
<path fill="none" stroke="#63b8ff" d="M497.35,-73.57C533.21,-61.17 576.35,-46.26 607.25,-35.58"/>
<polygon fill="#63b8ff" stroke="#63b8ff" points="495.76,-70.42 487.45,-76.99 498.04,-77.03 495.76,-70.42"/>
</a>
</g>
</g>
<!-- Node10 -->
<g id="Node000010" class="node">
<title>Node10</title>
<g id="a_Node000010"><a xlink:href="panoc-anderson-alm_8cpp.html" target="_top" xlink:title=" ">
<polygon fill="white" stroke="#666666" points="416,-35.5 300,-35.5 300,-5.5 416,-5.5 416,-35.5"/>
<text text-anchor="start" x="308" y="-23.5" font-family="Helvetica,sans-Serif" font-size="10.00">src/alpaqa/src/panoc</text>
<text text-anchor="middle" x="358" y="-12.5" font-family="Helvetica,sans-Serif" font-size="10.00">&#45;anderson&#45;alm.cpp</text>
</a>
</g>
</g>
<!-- Node6&#45;&gt;Node10 -->
<g id="edge9_Node000006_Node000010" class="edge">
<title>Node6&#45;&gt;Node10</title>
<g id="a_edge9_Node000006_Node000010"><a xlink:title=" ">
<path fill="none" stroke="#63b8ff" d="M404.79,-69.57C393.71,-58.18 381.25,-45.39 371.98,-35.86"/>
<polygon fill="#63b8ff" stroke="#63b8ff" points="402.34,-72.07 411.82,-76.79 407.35,-67.19 402.34,-72.07"/>
</a>
</g>
</g>
<!-- Node11 -->
<g id="Node000011" class="node">
<title>Node11</title>
<g id="a_Node000011"><a xlink:href="structured-panoc-alm_8cpp.html" target="_top" xlink:title=" ">
<polygon fill="white" stroke="#666666" points="571.5,-35.5 434.5,-35.5 434.5,-5.5 571.5,-5.5 571.5,-35.5"/>
<text text-anchor="start" x="442.5" y="-23.5" font-family="Helvetica,sans-Serif" font-size="10.00">src/alpaqa/src/structured</text>
<text text-anchor="middle" x="503" y="-12.5" font-family="Helvetica,sans-Serif" font-size="10.00">&#45;panoc&#45;alm.cpp</text>
</a>
</g>
</g>
<!-- Node6&#45;&gt;Node11 -->
<g id="edge10_Node000006_Node000011" class="edge">
<title>Node6&#45;&gt;Node11</title>
<g id="a_edge10_Node000006_Node000011"><a xlink:title=" ">
<path fill="none" stroke="#63b8ff" d="M456.86,-69.57C467.78,-58.18 480.07,-45.39 489.21,-35.86"/>
<polygon fill="#63b8ff" stroke="#63b8ff" points="454.32,-67.16 449.92,-76.79 459.37,-72 454.32,-67.16"/>
</a>
</g>
</g>
<!-- Node13 -->
<g id="Node000013" class="node">
<title>Node13</title>
<g id="a_Node000013"><a xlink:href="pantr_8cpp.html" target="_top" xlink:title=" ">
<polygon fill="white" stroke="#666666" points="999,-189.5 887,-189.5 887,-159.5 999,-159.5 999,-189.5"/>
<text text-anchor="start" x="895" y="-177.5" font-family="Helvetica,sans-Serif" font-size="10.00">src/alpaqa/src/inner</text>
<text text-anchor="middle" x="943" y="-166.5" font-family="Helvetica,sans-Serif" font-size="10.00">/pantr.cpp</text>
</a>
</g>
</g>
<!-- Node12&#45;&gt;Node13 -->
<g id="edge12_Node000012_Node000013" class="edge">
<title>Node12&#45;&gt;Node13</title>
<g id="a_edge12_Node000012_Node000013"><a xlink:title=" ">
<path fill="none" stroke="#63b8ff" d="M943,-220.61C943,-210.01 943,-198.57 943,-189.86"/>
<polygon fill="#63b8ff" stroke="#63b8ff" points="939.5,-220.79 943,-230.79 946.5,-220.79 939.5,-220.79"/>
</a>
</g>
</g>
<!-- Node14 -->
<g id="Node000014" class="node">
<title>Node14</title>
<g id="a_Node000014"><a xlink:href="newton-tr-pantr-alm_8cpp.html" target="_top" xlink:title=" ">
<polygon fill="white" stroke="#666666" points="847.5,-35.5 724.5,-35.5 724.5,-5.5 847.5,-5.5 847.5,-35.5"/>
<text text-anchor="start" x="732.5" y="-23.5" font-family="Helvetica,sans-Serif" font-size="10.00">src/alpaqa/src/newton</text>
<text text-anchor="middle" x="786" y="-12.5" font-family="Helvetica,sans-Serif" font-size="10.00">&#45;tr&#45;pantr&#45;alm.cpp</text>
</a>
</g>
</g>
<!-- Node12&#45;&gt;Node14 -->
<g id="edge13_Node000012_Node000014" class="edge">
<title>Node12&#45;&gt;Node14</title>
<g id="a_edge13_Node000012_Node000014"><a xlink:title=" ">
<path fill="none" stroke="#63b8ff" d="M907.81,-224.59C897.44,-215.91 886.58,-205.7 878,-195 835.56,-142.07 803.51,-66.59 791.34,-35.6"/>
<polygon fill="#63b8ff" stroke="#63b8ff" points="905.63,-227.33 915.6,-230.91 910.04,-221.89 905.63,-227.33"/>
</a>
</g>
</g>
<!-- Node16 -->
<g id="Node000016" class="node">
<title>Node16</title>
<g id="a_Node000016"><a xlink:href="zerofpr_8cpp.html" target="_top" xlink:title=" ">
<polygon fill="white" stroke="#666666" points="1548,-35.5 1436,-35.5 1436,-5.5 1548,-5.5 1548,-35.5"/>
<text text-anchor="start" x="1444" y="-23.5" font-family="Helvetica,sans-Serif" font-size="10.00">src/alpaqa/src/inner</text>
<text text-anchor="middle" x="1492" y="-12.5" font-family="Helvetica,sans-Serif" font-size="10.00">/zerofpr.cpp</text>
</a>
</g>
</g>
<!-- Node15&#45;&gt;Node16 -->
<g id="edge15_Node000015_Node000016" class="edge">
<title>Node15&#45;&gt;Node16</title>
<g id="a_edge15_Node000015_Node000016"><a xlink:title=" ">
<path fill="none" stroke="#63b8ff" d="M1148.89,-76.96C1272.56,-54.09 1307.82,-66.39 1427,-41 1434.14,-39.48 1441.64,-37.55 1448.9,-35.5"/>
<polygon fill="#63b8ff" stroke="#63b8ff" points="1148.21,-73.53 1139.04,-78.82 1149.51,-80.41 1148.21,-73.53"/>
</a>
</g>
</g>
<!-- Node17 -->
<g id="Node000017" class="node">
<title>Node17</title>
<g id="a_Node000017"><a xlink:href="structured-zerofpr-alm_8cpp.html" target="_top" xlink:title=" ">
<polygon fill="white" stroke="#666666" points="1137.5,-35.5 1000.5,-35.5 1000.5,-5.5 1137.5,-5.5 1137.5,-35.5"/>
<text text-anchor="start" x="1008.5" y="-23.5" font-family="Helvetica,sans-Serif" font-size="10.00">src/alpaqa/src/structured</text>
<text text-anchor="middle" x="1069" y="-12.5" font-family="Helvetica,sans-Serif" font-size="10.00">&#45;zerofpr&#45;alm.cpp</text>
</a>
</g>
</g>
<!-- Node15&#45;&gt;Node17 -->
<g id="edge16_Node000015_Node000017" class="edge">
<title>Node15&#45;&gt;Node17</title>
<g id="a_edge16_Node000015_Node000017"><a xlink:title=" ">
<path fill="none" stroke="#63b8ff" d="M1070.8,-66.61C1070.38,-56.01 1069.92,-44.57 1069.57,-35.86"/>
<polygon fill="#63b8ff" stroke="#63b8ff" points="1067.31,-66.94 1071.21,-76.79 1074.31,-66.66 1067.31,-66.94"/>
</a>
</g>
</g>
<!-- Node18 -->
<g id="Node000018" class="node">
<title>Node18</title>
<g id="a_Node000018"><a xlink:href="zerofpr-alm_8cpp.html" target="_top" xlink:title=" ">
<polygon fill="white" stroke="#666666" points="1278,-35.5 1156,-35.5 1156,-5.5 1278,-5.5 1278,-35.5"/>
<text text-anchor="start" x="1164" y="-23.5" font-family="Helvetica,sans-Serif" font-size="10.00">src/alpaqa/src/zerofpr</text>
<text text-anchor="middle" x="1217" y="-12.5" font-family="Helvetica,sans-Serif" font-size="10.00">&#45;alm.cpp</text>
</a>
</g>
</g>
<!-- Node15&#45;&gt;Node18 -->
<g id="edge17_Node000015_Node000018" class="edge">
<title>Node15&#45;&gt;Node18</title>
<g id="a_edge17_Node000015_Node000018"><a xlink:title=" ">
<path fill="none" stroke="#63b8ff" d="M1118.78,-72.3C1142.15,-60.22 1169.61,-46.01 1189.55,-35.7"/>
<polygon fill="#63b8ff" stroke="#63b8ff" points="1116.99,-69.29 1109.72,-76.99 1120.21,-75.5 1116.99,-69.29"/>
</a>
</g>
</g>
<!-- Node19 -->
<g id="Node000019" class="node">
<title>Node19</title>
<g id="a_Node000019"><a xlink:href="zerofpr-anderson-alm_8cpp.html" target="_top" xlink:title=" ">
<polygon fill="white" stroke="#666666" points="1418,-35.5 1296,-35.5 1296,-5.5 1418,-5.5 1418,-35.5"/>
<text text-anchor="start" x="1304" y="-23.5" font-family="Helvetica,sans-Serif" font-size="10.00">src/alpaqa/src/zerofpr</text>
<text text-anchor="middle" x="1357" y="-12.5" font-family="Helvetica,sans-Serif" font-size="10.00">&#45;anderson&#45;alm.cpp</text>
</a>
</g>
</g>
<!-- Node15&#45;&gt;Node19 -->
<g id="edge18_Node000015_Node000019" class="edge">
<title>Node15&#45;&gt;Node19</title>
<g id="a_edge18_Node000015_Node000019"><a xlink:title=" ">
<path fill="none" stroke="#63b8ff" d="M1149.19,-76.65C1205.19,-62.24 1273.39,-44.65 1287,-41 1293.46,-39.27 1300.24,-37.42 1306.94,-35.57"/>
<polygon fill="#63b8ff" stroke="#63b8ff" points="1148.07,-73.33 1139.25,-79.21 1149.81,-80.11 1148.07,-73.33"/>
</a>
</g>
</g>
<!-- Node20&#45;&gt;Node4 -->
<g id="edge20_Node000020_Node000004" class="edge">
<title>Node20&#45;&gt;Node4</title>
<g id="a_edge20_Node000020_Node000004"><a xlink:title=" ">
<path fill="none" stroke="#63b8ff" d="M1515.58,-233.12C1540.88,-223.98 1570.19,-211.25 1594,-195 1614.77,-180.82 1610.68,-165.59 1633,-154 1729.9,-103.71 1768.98,-139.6 1876,-118 1878.94,-117.41 1881.93,-116.77 1884.95,-116.11"/>
<polygon fill="#63b8ff" stroke="#63b8ff" points="1514.38,-229.83 1506.1,-236.44 1516.69,-236.43 1514.38,-229.83"/>
</a>
</g>
</g>
<!-- Node21 -->
<g id="Node000021" class="node">
<title>Node21</title>
<g id="a_Node000021"><a xlink:href="alm-helpers_8tpp.html" target="_top" xlink:title=" ">
<polygon fill="white" stroke="#666666" points="1302,-195 1136,-195 1136,-154 1302,-154 1302,-195"/>
<text text-anchor="start" x="1144" y="-183" font-family="Helvetica,sans-Serif" font-size="10.00">src/alpaqa/include</text>
<text text-anchor="start" x="1144" y="-172" font-family="Helvetica,sans-Serif" font-size="10.00">/alpaqa/implementation</text>
<text text-anchor="middle" x="1219" y="-161" font-family="Helvetica,sans-Serif" font-size="10.00">/outer/internal/alm&#45;helpers.tpp</text>
</a>
</g>
</g>
<!-- Node20&#45;&gt;Node21 -->
<g id="edge21_Node000020_Node000021" class="edge">
<title>Node20&#45;&gt;Node21</title>
<g id="a_edge21_Node000020_Node000021"><a xlink:title=" ">
<path fill="none" stroke="#63b8ff" d="M1403.41,-233.37C1367.1,-221.97 1319.31,-206.98 1281.48,-195.11"/>
<polygon fill="#63b8ff" stroke="#63b8ff" points="1402.74,-236.83 1413.33,-236.48 1404.83,-230.15 1402.74,-236.83"/>
</a>
</g>
</g>
<!-- Node25 -->
<g id="Node000025" class="node">
<title>Node25</title>
<g id="a_Node000025"><a xlink:href="ocproblem_8tpp.html" target="_top" xlink:title=" ">
<polygon fill="white" stroke="#666666" points="1454,-195 1320,-195 1320,-154 1454,-154 1454,-195"/>
<text text-anchor="start" x="1328" y="-183" font-family="Helvetica,sans-Serif" font-size="10.00">src/alpaqa/include</text>
<text text-anchor="start" x="1328" y="-172" font-family="Helvetica,sans-Serif" font-size="10.00">/alpaqa/implementation</text>
<text text-anchor="middle" x="1387" y="-161" font-family="Helvetica,sans-Serif" font-size="10.00">/problem/ocproblem.tpp</text>
</a>
</g>
</g>
<!-- Node20&#45;&gt;Node25 -->
<g id="edge32_Node000020_Node000025" class="edge">
<title>Node20&#45;&gt;Node25</title>
<g id="a_edge32_Node000020_Node000025"><a xlink:title=" ">
<path fill="none" stroke="#63b8ff" d="M1437.72,-229.07C1427.63,-218.41 1415.51,-205.62 1405.65,-195.2"/>
<polygon fill="#63b8ff" stroke="#63b8ff" points="1435.23,-231.54 1444.65,-236.39 1440.31,-226.72 1435.23,-231.54"/>
</a>
</g>
</g>
<!-- Node27 -->
<g id="Node000027" class="node">
<title>Node27</title>
<g id="a_Node000027"><a xlink:href="ocp-vars_8hpp.html" target="_top" xlink:title=" ">
<polygon fill="white" stroke="#666666" points="1777.5,-195 1642.5,-195 1642.5,-154 1777.5,-154 1777.5,-195"/>
<text text-anchor="start" x="1650.5" y="-183" font-family="Helvetica,sans-Serif" font-size="10.00">src/alpaqa/include</text>
<text text-anchor="start" x="1650.5" y="-172" font-family="Helvetica,sans-Serif" font-size="10.00">/alpaqa/inner/directions</text>
<text text-anchor="middle" x="1710" y="-161" font-family="Helvetica,sans-Serif" font-size="10.00">/panoc&#45;ocp/ocp&#45;vars.hpp</text>
</a>
</g>
</g>
<!-- Node20&#45;&gt;Node27 -->
<g id="edge34_Node000020_Node000027" class="edge">
<title>Node20&#45;&gt;Node27</title>
<g id="a_edge34_Node000020_Node000027"><a xlink:title=" ">
<path fill="none" stroke="#63b8ff" d="M1515.07,-233.51C1553.42,-222.1 1604.06,-207.03 1644.12,-195.11"/>
<polygon fill="#63b8ff" stroke="#63b8ff" points="1513.69,-230.27 1505.1,-236.48 1515.69,-236.98 1513.69,-230.27"/>
</a>
</g>
</g>
<!-- Node28 -->
<g id="Node000028" class="node">
<title>Node28</title>
<g id="a_Node000028"><a xlink:href="panoc-ocp_8hpp.html" target="_top" xlink:title=" ">
<polygon fill="white" stroke="#666666" points="1585.5,-195 1472.5,-195 1472.5,-154 1585.5,-154 1585.5,-195"/>
<text text-anchor="start" x="1480.5" y="-183" font-family="Helvetica,sans-Serif" font-size="10.00">src/alpaqa/include</text>
<text text-anchor="start" x="1480.5" y="-172" font-family="Helvetica,sans-Serif" font-size="10.00">/alpaqa/inner/panoc</text>
<text text-anchor="middle" x="1529" y="-161" font-family="Helvetica,sans-Serif" font-size="10.00">&#45;ocp.hpp</text>
</a>
</g>
</g>
<!-- Node20&#45;&gt;Node28 -->
<g id="edge36_Node000020_Node000028" class="edge">
<title>Node20&#45;&gt;Node28</title>
<g id="a_edge36_Node000020_Node000028"><a xlink:title=" ">
<path fill="none" stroke="#63b8ff" d="M1478.28,-229.07C1488.37,-218.41 1500.49,-205.62 1510.35,-195.2"/>
<polygon fill="#63b8ff" stroke="#63b8ff" points="1475.69,-226.72 1471.35,-236.39 1480.77,-231.54 1475.69,-226.72"/>
</a>
</g>
</g>
<!-- Node22 -->
<g id="Node000022" class="node">
<title>Node22</title>
<g id="a_Node000022"><a xlink:href="alm_8tpp.html" target="_top" xlink:title=" ">
<polygon fill="white" stroke="#666666" points="987,-118 853,-118 853,-77 987,-77 987,-118"/>
<text text-anchor="start" x="861" y="-106" font-family="Helvetica,sans-Serif" font-size="10.00">src/alpaqa/include</text>
<text text-anchor="start" x="861" y="-95" font-family="Helvetica,sans-Serif" font-size="10.00">/alpaqa/implementation</text>
<text text-anchor="middle" x="920" y="-84" font-family="Helvetica,sans-Serif" font-size="10.00">/outer/alm.tpp</text>
</a>
</g>
</g>
<!-- Node21&#45;&gt;Node22 -->
<g id="edge22_Node000021_Node000022" class="edge">
<title>Node21&#45;&gt;Node22</title>
<g id="a_edge22_Node000021_Node000022"><a xlink:title=" ">
<path fill="none" stroke="#63b8ff" d="M1130.08,-151.53C1089.22,-141.39 1040.13,-129.15 996,-118 993.09,-117.27 990.13,-116.51 987.13,-115.75"/>
<polygon fill="#63b8ff" stroke="#63b8ff" points="1129.46,-154.98 1140.01,-153.99 1131.15,-148.19 1129.46,-154.98"/>
</a>
</g>
</g>
<!-- Node24 -->
<g id="Node000024" class="node">
<title>Node24</title>
<g id="a_Node000024"><a xlink:href="alm-helpers_8cpp.html" target="_top" xlink:title=" ">
<polygon fill="white" stroke="#666666" points="1296.5,-112.5 1157.5,-112.5 1157.5,-82.5 1296.5,-82.5 1296.5,-112.5"/>
<text text-anchor="start" x="1165.5" y="-100.5" font-family="Helvetica,sans-Serif" font-size="10.00">src/alpaqa/src/outer</text>
<text text-anchor="middle" x="1227" y="-89.5" font-family="Helvetica,sans-Serif" font-size="10.00">/internal/alm&#45;helpers.cpp</text>
</a>
</g>
</g>
<!-- Node21&#45;&gt;Node24 -->
<g id="edge31_Node000021_Node000024" class="edge">
<title>Node21&#45;&gt;Node24</title>
<g id="a_edge31_Node000021_Node000024"><a xlink:title=" ">
<path fill="none" stroke="#63b8ff" d="M1222.19,-143.61C1223.32,-133.01 1224.54,-121.57 1225.47,-112.86"/>
<polygon fill="#63b8ff" stroke="#63b8ff" points="1218.68,-143.48 1221.1,-153.79 1225.64,-144.22 1218.68,-143.48"/>
</a>
</g>
</g>
<!-- Node22&#45;&gt;Node9 -->
<g id="edge25_Node000022_Node000009" class="edge">
<title>Node22&#45;&gt;Node9</title>
<g id="a_edge25_Node000022_Node000009"><a xlink:title=" ">
<path fill="none" stroke="#63b8ff" d="M842.88,-75.99C804.41,-65.66 757.2,-52.85 715,-41 708.82,-39.26 702.32,-37.41 695.91,-35.56"/>
<polygon fill="#63b8ff" stroke="#63b8ff" points="842.41,-79.49 852.98,-78.7 844.22,-72.73 842.41,-79.49"/>
</a>
</g>
</g>
<!-- Node22&#45;&gt;Node10 -->
<g id="edge26_Node000022_Node000010" class="edge">
<title>Node22&#45;&gt;Node10</title>
<g id="a_edge26_Node000022_Node000010"><a xlink:title=" ">
<path fill="none" stroke="#63b8ff" d="M842.88,-91.97C744.97,-85.27 571.19,-70.24 425,-41 417.63,-39.53 409.91,-37.62 402.42,-35.58"/>
<polygon fill="#63b8ff" stroke="#63b8ff" points="842.77,-95.47 852.99,-92.65 843.24,-88.48 842.77,-95.47"/>
</a>
</g>
</g>
<!-- Node22&#45;&gt;Node11 -->
<g id="edge27_Node000022_Node000011" class="edge">
<title>Node22&#45;&gt;Node11</title>
<g id="a_edge27_Node000022_Node000011"><a xlink:title=" ">
<path fill="none" stroke="#63b8ff" d="M842.89,-85.73C773.96,-75.67 670.35,-59.45 581,-41 573.07,-39.36 564.73,-37.47 556.57,-35.51"/>
<polygon fill="#63b8ff" stroke="#63b8ff" points="842.41,-89.2 852.8,-87.17 843.41,-82.27 842.41,-89.2"/>
</a>
</g>
</g>
<!-- Node22&#45;&gt;Node14 -->
<g id="edge24_Node000022_Node000014" class="edge">
<title>Node22&#45;&gt;Node14</title>
<g id="a_edge24_Node000022_Node000014"><a xlink:title=" ">
<path fill="none" stroke="#63b8ff" d="M876.19,-71.98C854.73,-59.97 829.63,-45.92 811.37,-35.7"/>
<polygon fill="#63b8ff" stroke="#63b8ff" points="874.71,-75.16 885.14,-76.99 878.13,-69.05 874.71,-75.16"/>
</a>
</g>
</g>
<!-- Node22&#45;&gt;Node17 -->
<g id="edge28_Node000022_Node000017" class="edge">
<title>Node22&#45;&gt;Node17</title>
<g id="a_edge28_Node000022_Node000017"><a xlink:title=" ">
<path fill="none" stroke="#63b8ff" d="M967.75,-72.46C991.83,-60.34 1020.21,-46.06 1040.79,-35.7"/>
<polygon fill="#63b8ff" stroke="#63b8ff" points="966.12,-69.37 958.76,-76.99 969.26,-75.62 966.12,-69.37"/>
</a>
</g>
</g>
<!-- Node22&#45;&gt;Node18 -->
<g id="edge29_Node000022_Node000018" class="edge">
<title>Node22&#45;&gt;Node18</title>
<g id="a_edge29_Node000022_Node000018"><a xlink:title=" ">
<path fill="none" stroke="#63b8ff" d="M996.94,-76.79C1064.17,-60.23 1082.58,-57.31 1146,-41 1152.69,-39.28 1159.71,-37.42 1166.63,-35.55"/>
<polygon fill="#63b8ff" stroke="#63b8ff" points="995.99,-73.42 987.12,-79.22 997.67,-80.21 995.99,-73.42"/>
</a>
</g>
</g>
<!-- Node22&#45;&gt;Node19 -->
<g id="edge30_Node000022_Node000019" class="edge">
<title>Node22&#45;&gt;Node19</title>
<g id="a_edge30_Node000022_Node000019"><a xlink:title=" ">
<path fill="none" stroke="#63b8ff" d="M996.89,-76.97C1125.82,-53.41 1162.33,-65.93 1287,-41 1294.55,-39.49 1302.47,-37.59 1310.16,-35.58"/>
<polygon fill="#63b8ff" stroke="#63b8ff" points="996.22,-73.53 987.03,-78.8 997.5,-80.41 996.22,-73.53"/>
</a>
</g>
</g>
<!-- Node23 -->
<g id="Node000023" class="node">
<title>Node23</title>
<g id="a_Node000023"><a xlink:href="fista-driver_8cpp.html" target="_top" xlink:title=" ">
<polygon fill="white" stroke="#666666" points="982,-35.5 866,-35.5 866,-5.5 982,-5.5 982,-35.5"/>
<text text-anchor="start" x="874" y="-23.5" font-family="Helvetica,sans-Serif" font-size="10.00">src/alpaqa/src/driver</text>
<text text-anchor="middle" x="924" y="-12.5" font-family="Helvetica,sans-Serif" font-size="10.00">/fista&#45;driver.cpp</text>
</a>
</g>
</g>
<!-- Node22&#45;&gt;Node23 -->
<g id="edge23_Node000022_Node000023" class="edge">
<title>Node22&#45;&gt;Node23</title>
<g id="a_edge23_Node000022_Node000023"><a xlink:title=" ">
<path fill="none" stroke="#63b8ff" d="M921.59,-66.61C922.16,-56.01 922.77,-44.57 923.23,-35.86"/>
<polygon fill="#63b8ff" stroke="#63b8ff" points="918.09,-66.62 921.05,-76.79 925.08,-67 918.09,-66.62"/>
</a>
</g>
</g>
<!-- Node26 -->
<g id="Node000026" class="node">
<title>Node26</title>
<g id="a_Node000026"><a xlink:href="ocproblem_8cpp.html" target="_top" xlink:title=" ">
<polygon fill="white" stroke="#666666" points="1443,-112.5 1315,-112.5 1315,-82.5 1443,-82.5 1443,-112.5"/>
<text text-anchor="start" x="1323" y="-100.5" font-family="Helvetica,sans-Serif" font-size="10.00">src/alpaqa/src/problem</text>
<text text-anchor="middle" x="1379" y="-89.5" font-family="Helvetica,sans-Serif" font-size="10.00">/ocproblem.cpp</text>
</a>
</g>
</g>
<!-- Node25&#45;&gt;Node26 -->
<g id="edge33_Node000025_Node000026" class="edge">
<title>Node25&#45;&gt;Node26</title>
<g id="a_edge33_Node000025_Node000026"><a xlink:title=" ">
<path fill="none" stroke="#63b8ff" d="M1383.81,-143.61C1382.68,-133.01 1381.46,-121.57 1380.53,-112.86"/>
<polygon fill="#63b8ff" stroke="#63b8ff" points="1380.36,-144.22 1384.9,-153.79 1387.32,-143.48 1380.36,-144.22"/>
</a>
</g>
</g>
<!-- Node27&#45;&gt;Node4 -->
<g id="edge35_Node000027_Node000004" class="edge">
<title>Node27&#45;&gt;Node4</title>
<g id="a_edge35_Node000027_Node000004"><a xlink:title=" ">
<path fill="none" stroke="#63b8ff" d="M1782.78,-150.94C1816.6,-140.46 1856.43,-128.12 1888.94,-118.04"/>
<polygon fill="#63b8ff" stroke="#63b8ff" points="1781.47,-147.69 1772.95,-153.99 1783.54,-154.37 1781.47,-147.69"/>
</a>
</g>
</g>
<!-- Node28&#45;&gt;Node4 -->
<g id="edge37_Node000028_Node000004" class="edge">
<title>Node28&#45;&gt;Node4</title>
<g id="a_edge37_Node000028_Node000004"><a xlink:title=" ">
<path fill="none" stroke="#63b8ff" d="M1595.62,-154.91C1597.09,-154.6 1598.55,-154.29 1600,-154 1721.27,-129.56 1754.53,-141.42 1876,-118 1878.94,-117.43 1881.94,-116.82 1884.96,-116.17"/>
<polygon fill="#63b8ff" stroke="#63b8ff" points="1594.77,-151.52 1585.8,-157.16 1596.33,-158.34 1594.77,-151.52"/>
</a>
</g>
</g>
<!-- Node29 -->
<g id="Node000029" class="node">
<title>Node29</title>
<g id="a_Node000029"><a xlink:href="param-complete_8cpp.html" target="_top" xlink:title=" ">
<polygon fill="white" stroke="#666666" points="1582.5,-112.5 1461.5,-112.5 1461.5,-82.5 1582.5,-82.5 1582.5,-112.5"/>
<text text-anchor="start" x="1469.5" y="-100.5" font-family="Helvetica,sans-Serif" font-size="10.00">src/alpaqa/src/driver</text>
<text text-anchor="middle" x="1522" y="-89.5" font-family="Helvetica,sans-Serif" font-size="10.00">/param&#45;complete.cpp</text>
</a>
</g>
</g>
<!-- Node28&#45;&gt;Node29 -->
<g id="edge38_Node000028_Node000029" class="edge">
<title>Node28&#45;&gt;Node29</title>
<g id="a_edge38_Node000028_Node000029"><a xlink:title=" ">
<path fill="none" stroke="#63b8ff" d="M1526.21,-143.61C1525.22,-133.01 1524.15,-121.57 1523.34,-112.86"/>
<polygon fill="#63b8ff" stroke="#63b8ff" points="1522.75,-144.16 1527.16,-153.79 1529.72,-143.51 1522.75,-144.16"/>
</a>
</g>
</g>
<!-- Node30 -->
<g id="Node000030" class="node">
<title>Node30</title>
<g id="a_Node000030"><a xlink:href="json_8cpp.html" target="_top" xlink:title=" ">
<polygon fill="white" stroke="#666666" points="1725,-112.5 1601,-112.5 1601,-82.5 1725,-82.5 1725,-112.5"/>
<text text-anchor="start" x="1609" y="-100.5" font-family="Helvetica,sans-Serif" font-size="10.00">src/alpaqa/src/params</text>
<text text-anchor="middle" x="1663" y="-89.5" font-family="Helvetica,sans-Serif" font-size="10.00">/json.cpp</text>
</a>
</g>
</g>
<!-- Node28&#45;&gt;Node30 -->
<g id="edge39_Node000028_Node000030" class="edge">
<title>Node28&#45;&gt;Node30</title>
<g id="a_edge39_Node000028_Node000030"><a xlink:title=" ">
<path fill="none" stroke="#63b8ff" d="M1572.81,-148.98C1594.27,-136.97 1619.37,-122.92 1637.63,-112.7"/>
<polygon fill="#63b8ff" stroke="#63b8ff" points="1570.87,-146.05 1563.86,-153.99 1574.29,-152.16 1570.87,-146.05"/>
</a>
</g>
</g>
<!-- Node31 -->
<g id="Node000031" class="node">
<title>Node31</title>
<g id="a_Node000031"><a xlink:href="params_8cpp.html" target="_top" xlink:title=" ">
<polygon fill="white" stroke="#666666" points="1867,-112.5 1743,-112.5 1743,-82.5 1867,-82.5 1867,-112.5"/>
<text text-anchor="start" x="1751" y="-100.5" font-family="Helvetica,sans-Serif" font-size="10.00">src/alpaqa/src/params</text>
<text text-anchor="middle" x="1805" y="-89.5" font-family="Helvetica,sans-Serif" font-size="10.00">/params.cpp</text>
</a>
</g>
</g>
<!-- Node28&#45;&gt;Node31 -->
<g id="edge40_Node000028_Node000031" class="edge">
<title>Node28&#45;&gt;Node31</title>
<g id="a_edge40_Node000028_Node000031"><a xlink:title=" ">
<path fill="none" stroke="#63b8ff" d="M1595.56,-155.21C1597.05,-154.8 1598.54,-154.4 1600,-154 1659.51,-137.83 1674.49,-134.17 1734,-118 1740.41,-116.26 1747.15,-114.42 1753.82,-112.59"/>
<polygon fill="#63b8ff" stroke="#63b8ff" points="1594.3,-151.92 1585.57,-157.93 1596.14,-158.68 1594.3,-151.92"/>
</a>
</g>
</g>
<!-- Node33 -->
<g id="Node000033" class="node">
<title>Node33</title>
<g id="a_Node000033"><a xlink:href="problem_8cpp.html" target="_top" xlink:title=" ">
<polygon fill="white" stroke="#666666" points="1962,-189.5 1846,-189.5 1846,-159.5 1962,-159.5 1962,-189.5"/>
<text text-anchor="start" x="1854" y="-177.5" font-family="Helvetica,sans-Serif" font-size="10.00">src/alpaqa/src/driver</text>
<text text-anchor="middle" x="1904" y="-166.5" font-family="Helvetica,sans-Serif" font-size="10.00">/problem.cpp</text>
</a>
</g>
</g>
<!-- Node32&#45;&gt;Node33 -->
<g id="edge42_Node000032_Node000033" class="edge">
<title>Node32&#45;&gt;Node33</title>
<g id="a_edge42_Node000032_Node000033"><a xlink:title=" ">
<path fill="none" stroke="#63b8ff" d="M1904,-220.61C1904,-210.01 1904,-198.57 1904,-189.86"/>
<polygon fill="#63b8ff" stroke="#63b8ff" points="1900.5,-220.79 1904,-230.79 1907.5,-220.79 1900.5,-220.79"/>
</a>
</g>
</g>
</g>
</svg>
