<?xml version="1.0" encoding="UTF-8" standalone="no"?>
<!DOCTYPE svg PUBLIC "-//W3C//DTD SVG 1.1//EN"
 "http://www.w3.org/Graphics/SVG/1.1/DTD/svg11.dtd">
<!-- Generated by graphviz version 2.43.0 (0)
 -->
<!-- Title: run_alm_solver Pages: 1 -->
<svg width="288pt" height="76pt"
 viewBox="0.00 0.00 288.00 75.50" xmlns="http://www.w3.org/2000/svg" xmlns:xlink="http://www.w3.org/1999/xlink">
<g id="graph0" class="graph" transform="scale(1 1) rotate(0) translate(4 71.5)">
<title>run_alm_solver</title>
<!-- Node1 -->
<g id="node1" class="node">
<title>Node1</title>
<g id="a_node1"><a xlink:title=" ">
<polygon fill="#999999" stroke="#666666" points="92,-45.5 0,-45.5 0,-26.5 92,-26.5 92,-45.5"/>
<text text-anchor="middle" x="46" y="-33.5" font-family="Helvetica,sans-Serif" font-size="10.00">run_alm_solver</text>
</a>
</g>
</g>
<!-- Node2 -->
<g id="node2" class="node">
<title>Node2</title>
<g id="a_node2"><a xlink:href="ipopt-enums_8hpp.html#a78dc4442f5ab598a9c86a57e0c067f98" target="_top" xlink:title=" ">
<polygon fill="white" stroke="#666666" points="242.5,-67.5 165.5,-67.5 165.5,-48.5 242.5,-48.5 242.5,-67.5"/>
<text text-anchor="middle" x="204" y="-55.5" font-family="Helvetica,sans-Serif" font-size="10.00">enum_name</text>
</a>
</g>
</g>
<!-- Node1&#45;&gt;Node2 -->
<g id="edge1" class="edge">
<title>Node1&#45;&gt;Node2</title>
<path fill="none" stroke="#63b8ff" d="M92.12,-42.36C111.89,-45.15 135.11,-48.43 155.18,-51.26"/>
<polygon fill="#63b8ff" stroke="#63b8ff" points="154.96,-54.76 165.35,-52.69 155.94,-47.83 154.96,-54.76"/>
</g>
<!-- Node3 -->
<g id="node3" class="node">
<title>Node3</title>
<g id="a_node3"><a xlink:href="classalpaqa_1_1TypeErasedProblem.html#a4cb358cffb880a83ec60933c6d44cef4" target="_top" xlink:title="[Required] Number of constraints.">
<polygon fill="white" stroke="#666666" points="280,-30 128,-30 128,0 280,0 280,-30"/>
<text text-anchor="start" x="136" y="-18" font-family="Helvetica,sans-Serif" font-size="10.00">alpaqa::TypeErasedProblem</text>
<text text-anchor="middle" x="204" y="-7" font-family="Helvetica,sans-Serif" font-size="10.00">::get_m</text>
</a>
</g>
</g>
<!-- Node1&#45;&gt;Node3 -->
<g id="edge2" class="edge">
<title>Node1&#45;&gt;Node3</title>
<path fill="none" stroke="#63b8ff" d="M92.12,-29.93C100.23,-28.83 108.92,-27.67 117.73,-26.48"/>
<polygon fill="#63b8ff" stroke="#63b8ff" points="118.26,-29.94 127.71,-25.14 117.33,-23 118.26,-29.94"/>
</g>
</g>
</svg>
