<?xml version="1.0" encoding="UTF-8" standalone="no"?>
<!DOCTYPE svg PUBLIC "-//W3C//DTD SVG 1.1//EN"
 "http://www.w3.org/Graphics/SVG/1.1/DTD/svg11.dtd">
<!-- Generated by graphviz version 2.43.0 (0)
 -->
<!-- Title: eval_hess_ψ_prod Pages: 1 -->
<svg width="294pt" height="123pt"
 viewBox="0.00 0.00 294.00 123.00" xmlns="http://www.w3.org/2000/svg" xmlns:xlink="http://www.w3.org/1999/xlink">
<g id="graph0" class="graph" transform="scale(1 1) rotate(0) translate(4 119)">
<title>eval_hess_ψ_prod</title>
<!-- Node1 -->
<g id="node1" class="node">
<title>Node1</title>
<g id="a_node1"><a xlink:title=" ">
<polygon fill="#999999" stroke="#666666" points="104,-78 0,-78 0,-59 104,-59 104,-78"/>
<text text-anchor="middle" x="52" y="-66" font-family="Helvetica,sans-Serif" font-size="10.00">eval_hess_ψ_prod</text>
</a>
</g>
</g>
<!-- Node2 -->
<g id="node2" class="node">
<title>Node2</title>
<g id="a_node2"><a xlink:href="classalpaqa_1_1CUTEstProblem.html#acdf5c7c7f249c05d53643e1715070f45" target="_top" xlink:title=" ">
<polygon fill="white" stroke="#666666" points="237.5,-115 188.5,-115 188.5,-96 237.5,-96 237.5,-115"/>
<text text-anchor="middle" x="213" y="-103" font-family="Helvetica,sans-Serif" font-size="10.00">eval_g</text>
</a>
</g>
</g>
<!-- Node1&#45;&gt;Node2 -->
<g id="edge1" class="edge">
<title>Node1&#45;&gt;Node2</title>
<path fill="none" stroke="#63b8ff" d="M93.95,-78.03C120.19,-84.14 153.84,-91.97 178.49,-97.7"/>
<polygon fill="#63b8ff" stroke="#63b8ff" points="177.92,-101.16 188.46,-100.02 179.51,-94.35 177.92,-101.16"/>
</g>
<!-- Node3 -->
<g id="node3" class="node">
<title>Node3</title>
<g id="a_node3"><a xlink:href="classalpaqa_1_1CUTEstProblem.html#ab5bca0389ad783efa413bbdda072b9e9" target="_top" xlink:title=" ">
<polygon fill="white" stroke="#666666" points="264.5,-78 161.5,-78 161.5,-59 264.5,-59 264.5,-78"/>
<text text-anchor="middle" x="213" y="-66" font-family="Helvetica,sans-Serif" font-size="10.00">eval_hess_L_prod</text>
</a>
</g>
</g>
<!-- Node1&#45;&gt;Node3 -->
<g id="edge2" class="edge">
<title>Node1&#45;&gt;Node3</title>
<path fill="none" stroke="#63b8ff" d="M104.18,-68.5C119.23,-68.5 135.83,-68.5 151.4,-68.5"/>
<polygon fill="#63b8ff" stroke="#63b8ff" points="151.46,-72 161.46,-68.5 151.46,-65 151.46,-72"/>
</g>
<!-- Node4 -->
<g id="node4" class="node">
<title>Node4</title>
<g id="a_node4"><a xlink:href="classalpaqa_1_1BoxConstrProblem.html#a1188b7c2ef47c06747bf40e723f5acf1" target="_top" xlink:title=" ">
<polygon fill="white" stroke="#666666" points="286,-41 140,-41 140,0 286,0 286,-41"/>
<text text-anchor="start" x="148" y="-29" font-family="Helvetica,sans-Serif" font-size="10.00">alpaqa::BoxConstrProblem</text>
<text text-anchor="start" x="148" y="-18" font-family="Helvetica,sans-Serif" font-size="10.00">&lt; alpaqa::EigenConfigd</text>
<text text-anchor="middle" x="213" y="-7" font-family="Helvetica,sans-Serif" font-size="10.00"> &gt;::eval_proj_diff_g</text>
</a>
</g>
</g>
<!-- Node1&#45;&gt;Node4 -->
<g id="edge3" class="edge">
<title>Node1&#45;&gt;Node4</title>
<path fill="none" stroke="#63b8ff" d="M84.79,-58.9C99.09,-54.59 116.66,-49.28 134.12,-44.01"/>
<polygon fill="#63b8ff" stroke="#63b8ff" points="135.23,-47.33 143.79,-41.09 133.21,-40.63 135.23,-47.33"/>
</g>
</g>
</svg>
