<?xml version="1.0" encoding="UTF-8" standalone="no"?>
<!DOCTYPE svg PUBLIC "-//W3C//DTD SVG 1.1//EN"
 "http://www.w3.org/Graphics/SVG/1.1/DTD/svg11.dtd">
<!-- Generated by graphviz version 2.43.0 (0)
 -->
<!-- Title: eval_g Pages: 1 -->
<svg width="331pt" height="230pt"
 viewBox="0.00 0.00 331.00 230.00" xmlns="http://www.w3.org/2000/svg" xmlns:xlink="http://www.w3.org/1999/xlink">
<g id="graph0" class="graph" transform="scale(1 1) rotate(0) translate(4 226)">
<title>eval_g</title>
<!-- Node1 -->
<g id="node1" class="node">
<title>Node1</title>
<g id="a_node1"><a xlink:title="[Required] Function that evaluates the constraints,">
<polygon fill="#999999" stroke="#666666" points="323,-120.5 274,-120.5 274,-101.5 323,-101.5 323,-120.5"/>
<text text-anchor="middle" x="298.5" y="-108.5" font-family="Helvetica,sans-Serif" font-size="10.00">eval_g</text>
</a>
</g>
</g>
<!-- Node2 -->
<g id="node2" class="node">
<title>Node2</title>
<g id="a_node2"><a xlink:href="namespacealpaqa.html#a4ca1e55c8c5fb7305b9e55d746d7929e" target="_top" xlink:title=" ">
<polygon fill="white" stroke="#666666" points="215.5,-222 99.5,-222 99.5,-192 215.5,-192 215.5,-222"/>
<text text-anchor="start" x="107.5" y="-210" font-family="Helvetica,sans-Serif" font-size="10.00">alpaqa::build_qpalm</text>
<text text-anchor="middle" x="157.5" y="-199" font-family="Helvetica,sans-Serif" font-size="10.00">_problem</text>
</a>
</g>
</g>
<!-- Node1&#45;&gt;Node2 -->
<g id="edge1" class="edge">
<title>Node1&#45;&gt;Node2</title>
<path fill="none" stroke="#63b8ff" d="M286.56,-129.66C276.06,-145.98 258.77,-169.19 238,-183 231.16,-187.55 223.42,-191.26 215.53,-194.29"/>
<polygon fill="#63b8ff" stroke="#63b8ff" points="289.65,-131.31 291.92,-120.96 283.69,-127.63 289.65,-131.31"/>
</g>
<!-- Node3 -->
<g id="node3" class="node">
<title>Node3</title>
<g id="a_node3"><a xlink:href="structalpaqa_1_1detail_1_1PANOCHelpers.html#abbe7a9499d34168ba294d9737ab1516d" target="_top" xlink:title="Calculate the error between ẑ and g(x).">
<polygon fill="white" stroke="#666666" points="238,-174 77,-174 77,-144 238,-144 238,-174"/>
<text text-anchor="start" x="85" y="-162" font-family="Helvetica,sans-Serif" font-size="10.00">alpaqa::detail::PANOCHelpers</text>
<text text-anchor="middle" x="157.5" y="-151" font-family="Helvetica,sans-Serif" font-size="10.00">::calc_err_z</text>
</a>
</g>
</g>
<!-- Node1&#45;&gt;Node3 -->
<g id="edge2" class="edge">
<title>Node1&#45;&gt;Node3</title>
<path fill="none" stroke="#63b8ff" d="M265.79,-124.41C256.86,-128.01 247.11,-131.8 238,-135 229.3,-138.06 219.98,-141.09 210.89,-143.92"/>
<polygon fill="#63b8ff" stroke="#63b8ff" points="267.15,-127.63 275.08,-120.6 264.5,-121.15 267.15,-127.63"/>
</g>
<!-- Node4 -->
<g id="node4" class="node">
<title>Node4</title>
<g id="a_node4"><a xlink:href="namespacealpaqa.html#afb0811428e64aa5c800ec37e76ddd051" target="_top" xlink:title=" ">
<polygon fill="white" stroke="#666666" points="217,-126 98,-126 98,-96 217,-96 217,-126"/>
<text text-anchor="start" x="106" y="-114" font-family="Helvetica,sans-Serif" font-size="10.00">alpaqa::compute_kkt</text>
<text text-anchor="middle" x="157.5" y="-103" font-family="Helvetica,sans-Serif" font-size="10.00">_error</text>
</a>
</g>
</g>
<!-- Node1&#45;&gt;Node4 -->
<g id="edge3" class="edge">
<title>Node1&#45;&gt;Node4</title>
<path fill="none" stroke="#63b8ff" d="M263.8,-111C249.82,-111 233.17,-111 217.29,-111"/>
<polygon fill="#63b8ff" stroke="#63b8ff" points="263.92,-114.5 273.92,-111 263.92,-107.5 263.92,-114.5"/>
</g>
<!-- Node6 -->
<g id="node6" class="node">
<title>Node6</title>
<g id="a_node6"><a xlink:href="classalpaqa_1_1IpoptAdapter.html#a304ed61b79e02e6b4d18500bd2ba63b8" target="_top" xlink:title=" ">
<polygon fill="white" stroke="#666666" points="217,-78 98,-78 98,-48 217,-48 217,-78"/>
<text text-anchor="start" x="106" y="-66" font-family="Helvetica,sans-Serif" font-size="10.00">alpaqa::IpoptAdapter</text>
<text text-anchor="middle" x="157.5" y="-55" font-family="Helvetica,sans-Serif" font-size="10.00">::eval_g</text>
</a>
</g>
</g>
<!-- Node1&#45;&gt;Node6 -->
<g id="edge5" class="edge">
<title>Node1&#45;&gt;Node6</title>
<path fill="none" stroke="#63b8ff" d="M265.79,-97.59C256.86,-93.99 247.11,-90.2 238,-87 229.3,-83.94 219.98,-80.91 210.89,-78.08"/>
<polygon fill="#63b8ff" stroke="#63b8ff" points="264.5,-100.85 275.08,-101.4 267.15,-94.37 264.5,-100.85"/>
</g>
<!-- Node7 -->
<g id="node7" class="node">
<title>Node7</title>
<g id="a_node7"><a xlink:href="structalpaqa_1_1detail_1_1ALMHelpers.html#aa91b6b1a0715e1efaf34b25131d0e8f1" target="_top" xlink:title=" ">
<polygon fill="white" stroke="#666666" points="231.5,-30 83.5,-30 83.5,0 231.5,0 231.5,-30"/>
<text text-anchor="start" x="91.5" y="-18" font-family="Helvetica,sans-Serif" font-size="10.00">alpaqa::detail::ALMHelpers</text>
<text text-anchor="middle" x="157.5" y="-7" font-family="Helvetica,sans-Serif" font-size="10.00">::initialize_penalty</text>
</a>
</g>
</g>
<!-- Node1&#45;&gt;Node7 -->
<g id="edge6" class="edge">
<title>Node1&#45;&gt;Node7</title>
<path fill="none" stroke="#63b8ff" d="M286.56,-92.34C276.06,-76.02 258.77,-52.81 238,-39 232.84,-35.57 227.17,-32.61 221.3,-30.07"/>
<polygon fill="#63b8ff" stroke="#63b8ff" points="283.69,-94.37 291.92,-101.04 289.65,-90.69 283.69,-94.37"/>
</g>
<!-- Node5 -->
<g id="node5" class="node">
<title>Node5</title>
<g id="a_node5"><a xlink:href="alpaqa-driver_8cpp.html#ac0f2228420376f4db7e1274f2b41667c" target="_top" xlink:title=" ">
<polygon fill="white" stroke="#666666" points="41,-120.5 0,-120.5 0,-101.5 41,-101.5 41,-120.5"/>
<text text-anchor="middle" x="20.5" y="-108.5" font-family="Helvetica,sans-Serif" font-size="10.00">main</text>
</a>
</g>
</g>
<!-- Node4&#45;&gt;Node5 -->
<g id="edge4" class="edge">
<title>Node4&#45;&gt;Node5</title>
<path fill="none" stroke="#63b8ff" d="M87.62,-111C70.51,-111 53.52,-111 41.05,-111"/>
<polygon fill="#63b8ff" stroke="#63b8ff" points="87.68,-114.5 97.68,-111 87.68,-107.5 87.68,-114.5"/>
</g>
</g>
</svg>
