<?xml version="1.0" encoding="UTF-8" standalone="no"?>
<!DOCTYPE svg PUBLIC "-//W3C//DTD SVG 1.1//EN"
 "http://www.w3.org/Graphics/SVG/1.1/DTD/svg11.dtd">
<!-- Generated by graphviz version 2.43.0 (0)
 -->
<!-- Title: provides_eval_hess_ψ Pages: 1 -->
<svg width="389pt" height="86pt"
 viewBox="0.00 0.00 389.00 86.00" xmlns="http://www.w3.org/2000/svg" xmlns:xlink="http://www.w3.org/1999/xlink">
<g id="graph0" class="graph" transform="scale(1 1) rotate(0) translate(4 82)">
<title>provides_eval_hess_ψ</title>
<!-- Node1 -->
<g id="node1" class="node">
<title>Node1</title>
<g id="a_node1"><a xlink:title="Returns true if the problem provides an implementation of eval_hess_ψ.">
<polygon fill="#999999" stroke="#666666" points="381,-48.5 256,-48.5 256,-29.5 381,-29.5 381,-48.5"/>
<text text-anchor="middle" x="318.5" y="-36.5" font-family="Helvetica,sans-Serif" font-size="10.00">provides_eval_hess_ψ</text>
</a>
</g>
</g>
<!-- Node2 -->
<g id="node2" class="node">
<title>Node2</title>
<g id="a_node2"><a xlink:href="structalpaqa_1_1StructuredNewtonDirection.html#abef09c52cdc391877cde2c5825fe65e6" target="_top" xlink:title=" ">
<polygon fill="white" stroke="#666666" points="220,-78 77,-78 77,-48 220,-48 220,-78"/>
<text text-anchor="start" x="85" y="-66" font-family="Helvetica,sans-Serif" font-size="10.00">alpaqa::StructuredNewton</text>
<text text-anchor="middle" x="148.5" y="-55" font-family="Helvetica,sans-Serif" font-size="10.00">Direction::initialize</text>
</a>
</g>
</g>
<!-- Node1&#45;&gt;Node2 -->
<g id="edge1" class="edge">
<title>Node1&#45;&gt;Node2</title>
<path fill="none" stroke="#63b8ff" d="M245.97,-49.22C237.44,-50.44 228.72,-51.68 220.19,-52.9"/>
<polygon fill="#63b8ff" stroke="#63b8ff" points="246.49,-52.68 255.9,-47.8 245.5,-45.75 246.49,-52.68"/>
</g>
<!-- Node3 -->
<g id="node3" class="node">
<title>Node3</title>
<g id="a_node3"><a xlink:href="group__grp__Problems.html#ga9ed51a24b30020b93df728547026f370" target="_top" xlink:title=" ">
<polygon fill="white" stroke="#666666" points="211.5,-30 85.5,-30 85.5,0 211.5,0 211.5,-30"/>
<text text-anchor="start" x="93.5" y="-18" font-family="Helvetica,sans-Serif" font-size="10.00">alpaqa::print_provided</text>
<text text-anchor="middle" x="148.5" y="-7" font-family="Helvetica,sans-Serif" font-size="10.00">_functions</text>
</a>
</g>
</g>
<!-- Node1&#45;&gt;Node3 -->
<g id="edge2" class="edge">
<title>Node1&#45;&gt;Node3</title>
<path fill="none" stroke="#63b8ff" d="M245.97,-28.78C234.56,-27.15 222.83,-25.48 211.66,-23.88"/>
<polygon fill="#63b8ff" stroke="#63b8ff" points="245.5,-32.25 255.9,-30.2 246.49,-25.32 245.5,-32.25"/>
</g>
<!-- Node4 -->
<g id="node4" class="node">
<title>Node4</title>
<g id="a_node4"><a xlink:href="alpaqa-driver_8cpp.html#ac0f2228420376f4db7e1274f2b41667c" target="_top" xlink:title=" ">
<polygon fill="white" stroke="#666666" points="41,-24.5 0,-24.5 0,-5.5 41,-5.5 41,-24.5"/>
<text text-anchor="middle" x="20.5" y="-12.5" font-family="Helvetica,sans-Serif" font-size="10.00">main</text>
</a>
</g>
</g>
<!-- Node3&#45;&gt;Node4 -->
<g id="edge3" class="edge">
<title>Node3&#45;&gt;Node4</title>
<path fill="none" stroke="#63b8ff" d="M75.15,-15C62.65,-15 50.65,-15 41.19,-15"/>
<polygon fill="#63b8ff" stroke="#63b8ff" points="75.24,-18.5 85.24,-15 75.24,-11.5 75.24,-18.5"/>
</g>
</g>
</svg>
