<?xml version="1.0" encoding="UTF-8" standalone="no"?>
<!DOCTYPE svg PUBLIC "-//W3C//DTD SVG 1.1//EN"
 "http://www.w3.org/Graphics/SVG/1.1/DTD/svg11.dtd">
<!-- Generated by graphviz version 2.43.0 (0)
 -->
<!-- Title: used Pages: 1 -->
<svg width="389pt" height="229pt"
 viewBox="0.00 0.00 389.00 229.37" xmlns="http://www.w3.org/2000/svg" xmlns:xlink="http://www.w3.org/1999/xlink">
<g id="graph0" class="graph" transform="scale(1 1) rotate(0) translate(4 225.37)">
<title>used</title>
<!-- Node1 -->
<g id="node1" class="node">
<title>Node1</title>
<g id="a_node1"><a xlink:title=" ">
<polygon fill="#999999" stroke="#666666" points="381,-148 341,-148 341,-129 381,-129 381,-148"/>
<text text-anchor="middle" x="361" y="-136" font-family="Helvetica,sans-Serif" font-size="10.00">used</text>
</a>
</g>
</g>
<!-- Node2 -->
<g id="node2" class="node">
<title>Node2</title>
<g id="a_node2"><a xlink:href="problem_8cpp.html#ae36fc572e3716fb2dbe8ff77cfe1ee10" target="_top" xlink:title=" ">
<polygon fill="white" stroke="#666666" points="305,-204 222,-204 222,-185 305,-185 305,-204"/>
<text text-anchor="middle" x="263.5" y="-192" font-family="Helvetica,sans-Serif" font-size="10.00">load_problem</text>
</a>
</g>
</g>
<!-- Node1&#45;&gt;Node2 -->
<g id="edge1" class="edge">
<title>Node1&#45;&gt;Node2</title>
<path fill="none" stroke="#63b8ff" d="M334.5,-153.45C317.51,-163.42 295.67,-176.22 280.94,-184.86"/>
<polygon fill="#63b8ff" stroke="#63b8ff" points="336.51,-156.33 343.37,-148.25 332.97,-150.29 336.51,-156.33"/>
</g>
<!-- Node4 -->
<g id="node4" class="node">
<title>Node4</title>
<g id="a_node4"><a xlink:href="options_8hpp.html#a15ce06eb1492a582a4abe2ddd5e7f8a1" target="_top" xlink:title=" ">
<polygon fill="white" stroke="#666666" points="300.5,-130 226.5,-130 226.5,-111 300.5,-111 300.5,-130"/>
<text text-anchor="middle" x="263.5" y="-118" font-family="Helvetica,sans-Serif" font-size="10.00">set_params</text>
</a>
</g>
</g>
<!-- Node1&#45;&gt;Node4 -->
<g id="edge3" class="edge">
<title>Node1&#45;&gt;Node4</title>
<path fill="none" stroke="#63b8ff" d="M330.61,-132.96C321.19,-131.19 310.65,-129.2 300.8,-127.34"/>
<polygon fill="#63b8ff" stroke="#63b8ff" points="330.2,-136.44 340.67,-134.86 331.5,-129.57 330.2,-136.44"/>
</g>
<!-- Node3 -->
<g id="node3" class="node">
<title>Node3</title>
<g id="a_node3"><a xlink:href="alpaqa-driver_8cpp.html#ac0f2228420376f4db7e1274f2b41667c" target="_top" xlink:title=" ">
<polygon fill="white" stroke="#666666" points="41,-185 0,-185 0,-166 41,-166 41,-185"/>
<text text-anchor="middle" x="20.5" y="-173" font-family="Helvetica,sans-Serif" font-size="10.00">main</text>
</a>
</g>
</g>
<!-- Node2&#45;&gt;Node3 -->
<g id="edge2" class="edge">
<title>Node2&#45;&gt;Node3</title>
<path fill="none" stroke="#63b8ff" d="M225.14,-206.85C187.06,-217.47 126.68,-228.88 77,-213.5 59.15,-207.98 41.93,-194.51 31.53,-185.19"/>
<polygon fill="#63b8ff" stroke="#63b8ff" points="226.17,-210.19 234.79,-204.03 224.21,-203.47 226.17,-210.19"/>
</g>
<!-- Node5 -->
<g id="node5" class="node">
<title>Node5</title>
<g id="a_node5"><a xlink:href="alpaqa-driver_8cpp.html#abdc7f0491e5c38d6f9569a0aad3d2925" target="_top" xlink:title=" ">
<polygon fill="white" stroke="#666666" points="182,-204 81,-204 81,-185 182,-185 182,-204"/>
<text text-anchor="middle" x="131.5" y="-192" font-family="Helvetica,sans-Serif" font-size="10.00">get_output_paths</text>
</a>
</g>
</g>
<!-- Node4&#45;&gt;Node5 -->
<g id="edge4" class="edge">
<title>Node4&#45;&gt;Node5</title>
<path fill="none" stroke="#63b8ff" d="M243.4,-137.07C228.55,-149.29 207.01,-165.61 186,-176.5 179.82,-179.7 172.96,-182.51 166.26,-184.9"/>
<polygon fill="#63b8ff" stroke="#63b8ff" points="245.91,-139.53 251.31,-130.42 241.41,-134.17 245.91,-139.53"/>
</g>
<!-- Node6 -->
<g id="node6" class="node">
<title>Node6</title>
<g id="a_node6"><a xlink:href="alpaqa-driver_8cpp.html#a62667720f096806ed08c60e4207f8972" target="_top" xlink:title=" ">
<polygon fill="white" stroke="#666666" points="186,-167 77,-167 77,-148 186,-148 186,-167"/>
<text text-anchor="middle" x="131.5" y="-155" font-family="Helvetica,sans-Serif" font-size="10.00">get_output_stream</text>
</a>
</g>
</g>
<!-- Node4&#45;&gt;Node6 -->
<g id="edge6" class="edge">
<title>Node4&#45;&gt;Node6</title>
<path fill="none" stroke="#63b8ff" d="M219.19,-132.83C201.97,-137.73 182.46,-143.28 166.32,-147.88"/>
<polygon fill="#63b8ff" stroke="#63b8ff" points="220.36,-136.13 229.02,-130.03 218.45,-129.4 220.36,-136.13"/>
</g>
<!-- Node7 -->
<g id="node7" class="node">
<title>Node7</title>
<g id="a_node7"><a xlink:href="alpaqa-driver_8cpp.html#a3430011226186bf05d5c2552270587b7" target="_top" xlink:title=" ">
<polygon fill="white" stroke="#666666" points="185,-130 78,-130 78,-111 185,-111 185,-130"/>
<text text-anchor="middle" x="131.5" y="-118" font-family="Helvetica,sans-Serif" font-size="10.00">get_solver_builder</text>
</a>
</g>
</g>
<!-- Node4&#45;&gt;Node7 -->
<g id="edge8" class="edge">
<title>Node4&#45;&gt;Node7</title>
<path fill="none" stroke="#63b8ff" d="M216.08,-120.5C206.02,-120.5 195.32,-120.5 185.04,-120.5"/>
<polygon fill="#63b8ff" stroke="#63b8ff" points="216.29,-124 226.29,-120.5 216.29,-117 216.29,-124"/>
</g>
<!-- Node8 -->
<g id="node8" class="node">
<title>Node8</title>
<g id="a_node8"><a xlink:href="gradient-checker_8cpp.html#ac0f2228420376f4db7e1274f2b41667c" target="_top" xlink:title=" ">
<polygon fill="white" stroke="#666666" points="152,-93 111,-93 111,-74 152,-74 152,-93"/>
<text text-anchor="middle" x="131.5" y="-81" font-family="Helvetica,sans-Serif" font-size="10.00">main</text>
</a>
</g>
</g>
<!-- Node4&#45;&gt;Node8 -->
<g id="edge10" class="edge">
<title>Node4&#45;&gt;Node8</title>
<path fill="none" stroke="#63b8ff" d="M219.25,-108.19C196.55,-101.73 169.85,-94.13 152.13,-89.09"/>
<polygon fill="#63b8ff" stroke="#63b8ff" points="218.45,-111.6 229.02,-110.97 220.36,-104.87 218.45,-111.6"/>
</g>
<!-- Node9 -->
<g id="node9" class="node">
<title>Node9</title>
<g id="a_node9"><a xlink:href="alm-driver_8hpp.html#ae4ef291d9ec9d55ee804b5723ea2e641" target="_top" xlink:title=" ">
<polygon fill="white" stroke="#666666" points="183,-56 80,-56 80,-37 183,-37 183,-56"/>
<text text-anchor="middle" x="131.5" y="-44" font-family="Helvetica,sans-Serif" font-size="10.00">make_alm_solver</text>
</a>
</g>
</g>
<!-- Node4&#45;&gt;Node9 -->
<g id="edge11" class="edge">
<title>Node4&#45;&gt;Node9</title>
<path fill="none" stroke="#63b8ff" d="M243.3,-104.35C228.4,-92.41 206.84,-76.41 186,-65.5 179.1,-61.89 171.37,-58.7 163.97,-56.01"/>
<polygon fill="#63b8ff" stroke="#63b8ff" points="241.29,-107.22 251.25,-110.84 245.71,-101.8 241.29,-107.22"/>
</g>
<!-- Node10 -->
<g id="node10" class="node">
<title>Node10</title>
<g id="a_node10"><a xlink:href="alm-driver_8hpp.html#a51b2a2cde56762bcb43a2f4da0913f98" target="_top" xlink:title=" ">
<polygon fill="white" stroke="#666666" points="186,-19 77,-19 77,0 186,0 186,-19"/>
<text text-anchor="middle" x="131.5" y="-7" font-family="Helvetica,sans-Serif" font-size="10.00">make_inner_solver</text>
</a>
</g>
</g>
<!-- Node4&#45;&gt;Node10 -->
<g id="edge12" class="edge">
<title>Node4&#45;&gt;Node10</title>
<path fill="none" stroke="#63b8ff" d="M251.62,-102.25C238.47,-81.64 214.53,-48.41 186,-28.5 180.58,-24.72 174.34,-21.62 168.07,-19.1"/>
<polygon fill="#63b8ff" stroke="#63b8ff" points="248.79,-104.32 257.03,-110.98 254.74,-100.64 248.79,-104.32"/>
</g>
<!-- Node5&#45;&gt;Node3 -->
<g id="edge5" class="edge">
<title>Node5&#45;&gt;Node3</title>
<path fill="none" stroke="#63b8ff" d="M70.89,-184.11C60.15,-182.24 49.68,-180.41 41.16,-178.93"/>
<polygon fill="#63b8ff" stroke="#63b8ff" points="70.33,-187.56 80.78,-185.83 71.53,-180.67 70.33,-187.56"/>
</g>
<!-- Node6&#45;&gt;Node3 -->
<g id="edge7" class="edge">
<title>Node6&#45;&gt;Node3</title>
<path fill="none" stroke="#63b8ff" d="M67.08,-167.97C57.68,-169.52 48.65,-171.02 41.14,-172.26"/>
<polygon fill="#63b8ff" stroke="#63b8ff" points="67.66,-171.42 76.96,-166.34 66.52,-164.52 67.66,-171.42"/>
</g>
<!-- Node7&#45;&gt;Node3 -->
<g id="edge9" class="edge">
<title>Node7&#45;&gt;Node3</title>
<path fill="none" stroke="#63b8ff" d="M90.01,-133.74C85.55,-135.53 81.14,-137.46 77,-139.5 61.76,-147.02 45.59,-157.88 34.66,-165.7"/>
<polygon fill="#63b8ff" stroke="#63b8ff" points="91.61,-136.87 99.72,-130.05 89.12,-130.33 91.61,-136.87"/>
</g>
</g>
</svg>
