<?xml version="1.0" encoding="UTF-8" standalone="no"?>
<!DOCTYPE svg PUBLIC "-//W3C//DTD SVG 1.1//EN"
 "http://www.w3.org/Graphics/SVG/1.1/DTD/svg11.dtd">
<!-- Generated by graphviz version 2.43.0 (0)
 -->
<!-- Title: src/interop/cutest/include/alpaqa/cutest/cutest&#45;loader.hpp Pages: 1 -->
<!--zoomable 291 -->
<svg id="main" version="1.1" xmlns="http://www.w3.org/2000/svg" xmlns:xlink="http://www.w3.org/1999/xlink" xml:space="preserve" onload="init(evt)">
<style type="text/css"><![CDATA[
.edge:hover path { stroke: red; }
.edge:hover polygon { stroke: red; fill: red; }
]]></style>
<script type="text/javascript"><![CDATA[
var edges = document.getElementsByTagName('g');
if (edges && edges.length) {
  for (var i=0;i<edges.length;i++) {
    if (edges[i].id.substr(0,4)=='edge') {
      edges[i].setAttribute('class','edge');
    }
  }
}
]]></script>
        <defs>
                <circle id="rim" cx="0" cy="0" r="7"/>
                <circle id="rim2" cx="0" cy="0" r="3.5"/>
                <g id="zoomPlus">
                        <use xlink:href="#rim" fill="#404040">
                                <set attributeName="fill" to="#808080" begin="zoomplus.mouseover" end="zoomplus.mouseout"/>
                        </use>
                        <path d="M-4,0h8M0,-4v8" fill="none" stroke="white" stroke-width="1.5" pointer-events="none"/>
                </g>
                <g id="zoomMin">
                        <use xlink:href="#rim" fill="#404040">
                                <set attributeName="fill" to="#808080" begin="zoomminus.mouseover" end="zoomminus.mouseout"/>
                        </use>
                        <path d="M-4,0h8" fill="none" stroke="white" stroke-width="1.5" pointer-events="none"/>
                </g>
                <g id="dirArrow">
                        <path fill="none" stroke="white" stroke-width="1.5" d="M0,-3.0v7 M-2.5,-0.5L0,-3.0L2.5,-0.5"/>
                </g>
               <g id="resetDef">
                       <use xlink:href="#rim2" fill="#404040">
                               <set attributeName="fill" to="#808080" begin="reset.mouseover" end="reset.mouseout"/>
                       </use>
               </g>
        </defs>

<script type="text/javascript">
var viewWidth = 962;
var viewHeight = 291;
var sectionId = 'dynsection-0';
</script>
<script xlink:href="svgpan.js"/>
<svg id="graph" class="graph">
<g id="viewport">
<title>src/interop/cutest/include/alpaqa/cutest/cutest&#45;loader.hpp</title>
<!-- Node1 -->
<g id="node1" class="node">
<title>Node1</title>
<g id="a_node1"><a xlink:title=" ">
<polygon fill="#999999" stroke="#666666" points="787,-283 663,-283 663,-242 787,-242 787,-283"/>
<text text-anchor="start" x="671" y="-271" font-family="Helvetica,sans-Serif" font-size="10.00">src/interop/cutest</text>
<text text-anchor="start" x="671" y="-260" font-family="Helvetica,sans-Serif" font-size="10.00">/include/alpaqa/cutest</text>
<text text-anchor="middle" x="725" y="-249" font-family="Helvetica,sans-Serif" font-size="10.00">/cutest&#45;loader.hpp</text>
</a>
</g>
</g>
<!-- Node2 -->
<g id="node2" class="node">
<title>Node2</title>
<g id="a_node2"><a xlink:href="config_8hpp.html" target="_top" xlink:title=" ">
<polygon fill="white" stroke="#666666" points="463.5,-85 328.5,-85 328.5,-66 463.5,-66 463.5,-85"/>
<text text-anchor="middle" x="396" y="-73" font-family="Helvetica,sans-Serif" font-size="10.00">alpaqa/config/config.hpp</text>
</a>
</g>
</g>
<!-- Node1&#45;&gt;Node2 -->
<g id="edge1" class="edge">
<title>Node1&#45;&gt;Node2</title>
<path fill="none" stroke="#63b8ff" d="M662.62,-252.63C557.14,-236.19 350.85,-197.36 309,-140 292.39,-117.24 325.48,-99.27 355.51,-88.34"/>
<polygon fill="#63b8ff" stroke="#63b8ff" points="356.78,-91.61 365.09,-85.04 354.5,-84.99 356.78,-91.61"/>
</g>
<!-- Node8 -->
<g id="node8" class="node">
<title>Node8</title>
<g id="a_node8"><a xlink:href="box-constr-problem_8hpp.html" target="_top" xlink:title=" ">
<polygon fill="white" stroke="#666666" points="640,-206 524,-206 524,-176 640,-176 640,-206"/>
<text text-anchor="start" x="532" y="-194" font-family="Helvetica,sans-Serif" font-size="10.00">alpaqa/problem/box</text>
<text text-anchor="middle" x="582" y="-183" font-family="Helvetica,sans-Serif" font-size="10.00">&#45;constr&#45;problem.hpp</text>
</a>
</g>
</g>
<!-- Node1&#45;&gt;Node8 -->
<g id="edge7" class="edge">
<title>Node1&#45;&gt;Node8</title>
<path fill="none" stroke="#63b8ff" d="M684.79,-241.96C664.53,-232.11 640.11,-220.24 620.15,-210.54"/>
<polygon fill="#63b8ff" stroke="#63b8ff" points="621.56,-207.34 611.04,-206.11 618.5,-213.63 621.56,-207.34"/>
</g>
<!-- Node17 -->
<g id="node17" class="node">
<title>Node17</title>
<g id="a_node17"><a xlink:title=" ">
<polygon fill="#e0e0e0" stroke="#999999" points="715,-85 671,-85 671,-66 715,-66 715,-85"/>
<text text-anchor="middle" x="693" y="-73" font-family="Helvetica,sans-Serif" font-size="10.00">string</text>
</a>
</g>
</g>
<!-- Node1&#45;&gt;Node17 -->
<g id="edge26" class="edge">
<title>Node1&#45;&gt;Node17</title>
<path fill="none" stroke="#63b8ff" d="M721.58,-241.7C715.38,-205.86 702.37,-130.67 696.28,-95.46"/>
<polygon fill="#63b8ff" stroke="#63b8ff" points="699.65,-94.42 694.5,-85.16 692.75,-95.61 699.65,-94.42"/>
</g>
<!-- Node19 -->
<g id="node19" class="node">
<title>Node19</title>
<g id="a_node19"><a xlink:href="copyable__unique__ptr_8hpp.html" target="_top" xlink:title=" ">
<polygon fill="white" stroke="#666666" points="888,-206 772,-206 772,-176 888,-176 888,-206"/>
<text text-anchor="start" x="780" y="-194" font-family="Helvetica,sans-Serif" font-size="10.00">alpaqa/util/copyable</text>
<text text-anchor="middle" x="830" y="-183" font-family="Helvetica,sans-Serif" font-size="10.00">_unique_ptr.hpp</text>
</a>
</g>
</g>
<!-- Node1&#45;&gt;Node19 -->
<g id="edge22" class="edge">
<title>Node1&#45;&gt;Node19</title>
<path fill="none" stroke="#63b8ff" d="M754.53,-241.96C768.79,-232.51 785.88,-221.2 800.18,-211.74"/>
<polygon fill="#63b8ff" stroke="#63b8ff" points="802.27,-214.55 808.68,-206.11 798.41,-208.71 802.27,-214.55"/>
</g>
<!-- Node20 -->
<g id="node20" class="node">
<title>Node20</title>
<g id="a_node20"><a xlink:title=" ">
<polygon fill="#e0e0e0" stroke="#999999" points="826,-140 768,-140 768,-121 826,-121 826,-140"/>
<text text-anchor="middle" x="797" y="-128" font-family="Helvetica,sans-Serif" font-size="10.00">memory</text>
</a>
</g>
</g>
<!-- Node1&#45;&gt;Node20 -->
<g id="edge25" class="edge">
<title>Node1&#45;&gt;Node20</title>
<path fill="none" stroke="#63b8ff" d="M732.21,-241.84C739.08,-224.09 750.24,-197.52 763,-176 768.75,-166.3 776.28,-156.25 782.78,-148.16"/>
<polygon fill="#63b8ff" stroke="#63b8ff" points="785.64,-150.2 789.31,-140.26 780.24,-145.74 785.64,-150.2"/>
</g>
<!-- Node21 -->
<g id="node21" class="node">
<title>Node21</title>
<g id="a_node21"><a xlink:title=" ">
<polygon fill="#e0e0e0" stroke="#999999" points="954,-200.5 906,-200.5 906,-181.5 954,-181.5 954,-200.5"/>
<text text-anchor="middle" x="930" y="-188.5" font-family="Helvetica,sans-Serif" font-size="10.00">iosfwd</text>
</a>
</g>
</g>
<!-- Node1&#45;&gt;Node21 -->
<g id="edge24" class="edge">
<title>Node1&#45;&gt;Node21</title>
<path fill="none" stroke="#63b8ff" d="M787.15,-242.91C820.05,-232.71 860.98,-219.42 897,-206 898.39,-205.48 899.8,-204.94 901.22,-204.39"/>
<polygon fill="#63b8ff" stroke="#63b8ff" points="902.63,-207.59 910.57,-200.58 899.99,-201.11 902.63,-207.59"/>
</g>
<!-- Node3 -->
<g id="node3" class="node">
<title>Node3</title>
<g id="a_node3"><a xlink:href="quadmath-print_8hpp.html" target="_top" xlink:title=" ">
<polygon fill="white" stroke="#666666" points="717.5,-30 596.5,-30 596.5,0 717.5,0 717.5,-30"/>
<text text-anchor="start" x="604.5" y="-18" font-family="Helvetica,sans-Serif" font-size="10.00">alpaqa/util/quadmath</text>
<text text-anchor="middle" x="657" y="-7" font-family="Helvetica,sans-Serif" font-size="10.00">/quadmath&#45;print.hpp</text>
</a>
</g>
</g>
<!-- Node2&#45;&gt;Node3 -->
<g id="edge2" class="edge">
<title>Node2&#45;&gt;Node3</title>
<path fill="none" stroke="#63b8ff" d="M433.95,-65.99C473.76,-57.07 537.26,-42.84 586.34,-31.84"/>
<polygon fill="#63b8ff" stroke="#63b8ff" points="587.27,-35.22 596.26,-29.61 585.74,-28.39 587.27,-35.22"/>
</g>
<!-- Node4 -->
<g id="node4" class="node">
<title>Node4</title>
<g id="a_node4"><a xlink:href="quadmath_8hpp.html" target="_top" xlink:title=" ">
<polygon fill="white" stroke="#666666" points="428.5,-30 307.5,-30 307.5,0 428.5,0 428.5,-30"/>
<text text-anchor="start" x="315.5" y="-18" font-family="Helvetica,sans-Serif" font-size="10.00">alpaqa/util/quadmath</text>
<text text-anchor="middle" x="368" y="-7" font-family="Helvetica,sans-Serif" font-size="10.00">/quadmath.hpp</text>
</a>
</g>
</g>
<!-- Node2&#45;&gt;Node4 -->
<g id="edge3" class="edge">
<title>Node2&#45;&gt;Node4</title>
<path fill="none" stroke="#63b8ff" d="M391.87,-65.87C388.53,-58.89 383.66,-48.71 379.19,-39.38"/>
<polygon fill="#63b8ff" stroke="#63b8ff" points="382.23,-37.62 374.76,-30.11 375.92,-40.65 382.23,-37.62"/>
</g>
<!-- Node5 -->
<g id="node5" class="node">
<title>Node5</title>
<g id="a_node5"><a xlink:title=" ">
<polygon fill="#e0e0e0" stroke="#999999" points="491,-24.5 447,-24.5 447,-5.5 491,-5.5 491,-24.5"/>
<text text-anchor="middle" x="469" y="-12.5" font-family="Helvetica,sans-Serif" font-size="10.00">limits</text>
</a>
</g>
</g>
<!-- Node2&#45;&gt;Node5 -->
<g id="edge4" class="edge">
<title>Node2&#45;&gt;Node5</title>
<path fill="none" stroke="#63b8ff" d="M406.77,-65.87C418.2,-56.71 436.48,-42.06 450.28,-31.01"/>
<polygon fill="#63b8ff" stroke="#63b8ff" points="452.57,-33.65 458.18,-24.67 448.19,-28.19 452.57,-33.65"/>
</g>
<!-- Node6 -->
<g id="node6" class="node">
<title>Node6</title>
<g id="a_node6"><a xlink:title=" ">
<polygon fill="#e0e0e0" stroke="#999999" points="289.5,-24.5 220.5,-24.5 220.5,-5.5 289.5,-5.5 289.5,-24.5"/>
<text text-anchor="middle" x="255" y="-12.5" font-family="Helvetica,sans-Serif" font-size="10.00">type_traits</text>
</a>
</g>
</g>
<!-- Node2&#45;&gt;Node6 -->
<g id="edge5" class="edge">
<title>Node2&#45;&gt;Node6</title>
<path fill="none" stroke="#63b8ff" d="M375.5,-65.99C351.69,-56.12 312.21,-39.73 284.96,-28.43"/>
<polygon fill="#63b8ff" stroke="#63b8ff" points="286.11,-25.12 275.53,-24.52 283.42,-31.58 286.11,-25.12"/>
</g>
<!-- Node7 -->
<g id="node7" class="node">
<title>Node7</title>
<g id="a_node7"><a xlink:title=" ">
<polygon fill="#e0e0e0" stroke="#999999" points="578.5,-24.5 509.5,-24.5 509.5,-5.5 578.5,-5.5 578.5,-24.5"/>
<text text-anchor="middle" x="544" y="-12.5" font-family="Helvetica,sans-Serif" font-size="10.00">Eigen/Core</text>
</a>
</g>
</g>
<!-- Node2&#45;&gt;Node7 -->
<g id="edge6" class="edge">
<title>Node2&#45;&gt;Node7</title>
<path fill="none" stroke="#63b8ff" d="M417.52,-65.99C442.62,-56.07 484.32,-39.59 512.93,-28.28"/>
<polygon fill="#63b8ff" stroke="#63b8ff" points="514.44,-31.45 522.45,-24.52 511.87,-24.94 514.44,-31.45"/>
</g>
<!-- Node9 -->
<g id="node9" class="node">
<title>Node9</title>
<g id="a_node9"><a xlink:href="box_8hpp.html" target="_top" xlink:title=" ">
<polygon fill="white" stroke="#666666" points="453.5,-140 318.5,-140 318.5,-121 453.5,-121 453.5,-140"/>
<text text-anchor="middle" x="386" y="-128" font-family="Helvetica,sans-Serif" font-size="10.00">alpaqa/problem/box.hpp</text>
</a>
</g>
</g>
<!-- Node8&#45;&gt;Node9 -->
<g id="edge8" class="edge">
<title>Node8&#45;&gt;Node9</title>
<path fill="none" stroke="#63b8ff" d="M535.05,-175.99C501.23,-165.89 456.14,-152.44 424.45,-142.98"/>
<polygon fill="#63b8ff" stroke="#63b8ff" points="425.24,-139.56 414.66,-140.05 423.24,-146.27 425.24,-139.56"/>
</g>
<!-- Node14 -->
<g id="node14" class="node">
<title>Node14</title>
<g id="a_node14"><a xlink:href="check-dim_8hpp.html" target="_top" xlink:title=" ">
<polygon fill="white" stroke="#666666" points="614.5,-140 471.5,-140 471.5,-121 614.5,-121 614.5,-140"/>
<text text-anchor="middle" x="543" y="-128" font-family="Helvetica,sans-Serif" font-size="10.00">alpaqa/util/check&#45;dim.hpp</text>
</a>
</g>
</g>
<!-- Node8&#45;&gt;Node14 -->
<g id="edge16" class="edge">
<title>Node8&#45;&gt;Node14</title>
<path fill="none" stroke="#63b8ff" d="M572.56,-175.84C567.13,-167.69 560.27,-157.4 554.52,-148.78"/>
<polygon fill="#63b8ff" stroke="#63b8ff" points="557.3,-146.65 548.84,-140.27 551.48,-150.53 557.3,-146.65"/>
</g>
<!-- Node18 -->
<g id="node18" class="node">
<title>Node18</title>
<g id="a_node18"><a xlink:title=" ">
<polygon fill="#e0e0e0" stroke="#999999" points="677.5,-140 632.5,-140 632.5,-121 677.5,-121 677.5,-140"/>
<text text-anchor="middle" x="655" y="-128" font-family="Helvetica,sans-Serif" font-size="10.00">utility</text>
</a>
</g>
</g>
<!-- Node8&#45;&gt;Node18 -->
<g id="edge21" class="edge">
<title>Node8&#45;&gt;Node18</title>
<path fill="none" stroke="#63b8ff" d="M599.67,-175.84C610.7,-167 624.89,-155.63 636.13,-146.62"/>
<polygon fill="#63b8ff" stroke="#63b8ff" points="638.45,-149.25 644.06,-140.27 634.07,-143.79 638.45,-149.25"/>
</g>
<!-- Node9&#45;&gt;Node2 -->
<g id="edge9" class="edge">
<title>Node9&#45;&gt;Node2</title>
<path fill="none" stroke="#63b8ff" d="M387.65,-120.75C388.96,-113.8 390.84,-103.85 392.48,-95.13"/>
<polygon fill="#63b8ff" stroke="#63b8ff" points="395.96,-95.56 394.38,-85.09 389.09,-94.27 395.96,-95.56"/>
</g>
<!-- Node10 -->
<g id="node10" class="node">
<title>Node10</title>
<g id="a_node10"><a xlink:href="float_8hpp.html" target="_top" xlink:title=" ">
<polygon fill="white" stroke="#666666" points="284,-85 170,-85 170,-66 284,-66 284,-85"/>
<text text-anchor="middle" x="227" y="-73" font-family="Helvetica,sans-Serif" font-size="10.00">alpaqa/util/float.hpp</text>
</a>
</g>
</g>
<!-- Node9&#45;&gt;Node10 -->
<g id="edge10" class="edge">
<title>Node9&#45;&gt;Node10</title>
<path fill="none" stroke="#63b8ff" d="M360.45,-120.98C333.88,-112.13 292.06,-98.19 262.33,-88.28"/>
<polygon fill="#63b8ff" stroke="#63b8ff" points="263.34,-84.92 252.75,-85.08 261.13,-91.56 263.34,-84.92"/>
</g>
<!-- Node10&#45;&gt;Node4 -->
<g id="edge11" class="edge">
<title>Node10&#45;&gt;Node4</title>
<path fill="none" stroke="#63b8ff" d="M247.5,-65.99C267.62,-57.65 298.92,-44.66 324.58,-34.02"/>
<polygon fill="#63b8ff" stroke="#63b8ff" points="326.21,-37.13 334.1,-30.06 323.52,-30.66 326.21,-37.13"/>
</g>
<!-- Node10&#45;&gt;Node6 -->
<g id="edge15" class="edge">
<title>Node10&#45;&gt;Node6</title>
<path fill="none" stroke="#63b8ff" d="M231.13,-65.87C235.14,-57.49 241.35,-44.51 246.44,-33.89"/>
<polygon fill="#63b8ff" stroke="#63b8ff" points="249.69,-35.2 250.85,-24.67 243.38,-32.18 249.69,-35.2"/>
</g>
<!-- Node11 -->
<g id="node11" class="node">
<title>Node11</title>
<g id="a_node11"><a xlink:title=" ">
<polygon fill="#e0e0e0" stroke="#999999" points="125.5,-24.5 78.5,-24.5 78.5,-5.5 125.5,-5.5 125.5,-24.5"/>
<text text-anchor="middle" x="102" y="-12.5" font-family="Helvetica,sans-Serif" font-size="10.00">cmath</text>
</a>
</g>
</g>
<!-- Node10&#45;&gt;Node11 -->
<g id="edge12" class="edge">
<title>Node10&#45;&gt;Node11</title>
<path fill="none" stroke="#63b8ff" d="M208.82,-65.99C187.99,-56.25 153.63,-40.16 129.52,-28.88"/>
<polygon fill="#63b8ff" stroke="#63b8ff" points="130.74,-25.59 120.2,-24.52 127.77,-31.93 130.74,-25.59"/>
</g>
<!-- Node12 -->
<g id="node12" class="node">
<title>Node12</title>
<g id="a_node12"><a xlink:title=" ">
<polygon fill="#e0e0e0" stroke="#999999" points="202.5,-24.5 143.5,-24.5 143.5,-5.5 202.5,-5.5 202.5,-24.5"/>
<text text-anchor="middle" x="173" y="-12.5" font-family="Helvetica,sans-Serif" font-size="10.00">complex</text>
</a>
</g>
</g>
<!-- Node10&#45;&gt;Node12 -->
<g id="edge13" class="edge">
<title>Node10&#45;&gt;Node12</title>
<path fill="none" stroke="#63b8ff" d="M219.03,-65.87C210.9,-57.05 198.07,-43.16 188.02,-32.27"/>
<polygon fill="#63b8ff" stroke="#63b8ff" points="190.36,-29.64 181,-24.67 185.21,-34.39 190.36,-29.64"/>
</g>
<!-- Node13 -->
<g id="node13" class="node">
<title>Node13</title>
<g id="a_node13"><a xlink:title=" ">
<polygon fill="#e0e0e0" stroke="#999999" points="60,-24.5 0,-24.5 0,-5.5 60,-5.5 60,-24.5"/>
<text text-anchor="middle" x="30" y="-12.5" font-family="Helvetica,sans-Serif" font-size="10.00">concepts</text>
</a>
</g>
</g>
<!-- Node10&#45;&gt;Node13 -->
<g id="edge14" class="edge">
<title>Node10&#45;&gt;Node13</title>
<path fill="none" stroke="#63b8ff" d="M194.12,-65.96C162.02,-57.45 111.89,-43.72 69,-30 66.88,-29.32 64.71,-28.61 62.53,-27.87"/>
<polygon fill="#63b8ff" stroke="#63b8ff" points="63.6,-24.54 53.01,-24.56 61.3,-31.15 63.6,-24.54"/>
</g>
<!-- Node14&#45;&gt;Node2 -->
<g id="edge17" class="edge">
<title>Node14&#45;&gt;Node2</title>
<path fill="none" stroke="#63b8ff" d="M519.38,-120.98C495.1,-112.23 457.05,-98.51 429.63,-88.62"/>
<polygon fill="#63b8ff" stroke="#63b8ff" points="430.64,-85.27 420.05,-85.17 428.27,-91.85 430.64,-85.27"/>
</g>
<!-- Node15 -->
<g id="node15" class="node">
<title>Node15</title>
<g id="a_node15"><a xlink:title=" ">
<polygon fill="#e0e0e0" stroke="#999999" points="640,-85 584,-85 584,-66 640,-66 640,-85"/>
<text text-anchor="middle" x="612" y="-73" font-family="Helvetica,sans-Serif" font-size="10.00">optional</text>
</a>
</g>
</g>
<!-- Node14&#45;&gt;Node15 -->
<g id="edge18" class="edge">
<title>Node14&#45;&gt;Node15</title>
<path fill="none" stroke="#63b8ff" d="M554.09,-120.98C564.49,-113 580.26,-100.88 592.72,-91.31"/>
<polygon fill="#63b8ff" stroke="#63b8ff" points="594.91,-94.04 600.71,-85.17 590.65,-88.49 594.91,-94.04"/>
</g>
<!-- Node16 -->
<g id="node16" class="node">
<title>Node16</title>
<g id="a_node16"><a xlink:title=" ">
<polygon fill="#e0e0e0" stroke="#999999" points="565.5,-85 500.5,-85 500.5,-66 565.5,-66 565.5,-85"/>
<text text-anchor="middle" x="533" y="-73" font-family="Helvetica,sans-Serif" font-size="10.00">stdexcept</text>
</a>
</g>
</g>
<!-- Node14&#45;&gt;Node16 -->
<g id="edge19" class="edge">
<title>Node14&#45;&gt;Node16</title>
<path fill="none" stroke="#63b8ff" d="M541.35,-120.75C540.04,-113.8 538.16,-103.85 536.52,-95.13"/>
<polygon fill="#63b8ff" stroke="#63b8ff" points="539.91,-94.27 534.62,-85.09 533.04,-95.56 539.91,-94.27"/>
</g>
<!-- Node14&#45;&gt;Node17 -->
<g id="edge20" class="edge">
<title>Node14&#45;&gt;Node17</title>
<path fill="none" stroke="#63b8ff" d="M567.1,-120.98C592.62,-111.97 633.03,-97.69 661.16,-87.75"/>
<polygon fill="#63b8ff" stroke="#63b8ff" points="662.65,-90.94 670.91,-84.3 660.32,-84.33 662.65,-90.94"/>
</g>
<!-- Node19&#45;&gt;Node20 -->
<g id="edge23" class="edge">
<title>Node19&#45;&gt;Node20</title>
<path fill="none" stroke="#63b8ff" d="M822.01,-175.84C817.47,-167.78 811.73,-157.62 806.9,-149.06"/>
<polygon fill="#63b8ff" stroke="#63b8ff" points="809.91,-147.26 801.94,-140.27 803.81,-150.7 809.91,-147.26"/>
</g>
</g>
</svg>
        <g id="navigator" transform="translate(0 0)" fill="#404254">
                <rect fill="#f2f5e9" fill-opacity="0.5" stroke="#606060" stroke-width=".5" x="0" y="0" width="60" height="60"/>
                <use id="zoomplus" xlink:href="#zoomPlus" x="17" y="9" onmousedown="handleZoom(evt,'in')"/>
                <use id="zoomminus" xlink:href="#zoomMin" x="42" y="9" onmousedown="handleZoom(evt,'out')"/>
                <use id="reset" xlink:href="#resetDef" x="30" y="36" onmousedown="handleReset()"/>
                <g id="arrowUp" xlink:href="#dirArrow" transform="translate(30 24)" onmousedown="handlePan(0,-1)">
                  <use xlink:href="#rim" fill="#404040">
                        <set attributeName="fill" to="#808080" begin="arrowUp.mouseover" end="arrowUp.mouseout"/>
                  </use>
                  <path fill="none" stroke="white" stroke-width="1.5" d="M0,-3.0v7 M-2.5,-0.5L0,-3.0L2.5,-0.5"/>
                </g>
                <g id="arrowRight" xlink:href="#dirArrow" transform="rotate(90) translate(36 -43)" onmousedown="handlePan(1,0)">
                  <use xlink:href="#rim" fill="#404040">
                        <set attributeName="fill" to="#808080" begin="arrowRight.mouseover" end="arrowRight.mouseout"/>
                  </use>
                  <path fill="none" stroke="white" stroke-width="1.5" d="M0,-3.0v7 M-2.5,-0.5L0,-3.0L2.5,-0.5"/>
                </g>
                <g id="arrowDown" xlink:href="#dirArrow" transform="rotate(180) translate(-30 -48)" onmousedown="handlePan(0,1)">
                  <use xlink:href="#rim" fill="#404040">
                        <set attributeName="fill" to="#808080" begin="arrowDown.mouseover" end="arrowDown.mouseout"/>
                  </use>
                  <path fill="none" stroke="white" stroke-width="1.5" d="M0,-3.0v7 M-2.5,-0.5L0,-3.0L2.5,-0.5"/>
                </g>
                <g id="arrowLeft" xlink:href="#dirArrow" transform="rotate(270) translate(-36 17)" onmousedown="handlePan(-1,0)">
                  <use xlink:href="#rim" fill="#404040">
                        <set attributeName="fill" to="#808080" begin="arrowLeft.mouseover" end="arrowLeft.mouseout"/>
                  </use>
                  <path fill="none" stroke="white" stroke-width="1.5" d="M0,-3.0v7 M-2.5,-0.5L0,-3.0L2.5,-0.5"/>
                </g>
        </g>
        <svg viewBox="0 0 15 15" width="100%" height="30px" preserveAspectRatio="xMaxYMin meet">
         <g id="arrow_out" transform="scale(0.3 0.3)">
          <a xlink:href="cutest-loader_8hpp__incl_org.svg" target="_base">
           <rect id="button" ry="5" rx="5" y="6" x="6" height="38" width="38"
                fill="#f2f5e9" fill-opacity="0.5" stroke="#606060" stroke-width="1.0"/>
           <path id="arrow"
             d="M 11.500037,31.436501 C 11.940474,20.09759 22.043105,11.32322 32.158766,21.979434 L 37.068811,17.246167 C 37.068811,17.246167 37.088388,32 37.088388,32 L 22.160133,31.978069 C 22.160133,31.978069 26.997745,27.140456 26.997745,27.140456 C 18.528582,18.264221 13.291696,25.230495 11.500037,31.436501 z"
             style="fill:#404040;"/>
          </a>
         </g>
        </svg>
</svg>
