<?xml version="1.0" encoding="UTF-8" standalone="no"?>
<!DOCTYPE svg PUBLIC "-//W3C//DTD SVG 1.1//EN"
 "http://www.w3.org/Graphics/SVG/1.1/DTD/svg11.dtd">
<!-- Generated by graphviz version 2.43.0 (0)
 -->
<!-- Title: src/alpaqa/include/alpaqa/util/index&#45;set.hpp Pages: 1 -->
<svg width="716pt" height="258pt"
 viewBox="0.00 0.00 716.00 258.00" xmlns="http://www.w3.org/2000/svg" xmlns:xlink="http://www.w3.org/1999/xlink">
<g id="graph0" class="graph" transform="scale(1 1) rotate(0) translate(4 254)">
<title>src/alpaqa/include/alpaqa/util/index&#45;set.hpp</title>
<!-- Node1 -->
<g id="node1" class="node">
<title>Node1</title>
<g id="a_node1"><a xlink:title=" ">
<polygon fill="#999999" stroke="#666666" points="382.5,-250 241.5,-250 241.5,-220 382.5,-220 382.5,-250"/>
<text text-anchor="start" x="249.5" y="-238" font-family="Helvetica,sans-Serif" font-size="10.00">src/alpaqa/include</text>
<text text-anchor="middle" x="312" y="-227" font-family="Helvetica,sans-Serif" font-size="10.00">/alpaqa/util/index&#45;set.hpp</text>
</a>
</g>
</g>
<!-- Node2 -->
<g id="node2" class="node">
<title>Node2</title>
<g id="a_node2"><a xlink:href="panoc-ocp_8tpp.html" target="_top" xlink:title=" ">
<polygon fill="white" stroke="#666666" points="183,-184 49,-184 49,-143 183,-143 183,-184"/>
<text text-anchor="start" x="57" y="-172" font-family="Helvetica,sans-Serif" font-size="10.00">src/alpaqa/include</text>
<text text-anchor="start" x="57" y="-161" font-family="Helvetica,sans-Serif" font-size="10.00">/alpaqa/implementation</text>
<text text-anchor="middle" x="116" y="-150" font-family="Helvetica,sans-Serif" font-size="10.00">/inner/panoc&#45;ocp.tpp</text>
</a>
</g>
</g>
<!-- Node1&#45;&gt;Node2 -->
<g id="edge1" class="edge">
<title>Node1&#45;&gt;Node2</title>
<path fill="none" stroke="#63b8ff" d="M262.8,-216.55C234.93,-206.67 200,-194.28 171.2,-184.07"/>
<polygon fill="#63b8ff" stroke="#63b8ff" points="261.74,-219.89 272.34,-219.94 264.08,-213.29 261.74,-219.89"/>
</g>
<!-- Node4 -->
<g id="node4" class="node">
<title>Node4</title>
<g id="a_node4"><a xlink:href="structured-newton_8hpp.html" target="_top" xlink:title=" ">
<polygon fill="white" stroke="#666666" points="393,-184 231,-184 231,-143 393,-143 393,-184"/>
<text text-anchor="start" x="239" y="-172" font-family="Helvetica,sans-Serif" font-size="10.00">src/alpaqa/include</text>
<text text-anchor="start" x="239" y="-161" font-family="Helvetica,sans-Serif" font-size="10.00">/alpaqa/inner/directions</text>
<text text-anchor="middle" x="312" y="-150" font-family="Helvetica,sans-Serif" font-size="10.00">/panoc/structured&#45;newton.hpp</text>
</a>
</g>
</g>
<!-- Node1&#45;&gt;Node4 -->
<g id="edge3" class="edge">
<title>Node1&#45;&gt;Node4</title>
<path fill="none" stroke="#63b8ff" d="M312,-209.91C312,-201.47 312,-192.1 312,-184.07"/>
<polygon fill="#63b8ff" stroke="#63b8ff" points="308.5,-209.94 312,-219.94 315.5,-209.94 308.5,-209.94"/>
</g>
<!-- Node7 -->
<g id="node7" class="node">
<title>Node7</title>
<g id="a_node7"><a xlink:href="newton-tr_8hpp.html" target="_top" xlink:title=" ">
<polygon fill="white" stroke="#666666" points="557.5,-184 426.5,-184 426.5,-143 557.5,-143 557.5,-184"/>
<text text-anchor="start" x="434.5" y="-172" font-family="Helvetica,sans-Serif" font-size="10.00">src/alpaqa/include</text>
<text text-anchor="start" x="434.5" y="-161" font-family="Helvetica,sans-Serif" font-size="10.00">/alpaqa/inner/directions</text>
<text text-anchor="middle" x="492" y="-150" font-family="Helvetica,sans-Serif" font-size="10.00">/pantr/newton&#45;tr.hpp</text>
</a>
</g>
</g>
<!-- Node1&#45;&gt;Node7 -->
<g id="edge6" class="edge">
<title>Node1&#45;&gt;Node7</title>
<path fill="none" stroke="#63b8ff" d="M357.86,-216.29C383.34,-206.46 415.09,-194.2 441.31,-184.07"/>
<polygon fill="#63b8ff" stroke="#63b8ff" points="356.49,-213.07 348.43,-219.94 359.02,-219.6 356.49,-213.07"/>
</g>
<!-- Node3 -->
<g id="node3" class="node">
<title>Node3</title>
<g id="a_node3"><a xlink:href="panoc-ocp_8cpp.html" target="_top" xlink:title=" ">
<polygon fill="white" stroke="#666666" points="112,-101.5 0,-101.5 0,-71.5 112,-71.5 112,-101.5"/>
<text text-anchor="start" x="8" y="-89.5" font-family="Helvetica,sans-Serif" font-size="10.00">src/alpaqa/src/inner</text>
<text text-anchor="middle" x="56" y="-78.5" font-family="Helvetica,sans-Serif" font-size="10.00">/panoc&#45;ocp.cpp</text>
</a>
</g>
</g>
<!-- Node2&#45;&gt;Node3 -->
<g id="edge2" class="edge">
<title>Node2&#45;&gt;Node3</title>
<path fill="none" stroke="#63b8ff" d="M93.93,-134.92C84.96,-123.7 74.96,-111.21 67.49,-101.86"/>
<polygon fill="#63b8ff" stroke="#63b8ff" points="91.26,-137.17 100.24,-142.79 96.72,-132.8 91.26,-137.17"/>
</g>
<!-- Node5 -->
<g id="node5" class="node">
<title>Node5</title>
<g id="a_node5"><a xlink:href="structured-newton_8cpp.html" target="_top" xlink:title=" ">
<polygon fill="white" stroke="#666666" points="282,-107 130,-107 130,-66 282,-66 282,-107"/>
<text text-anchor="start" x="138" y="-95" font-family="Helvetica,sans-Serif" font-size="10.00">src/alpaqa/src/inner</text>
<text text-anchor="start" x="138" y="-84" font-family="Helvetica,sans-Serif" font-size="10.00">/directions/panoc/structured</text>
<text text-anchor="middle" x="206" y="-73" font-family="Helvetica,sans-Serif" font-size="10.00">&#45;newton.cpp</text>
</a>
</g>
</g>
<!-- Node4&#45;&gt;Node5 -->
<g id="edge4" class="edge">
<title>Node4&#45;&gt;Node5</title>
<path fill="none" stroke="#63b8ff" d="M276.09,-137.09C262.28,-127.32 246.74,-116.32 233.8,-107.17"/>
<polygon fill="#63b8ff" stroke="#63b8ff" points="274.24,-140.07 284.43,-142.99 278.28,-134.36 274.24,-140.07"/>
</g>
<!-- Node6 -->
<g id="node6" class="node">
<title>Node6</title>
<g id="a_node6"><a xlink:href="params_8cpp.html" target="_top" xlink:title=" ">
<polygon fill="white" stroke="#666666" points="424,-101.5 300,-101.5 300,-71.5 424,-71.5 424,-101.5"/>
<text text-anchor="start" x="308" y="-89.5" font-family="Helvetica,sans-Serif" font-size="10.00">src/alpaqa/src/params</text>
<text text-anchor="middle" x="362" y="-78.5" font-family="Helvetica,sans-Serif" font-size="10.00">/params.cpp</text>
</a>
</g>
</g>
<!-- Node4&#45;&gt;Node6 -->
<g id="edge5" class="edge">
<title>Node4&#45;&gt;Node6</title>
<path fill="none" stroke="#63b8ff" d="M330.83,-134.26C338.19,-123.21 346.32,-111.02 352.43,-101.86"/>
<polygon fill="#63b8ff" stroke="#63b8ff" points="327.77,-132.53 325.14,-142.79 333.6,-136.42 327.77,-132.53"/>
</g>
<!-- Node7&#45;&gt;Node6 -->
<g id="edge10" class="edge">
<title>Node7&#45;&gt;Node6</title>
<path fill="none" stroke="#63b8ff" d="M449.5,-137.98C428.67,-125.97 404.33,-111.92 386.61,-101.7"/>
<polygon fill="#63b8ff" stroke="#63b8ff" points="447.77,-141.02 458.18,-142.99 451.27,-134.96 447.77,-141.02"/>
</g>
<!-- Node8 -->
<g id="node8" class="node">
<title>Node8</title>
<g id="a_node8"><a xlink:href="newton-tr-pantr-alm_8hpp.html" target="_top" xlink:title=" ">
<polygon fill="white" stroke="#666666" points="574,-107 442,-107 442,-66 574,-66 574,-107"/>
<text text-anchor="start" x="450" y="-95" font-family="Helvetica,sans-Serif" font-size="10.00">src/alpaqa/include</text>
<text text-anchor="start" x="450" y="-84" font-family="Helvetica,sans-Serif" font-size="10.00">/alpaqa/newton&#45;tr&#45;pantr</text>
<text text-anchor="middle" x="508" y="-73" font-family="Helvetica,sans-Serif" font-size="10.00">&#45;alm.hpp</text>
</a>
</g>
</g>
<!-- Node7&#45;&gt;Node8 -->
<g id="edge7" class="edge">
<title>Node7&#45;&gt;Node8</title>
<path fill="none" stroke="#63b8ff" d="M498.3,-132.98C500.15,-124.28 502.14,-114.98 503.82,-107.07"/>
<polygon fill="#63b8ff" stroke="#63b8ff" points="494.87,-132.28 496.2,-142.79 501.71,-133.74 494.87,-132.28"/>
</g>
<!-- Node10 -->
<g id="node10" class="node">
<title>Node10</title>
<g id="a_node10"><a xlink:href="pantr-driver_8cpp.html" target="_top" xlink:title=" ">
<polygon fill="white" stroke="#666666" points="708,-101.5 592,-101.5 592,-71.5 708,-71.5 708,-101.5"/>
<text text-anchor="start" x="600" y="-89.5" font-family="Helvetica,sans-Serif" font-size="10.00">src/alpaqa/src/driver</text>
<text text-anchor="middle" x="650" y="-78.5" font-family="Helvetica,sans-Serif" font-size="10.00">/pantr&#45;driver.cpp</text>
</a>
</g>
</g>
<!-- Node7&#45;&gt;Node10 -->
<g id="edge9" class="edge">
<title>Node7&#45;&gt;Node10</title>
<path fill="none" stroke="#63b8ff" d="M542.3,-138.62C567.91,-126.47 598.17,-112.1 620.09,-101.7"/>
<polygon fill="#63b8ff" stroke="#63b8ff" points="540.63,-135.54 533.1,-142.99 543.63,-141.86 540.63,-135.54"/>
</g>
<!-- Node9 -->
<g id="node9" class="node">
<title>Node9</title>
<g id="a_node9"><a xlink:href="newton-tr-pantr-alm_8cpp.html" target="_top" xlink:title=" ">
<polygon fill="white" stroke="#666666" points="569.5,-30 446.5,-30 446.5,0 569.5,0 569.5,-30"/>
<text text-anchor="start" x="454.5" y="-18" font-family="Helvetica,sans-Serif" font-size="10.00">src/alpaqa/src/newton</text>
<text text-anchor="middle" x="508" y="-7" font-family="Helvetica,sans-Serif" font-size="10.00">&#45;tr&#45;pantr&#45;alm.cpp</text>
</a>
</g>
</g>
<!-- Node8&#45;&gt;Node9 -->
<g id="edge8" class="edge">
<title>Node8&#45;&gt;Node9</title>
<path fill="none" stroke="#63b8ff" d="M508,-55.66C508,-46.76 508,-37.42 508,-30.04"/>
<polygon fill="#63b8ff" stroke="#63b8ff" points="504.5,-55.77 508,-65.77 511.5,-55.77 504.5,-55.77"/>
</g>
</g>
</svg>
