<?xml version="1.0" encoding="UTF-8" standalone="no"?>
<!DOCTYPE svg PUBLIC "-//W3C//DTD SVG 1.1//EN"
 "http://www.w3.org/Graphics/SVG/1.1/DTD/svg11.dtd">
<!-- Generated by graphviz version 2.43.0 (0)
 -->
<!-- Title: Graphical Class Hierarchy Pages: 1 -->
<svg width="253pt" height="187pt"
 viewBox="0.00 0.00 253.00 186.50" xmlns="http://www.w3.org/2000/svg" xmlns:xlink="http://www.w3.org/1999/xlink">
<g id="graph0" class="graph" transform="scale(1 1) rotate(0) translate(4 182.5)">
<title>Graphical Class Hierarchy</title>
<!-- Node0 -->
<g id="node1" class="node">
<title>Node0</title>
<g id="a_node1"><a xlink:title=" ">
<polygon fill="#e0e0e0" stroke="#999999" points="63,-93 0,-93 0,-74 63,-74 63,-93"/>
<text text-anchor="middle" x="31.5" y="-81" font-family="Helvetica,sans-Serif" font-size="10.00">true_type</text>
</a>
</g>
</g>
<!-- Node1 -->
<g id="node2" class="node">
<title>Node1</title>
<g id="a_node2"><a xlink:href="structalpaqa_1_1is__complex__float_3_01std_1_1complex_3_01T_01_4_01_4.html" target="_top" xlink:title=" ">
<polygon fill="white" stroke="#666666" points="234.5,-178.5 109.5,-178.5 109.5,-148.5 234.5,-148.5 234.5,-178.5"/>
<text text-anchor="start" x="117.5" y="-166.5" font-family="Helvetica,sans-Serif" font-size="10.00">is_complex_float&lt; std</text>
<text text-anchor="middle" x="172" y="-155.5" font-family="Helvetica,sans-Serif" font-size="10.00">::complex&lt; T &gt; &gt;</text>
</a>
</g>
</g>
<!-- Node0&#45;&gt;Node1 -->
<g id="edge1" class="edge">
<title>Node0&#45;&gt;Node1</title>
<path fill="none" stroke="#63b8ff" d="M49,-100.5C61.7,-112.77 80.21,-128.97 99,-139.5 104.98,-142.85 111.5,-145.83 118.09,-148.45"/>
<polygon fill="#63b8ff" stroke="#63b8ff" points="51.11,-97.67 41.55,-93.1 46.18,-102.63 51.11,-97.67"/>
</g>
<!-- Node2 -->
<g id="node3" class="node">
<title>Node2</title>
<g id="a_node3"><a xlink:href="structalpaqa_1_1is__config_3_01EigenConfigd_01_4.html" target="_top" xlink:title=" ">
<polygon fill="white" stroke="#666666" points="245,-130 99,-130 99,-111 245,-111 245,-130"/>
<text text-anchor="middle" x="172" y="-118" font-family="Helvetica,sans-Serif" font-size="10.00">is_config&lt; EigenConfigd &gt;</text>
</a>
</g>
</g>
<!-- Node0&#45;&gt;Node2 -->
<g id="edge2" class="edge">
<title>Node0&#45;&gt;Node2</title>
<path fill="none" stroke="#63b8ff" d="M73.03,-95.31C81.59,-97.74 90.58,-100.25 99,-102.5 109.58,-105.33 121.07,-108.27 131.7,-110.93"/>
<polygon fill="#63b8ff" stroke="#63b8ff" points="73.81,-91.89 63.23,-92.51 71.88,-98.63 73.81,-91.89"/>
</g>
<!-- Node3 -->
<g id="node4" class="node">
<title>Node3</title>
<g id="a_node4"><a xlink:href="structalpaqa_1_1is__config_3_01EigenConfigf_01_4.html" target="_top" xlink:title=" ">
<polygon fill="white" stroke="#666666" points="243.5,-93 100.5,-93 100.5,-74 243.5,-74 243.5,-93"/>
<text text-anchor="middle" x="172" y="-81" font-family="Helvetica,sans-Serif" font-size="10.00">is_config&lt; EigenConfigf &gt;</text>
</a>
</g>
</g>
<!-- Node0&#45;&gt;Node3 -->
<g id="edge3" class="edge">
<title>Node0&#45;&gt;Node3</title>
<path fill="none" stroke="#63b8ff" d="M73.28,-83.5C81.84,-83.5 91.1,-83.5 100.39,-83.5"/>
<polygon fill="#63b8ff" stroke="#63b8ff" points="73.24,-80 63.24,-83.5 73.24,-87 73.24,-80"/>
</g>
<!-- Node4 -->
<g id="node5" class="node">
<title>Node4</title>
<g id="a_node5"><a xlink:href="structalpaqa_1_1is__config_3_01EigenConfigl_01_4.html" target="_top" xlink:title=" ">
<polygon fill="white" stroke="#666666" points="243.5,-56 100.5,-56 100.5,-37 243.5,-37 243.5,-56"/>
<text text-anchor="middle" x="172" y="-44" font-family="Helvetica,sans-Serif" font-size="10.00">is_config&lt; EigenConfigl &gt;</text>
</a>
</g>
</g>
<!-- Node0&#45;&gt;Node4 -->
<g id="edge4" class="edge">
<title>Node0&#45;&gt;Node4</title>
<path fill="none" stroke="#63b8ff" d="M73.07,-72.47C81.63,-70.16 90.61,-67.74 99,-65.5 110.62,-62.4 123.29,-59.04 134.73,-56.02"/>
<polygon fill="#63b8ff" stroke="#63b8ff" points="72.02,-69.13 63.28,-75.13 73.85,-75.89 72.02,-69.13"/>
</g>
<!-- Node5 -->
<g id="node6" class="node">
<title>Node5</title>
<g id="a_node6"><a xlink:href="structalpaqa_1_1is__config_3_01EigenConfigq_01_4.html" target="_top" xlink:title=" ">
<polygon fill="white" stroke="#666666" points="245,-19 99,-19 99,0 245,0 245,-19"/>
<text text-anchor="middle" x="172" y="-7" font-family="Helvetica,sans-Serif" font-size="10.00">is_config&lt; EigenConfigq &gt;</text>
</a>
</g>
</g>
<!-- Node0&#45;&gt;Node5 -->
<g id="edge5" class="edge">
<title>Node0&#45;&gt;Node5</title>
<path fill="none" stroke="#63b8ff" d="M48.86,-66.47C61.49,-54.24 79.98,-38.27 99,-28.5 106.47,-24.66 114.8,-21.55 123.05,-19.04"/>
<polygon fill="#63b8ff" stroke="#63b8ff" points="46.07,-64.31 41.46,-73.85 51.01,-69.27 46.07,-64.31"/>
</g>
</g>
</svg>
