<?xml version="1.0" encoding="UTF-8" standalone="no"?>
<!DOCTYPE svg PUBLIC "-//W3C//DTD SVG 1.1//EN"
 "http://www.w3.org/Graphics/SVG/1.1/DTD/svg11.dtd">
<!-- Generated by graphviz version 2.43.0 (0)
 -->
<!-- Title: src/alpaqa/include/alpaqa/util/iter&#45;adapter.hpp Pages: 1 -->
<svg width="332pt" height="258pt"
 viewBox="0.00 0.00 331.50 258.00" xmlns="http://www.w3.org/2000/svg" xmlns:xlink="http://www.w3.org/1999/xlink">
<g id="graph0" class="graph" transform="scale(1 1) rotate(0) translate(4 254)">
<title>src/alpaqa/include/alpaqa/util/iter&#45;adapter.hpp</title>
<!-- Node1 -->
<g id="node1" class="node">
<title>Node1</title>
<g id="a_node1"><a xlink:title=" ">
<polygon fill="#999999" stroke="#666666" points="253,-250 101,-250 101,-220 253,-220 253,-250"/>
<text text-anchor="start" x="109" y="-238" font-family="Helvetica,sans-Serif" font-size="10.00">src/alpaqa/include</text>
<text text-anchor="middle" x="177" y="-227" font-family="Helvetica,sans-Serif" font-size="10.00">/alpaqa/util/iter&#45;adapter.hpp</text>
</a>
</g>
</g>
<!-- Node2 -->
<g id="node2" class="node">
<title>Node2</title>
<g id="a_node2"><a xlink:href="sparse-ops_8hpp.html" target="_top" xlink:title=" ">
<polygon fill="white" stroke="#666666" points="230.5,-184 123.5,-184 123.5,-143 230.5,-143 230.5,-184"/>
<text text-anchor="start" x="131.5" y="-172" font-family="Helvetica,sans-Serif" font-size="10.00">src/alpaqa/include</text>
<text text-anchor="start" x="131.5" y="-161" font-family="Helvetica,sans-Serif" font-size="10.00">/alpaqa/util/sparse</text>
<text text-anchor="middle" x="177" y="-150" font-family="Helvetica,sans-Serif" font-size="10.00">&#45;ops.hpp</text>
</a>
</g>
</g>
<!-- Node1&#45;&gt;Node2 -->
<g id="edge1" class="edge">
<title>Node1&#45;&gt;Node2</title>
<path fill="none" stroke="#63b8ff" d="M177,-209.91C177,-201.47 177,-192.1 177,-184.07"/>
<polygon fill="#63b8ff" stroke="#63b8ff" points="173.5,-209.94 177,-219.94 180.5,-209.94 173.5,-209.94"/>
</g>
<!-- Node3 -->
<g id="node3" class="node">
<title>Node3</title>
<g id="a_node3"><a xlink:href="CasADiControlProblem_8tpp.html" target="_top" xlink:title=" ">
<polygon fill="white" stroke="#666666" points="184,-107 0,-107 0,-66 184,-66 184,-107"/>
<text text-anchor="start" x="8" y="-95" font-family="Helvetica,sans-Serif" font-size="10.00">src/interop/casadi</text>
<text text-anchor="start" x="8" y="-84" font-family="Helvetica,sans-Serif" font-size="10.00">/include/alpaqa/implementation</text>
<text text-anchor="middle" x="92" y="-73" font-family="Helvetica,sans-Serif" font-size="10.00">/casadi/CasADiControlProblem.tpp</text>
</a>
</g>
</g>
<!-- Node2&#45;&gt;Node3 -->
<g id="edge2" class="edge">
<title>Node2&#45;&gt;Node3</title>
<path fill="none" stroke="#63b8ff" d="M147.05,-136.07C136.23,-126.52 124.22,-115.93 114.18,-107.07"/>
<polygon fill="#63b8ff" stroke="#63b8ff" points="144.85,-138.8 154.67,-142.79 149.48,-133.55 144.85,-138.8"/>
</g>
<!-- Node5 -->
<g id="node5" class="node">
<title>Node5</title>
<g id="a_node5"><a xlink:href="cutest-loader_8cpp.html" target="_top" xlink:title=" ">
<polygon fill="white" stroke="#666666" points="323.5,-101.5 202.5,-101.5 202.5,-71.5 323.5,-71.5 323.5,-101.5"/>
<text text-anchor="start" x="210.5" y="-89.5" font-family="Helvetica,sans-Serif" font-size="10.00">src/interop/cutest</text>
<text text-anchor="middle" x="263" y="-78.5" font-family="Helvetica,sans-Serif" font-size="10.00">/src/cutest&#45;loader.cpp</text>
</a>
</g>
</g>
<!-- Node2&#45;&gt;Node5 -->
<g id="edge4" class="edge">
<title>Node2&#45;&gt;Node5</title>
<path fill="none" stroke="#63b8ff" d="M207.19,-136.17C220.52,-124.55 235.66,-111.34 246.8,-101.63"/>
<polygon fill="#63b8ff" stroke="#63b8ff" points="204.83,-133.58 199.6,-142.79 209.43,-138.86 204.83,-133.58"/>
</g>
<!-- Node4 -->
<g id="node4" class="node">
<title>Node4</title>
<g id="a_node4"><a xlink:href="CasADiControlProblem_8cpp.html" target="_top" xlink:title=" ">
<polygon fill="white" stroke="#666666" points="176,-30 8,-30 8,0 176,0 176,-30"/>
<text text-anchor="start" x="16" y="-18" font-family="Helvetica,sans-Serif" font-size="10.00">src/interop/casadi</text>
<text text-anchor="middle" x="92" y="-7" font-family="Helvetica,sans-Serif" font-size="10.00">/src/CasADiControlProblem.cpp</text>
</a>
</g>
</g>
<!-- Node3&#45;&gt;Node4 -->
<g id="edge3" class="edge">
<title>Node3&#45;&gt;Node4</title>
<path fill="none" stroke="#63b8ff" d="M92,-55.66C92,-46.76 92,-37.42 92,-30.04"/>
<polygon fill="#63b8ff" stroke="#63b8ff" points="88.5,-55.77 92,-65.77 95.5,-55.77 88.5,-55.77"/>
</g>
</g>
</svg>
