<?xml version="1.0" encoding="UTF-8" standalone="no"?>
<!DOCTYPE svg PUBLIC "-//W3C//DTD SVG 1.1//EN"
 "http://www.w3.org/Graphics/SVG/1.1/DTD/svg11.dtd">
<!-- Generated by graphviz version 2.43.0 (0)
 -->
<!-- Title: set_params Pages: 1 -->
<svg width="186pt" height="64pt"
 viewBox="0.00 0.00 186.00 64.00" xmlns="http://www.w3.org/2000/svg" xmlns:xlink="http://www.w3.org/1999/xlink">
<g id="graph0" class="graph" transform="scale(1 1) rotate(0) translate(4 60)">
<title>set_params</title>
<!-- Node1 -->
<g id="node1" class="node">
<title>Node1</title>
<g id="a_node1"><a xlink:title="Overwrites t based on the options that start with prefix.">
<polygon fill="#999999" stroke="#666666" points="74,-37 0,-37 0,-18 74,-18 74,-37"/>
<text text-anchor="middle" x="37" y="-25" font-family="Helvetica,sans-Serif" font-size="10.00">set_params</text>
</a>
</g>
</g>
<!-- Node2 -->
<g id="node2" class="node">
<title>Node2</title>
<g id="a_node2"><a xlink:href="namespacealpaqa_1_1params.html#a0de0baee3dda47aba5143ba83bd11712" target="_top" xlink:title=" ">
<polygon fill="white" stroke="#666666" points="178,-56 110,-56 110,-37 178,-37 178,-56"/>
<text text-anchor="middle" x="144" y="-44" font-family="Helvetica,sans-Serif" font-size="10.00">set_param</text>
</a>
</g>
</g>
<!-- Node1&#45;&gt;Node2 -->
<g id="edge1" class="edge">
<title>Node1&#45;&gt;Node2</title>
<path fill="none" stroke="#63b8ff" d="M74.14,-34.04C82.49,-35.55 91.46,-37.17 100.08,-38.73"/>
<polygon fill="#63b8ff" stroke="#63b8ff" points="99.51,-42.19 109.97,-40.52 100.75,-35.3 99.51,-42.19"/>
</g>
<!-- Node3 -->
<g id="node3" class="node">
<title>Node3</title>
<g id="a_node3"><a xlink:href="namespacealpaqa_1_1params.html#aa3666becfea1ef2eb24d83f592c123e9" target="_top" xlink:title="Split the string full on the first occurrence of tok.">
<polygon fill="white" stroke="#666666" points="174,-19 114,-19 114,0 174,0 174,-19"/>
<text text-anchor="middle" x="144" y="-7" font-family="Helvetica,sans-Serif" font-size="10.00">split_key</text>
</a>
</g>
</g>
<!-- Node1&#45;&gt;Node3 -->
<g id="edge2" class="edge">
<title>Node1&#45;&gt;Node3</title>
<path fill="none" stroke="#63b8ff" d="M74.14,-21.31C83.73,-19.66 94.14,-17.88 103.89,-16.2"/>
<polygon fill="#63b8ff" stroke="#63b8ff" points="104.48,-19.65 113.75,-14.51 103.3,-12.75 104.48,-19.65"/>
</g>
</g>
</svg>
