<?xml version="1.0" encoding="UTF-8" standalone="no"?>
<!DOCTYPE svg PUBLIC "-//W3C//DTD SVG 1.1//EN"
 "http://www.w3.org/Graphics/SVG/1.1/DTD/svg11.dtd">
<!-- Generated by graphviz version 2.43.0 (0)
 -->
<!-- Title: read_row_std_vector Pages: 1 -->
<svg width="627pt" height="134pt"
 viewBox="0.00 0.00 627.00 134.00" xmlns="http://www.w3.org/2000/svg" xmlns:xlink="http://www.w3.org/1999/xlink">
<g id="graph0" class="graph" transform="scale(1 1) rotate(0) translate(4 130)">
<title>read_row_std_vector</title>
<!-- Node1 -->
<g id="node1" class="node">
<title>Node1</title>
<g id="a_node1"><a xlink:title=" ">
<polygon fill="#999999" stroke="#666666" points="118,-72.5 0,-72.5 0,-53.5 118,-53.5 118,-72.5"/>
<text text-anchor="middle" x="59" y="-60.5" font-family="Helvetica,sans-Serif" font-size="10.00">read_row_std_vector</text>
</a>
</g>
</g>
<!-- Node2 -->
<g id="node2" class="node">
<title>Node2</title>
<g id="a_node2"><a xlink:href="structalpaqa_1_1csv_1_1CSVReader.html#afdd326ba5c63582bc2f2f7b0fc6cdf9a" target="_top" xlink:title=" ">
<polygon fill="white" stroke="#666666" points="285,-126 154,-126 154,-96 285,-96 285,-126"/>
<text text-anchor="start" x="162" y="-114" font-family="Helvetica,sans-Serif" font-size="10.00">alpaqa::csv::CSVReader</text>
<text text-anchor="middle" x="219.5" y="-103" font-family="Helvetica,sans-Serif" font-size="10.00">::check_end</text>
</a>
</g>
</g>
<!-- Node1&#45;&gt;Node2 -->
<g id="edge1" class="edge">
<title>Node1&#45;&gt;Node2</title>
<path fill="none" stroke="#63b8ff" d="M91.69,-72.6C110.98,-78.44 136.23,-86.09 159.12,-93.02"/>
<polygon fill="#63b8ff" stroke="#63b8ff" points="158.18,-96.39 168.76,-95.94 160.2,-89.69 158.18,-96.39"/>
</g>
<!-- Node3 -->
<g id="node3" class="node">
<title>Node3</title>
<g id="a_node3"><a xlink:href="structalpaqa_1_1csv_1_1CSVReader.html#a56d9c3f16a7dafb0bc8bff255715323b" target="_top" xlink:title=" ">
<polygon fill="white" stroke="#666666" points="285,-78 154,-78 154,-48 285,-48 285,-78"/>
<text text-anchor="start" x="162" y="-66" font-family="Helvetica,sans-Serif" font-size="10.00">alpaqa::csv::CSVReader</text>
<text text-anchor="middle" x="219.5" y="-55" font-family="Helvetica,sans-Serif" font-size="10.00">::done</text>
</a>
</g>
</g>
<!-- Node1&#45;&gt;Node3 -->
<g id="edge2" class="edge">
<title>Node1&#45;&gt;Node3</title>
<path fill="none" stroke="#63b8ff" d="M118.12,-63C126.5,-63 135.22,-63 143.87,-63"/>
<polygon fill="#63b8ff" stroke="#63b8ff" points="143.97,-66.5 153.97,-63 143.97,-59.5 143.97,-66.5"/>
</g>
<!-- Node4 -->
<g id="node4" class="node">
<title>Node4</title>
<g id="a_node4"><a xlink:href="structalpaqa_1_1csv_1_1CSVReader.html#aa099bf8be529b9150c8b4ebc522597d8" target="_top" xlink:title=" ">
<polygon fill="white" stroke="#666666" points="285,-30 154,-30 154,0 285,0 285,-30"/>
<text text-anchor="start" x="162" y="-18" font-family="Helvetica,sans-Serif" font-size="10.00">alpaqa::csv::CSVReader</text>
<text text-anchor="middle" x="219.5" y="-7" font-family="Helvetica,sans-Serif" font-size="10.00">::read</text>
</a>
</g>
</g>
<!-- Node1&#45;&gt;Node4 -->
<g id="edge3" class="edge">
<title>Node1&#45;&gt;Node4</title>
<path fill="none" stroke="#63b8ff" d="M91.69,-53.4C110.98,-47.56 136.23,-39.91 159.12,-32.98"/>
<polygon fill="#63b8ff" stroke="#63b8ff" points="160.2,-36.31 168.76,-30.06 158.18,-29.61 160.2,-36.31"/>
</g>
<!-- Node5 -->
<g id="node5" class="node">
<title>Node5</title>
<g id="a_node5"><a xlink:href="structalpaqa_1_1csv_1_1CSVReader.html#a538940f8cf1396d65dd796515dbbff7a" target="_top" xlink:title=" ">
<polygon fill="white" stroke="#666666" points="452,-30 321,-30 321,0 452,0 452,-30"/>
<text text-anchor="start" x="329" y="-18" font-family="Helvetica,sans-Serif" font-size="10.00">alpaqa::csv::CSVReader</text>
<text text-anchor="middle" x="386.5" y="-7" font-family="Helvetica,sans-Serif" font-size="10.00">::read_single</text>
</a>
</g>
</g>
<!-- Node4&#45;&gt;Node5 -->
<g id="edge4" class="edge">
<title>Node4&#45;&gt;Node5</title>
<path fill="none" stroke="#63b8ff" d="M285.24,-15C293.58,-15 302.18,-15 310.67,-15"/>
<polygon fill="#63b8ff" stroke="#63b8ff" points="310.95,-18.5 320.95,-15 310.95,-11.5 310.95,-18.5"/>
</g>
<!-- Node6 -->
<g id="node6" class="node">
<title>Node6</title>
<g id="a_node6"><a xlink:href="structalpaqa_1_1csv_1_1CSVReader.html#af61373614725e2b48a91709920c1307e" target="_top" xlink:title=" ">
<polygon fill="white" stroke="#666666" points="619,-30 488,-30 488,0 619,0 619,-30"/>
<text text-anchor="start" x="496" y="-18" font-family="Helvetica,sans-Serif" font-size="10.00">alpaqa::csv::CSVReader</text>
<text text-anchor="middle" x="553.5" y="-7" font-family="Helvetica,sans-Serif" font-size="10.00">::strtod_ovl</text>
</a>
</g>
</g>
<!-- Node5&#45;&gt;Node6 -->
<g id="edge5" class="edge">
<title>Node5&#45;&gt;Node6</title>
<path fill="none" stroke="#63b8ff" d="M452.24,-15C460.58,-15 469.18,-15 477.67,-15"/>
<polygon fill="#63b8ff" stroke="#63b8ff" points="477.95,-18.5 487.95,-15 477.95,-11.5 477.95,-18.5"/>
</g>
</g>
</svg>
