<?xml version="1.0" encoding="UTF-8" standalone="no"?>
<!DOCTYPE svg PUBLIC "-//W3C//DTD SVG 1.1//EN"
 "http://www.w3.org/Graphics/SVG/1.1/DTD/svg11.dtd">
<!-- Generated by graphviz version 2.43.0 (0)
 -->
<!-- Title: indices Pages: 1 -->
<svg width="181pt" height="101pt"
 viewBox="0.00 0.00 181.00 101.00" xmlns="http://www.w3.org/2000/svg" xmlns:xlink="http://www.w3.org/1999/xlink">
<g id="graph0" class="graph" transform="scale(1 1) rotate(0) translate(4 97)">
<title>indices</title>
<!-- Node1 -->
<g id="node1" class="node">
<title>Node1</title>
<g id="a_node1"><a xlink:title=" ">
<polygon fill="#999999" stroke="#666666" points="173,-56 122,-56 122,-37 173,-37 173,-56"/>
<text text-anchor="middle" x="147.5" y="-44" font-family="Helvetica,sans-Serif" font-size="10.00">indices</text>
</a>
</g>
</g>
<!-- Node2 -->
<g id="node2" class="node">
<title>Node2</title>
<g id="a_node2"><a xlink:href="structalpaqa_1_1detail_1_1IndexSet.html#ad4ce799900c8187a39e6595100d3a66b" target="_top" xlink:title=" ">
<polygon fill="white" stroke="#666666" points="86,-93 0,-93 0,-74 86,-74 86,-93"/>
<text text-anchor="middle" x="43" y="-81" font-family="Helvetica,sans-Serif" font-size="10.00">compl_indices</text>
</a>
</g>
</g>
<!-- Node1&#45;&gt;Node2 -->
<g id="edge1" class="edge">
<title>Node1&#45;&gt;Node2</title>
<path fill="none" stroke="#63b8ff" d="M112.4,-58.81C98.76,-63.73 83.28,-69.32 70.51,-73.93"/>
<polygon fill="#63b8ff" stroke="#63b8ff" points="113.73,-62.05 121.95,-55.36 111.35,-55.47 113.73,-62.05"/>
</g>
<!-- Node3 -->
<g id="node3" class="node">
<title>Node3</title>
<g id="a_node3"><a xlink:href="structalpaqa_1_1detail_1_1IndexSet.html#ae98d4e1db238114398b65aaf11dedb17" target="_top" xlink:title=" ">
<polygon fill="white" stroke="#666666" points="68.5,-56 17.5,-56 17.5,-37 68.5,-37 68.5,-56"/>
<text text-anchor="middle" x="43" y="-44" font-family="Helvetica,sans-Serif" font-size="10.00">indices</text>
</a>
</g>
</g>
<!-- Node1&#45;&gt;Node3 -->
<g id="edge2" class="edge">
<title>Node1&#45;&gt;Node3</title>
<path fill="none" stroke="#63b8ff" d="M111.61,-46.5C97.51,-46.5 81.57,-46.5 68.71,-46.5"/>
<polygon fill="#63b8ff" stroke="#63b8ff" points="111.95,-50 121.95,-46.5 111.95,-43 111.95,-50"/>
</g>
<!-- Node4 -->
<g id="node4" class="node">
<title>Node4</title>
<g id="a_node4"><a xlink:href="structalpaqa_1_1detail_1_1IndexSet.html#ad8d66add92f514f8124024c6fb8e359d" target="_top" xlink:title=" ">
<polygon fill="white" stroke="#666666" points="68,-19 18,-19 18,0 68,0 68,-19"/>
<text text-anchor="middle" x="43" y="-7" font-family="Helvetica,sans-Serif" font-size="10.00">update</text>
</a>
</g>
</g>
<!-- Node1&#45;&gt;Node4 -->
<g id="edge3" class="edge">
<title>Node1&#45;&gt;Node4</title>
<path fill="none" stroke="#63b8ff" d="M112.36,-34.18C97.95,-28.98 81.5,-23.04 68.35,-18.29"/>
<polygon fill="#63b8ff" stroke="#63b8ff" points="111.35,-37.53 121.95,-37.64 113.73,-30.95 111.35,-37.53"/>
</g>
</g>
</svg>
