<?xml version="1.0" encoding="UTF-8" standalone="no"?>
<!DOCTYPE svg PUBLIC "-//W3C//DTD SVG 1.1//EN"
 "http://www.w3.org/Graphics/SVG/1.1/DTD/svg11.dtd">
<!-- Generated by graphviz version 2.43.0 (0)
 -->
<!-- Title: function_load_error Pages: 1 -->
<svg width="119pt" height="160pt"
 viewBox="0.00 0.00 119.00 160.00" xmlns="http://www.w3.org/2000/svg" xmlns:xlink="http://www.w3.org/1999/xlink">
<g id="graph0" class="graph" transform="scale(1 1) rotate(0) translate(4 156)">
<title>function_load_error</title>
<!-- Node1 -->
<g id="node1" class="node">
<title>Node1</title>
<g id="a_node1"><a xlink:title=" ">
<polygon fill="#999999" stroke="#666666" points="0,-0.5 0,-57.5 111,-57.5 111,-0.5 0,-0.5"/>
<text text-anchor="middle" x="55.5" y="-45.5" font-family="Helvetica,sans-Serif" font-size="10.00">function_load_error</text>
<polyline fill="none" stroke="#666666" points="0,-38.5 111,-38.5 "/>
<text text-anchor="middle" x="55.5" y="-26.5" font-family="Helvetica,sans-Serif" font-size="10.00"> </text>
<polyline fill="none" stroke="#666666" points="0,-19.5 111,-19.5 "/>
<text text-anchor="middle" x="55.5" y="-7.5" font-family="Helvetica,sans-Serif" font-size="10.00"> </text>
</a>
</g>
</g>
<!-- Node2 -->
<g id="node2" class="node">
<title>Node2</title>
<g id="a_node2"><a xlink:title=" ">
<polygon fill="white" stroke="#666666" points="14,-94.5 14,-151.5 97,-151.5 97,-94.5 14,-94.5"/>
<text text-anchor="middle" x="55.5" y="-139.5" font-family="Helvetica,sans-Serif" font-size="10.00">runtime_error</text>
<polyline fill="none" stroke="#666666" points="14,-132.5 97,-132.5 "/>
<text text-anchor="middle" x="55.5" y="-120.5" font-family="Helvetica,sans-Serif" font-size="10.00"> </text>
<polyline fill="none" stroke="#666666" points="14,-113.5 97,-113.5 "/>
<text text-anchor="middle" x="55.5" y="-101.5" font-family="Helvetica,sans-Serif" font-size="10.00"> </text>
</a>
</g>
</g>
<!-- Node2&#45;&gt;Node1 -->
<g id="edge1" class="edge">
<title>Node2&#45;&gt;Node1</title>
<path fill="none" stroke="#63b8ff" d="M55.5,-84.21C55.5,-75.29 55.5,-65.95 55.5,-57.58"/>
<polygon fill="none" stroke="#63b8ff" points="52,-84.4 55.5,-94.4 59,-84.4 52,-84.4"/>
</g>
</g>
</svg>
