<?xml version="1.0" encoding="UTF-8" standalone="no"?>
<!DOCTYPE svg PUBLIC "-//W3C//DTD SVG 1.1//EN"
 "http://www.w3.org/Graphics/SVG/1.1/DTD/svg11.dtd">
<!-- Generated by graphviz version 2.43.0 (0)
 -->
<!-- Title: initialize Pages: 1 -->
<!--zoomable 149 -->
<svg id="main" version="1.1" xmlns="http://www.w3.org/2000/svg" xmlns:xlink="http://www.w3.org/1999/xlink" xml:space="preserve" onload="init(evt)">
<style type="text/css"><![CDATA[
.edge:hover path { stroke: red; }
.edge:hover polygon { stroke: red; fill: red; }
]]></style>
<script type="text/javascript"><![CDATA[
var edges = document.getElementsByTagName('g');
if (edges && edges.length) {
  for (var i=0;i<edges.length;i++) {
    if (edges[i].id.substr(0,4)=='edge') {
      edges[i].setAttribute('class','edge');
    }
  }
}
]]></script>
        <defs>
                <circle id="rim" cx="0" cy="0" r="7"/>
                <circle id="rim2" cx="0" cy="0" r="3.5"/>
                <g id="zoomPlus">
                        <use xlink:href="#rim" fill="#404040">
                                <set attributeName="fill" to="#808080" begin="zoomplus.mouseover" end="zoomplus.mouseout"/>
                        </use>
                        <path d="M-4,0h8M0,-4v8" fill="none" stroke="white" stroke-width="1.5" pointer-events="none"/>
                </g>
                <g id="zoomMin">
                        <use xlink:href="#rim" fill="#404040">
                                <set attributeName="fill" to="#808080" begin="zoomminus.mouseover" end="zoomminus.mouseout"/>
                        </use>
                        <path d="M-4,0h8" fill="none" stroke="white" stroke-width="1.5" pointer-events="none"/>
                </g>
                <g id="dirArrow">
                        <path fill="none" stroke="white" stroke-width="1.5" d="M0,-3.0v7 M-2.5,-0.5L0,-3.0L2.5,-0.5"/>
                </g>
               <g id="resetDef">
                       <use xlink:href="#rim2" fill="#404040">
                               <set attributeName="fill" to="#808080" begin="reset.mouseover" end="reset.mouseout"/>
                       </use>
               </g>
        </defs>

<script type="text/javascript">
var viewWidth = 637;
var viewHeight = 149;
var sectionId = 'dynsection-2';
</script>
<script xlink:href="svgpan.js"/>
<svg id="graph" class="graph">
<g id="viewport">
<title>initialize</title>
<!-- Node1 -->
<g id="node1" class="node">
<title>Node1</title>
<g id="a_node1"><a xlink:title=" ">
<polygon fill="#999999" stroke="#666666" points="59,-87.5 0,-87.5 0,-68.5 59,-68.5 59,-87.5"/>
<text text-anchor="middle" x="29.5" y="-75.5" font-family="Helvetica,sans-Serif" font-size="10.00">initialize</text>
</a>
</g>
</g>
<!-- Node2 -->
<g id="node2" class="node">
<title>Node2</title>
<g id="a_node2"><a xlink:href="classalpaqa_1_1TypeErasedProblem.html#a3e0872a0f29741da3d5429fce2749a34" target="_top" xlink:title="[Required] Number of decision variables.">
<polygon fill="white" stroke="#666666" points="247,-141 95,-141 95,-111 247,-111 247,-141"/>
<text text-anchor="start" x="103" y="-129" font-family="Helvetica,sans-Serif" font-size="10.00">alpaqa::TypeErasedProblem</text>
<text text-anchor="middle" x="171" y="-118" font-family="Helvetica,sans-Serif" font-size="10.00">::get_n</text>
</a>
</g>
</g>
<!-- Node1&#45;&gt;Node2 -->
<g id="edge1" class="edge">
<title>Node1&#45;&gt;Node2</title>
<path fill="none" stroke="#63b8ff" d="M55.21,-87.5C67.18,-92.03 81.79,-97.43 95,-102 100.55,-103.92 106.34,-105.87 112.14,-107.78"/>
<polygon fill="#63b8ff" stroke="#63b8ff" points="111.29,-111.19 121.88,-110.97 113.46,-104.53 111.29,-111.19"/>
</g>
<!-- Node3 -->
<g id="node3" class="node">
<title>Node3</title>
<g id="a_node3"><a xlink:href="classalpaqa_1_1AndersonAccel.html#ab19f36da69b46652ea4742d2314c45c7" target="_top" xlink:title="Call this function on the first iteration to initialize the accelerator.">
<polygon fill="white" stroke="#666666" points="235,-45 107,-45 107,-15 235,-15 235,-45"/>
<text text-anchor="start" x="115" y="-33" font-family="Helvetica,sans-Serif" font-size="10.00">alpaqa::AndersonAccel</text>
<text text-anchor="middle" x="171" y="-22" font-family="Helvetica,sans-Serif" font-size="10.00">::initialize</text>
</a>
</g>
</g>
<!-- Node1&#45;&gt;Node3 -->
<g id="edge2" class="edge">
<title>Node1&#45;&gt;Node3</title>
<path fill="none" stroke="#63b8ff" d="M55.21,-68.5C67.18,-63.97 81.79,-58.57 95,-54 100.55,-52.08 106.34,-50.13 112.14,-48.22"/>
<polygon fill="#63b8ff" stroke="#63b8ff" points="113.46,-51.47 121.88,-45.03 111.29,-44.81 113.46,-51.47"/>
</g>
<!-- Node7 -->
<g id="node7" class="node">
<title>Node7</title>
<g id="a_node7"><a xlink:href="classalpaqa_1_1AndersonAccel.html#abfe51417fbebd259808f86d27f1d7ec5" target="_top" xlink:title="Change the problem dimension.">
<polygon fill="white" stroke="#666666" points="235,-93 107,-93 107,-63 235,-63 235,-93"/>
<text text-anchor="start" x="115" y="-81" font-family="Helvetica,sans-Serif" font-size="10.00">alpaqa::AndersonAccel</text>
<text text-anchor="middle" x="171" y="-70" font-family="Helvetica,sans-Serif" font-size="10.00">::resize</text>
</a>
</g>
</g>
<!-- Node1&#45;&gt;Node7 -->
<g id="edge6" class="edge">
<title>Node1&#45;&gt;Node7</title>
<path fill="none" stroke="#63b8ff" d="M59.07,-78C70.12,-78 83.32,-78 96.7,-78"/>
<polygon fill="#63b8ff" stroke="#63b8ff" points="96.93,-81.5 106.93,-78 96.93,-74.5 96.93,-81.5"/>
</g>
<!-- Node4 -->
<g id="node4" class="node">
<title>Node4</title>
<g id="a_node4"><a xlink:href="classalpaqa_1_1AndersonAccel.html#a727afc7a58d2e44ae7add57e3fa77bc6" target="_top" xlink:title="Get the problem dimension.">
<polygon fill="white" stroke="#666666" points="426.5,-61.5 286.5,-61.5 286.5,-42.5 426.5,-42.5 426.5,-61.5"/>
<text text-anchor="middle" x="356.5" y="-49.5" font-family="Helvetica,sans-Serif" font-size="10.00">alpaqa::AndersonAccel::n</text>
</a>
</g>
</g>
<!-- Node3&#45;&gt;Node4 -->
<g id="edge3" class="edge">
<title>Node3&#45;&gt;Node4</title>
<path fill="none" stroke="#63b8ff" d="M235.15,-37.57C248.41,-39.16 262.57,-40.86 276.33,-42.51"/>
<polygon fill="#63b8ff" stroke="#63b8ff" points="275.92,-45.98 286.27,-43.7 276.76,-39.03 275.92,-45.98"/>
</g>
<!-- Node6 -->
<g id="node6" class="node">
<title>Node6</title>
<g id="a_node6"><a xlink:href="classalpaqa_1_1LimitedMemoryQR.html#ad20897c5c8bd47f5d4005989bead0e55" target="_top" xlink:title="Reset all indices, clearing the Q and R matrices.">
<polygon fill="white" stroke="#666666" points="621,-30 474,-30 474,0 621,0 621,-30"/>
<text text-anchor="start" x="482" y="-18" font-family="Helvetica,sans-Serif" font-size="10.00">alpaqa::LimitedMemoryQR</text>
<text text-anchor="middle" x="547.5" y="-7" font-family="Helvetica,sans-Serif" font-size="10.00">::reset</text>
</a>
</g>
</g>
<!-- Node3&#45;&gt;Node6 -->
<g id="edge5" class="edge">
<title>Node3&#45;&gt;Node6</title>
<path fill="none" stroke="#63b8ff" d="M235.11,-27.47C297.86,-24.96 394.47,-21.09 463.43,-18.33"/>
<polygon fill="#63b8ff" stroke="#63b8ff" points="463.97,-21.81 473.83,-17.91 463.69,-14.81 463.97,-21.81"/>
</g>
<!-- Node5 -->
<g id="node5" class="node">
<title>Node5</title>
<g id="a_node5"><a xlink:href="classalpaqa_1_1LimitedMemoryQR.html#a727afc7a58d2e44ae7add57e3fa77bc6" target="_top" xlink:title=" ">
<polygon fill="white" stroke="#666666" points="627,-67.5 468,-67.5 468,-48.5 627,-48.5 627,-67.5"/>
<text text-anchor="middle" x="547.5" y="-55.5" font-family="Helvetica,sans-Serif" font-size="10.00">alpaqa::LimitedMemoryQR::n</text>
</a>
</g>
</g>
<!-- Node4&#45;&gt;Node5 -->
<g id="edge4" class="edge">
<title>Node4&#45;&gt;Node5</title>
<path fill="none" stroke="#63b8ff" d="M426.54,-54.19C436.68,-54.51 447.26,-54.85 457.73,-55.18"/>
<polygon fill="#63b8ff" stroke="#63b8ff" points="457.63,-58.68 467.73,-55.5 457.85,-51.68 457.63,-58.68"/>
</g>
<!-- Node7&#45;&gt;Node4 -->
<g id="edge7" class="edge">
<title>Node7&#45;&gt;Node4</title>
<path fill="none" stroke="#63b8ff" d="M235.15,-69.05C248.92,-67.1 263.63,-65.02 277.89,-63"/>
<polygon fill="#63b8ff" stroke="#63b8ff" points="278.75,-66.41 288.16,-61.54 277.77,-59.48 278.75,-66.41"/>
</g>
<!-- Node8 -->
<g id="node8" class="node">
<title>Node8</title>
<g id="a_node8"><a xlink:href="classalpaqa_1_1LimitedMemoryQR.html#ad15543203799d1dccb5a5e1c572e3f02" target="_top" xlink:title="Re&#45;allocate storage for a problem with a different size.">
<polygon fill="white" stroke="#666666" points="430,-110 283,-110 283,-80 430,-80 430,-110"/>
<text text-anchor="start" x="291" y="-98" font-family="Helvetica,sans-Serif" font-size="10.00">alpaqa::LimitedMemoryQR</text>
<text text-anchor="middle" x="356.5" y="-87" font-family="Helvetica,sans-Serif" font-size="10.00">::resize</text>
</a>
</g>
</g>
<!-- Node7&#45;&gt;Node8 -->
<g id="edge8" class="edge">
<title>Node7&#45;&gt;Node8</title>
<path fill="none" stroke="#63b8ff" d="M235.15,-83.85C247.26,-84.97 260.1,-86.16 272.72,-87.33"/>
<polygon fill="#63b8ff" stroke="#63b8ff" points="272.49,-90.82 282.77,-88.26 273.14,-83.85 272.49,-90.82"/>
</g>
<!-- Node8&#45;&gt;Node5 -->
<g id="edge10" class="edge">
<title>Node8&#45;&gt;Node5</title>
<path fill="none" stroke="#63b8ff" d="M430.03,-80.8C449.18,-77.05 469.6,-73.05 487.91,-69.47"/>
<polygon fill="#63b8ff" stroke="#63b8ff" points="488.7,-72.88 497.84,-67.53 487.36,-66.01 488.7,-72.88"/>
</g>
<!-- Node8&#45;&gt;Node6 -->
<g id="edge11" class="edge">
<title>Node8&#45;&gt;Node6</title>
<path fill="none" stroke="#63b8ff" d="M411.25,-79.98C417.74,-77.36 424.14,-74.38 430,-71 448.54,-60.3 447.3,-49.42 466,-39 469.25,-37.19 472.65,-35.5 476.14,-33.93"/>
<polygon fill="#63b8ff" stroke="#63b8ff" points="477.64,-37.1 485.54,-30.04 474.96,-30.63 477.64,-37.1"/>
</g>
<!-- Node9 -->
<g id="node9" class="node">
<title>Node9</title>
<g id="a_node9"><a xlink:href="classalpaqa_1_1LimitedMemoryQR.html#ac397ae83f5f4dd3d5cf9926f26acfb2d" target="_top" xlink:title=" ">
<polygon fill="white" stroke="#666666" points="629,-104.5 466,-104.5 466,-85.5 629,-85.5 629,-104.5"/>
<text text-anchor="middle" x="547.5" y="-92.5" font-family="Helvetica,sans-Serif" font-size="10.00">alpaqa::LimitedMemoryQR::m</text>
</a>
</g>
</g>
<!-- Node8&#45;&gt;Node9 -->
<g id="edge9" class="edge">
<title>Node8&#45;&gt;Node9</title>
<path fill="none" stroke="#63b8ff" d="M430.03,-95C438.49,-95 447.19,-95 455.85,-95"/>
<polygon fill="#63b8ff" stroke="#63b8ff" points="455.98,-98.5 465.98,-95 455.98,-91.5 455.98,-98.5"/>
</g>
</g>
</svg>
        <g id="navigator" transform="translate(0 0)" fill="#404254">
                <rect fill="#f2f5e9" fill-opacity="0.5" stroke="#606060" stroke-width=".5" x="0" y="0" width="60" height="60"/>
                <use id="zoomplus" xlink:href="#zoomPlus" x="17" y="9" onmousedown="handleZoom(evt,'in')"/>
                <use id="zoomminus" xlink:href="#zoomMin" x="42" y="9" onmousedown="handleZoom(evt,'out')"/>
                <use id="reset" xlink:href="#resetDef" x="30" y="36" onmousedown="handleReset()"/>
                <g id="arrowUp" xlink:href="#dirArrow" transform="translate(30 24)" onmousedown="handlePan(0,-1)">
                  <use xlink:href="#rim" fill="#404040">
                        <set attributeName="fill" to="#808080" begin="arrowUp.mouseover" end="arrowUp.mouseout"/>
                  </use>
                  <path fill="none" stroke="white" stroke-width="1.5" d="M0,-3.0v7 M-2.5,-0.5L0,-3.0L2.5,-0.5"/>
                </g>
                <g id="arrowRight" xlink:href="#dirArrow" transform="rotate(90) translate(36 -43)" onmousedown="handlePan(1,0)">
                  <use xlink:href="#rim" fill="#404040">
                        <set attributeName="fill" to="#808080" begin="arrowRight.mouseover" end="arrowRight.mouseout"/>
                  </use>
                  <path fill="none" stroke="white" stroke-width="1.5" d="M0,-3.0v7 M-2.5,-0.5L0,-3.0L2.5,-0.5"/>
                </g>
                <g id="arrowDown" xlink:href="#dirArrow" transform="rotate(180) translate(-30 -48)" onmousedown="handlePan(0,1)">
                  <use xlink:href="#rim" fill="#404040">
                        <set attributeName="fill" to="#808080" begin="arrowDown.mouseover" end="arrowDown.mouseout"/>
                  </use>
                  <path fill="none" stroke="white" stroke-width="1.5" d="M0,-3.0v7 M-2.5,-0.5L0,-3.0L2.5,-0.5"/>
                </g>
                <g id="arrowLeft" xlink:href="#dirArrow" transform="rotate(270) translate(-36 17)" onmousedown="handlePan(-1,0)">
                  <use xlink:href="#rim" fill="#404040">
                        <set attributeName="fill" to="#808080" begin="arrowLeft.mouseover" end="arrowLeft.mouseout"/>
                  </use>
                  <path fill="none" stroke="white" stroke-width="1.5" d="M0,-3.0v7 M-2.5,-0.5L0,-3.0L2.5,-0.5"/>
                </g>
        </g>
        <svg viewBox="0 0 15 15" width="100%" height="30px" preserveAspectRatio="xMaxYMin meet">
         <g id="arrow_out" transform="scale(0.3 0.3)">
          <a xlink:href="structalpaqa_1_1AndersonDirection_abef09c52cdc391877cde2c5825fe65e6_cgraph_org.svg" target="_base">
           <rect id="button" ry="5" rx="5" y="6" x="6" height="38" width="38"
                fill="#f2f5e9" fill-opacity="0.5" stroke="#606060" stroke-width="1.0"/>
           <path id="arrow"
             d="M 11.500037,31.436501 C 11.940474,20.09759 22.043105,11.32322 32.158766,21.979434 L 37.068811,17.246167 C 37.068811,17.246167 37.088388,32 37.088388,32 L 22.160133,31.978069 C 22.160133,31.978069 26.997745,27.140456 26.997745,27.140456 C 18.528582,18.264221 13.291696,25.230495 11.500037,31.436501 z"
             style="fill:#404040;"/>
          </a>
         </g>
        </svg>
</svg>
