<?xml version="1.0" encoding="UTF-8" standalone="no"?>
<!DOCTYPE svg PUBLIC "-//W3C//DTD SVG 1.1//EN"
 "http://www.w3.org/Graphics/SVG/1.1/DTD/svg11.dtd">
<!-- Generated by graphviz version 2.43.0 (0)
 -->
<!-- Title: NewtonTRDirection&lt; Conf &gt;::Params Pages: 1 -->
<svg width="344pt" height="237pt"
 viewBox="0.00 0.00 343.50 237.00" xmlns="http://www.w3.org/2000/svg" xmlns:xlink="http://www.w3.org/1999/xlink">
<g id="graph0" class="graph" transform="scale(1 1) rotate(0) translate(4 233)">
<title>NewtonTRDirection&lt; Conf &gt;::Params</title>
<!-- Node1 -->
<g id="node1" class="node">
<title>Node1</title>
<g id="a_node1"><a xlink:title=" ">
<polygon fill="#999999" stroke="#666666" points="113.5,-0.5 113.5,-68.5 232.5,-68.5 232.5,-0.5 113.5,-0.5"/>
<text text-anchor="start" x="121.5" y="-56.5" font-family="Helvetica,sans-Serif" font-size="10.00">NewtonTRDirection&lt;</text>
<text text-anchor="middle" x="173" y="-45.5" font-family="Helvetica,sans-Serif" font-size="10.00"> Conf &gt;::Params</text>
<polyline fill="none" stroke="#666666" points="113.5,-38.5 232.5,-38.5 "/>
<text text-anchor="middle" x="173" y="-26.5" font-family="Helvetica,sans-Serif" font-size="10.00"> </text>
<polyline fill="none" stroke="#666666" points="113.5,-19.5 232.5,-19.5 "/>
<text text-anchor="middle" x="173" y="-7.5" font-family="Helvetica,sans-Serif" font-size="10.00"> </text>
</a>
</g>
</g>
<!-- Node2 -->
<g id="node2" class="node">
<title>Node2</title>
<g id="a_node2"><a xlink:href="namespacealpaqa.html#namespacealpaqa" target="_top" xlink:title=" ">
<polygon fill="white" stroke="#666666" points="0,-127.5 0,-217.5 170,-217.5 170,-127.5 0,-127.5"/>
<text text-anchor="middle" x="85" y="-205.5" font-family="Helvetica,sans-Serif" font-size="10.00">SteihaugCGParams&lt; config_t &gt;</text>
<polyline fill="none" stroke="#666666" points="0,-198.5 170,-198.5 "/>
<text text-anchor="start" x="8" y="-186.5" font-family="Helvetica,sans-Serif" font-size="10.00">+ tol_scale</text>
<text text-anchor="start" x="8" y="-175.5" font-family="Helvetica,sans-Serif" font-size="10.00">+ tol_scale_root</text>
<text text-anchor="start" x="8" y="-164.5" font-family="Helvetica,sans-Serif" font-size="10.00">+ tol_max</text>
<text text-anchor="start" x="8" y="-153.5" font-family="Helvetica,sans-Serif" font-size="10.00">+ max_iter_factor</text>
<polyline fill="none" stroke="#666666" points="0,-146.5 170,-146.5 "/>
<text text-anchor="middle" x="85" y="-134.5" font-family="Helvetica,sans-Serif" font-size="10.00"> </text>
</a>
</g>
</g>
<!-- Node2&#45;&gt;Node1 -->
<g id="edge1" class="edge">
<title>Node2&#45;&gt;Node1</title>
<path fill="none" stroke="#404040" d="M113.57,-127.34C123.6,-111.84 134.86,-94.45 144.85,-79"/>
<polygon fill="none" stroke="#404040" points="145.02,-78.74 144.92,-71.53 151.54,-68.66 151.64,-75.87 145.02,-78.74"/>
<text text-anchor="middle" x="173.5" y="-90" font-family="Helvetica,sans-Serif" font-size="10.00"> +accelerator</text>
</g>
<!-- Node3 -->
<g id="node3" class="node">
<title>Node3</title>
<g id="a_node3"><a xlink:href="namespacealpaqa.html#namespacealpaqa" target="_top" xlink:title=" ">
<polygon fill="white" stroke="#666666" points="188.5,-116.5 188.5,-228.5 335.5,-228.5 335.5,-116.5 188.5,-116.5"/>
<text text-anchor="start" x="196.5" y="-216.5" font-family="Helvetica,sans-Serif" font-size="10.00">NewtonTRDirectionParams</text>
<text text-anchor="middle" x="262" y="-205.5" font-family="Helvetica,sans-Serif" font-size="10.00">&lt; config_t &gt;</text>
<polyline fill="none" stroke="#666666" points="188.5,-198.5 335.5,-198.5 "/>
<text text-anchor="start" x="196.5" y="-186.5" font-family="Helvetica,sans-Serif" font-size="10.00">+ rescale_on_step_size</text>
<text text-anchor="start" x="196.5" y="-175.5" font-family="Helvetica,sans-Serif" font-size="10.00">_changes</text>
<text text-anchor="start" x="196.5" y="-164.5" font-family="Helvetica,sans-Serif" font-size="10.00">+ hessian_vec_factor</text>
<text text-anchor="start" x="196.5" y="-153.5" font-family="Helvetica,sans-Serif" font-size="10.00">+ finite_diff</text>
<text text-anchor="start" x="196.5" y="-142.5" font-family="Helvetica,sans-Serif" font-size="10.00">+ finite_diff_stepsize</text>
<polyline fill="none" stroke="#666666" points="188.5,-135.5 335.5,-135.5 "/>
<text text-anchor="middle" x="262" y="-123.5" font-family="Helvetica,sans-Serif" font-size="10.00"> </text>
</a>
</g>
</g>
<!-- Node3&#45;&gt;Node1 -->
<g id="edge2" class="edge">
<title>Node3&#45;&gt;Node1</title>
<path fill="none" stroke="#404040" d="M229.81,-116.49C223.72,-106.57 217.29,-96.4 211,-87 209.18,-84.28 207.28,-81.5 205.33,-78.72"/>
<polygon fill="none" stroke="#404040" points="205.16,-78.47 198.42,-75.91 198.19,-68.7 204.93,-71.26 205.16,-78.47"/>
<text text-anchor="middle" x="243.5" y="-90" font-family="Helvetica,sans-Serif" font-size="10.00"> +direction</text>
</g>
</g>
</svg>
