<?xml version="1.0" encoding="UTF-8" standalone="no"?>
<!DOCTYPE svg PUBLIC "-//W3C//DTD SVG 1.1//EN"
 "http://www.w3.org/Graphics/SVG/1.1/DTD/svg11.dtd">
<!-- Generated by graphviz version 2.40.1 (20161225.0304)
 -->
<!-- Title: alloc&#45;check.hpp Pages: 1 -->
<svg width="244pt" height="140pt"
 viewBox="0.00 0.00 243.50 140.00" xmlns="http://www.w3.org/2000/svg" xmlns:xlink="http://www.w3.org/1999/xlink">
<g id="graph0" class="graph" transform="scale(1 1) rotate(0) translate(4 136)">
<title>alloc&#45;check.hpp</title>
<polygon fill="#ffffff" stroke="transparent" points="-4,4 -4,-136 239.5,-136 239.5,4 -4,4"/>
<!-- Node1 -->
<g id="node1" class="node">
<title>Node1</title>
<g id="a_node1"><a xlink:title=" ">
<polygon fill="#bfbfbf" stroke="#000000" points="104.5,-112.5 104.5,-131.5 197.5,-131.5 197.5,-112.5 104.5,-112.5"/>
<text text-anchor="middle" x="151" y="-119.5" font-family="Helvetica,sans-Serif" font-size="10.00" fill="#000000">alloc&#45;check.hpp</text>
</a>
</g>
</g>
<!-- Node2 -->
<g id="node2" class="node">
<title>Node2</title>
<g id="a_node2"><a xlink:href="panoc_8tpp.html" target="_top" xlink:title=" ">
<polygon fill="#ffffff" stroke="#000000" points="74.5,-56.5 74.5,-75.5 139.5,-75.5 139.5,-56.5 74.5,-56.5"/>
<text text-anchor="middle" x="107" y="-63.5" font-family="Helvetica,sans-Serif" font-size="10.00" fill="#000000">panoc.tpp</text>
</a>
</g>
</g>
<!-- Node1&#45;&gt;Node2 -->
<g id="edge1" class="edge">
<title>Node1&#45;&gt;Node2</title>
<path fill="none" stroke="#191970" d="M137.0231,-104.2112C129.5871,-94.7472 120.734,-83.4797 114.5764,-75.6427"/>
<polygon fill="#191970" stroke="#191970" points="134.4054,-106.5447 143.3358,-112.2455 139.9097,-102.22 134.4054,-106.5447"/>
</g>
<!-- Node5 -->
<g id="node5" class="node">
<title>Node5</title>
<g id="a_node5"><a xlink:href="problem_8tpp.html" target="_top" xlink:title=" ">
<polygon fill="#ffffff" stroke="#000000" points="158,-56.5 158,-75.5 234,-75.5 234,-56.5 158,-56.5"/>
<text text-anchor="middle" x="196" y="-63.5" font-family="Helvetica,sans-Serif" font-size="10.00" fill="#000000">problem.tpp</text>
</a>
</g>
</g>
<!-- Node1&#45;&gt;Node5 -->
<g id="edge4" class="edge">
<title>Node1&#45;&gt;Node5</title>
<path fill="none" stroke="#191970" d="M165.2946,-104.2112C172.8996,-94.7472 181.9538,-83.4797 188.2514,-75.6427"/>
<polygon fill="#191970" stroke="#191970" points="162.3741,-102.2581 158.8384,-112.2455 167.8306,-106.6428 162.3741,-102.2581"/>
</g>
<!-- Node3 -->
<g id="node3" class="node">
<title>Node3</title>
<g id="a_node3"><a xlink:href="alm_8cpp.html" target="_top" xlink:title=" ">
<polygon fill="#ffffff" stroke="#000000" points="0,-.5 0,-19.5 56,-19.5 56,-.5 0,-.5"/>
<text text-anchor="middle" x="28" y="-7.5" font-family="Helvetica,sans-Serif" font-size="10.00" fill="#000000">alm.cpp</text>
</a>
</g>
</g>
<!-- Node2&#45;&gt;Node3 -->
<g id="edge2" class="edge">
<title>Node2&#45;&gt;Node3</title>
<path fill="none" stroke="#191970" d="M84.7244,-50.2097C70.8495,-40.3743 53.4485,-28.0394 41.6031,-19.6427"/>
<polygon fill="#191970" stroke="#191970" points="83.0569,-53.3178 93.2393,-56.2455 87.1051,-47.6071 83.0569,-53.3178"/>
</g>
<!-- Node4 -->
<g id="node4" class="node">
<title>Node4</title>
<g id="a_node4"><a xlink:href="panoc_8cpp.html" target="_top" xlink:title=" ">
<polygon fill="#ffffff" stroke="#000000" points="74,-.5 74,-19.5 140,-19.5 140,-.5 74,-.5"/>
<text text-anchor="middle" x="107" y="-7.5" font-family="Helvetica,sans-Serif" font-size="10.00" fill="#000000">panoc.cpp</text>
</a>
</g>
</g>
<!-- Node2&#45;&gt;Node4 -->
<g id="edge3" class="edge">
<title>Node2&#45;&gt;Node4</title>
<path fill="none" stroke="#191970" d="M107,-46.1575C107,-37.155 107,-26.9199 107,-19.6427"/>
<polygon fill="#191970" stroke="#191970" points="103.5001,-46.2455 107,-56.2455 110.5001,-46.2456 103.5001,-46.2455"/>
</g>
<!-- Node6 -->
<g id="node6" class="node">
<title>Node6</title>
<g id="a_node6"><a xlink:href="problem_8cpp.html" target="_top" xlink:title=" ">
<polygon fill="#ffffff" stroke="#000000" points="158.5,-.5 158.5,-19.5 235.5,-19.5 235.5,-.5 158.5,-.5"/>
<text text-anchor="middle" x="197" y="-7.5" font-family="Helvetica,sans-Serif" font-size="10.00" fill="#000000">problem.cpp</text>
</a>
</g>
</g>
<!-- Node5&#45;&gt;Node6 -->
<g id="edge5" class="edge">
<title>Node5&#45;&gt;Node6</title>
<path fill="none" stroke="#191970" d="M196.3543,-46.1575C196.5151,-37.155 196.6979,-26.9199 196.8278,-19.6427"/>
<polygon fill="#191970" stroke="#191970" points="192.8534,-46.1846 196.1742,-56.2455 199.8523,-46.3097 192.8534,-46.1846"/>
</g>
</g>
</svg>
