<?xml version="1.0" encoding="UTF-8" standalone="no"?>
<!DOCTYPE svg PUBLIC "-//W3C//DTD SVG 1.1//EN"
 "http://www.w3.org/Graphics/SVG/1.1/DTD/svg11.dtd">
<!-- Generated by graphviz version 2.40.1 (20161225.0304)
 -->
<!-- Title: alm.hpp Pages: 1 -->
<svg width="390pt" height="196pt"
 viewBox="0.00 0.00 390.00 196.00" xmlns="http://www.w3.org/2000/svg" xmlns:xlink="http://www.w3.org/1999/xlink">
<g id="graph0" class="graph" transform="scale(1 1) rotate(0) translate(4 192)">
<title>alm.hpp</title>
<polygon fill="#ffffff" stroke="transparent" points="-4,4 -4,-192 386,-192 386,4 -4,4"/>
<!-- Node1 -->
<g id="node1" class="node">
<title>Node1</title>
<g id="a_node1"><a xlink:title=" ">
<polygon fill="#bfbfbf" stroke="#000000" points="158,-168.5 158,-187.5 214,-187.5 214,-168.5 158,-168.5"/>
<text text-anchor="middle" x="186" y="-175.5" font-family="Helvetica,sans-Serif" font-size="10.00" fill="#000000">alm.hpp</text>
</a>
</g>
</g>
<!-- Node2 -->
<g id="node2" class="node">
<title>Node2</title>
<g id="a_node2"><a xlink:href="alm-helpers_8tpp.html" target="_top" xlink:title=" ">
<polygon fill="#ffffff" stroke="#000000" points="0,-112.5 0,-131.5 94,-131.5 94,-112.5 0,-112.5"/>
<text text-anchor="middle" x="47" y="-119.5" font-family="Helvetica,sans-Serif" font-size="10.00" fill="#000000">alm&#45;helpers.tpp</text>
</a>
</g>
</g>
<!-- Node1&#45;&gt;Node2 -->
<g id="edge1" class="edge">
<title>Node1&#45;&gt;Node2</title>
<path fill="none" stroke="#191970" d="M152.5379,-164.5189C127.2231,-154.3201 93.0897,-140.5685 70.5831,-131.5011"/>
<polygon fill="#191970" stroke="#191970" points="151.5216,-167.8827 162.105,-168.3733 154.1374,-161.3899 151.5216,-167.8827"/>
</g>
<!-- Node3 -->
<g id="node3" class="node">
<title>Node3</title>
<g id="a_node3"><a xlink:href="alm_8tpp.html" target="_top" xlink:title=" ">
<polygon fill="#ffffff" stroke="#000000" points="57,-56.5 57,-75.5 111,-75.5 111,-56.5 57,-56.5"/>
<text text-anchor="middle" x="84" y="-63.5" font-family="Helvetica,sans-Serif" font-size="10.00" fill="#000000">alm.tpp</text>
</a>
</g>
</g>
<!-- Node1&#45;&gt;Node3 -->
<g id="edge4" class="edge">
<title>Node1&#45;&gt;Node3</title>
<path fill="none" stroke="#191970" d="M169.4111,-161.0011C161.0946,-152.3925 150.9204,-141.7288 142,-132 123.8562,-112.2118 103.246,-88.4371 92.1366,-75.5103"/>
<polygon fill="#191970" stroke="#191970" points="166.9618,-163.5029 176.4371,-168.2433 171.9861,-158.6288 166.9618,-163.5029"/>
</g>
<!-- Node5 -->
<g id="node5" class="node">
<title>Node5</title>
<g id="a_node5"><a xlink:href="alpaqa_8hpp.html" target="_top" xlink:title=" ">
<polygon fill="#ffffff" stroke="#000000" points="150.5,-112.5 150.5,-131.5 221.5,-131.5 221.5,-112.5 150.5,-112.5"/>
<text text-anchor="middle" x="186" y="-119.5" font-family="Helvetica,sans-Serif" font-size="10.00" fill="#000000">alpaqa.hpp</text>
</a>
</g>
</g>
<!-- Node1&#45;&gt;Node5 -->
<g id="edge5" class="edge">
<title>Node1&#45;&gt;Node5</title>
<path fill="none" stroke="#191970" d="M186,-158.1575C186,-149.155 186,-138.9199 186,-131.6427"/>
<polygon fill="#191970" stroke="#191970" points="182.5001,-158.2455 186,-168.2455 189.5001,-158.2456 182.5001,-158.2455"/>
</g>
<!-- Node6 -->
<g id="node6" class="node">
<title>Node6</title>
<g id="a_node6"><a xlink:href="Presentation_2Cpp_2main_8cpp.html" target="_top" xlink:title=" ">
<polygon fill="#ffffff" stroke="#000000" points="240,-112.5 240,-131.5 302,-131.5 302,-112.5 240,-112.5"/>
<text text-anchor="middle" x="271" y="-119.5" font-family="Helvetica,sans-Serif" font-size="10.00" fill="#000000">main.cpp</text>
</a>
</g>
</g>
<!-- Node1&#45;&gt;Node6 -->
<g id="edge6" class="edge">
<title>Node1&#45;&gt;Node6</title>
<path fill="none" stroke="#191970" d="M209.5419,-162.49C224.539,-152.6096 243.4973,-140.1194 256.3638,-131.6427"/>
<polygon fill="#191970" stroke="#191970" points="207.2309,-159.8212 200.8059,-168.2455 211.0821,-165.6666 207.2309,-159.8212"/>
</g>
<!-- Node7 -->
<g id="node7" class="node">
<title>Node7</title>
<g id="a_node7"><a xlink:href="CasADi_2Rosenbrock_2main_8cpp.html" target="_top" xlink:title=" ">
<polygon fill="#ffffff" stroke="#000000" points="320,-112.5 320,-131.5 382,-131.5 382,-112.5 320,-112.5"/>
<text text-anchor="middle" x="351" y="-119.5" font-family="Helvetica,sans-Serif" font-size="10.00" fill="#000000">main.cpp</text>
</a>
</g>
</g>
<!-- Node1&#45;&gt;Node7 -->
<g id="edge7" class="edge">
<title>Node1&#45;&gt;Node7</title>
<path fill="none" stroke="#191970" d="M224.1356,-165.057C254.3325,-154.8084 295.8163,-140.729 323.0056,-131.5011"/>
<polygon fill="#191970" stroke="#191970" points="222.7091,-161.845 214.3645,-168.3733 224.9589,-168.4736 222.7091,-161.845"/>
</g>
<!-- Node2&#45;&gt;Node3 -->
<g id="edge2" class="edge">
<title>Node2&#45;&gt;Node3</title>
<path fill="none" stroke="#191970" d="M59.1376,-103.6296C65.3093,-94.2887 72.5566,-83.3197 77.6289,-75.6427"/>
<polygon fill="#191970" stroke="#191970" points="56.0373,-101.9728 53.4449,-112.2455 61.8777,-105.8316 56.0373,-101.9728"/>
</g>
<!-- Node4 -->
<g id="node4" class="node">
<title>Node4</title>
<g id="a_node4"><a xlink:href="alm_8cpp.html" target="_top" xlink:title=" ">
<polygon fill="#ffffff" stroke="#000000" points="56,-.5 56,-19.5 112,-19.5 112,-.5 56,-.5"/>
<text text-anchor="middle" x="84" y="-7.5" font-family="Helvetica,sans-Serif" font-size="10.00" fill="#000000">alm.cpp</text>
</a>
</g>
</g>
<!-- Node3&#45;&gt;Node4 -->
<g id="edge3" class="edge">
<title>Node3&#45;&gt;Node4</title>
<path fill="none" stroke="#191970" d="M84,-46.1575C84,-37.155 84,-26.9199 84,-19.6427"/>
<polygon fill="#191970" stroke="#191970" points="80.5001,-46.2455 84,-56.2455 87.5001,-46.2456 80.5001,-46.2455"/>
</g>
</g>
</svg>
