<?xml version="1.0" encoding="UTF-8" standalone="no"?>
<!DOCTYPE svg PUBLIC "-//W3C//DTD SVG 1.1//EN"
 "http://www.w3.org/Graphics/SVG/1.1/DTD/svg11.dtd">
<!-- Generated by graphviz version 2.40.1 (20161225.0304)
 -->
<!-- Title: resize Pages: 1 -->
<svg width="253pt" height="78pt"
 viewBox="0.00 0.00 253.00 77.50" xmlns="http://www.w3.org/2000/svg" xmlns:xlink="http://www.w3.org/1999/xlink">
<g id="graph0" class="graph" transform="scale(1 1) rotate(0) translate(4 73.5)">
<title>resize</title>
<polygon fill="#ffffff" stroke="transparent" points="-4,4 -4,-73.5 249,-73.5 249,4 -4,4"/>
<!-- Node1 -->
<g id="node1" class="node">
<title>Node1</title>
<g id="a_node1"><a xlink:title="Re&#45;allocate storage for a problem with a different size.">
<polygon fill="#bfbfbf" stroke="#000000" points="199,-28 199,-47 245,-47 245,-28 199,-28"/>
<text text-anchor="middle" x="222" y="-35" font-family="Helvetica,sans-Serif" font-size="10.00" fill="#000000">resize</text>
</a>
</g>
</g>
<!-- Node2 -->
<g id="node2" class="node">
<title>Node2</title>
<g id="a_node2"><a xlink:href="classalpaqa_1_1LBFGS.html#a728dfcb0d540fc7da341b3352dbe1582" target="_top" xlink:title=" ">
<polygon fill="#ffffff" stroke="#000000" points="58,-50 58,-69 105,-69 105,-50 58,-50"/>
<text text-anchor="middle" x="81.5" y="-57" font-family="Helvetica,sans-Serif" font-size="10.00" fill="#000000">LBFGS</text>
</a>
</g>
</g>
<!-- Node1&#45;&gt;Node2 -->
<g id="edge1" class="edge">
<title>Node1&#45;&gt;Node2</title>
<path fill="none" stroke="#191970" d="M188.761,-42.7047C163.0665,-46.728 128.1259,-52.1992 105.2048,-55.7882"/>
<polygon fill="#191970" stroke="#191970" points="189.4611,-46.1378 198.7993,-41.1329 188.3782,-39.2221 189.4611,-46.1378"/>
</g>
<!-- Node3 -->
<g id="node3" class="node">
<title>Node3</title>
<g id="a_node3"><a xlink:href="structalpaqa_1_1PANOCDirection_3_01LBFGS_3_01Conf_01_4_01_4.html#a784c6c333a060e7e47de50d99e53234b" target="_top" xlink:title=" ">
<polygon fill="#ffffff" stroke="#000000" points="0,-.5 0,-30.5 163,-30.5 163,-.5 0,-.5"/>
<text text-anchor="start" x="8" y="-18.5" font-family="Helvetica,sans-Serif" font-size="10.00" fill="#000000">alpaqa::PANOCDirection</text>
<text text-anchor="middle" x="81.5" y="-7.5" font-family="Helvetica,sans-Serif" font-size="10.00" fill="#000000">&lt; LBFGS&lt; Conf &gt; &gt;::initialize</text>
</a>
</g>
</g>
<!-- Node1&#45;&gt;Node3 -->
<g id="edge2" class="edge">
<title>Node1&#45;&gt;Node3</title>
<path fill="none" stroke="#191970" d="M188.9178,-32.3199C180.97,-31.0754 172.1308,-29.6913 163.0324,-28.2666"/>
<polygon fill="#191970" stroke="#191970" points="188.3782,-35.7779 198.7993,-33.8671 189.4611,-28.8622 188.3782,-35.7779"/>
</g>
</g>
</svg>
