<?xml version="1.0" encoding="UTF-8" standalone="no"?>
<!DOCTYPE svg PUBLIC "-//W3C//DTD SVG 1.1//EN"
 "http://www.w3.org/Graphics/SVG/1.1/DTD/svg11.dtd">
<!-- Generated by graphviz version 2.40.1 (20161225.0304)
 -->
<!-- Title: PANOCSolver&lt; DirectionProviderT &gt; Pages: 1 -->
<svg width="612pt" height="568pt"
 viewBox="0.00 0.00 612.29 568.00" xmlns="http://www.w3.org/2000/svg" xmlns:xlink="http://www.w3.org/1999/xlink">
<g id="graph0" class="graph" transform="scale(1 1) rotate(0) translate(4 564)">
<title>PANOCSolver&lt; DirectionProviderT &gt;</title>
<polygon fill="#ffffff" stroke="transparent" points="-4,4 -4,-564 608.289,-564 608.289,4 -4,4"/>
<!-- Node1 -->
<g id="node1" class="node">
<title>Node1</title>
<g id="a_node1"><a xlink:title="PANOC solver for ALM.">
<polygon fill="#bfbfbf" stroke="#000000" points="278.289,-.5 278.289,-123.5 472.289,-123.5 472.289,-.5 278.289,-.5"/>
<text text-anchor="middle" x="375.289" y="-111.5" font-family="Helvetica,sans-Serif" font-size="10.00" fill="#000000">PANOCSolver&lt; DirectionProviderT &gt;</text>
<polyline fill="none" stroke="#000000" points="278.289,-104.5 472.289,-104.5 "/>
<text text-anchor="start" x="286.289" y="-92.5" font-family="Helvetica,sans-Serif" font-size="10.00" fill="#000000">&#45; progress_cb</text>
<polyline fill="none" stroke="#000000" points="278.289,-85.5 472.289,-85.5 "/>
<text text-anchor="start" x="286.289" y="-73.5" font-family="Helvetica,sans-Serif" font-size="10.00" fill="#000000">+ PANOCSolver()</text>
<text text-anchor="start" x="286.289" y="-62.5" font-family="Helvetica,sans-Serif" font-size="10.00" fill="#000000">+ PANOCSolver()</text>
<text text-anchor="start" x="286.289" y="-51.5" font-family="Helvetica,sans-Serif" font-size="10.00" fill="#000000">+ operator()()</text>
<text text-anchor="start" x="286.289" y="-40.5" font-family="Helvetica,sans-Serif" font-size="10.00" fill="#000000">+ set_progress_callback()</text>
<text text-anchor="start" x="286.289" y="-29.5" font-family="Helvetica,sans-Serif" font-size="10.00" fill="#000000">+ get_name()</text>
<text text-anchor="start" x="286.289" y="-18.5" font-family="Helvetica,sans-Serif" font-size="10.00" fill="#000000">+ stop()</text>
<text text-anchor="start" x="286.289" y="-7.5" font-family="Helvetica,sans-Serif" font-size="10.00" fill="#000000">+ get_params()</text>
</a>
</g>
</g>
<!-- Node2 -->
<g id="node2" class="node">
<title>Node2</title>
<g id="a_node2"><a xlink:href="namespacealpaqa.html#namespacealpaqa" target="_top" xlink:title=" ">
<polygon fill="#ffffff" stroke="#000000" points="130.789,-171.5 130.789,-305.5 295.789,-305.5 295.789,-171.5 130.789,-171.5"/>
<text text-anchor="middle" x="213.289" y="-293.5" font-family="Helvetica,sans-Serif" font-size="10.00" fill="#000000">PANOCParams&lt; config_t &gt;</text>
<polyline fill="none" stroke="#000000" points="130.789,-286.5 295.789,-286.5 "/>
<text text-anchor="start" x="138.789" y="-274.5" font-family="Helvetica,sans-Serif" font-size="10.00" fill="#000000">+ max_iter</text>
<text text-anchor="start" x="138.789" y="-263.5" font-family="Helvetica,sans-Serif" font-size="10.00" fill="#000000">+ stop_crit</text>
<text text-anchor="start" x="138.789" y="-252.5" font-family="Helvetica,sans-Serif" font-size="10.00" fill="#000000">+ max_no_progress</text>
<text text-anchor="start" x="138.789" y="-241.5" font-family="Helvetica,sans-Serif" font-size="10.00" fill="#000000">+ print_interval</text>
<text text-anchor="start" x="138.789" y="-230.5" font-family="Helvetica,sans-Serif" font-size="10.00" fill="#000000">+ update_lipschitz_in</text>
<text text-anchor="start" x="138.789" y="-219.5" font-family="Helvetica,sans-Serif" font-size="10.00" fill="#000000">_linesearch</text>
<text text-anchor="start" x="138.789" y="-208.5" font-family="Helvetica,sans-Serif" font-size="10.00" fill="#000000">+ alternative_linesearch_cond</text>
<text text-anchor="start" x="138.789" y="-197.5" font-family="Helvetica,sans-Serif" font-size="10.00" fill="#000000">+ lbfgs_stepsize</text>
<polyline fill="none" stroke="#000000" points="130.789,-190.5 295.789,-190.5 "/>
<text text-anchor="middle" x="213.289" y="-178.5" font-family="Helvetica,sans-Serif" font-size="10.00" fill="#000000"> </text>
</a>
</g>
</g>
<!-- Node2&#45;&gt;Node1 -->
<g id="edge1" class="edge">
<title>Node2&#45;&gt;Node1</title>
<path fill="none" stroke="#404040" d="M274.9964,-171.2694C286.5807,-158.6483 298.724,-145.4181 310.4017,-132.6952"/>
<polygon fill="none" stroke="#404040" points="310.6935,-132.3773 311.8038,-125.2521 318.8079,-123.5366 317.6976,-130.6617 310.6935,-132.3773"/>
<text text-anchor="middle" x="321.289" y="-145" font-family="Helvetica,sans-Serif" font-size="10.00" fill="#000000"> &#45;params</text>
</g>
<!-- Node3 -->
<g id="node3" class="node">
<title>Node3</title>
<g id="a_node3"><a xlink:href="structalpaqa_1_1LipschitzEstimateParams.html" target="_top" xlink:title=" ">
<polygon fill="#ffffff" stroke="#000000" points="143.789,-353.5 143.789,-421.5 282.789,-421.5 282.789,-353.5 143.789,-353.5"/>
<text text-anchor="start" x="151.789" y="-409.5" font-family="Helvetica,sans-Serif" font-size="10.00" fill="#000000">LipschitzEstimateParams</text>
<text text-anchor="middle" x="213.289" y="-398.5" font-family="Helvetica,sans-Serif" font-size="10.00" fill="#000000">&lt; config_t &gt;</text>
<polyline fill="none" stroke="#000000" points="143.789,-391.5 282.789,-391.5 "/>
<text text-anchor="middle" x="213.289" y="-379.5" font-family="Helvetica,sans-Serif" font-size="10.00" fill="#000000"> </text>
<polyline fill="none" stroke="#000000" points="143.789,-372.5 282.789,-372.5 "/>
<text text-anchor="start" x="151.789" y="-360.5" font-family="Helvetica,sans-Serif" font-size="10.00" fill="#000000">+ verify()</text>
</a>
</g>
</g>
<!-- Node3&#45;&gt;Node2 -->
<g id="edge2" class="edge">
<title>Node3&#45;&gt;Node2</title>
<path fill="none" stroke="#404040" d="M213.289,-353.3164C213.289,-342.5733 213.289,-330.2297 213.289,-317.7079"/>
<polygon fill="none" stroke="#404040" points="213.2891,-317.6944 209.2891,-311.6945 213.289,-305.6944 217.2891,-311.6944 213.2891,-317.6944"/>
<text text-anchor="middle" x="240.789" y="-327" font-family="Helvetica,sans-Serif" font-size="10.00" fill="#000000"> +Lipschitz</text>
</g>
<!-- Node4 -->
<g id="node4" class="node">
<title>Node4</title>
<g id="a_node4"><a xlink:title=" ">
<polygon fill="#ffffff" stroke="#000000" points="3.789,-502.5 3.789,-559.5 42.789,-559.5 42.789,-502.5 3.789,-502.5"/>
<text text-anchor="middle" x="23.289" y="-547.5" font-family="Helvetica,sans-Serif" font-size="10.00" fill="#000000">Conf</text>
<polyline fill="none" stroke="#000000" points="3.789,-540.5 42.789,-540.5 "/>
<text text-anchor="middle" x="23.289" y="-528.5" font-family="Helvetica,sans-Serif" font-size="10.00" fill="#000000"> </text>
<polyline fill="none" stroke="#000000" points="3.789,-521.5 42.789,-521.5 "/>
<text text-anchor="middle" x="23.289" y="-509.5" font-family="Helvetica,sans-Serif" font-size="10.00" fill="#000000"> </text>
</a>
</g>
</g>
<!-- Node4&#45;&gt;Node2 -->
<g id="edge5" class="edge">
<title>Node4&#45;&gt;Node2</title>
<path fill="none" stroke="#404040" d="M13.3336,-502.2675C2.3293,-465.1115 -10.5496,-399.6418 16.289,-353 38.7836,-313.9077 80.3167,-286.9249 119.4682,-269.0194"/>
<polygon fill="none" stroke="#404040" points="119.7109,-268.913 123.5992,-262.84 130.7006,-264.0934 126.8123,-270.1664 119.7109,-268.913"/>
<text text-anchor="middle" x="75.289" y="-407" font-family="Helvetica,sans-Serif" font-size="10.00" fill="#000000"> +L_max</text>
<text text-anchor="middle" x="75.289" y="-396" font-family="Helvetica,sans-Serif" font-size="10.00" fill="#000000">+L_min</text>
<text text-anchor="start" x="16.289" y="-385" font-family="Helvetica,sans-Serif" font-size="10.00" fill="#000000">+quadratic_upperbound</text>
<text text-anchor="middle" x="75.289" y="-374" font-family="Helvetica,sans-Serif" font-size="10.00" fill="#000000">_tolerance_factor</text>
<text text-anchor="middle" x="75.289" y="-363" font-family="Helvetica,sans-Serif" font-size="10.00" fill="#000000">+τ_min</text>
</g>
<!-- Node4&#45;&gt;Node3 -->
<g id="edge3" class="edge">
<title>Node4&#45;&gt;Node3</title>
<path fill="none" stroke="#404040" d="M42.9068,-516.1835C69.9154,-495.7849 119.6113,-458.2514 158.3893,-428.9638"/>
<polygon fill="none" stroke="#404040" points="158.4167,-428.9431 160.7938,-422.1351 167.9924,-421.7109 165.6153,-428.5189 158.4167,-428.9431"/>
<text text-anchor="middle" x="169.789" y="-476" font-family="Helvetica,sans-Serif" font-size="10.00" fill="#000000"> +Lγ_factor</text>
<text text-anchor="middle" x="169.789" y="-465" font-family="Helvetica,sans-Serif" font-size="10.00" fill="#000000">+L₀</text>
<text text-anchor="middle" x="169.789" y="-454" font-family="Helvetica,sans-Serif" font-size="10.00" fill="#000000">+δ</text>
<text text-anchor="middle" x="169.789" y="-443" font-family="Helvetica,sans-Serif" font-size="10.00" fill="#000000">+ε</text>
</g>
<!-- Node5 -->
<g id="node5" class="node">
<title>Node5</title>
<g id="a_node5"><a xlink:title=" ">
<polygon fill="#ffffff" stroke="#000000" points="301.289,-359 301.289,-416 385.289,-416 385.289,-359 301.289,-359"/>
<text text-anchor="middle" x="343.289" y="-404" font-family="Helvetica,sans-Serif" font-size="10.00" fill="#000000">microseconds</text>
<polyline fill="none" stroke="#000000" points="301.289,-397 385.289,-397 "/>
<text text-anchor="middle" x="343.289" y="-385" font-family="Helvetica,sans-Serif" font-size="10.00" fill="#000000"> </text>
<polyline fill="none" stroke="#000000" points="301.289,-378 385.289,-378 "/>
<text text-anchor="middle" x="343.289" y="-366" font-family="Helvetica,sans-Serif" font-size="10.00" fill="#000000"> </text>
</a>
</g>
</g>
<!-- Node5&#45;&gt;Node2 -->
<g id="edge4" class="edge">
<title>Node5&#45;&gt;Node2</title>
<path fill="none" stroke="#404040" d="M318.2237,-358.7713C307.1835,-346.1175 293.6337,-330.5874 279.9842,-314.943"/>
<polygon fill="none" stroke="#404040" points="279.8435,-314.7816 272.8848,-312.8903 271.9543,-305.7394 278.913,-307.6308 279.8435,-314.7816"/>
<text text-anchor="middle" x="324.789" y="-327" font-family="Helvetica,sans-Serif" font-size="10.00" fill="#000000"> +max_time</text>
</g>
<!-- Node6 -->
<g id="node6" class="node">
<title>Node6</title>
<g id="a_node6"><a xlink:href="classalpaqa_1_1AtomicStopSignal.html" target="_top" xlink:title=" ">
<polygon fill="#ffffff" stroke="#000000" points="314.289,-177 314.289,-300 436.289,-300 436.289,-177 314.289,-177"/>
<text text-anchor="middle" x="375.289" y="-288" font-family="Helvetica,sans-Serif" font-size="10.00" fill="#000000">AtomicStopSignal</text>
<polyline fill="none" stroke="#000000" points="314.289,-281 436.289,-281 "/>
<text text-anchor="start" x="322.289" y="-269" font-family="Helvetica,sans-Serif" font-size="10.00" fill="#000000">&#45; stop_flag</text>
<polyline fill="none" stroke="#000000" points="314.289,-262 436.289,-262 "/>
<text text-anchor="start" x="322.289" y="-250" font-family="Helvetica,sans-Serif" font-size="10.00" fill="#000000">+ AtomicStopSignal()</text>
<text text-anchor="start" x="322.289" y="-239" font-family="Helvetica,sans-Serif" font-size="10.00" fill="#000000">+ AtomicStopSignal()</text>
<text text-anchor="start" x="322.289" y="-228" font-family="Helvetica,sans-Serif" font-size="10.00" fill="#000000">+ operator=()</text>
<text text-anchor="start" x="322.289" y="-217" font-family="Helvetica,sans-Serif" font-size="10.00" fill="#000000">+ AtomicStopSignal()</text>
<text text-anchor="start" x="322.289" y="-206" font-family="Helvetica,sans-Serif" font-size="10.00" fill="#000000">+ operator=()</text>
<text text-anchor="start" x="322.289" y="-195" font-family="Helvetica,sans-Serif" font-size="10.00" fill="#000000">+ stop()</text>
<text text-anchor="start" x="322.289" y="-184" font-family="Helvetica,sans-Serif" font-size="10.00" fill="#000000">+ stop_requested()</text>
</a>
</g>
</g>
<!-- Node6&#45;&gt;Node1 -->
<g id="edge6" class="edge">
<title>Node6&#45;&gt;Node1</title>
<path fill="none" stroke="#404040" d="M375.289,-176.7689C375.289,-163.6018 375.289,-149.5665 375.289,-135.9933"/>
<polygon fill="none" stroke="#404040" points="375.2891,-135.6963 371.2891,-129.6963 375.289,-123.6963 379.2891,-129.6962 375.2891,-135.6963"/>
<text text-anchor="middle" x="406.789" y="-145" font-family="Helvetica,sans-Serif" font-size="10.00" fill="#000000"> &#45;stop_signal</text>
</g>
<!-- Node7 -->
<g id="node7" class="node">
<title>Node7</title>
<g id="a_node7"><a xlink:href="structalpaqa_1_1PANOCDirection.html" target="_top" xlink:title=" ">
<polygon fill="#ffffff" stroke="#000000" points="454.289,-182.5 454.289,-294.5 604.289,-294.5 604.289,-182.5 454.289,-182.5"/>
<text text-anchor="start" x="462.289" y="-282.5" font-family="Helvetica,sans-Serif" font-size="10.00" fill="#000000">PANOCDirection&lt; Direction</text>
<text text-anchor="middle" x="529.289" y="-271.5" font-family="Helvetica,sans-Serif" font-size="10.00" fill="#000000">Provider &gt;</text>
<polyline fill="none" stroke="#000000" points="454.289,-264.5 604.289,-264.5 "/>
<text text-anchor="middle" x="529.289" y="-252.5" font-family="Helvetica,sans-Serif" font-size="10.00" fill="#000000"> </text>
<polyline fill="none" stroke="#000000" points="454.289,-245.5 604.289,-245.5 "/>
<text text-anchor="start" x="462.289" y="-233.5" font-family="Helvetica,sans-Serif" font-size="10.00" fill="#000000">+ initialize()</text>
<text text-anchor="start" x="462.289" y="-222.5" font-family="Helvetica,sans-Serif" font-size="10.00" fill="#000000">+ update()</text>
<text text-anchor="start" x="462.289" y="-211.5" font-family="Helvetica,sans-Serif" font-size="10.00" fill="#000000">+ apply()</text>
<text text-anchor="start" x="462.289" y="-200.5" font-family="Helvetica,sans-Serif" font-size="10.00" fill="#000000">+ changed_γ()</text>
<text text-anchor="start" x="462.289" y="-189.5" font-family="Helvetica,sans-Serif" font-size="10.00" fill="#000000">+ reset()</text>
</a>
</g>
</g>
<!-- Node7&#45;&gt;Node1 -->
<g id="edge7" class="edge">
<title>Node7&#45;&gt;Node1</title>
<path fill="none" stroke="#404040" d="M480.1391,-182.169C466.3988,-166.4213 451.2912,-149.1063 436.927,-132.6435"/>
<polygon fill="none" stroke="#404040" points="436.9261,-132.6425 429.9674,-130.7513 429.0367,-123.6004 435.9955,-125.4917 436.9261,-132.6425"/>
<text text-anchor="middle" x="502.289" y="-145" font-family="Helvetica,sans-Serif" font-size="10.00" fill="#000000"> +direction_provider</text>
</g>
</g>
</svg>
