<?xml version="1.0" encoding="UTF-8" standalone="no"?>
<!DOCTYPE svg PUBLIC "-//W3C//DTD SVG 1.1//EN"
 "http://www.w3.org/Graphics/SVG/1.1/DTD/svg11.dtd">
<!-- Generated by graphviz version 2.40.1 (20161225.0304)
 -->
<!-- Title: src Pages: 1 -->
<svg width="308pt" height="183pt"
 viewBox="0.00 0.00 308.00 183.00" xmlns="http://www.w3.org/2000/svg" xmlns:xlink="http://www.w3.org/1999/xlink">
<g id="graph0" class="graph" transform="scale(1 1) rotate(0) translate(4 179)">
<title>src</title>
<polygon fill="#ffffff" stroke="transparent" points="-4,4 -4,-179 304,-179 304,4 -4,4"/>
<g id="clust1" class="cluster">
<title>clusterdir_d4de5a403b28a20448ba1dc11d59998e</title>
<g id="a_clust1"><a xlink:href="dir_d4de5a403b28a20448ba1dc11d59998e.html" target="_top" xlink:title="outer">
<polygon fill="#eef0f6" stroke="#7f7f7f" stroke-dasharray="5,2" points="8,-8 8,-167 94,-167 94,-8 8,-8"/>
<text text-anchor="middle" x="51" y="-155" font-family="Helvetica,sans-Serif" font-size="10.00" fill="#000000">outer</text>
</a>
</g>
</g>
<g id="clust2" class="cluster">
<title>clusterdir_0bae758bdb8407c16598b81b5fd0aef1</title>
<g id="a_clust2"><a xlink:href="dir_0bae758bdb8407c16598b81b5fd0aef1.html" target="_top">
<polygon fill="#eef0f6" stroke="#404040" stroke-width="2" points="16,-16 16,-140 86,-140 86,-16 16,-16"/>
</a>
</g>
</g>
<!-- dir_0bae758bdb8407c16598b81b5fd0aef1 -->
<g id="node1" class="node">
<title>dir_0bae758bdb8407c16598b81b5fd0aef1</title>
<text text-anchor="middle" x="51" y="-111.5" font-family="Helvetica,sans-Serif" font-size="10.00" fill="#000000">src</text>
</g>
<!-- dir_943fc6d28d5c96e4f4e18ec0233667b5 -->
<g id="node2" class="node">
<title>dir_943fc6d28d5c96e4f4e18ec0233667b5</title>
<g id="a_node2"><a xlink:href="dir_943fc6d28d5c96e4f4e18ec0233667b5.html" target="_top" xlink:title="internal">
<polygon fill="#a7b5d1" stroke="#404040" points="78,-60 24,-60 24,-24 78,-24 78,-60"/>
<text text-anchor="middle" x="51" y="-39.5" font-family="Helvetica,sans-Serif" font-size="10.00" fill="#000000">internal</text>
</a>
</g>
</g>
<!-- dir_0bae758bdb8407c16598b81b5fd0aef1&#45;&gt;dir_943fc6d28d5c96e4f4e18ec0233667b5 -->
<g id="edge3" class="edge">
<title>dir_0bae758bdb8407c16598b81b5fd0aef1&#45;&gt;dir_943fc6d28d5c96e4f4e18ec0233667b5</title>
<path fill="none" stroke="#000000" d="M51,-95.8314C51,-88.131 51,-78.9743 51,-70.4166"/>
<polygon fill="#000000" stroke="#000000" points="54.5001,-70.4132 51,-60.4133 47.5001,-70.4133 54.5001,-70.4132"/>
<g id="a_edge3&#45;headlabel"><a xlink:href="dir_000031_000015.html" target="_top" xlink:title="1">
<text text-anchor="middle" x="57.3393" y="-71.5079" font-family="Helvetica,sans-Serif" font-size="10.00" fill="#000000">1</text>
</a>
</g>
</g>
<!-- dir_7ca33c757e81da6d5a059c18204aa256 -->
<g id="node3" class="node">
<title>dir_7ca33c757e81da6d5a059c18204aa256</title>
<g id="a_node3"><a xlink:href="dir_7ca33c757e81da6d5a059c18204aa256.html" target="_top" xlink:title="inner">
<polygon fill="none" stroke="#ff0000" stroke-dasharray="5,2" points="156,-60 102,-60 102,-24 156,-24 156,-60"/>
<text text-anchor="middle" x="129" y="-39.5" font-family="Helvetica,sans-Serif" font-size="10.00" fill="#000000">inner</text>
</a>
</g>
</g>
<!-- dir_0bae758bdb8407c16598b81b5fd0aef1&#45;&gt;dir_7ca33c757e81da6d5a059c18204aa256 -->
<g id="edge1" class="edge">
<title>dir_0bae758bdb8407c16598b81b5fd0aef1&#45;&gt;dir_7ca33c757e81da6d5a059c18204aa256</title>
<path fill="none" stroke="#000000" d="M70.6827,-95.8314C80.1051,-87.1337 91.5401,-76.5783 101.7796,-67.1265"/>
<polygon fill="#000000" stroke="#000000" points="104.3495,-69.5175 109.3236,-60.1628 99.6016,-64.3738 104.3495,-69.5175"/>
<g id="a_edge1&#45;headlabel"><a xlink:href="dir_000031_000011.html" target="_top" xlink:title="1">
<text text-anchor="middle" x="103.634" y="-71.5419" font-family="Helvetica,sans-Serif" font-size="10.00" fill="#000000">1</text>
</a>
</g>
</g>
<!-- dir_8bbace79e24c51d0ab10b19615ca99c8 -->
<g id="node4" class="node">
<title>dir_8bbace79e24c51d0ab10b19615ca99c8</title>
<g id="a_node4"><a xlink:href="dir_8bbace79e24c51d0ab10b19615ca99c8.html" target="_top" xlink:title="config">
<polygon fill="none" stroke="#7f7f7f" points="228,-60 174,-60 174,-24 228,-24 228,-60"/>
<text text-anchor="middle" x="201" y="-39.5" font-family="Helvetica,sans-Serif" font-size="10.00" fill="#000000">config</text>
</a>
</g>
</g>
<!-- dir_0bae758bdb8407c16598b81b5fd0aef1&#45;&gt;dir_8bbace79e24c51d0ab10b19615ca99c8 -->
<g id="edge2" class="edge">
<title>dir_0bae758bdb8407c16598b81b5fd0aef1&#45;&gt;dir_8bbace79e24c51d0ab10b19615ca99c8</title>
<path fill="none" stroke="#000000" d="M78.2576,-101.2874C99.503,-91.3351 129.9489,-76.9785 164.5359,-60.1845"/>
<polygon fill="#000000" stroke="#000000" points="166.4438,-63.1485 173.9037,-55.6253 163.3804,-56.8544 166.4438,-63.1485"/>
<g id="a_edge2&#45;headlabel"><a xlink:href="dir_000031_000006.html" target="_top" xlink:title="1">
<text text-anchor="middle" x="164.4541" y="-64.7745" font-family="Helvetica,sans-Serif" font-size="10.00" fill="#000000">1</text>
</a>
</g>
</g>
<!-- dir_f970061d1d9886b12ba388abbac18d91 -->
<g id="node5" class="node">
<title>dir_f970061d1d9886b12ba388abbac18d91</title>
<g id="a_node5"><a xlink:href="dir_f970061d1d9886b12ba388abbac18d91.html" target="_top" xlink:title="util">
<polygon fill="none" stroke="#ff0000" stroke-dasharray="5,2" points="300,-60 246,-60 246,-24 300,-24 300,-60"/>
<text text-anchor="middle" x="273" y="-39.5" font-family="Helvetica,sans-Serif" font-size="10.00" fill="#000000">util</text>
</a>
</g>
</g>
<!-- dir_0bae758bdb8407c16598b81b5fd0aef1&#45;&gt;dir_f970061d1d9886b12ba388abbac18d91 -->
<g id="edge4" class="edge">
<title>dir_0bae758bdb8407c16598b81b5fd0aef1&#45;&gt;dir_f970061d1d9886b12ba388abbac18d91</title>
<path fill="none" stroke="#000000" d="M78.3077,-107.7202C113.2323,-99.3368 175.5751,-83.1885 236.3689,-59.9213"/>
<polygon fill="#000000" stroke="#000000" points="237.6668,-63.172 245.7153,-56.2819 235.1268,-56.649 237.6668,-63.172"/>
<g id="a_edge4&#45;headlabel"><a xlink:href="dir_000031_000035.html" target="_top" xlink:title="1">
<text text-anchor="middle" x="235.3474" y="-64.622" font-family="Helvetica,sans-Serif" font-size="10.00" fill="#000000">1</text>
</a>
</g>
</g>
</g>
</svg>
