<?xml version="1.0" encoding="UTF-8" standalone="no"?>
<!DOCTYPE svg PUBLIC "-//W3C//DTD SVG 1.1//EN"
 "http://www.w3.org/Graphics/SVG/1.1/DTD/svg11.dtd">
<!-- Generated by graphviz version 2.40.1 (20161225.0304)
 -->
<!-- Title: alpaqa Pages: 1 -->
<svg width="314pt" height="436pt"
 viewBox="0.00 0.00 314.00 436.00" xmlns="http://www.w3.org/2000/svg" xmlns:xlink="http://www.w3.org/1999/xlink">
<g id="graph0" class="graph" transform="scale(1 1) rotate(0) translate(4 432)">
<title>alpaqa</title>
<polygon fill="#ffffff" stroke="transparent" points="-4,4 -4,-432 310,-432 310,4 -4,4"/>
<g id="clust1" class="cluster">
<title>clusterdir_f57d8358e43ebe22b9790021173863ad</title>
<g id="a_clust1"><a xlink:href="dir_f57d8358e43ebe22b9790021173863ad.html" target="_top">
<polygon fill="#eef0f6" stroke="#404040" stroke-width="2" points="8,-8 8,-420 298,-420 298,-8 8,-8"/>
</a>
</g>
</g>
<!-- dir_f57d8358e43ebe22b9790021173863ad -->
<g id="node1" class="node">
<title>dir_f57d8358e43ebe22b9790021173863ad</title>
<text text-anchor="middle" x="179" y="-391.5" font-family="Helvetica,sans-Serif" font-size="10.00" fill="#000000">alpaqa</text>
</g>
<!-- dir_8bbace79e24c51d0ab10b19615ca99c8 -->
<g id="node3" class="node">
<title>dir_8bbace79e24c51d0ab10b19615ca99c8</title>
<g id="a_node3"><a xlink:href="dir_8bbace79e24c51d0ab10b19615ca99c8.html" target="_top" xlink:title="config">
<polygon fill="#a7b5d1" stroke="#404040" points="160,-124 106,-124 106,-88 160,-88 160,-124"/>
<text text-anchor="middle" x="133" y="-103.5" font-family="Helvetica,sans-Serif" font-size="10.00" fill="#000000">config</text>
</a>
</g>
</g>
<!-- dir_f57d8358e43ebe22b9790021173863ad&#45;&gt;dir_8bbace79e24c51d0ab10b19615ca99c8 -->
<g id="edge2" class="edge">
<title>dir_f57d8358e43ebe22b9790021173863ad&#45;&gt;dir_8bbace79e24c51d0ab10b19615ca99c8</title>
<path fill="none" stroke="#000000" d="M195.3316,-375.9072C230.4743,-334.6973 306.3873,-231.8646 259,-160 239.4284,-130.3189 199.7928,-116.89 170.1742,-110.8526"/>
<polygon fill="#000000" stroke="#000000" points="170.6331,-107.3784 160.1648,-109.0109 169.3663,-114.2628 170.6331,-107.3784"/>
<g id="a_edge2&#45;headlabel"><a xlink:href="dir_000002_000006.html" target="_top" xlink:title="12">
<text text-anchor="middle" x="174.6821" y="-102.7364" font-family="Helvetica,sans-Serif" font-size="10.00" fill="#000000">12</text>
</a>
</g>
</g>
<!-- dir_7ca33c757e81da6d5a059c18204aa256 -->
<g id="node4" class="node">
<title>dir_7ca33c757e81da6d5a059c18204aa256</title>
<g id="a_node4"><a xlink:href="dir_7ca33c757e81da6d5a059c18204aa256.html" target="_top" xlink:title="inner">
<polygon fill="#a7b5d1" stroke="#404040" points="206,-268 152,-268 152,-232 206,-232 206,-268"/>
<text text-anchor="middle" x="179" y="-247.5" font-family="Helvetica,sans-Serif" font-size="10.00" fill="#000000">inner</text>
</a>
</g>
</g>
<!-- dir_f57d8358e43ebe22b9790021173863ad&#45;&gt;dir_7ca33c757e81da6d5a059c18204aa256 -->
<g id="edge1" class="edge">
<title>dir_f57d8358e43ebe22b9790021173863ad&#45;&gt;dir_7ca33c757e81da6d5a059c18204aa256</title>
<path fill="none" stroke="#000000" d="M179,-375.7623C179,-351.201 179,-307.2474 179,-278.3541"/>
<polygon fill="#000000" stroke="#000000" points="182.5001,-278.0896 179,-268.0896 175.5001,-278.0897 182.5001,-278.0896"/>
<g id="a_edge1&#45;headlabel"><a xlink:href="dir_000002_000011.html" target="_top" xlink:title="12">
<text text-anchor="middle" x="185.3393" y="-279.1842" font-family="Helvetica,sans-Serif" font-size="10.00" fill="#000000">12</text>
</a>
</g>
</g>
<!-- dir_d4de5a403b28a20448ba1dc11d59998e -->
<g id="node6" class="node">
<title>dir_d4de5a403b28a20448ba1dc11d59998e</title>
<g id="a_node6"><a xlink:href="dir_d4de5a403b28a20448ba1dc11d59998e.html" target="_top" xlink:title="outer">
<polygon fill="#a7b5d1" stroke="#404040" points="160,-340 106,-340 106,-304 160,-304 160,-340"/>
<text text-anchor="middle" x="133" y="-319.5" font-family="Helvetica,sans-Serif" font-size="10.00" fill="#000000">outer</text>
</a>
</g>
</g>
<!-- dir_f57d8358e43ebe22b9790021173863ad&#45;&gt;dir_d4de5a403b28a20448ba1dc11d59998e -->
<g id="edge3" class="edge">
<title>dir_f57d8358e43ebe22b9790021173863ad&#45;&gt;dir_d4de5a403b28a20448ba1dc11d59998e</title>
<path fill="none" stroke="#000000" d="M167.3923,-375.8314C162.2022,-367.7079 155.9768,-357.9637 150.2575,-349.0118"/>
<polygon fill="#000000" stroke="#000000" points="153.0974,-346.9559 144.764,-340.4133 147.1985,-350.7246 153.0974,-346.9559"/>
<g id="a_edge3&#45;headlabel"><a xlink:href="dir_000002_000019.html" target="_top" xlink:title="3">
<text text-anchor="middle" x="157.4253" y="-345.9564" font-family="Helvetica,sans-Serif" font-size="10.00" fill="#000000">3</text>
</a>
</g>
</g>
<!-- dir_147f0ed89bcc5bd41edcb84d86977381 -->
<g id="node2" class="node">
<title>dir_147f0ed89bcc5bd41edcb84d86977381</title>
<g id="a_node2"><a xlink:href="dir_147f0ed89bcc5bd41edcb84d86977381.html" target="_top" xlink:title="accelerators">
<polygon fill="#a7b5d1" stroke="#404040" points="249.5,-196 172.5,-196 172.5,-160 249.5,-160 249.5,-196"/>
<text text-anchor="middle" x="211" y="-175.5" font-family="Helvetica,sans-Serif" font-size="10.00" fill="#000000">accelerators</text>
</a>
</g>
</g>
<!-- dir_147f0ed89bcc5bd41edcb84d86977381&#45;&gt;dir_8bbace79e24c51d0ab10b19615ca99c8 -->
<g id="edge4" class="edge">
<title>dir_147f0ed89bcc5bd41edcb84d86977381&#45;&gt;dir_8bbace79e24c51d0ab10b19615ca99c8</title>
<path fill="none" stroke="#000000" d="M191.3173,-159.8314C181.8949,-151.1337 170.4599,-140.5783 160.2204,-131.1265"/>
<polygon fill="#000000" stroke="#000000" points="162.3984,-128.3738 152.6764,-124.1628 157.6505,-133.5175 162.3984,-128.3738"/>
<g id="a_edge4&#45;headlabel"><a xlink:href="dir_000000_000006.html" target="_top" xlink:title="1">
<text text-anchor="middle" x="166.9656" y="-126.2257" font-family="Helvetica,sans-Serif" font-size="10.00" fill="#000000">1</text>
</a>
</g>
</g>
<!-- dir_f970061d1d9886b12ba388abbac18d91 -->
<g id="node8" class="node">
<title>dir_f970061d1d9886b12ba388abbac18d91</title>
<g id="a_node8"><a xlink:href="dir_f970061d1d9886b12ba388abbac18d91.html" target="_top" xlink:title="util">
<polygon fill="#a7b5d1" stroke="#404040" points="137,-52 83,-52 83,-16 137,-16 137,-52"/>
<text text-anchor="middle" x="110" y="-31.5" font-family="Helvetica,sans-Serif" font-size="10.00" fill="#000000">util</text>
</a>
</g>
</g>
<!-- dir_8bbace79e24c51d0ab10b19615ca99c8&#45;&gt;dir_f970061d1d9886b12ba388abbac18d91 -->
<g id="edge5" class="edge">
<title>dir_8bbace79e24c51d0ab10b19615ca99c8&#45;&gt;dir_f970061d1d9886b12ba388abbac18d91</title>
<path fill="none" stroke="#000000" d="M127.1961,-87.8314C124.7092,-80.0463 121.7469,-70.7729 118.9875,-62.1347"/>
<polygon fill="#000000" stroke="#000000" points="122.2591,-60.874 115.882,-52.4133 115.591,-63.0041 122.2591,-60.874"/>
<g id="a_edge5&#45;headlabel"><a xlink:href="dir_000006_000035.html" target="_top" xlink:title="1">
<text text-anchor="middle" x="126.0574" y="-60.9342" font-family="Helvetica,sans-Serif" font-size="10.00" fill="#000000">1</text>
</a>
</g>
</g>
<!-- dir_7ca33c757e81da6d5a059c18204aa256&#45;&gt;dir_147f0ed89bcc5bd41edcb84d86977381 -->
<g id="edge9" class="edge">
<title>dir_7ca33c757e81da6d5a059c18204aa256&#45;&gt;dir_147f0ed89bcc5bd41edcb84d86977381</title>
<path fill="none" stroke="#000000" d="M187.075,-231.8314C190.6102,-223.8771 194.836,-214.369 198.7456,-205.5723"/>
<polygon fill="#000000" stroke="#000000" points="201.9532,-206.9729 202.8163,-196.4133 195.5565,-204.1299 201.9532,-206.9729"/>
<g id="a_edge9&#45;headlabel"><a xlink:href="dir_000011_000000.html" target="_top" xlink:title="1">
<text text-anchor="middle" x="203.0879" y="-208.9108" font-family="Helvetica,sans-Serif" font-size="10.00" fill="#000000">1</text>
</a>
</g>
</g>
<!-- dir_7ca33c757e81da6d5a059c18204aa256&#45;&gt;dir_8bbace79e24c51d0ab10b19615ca99c8 -->
<g id="edge6" class="edge">
<title>dir_7ca33c757e81da6d5a059c18204aa256&#45;&gt;dir_8bbace79e24c51d0ab10b19615ca99c8</title>
<path fill="none" stroke="#000000" d="M173.1741,-231.7623C165.2935,-207.0928 151.1635,-162.8598 141.9358,-133.9731"/>
<polygon fill="#000000" stroke="#000000" points="145.1557,-132.5503 138.7786,-124.0896 138.4876,-134.6805 145.1557,-132.5503"/>
<g id="a_edge6&#45;headlabel"><a xlink:href="dir_000011_000006.html" target="_top" xlink:title="4">
<text text-anchor="middle" x="148.9541" y="-132.6105" font-family="Helvetica,sans-Serif" font-size="10.00" fill="#000000">4</text>
</a>
</g>
</g>
<!-- dir_bcf20b4a85091921b95793c25b9ee966 -->
<g id="node7" class="node">
<title>dir_bcf20b4a85091921b95793c25b9ee966</title>
<g id="a_node7"><a xlink:href="dir_bcf20b4a85091921b95793c25b9ee966.html" target="_top" xlink:title="problem">
<polygon fill="#a7b5d1" stroke="#404040" points="93.5,-196 36.5,-196 36.5,-160 93.5,-160 93.5,-196"/>
<text text-anchor="middle" x="65" y="-175.5" font-family="Helvetica,sans-Serif" font-size="10.00" fill="#000000">problem</text>
</a>
</g>
</g>
<!-- dir_7ca33c757e81da6d5a059c18204aa256&#45;&gt;dir_bcf20b4a85091921b95793c25b9ee966 -->
<g id="edge7" class="edge">
<title>dir_7ca33c757e81da6d5a059c18204aa256&#45;&gt;dir_bcf20b4a85091921b95793c25b9ee966</title>
<path fill="none" stroke="#000000" d="M151.9836,-232.937C137.2061,-223.6038 118.6698,-211.8967 102.5097,-201.6904"/>
<polygon fill="#000000" stroke="#000000" points="104.1392,-198.5799 93.8153,-196.1992 100.4013,-204.4984 104.1392,-198.5799"/>
<g id="a_edge7&#45;headlabel"><a xlink:href="dir_000011_000024.html" target="_top" xlink:title="3">
<text text-anchor="middle" x="108.6946" y="-195.5988" font-family="Helvetica,sans-Serif" font-size="10.00" fill="#000000">3</text>
</a>
</g>
</g>
<!-- dir_7ca33c757e81da6d5a059c18204aa256&#45;&gt;dir_f970061d1d9886b12ba388abbac18d91 -->
<g id="edge8" class="edge">
<title>dir_7ca33c757e81da6d5a059c18204aa256&#45;&gt;dir_f970061d1d9886b12ba388abbac18d91</title>
<path fill="none" stroke="#000000" d="M206.2142,-239.7297C224.7686,-231.1259 247.9112,-216.8634 259,-196 266.5092,-181.8716 265.7342,-174.5138 259,-160 235.8657,-110.1396 182.2043,-72.8684 146.0041,-52.257"/>
<polygon fill="#000000" stroke="#000000" points="147.6489,-49.1669 137.2061,-47.3782 144.2541,-55.2887 147.6489,-49.1669"/>
<g id="a_edge8&#45;headlabel"><a xlink:href="dir_000011_000035.html" target="_top" xlink:title="4">
<text text-anchor="middle" x="152.1694" y="-45.9271" font-family="Helvetica,sans-Serif" font-size="10.00" fill="#000000">4</text>
</a>
</g>
</g>
<!-- dir_6b78772af78d30cbc031af89b589b90a -->
<g id="node5" class="node">
<title>dir_6b78772af78d30cbc031af89b589b90a</title>
<g id="a_node5"><a xlink:href="dir_6b78772af78d30cbc031af89b589b90a.html" target="_top" xlink:title="interop">
<polygon fill="#a7b5d1" stroke="#404040" points="114,-268 60,-268 60,-232 114,-232 114,-268"/>
<text text-anchor="middle" x="87" y="-247.5" font-family="Helvetica,sans-Serif" font-size="10.00" fill="#000000">interop</text>
</a>
</g>
</g>
<!-- dir_6b78772af78d30cbc031af89b589b90a&#45;&gt;dir_8bbace79e24c51d0ab10b19615ca99c8 -->
<g id="edge10" class="edge">
<title>dir_6b78772af78d30cbc031af89b589b90a&#45;&gt;dir_8bbace79e24c51d0ab10b19615ca99c8</title>
<path fill="none" stroke="#000000" d="M92.8259,-231.7623C100.7065,-207.0928 114.8365,-162.8598 124.0642,-133.9731"/>
<polygon fill="#000000" stroke="#000000" points="127.5124,-134.6805 127.2214,-124.0896 120.8443,-132.5503 127.5124,-134.6805"/>
<g id="a_edge10&#45;headlabel"><a xlink:href="dir_000017_000006.html" target="_top" xlink:title="2">
<text text-anchor="middle" x="129.1232" y="-136.4686" font-family="Helvetica,sans-Serif" font-size="10.00" fill="#000000">2</text>
</a>
</g>
</g>
<!-- dir_6b78772af78d30cbc031af89b589b90a&#45;&gt;dir_bcf20b4a85091921b95793c25b9ee966 -->
<g id="edge11" class="edge">
<title>dir_6b78772af78d30cbc031af89b589b90a&#45;&gt;dir_bcf20b4a85091921b95793c25b9ee966</title>
<path fill="none" stroke="#000000" d="M81.4485,-231.8314C79.0697,-224.0463 76.2362,-214.7729 73.5967,-206.1347"/>
<polygon fill="#000000" stroke="#000000" points="76.8958,-204.954 70.6263,-196.4133 70.2013,-206.9996 76.8958,-204.954"/>
<g id="a_edge11&#45;headlabel"><a xlink:href="dir_000017_000024.html" target="_top" xlink:title="1">
<text text-anchor="middle" x="80.6614" y="-205.062" font-family="Helvetica,sans-Serif" font-size="10.00" fill="#000000">1</text>
</a>
</g>
</g>
<!-- dir_d4de5a403b28a20448ba1dc11d59998e&#45;&gt;dir_8bbace79e24c51d0ab10b19615ca99c8 -->
<g id="edge13" class="edge">
<title>dir_d4de5a403b28a20448ba1dc11d59998e&#45;&gt;dir_8bbace79e24c51d0ab10b19615ca99c8</title>
<path fill="none" stroke="#000000" d="M133,-303.9555C133,-266.3938 133,-179.5541 133,-134.4103"/>
<polygon fill="#000000" stroke="#000000" points="136.5001,-134.145 133,-124.1451 129.5001,-134.1451 136.5001,-134.145"/>
<g id="a_edge13&#45;headlabel"><a xlink:href="dir_000019_000006.html" target="_top" xlink:title="2">
<text text-anchor="middle" x="139.3393" y="-135.2397" font-family="Helvetica,sans-Serif" font-size="10.00" fill="#000000">2</text>
</a>
</g>
</g>
<!-- dir_d4de5a403b28a20448ba1dc11d59998e&#45;&gt;dir_7ca33c757e81da6d5a059c18204aa256 -->
<g id="edge12" class="edge">
<title>dir_d4de5a403b28a20448ba1dc11d59998e&#45;&gt;dir_7ca33c757e81da6d5a059c18204aa256</title>
<path fill="none" stroke="#000000" d="M144.6077,-303.8314C149.7978,-295.7079 156.0232,-285.9637 161.7425,-277.0118"/>
<polygon fill="#000000" stroke="#000000" points="164.8015,-278.7246 167.236,-268.4133 158.9026,-274.9559 164.8015,-278.7246"/>
<g id="a_edge12&#45;headlabel"><a xlink:href="dir_000019_000011.html" target="_top" xlink:title="2">
<text text-anchor="middle" x="165.2589" y="-280.7824" font-family="Helvetica,sans-Serif" font-size="10.00" fill="#000000">2</text>
</a>
</g>
</g>
<!-- dir_d4de5a403b28a20448ba1dc11d59998e&#45;&gt;dir_bcf20b4a85091921b95793c25b9ee966 -->
<g id="edge14" class="edge">
<title>dir_d4de5a403b28a20448ba1dc11d59998e&#45;&gt;dir_bcf20b4a85091921b95793c25b9ee966</title>
<path fill="none" stroke="#000000" d="M105.9325,-312.2673C86.7936,-303.7934 62.5624,-289.4586 51,-268 40.6363,-248.766 45.5377,-224.0773 52.2454,-205.4246"/>
<polygon fill="#000000" stroke="#000000" points="55.5419,-206.6059 55.9589,-196.0192 49.031,-204.0352 55.5419,-206.6059"/>
<g id="a_edge14&#45;headlabel"><a xlink:href="dir_000019_000024.html" target="_top" xlink:title="1">
<text text-anchor="middle" x="56.8627" y="-208.492" font-family="Helvetica,sans-Serif" font-size="10.00" fill="#000000">1</text>
</a>
</g>
</g>
<!-- dir_d4de5a403b28a20448ba1dc11d59998e&#45;&gt;dir_f970061d1d9886b12ba388abbac18d91 -->
<g id="edge15" class="edge">
<title>dir_d4de5a403b28a20448ba1dc11d59998e&#45;&gt;dir_f970061d1d9886b12ba388abbac18d91</title>
<path fill="none" stroke="#000000" d="M105.7224,-313.0525C84.7305,-304.7272 56.7306,-290.2203 41,-268 22.164,-241.3932 30.1255,-228.4491 27,-196 25.466,-180.0737 22.4057,-175.3262 27,-160 38.5557,-121.4513 66.1343,-83.7915 86.3425,-59.8372"/>
<polygon fill="#000000" stroke="#000000" points="88.9989,-62.1162 92.8793,-52.2575 83.6979,-57.5445 88.9989,-62.1162"/>
<g id="a_edge15&#45;headlabel"><a xlink:href="dir_000019_000035.html" target="_top" xlink:title="1">
<text text-anchor="middle" x="88.8014" y="-64.1926" font-family="Helvetica,sans-Serif" font-size="10.00" fill="#000000">1</text>
</a>
</g>
</g>
<!-- dir_bcf20b4a85091921b95793c25b9ee966&#45;&gt;dir_8bbace79e24c51d0ab10b19615ca99c8 -->
<g id="edge16" class="edge">
<title>dir_bcf20b4a85091921b95793c25b9ee966&#45;&gt;dir_8bbace79e24c51d0ab10b19615ca99c8</title>
<path fill="none" stroke="#000000" d="M82.1593,-159.8314C90.1511,-151.3694 99.8038,-141.1489 108.5416,-131.8971"/>
<polygon fill="#000000" stroke="#000000" points="111.288,-134.0866 115.6097,-124.4133 106.1989,-129.2802 111.288,-134.0866"/>
<g id="a_edge16&#45;headlabel"><a xlink:href="dir_000024_000006.html" target="_top" xlink:title="2">
<text text-anchor="middle" x="110.884" y="-136.1494" font-family="Helvetica,sans-Serif" font-size="10.00" fill="#000000">2</text>
</a>
</g>
</g>
<!-- dir_bcf20b4a85091921b95793c25b9ee966&#45;&gt;dir_f970061d1d9886b12ba388abbac18d91 -->
<g id="edge17" class="edge">
<title>dir_bcf20b4a85091921b95793c25b9ee966&#45;&gt;dir_f970061d1d9886b12ba388abbac18d91</title>
<path fill="none" stroke="#000000" d="M70.6993,-159.7623C78.4085,-135.0928 92.2313,-90.8598 101.2584,-61.9731"/>
<polygon fill="#000000" stroke="#000000" points="104.7049,-62.6784 104.347,-52.0896 98.0235,-60.5904 104.7049,-62.6784"/>
<g id="a_edge17&#45;headlabel"><a xlink:href="dir_000024_000035.html" target="_top" xlink:title="2">
<text text-anchor="middle" x="106.3428" y="-64.4563" font-family="Helvetica,sans-Serif" font-size="10.00" fill="#000000">2</text>
</a>
</g>
</g>
</g>
</svg>
