<?xml version="1.0" encoding="UTF-8" standalone="no"?>
<!DOCTYPE svg PUBLIC "-//W3C//DTD SVG 1.1//EN"
 "http://www.w3.org/Graphics/SVG/1.1/DTD/svg11.dtd">
<!-- Generated by graphviz version 2.40.1 (20161225.0304)
 -->
<!-- Title: problem Pages: 1 -->
<svg width="98pt" height="151pt"
 viewBox="0.00 0.00 98.00 151.00" xmlns="http://www.w3.org/2000/svg" xmlns:xlink="http://www.w3.org/1999/xlink">
<g id="graph0" class="graph" transform="scale(1 1) rotate(0) translate(4 147)">
<title>problem</title>
<polygon fill="#ffffff" stroke="transparent" points="-4,4 -4,-147 94,-147 94,4 -4,4"/>
<g id="clust1" class="cluster">
<title>clusterdir_98cdb10f369f6a3b9149e010b312bf5d</title>
<g id="a_clust1"><a xlink:href="dir_98cdb10f369f6a3b9149e010b312bf5d.html" target="_top" xlink:title="src">
<polygon fill="#eef0f6" stroke="#404040" stroke-dasharray="5,2" points="8,-64 8,-135 82,-135 82,-64 8,-64"/>
<text text-anchor="middle" x="45" y="-123" font-family="Helvetica,sans-Serif" font-size="10.00" fill="#000000">src</text>
</a>
</g>
</g>
<!-- dir_517413d9d590667939d6a7c5533e89e8 -->
<g id="node1" class="node">
<title>dir_517413d9d590667939d6a7c5533e89e8</title>
<g id="a_node1"><a xlink:href="dir_517413d9d590667939d6a7c5533e89e8.html" target="_top" xlink:title="problem">
<polygon fill="#eef0f6" stroke="#404040" stroke-width="2" points="73.5,-108 16.5,-108 16.5,-72 73.5,-72 73.5,-108"/>
<text text-anchor="middle" x="45" y="-87.5" font-family="Helvetica,sans-Serif" font-size="10.00" fill="#000000">problem</text>
</a>
</g>
</g>
<!-- dir_f57d8358e43ebe22b9790021173863ad -->
<g id="node2" class="node">
<title>dir_f57d8358e43ebe22b9790021173863ad</title>
<g id="a_node2"><a xlink:href="dir_f57d8358e43ebe22b9790021173863ad.html" target="_top" xlink:title="alpaqa">
<polygon fill="none" stroke="#ff0000" points="72,-36 18,-36 18,0 72,0 72,-36"/>
<text text-anchor="middle" x="45" y="-15.5" font-family="Helvetica,sans-Serif" font-size="10.00" fill="#000000">alpaqa</text>
</a>
</g>
</g>
<!-- dir_517413d9d590667939d6a7c5533e89e8&#45;&gt;dir_f57d8358e43ebe22b9790021173863ad -->
<g id="edge1" class="edge">
<title>dir_517413d9d590667939d6a7c5533e89e8&#45;&gt;dir_f57d8358e43ebe22b9790021173863ad</title>
<path fill="none" stroke="#000000" d="M45,-71.8314C45,-64.131 45,-54.9743 45,-46.4166"/>
<polygon fill="#000000" stroke="#000000" points="48.5001,-46.4132 45,-36.4133 41.5001,-46.4133 48.5001,-46.4132"/>
<g id="a_edge1&#45;headlabel"><a xlink:href="dir_000025_000002.html" target="_top" xlink:title="3">
<text text-anchor="middle" x="51.3393" y="-47.5079" font-family="Helvetica,sans-Serif" font-size="10.00" fill="#000000">3</text>
</a>
</g>
</g>
</g>
</svg>
