<?xml version="1.0" encoding="UTF-8" standalone="no"?>
<!DOCTYPE svg PUBLIC "-//W3C//DTD SVG 1.1//EN"
 "http://www.w3.org/Graphics/SVG/1.1/DTD/svg11.dtd">
<!-- Generated by graphviz version 2.40.1 (20161225.0304)
 -->
<!-- Title: Rosenbrock Pages: 1 -->
<svg width="114pt" height="151pt"
 viewBox="0.00 0.00 114.00 151.00" xmlns="http://www.w3.org/2000/svg" xmlns:xlink="http://www.w3.org/1999/xlink">
<g id="graph0" class="graph" transform="scale(1 1) rotate(0) translate(4 147)">
<title>Rosenbrock</title>
<polygon fill="#ffffff" stroke="transparent" points="-4,4 -4,-147 110,-147 110,4 -4,4"/>
<g id="clust1" class="cluster">
<title>clusterdir_ec1fd854e558f8e9d0ef0dbf180823d9</title>
<g id="a_clust1"><a xlink:href="dir_ec1fd854e558f8e9d0ef0dbf180823d9.html" target="_top" xlink:title="CasADi">
<polygon fill="#eef0f6" stroke="#7f7f7f" stroke-dasharray="5,2" points="8,-64 8,-135 98,-135 98,-64 8,-64"/>
<text text-anchor="middle" x="53" y="-123" font-family="Helvetica,sans-Serif" font-size="10.00" fill="#000000">CasADi</text>
</a>
</g>
</g>
<!-- dir_20e510223ccdd8450615ddc482fb4e64 -->
<g id="node1" class="node">
<title>dir_20e510223ccdd8450615ddc482fb4e64</title>
<g id="a_node1"><a xlink:href="dir_20e510223ccdd8450615ddc482fb4e64.html" target="_top" xlink:title="Rosenbrock">
<polygon fill="#eef0f6" stroke="#404040" stroke-width="2" points="89.5,-108 16.5,-108 16.5,-72 89.5,-72 89.5,-108"/>
<text text-anchor="middle" x="53" y="-87.5" font-family="Helvetica,sans-Serif" font-size="10.00" fill="#000000">Rosenbrock</text>
</a>
</g>
</g>
<!-- dir_f57d8358e43ebe22b9790021173863ad -->
<g id="node2" class="node">
<title>dir_f57d8358e43ebe22b9790021173863ad</title>
<g id="a_node2"><a xlink:href="dir_f57d8358e43ebe22b9790021173863ad.html" target="_top" xlink:title="alpaqa">
<polygon fill="none" stroke="#ff0000" points="80,-36 26,-36 26,0 80,0 80,-36"/>
<text text-anchor="middle" x="53" y="-15.5" font-family="Helvetica,sans-Serif" font-size="10.00" fill="#000000">alpaqa</text>
</a>
</g>
</g>
<!-- dir_20e510223ccdd8450615ddc482fb4e64&#45;&gt;dir_f57d8358e43ebe22b9790021173863ad -->
<g id="edge1" class="edge">
<title>dir_20e510223ccdd8450615ddc482fb4e64&#45;&gt;dir_f57d8358e43ebe22b9790021173863ad</title>
<path fill="none" stroke="#000000" d="M53,-71.8314C53,-64.131 53,-54.9743 53,-46.4166"/>
<polygon fill="#000000" stroke="#000000" points="56.5001,-46.4132 53,-36.4133 49.5001,-46.4133 56.5001,-46.4132"/>
<g id="a_edge1&#45;headlabel"><a xlink:href="dir_000027_000002.html" target="_top" xlink:title="5">
<text text-anchor="middle" x="59.3393" y="-47.5079" font-family="Helvetica,sans-Serif" font-size="10.00" fill="#000000">5</text>
</a>
</g>
</g>
</g>
</svg>
