<?xml version="1.0" encoding="UTF-8" standalone="no"?>
<!DOCTYPE svg PUBLIC "-//W3C//DTD SVG 1.1//EN"
 "http://www.w3.org/Graphics/SVG/1.1/DTD/svg11.dtd">
<!-- Generated by graphviz version 2.40.1 (20161225.0304)
 -->
<!-- Title: interop Pages: 1 -->
<svg width="166pt" height="132pt"
 viewBox="0.00 0.00 166.00 132.00" xmlns="http://www.w3.org/2000/svg" xmlns:xlink="http://www.w3.org/1999/xlink">
<g id="graph0" class="graph" transform="scale(1 1) rotate(0) translate(4 128)">
<title>interop</title>
<polygon fill="#ffffff" stroke="transparent" points="-4,4 -4,-128 162,-128 162,4 -4,4"/>
<g id="clust1" class="cluster">
<title>clusterdir_638d4e148b8ba56ec3da8f6b78eab344</title>
<g id="a_clust1"><a xlink:href="dir_638d4e148b8ba56ec3da8f6b78eab344.html" target="_top">
<polygon fill="#eef0f6" stroke="#404040" stroke-width="2" points="8,-64 8,-116 150,-116 150,-64 8,-64"/>
</a>
</g>
</g>
<!-- dir_638d4e148b8ba56ec3da8f6b78eab344 -->
<g id="node1" class="node">
<title>dir_638d4e148b8ba56ec3da8f6b78eab344</title>
<text text-anchor="middle" x="115" y="-87.5" font-family="Helvetica,sans-Serif" font-size="10.00" fill="#000000">interop</text>
</g>
<!-- dir_42d107173de96885ffce1dcf11323502 -->
<g id="node2" class="node">
<title>dir_42d107173de96885ffce1dcf11323502</title>
<g id="a_node2"><a xlink:href="dir_42d107173de96885ffce1dcf11323502.html" target="_top" xlink:title="casadi">
<polygon fill="#a7b5d1" stroke="#404040" points="70,-108 16,-108 16,-72 70,-72 70,-108"/>
<text text-anchor="middle" x="43" y="-87.5" font-family="Helvetica,sans-Serif" font-size="10.00" fill="#000000">casadi</text>
</a>
</g>
</g>
<!-- dir_f57d8358e43ebe22b9790021173863ad -->
<g id="node3" class="node">
<title>dir_f57d8358e43ebe22b9790021173863ad</title>
<g id="a_node3"><a xlink:href="dir_f57d8358e43ebe22b9790021173863ad.html" target="_top" xlink:title="alpaqa">
<polygon fill="none" stroke="#ff0000" points="70,-36 16,-36 16,0 70,0 70,-36"/>
<text text-anchor="middle" x="43" y="-15.5" font-family="Helvetica,sans-Serif" font-size="10.00" fill="#000000">alpaqa</text>
</a>
</g>
</g>
<!-- dir_42d107173de96885ffce1dcf11323502&#45;&gt;dir_f57d8358e43ebe22b9790021173863ad -->
<g id="edge1" class="edge">
<title>dir_42d107173de96885ffce1dcf11323502&#45;&gt;dir_f57d8358e43ebe22b9790021173863ad</title>
<path fill="none" stroke="#000000" d="M43,-71.8314C43,-64.131 43,-54.9743 43,-46.4166"/>
<polygon fill="#000000" stroke="#000000" points="46.5001,-46.4132 43,-36.4133 39.5001,-46.4133 46.5001,-46.4132"/>
<g id="a_edge1&#45;headlabel"><a xlink:href="dir_000005_000002.html" target="_top" xlink:title="2">
<text text-anchor="middle" x="49.3393" y="-47.5079" font-family="Helvetica,sans-Serif" font-size="10.00" fill="#000000">2</text>
</a>
</g>
</g>
</g>
</svg>
