<?xml version="1.0" encoding="UTF-8" standalone="no"?>
<!DOCTYPE svg PUBLIC "-//W3C//DTD SVG 1.1//EN"
 "http://www.w3.org/Graphics/SVG/1.1/DTD/svg11.dtd">
<!-- Generated by graphviz version 2.40.1 (20161225.0304)
 -->
<!-- Title: Graphical Class Hierarchy Pages: 1 -->
<svg width="489pt" height="78pt"
 viewBox="0.00 0.00 489.00 77.50" xmlns="http://www.w3.org/2000/svg" xmlns:xlink="http://www.w3.org/1999/xlink">
<g id="graph0" class="graph" transform="scale(1 1) rotate(0) translate(4 73.5)">
<title>Graphical Class Hierarchy</title>
<polygon fill="#ffffff" stroke="transparent" points="-4,4 -4,-73.5 485,-73.5 485,4 -4,4"/>
<!-- Node0 -->
<g id="node1" class="node">
<title>Node0</title>
<g id="a_node1"><a xlink:href="classalpaqa_1_1ProblemBase.html" target="_top" xlink:title=" ">
<polygon fill="#ffffff" stroke="#000000" points="0,-28 0,-47 126,-47 126,-28 0,-28"/>
<text text-anchor="middle" x="63" y="-35" font-family="Helvetica,sans-Serif" font-size="10.00" fill="#000000">ProblemBase&lt; Conf &gt;</text>
</a>
</g>
</g>
<!-- Node1 -->
<g id="node2" class="node">
<title>Node1</title>
<g id="a_node2"><a xlink:href="classalpaqa_1_1Problem.html" target="_top" xlink:title=" ">
<polygon fill="#ffffff" stroke="#000000" points="162,-28 162,-47 308,-47 308,-28 162,-28"/>
<text text-anchor="middle" x="235" y="-35" font-family="Helvetica,sans-Serif" font-size="10.00" fill="#000000">Problem&lt; DefaultConfig &gt;</text>
</a>
</g>
</g>
<!-- Node0&#45;&gt;Node1 -->
<g id="edge1" class="edge">
<title>Node0&#45;&gt;Node1</title>
<path fill="none" stroke="#191970" d="M136.2581,-37.5C144.6972,-37.5 153.3037,-37.5 161.7428,-37.5"/>
<polygon fill="#191970" stroke="#191970" points="136.0698,-34.0001 126.0698,-37.5 136.0698,-41.0001 136.0698,-34.0001"/>
</g>
<!-- Node2 -->
<g id="node3" class="node">
<title>Node2</title>
<g id="a_node3"><a xlink:href="classalpaqa_1_1CasADiProblem.html" target="_top" xlink:title=" ">
<polygon fill="#ffffff" stroke="#000000" points="344,-50 344,-69 481,-69 481,-50 344,-50"/>
<text text-anchor="middle" x="412.5" y="-57" font-family="Helvetica,sans-Serif" font-size="10.00" fill="#000000">CasADiProblem&lt; Conf &gt;</text>
</a>
</g>
</g>
<!-- Node1&#45;&gt;Node2 -->
<g id="edge2" class="edge">
<title>Node1&#45;&gt;Node2</title>
<path fill="none" stroke="#191970" d="M318.2014,-47.8123C326.7466,-48.8714 335.3606,-49.9391 343.725,-50.9758"/>
<polygon fill="#191970" stroke="#191970" points="318.5754,-44.3319 308.2208,-46.5753 317.7144,-51.2788 318.5754,-44.3319"/>
</g>
<!-- Node3 -->
<g id="node4" class="node">
<title>Node3</title>
<g id="a_node4"><a xlink:href="classalpaqa_1_1FunctionalProblem.html" target="_top" xlink:title="Problem class that allows specifying the basic functions as C++ std::functions.">
<polygon fill="#ffffff" stroke="#000000" points="355,-.5 355,-30.5 470,-30.5 470,-.5 355,-.5"/>
<text text-anchor="start" x="363" y="-18.5" font-family="Helvetica,sans-Serif" font-size="10.00" fill="#000000">FunctionalProblem&lt;</text>
<text text-anchor="middle" x="412.5" y="-7.5" font-family="Helvetica,sans-Serif" font-size="10.00" fill="#000000"> Conf &gt;</text>
</a>
</g>
</g>
<!-- Node1&#45;&gt;Node3 -->
<g id="edge3" class="edge">
<title>Node1&#45;&gt;Node3</title>
<path fill="none" stroke="#191970" d="M318.5095,-27.1495C330.8207,-25.6236 343.2667,-24.081 354.8957,-22.6397"/>
<polygon fill="#191970" stroke="#191970" points="317.7144,-23.7212 308.2208,-28.4247 318.5754,-30.6681 317.7144,-23.7212"/>
</g>
</g>
</svg>
