<?xml version="1.0" encoding="UTF-8" standalone="no"?>
<!DOCTYPE svg PUBLIC "-//W3C//DTD SVG 1.1//EN"
 "http://www.w3.org/Graphics/SVG/1.1/DTD/svg11.dtd">
<!-- Generated by graphviz version 2.40.1 (20161225.0304)
 -->
<!-- Title: lbfgs.hpp Pages: 1 -->
<svg width="873pt" height="285pt"
 viewBox="0.00 0.00 873.00 285.00" xmlns="http://www.w3.org/2000/svg" xmlns:xlink="http://www.w3.org/1999/xlink">
<g id="graph0" class="graph" transform="scale(1 1) rotate(0) translate(4 281)">
<title>lbfgs.hpp</title>
<polygon fill="#ffffff" stroke="transparent" points="-4,4 -4,-281 869,-281 869,4 -4,4"/>
<!-- Node1 -->
<g id="node1" class="node">
<title>Node1</title>
<g id="a_node1"><a xlink:title=" ">
<polygon fill="#bfbfbf" stroke="#000000" points="454.5,-257.5 454.5,-276.5 516.5,-276.5 516.5,-257.5 454.5,-257.5"/>
<text text-anchor="middle" x="485.5" y="-264.5" font-family="Helvetica,sans-Serif" font-size="10.00" fill="#000000">lbfgs.hpp</text>
</a>
</g>
</g>
<!-- Node2 -->
<g id="node2" class="node">
<title>Node2</title>
<g id="a_node2"><a xlink:href="accelerators_2lbfgs_8hpp.html" target="_top" xlink:title=" ">
<polygon fill="#ffffff" stroke="#000000" points="524,-123.5 524,-153.5 637,-153.5 637,-123.5 524,-123.5"/>
<text text-anchor="start" x="532" y="-141.5" font-family="Helvetica,sans-Serif" font-size="10.00" fill="#000000">alpaqa/accelerators</text>
<text text-anchor="middle" x="580.5" y="-130.5" font-family="Helvetica,sans-Serif" font-size="10.00" fill="#000000">/lbfgs.hpp</text>
</a>
</g>
</g>
<!-- Node1&#45;&gt;Node2 -->
<g id="edge1" class="edge">
<title>Node1&#45;&gt;Node2</title>
<path fill="none" stroke="#191970" d="M492.6404,-257.3416C507.5006,-237.2413 542.1184,-190.4162 563.1928,-161.9103"/>
<polygon fill="#191970" stroke="#191970" points="566.131,-163.8234 569.2615,-153.7016 560.5022,-159.6621 566.131,-163.8234"/>
</g>
<!-- Node14 -->
<g id="node14" class="node">
<title>Node14</title>
<g id="a_node14"><a xlink:href="panoc-direction-update_8hpp.html" target="_top" xlink:title=" ">
<polygon fill="#ffffff" stroke="#000000" points="356.5,-190.5 356.5,-220.5 510.5,-220.5 510.5,-190.5 356.5,-190.5"/>
<text text-anchor="start" x="364.5" y="-208.5" font-family="Helvetica,sans-Serif" font-size="10.00" fill="#000000">alpaqa/inner/directions</text>
<text text-anchor="middle" x="433.5" y="-197.5" font-family="Helvetica,sans-Serif" font-size="10.00" fill="#000000">/panoc&#45;direction&#45;update.hpp</text>
</a>
</g>
</g>
<!-- Node1&#45;&gt;Node14 -->
<g id="edge14" class="edge">
<title>Node1&#45;&gt;Node14</title>
<path fill="none" stroke="#191970" d="M477.375,-257.3906C470.7936,-249.6068 461.2504,-238.3202 452.744,-228.2597"/>
<polygon fill="#191970" stroke="#191970" points="455.35,-225.921 446.2206,-220.5446 450.0046,-230.4407 455.35,-225.921"/>
</g>
<!-- Node3 -->
<g id="node3" class="node">
<title>Node3</title>
<g id="a_node3"><a xlink:href="config_8hpp.html" target="_top" xlink:title=" ">
<polygon fill="#ffffff" stroke="#000000" points="339,-67.5 339,-86.5 474,-86.5 474,-67.5 339,-67.5"/>
<text text-anchor="middle" x="406.5" y="-74.5" font-family="Helvetica,sans-Serif" font-size="10.00" fill="#000000">alpaqa/config/config.hpp</text>
</a>
</g>
</g>
<!-- Node2&#45;&gt;Node3 -->
<g id="edge2" class="edge">
<title>Node2&#45;&gt;Node3</title>
<path fill="none" stroke="#191970" d="M537.9348,-123.4554C508.9025,-113.194 470.8459,-99.7429 443.1591,-89.9571"/>
<polygon fill="#191970" stroke="#191970" points="444.0586,-86.5629 433.4638,-86.5303 441.7259,-93.1628 444.0586,-86.5629"/>
</g>
<!-- Node5 -->
<g id="node5" class="node">
<title>Node5</title>
<g id="a_node5"><a xlink:title=" ">
<polygon fill="#ffffff" stroke="#bfbfbf" points="534.5,-6 534.5,-25 578.5,-25 578.5,-6 534.5,-6"/>
<text text-anchor="middle" x="556.5" y="-13" font-family="Helvetica,sans-Serif" font-size="10.00" fill="#000000">limits</text>
</a>
</g>
</g>
<!-- Node2&#45;&gt;Node5 -->
<g id="edge10" class="edge">
<title>Node2&#45;&gt;Node5</title>
<path fill="none" stroke="#191970" d="M573.0551,-123.118C568.5712,-113.0833 563.2189,-99.5618 560.5,-87 556.806,-69.9332 555.9614,-50.0713 555.9514,-35.6187"/>
<polygon fill="#191970" stroke="#191970" points="559.4546,-35.3887 556.0839,-25.3444 552.4552,-35.2984 559.4546,-35.3887"/>
</g>
<!-- Node8 -->
<g id="node8" class="node">
<title>Node8</title>
<g id="a_node8"><a xlink:href="export_8hpp.html" target="_top" xlink:title=" ">
<polygon fill="#ffffff" stroke="#000000" points="569,-67.5 569,-86.5 674,-86.5 674,-67.5 569,-67.5"/>
<text text-anchor="middle" x="621.5" y="-74.5" font-family="Helvetica,sans-Serif" font-size="10.00" fill="#000000">alpaqa/export.hpp</text>
</a>
</g>
</g>
<!-- Node2&#45;&gt;Node8 -->
<g id="edge7" class="edge">
<title>Node2&#45;&gt;Node8</title>
<path fill="none" stroke="#191970" d="M590.6348,-123.2977C596.2668,-114.8498 603.3151,-104.2773 609.254,-95.369"/>
<polygon fill="#191970" stroke="#191970" points="612.3005,-97.1089 614.9354,-86.8469 606.4762,-93.226 612.3005,-97.1089"/>
</g>
<!-- Node10 -->
<g id="node10" class="node">
<title>Node10</title>
<g id="a_node10"><a xlink:title=" ">
<polygon fill="#ffffff" stroke="#bfbfbf" points="382,-6 382,-25 429,-25 429,-6 382,-6"/>
<text text-anchor="middle" x="405.5" y="-13" font-family="Helvetica,sans-Serif" font-size="10.00" fill="#000000">cmath</text>
</a>
</g>
</g>
<!-- Node2&#45;&gt;Node10 -->
<g id="edge9" class="edge">
<title>Node2&#45;&gt;Node10</title>
<path fill="none" stroke="#191970" d="M560.4029,-123.4678C540.7138,-108.8288 509.7765,-86.0603 482.5,-67 464.5374,-54.4481 443.8823,-40.668 428.4897,-30.5232"/>
<polygon fill="#191970" stroke="#191970" points="430.3743,-27.5735 420.095,-25.0068 426.5301,-33.4235 430.3743,-27.5735"/>
</g>
<!-- Node11 -->
<g id="node11" class="node">
<title>Node11</title>
<g id="a_node11"><a xlink:title=" ">
<polygon fill="#ffffff" stroke="#bfbfbf" points="692.5,-67.5 692.5,-86.5 736.5,-86.5 736.5,-67.5 692.5,-67.5"/>
<text text-anchor="middle" x="714.5" y="-74.5" font-family="Helvetica,sans-Serif" font-size="10.00" fill="#000000">string</text>
</a>
</g>
</g>
<!-- Node2&#45;&gt;Node11 -->
<g id="edge11" class="edge">
<title>Node2&#45;&gt;Node11</title>
<path fill="none" stroke="#191970" d="M613.2801,-123.4554C635.05,-113.464 663.4086,-100.4487 684.5686,-90.7372"/>
<polygon fill="#191970" stroke="#191970" points="686.1062,-93.8826 693.7348,-86.5303 683.1863,-87.5206 686.1062,-93.8826"/>
</g>
<!-- Node12 -->
<g id="node12" class="node">
<title>Node12</title>
<g id="a_node12"><a xlink:title=" ">
<polygon fill="#ffffff" stroke="#bfbfbf" points="755,-67.5 755,-86.5 800,-86.5 800,-67.5 755,-67.5"/>
<text text-anchor="middle" x="777.5" y="-74.5" font-family="Helvetica,sans-Serif" font-size="10.00" fill="#000000">utility</text>
</a>
</g>
</g>
<!-- Node2&#45;&gt;Node12 -->
<g id="edge12" class="edge">
<title>Node2&#45;&gt;Node12</title>
<path fill="none" stroke="#191970" d="M628.8745,-123.4061C659.5779,-113.8249 700.399,-101.0843 745.1645,-87.1041"/>
<polygon fill="#191970" stroke="#191970" points="746.2728,-90.4248 754.7747,-84.1027 744.186,-83.743 746.2728,-90.4248"/>
</g>
<!-- Node13 -->
<g id="node13" class="node">
<title>Node13</title>
<g id="a_node13"><a xlink:title=" ">
<polygon fill="#ffffff" stroke="#bfbfbf" points="818,-67.5 818,-86.5 865,-86.5 865,-67.5 818,-67.5"/>
<text text-anchor="middle" x="841.5" y="-74.5" font-family="Helvetica,sans-Serif" font-size="10.00" fill="#000000">vector</text>
</a>
</g>
</g>
<!-- Node2&#45;&gt;Node13 -->
<g id="edge13" class="edge">
<title>Node2&#45;&gt;Node13</title>
<path fill="none" stroke="#191970" d="M637.2802,-127.0781C681.5403,-117.8682 744.7132,-104.0542 808.0452,-87.2544"/>
<polygon fill="#191970" stroke="#191970" points="809.0426,-90.6107 817.7974,-84.6437 807.2324,-83.8488 809.0426,-90.6107"/>
</g>
<!-- Node4 -->
<g id="node4" class="node">
<title>Node4</title>
<g id="a_node4"><a xlink:href="quadmath_8hpp.html" target="_top" xlink:title=" ">
<polygon fill="#ffffff" stroke="#000000" points="156,-.5 156,-30.5 277,-30.5 277,-.5 156,-.5"/>
<text text-anchor="start" x="164" y="-18.5" font-family="Helvetica,sans-Serif" font-size="10.00" fill="#000000">alpaqa/util/quadmath</text>
<text text-anchor="middle" x="216.5" y="-7.5" font-family="Helvetica,sans-Serif" font-size="10.00" fill="#000000">/quadmath.hpp</text>
</a>
</g>
</g>
<!-- Node3&#45;&gt;Node4 -->
<g id="edge3" class="edge">
<title>Node3&#45;&gt;Node4</title>
<path fill="none" stroke="#191970" d="M376.8125,-67.3906C349.0745,-58.4123 306.9385,-44.7735 272.8253,-33.7316"/>
<polygon fill="#191970" stroke="#191970" points="273.5711,-30.2943 262.9792,-30.5446 271.4154,-36.9541 273.5711,-30.2943"/>
</g>
<!-- Node3&#45;&gt;Node5 -->
<g id="edge4" class="edge">
<title>Node3&#45;&gt;Node5</title>
<path fill="none" stroke="#191970" d="M432.9896,-67.3602C457.0667,-58.4364 493.4641,-44.5405 524.5,-31 525.6776,-30.4863 526.8752,-29.9536 528.0817,-29.4085"/>
<polygon fill="#191970" stroke="#191970" points="529.7436,-32.4953 537.3242,-25.0936 526.7824,-26.1525 529.7436,-32.4953"/>
</g>
<!-- Node6 -->
<g id="node6" class="node">
<title>Node6</title>
<g id="a_node6"><a xlink:title=" ">
<polygon fill="#ffffff" stroke="#bfbfbf" points="295,-6 295,-25 364,-25 364,-6 295,-6"/>
<text text-anchor="middle" x="329.5" y="-13" font-family="Helvetica,sans-Serif" font-size="10.00" fill="#000000">type_traits</text>
</a>
</g>
</g>
<!-- Node3&#45;&gt;Node6 -->
<g id="edge5" class="edge">
<title>Node3&#45;&gt;Node6</title>
<path fill="none" stroke="#191970" d="M394.4688,-67.3906C382.4893,-57.8227 363.8834,-42.9621 349.6475,-31.5919"/>
<polygon fill="#191970" stroke="#191970" points="351.4447,-28.5479 341.4468,-25.0419 347.0761,-34.0175 351.4447,-28.5479"/>
</g>
<!-- Node7 -->
<g id="node7" class="node">
<title>Node7</title>
<g id="a_node7"><a xlink:title=" ">
<polygon fill="#ffffff" stroke="#bfbfbf" points="447,-6 447,-25 516,-25 516,-6 447,-6"/>
<text text-anchor="middle" x="481.5" y="-13" font-family="Helvetica,sans-Serif" font-size="10.00" fill="#000000">Eigen/Core</text>
</a>
</g>
</g>
<!-- Node3&#45;&gt;Node7 -->
<g id="edge6" class="edge">
<title>Node3&#45;&gt;Node7</title>
<path fill="none" stroke="#191970" d="M418.2188,-67.3906C429.8188,-57.8786 447.7979,-43.1357 461.6321,-31.7917"/>
<polygon fill="#191970" stroke="#191970" points="464.1026,-34.2921 469.616,-25.2449 459.664,-28.8792 464.1026,-34.2921"/>
</g>
<!-- Node9 -->
<g id="node9" class="node">
<title>Node9</title>
<g id="a_node9"><a xlink:title=" ">
<polygon fill="#ffffff" stroke="#bfbfbf" points="597,-6 597,-25 690,-25 690,-6 597,-6"/>
<text text-anchor="middle" x="643.5" y="-13" font-family="Helvetica,sans-Serif" font-size="10.00" fill="#000000">alpaqa/export.h</text>
</a>
</g>
</g>
<!-- Node8&#45;&gt;Node9 -->
<g id="edge8" class="edge">
<title>Node8&#45;&gt;Node9</title>
<path fill="none" stroke="#191970" d="M624.9375,-67.3906C628.0513,-58.6862 632.732,-45.6015 636.614,-34.7494"/>
<polygon fill="#191970" stroke="#191970" points="639.9412,-35.8394 640.014,-25.2449 633.3503,-33.4817 639.9412,-35.8394"/>
</g>
<!-- Node14&#45;&gt;Node3 -->
<g id="edge15" class="edge">
<title>Node14&#45;&gt;Node3</title>
<path fill="none" stroke="#191970" d="M430.2967,-190.2548C425.4051,-166.9744 416.0731,-122.5607 410.6628,-96.8117"/>
<polygon fill="#191970" stroke="#191970" points="414.0272,-95.8024 408.5457,-86.7358 407.1768,-97.2418 414.0272,-95.8024"/>
</g>
<!-- Node15 -->
<g id="node15" class="node">
<title>Node15</title>
<g id="a_node15"><a xlink:href="box_8hpp.html" target="_top" xlink:title=" ">
<polygon fill="#ffffff" stroke="#000000" points="270,-129 270,-148 405,-148 405,-129 270,-129"/>
<text text-anchor="middle" x="337.5" y="-136" font-family="Helvetica,sans-Serif" font-size="10.00" fill="#000000">alpaqa/problem/box.hpp</text>
</a>
</g>
</g>
<!-- Node14&#45;&gt;Node15 -->
<g id="edge16" class="edge">
<title>Node14&#45;&gt;Node15</title>
<path fill="none" stroke="#191970" d="M411.7161,-190.2967C396.178,-179.4524 375.3529,-164.9182 359.7176,-154.006"/>
<polygon fill="#191970" stroke="#191970" points="361.3942,-150.908 351.1907,-148.055 357.3879,-156.6483 361.3942,-150.908"/>
</g>
<!-- Node15&#45;&gt;Node3 -->
<g id="edge17" class="edge">
<title>Node15&#45;&gt;Node3</title>
<path fill="none" stroke="#191970" d="M348.2813,-128.8906C358.8526,-119.4683 375.1825,-104.9134 387.8603,-93.6137"/>
<polygon fill="#191970" stroke="#191970" points="390.4304,-96.0114 395.5667,-86.7449 385.7728,-90.7858 390.4304,-96.0114"/>
</g>
<!-- Node16 -->
<g id="node16" class="node">
<title>Node16</title>
<g id="a_node16"><a xlink:href="float_8hpp.html" target="_top" xlink:title=" ">
<polygon fill="#ffffff" stroke="#000000" points="190.5,-67.5 190.5,-86.5 304.5,-86.5 304.5,-67.5 190.5,-67.5"/>
<text text-anchor="middle" x="247.5" y="-74.5" font-family="Helvetica,sans-Serif" font-size="10.00" fill="#000000">alpaqa/util/float.hpp</text>
</a>
</g>
</g>
<!-- Node15&#45;&gt;Node16 -->
<g id="edge18" class="edge">
<title>Node15&#45;&gt;Node16</title>
<path fill="none" stroke="#191970" d="M323.4375,-128.8906C309.1714,-119.1421 286.865,-103.8994 270.1128,-92.4521"/>
<polygon fill="#191970" stroke="#191970" points="271.6949,-89.2941 261.4638,-86.5419 267.7455,-95.0736 271.6949,-89.2941"/>
</g>
<!-- Node16&#45;&gt;Node4 -->
<g id="edge19" class="edge">
<title>Node16&#45;&gt;Node4</title>
<path fill="none" stroke="#191970" d="M242.6563,-67.3906C238.9269,-59.9922 233.6025,-49.4291 228.7298,-39.7623"/>
<polygon fill="#191970" stroke="#191970" points="231.7101,-37.8989 224.0835,-30.5446 225.4593,-41.0497 231.7101,-37.8989"/>
</g>
<!-- Node16&#45;&gt;Node6 -->
<g id="edge23" class="edge">
<title>Node16&#45;&gt;Node6</title>
<path fill="none" stroke="#191970" d="M260.3125,-67.3906C273.1901,-57.7324 293.2584,-42.6812 308.472,-31.271"/>
<polygon fill="#191970" stroke="#191970" points="310.8775,-33.8419 316.7775,-25.0419 306.6774,-28.2419 310.8775,-33.8419"/>
</g>
<!-- Node16&#45;&gt;Node10 -->
<g id="edge20" class="edge">
<title>Node16&#45;&gt;Node10</title>
<path fill="none" stroke="#191970" d="M275.5705,-67.4514C301.0823,-58.589 339.6428,-44.732 372.5,-31 373.8505,-30.4356 375.2264,-29.8466 376.6119,-29.2422"/>
<polygon fill="#191970" stroke="#191970" points="378.0574,-32.4299 385.731,-25.1247 375.1767,-26.0501 378.0574,-32.4299"/>
</g>
<!-- Node17 -->
<g id="node17" class="node">
<title>Node17</title>
<g id="a_node17"><a xlink:title=" ">
<polygon fill="#ffffff" stroke="#bfbfbf" points="0,-6 0,-25 59,-25 59,-6 0,-6"/>
<text text-anchor="middle" x="29.5" y="-13" font-family="Helvetica,sans-Serif" font-size="10.00" fill="#000000">complex</text>
</a>
</g>
</g>
<!-- Node16&#45;&gt;Node17 -->
<g id="edge21" class="edge">
<title>Node16&#45;&gt;Node17</title>
<path fill="none" stroke="#191970" d="M204.0186,-67.4547C167.4945,-59.0498 114.1098,-45.8577 68.5,-31 66.2204,-30.2574 63.8824,-29.4496 61.5388,-28.6056"/>
<polygon fill="#191970" stroke="#191970" points="62.5991,-25.2649 52.0074,-25.007 60.1265,-31.8137 62.5991,-25.2649"/>
</g>
<!-- Node18 -->
<g id="node18" class="node">
<title>Node18</title>
<g id="a_node18"><a xlink:title=" ">
<polygon fill="#ffffff" stroke="#bfbfbf" points="77.5,-6 77.5,-25 137.5,-25 137.5,-6 77.5,-6"/>
<text text-anchor="middle" x="107.5" y="-13" font-family="Helvetica,sans-Serif" font-size="10.00" fill="#000000">concepts</text>
</a>
</g>
</g>
<!-- Node16&#45;&gt;Node18 -->
<g id="edge22" class="edge">
<title>Node16&#45;&gt;Node18</title>
<path fill="none" stroke="#191970" d="M225.625,-67.3906C202.2004,-57.1005 164.8404,-40.6888 138.4159,-29.0809"/>
<polygon fill="#191970" stroke="#191970" points="139.7846,-25.8594 129.2214,-25.0419 136.9693,-32.2683 139.7846,-25.8594"/>
</g>
</g>
</svg>
