<?xml version="1.0" encoding="UTF-8" standalone="no"?>
<!DOCTYPE svg PUBLIC "-//W3C//DTD SVG 1.1//EN"
 "http://www.w3.org/Graphics/SVG/1.1/DTD/svg11.dtd">
<!-- Generated by graphviz version 2.40.1 (20161225.0304)
 -->
<!-- Title: panoc&#45;direction&#45;update.hpp Pages: 1 -->
<svg width="587pt" height="207pt"
 viewBox="0.00 0.00 586.50 207.00" xmlns="http://www.w3.org/2000/svg" xmlns:xlink="http://www.w3.org/1999/xlink">
<g id="graph0" class="graph" transform="scale(1 1) rotate(0) translate(4 203)">
<title>panoc&#45;direction&#45;update.hpp</title>
<polygon fill="#ffffff" stroke="transparent" points="-4,4 -4,-203 582.5,-203 582.5,4 -4,4"/>
<!-- Node1 -->
<g id="node1" class="node">
<title>Node1</title>
<g id="a_node1"><a xlink:title=" ">
<polygon fill="#bfbfbf" stroke="#000000" points="245,-179.5 245,-198.5 396,-198.5 396,-179.5 245,-179.5"/>
<text text-anchor="middle" x="320.5" y="-186.5" font-family="Helvetica,sans-Serif" font-size="10.00" fill="#000000">panoc&#45;direction&#45;update.hpp</text>
</a>
</g>
</g>
<!-- Node2 -->
<g id="node2" class="node">
<title>Node2</title>
<g id="a_node2"><a xlink:href="config_8hpp.html" target="_top" xlink:title=" ">
<polygon fill="#ffffff" stroke="#000000" points="301,-67.5 301,-86.5 436,-86.5 436,-67.5 301,-67.5"/>
<text text-anchor="middle" x="368.5" y="-74.5" font-family="Helvetica,sans-Serif" font-size="10.00" fill="#000000">alpaqa/config/config.hpp</text>
</a>
</g>
</g>
<!-- Node1&#45;&gt;Node2 -->
<g id="edge1" class="edge">
<title>Node1&#45;&gt;Node2</title>
<path fill="none" stroke="#191970" d="M327.8106,-179.2298C334.2667,-170.2183 343.5532,-156.2668 349.5,-143 356.2062,-128.0392 361.1897,-110.1095 364.3664,-96.7161"/>
<polygon fill="#191970" stroke="#191970" points="367.8401,-97.2203 366.6081,-86.6973 361.009,-95.6918 367.8401,-97.2203"/>
</g>
<!-- Node7 -->
<g id="node7" class="node">
<title>Node7</title>
<g id="a_node7"><a xlink:href="box_8hpp.html" target="_top" xlink:title=" ">
<polygon fill="#ffffff" stroke="#000000" points="205,-123.5 205,-142.5 340,-142.5 340,-123.5 205,-123.5"/>
<text text-anchor="middle" x="272.5" y="-130.5" font-family="Helvetica,sans-Serif" font-size="10.00" fill="#000000">alpaqa/problem/box.hpp</text>
</a>
</g>
</g>
<!-- Node1&#45;&gt;Node7 -->
<g id="edge6" class="edge">
<title>Node1&#45;&gt;Node7</title>
<path fill="none" stroke="#191970" d="M312.139,-179.2455C305.325,-171.2958 295.5319,-159.8706 287.3848,-150.3656"/>
<polygon fill="#191970" stroke="#191970" points="289.9305,-147.9575 280.7651,-142.6427 284.6157,-152.513 289.9305,-147.9575"/>
</g>
<!-- Node3 -->
<g id="node3" class="node">
<title>Node3</title>
<g id="a_node3"><a xlink:href="quadmath_8hpp.html" target="_top" xlink:title=" ">
<polygon fill="#ffffff" stroke="#000000" points="308,-.5 308,-30.5 429,-30.5 429,-.5 308,-.5"/>
<text text-anchor="start" x="316" y="-18.5" font-family="Helvetica,sans-Serif" font-size="10.00" fill="#000000">alpaqa/util/quadmath</text>
<text text-anchor="middle" x="368.5" y="-7.5" font-family="Helvetica,sans-Serif" font-size="10.00" fill="#000000">/quadmath.hpp</text>
</a>
</g>
</g>
<!-- Node2&#45;&gt;Node3 -->
<g id="edge2" class="edge">
<title>Node2&#45;&gt;Node3</title>
<path fill="none" stroke="#191970" d="M368.5,-67.3906C368.5,-60.2234 368.5,-50.0862 368.5,-40.671"/>
<polygon fill="#191970" stroke="#191970" points="372.0001,-40.5446 368.5,-30.5446 365.0001,-40.5446 372.0001,-40.5446"/>
</g>
<!-- Node4 -->
<g id="node4" class="node">
<title>Node4</title>
<g id="a_node4"><a xlink:title=" ">
<polygon fill="#ffffff" stroke="#bfbfbf" points="534.5,-6 534.5,-25 578.5,-25 578.5,-6 534.5,-6"/>
<text text-anchor="middle" x="556.5" y="-13" font-family="Helvetica,sans-Serif" font-size="10.00" fill="#000000">limits</text>
</a>
</g>
</g>
<!-- Node2&#45;&gt;Node4 -->
<g id="edge3" class="edge">
<title>Node2&#45;&gt;Node4</title>
<path fill="none" stroke="#191970" d="M408.1873,-67.4703C440.3274,-59.2557 486.507,-46.3186 525.5,-31 526.8651,-30.4637 528.2513,-29.889 529.6422,-29.2881"/>
<polygon fill="#191970" stroke="#191970" points="531.1225,-32.4597 538.7157,-25.071 528.1722,-26.1118 531.1225,-32.4597"/>
</g>
<!-- Node5 -->
<g id="node5" class="node">
<title>Node5</title>
<g id="a_node5"><a xlink:title=" ">
<polygon fill="#ffffff" stroke="#bfbfbf" points="221,-6 221,-25 290,-25 290,-6 221,-6"/>
<text text-anchor="middle" x="255.5" y="-13" font-family="Helvetica,sans-Serif" font-size="10.00" fill="#000000">type_traits</text>
</a>
</g>
</g>
<!-- Node2&#45;&gt;Node5 -->
<g id="edge4" class="edge">
<title>Node2&#45;&gt;Node5</title>
<path fill="none" stroke="#191970" d="M350.8438,-67.3906C332.3514,-57.3262 303.099,-41.4057 281.8692,-29.8514"/>
<polygon fill="#191970" stroke="#191970" points="283.4888,-26.7481 273.0323,-25.0419 280.1425,-32.8965 283.4888,-26.7481"/>
</g>
<!-- Node6 -->
<g id="node6" class="node">
<title>Node6</title>
<g id="a_node6"><a xlink:title=" ">
<polygon fill="#ffffff" stroke="#bfbfbf" points="447,-6 447,-25 516,-25 516,-6 447,-6"/>
<text text-anchor="middle" x="481.5" y="-13" font-family="Helvetica,sans-Serif" font-size="10.00" fill="#000000">Eigen/Core</text>
</a>
</g>
</g>
<!-- Node2&#45;&gt;Node6 -->
<g id="edge5" class="edge">
<title>Node2&#45;&gt;Node6</title>
<path fill="none" stroke="#191970" d="M386.1563,-67.3906C404.6486,-57.3262 433.901,-41.4057 455.1308,-29.8514"/>
<polygon fill="#191970" stroke="#191970" points="456.8575,-32.8965 463.9677,-25.0419 453.5112,-26.7481 456.8575,-32.8965"/>
</g>
<!-- Node7&#45;&gt;Node2 -->
<g id="edge7" class="edge">
<title>Node7&#45;&gt;Node2</title>
<path fill="none" stroke="#191970" d="M289.2219,-123.2455C304.0889,-114.5731 326.0466,-101.7645 343.0858,-91.825"/>
<polygon fill="#191970" stroke="#191970" points="345.0955,-94.7047 351.9697,-86.6427 341.5683,-88.6582 345.0955,-94.7047"/>
</g>
<!-- Node8 -->
<g id="node8" class="node">
<title>Node8</title>
<g id="a_node8"><a xlink:href="float_8hpp.html" target="_top" xlink:title=" ">
<polygon fill="#ffffff" stroke="#000000" points="142.5,-67.5 142.5,-86.5 256.5,-86.5 256.5,-67.5 142.5,-67.5"/>
<text text-anchor="middle" x="199.5" y="-74.5" font-family="Helvetica,sans-Serif" font-size="10.00" fill="#000000">alpaqa/util/float.hpp</text>
</a>
</g>
</g>
<!-- Node7&#45;&gt;Node8 -->
<g id="edge8" class="edge">
<title>Node7&#45;&gt;Node8</title>
<path fill="none" stroke="#191970" d="M259.7844,-123.2455C248.898,-114.8943 233.0117,-102.7076 220.28,-92.9408"/>
<polygon fill="#191970" stroke="#191970" points="222.1346,-89.9523 212.0699,-86.6427 217.8739,-95.5063 222.1346,-89.9523"/>
</g>
<!-- Node8&#45;&gt;Node3 -->
<g id="edge9" class="edge">
<title>Node8&#45;&gt;Node3</title>
<path fill="none" stroke="#191970" d="M225.9063,-67.3906C250.3667,-58.4893 287.4149,-45.0073 317.6172,-34.0165"/>
<polygon fill="#191970" stroke="#191970" points="318.9577,-37.2533 327.1579,-30.5446 316.5639,-30.6753 318.9577,-37.2533"/>
</g>
<!-- Node8&#45;&gt;Node5 -->
<g id="edge13" class="edge">
<title>Node8&#45;&gt;Node5</title>
<path fill="none" stroke="#191970" d="M208.25,-67.3906C216.6662,-58.1478 229.5797,-43.966 239.781,-32.7628"/>
<polygon fill="#191970" stroke="#191970" points="242.4818,-34.9953 246.6266,-25.2449 237.306,-30.2824 242.4818,-34.9953"/>
</g>
<!-- Node9 -->
<g id="node9" class="node">
<title>Node9</title>
<g id="a_node9"><a xlink:title=" ">
<polygon fill="#ffffff" stroke="#bfbfbf" points="0,-6 0,-25 47,-25 47,-6 0,-6"/>
<text text-anchor="middle" x="23.5" y="-13" font-family="Helvetica,sans-Serif" font-size="10.00" fill="#000000">cmath</text>
</a>
</g>
</g>
<!-- Node8&#45;&gt;Node9 -->
<g id="edge10" class="edge">
<title>Node8&#45;&gt;Node9</title>
<path fill="none" stroke="#191970" d="M164.9766,-67.469C135.4997,-58.9777 92.1785,-45.6556 55.5,-31 54.1386,-30.456 52.7543,-29.8796 51.3632,-29.2813"/>
<polygon fill="#191970" stroke="#191970" points="52.8034,-26.0914 42.2522,-25.1311 49.9016,-32.4616 52.8034,-26.0914"/>
</g>
<!-- Node10 -->
<g id="node10" class="node">
<title>Node10</title>
<g id="a_node10"><a xlink:title=" ">
<polygon fill="#ffffff" stroke="#bfbfbf" points="65,-6 65,-25 124,-25 124,-6 65,-6"/>
<text text-anchor="middle" x="94.5" y="-13" font-family="Helvetica,sans-Serif" font-size="10.00" fill="#000000">complex</text>
</a>
</g>
</g>
<!-- Node8&#45;&gt;Node10 -->
<g id="edge11" class="edge">
<title>Node8&#45;&gt;Node10</title>
<path fill="none" stroke="#191970" d="M183.0938,-67.3906C166.0647,-57.4165 139.2159,-41.6908 119.5349,-30.1633"/>
<polygon fill="#191970" stroke="#191970" points="121.1888,-27.0759 110.791,-25.0419 117.651,-33.1161 121.1888,-27.0759"/>
</g>
<!-- Node11 -->
<g id="node11" class="node">
<title>Node11</title>
<g id="a_node11"><a xlink:title=" ">
<polygon fill="#ffffff" stroke="#bfbfbf" points="142.5,-6 142.5,-25 202.5,-25 202.5,-6 142.5,-6"/>
<text text-anchor="middle" x="172.5" y="-13" font-family="Helvetica,sans-Serif" font-size="10.00" fill="#000000">concepts</text>
</a>
</g>
</g>
<!-- Node8&#45;&gt;Node11 -->
<g id="edge12" class="edge">
<title>Node8&#45;&gt;Node11</title>
<path fill="none" stroke="#191970" d="M195.2813,-67.3906C191.4204,-58.5965 185.5966,-45.3312 180.8039,-34.4145"/>
<polygon fill="#191970" stroke="#191970" points="184.0029,-32.9943 176.7782,-25.2449 177.5934,-35.8083 184.0029,-32.9943"/>
</g>
</g>
</svg>
