<?xml version="1.0" encoding="UTF-8" standalone="no"?>
<!DOCTYPE svg PUBLIC "-//W3C//DTD SVG 1.1//EN"
 "http://www.w3.org/Graphics/SVG/1.1/DTD/svg11.dtd">
<!-- Generated by graphviz version 2.40.1 (20161225.0304)
 -->
<!-- Title: panoc&#45;stop&#45;crit.hpp Pages: 1 -->
<svg width="403pt" height="196pt"
 viewBox="0.00 0.00 403.00 196.00" xmlns="http://www.w3.org/2000/svg" xmlns:xlink="http://www.w3.org/1999/xlink">
<g id="graph0" class="graph" transform="scale(1 1) rotate(0) translate(4 192)">
<title>panoc&#45;stop&#45;crit.hpp</title>
<polygon fill="#ffffff" stroke="transparent" points="-4,4 -4,-192 399,-192 399,4 -4,4"/>
<!-- Node1 -->
<g id="node1" class="node">
<title>Node1</title>
<g id="a_node1"><a xlink:title=" ">
<polygon fill="#bfbfbf" stroke="#000000" points="121.5,-168.5 121.5,-187.5 232.5,-187.5 232.5,-168.5 121.5,-168.5"/>
<text text-anchor="middle" x="177" y="-175.5" font-family="Helvetica,sans-Serif" font-size="10.00" fill="#000000">panoc&#45;stop&#45;crit.hpp</text>
</a>
</g>
</g>
<!-- Node2 -->
<g id="node2" class="node">
<title>Node2</title>
<g id="a_node2"><a xlink:href="panoc-helpers_8tpp.html" target="_top" xlink:title=" ">
<polygon fill="#ffffff" stroke="#000000" points="0,-112.5 0,-131.5 104,-131.5 104,-112.5 0,-112.5"/>
<text text-anchor="middle" x="52" y="-119.5" font-family="Helvetica,sans-Serif" font-size="10.00" fill="#000000">panoc&#45;helpers.tpp</text>
</a>
</g>
</g>
<!-- Node1&#45;&gt;Node2 -->
<g id="edge1" class="edge">
<title>Node1&#45;&gt;Node2</title>
<path fill="none" stroke="#191970" d="M146.302,-164.2473C123.6007,-154.0771 93.2685,-140.4883 73.2079,-131.5011"/>
<polygon fill="#191970" stroke="#191970" points="144.9547,-167.4789 155.5117,-168.3733 147.8167,-161.0906 144.9547,-167.4789"/>
</g>
<!-- Node6 -->
<g id="node6" class="node">
<title>Node6</title>
<g id="a_node6"><a xlink:href="panoc-stop-crit_8cpp.html" target="_top" xlink:title=" ">
<polygon fill="#ffffff" stroke="#000000" points="122,-112.5 122,-131.5 232,-131.5 232,-112.5 122,-112.5"/>
<text text-anchor="middle" x="177" y="-119.5" font-family="Helvetica,sans-Serif" font-size="10.00" fill="#000000">panoc&#45;stop&#45;crit.cpp</text>
</a>
</g>
</g>
<!-- Node1&#45;&gt;Node6 -->
<g id="edge5" class="edge">
<title>Node1&#45;&gt;Node6</title>
<path fill="none" stroke="#191970" d="M177,-158.1575C177,-149.155 177,-138.9199 177,-131.6427"/>
<polygon fill="#191970" stroke="#191970" points="173.5001,-158.2455 177,-168.2455 180.5001,-158.2456 173.5001,-158.2455"/>
</g>
<!-- Node7 -->
<g id="node7" class="node">
<title>Node7</title>
<g id="a_node7"><a xlink:href="panoc_8hpp.html" target="_top" xlink:title=" ">
<polygon fill="#ffffff" stroke="#000000" points="250.5,-112.5 250.5,-131.5 317.5,-131.5 317.5,-112.5 250.5,-112.5"/>
<text text-anchor="middle" x="284" y="-119.5" font-family="Helvetica,sans-Serif" font-size="10.00" fill="#000000">panoc.hpp</text>
</a>
</g>
</g>
<!-- Node1&#45;&gt;Node7 -->
<g id="edge6" class="edge">
<title>Node1&#45;&gt;Node7</title>
<path fill="none" stroke="#191970" d="M204.5199,-163.5971C223.7017,-153.558 248.7678,-140.4393 265.5756,-131.6427"/>
<polygon fill="#191970" stroke="#191970" points="202.875,-160.5075 195.638,-168.2455 206.1209,-166.7095 202.875,-160.5075"/>
</g>
<!-- Node3 -->
<g id="node3" class="node">
<title>Node3</title>
<g id="a_node3"><a xlink:href="panoc_8tpp.html" target="_top" xlink:title=" ">
<polygon fill="#ffffff" stroke="#000000" points="50.5,-56.5 50.5,-75.5 115.5,-75.5 115.5,-56.5 50.5,-56.5"/>
<text text-anchor="middle" x="83" y="-63.5" font-family="Helvetica,sans-Serif" font-size="10.00" fill="#000000">panoc.tpp</text>
</a>
</g>
</g>
<!-- Node2&#45;&gt;Node3 -->
<g id="edge2" class="edge">
<title>Node2&#45;&gt;Node3</title>
<path fill="none" stroke="#191970" d="M62.3312,-103.3372C67.4665,-94.0605 73.4566,-83.2398 77.6621,-75.6427"/>
<polygon fill="#191970" stroke="#191970" points="59.1809,-101.8015 57.3998,-112.2455 65.3051,-105.1917 59.1809,-101.8015"/>
</g>
<!-- Node4 -->
<g id="node4" class="node">
<title>Node4</title>
<g id="a_node4"><a xlink:href="alm_8cpp.html" target="_top" xlink:title=" ">
<polygon fill="#ffffff" stroke="#000000" points="16,-.5 16,-19.5 72,-19.5 72,-.5 16,-.5"/>
<text text-anchor="middle" x="44" y="-7.5" font-family="Helvetica,sans-Serif" font-size="10.00" fill="#000000">alm.cpp</text>
</a>
</g>
</g>
<!-- Node3&#45;&gt;Node4 -->
<g id="edge3" class="edge">
<title>Node3&#45;&gt;Node4</title>
<path fill="none" stroke="#191970" d="M70.4092,-47.9209C63.8605,-38.5176 56.1176,-27.3997 50.7154,-19.6427"/>
<polygon fill="#191970" stroke="#191970" points="67.6196,-50.0397 76.2067,-56.2455 73.3639,-46.0392 67.6196,-50.0397"/>
</g>
<!-- Node5 -->
<g id="node5" class="node">
<title>Node5</title>
<g id="a_node5"><a xlink:href="panoc_8cpp.html" target="_top" xlink:title=" ">
<polygon fill="#ffffff" stroke="#000000" points="90,-.5 90,-19.5 156,-19.5 156,-.5 90,-.5"/>
<text text-anchor="middle" x="123" y="-7.5" font-family="Helvetica,sans-Serif" font-size="10.00" fill="#000000">panoc.cpp</text>
</a>
</g>
</g>
<!-- Node3&#45;&gt;Node5 -->
<g id="edge4" class="edge">
<title>Node3&#45;&gt;Node5</title>
<path fill="none" stroke="#191970" d="M95.9136,-47.9209C102.6303,-38.5176 110.5717,-27.3997 116.1124,-19.6427"/>
<polygon fill="#191970" stroke="#191970" points="92.9318,-46.0738 89.9675,-56.2455 98.628,-50.1425 92.9318,-46.0738"/>
</g>
<!-- Node7&#45;&gt;Node3 -->
<g id="edge10" class="edge">
<title>Node7&#45;&gt;Node3</title>
<path fill="none" stroke="#191970" d="M240.7116,-109.9395C203.2143,-99.4925 149.7842,-84.6065 115.7511,-75.1247"/>
<polygon fill="#191970" stroke="#191970" points="239.7846,-113.3145 250.3571,-112.6269 241.6634,-106.5713 239.7846,-113.3145"/>
</g>
<!-- Node8 -->
<g id="node8" class="node">
<title>Node8</title>
<g id="a_node8"><a xlink:href="alpaqa_8hpp.html" target="_top" xlink:title=" ">
<polygon fill="#ffffff" stroke="#000000" points="163.5,-56.5 163.5,-75.5 234.5,-75.5 234.5,-56.5 163.5,-56.5"/>
<text text-anchor="middle" x="199" y="-63.5" font-family="Helvetica,sans-Serif" font-size="10.00" fill="#000000">alpaqa.hpp</text>
</a>
</g>
</g>
<!-- Node7&#45;&gt;Node8 -->
<g id="edge7" class="edge">
<title>Node7&#45;&gt;Node8</title>
<path fill="none" stroke="#191970" d="M260.4581,-106.49C245.461,-96.6096 226.5027,-84.1194 213.6362,-75.6427"/>
<polygon fill="#191970" stroke="#191970" points="258.9179,-109.6666 269.1941,-112.2455 262.7691,-103.8212 258.9179,-109.6666"/>
</g>
<!-- Node9 -->
<g id="node9" class="node">
<title>Node9</title>
<g id="a_node9"><a xlink:href="Presentation_2Cpp_2main_8cpp.html" target="_top" xlink:title=" ">
<polygon fill="#ffffff" stroke="#000000" points="253,-56.5 253,-75.5 315,-75.5 315,-56.5 253,-56.5"/>
<text text-anchor="middle" x="284" y="-63.5" font-family="Helvetica,sans-Serif" font-size="10.00" fill="#000000">main.cpp</text>
</a>
</g>
</g>
<!-- Node7&#45;&gt;Node9 -->
<g id="edge8" class="edge">
<title>Node7&#45;&gt;Node9</title>
<path fill="none" stroke="#191970" d="M284,-102.1575C284,-93.155 284,-82.9199 284,-75.6427"/>
<polygon fill="#191970" stroke="#191970" points="280.5001,-102.2455 284,-112.2455 287.5001,-102.2456 280.5001,-102.2455"/>
</g>
<!-- Node10 -->
<g id="node10" class="node">
<title>Node10</title>
<g id="a_node10"><a xlink:href="CasADi_2Rosenbrock_2main_8cpp.html" target="_top" xlink:title=" ">
<polygon fill="#ffffff" stroke="#000000" points="333,-56.5 333,-75.5 395,-75.5 395,-56.5 333,-56.5"/>
<text text-anchor="middle" x="364" y="-63.5" font-family="Helvetica,sans-Serif" font-size="10.00" fill="#000000">main.cpp</text>
</a>
</g>
</g>
<!-- Node7&#45;&gt;Node10 -->
<g id="edge9" class="edge">
<title>Node7&#45;&gt;Node10</title>
<path fill="none" stroke="#191970" d="M306.1571,-106.49C320.272,-96.6096 338.1151,-84.1194 350.2248,-75.6427"/>
<polygon fill="#191970" stroke="#191970" points="304.1201,-103.6436 297.9349,-112.2455 308.1344,-109.3782 304.1201,-103.6436"/>
</g>
</g>
</svg>
