<?xml version="1.0" encoding="UTF-8" standalone="no"?>
<!DOCTYPE svg PUBLIC "-//W3C//DTD SVG 1.1//EN"
 "http://www.w3.org/Graphics/SVG/1.1/DTD/svg11.dtd">
<!-- Generated by graphviz version 2.40.1 (20161225.0304)
 -->
<!-- Title: quadmath&#45;print.hpp Pages: 1 -->
<svg width="148pt" height="140pt"
 viewBox="0.00 0.00 148.00 140.00" xmlns="http://www.w3.org/2000/svg" xmlns:xlink="http://www.w3.org/1999/xlink">
<g id="graph0" class="graph" transform="scale(1 1) rotate(0) translate(4 136)">
<title>quadmath&#45;print.hpp</title>
<polygon fill="#ffffff" stroke="transparent" points="-4,4 -4,-136 144,-136 144,4 -4,4"/>
<!-- Node1 -->
<g id="node1" class="node">
<title>Node1</title>
<g id="a_node1"><a xlink:title=" ">
<polygon fill="#bfbfbf" stroke="#000000" points="10.5,-112.5 10.5,-131.5 123.5,-131.5 123.5,-112.5 10.5,-112.5"/>
<text text-anchor="middle" x="67" y="-119.5" font-family="Helvetica,sans-Serif" font-size="10.00" fill="#000000">quadmath&#45;print.hpp</text>
</a>
</g>
</g>
<!-- Node2 -->
<g id="node2" class="node">
<title>Node2</title>
<g id="a_node2"><a xlink:href="alm_8tpp.html" target="_top" xlink:title=" ">
<polygon fill="#ffffff" stroke="#000000" points="1,-56.5 1,-75.5 55,-75.5 55,-56.5 1,-56.5"/>
<text text-anchor="middle" x="28" y="-63.5" font-family="Helvetica,sans-Serif" font-size="10.00" fill="#000000">alm.tpp</text>
</a>
</g>
</g>
<!-- Node1&#45;&gt;Node2 -->
<g id="edge1" class="edge">
<title>Node1&#45;&gt;Node2</title>
<path fill="none" stroke="#191970" d="M54.4092,-103.9209C47.8605,-94.5176 40.1176,-83.3997 34.7154,-75.6427"/>
<polygon fill="#191970" stroke="#191970" points="51.6196,-106.0397 60.2067,-112.2455 57.3639,-102.0392 51.6196,-106.0397"/>
</g>
<!-- Node4 -->
<g id="node4" class="node">
<title>Node4</title>
<g id="a_node4"><a xlink:href="panoc_8tpp.html" target="_top" xlink:title=" ">
<polygon fill="#ffffff" stroke="#000000" points="73.5,-56.5 73.5,-75.5 138.5,-75.5 138.5,-56.5 73.5,-56.5"/>
<text text-anchor="middle" x="106" y="-63.5" font-family="Helvetica,sans-Serif" font-size="10.00" fill="#000000">panoc.tpp</text>
</a>
</g>
</g>
<!-- Node1&#45;&gt;Node4 -->
<g id="edge3" class="edge">
<title>Node1&#45;&gt;Node4</title>
<path fill="none" stroke="#191970" d="M79.5908,-103.9209C86.1395,-94.5176 93.8824,-83.3997 99.2846,-75.6427"/>
<polygon fill="#191970" stroke="#191970" points="76.6361,-102.0392 73.7933,-112.2455 82.3804,-106.0397 76.6361,-102.0392"/>
</g>
<!-- Node3 -->
<g id="node3" class="node">
<title>Node3</title>
<g id="a_node3"><a xlink:href="alm_8cpp.html" target="_top" xlink:title=" ">
<polygon fill="#ffffff" stroke="#000000" points="0,-.5 0,-19.5 56,-19.5 56,-.5 0,-.5"/>
<text text-anchor="middle" x="28" y="-7.5" font-family="Helvetica,sans-Serif" font-size="10.00" fill="#000000">alm.cpp</text>
</a>
</g>
</g>
<!-- Node2&#45;&gt;Node3 -->
<g id="edge2" class="edge">
<title>Node2&#45;&gt;Node3</title>
<path fill="none" stroke="#191970" d="M28,-46.1575C28,-37.155 28,-26.9199 28,-19.6427"/>
<polygon fill="#191970" stroke="#191970" points="24.5001,-46.2455 28,-56.2455 31.5001,-46.2456 24.5001,-46.2455"/>
</g>
<!-- Node4&#45;&gt;Node3 -->
<g id="edge4" class="edge">
<title>Node4&#45;&gt;Node3</title>
<path fill="none" stroke="#191970" d="M84.0064,-50.2097C70.3071,-40.3743 53.1264,-28.0394 41.4309,-19.6427"/>
<polygon fill="#191970" stroke="#191970" points="82.2489,-53.2566 92.4134,-56.2455 86.3314,-47.5703 82.2489,-53.2566"/>
</g>
<!-- Node5 -->
<g id="node5" class="node">
<title>Node5</title>
<g id="a_node5"><a xlink:href="panoc_8cpp.html" target="_top" xlink:title=" ">
<polygon fill="#ffffff" stroke="#000000" points="74,-.5 74,-19.5 140,-19.5 140,-.5 74,-.5"/>
<text text-anchor="middle" x="107" y="-7.5" font-family="Helvetica,sans-Serif" font-size="10.00" fill="#000000">panoc.cpp</text>
</a>
</g>
</g>
<!-- Node4&#45;&gt;Node5 -->
<g id="edge5" class="edge">
<title>Node4&#45;&gt;Node5</title>
<path fill="none" stroke="#191970" d="M106.3543,-46.1575C106.5151,-37.155 106.6979,-26.9199 106.8278,-19.6427"/>
<polygon fill="#191970" stroke="#191970" points="102.8534,-46.1846 106.1742,-56.2455 109.8523,-46.3097 102.8534,-46.1846"/>
</g>
</g>
</svg>
