<?xml version="1.0" encoding="UTF-8" standalone="no"?>
<!DOCTYPE svg PUBLIC "-//W3C//DTD SVG 1.1//EN"
 "http://www.w3.org/Graphics/SVG/1.1/DTD/svg11.dtd">
<!-- Generated by graphviz version 2.40.1 (20161225.0304)
 -->
<!-- Title: solverstatus.hpp Pages: 1 -->
<svg width="627pt" height="252pt"
 viewBox="0.00 0.00 627.00 252.00" xmlns="http://www.w3.org/2000/svg" xmlns:xlink="http://www.w3.org/1999/xlink">
<g id="graph0" class="graph" transform="scale(1 1) rotate(0) translate(4 248)">
<title>solverstatus.hpp</title>
<polygon fill="#ffffff" stroke="transparent" points="-4,4 -4,-248 623,-248 623,4 -4,4"/>
<!-- Node1 -->
<g id="node1" class="node">
<title>Node1</title>
<g id="a_node1"><a xlink:title=" ">
<polygon fill="#bfbfbf" stroke="#000000" points="235.5,-224.5 235.5,-243.5 333.5,-243.5 333.5,-224.5 235.5,-224.5"/>
<text text-anchor="middle" x="284.5" y="-231.5" font-family="Helvetica,sans-Serif" font-size="10.00" fill="#000000">solverstatus.hpp</text>
</a>
</g>
</g>
<!-- Node2 -->
<g id="node2" class="node">
<title>Node2</title>
<g id="a_node2"><a xlink:href="alm_8hpp.html" target="_top" xlink:title=" ">
<polygon fill="#ffffff" stroke="#000000" points="256.5,-168.5 256.5,-187.5 312.5,-187.5 312.5,-168.5 256.5,-168.5"/>
<text text-anchor="middle" x="284.5" y="-175.5" font-family="Helvetica,sans-Serif" font-size="10.00" fill="#000000">alm.hpp</text>
</a>
</g>
</g>
<!-- Node1&#45;&gt;Node2 -->
<g id="edge1" class="edge">
<title>Node1&#45;&gt;Node2</title>
<path fill="none" stroke="#191970" d="M284.5,-214.1575C284.5,-205.155 284.5,-194.9199 284.5,-187.6427"/>
<polygon fill="#191970" stroke="#191970" points="281.0001,-214.2455 284.5,-224.2455 288.0001,-214.2456 281.0001,-214.2455"/>
</g>
<!-- Node4 -->
<g id="node4" class="node">
<title>Node4</title>
<g id="a_node4"><a xlink:href="alm_8tpp.html" target="_top" xlink:title=" ">
<polygon fill="#ffffff" stroke="#000000" points="390.5,-56.5 390.5,-75.5 444.5,-75.5 444.5,-56.5 390.5,-56.5"/>
<text text-anchor="middle" x="417.5" y="-63.5" font-family="Helvetica,sans-Serif" font-size="10.00" fill="#000000">alm.tpp</text>
</a>
</g>
</g>
<!-- Node1&#45;&gt;Node4 -->
<g id="edge9" class="edge">
<title>Node1&#45;&gt;Node4</title>
<path fill="none" stroke="#191970" d="M328.5116,-221.1982C369.1044,-206.7839 426.9655,-179.0077 453.5,-132 464.6637,-112.2227 444.0206,-88.8398 429.6508,-75.8893"/>
<polygon fill="#191970" stroke="#191970" points="327.1842,-217.9529 318.85,-224.4945 329.4446,-224.578 327.1842,-217.9529"/>
</g>
<!-- Node9 -->
<g id="node9" class="node">
<title>Node9</title>
<g id="a_node9"><a xlink:href="panoc-helpers_8tpp.html" target="_top" xlink:title=" ">
<polygon fill="#ffffff" stroke="#000000" points="12.5,-168.5 12.5,-187.5 116.5,-187.5 116.5,-168.5 12.5,-168.5"/>
<text text-anchor="middle" x="64.5" y="-175.5" font-family="Helvetica,sans-Serif" font-size="10.00" fill="#000000">panoc&#45;helpers.tpp</text>
</a>
</g>
</g>
<!-- Node1&#45;&gt;Node9 -->
<g id="edge10" class="edge">
<title>Node1&#45;&gt;Node9</title>
<path fill="none" stroke="#191970" d="M236.7722,-221.8511C196.2888,-211.5462 139.024,-196.9697 101.8258,-187.5011"/>
<polygon fill="#191970" stroke="#191970" points="236.1263,-225.2982 246.6807,-224.3733 237.8531,-218.5145 236.1263,-225.2982"/>
</g>
<!-- Node12 -->
<g id="node12" class="node">
<title>Node12</title>
<g id="a_node12"><a xlink:href="panoc_8hpp.html" target="_top" xlink:title=" ">
<polygon fill="#ffffff" stroke="#000000" points="166,-168.5 166,-187.5 233,-187.5 233,-168.5 166,-168.5"/>
<text text-anchor="middle" x="199.5" y="-175.5" font-family="Helvetica,sans-Serif" font-size="10.00" fill="#000000">panoc.hpp</text>
</a>
</g>
</g>
<!-- Node1&#45;&gt;Node12 -->
<g id="edge14" class="edge">
<title>Node1&#45;&gt;Node12</title>
<path fill="none" stroke="#191970" d="M260.9581,-218.49C245.961,-208.6096 227.0027,-196.1194 214.1362,-187.6427"/>
<polygon fill="#191970" stroke="#191970" points="259.4179,-221.6666 269.6941,-224.2455 263.2691,-215.8212 259.4179,-221.6666"/>
</g>
<!-- Node13 -->
<g id="node13" class="node">
<title>Node13</title>
<g id="a_node13"><a xlink:href="solverstatus_8cpp.html" target="_top" xlink:title=" ">
<polygon fill="#ffffff" stroke="#000000" points="522,-168.5 522,-187.5 619,-187.5 619,-168.5 522,-168.5"/>
<text text-anchor="middle" x="570.5" y="-175.5" font-family="Helvetica,sans-Serif" font-size="10.00" fill="#000000">solverstatus.cpp</text>
</a>
</g>
</g>
<!-- Node1&#45;&gt;Node13 -->
<g id="edge19" class="edge">
<title>Node1&#45;&gt;Node13</title>
<path fill="none" stroke="#191970" d="M343.2268,-222.501C395.9635,-212.175 472.474,-197.1939 521.8613,-187.5237"/>
<polygon fill="#191970" stroke="#191970" points="342.4813,-219.0805 333.3402,-224.4369 343.8264,-225.95 342.4813,-219.0805"/>
</g>
<!-- Node3 -->
<g id="node3" class="node">
<title>Node3</title>
<g id="a_node3"><a xlink:href="alm-helpers_8tpp.html" target="_top" xlink:title=" ">
<polygon fill="#ffffff" stroke="#000000" points="333.5,-112.5 333.5,-131.5 427.5,-131.5 427.5,-112.5 333.5,-112.5"/>
<text text-anchor="middle" x="380.5" y="-119.5" font-family="Helvetica,sans-Serif" font-size="10.00" fill="#000000">alm&#45;helpers.tpp</text>
</a>
</g>
</g>
<!-- Node2&#45;&gt;Node3 -->
<g id="edge2" class="edge">
<title>Node2&#45;&gt;Node3</title>
<path fill="none" stroke="#191970" d="M310.1346,-163.0465C327.2159,-153.0824 349.164,-140.2794 363.9697,-131.6427"/>
<polygon fill="#191970" stroke="#191970" points="308.0962,-160.1836 301.2219,-168.2455 311.6233,-166.23 308.0962,-160.1836"/>
</g>
<!-- Node2&#45;&gt;Node4 -->
<g id="edge5" class="edge">
<title>Node2&#45;&gt;Node4</title>
<path fill="none" stroke="#191970" d="M322.8965,-171.6987C363.2976,-164.193 422.8961,-150.3301 436.5,-132 449.1488,-114.9567 435.0221,-89.7059 425.2394,-75.9009"/>
<polygon fill="#191970" stroke="#191970" points="322.0463,-168.2954 312.8253,-173.513 323.2874,-175.1845 322.0463,-168.2954"/>
</g>
<!-- Node6 -->
<g id="node6" class="node">
<title>Node6</title>
<g id="a_node6"><a xlink:href="alpaqa_8hpp.html" target="_top" xlink:title=" ">
<polygon fill="#ffffff" stroke="#000000" points="164,-112.5 164,-131.5 235,-131.5 235,-112.5 164,-112.5"/>
<text text-anchor="middle" x="199.5" y="-119.5" font-family="Helvetica,sans-Serif" font-size="10.00" fill="#000000">alpaqa.hpp</text>
</a>
</g>
</g>
<!-- Node2&#45;&gt;Node6 -->
<g id="edge6" class="edge">
<title>Node2&#45;&gt;Node6</title>
<path fill="none" stroke="#191970" d="M260.9581,-162.49C245.961,-152.6096 227.0027,-140.1194 214.1362,-131.6427"/>
<polygon fill="#191970" stroke="#191970" points="259.4179,-165.6666 269.6941,-168.2455 263.2691,-159.8212 259.4179,-165.6666"/>
</g>
<!-- Node7 -->
<g id="node7" class="node">
<title>Node7</title>
<g id="a_node7"><a xlink:href="Presentation_2Cpp_2main_8cpp.html" target="_top" xlink:title=" ">
<polygon fill="#ffffff" stroke="#000000" points="253.5,-112.5 253.5,-131.5 315.5,-131.5 315.5,-112.5 253.5,-112.5"/>
<text text-anchor="middle" x="284.5" y="-119.5" font-family="Helvetica,sans-Serif" font-size="10.00" fill="#000000">main.cpp</text>
</a>
</g>
</g>
<!-- Node2&#45;&gt;Node7 -->
<g id="edge7" class="edge">
<title>Node2&#45;&gt;Node7</title>
<path fill="none" stroke="#191970" d="M284.5,-158.1575C284.5,-149.155 284.5,-138.9199 284.5,-131.6427"/>
<polygon fill="#191970" stroke="#191970" points="281.0001,-158.2455 284.5,-168.2455 288.0001,-158.2456 281.0001,-158.2455"/>
</g>
<!-- Node8 -->
<g id="node8" class="node">
<title>Node8</title>
<g id="a_node8"><a xlink:href="CasADi_2Rosenbrock_2main_8cpp.html" target="_top" xlink:title=" ">
<polygon fill="#ffffff" stroke="#000000" points="83.5,-112.5 83.5,-131.5 145.5,-131.5 145.5,-112.5 83.5,-112.5"/>
<text text-anchor="middle" x="114.5" y="-119.5" font-family="Helvetica,sans-Serif" font-size="10.00" fill="#000000">main.cpp</text>
</a>
</g>
</g>
<!-- Node2&#45;&gt;Node8 -->
<g id="edge8" class="edge">
<title>Node2&#45;&gt;Node8</title>
<path fill="none" stroke="#191970" d="M246.7754,-165.5731C215.5907,-155.3005 171.9568,-140.927 143.4676,-131.5423"/>
<polygon fill="#191970" stroke="#191970" points="245.8349,-168.9482 256.428,-168.7527 248.0251,-162.2997 245.8349,-168.9482"/>
</g>
<!-- Node3&#45;&gt;Node4 -->
<g id="edge3" class="edge">
<title>Node3&#45;&gt;Node4</title>
<path fill="none" stroke="#191970" d="M392.6376,-103.6296C398.8093,-94.2887 406.0566,-83.3197 411.1289,-75.6427"/>
<polygon fill="#191970" stroke="#191970" points="389.5373,-101.9728 386.9449,-112.2455 395.3777,-105.8316 389.5373,-101.9728"/>
</g>
<!-- Node5 -->
<g id="node5" class="node">
<title>Node5</title>
<g id="a_node5"><a xlink:href="alm_8cpp.html" target="_top" xlink:title=" ">
<polygon fill="#ffffff" stroke="#000000" points="178.5,-.5 178.5,-19.5 234.5,-19.5 234.5,-.5 178.5,-.5"/>
<text text-anchor="middle" x="206.5" y="-7.5" font-family="Helvetica,sans-Serif" font-size="10.00" fill="#000000">alm.cpp</text>
</a>
</g>
</g>
<!-- Node4&#45;&gt;Node5 -->
<g id="edge4" class="edge">
<title>Node4&#45;&gt;Node5</title>
<path fill="none" stroke="#191970" d="M380.5913,-56.2043C338.9521,-45.1532 272.1502,-27.4238 234.5558,-17.4461"/>
<polygon fill="#191970" stroke="#191970" points="379.7842,-59.6112 390.3474,-58.7936 381.5799,-52.8454 379.7842,-59.6112"/>
</g>
<!-- Node10 -->
<g id="node10" class="node">
<title>Node10</title>
<g id="a_node10"><a xlink:href="panoc_8tpp.html" target="_top" xlink:title=" ">
<polygon fill="#ffffff" stroke="#000000" points="0,-112.5 0,-131.5 65,-131.5 65,-112.5 0,-112.5"/>
<text text-anchor="middle" x="32.5" y="-119.5" font-family="Helvetica,sans-Serif" font-size="10.00" fill="#000000">panoc.tpp</text>
</a>
</g>
</g>
<!-- Node9&#45;&gt;Node10 -->
<g id="edge11" class="edge">
<title>Node9&#45;&gt;Node10</title>
<path fill="none" stroke="#191970" d="M53.8355,-159.3372C48.5346,-150.0605 42.3513,-139.2398 38.0101,-131.6427"/>
<polygon fill="#191970" stroke="#191970" points="50.9257,-161.2996 58.926,-168.2455 57.0034,-157.8266 50.9257,-161.2996"/>
</g>
<!-- Node10&#45;&gt;Node5 -->
<g id="edge12" class="edge">
<title>Node10&#45;&gt;Node5</title>
<path fill="none" stroke="#191970" d="M33.3042,-101.984C34.9437,-87.3986 39.456,-68.1431 51.5,-56 69.2901,-38.0635 138.6925,-22.6085 178.3323,-15.0129"/>
<polygon fill="#191970" stroke="#191970" points="29.8086,-101.7937 32.5332,-112.0322 36.7881,-102.3293 29.8086,-101.7937"/>
</g>
<!-- Node11 -->
<g id="node11" class="node">
<title>Node11</title>
<g id="a_node11"><a xlink:href="panoc_8cpp.html" target="_top" xlink:title=" ">
<polygon fill="#ffffff" stroke="#000000" points="60.5,-56.5 60.5,-75.5 126.5,-75.5 126.5,-56.5 60.5,-56.5"/>
<text text-anchor="middle" x="93.5" y="-63.5" font-family="Helvetica,sans-Serif" font-size="10.00" fill="#000000">panoc.cpp</text>
</a>
</g>
</g>
<!-- Node10&#45;&gt;Node11 -->
<g id="edge13" class="edge">
<title>Node10&#45;&gt;Node11</title>
<path fill="none" stroke="#191970" d="M50.6249,-105.3607C61.178,-95.6727 74.1112,-83.7995 82.9964,-75.6427"/>
<polygon fill="#191970" stroke="#191970" points="48.125,-102.9045 43.1254,-112.2455 52.8589,-108.0611 48.125,-102.9045"/>
</g>
<!-- Node12&#45;&gt;Node6 -->
<g id="edge15" class="edge">
<title>Node12&#45;&gt;Node6</title>
<path fill="none" stroke="#191970" d="M199.5,-158.1575C199.5,-149.155 199.5,-138.9199 199.5,-131.6427"/>
<polygon fill="#191970" stroke="#191970" points="196.0001,-158.2455 199.5,-168.2455 203.0001,-158.2456 196.0001,-158.2455"/>
</g>
<!-- Node12&#45;&gt;Node7 -->
<g id="edge16" class="edge">
<title>Node12&#45;&gt;Node7</title>
<path fill="none" stroke="#191970" d="M223.0419,-162.49C238.039,-152.6096 256.9973,-140.1194 269.8638,-131.6427"/>
<polygon fill="#191970" stroke="#191970" points="220.7309,-159.8212 214.3059,-168.2455 224.5821,-165.6666 220.7309,-159.8212"/>
</g>
<!-- Node12&#45;&gt;Node8 -->
<g id="edge17" class="edge">
<title>Node12&#45;&gt;Node8</title>
<path fill="none" stroke="#191970" d="M175.9581,-162.49C160.961,-152.6096 142.0027,-140.1194 129.1362,-131.6427"/>
<polygon fill="#191970" stroke="#191970" points="174.4179,-165.6666 184.6941,-168.2455 178.2691,-159.8212 174.4179,-165.6666"/>
</g>
<!-- Node12&#45;&gt;Node10 -->
<g id="edge18" class="edge">
<title>Node12&#45;&gt;Node10</title>
<path fill="none" stroke="#191970" d="M161.3002,-165.1905C130.7046,-154.9309 88.4722,-140.7691 60.8337,-131.5011"/>
<polygon fill="#191970" stroke="#191970" points="160.1978,-168.5123 170.7917,-168.3733 162.4233,-161.8755 160.1978,-168.5123"/>
</g>
</g>
</svg>
