<?xml version="1.0" encoding="UTF-8" standalone="no"?>
<!DOCTYPE svg PUBLIC "-//W3C//DTD SVG 1.1//EN"
 "http://www.w3.org/Graphics/SVG/1.1/DTD/svg11.dtd">
<!-- Generated by graphviz version 2.40.1 (20161225.0304)
 -->
<!-- Title: is_complex_float&lt; std::complex&lt; T &gt; &gt; Pages: 1 -->
<svg width="133pt" height="171pt"
 viewBox="0.00 0.00 133.00 171.00" xmlns="http://www.w3.org/2000/svg" xmlns:xlink="http://www.w3.org/1999/xlink">
<g id="graph0" class="graph" transform="scale(1 1) rotate(0) translate(4 167)">
<title>is_complex_float&lt; std::complex&lt; T &gt; &gt;</title>
<polygon fill="#ffffff" stroke="transparent" points="-4,4 -4,-167 129,-167 129,4 -4,4"/>
<!-- Node1 -->
<g id="node1" class="node">
<title>Node1</title>
<g id="a_node1"><a xlink:title=" ">
<polygon fill="#bfbfbf" stroke="#000000" points="0,-.5 0,-68.5 125,-68.5 125,-.5 0,-.5"/>
<text text-anchor="start" x="8" y="-56.5" font-family="Helvetica,sans-Serif" font-size="10.00" fill="#000000">is_complex_float&lt; std</text>
<text text-anchor="middle" x="62.5" y="-45.5" font-family="Helvetica,sans-Serif" font-size="10.00" fill="#000000">::complex&lt; T &gt; &gt;</text>
<polyline fill="none" stroke="#000000" points="0,-38.5 125,-38.5 "/>
<text text-anchor="middle" x="62.5" y="-26.5" font-family="Helvetica,sans-Serif" font-size="10.00" fill="#000000"> </text>
<polyline fill="none" stroke="#000000" points="0,-19.5 125,-19.5 "/>
<text text-anchor="middle" x="62.5" y="-7.5" font-family="Helvetica,sans-Serif" font-size="10.00" fill="#000000"> </text>
</a>
</g>
</g>
<!-- Node2 -->
<g id="node2" class="node">
<title>Node2</title>
<g id="a_node2"><a xlink:title=" ">
<polygon fill="#ffffff" stroke="#000000" points="31,-105.5 31,-162.5 94,-162.5 94,-105.5 31,-105.5"/>
<text text-anchor="middle" x="62.5" y="-150.5" font-family="Helvetica,sans-Serif" font-size="10.00" fill="#000000">true_type</text>
<polyline fill="none" stroke="#000000" points="31,-143.5 94,-143.5 "/>
<text text-anchor="middle" x="62.5" y="-131.5" font-family="Helvetica,sans-Serif" font-size="10.00" fill="#000000"> </text>
<polyline fill="none" stroke="#000000" points="31,-124.5 94,-124.5 "/>
<text text-anchor="middle" x="62.5" y="-112.5" font-family="Helvetica,sans-Serif" font-size="10.00" fill="#000000"> </text>
</a>
</g>
</g>
<!-- Node2&#45;&gt;Node1 -->
<g id="edge1" class="edge">
<title>Node2&#45;&gt;Node1</title>
<path fill="none" stroke="#191970" d="M62.5,-95.4268C62.5,-86.6025 62.5,-77.2834 62.5,-68.6596"/>
<polygon fill="none" stroke="#191970" points="59.0001,-95.4873 62.5,-105.4873 66.0001,-95.4873 59.0001,-95.4873"/>
</g>
</g>
</svg>
