<?xml version="1.0" encoding="UTF-8" standalone="no"?>
<!DOCTYPE svg PUBLIC "-//W3C//DTD SVG 1.1//EN"
 "http://www.w3.org/Graphics/SVG/1.1/DTD/svg11.dtd">
<!-- Generated by graphviz version 2.40.1 (20161225.0304)
 -->
<!-- Title: PANOCParams&lt; Conf &gt; Pages: 1 -->
<svg width="414pt" height="536pt"
 viewBox="0.00 0.00 413.50 536.00" xmlns="http://www.w3.org/2000/svg" xmlns:xlink="http://www.w3.org/1999/xlink">
<g id="graph0" class="graph" transform="scale(1 1) rotate(0) translate(4 532)">
<title>PANOCParams&lt; Conf &gt;</title>
<polygon fill="#ffffff" stroke="transparent" points="-4,4 -4,-532 409.5,-532 409.5,4 -4,4"/>
<!-- Node1 -->
<g id="node1" class="node">
<title>Node1</title>
<g id="a_node1"><a xlink:title="Tuning parameters for the PANOC algorithm.">
<polygon fill="#bfbfbf" stroke="#000000" points="117,-.5 117,-134.5 282,-134.5 282,-.5 117,-.5"/>
<text text-anchor="middle" x="199.5" y="-122.5" font-family="Helvetica,sans-Serif" font-size="10.00" fill="#000000">PANOCParams&lt; Conf &gt;</text>
<polyline fill="none" stroke="#000000" points="117,-115.5 282,-115.5 "/>
<text text-anchor="start" x="125" y="-103.5" font-family="Helvetica,sans-Serif" font-size="10.00" fill="#000000">+ max_iter</text>
<text text-anchor="start" x="125" y="-92.5" font-family="Helvetica,sans-Serif" font-size="10.00" fill="#000000">+ stop_crit</text>
<text text-anchor="start" x="125" y="-81.5" font-family="Helvetica,sans-Serif" font-size="10.00" fill="#000000">+ max_no_progress</text>
<text text-anchor="start" x="125" y="-70.5" font-family="Helvetica,sans-Serif" font-size="10.00" fill="#000000">+ print_interval</text>
<text text-anchor="start" x="125" y="-59.5" font-family="Helvetica,sans-Serif" font-size="10.00" fill="#000000">+ update_lipschitz_in</text>
<text text-anchor="start" x="125" y="-48.5" font-family="Helvetica,sans-Serif" font-size="10.00" fill="#000000">_linesearch</text>
<text text-anchor="start" x="125" y="-37.5" font-family="Helvetica,sans-Serif" font-size="10.00" fill="#000000">+ alternative_linesearch_cond</text>
<text text-anchor="start" x="125" y="-26.5" font-family="Helvetica,sans-Serif" font-size="10.00" fill="#000000">+ lbfgs_stepsize</text>
<polyline fill="none" stroke="#000000" points="117,-19.5 282,-19.5 "/>
<text text-anchor="middle" x="199.5" y="-7.5" font-family="Helvetica,sans-Serif" font-size="10.00" fill="#000000"> </text>
</a>
</g>
</g>
<!-- Node2 -->
<g id="node2" class="node">
<title>Node2</title>
<g id="a_node2"><a xlink:href="structalpaqa_1_1LipschitzEstimateParams.html" target="_top" xlink:title=" ">
<polygon fill="#ffffff" stroke="#000000" points="0,-226.5 0,-294.5 139,-294.5 139,-226.5 0,-226.5"/>
<text text-anchor="start" x="8" y="-282.5" font-family="Helvetica,sans-Serif" font-size="10.00" fill="#000000">LipschitzEstimateParams</text>
<text text-anchor="middle" x="69.5" y="-271.5" font-family="Helvetica,sans-Serif" font-size="10.00" fill="#000000">&lt; config_t &gt;</text>
<polyline fill="none" stroke="#000000" points="0,-264.5 139,-264.5 "/>
<text text-anchor="middle" x="69.5" y="-252.5" font-family="Helvetica,sans-Serif" font-size="10.00" fill="#000000"> </text>
<polyline fill="none" stroke="#000000" points="0,-245.5 139,-245.5 "/>
<text text-anchor="start" x="8" y="-233.5" font-family="Helvetica,sans-Serif" font-size="10.00" fill="#000000">+ verify()</text>
</a>
</g>
</g>
<!-- Node2&#45;&gt;Node1 -->
<g id="edge1" class="edge">
<title>Node2&#45;&gt;Node1</title>
<path fill="none" stroke="#404040" d="M91.7085,-226.4913C105.6192,-205.2851 123.9796,-177.4688 140.5,-153 142.3291,-150.2908 144.195,-147.5367 146.0832,-144.7576"/>
<polygon fill="none" stroke="#404040" points="146.2338,-144.5366 146.3079,-137.3258 152.9924,-134.6209 152.9184,-141.8316 146.2338,-144.5366"/>
<text text-anchor="middle" x="168" y="-178" font-family="Helvetica,sans-Serif" font-size="10.00" fill="#000000"> +Lipschitz</text>
</g>
<!-- Node3 -->
<g id="node3" class="node">
<title>Node3</title>
<g id="a_node3"><a xlink:title=" ">
<polygon fill="#ffffff" stroke="#000000" points="50,-375.5 50,-432.5 89,-432.5 89,-375.5 50,-375.5"/>
<text text-anchor="middle" x="69.5" y="-420.5" font-family="Helvetica,sans-Serif" font-size="10.00" fill="#000000">Conf</text>
<polyline fill="none" stroke="#000000" points="50,-413.5 89,-413.5 "/>
<text text-anchor="middle" x="69.5" y="-401.5" font-family="Helvetica,sans-Serif" font-size="10.00" fill="#000000"> </text>
<polyline fill="none" stroke="#000000" points="50,-394.5 89,-394.5 "/>
<text text-anchor="middle" x="69.5" y="-382.5" font-family="Helvetica,sans-Serif" font-size="10.00" fill="#000000"> </text>
</a>
</g>
</g>
<!-- Node3&#45;&gt;Node2 -->
<g id="edge2" class="edge">
<title>Node3&#45;&gt;Node2</title>
<path fill="none" stroke="#404040" d="M69.5,-375.3055C69.5,-355.7064 69.5,-329.3057 69.5,-306.7629"/>
<polygon fill="none" stroke="#404040" points="69.5001,-306.7037 65.5,-300.7038 69.5,-294.7037 73.5,-300.7037 69.5001,-306.7037"/>
<text text-anchor="middle" x="98" y="-349" font-family="Helvetica,sans-Serif" font-size="10.00" fill="#000000"> +Lγ_factor</text>
<text text-anchor="middle" x="98" y="-338" font-family="Helvetica,sans-Serif" font-size="10.00" fill="#000000">+L₀</text>
<text text-anchor="middle" x="98" y="-327" font-family="Helvetica,sans-Serif" font-size="10.00" fill="#000000">+δ</text>
<text text-anchor="middle" x="98" y="-316" font-family="Helvetica,sans-Serif" font-size="10.00" fill="#000000">+ε</text>
</g>
<!-- Node4 -->
<g id="node4" class="node">
<title>Node4</title>
<g id="a_node4"><a xlink:title=" ">
<polygon fill="#ffffff" stroke="#000000" points="157.5,-232 157.5,-289 241.5,-289 241.5,-232 157.5,-232"/>
<text text-anchor="middle" x="199.5" y="-277" font-family="Helvetica,sans-Serif" font-size="10.00" fill="#000000">microseconds</text>
<polyline fill="none" stroke="#000000" points="157.5,-270 241.5,-270 "/>
<text text-anchor="middle" x="199.5" y="-258" font-family="Helvetica,sans-Serif" font-size="10.00" fill="#000000"> </text>
<polyline fill="none" stroke="#000000" points="157.5,-251 241.5,-251 "/>
<text text-anchor="middle" x="199.5" y="-239" font-family="Helvetica,sans-Serif" font-size="10.00" fill="#000000"> </text>
</a>
</g>
</g>
<!-- Node4&#45;&gt;Node1 -->
<g id="edge3" class="edge">
<title>Node4&#45;&gt;Node1</title>
<path fill="none" stroke="#404040" d="M199.5,-231.6059C199.5,-209.1471 199.5,-176.8701 199.5,-146.8739"/>
<polygon fill="none" stroke="#404040" points="199.5001,-146.637 195.5,-140.637 199.5,-134.637 203.5,-140.6369 199.5001,-146.637"/>
<text text-anchor="middle" x="230" y="-178" font-family="Helvetica,sans-Serif" font-size="10.00" fill="#000000"> +max_time</text>
</g>
<!-- Node5 -->
<g id="node5" class="node">
<title>Node5</title>
<g id="a_node5"><a xlink:href="structalpaqa_1_1DefaultConfig.html" target="_top" xlink:title=" ">
<polygon fill="#ffffff" stroke="#000000" points="260,-232 260,-289 343,-289 343,-232 260,-232"/>
<text text-anchor="middle" x="301.5" y="-277" font-family="Helvetica,sans-Serif" font-size="10.00" fill="#000000">DefaultConfig</text>
<polyline fill="none" stroke="#000000" points="260,-270 343,-270 "/>
<text text-anchor="middle" x="301.5" y="-258" font-family="Helvetica,sans-Serif" font-size="10.00" fill="#000000"> </text>
<polyline fill="none" stroke="#000000" points="260,-251 343,-251 "/>
<text text-anchor="middle" x="301.5" y="-239" font-family="Helvetica,sans-Serif" font-size="10.00" fill="#000000"> </text>
</a>
</g>
</g>
<!-- Node5&#45;&gt;Node1 -->
<g id="edge4" class="edge">
<title>Node5&#45;&gt;Node1</title>
<path fill="none" stroke="#404040" d="M294.2713,-231.6318C288.067,-209.3772 277.9882,-178.242 264.5,-153 263.0775,-150.3379 261.575,-147.6706 260.0083,-145.0093"/>
<polygon fill="none" stroke="#404040" points="260.0019,-144.999 253.4412,-142.0061 253.6805,-134.799 260.2412,-137.7919 260.0019,-144.999"/>
<text text-anchor="middle" x="346.5" y="-200" font-family="Helvetica,sans-Serif" font-size="10.00" fill="#000000"> +L_max</text>
<text text-anchor="middle" x="346.5" y="-189" font-family="Helvetica,sans-Serif" font-size="10.00" fill="#000000">+L_min</text>
<text text-anchor="start" x="287.5" y="-178" font-family="Helvetica,sans-Serif" font-size="10.00" fill="#000000">+quadratic_upperbound</text>
<text text-anchor="middle" x="346.5" y="-167" font-family="Helvetica,sans-Serif" font-size="10.00" fill="#000000">_tolerance_factor</text>
<text text-anchor="middle" x="346.5" y="-156" font-family="Helvetica,sans-Serif" font-size="10.00" fill="#000000">+τ_min</text>
</g>
<!-- Node6 -->
<g id="node6" class="node">
<title>Node6</title>
<g id="a_node6"><a xlink:href="structalpaqa_1_1EigenConfigd.html" target="_top" xlink:title=" ">
<polygon fill="#ffffff" stroke="#000000" points="259.5,-375.5 259.5,-432.5 343.5,-432.5 343.5,-375.5 259.5,-375.5"/>
<text text-anchor="middle" x="301.5" y="-420.5" font-family="Helvetica,sans-Serif" font-size="10.00" fill="#000000">EigenConfigd</text>
<polyline fill="none" stroke="#000000" points="259.5,-413.5 343.5,-413.5 "/>
<text text-anchor="middle" x="301.5" y="-401.5" font-family="Helvetica,sans-Serif" font-size="10.00" fill="#000000"> </text>
<polyline fill="none" stroke="#000000" points="259.5,-394.5 343.5,-394.5 "/>
<text text-anchor="start" x="267.5" y="-382.5" font-family="Helvetica,sans-Serif" font-size="10.00" fill="#000000">+ get_name()</text>
</a>
</g>
</g>
<!-- Node6&#45;&gt;Node5 -->
<g id="edge5" class="edge">
<title>Node6&#45;&gt;Node5</title>
<path fill="none" stroke="#191970" d="M301.5,-365.1214C301.5,-341.15 301.5,-310.9337 301.5,-289.1447"/>
<polygon fill="none" stroke="#191970" points="298.0001,-365.3055 301.5,-375.3055 305.0001,-365.3056 298.0001,-365.3055"/>
</g>
<!-- Node7 -->
<g id="node7" class="node">
<title>Node7</title>
<g id="a_node7"><a xlink:href="namespacealpaqa.html" target="_top" xlink:title=" ">
<polygon fill="#ffffff" stroke="#000000" points="236.5,-470.5 236.5,-527.5 366.5,-527.5 366.5,-470.5 236.5,-470.5"/>
<text text-anchor="middle" x="301.5" y="-515.5" font-family="Helvetica,sans-Serif" font-size="10.00" fill="#000000">EigenConfig&lt; double &gt;</text>
<polyline fill="none" stroke="#000000" points="236.5,-508.5 366.5,-508.5 "/>
<text text-anchor="middle" x="301.5" y="-496.5" font-family="Helvetica,sans-Serif" font-size="10.00" fill="#000000"> </text>
<polyline fill="none" stroke="#000000" points="236.5,-489.5 366.5,-489.5 "/>
<text text-anchor="middle" x="301.5" y="-477.5" font-family="Helvetica,sans-Serif" font-size="10.00" fill="#000000"> </text>
</a>
</g>
</g>
<!-- Node7&#45;&gt;Node6 -->
<g id="edge6" class="edge">
<title>Node7&#45;&gt;Node6</title>
<path fill="none" stroke="#191970" d="M301.5,-460.3724C301.5,-451.1627 301.5,-441.4917 301.5,-432.8114"/>
<polygon fill="none" stroke="#191970" points="298.0001,-460.4968 301.5,-470.4969 305.0001,-460.4969 298.0001,-460.4968"/>
</g>
</g>
</svg>
