<?xml version="1.0" encoding="UTF-8" standalone="no"?>
<!DOCTYPE svg PUBLIC "-//W3C//DTD SVG 1.1//EN"
 "http://www.w3.org/Graphics/SVG/1.1/DTD/svg11.dtd">
<!-- Generated by graphviz version 2.40.1 (20161225.0304)
 -->
<!-- Title: Box&lt; Conf &gt; Pages: 1 -->
<svg width="142pt" height="372pt"
 viewBox="0.00 0.00 142.00 372.00" xmlns="http://www.w3.org/2000/svg" xmlns:xlink="http://www.w3.org/1999/xlink">
<g id="graph0" class="graph" transform="scale(1 1) rotate(0) translate(4 368)">
<title>Box&lt; Conf &gt;</title>
<polygon fill="#ffffff" stroke="transparent" points="-4,4 -4,-368 138,-368 138,4 -4,4"/>
<!-- Node1 -->
<g id="node1" class="node">
<title>Node1</title>
<g id="a_node1"><a xlink:title=" ">
<polygon fill="#bfbfbf" stroke="#000000" points="25,-.5 25,-57.5 105,-57.5 105,-.5 25,-.5"/>
<text text-anchor="middle" x="65" y="-45.5" font-family="Helvetica,sans-Serif" font-size="10.00" fill="#000000">Box&lt; Conf &gt;</text>
<polyline fill="none" stroke="#000000" points="25,-38.5 105,-38.5 "/>
<text text-anchor="middle" x="65" y="-26.5" font-family="Helvetica,sans-Serif" font-size="10.00" fill="#000000"> </text>
<polyline fill="none" stroke="#000000" points="25,-19.5 105,-19.5 "/>
<text text-anchor="middle" x="65" y="-7.5" font-family="Helvetica,sans-Serif" font-size="10.00" fill="#000000"> </text>
</a>
</g>
</g>
<!-- Node2 -->
<g id="node2" class="node">
<title>Node2</title>
<g id="a_node2"><a xlink:href="structalpaqa_1_1DefaultConfig.html" target="_top" xlink:title=" ">
<polygon fill="#ffffff" stroke="#000000" points="23.5,-116.5 23.5,-173.5 106.5,-173.5 106.5,-116.5 23.5,-116.5"/>
<text text-anchor="middle" x="65" y="-161.5" font-family="Helvetica,sans-Serif" font-size="10.00" fill="#000000">DefaultConfig</text>
<polyline fill="none" stroke="#000000" points="23.5,-154.5 106.5,-154.5 "/>
<text text-anchor="middle" x="65" y="-142.5" font-family="Helvetica,sans-Serif" font-size="10.00" fill="#000000"> </text>
<polyline fill="none" stroke="#000000" points="23.5,-135.5 106.5,-135.5 "/>
<text text-anchor="middle" x="65" y="-123.5" font-family="Helvetica,sans-Serif" font-size="10.00" fill="#000000"> </text>
</a>
</g>
</g>
<!-- Node2&#45;&gt;Node1 -->
<g id="edge1" class="edge">
<title>Node2&#45;&gt;Node1</title>
<path fill="none" stroke="#404040" d="M65,-116.3258C65,-102.3834 65,-85.3727 65,-70.0815"/>
<polygon fill="none" stroke="#404040" points="65.0001,-69.7463 61,-63.7464 65,-57.7463 69,-63.7463 65.0001,-69.7463"/>
<text text-anchor="middle" x="99.5" y="-90" font-family="Helvetica,sans-Serif" font-size="10.00" fill="#000000"> +lowerbound</text>
<text text-anchor="middle" x="99.5" y="-79" font-family="Helvetica,sans-Serif" font-size="10.00" fill="#000000">+upperbound</text>
</g>
<!-- Node3 -->
<g id="node3" class="node">
<title>Node3</title>
<g id="a_node3"><a xlink:href="structalpaqa_1_1EigenConfigd.html" target="_top" xlink:title=" ">
<polygon fill="#ffffff" stroke="#000000" points="23,-211.5 23,-268.5 107,-268.5 107,-211.5 23,-211.5"/>
<text text-anchor="middle" x="65" y="-256.5" font-family="Helvetica,sans-Serif" font-size="10.00" fill="#000000">EigenConfigd</text>
<polyline fill="none" stroke="#000000" points="23,-249.5 107,-249.5 "/>
<text text-anchor="middle" x="65" y="-237.5" font-family="Helvetica,sans-Serif" font-size="10.00" fill="#000000"> </text>
<polyline fill="none" stroke="#000000" points="23,-230.5 107,-230.5 "/>
<text text-anchor="start" x="31" y="-218.5" font-family="Helvetica,sans-Serif" font-size="10.00" fill="#000000">+ get_name()</text>
</a>
</g>
</g>
<!-- Node3&#45;&gt;Node2 -->
<g id="edge2" class="edge">
<title>Node3&#45;&gt;Node2</title>
<path fill="none" stroke="#191970" d="M65,-201.3724C65,-192.1627 65,-182.4917 65,-173.8114"/>
<polygon fill="none" stroke="#191970" points="61.5001,-201.4968 65,-211.4969 68.5001,-201.4969 61.5001,-201.4968"/>
</g>
<!-- Node4 -->
<g id="node4" class="node">
<title>Node4</title>
<g id="a_node4"><a xlink:href="namespacealpaqa.html" target="_top" xlink:title=" ">
<polygon fill="#ffffff" stroke="#000000" points="0,-306.5 0,-363.5 130,-363.5 130,-306.5 0,-306.5"/>
<text text-anchor="middle" x="65" y="-351.5" font-family="Helvetica,sans-Serif" font-size="10.00" fill="#000000">EigenConfig&lt; double &gt;</text>
<polyline fill="none" stroke="#000000" points="0,-344.5 130,-344.5 "/>
<text text-anchor="middle" x="65" y="-332.5" font-family="Helvetica,sans-Serif" font-size="10.00" fill="#000000"> </text>
<polyline fill="none" stroke="#000000" points="0,-325.5 130,-325.5 "/>
<text text-anchor="middle" x="65" y="-313.5" font-family="Helvetica,sans-Serif" font-size="10.00" fill="#000000"> </text>
</a>
</g>
</g>
<!-- Node4&#45;&gt;Node3 -->
<g id="edge3" class="edge">
<title>Node4&#45;&gt;Node3</title>
<path fill="none" stroke="#191970" d="M65,-296.3724C65,-287.1627 65,-277.4917 65,-268.8114"/>
<polygon fill="none" stroke="#191970" points="61.5001,-296.4968 65,-306.4969 68.5001,-296.4969 61.5001,-296.4968"/>
</g>
</g>
</svg>
