<?xml version="1.0" encoding="UTF-8" standalone="no"?>
<!DOCTYPE svg PUBLIC "-//W3C//DTD SVG 1.1//EN"
 "http://www.w3.org/Graphics/SVG/1.1/DTD/svg11.dtd">
<!-- Generated by graphviz version 2.40.1 (20161225.0304)
 -->
<!-- Title: is_config&lt; DefaultConfig &gt; Pages: 1 -->
<svg width="157pt" height="160pt"
 viewBox="0.00 0.00 157.00 160.00" xmlns="http://www.w3.org/2000/svg" xmlns:xlink="http://www.w3.org/1999/xlink">
<g id="graph0" class="graph" transform="scale(1 1) rotate(0) translate(4 156)">
<title>is_config&lt; DefaultConfig &gt;</title>
<polygon fill="#ffffff" stroke="transparent" points="-4,4 -4,-156 153,-156 153,4 -4,4"/>
<!-- Node1 -->
<g id="node1" class="node">
<title>Node1</title>
<g id="a_node1"><a xlink:title=" ">
<polygon fill="#bfbfbf" stroke="#000000" points="0,-.5 0,-57.5 149,-57.5 149,-.5 0,-.5"/>
<text text-anchor="middle" x="74.5" y="-45.5" font-family="Helvetica,sans-Serif" font-size="10.00" fill="#000000">is_config&lt; DefaultConfig &gt;</text>
<polyline fill="none" stroke="#000000" points="0,-38.5 149,-38.5 "/>
<text text-anchor="middle" x="74.5" y="-26.5" font-family="Helvetica,sans-Serif" font-size="10.00" fill="#000000"> </text>
<polyline fill="none" stroke="#000000" points="0,-19.5 149,-19.5 "/>
<text text-anchor="middle" x="74.5" y="-7.5" font-family="Helvetica,sans-Serif" font-size="10.00" fill="#000000"> </text>
</a>
</g>
</g>
<!-- Node2 -->
<g id="node2" class="node">
<title>Node2</title>
<g id="a_node2"><a xlink:title=" ">
<polygon fill="#ffffff" stroke="#000000" points="43,-94.5 43,-151.5 106,-151.5 106,-94.5 43,-94.5"/>
<text text-anchor="middle" x="74.5" y="-139.5" font-family="Helvetica,sans-Serif" font-size="10.00" fill="#000000">true_type</text>
<polyline fill="none" stroke="#000000" points="43,-132.5 106,-132.5 "/>
<text text-anchor="middle" x="74.5" y="-120.5" font-family="Helvetica,sans-Serif" font-size="10.00" fill="#000000"> </text>
<polyline fill="none" stroke="#000000" points="43,-113.5 106,-113.5 "/>
<text text-anchor="middle" x="74.5" y="-101.5" font-family="Helvetica,sans-Serif" font-size="10.00" fill="#000000"> </text>
</a>
</g>
</g>
<!-- Node2&#45;&gt;Node1 -->
<g id="edge1" class="edge">
<title>Node2&#45;&gt;Node1</title>
<path fill="none" stroke="#191970" d="M74.5,-84.1035C74.5,-75.2052 74.5,-65.9073 74.5,-57.538"/>
<polygon fill="none" stroke="#191970" points="71.0001,-84.2861 74.5,-94.2861 78.0001,-84.2862 71.0001,-84.2861"/>
</g>
</g>
</svg>
