<?xml version="1.0" encoding="UTF-8" standalone="no"?>
<!DOCTYPE svg PUBLIC "-//W3C//DTD SVG 1.1//EN"
 "http://www.w3.org/Graphics/SVG/1.1/DTD/svg11.dtd">
<!-- Generated by graphviz version 2.40.1 (20161225.0304)
 -->
<!-- Title: LipschitzEstimateParams&lt; Conf &gt; Pages: 1 -->
<svg width="147pt" height="405pt"
 viewBox="0.00 0.00 147.00 405.00" xmlns="http://www.w3.org/2000/svg" xmlns:xlink="http://www.w3.org/1999/xlink">
<g id="graph0" class="graph" transform="scale(1 1) rotate(0) translate(4 401)">
<title>LipschitzEstimateParams&lt; Conf &gt;</title>
<polygon fill="#ffffff" stroke="transparent" points="-4,4 -4,-401 143,-401 143,4 -4,4"/>
<!-- Node1 -->
<g id="node1" class="node">
<title>Node1</title>
<g id="a_node1"><a xlink:title=" ">
<polygon fill="#bfbfbf" stroke="#000000" points="0,-.5 0,-68.5 139,-68.5 139,-.5 0,-.5"/>
<text text-anchor="start" x="8" y="-56.5" font-family="Helvetica,sans-Serif" font-size="10.00" fill="#000000">LipschitzEstimateParams</text>
<text text-anchor="middle" x="69.5" y="-45.5" font-family="Helvetica,sans-Serif" font-size="10.00" fill="#000000">&lt; Conf &gt;</text>
<polyline fill="none" stroke="#000000" points="0,-38.5 139,-38.5 "/>
<text text-anchor="middle" x="69.5" y="-26.5" font-family="Helvetica,sans-Serif" font-size="10.00" fill="#000000"> </text>
<polyline fill="none" stroke="#000000" points="0,-19.5 139,-19.5 "/>
<text text-anchor="start" x="8" y="-7.5" font-family="Helvetica,sans-Serif" font-size="10.00" fill="#000000">+ verify()</text>
</a>
</g>
</g>
<!-- Node2 -->
<g id="node2" class="node">
<title>Node2</title>
<g id="a_node2"><a xlink:href="structalpaqa_1_1DefaultConfig.html" target="_top" xlink:title=" ">
<polygon fill="#ffffff" stroke="#000000" points="28,-149.5 28,-206.5 111,-206.5 111,-149.5 28,-149.5"/>
<text text-anchor="middle" x="69.5" y="-194.5" font-family="Helvetica,sans-Serif" font-size="10.00" fill="#000000">DefaultConfig</text>
<polyline fill="none" stroke="#000000" points="28,-187.5 111,-187.5 "/>
<text text-anchor="middle" x="69.5" y="-175.5" font-family="Helvetica,sans-Serif" font-size="10.00" fill="#000000"> </text>
<polyline fill="none" stroke="#000000" points="28,-168.5 111,-168.5 "/>
<text text-anchor="middle" x="69.5" y="-156.5" font-family="Helvetica,sans-Serif" font-size="10.00" fill="#000000"> </text>
</a>
</g>
</g>
<!-- Node2&#45;&gt;Node1 -->
<g id="edge1" class="edge">
<title>Node2&#45;&gt;Node1</title>
<path fill="none" stroke="#404040" d="M69.5,-149.3055C69.5,-129.7064 69.5,-103.3057 69.5,-80.7629"/>
<polygon fill="none" stroke="#404040" points="69.5001,-80.7037 65.5,-74.7038 69.5,-68.7037 73.5,-74.7037 69.5001,-80.7037"/>
<text text-anchor="middle" x="98" y="-123" font-family="Helvetica,sans-Serif" font-size="10.00" fill="#000000"> +Lγ_factor</text>
<text text-anchor="middle" x="98" y="-112" font-family="Helvetica,sans-Serif" font-size="10.00" fill="#000000">+L₀</text>
<text text-anchor="middle" x="98" y="-101" font-family="Helvetica,sans-Serif" font-size="10.00" fill="#000000">+δ</text>
<text text-anchor="middle" x="98" y="-90" font-family="Helvetica,sans-Serif" font-size="10.00" fill="#000000">+ε</text>
</g>
<!-- Node3 -->
<g id="node3" class="node">
<title>Node3</title>
<g id="a_node3"><a xlink:href="structalpaqa_1_1EigenConfigd.html" target="_top" xlink:title=" ">
<polygon fill="#ffffff" stroke="#000000" points="27.5,-244.5 27.5,-301.5 111.5,-301.5 111.5,-244.5 27.5,-244.5"/>
<text text-anchor="middle" x="69.5" y="-289.5" font-family="Helvetica,sans-Serif" font-size="10.00" fill="#000000">EigenConfigd</text>
<polyline fill="none" stroke="#000000" points="27.5,-282.5 111.5,-282.5 "/>
<text text-anchor="middle" x="69.5" y="-270.5" font-family="Helvetica,sans-Serif" font-size="10.00" fill="#000000"> </text>
<polyline fill="none" stroke="#000000" points="27.5,-263.5 111.5,-263.5 "/>
<text text-anchor="start" x="35.5" y="-251.5" font-family="Helvetica,sans-Serif" font-size="10.00" fill="#000000">+ get_name()</text>
</a>
</g>
</g>
<!-- Node3&#45;&gt;Node2 -->
<g id="edge2" class="edge">
<title>Node3&#45;&gt;Node2</title>
<path fill="none" stroke="#191970" d="M69.5,-234.3724C69.5,-225.1627 69.5,-215.4917 69.5,-206.8114"/>
<polygon fill="none" stroke="#191970" points="66.0001,-234.4968 69.5,-244.4969 73.0001,-234.4969 66.0001,-234.4968"/>
</g>
<!-- Node4 -->
<g id="node4" class="node">
<title>Node4</title>
<g id="a_node4"><a xlink:href="namespacealpaqa.html" target="_top" xlink:title=" ">
<polygon fill="#ffffff" stroke="#000000" points="4.5,-339.5 4.5,-396.5 134.5,-396.5 134.5,-339.5 4.5,-339.5"/>
<text text-anchor="middle" x="69.5" y="-384.5" font-family="Helvetica,sans-Serif" font-size="10.00" fill="#000000">EigenConfig&lt; double &gt;</text>
<polyline fill="none" stroke="#000000" points="4.5,-377.5 134.5,-377.5 "/>
<text text-anchor="middle" x="69.5" y="-365.5" font-family="Helvetica,sans-Serif" font-size="10.00" fill="#000000"> </text>
<polyline fill="none" stroke="#000000" points="4.5,-358.5 134.5,-358.5 "/>
<text text-anchor="middle" x="69.5" y="-346.5" font-family="Helvetica,sans-Serif" font-size="10.00" fill="#000000"> </text>
</a>
</g>
</g>
<!-- Node4&#45;&gt;Node3 -->
<g id="edge3" class="edge">
<title>Node4&#45;&gt;Node3</title>
<path fill="none" stroke="#191970" d="M69.5,-329.3724C69.5,-320.1627 69.5,-310.4917 69.5,-301.8114"/>
<polygon fill="none" stroke="#191970" points="66.0001,-329.4968 69.5,-339.4969 73.0001,-329.4969 66.0001,-329.4968"/>
</g>
</g>
</svg>
