<?xml version="1.0" encoding="UTF-8" standalone="no"?>
<!DOCTYPE svg PUBLIC "-//W3C//DTD SVG 1.1//EN"
 "http://www.w3.org/Graphics/SVG/1.1/DTD/svg11.dtd">
<!-- Generated by graphviz version 2.43.0 (0)
 -->
<!-- Title: src/alpaqa/include/alpaqa/outer/internal/alm&#45;helpers.hpp Pages: 1 -->
<!--zoomable 335 -->

<svg id="main" version="1.1" xmlns="http://www.w3.org/2000/svg" xmlns:xlink="http://www.w3.org/1999/xlink" xml:space="preserve" onload="init(evt)">
<style type="text/css"><![CDATA[
.node, .edge {opacity: 0.7;}
.node.selected, .edge.selected {opacity: 1;}
.edge:hover path { stroke: red; }
.edge:hover polygon { stroke: red; fill: red; }
]]></style>

<defs>
  <circle id="rim" cx="0" cy="0" r="7"/>
  <circle id="rim2" cx="0" cy="0" r="3.5"/>
  <g id="zoomPlus">
    <use xlink:href="#rim" fill="#404040"><set attributeName="fill" to="#808080" begin="zoomplus.mouseover" end="zoomplus.mouseout"/></use>
    <path d="M-4,0h8M0,-4v8" fill="none" stroke="white" stroke-width="1.5" pointer-events="none"/>
  </g>
  <g id="zoomMin">
    <use xlink:href="#rim" fill="#404040"><set attributeName="fill" to="#808080" begin="zoomminus.mouseover" end="zoomminus.mouseout"/></use>
    <path d="M-4,0h8" fill="none" stroke="white" stroke-width="1.5" pointer-events="none"/>
  </g>
  <g id="arrowUp" transform="translate(30 24)">
    <use xlink:href="#rim"/>
    <path pointer-events="none" fill="none" stroke="white" stroke-width="1.5" d="M0,-3.0v7 M-2.5,-0.5L0,-3.0L2.5,-0.5"/>
  </g>
  <g id="arrowRight" transform="rotate(90) translate(36 -43)">
    <use xlink:href="#rim"/>
    <path pointer-events="none" fill="none" stroke="white" stroke-width="1.5" d="M0,-3.0v7 M-2.5,-0.5L0,-3.0L2.5,-0.5"/>
  </g>
  <g id="arrowDown" transform="rotate(180) translate(-30 -48)">
    <use xlink:href="#rim"/>
    <path pointer-events="none" fill="none" stroke="white" stroke-width="1.5" d="M0,-3.0v7 M-2.5,-0.5L0,-3.0L2.5,-0.5"/>
  </g>
  <g id="arrowLeft" transform="rotate(270) translate(-36 17)">
    <use xlink:href="#rim"/>
    <path pointer-events="none" fill="none" stroke="white" stroke-width="1.5" d="M0,-3.0v7 M-2.5,-0.5L0,-3.0L2.5,-0.5"/>
  </g>
  <g id="resetDef">
    <use xlink:href="#rim2" fill="#404040"><set attributeName="fill" to="#808080" begin="reset.mouseover" end="reset.mouseout"/></use>
  </g>
</defs>
<script type="application/ecmascript">
var viewWidth = 1779;
var viewHeight = 335;
var sectionId = 'dynsection-1';
</script>
<script type="application/ecmascript" xlink:href="svg.min.js"/>
<svg id="graph" class="graph">
<g id="viewport">
<title>src/alpaqa/include/alpaqa/outer/internal/alm&#45;helpers.hpp</title>
<!-- Node1 -->
<g id="Node000001" class="node">
<title>Node1</title>
<g id="a_Node000001"><a xlink:title=" ">
<polygon fill="#999999" stroke="#666666" points="1058,-327 936,-327 936,-286 1058,-286 1058,-327"/>
<text text-anchor="start" x="944" y="-315" font-family="Helvetica,sans-Serif" font-size="10.00">src/alpaqa/include</text>
<text text-anchor="start" x="944" y="-304" font-family="Helvetica,sans-Serif" font-size="10.00">/alpaqa/outer/internal</text>
<text text-anchor="middle" x="997" y="-293" font-family="Helvetica,sans-Serif" font-size="10.00">/alm&#45;helpers.hpp</text>
</a>
</g>
</g>
<!-- Node2 -->
<g id="Node000002" class="node">
<title>Node2</title>
<g id="a_Node000002"><a xlink:href="alm_8hpp.html" target="_top" xlink:title=" ">
<polygon fill="white" stroke="#666666" points="1059,-250 935,-250 935,-220 1059,-220 1059,-250"/>
<text text-anchor="start" x="943" y="-238" font-family="Helvetica,sans-Serif" font-size="10.00">src/alpaqa/include</text>
<text text-anchor="middle" x="997" y="-227" font-family="Helvetica,sans-Serif" font-size="10.00">/alpaqa/outer/alm.hpp</text>
</a>
</g>
</g>
<!-- Node1&#45;&gt;Node2 -->
<g id="edge1_Node000001_Node000002" class="edge">
<title>Node1&#45;&gt;Node2</title>
<g id="a_edge1_Node000001_Node000002"><a xlink:title=" ">
<path fill="none" stroke="#63b8ff" d="M997,-275.66C997,-266.76 997,-257.42 997,-250.04"/>
<polygon fill="#63b8ff" stroke="#63b8ff" points="993.5,-275.77 997,-285.77 1000.5,-275.77 993.5,-275.77"/>
</a>
</g>
</g>
<!-- Node3 -->
<g id="Node000003" class="node">
<title>Node3</title>
<g id="a_Node000003"><a xlink:href="alm_8tpp.html" target="_top" xlink:title=" ">
<polygon fill="white" stroke="#666666" points="1066,-107 932,-107 932,-66 1066,-66 1066,-107"/>
<text text-anchor="start" x="940" y="-95" font-family="Helvetica,sans-Serif" font-size="10.00">src/alpaqa/include</text>
<text text-anchor="start" x="940" y="-84" font-family="Helvetica,sans-Serif" font-size="10.00">/alpaqa/implementation</text>
<text text-anchor="middle" x="999" y="-73" font-family="Helvetica,sans-Serif" font-size="10.00">/outer/alm.tpp</text>
</a>
</g>
</g>
<!-- Node2&#45;&gt;Node3 -->
<g id="edge2_Node000002_Node000003" class="edge">
<title>Node2&#45;&gt;Node3</title>
<g id="a_edge2_Node000002_Node000003"><a xlink:title=" ">
<path fill="none" stroke="#63b8ff" d="M997.33,-209.58C997.73,-180.88 998.37,-133.8 998.73,-107.27"/>
<polygon fill="#63b8ff" stroke="#63b8ff" points="993.83,-209.91 997.19,-219.95 1000.83,-210 993.83,-209.91"/>
</a>
</g>
</g>
<!-- Node12 -->
<g id="Node000012" class="node">
<title>Node12</title>
<g id="a_Node000012"><a xlink:href="alm-helpers_8tpp.html" target="_top" xlink:title=" ">
<polygon fill="white" stroke="#666666" points="950,-184 784,-184 784,-143 950,-143 950,-184"/>
<text text-anchor="start" x="792" y="-172" font-family="Helvetica,sans-Serif" font-size="10.00">src/alpaqa/include</text>
<text text-anchor="start" x="792" y="-161" font-family="Helvetica,sans-Serif" font-size="10.00">/alpaqa/implementation</text>
<text text-anchor="middle" x="867" y="-150" font-family="Helvetica,sans-Serif" font-size="10.00">/outer/internal/alm&#45;helpers.tpp</text>
</a>
</g>
</g>
<!-- Node2&#45;&gt;Node12 -->
<g id="edge11_Node000002_Node000012" class="edge">
<title>Node2&#45;&gt;Node12</title>
<g id="a_edge11_Node000002_Node000012"><a xlink:title=" ">
<path fill="none" stroke="#63b8ff" d="M961.67,-215.11C943.67,-205.49 921.79,-193.79 903.61,-184.07"/>
<polygon fill="#63b8ff" stroke="#63b8ff" points="960.22,-218.31 970.69,-219.94 963.52,-212.13 960.22,-218.31"/>
</a>
</g>
</g>
<!-- Node14 -->
<g id="Node000014" class="node">
<title>Node14</title>
<g id="a_Node000014"><a xlink:href="newton-tr-pantr-alm_8hpp.html" target="_top" xlink:title=" ">
<polygon fill="white" stroke="#666666" points="438,-107 306,-107 306,-66 438,-66 438,-107"/>
<text text-anchor="start" x="314" y="-95" font-family="Helvetica,sans-Serif" font-size="10.00">src/alpaqa/include</text>
<text text-anchor="start" x="314" y="-84" font-family="Helvetica,sans-Serif" font-size="10.00">/alpaqa/newton&#45;tr&#45;pantr</text>
<text text-anchor="middle" x="372" y="-73" font-family="Helvetica,sans-Serif" font-size="10.00">&#45;alm.hpp</text>
</a>
</g>
</g>
<!-- Node2&#45;&gt;Node14 -->
<g id="edge14_Node000002_Node000014" class="edge">
<title>Node2&#45;&gt;Node14</title>
<g id="a_edge14_Node000002_Node000014"><a xlink:title=" ">
<path fill="none" stroke="#63b8ff" d="M924.6,-232.74C800.82,-229.65 554.32,-219.15 476,-184 437.8,-166.86 404.47,-129.93 386.39,-107.05"/>
<polygon fill="#63b8ff" stroke="#63b8ff" points="924.66,-236.24 934.74,-232.98 924.83,-229.24 924.66,-236.24"/>
</a>
</g>
</g>
<!-- Node15 -->
<g id="Node000015" class="node">
<title>Node15</title>
<g id="a_Node000015"><a xlink:href="panoc-alm_8hpp.html" target="_top" xlink:title=" ">
<polygon fill="white" stroke="#666666" points="613,-178.5 485,-178.5 485,-148.5 613,-148.5 613,-178.5"/>
<text text-anchor="start" x="493" y="-166.5" font-family="Helvetica,sans-Serif" font-size="10.00">src/alpaqa/include</text>
<text text-anchor="middle" x="549" y="-155.5" font-family="Helvetica,sans-Serif" font-size="10.00">/alpaqa/panoc&#45;alm.hpp</text>
</a>
</g>
</g>
<!-- Node2&#45;&gt;Node15 -->
<g id="edge16_Node000002_Node000015" class="edge">
<title>Node2&#45;&gt;Node15</title>
<g id="a_edge16_Node000002_Node000015"><a xlink:title=" ">
<path fill="none" stroke="#63b8ff" d="M924.74,-222.79C838.56,-209.42 695.81,-187.28 613.3,-174.47"/>
<polygon fill="#63b8ff" stroke="#63b8ff" points="924.29,-226.26 934.71,-224.34 925.36,-219.34 924.29,-226.26"/>
</a>
</g>
</g>
<!-- Node17 -->
<g id="Node000017" class="node">
<title>Node17</title>
<g id="a_Node000017"><a xlink:href="panoc-anderson-alm_8hpp.html" target="_top" xlink:title=" ">
<polygon fill="white" stroke="#666666" points="756,-107 622,-107 622,-66 756,-66 756,-107"/>
<text text-anchor="start" x="630" y="-95" font-family="Helvetica,sans-Serif" font-size="10.00">src/alpaqa/include</text>
<text text-anchor="start" x="630" y="-84" font-family="Helvetica,sans-Serif" font-size="10.00">/alpaqa/panoc&#45;anderson</text>
<text text-anchor="middle" x="689" y="-73" font-family="Helvetica,sans-Serif" font-size="10.00">&#45;alm.hpp</text>
</a>
</g>
</g>
<!-- Node2&#45;&gt;Node17 -->
<g id="edge19_Node000002_Node000017" class="edge">
<title>Node2&#45;&gt;Node17</title>
<g id="a_edge19_Node000002_Node000017"><a xlink:title=" ">
<path fill="none" stroke="#63b8ff" d="M924.75,-229.04C879.19,-223.28 820.58,-210.84 775,-184 742.51,-164.87 715.63,-129.29 700.98,-107.09"/>
<polygon fill="#63b8ff" stroke="#63b8ff" points="924.51,-232.54 934.85,-230.24 925.33,-225.59 924.51,-232.54"/>
</a>
</g>
</g>
<!-- Node18 -->
<g id="Node000018" class="node">
<title>Node18</title>
<g id="a_Node000018"><a xlink:href="structured-panoc-alm_8hpp.html" target="_top" xlink:title=" ">
<polygon fill="white" stroke="#666666" points="1222,-107 1084,-107 1084,-66 1222,-66 1222,-107"/>
<text text-anchor="start" x="1092" y="-95" font-family="Helvetica,sans-Serif" font-size="10.00">src/alpaqa/include</text>
<text text-anchor="start" x="1092" y="-84" font-family="Helvetica,sans-Serif" font-size="10.00">/alpaqa/structured&#45;panoc</text>
<text text-anchor="middle" x="1153" y="-73" font-family="Helvetica,sans-Serif" font-size="10.00">&#45;alm.hpp</text>
</a>
</g>
</g>
<!-- Node2&#45;&gt;Node18 -->
<g id="edge21_Node000002_Node000018" class="edge">
<title>Node2&#45;&gt;Node18</title>
<g id="a_edge21_Node000002_Node000018"><a xlink:title=" ">
<path fill="none" stroke="#63b8ff" d="M1002.23,-210.02C1007.68,-189.95 1018.01,-161.68 1036,-143 1051.05,-127.37 1071.37,-115.64 1090.86,-107.09"/>
<polygon fill="#63b8ff" stroke="#63b8ff" points="998.78,-209.39 999.75,-219.94 1005.57,-211.09 998.78,-209.39"/>
</a>
</g>
</g>
<!-- Node19 -->
<g id="Node000019" class="node">
<title>Node19</title>
<g id="a_Node000019"><a xlink:href="structured-zerofpr-alm_8hpp.html" target="_top" xlink:title=" ">
<polygon fill="white" stroke="#666666" points="1187.5,-184 1044.5,-184 1044.5,-143 1187.5,-143 1187.5,-184"/>
<text text-anchor="start" x="1052.5" y="-172" font-family="Helvetica,sans-Serif" font-size="10.00">src/alpaqa/include</text>
<text text-anchor="start" x="1052.5" y="-161" font-family="Helvetica,sans-Serif" font-size="10.00">/alpaqa/structured&#45;zerofpr</text>
<text text-anchor="middle" x="1116" y="-150" font-family="Helvetica,sans-Serif" font-size="10.00">&#45;alm.hpp</text>
</a>
</g>
</g>
<!-- Node2&#45;&gt;Node19 -->
<g id="edge23_Node000002_Node000019" class="edge">
<title>Node2&#45;&gt;Node19</title>
<g id="a_edge23_Node000002_Node000019"><a xlink:title=" ">
<path fill="none" stroke="#63b8ff" d="M1029.8,-214.85C1046.19,-205.27 1065.99,-193.71 1082.49,-184.07"/>
<polygon fill="#63b8ff" stroke="#63b8ff" points="1027.95,-211.87 1021.08,-219.94 1031.48,-217.91 1027.95,-211.87"/>
</a>
</g>
</g>
<!-- Node20 -->
<g id="Node000020" class="node">
<title>Node20</title>
<g id="a_Node000020"><a xlink:href="zerofpr-alm_8hpp.html" target="_top" xlink:title=" ">
<polygon fill="white" stroke="#666666" points="1340,-178.5 1206,-178.5 1206,-148.5 1340,-148.5 1340,-178.5"/>
<text text-anchor="start" x="1214" y="-166.5" font-family="Helvetica,sans-Serif" font-size="10.00">src/alpaqa/include</text>
<text text-anchor="middle" x="1273" y="-155.5" font-family="Helvetica,sans-Serif" font-size="10.00">/alpaqa/zerofpr&#45;alm.hpp</text>
</a>
</g>
</g>
<!-- Node2&#45;&gt;Node20 -->
<g id="edge25_Node000002_Node000020" class="edge">
<title>Node2&#45;&gt;Node20</title>
<g id="a_edge25_Node000002_Node000020"><a xlink:title=" ">
<path fill="none" stroke="#63b8ff" d="M1063.64,-217.45C1102.55,-207.76 1152.57,-195.25 1197,-184 1203.87,-182.26 1211.08,-180.42 1218.21,-178.6"/>
<polygon fill="#63b8ff" stroke="#63b8ff" points="1062.35,-214.16 1053.49,-219.98 1064.04,-220.96 1062.35,-214.16"/>
</a>
</g>
</g>
<!-- Node21 -->
<g id="Node000021" class="node">
<title>Node21</title>
<g id="a_Node000021"><a xlink:href="zerofpr-anderson-alm_8hpp.html" target="_top" xlink:title=" ">
<polygon fill="white" stroke="#666666" points="1497.5,-184 1358.5,-184 1358.5,-143 1497.5,-143 1497.5,-184"/>
<text text-anchor="start" x="1366.5" y="-172" font-family="Helvetica,sans-Serif" font-size="10.00">src/alpaqa/include</text>
<text text-anchor="start" x="1366.5" y="-161" font-family="Helvetica,sans-Serif" font-size="10.00">/alpaqa/zerofpr&#45;anderson</text>
<text text-anchor="middle" x="1428" y="-150" font-family="Helvetica,sans-Serif" font-size="10.00">&#45;alm.hpp</text>
</a>
</g>
</g>
<!-- Node2&#45;&gt;Node21 -->
<g id="edge27_Node000002_Node000021" class="edge">
<title>Node2&#45;&gt;Node21</title>
<g id="a_edge27_Node000002_Node000021"><a xlink:title=" ">
<path fill="none" stroke="#63b8ff" d="M1069.55,-225.86C1140.97,-217.35 1252.98,-202.62 1349,-184 1352.05,-183.41 1355.16,-182.77 1358.3,-182.11"/>
<polygon fill="#63b8ff" stroke="#63b8ff" points="1068.83,-222.42 1059.31,-227.08 1069.65,-229.38 1068.83,-222.42"/>
</a>
</g>
</g>
<!-- Node22 -->
<g id="Node000022" class="node">
<title>Node22</title>
<g id="a_Node000022"><a xlink:href="alm-driver_8hpp.html" target="_top" xlink:title=" ">
<polygon fill="white" stroke="#666666" points="245,-178.5 129,-178.5 129,-148.5 245,-148.5 245,-178.5"/>
<text text-anchor="start" x="137" y="-166.5" font-family="Helvetica,sans-Serif" font-size="10.00">src/alpaqa/src/driver</text>
<text text-anchor="middle" x="187" y="-155.5" font-family="Helvetica,sans-Serif" font-size="10.00">/alm&#45;driver.hpp</text>
</a>
</g>
</g>
<!-- Node2&#45;&gt;Node22 -->
<g id="edge29_Node000002_Node000022" class="edge">
<title>Node2&#45;&gt;Node22</title>
<g id="a_edge29_Node000002_Node000022"><a xlink:title=" ">
<path fill="none" stroke="#63b8ff" d="M924.48,-228.11C812.11,-218.94 589.14,-200.58 400,-184 347.66,-179.41 288.1,-173.94 245.3,-169.96"/>
<polygon fill="#63b8ff" stroke="#63b8ff" points="924.42,-231.62 934.67,-228.94 924.99,-224.64 924.42,-231.62"/>
</a>
</g>
</g>
<!-- Node25 -->
<g id="Node000025" class="node">
<title>Node25</title>
<g id="a_Node000025"><a xlink:href="alm_8cpp.html" target="_top" xlink:title=" ">
<polygon fill="white" stroke="#666666" points="1628.5,-178.5 1515.5,-178.5 1515.5,-148.5 1628.5,-148.5 1628.5,-178.5"/>
<text text-anchor="start" x="1523.5" y="-166.5" font-family="Helvetica,sans-Serif" font-size="10.00">src/alpaqa/src/outer</text>
<text text-anchor="middle" x="1572" y="-155.5" font-family="Helvetica,sans-Serif" font-size="10.00">/alm.cpp</text>
</a>
</g>
</g>
<!-- Node2&#45;&gt;Node25 -->
<g id="edge33_Node000002_Node000025" class="edge">
<title>Node2&#45;&gt;Node25</title>
<g id="a_edge33_Node000002_Node000025"><a xlink:title=" ">
<path fill="none" stroke="#63b8ff" d="M1069.43,-231.31C1168.88,-226.63 1352.94,-214.36 1507,-184 1514.28,-182.56 1521.92,-180.65 1529.29,-178.59"/>
<polygon fill="#63b8ff" stroke="#63b8ff" points="1069.02,-227.83 1059.19,-231.78 1069.34,-234.82 1069.02,-227.83"/>
</a>
</g>
</g>
<!-- Node26 -->
<g id="Node000026" class="node">
<title>Node26</title>
<g id="a_Node000026"><a xlink:href="params_8cpp.html" target="_top" xlink:title=" ">
<polygon fill="white" stroke="#666666" points="1771,-178.5 1647,-178.5 1647,-148.5 1771,-148.5 1771,-178.5"/>
<text text-anchor="start" x="1655" y="-166.5" font-family="Helvetica,sans-Serif" font-size="10.00">src/alpaqa/src/params</text>
<text text-anchor="middle" x="1709" y="-155.5" font-family="Helvetica,sans-Serif" font-size="10.00">/params.cpp</text>
</a>
</g>
</g>
<!-- Node2&#45;&gt;Node26 -->
<g id="edge34_Node000002_Node000026" class="edge">
<title>Node2&#45;&gt;Node26</title>
<g id="a_edge34_Node000002_Node000026"><a xlink:title=" ">
<path fill="none" stroke="#63b8ff" d="M1069.48,-232.82C1188.85,-229.89 1433.93,-219.65 1638,-184 1646.06,-182.59 1654.53,-180.67 1662.69,-178.58"/>
<polygon fill="#63b8ff" stroke="#63b8ff" points="1069.28,-229.33 1059.37,-233.06 1069.45,-236.33 1069.28,-229.33"/>
</a>
</g>
</g>
<!-- Node4 -->
<g id="Node000004" class="node">
<title>Node4</title>
<g id="a_Node000004"><a xlink:href="fista-driver_8cpp.html" target="_top" xlink:title=" ">
<polygon fill="white" stroke="#666666" points="258,-30 142,-30 142,0 258,0 258,-30"/>
<text text-anchor="start" x="150" y="-18" font-family="Helvetica,sans-Serif" font-size="10.00">src/alpaqa/src/driver</text>
<text text-anchor="middle" x="200" y="-7" font-family="Helvetica,sans-Serif" font-size="10.00">/fista&#45;driver.cpp</text>
</a>
</g>
</g>
<!-- Node3&#45;&gt;Node4 -->
<g id="edge3_Node000003_Node000004" class="edge">
<title>Node3&#45;&gt;Node4</title>
<g id="a_edge3_Node000003_Node000004"><a xlink:title=" ">
<path fill="none" stroke="#63b8ff" d="M921.53,-65.93C652.46,-24.75 579.58,-54.58 312,-30 294.44,-28.39 275.38,-26.18 258.05,-23.99"/>
<polygon fill="#63b8ff" stroke="#63b8ff" points="921.18,-69.42 931.6,-67.49 922.25,-62.5 921.18,-69.42"/>
</a>
</g>
</g>
<!-- Node5 -->
<g id="Node000005" class="node">
<title>Node5</title>
<g id="a_Node000005"><a xlink:href="newton-tr-pantr-alm_8cpp.html" target="_top" xlink:title=" ">
<polygon fill="white" stroke="#666666" points="444.5,-30 321.5,-30 321.5,0 444.5,0 444.5,-30"/>
<text text-anchor="start" x="329.5" y="-18" font-family="Helvetica,sans-Serif" font-size="10.00">src/alpaqa/src/newton</text>
<text text-anchor="middle" x="383" y="-7" font-family="Helvetica,sans-Serif" font-size="10.00">&#45;tr&#45;pantr&#45;alm.cpp</text>
</a>
</g>
</g>
<!-- Node3&#45;&gt;Node5 -->
<g id="edge4_Node000003_Node000005" class="edge">
<title>Node3&#45;&gt;Node5</title>
<g id="a_edge4_Node000003_Node000005"><a xlink:title=" ">
<path fill="none" stroke="#63b8ff" d="M921.91,-66.26C858.24,-58.26 572.21,-32.74 444.6,-21.44"/>
<polygon fill="#63b8ff" stroke="#63b8ff" points="921.6,-69.75 931.99,-67.69 922.58,-62.82 921.6,-69.75"/>
</a>
</g>
</g>
<!-- Node6 -->
<g id="Node000006" class="node">
<title>Node6</title>
<g id="a_Node000006"><a xlink:href="panoc-alm_8cpp.html" target="_top" xlink:title=" ">
<polygon fill="white" stroke="#666666" points="666,-30 550,-30 550,0 666,0 666,-30"/>
<text text-anchor="start" x="558" y="-18" font-family="Helvetica,sans-Serif" font-size="10.00">src/alpaqa/src/panoc</text>
<text text-anchor="middle" x="608" y="-7" font-family="Helvetica,sans-Serif" font-size="10.00">&#45;alm.cpp</text>
</a>
</g>
</g>
<!-- Node3&#45;&gt;Node6 -->
<g id="edge5_Node000003_Node000006" class="edge">
<title>Node3&#45;&gt;Node6</title>
<g id="a_edge5_Node000003_Node000006"><a xlink:title=" ">
<path fill="none" stroke="#63b8ff" d="M922,-66.12C882.32,-59.27 745.69,-37.7 666.16,-25.16"/>
<polygon fill="#63b8ff" stroke="#63b8ff" points="921.48,-69.58 931.94,-67.93 922.73,-62.69 921.48,-69.58"/>
</a>
</g>
</g>
<!-- Node7 -->
<g id="Node000007" class="node">
<title>Node7</title>
<g id="a_Node000007"><a xlink:href="panoc-anderson-alm_8cpp.html" target="_top" xlink:title=" ">
<polygon fill="white" stroke="#666666" points="822,-30 706,-30 706,0 822,0 822,-30"/>
<text text-anchor="start" x="714" y="-18" font-family="Helvetica,sans-Serif" font-size="10.00">src/alpaqa/src/panoc</text>
<text text-anchor="middle" x="764" y="-7" font-family="Helvetica,sans-Serif" font-size="10.00">&#45;anderson&#45;alm.cpp</text>
</a>
</g>
</g>
<!-- Node3&#45;&gt;Node7 -->
<g id="edge6_Node000003_Node000007" class="edge">
<title>Node3&#45;&gt;Node7</title>
<g id="a_edge6_Node000003_Node000007"><a xlink:title=" ">
<path fill="none" stroke="#63b8ff" d="M923.22,-63.09C886.44,-52.21 843.4,-39.48 811.35,-30"/>
<polygon fill="#63b8ff" stroke="#63b8ff" points="922.33,-66.48 932.91,-65.96 924.32,-59.76 922.33,-66.48"/>
</a>
</g>
</g>
<!-- Node8 -->
<g id="Node000008" class="node">
<title>Node8</title>
<g id="a_Node000008"><a xlink:href="structured-panoc-alm_8cpp.html" target="_top" xlink:title=" ">
<polygon fill="white" stroke="#666666" points="1053.5,-30 916.5,-30 916.5,0 1053.5,0 1053.5,-30"/>
<text text-anchor="start" x="924.5" y="-18" font-family="Helvetica,sans-Serif" font-size="10.00">src/alpaqa/src/structured</text>
<text text-anchor="middle" x="985" y="-7" font-family="Helvetica,sans-Serif" font-size="10.00">&#45;panoc&#45;alm.cpp</text>
</a>
</g>
</g>
<!-- Node3&#45;&gt;Node8 -->
<g id="edge7_Node000003_Node000008" class="edge">
<title>Node3&#45;&gt;Node8</title>
<g id="a_edge7_Node000003_Node000008"><a xlink:title=" ">
<path fill="none" stroke="#63b8ff" d="M993.05,-55.95C991.24,-46.96 989.33,-37.5 987.83,-30.04"/>
<polygon fill="#63b8ff" stroke="#63b8ff" points="989.62,-56.66 995.03,-65.77 996.48,-55.28 989.62,-56.66"/>
</a>
</g>
</g>
<!-- Node9 -->
<g id="Node000009" class="node">
<title>Node9</title>
<g id="a_Node000009"><a xlink:href="structured-zerofpr-alm_8cpp.html" target="_top" xlink:title=" ">
<polygon fill="white" stroke="#666666" points="1208.5,-30 1071.5,-30 1071.5,0 1208.5,0 1208.5,-30"/>
<text text-anchor="start" x="1079.5" y="-18" font-family="Helvetica,sans-Serif" font-size="10.00">src/alpaqa/src/structured</text>
<text text-anchor="middle" x="1140" y="-7" font-family="Helvetica,sans-Serif" font-size="10.00">&#45;zerofpr&#45;alm.cpp</text>
</a>
</g>
</g>
<!-- Node3&#45;&gt;Node9 -->
<g id="edge8_Node000003_Node000009" class="edge">
<title>Node3&#45;&gt;Node9</title>
<g id="a_edge8_Node000003_Node000009"><a xlink:title=" ">
<path fill="none" stroke="#63b8ff" d="M1047.84,-61.42C1069.04,-50.98 1093.14,-39.1 1111.37,-30.11"/>
<polygon fill="#63b8ff" stroke="#63b8ff" points="1046.07,-58.39 1038.65,-65.96 1049.17,-64.67 1046.07,-58.39"/>
</a>
</g>
</g>
<!-- Node10 -->
<g id="Node000010" class="node">
<title>Node10</title>
<g id="a_Node000010"><a xlink:href="zerofpr-alm_8cpp.html" target="_top" xlink:title=" ">
<polygon fill="white" stroke="#666666" points="1349,-30 1227,-30 1227,0 1349,0 1349,-30"/>
<text text-anchor="start" x="1235" y="-18" font-family="Helvetica,sans-Serif" font-size="10.00">src/alpaqa/src/zerofpr</text>
<text text-anchor="middle" x="1288" y="-7" font-family="Helvetica,sans-Serif" font-size="10.00">&#45;alm.cpp</text>
</a>
</g>
</g>
<!-- Node3&#45;&gt;Node10 -->
<g id="edge9_Node000003_Node000010" class="edge">
<title>Node3&#45;&gt;Node10</title>
<g id="a_edge9_Node000003_Node000010"><a xlink:title=" ">
<path fill="none" stroke="#63b8ff" d="M1075.94,-65.79C1132.4,-51.97 1186.57,-39.31 1226.86,-30"/>
<polygon fill="#63b8ff" stroke="#63b8ff" points="1075,-62.42 1066.12,-68.2 1076.66,-69.22 1075,-62.42"/>
</a>
</g>
</g>
<!-- Node11 -->
<g id="Node000011" class="node">
<title>Node11</title>
<g id="a_Node000011"><a xlink:href="zerofpr-anderson-alm_8cpp.html" target="_top" xlink:title=" ">
<polygon fill="white" stroke="#666666" points="1489,-30 1367,-30 1367,0 1489,0 1489,-30"/>
<text text-anchor="start" x="1375" y="-18" font-family="Helvetica,sans-Serif" font-size="10.00">src/alpaqa/src/zerofpr</text>
<text text-anchor="middle" x="1428" y="-7" font-family="Helvetica,sans-Serif" font-size="10.00">&#45;anderson&#45;alm.cpp</text>
</a>
</g>
</g>
<!-- Node3&#45;&gt;Node11 -->
<g id="edge10_Node000003_Node000011" class="edge">
<title>Node3&#45;&gt;Node11</title>
<g id="a_edge10_Node000003_Node000011"><a xlink:title=" ">
<path fill="none" stroke="#63b8ff" d="M1076.01,-65.93C1201.29,-42.6 1236.05,-49.93 1358,-30 1360.94,-29.52 1363.94,-29.01 1366.96,-28.47"/>
<polygon fill="#63b8ff" stroke="#63b8ff" points="1075.21,-62.52 1066.03,-67.82 1076.51,-69.4 1075.21,-62.52"/>
</a>
</g>
</g>
<!-- Node12&#45;&gt;Node3 -->
<g id="edge12_Node000012_Node000003" class="edge">
<title>Node12&#45;&gt;Node3</title>
<g id="a_edge12_Node000012_Node000003"><a xlink:title=" ">
<path fill="none" stroke="#63b8ff" d="M910.26,-137.92C927.82,-127.95 947.81,-116.58 964.38,-107.17"/>
<polygon fill="#63b8ff" stroke="#63b8ff" points="908.3,-135.01 901.34,-142.99 911.76,-141.09 908.3,-135.01"/>
</a>
</g>
</g>
<!-- Node13 -->
<g id="Node000013" class="node">
<title>Node13</title>
<g id="a_Node000013"><a xlink:href="alm-helpers_8cpp.html" target="_top" xlink:title=" ">
<polygon fill="white" stroke="#666666" points="913.5,-101.5 774.5,-101.5 774.5,-71.5 913.5,-71.5 913.5,-101.5"/>
<text text-anchor="start" x="782.5" y="-89.5" font-family="Helvetica,sans-Serif" font-size="10.00">src/alpaqa/src/outer</text>
<text text-anchor="middle" x="844" y="-78.5" font-family="Helvetica,sans-Serif" font-size="10.00">/internal/alm&#45;helpers.cpp</text>
</a>
</g>
</g>
<!-- Node12&#45;&gt;Node13 -->
<g id="edge13_Node000012_Node000013" class="edge">
<title>Node12&#45;&gt;Node13</title>
<g id="a_edge13_Node000012_Node000013"><a xlink:title=" ">
<path fill="none" stroke="#63b8ff" d="M857.94,-132.94C854.66,-122.25 851.1,-110.66 848.4,-101.86"/>
<polygon fill="#63b8ff" stroke="#63b8ff" points="854.68,-134.26 860.96,-142.79 861.37,-132.21 854.68,-134.26"/>
</a>
</g>
</g>
<!-- Node14&#45;&gt;Node5 -->
<g id="edge15_Node000014_Node000005" class="edge">
<title>Node14&#45;&gt;Node5</title>
<g id="a_edge15_Node000014_Node000005"><a xlink:title=" ">
<path fill="none" stroke="#63b8ff" d="M376.72,-55.66C378.13,-46.76 379.61,-37.42 380.78,-30.04"/>
<polygon fill="#63b8ff" stroke="#63b8ff" points="373.23,-55.35 375.12,-65.77 380.14,-56.44 373.23,-55.35"/>
</a>
</g>
</g>
<!-- Node15&#45;&gt;Node6 -->
<g id="edge18_Node000015_Node000006" class="edge">
<title>Node15&#45;&gt;Node6</title>
<g id="a_edge18_Node000015_Node000006"><a xlink:title=" ">
<path fill="none" stroke="#63b8ff" d="M515.92,-142.6C503.84,-133.42 491.55,-121.35 485,-107 477.43,-90.42 474.83,-81.12 485,-66 499.67,-44.2 525.67,-31.9 549.99,-24.96"/>
<polygon fill="#63b8ff" stroke="#63b8ff" points="514,-145.52 524.17,-148.48 518.06,-139.82 514,-145.52"/>
</a>
</g>
</g>
<!-- Node16 -->
<g id="Node000016" class="node">
<title>Node16</title>
<g id="a_Node000016"><a xlink:href="alpaqa_8hpp.html" target="_top" xlink:title=" ">
<polygon fill="white" stroke="#666666" points="604,-101.5 494,-101.5 494,-71.5 604,-71.5 604,-101.5"/>
<text text-anchor="start" x="502" y="-89.5" font-family="Helvetica,sans-Serif" font-size="10.00">src/alpaqa/include</text>
<text text-anchor="middle" x="549" y="-78.5" font-family="Helvetica,sans-Serif" font-size="10.00">/alpaqa/alpaqa.hpp</text>
</a>
</g>
</g>
<!-- Node15&#45;&gt;Node16 -->
<g id="edge17_Node000015_Node000016" class="edge">
<title>Node15&#45;&gt;Node16</title>
<g id="a_edge17_Node000015_Node000016"><a xlink:title=" ">
<path fill="none" stroke="#63b8ff" d="M549,-138.04C549,-125.95 549,-111.79 549,-101.54"/>
<polygon fill="#63b8ff" stroke="#63b8ff" points="545.5,-138.39 549,-148.39 552.5,-138.39 545.5,-138.39"/>
</a>
</g>
</g>
<!-- Node17&#45;&gt;Node7 -->
<g id="edge20_Node000017_Node000007" class="edge">
<title>Node17&#45;&gt;Node7</title>
<g id="a_edge20_Node000017_Node000007"><a xlink:title=" ">
<path fill="none" stroke="#63b8ff" d="M717.78,-58.83C728.36,-49.02 739.93,-38.3 748.85,-30.04"/>
<polygon fill="#63b8ff" stroke="#63b8ff" points="715.25,-56.41 710.29,-65.77 720.01,-61.54 715.25,-56.41"/>
</a>
</g>
</g>
<!-- Node18&#45;&gt;Node8 -->
<g id="edge22_Node000018_Node000008" class="edge">
<title>Node18&#45;&gt;Node8</title>
<g id="a_edge22_Node000018_Node000008"><a xlink:title=" ">
<path fill="none" stroke="#63b8ff" d="M1096.46,-62.11C1070.71,-51.46 1041.08,-39.2 1018.85,-30"/>
<polygon fill="#63b8ff" stroke="#63b8ff" points="1095.18,-65.37 1105.76,-65.96 1097.85,-58.9 1095.18,-65.37"/>
</a>
</g>
</g>
<!-- Node19&#45;&gt;Node9 -->
<g id="edge24_Node000019_Node000009" class="edge">
<title>Node19&#45;&gt;Node9</title>
<g id="a_edge24_Node000019_Node000009"><a xlink:title=" ">
<path fill="none" stroke="#63b8ff" d="M1196.52,-138.18C1210.22,-130.41 1222.68,-120.25 1231,-107 1240.69,-91.57 1240.28,-81.68 1231,-66 1221.09,-49.24 1203.34,-37.73 1186.14,-30.01"/>
<polygon fill="#63b8ff" stroke="#63b8ff" points="1194.62,-135.22 1187.38,-142.94 1197.86,-141.42 1194.62,-135.22"/>
</a>
</g>
</g>
<!-- Node20&#45;&gt;Node10 -->
<g id="edge26_Node000020_Node000010" class="edge">
<title>Node20&#45;&gt;Node10</title>
<g id="a_edge26_Node000020_Node000010"><a xlink:title=" ">
<path fill="none" stroke="#63b8ff" d="M1275.49,-138.15C1278.65,-107.32 1283.98,-55.22 1286.54,-30.22"/>
<polygon fill="#63b8ff" stroke="#63b8ff" points="1271.98,-138.15 1274.44,-148.45 1278.94,-138.86 1271.98,-138.15"/>
</a>
</g>
</g>
<!-- Node21&#45;&gt;Node11 -->
<g id="edge28_Node000021_Node000011" class="edge">
<title>Node21&#45;&gt;Node11</title>
<g id="a_edge28_Node000021_Node000011"><a xlink:title=" ">
<path fill="none" stroke="#63b8ff" d="M1428,-132.44C1428,-101.21 1428,-53.68 1428,-30.18"/>
<polygon fill="#63b8ff" stroke="#63b8ff" points="1424.5,-132.74 1428,-142.74 1431.5,-132.74 1424.5,-132.74"/>
</a>
</g>
</g>
<!-- Node22&#45;&gt;Node4 -->
<g id="edge30_Node000022_Node000004" class="edge">
<title>Node22&#45;&gt;Node4</title>
<g id="a_edge30_Node000022_Node000004"><a xlink:title=" ">
<path fill="none" stroke="#63b8ff" d="M173.84,-139.1C164.49,-119.38 154.91,-90.55 163,-66 167.46,-52.46 177.16,-39.59 185.51,-30.3"/>
<polygon fill="#63b8ff" stroke="#63b8ff" points="170.83,-140.91 178.47,-148.25 177.07,-137.75 170.83,-140.91"/>
</a>
</g>
</g>
<!-- Node23 -->
<g id="Node000023" class="node">
<title>Node23</title>
<g id="a_Node000023"><a xlink:href="panoc-driver_8cpp.html" target="_top" xlink:title=" ">
<polygon fill="white" stroke="#666666" points="288,-101.5 172,-101.5 172,-71.5 288,-71.5 288,-101.5"/>
<text text-anchor="start" x="180" y="-89.5" font-family="Helvetica,sans-Serif" font-size="10.00">src/alpaqa/src/driver</text>
<text text-anchor="middle" x="230" y="-78.5" font-family="Helvetica,sans-Serif" font-size="10.00">/panoc&#45;driver.cpp</text>
</a>
</g>
</g>
<!-- Node22&#45;&gt;Node23 -->
<g id="edge31_Node000022_Node000023" class="edge">
<title>Node22&#45;&gt;Node23</title>
<g id="a_edge31_Node000022_Node000023"><a xlink:title=" ">
<path fill="none" stroke="#63b8ff" d="M200.18,-139.51C207.29,-127.11 215.83,-112.21 221.95,-101.54"/>
<polygon fill="#63b8ff" stroke="#63b8ff" points="197.03,-137.98 195.09,-148.39 203.1,-141.46 197.03,-137.98"/>
</a>
</g>
</g>
<!-- Node24 -->
<g id="Node000024" class="node">
<title>Node24</title>
<g id="a_Node000024"><a xlink:href="pantr-driver_8cpp.html" target="_top" xlink:title=" ">
<polygon fill="white" stroke="#666666" points="116,-101.5 0,-101.5 0,-71.5 116,-71.5 116,-101.5"/>
<text text-anchor="start" x="8" y="-89.5" font-family="Helvetica,sans-Serif" font-size="10.00">src/alpaqa/src/driver</text>
<text text-anchor="middle" x="58" y="-78.5" font-family="Helvetica,sans-Serif" font-size="10.00">/pantr&#45;driver.cpp</text>
</a>
</g>
</g>
<!-- Node22&#45;&gt;Node24 -->
<g id="edge32_Node000022_Node000024" class="edge">
<title>Node22&#45;&gt;Node24</title>
<g id="a_edge32_Node000022_Node000024"><a xlink:title=" ">
<path fill="none" stroke="#63b8ff" d="M153.9,-143.25C131.49,-130.23 102.39,-113.31 82.16,-101.54"/>
<polygon fill="#63b8ff" stroke="#63b8ff" points="152.33,-146.39 162.74,-148.39 155.85,-140.34 152.33,-146.39"/>
</a>
</g>
</g>
</g>
</svg>

<g id="navigator" transform="translate(0 0)" fill="#404254">
  <rect fill="#f2f5e9" fill-opacity="0.5" stroke="#606060" stroke-width=".5" x="0" y="0" width="60" height="60"/>
  <use id="zoomplus" xlink:href="#zoomPlus" x="17" y="9" onmousedown="handleZoom(evt,'in')"/>
  <use id="zoomminus" xlink:href="#zoomMin" x="42" y="9" onmousedown="handleZoom(evt,'out')"/>
  <use id="reset" xlink:href="#resetDef" x="30" y="36" onmousedown="handleReset()"/>
   <use id="arrowup" xlink:href="#arrowUp" x="0" y="0" onmousedown="handlePan(0,-1)"/>
  <use id="arrowright" xlink:href="#arrowRight" x="0" y="0" onmousedown="handlePan(1,0)"/>
  <use id="arrowdown" xlink:href="#arrowDown" x="0" y="0" onmousedown="handlePan(0,1)"/>
  <use id="arrowleft" xlink:href="#arrowLeft" x="0" y="0" onmousedown="handlePan(-1,0)"/>
</g>
<svg viewBox="0 0 15 15" width="100%" height="30px" preserveAspectRatio="xMaxYMin meet">
 <g id="arrow_out" transform="scale(0.3 0.3)">
  <a xlink:href="alm-helpers_8hpp__dep__incl_org.svg" target="_base">
   <rect id="button" ry="5" rx="5" y="6" x="6" height="38" width="38"
        fill="#f2f5e9" fill-opacity="0.5" stroke="#606060" stroke-width="1.0"/>
   <path id="arrow"
     d="M 11.500037,31.436501 C 11.940474,20.09759 22.043105,11.32322 32.158766,21.979434 L 37.068811,17.246167 C 37.068811,17.246167 37.088388,32 37.088388,32 L 22.160133,31.978069 C 22.160133,31.978069 26.997745,27.140456 26.997745,27.140456 C 18.528582,18.264221 13.291696,25.230495 11.500037,31.436501 z"
     style="fill:#404040;"/>
  </a>
 </g>
</svg>

<style type='text/css'>
<![CDATA[
[data-mouse-over-selected='false'] { opacity: 0.7; }
[data-mouse-over-selected='true']  { opacity: 1.0; }
]]>
</style>
<script type="application/ecmascript"><![CDATA[
document.addEventListener('DOMContentLoaded', (event) => {
  highlightEdges();
  highlightAdjacentNodes();
});
]]></script>
</svg>
