<?xml version="1.0" encoding="UTF-8" standalone="no"?>
<!DOCTYPE svg PUBLIC "-//W3C//DTD SVG 1.1//EN"
 "http://www.w3.org/Graphics/SVG/1.1/DTD/svg11.dtd">
<!-- Generated by graphviz version 2.43.0 (0)
 -->
<!-- Title: get_solver_builder Pages: 1 -->
<!--zoomable 380 -->

<svg id="main" version="1.1" xmlns="http://www.w3.org/2000/svg" xmlns:xlink="http://www.w3.org/1999/xlink" xml:space="preserve" onload="init(evt)">
<style type="text/css"><![CDATA[
.node, .edge {opacity: 0.7;}
.node.selected, .edge.selected {opacity: 1;}
.edge:hover path { stroke: red; }
.edge:hover polygon { stroke: red; fill: red; }
]]></style>

<defs>
  <circle id="rim" cx="0" cy="0" r="7"/>
  <circle id="rim2" cx="0" cy="0" r="3.5"/>
  <g id="zoomPlus">
    <use xlink:href="#rim" fill="#404040"><set attributeName="fill" to="#808080" begin="zoomplus.mouseover" end="zoomplus.mouseout"/></use>
    <path d="M-4,0h8M0,-4v8" fill="none" stroke="white" stroke-width="1.5" pointer-events="none"/>
  </g>
  <g id="zoomMin">
    <use xlink:href="#rim" fill="#404040"><set attributeName="fill" to="#808080" begin="zoomminus.mouseover" end="zoomminus.mouseout"/></use>
    <path d="M-4,0h8" fill="none" stroke="white" stroke-width="1.5" pointer-events="none"/>
  </g>
  <g id="arrowUp" transform="translate(30 24)">
    <use xlink:href="#rim"/>
    <path pointer-events="none" fill="none" stroke="white" stroke-width="1.5" d="M0,-3.0v7 M-2.5,-0.5L0,-3.0L2.5,-0.5"/>
  </g>
  <g id="arrowRight" transform="rotate(90) translate(36 -43)">
    <use xlink:href="#rim"/>
    <path pointer-events="none" fill="none" stroke="white" stroke-width="1.5" d="M0,-3.0v7 M-2.5,-0.5L0,-3.0L2.5,-0.5"/>
  </g>
  <g id="arrowDown" transform="rotate(180) translate(-30 -48)">
    <use xlink:href="#rim"/>
    <path pointer-events="none" fill="none" stroke="white" stroke-width="1.5" d="M0,-3.0v7 M-2.5,-0.5L0,-3.0L2.5,-0.5"/>
  </g>
  <g id="arrowLeft" transform="rotate(270) translate(-36 17)">
    <use xlink:href="#rim"/>
    <path pointer-events="none" fill="none" stroke="white" stroke-width="1.5" d="M0,-3.0v7 M-2.5,-0.5L0,-3.0L2.5,-0.5"/>
  </g>
  <g id="resetDef">
    <use xlink:href="#rim2" fill="#404040"><set attributeName="fill" to="#808080" begin="reset.mouseover" end="reset.mouseout"/></use>
  </g>
</defs>
<script type="application/ecmascript">
var viewWidth = 595;
var viewHeight = 380;
var sectionId = 'dynsection-9';
</script>
<script type="application/ecmascript" xlink:href="svg.min.js"/>
<svg id="graph" class="graph">
<g id="viewport">
<title>get_solver_builder</title>
<!-- Node1 -->
<g id="Node000001" class="node">
<title>Node1</title>
<g id="a_Node000001"><a xlink:title=" ">
<polygon fill="#999999" stroke="#666666" points="107,-204.55 0,-204.55 0,-185.55 107,-185.55 107,-204.55"/>
<text text-anchor="middle" x="53.5" y="-192.55" font-family="Helvetica,sans-Serif" font-size="10.00">get_solver_builder</text>
</a>
</g>
</g>
<!-- Node2 -->
<g id="Node000002" class="node">
<title>Node2</title>
<g id="a_Node000002"><a xlink:href="util_8hpp.html#af497b5fe6ea036f154766b39508b338b" target="_top" xlink:title=" ">
<polygon fill="white" stroke="#666666" points="253,-371.55 150,-371.55 150,-352.55 253,-352.55 253,-371.55"/>
<text text-anchor="middle" x="201.5" y="-359.55" font-family="Helvetica,sans-Serif" font-size="10.00">format_string_list</text>
</a>
</g>
</g>
<!-- Node1&#45;&gt;Node2 -->
<g id="edge1_Node000001_Node000002" class="edge">
<title>Node1&#45;&gt;Node2</title>
<g id="a_edge1_Node000001_Node000002"><a xlink:title=" ">
<path fill="none" stroke="#63b8ff" d="M57.49,-204.71C66.17,-231.13 93.91,-305.23 143,-344.05 144.77,-345.45 146.64,-346.74 148.6,-347.93"/>
<polygon fill="#63b8ff" stroke="#63b8ff" points="147.08,-351.08 157.58,-352.53 150.28,-344.85 147.08,-351.08"/>
</a>
</g>
</g>
<!-- Node3 -->
<g id="Node000003" class="node">
<title>Node3</title>
<g id="a_Node000003"><a xlink:href="fista-driver_8cpp.html#a3080e58fe1053f672b75de34a403d459" target="_top" xlink:title=" ">
<polygon fill="white" stroke="#666666" points="253.5,-334.55 149.5,-334.55 149.5,-315.55 253.5,-315.55 253.5,-334.55"/>
<text text-anchor="middle" x="201.5" y="-322.55" font-family="Helvetica,sans-Serif" font-size="10.00">make_fista_driver</text>
</a>
</g>
</g>
<!-- Node1&#45;&gt;Node3 -->
<g id="edge2_Node000001_Node000003" class="edge">
<title>Node1&#45;&gt;Node3</title>
<g id="a_edge2_Node000001_Node000003"><a xlink:title=" ">
<path fill="none" stroke="#63b8ff" d="M59.49,-204.75C71.12,-226.4 102.17,-278.95 143,-307.05 145.23,-308.58 147.59,-309.99 150.04,-311.28"/>
<polygon fill="#63b8ff" stroke="#63b8ff" points="148.64,-314.49 159.19,-315.46 151.54,-308.12 148.64,-314.49"/>
</a>
</g>
</g>
<!-- Node4 -->
<g id="Node000004" class="node">
<title>Node4</title>
<g id="a_Node000004"><a xlink:href="ipopt-driver_8cpp.html#a9db57eebb9637ef5eac449bd549b2e2a" target="_top" xlink:title=" ">
<polygon fill="white" stroke="#666666" points="255,-297.55 148,-297.55 148,-278.55 255,-278.55 255,-297.55"/>
<text text-anchor="middle" x="201.5" y="-285.55" font-family="Helvetica,sans-Serif" font-size="10.00">make_ipopt_driver</text>
</a>
</g>
</g>
<!-- Node1&#45;&gt;Node4 -->
<g id="edge3_Node000001_Node000004" class="edge">
<title>Node1&#45;&gt;Node4</title>
<g id="a_edge3_Node000001_Node000004"><a xlink:title=" ">
<path fill="none" stroke="#63b8ff" d="M63.37,-204.75C78.33,-220.58 110.18,-251.99 143,-270.05 146.21,-271.82 149.62,-273.44 153.12,-274.92"/>
<polygon fill="#63b8ff" stroke="#63b8ff" points="151.9,-278.2 162.49,-278.52 154.41,-271.67 151.9,-278.2"/>
</a>
</g>
</g>
<!-- Node5 -->
<g id="Node000005" class="node">
<title>Node5</title>
<g id="a_Node000005"><a xlink:href="lbfgsb-driver_8cpp.html#a951f806cc7949c81529361ac24a2f699" target="_top" xlink:title=" ">
<polygon fill="white" stroke="#666666" points="258,-260.55 145,-260.55 145,-241.55 258,-241.55 258,-260.55"/>
<text text-anchor="middle" x="201.5" y="-248.55" font-family="Helvetica,sans-Serif" font-size="10.00">make_lbfgsb_driver</text>
</a>
</g>
</g>
<!-- Node1&#45;&gt;Node5 -->
<g id="edge4_Node000001_Node000005" class="edge">
<title>Node1&#45;&gt;Node5</title>
<g id="a_edge4_Node000001_Node000005"><a xlink:title=" ">
<path fill="none" stroke="#63b8ff" d="M75,-204.56C92.79,-212.64 119.32,-224.29 143,-233.05 147.9,-234.86 153.08,-236.66 158.24,-238.37"/>
<polygon fill="#63b8ff" stroke="#63b8ff" points="157.48,-241.8 168.07,-241.53 159.62,-235.13 157.48,-241.8"/>
</a>
</g>
</g>
<!-- Node6 -->
<g id="Node000006" class="node">
<title>Node6</title>
<g id="a_Node000006"><a xlink:href="panoc-driver_8cpp.html#a19879efa6ead750308768da16e7c3417" target="_top" xlink:title=" ">
<polygon fill="white" stroke="#666666" points="257.5,-223.55 145.5,-223.55 145.5,-204.55 257.5,-204.55 257.5,-223.55"/>
<text text-anchor="middle" x="201.5" y="-211.55" font-family="Helvetica,sans-Serif" font-size="10.00">make_panoc_driver</text>
</a>
</g>
</g>
<!-- Node1&#45;&gt;Node6 -->
<g id="edge5_Node000001_Node000006" class="edge">
<title>Node1&#45;&gt;Node6</title>
<g id="a_edge5_Node000001_Node000006"><a xlink:title=" ">
<path fill="none" stroke="#63b8ff" d="M107.21,-201.91C116.33,-203.1 125.9,-204.34 135.3,-205.57"/>
<polygon fill="#63b8ff" stroke="#63b8ff" points="135.04,-209.06 145.41,-206.88 135.94,-202.12 135.04,-209.06"/>
</a>
</g>
</g>
<!-- Node7 -->
<g id="Node000007" class="node">
<title>Node7</title>
<g id="a_Node000007"><a xlink:href="pantr-driver_8cpp.html#acc9e603bc87299f28c5faa02034e9387" target="_top" xlink:title=" ">
<polygon fill="white" stroke="#666666" points="255.5,-186.55 147.5,-186.55 147.5,-167.55 255.5,-167.55 255.5,-186.55"/>
<text text-anchor="middle" x="201.5" y="-174.55" font-family="Helvetica,sans-Serif" font-size="10.00">make_pantr_driver</text>
</a>
</g>
</g>
<!-- Node1&#45;&gt;Node7 -->
<g id="edge6_Node000001_Node000007" class="edge">
<title>Node1&#45;&gt;Node7</title>
<g id="a_edge6_Node000001_Node000007"><a xlink:title=" ">
<path fill="none" stroke="#63b8ff" d="M107.21,-188.55C117.01,-187.34 127.34,-186.07 137.42,-184.83"/>
<polygon fill="#63b8ff" stroke="#63b8ff" points="137.88,-188.3 147.38,-183.6 137.02,-181.35 137.88,-188.3"/>
</a>
</g>
</g>
<!-- Node8 -->
<g id="Node000008" class="node">
<title>Node8</title>
<g id="a_Node000008"><a xlink:href="qpalm-driver_8cpp.html#a5d8f499c6e7f8baa849c4fbff89fdae5" target="_top" xlink:title=" ">
<polygon fill="white" stroke="#666666" points="258,-149.55 145,-149.55 145,-130.55 258,-130.55 258,-149.55"/>
<text text-anchor="middle" x="201.5" y="-137.55" font-family="Helvetica,sans-Serif" font-size="10.00">make_qpalm_driver</text>
</a>
</g>
</g>
<!-- Node1&#45;&gt;Node8 -->
<g id="edge7_Node000001_Node000008" class="edge">
<title>Node1&#45;&gt;Node8</title>
<g id="a_edge7_Node000001_Node000008"><a xlink:title=" ">
<path fill="none" stroke="#63b8ff" d="M76.89,-185.46C94.68,-177.95 120.27,-167.42 143,-159.05 148.63,-156.98 154.6,-154.89 160.48,-152.89"/>
<polygon fill="#63b8ff" stroke="#63b8ff" points="161.85,-156.12 170.23,-149.63 159.63,-149.48 161.85,-156.12"/>
</a>
</g>
</g>
<!-- Node9 -->
<g id="Node000009" class="node">
<title>Node9</title>
<g id="a_Node000009"><a xlink:href="panoc-driver_8cpp.html#a0191399270ebc2b9eaeb169f445ecc38" target="_top" xlink:title=" ">
<polygon fill="white" stroke="#666666" points="260,-112.55 143,-112.55 143,-93.55 260,-93.55 260,-112.55"/>
<text text-anchor="middle" x="201.5" y="-100.55" font-family="Helvetica,sans-Serif" font-size="10.00">make_zerofpr_driver</text>
</a>
</g>
</g>
<!-- Node1&#45;&gt;Node9 -->
<g id="edge8_Node000001_Node000009" class="edge">
<title>Node1&#45;&gt;Node9</title>
<g id="a_edge8_Node000001_Node000009"><a xlink:title=" ">
<path fill="none" stroke="#63b8ff" d="M63.95,-185.18C79.23,-169.73 110.92,-139.76 143,-122.05 146.88,-119.91 151.05,-117.95 155.3,-116.18"/>
<polygon fill="#63b8ff" stroke="#63b8ff" points="156.57,-119.45 164.66,-112.61 154.07,-112.91 156.57,-119.45"/>
</a>
</g>
</g>
<!-- Node10 -->
<g id="Node000010" class="node">
<title>Node10</title>
<g id="a_Node000010"><a xlink:href="options_8hpp.html#a15ce06eb1492a582a4abe2ddd5e7f8a1" target="_top" xlink:title=" ">
<polygon fill="white" stroke="#666666" points="238.5,-75.55 164.5,-75.55 164.5,-56.55 238.5,-56.55 238.5,-75.55"/>
<text text-anchor="middle" x="201.5" y="-63.55" font-family="Helvetica,sans-Serif" font-size="10.00">set_params</text>
</a>
</g>
</g>
<!-- Node1&#45;&gt;Node10 -->
<g id="edge9_Node000001_Node000010" class="edge">
<title>Node1&#45;&gt;Node10</title>
<g id="a_edge9_Node000001_Node000010"><a xlink:title=" ">
<path fill="none" stroke="#63b8ff" d="M59.75,-185.25C71.67,-163.89 102.92,-112.84 143,-85.05 146.7,-82.49 150.76,-80.25 154.97,-78.3"/>
<polygon fill="#63b8ff" stroke="#63b8ff" points="156.39,-81.5 164.33,-74.48 153.75,-75.02 156.39,-81.5"/>
</a>
</g>
</g>
<!-- Node14 -->
<g id="Node000014" class="node">
<title>Node14</title>
<g id="a_Node000014"><a xlink:href="namespacealpaqa_1_1params.html#aa3666becfea1ef2eb24d83f592c123e9" target="_top" xlink:title="Split the string full on the first occurrence of tok.">
<polygon fill="white" stroke="#666666" points="587,-35.55 445,-35.55 445,-16.55 587,-16.55 587,-35.55"/>
<text text-anchor="middle" x="516" y="-23.55" font-family="Helvetica,sans-Serif" font-size="10.00">alpaqa::params::split_key</text>
</a>
</g>
</g>
<!-- Node1&#45;&gt;Node14 -->
<g id="edge15_Node000001_Node000014" class="edge">
<title>Node1&#45;&gt;Node14</title>
<g id="a_edge15_Node000001_Node000014"><a xlink:title=" ">
<path fill="none" stroke="#63b8ff" d="M57.08,-185.41C64.85,-158.37 90.8,-81.56 143,-47.05 242.08,18.45 390.4,0.79 466.36,-14.43"/>
<polygon fill="#63b8ff" stroke="#63b8ff" points="466.08,-17.94 476.58,-16.55 467.5,-11.09 466.08,-17.94"/>
</a>
</g>
</g>
<!-- Node11 -->
<g id="Node000011" class="node">
<title>Node11</title>
<g id="a_Node000011"><a xlink:href="classOptions.html#a502ee531f4e5cdc1c8dd78e9409a4e8e" target="_top" xlink:title=" ">
<polygon fill="white" stroke="#666666" points="400.5,-140.55 304.5,-140.55 304.5,-121.55 400.5,-121.55 400.5,-140.55"/>
<text text-anchor="middle" x="352.5" y="-128.55" font-family="Helvetica,sans-Serif" font-size="10.00">Options::options</text>
</a>
</g>
</g>
<!-- Node10&#45;&gt;Node11 -->
<g id="edge10_Node000010_Node000011" class="edge">
<title>Node10&#45;&gt;Node11</title>
<g id="a_edge10_Node000010_Node000011"><a xlink:title=" ">
<path fill="none" stroke="#63b8ff" d="M237.6,-75.64C245.18,-78.26 253.01,-81.4 260,-85.05 277.73,-94.31 278.32,-102.7 296,-112.05 299.96,-114.14 304.19,-116.08 308.49,-117.85"/>
<polygon fill="#63b8ff" stroke="#63b8ff" points="307.33,-121.15 317.92,-121.45 309.82,-114.61 307.33,-121.15"/>
</a>
</g>
</g>
<!-- Node12 -->
<g id="Node000012" class="node">
<title>Node12</title>
<g id="a_Node000012"><a xlink:href="namespacealpaqa_1_1params.html#abadc98653193fbd05b658d62b34f75e7" target="_top" xlink:title="Overwrites t based on the options that start with prefix.">
<polygon fill="white" stroke="#666666" points="409,-103.05 296,-103.05 296,-73.05 409,-73.05 409,-103.05"/>
<text text-anchor="start" x="304" y="-91.05" font-family="Helvetica,sans-Serif" font-size="10.00">alpaqa::params::set</text>
<text text-anchor="middle" x="352.5" y="-80.05" font-family="Helvetica,sans-Serif" font-size="10.00">_params</text>
</a>
</g>
</g>
<!-- Node10&#45;&gt;Node12 -->
<g id="edge11_Node000010_Node000012" class="edge">
<title>Node10&#45;&gt;Node12</title>
<g id="a_edge11_Node000010_Node000012"><a xlink:title=" ">
<path fill="none" stroke="#63b8ff" d="M238.57,-71.38C252.83,-73.48 269.69,-75.97 285.96,-78.37"/>
<polygon fill="#63b8ff" stroke="#63b8ff" points="285.59,-81.86 295.99,-79.85 286.61,-74.93 285.59,-81.86"/>
</a>
</g>
</g>
<!-- Node15 -->
<g id="Node000015" class="node">
<title>Node15</title>
<g id="a_Node000015"><a xlink:href="classOptions.html#a12df8f934f6bafb37bf4e64529917d06" target="_top" xlink:title=" ">
<polygon fill="white" stroke="#666666" points="394,-54.55 311,-54.55 311,-35.55 394,-35.55 394,-54.55"/>
<text text-anchor="middle" x="352.5" y="-42.55" font-family="Helvetica,sans-Serif" font-size="10.00">Options::used</text>
</a>
</g>
</g>
<!-- Node10&#45;&gt;Node15 -->
<g id="edge14_Node000010_Node000015" class="edge">
<title>Node10&#45;&gt;Node15</title>
<g id="a_edge14_Node000010_Node000015"><a xlink:title=" ">
<path fill="none" stroke="#63b8ff" d="M238.57,-60.97C257.21,-58.34 280.27,-55.09 300.68,-52.21"/>
<polygon fill="#63b8ff" stroke="#63b8ff" points="301.36,-55.65 310.77,-50.79 300.38,-48.72 301.36,-55.65"/>
</a>
</g>
</g>
<!-- Node13 -->
<g id="Node000013" class="node">
<title>Node13</title>
<g id="a_Node000013"><a xlink:href="namespacealpaqa_1_1params.html#a0de0baee3dda47aba5143ba83bd11712" target="_top" xlink:title=" ">
<polygon fill="white" stroke="#666666" points="572.5,-103.05 459.5,-103.05 459.5,-73.05 572.5,-73.05 572.5,-103.05"/>
<text text-anchor="start" x="467.5" y="-91.05" font-family="Helvetica,sans-Serif" font-size="10.00">alpaqa::params::set</text>
<text text-anchor="middle" x="516" y="-80.05" font-family="Helvetica,sans-Serif" font-size="10.00">_param</text>
</a>
</g>
</g>
<!-- Node12&#45;&gt;Node13 -->
<g id="edge12_Node000012_Node000013" class="edge">
<title>Node12&#45;&gt;Node13</title>
<g id="a_edge12_Node000012_Node000013"><a xlink:title=" ">
<path fill="none" stroke="#63b8ff" d="M409.08,-88.05C422.02,-88.05 435.92,-88.05 449.26,-88.05"/>
<polygon fill="#63b8ff" stroke="#63b8ff" points="449.32,-91.55 459.32,-88.05 449.32,-84.55 449.32,-91.55"/>
</a>
</g>
</g>
<!-- Node12&#45;&gt;Node14 -->
<g id="edge13_Node000012_Node000014" class="edge">
<title>Node12&#45;&gt;Node14</title>
<g id="a_edge13_Node000012_Node000014"><a xlink:title=" ">
<path fill="none" stroke="#63b8ff" d="M392.59,-73.04C419.41,-62.75 454.68,-49.21 480.46,-39.31"/>
<polygon fill="#63b8ff" stroke="#63b8ff" points="481.76,-42.56 489.84,-35.71 479.25,-36.02 481.76,-42.56"/>
</a>
</g>
</g>
</g>
</svg>

<g id="navigator" transform="translate(0 0)" fill="#404254">
  <rect fill="#f2f5e9" fill-opacity="0.5" stroke="#606060" stroke-width=".5" x="0" y="0" width="60" height="60"/>
  <use id="zoomplus" xlink:href="#zoomPlus" x="17" y="9" onmousedown="handleZoom(evt,'in')"/>
  <use id="zoomminus" xlink:href="#zoomMin" x="42" y="9" onmousedown="handleZoom(evt,'out')"/>
  <use id="reset" xlink:href="#resetDef" x="30" y="36" onmousedown="handleReset()"/>
   <use id="arrowup" xlink:href="#arrowUp" x="0" y="0" onmousedown="handlePan(0,-1)"/>
  <use id="arrowright" xlink:href="#arrowRight" x="0" y="0" onmousedown="handlePan(1,0)"/>
  <use id="arrowdown" xlink:href="#arrowDown" x="0" y="0" onmousedown="handlePan(0,1)"/>
  <use id="arrowleft" xlink:href="#arrowLeft" x="0" y="0" onmousedown="handlePan(-1,0)"/>
</g>
<svg viewBox="0 0 15 15" width="100%" height="30px" preserveAspectRatio="xMaxYMin meet">
 <g id="arrow_out" transform="scale(0.3 0.3)">
  <a xlink:href="alpaqa-driver_8cpp_a3430011226186bf05d5c2552270587b7_cgraph_org.svg" target="_base">
   <rect id="button" ry="5" rx="5" y="6" x="6" height="38" width="38"
        fill="#f2f5e9" fill-opacity="0.5" stroke="#606060" stroke-width="1.0"/>
   <path id="arrow"
     d="M 11.500037,31.436501 C 11.940474,20.09759 22.043105,11.32322 32.158766,21.979434 L 37.068811,17.246167 C 37.068811,17.246167 37.088388,32 37.088388,32 L 22.160133,31.978069 C 22.160133,31.978069 26.997745,27.140456 26.997745,27.140456 C 18.528582,18.264221 13.291696,25.230495 11.500037,31.436501 z"
     style="fill:#404040;"/>
  </a>
 </g>
</svg>

<style type='text/css'>
<![CDATA[
[data-mouse-over-selected='false'] { opacity: 0.7; }
[data-mouse-over-selected='true']  { opacity: 1.0; }
]]>
</style>
<script type="application/ecmascript"><![CDATA[
document.addEventListener('DOMContentLoaded', (event) => {
  highlightEdges();
  highlightAdjacentNodes();
});
]]></script>
</svg>
