<?xml version="1.0" encoding="UTF-8" standalone="no"?>
<!DOCTYPE svg PUBLIC "-//W3C//DTD SVG 1.1//EN"
 "http://www.w3.org/Graphics/SVG/1.1/DTD/svg11.dtd">
<!-- Generated by graphviz version 2.43.0 (0)
 -->
<!-- Title: get_m Pages: 1 -->
<svg width="449pt" height="549pt"
 viewBox="0.00 0.00 449.00 548.50" xmlns="http://www.w3.org/2000/svg" xmlns:xlink="http://www.w3.org/1999/xlink">
<g id="graph0" class="graph" transform="scale(1 1) rotate(0) translate(4 544.5)">
<title>get_m</title>
<!-- Node1 -->
<g id="Node000001" class="node">
<title>Node1</title>
<g id="a_Node000001"><a xlink:title="[Required] Number of constraints.">
<polygon fill="#999999" stroke="#666666" points="441,-343 394,-343 394,-324 441,-324 441,-343"/>
<text text-anchor="middle" x="417.5" y="-331" font-family="Helvetica,sans-Serif" font-size="10.00">get_m</text>
</a>
</g>
</g>
<!-- Node2 -->
<g id="Node000002" class="node">
<title>Node2</title>
<g id="a_Node000002"><a xlink:href="namespacealpaqa.html#a4ca1e55c8c5fb7305b9e55d746d7929e" target="_top" xlink:title=" ">
<polygon fill="white" stroke="#666666" points="325,-540.5 209,-540.5 209,-510.5 325,-510.5 325,-540.5"/>
<text text-anchor="start" x="217" y="-528.5" font-family="Helvetica,sans-Serif" font-size="10.00">alpaqa::build_qpalm</text>
<text text-anchor="middle" x="267" y="-517.5" font-family="Helvetica,sans-Serif" font-size="10.00">_problem</text>
</a>
</g>
</g>
<!-- Node1&#45;&gt;Node2 -->
<g id="edge1_Node000001_Node000002" class="edge">
<title>Node1&#45;&gt;Node2</title>
<g id="a_edge1_Node000001_Node000002"><a xlink:title=" ">
<path fill="none" stroke="#63b8ff" d="M415.4,-353.52C412.35,-388.71 400.91,-461.67 358,-501.5 348.87,-509.97 337.1,-515.52 325.09,-519.13"/>
<polygon fill="#63b8ff" stroke="#63b8ff" points="418.92,-353.36 416.14,-343.14 411.93,-352.86 418.92,-353.36"/>
</a>
</g>
</g>
<!-- Node3 -->
<g id="Node000003" class="node">
<title>Node3</title>
<g id="a_Node000003"><a xlink:href="structalpaqa_1_1detail_1_1PANOCHelpers.html#abbe7a9499d34168ba294d9737ab1516d" target="_top" xlink:title="Calculate the error between ẑ and g(x).">
<polygon fill="white" stroke="#666666" points="347.5,-492.5 186.5,-492.5 186.5,-462.5 347.5,-462.5 347.5,-492.5"/>
<text text-anchor="start" x="194.5" y="-480.5" font-family="Helvetica,sans-Serif" font-size="10.00">alpaqa::detail::PANOCHelpers</text>
<text text-anchor="middle" x="267" y="-469.5" font-family="Helvetica,sans-Serif" font-size="10.00">::calc_err_z</text>
</a>
</g>
</g>
<!-- Node1&#45;&gt;Node3 -->
<g id="edge2_Node000001_Node000003" class="edge">
<title>Node1&#45;&gt;Node3</title>
<g id="a_edge2_Node000001_Node000003"><a xlink:title=" ">
<path fill="none" stroke="#63b8ff" d="M412.33,-353.04C405.61,-379.75 389.76,-427.34 358,-453.5 353.88,-456.89 349.33,-459.81 344.52,-462.32"/>
<polygon fill="#63b8ff" stroke="#63b8ff" points="415.74,-353.83 414.61,-343.29 408.93,-352.23 415.74,-353.83"/>
</a>
</g>
</g>
<!-- Node4 -->
<g id="Node000004" class="node">
<title>Node4</title>
<g id="a_Node000004"><a xlink:href="classalpaqa_1_1IpoptAdapter.html#a9eaf7ceaf6c5549371845b11c0ed305b" target="_top" xlink:title=" ">
<polygon fill="white" stroke="#666666" points="326.5,-444.5 207.5,-444.5 207.5,-414.5 326.5,-414.5 326.5,-444.5"/>
<text text-anchor="start" x="215.5" y="-432.5" font-family="Helvetica,sans-Serif" font-size="10.00">alpaqa::IpoptAdapter</text>
<text text-anchor="middle" x="267" y="-421.5" font-family="Helvetica,sans-Serif" font-size="10.00">::get_nlp_info</text>
</a>
</g>
</g>
<!-- Node1&#45;&gt;Node4 -->
<g id="edge3_Node000001_Node000004" class="edge">
<title>Node1&#45;&gt;Node4</title>
<g id="a_edge3_Node000001_Node000004"><a xlink:title=" ">
<path fill="none" stroke="#63b8ff" d="M406.25,-351.79C396.09,-368.25 379.02,-391.89 358,-405.5 348.63,-411.56 337.78,-416.1 326.92,-419.5"/>
<polygon fill="#63b8ff" stroke="#63b8ff" points="409.34,-353.44 411.41,-343.05 403.31,-349.88 409.34,-353.44"/>
</a>
</g>
</g>
<!-- Node5 -->
<g id="Node000005" class="node">
<title>Node5</title>
<g id="a_Node000005"><a xlink:href="structalpaqa_1_1StructuredLBFGSDirection.html#abef09c52cdc391877cde2c5825fe65e6" target="_top" xlink:title=" ">
<polygon fill="white" stroke="#666666" points="358,-396.5 176,-396.5 176,-366.5 358,-366.5 358,-396.5"/>
<text text-anchor="start" x="184" y="-384.5" font-family="Helvetica,sans-Serif" font-size="10.00">alpaqa::StructuredLBFGSDirection</text>
<text text-anchor="middle" x="267" y="-373.5" font-family="Helvetica,sans-Serif" font-size="10.00">::initialize</text>
</a>
</g>
</g>
<!-- Node1&#45;&gt;Node5 -->
<g id="edge4_Node000001_Node000005" class="edge">
<title>Node1&#45;&gt;Node5</title>
<g id="a_edge4_Node000001_Node000005"><a xlink:title=" ">
<path fill="none" stroke="#63b8ff" d="M385.85,-346.94C376.96,-350.61 367.17,-354.41 358,-357.5 348.65,-360.65 338.65,-363.66 328.83,-366.42"/>
<polygon fill="#63b8ff" stroke="#63b8ff" points="387.22,-350.16 395.08,-343.06 384.51,-343.71 387.22,-350.16"/>
</a>
</g>
</g>
<!-- Node6 -->
<g id="Node000006" class="node">
<title>Node6</title>
<g id="a_Node000006"><a xlink:href="structalpaqa_1_1NewtonTRDirection.html#abef09c52cdc391877cde2c5825fe65e6" target="_top" xlink:title=" ">
<polygon fill="white" stroke="#666666" points="342,-348.5 192,-348.5 192,-318.5 342,-318.5 342,-348.5"/>
<text text-anchor="start" x="200" y="-336.5" font-family="Helvetica,sans-Serif" font-size="10.00">alpaqa::NewtonTRDirection</text>
<text text-anchor="middle" x="267" y="-325.5" font-family="Helvetica,sans-Serif" font-size="10.00">::initialize</text>
</a>
</g>
</g>
<!-- Node1&#45;&gt;Node6 -->
<g id="edge5_Node000001_Node000006" class="edge">
<title>Node1&#45;&gt;Node6</title>
<g id="a_edge5_Node000001_Node000006"><a xlink:title=" ">
<path fill="none" stroke="#63b8ff" d="M383.71,-333.5C371.33,-333.5 356.69,-333.5 342.06,-333.5"/>
<polygon fill="#63b8ff" stroke="#63b8ff" points="383.95,-337 393.95,-333.5 383.95,-330 383.95,-337"/>
</a>
</g>
</g>
<!-- Node7 -->
<g id="Node000007" class="node">
<title>Node7</title>
<g id="a_Node000007"><a xlink:href="structalpaqa_1_1detail_1_1ALMHelpers.html#aa91b6b1a0715e1efaf34b25131d0e8f1" target="_top" xlink:title=" ">
<polygon fill="white" stroke="#666666" points="341,-300.5 193,-300.5 193,-270.5 341,-270.5 341,-300.5"/>
<text text-anchor="start" x="201" y="-288.5" font-family="Helvetica,sans-Serif" font-size="10.00">alpaqa::detail::ALMHelpers</text>
<text text-anchor="middle" x="267" y="-277.5" font-family="Helvetica,sans-Serif" font-size="10.00">::initialize_penalty</text>
</a>
</g>
</g>
<!-- Node1&#45;&gt;Node7 -->
<g id="edge6_Node000001_Node000007" class="edge">
<title>Node1&#45;&gt;Node7</title>
<g id="a_edge6_Node000001_Node000007"><a xlink:title=" ">
<path fill="none" stroke="#63b8ff" d="M385.85,-320.06C376.96,-316.39 367.17,-312.59 358,-309.5 348.65,-306.35 338.65,-303.34 328.83,-300.58"/>
<polygon fill="#63b8ff" stroke="#63b8ff" points="384.51,-323.29 395.08,-323.94 387.22,-316.84 384.51,-323.29"/>
</a>
</g>
</g>
<!-- Node8 -->
<g id="Node000008" class="node">
<title>Node8</title>
<g id="a_Node000008"><a xlink:href="namespaceanonymous__namespace_02problem_8cpp_03.html#ab42fb3dc0421d6c6c1f45d753a95a2c4" target="_top" xlink:title=" ">
<polygon fill="white" stroke="#666666" points="334.5,-234 199.5,-234 199.5,-193 334.5,-193 334.5,-234"/>
<text text-anchor="start" x="207.5" y="-222" font-family="Helvetica,sans-Serif" font-size="10.00">anonymous_namespace</text>
<text text-anchor="start" x="207.5" y="-211" font-family="Helvetica,sans-Serif" font-size="10.00">{problem::cpp}::load</text>
<text text-anchor="middle" x="267" y="-200" font-family="Helvetica,sans-Serif" font-size="10.00">_initial_guess</text>
</a>
</g>
</g>
<!-- Node1&#45;&gt;Node8 -->
<g id="edge7_Node000001_Node000008" class="edge">
<title>Node1&#45;&gt;Node8</title>
<g id="a_edge7_Node000001_Node000008"><a xlink:title=" ">
<path fill="none" stroke="#63b8ff" d="M404.76,-315.26C394.01,-299.57 376.91,-277.08 358,-261.5 345.15,-250.91 329.61,-241.63 315.08,-234.12"/>
<polygon fill="#63b8ff" stroke="#63b8ff" points="401.87,-317.23 410.33,-323.6 407.69,-313.34 401.87,-317.23"/>
</a>
</g>
</g>
<!-- Node9 -->
<g id="Node000009" class="node">
<title>Node9</title>
<g id="a_Node000009"><a xlink:href="results_8hpp.html#ac44ace62be5699e983e8e4596ea74cf1" target="_top" xlink:title=" ">
<polygon fill="white" stroke="#666666" points="305.5,-175 228.5,-175 228.5,-156 305.5,-156 305.5,-175"/>
<text text-anchor="middle" x="267" y="-163" font-family="Helvetica,sans-Serif" font-size="10.00">print_results</text>
</a>
</g>
</g>
<!-- Node1&#45;&gt;Node9 -->
<g id="edge9_Node000001_Node000009" class="edge">
<title>Node1&#45;&gt;Node9</title>
<g id="a_edge9_Node000001_Node000009"><a xlink:title=" ">
<path fill="none" stroke="#63b8ff" d="M414.62,-313.69C410.47,-281.46 397.47,-217.9 358,-184.5 343.62,-172.33 323.37,-167.34 305.72,-165.5"/>
<polygon fill="#63b8ff" stroke="#63b8ff" points="411.15,-314.14 415.75,-323.69 418.11,-313.36 411.15,-314.14"/>
</a>
</g>
</g>
<!-- Node11 -->
<g id="Node000011" class="node">
<title>Node11</title>
<g id="a_Node000011"><a xlink:href="alm-driver_8hpp.html#aa7ce176e5df1fd415e66c420646cf10d" target="_top" xlink:title=" ">
<polygon fill="white" stroke="#666666" points="313,-118 221,-118 221,-99 313,-99 313,-118"/>
<text text-anchor="middle" x="267" y="-106" font-family="Helvetica,sans-Serif" font-size="10.00">run_alm_solver</text>
</a>
</g>
</g>
<!-- Node1&#45;&gt;Node11 -->
<g id="edge11_Node000001_Node000011" class="edge">
<title>Node1&#45;&gt;Node11</title>
<g id="a_edge11_Node000001_Node000011"><a xlink:title=" ">
<path fill="none" stroke="#63b8ff" d="M415.52,-313.56C412.67,-276.37 401.53,-195.82 358,-147.5 345.12,-133.2 326.08,-123.93 308.82,-118.03"/>
<polygon fill="#63b8ff" stroke="#63b8ff" points="412.03,-313.87 416.17,-323.63 419.02,-313.43 412.03,-313.87"/>
</a>
</g>
</g>
<!-- Node8&#45;&gt;Node8 -->
<g id="edge8_Node000008_Node000008" class="edge">
<title>Node8&#45;&gt;Node8</title>
<g id="a_edge8_Node000008_Node000008"><a xlink:title=" ">
<path fill="none" stroke="#63b8ff" d="M292.81,-243.96C288.97,-248.74 280.37,-252 267,-252 245.61,-252 236.42,-243.65 239.43,-234.1"/>
<polygon fill="#63b8ff" stroke="#63b8ff" points="296.26,-244.56 294.57,-234.1 289.36,-243.33 296.26,-244.56"/>
</a>
</g>
</g>
<!-- Node10 -->
<g id="Node000010" class="node">
<title>Node10</title>
<g id="a_Node000010"><a xlink:href="alpaqa-driver_8cpp.html#ac0f2228420376f4db7e1274f2b41667c" target="_top" xlink:title=" ">
<polygon fill="white" stroke="#666666" points="90.5,-196 49.5,-196 49.5,-177 90.5,-177 90.5,-196"/>
<text text-anchor="middle" x="70" y="-184" font-family="Helvetica,sans-Serif" font-size="10.00">main</text>
</a>
</g>
</g>
<!-- Node9&#45;&gt;Node10 -->
<g id="edge10_Node000009_Node000010" class="edge">
<title>Node9&#45;&gt;Node10</title>
<g id="a_edge10_Node000009_Node000010"><a xlink:title=" ">
<path fill="none" stroke="#63b8ff" d="M218.35,-170.63C177.36,-175.05 120.28,-181.19 90.64,-184.39"/>
<polygon fill="#63b8ff" stroke="#63b8ff" points="218.83,-174.1 228.4,-169.55 218.08,-167.14 218.83,-174.1"/>
</a>
</g>
</g>
<!-- Node12 -->
<g id="Node000012" class="node">
<title>Node12</title>
<g id="a_Node000012"><a xlink:href="namespaceanonymous__namespace_02fista-driver_8cpp_03.html#a479d5f0dacbf404f04a694bb1be6f6c5" target="_top" xlink:title=" ">
<polygon fill="white" stroke="#666666" points="138.5,-159 1.5,-159 1.5,-118 138.5,-118 138.5,-159"/>
<text text-anchor="start" x="9.5" y="-147" font-family="Helvetica,sans-Serif" font-size="10.00">anonymous_namespace</text>
<text text-anchor="start" x="9.5" y="-136" font-family="Helvetica,sans-Serif" font-size="10.00">{fista&#45;driver::cpp}</text>
<text text-anchor="middle" x="70" y="-125" font-family="Helvetica,sans-Serif" font-size="10.00">::make_fista_driver_impl</text>
</a>
</g>
</g>
<!-- Node11&#45;&gt;Node12 -->
<g id="edge12_Node000011_Node000012" class="edge">
<title>Node11&#45;&gt;Node12</title>
<g id="a_edge12_Node000011_Node000012"><a xlink:title=" ">
<path fill="none" stroke="#63b8ff" d="M210.74,-117C188.28,-120.46 162.12,-124.48 138.55,-128.11"/>
<polygon fill="#63b8ff" stroke="#63b8ff" points="211.42,-120.44 220.77,-115.46 210.36,-113.52 211.42,-120.44"/>
</a>
</g>
</g>
<!-- Node13 -->
<g id="Node000013" class="node">
<title>Node13</title>
<g id="a_Node000013"><a xlink:href="namespaceanonymous__namespace_02panoc-driver_8cpp_03.html#ab2ca1091ea82102367666b62756cd7f6" target="_top" xlink:title=" ">
<polygon fill="white" stroke="#666666" points="140,-100 0,-100 0,-59 140,-59 140,-100"/>
<text text-anchor="start" x="8" y="-88" font-family="Helvetica,sans-Serif" font-size="10.00">anonymous_namespace</text>
<text text-anchor="start" x="8" y="-77" font-family="Helvetica,sans-Serif" font-size="10.00">{panoc&#45;driver::cpp}</text>
<text text-anchor="middle" x="70" y="-66" font-family="Helvetica,sans-Serif" font-size="10.00">::make_panoc_like_driver</text>
</a>
</g>
</g>
<!-- Node11&#45;&gt;Node13 -->
<g id="edge13_Node000011_Node000013" class="edge">
<title>Node11&#45;&gt;Node13</title>
<g id="a_edge13_Node000011_Node000013"><a xlink:title=" ">
<path fill="none" stroke="#63b8ff" d="M210.63,-100.27C188.68,-97 163.2,-93.21 140.06,-89.77"/>
<polygon fill="#63b8ff" stroke="#63b8ff" points="210.37,-103.76 220.77,-101.77 211.4,-96.84 210.37,-103.76"/>
</a>
</g>
</g>
<!-- Node14 -->
<g id="Node000014" class="node">
<title>Node14</title>
<g id="a_Node000014"><a xlink:href="namespaceanonymous__namespace_02pantr-driver_8cpp_03.html#a39b6aa8ff07d8400d404f191bdccd499" target="_top" xlink:title=" ">
<polygon fill="white" stroke="#666666" points="139,-41 1,-41 1,0 139,0 139,-41"/>
<text text-anchor="start" x="9" y="-29" font-family="Helvetica,sans-Serif" font-size="10.00">anonymous_namespace</text>
<text text-anchor="start" x="9" y="-18" font-family="Helvetica,sans-Serif" font-size="10.00">{pantr&#45;driver::cpp}</text>
<text text-anchor="middle" x="70" y="-7" font-family="Helvetica,sans-Serif" font-size="10.00">::make_pantr_like_solver</text>
</a>
</g>
</g>
<!-- Node11&#45;&gt;Node14 -->
<g id="edge14_Node000011_Node000014" class="edge">
<title>Node11&#45;&gt;Node14</title>
<g id="a_edge14_Node000011_Node000014"><a xlink:title=" ">
<path fill="none" stroke="#63b8ff" d="M236.94,-94.49C211.5,-82.32 173.47,-64.36 140,-49.5 133.71,-46.7 127.06,-43.82 120.48,-41.01"/>
<polygon fill="#63b8ff" stroke="#63b8ff" points="235.51,-97.68 246.04,-98.85 238.53,-91.37 235.51,-97.68"/>
</a>
</g>
</g>
</g>
</svg>
