<?xml version="1.0" encoding="UTF-8" standalone="no"?>
<!DOCTYPE svg PUBLIC "-//W3C//DTD SVG 1.1//EN"
 "http://www.w3.org/Graphics/SVG/1.1/DTD/svg11.dtd">
<!-- Generated by graphviz version 2.43.0 (0)
 -->
<!-- Title: print_matlab_impl Pages: 1 -->
<svg width="570pt" height="38pt"
 viewBox="0.00 0.00 570.00 38.00" xmlns="http://www.w3.org/2000/svg" xmlns:xlink="http://www.w3.org/1999/xlink">
<g id="graph0" class="graph" transform="scale(1 1) rotate(0) translate(4 34)">
<title>print_matlab_impl</title>
<!-- Node1 -->
<g id="Node000001" class="node">
<title>Node1</title>
<g id="a_Node000001"><a xlink:title=" ">
<polygon fill="#999999" stroke="#666666" points="106,-24.5 0,-24.5 0,-5.5 106,-5.5 106,-24.5"/>
<text text-anchor="middle" x="53" y="-12.5" font-family="Helvetica,sans-Serif" font-size="10.00">print_matlab_impl</text>
</a>
</g>
</g>
<!-- Node2 -->
<g id="Node000002" class="node">
<title>Node2</title>
<g id="a_Node000002"><a xlink:href="namespacealpaqa.html#ad71c732e454983d9535cf5e113f60b7b" target="_top" xlink:title=" ">
<polygon fill="white" stroke="#666666" points="250,-24.5 142,-24.5 142,-5.5 250,-5.5 250,-24.5"/>
<text text-anchor="middle" x="196" y="-12.5" font-family="Helvetica,sans-Serif" font-size="10.00">alpaqa::print_elem</text>
</a>
</g>
</g>
<!-- Node1&#45;&gt;Node2 -->
<g id="edge1_Node000001_Node000002" class="edge">
<title>Node1&#45;&gt;Node2</title>
<g id="a_edge1_Node000001_Node000002"><a xlink:title=" ">
<path fill="none" stroke="#63b8ff" d="M106.1,-15C114.36,-15 122.97,-15 131.45,-15"/>
<polygon fill="#63b8ff" stroke="#63b8ff" points="131.7,-18.5 141.7,-15 131.7,-11.5 131.7,-18.5"/>
</a>
</g>
</g>
<!-- Node3 -->
<g id="Node000003" class="node">
<title>Node3</title>
<g id="a_Node000003"><a xlink:href="namespacealpaqa.html#ab5ac74453b63ae65ae675f0fb385fc32" target="_top" xlink:title=" ">
<polygon fill="white" stroke="#666666" points="416,-24.5 286,-24.5 286,-5.5 416,-5.5 416,-24.5"/>
<text text-anchor="middle" x="351" y="-12.5" font-family="Helvetica,sans-Serif" font-size="10.00">alpaqa::float_to_str_vw</text>
</a>
</g>
</g>
<!-- Node2&#45;&gt;Node3 -->
<g id="edge2_Node000002_Node000003" class="edge">
<title>Node2&#45;&gt;Node3</title>
<g id="a_edge2_Node000002_Node000003"><a xlink:title=" ">
<path fill="none" stroke="#63b8ff" d="M250.08,-15C258.4,-15 267.12,-15 275.8,-15"/>
<polygon fill="#63b8ff" stroke="#63b8ff" points="275.94,-18.5 285.94,-15 275.94,-11.5 275.94,-18.5"/>
</a>
</g>
</g>
<!-- Node4 -->
<g id="Node000004" class="node">
<title>Node4</title>
<g id="a_Node000004"><a xlink:href="namespacealpaqa.html#a3d355dd7c275da0f2e297743294d582b" target="_top" xlink:title=" ">
<polygon fill="white" stroke="#666666" points="562,-30 452,-30 452,0 562,0 562,-30"/>
<text text-anchor="start" x="460" y="-18" font-family="Helvetica,sans-Serif" font-size="10.00">alpaqa::float_to_str</text>
<text text-anchor="middle" x="507" y="-7" font-family="Helvetica,sans-Serif" font-size="10.00">_vw_snprintf</text>
</a>
</g>
</g>
<!-- Node3&#45;&gt;Node4 -->
<g id="edge3_Node000003_Node000004" class="edge">
<title>Node3&#45;&gt;Node4</title>
<g id="a_edge3_Node000003_Node000004"><a xlink:title=" ">
<path fill="none" stroke="#63b8ff" d="M416.42,-15C424.74,-15 433.26,-15 441.58,-15"/>
<polygon fill="#63b8ff" stroke="#63b8ff" points="441.6,-18.5 451.6,-15 441.6,-11.5 441.6,-18.5"/>
</a>
</g>
</g>
</g>
</svg>
