<?xml version="1.0" encoding="UTF-8" standalone="no"?>
<!DOCTYPE svg PUBLIC "-//W3C//DTD SVG 1.1//EN"
 "http://www.w3.org/Graphics/SVG/1.1/DTD/svg11.dtd">
<!-- Generated by graphviz version 2.43.0 (0)
 -->
<!-- Title: src/alpaqa/include/alpaqa/inner/directions/panoc&#45;direction&#45;update.hpp Pages: 1 -->
<!--zoomable 423 -->

<svg id="main" version="1.1" xmlns="http://www.w3.org/2000/svg" xmlns:xlink="http://www.w3.org/1999/xlink" xml:space="preserve" onload="init(evt)">
<style type="text/css"><![CDATA[
.node, .edge {opacity: 0.7;}
.node.selected, .edge.selected {opacity: 1;}
.edge:hover path { stroke: red; }
.edge:hover polygon { stroke: red; fill: red; }
]]></style>

<defs>
  <circle id="rim" cx="0" cy="0" r="7"/>
  <circle id="rim2" cx="0" cy="0" r="3.5"/>
  <g id="zoomPlus">
    <use xlink:href="#rim" fill="#404040"><set attributeName="fill" to="#808080" begin="zoomplus.mouseover" end="zoomplus.mouseout"/></use>
    <path d="M-4,0h8M0,-4v8" fill="none" stroke="white" stroke-width="1.5" pointer-events="none"/>
  </g>
  <g id="zoomMin">
    <use xlink:href="#rim" fill="#404040"><set attributeName="fill" to="#808080" begin="zoomminus.mouseover" end="zoomminus.mouseout"/></use>
    <path d="M-4,0h8" fill="none" stroke="white" stroke-width="1.5" pointer-events="none"/>
  </g>
  <g id="arrowUp" transform="translate(30 24)">
    <use xlink:href="#rim"/>
    <path pointer-events="none" fill="none" stroke="white" stroke-width="1.5" d="M0,-3.0v7 M-2.5,-0.5L0,-3.0L2.5,-0.5"/>
  </g>
  <g id="arrowRight" transform="rotate(90) translate(36 -43)">
    <use xlink:href="#rim"/>
    <path pointer-events="none" fill="none" stroke="white" stroke-width="1.5" d="M0,-3.0v7 M-2.5,-0.5L0,-3.0L2.5,-0.5"/>
  </g>
  <g id="arrowDown" transform="rotate(180) translate(-30 -48)">
    <use xlink:href="#rim"/>
    <path pointer-events="none" fill="none" stroke="white" stroke-width="1.5" d="M0,-3.0v7 M-2.5,-0.5L0,-3.0L2.5,-0.5"/>
  </g>
  <g id="arrowLeft" transform="rotate(270) translate(-36 17)">
    <use xlink:href="#rim"/>
    <path pointer-events="none" fill="none" stroke="white" stroke-width="1.5" d="M0,-3.0v7 M-2.5,-0.5L0,-3.0L2.5,-0.5"/>
  </g>
  <g id="resetDef">
    <use xlink:href="#rim2" fill="#404040"><set attributeName="fill" to="#808080" begin="reset.mouseover" end="reset.mouseout"/></use>
  </g>
</defs>
<script type="application/ecmascript">
var viewWidth = 1938;
var viewHeight = 423;
var sectionId = 'dynsection-0';
</script>
<script type="application/ecmascript" xlink:href="svg.min.js"/>
<svg id="graph" class="graph">
<g id="viewport">
<title>src/alpaqa/include/alpaqa/inner/directions/panoc&#45;direction&#45;update.hpp</title>
<!-- Node1 -->
<g id="Node000001" class="node">
<title>Node1</title>
<g id="a_Node000001"><a xlink:title=" ">
<polygon fill="#999999" stroke="#666666" points="539,-415 385,-415 385,-374 539,-374 539,-415"/>
<text text-anchor="start" x="393" y="-403" font-family="Helvetica,sans-Serif" font-size="10.00">src/alpaqa/include</text>
<text text-anchor="start" x="393" y="-392" font-family="Helvetica,sans-Serif" font-size="10.00">/alpaqa/inner/directions</text>
<text text-anchor="middle" x="462" y="-381" font-family="Helvetica,sans-Serif" font-size="10.00">/panoc&#45;direction&#45;update.hpp</text>
</a>
</g>
</g>
<!-- Node2 -->
<g id="Node000002" class="node">
<title>Node2</title>
<g id="a_Node000002"><a xlink:href="config_8hpp.html" target="_top" xlink:title=" ">
<polygon fill="white" stroke="#666666" points="287.5,-145.5 152.5,-145.5 152.5,-126.5 287.5,-126.5 287.5,-145.5"/>
<text text-anchor="middle" x="220" y="-133.5" font-family="Helvetica,sans-Serif" font-size="10.00">alpaqa/config/config.hpp</text>
</a>
</g>
</g>
<!-- Node1&#45;&gt;Node2 -->
<g id="edge1_Node000001_Node000002" class="edge">
<title>Node1&#45;&gt;Node2</title>
<g id="a_edge1_Node000001_Node000002"><a xlink:title=" ">
<path fill="none" stroke="#63b8ff" d="M430.85,-373.9C384.55,-343.3 297.49,-279.97 246,-206 235.28,-190.6 228.31,-170.2 224.31,-155.59"/>
<polygon fill="#63b8ff" stroke="#63b8ff" points="227.66,-154.56 221.82,-145.72 220.87,-156.27 227.66,-154.56"/>
</a>
</g>
</g>
<!-- Node8 -->
<g id="Node000008" class="node">
<title>Node8</title>
<g id="a_Node000008"><a xlink:href="type-erased-problem_8hpp.html" target="_top" xlink:title=" ">
<polygon fill="white" stroke="#666666" points="848.5,-338 729.5,-338 729.5,-308 848.5,-308 848.5,-338"/>
<text text-anchor="start" x="737.5" y="-326" font-family="Helvetica,sans-Serif" font-size="10.00">alpaqa/problem/type</text>
<text text-anchor="middle" x="789" y="-315" font-family="Helvetica,sans-Serif" font-size="10.00">&#45;erased&#45;problem.hpp</text>
</a>
</g>
</g>
<!-- Node1&#45;&gt;Node8 -->
<g id="edge7_Node000001_Node000008" class="edge">
<title>Node1&#45;&gt;Node8</title>
<g id="a_edge7_Node000001_Node000008"><a xlink:title=" ">
<path fill="none" stroke="#63b8ff" d="M539.08,-377.12C593.72,-365.51 666.42,-350.05 719.32,-338.81"/>
<polygon fill="#63b8ff" stroke="#63b8ff" points="720.23,-342.19 729.29,-336.69 718.78,-335.35 720.23,-342.19"/>
</a>
</g>
</g>
<!-- Node3 -->
<g id="Node000003" class="node">
<title>Node3</title>
<g id="a_Node000003"><a xlink:href="quadmath-print_8hpp.html" target="_top" xlink:title=" ">
<polygon fill="white" stroke="#666666" points="280.5,-85 159.5,-85 159.5,-55 280.5,-55 280.5,-85"/>
<text text-anchor="start" x="167.5" y="-73" font-family="Helvetica,sans-Serif" font-size="10.00">alpaqa/util/quadmath</text>
<text text-anchor="middle" x="220" y="-62" font-family="Helvetica,sans-Serif" font-size="10.00">/quadmath&#45;print.hpp</text>
</a>
</g>
</g>
<!-- Node2&#45;&gt;Node3 -->
<g id="edge2_Node000002_Node000003" class="edge">
<title>Node2&#45;&gt;Node3</title>
<g id="a_edge2_Node000002_Node000003"><a xlink:title=" ">
<path fill="none" stroke="#63b8ff" d="M220,-126.37C220,-118.49 220,-106.45 220,-95.6"/>
<polygon fill="#63b8ff" stroke="#63b8ff" points="223.5,-95.36 220,-85.36 216.5,-95.36 223.5,-95.36"/>
</a>
</g>
</g>
<!-- Node4 -->
<g id="Node000004" class="node">
<title>Node4</title>
<g id="a_Node000004"><a xlink:href="quadmath_8hpp.html" target="_top" xlink:title=" ">
<polygon fill="white" stroke="#666666" points="419.5,-85 298.5,-85 298.5,-55 419.5,-55 419.5,-85"/>
<text text-anchor="start" x="306.5" y="-73" font-family="Helvetica,sans-Serif" font-size="10.00">alpaqa/util/quadmath</text>
<text text-anchor="middle" x="359" y="-62" font-family="Helvetica,sans-Serif" font-size="10.00">/quadmath.hpp</text>
</a>
</g>
</g>
<!-- Node2&#45;&gt;Node4 -->
<g id="edge3_Node000002_Node000004" class="edge">
<title>Node2&#45;&gt;Node4</title>
<g id="a_edge3_Node000002_Node000004"><a xlink:title=" ">
<path fill="none" stroke="#63b8ff" d="M238.75,-126.37C259.21,-116.95 292.57,-101.59 318.97,-89.43"/>
<polygon fill="#63b8ff" stroke="#63b8ff" points="320.72,-92.48 328.34,-85.12 317.8,-86.12 320.72,-92.48"/>
</a>
</g>
</g>
<!-- Node5 -->
<g id="Node000005" class="node">
<title>Node5</title>
<g id="a_Node000005"><a xlink:title=" ">
<polygon fill="#e0e0e0" stroke="#999999" points="141,-79.5 97,-79.5 97,-60.5 141,-60.5 141,-79.5"/>
<text text-anchor="middle" x="119" y="-67.5" font-family="Helvetica,sans-Serif" font-size="10.00">limits</text>
</a>
</g>
</g>
<!-- Node2&#45;&gt;Node5 -->
<g id="edge4_Node000002_Node000005" class="edge">
<title>Node2&#45;&gt;Node5</title>
<g id="a_edge4_Node000002_Node000005"><a xlink:title=" ">
<path fill="none" stroke="#63b8ff" d="M206.38,-126.37C189.66,-115.78 161.09,-97.67 141.19,-85.06"/>
<polygon fill="#63b8ff" stroke="#63b8ff" points="143.05,-82.1 132.73,-79.7 139.3,-88.01 143.05,-82.1"/>
</a>
</g>
</g>
<!-- Node6 -->
<g id="Node000006" class="node">
<title>Node6</title>
<g id="a_Node000006"><a xlink:title=" ">
<polygon fill="#e0e0e0" stroke="#999999" points="957.5,-79.5 888.5,-79.5 888.5,-60.5 957.5,-60.5 957.5,-79.5"/>
<text text-anchor="middle" x="923" y="-67.5" font-family="Helvetica,sans-Serif" font-size="10.00">type_traits</text>
</a>
</g>
</g>
<!-- Node2&#45;&gt;Node6 -->
<g id="edge5_Node000002_Node000006" class="edge">
<title>Node2&#45;&gt;Node6</title>
<g id="a_edge5_Node000002_Node000006"><a xlink:title=" ">
<path fill="none" stroke="#63b8ff" d="M262.65,-126.46C273.79,-124.44 285.82,-122.46 297,-121 513.88,-92.69 775.27,-78.05 878.22,-73.03"/>
<polygon fill="#63b8ff" stroke="#63b8ff" points="878.44,-76.53 888.26,-72.55 878.11,-69.54 878.44,-76.53"/>
</a>
</g>
</g>
<!-- Node7 -->
<g id="Node000007" class="node">
<title>Node7</title>
<g id="a_Node000007"><a xlink:title=" ">
<polygon fill="#e0e0e0" stroke="#999999" points="78.5,-79.5 9.5,-79.5 9.5,-60.5 78.5,-60.5 78.5,-79.5"/>
<text text-anchor="middle" x="44" y="-67.5" font-family="Helvetica,sans-Serif" font-size="10.00">Eigen/Core</text>
</a>
</g>
</g>
<!-- Node2&#45;&gt;Node7 -->
<g id="edge6_Node000002_Node000007" class="edge">
<title>Node2&#45;&gt;Node7</title>
<g id="a_edge6_Node000002_Node000007"><a xlink:title=" ">
<path fill="none" stroke="#63b8ff" d="M196.26,-126.37C165.61,-115.22 112.07,-95.75 77.34,-83.12"/>
<polygon fill="#63b8ff" stroke="#63b8ff" points="78.23,-79.72 67.64,-79.6 75.84,-86.3 78.23,-79.72"/>
</a>
</g>
</g>
<!-- Node8&#45;&gt;Node2 -->
<g id="edge8_Node000008_Node000002" class="edge">
<title>Node8&#45;&gt;Node2</title>
<g id="a_edge8_Node000008_Node000002"><a xlink:title=" ">
<path fill="none" stroke="#63b8ff" d="M729.38,-316.5C662.23,-309.52 550.17,-295.46 456,-272 370.48,-250.69 339.36,-259.08 269,-206 251.1,-192.5 237.13,-170.58 228.77,-155.08"/>
<polygon fill="#63b8ff" stroke="#63b8ff" points="231.77,-153.26 224.09,-145.96 225.54,-156.46 231.77,-153.26"/>
</a>
</g>
</g>
<!-- Node8&#45;&gt;Node6 -->
<g id="edge61_Node000008_Node000006" class="edge">
<title>Node8&#45;&gt;Node6</title>
<g id="a_edge61_Node000008_Node000006"><a xlink:title=" ">
<path fill="none" stroke="#63b8ff" d="M848.63,-311.56C905.79,-298.04 988.96,-268.35 1028,-206 1060.86,-153.52 971.99,-205.89 930,-151 916.59,-133.48 917.09,-107.05 919.42,-89.42"/>
<polygon fill="#63b8ff" stroke="#63b8ff" points="922.88,-89.95 921.04,-79.51 915.97,-88.81 922.88,-89.95"/>
</a>
</g>
</g>
<!-- Node9 -->
<g id="Node000009" class="node">
<title>Node9</title>
<g id="a_Node000009"><a xlink:href="export_8hpp.html" target="_top" xlink:title=" ">
<polygon fill="white" stroke="#666666" points="1080.5,-79.5 975.5,-79.5 975.5,-60.5 1080.5,-60.5 1080.5,-79.5"/>
<text text-anchor="middle" x="1028" y="-67.5" font-family="Helvetica,sans-Serif" font-size="10.00">alpaqa/export.hpp</text>
</a>
</g>
</g>
<!-- Node8&#45;&gt;Node9 -->
<g id="edge9_Node000008_Node000009" class="edge">
<title>Node8&#45;&gt;Node9</title>
<g id="a_edge9_Node000008_Node000009"><a xlink:title=" ">
<path fill="none" stroke="#63b8ff" d="M754.94,-307.89C717.43,-290.26 659.13,-256.19 634,-206 614.84,-167.73 670.48,-128.32 683,-121 792.83,-56.78 841.73,-107.26 967,-85 972.42,-84.04 978.08,-82.91 983.67,-81.72"/>
<polygon fill="#63b8ff" stroke="#63b8ff" points="984.59,-85.1 993.6,-79.52 983.08,-78.26 984.59,-85.1"/>
</a>
</g>
</g>
<!-- Node11 -->
<g id="Node000011" class="node">
<title>Node11</title>
<g id="a_Node000011"><a xlink:href="box_8hpp.html" target="_top" xlink:title=" ">
<polygon fill="white" stroke="#666666" points="412.5,-206 277.5,-206 277.5,-187 412.5,-187 412.5,-206"/>
<text text-anchor="middle" x="345" y="-194" font-family="Helvetica,sans-Serif" font-size="10.00">alpaqa/problem/box.hpp</text>
</a>
</g>
</g>
<!-- Node8&#45;&gt;Node11 -->
<g id="edge11_Node000008_Node000011" class="edge">
<title>Node8&#45;&gt;Node11</title>
<g id="a_edge11_Node000008_Node000011"><a xlink:title=" ">
<path fill="none" stroke="#63b8ff" d="M729.03,-311.71C680.78,-302.87 611.46,-288.89 552,-272 487.98,-253.82 415.22,-225.88 375.27,-209.88"/>
<polygon fill="#63b8ff" stroke="#63b8ff" points="376.43,-206.58 365.85,-206.09 373.81,-213.07 376.43,-206.58"/>
</a>
</g>
</g>
<!-- Node16 -->
<g id="Node000016" class="node">
<title>Node16</title>
<g id="a_Node000016"><a xlink:href="sparsity_8hpp.html" target="_top" xlink:title=" ">
<polygon fill="white" stroke="#666666" points="585.5,-206 430.5,-206 430.5,-187 585.5,-187 585.5,-206"/>
<text text-anchor="middle" x="508" y="-194" font-family="Helvetica,sans-Serif" font-size="10.00">alpaqa/problem/sparsity.hpp</text>
</a>
</g>
</g>
<!-- Node8&#45;&gt;Node16 -->
<g id="edge19_Node000008_Node000016" class="edge">
<title>Node8&#45;&gt;Node16</title>
<g id="a_edge19_Node000008_Node000016"><a xlink:title=" ">
<path fill="none" stroke="#63b8ff" d="M729.2,-312.86C690.81,-305.41 640.71,-292.66 600,-272 570.08,-256.81 540.9,-230.69 523.69,-213.76"/>
<polygon fill="#63b8ff" stroke="#63b8ff" points="525.78,-210.9 516.25,-206.28 520.82,-215.84 525.78,-210.9"/>
</a>
</g>
</g>
<!-- Node19 -->
<g id="Node000019" class="node">
<title>Node19</title>
<g id="a_Node000019"><a xlink:href="alloc-check_8hpp.html" target="_top" xlink:title=" ">
<polygon fill="white" stroke="#666666" points="148,-266.5 0,-266.5 0,-247.5 148,-247.5 148,-266.5"/>
<text text-anchor="middle" x="74" y="-254.5" font-family="Helvetica,sans-Serif" font-size="10.00">alpaqa/util/alloc&#45;check.hpp</text>
</a>
</g>
</g>
<!-- Node8&#45;&gt;Node19 -->
<g id="edge25_Node000008_Node000019" class="edge">
<title>Node8&#45;&gt;Node19</title>
<g id="a_edge25_Node000008_Node000019"><a xlink:title=" ">
<path fill="none" stroke="#63b8ff" d="M729.27,-316.65C602.18,-305.28 304.66,-278.65 158.32,-265.55"/>
<polygon fill="#63b8ff" stroke="#63b8ff" points="158.32,-262.03 148.05,-264.63 157.7,-269.01 158.32,-262.03"/>
</a>
</g>
</g>
<!-- Node20 -->
<g id="Node000020" class="node">
<title>Node20</title>
<g id="a_Node000020"><a xlink:href="check-dim_8hpp.html" target="_top" xlink:title=" ">
<polygon fill="white" stroke="#666666" points="785.5,-206 642.5,-206 642.5,-187 785.5,-187 785.5,-206"/>
<text text-anchor="middle" x="714" y="-194" font-family="Helvetica,sans-Serif" font-size="10.00">alpaqa/util/check&#45;dim.hpp</text>
</a>
</g>
</g>
<!-- Node8&#45;&gt;Node20 -->
<g id="edge27_Node000008_Node000020" class="edge">
<title>Node8&#45;&gt;Node20</title>
<g id="a_edge27_Node000008_Node000020"><a xlink:title=" ">
<path fill="none" stroke="#63b8ff" d="M780.4,-307.72C766.54,-284.71 739.32,-239.53 724.4,-214.76"/>
<polygon fill="#63b8ff" stroke="#63b8ff" points="727.32,-212.83 719.16,-206.07 721.32,-216.44 727.32,-212.83"/>
</a>
</g>
</g>
<!-- Node22 -->
<g id="Node000022" class="node">
<title>Node22</title>
<g id="a_Node000022"><a xlink:title=" ">
<polygon fill="#e0e0e0" stroke="#999999" points="831.5,-145.5 766.5,-145.5 766.5,-126.5 831.5,-126.5 831.5,-145.5"/>
<text text-anchor="middle" x="799" y="-133.5" font-family="Helvetica,sans-Serif" font-size="10.00">stdexcept</text>
</a>
</g>
</g>
<!-- Node8&#45;&gt;Node22 -->
<g id="edge60_Node000008_Node000022" class="edge">
<title>Node8&#45;&gt;Node22</title>
<g id="a_edge60_Node000008_Node000022"><a xlink:title=" ">
<path fill="none" stroke="#63b8ff" d="M789.77,-307.79C791.55,-274.81 795.97,-193.05 797.98,-155.9"/>
<polygon fill="#63b8ff" stroke="#63b8ff" points="801.49,-155.7 798.54,-145.53 794.5,-155.33 801.49,-155.7"/>
</a>
</g>
</g>
<!-- Node24 -->
<g id="Node000024" class="node">
<title>Node24</title>
<g id="a_Node000024"><a xlink:href="not-implemented_8hpp.html" target="_top" xlink:title=" ">
<polygon fill="white" stroke="#666666" points="1018.5,-206 841.5,-206 841.5,-187 1018.5,-187 1018.5,-206"/>
<text text-anchor="middle" x="930" y="-194" font-family="Helvetica,sans-Serif" font-size="10.00">alpaqa/util/not&#45;implemented.hpp</text>
</a>
</g>
</g>
<!-- Node8&#45;&gt;Node24 -->
<g id="edge32_Node000008_Node000024" class="edge">
<title>Node8&#45;&gt;Node24</title>
<g id="a_edge32_Node000008_Node000024"><a xlink:title=" ">
<path fill="none" stroke="#63b8ff" d="M804.9,-307.96C831.53,-284.45 884.94,-237.29 912.56,-212.9"/>
<polygon fill="#63b8ff" stroke="#63b8ff" points="915.07,-215.35 920.25,-206.11 910.44,-210.1 915.07,-215.35"/>
</a>
</g>
</g>
<!-- Node25 -->
<g id="Node000025" class="node">
<title>Node25</title>
<g id="a_Node000025"><a xlink:href="required-method_8hpp.html" target="_top" xlink:title=" ">
<polygon fill="white" stroke="#666666" points="1348,-272 1236,-272 1236,-242 1348,-242 1348,-272"/>
<text text-anchor="start" x="1244" y="-260" font-family="Helvetica,sans-Serif" font-size="10.00">alpaqa/util/required</text>
<text text-anchor="middle" x="1292" y="-249" font-family="Helvetica,sans-Serif" font-size="10.00">&#45;method.hpp</text>
</a>
</g>
</g>
<!-- Node8&#45;&gt;Node25 -->
<g id="edge35_Node000008_Node000025" class="edge">
<title>Node8&#45;&gt;Node25</title>
<g id="a_edge35_Node000008_Node000025"><a xlink:title=" ">
<path fill="none" stroke="#63b8ff" d="M848.68,-314.41C943.3,-302.37 1127.14,-278.98 1225.73,-266.43"/>
<polygon fill="#63b8ff" stroke="#63b8ff" points="1226.39,-269.88 1235.87,-265.14 1225.51,-262.93 1226.39,-269.88"/>
</a>
</g>
</g>
<!-- Node26 -->
<g id="Node000026" class="node">
<title>Node26</title>
<g id="a_Node000026"><a xlink:href="type-erasure_8hpp.html" target="_top" xlink:title=" ">
<polygon fill="white" stroke="#666666" points="1369.5,-206 1214.5,-206 1214.5,-187 1369.5,-187 1369.5,-206"/>
<text text-anchor="middle" x="1292" y="-194" font-family="Helvetica,sans-Serif" font-size="10.00">alpaqa/util/type&#45;erasure.hpp</text>
</a>
</g>
</g>
<!-- Node8&#45;&gt;Node26 -->
<g id="edge58_Node000008_Node000026" class="edge">
<title>Node8&#45;&gt;Node26</title>
<g id="a_edge58_Node000008_Node000026"><a xlink:title=" ">
<path fill="none" stroke="#63b8ff" d="M848.68,-318.29C905.02,-313.13 990.91,-300.87 1060,-272 1081.5,-263.02 1081.72,-251.51 1103,-242 1139.99,-225.47 1183.91,-214.65 1220.1,-207.83"/>
<polygon fill="#63b8ff" stroke="#63b8ff" points="1220.88,-211.24 1230.09,-206.01 1219.63,-204.36 1220.88,-211.24"/>
</a>
</g>
</g>
<!-- Node36 -->
<g id="Node000036" class="node">
<title>Node36</title>
<g id="a_Node000036"><a xlink:title=" ">
<polygon fill="#e0e0e0" stroke="#999999" points="1929.5,-145.5 1884.5,-145.5 1884.5,-126.5 1929.5,-126.5 1929.5,-145.5"/>
<text text-anchor="middle" x="1907" y="-133.5" font-family="Helvetica,sans-Serif" font-size="10.00">utility</text>
</a>
</g>
</g>
<!-- Node8&#45;&gt;Node36 -->
<g id="edge62_Node000008_Node000036" class="edge">
<title>Node8&#45;&gt;Node36</title>
<g id="a_edge62_Node000008_Node000036"><a xlink:title=" ">
<path fill="none" stroke="#63b8ff" d="M848.62,-319.53C952.46,-314.6 1172.98,-301.4 1357,-272 1590.89,-234.63 1651.67,-226.99 1876,-151 1877.4,-150.53 1878.82,-150.01 1880.24,-149.47"/>
<polygon fill="#63b8ff" stroke="#63b8ff" points="1881.65,-152.68 1889.53,-145.6 1878.96,-146.21 1881.65,-152.68"/>
</a>
</g>
</g>
<!-- Node37 -->
<g id="Node000037" class="node">
<title>Node37</title>
<g id="a_Node000037"><a xlink:title=" ">
<polygon fill="#e0e0e0" stroke="#999999" points="1162,-266.5 1112,-266.5 1112,-247.5 1162,-247.5 1162,-266.5"/>
<text text-anchor="middle" x="1137" y="-254.5" font-family="Helvetica,sans-Serif" font-size="10.00">chrono</text>
</a>
</g>
</g>
<!-- Node8&#45;&gt;Node37 -->
<g id="edge59_Node000008_Node000037" class="edge">
<title>Node8&#45;&gt;Node37</title>
<g id="a_edge59_Node000008_Node000037"><a xlink:title=" ">
<path fill="none" stroke="#63b8ff" d="M848.62,-315.66C911.35,-308.22 1012.62,-294.03 1098,-272 1100.5,-271.36 1103.06,-270.62 1105.63,-269.82"/>
<polygon fill="#63b8ff" stroke="#63b8ff" points="1106.98,-273.06 1115.36,-266.57 1104.76,-266.42 1106.98,-273.06"/>
</a>
</g>
</g>
<!-- Node10 -->
<g id="Node000010" class="node">
<title>Node10</title>
<g id="a_Node000010"><a xlink:title=" ">
<polygon fill="#e0e0e0" stroke="#999999" points="990.5,-19 897.5,-19 897.5,0 990.5,0 990.5,-19"/>
<text text-anchor="middle" x="944" y="-7" font-family="Helvetica,sans-Serif" font-size="10.00">alpaqa/export.h</text>
</a>
</g>
</g>
<!-- Node9&#45;&gt;Node10 -->
<g id="edge10_Node000009_Node000010" class="edge">
<title>Node9&#45;&gt;Node10</title>
<g id="a_edge10_Node000009_Node000010"><a xlink:title=" ">
<path fill="none" stroke="#63b8ff" d="M1015.61,-60.37C1002.21,-51.04 980.62,-36.01 964.65,-24.88"/>
<polygon fill="#63b8ff" stroke="#63b8ff" points="966.65,-22.01 956.45,-19.17 962.65,-27.75 966.65,-22.01"/>
</a>
</g>
</g>
<!-- Node11&#45;&gt;Node2 -->
<g id="edge12_Node000011_Node000002" class="edge">
<title>Node11&#45;&gt;Node2</title>
<g id="a_edge12_Node000011_Node000002"><a xlink:title=" ">
<path fill="none" stroke="#63b8ff" d="M326.82,-186.99C305.99,-177.25 271.63,-161.16 247.52,-149.88"/>
<polygon fill="#63b8ff" stroke="#63b8ff" points="248.74,-146.59 238.2,-145.52 245.77,-152.93 248.74,-146.59"/>
</a>
</g>
</g>
<!-- Node12 -->
<g id="Node000012" class="node">
<title>Node12</title>
<g id="a_Node000012"><a xlink:href="float_8hpp.html" target="_top" xlink:title=" ">
<polygon fill="white" stroke="#666666" points="420,-145.5 306,-145.5 306,-126.5 420,-126.5 420,-145.5"/>
<text text-anchor="middle" x="363" y="-133.5" font-family="Helvetica,sans-Serif" font-size="10.00">alpaqa/util/float.hpp</text>
</a>
</g>
</g>
<!-- Node11&#45;&gt;Node12 -->
<g id="edge13_Node000011_Node000012" class="edge">
<title>Node11&#45;&gt;Node12</title>
<g id="a_edge13_Node000011_Node000012"><a xlink:title=" ">
<path fill="none" stroke="#63b8ff" d="M347.66,-186.87C350.18,-178.66 354.06,-166.04 357.29,-155.55"/>
<polygon fill="#63b8ff" stroke="#63b8ff" points="360.74,-156.25 360.33,-145.67 354.05,-154.2 360.74,-156.25"/>
</a>
</g>
</g>
<!-- Node12&#45;&gt;Node4 -->
<g id="edge14_Node000012_Node000004" class="edge">
<title>Node12&#45;&gt;Node4</title>
<g id="a_edge14_Node000012_Node000004"><a xlink:title=" ">
<path fill="none" stroke="#63b8ff" d="M362.46,-126.37C361.97,-118.49 361.22,-106.45 360.54,-95.6"/>
<polygon fill="#63b8ff" stroke="#63b8ff" points="364.01,-95.12 359.9,-85.36 357.03,-95.56 364.01,-95.12"/>
</a>
</g>
</g>
<!-- Node12&#45;&gt;Node6 -->
<g id="edge18_Node000012_Node000006" class="edge">
<title>Node12&#45;&gt;Node6</title>
<g id="a_edge18_Node000012_Node000006"><a xlink:title=" ">
<path fill="none" stroke="#63b8ff" d="M420.19,-127.13C435.69,-125.06 452.48,-122.89 468,-121 618.05,-102.75 796.31,-84.02 878.02,-75.59"/>
<polygon fill="#63b8ff" stroke="#63b8ff" points="878.85,-79.03 888.44,-74.52 878.13,-72.07 878.85,-79.03"/>
</a>
</g>
</g>
<!-- Node13 -->
<g id="Node000013" class="node">
<title>Node13</title>
<g id="a_Node000013"><a xlink:title=" ">
<polygon fill="#e0e0e0" stroke="#999999" points="561.5,-79.5 514.5,-79.5 514.5,-60.5 561.5,-60.5 561.5,-79.5"/>
<text text-anchor="middle" x="538" y="-67.5" font-family="Helvetica,sans-Serif" font-size="10.00">cmath</text>
</a>
</g>
</g>
<!-- Node12&#45;&gt;Node13 -->
<g id="edge15_Node000012_Node000013" class="edge">
<title>Node12&#45;&gt;Node13</title>
<g id="a_edge15_Node000012_Node000013"><a xlink:title=" ">
<path fill="none" stroke="#63b8ff" d="M389.31,-126.47C418.17,-116.96 465.73,-100.82 506,-85 507.21,-84.53 508.43,-84.03 509.67,-83.53"/>
<polygon fill="#63b8ff" stroke="#63b8ff" points="511.3,-86.64 519.15,-79.53 508.57,-80.19 511.3,-86.64"/>
</a>
</g>
</g>
<!-- Node14 -->
<g id="Node000014" class="node">
<title>Node14</title>
<g id="a_Node000014"><a xlink:title=" ">
<polygon fill="#e0e0e0" stroke="#999999" points="496.5,-79.5 437.5,-79.5 437.5,-60.5 496.5,-60.5 496.5,-79.5"/>
<text text-anchor="middle" x="467" y="-67.5" font-family="Helvetica,sans-Serif" font-size="10.00">complex</text>
</a>
</g>
</g>
<!-- Node12&#45;&gt;Node14 -->
<g id="edge16_Node000012_Node000014" class="edge">
<title>Node12&#45;&gt;Node14</title>
<g id="a_edge16_Node000012_Node000014"><a xlink:title=" ">
<path fill="none" stroke="#63b8ff" d="M377.03,-126.37C394.24,-115.78 423.66,-97.67 444.15,-85.06"/>
<polygon fill="#63b8ff" stroke="#63b8ff" points="446.18,-87.92 452.86,-79.7 442.51,-81.96 446.18,-87.92"/>
</a>
</g>
</g>
<!-- Node15 -->
<g id="Node000015" class="node">
<title>Node15</title>
<g id="a_Node000015"><a xlink:title=" ">
<polygon fill="#e0e0e0" stroke="#999999" points="640,-79.5 580,-79.5 580,-60.5 640,-60.5 640,-79.5"/>
<text text-anchor="middle" x="610" y="-67.5" font-family="Helvetica,sans-Serif" font-size="10.00">concepts</text>
</a>
</g>
</g>
<!-- Node12&#45;&gt;Node15 -->
<g id="edge17_Node000012_Node000015" class="edge">
<title>Node12&#45;&gt;Node15</title>
<g id="a_edge17_Node000012_Node000015"><a xlink:title=" ">
<path fill="none" stroke="#63b8ff" d="M404.4,-126.44C446.63,-117.38 513.88,-102.06 571,-85 573.27,-84.32 575.6,-83.59 577.94,-82.82"/>
<polygon fill="#63b8ff" stroke="#63b8ff" points="579.13,-86.11 587.45,-79.56 576.86,-79.49 579.13,-86.11"/>
</a>
</g>
</g>
<!-- Node16&#45;&gt;Node2 -->
<g id="edge20_Node000016_Node000002" class="edge">
<title>Node16&#45;&gt;Node2</title>
<g id="a_edge20_Node000016_Node000002"><a xlink:title=" ">
<path fill="none" stroke="#63b8ff" d="M466.12,-186.99C414.72,-176.55 327.55,-158.85 271.93,-147.55"/>
<polygon fill="#63b8ff" stroke="#63b8ff" points="272.42,-144.08 261.93,-145.52 271.03,-150.94 272.42,-144.08"/>
</a>
</g>
</g>
<!-- Node16&#45;&gt;Node9 -->
<g id="edge21_Node000016_Node000009" class="edge">
<title>Node16&#45;&gt;Node9</title>
<g id="a_edge21_Node000016_Node000009"><a xlink:title=" ">
<path fill="none" stroke="#63b8ff" d="M512.87,-186.67C522.39,-170.39 545.15,-135.98 575,-121 653.19,-81.78 880.62,-98.82 967,-85 972.77,-84.08 978.82,-82.92 984.76,-81.68"/>
<polygon fill="#63b8ff" stroke="#63b8ff" points="985.58,-85.08 994.6,-79.52 984.08,-78.24 985.58,-85.08"/>
</a>
</g>
</g>
<!-- Node16&#45;&gt;Node15 -->
<g id="edge23_Node000016_Node000015" class="edge">
<title>Node16&#45;&gt;Node15</title>
<g id="a_edge23_Node000016_Node000015"><a xlink:title=" ">
<path fill="none" stroke="#63b8ff" d="M497.12,-186.83C480.47,-172.51 452.2,-143.27 468,-121 496.07,-81.46 525.29,-101.19 571,-85 572.83,-84.35 574.71,-83.68 576.61,-83.01"/>
<polygon fill="#63b8ff" stroke="#63b8ff" points="577.85,-86.28 586.09,-79.62 575.49,-79.69 577.85,-86.28"/>
</a>
</g>
</g>
<!-- Node17 -->
<g id="Node000017" class="node">
<title>Node17</title>
<g id="a_Node000017"><a xlink:title=" ">
<polygon fill="#e0e0e0" stroke="#999999" points="636,-145.5 584,-145.5 584,-126.5 636,-126.5 636,-145.5"/>
<text text-anchor="middle" x="610" y="-133.5" font-family="Helvetica,sans-Serif" font-size="10.00">cassert</text>
</a>
</g>
</g>
<!-- Node16&#45;&gt;Node17 -->
<g id="edge22_Node000016_Node000017" class="edge">
<title>Node16&#45;&gt;Node17</title>
<g id="a_edge22_Node000016_Node000017"><a xlink:title=" ">
<path fill="none" stroke="#63b8ff" d="M523.05,-186.87C539.62,-177.36 566.5,-161.95 585.99,-150.77"/>
<polygon fill="#63b8ff" stroke="#63b8ff" points="587.95,-153.68 594.89,-145.67 584.47,-147.61 587.95,-153.68"/>
</a>
</g>
</g>
<!-- Node18 -->
<g id="Node000018" class="node">
<title>Node18</title>
<g id="a_Node000018"><a xlink:title=" ">
<polygon fill="#e0e0e0" stroke="#999999" points="527.5,-145.5 476.5,-145.5 476.5,-126.5 527.5,-126.5 527.5,-145.5"/>
<text text-anchor="middle" x="502" y="-133.5" font-family="Helvetica,sans-Serif" font-size="10.00">variant</text>
</a>
</g>
</g>
<!-- Node16&#45;&gt;Node18 -->
<g id="edge24_Node000016_Node000018" class="edge">
<title>Node16&#45;&gt;Node18</title>
<g id="a_edge24_Node000016_Node000018"><a xlink:title=" ">
<path fill="none" stroke="#63b8ff" d="M507.11,-186.87C506.28,-178.75 505.01,-166.31 503.94,-155.89"/>
<polygon fill="#63b8ff" stroke="#63b8ff" points="507.39,-155.26 502.89,-145.67 500.43,-155.97 507.39,-155.26"/>
</a>
</g>
</g>
<!-- Node19&#45;&gt;Node7 -->
<g id="edge26_Node000019_Node000007" class="edge">
<title>Node19&#45;&gt;Node7</title>
<g id="a_edge26_Node000019_Node000007"><a xlink:title=" ">
<path fill="none" stroke="#63b8ff" d="M72.55,-247.08C67.93,-218.57 53.45,-129.24 47.07,-89.91"/>
<polygon fill="#63b8ff" stroke="#63b8ff" points="50.49,-89.14 45.43,-79.83 43.58,-90.26 50.49,-89.14"/>
</a>
</g>
</g>
<!-- Node20&#45;&gt;Node2 -->
<g id="edge28_Node000020_Node000002" class="edge">
<title>Node20&#45;&gt;Node2</title>
<g id="a_edge28_Node000020_Node000002"><a xlink:title=" ">
<path fill="none" stroke="#63b8ff" d="M642.23,-189.46C558.98,-182.07 417.71,-168.39 297,-151 289.52,-149.92 281.65,-148.65 273.92,-147.32"/>
<polygon fill="#63b8ff" stroke="#63b8ff" points="274.34,-143.84 263.89,-145.56 273.13,-150.74 274.34,-143.84"/>
</a>
</g>
</g>
<!-- Node21 -->
<g id="Node000021" class="node">
<title>Node21</title>
<g id="a_Node000021"><a xlink:title=" ">
<polygon fill="#e0e0e0" stroke="#999999" points="748,-145.5 692,-145.5 692,-126.5 748,-126.5 748,-145.5"/>
<text text-anchor="middle" x="720" y="-133.5" font-family="Helvetica,sans-Serif" font-size="10.00">optional</text>
</a>
</g>
</g>
<!-- Node20&#45;&gt;Node21 -->
<g id="edge29_Node000020_Node000021" class="edge">
<title>Node20&#45;&gt;Node21</title>
<g id="a_edge29_Node000020_Node000021"><a xlink:title=" ">
<path fill="none" stroke="#63b8ff" d="M714.89,-186.87C715.72,-178.75 716.99,-166.31 718.06,-155.89"/>
<polygon fill="#63b8ff" stroke="#63b8ff" points="721.57,-155.97 719.11,-145.67 714.61,-155.26 721.57,-155.97"/>
</a>
</g>
</g>
<!-- Node20&#45;&gt;Node22 -->
<g id="edge30_Node000020_Node000022" class="edge">
<title>Node20&#45;&gt;Node22</title>
<g id="a_edge30_Node000020_Node000022"><a xlink:title=" ">
<path fill="none" stroke="#63b8ff" d="M726.54,-186.87C740.1,-177.54 761.94,-162.51 778.1,-151.38"/>
<polygon fill="#63b8ff" stroke="#63b8ff" points="780.15,-154.22 786.41,-145.67 776.18,-148.45 780.15,-154.22"/>
</a>
</g>
</g>
<!-- Node23 -->
<g id="Node000023" class="node">
<title>Node23</title>
<g id="a_Node000023"><a xlink:title=" ">
<polygon fill="#e0e0e0" stroke="#999999" points="1186,-79.5 1142,-79.5 1142,-60.5 1186,-60.5 1186,-79.5"/>
<text text-anchor="middle" x="1164" y="-67.5" font-family="Helvetica,sans-Serif" font-size="10.00">string</text>
</a>
</g>
</g>
<!-- Node20&#45;&gt;Node23 -->
<g id="edge31_Node000020_Node000023" class="edge">
<title>Node20&#45;&gt;Node23</title>
<g id="a_edge31_Node000020_Node000023"><a xlink:title=" ">
<path fill="none" stroke="#63b8ff" d="M785.74,-189.25C897.86,-179.25 1103.3,-159.87 1117,-151 1139.14,-136.66 1152.19,-107.93 1158.72,-89.08"/>
<polygon fill="#63b8ff" stroke="#63b8ff" points="1162.05,-90.14 1161.76,-79.55 1155.38,-88.02 1162.05,-90.14"/>
</a>
</g>
</g>
<!-- Node24&#45;&gt;Node10 -->
<g id="edge33_Node000024_Node000010" class="edge">
<title>Node24&#45;&gt;Node10</title>
<g id="a_edge33_Node000024_Node000010"><a xlink:title=" ">
<path fill="none" stroke="#63b8ff" d="M916.45,-186.72C905.56,-178.82 890.97,-166.14 884,-151 866.15,-112.21 860.22,-92.85 880,-55 887.11,-41.39 900.49,-31.1 913.19,-23.87"/>
<polygon fill="#63b8ff" stroke="#63b8ff" points="914.98,-26.88 922.21,-19.13 911.73,-20.68 914.98,-26.88"/>
</a>
</g>
</g>
<!-- Node24&#45;&gt;Node22 -->
<g id="edge34_Node000024_Node000022" class="edge">
<title>Node24&#45;&gt;Node22</title>
<g id="a_edge34_Node000024_Node000022"><a xlink:title=" ">
<path fill="none" stroke="#63b8ff" d="M910.95,-186.99C889.03,-177.2 852.79,-161.02 827.5,-149.73"/>
<polygon fill="#63b8ff" stroke="#63b8ff" points="828.63,-146.4 818.07,-145.52 825.78,-152.79 828.63,-146.4"/>
</a>
</g>
</g>
<!-- Node25&#45;&gt;Node26 -->
<g id="edge36_Node000025_Node000026" class="edge">
<title>Node25&#45;&gt;Node26</title>
<g id="a_edge36_Node000025_Node000026"><a xlink:title=" ">
<path fill="none" stroke="#63b8ff" d="M1292,-241.84C1292,-234.21 1292,-224.7 1292,-216.45"/>
<polygon fill="#63b8ff" stroke="#63b8ff" points="1295.5,-216.27 1292,-206.27 1288.5,-216.27 1295.5,-216.27"/>
</a>
</g>
</g>
<!-- Node34 -->
<g id="Node000034" class="node">
<title>Node34</title>
<g id="a_Node000034"><a xlink:title=" ">
<polygon fill="#e0e0e0" stroke="#999999" points="1866.5,-145.5 1801.5,-145.5 1801.5,-126.5 1866.5,-126.5 1866.5,-145.5"/>
<text text-anchor="middle" x="1834" y="-133.5" font-family="Helvetica,sans-Serif" font-size="10.00">functional</text>
</a>
</g>
</g>
<!-- Node25&#45;&gt;Node34 -->
<g id="edge57_Node000025_Node000034" class="edge">
<title>Node25&#45;&gt;Node34</title>
<g id="a_edge57_Node000025_Node000034"><a xlink:title=" ">
<path fill="none" stroke="#63b8ff" d="M1348.36,-246.34C1441.48,-229.91 1632.97,-194.05 1792,-151 1794.62,-150.29 1797.32,-149.51 1800.02,-148.69"/>
<polygon fill="#63b8ff" stroke="#63b8ff" points="1801.24,-151.98 1809.71,-145.62 1799.12,-145.31 1801.24,-151.98"/>
</a>
</g>
</g>
<!-- Node26&#45;&gt;Node6 -->
<g id="edge54_Node000026_Node000006" class="edge">
<title>Node26&#45;&gt;Node6</title>
<g id="a_edge54_Node000026_Node000006"><a xlink:title=" ">
<path fill="none" stroke="#63b8ff" d="M1214.46,-194.04C1128.03,-190.91 995.24,-181.18 956,-151 936.78,-136.22 928.68,-108.27 925.31,-89.64"/>
<polygon fill="#63b8ff" stroke="#63b8ff" points="928.76,-89.04 923.8,-79.68 921.84,-90.09 928.76,-89.04"/>
</a>
</g>
</g>
<!-- Node26&#45;&gt;Node9 -->
<g id="edge37_Node000026_Node000009" class="edge">
<title>Node26&#45;&gt;Node9</title>
<g id="a_edge37_Node000026_Node000009"><a xlink:title=" ">
<path fill="none" stroke="#63b8ff" d="M1272.79,-186.93C1252.98,-178.06 1221.25,-163.75 1194,-151 1144.63,-127.9 1087.45,-100.11 1054.72,-84.11"/>
<polygon fill="#63b8ff" stroke="#63b8ff" points="1055.9,-80.79 1045.38,-79.54 1052.83,-87.08 1055.9,-80.79"/>
</a>
</g>
</g>
<!-- Node26&#45;&gt;Node17 -->
<g id="edge48_Node000026_Node000017" class="edge">
<title>Node26&#45;&gt;Node17</title>
<g id="a_edge48_Node000026_Node000017"><a xlink:title=" ">
<path fill="none" stroke="#63b8ff" d="M1214.32,-192.72C1098.27,-187.92 872.97,-176.07 683,-151 670.93,-149.41 657.84,-147.09 646.12,-144.79"/>
<polygon fill="#63b8ff" stroke="#63b8ff" points="646.73,-141.34 636.24,-142.8 645.35,-148.21 646.73,-141.34"/>
</a>
</g>
</g>
<!-- Node26&#45;&gt;Node22 -->
<g id="edge53_Node000026_Node000022" class="edge">
<title>Node26&#45;&gt;Node22</title>
<g id="a_edge53_Node000026_Node000022"><a xlink:title=" ">
<path fill="none" stroke="#63b8ff" d="M1220.31,-186.99C1116.23,-174.64 926.48,-152.13 841.79,-142.08"/>
<polygon fill="#63b8ff" stroke="#63b8ff" points="842.1,-138.59 831.76,-140.89 841.27,-145.54 842.1,-138.59"/>
</a>
</g>
</g>
<!-- Node27 -->
<g id="Node000027" class="node">
<title>Node27</title>
<g id="a_Node000027"><a xlink:href="demangled-typename_8hpp.html" target="_top" xlink:title=" ">
<polygon fill="white" stroke="#666666" points="1455,-151 1329,-151 1329,-121 1455,-121 1455,-151"/>
<text text-anchor="start" x="1337" y="-139" font-family="Helvetica,sans-Serif" font-size="10.00">alpaqa/util/demangled</text>
<text text-anchor="middle" x="1392" y="-128" font-family="Helvetica,sans-Serif" font-size="10.00">&#45;typename.hpp</text>
</a>
</g>
</g>
<!-- Node26&#45;&gt;Node27 -->
<g id="edge38_Node000026_Node000027" class="edge">
<title>Node26&#45;&gt;Node27</title>
<g id="a_edge38_Node000026_Node000027"><a xlink:title=" ">
<path fill="none" stroke="#63b8ff" d="M1306.76,-186.87C1320.45,-178.86 1341.32,-166.65 1358.98,-156.31"/>
<polygon fill="#63b8ff" stroke="#63b8ff" points="1361.01,-159.19 1367.87,-151.11 1357.47,-153.14 1361.01,-159.19"/>
</a>
</g>
</g>
<!-- Node28 -->
<g id="Node000028" class="node">
<title>Node28</title>
<g id="a_Node000028"><a xlink:title=" ">
<polygon fill="#e0e0e0" stroke="#999999" points="1569.5,-79.5 1512.5,-79.5 1512.5,-60.5 1569.5,-60.5 1569.5,-79.5"/>
<text text-anchor="middle" x="1541" y="-67.5" font-family="Helvetica,sans-Serif" font-size="10.00">typeinfo</text>
</a>
</g>
</g>
<!-- Node26&#45;&gt;Node28 -->
<g id="edge55_Node000026_Node000028" class="edge">
<title>Node26&#45;&gt;Node28</title>
<g id="a_edge55_Node000026_Node000028"><a xlink:title=" ">
<path fill="none" stroke="#63b8ff" d="M1369.9,-191.25C1469.88,-184.97 1632.7,-171.71 1651,-151 1677.49,-121.02 1620.74,-95.69 1579.33,-81.98"/>
<polygon fill="#63b8ff" stroke="#63b8ff" points="1580.3,-78.61 1569.71,-78.91 1578.17,-85.28 1580.3,-78.61"/>
</a>
</g>
</g>
<!-- Node29 -->
<g id="Node000029" class="node">
<title>Node29</title>
<g id="a_Node000029"><a xlink:href="noop-delete_8hpp.html" target="_top" xlink:title=" ">
<polygon fill="white" stroke="#666666" points="1624.5,-145.5 1473.5,-145.5 1473.5,-126.5 1624.5,-126.5 1624.5,-145.5"/>
<text text-anchor="middle" x="1549" y="-133.5" font-family="Helvetica,sans-Serif" font-size="10.00">alpaqa/util/noop&#45;delete.hpp</text>
</a>
</g>
</g>
<!-- Node26&#45;&gt;Node29 -->
<g id="edge42_Node000026_Node000029" class="edge">
<title>Node26&#45;&gt;Node29</title>
<g id="a_edge42_Node000026_Node000029"><a xlink:title=" ">
<path fill="none" stroke="#63b8ff" d="M1329.37,-186.99C1374.95,-176.62 1452.06,-159.07 1501.73,-147.76"/>
<polygon fill="#63b8ff" stroke="#63b8ff" points="1502.61,-151.15 1511.58,-145.52 1501.06,-144.32 1502.61,-151.15"/>
</a>
</g>
</g>
<!-- Node30 -->
<g id="Node000030" class="node">
<title>Node30</title>
<g id="a_Node000030"><a xlink:href="type-traits_8hpp.html" target="_top" xlink:title=" ">
<polygon fill="white" stroke="#666666" points="1107.5,-145.5 964.5,-145.5 964.5,-126.5 1107.5,-126.5 1107.5,-145.5"/>
<text text-anchor="middle" x="1036" y="-133.5" font-family="Helvetica,sans-Serif" font-size="10.00">alpaqa/util/type&#45;traits.hpp</text>
</a>
</g>
</g>
<!-- Node26&#45;&gt;Node30 -->
<g id="edge43_Node000026_Node000030" class="edge">
<title>Node26&#45;&gt;Node30</title>
<g id="a_edge43_Node000026_Node000030"><a xlink:title=" ">
<path fill="none" stroke="#63b8ff" d="M1254.78,-186.99C1209.37,-176.62 1132.56,-159.07 1083.09,-147.76"/>
<polygon fill="#63b8ff" stroke="#63b8ff" points="1083.8,-144.33 1073.27,-145.52 1082.24,-151.16 1083.8,-144.33"/>
</a>
</g>
</g>
<!-- Node31 -->
<g id="Node000031" class="node">
<title>Node31</title>
<g id="a_Node000031"><a xlink:title=" ">
<polygon fill="#e0e0e0" stroke="#999999" points="1317,-79.5 1259,-79.5 1259,-60.5 1317,-60.5 1317,-79.5"/>
<text text-anchor="middle" x="1288" y="-67.5" font-family="Helvetica,sans-Serif" font-size="10.00">memory</text>
</a>
</g>
</g>
<!-- Node26&#45;&gt;Node31 -->
<g id="edge51_Node000026_Node000031" class="edge">
<title>Node26&#45;&gt;Node31</title>
<g id="a_edge51_Node000026_Node000031"><a xlink:title=" ">
<path fill="none" stroke="#63b8ff" d="M1369.91,-190.72C1465.43,-184.06 1616.84,-170.54 1634,-151 1642.8,-140.98 1642.73,-131.08 1634,-121 1614.12,-98.04 1413.82,-80.42 1327.38,-73.82"/>
<polygon fill="#63b8ff" stroke="#63b8ff" points="1327.41,-70.32 1317.18,-73.06 1326.89,-77.3 1327.41,-70.32"/>
</a>
</g>
</g>
<!-- Node32 -->
<g id="Node000032" class="node">
<title>Node32</title>
<g id="a_Node000032"><a xlink:title=" ">
<polygon fill="#e0e0e0" stroke="#999999" points="1783,-145.5 1719,-145.5 1719,-126.5 1783,-126.5 1783,-145.5"/>
<text text-anchor="middle" x="1751" y="-133.5" font-family="Helvetica,sans-Serif" font-size="10.00">algorithm</text>
</a>
</g>
</g>
<!-- Node26&#45;&gt;Node32 -->
<g id="edge47_Node000026_Node000032" class="edge">
<title>Node26&#45;&gt;Node32</title>
<g id="a_edge47_Node000026_Node000032"><a xlink:title=" ">
<path fill="none" stroke="#63b8ff" d="M1369.55,-191.51C1453.05,-186.2 1589.47,-174.59 1705,-151 1708.65,-150.25 1712.43,-149.34 1716.17,-148.35"/>
<polygon fill="#63b8ff" stroke="#63b8ff" points="1717.26,-151.68 1725.91,-145.57 1715.34,-144.95 1717.26,-151.68"/>
</a>
</g>
</g>
<!-- Node33 -->
<g id="Node000033" class="node">
<title>Node33</title>
<g id="a_Node000033"><a xlink:title=" ">
<polygon fill="#e0e0e0" stroke="#999999" points="1255.5,-145.5 1202.5,-145.5 1202.5,-126.5 1255.5,-126.5 1255.5,-145.5"/>
<text text-anchor="middle" x="1229" y="-133.5" font-family="Helvetica,sans-Serif" font-size="10.00">cstddef</text>
</a>
</g>
</g>
<!-- Node26&#45;&gt;Node33 -->
<g id="edge49_Node000026_Node000033" class="edge">
<title>Node26&#45;&gt;Node33</title>
<g id="a_edge49_Node000026_Node000033"><a xlink:title=" ">
<path fill="none" stroke="#63b8ff" d="M1282.7,-186.87C1273.03,-177.88 1257.66,-163.61 1245.84,-152.64"/>
<polygon fill="#63b8ff" stroke="#63b8ff" points="1248.04,-149.91 1238.33,-145.67 1243.28,-155.04 1248.04,-149.91"/>
</a>
</g>
</g>
<!-- Node26&#45;&gt;Node34 -->
<g id="edge50_Node000026_Node000034" class="edge">
<title>Node26&#45;&gt;Node34</title>
<g id="a_edge50_Node000026_Node000034"><a xlink:title=" ">
<path fill="none" stroke="#63b8ff" d="M1369.91,-194.16C1468.97,-191.19 1644.82,-181.64 1792,-151 1795.24,-150.33 1798.57,-149.48 1801.88,-148.55"/>
<polygon fill="#63b8ff" stroke="#63b8ff" points="1803.08,-151.84 1811.6,-145.54 1801.01,-145.15 1803.08,-151.84"/>
</a>
</g>
</g>
<!-- Node35 -->
<g id="Node000035" class="node">
<title>Node35</title>
<g id="a_Node000035"><a xlink:title=" ">
<polygon fill="#e0e0e0" stroke="#999999" points="1310.5,-145.5 1273.5,-145.5 1273.5,-126.5 1310.5,-126.5 1310.5,-145.5"/>
<text text-anchor="middle" x="1292" y="-133.5" font-family="Helvetica,sans-Serif" font-size="10.00">new</text>
</a>
</g>
</g>
<!-- Node26&#45;&gt;Node35 -->
<g id="edge52_Node000026_Node000035" class="edge">
<title>Node26&#45;&gt;Node35</title>
<g id="a_edge52_Node000026_Node000035"><a xlink:title=" ">
<path fill="none" stroke="#63b8ff" d="M1292,-186.87C1292,-178.75 1292,-166.31 1292,-155.89"/>
<polygon fill="#63b8ff" stroke="#63b8ff" points="1295.5,-155.67 1292,-145.67 1288.5,-155.67 1295.5,-155.67"/>
</a>
</g>
</g>
<!-- Node26&#45;&gt;Node36 -->
<g id="edge56_Node000026_Node000036" class="edge">
<title>Node26&#45;&gt;Node36</title>
<g id="a_edge56_Node000026_Node000036"><a xlink:title=" ">
<path fill="none" stroke="#63b8ff" d="M1369.5,-192.93C1505.69,-187.86 1782.35,-174.93 1876,-151 1877.73,-150.56 1879.49,-150.02 1881.23,-149.43"/>
<polygon fill="#63b8ff" stroke="#63b8ff" points="1883,-152.49 1890.98,-145.51 1880.39,-145.99 1883,-152.49"/>
</a>
</g>
</g>
<!-- Node27&#45;&gt;Node9 -->
<g id="edge39_Node000027_Node000009" class="edge">
<title>Node27&#45;&gt;Node9</title>
<g id="a_edge39_Node000027_Node000009"><a xlink:title=" ">
<path fill="none" stroke="#63b8ff" d="M1328.8,-122.63C1325.83,-122.07 1322.88,-121.53 1320,-121 1240.61,-106.49 1148.83,-90.98 1089.68,-81.15"/>
<polygon fill="#63b8ff" stroke="#63b8ff" points="1090.19,-77.69 1079.75,-79.5 1089.05,-84.59 1090.19,-77.69"/>
</a>
</g>
</g>
<!-- Node27&#45;&gt;Node23 -->
<g id="edge40_Node000027_Node000023" class="edge">
<title>Node27&#45;&gt;Node23</title>
<g id="a_edge40_Node000027_Node000023"><a xlink:title=" ">
<path fill="none" stroke="#63b8ff" d="M1341.96,-120.95C1297.63,-108.51 1234.22,-90.71 1196.27,-80.06"/>
<polygon fill="#63b8ff" stroke="#63b8ff" points="1196.86,-76.59 1186.28,-77.25 1194.96,-83.33 1196.86,-76.59"/>
</a>
</g>
</g>
<!-- Node27&#45;&gt;Node28 -->
<g id="edge41_Node000027_Node000028" class="edge">
<title>Node27&#45;&gt;Node28</title>
<g id="a_edge41_Node000027_Node000028"><a xlink:title=" ">
<path fill="none" stroke="#63b8ff" d="M1424.7,-120.95C1450.71,-109.78 1486.78,-94.29 1511.83,-83.53"/>
<polygon fill="#63b8ff" stroke="#63b8ff" points="1513.36,-86.68 1521.17,-79.52 1510.6,-80.25 1513.36,-86.68"/>
</a>
</g>
</g>
<!-- Node30&#45;&gt;Node6 -->
<g id="edge46_Node000030_Node000006" class="edge">
<title>Node30&#45;&gt;Node6</title>
<g id="a_edge46_Node000030_Node000006"><a xlink:title=" ">
<path fill="none" stroke="#63b8ff" d="M1020.76,-126.37C1001.89,-115.68 969.52,-97.35 947.23,-84.72"/>
<polygon fill="#63b8ff" stroke="#63b8ff" points="948.79,-81.58 938.36,-79.7 945.34,-87.67 948.79,-81.58"/>
</a>
</g>
</g>
<!-- Node30&#45;&gt;Node15 -->
<g id="edge44_Node000030_Node000015" class="edge">
<title>Node30&#45;&gt;Node15</title>
<g id="a_edge44_Node000030_Node000015"><a xlink:title=" ">
<path fill="none" stroke="#63b8ff" d="M978.99,-126.44C891.51,-113.29 726.32,-88.48 650.23,-77.04"/>
<polygon fill="#63b8ff" stroke="#63b8ff" points="650.51,-73.55 640.1,-75.52 649.47,-80.47 650.51,-73.55"/>
</a>
</g>
</g>
<!-- Node30&#45;&gt;Node31 -->
<g id="edge45_Node000030_Node000031" class="edge">
<title>Node30&#45;&gt;Node31</title>
<g id="a_edge45_Node000030_Node000031"><a xlink:title=" ">
<path fill="none" stroke="#63b8ff" d="M1069.72,-126.44C1116.18,-114.64 1199.67,-93.43 1248.83,-80.95"/>
<polygon fill="#63b8ff" stroke="#63b8ff" points="1249.95,-84.28 1258.78,-78.42 1248.22,-77.49 1249.95,-84.28"/>
</a>
</g>
</g>
</g>
</svg>

<g id="navigator" transform="translate(0 0)" fill="#404254">
  <rect fill="#f2f5e9" fill-opacity="0.5" stroke="#606060" stroke-width=".5" x="0" y="0" width="60" height="60"/>
  <use id="zoomplus" xlink:href="#zoomPlus" x="17" y="9" onmousedown="handleZoom(evt,'in')"/>
  <use id="zoomminus" xlink:href="#zoomMin" x="42" y="9" onmousedown="handleZoom(evt,'out')"/>
  <use id="reset" xlink:href="#resetDef" x="30" y="36" onmousedown="handleReset()"/>
   <use id="arrowup" xlink:href="#arrowUp" x="0" y="0" onmousedown="handlePan(0,-1)"/>
  <use id="arrowright" xlink:href="#arrowRight" x="0" y="0" onmousedown="handlePan(1,0)"/>
  <use id="arrowdown" xlink:href="#arrowDown" x="0" y="0" onmousedown="handlePan(0,1)"/>
  <use id="arrowleft" xlink:href="#arrowLeft" x="0" y="0" onmousedown="handlePan(-1,0)"/>
</g>
<svg viewBox="0 0 15 15" width="100%" height="30px" preserveAspectRatio="xMaxYMin meet">
 <g id="arrow_out" transform="scale(0.3 0.3)">
  <a xlink:href="panoc-direction-update_8hpp__incl_org.svg" target="_base">
   <rect id="button" ry="5" rx="5" y="6" x="6" height="38" width="38"
        fill="#f2f5e9" fill-opacity="0.5" stroke="#606060" stroke-width="1.0"/>
   <path id="arrow"
     d="M 11.500037,31.436501 C 11.940474,20.09759 22.043105,11.32322 32.158766,21.979434 L 37.068811,17.246167 C 37.068811,17.246167 37.088388,32 37.088388,32 L 22.160133,31.978069 C 22.160133,31.978069 26.997745,27.140456 26.997745,27.140456 C 18.528582,18.264221 13.291696,25.230495 11.500037,31.436501 z"
     style="fill:#404040;"/>
  </a>
 </g>
</svg>

<style type='text/css'>
<![CDATA[
[data-mouse-over-selected='false'] { opacity: 0.7; }
[data-mouse-over-selected='true']  { opacity: 1.0; }
]]>
</style>
<script type="application/ecmascript"><![CDATA[
document.addEventListener('DOMContentLoaded', (event) => {
  highlightEdges();
  highlightAdjacentNodes();
});
]]></script>
</svg>
