<?xml version="1.0" encoding="UTF-8" standalone="no"?>
<!DOCTYPE svg PUBLIC "-//W3C//DTD SVG 1.1//EN"
 "http://www.w3.org/Graphics/SVG/1.1/DTD/svg11.dtd">
<!-- Generated by graphviz version 2.43.0 (0)
 -->
<!-- Title: dict_to_struct_table&lt; lbfgsb::LBFGSBSolver::Params &gt; Pages: 1 -->
<svg width="135pt" height="79pt"
 viewBox="0.00 0.00 135.00 79.00" xmlns="http://www.w3.org/2000/svg" xmlns:xlink="http://www.w3.org/1999/xlink">
<g id="graph0" class="graph" transform="scale(1 1) rotate(0) translate(4 75)">
<title>dict_to_struct_table&lt; lbfgsb::LBFGSBSolver::Params &gt;</title>
<!-- Node1 -->
<g id="Node000001" class="node">
<title>Node1</title>
<g id="a_Node000001"><a xlink:title=" ">
<polygon fill="#999999" stroke="transparent" points="127,-71 0,-71 0,0 127,0 127,-71"/>
<text text-anchor="start" x="5.5" y="-58.5" font-family="Helvetica,sans-Serif" font-size="10.00">dict_to_struct_table</text>
<text text-anchor="start" x="5.5" y="-47.5" font-family="Helvetica,sans-Serif" font-size="10.00">&lt; lbfgsb::LBFGSBSolver</text>
<text text-anchor="start" x="37" y="-36.5" font-family="Helvetica,sans-Serif" font-size="10.00">::Params &gt;</text>
<text text-anchor="start" x="24.5" y="-21.5" font-family="Helvetica,sans-Serif" font-size="10.00">+</text>
<text text-anchor="start" x="57.5" y="-21.5" font-family="Helvetica,sans-Serif" font-size="10.00">table</text>
<text text-anchor="start" x="62" y="-6.5" font-family="Helvetica,sans-Serif" font-size="10.00"> </text>
<polygon fill="#666666" stroke="#666666" points="0.5,-31.5 0.5,-31.5 127.5,-31.5 127.5,-31.5 0.5,-31.5"/>
<polygon fill="#666666" stroke="#666666" points="0.5,-16.5 0.5,-16.5 55.5,-16.5 55.5,-16.5 0.5,-16.5"/>
<polygon fill="#666666" stroke="#666666" points="55.5,-16.5 55.5,-16.5 127.5,-16.5 127.5,-16.5 55.5,-16.5"/>
<polygon fill="none" stroke="#666666" points="0,0 0,-71 127,-71 127,0 0,0"/>
</a>
</g>
</g>
</g>
</svg>
