<?xml version="1.0" encoding="UTF-8" standalone="no"?>
<!DOCTYPE svg PUBLIC "-//W3C//DTD SVG 1.1//EN"
 "http://www.w3.org/Graphics/SVG/1.1/DTD/svg11.dtd">
<!-- Generated by graphviz version 2.43.0 (0)
 -->
<!-- Title: CasADiControlFunctionsWithParam&lt; Conf &gt; Pages: 1 -->
<svg width="500pt" height="599pt"
 viewBox="0.00 0.00 500.00 599.00" xmlns="http://www.w3.org/2000/svg" xmlns:xlink="http://www.w3.org/1999/xlink">
<g id="graph0" class="graph" transform="scale(1 1) rotate(0) translate(4 595)">
<title>CasADiControlFunctionsWithParam&lt; Conf &gt;</title>
<!-- Node1 -->
<g id="Node000001" class="node">
<title>Node1</title>
<g id="a_Node000001"><a xlink:title=" ">
<polygon fill="#999999" stroke="transparent" points="321,-210 171,-210 171,0 321,0 321,-210"/>
<text text-anchor="start" x="176" y="-198" font-family="Helvetica,sans-Serif" font-size="10.00">CasADiControlFunctionsWith</text>
<text text-anchor="start" x="208" y="-187" font-family="Helvetica,sans-Serif" font-size="10.00">Param&lt; Conf &gt;</text>
<text text-anchor="start" x="193.5" y="-172" font-family="Helvetica,sans-Serif" font-size="10.00">+</text>
<text text-anchor="start" x="225" y="-172" font-family="Helvetica,sans-Serif" font-size="10.00">nx</text>
<text text-anchor="start" x="193.5" y="-157" font-family="Helvetica,sans-Serif" font-size="10.00">+</text>
<text text-anchor="start" x="225" y="-157" font-family="Helvetica,sans-Serif" font-size="10.00">nu</text>
<text text-anchor="start" x="193.5" y="-142" font-family="Helvetica,sans-Serif" font-size="10.00">+</text>
<text text-anchor="start" x="225" y="-142" font-family="Helvetica,sans-Serif" font-size="10.00">nh</text>
<text text-anchor="start" x="193.5" y="-127" font-family="Helvetica,sans-Serif" font-size="10.00">+</text>
<text text-anchor="start" x="225" y="-127" font-family="Helvetica,sans-Serif" font-size="10.00">nh_N</text>
<text text-anchor="start" x="193.5" y="-112" font-family="Helvetica,sans-Serif" font-size="10.00">+</text>
<text text-anchor="start" x="225" y="-112" font-family="Helvetica,sans-Serif" font-size="10.00">nc</text>
<text text-anchor="start" x="193.5" y="-97" font-family="Helvetica,sans-Serif" font-size="10.00">+</text>
<text text-anchor="start" x="225" y="-97" font-family="Helvetica,sans-Serif" font-size="10.00">nc_N</text>
<text text-anchor="start" x="193.5" y="-82" font-family="Helvetica,sans-Serif" font-size="10.00">+</text>
<text text-anchor="start" x="225" y="-82" font-family="Helvetica,sans-Serif" font-size="10.00">p</text>
<text text-anchor="start" x="193.5" y="-67" font-family="Helvetica,sans-Serif" font-size="10.00">+</text>
<text text-anchor="start" x="225" y="-67" font-family="Helvetica,sans-Serif" font-size="10.00">jac_f</text>
<text text-anchor="start" x="193.5" y="-52" font-family="Helvetica,sans-Serif" font-size="10.00">+</text>
<text text-anchor="start" x="225" y="-52" font-family="Helvetica,sans-Serif" font-size="10.00">qr</text>
<text text-anchor="start" x="193.5" y="-37" font-family="Helvetica,sans-Serif" font-size="10.00">+</text>
<text text-anchor="start" x="225" y="-37" font-family="Helvetica,sans-Serif" font-size="10.00">q_N</text>
<text text-anchor="start" x="193.5" y="-22" font-family="Helvetica,sans-Serif" font-size="10.00">+</text>
<text text-anchor="start" x="225" y="-22" font-family="Helvetica,sans-Serif" font-size="10.00">WithParam</text>
<text text-anchor="start" x="193.5" y="-7" font-family="Helvetica,sans-Serif" font-size="10.00">+</text>
<text text-anchor="start" x="225" y="-7" font-family="Helvetica,sans-Serif" font-size="10.00">load()</text>
<polygon fill="#666666" stroke="#666666" points="171,-182 171,-182 321,-182 321,-182 171,-182"/>
<polygon fill="#666666" stroke="#666666" points="171,-17 171,-17 223,-17 223,-17 171,-17"/>
<polygon fill="#666666" stroke="#666666" points="223,-17 223,-17 321,-17 321,-17 223,-17"/>
<polygon fill="none" stroke="#666666" points="171,0 171,-210 321,-210 321,0 171,0"/>
</a>
</g>
</g>
<!-- Node2 -->
<g id="Node000002" class="node">
<title>Node2</title>
<g id="a_Node000002"><a xlink:href="classalpaqa_1_1casadi__loader_1_1CasADiFunctionEvaluator.html" target="_top" xlink:title=" ">
<polygon fill="white" stroke="transparent" points="152,-591 0,-591 0,-411 152,-411 152,-591"/>
<text text-anchor="start" x="10.5" y="-579" font-family="Helvetica,sans-Serif" font-size="10.00">CasADiFunctionEvaluator</text>
<text text-anchor="start" x="10.5" y="-568" font-family="Helvetica,sans-Serif" font-size="10.00">&lt; Conf, 2+WithParam, 1 &gt;</text>
<text text-anchor="start" x="4" y="-553" font-family="Helvetica,sans-Serif" font-size="10.00">+</text>
<text text-anchor="start" x="17" y="-553" font-family="Helvetica,sans-Serif" font-size="10.00">fun</text>
<text text-anchor="start" x="6.5" y="-538" font-family="Helvetica,sans-Serif" font-size="10.00">&#45;</text>
<text text-anchor="start" x="17" y="-538" font-family="Helvetica,sans-Serif" font-size="10.00">iwork</text>
<text text-anchor="start" x="6.5" y="-523" font-family="Helvetica,sans-Serif" font-size="10.00">&#45;</text>
<text text-anchor="start" x="17" y="-523" font-family="Helvetica,sans-Serif" font-size="10.00">dwork</text>
<text text-anchor="start" x="6.5" y="-508" font-family="Helvetica,sans-Serif" font-size="10.00">&#45;</text>
<text text-anchor="start" x="17" y="-508" font-family="Helvetica,sans-Serif" font-size="10.00">arg_work</text>
<text text-anchor="start" x="6.5" y="-493" font-family="Helvetica,sans-Serif" font-size="10.00">&#45;</text>
<text text-anchor="start" x="17" y="-493" font-family="Helvetica,sans-Serif" font-size="10.00">res_work</text>
<text text-anchor="start" x="4" y="-478" font-family="Helvetica,sans-Serif" font-size="10.00">+</text>
<text text-anchor="start" x="17" y="-478" font-family="Helvetica,sans-Serif" font-size="10.00">CasADiFunctionEvaluator()</text>
<text text-anchor="start" x="4" y="-463" font-family="Helvetica,sans-Serif" font-size="10.00">+</text>
<text text-anchor="start" x="17" y="-463" font-family="Helvetica,sans-Serif" font-size="10.00">CasADiFunctionEvaluator()</text>
<text text-anchor="start" x="4" y="-448" font-family="Helvetica,sans-Serif" font-size="10.00">+</text>
<text text-anchor="start" x="17" y="-448" font-family="Helvetica,sans-Serif" font-size="10.00">validate_dimensions()</text>
<text text-anchor="start" x="4" y="-433" font-family="Helvetica,sans-Serif" font-size="10.00">+</text>
<text text-anchor="start" x="17" y="-433" font-family="Helvetica,sans-Serif" font-size="10.00">operator()()</text>
<text text-anchor="start" x="4" y="-418" font-family="Helvetica,sans-Serif" font-size="10.00">#</text>
<text text-anchor="start" x="17" y="-418" font-family="Helvetica,sans-Serif" font-size="10.00">operator()()</text>
<polygon fill="#666666" stroke="#666666" points="0,-563 0,-563 152,-563 152,-563 0,-563"/>
<polygon fill="#666666" stroke="#666666" points="0,-488 0,-488 15,-488 15,-488 0,-488"/>
<polygon fill="#666666" stroke="#666666" points="15,-488 15,-488 152,-488 152,-488 15,-488"/>
<polygon fill="none" stroke="#666666" points="0,-411 0,-591 152,-591 152,-411 0,-411"/>
</a>
</g>
</g>
<!-- Node2&#45;&gt;Node1 -->
<g id="edge1_Node000001_Node000002" class="edge">
<title>Node2&#45;&gt;Node1</title>
<g id="a_edge1_Node000001_Node000002"><a xlink:title=" ">
<path fill="none" stroke="#63b8ff" d="M114.25,-410.84C137.07,-357.73 166.64,-288.99 193,-228 193.94,-225.81 194.9,-223.61 195.86,-221.38"/>
<polygon fill="none" stroke="#63b8ff" points="195.96,-221.16 194.67,-214.06 200.73,-210.15 202.01,-217.24 195.96,-221.16"/>
</a>
</g>
<text text-anchor="middle" x="217.5" y="-385" font-family="Helvetica,sans-Serif" font-size="10.00" fill="grey"> +Q</text>
<text text-anchor="middle" x="217.5" y="-374" font-family="Helvetica,sans-Serif" font-size="10.00" fill="grey">+Q_N</text>
<text text-anchor="middle" x="217.5" y="-363" font-family="Helvetica,sans-Serif" font-size="10.00" fill="grey">+R</text>
<text text-anchor="middle" x="217.5" y="-352" font-family="Helvetica,sans-Serif" font-size="10.00" fill="grey">+S</text>
<text text-anchor="middle" x="217.5" y="-341" font-family="Helvetica,sans-Serif" font-size="10.00" fill="grey">+f</text>
<text text-anchor="start" x="193" y="-330" font-family="Helvetica,sans-Serif" font-size="10.00" fill="grey">+gn_hess</text>
<text text-anchor="middle" x="217.5" y="-319" font-family="Helvetica,sans-Serif" font-size="10.00" fill="grey">_c</text>
<text text-anchor="start" x="193" y="-308" font-family="Helvetica,sans-Serif" font-size="10.00" fill="grey">+gn_hess</text>
<text text-anchor="middle" x="217.5" y="-297" font-family="Helvetica,sans-Serif" font-size="10.00" fill="grey">_c_N</text>
<text text-anchor="start" x="193" y="-286" font-family="Helvetica,sans-Serif" font-size="10.00" fill="grey">+grad_c</text>
<text text-anchor="middle" x="217.5" y="-275" font-family="Helvetica,sans-Serif" font-size="10.00" fill="grey">_prod</text>
<text text-anchor="start" x="193" y="-264" font-family="Helvetica,sans-Serif" font-size="10.00" fill="grey">+grad_c</text>
<text text-anchor="middle" x="217.5" y="-253" font-family="Helvetica,sans-Serif" font-size="10.00" fill="grey">_prod_N</text>
<text text-anchor="middle" x="217.5" y="-242" font-family="Helvetica,sans-Serif" font-size="10.00" fill="grey">+h</text>
<text text-anchor="middle" x="217.5" y="-231" font-family="Helvetica,sans-Serif" font-size="10.00" fill="grey">...</text>
</g>
<!-- Node3 -->
<g id="Node000003" class="node">
<title>Node3</title>
<g id="a_Node000003"><a xlink:href="classalpaqa_1_1casadi__loader_1_1CasADiFunctionEvaluator.html" target="_top" xlink:title=" ">
<polygon fill="white" stroke="transparent" points="322,-591 170,-591 170,-411 322,-411 322,-591"/>
<text text-anchor="start" x="180.5" y="-579" font-family="Helvetica,sans-Serif" font-size="10.00">CasADiFunctionEvaluator</text>
<text text-anchor="start" x="180.5" y="-568" font-family="Helvetica,sans-Serif" font-size="10.00">&lt; Conf, 3+WithParam, 1 &gt;</text>
<text text-anchor="start" x="174" y="-553" font-family="Helvetica,sans-Serif" font-size="10.00">+</text>
<text text-anchor="start" x="187" y="-553" font-family="Helvetica,sans-Serif" font-size="10.00">fun</text>
<text text-anchor="start" x="176.5" y="-538" font-family="Helvetica,sans-Serif" font-size="10.00">&#45;</text>
<text text-anchor="start" x="187" y="-538" font-family="Helvetica,sans-Serif" font-size="10.00">iwork</text>
<text text-anchor="start" x="176.5" y="-523" font-family="Helvetica,sans-Serif" font-size="10.00">&#45;</text>
<text text-anchor="start" x="187" y="-523" font-family="Helvetica,sans-Serif" font-size="10.00">dwork</text>
<text text-anchor="start" x="176.5" y="-508" font-family="Helvetica,sans-Serif" font-size="10.00">&#45;</text>
<text text-anchor="start" x="187" y="-508" font-family="Helvetica,sans-Serif" font-size="10.00">arg_work</text>
<text text-anchor="start" x="176.5" y="-493" font-family="Helvetica,sans-Serif" font-size="10.00">&#45;</text>
<text text-anchor="start" x="187" y="-493" font-family="Helvetica,sans-Serif" font-size="10.00">res_work</text>
<text text-anchor="start" x="174" y="-478" font-family="Helvetica,sans-Serif" font-size="10.00">+</text>
<text text-anchor="start" x="187" y="-478" font-family="Helvetica,sans-Serif" font-size="10.00">CasADiFunctionEvaluator()</text>
<text text-anchor="start" x="174" y="-463" font-family="Helvetica,sans-Serif" font-size="10.00">+</text>
<text text-anchor="start" x="187" y="-463" font-family="Helvetica,sans-Serif" font-size="10.00">CasADiFunctionEvaluator()</text>
<text text-anchor="start" x="174" y="-448" font-family="Helvetica,sans-Serif" font-size="10.00">+</text>
<text text-anchor="start" x="187" y="-448" font-family="Helvetica,sans-Serif" font-size="10.00">validate_dimensions()</text>
<text text-anchor="start" x="174" y="-433" font-family="Helvetica,sans-Serif" font-size="10.00">+</text>
<text text-anchor="start" x="187" y="-433" font-family="Helvetica,sans-Serif" font-size="10.00">operator()()</text>
<text text-anchor="start" x="174" y="-418" font-family="Helvetica,sans-Serif" font-size="10.00">#</text>
<text text-anchor="start" x="187" y="-418" font-family="Helvetica,sans-Serif" font-size="10.00">operator()()</text>
<polygon fill="#666666" stroke="#666666" points="170,-563 170,-563 322,-563 322,-563 170,-563"/>
<polygon fill="#666666" stroke="#666666" points="170,-488 170,-488 185,-488 185,-488 170,-488"/>
<polygon fill="#666666" stroke="#666666" points="185,-488 185,-488 322,-488 322,-488 185,-488"/>
<polygon fill="none" stroke="#666666" points="170,-411 170,-591 322,-591 322,-411 170,-411"/>
</a>
</g>
</g>
<!-- Node3&#45;&gt;Node1 -->
<g id="edge2_Node000001_Node000003" class="edge">
<title>Node3&#45;&gt;Node1</title>
<g id="a_edge2_Node000001_Node000003"><a xlink:title=" ">
<path fill="none" stroke="#63b8ff" d="M246,-410.6C246,-354.84 246,-282.49 246,-222.3"/>
<polygon fill="none" stroke="#63b8ff" points="246,-222.04 242,-216.04 246,-210.04 250,-216.04 246,-222.04"/>
</a>
</g>
<text text-anchor="middle" x="281" y="-308" font-family="Helvetica,sans-Serif" font-size="10.00" fill="grey"> +grad_f_prod</text>
</g>
<!-- Node4 -->
<g id="Node000004" class="node">
<title>Node4</title>
<g id="a_Node000004"><a xlink:href="classalpaqa_1_1casadi__loader_1_1CasADiFunctionEvaluator.html" target="_top" xlink:title=" ">
<polygon fill="white" stroke="transparent" points="492,-591 340,-591 340,-411 492,-411 492,-591"/>
<text text-anchor="start" x="350.5" y="-579" font-family="Helvetica,sans-Serif" font-size="10.00">CasADiFunctionEvaluator</text>
<text text-anchor="start" x="350.5" y="-568" font-family="Helvetica,sans-Serif" font-size="10.00">&lt; Conf, 1+WithParam, 1 &gt;</text>
<text text-anchor="start" x="344" y="-553" font-family="Helvetica,sans-Serif" font-size="10.00">+</text>
<text text-anchor="start" x="357" y="-553" font-family="Helvetica,sans-Serif" font-size="10.00">fun</text>
<text text-anchor="start" x="346.5" y="-538" font-family="Helvetica,sans-Serif" font-size="10.00">&#45;</text>
<text text-anchor="start" x="357" y="-538" font-family="Helvetica,sans-Serif" font-size="10.00">iwork</text>
<text text-anchor="start" x="346.5" y="-523" font-family="Helvetica,sans-Serif" font-size="10.00">&#45;</text>
<text text-anchor="start" x="357" y="-523" font-family="Helvetica,sans-Serif" font-size="10.00">dwork</text>
<text text-anchor="start" x="346.5" y="-508" font-family="Helvetica,sans-Serif" font-size="10.00">&#45;</text>
<text text-anchor="start" x="357" y="-508" font-family="Helvetica,sans-Serif" font-size="10.00">arg_work</text>
<text text-anchor="start" x="346.5" y="-493" font-family="Helvetica,sans-Serif" font-size="10.00">&#45;</text>
<text text-anchor="start" x="357" y="-493" font-family="Helvetica,sans-Serif" font-size="10.00">res_work</text>
<text text-anchor="start" x="344" y="-478" font-family="Helvetica,sans-Serif" font-size="10.00">+</text>
<text text-anchor="start" x="357" y="-478" font-family="Helvetica,sans-Serif" font-size="10.00">CasADiFunctionEvaluator()</text>
<text text-anchor="start" x="344" y="-463" font-family="Helvetica,sans-Serif" font-size="10.00">+</text>
<text text-anchor="start" x="357" y="-463" font-family="Helvetica,sans-Serif" font-size="10.00">CasADiFunctionEvaluator()</text>
<text text-anchor="start" x="344" y="-448" font-family="Helvetica,sans-Serif" font-size="10.00">+</text>
<text text-anchor="start" x="357" y="-448" font-family="Helvetica,sans-Serif" font-size="10.00">validate_dimensions()</text>
<text text-anchor="start" x="344" y="-433" font-family="Helvetica,sans-Serif" font-size="10.00">+</text>
<text text-anchor="start" x="357" y="-433" font-family="Helvetica,sans-Serif" font-size="10.00">operator()()</text>
<text text-anchor="start" x="344" y="-418" font-family="Helvetica,sans-Serif" font-size="10.00">#</text>
<text text-anchor="start" x="357" y="-418" font-family="Helvetica,sans-Serif" font-size="10.00">operator()()</text>
<polygon fill="#666666" stroke="#666666" points="340,-563 340,-563 492,-563 492,-563 340,-563"/>
<polygon fill="#666666" stroke="#666666" points="340,-488 340,-488 355,-488 355,-488 340,-488"/>
<polygon fill="#666666" stroke="#666666" points="355,-488 355,-488 492,-488 492,-488 355,-488"/>
<polygon fill="none" stroke="#666666" points="340,-411 340,-591 492,-591 492,-411 340,-411"/>
</a>
</g>
</g>
<!-- Node4&#45;&gt;Node1 -->
<g id="edge3_Node000001_Node000004" class="edge">
<title>Node4&#45;&gt;Node1</title>
<g id="a_edge3_Node000001_Node000004"><a xlink:title=" ">
<path fill="none" stroke="#63b8ff" d="M389.67,-410.88C372.46,-356.86 348.02,-287.18 320,-228 318.86,-225.59 317.68,-223.17 316.48,-220.74"/>
<polygon fill="none" stroke="#63b8ff" points="316.47,-220.73 310.18,-217.21 311.01,-210.04 317.3,-213.57 316.47,-220.73"/>
</a>
</g>
<text text-anchor="middle" x="396" y="-330" font-family="Helvetica,sans-Serif" font-size="10.00" fill="grey"> +c</text>
<text text-anchor="middle" x="396" y="-319" font-family="Helvetica,sans-Serif" font-size="10.00" fill="grey">+c_N</text>
<text text-anchor="middle" x="396" y="-308" font-family="Helvetica,sans-Serif" font-size="10.00" fill="grey">+h_N</text>
<text text-anchor="middle" x="396" y="-297" font-family="Helvetica,sans-Serif" font-size="10.00" fill="grey">+l</text>
<text text-anchor="middle" x="396" y="-286" font-family="Helvetica,sans-Serif" font-size="10.00" fill="grey">+l_N</text>
</g>
</g>
</svg>
