<?xml version="1.0" encoding="UTF-8" standalone="no"?>
<!DOCTYPE svg PUBLIC "-//W3C//DTD SVG 1.1//EN"
 "http://www.w3.org/Graphics/SVG/1.1/DTD/svg11.dtd">
<!-- Generated by graphviz version 2.43.0 (0)
 -->
<!-- Title: operator() Pages: 1 -->
<svg width="499pt" height="367pt"
 viewBox="0.00 0.00 499.00 367.00" xmlns="http://www.w3.org/2000/svg" xmlns:xlink="http://www.w3.org/1999/xlink">
<g id="graph0" class="graph" transform="scale(1 1) rotate(0) translate(4 363)">
<title>operator()</title>
<!-- Node1 -->
<g id="node1" class="node">
<title>Node1</title>
<g id="a_node1"><a xlink:title=" ">
<polygon fill="#999999" stroke="#666666" points="65,-159.5 0,-159.5 0,-140.5 65,-140.5 65,-159.5"/>
<text text-anchor="middle" x="32.5" y="-147.5" font-family="Helvetica,sans-Serif" font-size="10.00">operator()</text>
</a>
</g>
</g>
<!-- Node2 -->
<g id="node2" class="node">
<title>Node2</title>
<g id="a_node2"><a xlink:href="classalpaqa_1_1PANOCOCPSolver.html#ab1efa2b14ea4439cabe383cd997688e5" target="_top" xlink:title=" ">
<polygon fill="white" stroke="#666666" points="166,-159.5 101,-159.5 101,-140.5 166,-140.5 166,-159.5"/>
<text text-anchor="middle" x="133.5" y="-147.5" font-family="Helvetica,sans-Serif" font-size="10.00">operator()</text>
</a>
</g>
</g>
<!-- Node1&#45;&gt;Node2 -->
<g id="edge1" class="edge">
<title>Node1&#45;&gt;Node2</title>
<path fill="none" stroke="#63b8ff" d="M65.1,-150C73.22,-150 82.09,-150 90.65,-150"/>
<polygon fill="#63b8ff" stroke="#63b8ff" points="90.86,-153.5 100.86,-150 90.86,-146.5 90.86,-153.5"/>
</g>
<!-- Node3 -->
<g id="node3" class="node">
<title>Node3</title>
<g id="a_node3"><a xlink:href="namespacealpaqa_1_1detail.html#a6bd1a4a692a847afed18dfdac982b2bf" target="_top" xlink:title=" ">
<polygon fill="white" stroke="#666666" points="334,-341 213,-341 213,-311 334,-311 334,-341"/>
<text text-anchor="start" x="221" y="-329" font-family="Helvetica,sans-Serif" font-size="10.00">alpaqa::detail::assign</text>
<text text-anchor="middle" x="273.5" y="-318" font-family="Helvetica,sans-Serif" font-size="10.00">_extract_u</text>
</a>
</g>
</g>
<!-- Node2&#45;&gt;Node3 -->
<g id="edge2" class="edge">
<title>Node2&#45;&gt;Node3</title>
<path fill="none" stroke="#63b8ff" d="M136.05,-159.75C140.82,-186.46 157.67,-261.48 202,-302 203.28,-303.17 204.62,-304.28 206.01,-305.34"/>
<polygon fill="#63b8ff" stroke="#63b8ff" points="204.14,-308.31 214.43,-310.83 207.97,-302.44 204.14,-308.31"/>
</g>
<!-- Node4 -->
<g id="node4" class="node">
<title>Node4</title>
<g id="a_node4"><a xlink:href="namespacealpaqa_1_1detail.html#af491b0de3cd827129678e22afdbd882f" target="_top" xlink:title=" ">
<polygon fill="white" stroke="#666666" points="334,-275 213,-275 213,-245 334,-245 334,-275"/>
<text text-anchor="start" x="221" y="-263" font-family="Helvetica,sans-Serif" font-size="10.00">alpaqa::detail::assign</text>
<text text-anchor="middle" x="273.5" y="-252" font-family="Helvetica,sans-Serif" font-size="10.00">_interleave_xu</text>
</a>
</g>
</g>
<!-- Node2&#45;&gt;Node4 -->
<g id="edge4" class="edge">
<title>Node2&#45;&gt;Node4</title>
<path fill="none" stroke="#63b8ff" d="M139.63,-159.76C149.41,-177.48 172.43,-215.03 202,-236 204.12,-237.5 206.35,-238.92 208.64,-240.25"/>
<polygon fill="#63b8ff" stroke="#63b8ff" points="207.31,-243.51 217.81,-244.99 210.53,-237.29 207.31,-243.51"/>
</g>
<!-- Node5 -->
<g id="node5" class="node">
<title>Node5</title>
<g id="a_node5"><a xlink:href="structalpaqa_1_1OCPVariables.html#a276799effc79e618746bf6a7e44c84af" target="_top" xlink:title=" ">
<polygon fill="white" stroke="#666666" points="334,-227 213,-227 213,-197 334,-197 334,-227"/>
<text text-anchor="start" x="221" y="-215" font-family="Helvetica,sans-Serif" font-size="10.00">alpaqa::OCPVariables</text>
<text text-anchor="middle" x="273.5" y="-204" font-family="Helvetica,sans-Serif" font-size="10.00">::create</text>
</a>
</g>
</g>
<!-- Node2&#45;&gt;Node5 -->
<g id="edge6" class="edge">
<title>Node2&#45;&gt;Node5</title>
<path fill="none" stroke="#63b8ff" d="M149.63,-159.59C163.04,-167.82 183.34,-179.66 202,-188 206.09,-189.83 210.37,-191.61 214.71,-193.31"/>
<polygon fill="#63b8ff" stroke="#63b8ff" points="213.66,-196.65 224.26,-196.91 216.13,-190.1 213.66,-196.65"/>
</g>
<!-- Node6 -->
<g id="node6" class="node">
<title>Node6</title>
<g id="a_node6"><a xlink:href="namespacealpaqa.html#ab5ac74453b63ae65ae675f0fb385fc32" target="_top" xlink:title=" ">
<polygon fill="white" stroke="#666666" points="338.5,-178.5 208.5,-178.5 208.5,-159.5 338.5,-159.5 338.5,-178.5"/>
<text text-anchor="middle" x="273.5" y="-166.5" font-family="Helvetica,sans-Serif" font-size="10.00">alpaqa::float_to_str_vw</text>
</a>
</g>
</g>
<!-- Node2&#45;&gt;Node6 -->
<g id="edge7" class="edge">
<title>Node2&#45;&gt;Node6</title>
<path fill="none" stroke="#63b8ff" d="M166.16,-154.36C175.88,-155.7 187.02,-157.23 198.35,-158.79"/>
<polygon fill="#63b8ff" stroke="#63b8ff" points="197.94,-162.27 208.32,-160.16 198.89,-155.33 197.94,-162.27"/>
</g>
<!-- Node8 -->
<g id="node8" class="node">
<title>Node8</title>
<g id="a_node8"><a xlink:href="structalpaqa_1_1Box.html#a85dea72f7f5cdd115734c476729d49da" target="_top" xlink:title=" ">
<polygon fill="white" stroke="#666666" points="324,-141.5 223,-141.5 223,-122.5 324,-122.5 324,-141.5"/>
<text text-anchor="middle" x="273.5" y="-129.5" font-family="Helvetica,sans-Serif" font-size="10.00">alpaqa::Box::NaN</text>
</a>
</g>
</g>
<!-- Node2&#45;&gt;Node8 -->
<g id="edge9" class="edge">
<title>Node2&#45;&gt;Node8</title>
<path fill="none" stroke="#63b8ff" d="M166.16,-145.87C179.93,-144.07 196.55,-141.91 212.51,-139.83"/>
<polygon fill="#63b8ff" stroke="#63b8ff" points="213.4,-143.24 222.86,-138.47 212.5,-136.3 213.4,-143.24"/>
</g>
<!-- Node9 -->
<g id="node9" class="node">
<title>Node9</title>
<g id="a_node9"><a xlink:href="namespacealpaqa_1_1vec__util.html#ab29885b89f70cd004695e002658a2134" target="_top" xlink:title="Get the maximum or infinity&#45;norm of the given vector.">
<polygon fill="white" stroke="#666666" points="345,-104.5 202,-104.5 202,-85.5 345,-85.5 345,-104.5"/>
<text text-anchor="middle" x="273.5" y="-92.5" font-family="Helvetica,sans-Serif" font-size="10.00">alpaqa::vec_util::norm_inf</text>
</a>
</g>
</g>
<!-- Node2&#45;&gt;Node9 -->
<g id="edge10" class="edge">
<title>Node2&#45;&gt;Node9</title>
<path fill="none" stroke="#63b8ff" d="M150.11,-140.36C163.48,-132.43 183.47,-121.33 202,-114 208.18,-111.56 214.78,-109.32 221.38,-107.3"/>
<polygon fill="#63b8ff" stroke="#63b8ff" points="222.36,-110.66 230.98,-104.51 220.4,-103.94 222.36,-110.66"/>
</g>
<!-- Node10 -->
<g id="node10" class="node">
<title>Node10</title>
<g id="a_node10"><a xlink:href="structalpaqa_1_1OCPVariables.html#a50482e485b208e4ced084891de1b7f49" target="_top" xlink:title=" ">
<polygon fill="white" stroke="#666666" points="343,-67.5 204,-67.5 204,-48.5 343,-48.5 343,-67.5"/>
<text text-anchor="middle" x="273.5" y="-55.5" font-family="Helvetica,sans-Serif" font-size="10.00">alpaqa::OCPVariables::nu</text>
</a>
</g>
</g>
<!-- Node2&#45;&gt;Node10 -->
<g id="edge11" class="edge">
<title>Node2&#45;&gt;Node10</title>
<path fill="none" stroke="#63b8ff" d="M140.72,-140.34C151.34,-124.62 174.53,-93.61 202,-77 205.6,-74.82 209.45,-72.89 213.43,-71.18"/>
<polygon fill="#63b8ff" stroke="#63b8ff" points="214.79,-74.4 222.88,-67.56 212.29,-67.87 214.79,-74.4"/>
</g>
<!-- Node11 -->
<g id="node11" class="node">
<title>Node11</title>
<g id="a_node11"><a xlink:href="namespacealpaqa.html#a0aa3a21307a2b125ccd70ac4265c4446" target="_top" xlink:title="Get the difference between the given vector and its projection.">
<polygon fill="white" stroke="#666666" points="325.5,-30 221.5,-30 221.5,0 325.5,0 325.5,-30"/>
<text text-anchor="start" x="229.5" y="-18" font-family="Helvetica,sans-Serif" font-size="10.00">alpaqa::projecting</text>
<text text-anchor="middle" x="273.5" y="-7" font-family="Helvetica,sans-Serif" font-size="10.00">_difference</text>
</a>
</g>
</g>
<!-- Node2&#45;&gt;Node11 -->
<g id="edge12" class="edge">
<title>Node2&#45;&gt;Node11</title>
<path fill="none" stroke="#63b8ff" d="M137.73,-140.44C145.41,-119.1 166.82,-67.23 202,-39 205.14,-36.48 208.57,-34.21 212.15,-32.18"/>
<polygon fill="#63b8ff" stroke="#63b8ff" points="213.96,-35.19 221.35,-27.6 210.84,-28.93 213.96,-35.19"/>
</g>
<!-- Node3&#45;&gt;Node3 -->
<g id="edge3" class="edge">
<title>Node3&#45;&gt;Node3</title>
<path fill="none" stroke="#63b8ff" d="M248.89,-341.28C243.42,-350.41 251.62,-359 273.5,-359 286.49,-359 294.66,-355.97 298.01,-351.6"/>
<polygon fill="#63b8ff" stroke="#63b8ff" points="301.51,-351.31 298.11,-341.28 294.51,-351.24 301.51,-351.31"/>
</g>
<!-- Node4&#45;&gt;Node4 -->
<g id="edge5" class="edge">
<title>Node4&#45;&gt;Node4</title>
<path fill="none" stroke="#63b8ff" d="M248.89,-275.28C243.42,-284.41 251.62,-293 273.5,-293 286.49,-293 294.66,-289.97 298.01,-285.6"/>
<polygon fill="#63b8ff" stroke="#63b8ff" points="301.51,-285.31 298.11,-275.28 294.51,-285.24 301.51,-285.31"/>
</g>
<!-- Node7 -->
<g id="node7" class="node">
<title>Node7</title>
<g id="a_node7"><a xlink:href="namespacealpaqa.html#a3d355dd7c275da0f2e297743294d582b" target="_top" xlink:title=" ">
<polygon fill="white" stroke="#666666" points="491,-184 381,-184 381,-154 491,-154 491,-184"/>
<text text-anchor="start" x="389" y="-172" font-family="Helvetica,sans-Serif" font-size="10.00">alpaqa::float_to_str</text>
<text text-anchor="middle" x="436" y="-161" font-family="Helvetica,sans-Serif" font-size="10.00">_vw_snprintf</text>
</a>
</g>
</g>
<!-- Node6&#45;&gt;Node7 -->
<g id="edge8" class="edge">
<title>Node6&#45;&gt;Node7</title>
<path fill="none" stroke="#63b8ff" d="M338.86,-169C349.32,-169 360.16,-169 370.63,-169"/>
<polygon fill="#63b8ff" stroke="#63b8ff" points="370.94,-172.5 380.94,-169 370.94,-165.5 370.94,-172.5"/>
</g>
<!-- Node12 -->
<g id="node12" class="node">
<title>Node12</title>
<g id="a_node12"><a xlink:href="namespacealpaqa.html#ace167fc364a50a555a05a8bc695ff189" target="_top" xlink:title="Project a vector onto a box.">
<polygon fill="white" stroke="#666666" points="480.5,-24.5 391.5,-24.5 391.5,-5.5 480.5,-5.5 480.5,-24.5"/>
<text text-anchor="middle" x="436" y="-12.5" font-family="Helvetica,sans-Serif" font-size="10.00">alpaqa::project</text>
</a>
</g>
</g>
<!-- Node11&#45;&gt;Node12 -->
<g id="edge13" class="edge">
<title>Node11&#45;&gt;Node12</title>
<path fill="none" stroke="#63b8ff" d="M325.72,-15C343.45,-15 363.35,-15 381.27,-15"/>
<polygon fill="#63b8ff" stroke="#63b8ff" points="381.27,-18.5 391.27,-15 381.27,-11.5 381.27,-18.5"/>
</g>
</g>
</svg>
