<?xml version="1.0" encoding="UTF-8" standalone="no"?>
<!DOCTYPE svg PUBLIC "-//W3C//DTD SVG 1.1//EN"
 "http://www.w3.org/Graphics/SVG/1.1/DTD/svg11.dtd">
<!-- Generated by graphviz version 2.43.0 (0)
 -->
<!-- Title: setup_problem Pages: 1 -->
<svg width="292pt" height="27pt"
 viewBox="0.00 0.00 292.00 27.00" xmlns="http://www.w3.org/2000/svg" xmlns:xlink="http://www.w3.org/1999/xlink">
<g id="graph0" class="graph" transform="scale(1 1) rotate(0) translate(4 23)">
<title>setup_problem</title>
<!-- Node1 -->
<g id="node1" class="node">
<title>Node1</title>
<g id="a_node1"><a xlink:title=" ">
<polygon fill="#999999" stroke="#666666" points="89,-19 0,-19 0,0 89,0 89,-19"/>
<text text-anchor="middle" x="44.5" y="-7" font-family="Helvetica,sans-Serif" font-size="10.00">setup_problem</text>
</a>
</g>
</g>
<!-- Node2 -->
<g id="node2" class="node">
<title>Node2</title>
<g id="a_node2"><a xlink:href="classalpaqa_1_1CUTEstLoader.html#a4e850fce7e5dbb17d98967195fc06756" target="_top" xlink:title=" ">
<polygon fill="white" stroke="#666666" points="193,-19 125,-19 125,0 193,0 193,-19"/>
<text text-anchor="middle" x="159" y="-7" font-family="Helvetica,sans-Serif" font-size="10.00">terminator</text>
</a>
</g>
</g>
<!-- Node1&#45;&gt;Node2 -->
<g id="edge1" class="edge">
<title>Node1&#45;&gt;Node2</title>
<path fill="none" stroke="#63b8ff" d="M89.32,-9.5C97.65,-9.5 106.36,-9.5 114.67,-9.5"/>
<polygon fill="#63b8ff" stroke="#63b8ff" points="114.93,-13 124.93,-9.5 114.93,-6 114.93,-13"/>
</g>
<!-- Node3 -->
<g id="node3" class="node">
<title>Node3</title>
<g id="a_node3"><a xlink:href="classalpaqa_1_1CUTEstLoader.html#a89e25e79e3fcdf5fb0d8acc8f7fa8d75" target="_top" xlink:title=" ">
<polygon fill="white" stroke="#666666" points="284,-19 229,-19 229,0 284,0 284,-19"/>
<text text-anchor="middle" x="256.5" y="-7" font-family="Helvetica,sans-Serif" font-size="10.00">cleanup</text>
</a>
</g>
</g>
<!-- Node2&#45;&gt;Node3 -->
<g id="edge2" class="edge">
<title>Node2&#45;&gt;Node3</title>
<path fill="none" stroke="#63b8ff" d="M193.13,-9.5C201.32,-9.5 210.13,-9.5 218.48,-9.5"/>
<polygon fill="#63b8ff" stroke="#63b8ff" points="218.74,-13 228.74,-9.5 218.74,-6 218.74,-13"/>
</g>
</g>
</svg>
