<?xml version="1.0" encoding="UTF-8" standalone="no"?>
<!DOCTYPE svg PUBLIC "-//W3C//DTD SVG 1.1//EN"
 "http://www.w3.org/Graphics/SVG/1.1/DTD/svg11.dtd">
<!-- Generated by graphviz version 2.43.0 (0)
 -->
<!-- Title: operator() Pages: 1 -->
<svg width="398pt" height="367pt"
 viewBox="0.00 0.00 398.00 367.00" xmlns="http://www.w3.org/2000/svg" xmlns:xlink="http://www.w3.org/1999/xlink">
<g id="graph0" class="graph" transform="scale(1 1) rotate(0) translate(4 363)">
<title>operator()</title>
<!-- Node1 -->
<g id="node1" class="node">
<title>Node1</title>
<g id="a_node1"><a xlink:title=" ">
<polygon fill="#999999" stroke="#666666" points="65,-159.5 0,-159.5 0,-140.5 65,-140.5 65,-159.5"/>
<text text-anchor="middle" x="32.5" y="-147.5" font-family="Helvetica,sans-Serif" font-size="10.00">operator()</text>
</a>
</g>
</g>
<!-- Node2 -->
<g id="node2" class="node">
<title>Node2</title>
<g id="a_node2"><a xlink:href="namespacealpaqa_1_1detail.html#a6bd1a4a692a847afed18dfdac982b2bf" target="_top" xlink:title=" ">
<polygon fill="white" stroke="#666666" points="233,-341 112,-341 112,-311 233,-311 233,-341"/>
<text text-anchor="start" x="120" y="-329" font-family="Helvetica,sans-Serif" font-size="10.00">alpaqa::detail::assign</text>
<text text-anchor="middle" x="172.5" y="-318" font-family="Helvetica,sans-Serif" font-size="10.00">_extract_u</text>
</a>
</g>
</g>
<!-- Node1&#45;&gt;Node2 -->
<g id="edge1" class="edge">
<title>Node1&#45;&gt;Node2</title>
<path fill="none" stroke="#63b8ff" d="M35.05,-159.75C39.82,-186.46 56.67,-261.48 101,-302 102.28,-303.17 103.62,-304.28 105.01,-305.34"/>
<polygon fill="#63b8ff" stroke="#63b8ff" points="103.14,-308.31 113.43,-310.83 106.97,-302.44 103.14,-308.31"/>
</g>
<!-- Node3 -->
<g id="node3" class="node">
<title>Node3</title>
<g id="a_node3"><a xlink:href="namespacealpaqa_1_1detail.html#af491b0de3cd827129678e22afdbd882f" target="_top" xlink:title=" ">
<polygon fill="white" stroke="#666666" points="233,-275 112,-275 112,-245 233,-245 233,-275"/>
<text text-anchor="start" x="120" y="-263" font-family="Helvetica,sans-Serif" font-size="10.00">alpaqa::detail::assign</text>
<text text-anchor="middle" x="172.5" y="-252" font-family="Helvetica,sans-Serif" font-size="10.00">_interleave_xu</text>
</a>
</g>
</g>
<!-- Node1&#45;&gt;Node3 -->
<g id="edge3" class="edge">
<title>Node1&#45;&gt;Node3</title>
<path fill="none" stroke="#63b8ff" d="M38.63,-159.76C48.41,-177.48 71.43,-215.03 101,-236 103.12,-237.5 105.35,-238.92 107.64,-240.25"/>
<polygon fill="#63b8ff" stroke="#63b8ff" points="106.31,-243.51 116.81,-244.99 109.53,-237.29 106.31,-243.51"/>
</g>
<!-- Node4 -->
<g id="node4" class="node">
<title>Node4</title>
<g id="a_node4"><a xlink:href="structalpaqa_1_1OCPVariables.html#a276799effc79e618746bf6a7e44c84af" target="_top" xlink:title=" ">
<polygon fill="white" stroke="#666666" points="233,-227 112,-227 112,-197 233,-197 233,-227"/>
<text text-anchor="start" x="120" y="-215" font-family="Helvetica,sans-Serif" font-size="10.00">alpaqa::OCPVariables</text>
<text text-anchor="middle" x="172.5" y="-204" font-family="Helvetica,sans-Serif" font-size="10.00">::create</text>
</a>
</g>
</g>
<!-- Node1&#45;&gt;Node4 -->
<g id="edge5" class="edge">
<title>Node1&#45;&gt;Node4</title>
<path fill="none" stroke="#63b8ff" d="M48.63,-159.59C62.04,-167.82 82.34,-179.66 101,-188 105.09,-189.83 109.37,-191.61 113.71,-193.31"/>
<polygon fill="#63b8ff" stroke="#63b8ff" points="112.66,-196.65 123.26,-196.91 115.13,-190.1 112.66,-196.65"/>
</g>
<!-- Node5 -->
<g id="node5" class="node">
<title>Node5</title>
<g id="a_node5"><a xlink:href="namespacealpaqa.html#ab5ac74453b63ae65ae675f0fb385fc32" target="_top" xlink:title=" ">
<polygon fill="white" stroke="#666666" points="237.5,-178.5 107.5,-178.5 107.5,-159.5 237.5,-159.5 237.5,-178.5"/>
<text text-anchor="middle" x="172.5" y="-166.5" font-family="Helvetica,sans-Serif" font-size="10.00">alpaqa::float_to_str_vw</text>
</a>
</g>
</g>
<!-- Node1&#45;&gt;Node5 -->
<g id="edge6" class="edge">
<title>Node1&#45;&gt;Node5</title>
<path fill="none" stroke="#63b8ff" d="M65.16,-154.36C74.88,-155.7 86.02,-157.23 97.35,-158.79"/>
<polygon fill="#63b8ff" stroke="#63b8ff" points="96.94,-162.27 107.32,-160.16 97.89,-155.33 96.94,-162.27"/>
</g>
<!-- Node7 -->
<g id="node7" class="node">
<title>Node7</title>
<g id="a_node7"><a xlink:href="structalpaqa_1_1Box.html#a85dea72f7f5cdd115734c476729d49da" target="_top" xlink:title=" ">
<polygon fill="white" stroke="#666666" points="223,-141.5 122,-141.5 122,-122.5 223,-122.5 223,-141.5"/>
<text text-anchor="middle" x="172.5" y="-129.5" font-family="Helvetica,sans-Serif" font-size="10.00">alpaqa::Box::NaN</text>
</a>
</g>
</g>
<!-- Node1&#45;&gt;Node7 -->
<g id="edge8" class="edge">
<title>Node1&#45;&gt;Node7</title>
<path fill="none" stroke="#63b8ff" d="M65.16,-145.87C78.93,-144.07 95.55,-141.91 111.51,-139.83"/>
<polygon fill="#63b8ff" stroke="#63b8ff" points="112.4,-143.24 121.86,-138.47 111.5,-136.3 112.4,-143.24"/>
</g>
<!-- Node8 -->
<g id="node8" class="node">
<title>Node8</title>
<g id="a_node8"><a xlink:href="namespacealpaqa_1_1vec__util.html#ab29885b89f70cd004695e002658a2134" target="_top" xlink:title="Get the maximum or infinity&#45;norm of the given vector.">
<polygon fill="white" stroke="#666666" points="244,-104.5 101,-104.5 101,-85.5 244,-85.5 244,-104.5"/>
<text text-anchor="middle" x="172.5" y="-92.5" font-family="Helvetica,sans-Serif" font-size="10.00">alpaqa::vec_util::norm_inf</text>
</a>
</g>
</g>
<!-- Node1&#45;&gt;Node8 -->
<g id="edge9" class="edge">
<title>Node1&#45;&gt;Node8</title>
<path fill="none" stroke="#63b8ff" d="M49.11,-140.36C62.48,-132.43 82.47,-121.33 101,-114 107.18,-111.56 113.78,-109.32 120.38,-107.3"/>
<polygon fill="#63b8ff" stroke="#63b8ff" points="121.36,-110.66 129.98,-104.51 119.4,-103.94 121.36,-110.66"/>
</g>
<!-- Node9 -->
<g id="node9" class="node">
<title>Node9</title>
<g id="a_node9"><a xlink:href="structalpaqa_1_1OCPVariables.html#a50482e485b208e4ced084891de1b7f49" target="_top" xlink:title=" ">
<polygon fill="white" stroke="#666666" points="242,-67.5 103,-67.5 103,-48.5 242,-48.5 242,-67.5"/>
<text text-anchor="middle" x="172.5" y="-55.5" font-family="Helvetica,sans-Serif" font-size="10.00">alpaqa::OCPVariables::nu</text>
</a>
</g>
</g>
<!-- Node1&#45;&gt;Node9 -->
<g id="edge10" class="edge">
<title>Node1&#45;&gt;Node9</title>
<path fill="none" stroke="#63b8ff" d="M39.72,-140.34C50.34,-124.62 73.53,-93.61 101,-77 104.6,-74.82 108.45,-72.89 112.43,-71.18"/>
<polygon fill="#63b8ff" stroke="#63b8ff" points="113.79,-74.4 121.88,-67.56 111.29,-67.87 113.79,-74.4"/>
</g>
<!-- Node10 -->
<g id="node10" class="node">
<title>Node10</title>
<g id="a_node10"><a xlink:href="namespacealpaqa.html#a0aa3a21307a2b125ccd70ac4265c4446" target="_top" xlink:title="Get the difference between the given vector and its projection.">
<polygon fill="white" stroke="#666666" points="224.5,-30 120.5,-30 120.5,0 224.5,0 224.5,-30"/>
<text text-anchor="start" x="128.5" y="-18" font-family="Helvetica,sans-Serif" font-size="10.00">alpaqa::projecting</text>
<text text-anchor="middle" x="172.5" y="-7" font-family="Helvetica,sans-Serif" font-size="10.00">_difference</text>
</a>
</g>
</g>
<!-- Node1&#45;&gt;Node10 -->
<g id="edge11" class="edge">
<title>Node1&#45;&gt;Node10</title>
<path fill="none" stroke="#63b8ff" d="M36.73,-140.44C44.41,-119.1 65.82,-67.23 101,-39 104.14,-36.48 107.57,-34.21 111.15,-32.18"/>
<polygon fill="#63b8ff" stroke="#63b8ff" points="112.96,-35.19 120.35,-27.6 109.84,-28.93 112.96,-35.19"/>
</g>
<!-- Node2&#45;&gt;Node2 -->
<g id="edge2" class="edge">
<title>Node2&#45;&gt;Node2</title>
<path fill="none" stroke="#63b8ff" d="M147.89,-341.28C142.42,-350.41 150.62,-359 172.5,-359 185.49,-359 193.66,-355.97 197.01,-351.6"/>
<polygon fill="#63b8ff" stroke="#63b8ff" points="200.51,-351.31 197.11,-341.28 193.51,-351.24 200.51,-351.31"/>
</g>
<!-- Node3&#45;&gt;Node3 -->
<g id="edge4" class="edge">
<title>Node3&#45;&gt;Node3</title>
<path fill="none" stroke="#63b8ff" d="M147.89,-275.28C142.42,-284.41 150.62,-293 172.5,-293 185.49,-293 193.66,-289.97 197.01,-285.6"/>
<polygon fill="#63b8ff" stroke="#63b8ff" points="200.51,-285.31 197.11,-275.28 193.51,-285.24 200.51,-285.31"/>
</g>
<!-- Node6 -->
<g id="node6" class="node">
<title>Node6</title>
<g id="a_node6"><a xlink:href="namespacealpaqa.html#a3d355dd7c275da0f2e297743294d582b" target="_top" xlink:title=" ">
<polygon fill="white" stroke="#666666" points="390,-184 280,-184 280,-154 390,-154 390,-184"/>
<text text-anchor="start" x="288" y="-172" font-family="Helvetica,sans-Serif" font-size="10.00">alpaqa::float_to_str</text>
<text text-anchor="middle" x="335" y="-161" font-family="Helvetica,sans-Serif" font-size="10.00">_vw_snprintf</text>
</a>
</g>
</g>
<!-- Node5&#45;&gt;Node6 -->
<g id="edge7" class="edge">
<title>Node5&#45;&gt;Node6</title>
<path fill="none" stroke="#63b8ff" d="M237.86,-169C248.32,-169 259.16,-169 269.63,-169"/>
<polygon fill="#63b8ff" stroke="#63b8ff" points="269.94,-172.5 279.94,-169 269.94,-165.5 269.94,-172.5"/>
</g>
<!-- Node11 -->
<g id="node11" class="node">
<title>Node11</title>
<g id="a_node11"><a xlink:href="namespacealpaqa.html#ace167fc364a50a555a05a8bc695ff189" target="_top" xlink:title="Project a vector onto a box.">
<polygon fill="white" stroke="#666666" points="379.5,-24.5 290.5,-24.5 290.5,-5.5 379.5,-5.5 379.5,-24.5"/>
<text text-anchor="middle" x="335" y="-12.5" font-family="Helvetica,sans-Serif" font-size="10.00">alpaqa::project</text>
</a>
</g>
</g>
<!-- Node10&#45;&gt;Node11 -->
<g id="edge12" class="edge">
<title>Node10&#45;&gt;Node11</title>
<path fill="none" stroke="#63b8ff" d="M224.72,-15C242.45,-15 262.35,-15 280.27,-15"/>
<polygon fill="#63b8ff" stroke="#63b8ff" points="280.27,-18.5 290.27,-15 280.27,-11.5 280.27,-18.5"/>
</g>
</g>
</svg>
