<?xml version="1.0" encoding="UTF-8" standalone="no"?>
<!DOCTYPE svg PUBLIC "-//W3C//DTD SVG 1.1//EN"
 "http://www.w3.org/Graphics/SVG/1.1/DTD/svg11.dtd">
<!-- Generated by graphviz version 2.43.0 (0)
 -->
<!-- Title: src/alpaqa/include/alpaqa/util/io/csv.hpp Pages: 1 -->
<svg width="702pt" height="159pt"
 viewBox="0.00 0.00 702.00 159.00" xmlns="http://www.w3.org/2000/svg" xmlns:xlink="http://www.w3.org/1999/xlink">
<g id="graph0" class="graph" transform="scale(1 1) rotate(0) translate(4 155)">
<title>src/alpaqa/include/alpaqa/util/io/csv.hpp</title>
<!-- Node1 -->
<g id="node1" class="node">
<title>Node1</title>
<g id="a_node1"><a xlink:title=" ">
<polygon fill="#999999" stroke="#666666" points="583,-151 460,-151 460,-121 583,-121 583,-151"/>
<text text-anchor="start" x="468" y="-139" font-family="Helvetica,sans-Serif" font-size="10.00">src/alpaqa/include</text>
<text text-anchor="middle" x="521.5" y="-128" font-family="Helvetica,sans-Serif" font-size="10.00">/alpaqa/util/io/csv.hpp</text>
</a>
</g>
</g>
<!-- Node2 -->
<g id="node2" class="node">
<title>Node2</title>
<g id="a_node2"><a xlink:href="config_8hpp.html" target="_top" xlink:title=" ">
<polygon fill="white" stroke="#666666" points="368,-85 233,-85 233,-66 368,-66 368,-85"/>
<text text-anchor="middle" x="300.5" y="-73" font-family="Helvetica,sans-Serif" font-size="10.00">alpaqa/config/config.hpp</text>
</a>
</g>
</g>
<!-- Node1&#45;&gt;Node2 -->
<g id="edge1" class="edge">
<title>Node1&#45;&gt;Node2</title>
<path fill="none" stroke="#63b8ff" d="M468.56,-120.99C430.09,-110.8 378.71,-97.2 342.93,-87.73"/>
<polygon fill="#63b8ff" stroke="#63b8ff" points="343.38,-84.23 332.81,-85.05 341.59,-91 343.38,-84.23"/>
</g>
<!-- Node8 -->
<g id="node8" class="node">
<title>Node8</title>
<g id="a_node8"><a xlink:title=" ">
<polygon fill="#e0e0e0" stroke="#999999" points="479,-85 386,-85 386,-66 479,-66 479,-85"/>
<text text-anchor="middle" x="432.5" y="-73" font-family="Helvetica,sans-Serif" font-size="10.00">alpaqa/export.h</text>
</a>
</g>
</g>
<!-- Node1&#45;&gt;Node8 -->
<g id="edge7" class="edge">
<title>Node1&#45;&gt;Node8</title>
<path fill="none" stroke="#63b8ff" d="M499.96,-120.84C486.03,-111.68 467.97,-99.82 454.05,-90.66"/>
<polygon fill="#63b8ff" stroke="#63b8ff" points="455.85,-87.66 445.58,-85.09 452.01,-93.51 455.85,-87.66"/>
</g>
<!-- Node9 -->
<g id="node9" class="node">
<title>Node9</title>
<g id="a_node9"><a xlink:title=" ">
<polygon fill="#e0e0e0" stroke="#999999" points="545.5,-85 497.5,-85 497.5,-66 545.5,-66 545.5,-85"/>
<text text-anchor="middle" x="521.5" y="-73" font-family="Helvetica,sans-Serif" font-size="10.00">iosfwd</text>
</a>
</g>
</g>
<!-- Node1&#45;&gt;Node9 -->
<g id="edge8" class="edge">
<title>Node1&#45;&gt;Node9</title>
<path fill="none" stroke="#63b8ff" d="M521.5,-120.84C521.5,-113.21 521.5,-103.7 521.5,-95.45"/>
<polygon fill="#63b8ff" stroke="#63b8ff" points="525,-95.27 521.5,-85.27 518,-95.27 525,-95.27"/>
</g>
<!-- Node10 -->
<g id="node10" class="node">
<title>Node10</title>
<g id="a_node10"><a xlink:title=" ">
<polygon fill="#e0e0e0" stroke="#999999" points="629,-85 564,-85 564,-66 629,-66 629,-85"/>
<text text-anchor="middle" x="596.5" y="-73" font-family="Helvetica,sans-Serif" font-size="10.00">stdexcept</text>
</a>
</g>
</g>
<!-- Node1&#45;&gt;Node10 -->
<g id="edge9" class="edge">
<title>Node1&#45;&gt;Node10</title>
<path fill="none" stroke="#63b8ff" d="M539.66,-120.84C550.99,-112 565.56,-100.63 577.12,-91.62"/>
<polygon fill="#63b8ff" stroke="#63b8ff" points="579.53,-94.18 585.26,-85.27 575.22,-88.66 579.53,-94.18"/>
</g>
<!-- Node11 -->
<g id="node11" class="node">
<title>Node11</title>
<g id="a_node11"><a xlink:title=" ">
<polygon fill="#e0e0e0" stroke="#999999" points="694,-85 647,-85 647,-66 694,-66 694,-85"/>
<text text-anchor="middle" x="670.5" y="-73" font-family="Helvetica,sans-Serif" font-size="10.00">vector</text>
</a>
</g>
</g>
<!-- Node1&#45;&gt;Node11 -->
<g id="edge10" class="edge">
<title>Node1&#45;&gt;Node11</title>
<path fill="none" stroke="#63b8ff" d="M557.19,-120.99C582.16,-111.18 615.2,-98.21 639.16,-88.81"/>
<polygon fill="#63b8ff" stroke="#63b8ff" points="640.47,-92.05 648.5,-85.14 637.91,-85.54 640.47,-92.05"/>
</g>
<!-- Node3 -->
<g id="node3" class="node">
<title>Node3</title>
<g id="a_node3"><a xlink:href="quadmath-print_8hpp.html" target="_top" xlink:title=" ">
<polygon fill="white" stroke="#666666" points="121,-30 0,-30 0,0 121,0 121,-30"/>
<text text-anchor="start" x="8" y="-18" font-family="Helvetica,sans-Serif" font-size="10.00">alpaqa/util/quadmath</text>
<text text-anchor="middle" x="60.5" y="-7" font-family="Helvetica,sans-Serif" font-size="10.00">/quadmath&#45;print.hpp</text>
</a>
</g>
</g>
<!-- Node2&#45;&gt;Node3 -->
<g id="edge2" class="edge">
<title>Node2&#45;&gt;Node3</title>
<path fill="none" stroke="#63b8ff" d="M265.6,-65.99C229.7,-57.24 172.87,-43.39 128.13,-32.48"/>
<polygon fill="#63b8ff" stroke="#63b8ff" points="128.74,-29.03 118.2,-30.06 127.09,-35.83 128.74,-29.03"/>
</g>
<!-- Node4 -->
<g id="node4" class="node">
<title>Node4</title>
<g id="a_node4"><a xlink:href="quadmath_8hpp.html" target="_top" xlink:title=" ">
<polygon fill="white" stroke="#666666" points="260,-30 139,-30 139,0 260,0 260,-30"/>
<text text-anchor="start" x="147" y="-18" font-family="Helvetica,sans-Serif" font-size="10.00">alpaqa/util/quadmath</text>
<text text-anchor="middle" x="199.5" y="-7" font-family="Helvetica,sans-Serif" font-size="10.00">/quadmath.hpp</text>
</a>
</g>
</g>
<!-- Node2&#45;&gt;Node4 -->
<g id="edge3" class="edge">
<title>Node2&#45;&gt;Node4</title>
<path fill="none" stroke="#63b8ff" d="M285.6,-65.87C271.77,-57.86 250.69,-45.65 232.85,-35.31"/>
<polygon fill="#63b8ff" stroke="#63b8ff" points="234.28,-32.1 223.87,-30.11 230.77,-38.16 234.28,-32.1"/>
</g>
<!-- Node5 -->
<g id="node5" class="node">
<title>Node5</title>
<g id="a_node5"><a xlink:title=" ">
<polygon fill="#e0e0e0" stroke="#999999" points="322.5,-24.5 278.5,-24.5 278.5,-5.5 322.5,-5.5 322.5,-24.5"/>
<text text-anchor="middle" x="300.5" y="-12.5" font-family="Helvetica,sans-Serif" font-size="10.00">limits</text>
</a>
</g>
</g>
<!-- Node2&#45;&gt;Node5 -->
<g id="edge4" class="edge">
<title>Node2&#45;&gt;Node5</title>
<path fill="none" stroke="#63b8ff" d="M300.5,-65.87C300.5,-57.75 300.5,-45.31 300.5,-34.89"/>
<polygon fill="#63b8ff" stroke="#63b8ff" points="304,-34.67 300.5,-24.67 297,-34.67 304,-34.67"/>
</g>
<!-- Node6 -->
<g id="node6" class="node">
<title>Node6</title>
<g id="a_node6"><a xlink:title=" ">
<polygon fill="#e0e0e0" stroke="#999999" points="410,-24.5 341,-24.5 341,-5.5 410,-5.5 410,-24.5"/>
<text text-anchor="middle" x="375.5" y="-12.5" font-family="Helvetica,sans-Serif" font-size="10.00">type_traits</text>
</a>
</g>
</g>
<!-- Node2&#45;&gt;Node6 -->
<g id="edge5" class="edge">
<title>Node2&#45;&gt;Node6</title>
<path fill="none" stroke="#63b8ff" d="M311.57,-65.87C323.31,-56.71 342.09,-42.06 356.26,-31.01"/>
<polygon fill="#63b8ff" stroke="#63b8ff" points="358.66,-33.58 364.39,-24.67 354.35,-28.06 358.66,-33.58"/>
</g>
<!-- Node7 -->
<g id="node7" class="node">
<title>Node7</title>
<g id="a_node7"><a xlink:title=" ">
<polygon fill="#e0e0e0" stroke="#999999" points="497,-24.5 428,-24.5 428,-5.5 497,-5.5 497,-24.5"/>
<text text-anchor="middle" x="462.5" y="-12.5" font-family="Helvetica,sans-Serif" font-size="10.00">Eigen/Core</text>
</a>
</g>
</g>
<!-- Node2&#45;&gt;Node7 -->
<g id="edge6" class="edge">
<title>Node2&#45;&gt;Node7</title>
<path fill="none" stroke="#63b8ff" d="M324.06,-65.99C351.77,-55.99 397.97,-39.3 429.31,-27.99"/>
<polygon fill="#63b8ff" stroke="#63b8ff" points="430.7,-31.21 438.92,-24.52 428.32,-24.62 430.7,-31.21"/>
</g>
</g>
</svg>
