<?xml version="1.0" encoding="UTF-8" standalone="no"?>
<!DOCTYPE svg PUBLIC "-//W3C//DTD SVG 1.1//EN"
 "http://www.w3.org/Graphics/SVG/1.1/DTD/svg11.dtd">
<!-- Generated by graphviz version 2.43.0 (0)
 -->
<!-- Title: src/interop/dl&#45;api/include/alpaqa/dl/dl&#45;problem.h Pages: 1 -->
<svg width="240pt" height="181pt"
 viewBox="0.00 0.00 240.00 181.00" xmlns="http://www.w3.org/2000/svg" xmlns:xlink="http://www.w3.org/1999/xlink">
<g id="graph0" class="graph" transform="scale(1 1) rotate(0) translate(4 177)">
<title>src/interop/dl&#45;api/include/alpaqa/dl/dl&#45;problem.h</title>
<!-- Node1 -->
<g id="node1" class="node">
<title>Node1</title>
<g id="a_node1"><a xlink:title=" ">
<polygon fill="#999999" stroke="#666666" points="177.5,-173 62.5,-173 62.5,-132 177.5,-132 177.5,-173"/>
<text text-anchor="start" x="70.5" y="-161" font-family="Helvetica,sans-Serif" font-size="10.00">src/interop/dl&#45;api</text>
<text text-anchor="start" x="70.5" y="-150" font-family="Helvetica,sans-Serif" font-size="10.00">/include/alpaqa/dl/dl</text>
<text text-anchor="middle" x="120" y="-139" font-family="Helvetica,sans-Serif" font-size="10.00">&#45;problem.h</text>
</a>
</g>
</g>
<!-- Node2 -->
<g id="node2" class="node">
<title>Node2</title>
<g id="a_node2"><a xlink:href="dl-problem_8hpp.html" target="_top" xlink:title=" ">
<polygon fill="white" stroke="#666666" points="191,-96 49,-96 49,-66 191,-66 191,-96"/>
<text text-anchor="start" x="57" y="-84" font-family="Helvetica,sans-Serif" font-size="10.00">src/interop/dl/include</text>
<text text-anchor="middle" x="120" y="-73" font-family="Helvetica,sans-Serif" font-size="10.00">/alpaqa/dl/dl&#45;problem.hpp</text>
</a>
</g>
</g>
<!-- Node1&#45;&gt;Node2 -->
<g id="edge1" class="edge">
<title>Node1&#45;&gt;Node2</title>
<path fill="none" stroke="#63b8ff" d="M120,-121.66C120,-112.76 120,-103.42 120,-96.04"/>
<polygon fill="#63b8ff" stroke="#63b8ff" points="116.5,-121.77 120,-131.77 123.5,-121.77 116.5,-121.77"/>
</g>
<!-- Node3 -->
<g id="node3" class="node">
<title>Node3</title>
<g id="a_node3"><a xlink:href="problem_8cpp.html" target="_top" xlink:title=" ">
<polygon fill="white" stroke="#666666" points="116,-30 0,-30 0,0 116,0 116,-30"/>
<text text-anchor="start" x="8" y="-18" font-family="Helvetica,sans-Serif" font-size="10.00">src/alpaqa/src/driver</text>
<text text-anchor="middle" x="58" y="-7" font-family="Helvetica,sans-Serif" font-size="10.00">/problem.cpp</text>
</a>
</g>
</g>
<!-- Node2&#45;&gt;Node3 -->
<g id="edge2" class="edge">
<title>Node2&#45;&gt;Node3</title>
<path fill="none" stroke="#63b8ff" d="M99.04,-58.37C90.03,-49.06 79.74,-38.44 71.72,-30.16"/>
<polygon fill="#63b8ff" stroke="#63b8ff" points="96.77,-61.05 106.24,-65.8 101.8,-56.18 96.77,-61.05"/>
</g>
<!-- Node4 -->
<g id="node4" class="node">
<title>Node4</title>
<g id="a_node4"><a xlink:href="dl-problem_8cpp.html" target="_top" xlink:title=" ">
<polygon fill="white" stroke="#666666" points="232,-30 134,-30 134,0 232,0 232,-30"/>
<text text-anchor="start" x="142" y="-18" font-family="Helvetica,sans-Serif" font-size="10.00">src/interop/dl/src</text>
<text text-anchor="middle" x="183" y="-7" font-family="Helvetica,sans-Serif" font-size="10.00">/dl&#45;problem.cpp</text>
</a>
</g>
</g>
<!-- Node2&#45;&gt;Node4 -->
<g id="edge3" class="edge">
<title>Node2&#45;&gt;Node4</title>
<path fill="none" stroke="#63b8ff" d="M141.02,-58.65C150.25,-49.27 160.83,-38.53 169.06,-30.16"/>
<polygon fill="#63b8ff" stroke="#63b8ff" points="138.5,-56.21 133.98,-65.8 143.49,-61.13 138.5,-56.21"/>
</g>
</g>
</svg>
