<?xml version="1.0" encoding="UTF-8" standalone="no"?>
<!DOCTYPE svg PUBLIC "-//W3C//DTD SVG 1.1//EN"
 "http://www.w3.org/Graphics/SVG/1.1/DTD/svg11.dtd">
<!-- Generated by graphviz version 2.43.0 (0)
 -->
<!-- Title: src/interop/lbfgspp/include/alpaqa/lbfgsb&#45;adapter.hpp Pages: 1 -->
<!--zoomable 423 -->
<svg id="main" version="1.1" xmlns="http://www.w3.org/2000/svg" xmlns:xlink="http://www.w3.org/1999/xlink" xml:space="preserve" onload="init(evt)">
<style type="text/css"><![CDATA[
.edge:hover path { stroke: red; }
.edge:hover polygon { stroke: red; fill: red; }
]]></style>
<script type="text/javascript"><![CDATA[
var edges = document.getElementsByTagName('g');
if (edges && edges.length) {
  for (var i=0;i<edges.length;i++) {
    if (edges[i].id.substr(0,4)=='edge') {
      edges[i].setAttribute('class','edge');
    }
  }
}
]]></script>
        <defs>
                <circle id="rim" cx="0" cy="0" r="7"/>
                <circle id="rim2" cx="0" cy="0" r="3.5"/>
                <g id="zoomPlus">
                        <use xlink:href="#rim" fill="#404040">
                                <set attributeName="fill" to="#808080" begin="zoomplus.mouseover" end="zoomplus.mouseout"/>
                        </use>
                        <path d="M-4,0h8M0,-4v8" fill="none" stroke="white" stroke-width="1.5" pointer-events="none"/>
                </g>
                <g id="zoomMin">
                        <use xlink:href="#rim" fill="#404040">
                                <set attributeName="fill" to="#808080" begin="zoomminus.mouseover" end="zoomminus.mouseout"/>
                        </use>
                        <path d="M-4,0h8" fill="none" stroke="white" stroke-width="1.5" pointer-events="none"/>
                </g>
                <g id="dirArrow">
                        <path fill="none" stroke="white" stroke-width="1.5" d="M0,-3.0v7 M-2.5,-0.5L0,-3.0L2.5,-0.5"/>
                </g>
               <g id="resetDef">
                       <use xlink:href="#rim2" fill="#404040">
                               <set attributeName="fill" to="#808080" begin="reset.mouseover" end="reset.mouseout"/>
                       </use>
               </g>
        </defs>

<script type="text/javascript">
var viewWidth = 2353;
var viewHeight = 423;
var sectionId = 'dynsection-0';
</script>
<script xlink:href="svgpan.js"/>
<svg id="graph" class="graph">
<g id="viewport">
<title>src/interop/lbfgspp/include/alpaqa/lbfgsb&#45;adapter.hpp</title>
<!-- Node1 -->
<g id="node1" class="node">
<title>Node1</title>
<g id="a_node1"><a xlink:title=" ">
<polygon fill="#999999" stroke="#666666" points="1964.92,-415 1840.92,-415 1840.92,-374 1964.92,-374 1964.92,-415"/>
<text text-anchor="start" x="1848.92" y="-403" font-family="Helvetica,sans-Serif" font-size="10.00">src/interop/lbfgspp</text>
<text text-anchor="start" x="1848.92" y="-392" font-family="Helvetica,sans-Serif" font-size="10.00">/include/alpaqa/lbfgsb</text>
<text text-anchor="middle" x="1902.92" y="-381" font-family="Helvetica,sans-Serif" font-size="10.00">&#45;adapter.hpp</text>
</a>
</g>
</g>
<!-- Node2 -->
<g id="node2" class="node">
<title>Node2</title>
<g id="a_node2"><a xlink:href="config_8hpp.html" target="_top" xlink:title=" ">
<polygon fill="white" stroke="#666666" points="486.42,-200.5 351.42,-200.5 351.42,-181.5 486.42,-181.5 486.42,-200.5"/>
<text text-anchor="middle" x="418.92" y="-188.5" font-family="Helvetica,sans-Serif" font-size="10.00">alpaqa/config/config.hpp</text>
</a>
</g>
</g>
<!-- Node1&#45;&gt;Node2 -->
<g id="edge1" class="edge">
<title>Node1&#45;&gt;Node2</title>
<path fill="none" stroke="#63b8ff" d="M1840.67,-394.19C1667.64,-395.3 1166.53,-393.13 754.92,-338 620.46,-319.99 563.02,-356.52 456.92,-272 437.5,-256.54 427.46,-228.77 422.7,-210.36"/>
<polygon fill="#63b8ff" stroke="#63b8ff" points="426.09,-209.49 420.42,-200.53 419.27,-211.07 426.09,-209.49"/>
</g>
<!-- Node8 -->
<g id="node8" class="node">
<title>Node8</title>
<g id="a_node8"><a xlink:href="inner-solve-options_8hpp.html" target="_top" xlink:title=" ">
<polygon fill="white" stroke="#666666" points="302.42,-338 195.42,-338 195.42,-308 302.42,-308 302.42,-338"/>
<text text-anchor="start" x="203.42" y="-326" font-family="Helvetica,sans-Serif" font-size="10.00">alpaqa/inner/inner</text>
<text text-anchor="middle" x="248.92" y="-315" font-family="Helvetica,sans-Serif" font-size="10.00">&#45;solve&#45;options.hpp</text>
</a>
</g>
</g>
<!-- Node1&#45;&gt;Node8 -->
<g id="edge7" class="edge">
<title>Node1&#45;&gt;Node8</title>
<path fill="none" stroke="#63b8ff" d="M1840.77,-392.82C1633.31,-390.19 945.69,-378.79 378.92,-338 357.32,-336.45 333.77,-334.11 312.72,-331.78"/>
<polygon fill="#63b8ff" stroke="#63b8ff" points="312.93,-328.28 302.6,-330.65 312.15,-335.24 312.93,-328.28"/>
</g>
<!-- Node9 -->
<g id="node9" class="node">
<title>Node9</title>
<g id="a_node9"><a xlink:title=" ">
<polygon fill="#e0e0e0" stroke="#999999" points="299.92,-266.5 249.92,-266.5 249.92,-247.5 299.92,-247.5 299.92,-266.5"/>
<text text-anchor="middle" x="274.92" y="-254.5" font-family="Helvetica,sans-Serif" font-size="10.00">chrono</text>
</a>
</g>
</g>
<!-- Node1&#45;&gt;Node9 -->
<g id="edge69" class="edge">
<title>Node1&#45;&gt;Node9</title>
<path fill="none" stroke="#63b8ff" d="M1840.52,-392.86C1576.56,-389.9 558.97,-376.11 420.92,-338 371.86,-324.46 321.21,-291.69 294.37,-272.56"/>
<polygon fill="#63b8ff" stroke="#63b8ff" points="296.37,-269.68 286.22,-266.64 292.25,-275.35 296.37,-269.68"/>
</g>
<!-- Node11 -->
<g id="node11" class="node">
<title>Node11</title>
<g id="a_node11"><a xlink:href="solverstatus_8hpp.html" target="_top" xlink:title=" ">
<polygon fill="white" stroke="#666666" points="2069.92,-206 1951.92,-206 1951.92,-176 2069.92,-176 2069.92,-206"/>
<text text-anchor="start" x="1959.92" y="-194" font-family="Helvetica,sans-Serif" font-size="10.00">alpaqa/inner/internal</text>
<text text-anchor="middle" x="2010.92" y="-183" font-family="Helvetica,sans-Serif" font-size="10.00">/solverstatus.hpp</text>
</a>
</g>
</g>
<!-- Node1&#45;&gt;Node11 -->
<g id="edge11" class="edge">
<title>Node1&#45;&gt;Node11</title>
<path fill="none" stroke="#63b8ff" d="M1900.12,-373.9C1896.79,-343.03 1894.7,-282.48 1921.92,-242 1931,-228.49 1945.03,-218.23 1959.28,-210.64"/>
<polygon fill="#63b8ff" stroke="#63b8ff" points="1961.21,-213.59 1968.63,-206.03 1958.11,-207.31 1961.21,-213.59"/>
</g>
<!-- Node15 -->
<g id="node15" class="node">
<title>Node15</title>
<g id="a_node15"><a xlink:href="lbfgspp-adapter-export_8hpp.html" target="_top" xlink:title=" ">
<polygon fill="white" stroke="#666666" points="2060.92,-338 1930.92,-338 1930.92,-308 2060.92,-308 2060.92,-338"/>
<text text-anchor="start" x="1938.92" y="-326" font-family="Helvetica,sans-Serif" font-size="10.00">alpaqa/lbfgspp&#45;adapter</text>
<text text-anchor="middle" x="1995.92" y="-315" font-family="Helvetica,sans-Serif" font-size="10.00">&#45;export.hpp</text>
</a>
</g>
</g>
<!-- Node1&#45;&gt;Node15 -->
<g id="edge15" class="edge">
<title>Node1&#45;&gt;Node15</title>
<path fill="none" stroke="#63b8ff" d="M1929.32,-373.77C1941.71,-364.51 1956.46,-353.49 1968.92,-344.17"/>
<polygon fill="#63b8ff" stroke="#63b8ff" points="1971.22,-346.83 1977.13,-338.04 1967.03,-341.22 1971.22,-346.83"/>
</g>
<!-- Node17 -->
<g id="node17" class="node">
<title>Node17</title>
<g id="a_node17"><a xlink:href="type-erased-problem_8hpp.html" target="_top" xlink:title=" ">
<polygon fill="white" stroke="#666666" points="883.42,-338 764.42,-338 764.42,-308 883.42,-308 883.42,-338"/>
<text text-anchor="start" x="772.42" y="-326" font-family="Helvetica,sans-Serif" font-size="10.00">alpaqa/problem/type</text>
<text text-anchor="middle" x="823.92" y="-315" font-family="Helvetica,sans-Serif" font-size="10.00">&#45;erased&#45;problem.hpp</text>
</a>
</g>
</g>
<!-- Node1&#45;&gt;Node17 -->
<g id="edge17" class="edge">
<title>Node1&#45;&gt;Node17</title>
<path fill="none" stroke="#63b8ff" d="M1840.64,-389.49C1652.59,-377.38 1091.41,-341.23 893.75,-328.5"/>
<polygon fill="#63b8ff" stroke="#63b8ff" points="893.7,-324.99 883.49,-327.84 893.25,-331.97 893.7,-324.99"/>
</g>
<!-- Node41 -->
<g id="node41" class="node">
<title>Node41</title>
<g id="a_node41"><a xlink:href="atomic-stop-signal_8hpp.html" target="_top" xlink:title=" ">
<polygon fill="white" stroke="#666666" points="2184.42,-338 2079.42,-338 2079.42,-308 2184.42,-308 2184.42,-338"/>
<text text-anchor="start" x="2087.42" y="-326" font-family="Helvetica,sans-Serif" font-size="10.00">alpaqa/util/atomic</text>
<text text-anchor="middle" x="2131.92" y="-315" font-family="Helvetica,sans-Serif" font-size="10.00">&#45;stop&#45;signal.hpp</text>
</a>
</g>
</g>
<!-- Node1&#45;&gt;Node41 -->
<g id="edge67" class="edge">
<title>Node1&#45;&gt;Node41</title>
<path fill="none" stroke="#63b8ff" d="M1965.19,-374.6C1999.79,-364.1 2042.48,-351.14 2076,-340.97"/>
<polygon fill="#63b8ff" stroke="#63b8ff" points="2077.09,-344.3 2085.64,-338.04 2075.06,-337.6 2077.09,-344.3"/>
</g>
<!-- Node43 -->
<g id="node43" class="node">
<title>Node43</title>
<g id="a_node43"><a xlink:title=" ">
<polygon fill="#e0e0e0" stroke="#999999" points="2262.92,-332.5 2202.92,-332.5 2202.92,-313.5 2262.92,-313.5 2262.92,-332.5"/>
<text text-anchor="middle" x="2232.92" y="-320.5" font-family="Helvetica,sans-Serif" font-size="10.00">iostream</text>
</a>
</g>
</g>
<!-- Node1&#45;&gt;Node43 -->
<g id="edge70" class="edge">
<title>Node1&#45;&gt;Node43</title>
<path fill="none" stroke="#63b8ff" d="M1965.15,-384.52C2024.51,-375.27 2116.14,-359.24 2193.92,-338 2196.35,-337.34 2198.84,-336.59 2201.33,-335.8"/>
<polygon fill="#63b8ff" stroke="#63b8ff" points="2202.47,-339.11 2210.83,-332.6 2200.24,-332.48 2202.47,-339.11"/>
</g>
<!-- Node44 -->
<g id="node44" class="node">
<title>Node44</title>
<g id="a_node44"><a xlink:title=" ">
<polygon fill="#e0e0e0" stroke="#999999" points="2344.92,-332.5 2280.92,-332.5 2280.92,-313.5 2344.92,-313.5 2344.92,-332.5"/>
<text text-anchor="middle" x="2312.92" y="-320.5" font-family="Helvetica,sans-Serif" font-size="10.00">LBFGSB.h</text>
</a>
</g>
</g>
<!-- Node1&#45;&gt;Node44 -->
<g id="edge71" class="edge">
<title>Node1&#45;&gt;Node44</title>
<path fill="none" stroke="#63b8ff" d="M1964.95,-387.61C2038.81,-379.82 2165.55,-363.94 2271.92,-338 2274.73,-337.32 2277.61,-336.52 2280.5,-335.66"/>
<polygon fill="#63b8ff" stroke="#63b8ff" points="2281.68,-338.96 2290.15,-332.59 2279.56,-332.29 2281.68,-338.96"/>
</g>
<!-- Node3 -->
<g id="node3" class="node">
<title>Node3</title>
<g id="a_node3"><a xlink:href="quadmath-print_8hpp.html" target="_top" xlink:title=" ">
<polygon fill="white" stroke="#666666" points="286.42,-140 165.42,-140 165.42,-110 286.42,-110 286.42,-140"/>
<text text-anchor="start" x="173.42" y="-128" font-family="Helvetica,sans-Serif" font-size="10.00">alpaqa/util/quadmath</text>
<text text-anchor="middle" x="225.92" y="-117" font-family="Helvetica,sans-Serif" font-size="10.00">/quadmath&#45;print.hpp</text>
</a>
</g>
</g>
<!-- Node2&#45;&gt;Node3 -->
<g id="edge2" class="edge">
<title>Node2&#45;&gt;Node3</title>
<path fill="none" stroke="#63b8ff" d="M392.89,-181.37C363.61,-171.66 315.3,-155.64 278.15,-143.32"/>
<polygon fill="#63b8ff" stroke="#63b8ff" points="279.08,-139.94 268.48,-140.12 276.87,-146.59 279.08,-139.94"/>
</g>
<!-- Node4 -->
<g id="node4" class="node">
<title>Node4</title>
<g id="a_node4"><a xlink:href="quadmath_8hpp.html" target="_top" xlink:title=" ">
<polygon fill="white" stroke="#666666" points="464.42,-140 343.42,-140 343.42,-110 464.42,-110 464.42,-140"/>
<text text-anchor="start" x="351.42" y="-128" font-family="Helvetica,sans-Serif" font-size="10.00">alpaqa/util/quadmath</text>
<text text-anchor="middle" x="403.92" y="-117" font-family="Helvetica,sans-Serif" font-size="10.00">/quadmath.hpp</text>
</a>
</g>
</g>
<!-- Node2&#45;&gt;Node4 -->
<g id="edge3" class="edge">
<title>Node2&#45;&gt;Node4</title>
<path fill="none" stroke="#63b8ff" d="M416.89,-181.37C415.03,-173.4 412.17,-161.2 409.6,-150.27"/>
<polygon fill="#63b8ff" stroke="#63b8ff" points="412.97,-149.3 407.28,-140.36 406.16,-150.9 412.97,-149.3"/>
</g>
<!-- Node5 -->
<g id="node5" class="node">
<title>Node5</title>
<g id="a_node5"><a xlink:title=" ">
<polygon fill="#e0e0e0" stroke="#999999" points="146.92,-134.5 102.92,-134.5 102.92,-115.5 146.92,-115.5 146.92,-134.5"/>
<text text-anchor="middle" x="124.92" y="-122.5" font-family="Helvetica,sans-Serif" font-size="10.00">limits</text>
</a>
</g>
</g>
<!-- Node2&#45;&gt;Node5 -->
<g id="edge4" class="edge">
<title>Node2&#45;&gt;Node5</title>
<path fill="none" stroke="#63b8ff" d="M372.4,-181.45C299.67,-168.04 166.19,-143.25 155.92,-140 154.47,-139.54 153.01,-139.04 151.54,-138.5"/>
<polygon fill="#63b8ff" stroke="#63b8ff" points="152.59,-135.15 142.01,-134.59 149.94,-141.62 152.59,-135.15"/>
</g>
<!-- Node6 -->
<g id="node6" class="node">
<title>Node6</title>
<g id="a_node6"><a xlink:title=" ">
<polygon fill="#e0e0e0" stroke="#999999" points="669.42,-74 600.42,-74 600.42,-55 669.42,-55 669.42,-74"/>
<text text-anchor="middle" x="634.92" y="-62" font-family="Helvetica,sans-Serif" font-size="10.00">type_traits</text>
</a>
</g>
</g>
<!-- Node2&#45;&gt;Node6 -->
<g id="edge5" class="edge">
<title>Node2&#45;&gt;Node6</title>
<path fill="none" stroke="#63b8ff" d="M397.01,-181.39C364.42,-167.36 309.49,-138.31 333.92,-110 366.47,-72.28 514.47,-65.99 590.11,-65.29"/>
<polygon fill="#63b8ff" stroke="#63b8ff" points="590.31,-68.79 600.29,-65.22 590.26,-61.79 590.31,-68.79"/>
</g>
<!-- Node7 -->
<g id="node7" class="node">
<title>Node7</title>
<g id="a_node7"><a xlink:title=" ">
<polygon fill="#e0e0e0" stroke="#999999" points="84.42,-134.5 15.42,-134.5 15.42,-115.5 84.42,-115.5 84.42,-134.5"/>
<text text-anchor="middle" x="49.92" y="-122.5" font-family="Helvetica,sans-Serif" font-size="10.00">Eigen/Core</text>
</a>
</g>
</g>
<!-- Node2&#45;&gt;Node7 -->
<g id="edge6" class="edge">
<title>Node2&#45;&gt;Node7</title>
<path fill="none" stroke="#63b8ff" d="M373.36,-181.44C363.03,-179.58 352.11,-177.67 341.92,-176 232,-158.04 202.46,-164.97 93.92,-140 90.71,-139.26 87.41,-138.4 84.11,-137.48"/>
<polygon fill="#63b8ff" stroke="#63b8ff" points="84.97,-134.08 74.39,-134.57 82.96,-140.79 84.97,-134.08"/>
</g>
<!-- Node8&#45;&gt;Node2 -->
<g id="edge8" class="edge">
<title>Node8&#45;&gt;Node2</title>
<path fill="none" stroke="#63b8ff" d="M242.21,-307.99C235.01,-290.67 226.42,-261.13 240.92,-242 248.83,-231.56 319.04,-214.1 368.87,-202.82"/>
<polygon fill="#63b8ff" stroke="#63b8ff" points="369.86,-206.19 378.85,-200.58 368.33,-199.36 369.86,-206.19"/>
</g>
<!-- Node8&#45;&gt;Node9 -->
<g id="edge9" class="edge">
<title>Node8&#45;&gt;Node9</title>
<path fill="none" stroke="#63b8ff" d="M254.69,-307.8C258.46,-298.5 263.43,-286.27 267.5,-276.26"/>
<polygon fill="#63b8ff" stroke="#63b8ff" points="270.8,-277.43 271.32,-266.84 264.32,-274.79 270.8,-277.43"/>
</g>
<!-- Node10 -->
<g id="node10" class="node">
<title>Node10</title>
<g id="a_node10"><a xlink:title=" ">
<polygon fill="#e0e0e0" stroke="#999999" points="166.92,-200.5 110.92,-200.5 110.92,-181.5 166.92,-181.5 166.92,-200.5"/>
<text text-anchor="middle" x="138.92" y="-188.5" font-family="Helvetica,sans-Serif" font-size="10.00">optional</text>
</a>
</g>
</g>
<!-- Node8&#45;&gt;Node10 -->
<g id="edge10" class="edge">
<title>Node8&#45;&gt;Node10</title>
<path fill="none" stroke="#63b8ff" d="M236.94,-307.84C216.42,-283.6 174.69,-234.28 152.89,-208.51"/>
<polygon fill="#63b8ff" stroke="#63b8ff" points="155.45,-206.12 146.32,-200.75 150.11,-210.64 155.45,-206.12"/>
</g>
<!-- Node12 -->
<g id="node12" class="node">
<title>Node12</title>
<g id="a_node12"><a xlink:title=" ">
<polygon fill="#e0e0e0" stroke="#999999" points="1932.42,-19 1839.42,-19 1839.42,0 1932.42,0 1932.42,-19"/>
<text text-anchor="middle" x="1885.92" y="-7" font-family="Helvetica,sans-Serif" font-size="10.00">alpaqa/export.h</text>
</a>
</g>
</g>
<!-- Node11&#45;&gt;Node12 -->
<g id="edge12" class="edge">
<title>Node11&#45;&gt;Node12</title>
<path fill="none" stroke="#63b8ff" d="M2001.11,-175.91C1978.39,-143.29 1922.24,-62.65 1897.7,-27.42"/>
<polygon fill="#63b8ff" stroke="#63b8ff" points="1900.52,-25.34 1891.93,-19.13 1894.77,-29.34 1900.52,-25.34"/>
</g>
<!-- Node13 -->
<g id="node13" class="node">
<title>Node13</title>
<g id="a_node13"><a xlink:title=" ">
<polygon fill="#e0e0e0" stroke="#999999" points="2037.92,-134.5 1989.92,-134.5 1989.92,-115.5 2037.92,-115.5 2037.92,-134.5"/>
<text text-anchor="middle" x="2013.92" y="-122.5" font-family="Helvetica,sans-Serif" font-size="10.00">iosfwd</text>
</a>
</g>
</g>
<!-- Node11&#45;&gt;Node13 -->
<g id="edge13" class="edge">
<title>Node11&#45;&gt;Node13</title>
<path fill="none" stroke="#63b8ff" d="M2011.58,-175.8C2012.01,-166.7 2012.57,-154.79 2013.03,-144.9"/>
<polygon fill="#63b8ff" stroke="#63b8ff" points="2016.53,-145 2013.5,-134.84 2009.54,-144.67 2016.53,-145"/>
</g>
<!-- Node14 -->
<g id="node14" class="node">
<title>Node14</title>
<g id="a_node14"><a xlink:title=" ">
<polygon fill="#e0e0e0" stroke="#999999" points="1857.42,-134.5 1792.42,-134.5 1792.42,-115.5 1857.42,-115.5 1857.42,-134.5"/>
<text text-anchor="middle" x="1824.92" y="-122.5" font-family="Helvetica,sans-Serif" font-size="10.00">stdexcept</text>
</a>
</g>
</g>
<!-- Node11&#45;&gt;Node14 -->
<g id="edge14" class="edge">
<title>Node11&#45;&gt;Node14</title>
<path fill="none" stroke="#63b8ff" d="M1970.1,-175.95C1936.9,-164.53 1890.6,-148.6 1859.28,-137.82"/>
<polygon fill="#63b8ff" stroke="#63b8ff" points="1860.26,-134.46 1849.67,-134.52 1857.99,-141.08 1860.26,-134.46"/>
</g>
<!-- Node16 -->
<g id="node16" class="node">
<title>Node16</title>
<g id="a_node16"><a xlink:title=" ">
<polygon fill="#e0e0e0" stroke="#999999" points="2060.92,-272 1930.92,-272 1930.92,-242 2060.92,-242 2060.92,-272"/>
<text text-anchor="start" x="1938.92" y="-260" font-family="Helvetica,sans-Serif" font-size="10.00">alpaqa/lbfgspp&#45;adapter</text>
<text text-anchor="middle" x="1995.92" y="-249" font-family="Helvetica,sans-Serif" font-size="10.00">&#45;export.h</text>
</a>
</g>
</g>
<!-- Node15&#45;&gt;Node16 -->
<g id="edge16" class="edge">
<title>Node15&#45;&gt;Node16</title>
<path fill="none" stroke="#63b8ff" d="M1995.92,-307.8C1995.92,-300.34 1995.92,-290.99 1995.92,-282.41"/>
<polygon fill="#63b8ff" stroke="#63b8ff" points="1999.42,-282.16 1995.92,-272.16 1992.42,-282.16 1999.42,-282.16"/>
</g>
<!-- Node17&#45;&gt;Node2 -->
<g id="edge18" class="edge">
<title>Node17&#45;&gt;Node2</title>
<path fill="none" stroke="#63b8ff" d="M764.27,-317.21C683.74,-310 545.1,-294.73 499.92,-272 470.33,-257.11 444.77,-227.44 430.64,-208.71"/>
<polygon fill="#63b8ff" stroke="#63b8ff" points="433.38,-206.53 424.66,-200.51 427.73,-210.65 433.38,-206.53"/>
</g>
<!-- Node17&#45;&gt;Node6 -->
<g id="edge65" class="edge">
<title>Node17&#45;&gt;Node6</title>
<path fill="none" stroke="#63b8ff" d="M764.24,-321.95C676.2,-320.44 507.15,-311.96 369.92,-272 340.91,-263.55 337.65,-251.35 308.92,-242 220.12,-213.1 188.38,-241.26 101.92,-206 53.97,-186.45 30.02,-185.82 5.92,-140 -0.29,-128.2 -3.17,-119.76 5.92,-110 45.56,-67.46 452.65,-64.88 589.97,-65.23"/>
<polygon fill="#63b8ff" stroke="#63b8ff" points="590.13,-68.73 600.14,-65.26 590.15,-61.73 590.13,-68.73"/>
</g>
<!-- Node17&#45;&gt;Node9 -->
<g id="edge63" class="edge">
<title>Node17&#45;&gt;Node9</title>
<path fill="none" stroke="#63b8ff" d="M764.27,-320.9C668.27,-318.09 474.06,-308.01 313.92,-272 311.09,-271.36 308.18,-270.58 305.29,-269.71"/>
<polygon fill="#63b8ff" stroke="#63b8ff" points="306.28,-266.35 295.68,-266.53 304.07,-273 306.28,-266.35"/>
</g>
<!-- Node17&#45;&gt;Node14 -->
<g id="edge64" class="edge">
<title>Node17&#45;&gt;Node14</title>
<path fill="none" stroke="#63b8ff" d="M883.69,-317.53C1051.51,-304.38 1524.12,-263.17 1667.92,-206 1689.23,-197.52 1689.95,-187.3 1709.92,-176 1736.44,-160.98 1768.35,-147.44 1791.82,-138.24"/>
<polygon fill="#63b8ff" stroke="#63b8ff" points="1793.25,-141.44 1801.32,-134.58 1790.73,-134.91 1793.25,-141.44"/>
</g>
<!-- Node18 -->
<g id="node18" class="node">
<title>Node18</title>
<g id="a_node18"><a xlink:href="export_8hpp.html" target="_top" xlink:title=" ">
<polygon fill="white" stroke="#666666" points="1835.42,-74 1730.42,-74 1730.42,-55 1835.42,-55 1835.42,-74"/>
<text text-anchor="middle" x="1782.92" y="-62" font-family="Helvetica,sans-Serif" font-size="10.00">alpaqa/export.hpp</text>
</a>
</g>
</g>
<!-- Node17&#45;&gt;Node18 -->
<g id="edge19" class="edge">
<title>Node17&#45;&gt;Node18</title>
<path fill="none" stroke="#63b8ff" d="M883.7,-321.37C1060.71,-319.1 1580.05,-309.34 1744.92,-272 1819.94,-255.01 1862.13,-269.93 1904.92,-206 1928.23,-171.16 1866.72,-110.77 1865.92,-110 1851.61,-96.28 1832.25,-85.58 1815.82,-78.11"/>
<polygon fill="#63b8ff" stroke="#63b8ff" points="1817.11,-74.85 1806.55,-74.09 1814.33,-81.28 1817.11,-74.85"/>
</g>
<!-- Node19 -->
<g id="node19" class="node">
<title>Node19</title>
<g id="a_node19"><a xlink:href="box_8hpp.html" target="_top" xlink:title=" ">
<polygon fill="white" stroke="#666666" points="644.42,-266.5 509.42,-266.5 509.42,-247.5 644.42,-247.5 644.42,-266.5"/>
<text text-anchor="middle" x="576.92" y="-254.5" font-family="Helvetica,sans-Serif" font-size="10.00">alpaqa/problem/box.hpp</text>
</a>
</g>
</g>
<!-- Node17&#45;&gt;Node19 -->
<g id="edge21" class="edge">
<title>Node17&#45;&gt;Node19</title>
<path fill="none" stroke="#63b8ff" d="M769.71,-307.95C724.58,-296.26 661.2,-279.84 619.61,-269.06"/>
<polygon fill="#63b8ff" stroke="#63b8ff" points="620.35,-265.64 609.79,-266.52 618.59,-272.41 620.35,-265.64"/>
</g>
<!-- Node24 -->
<g id="node24" class="node">
<title>Node24</title>
<g id="a_node24"><a xlink:href="alloc-check_8hpp.html" target="_top" xlink:title=" ">
<polygon fill="white" stroke="#666666" points="332.92,-200.5 184.92,-200.5 184.92,-181.5 332.92,-181.5 332.92,-200.5"/>
<text text-anchor="middle" x="258.92" y="-188.5" font-family="Helvetica,sans-Serif" font-size="10.00">alpaqa/util/alloc&#45;check.hpp</text>
</a>
</g>
</g>
<!-- Node17&#45;&gt;Node24 -->
<g id="edge29" class="edge">
<title>Node17&#45;&gt;Node24</title>
<path fill="none" stroke="#63b8ff" d="M764.23,-318.44C690.86,-313.02 563.03,-300.19 456.92,-272 393.11,-255.05 322.26,-222.97 285.04,-205.01"/>
<polygon fill="#63b8ff" stroke="#63b8ff" points="286.42,-201.79 275.9,-200.55 283.36,-208.08 286.42,-201.79"/>
</g>
<!-- Node25 -->
<g id="node25" class="node">
<title>Node25</title>
<g id="a_node25"><a xlink:href="check-dim_8hpp.html" target="_top" xlink:title=" ">
<polygon fill="white" stroke="#666666" points="895.42,-266.5 752.42,-266.5 752.42,-247.5 895.42,-247.5 895.42,-266.5"/>
<text text-anchor="middle" x="823.92" y="-254.5" font-family="Helvetica,sans-Serif" font-size="10.00">alpaqa/util/check&#45;dim.hpp</text>
</a>
</g>
</g>
<!-- Node17&#45;&gt;Node25 -->
<g id="edge31" class="edge">
<title>Node17&#45;&gt;Node25</title>
<path fill="none" stroke="#63b8ff" d="M823.92,-307.8C823.92,-298.7 823.92,-286.79 823.92,-276.9"/>
<polygon fill="#63b8ff" stroke="#63b8ff" points="827.42,-276.84 823.92,-266.84 820.42,-276.84 827.42,-276.84"/>
</g>
<!-- Node27 -->
<g id="node27" class="node">
<title>Node27</title>
<g id="a_node27"><a xlink:href="not-implemented_8hpp.html" target="_top" xlink:title=" ">
<polygon fill="white" stroke="#666666" points="1896.42,-200.5 1719.42,-200.5 1719.42,-181.5 1896.42,-181.5 1896.42,-200.5"/>
<text text-anchor="middle" x="1807.92" y="-188.5" font-family="Helvetica,sans-Serif" font-size="10.00">alpaqa/util/not&#45;implemented.hpp</text>
</a>
</g>
</g>
<!-- Node17&#45;&gt;Node27 -->
<g id="edge36" class="edge">
<title>Node17&#45;&gt;Node27</title>
<path fill="none" stroke="#63b8ff" d="M883.74,-320.68C1069.66,-316.3 1629.51,-300.84 1705.92,-272 1742.03,-258.37 1775.53,-227.1 1793.72,-207.94"/>
<polygon fill="#63b8ff" stroke="#63b8ff" points="1796.32,-210.28 1800.53,-200.56 1791.18,-205.53 1796.32,-210.28"/>
</g>
<!-- Node28 -->
<g id="node28" class="node">
<title>Node28</title>
<g id="a_node28"><a xlink:href="required-method_8hpp.html" target="_top" xlink:title=" ">
<polygon fill="white" stroke="#666666" points="1025.92,-272 913.92,-272 913.92,-242 1025.92,-242 1025.92,-272"/>
<text text-anchor="start" x="921.92" y="-260" font-family="Helvetica,sans-Serif" font-size="10.00">alpaqa/util/required</text>
<text text-anchor="middle" x="969.92" y="-249" font-family="Helvetica,sans-Serif" font-size="10.00">&#45;method.hpp</text>
</a>
</g>
</g>
<!-- Node17&#45;&gt;Node28 -->
<g id="edge39" class="edge">
<title>Node17&#45;&gt;Node28</title>
<path fill="none" stroke="#63b8ff" d="M855.96,-307.95C877.35,-298.58 905.69,-286.16 928.75,-276.05"/>
<polygon fill="#63b8ff" stroke="#63b8ff" points="930.2,-279.23 937.95,-272.01 927.39,-272.82 930.2,-279.23"/>
</g>
<!-- Node29 -->
<g id="node29" class="node">
<title>Node29</title>
<g id="a_node29"><a xlink:href="type-erasure_8hpp.html" target="_top" xlink:title=" ">
<polygon fill="white" stroke="#666666" points="1203.42,-200.5 1048.42,-200.5 1048.42,-181.5 1203.42,-181.5 1203.42,-200.5"/>
<text text-anchor="middle" x="1125.92" y="-188.5" font-family="Helvetica,sans-Serif" font-size="10.00">alpaqa/util/type&#45;erasure.hpp</text>
</a>
</g>
</g>
<!-- Node17&#45;&gt;Node29 -->
<g id="edge62" class="edge">
<title>Node17&#45;&gt;Node29</title>
<path fill="none" stroke="#63b8ff" d="M883.46,-315.75C927.28,-309.33 987.26,-296.63 1034.92,-272 1066.36,-255.75 1095.77,-226.31 1112.25,-208.03"/>
<polygon fill="#63b8ff" stroke="#63b8ff" points="1114.89,-210.33 1118.87,-200.51 1109.64,-205.7 1114.89,-210.33"/>
</g>
<!-- Node40 -->
<g id="node40" class="node">
<title>Node40</title>
<g id="a_node40"><a xlink:title=" ">
<polygon fill="#e0e0e0" stroke="#999999" points="746.42,-134.5 701.42,-134.5 701.42,-115.5 746.42,-115.5 746.42,-134.5"/>
<text text-anchor="middle" x="723.92" y="-122.5" font-family="Helvetica,sans-Serif" font-size="10.00">utility</text>
</a>
</g>
</g>
<!-- Node17&#45;&gt;Node40 -->
<g id="edge66" class="edge">
<title>Node17&#45;&gt;Node40</title>
<path fill="none" stroke="#63b8ff" d="M787.07,-307.94C770.93,-299.88 753.32,-288.1 742.92,-272 717.45,-232.58 718.74,-174.59 721.51,-144.96"/>
<polygon fill="#63b8ff" stroke="#63b8ff" points="725.01,-145.09 722.63,-134.76 718.06,-144.32 725.01,-145.09"/>
</g>
<!-- Node18&#45;&gt;Node12 -->
<g id="edge20" class="edge">
<title>Node18&#45;&gt;Node12</title>
<path fill="none" stroke="#63b8ff" d="M1799.47,-54.98C1815.81,-46.57 1841.05,-33.59 1860.05,-23.81"/>
<polygon fill="#63b8ff" stroke="#63b8ff" points="1861.78,-26.86 1869.07,-19.17 1858.57,-20.63 1861.78,-26.86"/>
</g>
<!-- Node19&#45;&gt;Node2 -->
<g id="edge22" class="edge">
<title>Node19&#45;&gt;Node2</title>
<path fill="none" stroke="#63b8ff" d="M555.61,-247.37C528.32,-236.32 480.84,-217.08 449.65,-204.45"/>
<polygon fill="#63b8ff" stroke="#63b8ff" points="450.72,-201.11 440.14,-200.6 448.09,-207.59 450.72,-201.11"/>
</g>
<!-- Node20 -->
<g id="node20" class="node">
<title>Node20</title>
<g id="a_node20"><a xlink:href="float_8hpp.html" target="_top" xlink:title=" ">
<polygon fill="white" stroke="#666666" points="633.92,-200.5 519.92,-200.5 519.92,-181.5 633.92,-181.5 633.92,-200.5"/>
<text text-anchor="middle" x="576.92" y="-188.5" font-family="Helvetica,sans-Serif" font-size="10.00">alpaqa/util/float.hpp</text>
</a>
</g>
</g>
<!-- Node19&#45;&gt;Node20 -->
<g id="edge23" class="edge">
<title>Node19&#45;&gt;Node20</title>
<path fill="none" stroke="#63b8ff" d="M576.92,-247.37C576.92,-238.16 576.92,-223.29 576.92,-211.27"/>
<polygon fill="#63b8ff" stroke="#63b8ff" points="580.42,-210.91 576.92,-200.91 573.42,-210.91 580.42,-210.91"/>
</g>
<!-- Node20&#45;&gt;Node4 -->
<g id="edge24" class="edge">
<title>Node20&#45;&gt;Node4</title>
<path fill="none" stroke="#63b8ff" d="M553.58,-181.37C527.56,-171.74 484.77,-155.91 451.59,-143.64"/>
<polygon fill="#63b8ff" stroke="#63b8ff" points="452.67,-140.3 442.07,-140.12 450.24,-146.87 452.67,-140.3"/>
</g>
<!-- Node20&#45;&gt;Node6 -->
<g id="edge28" class="edge">
<title>Node20&#45;&gt;Node6</title>
<path fill="none" stroke="#63b8ff" d="M585.06,-181.49C593.66,-172.06 607.04,-156.05 614.92,-140 623.74,-122 629.09,-99.59 632,-84.07"/>
<polygon fill="#63b8ff" stroke="#63b8ff" points="635.46,-84.6 633.71,-74.15 628.56,-83.41 635.46,-84.6"/>
</g>
<!-- Node21 -->
<g id="node21" class="node">
<title>Node21</title>
<g id="a_node21"><a xlink:title=" ">
<polygon fill="#e0e0e0" stroke="#999999" points="529.42,-134.5 482.42,-134.5 482.42,-115.5 529.42,-115.5 529.42,-134.5"/>
<text text-anchor="middle" x="505.92" y="-122.5" font-family="Helvetica,sans-Serif" font-size="10.00">cmath</text>
</a>
</g>
</g>
<!-- Node20&#45;&gt;Node21 -->
<g id="edge25" class="edge">
<title>Node20&#45;&gt;Node21</title>
<path fill="none" stroke="#63b8ff" d="M567.34,-181.37C556.08,-171.21 537.16,-154.16 523.28,-141.65"/>
<polygon fill="#63b8ff" stroke="#63b8ff" points="525.57,-139 515.8,-134.91 520.88,-144.2 525.57,-139"/>
</g>
<!-- Node22 -->
<g id="node22" class="node">
<title>Node22</title>
<g id="a_node22"><a xlink:title=" ">
<polygon fill="#e0e0e0" stroke="#999999" points="606.42,-134.5 547.42,-134.5 547.42,-115.5 606.42,-115.5 606.42,-134.5"/>
<text text-anchor="middle" x="576.92" y="-122.5" font-family="Helvetica,sans-Serif" font-size="10.00">complex</text>
</a>
</g>
</g>
<!-- Node20&#45;&gt;Node22 -->
<g id="edge26" class="edge">
<title>Node20&#45;&gt;Node22</title>
<path fill="none" stroke="#63b8ff" d="M576.92,-181.37C576.92,-172.16 576.92,-157.29 576.92,-145.27"/>
<polygon fill="#63b8ff" stroke="#63b8ff" points="580.42,-144.91 576.92,-134.91 573.42,-144.91 580.42,-144.91"/>
</g>
<!-- Node23 -->
<g id="node23" class="node">
<title>Node23</title>
<g id="a_node23"><a xlink:title=" ">
<polygon fill="#e0e0e0" stroke="#999999" points="965.92,-74 905.92,-74 905.92,-55 965.92,-55 965.92,-74"/>
<text text-anchor="middle" x="935.92" y="-62" font-family="Helvetica,sans-Serif" font-size="10.00">concepts</text>
</a>
</g>
</g>
<!-- Node20&#45;&gt;Node23 -->
<g id="edge27" class="edge">
<title>Node20&#45;&gt;Node23</title>
<path fill="none" stroke="#63b8ff" d="M586.22,-181.38C604.77,-164.72 648.35,-128.12 691.92,-110 760.03,-81.67 846.25,-71.33 895.84,-67.59"/>
<polygon fill="#63b8ff" stroke="#63b8ff" points="896.12,-71.08 905.85,-66.89 895.63,-64.09 896.12,-71.08"/>
</g>
<!-- Node24&#45;&gt;Node7 -->
<g id="edge30" class="edge">
<title>Node24&#45;&gt;Node7</title>
<path fill="none" stroke="#63b8ff" d="M230.26,-181.45C197.32,-171.59 141.65,-154.83 93.92,-140 91.5,-139.25 89.02,-138.47 86.52,-137.69"/>
<polygon fill="#63b8ff" stroke="#63b8ff" points="87.48,-134.32 76.89,-134.65 85.37,-141 87.48,-134.32"/>
</g>
<!-- Node25&#45;&gt;Node2 -->
<g id="edge32" class="edge">
<title>Node25&#45;&gt;Node2</title>
<path fill="none" stroke="#63b8ff" d="M769.72,-247.44C695.45,-235.7 562.29,-214.66 483.12,-202.15"/>
<polygon fill="#63b8ff" stroke="#63b8ff" points="483.22,-198.62 472.8,-200.51 482.13,-205.53 483.22,-198.62"/>
</g>
<!-- Node25&#45;&gt;Node10 -->
<g id="edge33" class="edge">
<title>Node25&#45;&gt;Node10</title>
<path fill="none" stroke="#63b8ff" d="M752.37,-250.04C721.75,-247.52 685.58,-244.57 652.92,-242 440.97,-225.33 383.46,-252.09 175.92,-206 173.39,-205.44 170.81,-204.74 168.25,-203.96"/>
<polygon fill="#63b8ff" stroke="#63b8ff" points="169.16,-200.57 158.57,-200.63 166.88,-207.19 169.16,-200.57"/>
</g>
<!-- Node25&#45;&gt;Node14 -->
<g id="edge34" class="edge">
<title>Node25&#45;&gt;Node14</title>
<path fill="none" stroke="#63b8ff" d="M867.5,-247.47C879.57,-245.38 892.72,-243.35 904.92,-242 1065.24,-224.23 1476.01,-254.3 1629.92,-206 1653.92,-198.47 1655.19,-186.79 1677.92,-176 1697.56,-166.67 1750.83,-149.25 1787.54,-137.63"/>
<polygon fill="#63b8ff" stroke="#63b8ff" points="1788.92,-140.86 1797.41,-134.52 1786.82,-134.19 1788.92,-140.86"/>
</g>
<!-- Node26 -->
<g id="node26" class="node">
<title>Node26</title>
<g id="a_node26"><a xlink:title=" ">
<polygon fill="#e0e0e0" stroke="#999999" points="1666.92,-74 1622.92,-74 1622.92,-55 1666.92,-55 1666.92,-74"/>
<text text-anchor="middle" x="1644.92" y="-62" font-family="Helvetica,sans-Serif" font-size="10.00">string</text>
</a>
</g>
</g>
<!-- Node25&#45;&gt;Node26 -->
<g id="edge35" class="edge">
<title>Node25&#45;&gt;Node26</title>
<path fill="none" stroke="#63b8ff" d="M870.53,-247.5C881.77,-245.57 893.76,-243.62 904.92,-242 993.82,-229.11 1647.74,-207.59 1706.92,-140 1715.7,-129.97 1713,-121.86 1706.92,-110 1699.96,-96.44 1686.73,-86.07 1674.27,-78.78"/>
<polygon fill="#63b8ff" stroke="#63b8ff" points="1675.9,-75.68 1665.44,-74 1672.57,-81.84 1675.9,-75.68"/>
</g>
<!-- Node27&#45;&gt;Node12 -->
<g id="edge37" class="edge">
<title>Node27&#45;&gt;Node12</title>
<path fill="none" stroke="#63b8ff" d="M1822.95,-181.38C1836.52,-172.74 1855.86,-158.14 1865.92,-140 1885.62,-104.47 1887.56,-55.5 1886.94,-29.12"/>
<polygon fill="#63b8ff" stroke="#63b8ff" points="1890.43,-28.87 1886.54,-19.01 1883.44,-29.14 1890.43,-28.87"/>
</g>
<!-- Node27&#45;&gt;Node14 -->
<g id="edge38" class="edge">
<title>Node27&#45;&gt;Node14</title>
<path fill="none" stroke="#63b8ff" d="M1810.21,-181.37C1812.68,-172.07 1816.69,-156.98 1819.9,-144.9"/>
<polygon fill="#63b8ff" stroke="#63b8ff" points="1823.37,-145.47 1822.55,-134.91 1816.6,-143.67 1823.37,-145.47"/>
</g>
<!-- Node28&#45;&gt;Node29 -->
<g id="edge40" class="edge">
<title>Node28&#45;&gt;Node29</title>
<path fill="none" stroke="#63b8ff" d="M1004.15,-241.95C1031.51,-230.73 1069.49,-215.15 1095.72,-204.39"/>
<polygon fill="#63b8ff" stroke="#63b8ff" points="1097.23,-207.55 1105.16,-200.52 1094.58,-201.07 1097.23,-207.55"/>
</g>
<!-- Node38 -->
<g id="node38" class="node">
<title>Node38</title>
<g id="a_node38"><a xlink:title=" ">
<polygon fill="#e0e0e0" stroke="#999999" points="829.42,-134.5 764.42,-134.5 764.42,-115.5 829.42,-115.5 829.42,-134.5"/>
<text text-anchor="middle" x="796.92" y="-122.5" font-family="Helvetica,sans-Serif" font-size="10.00">functional</text>
</a>
</g>
</g>
<!-- Node28&#45;&gt;Node38 -->
<g id="edge61" class="edge">
<title>Node28&#45;&gt;Node38</title>
<path fill="none" stroke="#63b8ff" d="M951.07,-241.84C918.11,-217.07 850.31,-166.12 816.7,-140.87"/>
<polygon fill="#63b8ff" stroke="#63b8ff" points="818.66,-137.96 808.56,-134.75 814.45,-143.55 818.66,-137.96"/>
</g>
<!-- Node29&#45;&gt;Node6 -->
<g id="edge58" class="edge">
<title>Node29&#45;&gt;Node6</title>
<path fill="none" stroke="#63b8ff" d="M1048.21,-183.6C997.63,-177.25 931.2,-164.69 876.92,-140 857.01,-130.94 857.74,-119.23 837.92,-110 786.55,-86.08 721.81,-74.76 679.43,-69.59"/>
<polygon fill="#63b8ff" stroke="#63b8ff" points="679.76,-66.1 669.43,-68.43 678.96,-73.05 679.76,-66.1"/>
</g>
<!-- Node29&#45;&gt;Node14 -->
<g id="edge57" class="edge">
<title>Node29&#45;&gt;Node14</title>
<path fill="none" stroke="#63b8ff" d="M1203.66,-185.72C1320.4,-178.83 1547.78,-163.61 1739.92,-140 1753.76,-138.3 1768.79,-135.98 1782.31,-133.72"/>
<polygon fill="#63b8ff" stroke="#63b8ff" points="1783.04,-137.15 1792.31,-132.01 1781.87,-130.25 1783.04,-137.15"/>
</g>
<!-- Node29&#45;&gt;Node18 -->
<g id="edge41" class="edge">
<title>Node29&#45;&gt;Node18</title>
<path fill="none" stroke="#63b8ff" d="M1203.62,-189.76C1340.72,-188.28 1619.35,-180.23 1706.92,-140 1734.37,-127.39 1757.75,-100.5 1771.07,-82.71"/>
<polygon fill="#63b8ff" stroke="#63b8ff" points="1774.08,-84.52 1777.09,-74.36 1768.4,-80.43 1774.08,-84.52"/>
</g>
<!-- Node30 -->
<g id="node30" class="node">
<title>Node30</title>
<g id="a_node30"><a xlink:href="demangled-typename_8hpp.html" target="_top" xlink:title=" ">
<polygon fill="white" stroke="#666666" points="1615.92,-140 1489.92,-140 1489.92,-110 1615.92,-110 1615.92,-140"/>
<text text-anchor="start" x="1497.92" y="-128" font-family="Helvetica,sans-Serif" font-size="10.00">alpaqa/util/demangled</text>
<text text-anchor="middle" x="1552.92" y="-117" font-family="Helvetica,sans-Serif" font-size="10.00">&#45;typename.hpp</text>
</a>
</g>
</g>
<!-- Node29&#45;&gt;Node30 -->
<g id="edge42" class="edge">
<title>Node29&#45;&gt;Node30</title>
<path fill="none" stroke="#63b8ff" d="M1193.27,-181.49C1262.44,-172.52 1373.45,-157.5 1479.71,-139.98"/>
<polygon fill="#63b8ff" stroke="#63b8ff" points="1480.35,-143.42 1489.64,-138.33 1479.2,-136.52 1480.35,-143.42"/>
</g>
<!-- Node31 -->
<g id="node31" class="node">
<title>Node31</title>
<g id="a_node31"><a xlink:title=" ">
<polygon fill="#e0e0e0" stroke="#999999" points="1464.42,-74 1407.42,-74 1407.42,-55 1464.42,-55 1464.42,-74"/>
<text text-anchor="middle" x="1435.92" y="-62" font-family="Helvetica,sans-Serif" font-size="10.00">typeinfo</text>
</a>
</g>
</g>
<!-- Node29&#45;&gt;Node31 -->
<g id="edge59" class="edge">
<title>Node29&#45;&gt;Node31</title>
<path fill="none" stroke="#63b8ff" d="M1150.32,-181.39C1176.32,-172.01 1218.54,-156.16 1253.92,-140 1279.96,-128.11 1284.7,-121.5 1310.92,-110 1339.78,-97.34 1373.5,-85.5 1398.64,-77.22"/>
<polygon fill="#63b8ff" stroke="#63b8ff" points="1399.74,-80.54 1408.17,-74.12 1397.58,-73.89 1399.74,-80.54"/>
</g>
<!-- Node32 -->
<g id="node32" class="node">
<title>Node32</title>
<g id="a_node32"><a xlink:href="noop-delete_8hpp.html" target="_top" xlink:title=" ">
<polygon fill="white" stroke="#666666" points="1471.42,-134.5 1320.42,-134.5 1320.42,-115.5 1471.42,-115.5 1471.42,-134.5"/>
<text text-anchor="middle" x="1395.92" y="-122.5" font-family="Helvetica,sans-Serif" font-size="10.00">alpaqa/util/noop&#45;delete.hpp</text>
</a>
</g>
</g>
<!-- Node29&#45;&gt;Node32 -->
<g id="edge46" class="edge">
<title>Node29&#45;&gt;Node32</title>
<path fill="none" stroke="#63b8ff" d="M1162.05,-181.44C1210.65,-169.92 1297.09,-149.43 1350.17,-136.84"/>
<polygon fill="#63b8ff" stroke="#63b8ff" points="1351.07,-140.23 1360,-134.51 1349.46,-133.42 1351.07,-140.23"/>
</g>
<!-- Node33 -->
<g id="node33" class="node">
<title>Node33</title>
<g id="a_node33"><a xlink:href="type-traits_8hpp.html" target="_top" xlink:title=" ">
<polygon fill="white" stroke="#666666" points="1225.42,-134.5 1082.42,-134.5 1082.42,-115.5 1225.42,-115.5 1225.42,-134.5"/>
<text text-anchor="middle" x="1153.92" y="-122.5" font-family="Helvetica,sans-Serif" font-size="10.00">alpaqa/util/type&#45;traits.hpp</text>
</a>
</g>
</g>
<!-- Node29&#45;&gt;Node33 -->
<g id="edge47" class="edge">
<title>Node29&#45;&gt;Node33</title>
<path fill="none" stroke="#63b8ff" d="M1129.69,-181.37C1133.84,-171.88 1140.63,-156.36 1145.97,-144.16"/>
<polygon fill="#63b8ff" stroke="#63b8ff" points="1149.22,-145.47 1150.02,-134.91 1142.81,-142.66 1149.22,-145.47"/>
</g>
<!-- Node34 -->
<g id="node34" class="node">
<title>Node34</title>
<g id="a_node34"><a xlink:title=" ">
<polygon fill="#e0e0e0" stroke="#999999" points="1271.92,-74 1213.92,-74 1213.92,-55 1271.92,-55 1271.92,-74"/>
<text text-anchor="middle" x="1242.92" y="-62" font-family="Helvetica,sans-Serif" font-size="10.00">memory</text>
</a>
</g>
</g>
<!-- Node29&#45;&gt;Node34 -->
<g id="edge55" class="edge">
<title>Node29&#45;&gt;Node34</title>
<path fill="none" stroke="#63b8ff" d="M1166.9,-181.46C1190.3,-174.37 1218.06,-161.81 1233.92,-140 1245.51,-124.06 1246.54,-100.94 1245.45,-84.7"/>
<polygon fill="#63b8ff" stroke="#63b8ff" points="1248.88,-83.88 1244.4,-74.28 1241.92,-84.58 1248.88,-83.88"/>
</g>
<!-- Node35 -->
<g id="node35" class="node">
<title>Node35</title>
<g id="a_node35"><a xlink:title=" ">
<polygon fill="#e0e0e0" stroke="#999999" points="1697.92,-134.5 1633.92,-134.5 1633.92,-115.5 1697.92,-115.5 1697.92,-134.5"/>
<text text-anchor="middle" x="1665.92" y="-122.5" font-family="Helvetica,sans-Serif" font-size="10.00">algorithm</text>
</a>
</g>
</g>
<!-- Node29&#45;&gt;Node35 -->
<g id="edge51" class="edge">
<title>Node29&#45;&gt;Node35</title>
<path fill="none" stroke="#63b8ff" d="M1203.71,-187.71C1302.62,-183.55 1478.17,-171.96 1624.92,-140 1627.98,-139.33 1631.13,-138.51 1634.26,-137.61"/>
<polygon fill="#63b8ff" stroke="#63b8ff" points="1635.58,-140.86 1644.05,-134.5 1633.46,-134.19 1635.58,-140.86"/>
</g>
<!-- Node36 -->
<g id="node36" class="node">
<title>Node36</title>
<g id="a_node36"><a xlink:title=" ">
<polygon fill="#e0e0e0" stroke="#999999" points="937.92,-134.5 885.92,-134.5 885.92,-115.5 937.92,-115.5 937.92,-134.5"/>
<text text-anchor="middle" x="911.92" y="-122.5" font-family="Helvetica,sans-Serif" font-size="10.00">cassert</text>
</a>
</g>
</g>
<!-- Node29&#45;&gt;Node36 -->
<g id="edge52" class="edge">
<title>Node29&#45;&gt;Node36</title>
<path fill="none" stroke="#63b8ff" d="M1090.93,-181.42C1054.6,-172.24 996.27,-156.71 946.92,-140 945.25,-139.44 943.56,-138.84 941.85,-138.22"/>
<polygon fill="#63b8ff" stroke="#63b8ff" points="942.73,-134.81 932.14,-134.52 940.24,-141.35 942.73,-134.81"/>
</g>
<!-- Node37 -->
<g id="node37" class="node">
<title>Node37</title>
<g id="a_node37"><a xlink:title=" ">
<polygon fill="#e0e0e0" stroke="#999999" points="1009.42,-134.5 956.42,-134.5 956.42,-115.5 1009.42,-115.5 1009.42,-134.5"/>
<text text-anchor="middle" x="982.92" y="-122.5" font-family="Helvetica,sans-Serif" font-size="10.00">cstddef</text>
</a>
</g>
</g>
<!-- Node29&#45;&gt;Node37 -->
<g id="edge53" class="edge">
<title>Node29&#45;&gt;Node37</title>
<path fill="none" stroke="#63b8ff" d="M1106.63,-181.37C1082.22,-170.44 1039.94,-151.52 1011.7,-138.88"/>
<polygon fill="#63b8ff" stroke="#63b8ff" points="1012.91,-135.59 1002.35,-134.7 1010.05,-141.98 1012.91,-135.59"/>
</g>
<!-- Node29&#45;&gt;Node38 -->
<g id="edge54" class="edge">
<title>Node29&#45;&gt;Node38</title>
<path fill="none" stroke="#63b8ff" d="M1066.37,-181.46C1009.02,-172.76 920,-158.01 843.92,-140 840.5,-139.19 836.96,-138.28 833.43,-137.32"/>
<polygon fill="#63b8ff" stroke="#63b8ff" points="834.19,-133.9 823.62,-134.53 832.28,-140.63 834.19,-133.9"/>
</g>
<!-- Node39 -->
<g id="node39" class="node">
<title>Node39</title>
<g id="a_node39"><a xlink:title=" ">
<polygon fill="#e0e0e0" stroke="#999999" points="1064.42,-134.5 1027.42,-134.5 1027.42,-115.5 1064.42,-115.5 1064.42,-134.5"/>
<text text-anchor="middle" x="1045.92" y="-122.5" font-family="Helvetica,sans-Serif" font-size="10.00">new</text>
</a>
</g>
</g>
<!-- Node29&#45;&gt;Node39 -->
<g id="edge56" class="edge">
<title>Node29&#45;&gt;Node39</title>
<path fill="none" stroke="#63b8ff" d="M1115.13,-181.37C1102.24,-171.06 1080.47,-153.65 1064.78,-141.09"/>
<polygon fill="#63b8ff" stroke="#63b8ff" points="1066.79,-138.21 1056.79,-134.7 1062.41,-143.68 1066.79,-138.21"/>
</g>
<!-- Node29&#45;&gt;Node40 -->
<g id="edge60" class="edge">
<title>Node29&#45;&gt;Node40</title>
<path fill="none" stroke="#63b8ff" d="M1048.2,-186.09C972.19,-180.74 853.79,-168.33 754.92,-140 753.28,-139.53 751.61,-138.99 749.95,-138.4"/>
<polygon fill="#63b8ff" stroke="#63b8ff" points="751.22,-135.13 740.64,-134.62 748.59,-141.62 751.22,-135.13"/>
</g>
<!-- Node30&#45;&gt;Node18 -->
<g id="edge43" class="edge">
<title>Node30&#45;&gt;Node18</title>
<path fill="none" stroke="#63b8ff" d="M1608.01,-109.99C1648.22,-99.76 1701.98,-86.09 1739.24,-76.61"/>
<polygon fill="#63b8ff" stroke="#63b8ff" points="1740.46,-79.91 1749.29,-74.05 1738.73,-73.13 1740.46,-79.91"/>
</g>
<!-- Node30&#45;&gt;Node26 -->
<g id="edge44" class="edge">
<title>Node30&#45;&gt;Node26</title>
<path fill="none" stroke="#63b8ff" d="M1575.19,-109.84C1589.58,-100.68 1608.25,-88.82 1622.64,-79.66"/>
<polygon fill="#63b8ff" stroke="#63b8ff" points="1624.84,-82.41 1631.4,-74.09 1621.08,-76.51 1624.84,-82.41"/>
</g>
<!-- Node30&#45;&gt;Node31 -->
<g id="edge45" class="edge">
<title>Node30&#45;&gt;Node31</title>
<path fill="none" stroke="#63b8ff" d="M1524.89,-109.99C1505.89,-100.49 1480.95,-88.02 1462.3,-78.69"/>
<polygon fill="#63b8ff" stroke="#63b8ff" points="1463.7,-75.48 1453.19,-74.14 1460.57,-81.74 1463.7,-75.48"/>
</g>
<!-- Node33&#45;&gt;Node6 -->
<g id="edge50" class="edge">
<title>Node33&#45;&gt;Node6</title>
<path fill="none" stroke="#63b8ff" d="M1107.74,-115.45C1096.38,-113.5 1084.23,-111.55 1072.92,-110 929.79,-90.38 759.24,-75.48 679.79,-69.02"/>
<polygon fill="#63b8ff" stroke="#63b8ff" points="679.9,-65.51 669.65,-68.2 679.34,-72.49 679.9,-65.51"/>
</g>
<!-- Node33&#45;&gt;Node23 -->
<g id="edge48" class="edge">
<title>Node33&#45;&gt;Node23</title>
<path fill="none" stroke="#63b8ff" d="M1122.22,-115.49C1083.6,-105.13 1018.31,-87.61 976.17,-76.3"/>
<polygon fill="#63b8ff" stroke="#63b8ff" points="976.81,-72.85 966.25,-73.64 975,-79.61 976.81,-72.85"/>
</g>
<!-- Node33&#45;&gt;Node34 -->
<g id="edge49" class="edge">
<title>Node33&#45;&gt;Node34</title>
<path fill="none" stroke="#63b8ff" d="M1167.05,-115.37C1181.25,-106.04 1204.11,-91.01 1221.03,-79.88"/>
<polygon fill="#63b8ff" stroke="#63b8ff" points="1223.3,-82.58 1229.73,-74.17 1219.45,-76.74 1223.3,-82.58"/>
</g>
<!-- Node42 -->
<g id="node42" class="node">
<title>Node42</title>
<g id="a_node42"><a xlink:title=" ">
<polygon fill="#e0e0e0" stroke="#999999" points="2156.92,-266.5 2106.92,-266.5 2106.92,-247.5 2156.92,-247.5 2156.92,-266.5"/>
<text text-anchor="middle" x="2131.92" y="-254.5" font-family="Helvetica,sans-Serif" font-size="10.00">atomic</text>
</a>
</g>
</g>
<!-- Node41&#45;&gt;Node42 -->
<g id="edge68" class="edge">
<title>Node41&#45;&gt;Node42</title>
<path fill="none" stroke="#63b8ff" d="M2131.92,-307.8C2131.92,-298.7 2131.92,-286.79 2131.92,-276.9"/>
<polygon fill="#63b8ff" stroke="#63b8ff" points="2135.42,-276.84 2131.92,-266.84 2128.42,-276.84 2135.42,-276.84"/>
</g>
</g>
</svg>
        <g id="navigator" transform="translate(0 0)" fill="#404254">
                <rect fill="#f2f5e9" fill-opacity="0.5" stroke="#606060" stroke-width=".5" x="0" y="0" width="60" height="60"/>
                <use id="zoomplus" xlink:href="#zoomPlus" x="17" y="9" onmousedown="handleZoom(evt,'in')"/>
                <use id="zoomminus" xlink:href="#zoomMin" x="42" y="9" onmousedown="handleZoom(evt,'out')"/>
                <use id="reset" xlink:href="#resetDef" x="30" y="36" onmousedown="handleReset()"/>
                <g id="arrowUp" xlink:href="#dirArrow" transform="translate(30 24)" onmousedown="handlePan(0,-1)">
                  <use xlink:href="#rim" fill="#404040">
                        <set attributeName="fill" to="#808080" begin="arrowUp.mouseover" end="arrowUp.mouseout"/>
                  </use>
                  <path fill="none" stroke="white" stroke-width="1.5" d="M0,-3.0v7 M-2.5,-0.5L0,-3.0L2.5,-0.5"/>
                </g>
                <g id="arrowRight" xlink:href="#dirArrow" transform="rotate(90) translate(36 -43)" onmousedown="handlePan(1,0)">
                  <use xlink:href="#rim" fill="#404040">
                        <set attributeName="fill" to="#808080" begin="arrowRight.mouseover" end="arrowRight.mouseout"/>
                  </use>
                  <path fill="none" stroke="white" stroke-width="1.5" d="M0,-3.0v7 M-2.5,-0.5L0,-3.0L2.5,-0.5"/>
                </g>
                <g id="arrowDown" xlink:href="#dirArrow" transform="rotate(180) translate(-30 -48)" onmousedown="handlePan(0,1)">
                  <use xlink:href="#rim" fill="#404040">
                        <set attributeName="fill" to="#808080" begin="arrowDown.mouseover" end="arrowDown.mouseout"/>
                  </use>
                  <path fill="none" stroke="white" stroke-width="1.5" d="M0,-3.0v7 M-2.5,-0.5L0,-3.0L2.5,-0.5"/>
                </g>
                <g id="arrowLeft" xlink:href="#dirArrow" transform="rotate(270) translate(-36 17)" onmousedown="handlePan(-1,0)">
                  <use xlink:href="#rim" fill="#404040">
                        <set attributeName="fill" to="#808080" begin="arrowLeft.mouseover" end="arrowLeft.mouseout"/>
                  </use>
                  <path fill="none" stroke="white" stroke-width="1.5" d="M0,-3.0v7 M-2.5,-0.5L0,-3.0L2.5,-0.5"/>
                </g>
        </g>
        <svg viewBox="0 0 15 15" width="100%" height="30px" preserveAspectRatio="xMaxYMin meet">
         <g id="arrow_out" transform="scale(0.3 0.3)">
          <a xlink:href="lbfgspp_2include_2alpaqa_2lbfgsb-adapter_8hpp__incl_org.svg" target="_base">
           <rect id="button" ry="5" rx="5" y="6" x="6" height="38" width="38"
                fill="#f2f5e9" fill-opacity="0.5" stroke="#606060" stroke-width="1.0"/>
           <path id="arrow"
             d="M 11.500037,31.436501 C 11.940474,20.09759 22.043105,11.32322 32.158766,21.979434 L 37.068811,17.246167 C 37.068811,17.246167 37.088388,32 37.088388,32 L 22.160133,31.978069 C 22.160133,31.978069 26.997745,27.140456 26.997745,27.140456 C 18.528582,18.264221 13.291696,25.230495 11.500037,31.436501 z"
             style="fill:#404040;"/>
          </a>
         </g>
        </svg>
</svg>
