<?xml version="1.0" encoding="UTF-8" standalone="no"?>
<!DOCTYPE svg PUBLIC "-//W3C//DTD SVG 1.1//EN"
 "http://www.w3.org/Graphics/SVG/1.1/DTD/svg11.dtd">
<!-- Generated by graphviz version 2.43.0 (0)
 -->
<!-- Title: iter_set_intersection Pages: 1 -->
<svg width="704pt" height="182pt"
 viewBox="0.00 0.00 704.00 182.00" xmlns="http://www.w3.org/2000/svg" xmlns:xlink="http://www.w3.org/1999/xlink">
<g id="graph0" class="graph" transform="scale(1 1) rotate(0) translate(4 178)">
<title>iter_set_intersection</title>
<!-- Node1 -->
<g id="node1" class="node">
<title>Node1</title>
<g id="a_node1"><a xlink:title=" ">
<polygon fill="#999999" stroke="#666666" points="696,-115.5 580,-115.5 580,-96.5 696,-96.5 696,-115.5"/>
<text text-anchor="middle" x="638" y="-103.5" font-family="Helvetica,sans-Serif" font-size="10.00">iter_set_intersection</text>
</a>
</g>
</g>
<!-- Node2 -->
<g id="node2" class="node">
<title>Node2</title>
<g id="a_node2"><a xlink:href="namespacealpaqa_1_1util_1_1detail.html#a363a373e4888017ca42c9d0f4650b770" target="_top" xlink:title="Returns a range over the row indices in the given column of sp_mat that are also in mask.">
<polygon fill="white" stroke="#666666" points="532,-153 418,-153 418,-123 532,-123 532,-153"/>
<text text-anchor="start" x="426" y="-141" font-family="Helvetica,sans-Serif" font-size="10.00">alpaqa::util::detail</text>
<text text-anchor="middle" x="475" y="-130" font-family="Helvetica,sans-Serif" font-size="10.00">::select_rows_in_col</text>
</a>
</g>
</g>
<!-- Node1&#45;&gt;Node2 -->
<g id="edge1" class="edge">
<title>Node1&#45;&gt;Node2</title>
<path fill="none" stroke="#63b8ff" d="M579.26,-117.48C563.94,-120.52 547.43,-123.8 532.19,-126.83"/>
<polygon fill="#63b8ff" stroke="#63b8ff" points="580,-120.9 589.13,-115.51 578.64,-114.03 580,-120.9"/>
</g>
<!-- Node5 -->
<g id="node5" class="node">
<title>Node5</title>
<g id="a_node5"><a xlink:href="namespacealpaqa_1_1util_1_1detail.html#a619596647bd12dfb15417042bcdef056" target="_top" xlink:title="Like select_rows_in_col, but returns a range of tuples containing the Eigen InnerIterator and a linea...">
<polygon fill="white" stroke="#666666" points="544,-97 406,-97 406,-67 544,-67 544,-97"/>
<text text-anchor="start" x="414" y="-85" font-family="Helvetica,sans-Serif" font-size="10.00">alpaqa::util::detail</text>
<text text-anchor="middle" x="475" y="-74" font-family="Helvetica,sans-Serif" font-size="10.00">::select_rows_in_col_iota</text>
</a>
</g>
</g>
<!-- Node1&#45;&gt;Node5 -->
<g id="edge4" class="edge">
<title>Node1&#45;&gt;Node5</title>
<path fill="none" stroke="#63b8ff" d="M569.88,-95.99C561.34,-94.72 552.6,-93.42 544.05,-92.14"/>
<polygon fill="#63b8ff" stroke="#63b8ff" points="569.38,-99.46 579.78,-97.47 570.41,-92.53 569.38,-99.46"/>
</g>
<!-- Node3 -->
<g id="node3" class="node">
<title>Node3</title>
<g id="a_node3"><a xlink:href="namespacealpaqa_1_1util.html#ab1fe477130dff69a401ed5ae0078a5f2" target="_top" xlink:title="out += S(mask,:)ᵀ * v(mask);">
<polygon fill="white" stroke="#666666" points="370,-171 203,-171 203,-141 370,-141 370,-171"/>
<text text-anchor="start" x="211" y="-159" font-family="Helvetica,sans-Serif" font-size="10.00">sparse_matvec_add_transpose</text>
<text text-anchor="middle" x="286.5" y="-148" font-family="Helvetica,sans-Serif" font-size="10.00">_masked_rows</text>
</a>
</g>
</g>
<!-- Node2&#45;&gt;Node3 -->
<g id="edge2" class="edge">
<title>Node2&#45;&gt;Node3</title>
<path fill="none" stroke="#63b8ff" d="M407.74,-144.4C395.56,-145.57 382.7,-146.81 370.11,-148.03"/>
<polygon fill="#63b8ff" stroke="#63b8ff" points="408.17,-147.87 417.79,-143.43 407.5,-140.9 408.17,-147.87"/>
</g>
<!-- Node4 -->
<g id="node4" class="node">
<title>Node4</title>
<g id="a_node4"><a xlink:href="classalpaqa_1_1CasADiControlProblem.html#a4e8680cb8ad01d9bb6eb4a2d493ff25c" target="_top" xlink:title=" ">
<polygon fill="white" stroke="#666666" points="167,-174 0,-174 0,-144 167,-144 167,-174"/>
<text text-anchor="start" x="8" y="-162" font-family="Helvetica,sans-Serif" font-size="10.00">alpaqa::CasADiControlProblem</text>
<text text-anchor="middle" x="83.5" y="-151" font-family="Helvetica,sans-Serif" font-size="10.00">::eval_add_S_prod_masked</text>
</a>
</g>
</g>
<!-- Node3&#45;&gt;Node4 -->
<g id="edge3" class="edge">
<title>Node3&#45;&gt;Node4</title>
<path fill="none" stroke="#63b8ff" d="M192.85,-157.38C184.27,-157.51 175.61,-157.64 167.13,-157.77"/>
<polygon fill="#63b8ff" stroke="#63b8ff" points="192.93,-160.88 202.88,-157.23 192.82,-153.88 192.93,-160.88"/>
</g>
<!-- Node6 -->
<g id="node6" class="node">
<title>Node6</title>
<g id="a_node6"><a xlink:href="namespacealpaqa_1_1util.html#ab08b0b3734a3c29125bdd089feb869a5" target="_top" xlink:title="R += R_full(mask,mask)">
<polygon fill="white" stroke="#666666" points="344.5,-117.5 228.5,-117.5 228.5,-98.5 344.5,-98.5 344.5,-117.5"/>
<text text-anchor="middle" x="286.5" y="-105.5" font-family="Helvetica,sans-Serif" font-size="10.00">sparse_add_masked</text>
</a>
</g>
</g>
<!-- Node5&#45;&gt;Node6 -->
<g id="edge5" class="edge">
<title>Node5&#45;&gt;Node6</title>
<path fill="none" stroke="#63b8ff" d="M395.88,-92.89C378.72,-95.28 360.86,-97.77 344.71,-100.02"/>
<polygon fill="#63b8ff" stroke="#63b8ff" points="396.46,-96.34 405.88,-91.5 395.49,-89.41 396.46,-96.34"/>
</g>
<!-- Node8 -->
<g id="node8" class="node">
<title>Node8</title>
<g id="a_node8"><a xlink:href="namespacealpaqa_1_1util.html#a8f8729f20b9e0c58b08803046e2e5e54" target="_top" xlink:title="S += S_full(mask,:)">
<polygon fill="white" stroke="#666666" points="358.5,-75.5 214.5,-75.5 214.5,-56.5 358.5,-56.5 358.5,-75.5"/>
<text text-anchor="middle" x="286.5" y="-63.5" font-family="Helvetica,sans-Serif" font-size="10.00">sparse_add_masked_rows</text>
</a>
</g>
</g>
<!-- Node5&#45;&gt;Node8 -->
<g id="edge7" class="edge">
<title>Node5&#45;&gt;Node8</title>
<path fill="none" stroke="#63b8ff" d="M395.65,-75.28C383.35,-74.22 370.69,-73.14 358.57,-72.1"/>
<polygon fill="#63b8ff" stroke="#63b8ff" points="395.61,-78.79 405.88,-76.16 396.21,-71.81 395.61,-78.79"/>
</g>
<!-- Node10 -->
<g id="node10" class="node">
<title>Node10</title>
<g id="a_node10"><a xlink:href="namespacealpaqa_1_1util.html#a00fa6cdb76e2f6bc63a85e3f7e379a51" target="_top" xlink:title="out += R(mask_J,mask_K) * v(mask_K);">
<polygon fill="white" stroke="#666666" points="365.5,-36 207.5,-36 207.5,-6 365.5,-6 365.5,-36"/>
<text text-anchor="start" x="215.5" y="-24" font-family="Helvetica,sans-Serif" font-size="10.00">sparse_matvec_add_masked</text>
<text text-anchor="middle" x="286.5" y="-13" font-family="Helvetica,sans-Serif" font-size="10.00">_rows_cols</text>
</a>
</g>
</g>
<!-- Node5&#45;&gt;Node10 -->
<g id="edge9" class="edge">
<title>Node5&#45;&gt;Node10</title>
<path fill="none" stroke="#63b8ff" d="M420.23,-63.68C404.1,-58.25 386.35,-52.33 370,-47 359.01,-43.42 347.16,-39.64 335.97,-36.1"/>
<polygon fill="#63b8ff" stroke="#63b8ff" points="419.44,-67.11 430.04,-67 421.68,-60.48 419.44,-67.11"/>
</g>
<!-- Node7 -->
<g id="node7" class="node">
<title>Node7</title>
<g id="a_node7"><a xlink:href="classalpaqa_1_1CasADiControlProblem.html#a55e2e9425cc496e3340e59b099dda766" target="_top" xlink:title=" ">
<polygon fill="white" stroke="#666666" points="167,-126 0,-126 0,-96 167,-96 167,-126"/>
<text text-anchor="start" x="8" y="-114" font-family="Helvetica,sans-Serif" font-size="10.00">alpaqa::CasADiControlProblem</text>
<text text-anchor="middle" x="83.5" y="-103" font-family="Helvetica,sans-Serif" font-size="10.00">::eval_add_R_masked</text>
</a>
</g>
</g>
<!-- Node6&#45;&gt;Node7 -->
<g id="edge6" class="edge">
<title>Node6&#45;&gt;Node7</title>
<path fill="none" stroke="#63b8ff" d="M218.41,-109C202.01,-109.25 184.26,-109.51 167.22,-109.77"/>
<polygon fill="#63b8ff" stroke="#63b8ff" points="218.49,-112.5 228.44,-108.85 218.39,-105.5 218.49,-112.5"/>
</g>
<!-- Node9 -->
<g id="node9" class="node">
<title>Node9</title>
<g id="a_node9"><a xlink:href="classalpaqa_1_1CasADiControlProblem.html#aad269794afe7753e16a2cf238b9f42ad" target="_top" xlink:title=" ">
<polygon fill="white" stroke="#666666" points="167,-78 0,-78 0,-48 167,-48 167,-78"/>
<text text-anchor="start" x="8" y="-66" font-family="Helvetica,sans-Serif" font-size="10.00">alpaqa::CasADiControlProblem</text>
<text text-anchor="middle" x="83.5" y="-55" font-family="Helvetica,sans-Serif" font-size="10.00">::eval_add_S_masked</text>
</a>
</g>
</g>
<!-- Node8&#45;&gt;Node9 -->
<g id="edge8" class="edge">
<title>Node8&#45;&gt;Node9</title>
<path fill="none" stroke="#63b8ff" d="M204.22,-64.79C192.03,-64.6 179.45,-64.42 167.23,-64.23"/>
<polygon fill="#63b8ff" stroke="#63b8ff" points="204.3,-68.29 214.35,-64.94 204.41,-61.29 204.3,-68.29"/>
</g>
<!-- Node11 -->
<g id="node11" class="node">
<title>Node11</title>
<g id="a_node11"><a xlink:href="classalpaqa_1_1CasADiControlProblem.html#a20f8fadf0aeb2daf8695db68f3d50865" target="_top" xlink:title=" ">
<polygon fill="white" stroke="#666666" points="167,-30 0,-30 0,0 167,0 167,-30"/>
<text text-anchor="start" x="8" y="-18" font-family="Helvetica,sans-Serif" font-size="10.00">alpaqa::CasADiControlProblem</text>
<text text-anchor="middle" x="83.5" y="-7" font-family="Helvetica,sans-Serif" font-size="10.00">::eval_add_R_prod_masked</text>
</a>
</g>
</g>
<!-- Node10&#45;&gt;Node11 -->
<g id="edge10" class="edge">
<title>Node10&#45;&gt;Node11</title>
<path fill="none" stroke="#63b8ff" d="M196.98,-18.36C187.09,-18.06 177.04,-17.76 167.22,-17.47"/>
<polygon fill="#63b8ff" stroke="#63b8ff" points="197.11,-21.86 207.21,-18.66 197.32,-14.87 197.11,-21.86"/>
</g>
</g>
</svg>
