<?xml version="1.0" encoding="UTF-8" standalone="no"?>
<!DOCTYPE svg PUBLIC "-//W3C//DTD SVG 1.1//EN"
 "http://www.w3.org/Graphics/SVG/1.1/DTD/svg11.dtd">
<!-- Generated by graphviz version 2.43.0 (0)
 -->
<!-- Title: split_key Pages: 1 -->
<svg width="510pt" height="212pt"
 viewBox="0.00 0.00 510.00 212.00" xmlns="http://www.w3.org/2000/svg" xmlns:xlink="http://www.w3.org/1999/xlink">
<g id="graph0" class="graph" transform="scale(1 1) rotate(0) translate(4 208)">
<title>split_key</title>
<!-- Node1 -->
<g id="node1" class="node">
<title>Node1</title>
<g id="a_node1"><a xlink:title="Split the string full on the first occurrence of tok.">
<polygon fill="#999999" stroke="#666666" points="502,-166 442,-166 442,-147 502,-147 502,-166"/>
<text text-anchor="middle" x="472" y="-154" font-family="Helvetica,sans-Serif" font-size="10.00">split_key</text>
</a>
</g>
</g>
<!-- Node2 -->
<g id="node2" class="node">
<title>Node2</title>
<g id="a_node2"><a xlink:href="alpaqa-driver_8cpp.html#a3430011226186bf05d5c2552270587b7" target="_top" xlink:title=" ">
<polygon fill="white" stroke="#666666" points="185,-204 78,-204 78,-185 185,-185 185,-204"/>
<text text-anchor="middle" x="131.5" y="-192" font-family="Helvetica,sans-Serif" font-size="10.00">get_solver_builder</text>
</a>
</g>
</g>
<!-- Node1&#45;&gt;Node2 -->
<g id="edge1" class="edge">
<title>Node1&#45;&gt;Node2</title>
<path fill="none" stroke="#63b8ff" d="M432.11,-168.61C423.58,-170.89 414.54,-173.02 406,-174.5 329.89,-187.69 240.39,-192.19 185.05,-193.72"/>
<polygon fill="#63b8ff" stroke="#63b8ff" points="433.14,-171.96 441.83,-165.9 431.26,-165.21 433.14,-171.96"/>
</g>
<!-- Node4 -->
<g id="node4" class="node">
<title>Node4</title>
<g id="a_node4"><a xlink:href="namespacealpaqa_1_1params.html#a6085a1535aaa464dae1b548875f87c6f" target="_top" xlink:title="Use s to index into the struct type T and overwrite the attribute given by s.key.">
<polygon fill="white" stroke="#666666" points="403,-166 335,-166 335,-147 403,-147 403,-166"/>
<text text-anchor="middle" x="369" y="-154" font-family="Helvetica,sans-Serif" font-size="10.00">set_param</text>
</a>
</g>
</g>
<!-- Node1&#45;&gt;Node4 -->
<g id="edge3" class="edge">
<title>Node1&#45;&gt;Node4</title>
<path fill="none" stroke="#63b8ff" d="M431.77,-156.5C422.28,-156.5 412.23,-156.5 403.05,-156.5"/>
<polygon fill="#63b8ff" stroke="#63b8ff" points="431.79,-160 441.79,-156.5 431.79,-153 431.79,-160"/>
</g>
<!-- Node5 -->
<g id="node5" class="node">
<title>Node5</title>
<g id="a_node5"><a xlink:href="namespacealpaqa_1_1params.html#abadc98653193fbd05b658d62b34f75e7" target="_top" xlink:title="Overwrites t based on the options that start with prefix.">
<polygon fill="white" stroke="#666666" points="406,-129 332,-129 332,-110 406,-110 406,-129"/>
<text text-anchor="middle" x="369" y="-117" font-family="Helvetica,sans-Serif" font-size="10.00">set_params</text>
</a>
</g>
</g>
<!-- Node1&#45;&gt;Node5 -->
<g id="edge4" class="edge">
<title>Node1&#45;&gt;Node5</title>
<path fill="none" stroke="#63b8ff" d="M435.47,-143.48C422.57,-138.76 408.23,-133.51 396.27,-129.12"/>
<polygon fill="#63b8ff" stroke="#63b8ff" points="434.4,-146.82 444.99,-146.97 436.8,-140.25 434.4,-146.82"/>
</g>
<!-- Node3 -->
<g id="node3" class="node">
<title>Node3</title>
<g id="a_node3"><a xlink:href="alpaqa-driver_8cpp.html#ac0f2228420376f4db7e1274f2b41667c" target="_top" xlink:title=" ">
<polygon fill="white" stroke="#666666" points="41,-167 0,-167 0,-148 41,-148 41,-167"/>
<text text-anchor="middle" x="20.5" y="-155" font-family="Helvetica,sans-Serif" font-size="10.00">main</text>
</a>
</g>
</g>
<!-- Node2&#45;&gt;Node3 -->
<g id="edge2" class="edge">
<title>Node2&#45;&gt;Node3</title>
<path fill="none" stroke="#63b8ff" d="M92.59,-181.63C75.28,-175.76 55.51,-169.05 41.22,-164.2"/>
<polygon fill="#63b8ff" stroke="#63b8ff" points="91.84,-185.07 102.43,-184.97 94.09,-178.44 91.84,-185.07"/>
</g>
<!-- Node6 -->
<g id="node6" class="node">
<title>Node6</title>
<g id="a_node6"><a xlink:href="options_8hpp.html#a15ce06eb1492a582a4abe2ddd5e7f8a1" target="_top" xlink:title=" ">
<polygon fill="white" stroke="#666666" points="296,-129 222,-129 222,-110 296,-110 296,-129"/>
<text text-anchor="middle" x="259" y="-117" font-family="Helvetica,sans-Serif" font-size="10.00">set_params</text>
</a>
</g>
</g>
<!-- Node5&#45;&gt;Node6 -->
<g id="edge5" class="edge">
<title>Node5&#45;&gt;Node6</title>
<path fill="none" stroke="#63b8ff" d="M321.61,-119.5C313.16,-119.5 304.46,-119.5 296.35,-119.5"/>
<polygon fill="#63b8ff" stroke="#63b8ff" points="321.74,-123 331.74,-119.5 321.74,-116 321.74,-123"/>
</g>
<!-- Node6&#45;&gt;Node2 -->
<g id="edge10" class="edge">
<title>Node6&#45;&gt;Node2</title>
<path fill="none" stroke="#63b8ff" d="M239.74,-136.39C225.84,-148.55 205.78,-164.66 186,-175.5 179.34,-179.15 171.85,-182.32 164.63,-184.97"/>
<polygon fill="#63b8ff" stroke="#63b8ff" points="242.43,-138.68 247.55,-129.4 237.76,-133.46 242.43,-138.68"/>
</g>
<!-- Node7 -->
<g id="node7" class="node">
<title>Node7</title>
<g id="a_node7"><a xlink:href="alpaqa-driver_8cpp.html#abdc7f0491e5c38d6f9569a0aad3d2925" target="_top" xlink:title=" ">
<polygon fill="white" stroke="#666666" points="182,-167 81,-167 81,-148 182,-148 182,-167"/>
<text text-anchor="middle" x="131.5" y="-155" font-family="Helvetica,sans-Serif" font-size="10.00">get_output_paths</text>
</a>
</g>
</g>
<!-- Node6&#45;&gt;Node7 -->
<g id="edge6" class="edge">
<title>Node6&#45;&gt;Node7</title>
<path fill="none" stroke="#63b8ff" d="M216.6,-132.04C199.53,-137.2 180.06,-143.1 164.16,-147.91"/>
<polygon fill="#63b8ff" stroke="#63b8ff" points="217.77,-135.34 226.33,-129.09 215.75,-128.64 217.77,-135.34"/>
</g>
<!-- Node8 -->
<g id="node8" class="node">
<title>Node8</title>
<g id="a_node8"><a xlink:href="alpaqa-driver_8cpp.html#a62667720f096806ed08c60e4207f8972" target="_top" xlink:title=" ">
<polygon fill="white" stroke="#666666" points="186,-130 77,-130 77,-111 186,-111 186,-130"/>
<text text-anchor="middle" x="131.5" y="-118" font-family="Helvetica,sans-Serif" font-size="10.00">get_output_stream</text>
</a>
</g>
</g>
<!-- Node6&#45;&gt;Node8 -->
<g id="edge8" class="edge">
<title>Node6&#45;&gt;Node8</title>
<path fill="none" stroke="#63b8ff" d="M211.59,-119.87C203.41,-119.93 194.83,-120 186.46,-120.07"/>
<polygon fill="#63b8ff" stroke="#63b8ff" points="211.73,-123.37 221.7,-119.79 211.67,-116.37 211.73,-123.37"/>
</g>
<!-- Node9 -->
<g id="node9" class="node">
<title>Node9</title>
<g id="a_node9"><a xlink:href="gradient-checker_8cpp.html#ac0f2228420376f4db7e1274f2b41667c" target="_top" xlink:title=" ">
<polygon fill="white" stroke="#666666" points="152,-93 111,-93 111,-74 152,-74 152,-93"/>
<text text-anchor="middle" x="131.5" y="-81" font-family="Helvetica,sans-Serif" font-size="10.00">main</text>
</a>
</g>
</g>
<!-- Node6&#45;&gt;Node9 -->
<g id="edge11" class="edge">
<title>Node6&#45;&gt;Node9</title>
<path fill="none" stroke="#63b8ff" d="M214.89,-107.13C193.61,-101.03 168.98,-93.96 152.23,-89.16"/>
<polygon fill="#63b8ff" stroke="#63b8ff" points="214.12,-110.55 224.7,-109.95 216.05,-103.83 214.12,-110.55"/>
</g>
<!-- Node10 -->
<g id="node10" class="node">
<title>Node10</title>
<g id="a_node10"><a xlink:href="alm-driver_8hpp.html#ae4ef291d9ec9d55ee804b5723ea2e641" target="_top" xlink:title=" ">
<polygon fill="white" stroke="#666666" points="183,-56 80,-56 80,-37 183,-37 183,-56"/>
<text text-anchor="middle" x="131.5" y="-44" font-family="Helvetica,sans-Serif" font-size="10.00">make_alm_solver</text>
</a>
</g>
</g>
<!-- Node6&#45;&gt;Node10 -->
<g id="edge12" class="edge">
<title>Node6&#45;&gt;Node10</title>
<path fill="none" stroke="#63b8ff" d="M239.75,-102.84C225.84,-90.85 205.79,-75.01 186,-64.5 179.94,-61.28 173.2,-58.48 166.59,-56.1"/>
<polygon fill="#63b8ff" stroke="#63b8ff" points="237.73,-105.73 247.55,-109.72 242.36,-100.48 237.73,-105.73"/>
</g>
<!-- Node11 -->
<g id="node11" class="node">
<title>Node11</title>
<g id="a_node11"><a xlink:href="alm-driver_8hpp.html#a51b2a2cde56762bcb43a2f4da0913f98" target="_top" xlink:title=" ">
<polygon fill="white" stroke="#666666" points="186,-19 77,-19 77,0 186,0 186,-19"/>
<text text-anchor="middle" x="131.5" y="-7" font-family="Helvetica,sans-Serif" font-size="10.00">make_inner_solver</text>
</a>
</g>
</g>
<!-- Node6&#45;&gt;Node11 -->
<g id="edge13" class="edge">
<title>Node6&#45;&gt;Node11</title>
<path fill="none" stroke="#63b8ff" d="M248.07,-101.14C235.99,-80.44 213.73,-47.12 186,-27.5 181.2,-24.1 175.71,-21.31 170.12,-19.03"/>
<polygon fill="#63b8ff" stroke="#63b8ff" points="245.07,-102.93 253.03,-109.92 251.16,-99.49 245.07,-102.93"/>
</g>
<!-- Node7&#45;&gt;Node3 -->
<g id="edge7" class="edge">
<title>Node7&#45;&gt;Node3</title>
<path fill="none" stroke="#63b8ff" d="M70.56,-157.5C59.94,-157.5 49.59,-157.5 41.16,-157.5"/>
<polygon fill="#63b8ff" stroke="#63b8ff" points="70.78,-161 80.78,-157.5 70.78,-154 70.78,-161"/>
</g>
<!-- Node8&#45;&gt;Node3 -->
<g id="edge9" class="edge">
<title>Node8&#45;&gt;Node3</title>
<path fill="none" stroke="#63b8ff" d="M92.39,-133.3C87.22,-135.04 81.98,-136.81 77,-138.5 65.04,-142.56 51.65,-147.14 41.01,-150.79"/>
<polygon fill="#63b8ff" stroke="#63b8ff" points="93.81,-136.51 102.17,-130 91.58,-129.88 93.81,-136.51"/>
</g>
</g>
</svg>
