<?xml version="1.0" encoding="UTF-8" standalone="no"?>
<!DOCTYPE svg PUBLIC "-//W3C//DTD SVG 1.1//EN"
 "http://www.w3.org/Graphics/SVG/1.1/DTD/svg11.dtd">
<!-- Generated by graphviz version 2.43.0 (0)
 -->
<!-- Title: build_qpalm_problem Pages: 1 -->
<!--zoomable 470 -->
<svg id="main" version="1.1" xmlns="http://www.w3.org/2000/svg" xmlns:xlink="http://www.w3.org/1999/xlink" xml:space="preserve" onload="init(evt)">
<style type="text/css"><![CDATA[
.edge:hover path { stroke: red; }
.edge:hover polygon { stroke: red; fill: red; }
]]></style>
<script type="text/javascript"><![CDATA[
var edges = document.getElementsByTagName('g');
if (edges && edges.length) {
  for (var i=0;i<edges.length;i++) {
    if (edges[i].id.substr(0,4)=='edge') {
      edges[i].setAttribute('class','edge');
    }
  }
}
]]></script>
        <defs>
                <circle id="rim" cx="0" cy="0" r="7"/>
                <circle id="rim2" cx="0" cy="0" r="3.5"/>
                <g id="zoomPlus">
                        <use xlink:href="#rim" fill="#404040">
                                <set attributeName="fill" to="#808080" begin="zoomplus.mouseover" end="zoomplus.mouseout"/>
                        </use>
                        <path d="M-4,0h8M0,-4v8" fill="none" stroke="white" stroke-width="1.5" pointer-events="none"/>
                </g>
                <g id="zoomMin">
                        <use xlink:href="#rim" fill="#404040">
                                <set attributeName="fill" to="#808080" begin="zoomminus.mouseover" end="zoomminus.mouseout"/>
                        </use>
                        <path d="M-4,0h8" fill="none" stroke="white" stroke-width="1.5" pointer-events="none"/>
                </g>
                <g id="dirArrow">
                        <path fill="none" stroke="white" stroke-width="1.5" d="M0,-3.0v7 M-2.5,-0.5L0,-3.0L2.5,-0.5"/>
                </g>
               <g id="resetDef">
                       <use xlink:href="#rim2" fill="#404040">
                               <set attributeName="fill" to="#808080" begin="reset.mouseover" end="reset.mouseout"/>
                       </use>
               </g>
        </defs>

<script type="text/javascript">
var viewWidth = 319;
var viewHeight = 470;
var sectionId = 'dynsection-65';
</script>
<script xlink:href="svgpan.js"/>
<svg id="graph" class="graph">
<g id="viewport">
<title>build_qpalm_problem</title>
<!-- Node1 -->
<g id="node1" class="node">
<title>Node1</title>
<g id="a_node1"><a xlink:title=" ">
<polygon fill="#999999" stroke="#666666" points="122,-240.5 0,-240.5 0,-221.5 122,-221.5 122,-240.5"/>
<text text-anchor="middle" x="61" y="-228.5" font-family="Helvetica,sans-Serif" font-size="10.00">build_qpalm_problem</text>
</a>
</g>
</g>
<!-- Node2 -->
<g id="node2" class="node">
<title>Node2</title>
<g id="a_node2"><a xlink:href="classalpaqa_1_1TypeErasedProblem.html#aa68007440e5fa3b8ec89cc391566c91d" target="_top" xlink:title="[Optional] Evaluate both &#160;and its gradient, .">
<polygon fill="white" stroke="#666666" points="310.5,-462 158.5,-462 158.5,-432 310.5,-432 310.5,-462"/>
<text text-anchor="start" x="166.5" y="-450" font-family="Helvetica,sans-Serif" font-size="10.00">alpaqa::TypeErasedProblem</text>
<text text-anchor="middle" x="234.5" y="-439" font-family="Helvetica,sans-Serif" font-size="10.00">::eval_f_grad_f</text>
</a>
</g>
</g>
<!-- Node1&#45;&gt;Node2 -->
<g id="edge1" class="edge">
<title>Node1&#45;&gt;Node2</title>
<path fill="none" stroke="#63b8ff" d="M64.01,-240.62C71.03,-271.82 97.39,-371.17 158,-423 159.37,-424.17 160.79,-425.28 162.26,-426.34"/>
<polygon fill="#63b8ff" stroke="#63b8ff" points="160.79,-429.54 171.14,-431.82 164.47,-423.59 160.79,-429.54"/>
</g>
<!-- Node3 -->
<g id="node3" class="node">
<title>Node3</title>
<g id="a_node3"><a xlink:href="classalpaqa_1_1TypeErasedProblem.html#acdf5c7c7f249c05d53643e1715070f45" target="_top" xlink:title="[Required] Function that evaluates the constraints,">
<polygon fill="white" stroke="#666666" points="310.5,-414 158.5,-414 158.5,-384 310.5,-384 310.5,-414"/>
<text text-anchor="start" x="166.5" y="-402" font-family="Helvetica,sans-Serif" font-size="10.00">alpaqa::TypeErasedProblem</text>
<text text-anchor="middle" x="234.5" y="-391" font-family="Helvetica,sans-Serif" font-size="10.00">::eval_g</text>
</a>
</g>
</g>
<!-- Node1&#45;&gt;Node3 -->
<g id="edge2" class="edge">
<title>Node1&#45;&gt;Node3</title>
<path fill="none" stroke="#63b8ff" d="M65.74,-240.7C76.21,-266.53 108.31,-337.59 158,-375 159.83,-376.38 161.74,-377.68 163.72,-378.9"/>
<polygon fill="#63b8ff" stroke="#63b8ff" points="162.27,-382.1 172.72,-383.83 165.63,-375.96 162.27,-382.1"/>
</g>
<!-- Node4 -->
<g id="node4" class="node">
<title>Node4</title>
<g id="a_node4"><a xlink:href="classalpaqa_1_1TypeErasedProblem.html#a8432c33fb118d707216d6098734c4160" target="_top" xlink:title="[Optional] Function that evaluates the Hessian of the Lagrangian as a sparse matrix,">
<polygon fill="white" stroke="#666666" points="310.5,-366 158.5,-366 158.5,-336 310.5,-336 310.5,-366"/>
<text text-anchor="start" x="166.5" y="-354" font-family="Helvetica,sans-Serif" font-size="10.00">alpaqa::TypeErasedProblem</text>
<text text-anchor="middle" x="234.5" y="-343" font-family="Helvetica,sans-Serif" font-size="10.00">::eval_hess_L</text>
</a>
</g>
</g>
<!-- Node1&#45;&gt;Node4 -->
<g id="edge3" class="edge">
<title>Node1&#45;&gt;Node4</title>
<path fill="none" stroke="#63b8ff" d="M69.07,-240.69C83.59,-259.91 118.73,-303.11 158,-327 160.76,-328.68 163.65,-330.25 166.62,-331.73"/>
<polygon fill="#63b8ff" stroke="#63b8ff" points="165.19,-334.92 175.74,-335.85 168.07,-328.54 165.19,-334.92"/>
</g>
<!-- Node5 -->
<g id="node5" class="node">
<title>Node5</title>
<g id="a_node5"><a xlink:href="classalpaqa_1_1TypeErasedProblem.html#af081bd553ada01e6498e26c4210f267f" target="_top" xlink:title="[Optional] Function that evaluates the Jacobian of the constraints as a sparse matrix,">
<polygon fill="white" stroke="#666666" points="310.5,-318 158.5,-318 158.5,-288 310.5,-288 310.5,-318"/>
<text text-anchor="start" x="166.5" y="-306" font-family="Helvetica,sans-Serif" font-size="10.00">alpaqa::TypeErasedProblem</text>
<text text-anchor="middle" x="234.5" y="-295" font-family="Helvetica,sans-Serif" font-size="10.00">::eval_jac_g</text>
</a>
</g>
</g>
<!-- Node1&#45;&gt;Node5 -->
<g id="edge4" class="edge">
<title>Node1&#45;&gt;Node5</title>
<path fill="none" stroke="#63b8ff" d="M79.31,-240.69C98.25,-251.04 129.69,-267.5 158,-279 162.74,-280.92 167.69,-282.79 172.7,-284.59"/>
<polygon fill="#63b8ff" stroke="#63b8ff" points="171.75,-287.96 182.35,-287.93 174.05,-281.35 171.75,-287.96"/>
</g>
<!-- Node6 -->
<g id="node6" class="node">
<title>Node6</title>
<g id="a_node6"><a xlink:href="classalpaqa_1_1TypeErasedProblem.html#ae0ffecc22b09ce70fb1fe663c0255018" target="_top" xlink:title="[Optional] Get the rectangular constraint set of the decision variables, .">
<polygon fill="white" stroke="#666666" points="310.5,-270 158.5,-270 158.5,-240 310.5,-240 310.5,-270"/>
<text text-anchor="start" x="166.5" y="-258" font-family="Helvetica,sans-Serif" font-size="10.00">alpaqa::TypeErasedProblem</text>
<text text-anchor="middle" x="234.5" y="-247" font-family="Helvetica,sans-Serif" font-size="10.00">::get_box_C</text>
</a>
</g>
</g>
<!-- Node1&#45;&gt;Node6 -->
<g id="edge5" class="edge">
<title>Node1&#45;&gt;Node6</title>
<path fill="none" stroke="#63b8ff" d="M122.46,-239.46C130.78,-240.63 139.45,-241.84 148.11,-243.05"/>
<polygon fill="#63b8ff" stroke="#63b8ff" points="147.87,-246.55 158.25,-244.47 148.84,-239.62 147.87,-246.55"/>
</g>
<!-- Node7 -->
<g id="node7" class="node">
<title>Node7</title>
<g id="a_node7"><a xlink:href="classalpaqa_1_1TypeErasedProblem.html#a193ee88bf3ca51034ff602e30882edd7" target="_top" xlink:title="[Optional] Get the rectangular constraint set of the general constraint function, .">
<polygon fill="white" stroke="#666666" points="310.5,-222 158.5,-222 158.5,-192 310.5,-192 310.5,-222"/>
<text text-anchor="start" x="166.5" y="-210" font-family="Helvetica,sans-Serif" font-size="10.00">alpaqa::TypeErasedProblem</text>
<text text-anchor="middle" x="234.5" y="-199" font-family="Helvetica,sans-Serif" font-size="10.00">::get_box_D</text>
</a>
</g>
</g>
<!-- Node1&#45;&gt;Node7 -->
<g id="edge6" class="edge">
<title>Node1&#45;&gt;Node7</title>
<path fill="none" stroke="#63b8ff" d="M122.46,-222.54C130.78,-221.37 139.45,-220.16 148.11,-218.95"/>
<polygon fill="#63b8ff" stroke="#63b8ff" points="148.84,-222.38 158.25,-217.53 147.87,-215.45 148.84,-222.38"/>
</g>
<!-- Node8 -->
<g id="node8" class="node">
<title>Node8</title>
<g id="a_node8"><a xlink:href="classalpaqa_1_1TypeErasedProblem.html#aff13d511093c03b6d1f00de23ce8fae5" target="_top" xlink:title="[Optional] Function that gets the number of nonzeros of the sparse Hessian of the Lagrangian.">
<polygon fill="white" stroke="#666666" points="311,-174 158,-174 158,-144 311,-144 311,-174"/>
<text text-anchor="start" x="166" y="-162" font-family="Helvetica,sans-Serif" font-size="10.00">alpaqa::TypeErasedProblem</text>
<text text-anchor="middle" x="234.5" y="-151" font-family="Helvetica,sans-Serif" font-size="10.00">::get_hess_L_num_nonzeros</text>
</a>
</g>
</g>
<!-- Node1&#45;&gt;Node8 -->
<g id="edge7" class="edge">
<title>Node1&#45;&gt;Node8</title>
<path fill="none" stroke="#63b8ff" d="M79.31,-221.31C98.25,-210.96 129.69,-194.5 158,-183 162.74,-181.08 167.69,-179.21 172.7,-177.41"/>
<polygon fill="#63b8ff" stroke="#63b8ff" points="174.05,-180.65 182.35,-174.07 171.75,-174.04 174.05,-180.65"/>
</g>
<!-- Node9 -->
<g id="node9" class="node">
<title>Node9</title>
<g id="a_node9"><a xlink:href="classalpaqa_1_1TypeErasedProblem.html#ad41b8495a9eea0e1c313d749c5a98b69" target="_top" xlink:title="[Optional] Function that gets the number of nonzeros of the sparse Jacobian of the constraints.">
<polygon fill="white" stroke="#666666" points="310.5,-126 158.5,-126 158.5,-96 310.5,-96 310.5,-126"/>
<text text-anchor="start" x="166.5" y="-114" font-family="Helvetica,sans-Serif" font-size="10.00">alpaqa::TypeErasedProblem</text>
<text text-anchor="middle" x="234.5" y="-103" font-family="Helvetica,sans-Serif" font-size="10.00">::get_jac_g_num_nonzeros</text>
</a>
</g>
</g>
<!-- Node1&#45;&gt;Node9 -->
<g id="edge8" class="edge">
<title>Node1&#45;&gt;Node9</title>
<path fill="none" stroke="#63b8ff" d="M69.07,-221.31C83.59,-202.09 118.73,-158.89 158,-135 160.76,-133.32 163.65,-131.75 166.62,-130.27"/>
<polygon fill="#63b8ff" stroke="#63b8ff" points="168.07,-133.46 175.74,-126.15 165.19,-127.08 168.07,-133.46"/>
</g>
<!-- Node10 -->
<g id="node10" class="node">
<title>Node10</title>
<g id="a_node10"><a xlink:href="classalpaqa_1_1TypeErasedProblem.html#a4cb358cffb880a83ec60933c6d44cef4" target="_top" xlink:title="[Required] Number of constraints.">
<polygon fill="white" stroke="#666666" points="310.5,-78 158.5,-78 158.5,-48 310.5,-48 310.5,-78"/>
<text text-anchor="start" x="166.5" y="-66" font-family="Helvetica,sans-Serif" font-size="10.00">alpaqa::TypeErasedProblem</text>
<text text-anchor="middle" x="234.5" y="-55" font-family="Helvetica,sans-Serif" font-size="10.00">::get_m</text>
</a>
</g>
</g>
<!-- Node1&#45;&gt;Node10 -->
<g id="edge9" class="edge">
<title>Node1&#45;&gt;Node10</title>
<path fill="none" stroke="#63b8ff" d="M65.74,-221.3C76.21,-195.47 108.31,-124.41 158,-87 159.83,-85.62 161.74,-84.32 163.72,-83.1"/>
<polygon fill="#63b8ff" stroke="#63b8ff" points="165.63,-86.04 172.72,-78.17 162.27,-79.9 165.63,-86.04"/>
</g>
<!-- Node11 -->
<g id="node11" class="node">
<title>Node11</title>
<g id="a_node11"><a xlink:href="classalpaqa_1_1TypeErasedProblem.html#a3e0872a0f29741da3d5429fce2749a34" target="_top" xlink:title="[Required] Number of decision variables.">
<polygon fill="white" stroke="#666666" points="310.5,-30 158.5,-30 158.5,0 310.5,0 310.5,-30"/>
<text text-anchor="start" x="166.5" y="-18" font-family="Helvetica,sans-Serif" font-size="10.00">alpaqa::TypeErasedProblem</text>
<text text-anchor="middle" x="234.5" y="-7" font-family="Helvetica,sans-Serif" font-size="10.00">::get_n</text>
</a>
</g>
</g>
<!-- Node1&#45;&gt;Node11 -->
<g id="edge10" class="edge">
<title>Node1&#45;&gt;Node11</title>
<path fill="none" stroke="#63b8ff" d="M64.01,-221.38C71.03,-190.18 97.39,-90.83 158,-39 159.37,-37.83 160.79,-36.72 162.26,-35.66"/>
<polygon fill="#63b8ff" stroke="#63b8ff" points="164.47,-38.41 171.14,-30.18 160.79,-32.46 164.47,-38.41"/>
</g>
</g>
</svg>
        <g id="navigator" transform="translate(0 0)" fill="#404254">
                <rect fill="#f2f5e9" fill-opacity="0.5" stroke="#606060" stroke-width=".5" x="0" y="0" width="60" height="60"/>
                <use id="zoomplus" xlink:href="#zoomPlus" x="17" y="9" onmousedown="handleZoom(evt,'in')"/>
                <use id="zoomminus" xlink:href="#zoomMin" x="42" y="9" onmousedown="handleZoom(evt,'out')"/>
                <use id="reset" xlink:href="#resetDef" x="30" y="36" onmousedown="handleReset()"/>
                <g id="arrowUp" xlink:href="#dirArrow" transform="translate(30 24)" onmousedown="handlePan(0,-1)">
                  <use xlink:href="#rim" fill="#404040">
                        <set attributeName="fill" to="#808080" begin="arrowUp.mouseover" end="arrowUp.mouseout"/>
                  </use>
                  <path fill="none" stroke="white" stroke-width="1.5" d="M0,-3.0v7 M-2.5,-0.5L0,-3.0L2.5,-0.5"/>
                </g>
                <g id="arrowRight" xlink:href="#dirArrow" transform="rotate(90) translate(36 -43)" onmousedown="handlePan(1,0)">
                  <use xlink:href="#rim" fill="#404040">
                        <set attributeName="fill" to="#808080" begin="arrowRight.mouseover" end="arrowRight.mouseout"/>
                  </use>
                  <path fill="none" stroke="white" stroke-width="1.5" d="M0,-3.0v7 M-2.5,-0.5L0,-3.0L2.5,-0.5"/>
                </g>
                <g id="arrowDown" xlink:href="#dirArrow" transform="rotate(180) translate(-30 -48)" onmousedown="handlePan(0,1)">
                  <use xlink:href="#rim" fill="#404040">
                        <set attributeName="fill" to="#808080" begin="arrowDown.mouseover" end="arrowDown.mouseout"/>
                  </use>
                  <path fill="none" stroke="white" stroke-width="1.5" d="M0,-3.0v7 M-2.5,-0.5L0,-3.0L2.5,-0.5"/>
                </g>
                <g id="arrowLeft" xlink:href="#dirArrow" transform="rotate(270) translate(-36 17)" onmousedown="handlePan(-1,0)">
                  <use xlink:href="#rim" fill="#404040">
                        <set attributeName="fill" to="#808080" begin="arrowLeft.mouseover" end="arrowLeft.mouseout"/>
                  </use>
                  <path fill="none" stroke="white" stroke-width="1.5" d="M0,-3.0v7 M-2.5,-0.5L0,-3.0L2.5,-0.5"/>
                </g>
        </g>
        <svg viewBox="0 0 15 15" width="100%" height="30px" preserveAspectRatio="xMaxYMin meet">
         <g id="arrow_out" transform="scale(0.3 0.3)">
          <a xlink:href="namespacealpaqa_a4ca1e55c8c5fb7305b9e55d746d7929e_cgraph_org.svg" target="_base">
           <rect id="button" ry="5" rx="5" y="6" x="6" height="38" width="38"
                fill="#f2f5e9" fill-opacity="0.5" stroke="#606060" stroke-width="1.0"/>
           <path id="arrow"
             d="M 11.500037,31.436501 C 11.940474,20.09759 22.043105,11.32322 32.158766,21.979434 L 37.068811,17.246167 C 37.068811,17.246167 37.088388,32 37.088388,32 L 22.160133,31.978069 C 22.160133,31.978069 26.997745,27.140456 26.997745,27.140456 C 18.528582,18.264221 13.291696,25.230495 11.500037,31.436501 z"
             style="fill:#404040;"/>
          </a>
         </g>
        </svg>
</svg>
