<?xml version="1.0" encoding="UTF-8" standalone="no"?>
<!DOCTYPE svg PUBLIC "-//W3C//DTD SVG 1.1//EN"
 "http://www.w3.org/Graphics/SVG/1.1/DTD/svg11.dtd">
<!-- Generated by graphviz version 2.43.0 (0)
 -->
<!-- Title: src/alpaqa/include/alpaqa/inner/pantr.hpp Pages: 1 -->
<svg width="2601pt" height="412pt"
 viewBox="0.00 0.00 2601.00 412.00" xmlns="http://www.w3.org/2000/svg" xmlns:xlink="http://www.w3.org/1999/xlink">
<g id="graph0" class="graph" transform="scale(1 1) rotate(0) translate(4 408)">
<title>src/alpaqa/include/alpaqa/inner/pantr.hpp</title>
<!-- Node1 -->
<g id="node1" class="node">
<title>Node1</title>
<g id="a_node1"><a xlink:title=" ">
<polygon fill="#999999" stroke="#666666" points="2095.5,-404 1966.5,-404 1966.5,-374 2095.5,-374 2095.5,-404"/>
<text text-anchor="start" x="1974.5" y="-392" font-family="Helvetica,sans-Serif" font-size="10.00">src/alpaqa/include</text>
<text text-anchor="middle" x="2031" y="-381" font-family="Helvetica,sans-Serif" font-size="10.00">/alpaqa/inner/pantr.hpp</text>
</a>
</g>
</g>
<!-- Node2 -->
<g id="node2" class="node">
<title>Node2</title>
<g id="a_node2"><a xlink:href="export_8hpp.html" target="_top" xlink:title=" ">
<polygon fill="white" stroke="#666666" points="1396.5,-74 1291.5,-74 1291.5,-55 1396.5,-55 1396.5,-74"/>
<text text-anchor="middle" x="1344" y="-62" font-family="Helvetica,sans-Serif" font-size="10.00">alpaqa/export.hpp</text>
</a>
</g>
</g>
<!-- Node1&#45;&gt;Node2 -->
<g id="edge1" class="edge">
<title>Node1&#45;&gt;Node2</title>
<path fill="none" stroke="#63b8ff" d="M1966.4,-388.6C1802.24,-388.41 1382,-376.36 1382,-258 1382,-258 1382,-258 1382,-190 1382,-150.63 1364.4,-107.18 1353.16,-83.45"/>
<polygon fill="#63b8ff" stroke="#63b8ff" points="1356.21,-81.71 1348.66,-74.28 1349.92,-84.8 1356.21,-81.71"/>
</g>
<!-- Node4 -->
<g id="node4" class="node">
<title>Node4</title>
<g id="a_node4"><a xlink:href="inner-solve-options_8hpp.html" target="_top" xlink:title=" ">
<polygon fill="white" stroke="#666666" points="2166.5,-338 2059.5,-338 2059.5,-308 2166.5,-308 2166.5,-338"/>
<text text-anchor="start" x="2067.5" y="-326" font-family="Helvetica,sans-Serif" font-size="10.00">alpaqa/inner/inner</text>
<text text-anchor="middle" x="2113" y="-315" font-family="Helvetica,sans-Serif" font-size="10.00">&#45;solve&#45;options.hpp</text>
</a>
</g>
</g>
<!-- Node1&#45;&gt;Node4 -->
<g id="edge3" class="edge">
<title>Node1&#45;&gt;Node4</title>
<path fill="none" stroke="#63b8ff" d="M2049.2,-373.8C2060.24,-365.18 2074.51,-354.04 2086.76,-344.48"/>
<polygon fill="#63b8ff" stroke="#63b8ff" points="2089.12,-347.08 2094.85,-338.16 2084.82,-341.56 2089.12,-347.08"/>
</g>
<!-- Node8 -->
<g id="node8" class="node">
<title>Node8</title>
<g id="a_node8"><a xlink:title=" ">
<polygon fill="#e0e0e0" stroke="#999999" points="2353,-134.5 2309,-134.5 2309,-115.5 2353,-115.5 2353,-134.5"/>
<text text-anchor="middle" x="2331" y="-122.5" font-family="Helvetica,sans-Serif" font-size="10.00">limits</text>
</a>
</g>
</g>
<!-- Node1&#45;&gt;Node8 -->
<g id="edge76" class="edge">
<title>Node1&#45;&gt;Node8</title>
<path fill="none" stroke="#63b8ff" d="M2095.52,-385.35C2169.3,-380.87 2283.58,-369 2312,-338 2361.76,-283.72 2345.57,-185.5 2335.95,-144.62"/>
<polygon fill="#63b8ff" stroke="#63b8ff" points="2339.29,-143.56 2333.47,-134.7 2332.5,-145.25 2339.29,-143.56"/>
</g>
<!-- Node9 -->
<g id="node9" class="node">
<title>Node9</title>
<g id="a_node9"><a xlink:title=" ">
<polygon fill="#e0e0e0" stroke="#999999" points="1892.5,-74 1823.5,-74 1823.5,-55 1892.5,-55 1892.5,-74"/>
<text text-anchor="middle" x="1858" y="-62" font-family="Helvetica,sans-Serif" font-size="10.00">type_traits</text>
</a>
</g>
</g>
<!-- Node1&#45;&gt;Node9 -->
<g id="edge78" class="edge">
<title>Node1&#45;&gt;Node9</title>
<path fill="none" stroke="#63b8ff" d="M2095.5,-383.85C2172.96,-377.76 2297.19,-364.2 2335,-338 2368.71,-314.64 2381,-299.01 2381,-258 2381,-258 2381,-258 2381,-190 2381,-153.46 2389.65,-133.9 2362,-110 2327.61,-80.27 2019.3,-69.52 1902.54,-66.5"/>
<polygon fill="#63b8ff" stroke="#63b8ff" points="1902.59,-63 1892.51,-66.25 1902.41,-70 1902.59,-63"/>
</g>
<!-- Node11 -->
<g id="node11" class="node">
<title>Node11</title>
<g id="a_node11"><a xlink:title=" ">
<polygon fill="#e0e0e0" stroke="#999999" points="2132,-266.5 2082,-266.5 2082,-247.5 2132,-247.5 2132,-266.5"/>
<text text-anchor="middle" x="2107" y="-254.5" font-family="Helvetica,sans-Serif" font-size="10.00">chrono</text>
</a>
</g>
</g>
<!-- Node1&#45;&gt;Node11 -->
<g id="edge74" class="edge">
<title>Node1&#45;&gt;Node11</title>
<path fill="none" stroke="#63b8ff" d="M2032.02,-373.74C2033.78,-356.94 2038.49,-328.71 2051,-308 2059.57,-293.82 2073.44,-281.39 2085.23,-272.47"/>
<polygon fill="#63b8ff" stroke="#63b8ff" points="2087.28,-275.31 2093.35,-266.62 2083.19,-269.63 2087.28,-275.31"/>
</g>
<!-- Node13 -->
<g id="node13" class="node">
<title>Node13</title>
<g id="a_node13"><a xlink:href="lipschitz_8hpp.html" target="_top" xlink:title=" ">
<polygon fill="white" stroke="#666666" points="2303,-338 2185,-338 2185,-308 2303,-308 2303,-338"/>
<text text-anchor="start" x="2193" y="-326" font-family="Helvetica,sans-Serif" font-size="10.00">alpaqa/inner/internal</text>
<text text-anchor="middle" x="2244" y="-315" font-family="Helvetica,sans-Serif" font-size="10.00">/lipschitz.hpp</text>
</a>
</g>
</g>
<!-- Node1&#45;&gt;Node13 -->
<g id="edge12" class="edge">
<title>Node1&#45;&gt;Node13</title>
<path fill="none" stroke="#63b8ff" d="M2077.74,-373.95C2110.07,-364.24 2153.25,-351.27 2187.5,-340.98"/>
<polygon fill="#63b8ff" stroke="#63b8ff" points="2188.8,-344.24 2197.37,-338.01 2186.78,-337.54 2188.8,-344.24"/>
</g>
<!-- Node14 -->
<g id="node14" class="node">
<title>Node14</title>
<g id="a_node14"><a xlink:href="panoc-helpers_8hpp.html" target="_top" xlink:title=" ">
<polygon fill="white" stroke="#666666" points="2003,-338 1885,-338 1885,-308 2003,-308 2003,-338"/>
<text text-anchor="start" x="1893" y="-326" font-family="Helvetica,sans-Serif" font-size="10.00">alpaqa/inner/internal</text>
<text text-anchor="middle" x="1944" y="-315" font-family="Helvetica,sans-Serif" font-size="10.00">/panoc&#45;helpers.hpp</text>
</a>
</g>
</g>
<!-- Node1&#45;&gt;Node14 -->
<g id="edge14" class="edge">
<title>Node1&#45;&gt;Node14</title>
<path fill="none" stroke="#63b8ff" d="M2011.69,-373.8C1999.87,-365.1 1984.54,-353.82 1971.46,-344.2"/>
<polygon fill="#63b8ff" stroke="#63b8ff" points="1973.38,-341.27 1963.25,-338.16 1969.24,-346.91 1973.38,-341.27"/>
</g>
<!-- Node15 -->
<g id="node15" class="node">
<title>Node15</title>
<g id="a_node15"><a xlink:href="panoc-stop-crit_8hpp.html" target="_top" xlink:title=" ">
<polygon fill="white" stroke="#666666" points="254,-206 136,-206 136,-176 254,-176 254,-206"/>
<text text-anchor="start" x="144" y="-194" font-family="Helvetica,sans-Serif" font-size="10.00">alpaqa/inner/internal</text>
<text text-anchor="middle" x="195" y="-183" font-family="Helvetica,sans-Serif" font-size="10.00">/panoc&#45;stop&#45;crit.hpp</text>
</a>
</g>
</g>
<!-- Node1&#45;&gt;Node15 -->
<g id="edge16" class="edge">
<title>Node1&#45;&gt;Node15</title>
<path fill="none" stroke="#63b8ff" d="M1966.47,-387.23C1698.31,-383.84 679.45,-369.03 539,-338 419.03,-311.5 288.32,-244.31 228.4,-211.14"/>
<polygon fill="#63b8ff" stroke="#63b8ff" points="229.84,-207.93 219.4,-206.12 226.43,-214.05 229.84,-207.93"/>
</g>
<!-- Node18 -->
<g id="node18" class="node">
<title>Node18</title>
<g id="a_node18"><a xlink:href="solverstatus_8hpp.html" target="_top" xlink:title=" ">
<polygon fill="white" stroke="#666666" points="118,-206 0,-206 0,-176 118,-176 118,-206"/>
<text text-anchor="start" x="8" y="-194" font-family="Helvetica,sans-Serif" font-size="10.00">alpaqa/inner/internal</text>
<text text-anchor="middle" x="59" y="-183" font-family="Helvetica,sans-Serif" font-size="10.00">/solverstatus.hpp</text>
</a>
</g>
</g>
<!-- Node1&#45;&gt;Node18 -->
<g id="edge19" class="edge">
<title>Node1&#45;&gt;Node18</title>
<path fill="none" stroke="#63b8ff" d="M1966.38,-387.26C1686.77,-383.86 588.37,-368.68 437,-338 305.9,-311.43 161.01,-243.78 95.14,-210.74"/>
<polygon fill="#63b8ff" stroke="#63b8ff" points="96.51,-207.51 86.01,-206.12 93.36,-213.76 96.51,-207.51"/>
</g>
<!-- Node19 -->
<g id="node19" class="node">
<title>Node19</title>
<g id="a_node19"><a xlink:href="type-erased-problem_8hpp.html" target="_top" xlink:title=" ">
<polygon fill="white" stroke="#666666" points="1679.5,-338 1560.5,-338 1560.5,-308 1679.5,-308 1679.5,-338"/>
<text text-anchor="start" x="1568.5" y="-326" font-family="Helvetica,sans-Serif" font-size="10.00">alpaqa/problem/type</text>
<text text-anchor="middle" x="1620" y="-315" font-family="Helvetica,sans-Serif" font-size="10.00">&#45;erased&#45;problem.hpp</text>
</a>
</g>
</g>
<!-- Node1&#45;&gt;Node19 -->
<g id="edge23" class="edge">
<title>Node1&#45;&gt;Node19</title>
<path fill="none" stroke="#63b8ff" d="M1966.33,-377.93C1891.04,-366.21 1767.16,-346.92 1689.76,-334.86"/>
<polygon fill="#63b8ff" stroke="#63b8ff" points="1690.04,-331.36 1679.62,-333.28 1688.96,-338.28 1690.04,-331.36"/>
</g>
<!-- Node27 -->
<g id="node27" class="node">
<title>Node27</title>
<g id="a_node27"><a xlink:title=" ">
<polygon fill="#e0e0e0" stroke="#999999" points="512,-74 468,-74 468,-55 512,-55 512,-74"/>
<text text-anchor="middle" x="490" y="-62" font-family="Helvetica,sans-Serif" font-size="10.00">string</text>
</a>
</g>
</g>
<!-- Node1&#45;&gt;Node27 -->
<g id="edge77" class="edge">
<title>Node1&#45;&gt;Node27</title>
<path fill="none" stroke="#63b8ff" d="M1966.2,-386.24C1791.42,-380.45 1296.43,-357.18 895,-272 709.39,-232.61 598.46,-294.99 489,-140 477.6,-123.86 480.16,-100.46 484.08,-84.2"/>
<polygon fill="#63b8ff" stroke="#63b8ff" points="487.54,-84.85 486.86,-74.27 480.79,-82.96 487.54,-84.85"/>
</g>
<!-- Node42 -->
<g id="node42" class="node">
<title>Node42</title>
<g id="a_node42"><a xlink:href="atomic-stop-signal_8hpp.html" target="_top" xlink:title=" ">
<polygon fill="white" stroke="#666666" points="2514.5,-338 2409.5,-338 2409.5,-308 2514.5,-308 2514.5,-338"/>
<text text-anchor="start" x="2417.5" y="-326" font-family="Helvetica,sans-Serif" font-size="10.00">alpaqa/util/atomic</text>
<text text-anchor="middle" x="2462" y="-315" font-family="Helvetica,sans-Serif" font-size="10.00">&#45;stop&#45;signal.hpp</text>
</a>
</g>
</g>
<!-- Node1&#45;&gt;Node42 -->
<g id="edge72" class="edge">
<title>Node1&#45;&gt;Node42</title>
<path fill="none" stroke="#63b8ff" d="M2095.65,-380.5C2168.59,-371.71 2290.66,-356.04 2395,-338 2396.46,-337.75 2397.94,-337.49 2399.44,-337.22"/>
<polygon fill="#63b8ff" stroke="#63b8ff" points="2400.21,-340.63 2409.4,-335.35 2398.93,-333.75 2400.21,-340.63"/>
</g>
<!-- Node44 -->
<g id="node44" class="node">
<title>Node44</title>
<g id="a_node44"><a xlink:title=" ">
<polygon fill="#e0e0e0" stroke="#999999" points="2593,-332.5 2533,-332.5 2533,-313.5 2593,-313.5 2593,-332.5"/>
<text text-anchor="middle" x="2563" y="-320.5" font-family="Helvetica,sans-Serif" font-size="10.00">iostream</text>
</a>
</g>
</g>
<!-- Node1&#45;&gt;Node44 -->
<g id="edge75" class="edge">
<title>Node1&#45;&gt;Node44</title>
<path fill="none" stroke="#63b8ff" d="M2095.62,-386.45C2190.6,-383.04 2372.98,-372.23 2524,-338 2526.83,-337.36 2529.73,-336.57 2532.62,-335.7"/>
<polygon fill="#63b8ff" stroke="#63b8ff" points="2533.84,-338.99 2542.23,-332.51 2531.64,-332.34 2533.84,-338.99"/>
</g>
<!-- Node3 -->
<g id="node3" class="node">
<title>Node3</title>
<g id="a_node3"><a xlink:title=" ">
<polygon fill="#e0e0e0" stroke="#999999" points="376.5,-19 283.5,-19 283.5,0 376.5,0 376.5,-19"/>
<text text-anchor="middle" x="330" y="-7" font-family="Helvetica,sans-Serif" font-size="10.00">alpaqa/export.h</text>
</a>
</g>
</g>
<!-- Node2&#45;&gt;Node3 -->
<g id="edge2" class="edge">
<title>Node2&#45;&gt;Node3</title>
<path fill="none" stroke="#63b8ff" d="M1291.26,-60.74C1117.8,-51.68 565.77,-22.82 386.69,-13.46"/>
<polygon fill="#63b8ff" stroke="#63b8ff" points="386.85,-9.97 376.69,-12.94 386.49,-16.96 386.85,-9.97"/>
</g>
<!-- Node5 -->
<g id="node5" class="node">
<title>Node5</title>
<g id="a_node5"><a xlink:href="config_8hpp.html" target="_top" xlink:title=" ">
<polygon fill="white" stroke="#666666" points="2146.5,-200.5 2011.5,-200.5 2011.5,-181.5 2146.5,-181.5 2146.5,-200.5"/>
<text text-anchor="middle" x="2079" y="-188.5" font-family="Helvetica,sans-Serif" font-size="10.00">alpaqa/config/config.hpp</text>
</a>
</g>
</g>
<!-- Node4&#45;&gt;Node5 -->
<g id="edge4" class="edge">
<title>Node4&#45;&gt;Node5</title>
<path fill="none" stroke="#63b8ff" d="M2139.45,-307.86C2152.43,-299.36 2166.79,-287.22 2174,-272 2179.7,-259.95 2180.89,-253.41 2174,-242 2162.88,-223.57 2142.45,-211.6 2123.39,-204"/>
<polygon fill="#63b8ff" stroke="#63b8ff" points="2124.49,-200.67 2113.89,-200.51 2122.07,-207.25 2124.49,-200.67"/>
</g>
<!-- Node4&#45;&gt;Node11 -->
<g id="edge10" class="edge">
<title>Node4&#45;&gt;Node11</title>
<path fill="none" stroke="#63b8ff" d="M2111.67,-307.8C2110.82,-298.7 2109.7,-286.79 2108.77,-276.9"/>
<polygon fill="#63b8ff" stroke="#63b8ff" points="2112.25,-276.47 2107.83,-266.84 2105.28,-277.13 2112.25,-276.47"/>
</g>
<!-- Node12 -->
<g id="node12" class="node">
<title>Node12</title>
<g id="a_node12"><a xlink:title=" ">
<polygon fill="#e0e0e0" stroke="#999999" points="1559,-200.5 1503,-200.5 1503,-181.5 1559,-181.5 1559,-200.5"/>
<text text-anchor="middle" x="1531" y="-188.5" font-family="Helvetica,sans-Serif" font-size="10.00">optional</text>
</a>
</g>
</g>
<!-- Node4&#45;&gt;Node12 -->
<g id="edge11" class="edge">
<title>Node4&#45;&gt;Node12</title>
<path fill="none" stroke="#63b8ff" d="M2125.62,-307.81C2139.65,-290.3 2158.2,-260.57 2141,-242 2105.49,-203.66 1724.06,-210.58 1672,-206 1637.23,-202.94 1597.7,-198.97 1569.35,-196.04"/>
<polygon fill="#63b8ff" stroke="#63b8ff" points="1569.38,-192.53 1559.07,-194.97 1568.66,-199.49 1569.38,-192.53"/>
</g>
<!-- Node6 -->
<g id="node6" class="node">
<title>Node6</title>
<g id="a_node6"><a xlink:href="quadmath-print_8hpp.html" target="_top" xlink:title=" ">
<polygon fill="white" stroke="#666666" points="2252.5,-140 2131.5,-140 2131.5,-110 2252.5,-110 2252.5,-140"/>
<text text-anchor="start" x="2139.5" y="-128" font-family="Helvetica,sans-Serif" font-size="10.00">alpaqa/util/quadmath</text>
<text text-anchor="middle" x="2192" y="-117" font-family="Helvetica,sans-Serif" font-size="10.00">/quadmath&#45;print.hpp</text>
</a>
</g>
</g>
<!-- Node5&#45;&gt;Node6 -->
<g id="edge5" class="edge">
<title>Node5&#45;&gt;Node6</title>
<path fill="none" stroke="#63b8ff" d="M2094.24,-181.37C2110.58,-172.11 2137.05,-157.12 2158.32,-145.07"/>
<polygon fill="#63b8ff" stroke="#63b8ff" points="2160.1,-148.09 2167.08,-140.12 2156.65,-142 2160.1,-148.09"/>
</g>
<!-- Node7 -->
<g id="node7" class="node">
<title>Node7</title>
<g id="a_node7"><a xlink:href="quadmath_8hpp.html" target="_top" xlink:title=" ">
<polygon fill="white" stroke="#666666" points="2026.5,-140 1905.5,-140 1905.5,-110 2026.5,-110 2026.5,-140"/>
<text text-anchor="start" x="1913.5" y="-128" font-family="Helvetica,sans-Serif" font-size="10.00">alpaqa/util/quadmath</text>
<text text-anchor="middle" x="1966" y="-117" font-family="Helvetica,sans-Serif" font-size="10.00">/quadmath.hpp</text>
</a>
</g>
</g>
<!-- Node5&#45;&gt;Node7 -->
<g id="edge6" class="edge">
<title>Node5&#45;&gt;Node7</title>
<path fill="none" stroke="#63b8ff" d="M2063.76,-181.37C2047.42,-172.11 2020.95,-157.12 1999.68,-145.07"/>
<polygon fill="#63b8ff" stroke="#63b8ff" points="2001.35,-142 1990.92,-140.12 1997.9,-148.09 2001.35,-142"/>
</g>
<!-- Node5&#45;&gt;Node8 -->
<g id="edge7" class="edge">
<title>Node5&#45;&gt;Node8</title>
<path fill="none" stroke="#63b8ff" d="M2124.6,-181.43C2168.66,-172.68 2237.07,-157.87 2295,-140 2296.92,-139.41 2298.89,-138.76 2300.86,-138.08"/>
<polygon fill="#63b8ff" stroke="#63b8ff" points="2302.43,-141.23 2310.62,-134.51 2300.03,-134.66 2302.43,-141.23"/>
</g>
<!-- Node5&#45;&gt;Node9 -->
<g id="edge8" class="edge">
<title>Node5&#45;&gt;Node9</title>
<path fill="none" stroke="#63b8ff" d="M2146.71,-182.97C2213.38,-173.46 2300.12,-152.55 2262,-110 2238.35,-83.6 2003.04,-71.23 1902.82,-67.13"/>
<polygon fill="#63b8ff" stroke="#63b8ff" points="1902.83,-63.63 1892.7,-66.72 1902.55,-70.62 1902.83,-63.63"/>
</g>
<!-- Node10 -->
<g id="node10" class="node">
<title>Node10</title>
<g id="a_node10"><a xlink:title=" ">
<polygon fill="#e0e0e0" stroke="#999999" points="2113.5,-134.5 2044.5,-134.5 2044.5,-115.5 2113.5,-115.5 2113.5,-134.5"/>
<text text-anchor="middle" x="2079" y="-122.5" font-family="Helvetica,sans-Serif" font-size="10.00">Eigen/Core</text>
</a>
</g>
</g>
<!-- Node5&#45;&gt;Node10 -->
<g id="edge9" class="edge">
<title>Node5&#45;&gt;Node10</title>
<path fill="none" stroke="#63b8ff" d="M2079,-181.37C2079,-172.16 2079,-157.29 2079,-145.27"/>
<polygon fill="#63b8ff" stroke="#63b8ff" points="2082.5,-144.91 2079,-134.91 2075.5,-144.91 2082.5,-144.91"/>
</g>
<!-- Node13&#45;&gt;Node5 -->
<g id="edge13" class="edge">
<title>Node13&#45;&gt;Node5</title>
<path fill="none" stroke="#63b8ff" d="M2237.49,-307.81C2228.84,-290.3 2212.04,-260.57 2190,-242 2169.3,-224.56 2141.54,-212.06 2118.96,-203.92"/>
<polygon fill="#63b8ff" stroke="#63b8ff" points="2119.91,-200.54 2109.31,-200.59 2117.62,-207.16 2119.91,-200.54"/>
</g>
<!-- Node14&#45;&gt;Node5 -->
<g id="edge15" class="edge">
<title>Node14&#45;&gt;Node5</title>
<path fill="none" stroke="#63b8ff" d="M1976.38,-307.97C1993.69,-299.36 2014.56,-287.09 2030,-272 2048.42,-253.99 2062.79,-227.7 2071.07,-210.23"/>
<polygon fill="#63b8ff" stroke="#63b8ff" points="2074.48,-211.2 2075.43,-200.65 2068.11,-208.3 2074.48,-211.2"/>
</g>
<!-- Node16 -->
<g id="node16" class="node">
<title>Node16</title>
<g id="a_node16"><a xlink:title=" ">
<polygon fill="#e0e0e0" stroke="#999999" points="177,-134.5 129,-134.5 129,-115.5 177,-115.5 177,-134.5"/>
<text text-anchor="middle" x="153" y="-122.5" font-family="Helvetica,sans-Serif" font-size="10.00">iosfwd</text>
</a>
</g>
</g>
<!-- Node15&#45;&gt;Node16 -->
<g id="edge17" class="edge">
<title>Node15&#45;&gt;Node16</title>
<path fill="none" stroke="#63b8ff" d="M185.68,-175.8C179.39,-166.21 171.05,-153.5 164.37,-143.32"/>
<polygon fill="#63b8ff" stroke="#63b8ff" points="167.22,-141.28 158.8,-134.84 161.36,-145.13 167.22,-141.28"/>
</g>
<!-- Node17 -->
<g id="node17" class="node">
<title>Node17</title>
<g id="a_node17"><a xlink:title=" ">
<polygon fill="#e0e0e0" stroke="#999999" points="423.5,-134.5 358.5,-134.5 358.5,-115.5 423.5,-115.5 423.5,-134.5"/>
<text text-anchor="middle" x="391" y="-122.5" font-family="Helvetica,sans-Serif" font-size="10.00">stdexcept</text>
</a>
</g>
</g>
<!-- Node15&#45;&gt;Node17 -->
<g id="edge18" class="edge">
<title>Node15&#45;&gt;Node17</title>
<path fill="none" stroke="#63b8ff" d="M238.01,-175.95C273.14,-164.48 322.21,-148.46 355.22,-137.68"/>
<polygon fill="#63b8ff" stroke="#63b8ff" points="356.5,-140.95 364.92,-134.52 354.32,-134.29 356.5,-140.95"/>
</g>
<!-- Node18&#45;&gt;Node3 -->
<g id="edge20" class="edge">
<title>Node18&#45;&gt;Node3</title>
<path fill="none" stroke="#63b8ff" d="M66.85,-175.92C77.15,-158.52 96.66,-128.91 120,-110 173.04,-67.03 247.71,-37.39 292.24,-22.24"/>
<polygon fill="#63b8ff" stroke="#63b8ff" points="293.43,-25.53 301.8,-19.05 291.21,-18.89 293.43,-25.53"/>
</g>
<!-- Node18&#45;&gt;Node16 -->
<g id="edge21" class="edge">
<title>Node18&#45;&gt;Node16</title>
<path fill="none" stroke="#63b8ff" d="M79.86,-175.8C95.32,-165.27 116.32,-150.97 131.85,-140.4"/>
<polygon fill="#63b8ff" stroke="#63b8ff" points="133.99,-143.18 140.28,-134.66 130.05,-137.39 133.99,-143.18"/>
</g>
<!-- Node18&#45;&gt;Node17 -->
<g id="edge22" class="edge">
<title>Node18&#45;&gt;Node17</title>
<path fill="none" stroke="#63b8ff" d="M118.33,-177.73C121.26,-177.14 124.16,-176.56 127,-176 205.08,-160.57 296.36,-143.5 348.55,-133.83"/>
<polygon fill="#63b8ff" stroke="#63b8ff" points="349.26,-137.25 358.45,-131.99 347.98,-130.37 349.26,-137.25"/>
</g>
<!-- Node19&#45;&gt;Node2 -->
<g id="edge25" class="edge">
<title>Node19&#45;&gt;Node2</title>
<path fill="none" stroke="#63b8ff" d="M1619.47,-307.72C1617.55,-278.12 1608.69,-209.97 1568,-176 1522.31,-137.85 1492.11,-166.88 1439,-140 1422.67,-131.73 1384.39,-100.06 1361.72,-80.77"/>
<polygon fill="#63b8ff" stroke="#63b8ff" points="1363.75,-77.9 1353.88,-74.06 1359.2,-83.22 1363.75,-77.9"/>
</g>
<!-- Node19&#45;&gt;Node5 -->
<g id="edge24" class="edge">
<title>Node19&#45;&gt;Node5</title>
<path fill="none" stroke="#63b8ff" d="M1679.73,-318.66C1771.51,-312.77 1942.37,-298.56 1997,-272 2001.06,-270.03 2040.62,-230.6 2063.27,-207.85"/>
<polygon fill="#63b8ff" stroke="#63b8ff" points="2065.93,-210.14 2070.49,-200.58 2060.96,-205.21 2065.93,-210.14"/>
</g>
<!-- Node19&#45;&gt;Node9 -->
<g id="edge70" class="edge">
<title>Node19&#45;&gt;Node9</title>
<path fill="none" stroke="#63b8ff" d="M1679.85,-318.05C1716.59,-312.68 1762.32,-300.3 1793,-272 1847.93,-221.33 1856.75,-124.79 1857.94,-84.21"/>
<polygon fill="#63b8ff" stroke="#63b8ff" points="1861.44,-84.18 1858.11,-74.13 1854.44,-84.07 1861.44,-84.18"/>
</g>
<!-- Node19&#45;&gt;Node11 -->
<g id="edge68" class="edge">
<title>Node19&#45;&gt;Node11</title>
<path fill="none" stroke="#63b8ff" d="M1679.56,-315.84C1759.48,-307.33 1905.75,-290.85 2030,-272 2043.67,-269.92 2058.65,-267.29 2071.73,-264.86"/>
<polygon fill="#63b8ff" stroke="#63b8ff" points="2072.57,-268.26 2081.75,-262.98 2071.27,-261.39 2072.57,-268.26"/>
</g>
<!-- Node19&#45;&gt;Node17 -->
<g id="edge69" class="edge">
<title>Node19&#45;&gt;Node17</title>
<path fill="none" stroke="#63b8ff" d="M1560.41,-320.02C1358.93,-312.66 704.89,-283.24 511,-206 490.12,-197.68 439.49,-161.67 411.12,-140.91"/>
<polygon fill="#63b8ff" stroke="#63b8ff" points="412.89,-137.87 402.76,-134.76 408.74,-143.5 412.89,-137.87"/>
</g>
<!-- Node20 -->
<g id="node20" class="node">
<title>Node20</title>
<g id="a_node20"><a xlink:href="box_8hpp.html" target="_top" xlink:title=" ">
<polygon fill="white" stroke="#666666" points="1783.5,-266.5 1648.5,-266.5 1648.5,-247.5 1783.5,-247.5 1783.5,-266.5"/>
<text text-anchor="middle" x="1716" y="-254.5" font-family="Helvetica,sans-Serif" font-size="10.00">alpaqa/problem/box.hpp</text>
</a>
</g>
</g>
<!-- Node19&#45;&gt;Node20 -->
<g id="edge26" class="edge">
<title>Node19&#45;&gt;Node20</title>
<path fill="none" stroke="#63b8ff" d="M1641.31,-307.8C1657.1,-297.27 1678.54,-282.97 1694.4,-272.4"/>
<polygon fill="#63b8ff" stroke="#63b8ff" points="1696.63,-275.12 1703.01,-266.66 1692.75,-269.29 1696.63,-275.12"/>
</g>
<!-- Node25 -->
<g id="node25" class="node">
<title>Node25</title>
<g id="a_node25"><a xlink:href="alloc-check_8hpp.html" target="_top" xlink:title=" ">
<polygon fill="white" stroke="#666666" points="1988,-266.5 1840,-266.5 1840,-247.5 1988,-247.5 1988,-266.5"/>
<text text-anchor="middle" x="1914" y="-254.5" font-family="Helvetica,sans-Serif" font-size="10.00">alpaqa/util/alloc&#45;check.hpp</text>
</a>
</g>
</g>
<!-- Node19&#45;&gt;Node25 -->
<g id="edge34" class="edge">
<title>Node19&#45;&gt;Node25</title>
<path fill="none" stroke="#63b8ff" d="M1679.85,-308.97C1734.47,-297.08 1814.21,-279.72 1865.09,-268.65"/>
<polygon fill="#63b8ff" stroke="#63b8ff" points="1865.85,-272.06 1874.87,-266.52 1864.36,-265.22 1865.85,-272.06"/>
</g>
<!-- Node26 -->
<g id="node26" class="node">
<title>Node26</title>
<g id="a_node26"><a xlink:href="check-dim_8hpp.html" target="_top" xlink:title=" ">
<polygon fill="white" stroke="#666666" points="1591.5,-266.5 1448.5,-266.5 1448.5,-247.5 1591.5,-247.5 1591.5,-266.5"/>
<text text-anchor="middle" x="1520" y="-254.5" font-family="Helvetica,sans-Serif" font-size="10.00">alpaqa/util/check&#45;dim.hpp</text>
</a>
</g>
</g>
<!-- Node19&#45;&gt;Node26 -->
<g id="edge36" class="edge">
<title>Node19&#45;&gt;Node26</title>
<path fill="none" stroke="#63b8ff" d="M1597.81,-307.8C1581.2,-297.17 1558.6,-282.7 1542.03,-272.1"/>
<polygon fill="#63b8ff" stroke="#63b8ff" points="1543.84,-269.1 1533.53,-266.66 1540.06,-275 1543.84,-269.1"/>
</g>
<!-- Node28 -->
<g id="node28" class="node">
<title>Node28</title>
<g id="a_node28"><a xlink:href="not-implemented_8hpp.html" target="_top" xlink:title=" ">
<polygon fill="white" stroke="#666666" points="449.5,-200.5 272.5,-200.5 272.5,-181.5 449.5,-181.5 449.5,-200.5"/>
<text text-anchor="middle" x="361" y="-188.5" font-family="Helvetica,sans-Serif" font-size="10.00">alpaqa/util/not&#45;implemented.hpp</text>
</a>
</g>
</g>
<!-- Node19&#45;&gt;Node28 -->
<g id="edge41" class="edge">
<title>Node19&#45;&gt;Node28</title>
<path fill="none" stroke="#63b8ff" d="M1560.19,-321.55C1337.8,-319.6 566.13,-310.13 463,-272 426.8,-258.62 393.32,-227.26 375.17,-208.02"/>
<polygon fill="#63b8ff" stroke="#63b8ff" points="377.7,-205.6 368.36,-200.6 372.55,-210.34 377.7,-205.6"/>
</g>
<!-- Node29 -->
<g id="node29" class="node">
<title>Node29</title>
<g id="a_node29"><a xlink:href="required-method_8hpp.html" target="_top" xlink:title=" ">
<polygon fill="white" stroke="#666666" points="1143,-272 1031,-272 1031,-242 1143,-242 1143,-272"/>
<text text-anchor="start" x="1039" y="-260" font-family="Helvetica,sans-Serif" font-size="10.00">alpaqa/util/required</text>
<text text-anchor="middle" x="1087" y="-249" font-family="Helvetica,sans-Serif" font-size="10.00">&#45;method.hpp</text>
</a>
</g>
</g>
<!-- Node19&#45;&gt;Node29 -->
<g id="edge44" class="edge">
<title>Node19&#45;&gt;Node29</title>
<path fill="none" stroke="#63b8ff" d="M1560.41,-314.84C1460.12,-302.8 1258.3,-278.57 1153.53,-265.99"/>
<polygon fill="#63b8ff" stroke="#63b8ff" points="1153.74,-262.49 1143.39,-264.77 1152.9,-269.44 1153.74,-262.49"/>
</g>
<!-- Node30 -->
<g id="node30" class="node">
<title>Node30</title>
<g id="a_node30"><a xlink:href="type-erasure_8hpp.html" target="_top" xlink:title=" ">
<polygon fill="white" stroke="#666666" points="1164.5,-200.5 1009.5,-200.5 1009.5,-181.5 1164.5,-181.5 1164.5,-200.5"/>
<text text-anchor="middle" x="1087" y="-188.5" font-family="Helvetica,sans-Serif" font-size="10.00">alpaqa/util/type&#45;erasure.hpp</text>
</a>
</g>
</g>
<!-- Node19&#45;&gt;Node30 -->
<g id="edge67" class="edge">
<title>Node19&#45;&gt;Node30</title>
<path fill="none" stroke="#63b8ff" d="M1562.45,-307.96C1455.47,-281.87 1228.09,-226.41 1131.69,-202.9"/>
<polygon fill="#63b8ff" stroke="#63b8ff" points="1132.51,-199.5 1121.96,-200.53 1130.85,-206.3 1132.51,-199.5"/>
</g>
<!-- Node41 -->
<g id="node41" class="node">
<title>Node41</title>
<g id="a_node41"><a xlink:title=" ">
<polygon fill="#e0e0e0" stroke="#999999" points="563.5,-134.5 518.5,-134.5 518.5,-115.5 563.5,-115.5 563.5,-134.5"/>
<text text-anchor="middle" x="541" y="-122.5" font-family="Helvetica,sans-Serif" font-size="10.00">utility</text>
</a>
</g>
</g>
<!-- Node19&#45;&gt;Node41 -->
<g id="edge71" class="edge">
<title>Node19&#45;&gt;Node41</title>
<path fill="none" stroke="#63b8ff" d="M1560.11,-320.65C1451.89,-317.4 1216.89,-306.64 1022,-272 913.08,-252.64 888.12,-237.26 782,-206 688.15,-178.36 663.41,-174.86 572,-140 570.79,-139.54 569.56,-139.05 568.32,-138.55"/>
<polygon fill="#63b8ff" stroke="#63b8ff" points="569.45,-135.23 558.88,-134.51 566.7,-141.66 569.45,-135.23"/>
</g>
<!-- Node20&#45;&gt;Node5 -->
<g id="edge27" class="edge">
<title>Node20&#45;&gt;Node5</title>
<path fill="none" stroke="#63b8ff" d="M1764.58,-247.44C1830.87,-235.75 1949.52,-214.83 2020.58,-202.3"/>
<polygon fill="#63b8ff" stroke="#63b8ff" points="2021.47,-205.7 2030.71,-200.51 2020.25,-198.8 2021.47,-205.7"/>
</g>
<!-- Node21 -->
<g id="node21" class="node">
<title>Node21</title>
<g id="a_node21"><a xlink:href="float_8hpp.html" target="_top" xlink:title=" ">
<polygon fill="white" stroke="#666666" points="1795,-200.5 1681,-200.5 1681,-181.5 1795,-181.5 1795,-200.5"/>
<text text-anchor="middle" x="1738" y="-188.5" font-family="Helvetica,sans-Serif" font-size="10.00">alpaqa/util/float.hpp</text>
</a>
</g>
</g>
<!-- Node20&#45;&gt;Node21 -->
<g id="edge28" class="edge">
<title>Node20&#45;&gt;Node21</title>
<path fill="none" stroke="#63b8ff" d="M1718.97,-247.37C1722.2,-237.97 1727.46,-222.67 1731.63,-210.53"/>
<polygon fill="#63b8ff" stroke="#63b8ff" points="1735,-211.5 1734.94,-200.91 1728.38,-209.22 1735,-211.5"/>
</g>
<!-- Node21&#45;&gt;Node7 -->
<g id="edge29" class="edge">
<title>Node21&#45;&gt;Node7</title>
<path fill="none" stroke="#63b8ff" d="M1768.75,-181.37C1803.78,-171.54 1861.87,-155.23 1905.97,-142.85"/>
<polygon fill="#63b8ff" stroke="#63b8ff" points="1907.03,-146.19 1915.71,-140.12 1905.14,-139.45 1907.03,-146.19"/>
</g>
<!-- Node21&#45;&gt;Node9 -->
<g id="edge33" class="edge">
<title>Node21&#45;&gt;Node9</title>
<path fill="none" stroke="#63b8ff" d="M1758.37,-181.48C1776.42,-173.1 1802.54,-158.83 1820,-140 1835.22,-123.58 1845.89,-99.9 1851.97,-83.68"/>
<polygon fill="#63b8ff" stroke="#63b8ff" points="1855.28,-84.83 1855.31,-74.24 1848.68,-82.5 1855.28,-84.83"/>
</g>
<!-- Node22 -->
<g id="node22" class="node">
<title>Node22</title>
<g id="a_node22"><a xlink:title=" ">
<polygon fill="#e0e0e0" stroke="#999999" points="1810.5,-134.5 1763.5,-134.5 1763.5,-115.5 1810.5,-115.5 1810.5,-134.5"/>
<text text-anchor="middle" x="1787" y="-122.5" font-family="Helvetica,sans-Serif" font-size="10.00">cmath</text>
</a>
</g>
</g>
<!-- Node21&#45;&gt;Node22 -->
<g id="edge30" class="edge">
<title>Node21&#45;&gt;Node22</title>
<path fill="none" stroke="#63b8ff" d="M1744.61,-181.37C1752.09,-171.59 1764.47,-155.42 1773.93,-143.08"/>
<polygon fill="#63b8ff" stroke="#63b8ff" points="1776.88,-144.97 1780.18,-134.91 1771.32,-140.72 1776.88,-144.97"/>
</g>
<!-- Node23 -->
<g id="node23" class="node">
<title>Node23</title>
<g id="a_node23"><a xlink:title=" ">
<polygon fill="#e0e0e0" stroke="#999999" points="1745.5,-134.5 1686.5,-134.5 1686.5,-115.5 1745.5,-115.5 1745.5,-134.5"/>
<text text-anchor="middle" x="1716" y="-122.5" font-family="Helvetica,sans-Serif" font-size="10.00">complex</text>
</a>
</g>
</g>
<!-- Node21&#45;&gt;Node23 -->
<g id="edge31" class="edge">
<title>Node21&#45;&gt;Node23</title>
<path fill="none" stroke="#63b8ff" d="M1735.03,-181.37C1731.8,-171.97 1726.54,-156.67 1722.37,-144.53"/>
<polygon fill="#63b8ff" stroke="#63b8ff" points="1725.62,-143.22 1719.06,-134.91 1719,-145.5 1725.62,-143.22"/>
</g>
<!-- Node24 -->
<g id="node24" class="node">
<title>Node24</title>
<g id="a_node24"><a xlink:title=" ">
<polygon fill="#e0e0e0" stroke="#999999" points="1658,-74 1598,-74 1598,-55 1658,-55 1658,-74"/>
<text text-anchor="middle" x="1628" y="-62" font-family="Helvetica,sans-Serif" font-size="10.00">concepts</text>
</a>
</g>
</g>
<!-- Node21&#45;&gt;Node24 -->
<g id="edge32" class="edge">
<title>Node21&#45;&gt;Node24</title>
<path fill="none" stroke="#63b8ff" d="M1725.62,-181.33C1712.83,-172 1692.71,-156.32 1678,-140 1661.94,-122.18 1647.1,-98.83 1637.83,-83.06"/>
<polygon fill="#63b8ff" stroke="#63b8ff" points="1640.84,-81.26 1632.82,-74.34 1634.77,-84.75 1640.84,-81.26"/>
</g>
<!-- Node25&#45;&gt;Node10 -->
<g id="edge35" class="edge">
<title>Node25&#45;&gt;Node10</title>
<path fill="none" stroke="#63b8ff" d="M1922.96,-247.11C1938.57,-231.82 1972.07,-199.86 2003,-176 2019.98,-162.9 2040.34,-149.63 2055.71,-140.05"/>
<polygon fill="#63b8ff" stroke="#63b8ff" points="2057.87,-142.83 2064.55,-134.6 2054.2,-136.86 2057.87,-142.83"/>
</g>
<!-- Node26&#45;&gt;Node5 -->
<g id="edge37" class="edge">
<title>Node26&#45;&gt;Node5</title>
<path fill="none" stroke="#63b8ff" d="M1591.7,-247.6C1607.6,-245.75 1624.37,-243.8 1640,-242 1766.44,-227.42 1913.41,-210.74 2001.17,-200.8"/>
<polygon fill="#63b8ff" stroke="#63b8ff" points="2001.77,-204.25 2011.31,-199.65 2000.98,-197.3 2001.77,-204.25"/>
</g>
<!-- Node26&#45;&gt;Node12 -->
<g id="edge38" class="edge">
<title>Node26&#45;&gt;Node12</title>
<path fill="none" stroke="#63b8ff" d="M1521.48,-247.37C1523.08,-238.07 1525.68,-222.98 1527.75,-210.9"/>
<polygon fill="#63b8ff" stroke="#63b8ff" points="1531.22,-211.35 1529.47,-200.91 1524.33,-210.17 1531.22,-211.35"/>
</g>
<!-- Node26&#45;&gt;Node17 -->
<g id="edge39" class="edge">
<title>Node26&#45;&gt;Node17</title>
<path fill="none" stroke="#63b8ff" d="M1448.2,-253.22C1248.45,-245.32 695.64,-222.27 615,-206 541.74,-191.22 460.1,-157.35 418.55,-138.77"/>
<polygon fill="#63b8ff" stroke="#63b8ff" points="419.91,-135.55 409.36,-134.62 417.03,-141.92 419.91,-135.55"/>
</g>
<!-- Node26&#45;&gt;Node27 -->
<g id="edge40" class="edge">
<title>Node26&#45;&gt;Node27</title>
<path fill="none" stroke="#63b8ff" d="M1448.42,-252.5C1229.43,-241.14 579.11,-202.41 509,-140 493.53,-126.23 489.83,-101.78 489.32,-84.65"/>
<polygon fill="#63b8ff" stroke="#63b8ff" points="492.82,-84.21 489.37,-74.19 485.82,-84.17 492.82,-84.21"/>
</g>
<!-- Node28&#45;&gt;Node3 -->
<g id="edge42" class="edge">
<title>Node28&#45;&gt;Node3</title>
<path fill="none" stroke="#63b8ff" d="M358.63,-181.2C356.02,-171.25 351.81,-154.55 349,-140 341.42,-100.72 335.28,-54.23 332.18,-29.01"/>
<polygon fill="#63b8ff" stroke="#63b8ff" points="335.65,-28.54 330.98,-19.03 328.7,-29.38 335.65,-28.54"/>
</g>
<!-- Node28&#45;&gt;Node17 -->
<g id="edge43" class="edge">
<title>Node28&#45;&gt;Node17</title>
<path fill="none" stroke="#63b8ff" d="M365.05,-181.37C369.49,-171.88 376.77,-156.36 382.49,-144.16"/>
<polygon fill="#63b8ff" stroke="#63b8ff" points="385.75,-145.45 386.83,-134.91 379.41,-142.47 385.75,-145.45"/>
</g>
<!-- Node29&#45;&gt;Node30 -->
<g id="edge45" class="edge">
<title>Node29&#45;&gt;Node30</title>
<path fill="none" stroke="#63b8ff" d="M1087,-241.8C1087,-232.7 1087,-220.79 1087,-210.9"/>
<polygon fill="#63b8ff" stroke="#63b8ff" points="1090.5,-210.84 1087,-200.84 1083.5,-210.84 1090.5,-210.84"/>
</g>
<!-- Node39 -->
<g id="node39" class="node">
<title>Node39</title>
<g id="a_node39"><a xlink:title=" ">
<polygon fill="#e0e0e0" stroke="#999999" points="646.5,-134.5 581.5,-134.5 581.5,-115.5 646.5,-115.5 646.5,-134.5"/>
<text text-anchor="middle" x="614" y="-122.5" font-family="Helvetica,sans-Serif" font-size="10.00">functional</text>
</a>
</g>
</g>
<!-- Node29&#45;&gt;Node39 -->
<g id="edge66" class="edge">
<title>Node29&#45;&gt;Node39</title>
<path fill="none" stroke="#63b8ff" d="M1030.91,-242.03C948.38,-221.22 789.56,-180.2 656,-140 653.55,-139.26 651.03,-138.48 648.5,-137.68"/>
<polygon fill="#63b8ff" stroke="#63b8ff" points="649.39,-134.29 638.8,-134.53 647.23,-140.95 649.39,-134.29"/>
</g>
<!-- Node30&#45;&gt;Node2 -->
<g id="edge46" class="edge">
<title>Node30&#45;&gt;Node2</title>
<path fill="none" stroke="#63b8ff" d="M1164.68,-182.39C1224.7,-174.95 1301.25,-161.54 1324,-140 1339.01,-125.78 1343.19,-101.62 1344.14,-84.68"/>
<polygon fill="#63b8ff" stroke="#63b8ff" points="1347.65,-84.39 1344.38,-74.31 1340.65,-84.23 1347.65,-84.39"/>
</g>
<!-- Node30&#45;&gt;Node9 -->
<g id="edge63" class="edge">
<title>Node30&#45;&gt;Node9</title>
<path fill="none" stroke="#63b8ff" d="M1164.54,-188.92C1265.94,-186.05 1448.47,-175.83 1600,-140 1636.15,-131.45 1642.57,-121.15 1678,-110 1723.61,-95.65 1776.89,-82.97 1813.59,-74.86"/>
<polygon fill="#63b8ff" stroke="#63b8ff" points="1814.46,-78.25 1823.47,-72.69 1812.96,-71.41 1814.46,-78.25"/>
</g>
<!-- Node30&#45;&gt;Node17 -->
<g id="edge62" class="edge">
<title>Node30&#45;&gt;Node17</title>
<path fill="none" stroke="#63b8ff" d="M1009.33,-184.07C898.3,-175.41 687.85,-158.34 509,-140 484.02,-137.44 456.12,-134.15 433.72,-131.4"/>
<polygon fill="#63b8ff" stroke="#63b8ff" points="433.88,-127.89 423.52,-130.14 433.02,-134.84 433.88,-127.89"/>
</g>
<!-- Node31 -->
<g id="node31" class="node">
<title>Node31</title>
<g id="a_node31"><a xlink:href="demangled-typename_8hpp.html" target="_top" xlink:title=" ">
<polygon fill="white" stroke="#666666" points="791,-140 665,-140 665,-110 791,-110 791,-140"/>
<text text-anchor="start" x="673" y="-128" font-family="Helvetica,sans-Serif" font-size="10.00">alpaqa/util/demangled</text>
<text text-anchor="middle" x="728" y="-117" font-family="Helvetica,sans-Serif" font-size="10.00">&#45;typename.hpp</text>
</a>
</g>
</g>
<!-- Node30&#45;&gt;Node31 -->
<g id="edge47" class="edge">
<title>Node30&#45;&gt;Node31</title>
<path fill="none" stroke="#63b8ff" d="M1038.59,-181.48C982.4,-171.58 886.97,-154.72 805,-140 803.72,-139.77 802.43,-139.54 801.13,-139.3"/>
<polygon fill="#63b8ff" stroke="#63b8ff" points="801.49,-135.81 791.03,-137.48 800.25,-142.7 801.49,-135.81"/>
</g>
<!-- Node32 -->
<g id="node32" class="node">
<title>Node32</title>
<g id="a_node32"><a xlink:title=" ">
<polygon fill="#e0e0e0" stroke="#999999" points="801.5,-74 744.5,-74 744.5,-55 801.5,-55 801.5,-74"/>
<text text-anchor="middle" x="773" y="-62" font-family="Helvetica,sans-Serif" font-size="10.00">typeinfo</text>
</a>
</g>
</g>
<!-- Node30&#45;&gt;Node32 -->
<g id="edge64" class="edge">
<title>Node30&#45;&gt;Node32</title>
<path fill="none" stroke="#63b8ff" d="M1009.48,-187.29C957.89,-182.51 890.25,-170.32 838,-140 813.95,-126.04 794.31,-99.92 783.13,-82.61"/>
<polygon fill="#63b8ff" stroke="#63b8ff" points="786.06,-80.69 777.81,-74.04 780.11,-84.38 786.06,-80.69"/>
</g>
<!-- Node33 -->
<g id="node33" class="node">
<title>Node33</title>
<g id="a_node33"><a xlink:href="noop-delete_8hpp.html" target="_top" xlink:title=" ">
<polygon fill="white" stroke="#666666" points="998.5,-134.5 847.5,-134.5 847.5,-115.5 998.5,-115.5 998.5,-134.5"/>
<text text-anchor="middle" x="923" y="-122.5" font-family="Helvetica,sans-Serif" font-size="10.00">alpaqa/util/noop&#45;delete.hpp</text>
</a>
</g>
</g>
<!-- Node30&#45;&gt;Node33 -->
<g id="edge51" class="edge">
<title>Node30&#45;&gt;Node33</title>
<path fill="none" stroke="#63b8ff" d="M1064.88,-181.37C1036.44,-170.27 986.85,-150.92 954.48,-138.28"/>
<polygon fill="#63b8ff" stroke="#63b8ff" points="955.62,-134.97 945.03,-134.6 953.07,-141.49 955.62,-134.97"/>
</g>
<!-- Node34 -->
<g id="node34" class="node">
<title>Node34</title>
<g id="a_node34"><a xlink:href="type-traits_8hpp.html" target="_top" xlink:title=" ">
<polygon fill="white" stroke="#666666" points="1591.5,-134.5 1448.5,-134.5 1448.5,-115.5 1591.5,-115.5 1591.5,-134.5"/>
<text text-anchor="middle" x="1520" y="-122.5" font-family="Helvetica,sans-Serif" font-size="10.00">alpaqa/util/type&#45;traits.hpp</text>
</a>
</g>
</g>
<!-- Node30&#45;&gt;Node34 -->
<g id="edge52" class="edge">
<title>Node30&#45;&gt;Node34</title>
<path fill="none" stroke="#63b8ff" d="M1144.95,-181.44C1224.67,-169.65 1367.88,-148.48 1452.39,-135.99"/>
<polygon fill="#63b8ff" stroke="#63b8ff" points="1453.02,-139.44 1462.4,-134.51 1451.99,-132.51 1453.02,-139.44"/>
</g>
<!-- Node35 -->
<g id="node35" class="node">
<title>Node35</title>
<g id="a_node35"><a xlink:title=" ">
<polygon fill="#e0e0e0" stroke="#999999" points="1511,-74 1453,-74 1453,-55 1511,-55 1511,-74"/>
<text text-anchor="middle" x="1482" y="-62" font-family="Helvetica,sans-Serif" font-size="10.00">memory</text>
</a>
</g>
</g>
<!-- Node30&#45;&gt;Node35 -->
<g id="edge60" class="edge">
<title>Node30&#45;&gt;Node35</title>
<path fill="none" stroke="#63b8ff" d="M1076.54,-181.42C1058.67,-165.76 1026,-132.1 1046,-110 1072.9,-80.27 1365.13,-78.2 1405,-74 1417.21,-72.71 1430.5,-71.26 1442.55,-69.93"/>
<polygon fill="#63b8ff" stroke="#63b8ff" points="1443.2,-73.38 1452.76,-68.8 1442.43,-66.42 1443.2,-73.38"/>
</g>
<!-- Node36 -->
<g id="node36" class="node">
<title>Node36</title>
<g id="a_node36"><a xlink:title=" ">
<polygon fill="#e0e0e0" stroke="#999999" points="1119,-134.5 1055,-134.5 1055,-115.5 1119,-115.5 1119,-134.5"/>
<text text-anchor="middle" x="1087" y="-122.5" font-family="Helvetica,sans-Serif" font-size="10.00">algorithm</text>
</a>
</g>
</g>
<!-- Node30&#45;&gt;Node36 -->
<g id="edge56" class="edge">
<title>Node30&#45;&gt;Node36</title>
<path fill="none" stroke="#63b8ff" d="M1087,-181.37C1087,-172.16 1087,-157.29 1087,-145.27"/>
<polygon fill="#63b8ff" stroke="#63b8ff" points="1090.5,-144.91 1087,-134.91 1083.5,-144.91 1090.5,-144.91"/>
</g>
<!-- Node37 -->
<g id="node37" class="node">
<title>Node37</title>
<g id="a_node37"><a xlink:title=" ">
<polygon fill="#e0e0e0" stroke="#999999" points="1189,-134.5 1137,-134.5 1137,-115.5 1189,-115.5 1189,-134.5"/>
<text text-anchor="middle" x="1163" y="-122.5" font-family="Helvetica,sans-Serif" font-size="10.00">cassert</text>
</a>
</g>
</g>
<!-- Node30&#45;&gt;Node37 -->
<g id="edge57" class="edge">
<title>Node30&#45;&gt;Node37</title>
<path fill="none" stroke="#63b8ff" d="M1097.25,-181.37C1109.31,-171.21 1129.56,-154.16 1144.41,-141.65"/>
<polygon fill="#63b8ff" stroke="#63b8ff" points="1147.03,-144.02 1152.43,-134.91 1142.52,-138.67 1147.03,-144.02"/>
</g>
<!-- Node38 -->
<g id="node38" class="node">
<title>Node38</title>
<g id="a_node38"><a xlink:title=" ">
<polygon fill="#e0e0e0" stroke="#999999" points="1260.5,-134.5 1207.5,-134.5 1207.5,-115.5 1260.5,-115.5 1260.5,-134.5"/>
<text text-anchor="middle" x="1234" y="-122.5" font-family="Helvetica,sans-Serif" font-size="10.00">cstddef</text>
</a>
</g>
</g>
<!-- Node30&#45;&gt;Node38 -->
<g id="edge58" class="edge">
<title>Node30&#45;&gt;Node38</title>
<path fill="none" stroke="#63b8ff" d="M1106.83,-181.37C1132.03,-170.39 1175.76,-151.36 1204.79,-138.72"/>
<polygon fill="#63b8ff" stroke="#63b8ff" points="1206.25,-141.9 1214.02,-134.7 1203.45,-135.48 1206.25,-141.9"/>
</g>
<!-- Node30&#45;&gt;Node39 -->
<g id="edge59" class="edge">
<title>Node30&#45;&gt;Node39</title>
<path fill="none" stroke="#63b8ff" d="M1009.12,-185.81C922.18,-180.01 777.7,-167.04 656,-140 652.95,-139.32 649.8,-138.51 646.68,-137.61"/>
<polygon fill="#63b8ff" stroke="#63b8ff" points="647.45,-134.19 636.87,-134.57 645.38,-140.88 647.45,-134.19"/>
</g>
<!-- Node40 -->
<g id="node40" class="node">
<title>Node40</title>
<g id="a_node40"><a xlink:title=" ">
<polygon fill="#e0e0e0" stroke="#999999" points="1315.5,-134.5 1278.5,-134.5 1278.5,-115.5 1315.5,-115.5 1315.5,-134.5"/>
<text text-anchor="middle" x="1297" y="-122.5" font-family="Helvetica,sans-Serif" font-size="10.00">new</text>
</a>
</g>
</g>
<!-- Node30&#45;&gt;Node40 -->
<g id="edge61" class="edge">
<title>Node30&#45;&gt;Node40</title>
<path fill="none" stroke="#63b8ff" d="M1126.77,-181.44C1164.12,-172.85 1221.27,-158.29 1269,-140 1270.02,-139.61 1271.04,-139.2 1272.07,-138.77"/>
<polygon fill="#63b8ff" stroke="#63b8ff" points="1273.63,-141.9 1281.25,-134.55 1270.7,-135.54 1273.63,-141.9"/>
</g>
<!-- Node30&#45;&gt;Node41 -->
<g id="edge65" class="edge">
<title>Node30&#45;&gt;Node41</title>
<path fill="none" stroke="#63b8ff" d="M1009.26,-190.29C907.2,-188.91 723.25,-180.31 572,-140 570.31,-139.55 568.6,-139.02 566.9,-138.43"/>
<polygon fill="#63b8ff" stroke="#63b8ff" points="567.95,-135.08 557.36,-134.59 565.33,-141.57 567.95,-135.08"/>
</g>
<!-- Node31&#45;&gt;Node2 -->
<g id="edge48" class="edge">
<title>Node31&#45;&gt;Node2</title>
<path fill="none" stroke="#63b8ff" d="M791.06,-115.55C806.41,-113.61 822.78,-111.64 838,-110 997.47,-92.85 1185.74,-77.61 1281.4,-70.22"/>
<polygon fill="#63b8ff" stroke="#63b8ff" points="1281.79,-73.7 1291.49,-69.44 1281.25,-66.72 1281.79,-73.7"/>
</g>
<!-- Node31&#45;&gt;Node27 -->
<g id="edge49" class="edge">
<title>Node31&#45;&gt;Node27</title>
<path fill="none" stroke="#63b8ff" d="M670.99,-109.99C624.36,-98.52 560.1,-82.73 522.02,-73.37"/>
<polygon fill="#63b8ff" stroke="#63b8ff" points="522.56,-69.9 512.01,-70.91 520.89,-76.7 522.56,-69.9"/>
</g>
<!-- Node31&#45;&gt;Node32 -->
<g id="edge50" class="edge">
<title>Node31&#45;&gt;Node32</title>
<path fill="none" stroke="#63b8ff" d="M738.89,-109.84C745.29,-101.52 753.42,-90.96 760.13,-82.23"/>
<polygon fill="#63b8ff" stroke="#63b8ff" points="762.93,-84.33 766.26,-74.27 757.39,-80.06 762.93,-84.33"/>
</g>
<!-- Node34&#45;&gt;Node9 -->
<g id="edge55" class="edge">
<title>Node34&#45;&gt;Node9</title>
<path fill="none" stroke="#63b8ff" d="M1569.15,-115.49C1634.71,-104.15 1749.84,-84.22 1813.15,-73.26"/>
<polygon fill="#63b8ff" stroke="#63b8ff" points="1813.97,-76.67 1823.22,-71.52 1812.77,-69.78 1813.97,-76.67"/>
</g>
<!-- Node34&#45;&gt;Node24 -->
<g id="edge53" class="edge">
<title>Node34&#45;&gt;Node24</title>
<path fill="none" stroke="#63b8ff" d="M1535.94,-115.37C1553.64,-105.78 1582.46,-90.17 1603.14,-78.97"/>
<polygon fill="#63b8ff" stroke="#63b8ff" points="1604.87,-82.01 1612,-74.17 1601.54,-75.85 1604.87,-82.01"/>
</g>
<!-- Node34&#45;&gt;Node35 -->
<g id="edge54" class="edge">
<title>Node34&#45;&gt;Node35</title>
<path fill="none" stroke="#63b8ff" d="M1514.39,-115.37C1508.84,-106.81 1500.17,-93.47 1493.2,-82.74"/>
<polygon fill="#63b8ff" stroke="#63b8ff" points="1496.01,-80.65 1487.63,-74.17 1490.14,-84.46 1496.01,-80.65"/>
</g>
<!-- Node43 -->
<g id="node43" class="node">
<title>Node43</title>
<g id="a_node43"><a xlink:title=" ">
<polygon fill="#e0e0e0" stroke="#999999" points="2487,-266.5 2437,-266.5 2437,-247.5 2487,-247.5 2487,-266.5"/>
<text text-anchor="middle" x="2462" y="-254.5" font-family="Helvetica,sans-Serif" font-size="10.00">atomic</text>
</a>
</g>
</g>
<!-- Node42&#45;&gt;Node43 -->
<g id="edge73" class="edge">
<title>Node42&#45;&gt;Node43</title>
<path fill="none" stroke="#63b8ff" d="M2462,-307.8C2462,-298.7 2462,-286.79 2462,-276.9"/>
<polygon fill="#63b8ff" stroke="#63b8ff" points="2465.5,-276.84 2462,-266.84 2458.5,-276.84 2465.5,-276.84"/>
</g>
</g>
</svg>
