<?xml version="1.0" encoding="UTF-8" standalone="no"?>
<!DOCTYPE svg PUBLIC "-//W3C//DTD SVG 1.1//EN"
 "http://www.w3.org/Graphics/SVG/1.1/DTD/svg11.dtd">
<!-- Generated by graphviz version 2.43.0 (0)
 -->
<!-- Title: compl_indices Pages: 1 -->
<svg width="181pt" height="64pt"
 viewBox="0.00 0.00 181.00 64.00" xmlns="http://www.w3.org/2000/svg" xmlns:xlink="http://www.w3.org/1999/xlink">
<g id="graph0" class="graph" transform="scale(1 1) rotate(0) translate(4 60)">
<title>compl_indices</title>
<!-- Node1 -->
<g id="node1" class="node">
<title>Node1</title>
<g id="a_node1"><a xlink:title=" ">
<polygon fill="#999999" stroke="#666666" points="86,-37 0,-37 0,-18 86,-18 86,-37"/>
<text text-anchor="middle" x="43" y="-25" font-family="Helvetica,sans-Serif" font-size="10.00">compl_indices</text>
</a>
</g>
</g>
<!-- Node2 -->
<g id="node2" class="node">
<title>Node2</title>
<g id="a_node2"><a xlink:href="structalpaqa_1_1detail_1_1IndexSet.html#ad31b9dec898577e38e99847e3d68cade" target="_top" xlink:title=" ">
<polygon fill="white" stroke="#666666" points="173,-56 122,-56 122,-37 173,-37 173,-56"/>
<text text-anchor="middle" x="147.5" y="-44" font-family="Helvetica,sans-Serif" font-size="10.00">indices</text>
</a>
</g>
</g>
<!-- Node1&#45;&gt;Node2 -->
<g id="edge1" class="edge">
<title>Node1&#45;&gt;Node2</title>
<path fill="none" stroke="#63b8ff" d="M86.28,-35.34C94.81,-36.92 103.69,-38.56 111.91,-40.09"/>
<polygon fill="#63b8ff" stroke="#63b8ff" points="111.45,-43.56 121.92,-41.94 112.73,-36.68 111.45,-43.56"/>
</g>
<!-- Node3 -->
<g id="node3" class="node">
<title>Node3</title>
<g id="a_node3"><a xlink:href="structalpaqa_1_1detail_1_1IndexSet.html#a1c2baa260eff1ba74daef8cd60c44426" target="_top" xlink:title=" ">
<polygon fill="white" stroke="#666666" points="168,-19 127,-19 127,0 168,0 168,-19"/>
<text text-anchor="middle" x="147.5" y="-7" font-family="Helvetica,sans-Serif" font-size="10.00">sizes</text>
</a>
</g>
</g>
<!-- Node1&#45;&gt;Node3 -->
<g id="edge2" class="edge">
<title>Node1&#45;&gt;Node3</title>
<path fill="none" stroke="#63b8ff" d="M86.28,-20.07C96.54,-18.27 107.29,-16.39 116.82,-14.71"/>
<polygon fill="#63b8ff" stroke="#63b8ff" points="117.74,-18.1 126.98,-12.93 116.52,-11.21 117.74,-18.1"/>
</g>
</g>
</svg>
