<?xml version="1.0" encoding="UTF-8" standalone="no"?>
<!DOCTYPE svg PUBLIC "-//W3C//DTD SVG 1.1//EN"
 "http://www.w3.org/Graphics/SVG/1.1/DTD/svg11.dtd">
<!-- Generated by graphviz version 2.43.0 (0)
 -->
<!-- Title: eval_add_R_masked Pages: 1 -->
<svg width="205pt" height="45pt"
 viewBox="0.00 0.00 205.00 45.00" xmlns="http://www.w3.org/2000/svg" xmlns:xlink="http://www.w3.org/1999/xlink">
<g id="graph0" class="graph" transform="scale(1 1) rotate(0) translate(4 41)">
<title>eval_add_R_masked</title>
<!-- Node1 -->
<g id="node1" class="node">
<title>Node1</title>
<g id="a_node1"><a xlink:title=" ">
<polygon fill="#999999" stroke="#666666" points="116,-19 0,-19 0,0 116,0 116,-19"/>
<text text-anchor="middle" x="58" y="-7" font-family="Helvetica,sans-Serif" font-size="10.00">eval_add_R_masked</text>
</a>
</g>
</g>
<!-- Node2 -->
<g id="node2" class="node">
<title>Node2</title>
<g id="a_node2"><a xlink:href="structalpaqa_1_1ControlProblemWithCounters.html#aeac9af8ea1364c5fa9558097650b8a51" target="_top" xlink:title=" ">
<polygon fill="white" stroke="#666666" points="197,-19 152,-19 152,0 197,0 197,-19"/>
<text text-anchor="middle" x="174.5" y="-7" font-family="Helvetica,sans-Serif" font-size="10.00">timed</text>
</a>
</g>
</g>
<!-- Node1&#45;&gt;Node2 -->
<g id="edge1" class="edge">
<title>Node1&#45;&gt;Node2</title>
<path fill="none" stroke="#63b8ff" d="M116.25,-9.5C125.01,-9.5 133.78,-9.5 141.72,-9.5"/>
<polygon fill="#63b8ff" stroke="#63b8ff" points="141.96,-13 151.96,-9.5 141.96,-6 141.96,-13"/>
</g>
<!-- Node2&#45;&gt;Node2 -->
<g id="edge2" class="edge">
<title>Node2&#45;&gt;Node2</title>
<path fill="none" stroke="#63b8ff" d="M156.62,-19.08C147.92,-27.73 153.88,-37 174.5,-37 187.39,-37 194.55,-33.38 195.98,-28.55"/>
<polygon fill="#63b8ff" stroke="#63b8ff" points="199.2,-27.19 192.38,-19.08 192.66,-29.67 199.2,-27.19"/>
</g>
</g>
</svg>
