<?xml version="1.0" encoding="UTF-8" standalone="no"?>
<!DOCTYPE svg PUBLIC "-//W3C//DTD SVG 1.1//EN"
 "http://www.w3.org/Graphics/SVG/1.1/DTD/svg11.dtd">
<!-- Generated by graphviz version 2.43.0 (0)
 -->
<!-- Title: eval_f Pages: 1 -->
<svg width="136pt" height="45pt"
 viewBox="0.00 0.00 136.00 45.00" xmlns="http://www.w3.org/2000/svg" xmlns:xlink="http://www.w3.org/1999/xlink">
<g id="graph0" class="graph" transform="scale(1 1) rotate(0) translate(4 41)">
<title>eval_f</title>
<!-- Node1 -->
<g id="node1" class="node">
<title>Node1</title>
<g id="a_node1"><a xlink:title=" ">
<polygon fill="#999999" stroke="#666666" points="47,-19 0,-19 0,0 47,0 47,-19"/>
<text text-anchor="middle" x="23.5" y="-7" font-family="Helvetica,sans-Serif" font-size="10.00">eval_f</text>
</a>
</g>
</g>
<!-- Node2 -->
<g id="node2" class="node">
<title>Node2</title>
<g id="a_node2"><a xlink:href="structalpaqa_1_1ControlProblemWithCounters.html#aeac9af8ea1364c5fa9558097650b8a51" target="_top" xlink:title=" ">
<polygon fill="white" stroke="#666666" points="128,-19 83,-19 83,0 128,0 128,-19"/>
<text text-anchor="middle" x="105.5" y="-7" font-family="Helvetica,sans-Serif" font-size="10.00">timed</text>
</a>
</g>
</g>
<!-- Node1&#45;&gt;Node2 -->
<g id="edge1" class="edge">
<title>Node1&#45;&gt;Node2</title>
<path fill="none" stroke="#63b8ff" d="M47.21,-9.5C55.16,-9.5 64.23,-9.5 72.78,-9.5"/>
<polygon fill="#63b8ff" stroke="#63b8ff" points="72.83,-13 82.83,-9.5 72.83,-6 72.83,-13"/>
</g>
<!-- Node2&#45;&gt;Node2 -->
<g id="edge2" class="edge">
<title>Node2&#45;&gt;Node2</title>
<path fill="none" stroke="#63b8ff" d="M92.86,-19.08C86.71,-27.73 90.93,-37 105.5,-37 114.38,-37 119.41,-33.56 120.6,-28.91"/>
<polygon fill="#63b8ff" stroke="#63b8ff" points="123.96,-27.93 118.14,-19.08 117.17,-29.63 123.96,-27.93"/>
</g>
</g>
</svg>
