<?xml version="1.0" encoding="UTF-8" standalone="no"?>
<!DOCTYPE svg PUBLIC "-//W3C//DTD SVG 1.1//EN"
 "http://www.w3.org/Graphics/SVG/1.1/DTD/svg11.dtd">
<!-- Generated by graphviz version 2.43.0 (0)
 -->
<!-- Title: operator= Pages: 1 -->
<svg width="269pt" height="27pt"
 viewBox="0.00 0.00 269.00 27.00" xmlns="http://www.w3.org/2000/svg" xmlns:xlink="http://www.w3.org/1999/xlink">
<g id="graph0" class="graph" transform="scale(1 1) rotate(0) translate(4 23)">
<title>operator=</title>
<!-- Node1 -->
<g id="node1" class="node">
<title>Node1</title>
<g id="a_node1"><a xlink:title="Copy assignment.">
<polygon fill="#999999" stroke="#666666" points="66,-19 0,-19 0,0 66,0 66,-19"/>
<text text-anchor="middle" x="33" y="-7" font-family="Helvetica,sans-Serif" font-size="10.00">operator=</text>
</a>
</g>
</g>
<!-- Node2 -->
<g id="node2" class="node">
<title>Node2</title>
<g id="a_node2"><a xlink:href="classalpaqa_1_1util_1_1TypeErased.html#a4b66d5e31b5dc18b314c8a68163263bd" target="_top" xlink:title="Destroy the type&#45;erased object (if not empty), and deallocate the memory if necessary.">
<polygon fill="white" stroke="#666666" points="157,-19 102,-19 102,0 157,0 157,-19"/>
<text text-anchor="middle" x="129.5" y="-7" font-family="Helvetica,sans-Serif" font-size="10.00">cleanup</text>
</a>
</g>
</g>
<!-- Node1&#45;&gt;Node2 -->
<g id="edge1" class="edge">
<title>Node1&#45;&gt;Node2</title>
<path fill="none" stroke="#63b8ff" d="M66.26,-9.5C74.38,-9.5 83.16,-9.5 91.49,-9.5"/>
<polygon fill="#63b8ff" stroke="#63b8ff" points="91.72,-13 101.72,-9.5 91.72,-6 91.72,-13"/>
</g>
<!-- Node3 -->
<g id="node3" class="node">
<title>Node3</title>
<g id="a_node3"><a xlink:href="classalpaqa_1_1util_1_1TypeErased.html#a2d68be4fd20ffdd7f7a9b51579eacc2f" target="_top" xlink:title="Deallocate the memory without invoking the destructor.">
<polygon fill="white" stroke="#666666" points="261,-19 193,-19 193,0 261,0 261,-19"/>
<text text-anchor="middle" x="227" y="-7" font-family="Helvetica,sans-Serif" font-size="10.00">deallocate</text>
</a>
</g>
</g>
<!-- Node2&#45;&gt;Node3 -->
<g id="edge2" class="edge">
<title>Node2&#45;&gt;Node3</title>
<path fill="none" stroke="#63b8ff" d="M157.1,-9.5C165.04,-9.5 173.95,-9.5 182.66,-9.5"/>
<polygon fill="#63b8ff" stroke="#63b8ff" points="182.72,-13 192.72,-9.5 182.72,-6 182.72,-13"/>
</g>
</g>
</svg>
