<?xml version="1.0" encoding="UTF-8" standalone="no"?>
<!DOCTYPE svg PUBLIC "-//W3C//DTD SVG 1.1//EN"
 "http://www.w3.org/Graphics/SVG/1.1/DTD/svg11.dtd">
<!-- Generated by graphviz version 2.43.0 (0)
 -->
<!-- Title: get_hess_L_num_nonzeros Pages: 1 -->
<svg width="310pt" height="86pt"
 viewBox="0.00 0.00 310.00 86.00" xmlns="http://www.w3.org/2000/svg" xmlns:xlink="http://www.w3.org/1999/xlink">
<g id="graph0" class="graph" transform="scale(1 1) rotate(0) translate(4 82)">
<title>get_hess_L_num_nonzeros</title>
<!-- Node1 -->
<g id="node1" class="node">
<title>Node1</title>
<g id="a_node1"><a xlink:title="[Optional] Function that gets the number of nonzeros of the sparse Hessian of the Lagrangian.">
<polygon fill="#999999" stroke="#666666" points="302,-48.5 155,-48.5 155,-29.5 302,-29.5 302,-48.5"/>
<text text-anchor="middle" x="228.5" y="-36.5" font-family="Helvetica,sans-Serif" font-size="10.00">get_hess_L_num_nonzeros</text>
</a>
</g>
</g>
<!-- Node2 -->
<g id="node2" class="node">
<title>Node2</title>
<g id="a_node2"><a xlink:href="classalpaqa_1_1IpoptAdapter.html#a060dd4fd8af8008a4a6cc2ec807d35f5" target="_top" xlink:title=" ">
<polygon fill="white" stroke="#666666" points="119,-78 0,-78 0,-48 119,-48 119,-78"/>
<text text-anchor="start" x="8" y="-66" font-family="Helvetica,sans-Serif" font-size="10.00">alpaqa::IpoptAdapter</text>
<text text-anchor="middle" x="59.5" y="-55" font-family="Helvetica,sans-Serif" font-size="10.00">::IpoptAdapter</text>
</a>
</g>
</g>
<!-- Node1&#45;&gt;Node2 -->
<g id="edge1" class="edge">
<title>Node1&#45;&gt;Node2</title>
<path fill="none" stroke="#63b8ff" d="M150.88,-50.01C140.24,-51.54 129.44,-53.09 119.19,-54.56"/>
<polygon fill="#63b8ff" stroke="#63b8ff" points="151.62,-53.44 161.02,-48.55 150.62,-46.51 151.62,-53.44"/>
</g>
<!-- Node3 -->
<g id="node3" class="node">
<title>Node3</title>
<g id="a_node3"><a xlink:href="namespacealpaqa.html#a4ca1e55c8c5fb7305b9e55d746d7929e" target="_top" xlink:title=" ">
<polygon fill="white" stroke="#666666" points="117.5,-30 1.5,-30 1.5,0 117.5,0 117.5,-30"/>
<text text-anchor="start" x="9.5" y="-18" font-family="Helvetica,sans-Serif" font-size="10.00">alpaqa::build_qpalm</text>
<text text-anchor="middle" x="59.5" y="-7" font-family="Helvetica,sans-Serif" font-size="10.00">_problem</text>
</a>
</g>
</g>
<!-- Node1&#45;&gt;Node3 -->
<g id="edge2" class="edge">
<title>Node1&#45;&gt;Node3</title>
<path fill="none" stroke="#63b8ff" d="M150.82,-27.98C139.64,-26.37 128.3,-24.74 117.6,-23.21"/>
<polygon fill="#63b8ff" stroke="#63b8ff" points="150.62,-31.49 161.02,-29.45 151.62,-24.56 150.62,-31.49"/>
</g>
</g>
</svg>
