<?xml version="1.0" encoding="UTF-8" standalone="no"?>
<!DOCTYPE svg PUBLIC "-//W3C//DTD SVG 1.1//EN"
 "http://www.w3.org/Graphics/SVG/1.1/DTD/svg11.dtd">
<!-- Generated by graphviz version 2.43.0 (0)
 -->
<!-- Title: reset Pages: 1 -->
<svg width="231pt" height="86pt"
 viewBox="0.00 0.00 231.00 86.00" xmlns="http://www.w3.org/2000/svg" xmlns:xlink="http://www.w3.org/1999/xlink">
<g id="graph0" class="graph" transform="scale(1 1) rotate(0) translate(4 82)">
<title>reset</title>
<!-- Node1 -->
<g id="node1" class="node">
<title>Node1</title>
<g id="a_node1"><a xlink:title="Reset the accelerator (but keep the last function value and residual, so calling initialize is not ne...">
<polygon fill="#999999" stroke="#666666" points="223,-48.5 182,-48.5 182,-29.5 223,-29.5 223,-48.5"/>
<text text-anchor="middle" x="202.5" y="-36.5" font-family="Helvetica,sans-Serif" font-size="10.00">reset</text>
</a>
</g>
</g>
<!-- Node2 -->
<g id="node2" class="node">
<title>Node2</title>
<g id="a_node2"><a xlink:href="structalpaqa_1_1AndersonDirection.html#a0a4209f98cf9b6125e83cc5d3ec47a8b" target="_top" xlink:title=" ">
<polygon fill="white" stroke="#666666" points="146,-78 0,-78 0,-48 146,-48 146,-78"/>
<text text-anchor="start" x="8" y="-66" font-family="Helvetica,sans-Serif" font-size="10.00">alpaqa::AndersonDirection</text>
<text text-anchor="middle" x="73" y="-55" font-family="Helvetica,sans-Serif" font-size="10.00">::changed_γ</text>
</a>
</g>
</g>
<!-- Node1&#45;&gt;Node2 -->
<g id="edge1" class="edge">
<title>Node1&#45;&gt;Node2</title>
<path fill="none" stroke="#63b8ff" d="M171.81,-44.59C163.95,-46.07 155.1,-47.73 146.03,-49.44"/>
<polygon fill="#63b8ff" stroke="#63b8ff" points="172.68,-47.99 181.86,-42.7 171.38,-41.11 172.68,-47.99"/>
</g>
<!-- Node3 -->
<g id="node3" class="node">
<title>Node3</title>
<g id="a_node3"><a xlink:href="structalpaqa_1_1AndersonDirection.html#ad20897c5c8bd47f5d4005989bead0e55" target="_top" xlink:title=" ">
<polygon fill="white" stroke="#666666" points="146,-30 0,-30 0,0 146,0 146,-30"/>
<text text-anchor="start" x="8" y="-18" font-family="Helvetica,sans-Serif" font-size="10.00">alpaqa::AndersonDirection</text>
<text text-anchor="middle" x="73" y="-7" font-family="Helvetica,sans-Serif" font-size="10.00">::reset</text>
</a>
</g>
</g>
<!-- Node1&#45;&gt;Node3 -->
<g id="edge2" class="edge">
<title>Node1&#45;&gt;Node3</title>
<path fill="none" stroke="#63b8ff" d="M171.81,-33.41C163.95,-31.93 155.1,-30.27 146.03,-28.56"/>
<polygon fill="#63b8ff" stroke="#63b8ff" points="171.38,-36.89 181.86,-35.3 172.68,-30.01 171.38,-36.89"/>
</g>
</g>
</svg>
