<?xml version="1.0" encoding="UTF-8" standalone="no"?>
<!DOCTYPE svg PUBLIC "-//W3C//DTD SVG 1.1//EN"
 "http://www.w3.org/Graphics/SVG/1.1/DTD/svg11.dtd">
<!-- Generated by graphviz version 2.43.0 (0)
 -->
<!-- Title: scale_R Pages: 1 -->
<svg width="627pt" height="38pt"
 viewBox="0.00 0.00 627.00 38.00" xmlns="http://www.w3.org/2000/svg" xmlns:xlink="http://www.w3.org/1999/xlink">
<g id="graph0" class="graph" transform="scale(1 1) rotate(0) translate(4 34)">
<title>scale_R</title>
<!-- Node1 -->
<g id="node1" class="node">
<title>Node1</title>
<g id="a_node1"><a xlink:title="Scale the factorization.">
<polygon fill="#999999" stroke="#666666" points="54,-24.5 0,-24.5 0,-5.5 54,-5.5 54,-24.5"/>
<text text-anchor="middle" x="27" y="-12.5" font-family="Helvetica,sans-Serif" font-size="10.00">scale_R</text>
</a>
</g>
</g>
<!-- Node2 -->
<g id="node2" class="node">
<title>Node2</title>
<g id="a_node2"><a xlink:href="classalpaqa_1_1LimitedMemoryQR.html#adf11f99cb8b119423c86498dbaab9820" target="_top" xlink:title="Multiply the matrix R by a scalar.">
<polygon fill="white" stroke="#666666" points="237,-30 90,-30 90,0 237,0 237,-30"/>
<text text-anchor="start" x="98" y="-18" font-family="Helvetica,sans-Serif" font-size="10.00">alpaqa::LimitedMemoryQR</text>
<text text-anchor="middle" x="163.5" y="-7" font-family="Helvetica,sans-Serif" font-size="10.00">::scale_R</text>
</a>
</g>
</g>
<!-- Node1&#45;&gt;Node2 -->
<g id="edge1" class="edge">
<title>Node1&#45;&gt;Node2</title>
<path fill="none" stroke="#63b8ff" d="M54.25,-15C61.89,-15 70.66,-15 79.84,-15"/>
<polygon fill="#63b8ff" stroke="#63b8ff" points="79.93,-18.5 89.93,-15 79.93,-11.5 79.93,-18.5"/>
</g>
<!-- Node3 -->
<g id="node3" class="node">
<title>Node3</title>
<g id="a_node3"><a xlink:href="classalpaqa_1_1LimitedMemoryQR.html#a0bf0ad441ec87440e4525e75de00d053" target="_top" xlink:title="Get iterators in the circular buffer.">
<polygon fill="white" stroke="#666666" points="420,-30 273,-30 273,0 420,0 420,-30"/>
<text text-anchor="start" x="281" y="-18" font-family="Helvetica,sans-Serif" font-size="10.00">alpaqa::LimitedMemoryQR</text>
<text text-anchor="middle" x="346.5" y="-7" font-family="Helvetica,sans-Serif" font-size="10.00">::ring_iter</text>
</a>
</g>
</g>
<!-- Node2&#45;&gt;Node3 -->
<g id="edge2" class="edge">
<title>Node2&#45;&gt;Node3</title>
<path fill="none" stroke="#63b8ff" d="M237.08,-15C245.56,-15 254.26,-15 262.87,-15"/>
<polygon fill="#63b8ff" stroke="#63b8ff" points="262.91,-18.5 272.91,-15 262.91,-11.5 262.91,-18.5"/>
</g>
<!-- Node4 -->
<g id="node4" class="node">
<title>Node4</title>
<g id="a_node4"><a xlink:href="classalpaqa_1_1LimitedMemoryQR.html#ac397ae83f5f4dd3d5cf9926f26acfb2d" target="_top" xlink:title=" ">
<polygon fill="white" stroke="#666666" points="619,-24.5 456,-24.5 456,-5.5 619,-5.5 619,-24.5"/>
<text text-anchor="middle" x="537.5" y="-12.5" font-family="Helvetica,sans-Serif" font-size="10.00">alpaqa::LimitedMemoryQR::m</text>
</a>
</g>
</g>
<!-- Node3&#45;&gt;Node4 -->
<g id="edge3" class="edge">
<title>Node3&#45;&gt;Node4</title>
<path fill="none" stroke="#63b8ff" d="M420.03,-15C428.49,-15 437.19,-15 445.85,-15"/>
<polygon fill="#63b8ff" stroke="#63b8ff" points="445.98,-18.5 455.98,-15 445.98,-11.5 445.98,-18.5"/>
</g>
</g>
</svg>
