<?xml version="1.0" encoding="UTF-8" standalone="no"?>
<!DOCTYPE svg PUBLIC "-//W3C//DTD SVG 1.1//EN"
 "http://www.w3.org/Graphics/SVG/1.1/DTD/svg11.dtd">
<!-- Generated by graphviz version 2.43.0 (0)
 -->
<!-- Title: provides_get_box_D Pages: 1 -->
<svg width="419pt" height="134pt"
 viewBox="0.00 0.00 419.00 134.00" xmlns="http://www.w3.org/2000/svg" xmlns:xlink="http://www.w3.org/1999/xlink">
<g id="graph0" class="graph" transform="scale(1 1) rotate(0) translate(4 130)">
<title>provides_get_box_D</title>
<!-- Node1 -->
<g id="node1" class="node">
<title>Node1</title>
<g id="a_node1"><a xlink:title="Returns true if the problem provides an implementation of get_box_D.">
<polygon fill="#999999" stroke="#666666" points="411,-72.5 295,-72.5 295,-53.5 411,-53.5 411,-72.5"/>
<text text-anchor="middle" x="353" y="-60.5" font-family="Helvetica,sans-Serif" font-size="10.00">provides_get_box_D</text>
</a>
</g>
</g>
<!-- Node2 -->
<g id="node2" class="node">
<title>Node2</title>
<g id="a_node2"><a xlink:href="structalpaqa_1_1StructuredLBFGSDirection.html#abef09c52cdc391877cde2c5825fe65e6" target="_top" xlink:title=" ">
<polygon fill="white" stroke="#666666" points="259,-126 77,-126 77,-96 259,-96 259,-126"/>
<text text-anchor="start" x="85" y="-114" font-family="Helvetica,sans-Serif" font-size="10.00">alpaqa::StructuredLBFGSDirection</text>
<text text-anchor="middle" x="168" y="-103" font-family="Helvetica,sans-Serif" font-size="10.00">::initialize</text>
</a>
</g>
</g>
<!-- Node1&#45;&gt;Node2 -->
<g id="edge1" class="edge">
<title>Node1&#45;&gt;Node2</title>
<path fill="none" stroke="#63b8ff" d="M305.47,-75.2C281.43,-81.51 251.88,-89.26 226.43,-95.94"/>
<polygon fill="#63b8ff" stroke="#63b8ff" points="306.62,-78.52 315.41,-72.6 304.85,-71.75 306.62,-78.52"/>
</g>
<!-- Node3 -->
<g id="node3" class="node">
<title>Node3</title>
<g id="a_node3"><a xlink:href="structalpaqa_1_1StructuredNewtonDirection.html#abef09c52cdc391877cde2c5825fe65e6" target="_top" xlink:title=" ">
<polygon fill="white" stroke="#666666" points="239.5,-78 96.5,-78 96.5,-48 239.5,-48 239.5,-78"/>
<text text-anchor="start" x="104.5" y="-66" font-family="Helvetica,sans-Serif" font-size="10.00">alpaqa::StructuredNewton</text>
<text text-anchor="middle" x="168" y="-55" font-family="Helvetica,sans-Serif" font-size="10.00">Direction::initialize</text>
</a>
</g>
</g>
<!-- Node1&#45;&gt;Node3 -->
<g id="edge2" class="edge">
<title>Node1&#45;&gt;Node3</title>
<path fill="none" stroke="#63b8ff" d="M284.81,-63C270.07,-63 254.43,-63 239.56,-63"/>
<polygon fill="#63b8ff" stroke="#63b8ff" points="284.85,-66.5 294.85,-63 284.85,-59.5 284.85,-66.5"/>
</g>
<!-- Node4 -->
<g id="node4" class="node">
<title>Node4</title>
<g id="a_node4"><a xlink:href="group__grp__Problems.html#ga9ed51a24b30020b93df728547026f370" target="_top" xlink:title=" ">
<polygon fill="white" stroke="#666666" points="231,-30 105,-30 105,0 231,0 231,-30"/>
<text text-anchor="start" x="113" y="-18" font-family="Helvetica,sans-Serif" font-size="10.00">alpaqa::print_provided</text>
<text text-anchor="middle" x="168" y="-7" font-family="Helvetica,sans-Serif" font-size="10.00">_functions</text>
</a>
</g>
</g>
<!-- Node1&#45;&gt;Node4 -->
<g id="edge3" class="edge">
<title>Node1&#45;&gt;Node4</title>
<path fill="none" stroke="#63b8ff" d="M305.47,-50.8C281.43,-44.49 251.88,-36.74 226.43,-30.06"/>
<polygon fill="#63b8ff" stroke="#63b8ff" points="304.85,-54.25 315.41,-53.4 306.62,-47.48 304.85,-54.25"/>
</g>
<!-- Node5 -->
<g id="node5" class="node">
<title>Node5</title>
<g id="a_node5"><a xlink:href="alpaqa-driver_8cpp.html#ac0f2228420376f4db7e1274f2b41667c" target="_top" xlink:title=" ">
<polygon fill="white" stroke="#666666" points="41,-24.5 0,-24.5 0,-5.5 41,-5.5 41,-24.5"/>
<text text-anchor="middle" x="20.5" y="-12.5" font-family="Helvetica,sans-Serif" font-size="10.00">main</text>
</a>
</g>
</g>
<!-- Node4&#45;&gt;Node5 -->
<g id="edge4" class="edge">
<title>Node4&#45;&gt;Node5</title>
<path fill="none" stroke="#63b8ff" d="M94.63,-15C74.97,-15 55.28,-15 41.29,-15"/>
<polygon fill="#63b8ff" stroke="#63b8ff" points="94.87,-18.5 104.87,-15 94.87,-11.5 94.87,-18.5"/>
</g>
</g>
</svg>
