<?xml version="1.0" encoding="UTF-8" standalone="no"?>
<!DOCTYPE svg PUBLIC "-//W3C//DTD SVG 1.1//EN"
 "http://www.w3.org/Graphics/SVG/1.1/DTD/svg11.dtd">
<!-- Generated by graphviz version 2.43.0 (0)
 -->
<!-- Title: resize Pages: 1 -->
<svg width="436pt" height="117pt"
 viewBox="0.00 0.00 436.00 116.50" xmlns="http://www.w3.org/2000/svg" xmlns:xlink="http://www.w3.org/1999/xlink">
<g id="graph0" class="graph" transform="scale(1 1) rotate(0) translate(4 112.5)">
<title>resize</title>
<!-- Node1 -->
<g id="node1" class="node">
<title>Node1</title>
<g id="a_node1"><a xlink:title="Change the problem dimension.">
<polygon fill="#999999" stroke="#666666" points="46,-86.5 0,-86.5 0,-67.5 46,-67.5 46,-86.5"/>
<text text-anchor="middle" x="23" y="-74.5" font-family="Helvetica,sans-Serif" font-size="10.00">resize</text>
</a>
</g>
</g>
<!-- Node2 -->
<g id="node2" class="node">
<title>Node2</title>
<g id="a_node2"><a xlink:href="classalpaqa_1_1AndersonAccel.html#a727afc7a58d2e44ae7add57e3fa77bc6" target="_top" xlink:title="Get the problem dimension.">
<polygon fill="white" stroke="#666666" points="170,-108.5 141,-108.5 141,-89.5 170,-89.5 170,-108.5"/>
<text text-anchor="middle" x="155.5" y="-96.5" font-family="Helvetica,sans-Serif" font-size="10.00">n</text>
</a>
</g>
</g>
<!-- Node1&#45;&gt;Node2 -->
<g id="edge1" class="edge">
<title>Node1&#45;&gt;Node2</title>
<path fill="none" stroke="#63b8ff" d="M46.14,-80.73C69.6,-84.69 106.51,-90.91 130.61,-94.97"/>
<polygon fill="#63b8ff" stroke="#63b8ff" points="130.25,-98.46 140.69,-96.67 131.41,-91.56 130.25,-98.46"/>
</g>
<!-- Node4 -->
<g id="node4" class="node">
<title>Node4</title>
<g id="a_node4"><a xlink:href="classalpaqa_1_1LimitedMemoryQR.html#ad15543203799d1dccb5a5e1c572e3f02" target="_top" xlink:title="Re&#45;allocate storage for a problem with a different size.">
<polygon fill="white" stroke="#666666" points="229,-71 82,-71 82,-41 229,-41 229,-71"/>
<text text-anchor="start" x="90" y="-59" font-family="Helvetica,sans-Serif" font-size="10.00">alpaqa::LimitedMemoryQR</text>
<text text-anchor="middle" x="155.5" y="-48" font-family="Helvetica,sans-Serif" font-size="10.00">::resize</text>
</a>
</g>
</g>
<!-- Node1&#45;&gt;Node4 -->
<g id="edge3" class="edge">
<title>Node1&#45;&gt;Node4</title>
<path fill="none" stroke="#63b8ff" d="M46.14,-73.44C53.64,-72.23 62.52,-70.8 71.91,-69.29"/>
<polygon fill="#63b8ff" stroke="#63b8ff" points="72.54,-72.73 81.86,-67.69 71.43,-65.82 72.54,-72.73"/>
</g>
<!-- Node3 -->
<g id="node3" class="node">
<title>Node3</title>
<g id="a_node3"><a xlink:href="classalpaqa_1_1LimitedMemoryQR.html#a727afc7a58d2e44ae7add57e3fa77bc6" target="_top" xlink:title=" ">
<polygon fill="white" stroke="#666666" points="426,-107.5 267,-107.5 267,-88.5 426,-88.5 426,-107.5"/>
<text text-anchor="middle" x="346.5" y="-95.5" font-family="Helvetica,sans-Serif" font-size="10.00">alpaqa::LimitedMemoryQR::n</text>
</a>
</g>
</g>
<!-- Node2&#45;&gt;Node3 -->
<g id="edge2" class="edge">
<title>Node2&#45;&gt;Node3</title>
<path fill="none" stroke="#63b8ff" d="M170.09,-98.93C188.5,-98.83 222.92,-98.65 256.43,-98.47"/>
<polygon fill="#63b8ff" stroke="#63b8ff" points="256.8,-101.97 266.78,-98.42 256.77,-94.97 256.8,-101.97"/>
</g>
<!-- Node4&#45;&gt;Node3 -->
<g id="edge5" class="edge">
<title>Node4&#45;&gt;Node3</title>
<path fill="none" stroke="#63b8ff" d="M224.2,-71.04C246.79,-76.06 271.6,-81.58 292.86,-86.3"/>
<polygon fill="#63b8ff" stroke="#63b8ff" points="292.16,-89.73 302.68,-88.48 293.68,-82.9 292.16,-89.73"/>
</g>
<!-- Node5 -->
<g id="node5" class="node">
<title>Node5</title>
<g id="a_node5"><a xlink:href="classalpaqa_1_1LimitedMemoryQR.html#ac397ae83f5f4dd3d5cf9926f26acfb2d" target="_top" xlink:title=" ">
<polygon fill="white" stroke="#666666" points="428,-67.5 265,-67.5 265,-48.5 428,-48.5 428,-67.5"/>
<text text-anchor="middle" x="346.5" y="-55.5" font-family="Helvetica,sans-Serif" font-size="10.00">alpaqa::LimitedMemoryQR::m</text>
</a>
</g>
</g>
<!-- Node4&#45;&gt;Node5 -->
<g id="edge4" class="edge">
<title>Node4&#45;&gt;Node5</title>
<path fill="none" stroke="#63b8ff" d="M229.03,-56.77C237.49,-56.86 246.19,-56.95 254.85,-57.04"/>
<polygon fill="#63b8ff" stroke="#63b8ff" points="254.94,-60.54 264.98,-57.15 255.02,-53.54 254.94,-60.54"/>
</g>
<!-- Node6 -->
<g id="node6" class="node">
<title>Node6</title>
<g id="a_node6"><a xlink:href="classalpaqa_1_1LimitedMemoryQR.html#ad20897c5c8bd47f5d4005989bead0e55" target="_top" xlink:title="Reset all indices, clearing the Q and R matrices.">
<polygon fill="white" stroke="#666666" points="420,-30 273,-30 273,0 420,0 420,-30"/>
<text text-anchor="start" x="281" y="-18" font-family="Helvetica,sans-Serif" font-size="10.00">alpaqa::LimitedMemoryQR</text>
<text text-anchor="middle" x="346.5" y="-7" font-family="Helvetica,sans-Serif" font-size="10.00">::reset</text>
</a>
</g>
</g>
<!-- Node4&#45;&gt;Node6 -->
<g id="edge6" class="edge">
<title>Node4&#45;&gt;Node6</title>
<path fill="none" stroke="#63b8ff" d="M225.8,-40.97C238.9,-38.12 252.69,-35.13 266.07,-32.23"/>
<polygon fill="#63b8ff" stroke="#63b8ff" points="267.17,-35.57 276.2,-30.03 265.69,-28.73 267.17,-35.57"/>
</g>
</g>
</svg>
