<?xml version="1.0" encoding="UTF-8" standalone="no"?>
<!DOCTYPE svg PUBLIC "-//W3C//DTD SVG 1.1//EN"
 "http://www.w3.org/Graphics/SVG/1.1/DTD/svg11.dtd">
<!-- Generated by graphviz version 2.43.0 (0)
 -->
<!-- Title: read_row Pages: 1 -->
<svg width="476pt" height="86pt"
 viewBox="0.00 0.00 476.00 86.00" xmlns="http://www.w3.org/2000/svg" xmlns:xlink="http://www.w3.org/1999/xlink">
<g id="graph0" class="graph" transform="scale(1 1) rotate(0) translate(4 82)">
<title>read_row</title>
<!-- Node1 -->
<g id="node1" class="node">
<title>Node1</title>
<g id="a_node1"><a xlink:title=" ">
<polygon fill="#999999" stroke="#666666" points="468,-48.5 406,-48.5 406,-29.5 468,-29.5 468,-48.5"/>
<text text-anchor="middle" x="437" y="-36.5" font-family="Helvetica,sans-Serif" font-size="10.00">read_row</text>
</a>
</g>
</g>
<!-- Node2 -->
<g id="node2" class="node">
<title>Node2</title>
<g id="a_node2"><a xlink:href="classalpaqa_1_1CasADiControlProblem.html#a4f1c7c649deebd8f69fd65ebc8ec3a4a" target="_top" xlink:title="Load the numerical problem data (bounds and parameters) from a CSV file.">
<polygon fill="white" stroke="#666666" points="370,-78 203,-78 203,-48 370,-48 370,-78"/>
<text text-anchor="start" x="211" y="-66" font-family="Helvetica,sans-Serif" font-size="10.00">alpaqa::CasADiControlProblem</text>
<text text-anchor="middle" x="286.5" y="-55" font-family="Helvetica,sans-Serif" font-size="10.00">::load_numerical_data</text>
</a>
</g>
</g>
<!-- Node1&#45;&gt;Node2 -->
<g id="edge1" class="edge">
<title>Node1&#45;&gt;Node2</title>
<path fill="none" stroke="#63b8ff" d="M396.06,-45.46C387.91,-46.77 379.07,-48.2 370.06,-49.66"/>
<polygon fill="#63b8ff" stroke="#63b8ff" points="396.64,-48.91 405.95,-43.86 395.52,-42 396.64,-48.91"/>
</g>
<!-- Node4 -->
<g id="node4" class="node">
<title>Node4</title>
<g id="a_node4"><a xlink:href="classalpaqa_1_1CasADiProblem.html#a4f1c7c649deebd8f69fd65ebc8ec3a4a" target="_top" xlink:title="Load the numerical problem data (bounds and parameters) from a CSV file.">
<polygon fill="white" stroke="#666666" points="352,-30 221,-30 221,0 352,0 352,-30"/>
<text text-anchor="start" x="229" y="-18" font-family="Helvetica,sans-Serif" font-size="10.00">alpaqa::CasADiProblem</text>
<text text-anchor="middle" x="286.5" y="-7" font-family="Helvetica,sans-Serif" font-size="10.00">::load_numerical_data</text>
</a>
</g>
</g>
<!-- Node1&#45;&gt;Node4 -->
<g id="edge3" class="edge">
<title>Node1&#45;&gt;Node4</title>
<path fill="none" stroke="#63b8ff" d="M396.04,-32.54C382.53,-30.36 367.08,-27.86 352.16,-25.45"/>
<polygon fill="#63b8ff" stroke="#63b8ff" points="395.52,-36 405.95,-34.14 396.64,-29.09 395.52,-36"/>
</g>
<!-- Node3 -->
<g id="node3" class="node">
<title>Node3</title>
<g id="a_node3"><a xlink:href="classalpaqa_1_1CasADiControlProblem.html#a1e7c097757f5b1b604b76dbf0895793e" target="_top" xlink:title=" ">
<polygon fill="white" stroke="#666666" points="167,-78 0,-78 0,-48 167,-48 167,-78"/>
<text text-anchor="start" x="8" y="-66" font-family="Helvetica,sans-Serif" font-size="10.00">alpaqa::CasADiControlProblem</text>
<text text-anchor="middle" x="83.5" y="-55" font-family="Helvetica,sans-Serif" font-size="10.00">::CasADiControlProblem</text>
</a>
</g>
</g>
<!-- Node2&#45;&gt;Node3 -->
<g id="edge2" class="edge">
<title>Node2&#45;&gt;Node3</title>
<path fill="none" stroke="#63b8ff" d="M192.85,-63C184.27,-63 175.61,-63 167.13,-63"/>
<polygon fill="#63b8ff" stroke="#63b8ff" points="192.88,-66.5 202.88,-63 192.88,-59.5 192.88,-66.5"/>
</g>
</g>
</svg>
