<?xml version="1.0" encoding="UTF-8" standalone="no"?>
<!DOCTYPE svg PUBLIC "-//W3C//DTD SVG 1.1//EN"
 "http://www.w3.org/Graphics/SVG/1.1/DTD/svg11.dtd">
<!-- Generated by graphviz version 2.43.0 (0)
 -->
<!-- Title: src/alpaqa/include/alpaqa/inner/directions/panoc&#45;direction&#45;update.hpp Pages: 1 -->
<svg width="2082pt" height="357pt"
 viewBox="0.00 0.00 2082.00 357.00" xmlns="http://www.w3.org/2000/svg" xmlns:xlink="http://www.w3.org/1999/xlink">
<g id="graph0" class="graph" transform="scale(1 1) rotate(0) translate(4 353)">
<title>src/alpaqa/include/alpaqa/inner/directions/panoc&#45;direction&#45;update.hpp</title>
<!-- Node1 -->
<g id="node1" class="node">
<title>Node1</title>
<g id="a_node1"><a xlink:title=" ">
<polygon fill="#999999" stroke="#666666" points="1072,-349 918,-349 918,-308 1072,-308 1072,-349"/>
<text text-anchor="start" x="926" y="-337" font-family="Helvetica,sans-Serif" font-size="10.00">src/alpaqa/include</text>
<text text-anchor="start" x="926" y="-326" font-family="Helvetica,sans-Serif" font-size="10.00">/alpaqa/inner/directions</text>
<text text-anchor="middle" x="995" y="-315" font-family="Helvetica,sans-Serif" font-size="10.00">/panoc&#45;direction&#45;update.hpp</text>
</a>
</g>
</g>
<!-- Node2 -->
<g id="node2" class="node">
<title>Node2</title>
<g id="a_node2"><a xlink:href="inner_2directions_2panoc_2anderson_8hpp.html" target="_top" xlink:title=" ">
<polygon fill="white" stroke="#666666" points="986.5,-272 855.5,-272 855.5,-231 986.5,-231 986.5,-272"/>
<text text-anchor="start" x="863.5" y="-260" font-family="Helvetica,sans-Serif" font-size="10.00">src/alpaqa/include</text>
<text text-anchor="start" x="863.5" y="-249" font-family="Helvetica,sans-Serif" font-size="10.00">/alpaqa/inner/directions</text>
<text text-anchor="middle" x="921" y="-238" font-family="Helvetica,sans-Serif" font-size="10.00">/panoc/anderson.hpp</text>
</a>
</g>
</g>
<!-- Node1&#45;&gt;Node2 -->
<g id="edge1" class="edge">
<title>Node1&#45;&gt;Node2</title>
<path fill="none" stroke="#63b8ff" d="M968.37,-300.51C959.1,-291.11 948.88,-280.76 940.31,-272.07"/>
<polygon fill="#63b8ff" stroke="#63b8ff" points="966.04,-303.13 975.56,-307.79 971.03,-298.22 966.04,-303.13"/>
</g>
<!-- Node9 -->
<g id="node9" class="node">
<title>Node9</title>
<g id="a_node9"><a xlink:href="inner_2directions_2panoc_2lbfgs_8hpp.html" target="_top" xlink:title=" ">
<polygon fill="white" stroke="#666666" points="1135.5,-272 1004.5,-272 1004.5,-231 1135.5,-231 1135.5,-272"/>
<text text-anchor="start" x="1012.5" y="-260" font-family="Helvetica,sans-Serif" font-size="10.00">src/alpaqa/include</text>
<text text-anchor="start" x="1012.5" y="-249" font-family="Helvetica,sans-Serif" font-size="10.00">/alpaqa/inner/directions</text>
<text text-anchor="middle" x="1070" y="-238" font-family="Helvetica,sans-Serif" font-size="10.00">/panoc/lbfgs.hpp</text>
</a>
</g>
</g>
<!-- Node1&#45;&gt;Node9 -->
<g id="edge8" class="edge">
<title>Node1&#45;&gt;Node9</title>
<path fill="none" stroke="#63b8ff" d="M1021.99,-300.51C1031.39,-291.11 1041.74,-280.76 1050.43,-272.07"/>
<polygon fill="#63b8ff" stroke="#63b8ff" points="1019.3,-298.25 1014.71,-307.79 1024.25,-303.2 1019.3,-298.25"/>
</g>
<!-- Node15 -->
<g id="node15" class="node">
<title>Node15</title>
<g id="a_node15"><a xlink:href="structured-lbfgs_8hpp.html" target="_top" xlink:title=" ">
<polygon fill="white" stroke="#666666" points="1311,-272 1161,-272 1161,-231 1311,-231 1311,-272"/>
<text text-anchor="start" x="1169" y="-260" font-family="Helvetica,sans-Serif" font-size="10.00">src/alpaqa/include</text>
<text text-anchor="start" x="1169" y="-249" font-family="Helvetica,sans-Serif" font-size="10.00">/alpaqa/inner/directions</text>
<text text-anchor="middle" x="1236" y="-238" font-family="Helvetica,sans-Serif" font-size="10.00">/panoc/structured&#45;lbfgs.hpp</text>
</a>
</g>
</g>
<!-- Node1&#45;&gt;Node15 -->
<g id="edge16" class="edge">
<title>Node1&#45;&gt;Node15</title>
<path fill="none" stroke="#63b8ff" d="M1067.48,-304.94C1101.16,-294.46 1140.82,-282.12 1173.2,-272.04"/>
<polygon fill="#63b8ff" stroke="#63b8ff" points="1066.2,-301.68 1057.69,-307.99 1068.28,-308.36 1066.2,-301.68"/>
</g>
<!-- Node22 -->
<g id="node22" class="node">
<title>Node22</title>
<g id="a_node22"><a xlink:href="structured-newton_8hpp.html" target="_top" xlink:title=" ">
<polygon fill="white" stroke="#666666" points="237,-189.5 75,-189.5 75,-148.5 237,-148.5 237,-189.5"/>
<text text-anchor="start" x="83" y="-177.5" font-family="Helvetica,sans-Serif" font-size="10.00">src/alpaqa/include</text>
<text text-anchor="start" x="83" y="-166.5" font-family="Helvetica,sans-Serif" font-size="10.00">/alpaqa/inner/directions</text>
<text text-anchor="middle" x="156" y="-155.5" font-family="Helvetica,sans-Serif" font-size="10.00">/panoc/structured&#45;newton.hpp</text>
</a>
</g>
</g>
<!-- Node1&#45;&gt;Node22 -->
<g id="edge27" class="edge">
<title>Node1&#45;&gt;Node22</title>
<path fill="none" stroke="#63b8ff" d="M907.7,-314.84C767.41,-293.87 483.46,-248.85 246,-195 238.73,-193.35 231.16,-191.49 223.64,-189.54"/>
<polygon fill="#63b8ff" stroke="#63b8ff" points="907.55,-318.35 917.96,-316.37 908.58,-311.43 907.55,-318.35"/>
</g>
<!-- Node24 -->
<g id="node24" class="node">
<title>Node24</title>
<g id="a_node24"><a xlink:href="panoc_8hpp.html" target="_top" xlink:title=" ">
<polygon fill="white" stroke="#666666" points="829,-266.5 695,-266.5 695,-236.5 829,-236.5 829,-266.5"/>
<text text-anchor="start" x="703" y="-254.5" font-family="Helvetica,sans-Serif" font-size="10.00">src/alpaqa/include</text>
<text text-anchor="middle" x="762" y="-243.5" font-family="Helvetica,sans-Serif" font-size="10.00">/alpaqa/inner/panoc.hpp</text>
</a>
</g>
</g>
<!-- Node1&#45;&gt;Node24 -->
<g id="edge30" class="edge">
<title>Node1&#45;&gt;Node24</title>
<path fill="none" stroke="#63b8ff" d="M924.74,-304.88C886.04,-292.43 839.22,-277.36 805.75,-266.58"/>
<polygon fill="#63b8ff" stroke="#63b8ff" points="923.8,-308.26 934.39,-307.99 925.94,-301.59 923.8,-308.26"/>
</g>
<!-- Node30 -->
<g id="node30" class="node">
<title>Node30</title>
<g id="a_node30"><a xlink:href="zerofpr_8hpp.html" target="_top" xlink:title=" ">
<polygon fill="white" stroke="#666666" points="1610,-266.5 1472,-266.5 1472,-236.5 1610,-236.5 1610,-266.5"/>
<text text-anchor="start" x="1480" y="-254.5" font-family="Helvetica,sans-Serif" font-size="10.00">src/alpaqa/include</text>
<text text-anchor="middle" x="1541" y="-243.5" font-family="Helvetica,sans-Serif" font-size="10.00">/alpaqa/inner/zerofpr.hpp</text>
</a>
</g>
</g>
<!-- Node1&#45;&gt;Node30 -->
<g id="edge47" class="edge">
<title>Node1&#45;&gt;Node30</title>
<path fill="none" stroke="#63b8ff" d="M1082.3,-315.51C1190.46,-300.65 1372.56,-275.64 1471.66,-262.02"/>
<polygon fill="#63b8ff" stroke="#63b8ff" points="1081.5,-312.09 1072.07,-316.91 1082.45,-319.02 1081.5,-312.09"/>
</g>
<!-- Node3 -->
<g id="node3" class="node">
<title>Node3</title>
<g id="a_node3"><a xlink:href="panoc-anderson-alm_8hpp.html" target="_top" xlink:title=" ">
<polygon fill="white" stroke="#666666" points="541,-189.5 407,-189.5 407,-148.5 541,-148.5 541,-189.5"/>
<text text-anchor="start" x="415" y="-177.5" font-family="Helvetica,sans-Serif" font-size="10.00">src/alpaqa/include</text>
<text text-anchor="start" x="415" y="-166.5" font-family="Helvetica,sans-Serif" font-size="10.00">/alpaqa/panoc&#45;anderson</text>
<text text-anchor="middle" x="474" y="-155.5" font-family="Helvetica,sans-Serif" font-size="10.00">&#45;alm.hpp</text>
</a>
</g>
</g>
<!-- Node2&#45;&gt;Node3 -->
<g id="edge2" class="edge">
<title>Node2&#45;&gt;Node3</title>
<path fill="none" stroke="#63b8ff" d="M845.55,-232.41C843.01,-231.92 840.49,-231.45 838,-231 711.03,-208.22 675.86,-223.29 550,-195 543.22,-193.48 536.2,-191.6 529.27,-189.55"/>
<polygon fill="#63b8ff" stroke="#63b8ff" points="844.94,-235.86 855.44,-234.42 846.33,-229 844.94,-235.86"/>
</g>
<!-- Node5 -->
<g id="node5" class="node">
<title>Node5</title>
<g id="a_node5"><a xlink:href="zerofpr-anderson-alm_8hpp.html" target="_top" xlink:title=" ">
<polygon fill="white" stroke="#666666" points="1769.5,-189.5 1630.5,-189.5 1630.5,-148.5 1769.5,-148.5 1769.5,-189.5"/>
<text text-anchor="start" x="1638.5" y="-177.5" font-family="Helvetica,sans-Serif" font-size="10.00">src/alpaqa/include</text>
<text text-anchor="start" x="1638.5" y="-166.5" font-family="Helvetica,sans-Serif" font-size="10.00">/alpaqa/zerofpr&#45;anderson</text>
<text text-anchor="middle" x="1700" y="-155.5" font-family="Helvetica,sans-Serif" font-size="10.00">&#45;alm.hpp</text>
</a>
</g>
</g>
<!-- Node2&#45;&gt;Node5 -->
<g id="edge4" class="edge">
<title>Node2&#45;&gt;Node5</title>
<path fill="none" stroke="#63b8ff" d="M996.62,-231.1C1273.13,-189.08 1351.22,-245.34 1622,-195 1629.55,-193.6 1637.38,-191.67 1645.05,-189.51"/>
<polygon fill="#63b8ff" stroke="#63b8ff" points="996.04,-227.65 986.7,-232.64 997.11,-234.57 996.04,-227.65"/>
</g>
<!-- Node7 -->
<g id="node7" class="node">
<title>Node7</title>
<g id="a_node7"><a xlink:href="panoc-driver_8cpp.html" target="_top" xlink:title=" ">
<polygon fill="white" stroke="#666666" points="1223,-184 1107,-184 1107,-154 1223,-154 1223,-184"/>
<text text-anchor="start" x="1115" y="-172" font-family="Helvetica,sans-Serif" font-size="10.00">src/alpaqa/src/driver</text>
<text text-anchor="middle" x="1165" y="-161" font-family="Helvetica,sans-Serif" font-size="10.00">/panoc&#45;driver.cpp</text>
</a>
</g>
</g>
<!-- Node2&#45;&gt;Node7 -->
<g id="edge6" class="edge">
<title>Node2&#45;&gt;Node7</title>
<path fill="none" stroke="#63b8ff" d="M996.04,-227.94C1027.64,-218.19 1064.73,-206.41 1098,-195 1107.86,-191.62 1118.47,-187.76 1128.27,-184.11"/>
<polygon fill="#63b8ff" stroke="#63b8ff" points="994.95,-224.61 986.42,-230.9 997.01,-231.3 994.95,-224.61"/>
</g>
<!-- Node8 -->
<g id="node8" class="node">
<title>Node8</title>
<g id="a_node8"><a xlink:href="params_8cpp.html" target="_top" xlink:title=" ">
<polygon fill="white" stroke="#666666" points="972,-101.5 848,-101.5 848,-71.5 972,-71.5 972,-101.5"/>
<text text-anchor="start" x="856" y="-89.5" font-family="Helvetica,sans-Serif" font-size="10.00">src/alpaqa/src/params</text>
<text text-anchor="middle" x="910" y="-78.5" font-family="Helvetica,sans-Serif" font-size="10.00">/params.cpp</text>
</a>
</g>
</g>
<!-- Node2&#45;&gt;Node8 -->
<g id="edge7" class="edge">
<title>Node2&#45;&gt;Node8</title>
<path fill="none" stroke="#63b8ff" d="M913.38,-220.87C911.57,-212.56 909.91,-203.48 909,-195 905.45,-161.78 907.35,-122.46 908.82,-101.81"/>
<polygon fill="#63b8ff" stroke="#63b8ff" points="910.03,-221.93 915.69,-230.89 916.85,-220.36 910.03,-221.93"/>
</g>
<!-- Node4 -->
<g id="node4" class="node">
<title>Node4</title>
<g id="a_node4"><a xlink:href="panoc-anderson-alm_8cpp.html" target="_top" xlink:title=" ">
<polygon fill="white" stroke="#666666" points="416,-101.5 300,-101.5 300,-71.5 416,-71.5 416,-101.5"/>
<text text-anchor="start" x="308" y="-89.5" font-family="Helvetica,sans-Serif" font-size="10.00">src/alpaqa/src/panoc</text>
<text text-anchor="middle" x="358" y="-78.5" font-family="Helvetica,sans-Serif" font-size="10.00">&#45;anderson&#45;alm.cpp</text>
</a>
</g>
</g>
<!-- Node3&#45;&gt;Node4 -->
<g id="edge3" class="edge">
<title>Node3&#45;&gt;Node4</title>
<path fill="none" stroke="#63b8ff" d="M437.27,-142.51C417.83,-129.02 394.69,-112.96 378.45,-101.69"/>
<polygon fill="#63b8ff" stroke="#63b8ff" points="435.41,-145.48 445.62,-148.31 439.4,-139.73 435.41,-145.48"/>
</g>
<!-- Node6 -->
<g id="node6" class="node">
<title>Node6</title>
<g id="a_node6"><a xlink:href="zerofpr-anderson-alm_8cpp.html" target="_top" xlink:title=" ">
<polygon fill="white" stroke="#666666" points="1771,-101.5 1649,-101.5 1649,-71.5 1771,-71.5 1771,-101.5"/>
<text text-anchor="start" x="1657" y="-89.5" font-family="Helvetica,sans-Serif" font-size="10.00">src/alpaqa/src/zerofpr</text>
<text text-anchor="middle" x="1710" y="-78.5" font-family="Helvetica,sans-Serif" font-size="10.00">&#45;anderson&#45;alm.cpp</text>
</a>
</g>
</g>
<!-- Node5&#45;&gt;Node6 -->
<g id="edge5" class="edge">
<title>Node5&#45;&gt;Node6</title>
<path fill="none" stroke="#63b8ff" d="M1703.71,-138.13C1705.25,-125.73 1706.97,-111.93 1708.22,-101.87"/>
<polygon fill="#63b8ff" stroke="#63b8ff" points="1700.23,-137.75 1702.47,-148.1 1707.18,-138.61 1700.23,-137.75"/>
</g>
<!-- Node9&#45;&gt;Node7 -->
<g id="edge14" class="edge">
<title>Node9&#45;&gt;Node7</title>
<path fill="none" stroke="#63b8ff" d="M1101.4,-223.9C1117.07,-210.61 1135.4,-195.08 1148.34,-184.12"/>
<polygon fill="#63b8ff" stroke="#63b8ff" points="1098.85,-221.47 1093.48,-230.6 1103.38,-226.81 1098.85,-221.47"/>
</g>
<!-- Node9&#45;&gt;Node8 -->
<g id="edge15" class="edge">
<title>Node9&#45;&gt;Node8</title>
<path fill="none" stroke="#63b8ff" d="M1002.76,-227.27C976.72,-217.09 951.02,-205.17 942,-195 918.1,-168.05 912.03,-123.91 910.5,-101.5"/>
<polygon fill="#63b8ff" stroke="#63b8ff" points="1001.74,-230.63 1012.33,-230.93 1004.24,-224.09 1001.74,-230.63"/>
</g>
<!-- Node10 -->
<g id="node10" class="node">
<title>Node10</title>
<g id="a_node10"><a xlink:href="panoc-alm_8hpp.html" target="_top" xlink:title=" ">
<polygon fill="white" stroke="#666666" points="687,-184 559,-184 559,-154 687,-154 687,-184"/>
<text text-anchor="start" x="567" y="-172" font-family="Helvetica,sans-Serif" font-size="10.00">src/alpaqa/include</text>
<text text-anchor="middle" x="623" y="-161" font-family="Helvetica,sans-Serif" font-size="10.00">/alpaqa/panoc&#45;alm.hpp</text>
</a>
</g>
</g>
<!-- Node9&#45;&gt;Node10 -->
<g id="edge9" class="edge">
<title>Node9&#45;&gt;Node10</title>
<path fill="none" stroke="#63b8ff" d="M994.28,-230.81C862.67,-206.77 824.35,-223.85 697,-195 684.7,-192.21 671.57,-188.15 659.84,-184.11"/>
<polygon fill="#63b8ff" stroke="#63b8ff" points="993.87,-234.3 1004.34,-232.7 995.16,-227.41 993.87,-234.3"/>
</g>
<!-- Node13 -->
<g id="node13" class="node">
<title>Node13</title>
<g id="a_node13"><a xlink:href="zerofpr-alm_8hpp.html" target="_top" xlink:title=" ">
<polygon fill="white" stroke="#666666" points="2074,-184 1940,-184 1940,-154 2074,-154 2074,-184"/>
<text text-anchor="start" x="1948" y="-172" font-family="Helvetica,sans-Serif" font-size="10.00">src/alpaqa/include</text>
<text text-anchor="middle" x="2007" y="-161" font-family="Helvetica,sans-Serif" font-size="10.00">/alpaqa/zerofpr&#45;alm.hpp</text>
</a>
</g>
</g>
<!-- Node9&#45;&gt;Node13 -->
<g id="edge12" class="edge">
<title>Node9&#45;&gt;Node13</title>
<path fill="none" stroke="#63b8ff" d="M1145.65,-231.97C1147.79,-231.62 1149.91,-231.29 1152,-231 1495.21,-182.7 1590.13,-257.73 1931,-195 1944.25,-192.56 1958.37,-188.38 1970.8,-184.13"/>
<polygon fill="#63b8ff" stroke="#63b8ff" points="1144.82,-228.56 1135.59,-233.76 1146.04,-235.45 1144.82,-228.56"/>
</g>
<!-- Node11 -->
<g id="node11" class="node">
<title>Node11</title>
<g id="a_node11"><a xlink:href="alpaqa_8hpp.html" target="_top" xlink:title=" ">
<polygon fill="white" stroke="#666666" points="678,-101.5 568,-101.5 568,-71.5 678,-71.5 678,-101.5"/>
<text text-anchor="start" x="576" y="-89.5" font-family="Helvetica,sans-Serif" font-size="10.00">src/alpaqa/include</text>
<text text-anchor="middle" x="623" y="-78.5" font-family="Helvetica,sans-Serif" font-size="10.00">/alpaqa/alpaqa.hpp</text>
</a>
</g>
</g>
<!-- Node10&#45;&gt;Node11 -->
<g id="edge10" class="edge">
<title>Node10&#45;&gt;Node11</title>
<path fill="none" stroke="#63b8ff" d="M623,-143.74C623,-129.98 623,-113.25 623,-101.63"/>
<polygon fill="#63b8ff" stroke="#63b8ff" points="619.5,-143.98 623,-153.98 626.5,-143.98 619.5,-143.98"/>
</g>
<!-- Node12 -->
<g id="node12" class="node">
<title>Node12</title>
<g id="a_node12"><a xlink:href="panoc-alm_8cpp.html" target="_top" xlink:title=" ">
<polygon fill="white" stroke="#666666" points="550,-101.5 434,-101.5 434,-71.5 550,-71.5 550,-101.5"/>
<text text-anchor="start" x="442" y="-89.5" font-family="Helvetica,sans-Serif" font-size="10.00">src/alpaqa/src/panoc</text>
<text text-anchor="middle" x="492" y="-78.5" font-family="Helvetica,sans-Serif" font-size="10.00">&#45;alm.cpp</text>
</a>
</g>
</g>
<!-- Node10&#45;&gt;Node12 -->
<g id="edge11" class="edge">
<title>Node10&#45;&gt;Node12</title>
<path fill="none" stroke="#63b8ff" d="M591.58,-148.69C568,-134.2 536.25,-114.69 515,-101.63"/>
<polygon fill="#63b8ff" stroke="#63b8ff" points="589.83,-151.72 600.18,-153.98 593.49,-145.76 589.83,-151.72"/>
</g>
<!-- Node14 -->
<g id="node14" class="node">
<title>Node14</title>
<g id="a_node14"><a xlink:href="zerofpr-alm_8cpp.html" target="_top" xlink:title=" ">
<polygon fill="white" stroke="#666666" points="2059,-101.5 1937,-101.5 1937,-71.5 2059,-71.5 2059,-101.5"/>
<text text-anchor="start" x="1945" y="-89.5" font-family="Helvetica,sans-Serif" font-size="10.00">src/alpaqa/src/zerofpr</text>
<text text-anchor="middle" x="1998" y="-78.5" font-family="Helvetica,sans-Serif" font-size="10.00">&#45;alm.cpp</text>
</a>
</g>
</g>
<!-- Node13&#45;&gt;Node14 -->
<g id="edge13" class="edge">
<title>Node13&#45;&gt;Node14</title>
<path fill="none" stroke="#63b8ff" d="M2004.29,-143.74C2002.75,-129.98 2000.88,-113.25 1999.58,-101.63"/>
<polygon fill="#63b8ff" stroke="#63b8ff" points="2000.84,-144.43 2005.43,-153.98 2007.8,-143.65 2000.84,-144.43"/>
</g>
<!-- Node15&#45;&gt;Node7 -->
<g id="edge25" class="edge">
<title>Node15&#45;&gt;Node7</title>
<path fill="none" stroke="#63b8ff" d="M1211.61,-222.85C1200.2,-209.91 1187.08,-195.03 1177.67,-184.37"/>
<polygon fill="#63b8ff" stroke="#63b8ff" points="1209.21,-225.42 1218.45,-230.6 1214.46,-220.79 1209.21,-225.42"/>
</g>
<!-- Node15&#45;&gt;Node8 -->
<g id="edge26" class="edge">
<title>Node15&#45;&gt;Node8</title>
<path fill="none" stroke="#63b8ff" d="M1244.24,-220.68C1248.91,-196.69 1250.6,-163.68 1232,-143 1194.47,-101.27 1036.97,-118.36 982,-107 974.39,-105.43 966.39,-103.52 958.61,-101.52"/>
<polygon fill="#63b8ff" stroke="#63b8ff" points="1240.78,-220.15 1242.03,-230.67 1247.61,-221.66 1240.78,-220.15"/>
</g>
<!-- Node16 -->
<g id="node16" class="node">
<title>Node16</title>
<g id="a_node16"><a xlink:href="structured-lbfgs_8tpp.html" target="_top" xlink:title=" ">
<polygon fill="white" stroke="#666666" points="1451,-195 1317,-195 1317,-143 1451,-143 1451,-195"/>
<text text-anchor="start" x="1325" y="-183" font-family="Helvetica,sans-Serif" font-size="10.00">src/alpaqa/include</text>
<text text-anchor="start" x="1325" y="-172" font-family="Helvetica,sans-Serif" font-size="10.00">/alpaqa/implementation</text>
<text text-anchor="start" x="1325" y="-161" font-family="Helvetica,sans-Serif" font-size="10.00">/inner/directions/panoc</text>
<text text-anchor="middle" x="1384" y="-150" font-family="Helvetica,sans-Serif" font-size="10.00">/structured&#45;lbfgs.tpp</text>
</a>
</g>
</g>
<!-- Node15&#45;&gt;Node16 -->
<g id="edge17" class="edge">
<title>Node15&#45;&gt;Node16</title>
<path fill="none" stroke="#63b8ff" d="M1281.31,-225.86C1299.22,-216.11 1319.8,-204.92 1337.8,-195.13"/>
<polygon fill="#63b8ff" stroke="#63b8ff" points="1279.32,-222.95 1272.2,-230.81 1282.66,-229.1 1279.32,-222.95"/>
</g>
<!-- Node20 -->
<g id="node20" class="node">
<title>Node20</title>
<g id="a_node20"><a xlink:href="structured-panoc-alm_8hpp.html" target="_top" xlink:title=" ">
<polygon fill="white" stroke="#666666" points="1089,-189.5 951,-189.5 951,-148.5 1089,-148.5 1089,-189.5"/>
<text text-anchor="start" x="959" y="-177.5" font-family="Helvetica,sans-Serif" font-size="10.00">src/alpaqa/include</text>
<text text-anchor="start" x="959" y="-166.5" font-family="Helvetica,sans-Serif" font-size="10.00">/alpaqa/structured&#45;panoc</text>
<text text-anchor="middle" x="1020" y="-155.5" font-family="Helvetica,sans-Serif" font-size="10.00">&#45;alm.hpp</text>
</a>
</g>
</g>
<!-- Node15&#45;&gt;Node20 -->
<g id="edge21" class="edge">
<title>Node15&#45;&gt;Node20</title>
<path fill="none" stroke="#63b8ff" d="M1173.71,-227.29C1141.63,-215.33 1102.96,-200.92 1072.42,-189.54"/>
<polygon fill="#63b8ff" stroke="#63b8ff" points="1172.84,-230.7 1183.44,-230.91 1175.29,-224.14 1172.84,-230.7"/>
</g>
<!-- Node21 -->
<g id="node21" class="node">
<title>Node21</title>
<g id="a_node21"><a xlink:href="structured-zerofpr-alm_8hpp.html" target="_top" xlink:title=" ">
<polygon fill="white" stroke="#666666" points="1612.5,-189.5 1469.5,-189.5 1469.5,-148.5 1612.5,-148.5 1612.5,-189.5"/>
<text text-anchor="start" x="1477.5" y="-177.5" font-family="Helvetica,sans-Serif" font-size="10.00">src/alpaqa/include</text>
<text text-anchor="start" x="1477.5" y="-166.5" font-family="Helvetica,sans-Serif" font-size="10.00">/alpaqa/structured&#45;zerofpr</text>
<text text-anchor="middle" x="1541" y="-155.5" font-family="Helvetica,sans-Serif" font-size="10.00">&#45;alm.hpp</text>
</a>
</g>
</g>
<!-- Node15&#45;&gt;Node21 -->
<g id="edge23" class="edge">
<title>Node15&#45;&gt;Node21</title>
<path fill="none" stroke="#63b8ff" d="M1321.1,-230.61C1363.07,-220.5 1414.35,-207.69 1460,-195 1466.1,-193.31 1472.43,-191.47 1478.75,-189.6"/>
<polygon fill="#63b8ff" stroke="#63b8ff" points="1320.11,-227.25 1311.2,-232.99 1321.74,-234.06 1320.11,-227.25"/>
</g>
<!-- Node17 -->
<g id="node17" class="node">
<title>Node17</title>
<g id="a_node17"><a xlink:href="structured-lbfgs_8cpp.html" target="_top" xlink:title=" ">
<polygon fill="white" stroke="#666666" points="1457,-107 1305,-107 1305,-66 1457,-66 1457,-107"/>
<text text-anchor="start" x="1313" y="-95" font-family="Helvetica,sans-Serif" font-size="10.00">src/alpaqa/src/inner</text>
<text text-anchor="start" x="1313" y="-84" font-family="Helvetica,sans-Serif" font-size="10.00">/directions/panoc/structured</text>
<text text-anchor="middle" x="1381" y="-73" font-family="Helvetica,sans-Serif" font-size="10.00">&#45;lbfgs.cpp</text>
</a>
</g>
</g>
<!-- Node16&#45;&gt;Node17 -->
<g id="edge18" class="edge">
<title>Node16&#45;&gt;Node17</title>
<path fill="none" stroke="#63b8ff" d="M1382.69,-132.87C1382.36,-124.05 1382.02,-114.9 1381.73,-107.15"/>
<polygon fill="#63b8ff" stroke="#63b8ff" points="1379.2,-133.11 1383.07,-142.97 1386.19,-132.85 1379.2,-133.11"/>
</g>
<!-- Node18 -->
<g id="node18" class="node">
<title>Node18</title>
<g id="a_node18"><a xlink:href="structured-panoc-alm_8cpp.html" target="_top" xlink:title=" ">
<polygon fill="white" stroke="#666666" points="1127.5,-101.5 990.5,-101.5 990.5,-71.5 1127.5,-71.5 1127.5,-101.5"/>
<text text-anchor="start" x="998.5" y="-89.5" font-family="Helvetica,sans-Serif" font-size="10.00">src/alpaqa/src/structured</text>
<text text-anchor="middle" x="1059" y="-78.5" font-family="Helvetica,sans-Serif" font-size="10.00">&#45;panoc&#45;alm.cpp</text>
</a>
</g>
</g>
<!-- Node16&#45;&gt;Node18 -->
<g id="edge19" class="edge">
<title>Node16&#45;&gt;Node18</title>
<path fill="none" stroke="#63b8ff" d="M1307.3,-144.17C1305.86,-143.77 1304.42,-143.38 1303,-143 1243.93,-127.19 1176.06,-111.99 1126.92,-101.51"/>
<polygon fill="#63b8ff" stroke="#63b8ff" points="1306.36,-147.54 1316.93,-146.87 1308.25,-140.8 1306.36,-147.54"/>
</g>
<!-- Node19 -->
<g id="node19" class="node">
<title>Node19</title>
<g id="a_node19"><a xlink:href="structured-zerofpr-alm_8cpp.html" target="_top" xlink:title=" ">
<polygon fill="white" stroke="#666666" points="1612.5,-101.5 1475.5,-101.5 1475.5,-71.5 1612.5,-71.5 1612.5,-101.5"/>
<text text-anchor="start" x="1483.5" y="-89.5" font-family="Helvetica,sans-Serif" font-size="10.00">src/alpaqa/src/structured</text>
<text text-anchor="middle" x="1544" y="-78.5" font-family="Helvetica,sans-Serif" font-size="10.00">&#45;zerofpr&#45;alm.cpp</text>
</a>
</g>
</g>
<!-- Node16&#45;&gt;Node19 -->
<g id="edge20" class="edge">
<title>Node16&#45;&gt;Node19</title>
<path fill="none" stroke="#63b8ff" d="M1442.77,-138.43C1467.68,-125.9 1495.55,-111.88 1515.73,-101.73"/>
<polygon fill="#63b8ff" stroke="#63b8ff" points="1441.11,-135.35 1433.75,-142.97 1444.25,-141.6 1441.11,-135.35"/>
</g>
<!-- Node20&#45;&gt;Node18 -->
<g id="edge22" class="edge">
<title>Node20&#45;&gt;Node18</title>
<path fill="none" stroke="#63b8ff" d="M1034.11,-138.87C1040.21,-126.29 1047.07,-112.13 1052.04,-101.87"/>
<polygon fill="#63b8ff" stroke="#63b8ff" points="1030.85,-137.58 1029.64,-148.1 1037.15,-140.63 1030.85,-137.58"/>
</g>
<!-- Node21&#45;&gt;Node19 -->
<g id="edge24" class="edge">
<title>Node21&#45;&gt;Node19</title>
<path fill="none" stroke="#63b8ff" d="M1542.13,-137.76C1542.59,-125.46 1543.09,-111.83 1543.46,-101.87"/>
<polygon fill="#63b8ff" stroke="#63b8ff" points="1538.62,-137.98 1541.74,-148.1 1545.61,-138.24 1538.62,-137.98"/>
</g>
<!-- Node22&#45;&gt;Node8 -->
<g id="edge29" class="edge">
<title>Node22&#45;&gt;Node8</title>
<path fill="none" stroke="#63b8ff" d="M229.82,-146.16C235.27,-144.96 240.7,-143.89 246,-143 506.42,-99.42 578.52,-150.2 839,-107 847.2,-105.64 855.81,-103.71 864.1,-101.6"/>
<polygon fill="#63b8ff" stroke="#63b8ff" points="228.98,-142.77 220.03,-148.45 230.57,-149.58 228.98,-142.77"/>
</g>
<!-- Node23 -->
<g id="node23" class="node">
<title>Node23</title>
<g id="a_node23"><a xlink:href="structured-newton_8cpp.html" target="_top" xlink:title=" ">
<polygon fill="white" stroke="#666666" points="152,-107 0,-107 0,-66 152,-66 152,-107"/>
<text text-anchor="start" x="8" y="-95" font-family="Helvetica,sans-Serif" font-size="10.00">src/alpaqa/src/inner</text>
<text text-anchor="start" x="8" y="-84" font-family="Helvetica,sans-Serif" font-size="10.00">/directions/panoc/structured</text>
<text text-anchor="middle" x="76" y="-73" font-family="Helvetica,sans-Serif" font-size="10.00">&#45;newton.cpp</text>
</a>
</g>
</g>
<!-- Node22&#45;&gt;Node23 -->
<g id="edge28" class="edge">
<title>Node22&#45;&gt;Node23</title>
<path fill="none" stroke="#63b8ff" d="M128.93,-140.76C117.98,-129.74 105.59,-117.27 95.55,-107.17"/>
<polygon fill="#63b8ff" stroke="#63b8ff" points="126.69,-143.48 136.22,-148.1 131.66,-138.54 126.69,-143.48"/>
</g>
<!-- Node24&#45;&gt;Node3 -->
<g id="edge43" class="edge">
<title>Node24&#45;&gt;Node3</title>
<path fill="none" stroke="#63b8ff" d="M694.8,-234.04C652.96,-223.51 598.14,-209.2 550,-195 544.27,-193.31 538.32,-191.48 532.39,-189.61"/>
<polygon fill="#63b8ff" stroke="#63b8ff" points="694.05,-237.46 704.6,-236.49 695.75,-230.67 694.05,-237.46"/>
</g>
<!-- Node24&#45;&gt;Node7 -->
<g id="edge45" class="edge">
<title>Node24&#45;&gt;Node7</title>
<path fill="none" stroke="#63b8ff" d="M830.44,-234.28C836.03,-233.11 841.6,-232 847,-231 957.8,-210.38 988.8,-222.86 1098,-195 1109.19,-192.15 1121.09,-188.07 1131.71,-184.03"/>
<polygon fill="#63b8ff" stroke="#63b8ff" points="829.44,-230.92 820.39,-236.43 830.91,-237.76 829.44,-230.92"/>
</g>
<!-- Node24&#45;&gt;Node8 -->
<g id="edge46" class="edge">
<title>Node24&#45;&gt;Node8</title>
<path fill="none" stroke="#63b8ff" d="M789.08,-229.97C801.5,-220.01 816.08,-207.5 828,-195 857.48,-164.08 886.49,-122.79 900.8,-101.5"/>
<polygon fill="#63b8ff" stroke="#63b8ff" points="786.56,-227.5 780.88,-236.44 790.9,-232.99 786.56,-227.5"/>
</g>
<!-- Node24&#45;&gt;Node10 -->
<g id="edge42" class="edge">
<title>Node24&#45;&gt;Node10</title>
<path fill="none" stroke="#63b8ff" d="M728.99,-231.38C703.94,-216.87 670.05,-197.25 647.4,-184.13"/>
<polygon fill="#63b8ff" stroke="#63b8ff" points="727.38,-234.5 737.79,-236.48 730.89,-228.44 727.38,-234.5"/>
</g>
<!-- Node24&#45;&gt;Node20 -->
<g id="edge44" class="edge">
<title>Node24&#45;&gt;Node20</title>
<path fill="none" stroke="#63b8ff" d="M816.52,-233.49C857.67,-220.65 914.19,-203.02 957.22,-189.59"/>
<polygon fill="#63b8ff" stroke="#63b8ff" points="815.44,-230.16 806.94,-236.48 817.53,-236.84 815.44,-230.16"/>
</g>
<!-- Node24&#45;&gt;Node22 -->
<g id="edge37" class="edge">
<title>Node24&#45;&gt;Node22</title>
<path fill="none" stroke="#63b8ff" d="M684.53,-246.14C583.07,-239.52 400,-224.47 246,-195 238.04,-193.48 229.75,-191.59 221.57,-189.55"/>
<polygon fill="#63b8ff" stroke="#63b8ff" points="684.48,-249.64 694.69,-246.79 684.93,-242.65 684.48,-249.64"/>
</g>
<!-- Node25 -->
<g id="node25" class="node">
<title>Node25</title>
<g id="a_node25"><a xlink:href="panoc_8tpp.html" target="_top" xlink:title=" ">
<polygon fill="white" stroke="#666666" points="389,-189.5 255,-189.5 255,-148.5 389,-148.5 389,-189.5"/>
<text text-anchor="start" x="263" y="-177.5" font-family="Helvetica,sans-Serif" font-size="10.00">src/alpaqa/include</text>
<text text-anchor="start" x="263" y="-166.5" font-family="Helvetica,sans-Serif" font-size="10.00">/alpaqa/implementation</text>
<text text-anchor="middle" x="322" y="-155.5" font-family="Helvetica,sans-Serif" font-size="10.00">/inner/panoc.tpp</text>
</a>
</g>
</g>
<!-- Node24&#45;&gt;Node25 -->
<g id="edge31" class="edge">
<title>Node24&#45;&gt;Node25</title>
<path fill="none" stroke="#63b8ff" d="M684.74,-242.5C610.57,-233.94 495.68,-218.34 398,-195 391.38,-193.42 384.51,-191.53 377.73,-189.5"/>
<polygon fill="#63b8ff" stroke="#63b8ff" points="684.6,-246.01 694.94,-243.66 685.4,-239.05 684.6,-246.01"/>
</g>
<!-- Node27 -->
<g id="node27" class="node">
<title>Node27</title>
<g id="a_node27"><a xlink:href="panoc-ocp_8hpp.html" target="_top" xlink:title=" ">
<polygon fill="white" stroke="#666666" points="818.5,-189.5 705.5,-189.5 705.5,-148.5 818.5,-148.5 818.5,-189.5"/>
<text text-anchor="start" x="713.5" y="-177.5" font-family="Helvetica,sans-Serif" font-size="10.00">src/alpaqa/include</text>
<text text-anchor="start" x="713.5" y="-166.5" font-family="Helvetica,sans-Serif" font-size="10.00">/alpaqa/inner/panoc</text>
<text text-anchor="middle" x="762" y="-155.5" font-family="Helvetica,sans-Serif" font-size="10.00">&#45;ocp.hpp</text>
</a>
</g>
</g>
<!-- Node24&#45;&gt;Node27 -->
<g id="edge38" class="edge">
<title>Node24&#45;&gt;Node27</title>
<path fill="none" stroke="#63b8ff" d="M762,-226.44C762,-214.67 762,-200.69 762,-189.59"/>
<polygon fill="#63b8ff" stroke="#63b8ff" points="758.5,-226.48 762,-236.48 765.5,-226.48 758.5,-226.48"/>
</g>
<!-- Node25&#45;&gt;Node4 -->
<g id="edge35" class="edge">
<title>Node25&#45;&gt;Node4</title>
<path fill="none" stroke="#63b8ff" d="M335.03,-138.87C340.65,-126.29 346.99,-112.13 351.58,-101.87"/>
<polygon fill="#63b8ff" stroke="#63b8ff" points="331.79,-137.54 330.9,-148.1 338.18,-140.4 331.79,-137.54"/>
</g>
<!-- Node25&#45;&gt;Node12 -->
<g id="edge34" class="edge">
<title>Node25&#45;&gt;Node12</title>
<path fill="none" stroke="#63b8ff" d="M372.81,-143.94C402,-130.12 437.64,-113.24 462.3,-101.56"/>
<polygon fill="#63b8ff" stroke="#63b8ff" points="371.13,-140.86 363.59,-148.31 374.12,-147.19 371.13,-140.86"/>
</g>
<!-- Node25&#45;&gt;Node18 -->
<g id="edge36" class="edge">
<title>Node25&#45;&gt;Node18</title>
<path fill="none" stroke="#63b8ff" d="M385.62,-145.77C389.78,-144.72 393.93,-143.78 398,-143 652.95,-94.04 724.44,-146.65 981,-107 989.97,-105.61 999.41,-103.68 1008.51,-101.55"/>
<polygon fill="#63b8ff" stroke="#63b8ff" points="384.68,-142.4 375.94,-148.39 386.51,-149.15 384.68,-142.4"/>
</g>
<!-- Node25&#45;&gt;Node23 -->
<g id="edge32" class="edge">
<title>Node25&#45;&gt;Node23</title>
<path fill="none" stroke="#63b8ff" d="M252.95,-145.28C250.6,-144.51 248.28,-143.75 246,-143 209.56,-131.06 168.72,-117.72 136.2,-107.12"/>
<polygon fill="#63b8ff" stroke="#63b8ff" points="252.08,-148.68 262.68,-148.47 254.27,-142.03 252.08,-148.68"/>
</g>
<!-- Node26 -->
<g id="node26" class="node">
<title>Node26</title>
<g id="a_node26"><a xlink:href="panoc_8cpp.html" target="_top" xlink:title=" ">
<polygon fill="white" stroke="#666666" points="282,-101.5 170,-101.5 170,-71.5 282,-71.5 282,-101.5"/>
<text text-anchor="start" x="178" y="-89.5" font-family="Helvetica,sans-Serif" font-size="10.00">src/alpaqa/src/inner</text>
<text text-anchor="middle" x="226" y="-78.5" font-family="Helvetica,sans-Serif" font-size="10.00">/panoc.cpp</text>
</a>
</g>
</g>
<!-- Node25&#45;&gt;Node26 -->
<g id="edge33" class="edge">
<title>Node25&#45;&gt;Node26</title>
<path fill="none" stroke="#63b8ff" d="M290.27,-141.4C274.44,-128.11 255.91,-112.58 242.83,-101.62"/>
<polygon fill="#63b8ff" stroke="#63b8ff" points="288.36,-144.36 298.27,-148.1 292.86,-138.99 288.36,-144.36"/>
</g>
<!-- Node27&#45;&gt;Node8 -->
<g id="edge41" class="edge">
<title>Node27&#45;&gt;Node8</title>
<path fill="none" stroke="#63b8ff" d="M807.2,-143.41C832.34,-129.74 862.72,-113.21 883.91,-101.69"/>
<polygon fill="#63b8ff" stroke="#63b8ff" points="805.32,-140.45 798.2,-148.31 808.66,-146.6 805.32,-140.45"/>
</g>
<!-- Node28 -->
<g id="node28" class="node">
<title>Node28</title>
<g id="a_node28"><a xlink:href="panoc-ocp_8tpp.html" target="_top" xlink:title=" ">
<polygon fill="white" stroke="#666666" points="830,-107 696,-107 696,-66 830,-66 830,-107"/>
<text text-anchor="start" x="704" y="-95" font-family="Helvetica,sans-Serif" font-size="10.00">src/alpaqa/include</text>
<text text-anchor="start" x="704" y="-84" font-family="Helvetica,sans-Serif" font-size="10.00">/alpaqa/implementation</text>
<text text-anchor="middle" x="763" y="-73" font-family="Helvetica,sans-Serif" font-size="10.00">/inner/panoc&#45;ocp.tpp</text>
</a>
</g>
</g>
<!-- Node27&#45;&gt;Node28 -->
<g id="edge39" class="edge">
<title>Node27&#45;&gt;Node28</title>
<path fill="none" stroke="#63b8ff" d="M762.37,-137.87C762.5,-127.6 762.64,-116.4 762.76,-107.17"/>
<polygon fill="#63b8ff" stroke="#63b8ff" points="758.87,-138.06 762.25,-148.1 765.87,-138.15 758.87,-138.06"/>
</g>
<!-- Node29 -->
<g id="node29" class="node">
<title>Node29</title>
<g id="a_node29"><a xlink:href="panoc-ocp_8cpp.html" target="_top" xlink:title=" ">
<polygon fill="white" stroke="#666666" points="819,-30 707,-30 707,0 819,0 819,-30"/>
<text text-anchor="start" x="715" y="-18" font-family="Helvetica,sans-Serif" font-size="10.00">src/alpaqa/src/inner</text>
<text text-anchor="middle" x="763" y="-7" font-family="Helvetica,sans-Serif" font-size="10.00">/panoc&#45;ocp.cpp</text>
</a>
</g>
</g>
<!-- Node28&#45;&gt;Node29 -->
<g id="edge40" class="edge">
<title>Node28&#45;&gt;Node29</title>
<path fill="none" stroke="#63b8ff" d="M763,-55.66C763,-46.76 763,-37.42 763,-30.04"/>
<polygon fill="#63b8ff" stroke="#63b8ff" points="759.5,-55.77 763,-65.77 766.5,-55.77 759.5,-55.77"/>
</g>
<!-- Node30&#45;&gt;Node5 -->
<g id="edge55" class="edge">
<title>Node30&#45;&gt;Node5</title>
<path fill="none" stroke="#63b8ff" d="M1577.86,-231.84C1602.88,-219.17 1635.91,-202.45 1661.31,-189.59"/>
<polygon fill="#63b8ff" stroke="#63b8ff" points="1576.04,-228.84 1568.7,-236.48 1579.2,-235.08 1576.04,-228.84"/>
</g>
<!-- Node30&#45;&gt;Node7 -->
<g id="edge56" class="edge">
<title>Node30&#45;&gt;Node7</title>
<path fill="none" stroke="#63b8ff" d="M1462.03,-234.41C1409.07,-223.52 1337.79,-208.68 1275,-195 1258.16,-191.33 1239.9,-187.23 1223.19,-183.43"/>
<polygon fill="#63b8ff" stroke="#63b8ff" points="1461.54,-237.88 1472.04,-236.46 1462.94,-231.02 1461.54,-237.88"/>
</g>
<!-- Node30&#45;&gt;Node8 -->
<g id="edge57" class="edge">
<title>Node30&#45;&gt;Node8</title>
<path fill="none" stroke="#63b8ff" d="M1461.75,-242.08C1414.86,-234.61 1355.54,-220.7 1308,-195 1278.41,-179 1283.37,-157.47 1253,-143 1143.32,-90.73 1101.12,-130.93 982,-107 974.38,-105.47 966.38,-103.59 958.59,-101.6"/>
<polygon fill="#63b8ff" stroke="#63b8ff" points="1461.45,-245.57 1471.86,-243.62 1462.5,-238.65 1461.45,-245.57"/>
</g>
<!-- Node30&#45;&gt;Node13 -->
<g id="edge54" class="edge">
<title>Node30&#45;&gt;Node13</title>
<path fill="none" stroke="#63b8ff" d="M1620.42,-243.35C1699.77,-235.23 1824.88,-219.8 1931,-195 1943.44,-192.09 1956.76,-188.05 1968.71,-184.05"/>
<polygon fill="#63b8ff" stroke="#63b8ff" points="1619.61,-239.91 1610.02,-244.39 1620.32,-246.87 1619.61,-239.91"/>
</g>
<!-- Node30&#45;&gt;Node21 -->
<g id="edge53" class="edge">
<title>Node30&#45;&gt;Node21</title>
<path fill="none" stroke="#63b8ff" d="M1541,-226.44C1541,-214.67 1541,-200.69 1541,-189.59"/>
<polygon fill="#63b8ff" stroke="#63b8ff" points="1537.5,-226.48 1541,-236.48 1544.5,-226.48 1537.5,-226.48"/>
</g>
<!-- Node31 -->
<g id="node31" class="node">
<title>Node31</title>
<g id="a_node31"><a xlink:href="zerofpr_8tpp.html" target="_top" xlink:title=" ">
<polygon fill="white" stroke="#666666" points="1922,-189.5 1788,-189.5 1788,-148.5 1922,-148.5 1922,-189.5"/>
<text text-anchor="start" x="1796" y="-177.5" font-family="Helvetica,sans-Serif" font-size="10.00">src/alpaqa/include</text>
<text text-anchor="start" x="1796" y="-166.5" font-family="Helvetica,sans-Serif" font-size="10.00">/alpaqa/implementation</text>
<text text-anchor="middle" x="1855" y="-155.5" font-family="Helvetica,sans-Serif" font-size="10.00">/inner/zerofpr.tpp</text>
</a>
</g>
</g>
<!-- Node30&#45;&gt;Node31 -->
<g id="edge48" class="edge">
<title>Node30&#45;&gt;Node31</title>
<path fill="none" stroke="#63b8ff" d="M1618.4,-234.27C1665.17,-224.02 1725.81,-209.92 1779,-195 1785.02,-193.31 1791.27,-191.45 1797.48,-189.51"/>
<polygon fill="#63b8ff" stroke="#63b8ff" points="1617.37,-230.92 1608.34,-236.47 1618.86,-237.75 1617.37,-230.92"/>
</g>
<!-- Node31&#45;&gt;Node6 -->
<g id="edge52" class="edge">
<title>Node31&#45;&gt;Node6</title>
<path fill="none" stroke="#63b8ff" d="M1810.72,-143.41C1786.09,-129.74 1756.32,-113.21 1735.56,-101.69"/>
<polygon fill="#63b8ff" stroke="#63b8ff" points="1809.09,-146.51 1819.53,-148.31 1812.48,-140.39 1809.09,-146.51"/>
</g>
<!-- Node31&#45;&gt;Node14 -->
<g id="edge51" class="edge">
<title>Node31&#45;&gt;Node14</title>
<path fill="none" stroke="#63b8ff" d="M1898.99,-143.23C1923.22,-129.6 1952.41,-113.16 1972.8,-101.69"/>
<polygon fill="#63b8ff" stroke="#63b8ff" points="1896.98,-140.35 1889.98,-148.31 1900.41,-146.45 1896.98,-140.35"/>
</g>
<!-- Node31&#45;&gt;Node19 -->
<g id="edge50" class="edge">
<title>Node31&#45;&gt;Node19</title>
<path fill="none" stroke="#63b8ff" d="M1787.39,-145.43C1784.56,-144.59 1781.76,-143.78 1779,-143 1722.51,-127.07 1657.53,-111.97 1610.23,-101.55"/>
<polygon fill="#63b8ff" stroke="#63b8ff" points="1786.48,-148.81 1797.07,-148.37 1788.52,-142.12 1786.48,-148.81"/>
</g>
<!-- Node32 -->
<g id="node32" class="node">
<title>Node32</title>
<g id="a_node32"><a xlink:href="zerofpr_8cpp.html" target="_top" xlink:title=" ">
<polygon fill="white" stroke="#666666" points="1911,-101.5 1799,-101.5 1799,-71.5 1911,-71.5 1911,-101.5"/>
<text text-anchor="start" x="1807" y="-89.5" font-family="Helvetica,sans-Serif" font-size="10.00">src/alpaqa/src/inner</text>
<text text-anchor="middle" x="1855" y="-78.5" font-family="Helvetica,sans-Serif" font-size="10.00">/zerofpr.cpp</text>
</a>
</g>
</g>
<!-- Node31&#45;&gt;Node32 -->
<g id="edge49" class="edge">
<title>Node31&#45;&gt;Node32</title>
<path fill="none" stroke="#63b8ff" d="M1855,-137.76C1855,-125.46 1855,-111.83 1855,-101.87"/>
<polygon fill="#63b8ff" stroke="#63b8ff" points="1851.5,-138.1 1855,-148.1 1858.5,-138.1 1851.5,-138.1"/>
</g>
</g>
</svg>
