<?xml version="1.0" encoding="UTF-8" standalone="no"?>
<!DOCTYPE svg PUBLIC "-//W3C//DTD SVG 1.1//EN"
 "http://www.w3.org/Graphics/SVG/1.1/DTD/svg11.dtd">
<!-- Generated by graphviz version 2.43.0 (0)
 -->
<!-- Title: print_results Pages: 1 -->
<svg width="585pt" height="129pt"
 viewBox="0.00 0.00 585.00 129.00" xmlns="http://www.w3.org/2000/svg" xmlns:xlink="http://www.w3.org/1999/xlink">
<g id="graph0" class="graph" transform="scale(1 1) rotate(0) translate(4 125)">
<title>print_results</title>
<!-- Node1 -->
<g id="node1" class="node">
<title>Node1</title>
<g id="a_node1"><a xlink:title=" ">
<polygon fill="#999999" stroke="#666666" points="77,-72.5 0,-72.5 0,-53.5 77,-53.5 77,-72.5"/>
<text text-anchor="middle" x="38.5" y="-60.5" font-family="Helvetica,sans-Serif" font-size="10.00">print_results</text>
</a>
</g>
</g>
<!-- Node2 -->
<g id="node2" class="node">
<title>Node2</title>
<g id="a_node2"><a xlink:href="namespacealpaqa.html#ae50af6bf82d3c0cc4093c46b8e2c4379" target="_top" xlink:title=" ">
<polygon fill="white" stroke="#666666" points="244,-115.5 134,-115.5 134,-96.5 244,-96.5 244,-115.5"/>
<text text-anchor="middle" x="189" y="-103.5" font-family="Helvetica,sans-Serif" font-size="10.00">alpaqa::float_to_str</text>
</a>
</g>
</g>
<!-- Node1&#45;&gt;Node2 -->
<g id="edge1" class="edge">
<title>Node1&#45;&gt;Node2</title>
<path fill="none" stroke="#63b8ff" d="M67.28,-72.56C80.98,-77.15 97.79,-82.59 113,-87 121.16,-89.36 129.87,-91.72 138.35,-93.93"/>
<polygon fill="#63b8ff" stroke="#63b8ff" points="137.61,-97.35 148.16,-96.44 139.34,-90.57 137.61,-97.35"/>
</g>
<!-- Node5 -->
<g id="node5" class="node">
<title>Node5</title>
<g id="a_node5"><a xlink:href="classalpaqa_1_1TypeErasedProblem.html#a4cb358cffb880a83ec60933c6d44cef4" target="_top" xlink:title="[Required] Number of constraints.">
<polygon fill="white" stroke="#666666" points="265,-78 113,-78 113,-48 265,-48 265,-78"/>
<text text-anchor="start" x="121" y="-66" font-family="Helvetica,sans-Serif" font-size="10.00">alpaqa::TypeErasedProblem</text>
<text text-anchor="middle" x="189" y="-55" font-family="Helvetica,sans-Serif" font-size="10.00">::get_m</text>
</a>
</g>
</g>
<!-- Node1&#45;&gt;Node5 -->
<g id="edge4" class="edge">
<title>Node1&#45;&gt;Node5</title>
<path fill="none" stroke="#63b8ff" d="M77.36,-63C85.29,-63 93.95,-63 102.83,-63"/>
<polygon fill="#63b8ff" stroke="#63b8ff" points="102.91,-66.5 112.91,-63 102.91,-59.5 102.91,-66.5"/>
</g>
<!-- Node6 -->
<g id="node6" class="node">
<title>Node6</title>
<g id="a_node6"><a xlink:href="classalpaqa_1_1TypeErasedProblem.html#a3e0872a0f29741da3d5429fce2749a34" target="_top" xlink:title="[Required] Number of decision variables.">
<polygon fill="white" stroke="#666666" points="265,-30 113,-30 113,0 265,0 265,-30"/>
<text text-anchor="start" x="121" y="-18" font-family="Helvetica,sans-Serif" font-size="10.00">alpaqa::TypeErasedProblem</text>
<text text-anchor="middle" x="189" y="-7" font-family="Helvetica,sans-Serif" font-size="10.00">::get_n</text>
</a>
</g>
</g>
<!-- Node1&#45;&gt;Node6 -->
<g id="edge5" class="edge">
<title>Node1&#45;&gt;Node6</title>
<path fill="none" stroke="#63b8ff" d="M68.46,-53.5C81.99,-49.07 98.31,-43.75 113,-39 118.89,-37.1 125.04,-35.11 131.18,-33.14"/>
<polygon fill="#63b8ff" stroke="#63b8ff" points="132.32,-36.45 140.78,-30.06 130.19,-29.79 132.32,-36.45"/>
</g>
<!-- Node3 -->
<g id="node3" class="node">
<title>Node3</title>
<g id="a_node3"><a xlink:href="namespacealpaqa.html#ab5ac74453b63ae65ae675f0fb385fc32" target="_top" xlink:title=" ">
<polygon fill="white" stroke="#666666" points="431,-115.5 301,-115.5 301,-96.5 431,-96.5 431,-115.5"/>
<text text-anchor="middle" x="366" y="-103.5" font-family="Helvetica,sans-Serif" font-size="10.00">alpaqa::float_to_str_vw</text>
</a>
</g>
</g>
<!-- Node2&#45;&gt;Node3 -->
<g id="edge2" class="edge">
<title>Node2&#45;&gt;Node3</title>
<path fill="none" stroke="#63b8ff" d="M244.41,-106C259.06,-106 275.16,-106 290.7,-106"/>
<polygon fill="#63b8ff" stroke="#63b8ff" points="290.8,-109.5 300.8,-106 290.8,-102.5 290.8,-109.5"/>
</g>
<!-- Node4 -->
<g id="node4" class="node">
<title>Node4</title>
<g id="a_node4"><a xlink:href="namespacealpaqa.html#a3d355dd7c275da0f2e297743294d582b" target="_top" xlink:title=" ">
<polygon fill="white" stroke="#666666" points="577,-121 467,-121 467,-91 577,-91 577,-121"/>
<text text-anchor="start" x="475" y="-109" font-family="Helvetica,sans-Serif" font-size="10.00">alpaqa::float_to_str</text>
<text text-anchor="middle" x="522" y="-98" font-family="Helvetica,sans-Serif" font-size="10.00">_vw_snprintf</text>
</a>
</g>
</g>
<!-- Node3&#45;&gt;Node4 -->
<g id="edge3" class="edge">
<title>Node3&#45;&gt;Node4</title>
<path fill="none" stroke="#63b8ff" d="M431.42,-106C439.74,-106 448.26,-106 456.58,-106"/>
<polygon fill="#63b8ff" stroke="#63b8ff" points="456.6,-109.5 466.6,-106 456.6,-102.5 456.6,-109.5"/>
</g>
</g>
</svg>
