<?xml version="1.0" encoding="UTF-8" standalone="no"?>
<!DOCTYPE svg PUBLIC "-//W3C//DTD SVG 1.1//EN"
 "http://www.w3.org/Graphics/SVG/1.1/DTD/svg11.dtd">
<!-- Generated by graphviz version 2.43.0 (0)
 -->
<!-- Title: src/alpaqa/src/inner/internal/solverstatus.cpp Pages: 1 -->
<svg width="278pt" height="159pt"
 viewBox="0.00 0.00 278.00 159.00" xmlns="http://www.w3.org/2000/svg" xmlns:xlink="http://www.w3.org/1999/xlink">
<g id="graph0" class="graph" transform="scale(1 1) rotate(0) translate(4 155)">
<title>src/alpaqa/src/inner/internal/solverstatus.cpp</title>
<!-- Node1 -->
<g id="node1" class="node">
<title>Node1</title>
<g id="a_node1"><a xlink:title=" ">
<polygon fill="#999999" stroke="#666666" points="258.5,-151 118.5,-151 118.5,-121 258.5,-121 258.5,-151"/>
<text text-anchor="start" x="126.5" y="-139" font-family="Helvetica,sans-Serif" font-size="10.00">src/alpaqa/src/inner</text>
<text text-anchor="middle" x="188.5" y="-128" font-family="Helvetica,sans-Serif" font-size="10.00">/internal/solverstatus.cpp</text>
</a>
</g>
</g>
<!-- Node2 -->
<g id="node2" class="node">
<title>Node2</title>
<g id="a_node2"><a xlink:href="solverstatus_8hpp.html" target="_top" xlink:title=" ">
<polygon fill="white" stroke="#666666" points="194.5,-85 76.5,-85 76.5,-55 194.5,-55 194.5,-85"/>
<text text-anchor="start" x="84.5" y="-73" font-family="Helvetica,sans-Serif" font-size="10.00">alpaqa/inner/internal</text>
<text text-anchor="middle" x="135.5" y="-62" font-family="Helvetica,sans-Serif" font-size="10.00">/solverstatus.hpp</text>
</a>
</g>
</g>
<!-- Node1&#45;&gt;Node2 -->
<g id="edge1" class="edge">
<title>Node1&#45;&gt;Node2</title>
<path fill="none" stroke="#63b8ff" d="M176.74,-120.8C169.94,-112.59 161.26,-102.1 153.61,-92.87"/>
<polygon fill="#63b8ff" stroke="#63b8ff" points="156.3,-90.63 147.23,-85.16 150.91,-95.1 156.3,-90.63"/>
</g>
<!-- Node6 -->
<g id="node6" class="node">
<title>Node6</title>
<g id="a_node6"><a xlink:title=" ">
<polygon fill="#e0e0e0" stroke="#999999" points="270,-79.5 213,-79.5 213,-60.5 270,-60.5 270,-79.5"/>
<text text-anchor="middle" x="241.5" y="-67.5" font-family="Helvetica,sans-Serif" font-size="10.00">ostream</text>
</a>
</g>
</g>
<!-- Node1&#45;&gt;Node6 -->
<g id="edge5" class="edge">
<title>Node1&#45;&gt;Node6</title>
<path fill="none" stroke="#63b8ff" d="M200.26,-120.8C208.36,-111.01 219.16,-97.98 227.67,-87.7"/>
<polygon fill="#63b8ff" stroke="#63b8ff" points="230.49,-89.78 234.18,-79.84 225.1,-85.31 230.49,-89.78"/>
</g>
<!-- Node3 -->
<g id="node3" class="node">
<title>Node3</title>
<g id="a_node3"><a xlink:title=" ">
<polygon fill="#e0e0e0" stroke="#999999" points="93,-19 0,-19 0,0 93,0 93,-19"/>
<text text-anchor="middle" x="46.5" y="-7" font-family="Helvetica,sans-Serif" font-size="10.00">alpaqa/export.h</text>
</a>
</g>
</g>
<!-- Node2&#45;&gt;Node3 -->
<g id="edge2" class="edge">
<title>Node2&#45;&gt;Node3</title>
<path fill="none" stroke="#63b8ff" d="M113.96,-54.84C100.03,-45.68 81.97,-33.82 68.05,-24.66"/>
<polygon fill="#63b8ff" stroke="#63b8ff" points="69.85,-21.66 59.58,-19.09 66.01,-27.51 69.85,-21.66"/>
</g>
<!-- Node4 -->
<g id="node4" class="node">
<title>Node4</title>
<g id="a_node4"><a xlink:title=" ">
<polygon fill="#e0e0e0" stroke="#999999" points="159.5,-19 111.5,-19 111.5,0 159.5,0 159.5,-19"/>
<text text-anchor="middle" x="135.5" y="-7" font-family="Helvetica,sans-Serif" font-size="10.00">iosfwd</text>
</a>
</g>
</g>
<!-- Node2&#45;&gt;Node4 -->
<g id="edge3" class="edge">
<title>Node2&#45;&gt;Node4</title>
<path fill="none" stroke="#63b8ff" d="M135.5,-54.84C135.5,-47.21 135.5,-37.7 135.5,-29.45"/>
<polygon fill="#63b8ff" stroke="#63b8ff" points="139,-29.27 135.5,-19.27 132,-29.27 139,-29.27"/>
</g>
<!-- Node5 -->
<g id="node5" class="node">
<title>Node5</title>
<g id="a_node5"><a xlink:title=" ">
<polygon fill="#e0e0e0" stroke="#999999" points="243,-19 178,-19 178,0 243,0 243,-19"/>
<text text-anchor="middle" x="210.5" y="-7" font-family="Helvetica,sans-Serif" font-size="10.00">stdexcept</text>
</a>
</g>
</g>
<!-- Node2&#45;&gt;Node5 -->
<g id="edge4" class="edge">
<title>Node2&#45;&gt;Node5</title>
<path fill="none" stroke="#63b8ff" d="M153.66,-54.84C164.99,-46 179.56,-34.63 191.12,-25.62"/>
<polygon fill="#63b8ff" stroke="#63b8ff" points="193.53,-28.18 199.26,-19.27 189.22,-22.66 193.53,-28.18"/>
</g>
</g>
</svg>
