<?xml version="1.0" encoding="UTF-8" standalone="no"?>
<!DOCTYPE svg PUBLIC "-//W3C//DTD SVG 1.1//EN"
 "http://www.w3.org/Graphics/SVG/1.1/DTD/svg11.dtd">
<!-- Generated by graphviz version 2.43.0 (0)
 -->
<!-- Title: changed_γ Pages: 1 -->
<svg width="806pt" height="134pt"
 viewBox="0.00 0.00 806.00 134.00" xmlns="http://www.w3.org/2000/svg" xmlns:xlink="http://www.w3.org/1999/xlink">
<g id="graph0" class="graph" transform="scale(1 1) rotate(0) translate(4 130)">
<title>changed_γ</title>
<!-- Node1 -->
<g id="node1" class="node">
<title>Node1</title>
<g id="a_node1"><a xlink:title=" ">
<polygon fill="#999999" stroke="#666666" points="69,-48.5 0,-48.5 0,-29.5 69,-29.5 69,-48.5"/>
<text text-anchor="middle" x="34.5" y="-36.5" font-family="Helvetica,sans-Serif" font-size="10.00">changed_γ</text>
</a>
</g>
</g>
<!-- Node2 -->
<g id="node2" class="node">
<title>Node2</title>
<g id="a_node2"><a xlink:href="classalpaqa_1_1AndersonAccel.html#ad20897c5c8bd47f5d4005989bead0e55" target="_top" xlink:title="Reset the accelerator (but keep the last function value and residual, so calling initialize is not ne...">
<polygon fill="white" stroke="#666666" points="233,-78 105,-78 105,-48 233,-48 233,-78"/>
<text text-anchor="start" x="113" y="-66" font-family="Helvetica,sans-Serif" font-size="10.00">alpaqa::AndersonAccel</text>
<text text-anchor="middle" x="169" y="-55" font-family="Helvetica,sans-Serif" font-size="10.00">::reset</text>
</a>
</g>
</g>
<!-- Node1&#45;&gt;Node2 -->
<g id="edge1" class="edge">
<title>Node1&#45;&gt;Node2</title>
<path fill="none" stroke="#63b8ff" d="M69.28,-45.12C77.19,-46.55 85.92,-48.13 94.82,-49.74"/>
<polygon fill="#63b8ff" stroke="#63b8ff" points="94.44,-53.23 104.9,-51.57 95.69,-46.35 94.44,-53.23"/>
</g>
<!-- Node5 -->
<g id="node5" class="node">
<title>Node5</title>
<g id="a_node5"><a xlink:href="classalpaqa_1_1AndersonAccel.html#adf11f99cb8b119423c86498dbaab9820" target="_top" xlink:title="Scale the factorization.">
<polygon fill="white" stroke="#666666" points="233,-30 105,-30 105,0 233,0 233,-30"/>
<text text-anchor="start" x="113" y="-18" font-family="Helvetica,sans-Serif" font-size="10.00">alpaqa::AndersonAccel</text>
<text text-anchor="middle" x="169" y="-7" font-family="Helvetica,sans-Serif" font-size="10.00">::scale_R</text>
</a>
</g>
</g>
<!-- Node1&#45;&gt;Node5 -->
<g id="edge4" class="edge">
<title>Node1&#45;&gt;Node5</title>
<path fill="none" stroke="#63b8ff" d="M69.28,-32.88C77.19,-31.45 85.92,-29.87 94.82,-28.26"/>
<polygon fill="#63b8ff" stroke="#63b8ff" points="95.69,-31.65 104.9,-26.43 94.44,-24.77 95.69,-31.65"/>
</g>
<!-- Node3 -->
<g id="node3" class="node">
<title>Node3</title>
<g id="a_node3"><a xlink:href="classalpaqa_1_1LimitedMemoryQR.html#ad20897c5c8bd47f5d4005989bead0e55" target="_top" xlink:title="Reset all indices, clearing the Q and R matrices.">
<polygon fill="white" stroke="#666666" points="416,-126 269,-126 269,-96 416,-96 416,-126"/>
<text text-anchor="start" x="277" y="-114" font-family="Helvetica,sans-Serif" font-size="10.00">alpaqa::LimitedMemoryQR</text>
<text text-anchor="middle" x="342.5" y="-103" font-family="Helvetica,sans-Serif" font-size="10.00">::reset</text>
</a>
</g>
</g>
<!-- Node2&#45;&gt;Node3 -->
<g id="edge2" class="edge">
<title>Node2&#45;&gt;Node3</title>
<path fill="none" stroke="#63b8ff" d="M223.79,-78.06C241.03,-82.88 260.28,-88.27 278.14,-93.27"/>
<polygon fill="#63b8ff" stroke="#63b8ff" points="277.32,-96.67 287.9,-96 279.21,-89.93 277.32,-96.67"/>
</g>
<!-- Node4 -->
<g id="node4" class="node">
<title>Node4</title>
<g id="a_node4"><a xlink:href="classalpaqa_1_1LimitedMemoryQR.html#a8a153a1f58e5c5879095a4c3799b6f49" target="_top" xlink:title="Get the tail index of the circular buffer (points to one past the most recent element).">
<polygon fill="white" stroke="#666666" points="416,-78 269,-78 269,-48 416,-48 416,-78"/>
<text text-anchor="start" x="277" y="-66" font-family="Helvetica,sans-Serif" font-size="10.00">alpaqa::LimitedMemoryQR</text>
<text text-anchor="middle" x="342.5" y="-55" font-family="Helvetica,sans-Serif" font-size="10.00">::ring_tail</text>
</a>
</g>
</g>
<!-- Node2&#45;&gt;Node4 -->
<g id="edge3" class="edge">
<title>Node2&#45;&gt;Node4</title>
<path fill="none" stroke="#63b8ff" d="M233.37,-63C241.67,-63 250.27,-63 258.83,-63"/>
<polygon fill="#63b8ff" stroke="#63b8ff" points="258.84,-66.5 268.84,-63 258.84,-59.5 258.84,-66.5"/>
</g>
<!-- Node6 -->
<g id="node6" class="node">
<title>Node6</title>
<g id="a_node6"><a xlink:href="classalpaqa_1_1LimitedMemoryQR.html#adf11f99cb8b119423c86498dbaab9820" target="_top" xlink:title="Multiply the matrix R by a scalar.">
<polygon fill="white" stroke="#666666" points="416,-30 269,-30 269,0 416,0 416,-30"/>
<text text-anchor="start" x="277" y="-18" font-family="Helvetica,sans-Serif" font-size="10.00">alpaqa::LimitedMemoryQR</text>
<text text-anchor="middle" x="342.5" y="-7" font-family="Helvetica,sans-Serif" font-size="10.00">::scale_R</text>
</a>
</g>
</g>
<!-- Node5&#45;&gt;Node6 -->
<g id="edge5" class="edge">
<title>Node5&#45;&gt;Node6</title>
<path fill="none" stroke="#63b8ff" d="M233.37,-15C241.67,-15 250.27,-15 258.83,-15"/>
<polygon fill="#63b8ff" stroke="#63b8ff" points="258.84,-18.5 268.84,-15 258.84,-11.5 258.84,-18.5"/>
</g>
<!-- Node7 -->
<g id="node7" class="node">
<title>Node7</title>
<g id="a_node7"><a xlink:href="classalpaqa_1_1LimitedMemoryQR.html#a0bf0ad441ec87440e4525e75de00d053" target="_top" xlink:title="Get iterators in the circular buffer.">
<polygon fill="white" stroke="#666666" points="599,-30 452,-30 452,0 599,0 599,-30"/>
<text text-anchor="start" x="460" y="-18" font-family="Helvetica,sans-Serif" font-size="10.00">alpaqa::LimitedMemoryQR</text>
<text text-anchor="middle" x="525.5" y="-7" font-family="Helvetica,sans-Serif" font-size="10.00">::ring_iter</text>
</a>
</g>
</g>
<!-- Node6&#45;&gt;Node7 -->
<g id="edge6" class="edge">
<title>Node6&#45;&gt;Node7</title>
<path fill="none" stroke="#63b8ff" d="M416.08,-15C424.56,-15 433.26,-15 441.87,-15"/>
<polygon fill="#63b8ff" stroke="#63b8ff" points="441.91,-18.5 451.91,-15 441.91,-11.5 441.91,-18.5"/>
</g>
<!-- Node8 -->
<g id="node8" class="node">
<title>Node8</title>
<g id="a_node8"><a xlink:href="classalpaqa_1_1LimitedMemoryQR.html#ac397ae83f5f4dd3d5cf9926f26acfb2d" target="_top" xlink:title=" ">
<polygon fill="white" stroke="#666666" points="798,-24.5 635,-24.5 635,-5.5 798,-5.5 798,-24.5"/>
<text text-anchor="middle" x="716.5" y="-12.5" font-family="Helvetica,sans-Serif" font-size="10.00">alpaqa::LimitedMemoryQR::m</text>
</a>
</g>
</g>
<!-- Node7&#45;&gt;Node8 -->
<g id="edge7" class="edge">
<title>Node7&#45;&gt;Node8</title>
<path fill="none" stroke="#63b8ff" d="M599.03,-15C607.49,-15 616.19,-15 624.85,-15"/>
<polygon fill="#63b8ff" stroke="#63b8ff" points="624.98,-18.5 634.98,-15 624.98,-11.5 624.98,-18.5"/>
</g>
</g>
</svg>
