<?xml version="1.0" encoding="UTF-8" standalone="no"?>
<!DOCTYPE svg PUBLIC "-//W3C//DTD SVG 1.1//EN"
 "http://www.w3.org/Graphics/SVG/1.1/DTD/svg11.dtd">
<!-- Generated by graphviz version 2.43.0 (0)
 -->
<!-- Title: src/alpaqa/include/alpaqa/inner/directions/panoc/structured&#45;lbfgs.hpp Pages: 1 -->
<!--zoomable 214 -->
<svg id="main" version="1.1" xmlns="http://www.w3.org/2000/svg" xmlns:xlink="http://www.w3.org/1999/xlink" xml:space="preserve" onload="init(evt)">
<style type="text/css"><![CDATA[
.edge:hover path { stroke: red; }
.edge:hover polygon { stroke: red; fill: red; }
]]></style>
<script type="text/javascript"><![CDATA[
var edges = document.getElementsByTagName('g');
if (edges && edges.length) {
  for (var i=0;i<edges.length;i++) {
    if (edges[i].id.substr(0,4)=='edge') {
      edges[i].setAttribute('class','edge');
    }
  }
}
]]></script>
        <defs>
                <circle id="rim" cx="0" cy="0" r="7"/>
                <circle id="rim2" cx="0" cy="0" r="3.5"/>
                <g id="zoomPlus">
                        <use xlink:href="#rim" fill="#404040">
                                <set attributeName="fill" to="#808080" begin="zoomplus.mouseover" end="zoomplus.mouseout"/>
                        </use>
                        <path d="M-4,0h8M0,-4v8" fill="none" stroke="white" stroke-width="1.5" pointer-events="none"/>
                </g>
                <g id="zoomMin">
                        <use xlink:href="#rim" fill="#404040">
                                <set attributeName="fill" to="#808080" begin="zoomminus.mouseover" end="zoomminus.mouseout"/>
                        </use>
                        <path d="M-4,0h8" fill="none" stroke="white" stroke-width="1.5" pointer-events="none"/>
                </g>
                <g id="dirArrow">
                        <path fill="none" stroke="white" stroke-width="1.5" d="M0,-3.0v7 M-2.5,-0.5L0,-3.0L2.5,-0.5"/>
                </g>
               <g id="resetDef">
                       <use xlink:href="#rim2" fill="#404040">
                               <set attributeName="fill" to="#808080" begin="reset.mouseover" end="reset.mouseout"/>
                       </use>
               </g>
        </defs>

<script type="text/javascript">
var viewWidth = 745;
var viewHeight = 214;
var sectionId = 'dynsection-1';
</script>
<script xlink:href="svgpan.js"/>
<svg id="graph" class="graph">
<g id="viewport">
<title>src/alpaqa/include/alpaqa/inner/directions/panoc/structured&#45;lbfgs.hpp</title>
<!-- Node1 -->
<g id="node1" class="node">
<title>Node1</title>
<g id="a_node1"><a xlink:title=" ">
<polygon fill="#999999" stroke="#666666" points="463.5,-206 313.5,-206 313.5,-165 463.5,-165 463.5,-206"/>
<text text-anchor="start" x="321.5" y="-194" font-family="Helvetica,sans-Serif" font-size="10.00">src/alpaqa/include</text>
<text text-anchor="start" x="321.5" y="-183" font-family="Helvetica,sans-Serif" font-size="10.00">/alpaqa/inner/directions</text>
<text text-anchor="middle" x="388.5" y="-172" font-family="Helvetica,sans-Serif" font-size="10.00">/panoc/structured&#45;lbfgs.hpp</text>
</a>
</g>
</g>
<!-- Node2 -->
<g id="node2" class="node">
<title>Node2</title>
<g id="a_node2"><a xlink:href="structured-lbfgs_8tpp.html" target="_top" xlink:title=" ">
<polygon fill="white" stroke="#666666" points="298.5,-129 164.5,-129 164.5,-77 298.5,-77 298.5,-129"/>
<text text-anchor="start" x="172.5" y="-117" font-family="Helvetica,sans-Serif" font-size="10.00">src/alpaqa/include</text>
<text text-anchor="start" x="172.5" y="-106" font-family="Helvetica,sans-Serif" font-size="10.00">/alpaqa/implementation</text>
<text text-anchor="start" x="172.5" y="-95" font-family="Helvetica,sans-Serif" font-size="10.00">/inner/directions/panoc</text>
<text text-anchor="middle" x="231.5" y="-84" font-family="Helvetica,sans-Serif" font-size="10.00">/structured&#45;lbfgs.tpp</text>
</a>
</g>
</g>
<!-- Node1&#45;&gt;Node2 -->
<g id="edge1" class="edge">
<title>Node1&#45;&gt;Node2</title>
<path fill="none" stroke="#63b8ff" d="M340.96,-160.13C321.83,-150.32 299.78,-139.01 280.51,-129.13"/>
<polygon fill="#63b8ff" stroke="#63b8ff" points="339.6,-163.36 350.09,-164.81 342.79,-157.13 339.6,-163.36"/>
</g>
<!-- Node6 -->
<g id="node6" class="node">
<title>Node6</title>
<g id="a_node6"><a xlink:href="structured-panoc-alm_8hpp.html" target="_top" xlink:title=" ">
<polygon fill="white" stroke="#666666" points="142.5,-123.5 4.5,-123.5 4.5,-82.5 142.5,-82.5 142.5,-123.5"/>
<text text-anchor="start" x="12.5" y="-111.5" font-family="Helvetica,sans-Serif" font-size="10.00">src/alpaqa/include</text>
<text text-anchor="start" x="12.5" y="-100.5" font-family="Helvetica,sans-Serif" font-size="10.00">/alpaqa/structured&#45;panoc</text>
<text text-anchor="middle" x="73.5" y="-89.5" font-family="Helvetica,sans-Serif" font-size="10.00">&#45;alm.hpp</text>
</a>
</g>
</g>
<!-- Node1&#45;&gt;Node6 -->
<g id="edge5" class="edge">
<title>Node1&#45;&gt;Node6</title>
<path fill="none" stroke="#63b8ff" d="M303.58,-165.61C259.27,-155.41 204.28,-142.23 155.5,-129 149.18,-127.29 142.61,-125.42 136.06,-123.51"/>
<polygon fill="#63b8ff" stroke="#63b8ff" points="302.91,-169.04 313.44,-167.87 304.47,-162.22 302.91,-169.04"/>
</g>
<!-- Node7 -->
<g id="node7" class="node">
<title>Node7</title>
<g id="a_node7"><a xlink:href="structured-zerofpr-alm_8hpp.html" target="_top" xlink:title=" ">
<polygon fill="white" stroke="#666666" points="460,-123.5 317,-123.5 317,-82.5 460,-82.5 460,-123.5"/>
<text text-anchor="start" x="325" y="-111.5" font-family="Helvetica,sans-Serif" font-size="10.00">src/alpaqa/include</text>
<text text-anchor="start" x="325" y="-100.5" font-family="Helvetica,sans-Serif" font-size="10.00">/alpaqa/structured&#45;zerofpr</text>
<text text-anchor="middle" x="388.5" y="-89.5" font-family="Helvetica,sans-Serif" font-size="10.00">&#45;alm.hpp</text>
</a>
</g>
</g>
<!-- Node1&#45;&gt;Node7 -->
<g id="edge7" class="edge">
<title>Node1&#45;&gt;Node7</title>
<path fill="none" stroke="#63b8ff" d="M388.5,-154.37C388.5,-144.1 388.5,-132.9 388.5,-123.67"/>
<polygon fill="#63b8ff" stroke="#63b8ff" points="385,-154.6 388.5,-164.6 392,-154.6 385,-154.6"/>
</g>
<!-- Node8 -->
<g id="node8" class="node">
<title>Node8</title>
<g id="a_node8"><a xlink:href="panoc-driver_8cpp.html" target="_top" xlink:title=" ">
<polygon fill="white" stroke="#666666" points="594.5,-118 478.5,-118 478.5,-88 594.5,-88 594.5,-118"/>
<text text-anchor="start" x="486.5" y="-106" font-family="Helvetica,sans-Serif" font-size="10.00">src/alpaqa/src/driver</text>
<text text-anchor="middle" x="536.5" y="-95" font-family="Helvetica,sans-Serif" font-size="10.00">/panoc&#45;driver.cpp</text>
</a>
</g>
</g>
<!-- Node1&#45;&gt;Node8 -->
<g id="edge9" class="edge">
<title>Node1&#45;&gt;Node8</title>
<path fill="none" stroke="#63b8ff" d="M433.7,-159.91C458.84,-146.24 489.22,-129.71 510.41,-118.19"/>
<polygon fill="#63b8ff" stroke="#63b8ff" points="431.82,-156.95 424.7,-164.81 435.16,-163.1 431.82,-156.95"/>
</g>
<!-- Node9 -->
<g id="node9" class="node">
<title>Node9</title>
<g id="a_node9"><a xlink:href="params_8cpp.html" target="_top" xlink:title=" ">
<polygon fill="white" stroke="#666666" points="736.5,-118 612.5,-118 612.5,-88 736.5,-88 736.5,-118"/>
<text text-anchor="start" x="620.5" y="-106" font-family="Helvetica,sans-Serif" font-size="10.00">src/alpaqa/src/params</text>
<text text-anchor="middle" x="674.5" y="-95" font-family="Helvetica,sans-Serif" font-size="10.00">/params.cpp</text>
</a>
</g>
</g>
<!-- Node1&#45;&gt;Node9 -->
<g id="edge10" class="edge">
<title>Node1&#45;&gt;Node9</title>
<path fill="none" stroke="#63b8ff" d="M473.48,-164.35C513.2,-154.48 561,-141.94 603.5,-129 614.25,-125.73 625.79,-121.83 636.38,-118.1"/>
<polygon fill="#63b8ff" stroke="#63b8ff" points="472.43,-161 463.57,-166.8 474.11,-167.8 472.43,-161"/>
</g>
<!-- Node3 -->
<g id="node3" class="node">
<title>Node3</title>
<g id="a_node3"><a xlink:href="structured-lbfgs_8cpp.html" target="_top" xlink:title=" ">
<polygon fill="white" stroke="#666666" points="307.5,-41 155.5,-41 155.5,0 307.5,0 307.5,-41"/>
<text text-anchor="start" x="163.5" y="-29" font-family="Helvetica,sans-Serif" font-size="10.00">src/alpaqa/src/inner</text>
<text text-anchor="start" x="163.5" y="-18" font-family="Helvetica,sans-Serif" font-size="10.00">/directions/panoc/structured</text>
<text text-anchor="middle" x="231.5" y="-7" font-family="Helvetica,sans-Serif" font-size="10.00">&#45;lbfgs.cpp</text>
</a>
</g>
</g>
<!-- Node2&#45;&gt;Node3 -->
<g id="edge2" class="edge">
<title>Node2&#45;&gt;Node3</title>
<path fill="none" stroke="#63b8ff" d="M231.5,-66.87C231.5,-58.05 231.5,-48.9 231.5,-41.15"/>
<polygon fill="#63b8ff" stroke="#63b8ff" points="228,-66.97 231.5,-76.97 235,-66.97 228,-66.97"/>
</g>
<!-- Node4 -->
<g id="node4" class="node">
<title>Node4</title>
<g id="a_node4"><a xlink:href="structured-panoc-alm_8cpp.html" target="_top" xlink:title=" ">
<polygon fill="white" stroke="#666666" points="137,-35.5 0,-35.5 0,-5.5 137,-5.5 137,-35.5"/>
<text text-anchor="start" x="8" y="-23.5" font-family="Helvetica,sans-Serif" font-size="10.00">src/alpaqa/src/structured</text>
<text text-anchor="middle" x="68.5" y="-12.5" font-family="Helvetica,sans-Serif" font-size="10.00">&#45;panoc&#45;alm.cpp</text>
</a>
</g>
</g>
<!-- Node2&#45;&gt;Node4 -->
<g id="edge3" class="edge">
<title>Node2&#45;&gt;Node4</title>
<path fill="none" stroke="#63b8ff" d="M171.63,-72.43C146.25,-59.9 117.86,-45.88 97.3,-35.73"/>
<polygon fill="#63b8ff" stroke="#63b8ff" points="170.3,-75.68 180.82,-76.97 173.4,-69.4 170.3,-75.68"/>
</g>
<!-- Node5 -->
<g id="node5" class="node">
<title>Node5</title>
<g id="a_node5"><a xlink:href="structured-zerofpr-alm_8cpp.html" target="_top" xlink:title=" ">
<polygon fill="white" stroke="#666666" points="463,-35.5 326,-35.5 326,-5.5 463,-5.5 463,-35.5"/>
<text text-anchor="start" x="334" y="-23.5" font-family="Helvetica,sans-Serif" font-size="10.00">src/alpaqa/src/structured</text>
<text text-anchor="middle" x="394.5" y="-12.5" font-family="Helvetica,sans-Serif" font-size="10.00">&#45;zerofpr&#45;alm.cpp</text>
</a>
</g>
</g>
<!-- Node2&#45;&gt;Node5 -->
<g id="edge4" class="edge">
<title>Node2&#45;&gt;Node5</title>
<path fill="none" stroke="#63b8ff" d="M291.37,-72.43C316.75,-59.9 345.14,-45.88 365.7,-35.73"/>
<polygon fill="#63b8ff" stroke="#63b8ff" points="289.6,-69.4 282.18,-76.97 292.7,-75.68 289.6,-69.4"/>
</g>
<!-- Node6&#45;&gt;Node4 -->
<g id="edge6" class="edge">
<title>Node6&#45;&gt;Node4</title>
<path fill="none" stroke="#63b8ff" d="M71.62,-71.76C70.86,-59.46 70.01,-45.83 69.39,-35.87"/>
<polygon fill="#63b8ff" stroke="#63b8ff" points="68.15,-72.34 72.26,-82.1 75.14,-71.9 68.15,-72.34"/>
</g>
<!-- Node7&#45;&gt;Node5 -->
<g id="edge8" class="edge">
<title>Node7&#45;&gt;Node5</title>
<path fill="none" stroke="#63b8ff" d="M390.75,-71.76C391.67,-59.46 392.69,-45.83 393.43,-35.87"/>
<polygon fill="#63b8ff" stroke="#63b8ff" points="387.24,-71.87 389.98,-82.1 394.22,-72.39 387.24,-71.87"/>
</g>
</g>
</svg>
        <g id="navigator" transform="translate(0 0)" fill="#404254">
                <rect fill="#f2f5e9" fill-opacity="0.5" stroke="#606060" stroke-width=".5" x="0" y="0" width="60" height="60"/>
                <use id="zoomplus" xlink:href="#zoomPlus" x="17" y="9" onmousedown="handleZoom(evt,'in')"/>
                <use id="zoomminus" xlink:href="#zoomMin" x="42" y="9" onmousedown="handleZoom(evt,'out')"/>
                <use id="reset" xlink:href="#resetDef" x="30" y="36" onmousedown="handleReset()"/>
                <g id="arrowUp" xlink:href="#dirArrow" transform="translate(30 24)" onmousedown="handlePan(0,-1)">
                  <use xlink:href="#rim" fill="#404040">
                        <set attributeName="fill" to="#808080" begin="arrowUp.mouseover" end="arrowUp.mouseout"/>
                  </use>
                  <path fill="none" stroke="white" stroke-width="1.5" d="M0,-3.0v7 M-2.5,-0.5L0,-3.0L2.5,-0.5"/>
                </g>
                <g id="arrowRight" xlink:href="#dirArrow" transform="rotate(90) translate(36 -43)" onmousedown="handlePan(1,0)">
                  <use xlink:href="#rim" fill="#404040">
                        <set attributeName="fill" to="#808080" begin="arrowRight.mouseover" end="arrowRight.mouseout"/>
                  </use>
                  <path fill="none" stroke="white" stroke-width="1.5" d="M0,-3.0v7 M-2.5,-0.5L0,-3.0L2.5,-0.5"/>
                </g>
                <g id="arrowDown" xlink:href="#dirArrow" transform="rotate(180) translate(-30 -48)" onmousedown="handlePan(0,1)">
                  <use xlink:href="#rim" fill="#404040">
                        <set attributeName="fill" to="#808080" begin="arrowDown.mouseover" end="arrowDown.mouseout"/>
                  </use>
                  <path fill="none" stroke="white" stroke-width="1.5" d="M0,-3.0v7 M-2.5,-0.5L0,-3.0L2.5,-0.5"/>
                </g>
                <g id="arrowLeft" xlink:href="#dirArrow" transform="rotate(270) translate(-36 17)" onmousedown="handlePan(-1,0)">
                  <use xlink:href="#rim" fill="#404040">
                        <set attributeName="fill" to="#808080" begin="arrowLeft.mouseover" end="arrowLeft.mouseout"/>
                  </use>
                  <path fill="none" stroke="white" stroke-width="1.5" d="M0,-3.0v7 M-2.5,-0.5L0,-3.0L2.5,-0.5"/>
                </g>
        </g>
        <svg viewBox="0 0 15 15" width="100%" height="30px" preserveAspectRatio="xMaxYMin meet">
         <g id="arrow_out" transform="scale(0.3 0.3)">
          <a xlink:href="structured-lbfgs_8hpp__dep__incl_org.svg" target="_base">
           <rect id="button" ry="5" rx="5" y="6" x="6" height="38" width="38"
                fill="#f2f5e9" fill-opacity="0.5" stroke="#606060" stroke-width="1.0"/>
           <path id="arrow"
             d="M 11.500037,31.436501 C 11.940474,20.09759 22.043105,11.32322 32.158766,21.979434 L 37.068811,17.246167 C 37.068811,17.246167 37.088388,32 37.088388,32 L 22.160133,31.978069 C 22.160133,31.978069 26.997745,27.140456 26.997745,27.140456 C 18.528582,18.264221 13.291696,25.230495 11.500037,31.436501 z"
             style="fill:#404040;"/>
          </a>
         </g>
        </svg>
</svg>
