<?xml version="1.0" encoding="UTF-8" standalone="no"?>
<!DOCTYPE svg PUBLIC "-//W3C//DTD SVG 1.1//EN"
 "http://www.w3.org/Graphics/SVG/1.1/DTD/svg11.dtd">
<!-- Generated by graphviz version 2.43.0 (0)
 -->
<!-- Title: n Pages: 1 -->
<svg width="925pt" height="422pt"
 viewBox="0.00 0.00 925.00 422.00" xmlns="http://www.w3.org/2000/svg" xmlns:xlink="http://www.w3.org/1999/xlink">
<g id="graph0" class="graph" transform="scale(1 1) rotate(0) translate(4 418)">
<title>n</title>
<polygon fill="white" stroke="transparent" points="-4,4 -4,-418 921,-418 921,4 -4,4"/>
<!-- Node1 -->
<g id="node1" class="node">
<title>Node1</title>
<g id="a_node1"><a xlink:title="Get the size of the s and y vectors in the buffer.">
<polygon fill="#bfbfbf" stroke="black" points="888,-220 888,-239 917,-239 917,-220 888,-220"/>
<text text-anchor="middle" x="902.5" y="-227" font-family="Helvetica,sans-Serif" font-size="10.00">n</text>
</a>
</g>
</g>
<!-- Node2 -->
<g id="node2" class="node">
<title>Node2</title>
<g id="a_node2"><a xlink:href="classalpaqa_1_1LBFGS.html#af78287282b1c23d282a586aa2386a15a" target="_top" xlink:title=" ">
<polygon fill="white" stroke="black" points="654.5,-334 654.5,-353 702.5,-353 702.5,-334 654.5,-334"/>
<text text-anchor="middle" x="678.5" y="-341" font-family="Helvetica,sans-Serif" font-size="10.00">LBFGS</text>
</a>
</g>
</g>
<!-- Node1&#45;&gt;Node2 -->
<g id="edge1" class="edge">
<title>Node1&#45;&gt;Node2</title>
<path fill="none" stroke="midnightblue" d="M897.17,-249C891.13,-271.23 877.87,-306.8 852,-324.5 806.62,-355.55 738.28,-351.99 702.77,-347.38"/>
<polygon fill="midnightblue" stroke="midnightblue" points="900.64,-249.56 899.64,-239.02 893.84,-247.88 900.64,-249.56"/>
</g>
<!-- Node3 -->
<g id="node3" class="node">
<title>Node3</title>
<g id="a_node3"><a xlink:href="classalpaqa_1_1LBFGS.html#a57b2556ee8993b06958b9c14511fd4ba" target="_top" xlink:title="Re&#45;allocate storage for a problem with a different size.">
<polygon fill="white" stroke="black" points="806,-296 806,-315 852,-315 852,-296 806,-296"/>
<text text-anchor="middle" x="829" y="-303" font-family="Helvetica,sans-Serif" font-size="10.00">resize</text>
</a>
</g>
</g>
<!-- Node1&#45;&gt;Node3 -->
<g id="edge2" class="edge">
<title>Node1&#45;&gt;Node3</title>
<path fill="none" stroke="midnightblue" d="M885.24,-246.79C871,-261.92 850.82,-283.37 839.21,-295.71"/>
<polygon fill="midnightblue" stroke="midnightblue" points="888.14,-248.81 892.44,-239.13 883.04,-244.01 888.14,-248.81"/>
</g>
<!-- Node5 -->
<g id="node5" class="node">
<title>Node5</title>
<g id="a_node5"><a xlink:href="classalpaqa_1_1LBFGS.html#a644d66009a70ccc909120ba9afa45ea5" target="_top" xlink:title=" ">
<polygon fill="white" stroke="black" points="814.5,-201 814.5,-220 843.5,-220 843.5,-201 814.5,-201"/>
<text text-anchor="middle" x="829" y="-208" font-family="Helvetica,sans-Serif" font-size="10.00">s</text>
</a>
</g>
</g>
<!-- Node1&#45;&gt;Node5 -->
<g id="edge5" class="edge">
<title>Node1&#45;&gt;Node5</title>
<path fill="none" stroke="midnightblue" d="M877.98,-223.25C866.64,-220.24 853.43,-216.73 843.74,-214.15"/>
<polygon fill="midnightblue" stroke="midnightblue" points="877.15,-226.65 887.71,-225.84 878.95,-219.89 877.15,-226.65"/>
</g>
<!-- Node8 -->
<g id="node8" class="node">
<title>Node8</title>
<g id="a_node8"><a xlink:href="classalpaqa_1_1LBFGS.html#ac18c0672e61d25800877a42a1def3215" target="_top" xlink:title=" ">
<polygon fill="white" stroke="black" points="814.5,-106 814.5,-125 843.5,-125 843.5,-106 814.5,-106"/>
<text text-anchor="middle" x="829" y="-113" font-family="Helvetica,sans-Serif" font-size="10.00">y</text>
</a>
</g>
</g>
<!-- Node1&#45;&gt;Node8 -->
<g id="edge10" class="edge">
<title>Node1&#45;&gt;Node8</title>
<path fill="none" stroke="midnightblue" d="M891.69,-210.69C882.2,-192.94 867.07,-165.81 852,-143.5 847.71,-137.15 842.41,-130.38 838.09,-125.09"/>
<polygon fill="midnightblue" stroke="midnightblue" points="888.81,-212.74 896.58,-219.94 895,-209.47 888.81,-212.74"/>
</g>
<!-- Node11 -->
<g id="node11" class="node">
<title>Node11</title>
<g id="a_node11"><a xlink:href="classalpaqa_1_1LBFGS.html#a7866204934238efa4a186fc9d48a8a2e" target="_top" xlink:title=" ">
<polygon fill="white" stroke="black" points="814.5,-239 814.5,-258 843.5,-258 843.5,-239 814.5,-239"/>
<text text-anchor="middle" x="829" y="-246" font-family="Helvetica,sans-Serif" font-size="10.00">α</text>
</a>
</g>
</g>
<!-- Node1&#45;&gt;Node11 -->
<g id="edge16" class="edge">
<title>Node1&#45;&gt;Node11</title>
<path fill="none" stroke="midnightblue" d="M877.98,-235.75C866.64,-238.76 853.43,-242.27 843.74,-244.85"/>
<polygon fill="midnightblue" stroke="midnightblue" points="878.95,-239.11 887.71,-233.16 877.15,-232.35 878.95,-239.11"/>
</g>
<!-- Node17 -->
<g id="node17" class="node">
<title>Node17</title>
<g id="a_node17"><a xlink:href="classalpaqa_1_1LBFGS.html#aebf0127f7a3e56b2c46e5f189d517f14" target="_top" xlink:title=" ">
<polygon fill="white" stroke="black" points="814.5,-153 814.5,-172 843.5,-172 843.5,-153 814.5,-153"/>
<text text-anchor="middle" x="829" y="-160" font-family="Helvetica,sans-Serif" font-size="10.00">ρ</text>
</a>
</g>
</g>
<!-- Node1&#45;&gt;Node17 -->
<g id="edge25" class="edge">
<title>Node1&#45;&gt;Node17</title>
<path fill="none" stroke="midnightblue" d="M883.83,-212.94C870.11,-200.09 851.58,-182.72 840.23,-172.08"/>
<polygon fill="midnightblue" stroke="midnightblue" points="881.57,-215.62 891.26,-219.9 886.35,-210.51 881.57,-215.62"/>
</g>
<!-- Node3&#45;&gt;Node2 -->
<g id="edge3" class="edge">
<title>Node3&#45;&gt;Node2</title>
<path fill="none" stroke="midnightblue" d="M796.04,-313.68C768.03,-320.85 727.97,-331.1 702.87,-337.52"/>
<polygon fill="midnightblue" stroke="midnightblue" points="796.95,-317.06 805.77,-311.19 795.21,-310.28 796.95,-317.06"/>
</g>
<!-- Node4 -->
<g id="node4" class="node">
<title>Node4</title>
<g id="a_node4"><a xlink:href="classalpaqa_1_1StructuredPANOCLBFGSSolver.html#ade95d8a7a1892d4087d6fffc958cde6e" target="_top" xlink:title=" ">
<polygon fill="white" stroke="black" points="170,-214.5 170,-244.5 372,-244.5 372,-214.5 170,-214.5"/>
<text text-anchor="start" x="178" y="-232.5" font-family="Helvetica,sans-Serif" font-size="10.00">alpaqa::StructuredPANOCLBFGSSolver</text>
<text text-anchor="middle" x="271" y="-221.5" font-family="Helvetica,sans-Serif" font-size="10.00">::operator()</text>
</a>
</g>
</g>
<!-- Node3&#45;&gt;Node4 -->
<g id="edge4" class="edge">
<title>Node3&#45;&gt;Node4</title>
<path fill="none" stroke="midnightblue" d="M795.97,-304C749.7,-301.6 661.53,-296.16 587,-286.5 502.81,-275.59 406.94,-257.41 343.3,-244.51"/>
<polygon fill="midnightblue" stroke="midnightblue" points="795.83,-307.5 805.99,-304.51 796.18,-300.51 795.83,-307.5"/>
</g>
<!-- Node6 -->
<g id="node6" class="node">
<title>Node6</title>
<g id="a_node6"><a xlink:href="classalpaqa_1_1LBFGS.html#a33d8dd6fd12e1394c9637610086dae4c" target="_top" xlink:title="Apply the inverse Hessian approximation to the given vector q.">
<polygon fill="white" stroke="black" points="656.5,-182 656.5,-201 700.5,-201 700.5,-182 656.5,-182"/>
<text text-anchor="middle" x="678.5" y="-189" font-family="Helvetica,sans-Serif" font-size="10.00">apply</text>
</a>
</g>
</g>
<!-- Node5&#45;&gt;Node6 -->
<g id="edge6" class="edge">
<title>Node5&#45;&gt;Node6</title>
<path fill="none" stroke="midnightblue" d="M804.37,-207.48C775.8,-203.82 728.18,-197.73 700.74,-194.22"/>
<polygon fill="midnightblue" stroke="midnightblue" points="803.93,-210.95 814.3,-208.75 804.82,-204.01 803.93,-210.95"/>
</g>
<!-- Node7 -->
<g id="node7" class="node">
<title>Node7</title>
<g id="a_node7"><a xlink:href="classalpaqa_1_1LBFGS.html#a4db75f8c280c32a05a44bb83769befb1" target="_top" xlink:title="Update the inverse Hessian approximation using the new vectors xₖ₊₁ and pₖ₊₁.">
<polygon fill="white" stroke="black" points="454.5,-220 454.5,-239 504.5,-239 504.5,-220 454.5,-220"/>
<text text-anchor="middle" x="479.5" y="-227" font-family="Helvetica,sans-Serif" font-size="10.00">update</text>
</a>
</g>
</g>
<!-- Node5&#45;&gt;Node7 -->
<g id="edge8" class="edge">
<title>Node5&#45;&gt;Node7</title>
<path fill="none" stroke="midnightblue" d="M804.19,-211.8C740.87,-215.26 568.74,-224.68 504.83,-228.17"/>
<polygon fill="midnightblue" stroke="midnightblue" points="804.58,-215.29 814.38,-211.24 804.2,-208.3 804.58,-215.29"/>
</g>
<!-- Node6&#45;&gt;Node4 -->
<g id="edge7" class="edge">
<title>Node6&#45;&gt;Node4</title>
<path fill="none" stroke="midnightblue" d="M646.29,-193.01C596.02,-195.59 494.05,-201.47 408,-210.5 396.38,-211.72 384.23,-213.17 372.17,-214.71"/>
<polygon fill="midnightblue" stroke="midnightblue" points="646.68,-196.49 656.49,-192.49 646.33,-189.5 646.68,-196.49"/>
</g>
<!-- Node7&#45;&gt;Node4 -->
<g id="edge9" class="edge">
<title>Node7&#45;&gt;Node4</title>
<path fill="none" stroke="midnightblue" d="M444.33,-229.5C424.45,-229.5 398.24,-229.5 372.28,-229.5"/>
<polygon fill="midnightblue" stroke="midnightblue" points="444.41,-233 454.41,-229.5 444.41,-226 444.41,-233"/>
</g>
<!-- Node8&#45;&gt;Node6 -->
<g id="edge11" class="edge">
<title>Node8&#45;&gt;Node6</title>
<path fill="none" stroke="midnightblue" d="M805.22,-127.16C775.89,-142.17 725.45,-167.98 698.23,-181.91"/>
<polygon fill="midnightblue" stroke="midnightblue" points="806.99,-130.19 814.3,-122.51 803.8,-123.95 806.99,-130.19"/>
</g>
<!-- Node8&#45;&gt;Node7 -->
<g id="edge15" class="edge">
<title>Node8&#45;&gt;Node7</title>
<path fill="none" stroke="midnightblue" d="M804.96,-106.35C760.36,-90.17 660.18,-61.35 587,-96.5 531.81,-123.01 496.24,-193.61 484.65,-219.66"/>
<polygon fill="midnightblue" stroke="midnightblue" points="803.74,-109.63 814.33,-109.87 806.2,-103.08 803.74,-109.63"/>
</g>
<!-- Node9 -->
<g id="node9" class="node">
<title>Node9</title>
<g id="a_node9"><a xlink:href="classhanging__chain__dynamics_1_1HangingChain.html#a2e4d9874164cfa87334b099f3ce1f288" target="_top" xlink:title=" ">
<polygon fill="white" stroke="black" points="587,-0.5 587,-30.5 770,-30.5 770,-0.5 587,-0.5"/>
<text text-anchor="start" x="595" y="-18.5" font-family="Helvetica,sans-Serif" font-size="10.00">hanging_chain_dynamics.Hanging</text>
<text text-anchor="middle" x="678.5" y="-7.5" font-family="Helvetica,sans-Serif" font-size="10.00">Chain.dynamics</text>
</a>
</g>
</g>
<!-- Node8&#45;&gt;Node9 -->
<g id="edge12" class="edge">
<title>Node8&#45;&gt;Node9</title>
<path fill="none" stroke="midnightblue" d="M811.46,-98.68C800.33,-87.88 784.99,-73.96 770,-63.5 751.91,-50.88 730.12,-39.22 712.45,-30.56"/>
<polygon fill="midnightblue" stroke="midnightblue" points="809.19,-101.35 818.76,-105.9 814.11,-96.38 809.19,-101.35"/>
</g>
<!-- Node10 -->
<g id="node10" class="node">
<title>Node10</title>
<g id="a_node10"><a xlink:href="classalpaqa_1_1LBFGS.html#adeddc1e1eb8ce1c1bbaf931b6f9a5b9c" target="_top" xlink:title="Scale the stored y vectors by the given factor.">
<polygon fill="white" stroke="black" points="652,-106 652,-125 705,-125 705,-106 652,-106"/>
<text text-anchor="middle" x="678.5" y="-113" font-family="Helvetica,sans-Serif" font-size="10.00">scale_y</text>
</a>
</g>
</g>
<!-- Node8&#45;&gt;Node10 -->
<g id="edge14" class="edge">
<title>Node8&#45;&gt;Node10</title>
<path fill="none" stroke="midnightblue" d="M804.16,-115.5C777.09,-115.5 733.1,-115.5 705.26,-115.5"/>
<polygon fill="midnightblue" stroke="midnightblue" points="804.3,-119 814.3,-115.5 804.3,-112 804.3,-119"/>
</g>
<!-- Node9&#45;&gt;Node9 -->
<g id="edge13" class="edge">
<title>Node9&#45;&gt;Node9</title>
<path fill="none" stroke="midnightblue" d="M705.15,-40.96C701.85,-45.68 692.96,-49 678.5,-49 654.77,-49 646.06,-40.06 652.36,-30.66"/>
<polygon fill="midnightblue" stroke="midnightblue" points="708.63,-40.47 704.64,-30.66 701.64,-40.82 708.63,-40.47"/>
</g>
<!-- Node11&#45;&gt;Node6 -->
<g id="edge17" class="edge">
<title>Node11&#45;&gt;Node6</title>
<path fill="none" stroke="midnightblue" d="M804.74,-239.57C776.22,-228.63 728.3,-210.23 700.74,-199.65"/>
<polygon fill="midnightblue" stroke="midnightblue" points="803.71,-242.92 814.3,-243.24 806.21,-236.39 803.71,-242.92"/>
</g>
<!-- Node12 -->
<g id="node12" class="node">
<title>Node12</title>
<g id="a_node12"><a xlink:href="classalpaqa_1_1LBFGS.html#aaf9c6519c7a7d7ab977113f33c88e2e3" target="_top" xlink:title="Check if the new vectors s and y allow for a valid BFGS update that preserves the positive definitene...">
<polygon fill="white" stroke="black" points="638.5,-258 638.5,-277 718.5,-277 718.5,-258 638.5,-258"/>
<text text-anchor="middle" x="678.5" y="-265" font-family="Helvetica,sans-Serif" font-size="10.00">update_valid</text>
</a>
</g>
</g>
<!-- Node11&#45;&gt;Node12 -->
<g id="edge18" class="edge">
<title>Node11&#45;&gt;Node12</title>
<path fill="none" stroke="midnightblue" d="M804.36,-251.52C781.32,-254.47 745.86,-259.01 718.61,-262.5"/>
<polygon fill="midnightblue" stroke="midnightblue" points="804.82,-254.99 814.3,-250.25 803.93,-248.05 804.82,-254.99"/>
</g>
<!-- Node12&#45;&gt;Node7 -->
<g id="edge24" class="edge">
<title>Node12&#45;&gt;Node7</title>
<path fill="none" stroke="midnightblue" d="M628.16,-257.98C588.75,-250.38 535.23,-240.06 504.63,-234.15"/>
<polygon fill="midnightblue" stroke="midnightblue" points="627.63,-261.44 638.11,-259.9 628.95,-254.57 627.63,-261.44"/>
</g>
<!-- Node13 -->
<g id="node13" class="node">
<title>Node13</title>
<g id="a_node13"><a xlink:href="classalpaqa_1_1SpecializedLBFGS.html#a0b030867dbee1f90710a9b23360807a3" target="_top" xlink:title="L&#45;BFGS update when changing the step size γ, recomputing everything.">
<polygon fill="white" stroke="black" points="408,-383.5 408,-413.5 551,-413.5 551,-383.5 408,-383.5"/>
<text text-anchor="start" x="416" y="-401.5" font-family="Helvetica,sans-Serif" font-size="10.00">alpaqa::SpecializedLBFGS</text>
<text text-anchor="middle" x="479.5" y="-390.5" font-family="Helvetica,sans-Serif" font-size="10.00">::full_update</text>
</a>
</g>
</g>
<!-- Node12&#45;&gt;Node13 -->
<g id="edge19" class="edge">
<title>Node12&#45;&gt;Node13</title>
<path fill="none" stroke="midnightblue" d="M648.62,-281.93C629.8,-292.19 605.4,-307.2 587,-324.5 567.05,-343.25 573.01,-358.2 551,-374.5 546.43,-377.89 541.35,-380.82 536.06,-383.35"/>
<polygon fill="midnightblue" stroke="midnightblue" points="650.44,-284.92 657.63,-277.14 647.16,-278.74 650.44,-284.92"/>
</g>
<!-- Node16 -->
<g id="node16" class="node">
<title>Node16</title>
<g id="a_node16"><a xlink:href="classalpaqa_1_1SpecializedLBFGS.html#a5a4a6bc855faa7998e2308d5e6d10224" target="_top" xlink:title="Standard L&#45;BFGS update without changing the step size γ.">
<polygon fill="white" stroke="black" points="408,-334.5 408,-364.5 551,-364.5 551,-334.5 408,-334.5"/>
<text text-anchor="start" x="416" y="-352.5" font-family="Helvetica,sans-Serif" font-size="10.00">alpaqa::SpecializedLBFGS</text>
<text text-anchor="middle" x="479.5" y="-341.5" font-family="Helvetica,sans-Serif" font-size="10.00">::standard_update</text>
</a>
</g>
</g>
<!-- Node12&#45;&gt;Node16 -->
<g id="edge22" class="edge">
<title>Node12&#45;&gt;Node16</title>
<path fill="none" stroke="midnightblue" d="M645.15,-280.97C609.84,-295.66 553.44,-319.14 516.68,-334.44"/>
<polygon fill="midnightblue" stroke="midnightblue" points="646.63,-284.14 654.52,-277.07 643.94,-277.68 646.63,-284.14"/>
</g>
<!-- Node14 -->
<g id="node14" class="node">
<title>Node14</title>
<g id="a_node14"><a xlink:href="classalpaqa_1_1SpecializedLBFGS.html#a747b26091f869cb17a768e38f17fbc8d" target="_top" xlink:title="Update the inverse Hessian approximation using the new vectors xₖ₊₁ and pₖ₊₁.">
<polygon fill="white" stroke="black" points="199.5,-358.5 199.5,-388.5 342.5,-388.5 342.5,-358.5 199.5,-358.5"/>
<text text-anchor="start" x="207.5" y="-376.5" font-family="Helvetica,sans-Serif" font-size="10.00">alpaqa::SpecializedLBFGS</text>
<text text-anchor="middle" x="271" y="-365.5" font-family="Helvetica,sans-Serif" font-size="10.00">::update</text>
</a>
</g>
</g>
<!-- Node13&#45;&gt;Node14 -->
<g id="edge20" class="edge">
<title>Node13&#45;&gt;Node14</title>
<path fill="none" stroke="midnightblue" d="M397.74,-388.72C379.56,-386.52 360.41,-384.2 342.68,-382.06"/>
<polygon fill="midnightblue" stroke="midnightblue" points="397.38,-392.2 407.72,-389.93 398.22,-385.25 397.38,-392.2"/>
</g>
<!-- Node15 -->
<g id="node15" class="node">
<title>Node15</title>
<g id="a_node15"><a xlink:href="structalpaqa_1_1PANOCDirection_3_01SpecializedLBFGS_01_4.html#a39a241c049e8d029cc86a30a89ef92cf" target="_top" xlink:title=" ">
<polygon fill="white" stroke="black" points="0,-353 0,-394 134,-394 134,-353 0,-353"/>
<text text-anchor="start" x="8" y="-382" font-family="Helvetica,sans-Serif" font-size="10.00">alpaqa::PANOCDirection</text>
<text text-anchor="start" x="8" y="-371" font-family="Helvetica,sans-Serif" font-size="10.00">&lt; SpecializedLBFGS &gt;::</text>
<text text-anchor="middle" x="67" y="-360" font-family="Helvetica,sans-Serif" font-size="10.00">update</text>
</a>
</g>
</g>
<!-- Node14&#45;&gt;Node15 -->
<g id="edge21" class="edge">
<title>Node14&#45;&gt;Node15</title>
<path fill="none" stroke="midnightblue" d="M189.3,-373.5C171.02,-373.5 151.81,-373.5 134.2,-373.5"/>
<polygon fill="midnightblue" stroke="midnightblue" points="189.35,-377 199.35,-373.5 189.35,-370 189.35,-377"/>
</g>
<!-- Node16&#45;&gt;Node14 -->
<g id="edge23" class="edge">
<title>Node16&#45;&gt;Node14</title>
<path fill="none" stroke="midnightblue" d="M397.74,-358.89C379.56,-361 360.41,-363.22 342.68,-365.28"/>
<polygon fill="midnightblue" stroke="midnightblue" points="398.19,-362.36 407.72,-357.73 397.39,-355.4 398.19,-362.36"/>
</g>
<!-- Node17&#45;&gt;Node6 -->
<g id="edge26" class="edge">
<title>Node17&#45;&gt;Node6</title>
<path fill="none" stroke="midnightblue" d="M804.37,-167.12C775.8,-172.69 728.18,-181.99 700.74,-187.35"/>
<polygon fill="midnightblue" stroke="midnightblue" points="805.15,-170.53 814.3,-165.18 803.81,-163.66 805.15,-170.53"/>
</g>
<!-- Node17&#45;&gt;Node7 -->
<g id="edge28" class="edge">
<title>Node17&#45;&gt;Node7</title>
<path fill="none" stroke="midnightblue" d="M804.12,-160.03C760.22,-156.23 664.11,-151.45 587,-172.5 550.79,-182.38 513.15,-206.31 493.78,-219.81"/>
<polygon fill="midnightblue" stroke="midnightblue" points="804.07,-163.54 814.35,-160.98 804.72,-156.57 804.07,-163.54"/>
</g>
<!-- Node17&#45;&gt;Node10 -->
<g id="edge27" class="edge">
<title>Node17&#45;&gt;Node10</title>
<path fill="none" stroke="midnightblue" d="M805,-152.65C794.44,-148.32 781.69,-143.35 770,-139.5 748.39,-132.38 723.35,-125.87 705.09,-121.43"/>
<polygon fill="midnightblue" stroke="midnightblue" points="803.76,-155.93 814.34,-156.55 806.46,-149.47 803.76,-155.93"/>
</g>
</g>
</svg>
