<?xml version="1.0" encoding="UTF-8" standalone="no"?>
<!DOCTYPE svg PUBLIC "-//W3C//DTD SVG 1.1//EN"
 "http://www.w3.org/Graphics/SVG/1.1/DTD/svg11.dtd">
<!-- Generated by graphviz version 2.43.0 (0)
 -->
<!-- Title: GAAPGASolver Pages: 1 -->
<svg width="354pt" height="463pt"
 viewBox="0.00 0.00 353.50 463.00" xmlns="http://www.w3.org/2000/svg" xmlns:xlink="http://www.w3.org/1999/xlink">
<g id="graph0" class="graph" transform="scale(1 1) rotate(0) translate(4 459)">
<title>GAAPGASolver</title>
<polygon fill="white" stroke="transparent" points="-4,4 -4,-459 349.5,-459 349.5,4 -4,4"/>
<!-- Node1 -->
<g id="node1" class="node">
<title>Node1</title>
<g id="a_node1"><a xlink:title="Guarded Anderson Accelerated Proximal Gradient Algorithm.">
<polygon fill="#bfbfbf" stroke="black" points="138,-0.5 138,-112.5 281,-112.5 281,-0.5 138,-0.5"/>
<text text-anchor="middle" x="209.5" y="-100.5" font-family="Helvetica,sans-Serif" font-size="10.00">GAAPGASolver</text>
<polyline fill="none" stroke="black" points="138,-93.5 281,-93.5 "/>
<text text-anchor="start" x="146" y="-81.5" font-family="Helvetica,sans-Serif" font-size="10.00">&#45; progress_cb</text>
<polyline fill="none" stroke="black" points="138,-74.5 281,-74.5 "/>
<text text-anchor="start" x="146" y="-62.5" font-family="Helvetica,sans-Serif" font-size="10.00">+ GAAPGASolver()</text>
<text text-anchor="start" x="146" y="-51.5" font-family="Helvetica,sans-Serif" font-size="10.00">+ operator()()</text>
<text text-anchor="start" x="146" y="-40.5" font-family="Helvetica,sans-Serif" font-size="10.00">+ set_progress_callback()</text>
<text text-anchor="start" x="146" y="-29.5" font-family="Helvetica,sans-Serif" font-size="10.00">+ get_name()</text>
<text text-anchor="start" x="146" y="-18.5" font-family="Helvetica,sans-Serif" font-size="10.00">+ stop()</text>
<text text-anchor="start" x="146" y="-7.5" font-family="Helvetica,sans-Serif" font-size="10.00">+ get_params()</text>
</a>
</g>
</g>
<!-- Node2 -->
<g id="node2" class="node">
<title>Node2</title>
<g id="a_node2"><a xlink:href="namespacealpaqa.html#structalpaqa_1_1GAAPGAParams" target="_top" xlink:title=" ">
<polygon fill="white" stroke="black" points="64,-160.5 64,-316.5 205,-316.5 205,-160.5 64,-160.5"/>
<text text-anchor="middle" x="134.5" y="-304.5" font-family="Helvetica,sans-Serif" font-size="10.00">GAAPGAParams</text>
<polyline fill="none" stroke="black" points="64,-297.5 205,-297.5 "/>
<text text-anchor="start" x="72" y="-285.5" font-family="Helvetica,sans-Serif" font-size="10.00">+ limitedqr_mem</text>
<text text-anchor="start" x="72" y="-274.5" font-family="Helvetica,sans-Serif" font-size="10.00">+ max_iter</text>
<text text-anchor="start" x="72" y="-263.5" font-family="Helvetica,sans-Serif" font-size="10.00">+ L_min</text>
<text text-anchor="start" x="72" y="-252.5" font-family="Helvetica,sans-Serif" font-size="10.00">+ L_max</text>
<text text-anchor="start" x="72" y="-241.5" font-family="Helvetica,sans-Serif" font-size="10.00">+ stop_crit</text>
<text text-anchor="start" x="72" y="-230.5" font-family="Helvetica,sans-Serif" font-size="10.00">+ print_interval</text>
<text text-anchor="start" x="72" y="-219.5" font-family="Helvetica,sans-Serif" font-size="10.00">+ quadratic_upperbound</text>
<text text-anchor="start" x="72" y="-208.5" font-family="Helvetica,sans-Serif" font-size="10.00">_tolerance_factor</text>
<text text-anchor="start" x="72" y="-197.5" font-family="Helvetica,sans-Serif" font-size="10.00">+ max_no_progress</text>
<text text-anchor="start" x="72" y="-186.5" font-family="Helvetica,sans-Serif" font-size="10.00">+ full_flush_on_γ_change</text>
<polyline fill="none" stroke="black" points="64,-179.5 205,-179.5 "/>
<text text-anchor="middle" x="134.5" y="-167.5" font-family="Helvetica,sans-Serif" font-size="10.00"> </text>
</a>
</g>
</g>
<!-- Node2&#45;&gt;Node1 -->
<g id="edge1" class="edge">
<title>Node2&#45;&gt;Node1</title>
<path fill="none" stroke="#404040" d="M166.63,-160.38C171.69,-148.23 176.89,-135.76 181.84,-123.89"/>
<polygon fill="none" stroke="#404040" points="181.88,-123.79 180.5,-116.71 186.5,-112.71 187.88,-119.79 181.88,-123.79"/>
<text text-anchor="middle" x="201.5" y="-134" font-family="Helvetica,sans-Serif" font-size="10.00"> &#45;params</text>
</g>
<!-- Node3 -->
<g id="node3" class="node">
<title>Node3</title>
<g id="a_node3"><a xlink:href="namespacealpaqa.html#structalpaqa_1_1LipschitzEstimateParams" target="_top" xlink:title=" ">
<polygon fill="white" stroke="black" points="0,-364.5 0,-454.5 139,-454.5 139,-364.5 0,-364.5"/>
<text text-anchor="middle" x="69.5" y="-442.5" font-family="Helvetica,sans-Serif" font-size="10.00">LipschitzEstimateParams</text>
<polyline fill="none" stroke="black" points="0,-435.5 139,-435.5 "/>
<text text-anchor="start" x="8" y="-423.5" font-family="Helvetica,sans-Serif" font-size="10.00">+ L₀</text>
<text text-anchor="start" x="8" y="-412.5" font-family="Helvetica,sans-Serif" font-size="10.00">+ ε</text>
<text text-anchor="start" x="8" y="-401.5" font-family="Helvetica,sans-Serif" font-size="10.00">+ δ</text>
<text text-anchor="start" x="8" y="-390.5" font-family="Helvetica,sans-Serif" font-size="10.00">+ Lγ_factor</text>
<polyline fill="none" stroke="black" points="0,-383.5 139,-383.5 "/>
<text text-anchor="middle" x="69.5" y="-371.5" font-family="Helvetica,sans-Serif" font-size="10.00"> </text>
</a>
</g>
</g>
<!-- Node3&#45;&gt;Node2 -->
<g id="edge2" class="edge">
<title>Node3&#45;&gt;Node2</title>
<path fill="none" stroke="#404040" d="M86.58,-364.1C90.87,-352.94 95.63,-340.57 100.43,-328.08"/>
<polygon fill="none" stroke="#404040" points="100.53,-327.81 98.96,-320.77 104.84,-316.61 106.42,-323.64 100.53,-327.81"/>
<text text-anchor="middle" x="124" y="-338" font-family="Helvetica,sans-Serif" font-size="10.00"> +Lipschitz</text>
</g>
<!-- Node4 -->
<g id="node4" class="node">
<title>Node4</title>
<g id="a_node4"><a xlink:title=" ">
<polygon fill="white" stroke="#bfbfbf" points="157.5,-381 157.5,-438 241.5,-438 241.5,-381 157.5,-381"/>
<text text-anchor="middle" x="199.5" y="-426" font-family="Helvetica,sans-Serif" font-size="10.00">microseconds</text>
<polyline fill="none" stroke="#bfbfbf" points="157.5,-419 241.5,-419 "/>
<text text-anchor="middle" x="199.5" y="-407" font-family="Helvetica,sans-Serif" font-size="10.00"> </text>
<polyline fill="none" stroke="#bfbfbf" points="157.5,-400 241.5,-400 "/>
<text text-anchor="middle" x="199.5" y="-388" font-family="Helvetica,sans-Serif" font-size="10.00"> </text>
</a>
</g>
</g>
<!-- Node4&#45;&gt;Node2 -->
<g id="edge3" class="edge">
<title>Node4&#45;&gt;Node2</title>
<path fill="none" stroke="#404040" d="M188.91,-380.97C183.26,-366.27 175.95,-347.27 168.53,-327.99"/>
<polygon fill="none" stroke="#404040" points="168.47,-327.83 162.59,-323.67 164.17,-316.63 170.05,-320.8 168.47,-327.83"/>
<text text-anchor="middle" x="206" y="-338" font-family="Helvetica,sans-Serif" font-size="10.00"> +max_time</text>
</g>
<!-- Node5 -->
<g id="node5" class="node">
<title>Node5</title>
<g id="a_node5"><a xlink:href="classalpaqa_1_1AtomicStopSignal.html" target="_top" xlink:title=" ">
<polygon fill="white" stroke="black" points="223.5,-177 223.5,-300 345.5,-300 345.5,-177 223.5,-177"/>
<text text-anchor="middle" x="284.5" y="-288" font-family="Helvetica,sans-Serif" font-size="10.00">AtomicStopSignal</text>
<polyline fill="none" stroke="black" points="223.5,-281 345.5,-281 "/>
<text text-anchor="start" x="231.5" y="-269" font-family="Helvetica,sans-Serif" font-size="10.00">&#45; stop_flag</text>
<polyline fill="none" stroke="black" points="223.5,-262 345.5,-262 "/>
<text text-anchor="start" x="231.5" y="-250" font-family="Helvetica,sans-Serif" font-size="10.00">+ AtomicStopSignal()</text>
<text text-anchor="start" x="231.5" y="-239" font-family="Helvetica,sans-Serif" font-size="10.00">+ AtomicStopSignal()</text>
<text text-anchor="start" x="231.5" y="-228" font-family="Helvetica,sans-Serif" font-size="10.00">+ operator=()</text>
<text text-anchor="start" x="231.5" y="-217" font-family="Helvetica,sans-Serif" font-size="10.00">+ AtomicStopSignal()</text>
<text text-anchor="start" x="231.5" y="-206" font-family="Helvetica,sans-Serif" font-size="10.00">+ operator=()</text>
<text text-anchor="start" x="231.5" y="-195" font-family="Helvetica,sans-Serif" font-size="10.00">+ stop()</text>
<text text-anchor="start" x="231.5" y="-184" font-family="Helvetica,sans-Serif" font-size="10.00">+ stop_requested()</text>
</a>
</g>
</g>
<!-- Node5&#45;&gt;Node1 -->
<g id="edge4" class="edge">
<title>Node5&#45;&gt;Node1</title>
<path fill="none" stroke="#404040" d="M259.21,-176.81C252.13,-159.82 244.4,-141.25 237.18,-123.94"/>
<polygon fill="none" stroke="#404040" points="237.15,-123.85 231.15,-119.85 232.53,-112.78 238.53,-116.78 237.15,-123.85"/>
<text text-anchor="middle" x="274" y="-134" font-family="Helvetica,sans-Serif" font-size="10.00"> &#45;stop_signal</text>
</g>
</g>
</svg>
