<?xml version="1.0" encoding="UTF-8" standalone="no"?>
<!DOCTYPE svg PUBLIC "-//W3C//DTD SVG 1.1//EN"
 "http://www.w3.org/Graphics/SVG/1.1/DTD/svg11.dtd">
<!-- Generated by graphviz version 2.43.0 (0)
 -->
<!-- Title: eval_add_R_prod_masked Pages: 1 -->
<svg width="540pt" height="38pt"
 viewBox="0.00 0.00 540.00 38.00" xmlns="http://www.w3.org/2000/svg" xmlns:xlink="http://www.w3.org/1999/xlink">
<g id="graph0" class="graph" transform="scale(1 1) rotate(0) translate(4 34)">
<title>eval_add_R_prod_masked</title>
<!-- Node1 -->
<g id="Node000001" class="node">
<title>Node1</title>
<g id="a_Node000001"><a xlink:title=" ">
<polygon fill="#999999" stroke="#666666" points="143,-24.5 0,-24.5 0,-5.5 143,-5.5 143,-24.5"/>
<text text-anchor="middle" x="71.5" y="-12.5" font-family="Helvetica,sans-Serif" font-size="10.00">eval_add_R_prod_masked</text>
</a>
</g>
</g>
<!-- Node2 -->
<g id="Node000002" class="node">
<title>Node2</title>
<g id="a_Node000002"><a xlink:href="namespacealpaqa_1_1util.html#a00fa6cdb76e2f6bc63a85e3f7e379a51" target="_top" xlink:title="out += R(mask_J,mask_K) * v(mask_K);">
<polygon fill="white" stroke="#666666" points="358,-30 179,-30 179,0 358,0 358,-30"/>
<text text-anchor="start" x="187" y="-18" font-family="Helvetica,sans-Serif" font-size="10.00">alpaqa::util::sparse</text>
<text text-anchor="middle" x="268.5" y="-7" font-family="Helvetica,sans-Serif" font-size="10.00">_matvec_add_masked_rows_cols</text>
</a>
</g>
</g>
<!-- Node1&#45;&gt;Node2 -->
<g id="edge1_Node000001_Node000002" class="edge">
<title>Node1&#45;&gt;Node2</title>
<g id="a_edge1_Node000001_Node000002"><a xlink:title=" ">
<path fill="none" stroke="#63b8ff" d="M143.18,-15C151.48,-15 160.06,-15 168.66,-15"/>
<polygon fill="#63b8ff" stroke="#63b8ff" points="168.75,-18.5 178.75,-15 168.75,-11.5 168.75,-18.5"/>
</a>
</g>
</g>
<!-- Node3 -->
<g id="Node000003" class="node">
<title>Node3</title>
<g id="a_Node000003"><a xlink:href="namespacealpaqa_1_1util_1_1detail.html#a619596647bd12dfb15417042bcdef056" target="_top" xlink:title="Like select_rows_in_col, but returns a range of tuples containing the Eigen InnerIterator and a linea...">
<polygon fill="white" stroke="#666666" points="532,-30 394,-30 394,0 532,0 532,-30"/>
<text text-anchor="start" x="402" y="-18" font-family="Helvetica,sans-Serif" font-size="10.00">alpaqa::util::detail</text>
<text text-anchor="middle" x="463" y="-7" font-family="Helvetica,sans-Serif" font-size="10.00">::select_rows_in_col_iota</text>
</a>
</g>
</g>
<!-- Node2&#45;&gt;Node3 -->
<g id="edge2_Node000002_Node000003" class="edge">
<title>Node2&#45;&gt;Node3</title>
<g id="a_edge2_Node000002_Node000003"><a xlink:title=" ">
<path fill="none" stroke="#63b8ff" d="M358.14,-15C366.7,-15 375.34,-15 383.79,-15"/>
<polygon fill="#63b8ff" stroke="#63b8ff" points="383.98,-18.5 393.98,-15 383.98,-11.5 383.98,-18.5"/>
</a>
</g>
</g>
</g>
</svg>
