<?xml version="1.0" encoding="UTF-8" standalone="no"?>
<!DOCTYPE svg PUBLIC "-//W3C//DTD SVG 1.1//EN"
 "http://www.w3.org/Graphics/SVG/1.1/DTD/svg11.dtd">
<!-- Generated by graphviz version 2.43.0 (0)
 -->
<!-- Title: begin Pages: 1 -->
<svg width="476pt" height="168pt"
 viewBox="0.00 0.00 476.00 167.50" xmlns="http://www.w3.org/2000/svg" xmlns:xlink="http://www.w3.org/1999/xlink">
<g id="graph0" class="graph" transform="scale(1 1) rotate(0) translate(4 163.5)">
<title>begin</title>
<polygon fill="white" stroke="transparent" points="-4,4 -4,-163.5 472,-163.5 472,4 -4,4"/>
<!-- Node1 -->
<g id="node1" class="node">
<title>Node1</title>
<g id="a_node1"><a xlink:title=" ">
<polygon fill="#bfbfbf" stroke="black" points="424,-66.5 424,-85.5 468,-85.5 468,-66.5 424,-66.5"/>
<text text-anchor="middle" x="446" y="-73.5" font-family="Helvetica,sans-Serif" font-size="10.00">begin</text>
</a>
</g>
</g>
<!-- Node2 -->
<g id="node2" class="node">
<title>Node2</title>
<g id="a_node2"><a xlink:href="classalpaqa_1_1CircularRange.html#a39112ae08f6ffc7ee58c6aa79772e094" target="_top" xlink:title=" ">
<polygon fill="white" stroke="black" points="281.5,-131.5 281.5,-150.5 330.5,-150.5 330.5,-131.5 281.5,-131.5"/>
<text text-anchor="middle" x="306" y="-138.5" font-family="Helvetica,sans-Serif" font-size="10.00">cbegin</text>
</a>
</g>
</g>
<!-- Node1&#45;&gt;Node2 -->
<g id="edge1" class="edge">
<title>Node1&#45;&gt;Node2</title>
<path fill="none" stroke="midnightblue" d="M426.16,-92.02C415.52,-100.41 401.65,-110.31 388,-117 369.69,-125.97 347.39,-132.28 330.82,-136.17"/>
<polygon fill="midnightblue" stroke="midnightblue" points="428.39,-94.72 433.94,-85.7 423.97,-89.29 428.39,-94.72"/>
</g>
<!-- Node4 -->
<g id="node4" class="node">
<title>Node4</title>
<g id="a_node4"><a xlink:href="classalpaqa_1_1CircularRange.html#abef9dfc7607c7e1a3854788ba56a4f34" target="_top" xlink:title=" ">
<polygon fill="white" stroke="black" points="284,-88.5 284,-107.5 328,-107.5 328,-88.5 284,-88.5"/>
<text text-anchor="middle" x="306" y="-95.5" font-family="Helvetica,sans-Serif" font-size="10.00">crend</text>
</a>
</g>
</g>
<!-- Node1&#45;&gt;Node4 -->
<g id="edge3" class="edge">
<title>Node1&#45;&gt;Node4</title>
<path fill="none" stroke="midnightblue" d="M413.57,-81.01C387.4,-85.18 350.84,-91.01 328.06,-94.64"/>
<polygon fill="midnightblue" stroke="midnightblue" points="414.42,-84.42 423.74,-79.39 413.31,-77.51 414.42,-84.42"/>
</g>
<!-- Node6 -->
<g id="node6" class="node">
<title>Node6</title>
<g id="a_node6"><a xlink:href="classalpaqa_1_1ReverseCircularRange.html#a4da62c698565a7f1bab4a15a86b167e1" target="_top" xlink:title=" ">
<polygon fill="white" stroke="black" points="224,-39 224,-69 388,-69 388,-39 224,-39"/>
<text text-anchor="start" x="232" y="-57" font-family="Helvetica,sans-Serif" font-size="10.00">alpaqa::ReverseCircularRange</text>
<text text-anchor="middle" x="306" y="-46" font-family="Helvetica,sans-Serif" font-size="10.00">::rbegin</text>
</a>
</g>
</g>
<!-- Node1&#45;&gt;Node6 -->
<g id="edge5" class="edge">
<title>Node1&#45;&gt;Node6</title>
<path fill="none" stroke="midnightblue" d="M413.76,-71.02C405.98,-69.78 397.27,-68.39 388.27,-66.96"/>
<polygon fill="midnightblue" stroke="midnightblue" points="413.31,-74.49 423.74,-72.61 414.42,-67.58 413.31,-74.49"/>
</g>
<!-- Node7 -->
<g id="node7" class="node">
<title>Node7</title>
<g id="a_node7"><a xlink:href="classalpaqa_1_1CircularRange.html#ab3fe1cdacc9a53cc2d0cbe27599036c4" target="_top" xlink:title=" ">
<polygon fill="white" stroke="black" points="287,-0.5 287,-19.5 325,-19.5 325,-0.5 287,-0.5"/>
<text text-anchor="middle" x="306" y="-7.5" font-family="Helvetica,sans-Serif" font-size="10.00">rend</text>
</a>
</g>
</g>
<!-- Node1&#45;&gt;Node7 -->
<g id="edge6" class="edge">
<title>Node1&#45;&gt;Node7</title>
<path fill="none" stroke="midnightblue" d="M428.58,-58.96C417.91,-48.83 403.2,-36.53 388,-29 367.81,-19 342.15,-14.13 325.18,-11.85"/>
<polygon fill="midnightblue" stroke="midnightblue" points="426.31,-61.63 435.89,-66.16 431.23,-56.65 426.31,-61.63"/>
</g>
<!-- Node3 -->
<g id="node3" class="node">
<title>Node3</title>
<g id="a_node3"><a xlink:href="classalpaqa_1_1ReverseCircularRange.html#a81f80a31923e85af56a7b1ae0712a33b" target="_top" xlink:title=" ">
<polygon fill="white" stroke="black" points="12,-129 12,-159 176,-159 176,-129 12,-129"/>
<text text-anchor="start" x="20" y="-147" font-family="Helvetica,sans-Serif" font-size="10.00">alpaqa::ReverseCircularRange</text>
<text text-anchor="middle" x="94" y="-136" font-family="Helvetica,sans-Serif" font-size="10.00">::crbegin</text>
</a>
</g>
</g>
<!-- Node2&#45;&gt;Node3 -->
<g id="edge2" class="edge">
<title>Node2&#45;&gt;Node3</title>
<path fill="none" stroke="midnightblue" d="M271.01,-141.49C245.34,-141.85 209.02,-142.37 176.03,-142.84"/>
<polygon fill="midnightblue" stroke="midnightblue" points="271.37,-144.98 281.32,-141.34 271.27,-137.98 271.37,-144.98"/>
</g>
<!-- Node5 -->
<g id="node5" class="node">
<title>Node5</title>
<g id="a_node5"><a xlink:href="classalpaqa_1_1ReverseCircularRange.html#a93791e61ab486b4022c389d634b4facc" target="_top" xlink:title=" ">
<polygon fill="white" stroke="black" points="12,-80 12,-110 176,-110 176,-80 12,-80"/>
<text text-anchor="start" x="20" y="-98" font-family="Helvetica,sans-Serif" font-size="10.00">alpaqa::ReverseCircularRange</text>
<text text-anchor="middle" x="94" y="-87" font-family="Helvetica,sans-Serif" font-size="10.00">::cend</text>
</a>
</g>
</g>
<!-- Node4&#45;&gt;Node5 -->
<g id="edge4" class="edge">
<title>Node4&#45;&gt;Node5</title>
<path fill="none" stroke="midnightblue" d="M273.43,-97.55C247.66,-97.18 210.07,-96.64 176.03,-96.16"/>
<polygon fill="midnightblue" stroke="midnightblue" points="273.66,-101.05 283.71,-97.7 273.76,-94.05 273.66,-101.05"/>
</g>
<!-- Node8 -->
<g id="node8" class="node">
<title>Node8</title>
<g id="a_node8"><a xlink:href="classalpaqa_1_1ReverseCircularRange.html#a68b688a51bd0cf6fb5bc2cba292209a8" target="_top" xlink:title=" ">
<polygon fill="white" stroke="black" points="0,-0.5 0,-19.5 188,-19.5 188,-0.5 0,-0.5"/>
<text text-anchor="middle" x="94" y="-7.5" font-family="Helvetica,sans-Serif" font-size="10.00">alpaqa::ReverseCircularRange::end</text>
</a>
</g>
</g>
<!-- Node7&#45;&gt;Node8 -->
<g id="edge7" class="edge">
<title>Node7&#45;&gt;Node8</title>
<path fill="none" stroke="midnightblue" d="M276.7,-10C253.79,-10 220.15,-10 188.03,-10"/>
<polygon fill="midnightblue" stroke="midnightblue" points="276.73,-13.5 286.73,-10 276.73,-6.5 276.73,-13.5"/>
</g>
</g>
</svg>
