<?xml version="1.0" encoding="UTF-8" standalone="no"?>
<!DOCTYPE svg PUBLIC "-//W3C//DTD SVG 1.1//EN"
 "http://www.w3.org/Graphics/SVG/1.1/DTD/svg11.dtd">
<!-- Generated by graphviz version 2.43.0 (0)
 -->
<!-- Title: operator() Pages: 1 -->
<svg width="252pt" height="214pt"
 viewBox="0.00 0.00 252.00 214.00" xmlns="http://www.w3.org/2000/svg" xmlns:xlink="http://www.w3.org/1999/xlink">
<g id="graph0" class="graph" transform="scale(1 1) rotate(0) translate(4 210)">
<title>operator()</title>
<polygon fill="white" stroke="transparent" points="-4,4 -4,-210 248,-210 248,4 -4,4"/>
<!-- Node1 -->
<g id="node1" class="node">
<title>Node1</title>
<g id="a_node1"><a xlink:title=" ">
<polygon fill="#bfbfbf" stroke="black" points="0,-88 0,-107 65,-107 65,-88 0,-88"/>
<text text-anchor="middle" x="32.5" y="-95" font-family="Helvetica,sans-Serif" font-size="10.00">operator()</text>
</a>
</g>
</g>
<!-- Node2 -->
<g id="node2" class="node">
<title>Node2</title>
<g id="a_node2"><a xlink:href="namespacealpaqa_1_1detail.html#aed4e4ce441080e1dc9b517d64e1517fe" target="_top" xlink:title=" ">
<polygon fill="white" stroke="black" points="114.5,-175.5 114.5,-205.5 230.5,-205.5 230.5,-175.5 114.5,-175.5"/>
<text text-anchor="start" x="122.5" y="-193.5" font-family="Helvetica,sans-Serif" font-size="10.00">alpaqa::detail::apply</text>
<text text-anchor="middle" x="172.5" y="-182.5" font-family="Helvetica,sans-Serif" font-size="10.00">_preconditioning</text>
</a>
</g>
</g>
<!-- Node1&#45;&gt;Node2 -->
<g id="edge1" class="edge">
<title>Node1&#45;&gt;Node2</title>
<path fill="none" stroke="midnightblue" d="M40.69,-107.39C51.97,-122.23 75.2,-150.24 101,-166.5 103.6,-168.14 106.32,-169.67 109.12,-171.12"/>
<polygon fill="midnightblue" stroke="midnightblue" points="107.73,-174.34 118.27,-175.43 110.71,-168 107.73,-174.34"/>
</g>
<!-- Node3 -->
<g id="node3" class="node">
<title>Node3</title>
<g id="a_node3"><a xlink:href="namespacealpaqa_1_1detail.html#ada3e8c3d9f9a4c8624b02947a8a9ce3f" target="_top" xlink:title=" ">
<polygon fill="white" stroke="black" points="107,-126.5 107,-156.5 238,-156.5 238,-126.5 107,-126.5"/>
<text text-anchor="start" x="115" y="-144.5" font-family="Helvetica,sans-Serif" font-size="10.00">alpaqa::detail::initialize</text>
<text text-anchor="middle" x="172.5" y="-133.5" font-family="Helvetica,sans-Serif" font-size="10.00">_penalty</text>
</a>
</g>
</g>
<!-- Node1&#45;&gt;Node3 -->
<g id="edge2" class="edge">
<title>Node1&#45;&gt;Node3</title>
<path fill="none" stroke="midnightblue" d="M63.44,-107.05C78.43,-111.82 97.07,-117.77 114.63,-123.37"/>
<polygon fill="midnightblue" stroke="midnightblue" points="113.66,-126.73 124.25,-126.43 115.79,-120.06 113.66,-126.73"/>
</g>
<!-- Node4 -->
<g id="node4" class="node">
<title>Node4</title>
<g id="a_node4"><a xlink:href="namespacealpaqa_1_1vec__util.html#adddb38b65e3176db3b57d07a68ff2b54" target="_top" xlink:title="Get the maximum or infinity&#45;norm of the given vector.">
<polygon fill="white" stroke="black" points="101,-88 101,-107 244,-107 244,-88 101,-88"/>
<text text-anchor="middle" x="172.5" y="-95" font-family="Helvetica,sans-Serif" font-size="10.00">alpaqa::vec_util::norm_inf</text>
</a>
</g>
</g>
<!-- Node1&#45;&gt;Node4 -->
<g id="edge3" class="edge">
<title>Node1&#45;&gt;Node4</title>
<path fill="none" stroke="midnightblue" d="M65.16,-97.5C72.97,-97.5 81.68,-97.5 90.68,-97.5"/>
<polygon fill="midnightblue" stroke="midnightblue" points="90.91,-101 100.91,-97.5 90.91,-94 90.91,-101"/>
</g>
<!-- Node5 -->
<g id="node5" class="node">
<title>Node5</title>
<g id="a_node5"><a xlink:href="namespacealpaqa_1_1detail.html#a4604f57d18449d0644acd265cf7dfd1d" target="_top" xlink:title=" ">
<polygon fill="white" stroke="black" points="105.5,-50 105.5,-69 239.5,-69 239.5,-50 105.5,-50"/>
<text text-anchor="middle" x="172.5" y="-57" font-family="Helvetica,sans-Serif" font-size="10.00">alpaqa::detail::project_y</text>
</a>
</g>
</g>
<!-- Node1&#45;&gt;Node5 -->
<g id="edge4" class="edge">
<title>Node1&#45;&gt;Node5</title>
<path fill="none" stroke="midnightblue" d="M65.07,-88.53C76.4,-85.34 89.26,-81.73 101,-78.5 108.99,-76.3 117.5,-73.98 125.75,-71.75"/>
<polygon fill="midnightblue" stroke="midnightblue" points="126.87,-75.07 135.61,-69.09 125.05,-68.31 126.87,-75.07"/>
</g>
<!-- Node6 -->
<g id="node6" class="node">
<title>Node6</title>
<g id="a_node6"><a xlink:href="namespacealpaqa_1_1detail.html#a8260a1a72038b5d98e536df88b18a076" target="_top" xlink:title=" ">
<polygon fill="white" stroke="black" points="111,-0.5 111,-30.5 234,-30.5 234,-0.5 111,-0.5"/>
<text text-anchor="start" x="119" y="-18.5" font-family="Helvetica,sans-Serif" font-size="10.00">alpaqa::detail::update</text>
<text text-anchor="middle" x="172.5" y="-7.5" font-family="Helvetica,sans-Serif" font-size="10.00">_penalty_weights</text>
</a>
</g>
</g>
<!-- Node1&#45;&gt;Node6 -->
<g id="edge5" class="edge">
<title>Node1&#45;&gt;Node6</title>
<path fill="none" stroke="midnightblue" d="M42.72,-87.79C54.99,-75.34 77.85,-53.78 101,-40.5 104.67,-38.39 108.56,-36.41 112.54,-34.57"/>
<polygon fill="midnightblue" stroke="midnightblue" points="114.15,-37.68 121.94,-30.5 111.37,-31.26 114.15,-37.68"/>
</g>
</g>
</svg>
