<?xml version="1.0" encoding="UTF-8" standalone="no"?>
<!DOCTYPE svg PUBLIC "-//W3C//DTD SVG 1.1//EN"
 "http://www.w3.org/Graphics/SVG/1.1/DTD/svg11.dtd">
<!-- Generated by graphviz version 2.43.0 (0)
 -->
<!-- Title: provides_eval_grad_f_grad_g_prod Pages: 1 -->
<svg width="539pt" height="64pt"
 viewBox="0.00 0.00 539.00 64.00" xmlns="http://www.w3.org/2000/svg" xmlns:xlink="http://www.w3.org/1999/xlink">
<g id="graph0" class="graph" transform="scale(1 1) rotate(0) translate(4 60)">
<title>provides_eval_grad_f_grad_g_prod</title>
<!-- Node1 -->
<g id="Node000001" class="node">
<title>Node1</title>
<g id="a_Node000001"><a xlink:title="Returns true if the problem provides a specialized implementation of eval_grad_f_grad_g_prod,...">
<polygon fill="#999999" stroke="#666666" points="531,-42.5 419,-42.5 419,-12.5 531,-12.5 531,-42.5"/>
<text text-anchor="start" x="427" y="-30.5" font-family="Helvetica,sans-Serif" font-size="10.00">provides_eval_grad</text>
<text text-anchor="middle" x="475" y="-19.5" font-family="Helvetica,sans-Serif" font-size="10.00">_f_grad_g_prod</text>
</a>
</g>
</g>
<!-- Node2 -->
<g id="Node000002" class="node">
<title>Node2</title>
<g id="a_Node000002"><a xlink:href="group__grp__Problems.html#ga9ed51a24b30020b93df728547026f370" target="_top" xlink:title=" ">
<polygon fill="white" stroke="#666666" points="383,-42.5 257,-42.5 257,-12.5 383,-12.5 383,-42.5"/>
<text text-anchor="start" x="265" y="-30.5" font-family="Helvetica,sans-Serif" font-size="10.00">alpaqa::print_provided</text>
<text text-anchor="middle" x="320" y="-19.5" font-family="Helvetica,sans-Serif" font-size="10.00">_functions</text>
</a>
</g>
</g>
<!-- Node1&#45;&gt;Node2 -->
<g id="edge1_Node000001_Node000002" class="edge">
<title>Node1&#45;&gt;Node2</title>
<g id="a_edge1_Node000001_Node000002"><a xlink:title=" ">
<path fill="none" stroke="#63b8ff" d="M408.59,-27.5C400.16,-27.5 391.54,-27.5 383.16,-27.5"/>
<polygon fill="#63b8ff" stroke="#63b8ff" points="408.76,-31 418.76,-27.5 408.76,-24 408.76,-31"/>
</a>
</g>
</g>
<!-- Node3 -->
<g id="Node000003" class="node">
<title>Node3</title>
<g id="a_Node000003"><a xlink:href="gradient-checker_8cpp.html#ac0f2228420376f4db7e1274f2b41667c" target="_top" xlink:title=" ">
<polygon fill="white" stroke="#666666" points="169.5,-56 128.5,-56 128.5,-37 169.5,-37 169.5,-56"/>
<text text-anchor="middle" x="149" y="-44" font-family="Helvetica,sans-Serif" font-size="10.00">main</text>
</a>
</g>
</g>
<!-- Node2&#45;&gt;Node3 -->
<g id="edge2_Node000002_Node000003" class="edge">
<title>Node2&#45;&gt;Node3</title>
<g id="a_edge2_Node000002_Node000003"><a xlink:title=" ">
<path fill="none" stroke="#63b8ff" d="M246.37,-35.67C218.44,-38.81 188.76,-42.14 169.83,-44.27"/>
<polygon fill="#63b8ff" stroke="#63b8ff" points="247,-39.12 256.55,-34.52 246.22,-32.16 247,-39.12"/>
</a>
</g>
</g>
<!-- Node4 -->
<g id="Node000004" class="node">
<title>Node4</title>
<g id="a_Node000004"><a xlink:href="alpaqa-driver_8cpp.html#a97d8bbd07c6daf32220df9e0b4fe2cc0" target="_top" xlink:title=" ">
<polygon fill="white" stroke="#666666" points="221,-19 77,-19 77,0 221,0 221,-19"/>
<text text-anchor="middle" x="149" y="-7" font-family="Helvetica,sans-Serif" font-size="10.00">print_problem_description</text>
</a>
</g>
</g>
<!-- Node2&#45;&gt;Node4 -->
<g id="edge3_Node000002_Node000004" class="edge">
<title>Node2&#45;&gt;Node4</title>
<g id="a_edge3_Node000002_Node000004"><a xlink:title=" ">
<path fill="none" stroke="#63b8ff" d="M246.4,-19.77C237.99,-18.87 229.42,-17.96 221.03,-17.07"/>
<polygon fill="#63b8ff" stroke="#63b8ff" points="246.24,-23.27 256.55,-20.85 246.98,-16.31 246.24,-23.27"/>
</a>
</g>
</g>
<!-- Node5 -->
<g id="Node000005" class="node">
<title>Node5</title>
<g id="a_Node000005"><a xlink:href="alpaqa-driver_8cpp.html#ac0f2228420376f4db7e1274f2b41667c" target="_top" xlink:title=" ">
<polygon fill="white" stroke="#666666" points="41,-19 0,-19 0,0 41,0 41,-19"/>
<text text-anchor="middle" x="20.5" y="-7" font-family="Helvetica,sans-Serif" font-size="10.00">main</text>
</a>
</g>
</g>
<!-- Node4&#45;&gt;Node5 -->
<g id="edge4_Node000004_Node000005" class="edge">
<title>Node4&#45;&gt;Node5</title>
<g id="a_edge4_Node000004_Node000005"><a xlink:title=" ">
<path fill="none" stroke="#63b8ff" d="M66.92,-9.5C57.43,-9.5 48.52,-9.5 41.15,-9.5"/>
<polygon fill="#63b8ff" stroke="#63b8ff" points="66.98,-13 76.98,-9.5 66.98,-6 66.98,-13"/>
</a>
</g>
</g>
</g>
</svg>
