<?xml version="1.0" encoding="UTF-8" standalone="no"?>
<!DOCTYPE svg PUBLIC "-//W3C//DTD SVG 1.1//EN"
 "http://www.w3.org/Graphics/SVG/1.1/DTD/svg11.dtd">
<!-- Generated by graphviz version 2.43.0 (0)
 -->
<!-- Title: src/alpaqa/src/util/dl.cpp Pages: 1 -->
<svg width="383pt" height="148pt"
 viewBox="0.00 0.00 382.50 148.00" xmlns="http://www.w3.org/2000/svg" xmlns:xlink="http://www.w3.org/1999/xlink">
<g id="graph0" class="graph" transform="scale(1 1) rotate(0) translate(4 144)">
<title>src/alpaqa/src/util/dl.cpp</title>
<!-- Node1 -->
<g id="Node000001" class="node">
<title>Node1</title>
<g id="a_Node000001"><a xlink:title=" ">
<polygon fill="#999999" stroke="#666666" points="331,-140 228,-140 228,-110 331,-110 331,-140"/>
<text text-anchor="start" x="236" y="-128" font-family="Helvetica,sans-Serif" font-size="10.00">src/alpaqa/src/util</text>
<text text-anchor="middle" x="279.5" y="-117" font-family="Helvetica,sans-Serif" font-size="10.00">/dl.cpp</text>
</a>
</g>
</g>
<!-- Node2 -->
<g id="Node000002" class="node">
<title>Node2</title>
<g id="a_Node000002"><a xlink:href="dl_8hpp.html" target="_top" xlink:title=" ">
<polygon fill="white" stroke="#666666" points="236,-74 135,-74 135,-55 236,-55 236,-74"/>
<text text-anchor="middle" x="185.5" y="-62" font-family="Helvetica,sans-Serif" font-size="10.00">alpaqa/util/dl.hpp</text>
</a>
</g>
</g>
<!-- Node1&#45;&gt;Node2 -->
<g id="edge1_Node000001_Node000002" class="edge">
<title>Node1&#45;&gt;Node2</title>
<g id="a_edge1_Node000001_Node000002"><a xlink:title=" ">
<path fill="none" stroke="#63b8ff" d="M256.75,-109.84C241.9,-100.6 222.6,-88.59 207.84,-79.4"/>
<polygon fill="#63b8ff" stroke="#63b8ff" points="209.65,-76.41 199.31,-74.09 205.95,-82.35 209.65,-76.41"/>
</a>
</g>
</g>
<!-- Node7 -->
<g id="Node000007" class="node">
<title>Node7</title>
<g id="a_Node000007"><a xlink:title=" ">
<polygon fill="#e0e0e0" stroke="#999999" points="304.5,-74 254.5,-74 254.5,-55 304.5,-55 304.5,-74"/>
<text text-anchor="middle" x="279.5" y="-62" font-family="Helvetica,sans-Serif" font-size="10.00">dlfcn.h</text>
</a>
</g>
</g>
<!-- Node1&#45;&gt;Node7 -->
<g id="edge6_Node000001_Node000007" class="edge">
<title>Node1&#45;&gt;Node7</title>
<g id="a_edge6_Node000001_Node000007"><a xlink:title=" ">
<path fill="none" stroke="#63b8ff" d="M279.5,-109.84C279.5,-102.21 279.5,-92.7 279.5,-84.45"/>
<polygon fill="#63b8ff" stroke="#63b8ff" points="283,-84.27 279.5,-74.27 276,-84.27 283,-84.27"/>
</a>
</g>
</g>
<!-- Node8 -->
<g id="Node000008" class="node">
<title>Node8</title>
<g id="a_Node000008"><a xlink:title=" ">
<polygon fill="#e0e0e0" stroke="#999999" points="374.5,-74 322.5,-74 322.5,-55 374.5,-55 374.5,-74"/>
<text text-anchor="middle" x="348.5" y="-62" font-family="Helvetica,sans-Serif" font-size="10.00">cassert</text>
</a>
</g>
</g>
<!-- Node1&#45;&gt;Node8 -->
<g id="edge7_Node000001_Node000008" class="edge">
<title>Node1&#45;&gt;Node8</title>
<g id="a_edge7_Node000001_Node000008"><a xlink:title=" ">
<path fill="none" stroke="#63b8ff" d="M296.2,-109.84C306.53,-101.09 319.78,-89.85 330.36,-80.88"/>
<polygon fill="#63b8ff" stroke="#63b8ff" points="332.8,-83.4 338.16,-74.27 328.27,-78.06 332.8,-83.4"/>
</a>
</g>
</g>
<!-- Node3 -->
<g id="Node000003" class="node">
<title>Node3</title>
<g id="a_Node000003"><a xlink:title=" ">
<polygon fill="#e0e0e0" stroke="#999999" points="93,-19 0,-19 0,0 93,0 93,-19"/>
<text text-anchor="middle" x="46.5" y="-7" font-family="Helvetica,sans-Serif" font-size="10.00">alpaqa/export.h</text>
</a>
</g>
</g>
<!-- Node2&#45;&gt;Node3 -->
<g id="edge2_Node000002_Node000003" class="edge">
<title>Node2&#45;&gt;Node3</title>
<g id="a_edge2_Node000002_Node000003"><a xlink:title=" ">
<path fill="none" stroke="#63b8ff" d="M163.17,-54.98C140.3,-46.27 104.54,-32.63 78.64,-22.75"/>
<polygon fill="#63b8ff" stroke="#63b8ff" points="79.83,-19.46 69.24,-19.17 77.34,-26 79.83,-19.46"/>
</a>
</g>
</g>
<!-- Node4 -->
<g id="Node000004" class="node">
<title>Node4</title>
<g id="a_Node000004"><a xlink:title=" ">
<polygon fill="#e0e0e0" stroke="#999999" points="179.5,-19 111.5,-19 111.5,0 179.5,0 179.5,-19"/>
<text text-anchor="middle" x="145.5" y="-7" font-family="Helvetica,sans-Serif" font-size="10.00">filesystem</text>
</a>
</g>
</g>
<!-- Node2&#45;&gt;Node4 -->
<g id="edge3_Node000002_Node000004" class="edge">
<title>Node2&#45;&gt;Node4</title>
<g id="a_edge3_Node000002_Node000004"><a xlink:title=" ">
<path fill="none" stroke="#63b8ff" d="M178.89,-54.75C173.24,-47.26 164.96,-36.28 158.05,-27.13"/>
<polygon fill="#63b8ff" stroke="#63b8ff" points="160.8,-24.96 151.98,-19.09 155.21,-29.18 160.8,-24.96"/>
</a>
</g>
</g>
<!-- Node5 -->
<g id="Node000005" class="node">
<title>Node5</title>
<g id="a_Node000005"><a xlink:title=" ">
<polygon fill="#e0e0e0" stroke="#999999" points="255.5,-19 197.5,-19 197.5,0 255.5,0 255.5,-19"/>
<text text-anchor="middle" x="226.5" y="-7" font-family="Helvetica,sans-Serif" font-size="10.00">memory</text>
</a>
</g>
</g>
<!-- Node2&#45;&gt;Node5 -->
<g id="edge4_Node000002_Node000005" class="edge">
<title>Node2&#45;&gt;Node5</title>
<g id="a_edge4_Node000002_Node000005"><a xlink:title=" ">
<path fill="none" stroke="#63b8ff" d="M192.27,-54.75C198.06,-47.26 206.56,-36.28 213.64,-27.13"/>
<polygon fill="#63b8ff" stroke="#63b8ff" points="216.51,-29.14 219.86,-19.09 210.97,-24.86 216.51,-29.14"/>
</a>
</g>
</g>
<!-- Node6 -->
<g id="Node000006" class="node">
<title>Node6</title>
<g id="a_Node000006"><a xlink:title=" ">
<polygon fill="#e0e0e0" stroke="#999999" points="339,-19 274,-19 274,0 339,0 339,-19"/>
<text text-anchor="middle" x="306.5" y="-7" font-family="Helvetica,sans-Serif" font-size="10.00">stdexcept</text>
</a>
</g>
</g>
<!-- Node2&#45;&gt;Node6 -->
<g id="edge5_Node000002_Node000006" class="edge">
<title>Node2&#45;&gt;Node6</title>
<g id="a_edge5_Node000002_Node000006"><a xlink:title=" ">
<path fill="none" stroke="#63b8ff" d="M204.94,-54.98C224.49,-46.42 254.88,-33.11 277.32,-23.28"/>
<polygon fill="#63b8ff" stroke="#63b8ff" points="278.95,-26.39 286.71,-19.17 276.14,-19.98 278.95,-26.39"/>
</a>
</g>
</g>
</g>
</svg>
