<?xml version="1.0" encoding="UTF-8" standalone="no"?>
<!DOCTYPE svg PUBLIC "-//W3C//DTD SVG 1.1//EN"
 "http://www.w3.org/Graphics/SVG/1.1/DTD/svg11.dtd">
<!-- Generated by graphviz version 2.43.0 (0)
 -->
<!-- Title: src/alpaqa/include/alpaqa/util/index&#45;set.hpp Pages: 1 -->
<svg width="1578pt" height="258pt"
 viewBox="0.00 0.00 1578.00 258.00" xmlns="http://www.w3.org/2000/svg" xmlns:xlink="http://www.w3.org/1999/xlink">
<g id="graph0" class="graph" transform="scale(1 1) rotate(0) translate(4 254)">
<title>src/alpaqa/include/alpaqa/util/index&#45;set.hpp</title>
<!-- Node1 -->
<g id="Node000001" class="node">
<title>Node1</title>
<g id="a_Node000001"><a xlink:title=" ">
<polygon fill="#999999" stroke="#666666" points="924.5,-250 783.5,-250 783.5,-220 924.5,-220 924.5,-250"/>
<text text-anchor="start" x="791.5" y="-238" font-family="Helvetica,sans-Serif" font-size="10.00">src/alpaqa/include</text>
<text text-anchor="middle" x="854" y="-227" font-family="Helvetica,sans-Serif" font-size="10.00">/alpaqa/util/index&#45;set.hpp</text>
</a>
</g>
</g>
<!-- Node2 -->
<g id="Node000002" class="node">
<title>Node2</title>
<g id="a_Node000002"><a xlink:href="panoc-ocp_8tpp.html" target="_top" xlink:title=" ">
<polygon fill="white" stroke="#666666" points="400,-184 266,-184 266,-143 400,-143 400,-184"/>
<text text-anchor="start" x="274" y="-172" font-family="Helvetica,sans-Serif" font-size="10.00">src/alpaqa/include</text>
<text text-anchor="start" x="274" y="-161" font-family="Helvetica,sans-Serif" font-size="10.00">/alpaqa/implementation</text>
<text text-anchor="middle" x="333" y="-150" font-family="Helvetica,sans-Serif" font-size="10.00">/inner/panoc&#45;ocp.tpp</text>
</a>
</g>
</g>
<!-- Node1&#45;&gt;Node2 -->
<g id="edge1_Node000001_Node000002" class="edge">
<title>Node1&#45;&gt;Node2</title>
<g id="a_edge1_Node000001_Node000002"><a xlink:title=" ">
<path fill="none" stroke="#63b8ff" d="M773.47,-223.26C670.93,-209.58 495.63,-186.19 400.02,-173.44"/>
<polygon fill="#63b8ff" stroke="#63b8ff" points="773.09,-226.74 783.46,-224.59 774.02,-219.8 773.09,-226.74"/>
</a>
</g>
</g>
<!-- Node4 -->
<g id="Node000004" class="node">
<title>Node4</title>
<g id="a_Node000004"><a xlink:href="convex-newton_8hpp.html" target="_top" xlink:title=" ">
<polygon fill="white" stroke="#666666" points="773,-184 625,-184 625,-143 773,-143 773,-184"/>
<text text-anchor="start" x="633" y="-172" font-family="Helvetica,sans-Serif" font-size="10.00">src/alpaqa/include</text>
<text text-anchor="start" x="633" y="-161" font-family="Helvetica,sans-Serif" font-size="10.00">/alpaqa/inner/directions</text>
<text text-anchor="middle" x="699" y="-150" font-family="Helvetica,sans-Serif" font-size="10.00">/panoc/convex&#45;newton.hpp</text>
</a>
</g>
</g>
<!-- Node1&#45;&gt;Node4 -->
<g id="edge3_Node000001_Node000004" class="edge">
<title>Node1&#45;&gt;Node4</title>
<g id="a_edge3_Node000001_Node000004"><a xlink:title=" ">
<path fill="none" stroke="#63b8ff" d="M813.35,-215.77C791.61,-206.02 764.83,-194.02 742.65,-184.07"/>
<polygon fill="#63b8ff" stroke="#63b8ff" points="812.08,-219.04 822.63,-219.94 814.94,-212.65 812.08,-219.04"/>
</a>
</g>
</g>
<!-- Node14 -->
<g id="Node000014" class="node">
<title>Node14</title>
<g id="a_Node000014"><a xlink:href="structured-newton_8hpp.html" target="_top" xlink:title=" ">
<polygon fill="white" stroke="#666666" points="1022,-184 860,-184 860,-143 1022,-143 1022,-184"/>
<text text-anchor="start" x="868" y="-172" font-family="Helvetica,sans-Serif" font-size="10.00">src/alpaqa/include</text>
<text text-anchor="start" x="868" y="-161" font-family="Helvetica,sans-Serif" font-size="10.00">/alpaqa/inner/directions</text>
<text text-anchor="middle" x="941" y="-150" font-family="Helvetica,sans-Serif" font-size="10.00">/panoc/structured&#45;newton.hpp</text>
</a>
</g>
</g>
<!-- Node1&#45;&gt;Node14 -->
<g id="edge13_Node000001_Node000014" class="edge">
<title>Node1&#45;&gt;Node14</title>
<g id="a_edge13_Node000001_Node000014"><a xlink:title=" ">
<path fill="none" stroke="#63b8ff" d="M879.66,-213.5C891.3,-204.21 905,-193.26 916.5,-184.07"/>
<polygon fill="#63b8ff" stroke="#63b8ff" points="877.23,-210.96 871.61,-219.94 881.6,-216.43 877.23,-210.96"/>
</a>
</g>
</g>
<!-- Node16 -->
<g id="Node000016" class="node">
<title>Node16</title>
<g id="a_Node000016"><a xlink:href="newton-tr_8hpp.html" target="_top" xlink:title=" ">
<polygon fill="white" stroke="#666666" points="1230.5,-184 1099.5,-184 1099.5,-143 1230.5,-143 1230.5,-184"/>
<text text-anchor="start" x="1107.5" y="-172" font-family="Helvetica,sans-Serif" font-size="10.00">src/alpaqa/include</text>
<text text-anchor="start" x="1107.5" y="-161" font-family="Helvetica,sans-Serif" font-size="10.00">/alpaqa/inner/directions</text>
<text text-anchor="middle" x="1165" y="-150" font-family="Helvetica,sans-Serif" font-size="10.00">/pantr/newton&#45;tr.hpp</text>
</a>
</g>
</g>
<!-- Node1&#45;&gt;Node16 -->
<g id="edge18_Node000001_Node000016" class="edge">
<title>Node1&#45;&gt;Node16</title>
<g id="a_edge18_Node000001_Node000016"><a xlink:title=" ">
<path fill="none" stroke="#63b8ff" d="M926.81,-217.73C979.09,-206.05 1048.95,-190.43 1099.48,-179.14"/>
<polygon fill="#63b8ff" stroke="#63b8ff" points="925.93,-214.34 916.94,-219.94 927.46,-221.17 925.93,-214.34"/>
</a>
</g>
</g>
<!-- Node3 -->
<g id="Node000003" class="node">
<title>Node3</title>
<g id="a_Node000003"><a xlink:href="panoc-ocp_8cpp.html" target="_top" xlink:title=" ">
<polygon fill="white" stroke="#666666" points="112,-101.5 0,-101.5 0,-71.5 112,-71.5 112,-101.5"/>
<text text-anchor="start" x="8" y="-89.5" font-family="Helvetica,sans-Serif" font-size="10.00">src/alpaqa/src/inner</text>
<text text-anchor="middle" x="56" y="-78.5" font-family="Helvetica,sans-Serif" font-size="10.00">/panoc&#45;ocp.cpp</text>
</a>
</g>
</g>
<!-- Node2&#45;&gt;Node3 -->
<g id="edge2_Node000002_Node000003" class="edge">
<title>Node2&#45;&gt;Node3</title>
<g id="a_edge2_Node000002_Node000003"><a xlink:title=" ">
<path fill="none" stroke="#63b8ff" d="M256.23,-143.1C215.89,-132.73 165.67,-119.54 121,-107 114.87,-105.28 108.44,-103.42 102.1,-101.55"/>
<polygon fill="#63b8ff" stroke="#63b8ff" points="255.44,-146.51 266,-145.61 257.18,-139.73 255.44,-146.51"/>
</a>
</g>
</g>
<!-- Node5 -->
<g id="Node000005" class="node">
<title>Node5</title>
<g id="a_Node000005"><a xlink:href="panoc-convex-newton-alm_8hpp.html" target="_top" xlink:title=" ">
<polygon fill="white" stroke="#666666" points="692,-107 568,-107 568,-66 692,-66 692,-107"/>
<text text-anchor="start" x="576" y="-95" font-family="Helvetica,sans-Serif" font-size="10.00">src/alpaqa/include</text>
<text text-anchor="start" x="576" y="-84" font-family="Helvetica,sans-Serif" font-size="10.00">/alpaqa/panoc&#45;convex</text>
<text text-anchor="middle" x="630" y="-73" font-family="Helvetica,sans-Serif" font-size="10.00">&#45;newton&#45;alm.hpp</text>
</a>
</g>
</g>
<!-- Node4&#45;&gt;Node5 -->
<g id="edge4_Node000004_Node000005" class="edge">
<title>Node4&#45;&gt;Node5</title>
<g id="a_edge4_Node000004_Node000005"><a xlink:title=" ">
<path fill="none" stroke="#63b8ff" d="M673.91,-135.23C665.34,-125.91 655.92,-115.67 648.01,-107.07"/>
<polygon fill="#63b8ff" stroke="#63b8ff" points="671.52,-137.81 680.87,-142.79 676.68,-133.07 671.52,-137.81"/>
</a>
</g>
</g>
<!-- Node7 -->
<g id="Node000007" class="node">
<title>Node7</title>
<g id="a_Node000007"><a xlink:href="zerofpr-convex-newton-alm_8hpp.html" target="_top" xlink:title=" ">
<polygon fill="white" stroke="#666666" points="259.5,-107 130.5,-107 130.5,-66 259.5,-66 259.5,-107"/>
<text text-anchor="start" x="138.5" y="-95" font-family="Helvetica,sans-Serif" font-size="10.00">src/alpaqa/include</text>
<text text-anchor="start" x="138.5" y="-84" font-family="Helvetica,sans-Serif" font-size="10.00">/alpaqa/zerofpr&#45;convex</text>
<text text-anchor="middle" x="195" y="-73" font-family="Helvetica,sans-Serif" font-size="10.00">&#45;newton&#45;alm.hpp</text>
</a>
</g>
</g>
<!-- Node4&#45;&gt;Node7 -->
<g id="edge6_Node000004_Node000007" class="edge">
<title>Node4&#45;&gt;Node7</title>
<g id="a_edge6_Node000004_Node000007"><a xlink:title=" ">
<path fill="none" stroke="#63b8ff" d="M614.63,-154.87C527.56,-146.23 388.03,-130.26 269,-107 266,-106.41 262.94,-105.78 259.86,-105.1"/>
<polygon fill="#63b8ff" stroke="#63b8ff" points="614.43,-158.36 624.73,-155.86 615.12,-151.4 614.43,-158.36"/>
</a>
</g>
</g>
<!-- Node9 -->
<g id="Node000009" class="node">
<title>Node9</title>
<g id="a_Node000009"><a xlink:href="panoc-driver_8cpp.html" target="_top" xlink:title=" ">
<polygon fill="white" stroke="#666666" points="394,-101.5 278,-101.5 278,-71.5 394,-71.5 394,-101.5"/>
<text text-anchor="start" x="286" y="-89.5" font-family="Helvetica,sans-Serif" font-size="10.00">src/alpaqa/src/driver</text>
<text text-anchor="middle" x="336" y="-78.5" font-family="Helvetica,sans-Serif" font-size="10.00">/panoc&#45;driver.cpp</text>
</a>
</g>
</g>
<!-- Node4&#45;&gt;Node9 -->
<g id="edge8_Node000004_Node000009" class="edge">
<title>Node4&#45;&gt;Node9</title>
<g id="a_edge8_Node000004_Node000009"><a xlink:title=" ">
<path fill="none" stroke="#63b8ff" d="M614.88,-148.98C555.39,-138.88 473.91,-123.92 403,-107 396.17,-105.37 388.99,-103.48 381.98,-101.52"/>
<polygon fill="#63b8ff" stroke="#63b8ff" points="614.54,-152.48 624.98,-150.69 615.7,-145.57 614.54,-152.48"/>
</a>
</g>
</g>
<!-- Node10 -->
<g id="Node000010" class="node">
<title>Node10</title>
<g id="a_Node000010"><a xlink:href="param-complete_8cpp.html" target="_top" xlink:title=" ">
<polygon fill="white" stroke="#666666" points="1001.5,-101.5 880.5,-101.5 880.5,-71.5 1001.5,-71.5 1001.5,-101.5"/>
<text text-anchor="start" x="888.5" y="-89.5" font-family="Helvetica,sans-Serif" font-size="10.00">src/alpaqa/src/driver</text>
<text text-anchor="middle" x="941" y="-78.5" font-family="Helvetica,sans-Serif" font-size="10.00">/param&#45;complete.cpp</text>
</a>
</g>
</g>
<!-- Node4&#45;&gt;Node10 -->
<g id="edge9_Node000004_Node000010" class="edge">
<title>Node4&#45;&gt;Node10</title>
<g id="a_edge9_Node000004_Node000010"><a xlink:title=" ">
<path fill="none" stroke="#63b8ff" d="M771.72,-139.96C811.96,-127.49 860.73,-112.38 895.56,-101.58"/>
<polygon fill="#63b8ff" stroke="#63b8ff" points="770.47,-136.69 761.95,-142.99 772.54,-143.37 770.47,-136.69"/>
</a>
</g>
</g>
<!-- Node11 -->
<g id="Node000011" class="node">
<title>Node11</title>
<g id="a_Node000011"><a xlink:href="convex-newton_8cpp.html" target="_top" xlink:title=" ">
<polygon fill="white" stroke="#666666" points="550,-107 412,-107 412,-66 550,-66 550,-107"/>
<text text-anchor="start" x="420" y="-95" font-family="Helvetica,sans-Serif" font-size="10.00">src/alpaqa/src/inner</text>
<text text-anchor="start" x="420" y="-84" font-family="Helvetica,sans-Serif" font-size="10.00">/directions/panoc/convex</text>
<text text-anchor="middle" x="481" y="-73" font-family="Helvetica,sans-Serif" font-size="10.00">&#45;newton.cpp</text>
</a>
</g>
</g>
<!-- Node4&#45;&gt;Node11 -->
<g id="edge10_Node000004_Node000011" class="edge">
<title>Node4&#45;&gt;Node11</title>
<g id="a_edge10_Node000004_Node000011"><a xlink:title=" ">
<path fill="none" stroke="#63b8ff" d="M632.65,-139.67C602.36,-129.25 566.84,-117.03 537.8,-107.04"/>
<polygon fill="#63b8ff" stroke="#63b8ff" points="631.7,-143.05 642.29,-142.99 633.97,-136.43 631.7,-143.05"/>
</a>
</g>
</g>
<!-- Node12 -->
<g id="Node000012" class="node">
<title>Node12</title>
<g id="a_Node000012"><a xlink:href="json_8cpp.html" target="_top" xlink:title=" ">
<polygon fill="white" stroke="#666666" points="1144,-101.5 1020,-101.5 1020,-71.5 1144,-71.5 1144,-101.5"/>
<text text-anchor="start" x="1028" y="-89.5" font-family="Helvetica,sans-Serif" font-size="10.00">src/alpaqa/src/params</text>
<text text-anchor="middle" x="1082" y="-78.5" font-family="Helvetica,sans-Serif" font-size="10.00">/json.cpp</text>
</a>
</g>
</g>
<!-- Node4&#45;&gt;Node12 -->
<g id="edge11_Node000004_Node000012" class="edge">
<title>Node4&#45;&gt;Node12</title>
<g id="a_edge11_Node000004_Node000012"><a xlink:title=" ">
<path fill="none" stroke="#63b8ff" d="M783.45,-149.49C846.23,-139.32 933.83,-124.08 1010,-107 1017.33,-105.36 1025.03,-103.46 1032.57,-101.5"/>
<polygon fill="#63b8ff" stroke="#63b8ff" points="782.52,-146.1 773.2,-151.14 783.63,-153.01 782.52,-146.1"/>
</a>
</g>
</g>
<!-- Node13 -->
<g id="Node000013" class="node">
<title>Node13</title>
<g id="a_Node000013"><a xlink:href="params_8cpp.html" target="_top" xlink:title=" ">
<polygon fill="white" stroke="#666666" points="1286,-101.5 1162,-101.5 1162,-71.5 1286,-71.5 1286,-101.5"/>
<text text-anchor="start" x="1170" y="-89.5" font-family="Helvetica,sans-Serif" font-size="10.00">src/alpaqa/src/params</text>
<text text-anchor="middle" x="1224" y="-78.5" font-family="Helvetica,sans-Serif" font-size="10.00">/params.cpp</text>
</a>
</g>
</g>
<!-- Node4&#45;&gt;Node13 -->
<g id="edge12_Node000004_Node000013" class="edge">
<title>Node4&#45;&gt;Node13</title>
<g id="a_edge12_Node000004_Node000013"><a xlink:title=" ">
<path fill="none" stroke="#63b8ff" d="M783.2,-151.56C805.26,-148.73 829.02,-145.72 851,-143 985.15,-126.4 1020.35,-132.97 1153,-107 1160.65,-105.5 1168.69,-103.61 1176.49,-101.6"/>
<polygon fill="#63b8ff" stroke="#63b8ff" points="782.67,-148.1 773.2,-152.85 783.57,-155.04 782.67,-148.1"/>
</a>
</g>
</g>
<!-- Node6 -->
<g id="Node000006" class="node">
<title>Node6</title>
<g id="a_Node000006"><a xlink:href="panoc-convex-newton-alm_8cpp.html" target="_top" xlink:title=" ">
<polygon fill="white" stroke="#666666" points="699,-30 561,-30 561,0 699,0 699,-30"/>
<text text-anchor="start" x="569" y="-18" font-family="Helvetica,sans-Serif" font-size="10.00">src/alpaqa/src/panoc</text>
<text text-anchor="middle" x="630" y="-7" font-family="Helvetica,sans-Serif" font-size="10.00">&#45;convex&#45;newton&#45;alm.cpp</text>
</a>
</g>
</g>
<!-- Node5&#45;&gt;Node6 -->
<g id="edge5_Node000005_Node000006" class="edge">
<title>Node5&#45;&gt;Node6</title>
<g id="a_edge5_Node000005_Node000006"><a xlink:title=" ">
<path fill="none" stroke="#63b8ff" d="M630,-55.66C630,-46.76 630,-37.42 630,-30.04"/>
<polygon fill="#63b8ff" stroke="#63b8ff" points="626.5,-55.77 630,-65.77 633.5,-55.77 626.5,-55.77"/>
</a>
</g>
</g>
<!-- Node8 -->
<g id="Node000008" class="node">
<title>Node8</title>
<g id="a_Node000008"><a xlink:href="zerofpr-convex-newton-alm_8cpp.html" target="_top" xlink:title=" ">
<polygon fill="white" stroke="#666666" points="264,-30 126,-30 126,0 264,0 264,-30"/>
<text text-anchor="start" x="134" y="-18" font-family="Helvetica,sans-Serif" font-size="10.00">src/alpaqa/src/zerofpr</text>
<text text-anchor="middle" x="195" y="-7" font-family="Helvetica,sans-Serif" font-size="10.00">&#45;convex&#45;newton&#45;alm.cpp</text>
</a>
</g>
</g>
<!-- Node7&#45;&gt;Node8 -->
<g id="edge7_Node000007_Node000008" class="edge">
<title>Node7&#45;&gt;Node8</title>
<g id="a_edge7_Node000007_Node000008"><a xlink:title=" ">
<path fill="none" stroke="#63b8ff" d="M195,-55.66C195,-46.76 195,-37.42 195,-30.04"/>
<polygon fill="#63b8ff" stroke="#63b8ff" points="191.5,-55.77 195,-65.77 198.5,-55.77 191.5,-55.77"/>
</a>
</g>
</g>
<!-- Node14&#45;&gt;Node10 -->
<g id="edge14_Node000014_Node000010" class="edge">
<title>Node14&#45;&gt;Node10</title>
<g id="a_edge14_Node000014_Node000010"><a xlink:title=" ">
<path fill="none" stroke="#63b8ff" d="M941,-132.61C941,-122.01 941,-110.57 941,-101.86"/>
<polygon fill="#63b8ff" stroke="#63b8ff" points="937.5,-132.79 941,-142.79 944.5,-132.79 937.5,-132.79"/>
</a>
</g>
</g>
<!-- Node14&#45;&gt;Node12 -->
<g id="edge16_Node000014_Node000012" class="edge">
<title>Node14&#45;&gt;Node12</title>
<g id="a_edge16_Node000014_Node000012"><a xlink:title=" ">
<path fill="none" stroke="#63b8ff" d="M986.79,-138.14C1009.45,-126.09 1036,-111.97 1055.3,-101.7"/>
<polygon fill="#63b8ff" stroke="#63b8ff" points="984.86,-135.2 977.68,-142.99 988.15,-141.38 984.86,-135.2"/>
</a>
</g>
</g>
<!-- Node14&#45;&gt;Node13 -->
<g id="edge17_Node000014_Node000013" class="edge">
<title>Node14&#45;&gt;Node13</title>
<g id="a_edge17_Node000014_Node000013"><a xlink:title=" ">
<path fill="none" stroke="#63b8ff" d="M1026.77,-140.3C1065.38,-130.24 1111.51,-118.13 1153,-107 1159.54,-105.24 1166.42,-103.38 1173.21,-101.53"/>
<polygon fill="#63b8ff" stroke="#63b8ff" points="1025.4,-137.03 1016.61,-142.94 1027.17,-143.81 1025.4,-137.03"/>
</a>
</g>
</g>
<!-- Node15 -->
<g id="Node000015" class="node">
<title>Node15</title>
<g id="a_Node000015"><a xlink:href="structured-newton_8cpp.html" target="_top" xlink:title=" ">
<polygon fill="white" stroke="#666666" points="862,-107 710,-107 710,-66 862,-66 862,-107"/>
<text text-anchor="start" x="718" y="-95" font-family="Helvetica,sans-Serif" font-size="10.00">src/alpaqa/src/inner</text>
<text text-anchor="start" x="718" y="-84" font-family="Helvetica,sans-Serif" font-size="10.00">/directions/panoc/structured</text>
<text text-anchor="middle" x="786" y="-73" font-family="Helvetica,sans-Serif" font-size="10.00">&#45;newton.cpp</text>
</a>
</g>
</g>
<!-- Node14&#45;&gt;Node15 -->
<g id="edge15_Node000014_Node000015" class="edge">
<title>Node14&#45;&gt;Node15</title>
<g id="a_edge15_Node000014_Node000015"><a xlink:title=" ">
<path fill="none" stroke="#63b8ff" d="M891.58,-138.59C870.54,-128.41 846.32,-116.69 826.39,-107.04"/>
<polygon fill="#63b8ff" stroke="#63b8ff" points="890.15,-141.79 900.68,-142.99 893.2,-135.48 890.15,-141.79"/>
</a>
</g>
</g>
<!-- Node16&#45;&gt;Node10 -->
<g id="edge22_Node000016_Node000010" class="edge">
<title>Node16&#45;&gt;Node10</title>
<g id="a_edge22_Node000016_Node000010"><a xlink:title=" ">
<path fill="none" stroke="#63b8ff" d="M1096.98,-139.73C1059.87,-127.3 1015.1,-112.31 983.06,-101.58"/>
<polygon fill="#63b8ff" stroke="#63b8ff" points="1096.14,-143.13 1106.73,-142.99 1098.36,-136.5 1096.14,-143.13"/>
</a>
</g>
</g>
<!-- Node16&#45;&gt;Node12 -->
<g id="edge23_Node000016_Node000012" class="edge">
<title>Node16&#45;&gt;Node12</title>
<g id="a_edge23_Node000016_Node000012"><a xlink:title=" ">
<path fill="none" stroke="#63b8ff" d="M1135.5,-135.84C1122.72,-124.3 1108.29,-111.25 1097.63,-101.63"/>
<polygon fill="#63b8ff" stroke="#63b8ff" points="1133.43,-138.69 1143.19,-142.79 1138.12,-133.49 1133.43,-138.69"/>
</a>
</g>
</g>
<!-- Node16&#45;&gt;Node13 -->
<g id="edge24_Node000016_Node000013" class="edge">
<title>Node16&#45;&gt;Node13</title>
<g id="a_edge24_Node000016_Node000013"><a xlink:title=" ">
<path fill="none" stroke="#63b8ff" d="M1186.7,-134.92C1195.52,-123.7 1205.35,-111.21 1212.7,-101.86"/>
<polygon fill="#63b8ff" stroke="#63b8ff" points="1183.93,-132.77 1180.5,-142.79 1189.44,-137.1 1183.93,-132.77"/>
</a>
</g>
</g>
<!-- Node17 -->
<g id="Node000017" class="node">
<title>Node17</title>
<g id="a_Node000017"><a xlink:href="newton-tr-pantr-alm_8hpp.html" target="_top" xlink:title=" ">
<polygon fill="white" stroke="#666666" points="1570,-107 1438,-107 1438,-66 1570,-66 1570,-107"/>
<text text-anchor="start" x="1446" y="-95" font-family="Helvetica,sans-Serif" font-size="10.00">src/alpaqa/include</text>
<text text-anchor="start" x="1446" y="-84" font-family="Helvetica,sans-Serif" font-size="10.00">/alpaqa/newton&#45;tr&#45;pantr</text>
<text text-anchor="middle" x="1504" y="-73" font-family="Helvetica,sans-Serif" font-size="10.00">&#45;alm.hpp</text>
</a>
</g>
</g>
<!-- Node16&#45;&gt;Node17 -->
<g id="edge19_Node000016_Node000017" class="edge">
<title>Node16&#45;&gt;Node17</title>
<g id="a_edge19_Node000016_Node000017"><a xlink:title=" ">
<path fill="none" stroke="#63b8ff" d="M1240.54,-147.6C1293.44,-136.93 1365.71,-121.87 1429,-107 1431.88,-106.32 1434.82,-105.62 1437.79,-104.9"/>
<polygon fill="#63b8ff" stroke="#63b8ff" points="1239.67,-144.21 1230.56,-149.61 1241.05,-151.07 1239.67,-144.21"/>
</a>
</g>
</g>
<!-- Node19 -->
<g id="Node000019" class="node">
<title>Node19</title>
<g id="a_Node000019"><a xlink:href="pantr-driver_8cpp.html" target="_top" xlink:title=" ">
<polygon fill="white" stroke="#666666" points="1420,-101.5 1304,-101.5 1304,-71.5 1420,-71.5 1420,-101.5"/>
<text text-anchor="start" x="1312" y="-89.5" font-family="Helvetica,sans-Serif" font-size="10.00">src/alpaqa/src/driver</text>
<text text-anchor="middle" x="1362" y="-78.5" font-family="Helvetica,sans-Serif" font-size="10.00">/pantr&#45;driver.cpp</text>
</a>
</g>
</g>
<!-- Node16&#45;&gt;Node19 -->
<g id="edge21_Node000016_Node000019" class="edge">
<title>Node16&#45;&gt;Node19</title>
<g id="a_edge21_Node000016_Node000019"><a xlink:title=" ">
<path fill="none" stroke="#63b8ff" d="M1225.66,-139.41C1258.13,-127.05 1297.07,-112.22 1325.01,-101.58"/>
<polygon fill="#63b8ff" stroke="#63b8ff" points="1224.35,-136.16 1216.25,-142.99 1226.84,-142.7 1224.35,-136.16"/>
</a>
</g>
</g>
<!-- Node18 -->
<g id="Node000018" class="node">
<title>Node18</title>
<g id="a_Node000018"><a xlink:href="newton-tr-pantr-alm_8cpp.html" target="_top" xlink:title=" ">
<polygon fill="white" stroke="#666666" points="1565.5,-30 1442.5,-30 1442.5,0 1565.5,0 1565.5,-30"/>
<text text-anchor="start" x="1450.5" y="-18" font-family="Helvetica,sans-Serif" font-size="10.00">src/alpaqa/src/newton</text>
<text text-anchor="middle" x="1504" y="-7" font-family="Helvetica,sans-Serif" font-size="10.00">&#45;tr&#45;pantr&#45;alm.cpp</text>
</a>
</g>
</g>
<!-- Node17&#45;&gt;Node18 -->
<g id="edge20_Node000017_Node000018" class="edge">
<title>Node17&#45;&gt;Node18</title>
<g id="a_edge20_Node000017_Node000018"><a xlink:title=" ">
<path fill="none" stroke="#63b8ff" d="M1504,-55.66C1504,-46.76 1504,-37.42 1504,-30.04"/>
<polygon fill="#63b8ff" stroke="#63b8ff" points="1500.5,-55.77 1504,-65.77 1507.5,-55.77 1500.5,-55.77"/>
</a>
</g>
</g>
</g>
</svg>
