<?xml version="1.0" encoding="UTF-8" standalone="no"?>
<!DOCTYPE svg PUBLIC "-//W3C//DTD SVG 1.1//EN"
 "http://www.w3.org/Graphics/SVG/1.1/DTD/svg11.dtd">
<!-- Generated by graphviz version 2.43.0 (0)
 -->
<!-- Title: lbfgspp.hpp Pages: 1 -->
<svg width="787pt" height="330pt"
 viewBox="0.00 0.00 786.93 330.00" xmlns="http://www.w3.org/2000/svg" xmlns:xlink="http://www.w3.org/1999/xlink">
<g id="graph0" class="graph" transform="scale(1 1) rotate(0) translate(4 326)">
<title>lbfgspp.hpp</title>
<polygon fill="white" stroke="transparent" points="-4,4 -4,-326 782.93,-326 782.93,4 -4,4"/>
<!-- Node1 -->
<g id="node1" class="node">
<title>Node1</title>
<g id="a_node1"><a xlink:title=" ">
<polygon fill="#bfbfbf" stroke="black" points="426.93,-302.5 426.93,-321.5 500.93,-321.5 500.93,-302.5 426.93,-302.5"/>
<text text-anchor="middle" x="463.93" y="-309.5" font-family="Helvetica,sans-Serif" font-size="10.00">lbfgspp.hpp</text>
</a>
</g>
</g>
<!-- Node2 -->
<g id="node2" class="node">
<title>Node2</title>
<g id="a_node2"><a xlink:href="atomic__stop__signal_8hpp.html" target="_top" xlink:title=" ">
<polygon fill="white" stroke="black" points="13.43,-168.5 13.43,-198.5 118.43,-198.5 118.43,-168.5 13.43,-168.5"/>
<text text-anchor="start" x="21.43" y="-186.5" font-family="Helvetica,sans-Serif" font-size="10.00">alpaqa/util/atomic</text>
<text text-anchor="middle" x="65.93" y="-175.5" font-family="Helvetica,sans-Serif" font-size="10.00">_stop_signal.hpp</text>
</a>
</g>
</g>
<!-- Node1&#45;&gt;Node2 -->
<g id="edge1" class="edge">
<title>Node1&#45;&gt;Node2</title>
<path fill="none" stroke="midnightblue" d="M426.66,-309.34C351.07,-305.42 182.68,-293.76 132.93,-266 108.73,-252.5 89.74,-226.5 78.25,-207.49"/>
<polygon fill="midnightblue" stroke="midnightblue" points="81.26,-205.7 73.22,-198.8 75.2,-209.21 81.26,-205.7"/>
</g>
<!-- Node3 -->
<g id="node3" class="node">
<title>Node3</title>
<g id="a_node3"><a xlink:title=" ">
<polygon fill="white" stroke="#bfbfbf" points="2.93,-112.5 2.93,-131.5 52.93,-131.5 52.93,-112.5 2.93,-112.5"/>
<text text-anchor="middle" x="27.93" y="-119.5" font-family="Helvetica,sans-Serif" font-size="10.00">atomic</text>
</a>
</g>
</g>
<!-- Node1&#45;&gt;Node3 -->
<g id="edge22" class="edge">
<title>Node1&#45;&gt;Node3</title>
<path fill="none" stroke="midnightblue" d="M426.68,-308.86C345.43,-303.82 154.76,-289.76 94.93,-266 48.25,-247.46 26.59,-243.82 3.93,-199 -5.78,-179.8 5.16,-155.89 15.24,-140.07"/>
<polygon fill="midnightblue" stroke="midnightblue" points="18.15,-142.01 20.92,-131.79 12.38,-138.06 18.15,-142.01"/>
</g>
<!-- Node4 -->
<g id="node4" class="node">
<title>Node4</title>
<g id="a_node4"><a xlink:href="panoc-helpers_8hpp.html" target="_top" xlink:title=" ">
<polygon fill="white" stroke="black" points="258.93,-235.5 258.93,-265.5 368.93,-265.5 368.93,-235.5 258.93,-235.5"/>
<text text-anchor="start" x="266.93" y="-253.5" font-family="Helvetica,sans-Serif" font-size="10.00">alpaqa/inner/detail</text>
<text text-anchor="middle" x="313.93" y="-242.5" font-family="Helvetica,sans-Serif" font-size="10.00">/panoc&#45;helpers.hpp</text>
</a>
</g>
</g>
<!-- Node1&#45;&gt;Node4 -->
<g id="edge3" class="edge">
<title>Node1&#45;&gt;Node4</title>
<path fill="none" stroke="midnightblue" d="M442.44,-302.48C420.7,-293.85 386.44,-280.26 358.76,-269.29"/>
<polygon fill="midnightblue" stroke="midnightblue" points="359.86,-265.96 349.28,-265.52 357.28,-272.46 359.86,-265.96"/>
</g>
<!-- Node7 -->
<g id="node7" class="node">
<title>Node7</title>
<g id="a_node7"><a xlink:title=" ">
<polygon fill="white" stroke="#bfbfbf" points="104.43,-112.5 104.43,-131.5 169.43,-131.5 169.43,-112.5 104.43,-112.5"/>
<text text-anchor="middle" x="136.93" y="-119.5" font-family="Helvetica,sans-Serif" font-size="10.00">stdexcept</text>
</a>
</g>
</g>
<!-- Node1&#45;&gt;Node7 -->
<g id="edge24" class="edge">
<title>Node1&#45;&gt;Node7</title>
<path fill="none" stroke="midnightblue" d="M426.63,-308.53C382.53,-304.43 307.81,-293.69 249.93,-266 207.47,-245.69 195.9,-236.85 167.93,-199 154.99,-181.5 146.45,-157.82 141.67,-141.57"/>
<polygon fill="midnightblue" stroke="midnightblue" points="144.98,-140.39 138.96,-131.68 138.23,-142.25 144.98,-140.39"/>
</g>
<!-- Node8 -->
<g id="node8" class="node">
<title>Node8</title>
<g id="a_node8"><a xlink:href="include_2alpaqa_2util_2problem_8hpp.html" target="_top" xlink:title=" ">
<polygon fill="white" stroke="black" points="364.43,-174 364.43,-193 497.43,-193 497.43,-174 364.43,-174"/>
<text text-anchor="middle" x="430.93" y="-181" font-family="Helvetica,sans-Serif" font-size="10.00">alpaqa/util/problem.hpp</text>
</a>
</g>
</g>
<!-- Node1&#45;&gt;Node8 -->
<g id="edge20" class="edge">
<title>Node1&#45;&gt;Node8</title>
<path fill="none" stroke="midnightblue" d="M461.66,-302.31C456.36,-281.99 443.07,-231.05 435.83,-203.28"/>
<polygon fill="midnightblue" stroke="midnightblue" points="439.12,-202.05 433.21,-193.26 432.35,-203.82 439.12,-202.05"/>
</g>
<!-- Node13 -->
<g id="node13" class="node">
<title>Node13</title>
<g id="a_node13"><a xlink:title=" ">
<polygon fill="white" stroke="#bfbfbf" points="654.93,-112.5 654.93,-131.5 704.93,-131.5 704.93,-112.5 654.93,-112.5"/>
<text text-anchor="middle" x="679.93" y="-119.5" font-family="Helvetica,sans-Serif" font-size="10.00">chrono</text>
</a>
</g>
</g>
<!-- Node1&#45;&gt;Node13 -->
<g id="edge23" class="edge">
<title>Node1&#45;&gt;Node13</title>
<path fill="none" stroke="midnightblue" d="M466.35,-302.5C473.79,-277.91 498.66,-206.07 544.93,-168 552.86,-161.47 607.49,-144.42 644.78,-133.29"/>
<polygon fill="midnightblue" stroke="midnightblue" points="646.19,-136.52 654.78,-130.32 644.2,-129.81 646.19,-136.52"/>
</g>
<!-- Node17 -->
<g id="node17" class="node">
<title>Node17</title>
<g id="a_node17"><a xlink:href="solverstatus_8hpp.html" target="_top" xlink:title=" ">
<polygon fill="white" stroke="black" points="553.93,-174 553.93,-193 705.93,-193 705.93,-174 553.93,-174"/>
<text text-anchor="middle" x="629.93" y="-181" font-family="Helvetica,sans-Serif" font-size="10.00">alpaqa/util/solverstatus.hpp</text>
</a>
</g>
</g>
<!-- Node1&#45;&gt;Node17 -->
<g id="edge21" class="edge">
<title>Node1&#45;&gt;Node17</title>
<path fill="none" stroke="midnightblue" d="M475.68,-302.46C488.01,-293.47 507.93,-278.87 524.93,-266 555.2,-243.09 589.92,-215.97 610.88,-199.51"/>
<polygon fill="midnightblue" stroke="midnightblue" points="613.26,-202.09 618.96,-193.15 608.94,-196.59 613.26,-202.09"/>
</g>
<!-- Node19 -->
<g id="node19" class="node">
<title>Node19</title>
<g id="a_node19"><a xlink:title=" ">
<polygon fill="white" stroke="#bfbfbf" points="576.93,-241 576.93,-260 620.93,-260 620.93,-241 576.93,-241"/>
<text text-anchor="middle" x="598.93" y="-248" font-family="Helvetica,sans-Serif" font-size="10.00">string</text>
</a>
</g>
</g>
<!-- Node1&#45;&gt;Node19 -->
<g id="edge25" class="edge">
<title>Node1&#45;&gt;Node19</title>
<path fill="none" stroke="midnightblue" d="M483.27,-302.48C506.03,-292.45 544.02,-275.7 570.21,-264.15"/>
<polygon fill="midnightblue" stroke="midnightblue" points="571.88,-267.24 579.62,-260.01 569.06,-260.84 571.88,-267.24"/>
</g>
<!-- Node20 -->
<g id="node20" class="node">
<title>Node20</title>
<g id="a_node20"><a xlink:title=" ">
<polygon fill="white" stroke="#bfbfbf" points="639.43,-241 639.43,-260 696.43,-260 696.43,-241 639.43,-241"/>
<text text-anchor="middle" x="667.93" y="-248" font-family="Helvetica,sans-Serif" font-size="10.00">LBFGS.h</text>
</a>
</g>
</g>
<!-- Node1&#45;&gt;Node20 -->
<g id="edge26" class="edge">
<title>Node1&#45;&gt;Node20</title>
<path fill="none" stroke="midnightblue" d="M499.53,-302.44C533.35,-294.06 585.49,-280.46 629.93,-266 632.34,-265.22 634.82,-264.37 637.3,-263.49"/>
<polygon fill="midnightblue" stroke="midnightblue" points="638.58,-266.74 646.76,-260.01 636.16,-260.18 638.58,-266.74"/>
</g>
<!-- Node21 -->
<g id="node21" class="node">
<title>Node21</title>
<g id="a_node21"><a xlink:title=" ">
<polygon fill="white" stroke="#bfbfbf" points="714.93,-241 714.93,-260 778.93,-260 778.93,-241 714.93,-241"/>
<text text-anchor="middle" x="746.93" y="-248" font-family="Helvetica,sans-Serif" font-size="10.00">LBFGSB.h</text>
</a>
</g>
</g>
<!-- Node1&#45;&gt;Node21 -->
<g id="edge27" class="edge">
<title>Node1&#45;&gt;Node21</title>
<path fill="none" stroke="midnightblue" d="M501.05,-305.81C548.71,-298.76 633.74,-284.82 704.93,-266 707.96,-265.2 711.09,-264.28 714.21,-263.31"/>
<polygon fill="midnightblue" stroke="midnightblue" points="715.6,-266.54 724.01,-260.1 713.42,-259.89 715.6,-266.54"/>
</g>
<!-- Node2&#45;&gt;Node3 -->
<g id="edge2" class="edge">
<title>Node2&#45;&gt;Node3</title>
<path fill="none" stroke="midnightblue" d="M56.92,-168.4C51.51,-159.93 44.6,-149.1 38.87,-140.14"/>
<polygon fill="midnightblue" stroke="midnightblue" points="41.79,-138.2 33.46,-131.66 35.89,-141.97 41.79,-138.2"/>
</g>
<!-- Node4&#45;&gt;Node2 -->
<g id="edge7" class="edge">
<title>Node4&#45;&gt;Node2</title>
<path fill="none" stroke="midnightblue" d="M260.42,-235.48C221.61,-225.3 169.01,-211.52 128.3,-200.85"/>
<polygon fill="midnightblue" stroke="midnightblue" points="129.05,-197.43 118.49,-198.28 127.27,-204.2 129.05,-197.43"/>
</g>
<!-- Node5 -->
<g id="node5" class="node">
<title>Node5</title>
<g id="a_node5"><a xlink:href="panoc-stop-crit_8hpp.html" target="_top" xlink:title=" ">
<polygon fill="white" stroke="black" points="213.43,-168.5 213.43,-198.5 346.43,-198.5 346.43,-168.5 213.43,-168.5"/>
<text text-anchor="start" x="221.43" y="-186.5" font-family="Helvetica,sans-Serif" font-size="10.00">alpaqa/inner/decl/panoc</text>
<text text-anchor="middle" x="279.93" y="-175.5" font-family="Helvetica,sans-Serif" font-size="10.00">&#45;stop&#45;crit.hpp</text>
</a>
</g>
</g>
<!-- Node4&#45;&gt;Node5 -->
<g id="edge4" class="edge">
<title>Node4&#45;&gt;Node5</title>
<path fill="none" stroke="midnightblue" d="M306.55,-235.4C302.32,-227.3 296.9,-216.94 292.05,-207.69"/>
<polygon fill="midnightblue" stroke="midnightblue" points="295.03,-205.82 287.29,-198.58 288.82,-209.06 295.03,-205.82"/>
</g>
<!-- Node4&#45;&gt;Node7 -->
<g id="edge19" class="edge">
<title>Node4&#45;&gt;Node7</title>
<path fill="none" stroke="midnightblue" d="M273.03,-235.47C251.3,-226.88 224.84,-214.55 203.93,-199 181.3,-182.18 160.74,-156.62 148.53,-139.86"/>
<polygon fill="midnightblue" stroke="midnightblue" points="151.28,-137.7 142.64,-131.57 145.58,-141.75 151.28,-137.7"/>
</g>
<!-- Node4&#45;&gt;Node8 -->
<g id="edge8" class="edge">
<title>Node4&#45;&gt;Node8</title>
<path fill="none" stroke="midnightblue" d="M339.31,-235.4C359.3,-224.29 386.97,-208.92 406.66,-197.98"/>
<polygon fill="midnightblue" stroke="midnightblue" points="408.57,-200.92 415.61,-193.01 405.17,-194.8 408.57,-200.92"/>
</g>
<!-- Node4&#45;&gt;Node17 -->
<g id="edge17" class="edge">
<title>Node4&#45;&gt;Node17</title>
<path fill="none" stroke="midnightblue" d="M368.97,-238.18C428.02,-226.03 521.06,-206.89 578.62,-195.05"/>
<polygon fill="midnightblue" stroke="midnightblue" points="579.51,-198.44 588.6,-193 578.1,-191.59 579.51,-198.44"/>
</g>
<!-- Node6 -->
<g id="node6" class="node">
<title>Node6</title>
<g id="a_node6"><a xlink:title=" ">
<polygon fill="white" stroke="#bfbfbf" points="187.43,-112.5 187.43,-131.5 244.43,-131.5 244.43,-112.5 187.43,-112.5"/>
<text text-anchor="middle" x="215.93" y="-119.5" font-family="Helvetica,sans-Serif" font-size="10.00">ostream</text>
</a>
</g>
</g>
<!-- Node5&#45;&gt;Node6 -->
<g id="edge5" class="edge">
<title>Node5&#45;&gt;Node6</title>
<path fill="none" stroke="midnightblue" d="M264.76,-168.4C255.17,-159.49 242.77,-147.95 232.86,-138.74"/>
<polygon fill="midnightblue" stroke="midnightblue" points="234.95,-135.9 225.24,-131.66 230.18,-141.03 234.95,-135.9"/>
</g>
<!-- Node5&#45;&gt;Node7 -->
<g id="edge6" class="edge">
<title>Node5&#45;&gt;Node7</title>
<path fill="none" stroke="midnightblue" d="M246.04,-168.4C222.04,-158.42 190.15,-145.15 167.05,-135.53"/>
<polygon fill="midnightblue" stroke="midnightblue" points="168.31,-132.27 157.73,-131.66 165.62,-138.73 168.31,-132.27"/>
</g>
<!-- Node9 -->
<g id="node9" class="node">
<title>Node9</title>
<g id="a_node9"><a xlink:href="box_8hpp.html" target="_top" xlink:title=" ">
<polygon fill="white" stroke="black" points="262.93,-112.5 262.93,-131.5 318.93,-131.5 318.93,-112.5 262.93,-112.5"/>
<text text-anchor="middle" x="290.93" y="-119.5" font-family="Helvetica,sans-Serif" font-size="10.00">box.hpp</text>
</a>
</g>
</g>
<!-- Node8&#45;&gt;Node9 -->
<g id="edge9" class="edge">
<title>Node8&#45;&gt;Node9</title>
<path fill="none" stroke="midnightblue" d="M410.87,-173.98C387.17,-163.9 347.52,-147.05 320.34,-135.5"/>
<polygon fill="midnightblue" stroke="midnightblue" points="321.52,-132.2 310.95,-131.51 318.78,-138.64 321.52,-132.2"/>
</g>
<!-- Node12 -->
<g id="node12" class="node">
<title>Node12</title>
<g id="a_node12"><a xlink:title=" ">
<polygon fill="white" stroke="#bfbfbf" points="336.93,-112.5 336.93,-131.5 388.93,-131.5 388.93,-112.5 336.93,-112.5"/>
<text text-anchor="middle" x="362.93" y="-119.5" font-family="Helvetica,sans-Serif" font-size="10.00">cassert</text>
</a>
</g>
</g>
<!-- Node8&#45;&gt;Node12 -->
<g id="edge12" class="edge">
<title>Node8&#45;&gt;Node12</title>
<path fill="none" stroke="midnightblue" d="M421.18,-173.98C410.58,-164.7 393.41,-149.67 380.45,-138.33"/>
<polygon fill="midnightblue" stroke="midnightblue" points="382.48,-135.46 372.65,-131.51 377.87,-140.73 382.48,-135.46"/>
</g>
<!-- Node8&#45;&gt;Node13 -->
<g id="edge13" class="edge">
<title>Node8&#45;&gt;Node13</title>
<path fill="none" stroke="midnightblue" d="M468.09,-173.97C510.82,-164.1 583.03,-147.26 644.93,-132 645.03,-131.98 645.13,-131.95 645.22,-131.93"/>
<polygon fill="midnightblue" stroke="midnightblue" points="645.86,-135.38 654.71,-129.55 644.16,-128.59 645.86,-135.38"/>
</g>
<!-- Node14 -->
<g id="node14" class="node">
<title>Node14</title>
<g id="a_node14"><a xlink:title=" ">
<polygon fill="white" stroke="#bfbfbf" points="407.43,-112.5 407.43,-131.5 472.43,-131.5 472.43,-112.5 407.43,-112.5"/>
<text text-anchor="middle" x="439.93" y="-119.5" font-family="Helvetica,sans-Serif" font-size="10.00">functional</text>
</a>
</g>
</g>
<!-- Node8&#45;&gt;Node14 -->
<g id="edge14" class="edge">
<title>Node8&#45;&gt;Node14</title>
<path fill="none" stroke="midnightblue" d="M432.22,-173.98C433.49,-165.58 435.47,-152.48 437.1,-141.66"/>
<polygon fill="midnightblue" stroke="midnightblue" points="440.6,-141.92 438.64,-131.51 433.68,-140.87 440.6,-141.92"/>
</g>
<!-- Node15 -->
<g id="node15" class="node">
<title>Node15</title>
<g id="a_node15"><a xlink:title=" ">
<polygon fill="white" stroke="#bfbfbf" points="490.93,-112.5 490.93,-131.5 548.93,-131.5 548.93,-112.5 490.93,-112.5"/>
<text text-anchor="middle" x="519.93" y="-119.5" font-family="Helvetica,sans-Serif" font-size="10.00">memory</text>
</a>
</g>
</g>
<!-- Node8&#45;&gt;Node15 -->
<g id="edge15" class="edge">
<title>Node8&#45;&gt;Node15</title>
<path fill="none" stroke="midnightblue" d="M443.68,-173.98C457.95,-164.43 481.32,-148.81 498.43,-137.37"/>
<polygon fill="midnightblue" stroke="midnightblue" points="500.83,-139.98 507.2,-131.51 496.94,-134.16 500.83,-139.98"/>
</g>
<!-- Node16 -->
<g id="node16" class="node">
<title>Node16</title>
<g id="a_node16"><a xlink:title=" ">
<polygon fill="white" stroke="#bfbfbf" points="567.43,-112.5 567.43,-131.5 636.43,-131.5 636.43,-112.5 567.43,-112.5"/>
<text text-anchor="middle" x="601.93" y="-119.5" font-family="Helvetica,sans-Serif" font-size="10.00">type_traits</text>
</a>
</g>
</g>
<!-- Node8&#45;&gt;Node16 -->
<g id="edge16" class="edge">
<title>Node8&#45;&gt;Node16</title>
<path fill="none" stroke="midnightblue" d="M455.43,-173.98C484.89,-163.72 534.51,-146.46 567.73,-134.9"/>
<polygon fill="midnightblue" stroke="midnightblue" points="569.18,-138.1 577.47,-131.51 566.88,-131.49 569.18,-138.1"/>
</g>
<!-- Node10 -->
<g id="node10" class="node">
<title>Node10</title>
<g id="a_node10"><a xlink:href="vec_8hpp.html" target="_top" xlink:title=" ">
<polygon fill="white" stroke="black" points="263.43,-56.5 263.43,-75.5 318.43,-75.5 318.43,-56.5 263.43,-56.5"/>
<text text-anchor="middle" x="290.93" y="-63.5" font-family="Helvetica,sans-Serif" font-size="10.00">vec.hpp</text>
</a>
</g>
</g>
<!-- Node9&#45;&gt;Node10 -->
<g id="edge10" class="edge">
<title>Node9&#45;&gt;Node10</title>
<path fill="none" stroke="midnightblue" d="M290.93,-112.08C290.93,-105.01 290.93,-94.86 290.93,-85.99"/>
<polygon fill="midnightblue" stroke="midnightblue" points="294.43,-85.75 290.93,-75.75 287.43,-85.75 294.43,-85.75"/>
</g>
<!-- Node11 -->
<g id="node11" class="node">
<title>Node11</title>
<g id="a_node11"><a xlink:title=" ">
<polygon fill="white" stroke="#bfbfbf" points="256.43,-0.5 256.43,-19.5 325.43,-19.5 325.43,-0.5 256.43,-0.5"/>
<text text-anchor="middle" x="290.93" y="-7.5" font-family="Helvetica,sans-Serif" font-size="10.00">Eigen/Core</text>
</a>
</g>
</g>
<!-- Node10&#45;&gt;Node11 -->
<g id="edge11" class="edge">
<title>Node10&#45;&gt;Node11</title>
<path fill="none" stroke="midnightblue" d="M290.93,-56.08C290.93,-49.01 290.93,-38.86 290.93,-29.99"/>
<polygon fill="midnightblue" stroke="midnightblue" points="294.43,-29.75 290.93,-19.75 287.43,-29.75 294.43,-29.75"/>
</g>
<!-- Node18 -->
<g id="node18" class="node">
<title>Node18</title>
<g id="a_node18"><a xlink:title=" ">
<polygon fill="white" stroke="#bfbfbf" points="722.93,-112.5 722.93,-131.5 770.93,-131.5 770.93,-112.5 722.93,-112.5"/>
<text text-anchor="middle" x="746.93" y="-119.5" font-family="Helvetica,sans-Serif" font-size="10.00">iosfwd</text>
</a>
</g>
</g>
<!-- Node17&#45;&gt;Node18 -->
<g id="edge18" class="edge">
<title>Node17&#45;&gt;Node18</title>
<path fill="none" stroke="midnightblue" d="M646.69,-173.98C666.15,-164.08 698.47,-147.64 721.14,-136.12"/>
<polygon fill="midnightblue" stroke="midnightblue" points="722.87,-139.16 730.19,-131.51 719.69,-132.92 722.87,-139.16"/>
</g>
</g>
</svg>
