<?xml version="1.0" encoding="UTF-8" standalone="no"?>
<!DOCTYPE svg PUBLIC "-//W3C//DTD SVG 1.1//EN"
 "http://www.w3.org/Graphics/SVG/1.1/DTD/svg11.dtd">
<!-- Generated by graphviz version 2.43.0 (0)
 -->
<!-- Title: set_param_default Pages: 1 -->
<svg width="417pt" height="113pt"
 viewBox="0.00 0.00 417.00 113.00" xmlns="http://www.w3.org/2000/svg" xmlns:xlink="http://www.w3.org/1999/xlink">

<svg id="main" version="1.1" xmlns="http://www.w3.org/2000/svg" xmlns:xlink="http://www.w3.org/1999/xlink" xml:space="preserve" onload="init(evt)">
<style type="text/css"><![CDATA[
.node, .edge {opacity: 0.7;}
.node.selected, .edge.selected {opacity: 1;}
.edge:hover path { stroke: red; }
.edge:hover polygon { stroke: red; fill: red; }
]]></style>
<script type="application/ecmascript" xlink:href="svg.min.js"/>
<svg id="graph" class="graph">
<g id="graph0" class="graph" transform="scale(1 1) rotate(0) translate(4 109)">
<title>set_param_default</title>
<!-- Node1 -->
<g id="Node000001" class="node">
<title>Node1</title>
<g id="a_Node000001"><a xlink:title="Use s to index into the struct type T and overwrite the attribute given by s.key.">
<polygon fill="#999999" stroke="#666666" points="108,-62 0,-62 0,-43 108,-43 108,-62"/>
<text text-anchor="middle" x="54" y="-50" font-family="Helvetica,sans-Serif" font-size="10.00">set_param_default</text>
</a>
</g>
</g>
<!-- Node2 -->
<g id="Node000002" class="node">
<title>Node2</title>
<g id="a_Node000002"><a xlink:href="demangled-typename_8cpp.html#a994032931a27ca4de5eea3f786057b17" target="_top" xlink:title="Get the pretty name of the given type as a string.">
<polygon fill="white" stroke="#666666" points="270,-105 144,-105 144,-86 270,-86 270,-105"/>
<text text-anchor="middle" x="207" y="-93" font-family="Helvetica,sans-Serif" font-size="10.00">demangled_typename</text>
</a>
</g>
</g>
<!-- Node1&#45;&gt;Node2 -->
<g id="edge1_Node000001_Node000002" class="edge">
<title>Node1&#45;&gt;Node2</title>
<g id="a_edge1_Node000001_Node000002"><a xlink:title=" ">
<path fill="none" stroke="#63b8ff" d="M88.51,-62.04C110.41,-68.28 139.21,-76.48 162.82,-83.2"/>
<polygon fill="#63b8ff" stroke="#63b8ff" points="162.01,-86.61 172.58,-85.98 163.92,-79.88 162.01,-86.61"/>
</a>
</g>
</g>
<!-- Node3 -->
<g id="Node000003" class="node">
<title>Node3</title>
<g id="a_Node000003"><a xlink:href="namespacealpaqa_1_1params_1_1detail.html#a1654f67837e3fdbf09fd2636294375f4" target="_top" xlink:title=" ">
<polygon fill="white" stroke="#666666" points="270,-67.5 144,-67.5 144,-37.5 270,-37.5 270,-67.5"/>
<text text-anchor="start" x="152" y="-55.5" font-family="Helvetica,sans-Serif" font-size="10.00">alpaqa::params::detail</text>
<text text-anchor="middle" x="207" y="-44.5" font-family="Helvetica,sans-Serif" font-size="10.00">::find_param</text>
</a>
</g>
</g>
<!-- Node1&#45;&gt;Node3 -->
<g id="edge2_Node000001_Node000003" class="edge">
<title>Node1&#45;&gt;Node3</title>
<g id="a_edge2_Node000001_Node000003"><a xlink:title=" ">
<path fill="none" stroke="#63b8ff" d="M108.24,-52.5C116.54,-52.5 125.23,-52.5 133.87,-52.5"/>
<polygon fill="#63b8ff" stroke="#63b8ff" points="133.95,-56 143.95,-52.5 133.95,-49 133.95,-56"/>
</a>
</g>
</g>
<!-- Node6 -->
<g id="Node000006" class="node">
<title>Node6</title>
<g id="a_Node000006"><a xlink:href="namespacealpaqa_1_1params.html#aa3666becfea1ef2eb24d83f592c123e9" target="_top" xlink:title="Split the string full on the first occurrence of tok.">
<polygon fill="white" stroke="#666666" points="237,-19 177,-19 177,0 237,0 237,-19"/>
<text text-anchor="middle" x="207" y="-7" font-family="Helvetica,sans-Serif" font-size="10.00">split_key</text>
</a>
</g>
</g>
<!-- Node1&#45;&gt;Node6 -->
<g id="edge5_Node000001_Node000006" class="edge">
<title>Node1&#45;&gt;Node6</title>
<g id="a_edge5_Node000001_Node000006"><a xlink:title=" ">
<path fill="none" stroke="#63b8ff" d="M88.51,-42.96C111.73,-36.35 142.71,-27.52 167.03,-20.6"/>
<polygon fill="#63b8ff" stroke="#63b8ff" points="168,-23.96 176.66,-17.85 166.09,-17.23 168,-23.96"/>
</a>
</g>
</g>
<!-- Node4 -->
<g id="Node000004" class="node">
<title>Node4</title>
<g id="a_Node000004"><a xlink:href="namespacealpaqa_1_1util.html#aa93b2039064bcb3304233064c0485c9b" target="_top" xlink:title="Join the list of strings into a single string, using the separator given by opt.">
<polygon fill="white" stroke="#666666" points="405,-84 310,-84 310,-65 405,-65 405,-84"/>
<text text-anchor="middle" x="357.5" y="-72" font-family="Helvetica,sans-Serif" font-size="10.00">alpaqa::util::join</text>
</a>
</g>
</g>
<!-- Node3&#45;&gt;Node4 -->
<g id="edge3_Node000003_Node000004" class="edge">
<title>Node3&#45;&gt;Node4</title>
<g id="a_edge3_Node000003_Node000004"><a xlink:title=" ">
<path fill="none" stroke="#63b8ff" d="M270.12,-61.7C280.03,-63.17 290.23,-64.68 300,-66.13"/>
<polygon fill="#63b8ff" stroke="#63b8ff" points="299.59,-69.61 310,-67.61 300.62,-62.68 299.59,-69.61"/>
</a>
</g>
</g>
<!-- Node5 -->
<g id="Node000005" class="node">
<title>Node5</title>
<g id="a_Node000005"><a xlink:href="namespacealpaqa_1_1util.html#ab38ac790b4155e7631dfb11d7dfff1c3" target="_top" xlink:title="Sort the given range of strings in&#45;place in a case&#45;insensitive manner.">
<polygon fill="white" stroke="#666666" points="409,-46.5 306,-46.5 306,-16.5 409,-16.5 409,-46.5"/>
<text text-anchor="start" x="314" y="-34.5" font-family="Helvetica,sans-Serif" font-size="10.00">alpaqa::util::sort</text>
<text text-anchor="middle" x="357.5" y="-23.5" font-family="Helvetica,sans-Serif" font-size="10.00">_case_insensitive</text>
</a>
</g>
</g>
<!-- Node3&#45;&gt;Node5 -->
<g id="edge4_Node000003_Node000005" class="edge">
<title>Node3&#45;&gt;Node5</title>
<g id="a_edge4_Node000003_Node000005"><a xlink:title=" ">
<path fill="none" stroke="#63b8ff" d="M270.12,-43.72C278.59,-42.52 287.28,-41.29 295.74,-40.09"/>
<polygon fill="#63b8ff" stroke="#63b8ff" points="296.48,-43.52 305.89,-38.66 295.5,-36.59 296.48,-43.52"/>
</a>
</g>
</g>
</g>
</svg>
</svg>

<style type='text/css'>
<![CDATA[
[data-mouse-over-selected='false'] { opacity: 0.7; }
[data-mouse-over-selected='true']  { opacity: 1.0; }
]]>
</style>
<script type="application/ecmascript"><![CDATA[
document.addEventListener('DOMContentLoaded', (event) => {
  highlightEdges();
  highlightAdjacentNodes();
});
]]></script>
</svg>
