<?xml version="1.0" encoding="UTF-8" standalone="no"?>
<!DOCTYPE svg PUBLIC "-//W3C//DTD SVG 1.1//EN"
 "http://www.w3.org/Graphics/SVG/1.1/DTD/svg11.dtd">
<!-- Generated by graphviz version 2.43.0 (0)
 -->
<!-- Title: set_params Pages: 1 -->
<!--zoomable 97 -->

<svg id="main" version="1.1" xmlns="http://www.w3.org/2000/svg" xmlns:xlink="http://www.w3.org/1999/xlink" xml:space="preserve" onload="init(evt)">
<style type="text/css"><![CDATA[
.node, .edge {opacity: 0.7;}
.node.selected, .edge.selected {opacity: 1;}
.edge:hover path { stroke: red; }
.edge:hover polygon { stroke: red; fill: red; }
]]></style>

<defs>
  <circle id="rim" cx="0" cy="0" r="7"/>
  <circle id="rim2" cx="0" cy="0" r="3.5"/>
  <g id="zoomPlus">
    <use xlink:href="#rim" fill="#404040"><set attributeName="fill" to="#808080" begin="zoomplus.mouseover" end="zoomplus.mouseout"/></use>
    <path d="M-4,0h8M0,-4v8" fill="none" stroke="white" stroke-width="1.5" pointer-events="none"/>
  </g>
  <g id="zoomMin">
    <use xlink:href="#rim" fill="#404040"><set attributeName="fill" to="#808080" begin="zoomminus.mouseover" end="zoomminus.mouseout"/></use>
    <path d="M-4,0h8" fill="none" stroke="white" stroke-width="1.5" pointer-events="none"/>
  </g>
  <g id="arrowUp" transform="translate(30 24)">
    <use xlink:href="#rim"/>
    <path pointer-events="none" fill="none" stroke="white" stroke-width="1.5" d="M0,-3.0v7 M-2.5,-0.5L0,-3.0L2.5,-0.5"/>
  </g>
  <g id="arrowRight" transform="rotate(90) translate(36 -43)">
    <use xlink:href="#rim"/>
    <path pointer-events="none" fill="none" stroke="white" stroke-width="1.5" d="M0,-3.0v7 M-2.5,-0.5L0,-3.0L2.5,-0.5"/>
  </g>
  <g id="arrowDown" transform="rotate(180) translate(-30 -48)">
    <use xlink:href="#rim"/>
    <path pointer-events="none" fill="none" stroke="white" stroke-width="1.5" d="M0,-3.0v7 M-2.5,-0.5L0,-3.0L2.5,-0.5"/>
  </g>
  <g id="arrowLeft" transform="rotate(270) translate(-36 17)">
    <use xlink:href="#rim"/>
    <path pointer-events="none" fill="none" stroke="white" stroke-width="1.5" d="M0,-3.0v7 M-2.5,-0.5L0,-3.0L2.5,-0.5"/>
  </g>
  <g id="resetDef">
    <use xlink:href="#rim2" fill="#404040"><set attributeName="fill" to="#808080" begin="reset.mouseover" end="reset.mouseout"/></use>
  </g>
</defs>
<script type="application/ecmascript">
var viewWidth = 955;
var viewHeight = 97;
var sectionId = 'dynsection-27';
</script>
<script type="application/ecmascript" xlink:href="svg.min.js"/>
<svg id="graph" class="graph">
<g id="viewport">
<title>set_params</title>
<!-- Node1 -->
<g id="Node000001" class="node">
<title>Node1</title>
<g id="a_Node000001"><a xlink:title="Overwrites t based on the options that start with prefix.">
<polygon fill="#999999" stroke="#666666" points="74,-47.5 0,-47.5 0,-28.5 74,-28.5 74,-47.5"/>
<text text-anchor="middle" x="37" y="-35.5" font-family="Helvetica,sans-Serif" font-size="10.00">set_params</text>
</a>
</g>
</g>
<!-- Node2 -->
<g id="Node000002" class="node">
<title>Node2</title>
<g id="a_Node000002"><a xlink:href="namespacealpaqa_1_1params.html#ab8eefa468e61c2fa2c0e5349c1b3ef12" target="_top" xlink:title="Update/overwrite the first argument based on the JSON object j.">
<polygon fill="white" stroke="#666666" points="178,-66.5 110,-66.5 110,-47.5 178,-47.5 178,-66.5"/>
<text text-anchor="middle" x="144" y="-54.5" font-family="Helvetica,sans-Serif" font-size="10.00">set_param</text>
</a>
</g>
</g>
<!-- Node1&#45;&gt;Node2 -->
<g id="edge1_Node000001_Node000002" class="edge">
<title>Node1&#45;&gt;Node2</title>
<g id="a_edge1_Node000001_Node000002"><a xlink:title=" ">
<path fill="none" stroke="#63b8ff" d="M74.14,-44.54C82.49,-46.05 91.46,-47.67 100.08,-49.23"/>
<polygon fill="#63b8ff" stroke="#63b8ff" points="99.51,-52.69 109.97,-51.02 100.75,-45.8 99.51,-52.69"/>
</a>
</g>
</g>
<!-- Node10 -->
<g id="Node000010" class="node">
<title>Node10</title>
<g id="a_Node000010"><a xlink:href="namespacealpaqa_1_1params.html#aa3666becfea1ef2eb24d83f592c123e9" target="_top" xlink:title="Split the string full on the first occurrence of tok.">
<polygon fill="white" stroke="#666666" points="174,-29.5 114,-29.5 114,-10.5 174,-10.5 174,-29.5"/>
<text text-anchor="middle" x="144" y="-17.5" font-family="Helvetica,sans-Serif" font-size="10.00">split_key</text>
</a>
</g>
</g>
<!-- Node1&#45;&gt;Node10 -->
<g id="edge9_Node000001_Node000010" class="edge">
<title>Node1&#45;&gt;Node10</title>
<g id="a_edge9_Node000001_Node000010"><a xlink:title=" ">
<path fill="none" stroke="#63b8ff" d="M74.14,-31.81C83.73,-30.16 94.14,-28.38 103.89,-26.7"/>
<polygon fill="#63b8ff" stroke="#63b8ff" points="104.48,-30.15 113.75,-25.01 103.3,-23.25 104.48,-30.15"/>
</a>
</g>
</g>
<!-- Node3 -->
<g id="Node000003" class="node">
<title>Node3</title>
<g id="a_Node000003"><a xlink:href="namespacealpaqa_1_1params.html#a39fab1bdf1cebbc5e1574eac16a9af53" target="_top" xlink:title=" ">
<polygon fill="white" stroke="#666666" points="322,-66.5 214,-66.5 214,-47.5 322,-47.5 322,-66.5"/>
<text text-anchor="middle" x="268" y="-54.5" font-family="Helvetica,sans-Serif" font-size="10.00">set_param_default</text>
</a>
</g>
</g>
<!-- Node2&#45;&gt;Node3 -->
<g id="edge2_Node000002_Node000003" class="edge">
<title>Node2&#45;&gt;Node3</title>
<g id="a_edge2_Node000002_Node000003"><a xlink:title=" ">
<path fill="none" stroke="#63b8ff" d="M178.01,-57C186.01,-57 194.83,-57 203.71,-57"/>
<polygon fill="#63b8ff" stroke="#63b8ff" points="203.73,-60.5 213.73,-57 203.73,-53.5 203.73,-60.5"/>
</a>
</g>
</g>
<!-- Node4 -->
<g id="Node000004" class="node">
<title>Node4</title>
<g id="a_Node000004"><a xlink:href="demangled-typename_8cpp.html#a994032931a27ca4de5eea3f786057b17" target="_top" xlink:title="Get the pretty name of the given type as a string.">
<polygon fill="white" stroke="#666666" points="484,-88.5 358,-88.5 358,-69.5 484,-69.5 484,-88.5"/>
<text text-anchor="middle" x="421" y="-76.5" font-family="Helvetica,sans-Serif" font-size="10.00">demangled_typename</text>
</a>
</g>
</g>
<!-- Node3&#45;&gt;Node4 -->
<g id="edge3_Node000003_Node000004" class="edge">
<title>Node3&#45;&gt;Node4</title>
<g id="a_edge3_Node000003_Node000004"><a xlink:title=" ">
<path fill="none" stroke="#63b8ff" d="M322.24,-64.76C330.54,-65.97 339.23,-67.23 347.87,-68.49"/>
<polygon fill="#63b8ff" stroke="#63b8ff" points="347.55,-71.98 357.95,-69.96 348.56,-65.05 347.55,-71.98"/>
</a>
</g>
</g>
<!-- Node5 -->
<g id="Node000005" class="node">
<title>Node5</title>
<g id="a_Node000005"><a xlink:href="namespacealpaqa_1_1params_1_1detail.html#a13c61ce864494c3fe91b86bf8ffda476" target="_top" xlink:title=" ">
<polygon fill="white" stroke="#666666" points="484,-51 358,-51 358,-21 484,-21 484,-51"/>
<text text-anchor="start" x="366" y="-39" font-family="Helvetica,sans-Serif" font-size="10.00">alpaqa::params::detail</text>
<text text-anchor="middle" x="421" y="-28" font-family="Helvetica,sans-Serif" font-size="10.00">::set_param_json</text>
</a>
</g>
</g>
<!-- Node3&#45;&gt;Node5 -->
<g id="edge4_Node000003_Node000005" class="edge">
<title>Node3&#45;&gt;Node5</title>
<g id="a_edge4_Node000003_Node000005"><a xlink:title=" ">
<path fill="none" stroke="#63b8ff" d="M322.24,-49.6C330.54,-48.44 339.23,-47.23 347.87,-46.03"/>
<polygon fill="#63b8ff" stroke="#63b8ff" points="348.53,-49.47 357.95,-44.63 347.56,-42.54 348.53,-49.47"/>
</a>
</g>
</g>
<!-- Node6 -->
<g id="Node000006" class="node">
<title>Node6</title>
<g id="a_Node000006"><a xlink:href="namespacealpaqa_1_1params_1_1detail.html#a5eef50360de8527b24463d00629819f8" target="_top" xlink:title=" ">
<polygon fill="white" stroke="#666666" points="646,-51 520,-51 520,-21 646,-21 646,-51"/>
<text text-anchor="start" x="528" y="-39" font-family="Helvetica,sans-Serif" font-size="10.00">alpaqa::params::detail</text>
<text text-anchor="middle" x="583" y="-28" font-family="Helvetica,sans-Serif" font-size="10.00">::find_param_or_throw</text>
</a>
</g>
</g>
<!-- Node5&#45;&gt;Node6 -->
<g id="edge5_Node000005_Node000006" class="edge">
<title>Node5&#45;&gt;Node6</title>
<g id="a_edge5_Node000005_Node000006"><a xlink:title=" ">
<path fill="none" stroke="#63b8ff" d="M484.32,-36C492.62,-36 501.18,-36 509.63,-36"/>
<polygon fill="#63b8ff" stroke="#63b8ff" points="509.85,-39.5 519.85,-36 509.85,-32.5 509.85,-39.5"/>
</a>
</g>
</g>
<!-- Node7 -->
<g id="Node000007" class="node">
<title>Node7</title>
<g id="a_Node000007"><a xlink:href="namespacealpaqa_1_1params_1_1detail.html#a6aa41a8827ffd36b3e2a8e7346a44f19" target="_top" xlink:title=" ">
<polygon fill="white" stroke="#666666" points="808,-51 682,-51 682,-21 808,-21 808,-51"/>
<text text-anchor="start" x="690" y="-39" font-family="Helvetica,sans-Serif" font-size="10.00">alpaqa::params::detail</text>
<text text-anchor="middle" x="745" y="-28" font-family="Helvetica,sans-Serif" font-size="10.00">::join_sorted_keys</text>
</a>
</g>
</g>
<!-- Node6&#45;&gt;Node7 -->
<g id="edge6_Node000006_Node000007" class="edge">
<title>Node6&#45;&gt;Node7</title>
<g id="a_edge6_Node000006_Node000007"><a xlink:title=" ">
<path fill="none" stroke="#63b8ff" d="M646.32,-36C654.62,-36 663.18,-36 671.63,-36"/>
<polygon fill="#63b8ff" stroke="#63b8ff" points="671.85,-39.5 681.85,-36 671.85,-32.5 671.85,-39.5"/>
</a>
</g>
</g>
<!-- Node8 -->
<g id="Node000008" class="node">
<title>Node8</title>
<g id="a_Node000008"><a xlink:href="namespacealpaqa_1_1util.html#aa93b2039064bcb3304233064c0485c9b" target="_top" xlink:title="Join the list of strings into a single string, using the separator given by opt.">
<polygon fill="white" stroke="#666666" points="943,-67.5 848,-67.5 848,-48.5 943,-48.5 943,-67.5"/>
<text text-anchor="middle" x="895.5" y="-55.5" font-family="Helvetica,sans-Serif" font-size="10.00">alpaqa::util::join</text>
</a>
</g>
</g>
<!-- Node7&#45;&gt;Node8 -->
<g id="edge7_Node000007_Node000008" class="edge">
<title>Node7&#45;&gt;Node8</title>
<g id="a_edge7_Node000007_Node000008"><a xlink:title=" ">
<path fill="none" stroke="#63b8ff" d="M808.12,-45.2C818.03,-46.67 828.23,-48.18 838,-49.63"/>
<polygon fill="#63b8ff" stroke="#63b8ff" points="837.59,-53.11 848,-51.11 838.62,-46.18 837.59,-53.11"/>
</a>
</g>
</g>
<!-- Node9 -->
<g id="Node000009" class="node">
<title>Node9</title>
<g id="a_Node000009"><a xlink:href="namespacealpaqa_1_1util.html#ab38ac790b4155e7631dfb11d7dfff1c3" target="_top" xlink:title="Sort the given range of strings in&#45;place in a case&#45;insensitive manner.">
<polygon fill="white" stroke="#666666" points="947,-30 844,-30 844,0 947,0 947,-30"/>
<text text-anchor="start" x="852" y="-18" font-family="Helvetica,sans-Serif" font-size="10.00">alpaqa::util::sort</text>
<text text-anchor="middle" x="895.5" y="-7" font-family="Helvetica,sans-Serif" font-size="10.00">_case_insensitive</text>
</a>
</g>
</g>
<!-- Node7&#45;&gt;Node9 -->
<g id="edge8_Node000007_Node000009" class="edge">
<title>Node7&#45;&gt;Node9</title>
<g id="a_edge8_Node000007_Node000009"><a xlink:title=" ">
<path fill="none" stroke="#63b8ff" d="M808.12,-27.22C816.59,-26.02 825.28,-24.79 833.74,-23.59"/>
<polygon fill="#63b8ff" stroke="#63b8ff" points="834.48,-27.02 843.89,-22.16 833.5,-20.09 834.48,-27.02"/>
</a>
</g>
</g>
</g>
</svg>

<g id="navigator" transform="translate(0 0)" fill="#404254">
  <rect fill="#f2f5e9" fill-opacity="0.5" stroke="#606060" stroke-width=".5" x="0" y="0" width="60" height="60"/>
  <use id="zoomplus" xlink:href="#zoomPlus" x="17" y="9" onmousedown="handleZoom(evt,'in')"/>
  <use id="zoomminus" xlink:href="#zoomMin" x="42" y="9" onmousedown="handleZoom(evt,'out')"/>
  <use id="reset" xlink:href="#resetDef" x="30" y="36" onmousedown="handleReset()"/>
   <use id="arrowup" xlink:href="#arrowUp" x="0" y="0" onmousedown="handlePan(0,-1)"/>
  <use id="arrowright" xlink:href="#arrowRight" x="0" y="0" onmousedown="handlePan(1,0)"/>
  <use id="arrowdown" xlink:href="#arrowDown" x="0" y="0" onmousedown="handlePan(0,1)"/>
  <use id="arrowleft" xlink:href="#arrowLeft" x="0" y="0" onmousedown="handlePan(-1,0)"/>
</g>
<svg viewBox="0 0 15 15" width="100%" height="30px" preserveAspectRatio="xMaxYMin meet">
 <g id="arrow_out" transform="scale(0.3 0.3)">
  <a xlink:href="namespacealpaqa_1_1params_abadc98653193fbd05b658d62b34f75e7_cgraph_org.svg" target="_base">
   <rect id="button" ry="5" rx="5" y="6" x="6" height="38" width="38"
        fill="#f2f5e9" fill-opacity="0.5" stroke="#606060" stroke-width="1.0"/>
   <path id="arrow"
     d="M 11.500037,31.436501 C 11.940474,20.09759 22.043105,11.32322 32.158766,21.979434 L 37.068811,17.246167 C 37.068811,17.246167 37.088388,32 37.088388,32 L 22.160133,31.978069 C 22.160133,31.978069 26.997745,27.140456 26.997745,27.140456 C 18.528582,18.264221 13.291696,25.230495 11.500037,31.436501 z"
     style="fill:#404040;"/>
  </a>
 </g>
</svg>

<style type='text/css'>
<![CDATA[
[data-mouse-over-selected='false'] { opacity: 0.7; }
[data-mouse-over-selected='true']  { opacity: 1.0; }
]]>
</style>
<script type="application/ecmascript"><![CDATA[
document.addEventListener('DOMContentLoaded', (event) => {
  highlightEdges();
  highlightAdjacentNodes();
});
]]></script>
</svg>
