<?xml version="1.0" encoding="UTF-8" standalone="no"?>
<!DOCTYPE svg PUBLIC "-//W3C//DTD SVG 1.1//EN"
 "http://www.w3.org/Graphics/SVG/1.1/DTD/svg11.dtd">
<!-- Generated by graphviz version 2.43.0 (0)
 -->
<!-- Title: load_initial_guess Pages: 1 -->
<!--zoomable 285 -->

<svg id="main" version="1.1" xmlns="http://www.w3.org/2000/svg" xmlns:xlink="http://www.w3.org/1999/xlink" xml:space="preserve" onload="init(evt)">
<style type="text/css"><![CDATA[
.node, .edge {opacity: 0.7;}
.node.selected, .edge.selected {opacity: 1;}
.edge:hover path { stroke: red; }
.edge:hover polygon { stroke: red; fill: red; }
]]></style>

<defs>
  <circle id="rim" cx="0" cy="0" r="7"/>
  <circle id="rim2" cx="0" cy="0" r="3.5"/>
  <g id="zoomPlus">
    <use xlink:href="#rim" fill="#404040"><set attributeName="fill" to="#808080" begin="zoomplus.mouseover" end="zoomplus.mouseout"/></use>
    <path d="M-4,0h8M0,-4v8" fill="none" stroke="white" stroke-width="1.5" pointer-events="none"/>
  </g>
  <g id="zoomMin">
    <use xlink:href="#rim" fill="#404040"><set attributeName="fill" to="#808080" begin="zoomminus.mouseover" end="zoomminus.mouseout"/></use>
    <path d="M-4,0h8" fill="none" stroke="white" stroke-width="1.5" pointer-events="none"/>
  </g>
  <g id="arrowUp" transform="translate(30 24)">
    <use xlink:href="#rim"/>
    <path pointer-events="none" fill="none" stroke="white" stroke-width="1.5" d="M0,-3.0v7 M-2.5,-0.5L0,-3.0L2.5,-0.5"/>
  </g>
  <g id="arrowRight" transform="rotate(90) translate(36 -43)">
    <use xlink:href="#rim"/>
    <path pointer-events="none" fill="none" stroke="white" stroke-width="1.5" d="M0,-3.0v7 M-2.5,-0.5L0,-3.0L2.5,-0.5"/>
  </g>
  <g id="arrowDown" transform="rotate(180) translate(-30 -48)">
    <use xlink:href="#rim"/>
    <path pointer-events="none" fill="none" stroke="white" stroke-width="1.5" d="M0,-3.0v7 M-2.5,-0.5L0,-3.0L2.5,-0.5"/>
  </g>
  <g id="arrowLeft" transform="rotate(270) translate(-36 17)">
    <use xlink:href="#rim"/>
    <path pointer-events="none" fill="none" stroke="white" stroke-width="1.5" d="M0,-3.0v7 M-2.5,-0.5L0,-3.0L2.5,-0.5"/>
  </g>
  <g id="resetDef">
    <use xlink:href="#rim2" fill="#404040"><set attributeName="fill" to="#808080" begin="reset.mouseover" end="reset.mouseout"/></use>
  </g>
</defs>
<script type="application/ecmascript">
var viewWidth = 1558;
var viewHeight = 285;
var sectionId = 'dynsection-2';
</script>
<script type="application/ecmascript" xlink:href="svg.min.js"/>
<svg id="graph" class="graph">
<g id="viewport">
<title>load_initial_guess</title>
<!-- Node1 -->
<g id="Node000001" class="node">
<title>Node1</title>
<g id="a_Node000001"><a xlink:title=" ">
<polygon fill="#999999" stroke="#666666" points="104,-186 0,-186 0,-167 104,-167 104,-186"/>
<text text-anchor="middle" x="52" y="-174" font-family="Helvetica,sans-Serif" font-size="10.00">load_initial_guess</text>
</a>
</g>
</g>
<!-- Node1&#45;&gt;Node1 -->
<g id="edge3_Node000001_Node000001" class="edge">
<title>Node1&#45;&gt;Node1</title>
<g id="a_edge3_Node000001_Node000001"><a xlink:title=" ">
<path fill="none" stroke="#63b8ff" d="M26.72,-186.08C14.43,-194.73 22.85,-204 52,-204 71.13,-204 81.33,-200.01 82.61,-194.82"/>
<polygon fill="#63b8ff" stroke="#63b8ff" points="85.48,-192.79 77.28,-186.08 79.5,-196.44 85.48,-192.79"/>
</a>
</g>
</g>
<!-- Node2 -->
<g id="Node000002" class="node">
<title>Node2</title>
<g id="a_Node000002"><a xlink:href="classalpaqa_1_1TypeErasedProblem.html#a4cb358cffb880a83ec60933c6d44cef4" target="_top" xlink:title="[Required] Number of constraints.">
<polygon fill="white" stroke="#666666" points="292,-239.5 140,-239.5 140,-209.5 292,-209.5 292,-239.5"/>
<text text-anchor="start" x="148" y="-227.5" font-family="Helvetica,sans-Serif" font-size="10.00">alpaqa::TypeErasedProblem</text>
<text text-anchor="middle" x="216" y="-216.5" font-family="Helvetica,sans-Serif" font-size="10.00">::get_m</text>
</a>
</g>
</g>
<!-- Node1&#45;&gt;Node2 -->
<g id="edge1_Node000001_Node000002" class="edge">
<title>Node1&#45;&gt;Node2</title>
<g id="a_edge1_Node000001_Node000002"><a xlink:title=" ">
<path fill="none" stroke="#63b8ff" d="M85.39,-186.1C105.11,-191.94 130.92,-199.59 154.31,-206.52"/>
<polygon fill="#63b8ff" stroke="#63b8ff" points="153.58,-209.95 164.16,-209.44 155.57,-203.24 153.58,-209.95"/>
</a>
</g>
</g>
<!-- Node3 -->
<g id="Node000003" class="node">
<title>Node3</title>
<g id="a_Node000003"><a xlink:href="classalpaqa_1_1TypeErasedProblem.html#a3e0872a0f29741da3d5429fce2749a34" target="_top" xlink:title="[Required] Number of decision variables.">
<polygon fill="white" stroke="#666666" points="292,-191.5 140,-191.5 140,-161.5 292,-161.5 292,-191.5"/>
<text text-anchor="start" x="148" y="-179.5" font-family="Helvetica,sans-Serif" font-size="10.00">alpaqa::TypeErasedProblem</text>
<text text-anchor="middle" x="216" y="-168.5" font-family="Helvetica,sans-Serif" font-size="10.00">::get_n</text>
</a>
</g>
</g>
<!-- Node1&#45;&gt;Node3 -->
<g id="edge2_Node000001_Node000003" class="edge">
<title>Node1&#45;&gt;Node3</title>
<g id="a_edge2_Node000001_Node000003"><a xlink:title=" ">
<path fill="none" stroke="#63b8ff" d="M104.26,-176.5C112.39,-176.5 120.98,-176.5 129.64,-176.5"/>
<polygon fill="#63b8ff" stroke="#63b8ff" points="129.81,-180 139.81,-176.5 129.81,-173 129.81,-180"/>
</a>
</g>
</g>
<!-- Node4 -->
<g id="Node000004" class="node">
<title>Node4</title>
<g id="a_Node000004"><a xlink:href="options_8hpp.html#a91fca5414dbe50bec5104c59d9ebda11" target="_top" xlink:title=" ">
<polygon fill="white" stroke="#666666" points="253,-143 179,-143 179,-124 253,-124 253,-143"/>
<text text-anchor="middle" x="216" y="-131" font-family="Helvetica,sans-Serif" font-size="10.00">set_params</text>
</a>
</g>
</g>
<!-- Node1&#45;&gt;Node4 -->
<g id="edge4_Node000001_Node000004" class="edge">
<title>Node1&#45;&gt;Node4</title>
<g id="a_edge4_Node000001_Node000004"><a xlink:title=" ">
<path fill="none" stroke="#63b8ff" d="M86.83,-166.99C102.92,-162.51 122.43,-157.15 140,-152.5 149.35,-150.03 159.37,-147.44 168.95,-145"/>
<polygon fill="#63b8ff" stroke="#63b8ff" points="169.89,-148.38 178.72,-142.53 168.17,-141.59 169.89,-148.38"/>
</a>
</g>
</g>
<!-- Node5 -->
<g id="Node000005" class="node">
<title>Node5</title>
<g id="a_Node000005"><a xlink:href="classOptions.html#a8ca2e3915e8acf3cd04e02180e66e9ab" target="_top" xlink:title=" ">
<polygon fill="white" stroke="#666666" points="445,-143 328,-143 328,-124 445,-124 445,-143"/>
<text text-anchor="middle" x="386.5" y="-131" font-family="Helvetica,sans-Serif" font-size="10.00">Options::set_params</text>
</a>
</g>
</g>
<!-- Node4&#45;&gt;Node5 -->
<g id="edge5_Node000004_Node000005" class="edge">
<title>Node4&#45;&gt;Node5</title>
<g id="a_edge5_Node000004_Node000005"><a xlink:title=" ">
<path fill="none" stroke="#63b8ff" d="M253.15,-133.5C272.02,-133.5 295.72,-133.5 317.84,-133.5"/>
<polygon fill="#63b8ff" stroke="#63b8ff" points="317.87,-137 327.87,-133.5 317.87,-130 317.87,-137"/>
</a>
</g>
</g>
<!-- Node6 -->
<g id="Node000006" class="node">
<title>Node6</title>
<g id="a_Node000006"><a xlink:href="namespacealpaqa_1_1params.html#a1f2f7590328c20e04138a91eee5e0e98" target="_top" xlink:title="Get the first argument as a JSON object j.">
<polygon fill="white" stroke="#666666" points="595,-276.5 481,-276.5 481,-246.5 595,-246.5 595,-276.5"/>
<text text-anchor="start" x="489" y="-264.5" font-family="Helvetica,sans-Serif" font-size="10.00">alpaqa::params::get</text>
<text text-anchor="middle" x="538" y="-253.5" font-family="Helvetica,sans-Serif" font-size="10.00">_param</text>
</a>
</g>
</g>
<!-- Node5&#45;&gt;Node6 -->
<g id="edge6_Node000005_Node000006" class="edge">
<title>Node5&#45;&gt;Node6</title>
<g id="a_edge6_Node000005_Node000006"><a xlink:title=" ">
<path fill="none" stroke="#63b8ff" d="M393.91,-143.09C407.71,-163.07 442.12,-209.64 481,-237.5 482.89,-238.85 484.86,-240.15 486.89,-241.39"/>
<polygon fill="#63b8ff" stroke="#63b8ff" points="485.65,-244.7 496.1,-246.47 489.03,-238.57 485.65,-244.7"/>
</a>
</g>
</g>
<!-- Node9 -->
<g id="Node000009" class="node">
<title>Node9</title>
<g id="a_Node000009"><a xlink:href="namespacealpaqa_1_1util.html#a381655901120dbb2a07cec1df230595e" target="_top" xlink:title="Join the list of strings into a single string, using the separator given by opt.">
<polygon fill="white" stroke="#666666" points="585.5,-228.5 490.5,-228.5 490.5,-198.5 585.5,-198.5 585.5,-228.5"/>
<text text-anchor="start" x="498.5" y="-216.5" font-family="Helvetica,sans-Serif" font-size="10.00">alpaqa::util::join</text>
<text text-anchor="middle" x="538" y="-205.5" font-family="Helvetica,sans-Serif" font-size="10.00">_quote</text>
</a>
</g>
</g>
<!-- Node5&#45;&gt;Node9 -->
<g id="edge9_Node000005_Node000009" class="edge">
<title>Node5&#45;&gt;Node9</title>
<g id="a_edge9_Node000005_Node000009"><a xlink:title=" ">
<path fill="none" stroke="#63b8ff" d="M402.05,-143.05C420.15,-154.74 452.19,-174.78 481,-189.5 484.11,-191.09 487.35,-192.67 490.63,-194.21"/>
<polygon fill="#63b8ff" stroke="#63b8ff" points="489.37,-197.48 499.92,-198.45 492.28,-191.11 489.37,-197.48"/>
</a>
</g>
</g>
<!-- Node10 -->
<g id="Node000010" class="node">
<title>Node10</title>
<g id="a_Node000010"><a xlink:href="classOptions.html#a32a1a00438ef83609a2ecf66d9e77056" target="_top" xlink:title=" ">
<polygon fill="white" stroke="#666666" points="592.5,-180 483.5,-180 483.5,-161 592.5,-161 592.5,-180"/>
<text text-anchor="middle" x="538" y="-168" font-family="Helvetica,sans-Serif" font-size="10.00">Options::json_flags</text>
</a>
</g>
</g>
<!-- Node5&#45;&gt;Node10 -->
<g id="edge10_Node000005_Node000010" class="edge">
<title>Node5&#45;&gt;Node10</title>
<g id="a_edge10_Node000005_Node000010"><a xlink:title=" ">
<path fill="none" stroke="#63b8ff" d="M426,-143.03C445.02,-147.74 468.17,-153.47 488.4,-158.47"/>
<polygon fill="#63b8ff" stroke="#63b8ff" points="487.82,-161.93 498.37,-160.94 489.5,-155.14 487.82,-161.93"/>
</a>
</g>
</g>
<!-- Node11 -->
<g id="Node000011" class="node">
<title>Node11</title>
<g id="a_Node000011"><a xlink:href="classOptions.html#a502ee531f4e5cdc1c8dd78e9409a4e8e" target="_top" xlink:title=" ">
<polygon fill="white" stroke="#666666" points="586,-143 490,-143 490,-124 586,-124 586,-143"/>
<text text-anchor="middle" x="538" y="-131" font-family="Helvetica,sans-Serif" font-size="10.00">Options::options</text>
</a>
</g>
</g>
<!-- Node5&#45;&gt;Node11 -->
<g id="edge11_Node000005_Node000011" class="edge">
<title>Node5&#45;&gt;Node11</title>
<g id="a_edge11_Node000005_Node000011"><a xlink:title=" ">
<path fill="none" stroke="#63b8ff" d="M445.3,-133.5C456.62,-133.5 468.5,-133.5 479.8,-133.5"/>
<polygon fill="#63b8ff" stroke="#63b8ff" points="479.99,-137 489.99,-133.5 479.99,-130 479.99,-137"/>
</a>
</g>
</g>
<!-- Node12 -->
<g id="Node000012" class="node">
<title>Node12</title>
<g id="a_Node000012"><a xlink:href="namespacealpaqa_1_1params.html#ab8eefa468e61c2fa2c0e5349c1b3ef12" target="_top" xlink:title="Update/overwrite the first argument based on the JSON object j.">
<polygon fill="white" stroke="#666666" points="758.5,-110.5 645.5,-110.5 645.5,-80.5 758.5,-80.5 758.5,-110.5"/>
<text text-anchor="start" x="653.5" y="-98.5" font-family="Helvetica,sans-Serif" font-size="10.00">alpaqa::params::set</text>
<text text-anchor="middle" x="702" y="-87.5" font-family="Helvetica,sans-Serif" font-size="10.00">_param</text>
</a>
</g>
</g>
<!-- Node5&#45;&gt;Node12 -->
<g id="edge12_Node000005_Node000012" class="edge">
<title>Node5&#45;&gt;Node12</title>
<g id="a_edge12_Node000005_Node000012"><a xlink:title=" ">
<path fill="none" stroke="#63b8ff" d="M432.05,-123.98C447.5,-120.94 464.96,-117.77 481,-115.5 532.5,-108.22 591.18,-103.04 634.98,-99.78"/>
<polygon fill="#63b8ff" stroke="#63b8ff" points="635.5,-103.25 645.22,-99.03 634.99,-96.27 635.5,-103.25"/>
</a>
</g>
</g>
<!-- Node20 -->
<g id="Node000020" class="node">
<title>Node20</title>
<g id="a_Node000020"><a xlink:href="namespacealpaqa_1_1params.html#abadc98653193fbd05b658d62b34f75e7" target="_top" xlink:title="Overwrites t based on the options that start with prefix.">
<polygon fill="white" stroke="#666666" points="594.5,-67.5 481.5,-67.5 481.5,-37.5 594.5,-37.5 594.5,-67.5"/>
<text text-anchor="start" x="489.5" y="-55.5" font-family="Helvetica,sans-Serif" font-size="10.00">alpaqa::params::set</text>
<text text-anchor="middle" x="538" y="-44.5" font-family="Helvetica,sans-Serif" font-size="10.00">_params</text>
</a>
</g>
</g>
<!-- Node5&#45;&gt;Node20 -->
<g id="edge20_Node000005_Node000020" class="edge">
<title>Node5&#45;&gt;Node20</title>
<g id="a_edge20_Node000005_Node000020"><a xlink:title=" ">
<path fill="none" stroke="#63b8ff" d="M404.31,-123.95C422.96,-113.41 454,-96 481,-81.5 486.63,-78.48 492.61,-75.32 498.48,-72.25"/>
<polygon fill="#63b8ff" stroke="#63b8ff" points="500.3,-75.26 507.56,-67.54 497.07,-69.04 500.3,-75.26"/>
</a>
</g>
</g>
<!-- Node22 -->
<g id="Node000022" class="node">
<title>Node22</title>
<g id="a_Node000022"><a xlink:href="classOptions.html#a12df8f934f6bafb37bf4e64529917d06" target="_top" xlink:title=" ">
<polygon fill="white" stroke="#666666" points="579.5,-19 496.5,-19 496.5,0 579.5,0 579.5,-19"/>
<text text-anchor="middle" x="538" y="-7" font-family="Helvetica,sans-Serif" font-size="10.00">Options::used</text>
</a>
</g>
</g>
<!-- Node5&#45;&gt;Node22 -->
<g id="edge23_Node000005_Node000022" class="edge">
<title>Node5&#45;&gt;Node22</title>
<g id="a_edge23_Node000005_Node000022"><a xlink:title=" ">
<path fill="none" stroke="#63b8ff" d="M393.52,-123.88C406.81,-103.41 440.71,-55.2 481,-28.5 483.96,-26.54 487.14,-24.76 490.42,-23.16"/>
<polygon fill="#63b8ff" stroke="#63b8ff" points="492.09,-26.25 499.88,-19.06 489.31,-19.83 492.09,-26.25"/>
</a>
</g>
</g>
<!-- Node7 -->
<g id="Node000007" class="node">
<title>Node7</title>
<g id="a_Node000007"><a xlink:href="namespacealpaqa_1_1params.html#a2ed398728f87219847d2db047fa70195" target="_top" xlink:title=" ">
<polygon fill="white" stroke="#666666" points="759,-276.5 645,-276.5 645,-246.5 759,-246.5 759,-276.5"/>
<text text-anchor="start" x="653" y="-264.5" font-family="Helvetica,sans-Serif" font-size="10.00">alpaqa::params::get</text>
<text text-anchor="middle" x="702" y="-253.5" font-family="Helvetica,sans-Serif" font-size="10.00">_param_default</text>
</a>
</g>
</g>
<!-- Node6&#45;&gt;Node7 -->
<g id="edge7_Node000006_Node000007" class="edge">
<title>Node6&#45;&gt;Node7</title>
<g id="a_edge7_Node000006_Node000007"><a xlink:title=" ">
<path fill="none" stroke="#63b8ff" d="M595.21,-261.5C607.9,-261.5 621.49,-261.5 634.55,-261.5"/>
<polygon fill="#63b8ff" stroke="#63b8ff" points="634.89,-265 644.89,-261.5 634.89,-258 634.89,-265"/>
</a>
</g>
</g>
<!-- Node8 -->
<g id="Node000008" class="node">
<title>Node8</title>
<g id="a_Node000008"><a xlink:href="namespacealpaqa.html#ad0c64aea84b4b70c07be417122dd8e3f" target="_top" xlink:title=" ">
<polygon fill="white" stroke="#666666" points="925,-271 809,-271 809,-252 925,-252 925,-271"/>
<text text-anchor="middle" x="867" y="-259" font-family="Helvetica,sans-Serif" font-size="10.00">alpaqa::enum_name</text>
</a>
</g>
</g>
<!-- Node7&#45;&gt;Node8 -->
<g id="edge8_Node000007_Node000008" class="edge">
<title>Node7&#45;&gt;Node8</title>
<g id="a_edge8_Node000007_Node000008"><a xlink:title=" ">
<path fill="none" stroke="#63b8ff" d="M759.1,-261.5C771.94,-261.5 785.71,-261.5 798.97,-261.5"/>
<polygon fill="#63b8ff" stroke="#63b8ff" points="798.97,-265 808.97,-261.5 798.97,-258 798.97,-265"/>
</a>
</g>
</g>
<!-- Node13 -->
<g id="Node000013" class="node">
<title>Node13</title>
<g id="a_Node000013"><a xlink:href="namespacealpaqa_1_1params.html#a39fab1bdf1cebbc5e1574eac16a9af53" target="_top" xlink:title=" ">
<polygon fill="white" stroke="#666666" points="923.5,-110.5 810.5,-110.5 810.5,-80.5 923.5,-80.5 923.5,-110.5"/>
<text text-anchor="start" x="818.5" y="-98.5" font-family="Helvetica,sans-Serif" font-size="10.00">alpaqa::params::set</text>
<text text-anchor="middle" x="867" y="-87.5" font-family="Helvetica,sans-Serif" font-size="10.00">_param_default</text>
</a>
</g>
</g>
<!-- Node12&#45;&gt;Node13 -->
<g id="edge13_Node000012_Node000013" class="edge">
<title>Node12&#45;&gt;Node13</title>
<g id="a_edge13_Node000012_Node000013"><a xlink:title=" ">
<path fill="none" stroke="#63b8ff" d="M758.64,-95.5C771.94,-95.5 786.27,-95.5 799.99,-95.5"/>
<polygon fill="#63b8ff" stroke="#63b8ff" points="800.33,-99 810.33,-95.5 800.33,-92 800.33,-99"/>
</a>
</g>
</g>
<!-- Node14 -->
<g id="Node000014" class="node">
<title>Node14</title>
<g id="a_Node000014"><a xlink:href="demangled-typename_8cpp.html#a994032931a27ca4de5eea3f786057b17" target="_top" xlink:title="Get the pretty name of the given type as a string.">
<polygon fill="white" stroke="#666666" points="1087,-127 961,-127 961,-108 1087,-108 1087,-127"/>
<text text-anchor="middle" x="1024" y="-115" font-family="Helvetica,sans-Serif" font-size="10.00">demangled_typename</text>
</a>
</g>
</g>
<!-- Node13&#45;&gt;Node14 -->
<g id="edge14_Node000013_Node000014" class="edge">
<title>Node13&#45;&gt;Node14</title>
<g id="a_edge14_Node000013_Node000014"><a xlink:title=" ">
<path fill="none" stroke="#63b8ff" d="M923.52,-103.38C932.39,-104.64 941.67,-105.96 950.86,-107.26"/>
<polygon fill="#63b8ff" stroke="#63b8ff" points="950.37,-110.73 960.76,-108.67 951.35,-103.8 950.37,-110.73"/>
</a>
</g>
</g>
<!-- Node15 -->
<g id="Node000015" class="node">
<title>Node15</title>
<g id="a_Node000015"><a xlink:href="namespacealpaqa_1_1params_1_1detail.html#a13c61ce864494c3fe91b86bf8ffda476" target="_top" xlink:title=" ">
<polygon fill="white" stroke="#666666" points="1087,-89.5 961,-89.5 961,-59.5 1087,-59.5 1087,-89.5"/>
<text text-anchor="start" x="969" y="-77.5" font-family="Helvetica,sans-Serif" font-size="10.00">alpaqa::params::detail</text>
<text text-anchor="middle" x="1024" y="-66.5" font-family="Helvetica,sans-Serif" font-size="10.00">::set_param_json</text>
</a>
</g>
</g>
<!-- Node13&#45;&gt;Node15 -->
<g id="edge15_Node000013_Node000015" class="edge">
<title>Node13&#45;&gt;Node15</title>
<g id="a_edge15_Node000013_Node000015"><a xlink:title=" ">
<path fill="none" stroke="#63b8ff" d="M923.52,-87.98C932.29,-86.79 941.48,-85.55 950.57,-84.31"/>
<polygon fill="#63b8ff" stroke="#63b8ff" points="951.32,-87.74 960.76,-82.93 950.38,-80.81 951.32,-87.74"/>
</a>
</g>
</g>
<!-- Node16 -->
<g id="Node000016" class="node">
<title>Node16</title>
<g id="a_Node000016"><a xlink:href="namespacealpaqa_1_1params_1_1detail.html#a5eef50360de8527b24463d00629819f8" target="_top" xlink:title=" ">
<polygon fill="white" stroke="#666666" points="1249,-89.5 1123,-89.5 1123,-59.5 1249,-59.5 1249,-89.5"/>
<text text-anchor="start" x="1131" y="-77.5" font-family="Helvetica,sans-Serif" font-size="10.00">alpaqa::params::detail</text>
<text text-anchor="middle" x="1186" y="-66.5" font-family="Helvetica,sans-Serif" font-size="10.00">::find_param_or_throw</text>
</a>
</g>
</g>
<!-- Node15&#45;&gt;Node16 -->
<g id="edge16_Node000015_Node000016" class="edge">
<title>Node15&#45;&gt;Node16</title>
<g id="a_edge16_Node000015_Node000016"><a xlink:title=" ">
<path fill="none" stroke="#63b8ff" d="M1087.32,-74.5C1095.62,-74.5 1104.18,-74.5 1112.63,-74.5"/>
<polygon fill="#63b8ff" stroke="#63b8ff" points="1112.85,-78 1122.85,-74.5 1112.85,-71 1112.85,-78"/>
</a>
</g>
</g>
<!-- Node17 -->
<g id="Node000017" class="node">
<title>Node17</title>
<g id="a_Node000017"><a xlink:href="namespacealpaqa_1_1params_1_1detail.html#a6aa41a8827ffd36b3e2a8e7346a44f19" target="_top" xlink:title=" ">
<polygon fill="white" stroke="#666666" points="1411,-89.5 1285,-89.5 1285,-59.5 1411,-59.5 1411,-89.5"/>
<text text-anchor="start" x="1293" y="-77.5" font-family="Helvetica,sans-Serif" font-size="10.00">alpaqa::params::detail</text>
<text text-anchor="middle" x="1348" y="-66.5" font-family="Helvetica,sans-Serif" font-size="10.00">::join_sorted_keys</text>
</a>
</g>
</g>
<!-- Node16&#45;&gt;Node17 -->
<g id="edge17_Node000016_Node000017" class="edge">
<title>Node16&#45;&gt;Node17</title>
<g id="a_edge17_Node000016_Node000017"><a xlink:title=" ">
<path fill="none" stroke="#63b8ff" d="M1249.32,-74.5C1257.62,-74.5 1266.18,-74.5 1274.63,-74.5"/>
<polygon fill="#63b8ff" stroke="#63b8ff" points="1274.85,-78 1284.85,-74.5 1274.85,-71 1274.85,-78"/>
</a>
</g>
</g>
<!-- Node18 -->
<g id="Node000018" class="node">
<title>Node18</title>
<g id="a_Node000018"><a xlink:href="namespacealpaqa_1_1util.html#aa93b2039064bcb3304233064c0485c9b" target="_top" xlink:title="Join the list of strings into a single string, using the separator given by opt.">
<polygon fill="white" stroke="#666666" points="1546,-106 1451,-106 1451,-87 1546,-87 1546,-106"/>
<text text-anchor="middle" x="1498.5" y="-94" font-family="Helvetica,sans-Serif" font-size="10.00">alpaqa::util::join</text>
</a>
</g>
</g>
<!-- Node17&#45;&gt;Node18 -->
<g id="edge18_Node000017_Node000018" class="edge">
<title>Node17&#45;&gt;Node18</title>
<g id="a_edge18_Node000017_Node000018"><a xlink:title=" ">
<path fill="none" stroke="#63b8ff" d="M1411.12,-83.7C1421.03,-85.17 1431.23,-86.68 1441,-88.13"/>
<polygon fill="#63b8ff" stroke="#63b8ff" points="1440.59,-91.61 1451,-89.61 1441.62,-84.68 1440.59,-91.61"/>
</a>
</g>
</g>
<!-- Node19 -->
<g id="Node000019" class="node">
<title>Node19</title>
<g id="a_Node000019"><a xlink:href="namespacealpaqa_1_1util.html#ab38ac790b4155e7631dfb11d7dfff1c3" target="_top" xlink:title="Sort the given range of strings in&#45;place in a case&#45;insensitive manner.">
<polygon fill="white" stroke="#666666" points="1550,-68.5 1447,-68.5 1447,-38.5 1550,-38.5 1550,-68.5"/>
<text text-anchor="start" x="1455" y="-56.5" font-family="Helvetica,sans-Serif" font-size="10.00">alpaqa::util::sort</text>
<text text-anchor="middle" x="1498.5" y="-45.5" font-family="Helvetica,sans-Serif" font-size="10.00">_case_insensitive</text>
</a>
</g>
</g>
<!-- Node17&#45;&gt;Node19 -->
<g id="edge19_Node000017_Node000019" class="edge">
<title>Node17&#45;&gt;Node19</title>
<g id="a_edge19_Node000017_Node000019"><a xlink:title=" ">
<path fill="none" stroke="#63b8ff" d="M1411.12,-65.72C1419.59,-64.52 1428.28,-63.29 1436.74,-62.09"/>
<polygon fill="#63b8ff" stroke="#63b8ff" points="1437.48,-65.52 1446.89,-60.66 1436.5,-58.59 1437.48,-65.52"/>
</a>
</g>
</g>
<!-- Node20&#45;&gt;Node12 -->
<g id="edge21_Node000020_Node000012" class="edge">
<title>Node20&#45;&gt;Node12</title>
<g id="a_edge21_Node000020_Node000012"><a xlink:title=" ">
<path fill="none" stroke="#63b8ff" d="M594.75,-67.3C607.93,-70.8 622.11,-74.56 635.67,-78.16"/>
<polygon fill="#63b8ff" stroke="#63b8ff" points="634.86,-81.56 645.42,-80.75 636.65,-74.8 634.86,-81.56"/>
</a>
</g>
</g>
<!-- Node21 -->
<g id="Node000021" class="node">
<title>Node21</title>
<g id="a_Node000021"><a xlink:href="namespacealpaqa_1_1params.html#aa3666becfea1ef2eb24d83f592c123e9" target="_top" xlink:title="Split the string full on the first occurrence of tok.">
<polygon fill="white" stroke="#666666" points="773,-62 631,-62 631,-43 773,-43 773,-62"/>
<text text-anchor="middle" x="702" y="-50" font-family="Helvetica,sans-Serif" font-size="10.00">alpaqa::params::split_key</text>
</a>
</g>
</g>
<!-- Node20&#45;&gt;Node21 -->
<g id="edge22_Node000020_Node000021" class="edge">
<title>Node20&#45;&gt;Node21</title>
<g id="a_edge22_Node000020_Node000021"><a xlink:title=" ">
<path fill="none" stroke="#63b8ff" d="M594.75,-52.5C603.11,-52.5 611.86,-52.5 620.6,-52.5"/>
<polygon fill="#63b8ff" stroke="#63b8ff" points="620.84,-56 630.84,-52.5 620.84,-49 620.84,-56"/>
</a>
</g>
</g>
</g>
</svg>

<g id="navigator" transform="translate(0 0)" fill="#404254">
  <rect fill="#f2f5e9" fill-opacity="0.5" stroke="#606060" stroke-width=".5" x="0" y="0" width="60" height="60"/>
  <use id="zoomplus" xlink:href="#zoomPlus" x="17" y="9" onmousedown="handleZoom(evt,'in')"/>
  <use id="zoomminus" xlink:href="#zoomMin" x="42" y="9" onmousedown="handleZoom(evt,'out')"/>
  <use id="reset" xlink:href="#resetDef" x="30" y="36" onmousedown="handleReset()"/>
   <use id="arrowup" xlink:href="#arrowUp" x="0" y="0" onmousedown="handlePan(0,-1)"/>
  <use id="arrowright" xlink:href="#arrowRight" x="0" y="0" onmousedown="handlePan(1,0)"/>
  <use id="arrowdown" xlink:href="#arrowDown" x="0" y="0" onmousedown="handlePan(0,1)"/>
  <use id="arrowleft" xlink:href="#arrowLeft" x="0" y="0" onmousedown="handlePan(-1,0)"/>
</g>
<svg viewBox="0 0 15 15" width="100%" height="30px" preserveAspectRatio="xMaxYMin meet">
 <g id="arrow_out" transform="scale(0.3 0.3)">
  <a xlink:href="namespaceanonymous__namespace_02problem_8cpp_03_ab42fb3dc0421d6c6c1f45d753a95a2c4_cgraph_org.svg" target="_base">
   <rect id="button" ry="5" rx="5" y="6" x="6" height="38" width="38"
        fill="#f2f5e9" fill-opacity="0.5" stroke="#606060" stroke-width="1.0"/>
   <path id="arrow"
     d="M 11.500037,31.436501 C 11.940474,20.09759 22.043105,11.32322 32.158766,21.979434 L 37.068811,17.246167 C 37.068811,17.246167 37.088388,32 37.088388,32 L 22.160133,31.978069 C 22.160133,31.978069 26.997745,27.140456 26.997745,27.140456 C 18.528582,18.264221 13.291696,25.230495 11.500037,31.436501 z"
     style="fill:#404040;"/>
  </a>
 </g>
</svg>

<style type='text/css'>
<![CDATA[
[data-mouse-over-selected='false'] { opacity: 0.7; }
[data-mouse-over-selected='true']  { opacity: 1.0; }
]]>
</style>
<script type="application/ecmascript"><![CDATA[
document.addEventListener('DOMContentLoaded', (event) => {
  highlightEdges();
  highlightAdjacentNodes();
});
]]></script>
</svg>
