<?xml version="1.0" encoding="UTF-8" standalone="no"?>
<!DOCTYPE svg PUBLIC "-//W3C//DTD SVG 1.1//EN"
 "http://www.w3.org/Graphics/SVG/1.1/DTD/svg11.dtd">
<!-- Generated by graphviz version 2.43.0 (0)
 -->
<!-- Title: src/alpaqa/include/alpaqa/util/set&#45;intersection.hpp Pages: 1 -->
<!--zoomable 412 -->

<svg id="main" version="1.1" xmlns="http://www.w3.org/2000/svg" xmlns:xlink="http://www.w3.org/1999/xlink" xml:space="preserve" onload="init(evt)">
<style type="text/css"><![CDATA[
.node, .edge {opacity: 0.7;}
.node.selected, .edge.selected {opacity: 1;}
.edge:hover path { stroke: red; }
.edge:hover polygon { stroke: red; fill: red; }
]]></style>

<defs>
  <circle id="rim" cx="0" cy="0" r="7"/>
  <circle id="rim2" cx="0" cy="0" r="3.5"/>
  <g id="zoomPlus">
    <use xlink:href="#rim" fill="#404040"><set attributeName="fill" to="#808080" begin="zoomplus.mouseover" end="zoomplus.mouseout"/></use>
    <path d="M-4,0h8M0,-4v8" fill="none" stroke="white" stroke-width="1.5" pointer-events="none"/>
  </g>
  <g id="zoomMin">
    <use xlink:href="#rim" fill="#404040"><set attributeName="fill" to="#808080" begin="zoomminus.mouseover" end="zoomminus.mouseout"/></use>
    <path d="M-4,0h8" fill="none" stroke="white" stroke-width="1.5" pointer-events="none"/>
  </g>
  <g id="arrowUp" transform="translate(30 24)">
    <use xlink:href="#rim"/>
    <path pointer-events="none" fill="none" stroke="white" stroke-width="1.5" d="M0,-3.0v7 M-2.5,-0.5L0,-3.0L2.5,-0.5"/>
  </g>
  <g id="arrowRight" transform="rotate(90) translate(36 -43)">
    <use xlink:href="#rim"/>
    <path pointer-events="none" fill="none" stroke="white" stroke-width="1.5" d="M0,-3.0v7 M-2.5,-0.5L0,-3.0L2.5,-0.5"/>
  </g>
  <g id="arrowDown" transform="rotate(180) translate(-30 -48)">
    <use xlink:href="#rim"/>
    <path pointer-events="none" fill="none" stroke="white" stroke-width="1.5" d="M0,-3.0v7 M-2.5,-0.5L0,-3.0L2.5,-0.5"/>
  </g>
  <g id="arrowLeft" transform="rotate(270) translate(-36 17)">
    <use xlink:href="#rim"/>
    <path pointer-events="none" fill="none" stroke="white" stroke-width="1.5" d="M0,-3.0v7 M-2.5,-0.5L0,-3.0L2.5,-0.5"/>
  </g>
  <g id="resetDef">
    <use xlink:href="#rim2" fill="#404040"><set attributeName="fill" to="#808080" begin="reset.mouseover" end="reset.mouseout"/></use>
  </g>
</defs>
<script type="application/ecmascript">
var viewWidth = 1400;
var viewHeight = 412;
var sectionId = 'dynsection-1';
</script>
<script type="application/ecmascript" xlink:href="svg.min.js"/>
<svg id="graph" class="graph">
<g id="viewport">
<title>src/alpaqa/include/alpaqa/util/set&#45;intersection.hpp</title>
<!-- Node1 -->
<g id="Node000001" class="node">
<title>Node1</title>
<g id="a_Node000001"><a xlink:title=" ">
<polygon fill="#999999" stroke="#666666" points="1158,-404 986,-404 986,-374 1158,-374 1158,-404"/>
<text text-anchor="start" x="994" y="-392" font-family="Helvetica,sans-Serif" font-size="10.00">src/alpaqa/include</text>
<text text-anchor="middle" x="1072" y="-381" font-family="Helvetica,sans-Serif" font-size="10.00">/alpaqa/util/set&#45;intersection.hpp</text>
</a>
</g>
</g>
<!-- Node2 -->
<g id="Node000002" class="node">
<title>Node2</title>
<g id="a_Node000002"><a xlink:href="sparse-ops_8hpp.html" target="_top" xlink:title=" ">
<polygon fill="white" stroke="#666666" points="1125.5,-338 1018.5,-338 1018.5,-297 1125.5,-297 1125.5,-338"/>
<text text-anchor="start" x="1026.5" y="-326" font-family="Helvetica,sans-Serif" font-size="10.00">src/alpaqa/include</text>
<text text-anchor="start" x="1026.5" y="-315" font-family="Helvetica,sans-Serif" font-size="10.00">/alpaqa/util/sparse</text>
<text text-anchor="middle" x="1072" y="-304" font-family="Helvetica,sans-Serif" font-size="10.00">&#45;ops.hpp</text>
</a>
</g>
</g>
<!-- Node1&#45;&gt;Node2 -->
<g id="edge1_Node000001_Node000002" class="edge">
<title>Node1&#45;&gt;Node2</title>
<g id="a_edge1_Node000001_Node000002"><a xlink:title=" ">
<path fill="none" stroke="#63b8ff" d="M1072,-363.91C1072,-355.47 1072,-346.1 1072,-338.07"/>
<polygon fill="#63b8ff" stroke="#63b8ff" points="1068.5,-363.94 1072,-373.94 1075.5,-363.94 1068.5,-363.94"/>
</a>
</g>
</g>
<!-- Node3 -->
<g id="Node000003" class="node">
<title>Node3</title>
<g id="a_Node000003"><a xlink:href="sparsity-conversions_8hpp.html" target="_top" xlink:title=" ">
<polygon fill="white" stroke="#666666" points="1052,-261 914,-261 914,-220 1052,-220 1052,-261"/>
<text text-anchor="start" x="922" y="-249" font-family="Helvetica,sans-Serif" font-size="10.00">src/alpaqa/include</text>
<text text-anchor="start" x="922" y="-238" font-family="Helvetica,sans-Serif" font-size="10.00">/alpaqa/problem/sparsity</text>
<text text-anchor="middle" x="983" y="-227" font-family="Helvetica,sans-Serif" font-size="10.00">&#45;conversions.hpp</text>
</a>
</g>
</g>
<!-- Node2&#45;&gt;Node3 -->
<g id="edge2_Node000002_Node000003" class="edge">
<title>Node2&#45;&gt;Node3</title>
<g id="a_edge2_Node000002_Node000003"><a xlink:title=" ">
<path fill="none" stroke="#63b8ff" d="M1040.97,-290.35C1029.55,-280.73 1016.84,-270.01 1006.23,-261.07"/>
<polygon fill="#63b8ff" stroke="#63b8ff" points="1038.71,-293.03 1048.62,-296.79 1043.22,-287.67 1038.71,-293.03"/>
</a>
</g>
</g>
<!-- Node18 -->
<g id="Node000018" class="node">
<title>Node18</title>
<g id="a_Node000018"><a xlink:href="CasADiControlProblem_8tpp.html" target="_top" xlink:title=" ">
<polygon fill="white" stroke="#666666" points="1327,-261 1143,-261 1143,-220 1327,-220 1327,-261"/>
<text text-anchor="start" x="1151" y="-249" font-family="Helvetica,sans-Serif" font-size="10.00">src/interop/casadi</text>
<text text-anchor="start" x="1151" y="-238" font-family="Helvetica,sans-Serif" font-size="10.00">/include/alpaqa/implementation</text>
<text text-anchor="middle" x="1235" y="-227" font-family="Helvetica,sans-Serif" font-size="10.00">/casadi/CasADiControlProblem.tpp</text>
</a>
</g>
</g>
<!-- Node2&#45;&gt;Node18 -->
<g id="edge17_Node000002_Node000018" class="edge">
<title>Node2&#45;&gt;Node18</title>
<g id="a_edge17_Node000002_Node000018"><a xlink:title=" ">
<path fill="none" stroke="#63b8ff" d="M1123.68,-292.72C1145.86,-282.51 1171.47,-270.73 1192.53,-261.04"/>
<polygon fill="#63b8ff" stroke="#63b8ff" points="1122.02,-289.63 1114.4,-296.99 1124.95,-295.99 1122.02,-289.63"/>
</a>
</g>
</g>
<!-- Node4 -->
<g id="Node000004" class="node">
<title>Node4</title>
<g id="a_Node000004"><a xlink:href="convex-newton_8hpp.html" target="_top" xlink:title=" ">
<polygon fill="white" stroke="#666666" points="648,-184 500,-184 500,-143 648,-143 648,-184"/>
<text text-anchor="start" x="508" y="-172" font-family="Helvetica,sans-Serif" font-size="10.00">src/alpaqa/include</text>
<text text-anchor="start" x="508" y="-161" font-family="Helvetica,sans-Serif" font-size="10.00">/alpaqa/inner/directions</text>
<text text-anchor="middle" x="574" y="-150" font-family="Helvetica,sans-Serif" font-size="10.00">/panoc/convex&#45;newton.hpp</text>
</a>
</g>
</g>
<!-- Node3&#45;&gt;Node4 -->
<g id="edge3_Node000003_Node000004" class="edge">
<title>Node3&#45;&gt;Node4</title>
<g id="a_edge3_Node000003_Node000004"><a xlink:title=" ">
<path fill="none" stroke="#63b8ff" d="M903.43,-224.91C829.54,-211.36 720.36,-191.34 648.22,-178.11"/>
<polygon fill="#63b8ff" stroke="#63b8ff" points="903.15,-228.42 913.62,-226.78 904.41,-221.53 903.15,-228.42"/>
</a>
</g>
</g>
<!-- Node14 -->
<g id="Node000014" class="node">
<title>Node14</title>
<g id="a_Node000014"><a xlink:href="gradient-checker_8cpp.html" target="_top" xlink:title=" ">
<polygon fill="white" stroke="#666666" points="879.5,-178.5 758.5,-178.5 758.5,-148.5 879.5,-148.5 879.5,-178.5"/>
<text text-anchor="start" x="766.5" y="-166.5" font-family="Helvetica,sans-Serif" font-size="10.00">src/alpaqa/src/driver</text>
<text text-anchor="middle" x="819" y="-155.5" font-family="Helvetica,sans-Serif" font-size="10.00">/gradient&#45;checker.cpp</text>
</a>
</g>
</g>
<!-- Node3&#45;&gt;Node14 -->
<g id="edge13_Node000003_Node000014" class="edge">
<title>Node3&#45;&gt;Node14</title>
<g id="a_edge13_Node000003_Node000014"><a xlink:title=" ">
<path fill="none" stroke="#63b8ff" d="M931.11,-215.77C904.36,-203.54 872.65,-189.04 849.79,-178.58"/>
<polygon fill="#63b8ff" stroke="#63b8ff" points="929.79,-219.01 940.34,-219.99 932.7,-212.65 929.79,-219.01"/>
</a>
</g>
</g>
<!-- Node15 -->
<g id="Node000015" class="node">
<title>Node15</title>
<g id="a_Node000015"><a xlink:href="ipopt-adapter_8hpp.html" target="_top" xlink:title=" ">
<polygon fill="white" stroke="#666666" points="1068,-178.5 898,-178.5 898,-148.5 1068,-148.5 1068,-178.5"/>
<text text-anchor="start" x="906" y="-166.5" font-family="Helvetica,sans-Serif" font-size="10.00">src/interop/ipopt/include</text>
<text text-anchor="middle" x="983" y="-155.5" font-family="Helvetica,sans-Serif" font-size="10.00">/alpaqa/ipopt/ipopt&#45;adapter.hpp</text>
</a>
</g>
</g>
<!-- Node3&#45;&gt;Node15 -->
<g id="edge14_Node000003_Node000015" class="edge">
<title>Node3&#45;&gt;Node15</title>
<g id="a_edge14_Node000003_Node000015"><a xlink:title=" ">
<path fill="none" stroke="#63b8ff" d="M983,-209.61C983,-199.01 983,-187.57 983,-178.86"/>
<polygon fill="#63b8ff" stroke="#63b8ff" points="979.5,-209.79 983,-219.79 986.5,-209.79 979.5,-209.79"/>
</a>
</g>
</g>
<!-- Node17 -->
<g id="Node000017" class="node">
<title>Node17</title>
<g id="a_Node000017"><a xlink:href="qpalm-adapter_8cpp.html" target="_top" xlink:title=" ">
<polygon fill="white" stroke="#666666" points="1205.5,-178.5 1086.5,-178.5 1086.5,-148.5 1205.5,-148.5 1205.5,-178.5"/>
<text text-anchor="start" x="1094.5" y="-166.5" font-family="Helvetica,sans-Serif" font-size="10.00">src/interop/qpalm/src</text>
<text text-anchor="middle" x="1146" y="-155.5" font-family="Helvetica,sans-Serif" font-size="10.00">/qpalm&#45;adapter.cpp</text>
</a>
</g>
</g>
<!-- Node3&#45;&gt;Node17 -->
<g id="edge16_Node000003_Node000017" class="edge">
<title>Node3&#45;&gt;Node17</title>
<g id="a_edge16_Node000003_Node000017"><a xlink:title=" ">
<path fill="none" stroke="#63b8ff" d="M1034.58,-215.77C1061.16,-203.54 1092.68,-189.04 1115.39,-178.58"/>
<polygon fill="#63b8ff" stroke="#63b8ff" points="1033.02,-212.63 1025.4,-219.99 1035.95,-218.99 1033.02,-212.63"/>
</a>
</g>
</g>
<!-- Node5 -->
<g id="Node000005" class="node">
<title>Node5</title>
<g id="a_Node000005"><a xlink:href="panoc-convex-newton-alm_8hpp.html" target="_top" xlink:title=" ">
<polygon fill="white" stroke="#666666" points="136,-107 12,-107 12,-66 136,-66 136,-107"/>
<text text-anchor="start" x="20" y="-95" font-family="Helvetica,sans-Serif" font-size="10.00">src/alpaqa/include</text>
<text text-anchor="start" x="20" y="-84" font-family="Helvetica,sans-Serif" font-size="10.00">/alpaqa/panoc&#45;convex</text>
<text text-anchor="middle" x="74" y="-73" font-family="Helvetica,sans-Serif" font-size="10.00">&#45;newton&#45;alm.hpp</text>
</a>
</g>
</g>
<!-- Node4&#45;&gt;Node5 -->
<g id="edge4_Node000004_Node000005" class="edge">
<title>Node4&#45;&gt;Node5</title>
<g id="a_edge4_Node000004_Node000005"><a xlink:title=" ">
<path fill="none" stroke="#63b8ff" d="M489.65,-154.73C403.33,-146.03 265.57,-130.05 148,-107 144.09,-106.23 140.08,-105.38 136.04,-104.47"/>
<polygon fill="#63b8ff" stroke="#63b8ff" points="489.36,-158.22 499.65,-155.73 490.05,-151.25 489.36,-158.22"/>
</a>
</g>
</g>
<!-- Node7 -->
<g id="Node000007" class="node">
<title>Node7</title>
<g id="a_Node000007"><a xlink:href="zerofpr-convex-newton-alm_8hpp.html" target="_top" xlink:title=" ">
<polygon fill="white" stroke="#666666" points="286.5,-107 157.5,-107 157.5,-66 286.5,-66 286.5,-107"/>
<text text-anchor="start" x="165.5" y="-95" font-family="Helvetica,sans-Serif" font-size="10.00">src/alpaqa/include</text>
<text text-anchor="start" x="165.5" y="-84" font-family="Helvetica,sans-Serif" font-size="10.00">/alpaqa/zerofpr&#45;convex</text>
<text text-anchor="middle" x="222" y="-73" font-family="Helvetica,sans-Serif" font-size="10.00">&#45;newton&#45;alm.hpp</text>
</a>
</g>
</g>
<!-- Node4&#45;&gt;Node7 -->
<g id="edge6_Node000004_Node000007" class="edge">
<title>Node4&#45;&gt;Node7</title>
<g id="a_edge6_Node000004_Node000007"><a xlink:title=" ">
<path fill="none" stroke="#63b8ff" d="M489.89,-147.08C434.6,-136.61 360.78,-121.99 296,-107 292.89,-106.28 289.72,-105.53 286.52,-104.75"/>
<polygon fill="#63b8ff" stroke="#63b8ff" points="489.51,-150.57 499.99,-148.99 490.81,-143.69 489.51,-150.57"/>
</a>
</g>
</g>
<!-- Node9 -->
<g id="Node000009" class="node">
<title>Node9</title>
<g id="a_Node000009"><a xlink:href="panoc-driver_8cpp.html" target="_top" xlink:title=" ">
<polygon fill="white" stroke="#666666" points="421,-101.5 305,-101.5 305,-71.5 421,-71.5 421,-101.5"/>
<text text-anchor="start" x="313" y="-89.5" font-family="Helvetica,sans-Serif" font-size="10.00">src/alpaqa/src/driver</text>
<text text-anchor="middle" x="363" y="-78.5" font-family="Helvetica,sans-Serif" font-size="10.00">/panoc&#45;driver.cpp</text>
</a>
</g>
</g>
<!-- Node4&#45;&gt;Node9 -->
<g id="edge8_Node000004_Node000009" class="edge">
<title>Node4&#45;&gt;Node9</title>
<g id="a_edge8_Node000004_Node000009"><a xlink:title=" ">
<path fill="none" stroke="#63b8ff" d="M509.48,-139.57C474.61,-127.17 432.67,-112.26 402.62,-101.58"/>
<polygon fill="#63b8ff" stroke="#63b8ff" points="508.52,-142.94 519.11,-142.99 510.86,-136.34 508.52,-142.94"/>
</a>
</g>
</g>
<!-- Node10 -->
<g id="Node000010" class="node">
<title>Node10</title>
<g id="a_Node000010"><a xlink:href="param-complete_8cpp.html" target="_top" xlink:title=" ">
<polygon fill="white" stroke="#666666" points="560.5,-101.5 439.5,-101.5 439.5,-71.5 560.5,-71.5 560.5,-101.5"/>
<text text-anchor="start" x="447.5" y="-89.5" font-family="Helvetica,sans-Serif" font-size="10.00">src/alpaqa/src/driver</text>
<text text-anchor="middle" x="500" y="-78.5" font-family="Helvetica,sans-Serif" font-size="10.00">/param&#45;complete.cpp</text>
</a>
</g>
</g>
<!-- Node4&#45;&gt;Node10 -->
<g id="edge9_Node000004_Node000010" class="edge">
<title>Node4&#45;&gt;Node10</title>
<g id="a_edge9_Node000004_Node000010"><a xlink:title=" ">
<path fill="none" stroke="#63b8ff" d="M547.43,-135.57C536.2,-124.18 523.57,-111.39 514.17,-101.86"/>
<polygon fill="#63b8ff" stroke="#63b8ff" points="545.04,-138.13 554.56,-142.79 550.03,-133.22 545.04,-138.13"/>
</a>
</g>
</g>
<!-- Node11 -->
<g id="Node000011" class="node">
<title>Node11</title>
<g id="a_Node000011"><a xlink:href="convex-newton_8cpp.html" target="_top" xlink:title=" ">
<polygon fill="white" stroke="#666666" points="717,-107 579,-107 579,-66 717,-66 717,-107"/>
<text text-anchor="start" x="587" y="-95" font-family="Helvetica,sans-Serif" font-size="10.00">src/alpaqa/src/inner</text>
<text text-anchor="start" x="587" y="-84" font-family="Helvetica,sans-Serif" font-size="10.00">/directions/panoc/convex</text>
<text text-anchor="middle" x="648" y="-73" font-family="Helvetica,sans-Serif" font-size="10.00">&#45;newton.cpp</text>
</a>
</g>
</g>
<!-- Node4&#45;&gt;Node11 -->
<g id="edge10_Node000004_Node000011" class="edge">
<title>Node4&#45;&gt;Node11</title>
<g id="a_edge10_Node000004_Node000011"><a xlink:title=" ">
<path fill="none" stroke="#63b8ff" d="M600.63,-135.51C609.9,-126.11 620.12,-115.76 628.69,-107.07"/>
<polygon fill="#63b8ff" stroke="#63b8ff" points="597.97,-133.22 593.44,-142.79 602.96,-138.13 597.97,-133.22"/>
</a>
</g>
</g>
<!-- Node12 -->
<g id="Node000012" class="node">
<title>Node12</title>
<g id="a_Node000012"><a xlink:href="json_8cpp.html" target="_top" xlink:title=" ">
<polygon fill="white" stroke="#666666" points="859,-101.5 735,-101.5 735,-71.5 859,-71.5 859,-101.5"/>
<text text-anchor="start" x="743" y="-89.5" font-family="Helvetica,sans-Serif" font-size="10.00">src/alpaqa/src/params</text>
<text text-anchor="middle" x="797" y="-78.5" font-family="Helvetica,sans-Serif" font-size="10.00">/json.cpp</text>
</a>
</g>
</g>
<!-- Node4&#45;&gt;Node12 -->
<g id="edge11_Node000004_Node000012" class="edge">
<title>Node4&#45;&gt;Node12</title>
<g id="a_edge11_Node000004_Node000012"><a xlink:title=" ">
<path fill="none" stroke="#63b8ff" d="M641.72,-139.73C678.66,-127.3 723.23,-112.31 755.13,-101.58"/>
<polygon fill="#63b8ff" stroke="#63b8ff" points="640.37,-136.49 632.01,-142.99 642.6,-143.12 640.37,-136.49"/>
</a>
</g>
</g>
<!-- Node13 -->
<g id="Node000013" class="node">
<title>Node13</title>
<g id="a_Node000013"><a xlink:href="params_8cpp.html" target="_top" xlink:title=" ">
<polygon fill="white" stroke="#666666" points="1001,-101.5 877,-101.5 877,-71.5 1001,-71.5 1001,-101.5"/>
<text text-anchor="start" x="885" y="-89.5" font-family="Helvetica,sans-Serif" font-size="10.00">src/alpaqa/src/params</text>
<text text-anchor="middle" x="939" y="-78.5" font-family="Helvetica,sans-Serif" font-size="10.00">/params.cpp</text>
</a>
</g>
</g>
<!-- Node4&#45;&gt;Node13 -->
<g id="edge12_Node000004_Node000013" class="edge">
<title>Node4&#45;&gt;Node13</title>
<g id="a_edge12_Node000004_Node000013"><a xlink:title=" ">
<path fill="none" stroke="#63b8ff" d="M658.07,-148.51C717.07,-138.23 797.68,-123.27 868,-107 875.1,-105.36 882.56,-103.48 889.86,-101.55"/>
<polygon fill="#63b8ff" stroke="#63b8ff" points="657.31,-145.09 648.05,-150.24 658.5,-151.98 657.31,-145.09"/>
</a>
</g>
</g>
<!-- Node6 -->
<g id="Node000006" class="node">
<title>Node6</title>
<g id="a_Node000006"><a xlink:href="panoc-convex-newton-alm_8cpp.html" target="_top" xlink:title=" ">
<polygon fill="white" stroke="#666666" points="138,-30 0,-30 0,0 138,0 138,-30"/>
<text text-anchor="start" x="8" y="-18" font-family="Helvetica,sans-Serif" font-size="10.00">src/alpaqa/src/panoc</text>
<text text-anchor="middle" x="69" y="-7" font-family="Helvetica,sans-Serif" font-size="10.00">&#45;convex&#45;newton&#45;alm.cpp</text>
</a>
</g>
</g>
<!-- Node5&#45;&gt;Node6 -->
<g id="edge5_Node000005_Node000006" class="edge">
<title>Node5&#45;&gt;Node6</title>
<g id="a_edge5_Node000005_Node000006"><a xlink:title=" ">
<path fill="none" stroke="#63b8ff" d="M71.85,-55.66C71.21,-46.76 70.54,-37.42 70.01,-30.04"/>
<polygon fill="#63b8ff" stroke="#63b8ff" points="68.37,-56.05 72.58,-65.77 75.35,-55.54 68.37,-56.05"/>
</a>
</g>
</g>
<!-- Node8 -->
<g id="Node000008" class="node">
<title>Node8</title>
<g id="a_Node000008"><a xlink:href="zerofpr-convex-newton-alm_8cpp.html" target="_top" xlink:title=" ">
<polygon fill="white" stroke="#666666" points="294,-30 156,-30 156,0 294,0 294,-30"/>
<text text-anchor="start" x="164" y="-18" font-family="Helvetica,sans-Serif" font-size="10.00">src/alpaqa/src/zerofpr</text>
<text text-anchor="middle" x="225" y="-7" font-family="Helvetica,sans-Serif" font-size="10.00">&#45;convex&#45;newton&#45;alm.cpp</text>
</a>
</g>
</g>
<!-- Node7&#45;&gt;Node8 -->
<g id="edge7_Node000007_Node000008" class="edge">
<title>Node7&#45;&gt;Node8</title>
<g id="a_edge7_Node000007_Node000008"><a xlink:title=" ">
<path fill="none" stroke="#63b8ff" d="M223.29,-55.66C223.67,-46.76 224.08,-37.42 224.39,-30.04"/>
<polygon fill="#63b8ff" stroke="#63b8ff" points="219.79,-55.63 222.85,-65.77 226.78,-55.93 219.79,-55.63"/>
</a>
</g>
</g>
<!-- Node16 -->
<g id="Node000016" class="node">
<title>Node16</title>
<g id="a_Node000016"><a xlink:href="ipopt-adapter_8cpp.html" target="_top" xlink:title=" ">
<polygon fill="white" stroke="#666666" points="1132.5,-101.5 1019.5,-101.5 1019.5,-71.5 1132.5,-71.5 1132.5,-101.5"/>
<text text-anchor="start" x="1027.5" y="-89.5" font-family="Helvetica,sans-Serif" font-size="10.00">src/interop/ipopt/src</text>
<text text-anchor="middle" x="1076" y="-78.5" font-family="Helvetica,sans-Serif" font-size="10.00">/ipopt&#45;adapter.cpp</text>
</a>
</g>
</g>
<!-- Node15&#45;&gt;Node16 -->
<g id="edge15_Node000015_Node000016" class="edge">
<title>Node15&#45;&gt;Node16</title>
<g id="a_edge15_Node000015_Node000016"><a xlink:title=" ">
<path fill="none" stroke="#63b8ff" d="M1008.39,-142.03C1024.32,-129.18 1044.45,-112.94 1058.59,-101.54"/>
<polygon fill="#63b8ff" stroke="#63b8ff" points="1006.08,-139.39 1000.49,-148.39 1010.47,-144.84 1006.08,-139.39"/>
</a>
</g>
</g>
<!-- Node19 -->
<g id="Node000019" class="node">
<title>Node19</title>
<g id="a_Node000019"><a xlink:href="CasADiControlProblem_8cpp.html" target="_top" xlink:title=" ">
<polygon fill="white" stroke="#666666" points="1392,-178.5 1224,-178.5 1224,-148.5 1392,-148.5 1392,-178.5"/>
<text text-anchor="start" x="1232" y="-166.5" font-family="Helvetica,sans-Serif" font-size="10.00">src/interop/casadi</text>
<text text-anchor="middle" x="1308" y="-155.5" font-family="Helvetica,sans-Serif" font-size="10.00">/src/CasADiControlProblem.cpp</text>
</a>
</g>
</g>
<!-- Node18&#45;&gt;Node19 -->
<g id="edge18_Node000018_Node000019" class="edge">
<title>Node18&#45;&gt;Node19</title>
<g id="a_edge18_Node000018_Node000019"><a xlink:title=" ">
<path fill="none" stroke="#63b8ff" d="M1261.21,-212.57C1272.29,-201.18 1284.75,-188.39 1294.02,-178.86"/>
<polygon fill="#63b8ff" stroke="#63b8ff" points="1258.65,-210.19 1254.18,-219.79 1263.66,-215.07 1258.65,-210.19"/>
</a>
</g>
</g>
</g>
</svg>

<g id="navigator" transform="translate(0 0)" fill="#404254">
  <rect fill="#f2f5e9" fill-opacity="0.5" stroke="#606060" stroke-width=".5" x="0" y="0" width="60" height="60"/>
  <use id="zoomplus" xlink:href="#zoomPlus" x="17" y="9" onmousedown="handleZoom(evt,'in')"/>
  <use id="zoomminus" xlink:href="#zoomMin" x="42" y="9" onmousedown="handleZoom(evt,'out')"/>
  <use id="reset" xlink:href="#resetDef" x="30" y="36" onmousedown="handleReset()"/>
   <use id="arrowup" xlink:href="#arrowUp" x="0" y="0" onmousedown="handlePan(0,-1)"/>
  <use id="arrowright" xlink:href="#arrowRight" x="0" y="0" onmousedown="handlePan(1,0)"/>
  <use id="arrowdown" xlink:href="#arrowDown" x="0" y="0" onmousedown="handlePan(0,1)"/>
  <use id="arrowleft" xlink:href="#arrowLeft" x="0" y="0" onmousedown="handlePan(-1,0)"/>
</g>
<svg viewBox="0 0 15 15" width="100%" height="30px" preserveAspectRatio="xMaxYMin meet">
 <g id="arrow_out" transform="scale(0.3 0.3)">
  <a xlink:href="set-intersection_8hpp__dep__incl_org.svg" target="_base">
   <rect id="button" ry="5" rx="5" y="6" x="6" height="38" width="38"
        fill="#f2f5e9" fill-opacity="0.5" stroke="#606060" stroke-width="1.0"/>
   <path id="arrow"
     d="M 11.500037,31.436501 C 11.940474,20.09759 22.043105,11.32322 32.158766,21.979434 L 37.068811,17.246167 C 37.068811,17.246167 37.088388,32 37.088388,32 L 22.160133,31.978069 C 22.160133,31.978069 26.997745,27.140456 26.997745,27.140456 C 18.528582,18.264221 13.291696,25.230495 11.500037,31.436501 z"
     style="fill:#404040;"/>
  </a>
 </g>
</svg>

<style type='text/css'>
<![CDATA[
[data-mouse-over-selected='false'] { opacity: 0.7; }
[data-mouse-over-selected='true']  { opacity: 1.0; }
]]>
</style>
<script type="application/ecmascript"><![CDATA[
document.addEventListener('DOMContentLoaded', (event) => {
  highlightEdges();
  highlightAdjacentNodes();
});
]]></script>
</svg>
