<?xml version="1.0" encoding="UTF-8" standalone="no"?>
<!DOCTYPE svg PUBLIC "-//W3C//DTD SVG 1.1//EN"
 "http://www.w3.org/Graphics/SVG/1.1/DTD/svg11.dtd">
<!-- Generated by graphviz version 2.43.0 (0)
 -->
<!-- Title: set_intersection_iterable&lt; R1, R2, Comp, Proj1, Proj2 &gt; Pages: 1 -->
<svg width="250pt" height="309pt"
 viewBox="0.00 0.00 250.00 309.00" xmlns="http://www.w3.org/2000/svg" xmlns:xlink="http://www.w3.org/1999/xlink">
<g id="graph0" class="graph" transform="scale(1 1) rotate(0) translate(4 305)">
<title>set_intersection_iterable&lt; R1, R2, Comp, Proj1, Proj2 &gt;</title>
<!-- Node1 -->
<g id="Node000001" class="node">
<title>Node1</title>
<g id="a_Node000001"><a xlink:title=" ">
<polygon fill="#999999" stroke="transparent" points="221,-161 71,-161 71,0 221,0 221,-161"/>
<text text-anchor="start" x="85.5" y="-148.5" font-family="Helvetica,sans-Serif" font-size="10.00">set_intersection_iterable</text>
<text text-anchor="start" x="85.5" y="-137.5" font-family="Helvetica,sans-Serif" font-size="10.00">&lt; R1, R2, Comp, Proj1,</text>
<text text-anchor="start" x="126" y="-126.5" font-family="Helvetica,sans-Serif" font-size="10.00"> Proj2 &gt;</text>
<text text-anchor="start" x="75" y="-111.5" font-family="Helvetica,sans-Serif" font-size="10.00">+</text>
<text text-anchor="start" x="88" y="-111.5" font-family="Helvetica,sans-Serif" font-size="10.00">comp</text>
<text text-anchor="start" x="75" y="-96.5" font-family="Helvetica,sans-Serif" font-size="10.00">+</text>
<text text-anchor="start" x="88" y="-96.5" font-family="Helvetica,sans-Serif" font-size="10.00">proj1</text>
<text text-anchor="start" x="75" y="-81.5" font-family="Helvetica,sans-Serif" font-size="10.00">+</text>
<text text-anchor="start" x="88" y="-81.5" font-family="Helvetica,sans-Serif" font-size="10.00">proj2</text>
<text text-anchor="start" x="75" y="-66.5" font-family="Helvetica,sans-Serif" font-size="10.00">+</text>
<text text-anchor="start" x="88" y="-66.5" font-family="Helvetica,sans-Serif" font-size="10.00">set_intersection_iterable()</text>
<text text-anchor="start" x="75" y="-51.5" font-family="Helvetica,sans-Serif" font-size="10.00">+</text>
<text text-anchor="start" x="88" y="-51.5" font-family="Helvetica,sans-Serif" font-size="10.00">set_intersection_iterable()</text>
<text text-anchor="start" x="75" y="-36.5" font-family="Helvetica,sans-Serif" font-size="10.00">+</text>
<text text-anchor="start" x="88" y="-36.5" font-family="Helvetica,sans-Serif" font-size="10.00">begin()</text>
<text text-anchor="start" x="75" y="-21.5" font-family="Helvetica,sans-Serif" font-size="10.00">+</text>
<text text-anchor="start" x="88" y="-21.5" font-family="Helvetica,sans-Serif" font-size="10.00">end()</text>
<text text-anchor="start" x="77.5" y="-6.5" font-family="Helvetica,sans-Serif" font-size="10.00">&#45;</text>
<text text-anchor="start" x="88" y="-6.5" font-family="Helvetica,sans-Serif" font-size="10.00">iter()</text>
<polygon fill="#666666" stroke="#666666" points="71,-121.5 71,-121.5 221,-121.5 221,-121.5 71,-121.5"/>
<polygon fill="#666666" stroke="#666666" points="71,-76.5 71,-76.5 86,-76.5 86,-76.5 71,-76.5"/>
<polygon fill="#666666" stroke="#666666" points="86,-76.5 86,-76.5 221,-76.5 221,-76.5 86,-76.5"/>
<polygon fill="none" stroke="#666666" points="71,0 71,-161 221,-161 221,0 71,0"/>
</a>
</g>
</g>
<!-- Node2 -->
<g id="Node000002" class="node">
<title>Node2</title>
<g id="a_Node000002"><a xlink:title=" ">
<polygon fill="white" stroke="transparent" points="116,-301 0,-301 0,-208 116,-208 116,-301"/>
<text text-anchor="start" x="5" y="-288.5" font-family="Helvetica,sans-Serif" font-size="10.00">view_interface&lt; set</text>
<text text-anchor="start" x="5" y="-277.5" font-family="Helvetica,sans-Serif" font-size="10.00">_intersection_iterable</text>
<text text-anchor="start" x="5" y="-266.5" font-family="Helvetica,sans-Serif" font-size="10.00">&lt; R1, R2, std::ranges</text>
<text text-anchor="start" x="5" y="-255.5" font-family="Helvetica,sans-Serif" font-size="10.00">::less, std::identity,</text>
<text text-anchor="start" x="15.5" y="-244.5" font-family="Helvetica,sans-Serif" font-size="10.00"> std::identity &gt; &gt;</text>
<text text-anchor="start" x="56" y="-229.5" font-family="Helvetica,sans-Serif" font-size="10.00"> </text>
<text text-anchor="start" x="56" y="-214.5" font-family="Helvetica,sans-Serif" font-size="10.00"> </text>
<polygon fill="#666666" stroke="#666666" points="0,-239.5 0,-239.5 116,-239.5 116,-239.5 0,-239.5"/>
<polygon fill="#666666" stroke="#666666" points="0,-224.5 0,-224.5 116,-224.5 116,-224.5 0,-224.5"/>
<polygon fill="none" stroke="#666666" points="0,-208 0,-301 116,-301 116,-208 0,-208"/>
</a>
</g>
</g>
<!-- Node2&#45;&gt;Node1 -->
<g id="edge1_Node000001_Node000002" class="edge">
<title>Node2&#45;&gt;Node1</title>
<g id="a_edge1_Node000001_Node000002"><a xlink:title=" ">
<path fill="none" stroke="#63b8ff" d="M85.93,-198.9C92.06,-186.93 98.67,-174.02 105.18,-161.28"/>
<polygon fill="none" stroke="#63b8ff" points="82.79,-197.36 81.35,-207.86 89.02,-200.55 82.79,-197.36"/>
</a>
</g>
</g>
<!-- Node3 -->
<g id="Node000003" class="node">
<title>Node3</title>
<g id="a_Node000003"><a xlink:title=" ">
<polygon fill="white" stroke="transparent" points="157.5,-279 134.5,-279 134.5,-230 157.5,-230 157.5,-279"/>
<text text-anchor="start" x="140" y="-266.5" font-family="Helvetica,sans-Serif" font-size="10.00">R1</text>
<text text-anchor="start" x="144.5" y="-251.5" font-family="Helvetica,sans-Serif" font-size="10.00"> </text>
<text text-anchor="start" x="144.5" y="-236.5" font-family="Helvetica,sans-Serif" font-size="10.00"> </text>
<polygon fill="#666666" stroke="#666666" points="135,-261.5 135,-261.5 158,-261.5 158,-261.5 135,-261.5"/>
<polygon fill="#666666" stroke="#666666" points="135,-246.5 135,-246.5 158,-246.5 158,-246.5 135,-246.5"/>
<polygon fill="none" stroke="#666666" points="134.5,-230 134.5,-279 157.5,-279 157.5,-230 134.5,-230"/>
</a>
</g>
</g>
<!-- Node3&#45;&gt;Node1 -->
<g id="edge2_Node000001_Node000003" class="edge">
<title>Node3&#45;&gt;Node1</title>
<g id="a_edge2_Node000001_Node000003"><a xlink:title=" ">
<path fill="none" stroke="#63b8ff" d="M146,-229.94C146,-214.88 146,-194.26 146,-173.19"/>
<polygon fill="none" stroke="#63b8ff" points="146,-173.12 142,-167.12 146,-161.12 150,-167.12 146,-173.12"/>
</a>
</g>
<text text-anchor="middle" x="169" y="-182" font-family="Helvetica,sans-Serif" font-size="10.00" fill="grey"> +range1</text>
</g>
<!-- Node4 -->
<g id="Node000004" class="node">
<title>Node4</title>
<g id="a_Node000004"><a xlink:title=" ">
<polygon fill="white" stroke="transparent" points="226.5,-279 203.5,-279 203.5,-230 226.5,-230 226.5,-279"/>
<text text-anchor="start" x="209" y="-266.5" font-family="Helvetica,sans-Serif" font-size="10.00">R2</text>
<text text-anchor="start" x="213.5" y="-251.5" font-family="Helvetica,sans-Serif" font-size="10.00"> </text>
<text text-anchor="start" x="213.5" y="-236.5" font-family="Helvetica,sans-Serif" font-size="10.00"> </text>
<polygon fill="#666666" stroke="#666666" points="204,-261.5 204,-261.5 227,-261.5 227,-261.5 204,-261.5"/>
<polygon fill="#666666" stroke="#666666" points="204,-246.5 204,-246.5 227,-246.5 227,-246.5 204,-246.5"/>
<polygon fill="none" stroke="#666666" points="203.5,-230 203.5,-279 226.5,-279 226.5,-230 203.5,-230"/>
</a>
</g>
</g>
<!-- Node4&#45;&gt;Node1 -->
<g id="edge3_Node000001_Node000004" class="edge">
<title>Node4&#45;&gt;Node1</title>
<g id="a_edge3_Node000001_Node000004"><a xlink:title=" ">
<path fill="none" stroke="#63b8ff" d="M209.03,-229.69C205.06,-214.9 199.41,-195.61 193,-179 192.15,-176.8 191.27,-174.58 190.37,-172.34"/>
<polygon fill="none" stroke="#63b8ff" points="190.3,-172.19 184.29,-168.2 185.66,-161.12 191.67,-165.11 190.3,-172.19"/>
</a>
</g>
<text text-anchor="middle" x="219" y="-182" font-family="Helvetica,sans-Serif" font-size="10.00" fill="grey"> +range2</text>
</g>
</g>
</svg>
