<?xml version="1.0" encoding="UTF-8" standalone="no"?>
<!DOCTYPE svg PUBLIC "-//W3C//DTD SVG 1.1//EN"
 "http://www.w3.org/Graphics/SVG/1.1/DTD/svg11.dtd">
<!-- Generated by graphviz version 2.43.0 (0)
 -->
<!-- Title: is_eigen_config&lt; EigenConfigq &gt; Pages: 1 -->
<svg width="180pt" height="142pt"
 viewBox="0.00 0.00 180.00 142.00" xmlns="http://www.w3.org/2000/svg" xmlns:xlink="http://www.w3.org/1999/xlink">

<svg id="main" version="1.1" xmlns="http://www.w3.org/2000/svg" xmlns:xlink="http://www.w3.org/1999/xlink" xml:space="preserve">

<style type="text/css"><![CDATA[
.node, .edge {opacity: 0.7;}
.node.selected, .edge.selected {opacity: 1;}
.edge:hover path { stroke: red; }
.edge:hover polygon { stroke: red; fill: red; }
]]></style>
<script type="application/ecmascript" xlink:href="svg.min.js"/>
<svg id="graph" class="graph">
<g id="graph0" class="graph" transform="scale(1 1) rotate(0) translate(4 138)">
<title>is_eigen_config&lt; EigenConfigq &gt;</title>
<!-- Node1 -->
<g id="Node000001" class="node">
<title>Node1</title>
<g id="a_Node000001"><a xlink:title=" ">
<polygon fill="#999999" stroke="transparent" points="172,-49 0,-49 0,0 172,0 172,-49"/>
<text text-anchor="start" x="5" y="-36.5" font-family="Helvetica,sans-Serif" font-size="10.00">is_eigen_config&lt; EigenConfigq &gt;</text>
<text text-anchor="start" x="84" y="-21.5" font-family="Helvetica,sans-Serif" font-size="10.00"> </text>
<text text-anchor="start" x="84" y="-6.5" font-family="Helvetica,sans-Serif" font-size="10.00"> </text>
<polygon fill="#666666" stroke="#666666" points="0,-31.5 0,-31.5 172,-31.5 172,-31.5 0,-31.5"/>
<polygon fill="#666666" stroke="#666666" points="0,-16.5 0,-16.5 172,-16.5 172,-16.5 0,-16.5"/>
<polygon fill="none" stroke="#666666" points="0,0 0,-49 172,-49 172,0 0,0"/>
</a>
</g>
</g>
<!-- Node2 -->
<g id="Node000002" class="node">
<title>Node2</title>
<g id="a_Node000002"><a xlink:title=" ">
<polygon fill="white" stroke="transparent" points="78,-134 16,-134 16,-85 78,-85 78,-134"/>
<text text-anchor="start" x="21" y="-121.5" font-family="Helvetica,sans-Serif" font-size="10.00">false_type</text>
<text text-anchor="start" x="45" y="-106.5" font-family="Helvetica,sans-Serif" font-size="10.00"> </text>
<text text-anchor="start" x="45" y="-91.5" font-family="Helvetica,sans-Serif" font-size="10.00"> </text>
<polygon fill="#666666" stroke="#666666" points="16,-116.5 16,-116.5 78,-116.5 78,-116.5 16,-116.5"/>
<polygon fill="#666666" stroke="#666666" points="16,-101.5 16,-101.5 78,-101.5 78,-101.5 16,-101.5"/>
<polygon fill="none" stroke="#666666" points="16,-85 16,-134 78,-134 78,-85 16,-85"/>
</a>
</g>
</g>
<!-- Node2&#45;&gt;Node1 -->
<g id="edge1_Node000001_Node000002" class="edge">
<title>Node2&#45;&gt;Node1</title>
<g id="a_edge1_Node000001_Node000002"><a xlink:title=" ">
<path fill="none" stroke="#63b8ff" d="M62.45,-75.62C66.61,-66.77 71.03,-57.36 74.9,-49.12"/>
<polygon fill="none" stroke="#63b8ff" points="59.16,-74.4 58.07,-84.94 65.49,-77.38 59.16,-74.4"/>
</a>
</g>
</g>
<!-- Node3 -->
<g id="Node000003" class="node">
<title>Node3</title>
<g id="a_Node000003"><a xlink:title=" ">
<polygon fill="white" stroke="transparent" points="153.5,-134 96.5,-134 96.5,-85 153.5,-85 153.5,-134"/>
<text text-anchor="start" x="102" y="-121.5" font-family="Helvetica,sans-Serif" font-size="10.00">true_type</text>
<text text-anchor="start" x="123.5" y="-106.5" font-family="Helvetica,sans-Serif" font-size="10.00"> </text>
<text text-anchor="start" x="123.5" y="-91.5" font-family="Helvetica,sans-Serif" font-size="10.00"> </text>
<polygon fill="#666666" stroke="#666666" points="97,-116.5 97,-116.5 154,-116.5 154,-116.5 97,-116.5"/>
<polygon fill="#666666" stroke="#666666" points="97,-101.5 97,-101.5 154,-101.5 154,-101.5 97,-101.5"/>
<polygon fill="none" stroke="#666666" points="96.5,-85 96.5,-134 153.5,-134 153.5,-85 96.5,-85"/>
</a>
</g>
</g>
<!-- Node3&#45;&gt;Node1 -->
<g id="edge2_Node000001_Node000003" class="edge">
<title>Node3&#45;&gt;Node1</title>
<g id="a_edge2_Node000001_Node000003"><a xlink:title=" ">
<path fill="none" stroke="#63b8ff" d="M109.55,-75.62C105.39,-66.77 100.97,-57.36 97.1,-49.12"/>
<polygon fill="none" stroke="#63b8ff" points="106.51,-77.38 113.93,-84.94 112.84,-74.4 106.51,-77.38"/>
</a>
</g>
</g>
</g>
</svg>
</svg>

<style type='text/css'>
<![CDATA[
[data-mouse-over-selected='false'] { opacity: 0.7; }
[data-mouse-over-selected='true']  { opacity: 1.0; }
]]>
</style>
<script type="application/ecmascript"><![CDATA[
document.addEventListener('DOMContentLoaded', (event) => {
  highlightEdges();
  highlightAdjacentNodes();
});
]]></script>
</svg>
