<?xml version="1.0" encoding="UTF-8" standalone="no"?>
<!DOCTYPE svg PUBLIC "-//W3C//DTD SVG 1.1//EN"
 "http://www.w3.org/Graphics/SVG/1.1/DTD/svg11.dtd">
<!-- Generated by graphviz version 2.43.0 (0)
 -->
<!-- Title: anderson.hpp Pages: 1 -->
<svg width="667pt" height="291pt"
 viewBox="0.00 0.00 667.00 291.00" xmlns="http://www.w3.org/2000/svg" xmlns:xlink="http://www.w3.org/1999/xlink">
<g id="graph0" class="graph" transform="scale(1 1) rotate(0) translate(4 287)">
<title>anderson.hpp</title>
<!-- Node1 -->
<g id="node1" class="node">
<title>Node1</title>
<g id="a_node1"><a xlink:title=" ">
<polygon fill="#999999" stroke="#666666" points="526,-283 443,-283 443,-264 526,-264 526,-283"/>
<text text-anchor="middle" x="484.5" y="-271" font-family="Helvetica,sans-Serif" font-size="10.00">anderson.hpp</text>
</a>
</g>
</g>
<!-- Node2 -->
<g id="node2" class="node">
<title>Node2</title>
<g id="a_node2"><a xlink:href="anderson-helpers_8hpp.html" target="_top" xlink:title=" ">
<polygon fill="white" stroke="#666666" points="375.5,-228 209.5,-228 209.5,-198 375.5,-198 375.5,-228"/>
<text text-anchor="start" x="217.5" y="-216" font-family="Helvetica,sans-Serif" font-size="10.00">alpaqa/accelerators</text>
<text text-anchor="middle" x="292.5" y="-205" font-family="Helvetica,sans-Serif" font-size="10.00">/internal/anderson&#45;helpers.hpp</text>
</a>
</g>
</g>
<!-- Node1&#45;&gt;Node2 -->
<g id="edge1" class="edge">
<title>Node1&#45;&gt;Node2</title>
<path fill="none" stroke="#63b8ff" d="M456.58,-263.99C428.35,-255.39 383.92,-241.86 348.42,-231.04"/>
<polygon fill="#63b8ff" stroke="#63b8ff" points="349.25,-227.63 338.66,-228.06 347.21,-234.33 349.25,-227.63"/>
</g>
<!-- Node4 -->
<g id="node4" class="node">
<title>Node4</title>
<g id="a_node4"><a xlink:href="config_8hpp.html" target="_top" xlink:title=" ">
<polygon fill="white" stroke="#666666" points="426,-85 291,-85 291,-66 426,-66 426,-85"/>
<text text-anchor="middle" x="358.5" y="-73" font-family="Helvetica,sans-Serif" font-size="10.00">alpaqa/config/config.hpp</text>
</a>
</g>
</g>
<!-- Node1&#45;&gt;Node4 -->
<g id="edge16" class="edge">
<title>Node1&#45;&gt;Node4</title>
<path fill="none" stroke="#63b8ff" d="M478.92,-263.83C459.61,-233.78 395.36,-133.83 369.46,-93.55"/>
<polygon fill="#63b8ff" stroke="#63b8ff" points="372.36,-91.59 364.01,-85.07 366.48,-95.38 372.36,-91.59"/>
</g>
<!-- Node6 -->
<g id="node6" class="node">
<title>Node6</title>
<g id="a_node6"><a xlink:title=" ">
<polygon fill="#e0e0e0" stroke="#999999" points="582.5,-24.5 538.5,-24.5 538.5,-5.5 582.5,-5.5 582.5,-24.5"/>
<text text-anchor="middle" x="560.5" y="-12.5" font-family="Helvetica,sans-Serif" font-size="10.00">limits</text>
</a>
</g>
</g>
<!-- Node1&#45;&gt;Node6 -->
<g id="edge18" class="edge">
<title>Node1&#45;&gt;Node6</title>
<path fill="none" stroke="#63b8ff" d="M490.87,-263.89C503.73,-245.99 532.67,-202.99 545.5,-162 559.28,-117.97 561.07,-63.19 560.94,-34.89"/>
<polygon fill="#63b8ff" stroke="#63b8ff" points="564.44,-34.75 560.8,-24.8 557.44,-34.85 564.44,-34.75"/>
</g>
<!-- Node13 -->
<g id="node13" class="node">
<title>Node13</title>
<g id="a_node13"><a xlink:href="export_8hpp.html" target="_top" xlink:title=" ">
<polygon fill="white" stroke="#666666" points="537,-151 432,-151 432,-132 537,-132 537,-151"/>
<text text-anchor="middle" x="484.5" y="-139" font-family="Helvetica,sans-Serif" font-size="10.00">alpaqa/export.hpp</text>
</a>
</g>
</g>
<!-- Node1&#45;&gt;Node13 -->
<g id="edge17" class="edge">
<title>Node1&#45;&gt;Node13</title>
<path fill="none" stroke="#63b8ff" d="M484.5,-263.97C484.5,-243.32 484.5,-190.22 484.5,-161.54"/>
<polygon fill="#63b8ff" stroke="#63b8ff" points="488,-161.23 484.5,-151.23 481,-161.23 488,-161.23"/>
</g>
<!-- Node15 -->
<g id="node15" class="node">
<title>Node15</title>
<g id="a_node15"><a xlink:title=" ">
<polygon fill="#e0e0e0" stroke="#999999" points="659,-222.5 594,-222.5 594,-203.5 659,-203.5 659,-222.5"/>
<text text-anchor="middle" x="626.5" y="-210.5" font-family="Helvetica,sans-Serif" font-size="10.00">stdexcept</text>
</a>
</g>
</g>
<!-- Node1&#45;&gt;Node15 -->
<g id="edge19" class="edge">
<title>Node1&#45;&gt;Node15</title>
<path fill="none" stroke="#63b8ff" d="M505.15,-263.99C529.13,-254.12 568.89,-237.73 596.33,-226.43"/>
<polygon fill="#63b8ff" stroke="#63b8ff" points="597.91,-229.56 605.83,-222.52 595.25,-223.09 597.91,-229.56"/>
</g>
<!-- Node3 -->
<g id="node3" class="node">
<title>Node3</title>
<g id="a_node3"><a xlink:href="limited-memory-qr_8hpp.html" target="_top" xlink:title=" ">
<polygon fill="white" stroke="#666666" points="330.5,-162 190.5,-162 190.5,-121 330.5,-121 330.5,-162"/>
<text text-anchor="start" x="198.5" y="-150" font-family="Helvetica,sans-Serif" font-size="10.00">alpaqa/accelerators</text>
<text text-anchor="start" x="198.5" y="-139" font-family="Helvetica,sans-Serif" font-size="10.00">/internal/limited&#45;memory</text>
<text text-anchor="middle" x="260.5" y="-128" font-family="Helvetica,sans-Serif" font-size="10.00">&#45;qr.hpp</text>
</a>
</g>
</g>
<!-- Node2&#45;&gt;Node3 -->
<g id="edge2" class="edge">
<title>Node2&#45;&gt;Node3</title>
<path fill="none" stroke="#63b8ff" d="M286.02,-197.94C282.5,-190.28 278.01,-180.52 273.78,-171.33"/>
<polygon fill="#63b8ff" stroke="#63b8ff" points="276.87,-169.69 269.51,-162.07 270.52,-172.62 276.87,-169.69"/>
</g>
<!-- Node2&#45;&gt;Node4 -->
<g id="edge13" class="edge">
<title>Node2&#45;&gt;Node4</title>
<path fill="none" stroke="#63b8ff" d="M309.72,-197.96C319.88,-188.76 332.15,-175.9 339.5,-162 350.75,-140.73 355.35,-113.08 357.23,-95.07"/>
<polygon fill="#63b8ff" stroke="#63b8ff" points="360.72,-95.28 358.09,-85.02 353.75,-94.68 360.72,-95.28"/>
</g>
<!-- Node2&#45;&gt;Node13 -->
<g id="edge14" class="edge">
<title>Node2&#45;&gt;Node13</title>
<path fill="none" stroke="#63b8ff" d="M331.35,-197.94C366.51,-185.21 417.73,-166.67 451.09,-154.59"/>
<polygon fill="#63b8ff" stroke="#63b8ff" points="452.62,-157.76 460.83,-151.07 450.24,-151.18 452.62,-157.76"/>
</g>
<!-- Node3&#45;&gt;Node4 -->
<g id="edge3" class="edge">
<title>Node3&#45;&gt;Node4</title>
<path fill="none" stroke="#63b8ff" d="M290.44,-120.95C305.35,-111.21 323.04,-99.65 336.66,-90.76"/>
<polygon fill="#63b8ff" stroke="#63b8ff" points="338.88,-93.49 345.34,-85.09 335.06,-87.63 338.88,-93.49"/>
</g>
<!-- Node7 -->
<g id="node7" class="node">
<title>Node7</title>
<g id="a_node7"><a xlink:title=" ">
<polygon fill="#e0e0e0" stroke="#999999" points="285,-24.5 216,-24.5 216,-5.5 285,-5.5 285,-24.5"/>
<text text-anchor="middle" x="250.5" y="-12.5" font-family="Helvetica,sans-Serif" font-size="10.00">type_traits</text>
</a>
</g>
</g>
<!-- Node3&#45;&gt;Node7 -->
<g id="edge12" class="edge">
<title>Node3&#45;&gt;Node7</title>
<path fill="none" stroke="#63b8ff" d="M258.92,-120.77C257.02,-97.19 253.88,-58.02 252.01,-34.84"/>
<polygon fill="#63b8ff" stroke="#63b8ff" points="255.48,-34.3 251.19,-24.61 248.5,-34.86 255.48,-34.3"/>
</g>
<!-- Node9 -->
<g id="node9" class="node">
<title>Node9</title>
<g id="a_node9"><a xlink:href="ringbuffer_8hpp.html" target="_top" xlink:title=" ">
<polygon fill="white" stroke="#666666" points="139,-85 0,-85 0,-66 139,-66 139,-85"/>
<text text-anchor="middle" x="69.5" y="-73" font-family="Helvetica,sans-Serif" font-size="10.00">alpaqa/util/ringbuffer.hpp</text>
</a>
</g>
</g>
<!-- Node3&#45;&gt;Node9 -->
<g id="edge8" class="edge">
<title>Node3&#45;&gt;Node9</title>
<path fill="none" stroke="#63b8ff" d="M202.16,-120.95C170.21,-110.24 131.68,-97.34 104.4,-88.19"/>
<polygon fill="#63b8ff" stroke="#63b8ff" points="105.48,-84.87 94.89,-85.01 103.26,-91.5 105.48,-84.87"/>
</g>
<!-- Node12 -->
<g id="node12" class="node">
<title>Node12</title>
<g id="a_node12"><a xlink:title=" ">
<polygon fill="#e0e0e0" stroke="#999999" points="233.5,-85 157.5,-85 157.5,-66 233.5,-66 233.5,-85"/>
<text text-anchor="middle" x="195.5" y="-73" font-family="Helvetica,sans-Serif" font-size="10.00">Eigen/Jacobi</text>
</a>
</g>
</g>
<!-- Node3&#45;&gt;Node12 -->
<g id="edge11" class="edge">
<title>Node3&#45;&gt;Node12</title>
<path fill="none" stroke="#63b8ff" d="M240.64,-120.95C231.38,-111.83 220.5,-101.11 211.74,-92.49"/>
<polygon fill="#63b8ff" stroke="#63b8ff" points="213.98,-89.78 204.4,-85.26 209.07,-94.77 213.98,-89.78"/>
</g>
<!-- Node5 -->
<g id="node5" class="node">
<title>Node5</title>
<g id="a_node5"><a xlink:href="quadmath_8hpp.html" target="_top" xlink:title=" ">
<polygon fill="white" stroke="#666666" points="424,-30 303,-30 303,0 424,0 424,-30"/>
<text text-anchor="start" x="311" y="-18" font-family="Helvetica,sans-Serif" font-size="10.00">alpaqa/util/quadmath</text>
<text text-anchor="middle" x="363.5" y="-7" font-family="Helvetica,sans-Serif" font-size="10.00">/quadmath.hpp</text>
</a>
</g>
</g>
<!-- Node4&#45;&gt;Node5 -->
<g id="edge4" class="edge">
<title>Node4&#45;&gt;Node5</title>
<path fill="none" stroke="#63b8ff" d="M359.24,-65.87C359.82,-59.11 360.65,-49.35 361.43,-40.26"/>
<polygon fill="#63b8ff" stroke="#63b8ff" points="364.93,-40.38 362.29,-30.11 357.95,-39.78 364.93,-40.38"/>
</g>
<!-- Node4&#45;&gt;Node6 -->
<g id="edge5" class="edge">
<title>Node4&#45;&gt;Node6</title>
<path fill="none" stroke="#63b8ff" d="M391.66,-65.95C424.33,-57.38 475.58,-43.56 519.5,-30 522.49,-29.08 525.6,-28.08 528.7,-27.07"/>
<polygon fill="#63b8ff" stroke="#63b8ff" points="530.08,-30.29 538.45,-23.8 527.86,-23.66 530.08,-30.29"/>
</g>
<!-- Node4&#45;&gt;Node7 -->
<g id="edge6" class="edge">
<title>Node4&#45;&gt;Node7</title>
<path fill="none" stroke="#63b8ff" d="M342.56,-65.87C324.86,-56.28 296.04,-40.67 275.36,-29.47"/>
<polygon fill="#63b8ff" stroke="#63b8ff" points="276.96,-26.35 266.5,-24.67 273.63,-32.51 276.96,-26.35"/>
</g>
<!-- Node8 -->
<g id="node8" class="node">
<title>Node8</title>
<g id="a_node8"><a xlink:title=" ">
<polygon fill="#e0e0e0" stroke="#999999" points="511,-24.5 442,-24.5 442,-5.5 511,-5.5 511,-24.5"/>
<text text-anchor="middle" x="476.5" y="-12.5" font-family="Helvetica,sans-Serif" font-size="10.00">Eigen/Core</text>
</a>
</g>
</g>
<!-- Node4&#45;&gt;Node8 -->
<g id="edge7" class="edge">
<title>Node4&#45;&gt;Node8</title>
<path fill="none" stroke="#63b8ff" d="M375.66,-65.99C395.23,-56.29 427.47,-40.31 450.22,-29.03"/>
<polygon fill="#63b8ff" stroke="#63b8ff" points="451.92,-32.09 459.32,-24.52 448.81,-25.82 451.92,-32.09"/>
</g>
<!-- Node10 -->
<g id="node10" class="node">
<title>Node10</title>
<g id="a_node10"><a xlink:title=" ">
<polygon fill="#e0e0e0" stroke="#999999" points="61,-24.5 8,-24.5 8,-5.5 61,-5.5 61,-24.5"/>
<text text-anchor="middle" x="34.5" y="-12.5" font-family="Helvetica,sans-Serif" font-size="10.00">cstddef</text>
</a>
</g>
</g>
<!-- Node9&#45;&gt;Node10 -->
<g id="edge9" class="edge">
<title>Node9&#45;&gt;Node10</title>
<path fill="none" stroke="#63b8ff" d="M64.34,-65.87C59.27,-57.4 51.4,-44.24 45.01,-33.57"/>
<polygon fill="#63b8ff" stroke="#63b8ff" points="47.82,-31.45 39.69,-24.67 41.82,-35.05 47.82,-31.45"/>
</g>
<!-- Node11 -->
<g id="node11" class="node">
<title>Node11</title>
<g id="a_node11"><a xlink:title=" ">
<polygon fill="#e0e0e0" stroke="#999999" points="132,-24.5 79,-24.5 79,-5.5 132,-5.5 132,-24.5"/>
<text text-anchor="middle" x="105.5" y="-12.5" font-family="Helvetica,sans-Serif" font-size="10.00">iterator</text>
</a>
</g>
</g>
<!-- Node9&#45;&gt;Node11 -->
<g id="edge10" class="edge">
<title>Node9&#45;&gt;Node11</title>
<path fill="none" stroke="#63b8ff" d="M74.81,-65.87C80.08,-57.31 88.29,-43.97 94.89,-33.24"/>
<polygon fill="#63b8ff" stroke="#63b8ff" points="97.91,-35.02 100.17,-24.67 91.94,-31.35 97.91,-35.02"/>
</g>
<!-- Node14 -->
<g id="node14" class="node">
<title>Node14</title>
<g id="a_node14"><a xlink:title=" ">
<polygon fill="#e0e0e0" stroke="#999999" points="537,-85 444,-85 444,-66 537,-66 537,-85"/>
<text text-anchor="middle" x="490.5" y="-73" font-family="Helvetica,sans-Serif" font-size="10.00">alpaqa/export.h</text>
</a>
</g>
</g>
<!-- Node13&#45;&gt;Node14 -->
<g id="edge15" class="edge">
<title>Node13&#45;&gt;Node14</title>
<path fill="none" stroke="#63b8ff" d="M485.31,-131.87C486.18,-122.57 487.6,-107.48 488.73,-95.4"/>
<polygon fill="#63b8ff" stroke="#63b8ff" points="492.22,-95.69 489.67,-85.41 485.25,-95.03 492.22,-95.69"/>
</g>
</g>
</svg>
