<?xml version="1.0" encoding="UTF-8" standalone="no"?>
<!DOCTYPE svg PUBLIC "-//W3C//DTD SVG 1.1//EN"
 "http://www.w3.org/Graphics/SVG/1.1/DTD/svg11.dtd">
<!-- Generated by graphviz version 2.43.0 (0)
 -->
<!-- Title: alm.tpp Pages: 1 -->
<svg width="1079pt" height="93pt"
 viewBox="0.00 0.00 1078.50 93.00" xmlns="http://www.w3.org/2000/svg" xmlns:xlink="http://www.w3.org/1999/xlink">
<g id="graph0" class="graph" transform="scale(1 1) rotate(0) translate(4 89)">
<title>alm.tpp</title>
<!-- Node1 -->
<g id="node1" class="node">
<title>Node1</title>
<g id="a_node1"><a xlink:title=" ">
<polygon fill="#999999" stroke="#666666" points="552,-85 498,-85 498,-66 552,-66 552,-85"/>
<text text-anchor="middle" x="525" y="-73" font-family="Helvetica,sans-Serif" font-size="10.00">alm.tpp</text>
</a>
</g>
</g>
<!-- Node2 -->
<g id="node2" class="node">
<title>Node2</title>
<g id="a_node2"><a xlink:href="lbfgsb-driver_8cpp.html" target="_top" xlink:title=" ">
<polygon fill="white" stroke="#666666" points="98,-24.5 0,-24.5 0,-5.5 98,-5.5 98,-24.5"/>
<text text-anchor="middle" x="49" y="-12.5" font-family="Helvetica,sans-Serif" font-size="10.00">lbfgsb&#45;driver.cpp</text>
</a>
</g>
</g>
<!-- Node1&#45;&gt;Node2 -->
<g id="edge1" class="edge">
<title>Node1&#45;&gt;Node2</title>
<path fill="none" stroke="#63b8ff" d="M487.83,-72.18C414.55,-67.25 246.48,-54.15 107,-30 98.53,-28.53 89.45,-26.55 81.06,-24.53"/>
<polygon fill="#63b8ff" stroke="#63b8ff" points="487.73,-75.68 497.93,-72.85 488.19,-68.7 487.73,-75.68"/>
</g>
<!-- Node3 -->
<g id="node3" class="node">
<title>Node3</title>
<g id="a_node3"><a xlink:href="newton-tr-pantr-alm_8cpp.html" target="_top" xlink:title=" ">
<polygon fill="white" stroke="#666666" points="252,-24.5 116,-24.5 116,-5.5 252,-5.5 252,-24.5"/>
<text text-anchor="middle" x="184" y="-12.5" font-family="Helvetica,sans-Serif" font-size="10.00">newton&#45;tr&#45;pantr&#45;alm.cpp</text>
</a>
</g>
</g>
<!-- Node1&#45;&gt;Node3 -->
<g id="edge2" class="edge">
<title>Node1&#45;&gt;Node3</title>
<path fill="none" stroke="#63b8ff" d="M488.09,-68.43C437.02,-60 341.95,-44.18 261,-30 251.1,-28.27 240.48,-26.36 230.4,-24.54"/>
<polygon fill="#63b8ff" stroke="#63b8ff" points="487.56,-71.89 498,-70.07 488.7,-64.99 487.56,-71.89"/>
</g>
<!-- Node4 -->
<g id="node4" class="node">
<title>Node4</title>
<g id="a_node4"><a xlink:href="panoc-alm_8cpp.html" target="_top" xlink:title=" ">
<polygon fill="white" stroke="#666666" points="359.5,-24.5 270.5,-24.5 270.5,-5.5 359.5,-5.5 359.5,-24.5"/>
<text text-anchor="middle" x="315" y="-12.5" font-family="Helvetica,sans-Serif" font-size="10.00">panoc&#45;alm.cpp</text>
</a>
</g>
</g>
<!-- Node1&#45;&gt;Node4 -->
<g id="edge3" class="edge">
<title>Node1&#45;&gt;Node4</title>
<path fill="none" stroke="#63b8ff" d="M488.24,-64.26C447.79,-52.99 383.51,-35.08 345.66,-24.54"/>
<polygon fill="#63b8ff" stroke="#63b8ff" points="487.4,-67.66 497.98,-66.97 489.28,-60.92 487.4,-67.66"/>
</g>
<!-- Node5 -->
<g id="node5" class="node">
<title>Node5</title>
<g id="a_node5"><a xlink:href="panoc-anderson-alm_8cpp.html" target="_top" xlink:title=" ">
<polygon fill="white" stroke="#666666" points="514.5,-24.5 377.5,-24.5 377.5,-5.5 514.5,-5.5 514.5,-24.5"/>
<text text-anchor="middle" x="446" y="-12.5" font-family="Helvetica,sans-Serif" font-size="10.00">panoc&#45;anderson&#45;alm.cpp</text>
</a>
</g>
</g>
<!-- Node1&#45;&gt;Node5 -->
<g id="edge4" class="edge">
<title>Node1&#45;&gt;Node5</title>
<path fill="none" stroke="#63b8ff" d="M505.21,-59.85C490.25,-48.77 470.21,-33.93 457.7,-24.67"/>
<polygon fill="#63b8ff" stroke="#63b8ff" points="503.22,-62.73 513.34,-65.87 507.39,-57.1 503.22,-62.73"/>
</g>
<!-- Node6 -->
<g id="node6" class="node">
<title>Node6</title>
<g id="a_node6"><a xlink:href="structured-panoc-alm_8cpp.html" target="_top" xlink:title=" ">
<polygon fill="white" stroke="#666666" points="675,-24.5 533,-24.5 533,-5.5 675,-5.5 675,-24.5"/>
<text text-anchor="middle" x="604" y="-12.5" font-family="Helvetica,sans-Serif" font-size="10.00">structured&#45;panoc&#45;alm.cpp</text>
</a>
</g>
</g>
<!-- Node1&#45;&gt;Node6 -->
<g id="edge5" class="edge">
<title>Node1&#45;&gt;Node6</title>
<path fill="none" stroke="#63b8ff" d="M544.79,-59.85C559.75,-48.77 579.79,-33.93 592.3,-24.67"/>
<polygon fill="#63b8ff" stroke="#63b8ff" points="542.61,-57.1 536.66,-65.87 546.78,-62.73 542.61,-57.1"/>
</g>
<!-- Node7 -->
<g id="node7" class="node">
<title>Node7</title>
<g id="a_node7"><a xlink:href="structured-zerofpr-alm_8cpp.html" target="_top" xlink:title=" ">
<polygon fill="white" stroke="#666666" points="797,-30 693,-30 693,0 797,0 797,-30"/>
<text text-anchor="start" x="701" y="-18" font-family="Helvetica,sans-Serif" font-size="10.00">structured&#45;zerofpr</text>
<text text-anchor="middle" x="745" y="-7" font-family="Helvetica,sans-Serif" font-size="10.00">&#45;alm.cpp</text>
</a>
</g>
</g>
<!-- Node1&#45;&gt;Node7 -->
<g id="edge6" class="edge">
<title>Node1&#45;&gt;Node7</title>
<path fill="none" stroke="#63b8ff" d="M562.46,-64.54C598.31,-55 652.72,-40.54 692.81,-29.88"/>
<polygon fill="#63b8ff" stroke="#63b8ff" points="561.18,-61.26 552.42,-67.21 562.98,-68.02 561.18,-61.26"/>
</g>
<!-- Node8 -->
<g id="node8" class="node">
<title>Node8</title>
<g id="a_node8"><a xlink:href="zerofpr-alm_8cpp.html" target="_top" xlink:title=" ">
<polygon fill="white" stroke="#666666" points="909,-24.5 815,-24.5 815,-5.5 909,-5.5 909,-24.5"/>
<text text-anchor="middle" x="862" y="-12.5" font-family="Helvetica,sans-Serif" font-size="10.00">zerofpr&#45;alm.cpp</text>
</a>
</g>
</g>
<!-- Node1&#45;&gt;Node8 -->
<g id="edge7" class="edge">
<title>Node1&#45;&gt;Node8</title>
<path fill="none" stroke="#63b8ff" d="M562.4,-69.64C616.43,-62.39 719.34,-47.66 806,-30 813.76,-28.42 822.06,-26.48 829.83,-24.56"/>
<polygon fill="#63b8ff" stroke="#63b8ff" points="561.72,-66.2 552.27,-70.99 562.64,-73.14 561.72,-66.2"/>
</g>
<!-- Node9 -->
<g id="node9" class="node">
<title>Node9</title>
<g id="a_node9"><a xlink:href="zerofpr-anderson-alm_8cpp.html" target="_top" xlink:title=" ">
<polygon fill="white" stroke="#666666" points="1070.5,-24.5 927.5,-24.5 927.5,-5.5 1070.5,-5.5 1070.5,-24.5"/>
<text text-anchor="middle" x="999" y="-12.5" font-family="Helvetica,sans-Serif" font-size="10.00">zerofpr&#45;anderson&#45;alm.cpp</text>
</a>
</g>
</g>
<!-- Node1&#45;&gt;Node9 -->
<g id="edge8" class="edge">
<title>Node1&#45;&gt;Node9</title>
<path fill="none" stroke="#63b8ff" d="M562.31,-71.01C632.23,-64.3 787.72,-48.62 918,-30 929.16,-28.41 941.15,-26.46 952.39,-24.54"/>
<polygon fill="#63b8ff" stroke="#63b8ff" points="561.85,-67.54 552.23,-71.97 562.52,-74.5 561.85,-67.54"/>
</g>
</g>
</svg>
