<?xml version="1.0" encoding="UTF-8" standalone="no"?>
<!DOCTYPE svg PUBLIC "-//W3C//DTD SVG 1.1//EN"
 "http://www.w3.org/Graphics/SVG/1.1/DTD/svg11.dtd">
<!-- Generated by graphviz version 2.43.0 (0)
 -->
<!-- Title: alm.hpp Pages: 1 -->
<svg width="1993pt" height="401pt"
 viewBox="0.00 0.00 1992.68 401.00" xmlns="http://www.w3.org/2000/svg" xmlns:xlink="http://www.w3.org/1999/xlink">
<g id="graph0" class="graph" transform="scale(1 1) rotate(0) translate(4 397)">
<title>alm.hpp</title>
<!-- Node1 -->
<g id="node1" class="node">
<title>Node1</title>
<g id="a_node1"><a xlink:title=" ">
<polygon fill="#999999" stroke="#666666" points="1349,-393 1293,-393 1293,-374 1349,-374 1349,-393"/>
<text text-anchor="middle" x="1321" y="-381" font-family="Helvetica,sans-Serif" font-size="10.00">alm.hpp</text>
</a>
</g>
</g>
<!-- Node2 -->
<g id="node2" class="node">
<title>Node2</title>
<g id="a_node2"><a xlink:href="config_8hpp.html" target="_top" xlink:title=" ">
<polygon fill="white" stroke="#666666" points="1639.5,-200.5 1504.5,-200.5 1504.5,-181.5 1639.5,-181.5 1639.5,-200.5"/>
<text text-anchor="middle" x="1572" y="-188.5" font-family="Helvetica,sans-Serif" font-size="10.00">alpaqa/config/config.hpp</text>
</a>
</g>
</g>
<!-- Node1&#45;&gt;Node2 -->
<g id="edge1" class="edge">
<title>Node1&#45;&gt;Node2</title>
<path fill="none" stroke="#63b8ff" d="M1349.03,-381.27C1407.57,-376.98 1541.95,-357.79 1597,-272 1609.6,-252.37 1596.61,-225.95 1585.15,-208.95"/>
<polygon fill="#63b8ff" stroke="#63b8ff" points="1587.79,-206.63 1579.11,-200.57 1582.12,-210.73 1587.79,-206.63"/>
</g>
<!-- Node7 -->
<g id="node7" class="node">
<title>Node7</title>
<g id="a_node7"><a xlink:href="export_8hpp.html" target="_top" xlink:title=" ">
<polygon fill="white" stroke="#666666" points="415.5,-74 310.5,-74 310.5,-55 415.5,-55 415.5,-74"/>
<text text-anchor="middle" x="363" y="-62" font-family="Helvetica,sans-Serif" font-size="10.00">alpaqa/export.hpp</text>
</a>
</g>
</g>
<!-- Node1&#45;&gt;Node7 -->
<g id="edge6" class="edge">
<title>Node1&#45;&gt;Node7</title>
<path fill="none" stroke="#63b8ff" d="M1292.89,-382.46C1117.81,-381.85 184,-373.17 184,-258 184,-258 184,-258 184,-190 184,-126.17 261.67,-92.41 314.68,-76.8"/>
<polygon fill="#63b8ff" stroke="#63b8ff" points="315.92,-80.09 324.6,-74.01 314.03,-73.35 315.92,-80.09"/>
</g>
<!-- Node9 -->
<g id="node9" class="node">
<title>Node9</title>
<g id="a_node9"><a xlink:href="solverstatus_8hpp.html" target="_top" xlink:title=" ">
<polygon fill="white" stroke="#666666" points="118,-206 0,-206 0,-176 118,-176 118,-206"/>
<text text-anchor="start" x="8" y="-194" font-family="Helvetica,sans-Serif" font-size="10.00">alpaqa/inner/internal</text>
<text text-anchor="middle" x="59" y="-183" font-family="Helvetica,sans-Serif" font-size="10.00">/solverstatus.hpp</text>
</a>
</g>
</g>
<!-- Node1&#45;&gt;Node9 -->
<g id="edge8" class="edge">
<title>Node1&#45;&gt;Node9</title>
<path fill="none" stroke="#63b8ff" d="M1292.94,-382.26C1117.96,-380.63 182.36,-370.44 132,-338 89.44,-310.58 70.73,-250.32 63.31,-216.41"/>
<polygon fill="#63b8ff" stroke="#63b8ff" points="66.7,-215.51 61.28,-206.41 59.84,-216.9 66.7,-215.51"/>
</g>
<!-- Node12 -->
<g id="node12" class="node">
<title>Node12</title>
<g id="a_node12"><a xlink:href="alm-helpers_8hpp.html" target="_top" xlink:title=" ">
<polygon fill="white" stroke="#666666" points="1750.5,-338 1631.5,-338 1631.5,-308 1750.5,-308 1750.5,-338"/>
<text text-anchor="start" x="1639.5" y="-326" font-family="Helvetica,sans-Serif" font-size="10.00">alpaqa/outer/internal</text>
<text text-anchor="middle" x="1691" y="-315" font-family="Helvetica,sans-Serif" font-size="10.00">/alm&#45;helpers.hpp</text>
</a>
</g>
</g>
<!-- Node1&#45;&gt;Node12 -->
<g id="edge12" class="edge">
<title>Node1&#45;&gt;Node12</title>
<path fill="none" stroke="#63b8ff" d="M1349.22,-378.62C1401.93,-371.29 1518.89,-354.65 1617,-338 1618.45,-337.75 1619.92,-337.5 1621.39,-337.25"/>
<polygon fill="#63b8ff" stroke="#63b8ff" points="1622.02,-340.69 1631.26,-335.5 1620.8,-333.8 1622.02,-340.69"/>
</g>
<!-- Node13 -->
<g id="node13" class="node">
<title>Node13</title>
<g id="a_node13"><a xlink:href="type-erased-problem_8hpp.html" target="_top" xlink:title=" ">
<polygon fill="white" stroke="#666666" points="1173.5,-338 1054.5,-338 1054.5,-308 1173.5,-308 1173.5,-338"/>
<text text-anchor="start" x="1062.5" y="-326" font-family="Helvetica,sans-Serif" font-size="10.00">alpaqa/problem/type</text>
<text text-anchor="middle" x="1114" y="-315" font-family="Helvetica,sans-Serif" font-size="10.00">&#45;erased&#45;problem.hpp</text>
</a>
</g>
</g>
<!-- Node1&#45;&gt;Node13 -->
<g id="edge14" class="edge">
<title>Node1&#45;&gt;Node13</title>
<path fill="none" stroke="#63b8ff" d="M1292.65,-374.49C1262.13,-365.86 1212.69,-351.89 1173.55,-340.83"/>
<polygon fill="#63b8ff" stroke="#63b8ff" points="1174.42,-337.44 1163.84,-338.09 1172.51,-344.17 1174.42,-337.44"/>
</g>
<!-- Node22 -->
<g id="node22" class="node">
<title>Node22</title>
<g id="a_node22"><a xlink:title=" ">
<polygon fill="#e0e0e0" stroke="#999999" points="244,-74 200,-74 200,-55 244,-55 244,-74"/>
<text text-anchor="middle" x="222" y="-62" font-family="Helvetica,sans-Serif" font-size="10.00">string</text>
</a>
</g>
</g>
<!-- Node1&#45;&gt;Node22 -->
<g id="edge65" class="edge">
<title>Node1&#45;&gt;Node22</title>
<path fill="none" stroke="#63b8ff" d="M1292.96,-382.27C1134.94,-380.86 359.31,-372.24 259,-338 200.77,-318.12 146,-319.53 146,-258 146,-258 146,-258 146,-190 146,-145.34 182.06,-103.13 204.5,-81.19"/>
<polygon fill="#63b8ff" stroke="#63b8ff" points="207.19,-83.46 212.06,-74.05 202.39,-78.37 207.19,-83.46"/>
</g>
<!-- Node37 -->
<g id="node37" class="node">
<title>Node37</title>
<g id="a_node37"><a xlink:title=" ">
<polygon fill="#e0e0e0" stroke="#999999" points="1588,-266.5 1538,-266.5 1538,-247.5 1588,-247.5 1588,-266.5"/>
<text text-anchor="middle" x="1563" y="-254.5" font-family="Helvetica,sans-Serif" font-size="10.00">chrono</text>
</a>
</g>
</g>
<!-- Node1&#45;&gt;Node37 -->
<g id="edge63" class="edge">
<title>Node1&#45;&gt;Node37</title>
<path fill="none" stroke="#63b8ff" d="M1337.63,-373.94C1379.08,-352.62 1487.2,-297 1537.09,-271.33"/>
<polygon fill="#63b8ff" stroke="#63b8ff" points="1538.96,-274.3 1546.25,-266.62 1535.76,-268.08 1538.96,-274.3"/>
</g>
<!-- Node38 -->
<g id="node38" class="node">
<title>Node38</title>
<g id="a_node38"><a xlink:title=" ">
<polygon fill="#e0e0e0" stroke="#999999" points="1829,-332.5 1769,-332.5 1769,-313.5 1829,-313.5 1829,-332.5"/>
<text text-anchor="middle" x="1799" y="-320.5" font-family="Helvetica,sans-Serif" font-size="10.00">iostream</text>
</a>
</g>
</g>
<!-- Node1&#45;&gt;Node38 -->
<g id="edge64" class="edge">
<title>Node1&#45;&gt;Node38</title>
<path fill="none" stroke="#63b8ff" d="M1349.03,-381.93C1419.03,-380.02 1606.8,-371.87 1759,-338 1761.99,-337.33 1765.07,-336.51 1768.12,-335.61"/>
<polygon fill="#63b8ff" stroke="#63b8ff" points="1769.25,-338.92 1777.68,-332.5 1767.09,-332.27 1769.25,-338.92"/>
</g>
<!-- Node3 -->
<g id="node3" class="node">
<title>Node3</title>
<g id="a_node3"><a xlink:href="quadmath_8hpp.html" target="_top" xlink:title=" ">
<polygon fill="white" stroke="#666666" points="1771.5,-140 1650.5,-140 1650.5,-110 1771.5,-110 1771.5,-140"/>
<text text-anchor="start" x="1658.5" y="-128" font-family="Helvetica,sans-Serif" font-size="10.00">alpaqa/util/quadmath</text>
<text text-anchor="middle" x="1711" y="-117" font-family="Helvetica,sans-Serif" font-size="10.00">/quadmath.hpp</text>
</a>
</g>
</g>
<!-- Node2&#45;&gt;Node3 -->
<g id="edge2" class="edge">
<title>Node2&#45;&gt;Node3</title>
<path fill="none" stroke="#63b8ff" d="M1590.75,-181.37C1611.21,-171.95 1644.57,-156.59 1670.97,-144.43"/>
<polygon fill="#63b8ff" stroke="#63b8ff" points="1672.72,-147.48 1680.34,-140.12 1669.8,-141.12 1672.72,-147.48"/>
</g>
<!-- Node4 -->
<g id="node4" class="node">
<title>Node4</title>
<g id="a_node4"><a xlink:title=" ">
<polygon fill="#e0e0e0" stroke="#999999" points="1594,-134.5 1550,-134.5 1550,-115.5 1594,-115.5 1594,-134.5"/>
<text text-anchor="middle" x="1572" y="-122.5" font-family="Helvetica,sans-Serif" font-size="10.00">limits</text>
</a>
</g>
</g>
<!-- Node2&#45;&gt;Node4 -->
<g id="edge3" class="edge">
<title>Node2&#45;&gt;Node4</title>
<path fill="none" stroke="#63b8ff" d="M1572,-181.37C1572,-172.16 1572,-157.29 1572,-145.27"/>
<polygon fill="#63b8ff" stroke="#63b8ff" points="1575.5,-144.91 1572,-134.91 1568.5,-144.91 1575.5,-144.91"/>
</g>
<!-- Node5 -->
<g id="node5" class="node">
<title>Node5</title>
<g id="a_node5"><a xlink:title=" ">
<polygon fill="#e0e0e0" stroke="#999999" points="1656.5,-74 1587.5,-74 1587.5,-55 1656.5,-55 1656.5,-74"/>
<text text-anchor="middle" x="1622" y="-62" font-family="Helvetica,sans-Serif" font-size="10.00">type_traits</text>
</a>
</g>
</g>
<!-- Node2&#45;&gt;Node5 -->
<g id="edge4" class="edge">
<title>Node2&#45;&gt;Node5</title>
<path fill="none" stroke="#63b8ff" d="M1578.59,-181.24C1585.56,-171.6 1596.44,-155.41 1603,-140 1610.75,-121.8 1615.89,-99.7 1618.85,-84.32"/>
<polygon fill="#63b8ff" stroke="#63b8ff" points="1622.37,-84.5 1620.7,-74.04 1615.48,-83.26 1622.37,-84.5"/>
</g>
<!-- Node6 -->
<g id="node6" class="node">
<title>Node6</title>
<g id="a_node6"><a xlink:title=" ">
<polygon fill="#e0e0e0" stroke="#999999" points="1531.5,-134.5 1462.5,-134.5 1462.5,-115.5 1531.5,-115.5 1531.5,-134.5"/>
<text text-anchor="middle" x="1497" y="-122.5" font-family="Helvetica,sans-Serif" font-size="10.00">Eigen/Core</text>
</a>
</g>
</g>
<!-- Node2&#45;&gt;Node6 -->
<g id="edge5" class="edge">
<title>Node2&#45;&gt;Node6</title>
<path fill="none" stroke="#63b8ff" d="M1561.89,-181.37C1549.99,-171.21 1530,-154.16 1515.35,-141.65"/>
<polygon fill="#63b8ff" stroke="#63b8ff" points="1517.31,-138.73 1507.44,-134.91 1512.77,-144.06 1517.31,-138.73"/>
</g>
<!-- Node8 -->
<g id="node8" class="node">
<title>Node8</title>
<g id="a_node8"><a xlink:title=" ">
<polygon fill="#e0e0e0" stroke="#999999" points="409.5,-19 316.5,-19 316.5,0 409.5,0 409.5,-19"/>
<text text-anchor="middle" x="363" y="-7" font-family="Helvetica,sans-Serif" font-size="10.00">alpaqa/export.h</text>
</a>
</g>
</g>
<!-- Node7&#45;&gt;Node8 -->
<g id="edge7" class="edge">
<title>Node7&#45;&gt;Node8</title>
<path fill="none" stroke="#63b8ff" d="M363,-54.75C363,-47.8 363,-37.85 363,-29.13"/>
<polygon fill="#63b8ff" stroke="#63b8ff" points="366.5,-29.09 363,-19.09 359.5,-29.09 366.5,-29.09"/>
</g>
<!-- Node9&#45;&gt;Node8 -->
<g id="edge9" class="edge">
<title>Node9&#45;&gt;Node8</title>
<path fill="none" stroke="#63b8ff" d="M55.09,-175.89C51.23,-158.74 47.63,-129.64 61,-110 114.97,-30.74 234.74,-13.23 306.17,-10.16"/>
<polygon fill="#63b8ff" stroke="#63b8ff" points="306.47,-13.66 316.35,-9.81 306.23,-6.66 306.47,-13.66"/>
</g>
<!-- Node10 -->
<g id="node10" class="node">
<title>Node10</title>
<g id="a_node10"><a xlink:title=" ">
<polygon fill="#e0e0e0" stroke="#999999" points="118,-134.5 70,-134.5 70,-115.5 118,-115.5 118,-134.5"/>
<text text-anchor="middle" x="94" y="-122.5" font-family="Helvetica,sans-Serif" font-size="10.00">iosfwd</text>
</a>
</g>
</g>
<!-- Node9&#45;&gt;Node10 -->
<g id="edge10" class="edge">
<title>Node9&#45;&gt;Node10</title>
<path fill="none" stroke="#63b8ff" d="M66.77,-175.8C71.96,-166.31 78.82,-153.76 84.36,-143.63"/>
<polygon fill="#63b8ff" stroke="#63b8ff" points="87.44,-145.3 89.16,-134.84 81.29,-141.94 87.44,-145.3"/>
</g>
<!-- Node11 -->
<g id="node11" class="node">
<title>Node11</title>
<g id="a_node11"><a xlink:title=" ">
<polygon fill="#e0e0e0" stroke="#999999" points="315.5,-134.5 250.5,-134.5 250.5,-115.5 315.5,-115.5 315.5,-134.5"/>
<text text-anchor="middle" x="283" y="-122.5" font-family="Helvetica,sans-Serif" font-size="10.00">stdexcept</text>
</a>
</g>
</g>
<!-- Node9&#45;&gt;Node11 -->
<g id="edge11" class="edge">
<title>Node9&#45;&gt;Node11</title>
<path fill="none" stroke="#63b8ff" d="M108.16,-175.95C148.83,-164.34 205.84,-148.05 243.56,-137.27"/>
<polygon fill="#63b8ff" stroke="#63b8ff" points="244.54,-140.63 253.19,-134.52 242.61,-133.9 244.54,-140.63"/>
</g>
<!-- Node12&#45;&gt;Node2 -->
<g id="edge13" class="edge">
<title>Node12&#45;&gt;Node2</title>
<path fill="none" stroke="#63b8ff" d="M1681.46,-307.71C1670.1,-291.14 1650.12,-263.36 1630,-242 1617.97,-229.23 1602.93,-216.34 1591.18,-206.84"/>
<polygon fill="#63b8ff" stroke="#63b8ff" points="1593.3,-204.06 1583.3,-200.58 1588.95,-209.54 1593.3,-204.06"/>
</g>
<!-- Node13&#45;&gt;Node2 -->
<g id="edge15" class="edge">
<title>Node13&#45;&gt;Node2</title>
<path fill="none" stroke="#63b8ff" d="M1173.71,-312.24C1211.08,-304.61 1259.47,-291.89 1299,-272 1318.22,-262.33 1317.52,-251.15 1337,-242 1386.51,-218.75 1446.96,-206.2 1494.15,-199.49"/>
<polygon fill="#63b8ff" stroke="#63b8ff" points="1494.87,-202.92 1504.31,-198.11 1493.93,-195.99 1494.87,-202.92"/>
</g>
<!-- Node13&#45;&gt;Node5 -->
<g id="edge61" class="edge">
<title>Node13&#45;&gt;Node5</title>
<path fill="none" stroke="#63b8ff" d="M1173.59,-317.85C1264.75,-310.87 1434.13,-295.22 1490,-272 1510.19,-263.61 1508.67,-250.05 1529,-242 1680.98,-181.85 1743.33,-266.93 1895,-206 1939.06,-188.3 1958.25,-182.7 1979,-140 1984.83,-128.01 1987.83,-119.99 1979,-110 1958.62,-86.92 1757.9,-73 1666.69,-67.82"/>
<polygon fill="#63b8ff" stroke="#63b8ff" points="1666.83,-64.32 1656.65,-67.26 1666.44,-71.31 1666.83,-64.32"/>
</g>
<!-- Node13&#45;&gt;Node7 -->
<g id="edge16" class="edge">
<title>Node13&#45;&gt;Node7</title>
<path fill="none" stroke="#63b8ff" d="M1054.12,-320.54C936.51,-315.71 669.09,-294.96 466,-206 419.91,-185.81 400.2,-182.97 374,-140 363.7,-123.11 361.73,-100.17 361.85,-84.22"/>
<polygon fill="#63b8ff" stroke="#63b8ff" points="365.35,-84.15 362.21,-74.03 358.36,-83.9 365.35,-84.15"/>
</g>
<!-- Node13&#45;&gt;Node11 -->
<g id="edge60" class="edge">
<title>Node13&#45;&gt;Node11</title>
<path fill="none" stroke="#63b8ff" d="M1054.48,-320.81C862.27,-316.68 268.93,-301.58 241,-272 206.54,-235.51 246.53,-172.58 269.32,-142.7"/>
<polygon fill="#63b8ff" stroke="#63b8ff" points="272.3,-144.57 275.74,-134.55 266.8,-140.24 272.3,-144.57"/>
</g>
<!-- Node14 -->
<g id="node14" class="node">
<title>Node14</title>
<g id="a_node14"><a xlink:href="box_8hpp.html" target="_top" xlink:title=" ">
<polygon fill="white" stroke="#666666" points="1481.5,-266.5 1346.5,-266.5 1346.5,-247.5 1481.5,-247.5 1481.5,-266.5"/>
<text text-anchor="middle" x="1414" y="-254.5" font-family="Helvetica,sans-Serif" font-size="10.00">alpaqa/problem/box.hpp</text>
</a>
</g>
</g>
<!-- Node13&#45;&gt;Node14 -->
<g id="edge17" class="edge">
<title>Node13&#45;&gt;Node14</title>
<path fill="none" stroke="#63b8ff" d="M1173.63,-309.28C1229.38,-297.39 1311.68,-279.83 1364.06,-268.65"/>
<polygon fill="#63b8ff" stroke="#63b8ff" points="1365.07,-272.02 1374.12,-266.51 1363.61,-265.17 1365.07,-272.02"/>
</g>
<!-- Node19 -->
<g id="node19" class="node">
<title>Node19</title>
<g id="a_node19"><a xlink:href="alloc-check_8hpp.html" target="_top" xlink:title=" ">
<polygon fill="white" stroke="#666666" points="1290,-266.5 1142,-266.5 1142,-247.5 1290,-247.5 1290,-266.5"/>
<text text-anchor="middle" x="1216" y="-254.5" font-family="Helvetica,sans-Serif" font-size="10.00">alpaqa/util/alloc&#45;check.hpp</text>
</a>
</g>
</g>
<!-- Node13&#45;&gt;Node19 -->
<g id="edge25" class="edge">
<title>Node13&#45;&gt;Node19</title>
<path fill="none" stroke="#63b8ff" d="M1136.38,-307.95C1153.41,-297.27 1176.71,-282.65 1193.71,-271.98"/>
<polygon fill="#63b8ff" stroke="#63b8ff" points="1195.82,-274.8 1202.43,-266.52 1192.09,-268.87 1195.82,-274.8"/>
</g>
<!-- Node20 -->
<g id="node20" class="node">
<title>Node20</title>
<g id="a_node20"><a xlink:href="check-dim_8hpp.html" target="_top" xlink:title=" ">
<polygon fill="white" stroke="#666666" points="393.5,-266.5 250.5,-266.5 250.5,-247.5 393.5,-247.5 393.5,-266.5"/>
<text text-anchor="middle" x="322" y="-254.5" font-family="Helvetica,sans-Serif" font-size="10.00">alpaqa/util/check&#45;dim.hpp</text>
</a>
</g>
</g>
<!-- Node13&#45;&gt;Node20 -->
<g id="edge27" class="edge">
<title>Node13&#45;&gt;Node20</title>
<path fill="none" stroke="#63b8ff" d="M1054.32,-319.6C932.52,-314.31 646.61,-299.81 408,-272 398.84,-270.93 389.17,-269.58 379.75,-268.14"/>
<polygon fill="#63b8ff" stroke="#63b8ff" points="380.08,-264.65 369.66,-266.55 378.99,-271.56 380.08,-264.65"/>
</g>
<!-- Node23 -->
<g id="node23" class="node">
<title>Node23</title>
<g id="a_node23"><a xlink:href="not-implemented_8hpp.html" target="_top" xlink:title=" ">
<polygon fill="white" stroke="#666666" points="652.5,-200.5 475.5,-200.5 475.5,-181.5 652.5,-181.5 652.5,-200.5"/>
<text text-anchor="middle" x="564" y="-188.5" font-family="Helvetica,sans-Serif" font-size="10.00">alpaqa/util/not&#45;implemented.hpp</text>
</a>
</g>
</g>
<!-- Node13&#45;&gt;Node23 -->
<g id="edge32" class="edge">
<title>Node13&#45;&gt;Node23</title>
<path fill="none" stroke="#63b8ff" d="M1054.62,-307.96C944.11,-281.84 709.12,-226.3 609.82,-202.83"/>
<polygon fill="#63b8ff" stroke="#63b8ff" points="610.61,-199.42 600.08,-200.53 609,-206.23 610.61,-199.42"/>
</g>
<!-- Node24 -->
<g id="node24" class="node">
<title>Node24</title>
<g id="a_node24"><a xlink:href="required-method_8hpp.html" target="_top" xlink:title=" ">
<polygon fill="white" stroke="#666666" points="1086,-272 974,-272 974,-242 1086,-242 1086,-272"/>
<text text-anchor="start" x="982" y="-260" font-family="Helvetica,sans-Serif" font-size="10.00">alpaqa/util/required</text>
<text text-anchor="middle" x="1030" y="-249" font-family="Helvetica,sans-Serif" font-size="10.00">&#45;method.hpp</text>
</a>
</g>
</g>
<!-- Node13&#45;&gt;Node24 -->
<g id="edge35" class="edge">
<title>Node13&#45;&gt;Node24</title>
<path fill="none" stroke="#63b8ff" d="M1095.36,-307.8C1084.05,-299.18 1069.42,-288.04 1056.88,-278.48"/>
<polygon fill="#63b8ff" stroke="#63b8ff" points="1058.67,-275.44 1048.59,-272.16 1054.42,-281.01 1058.67,-275.44"/>
</g>
<!-- Node25 -->
<g id="node25" class="node">
<title>Node25</title>
<g id="a_node25"><a xlink:href="type-erasure_8hpp.html" target="_top" xlink:title=" ">
<polygon fill="white" stroke="#666666" points="1023.5,-200.5 868.5,-200.5 868.5,-181.5 1023.5,-181.5 1023.5,-200.5"/>
<text text-anchor="middle" x="946" y="-188.5" font-family="Helvetica,sans-Serif" font-size="10.00">alpaqa/util/type&#45;erasure.hpp</text>
</a>
</g>
</g>
<!-- Node13&#45;&gt;Node25 -->
<g id="edge58" class="edge">
<title>Node13&#45;&gt;Node25</title>
<path fill="none" stroke="#63b8ff" d="M1054.21,-315.76C1023.49,-309.49 987.82,-296.98 965,-272 949.77,-255.32 946.11,-228.69 945.53,-210.79"/>
<polygon fill="#63b8ff" stroke="#63b8ff" points="949.03,-210.7 945.5,-200.71 942.03,-210.72 949.03,-210.7"/>
</g>
<!-- Node36 -->
<g id="node36" class="node">
<title>Node36</title>
<g id="a_node36"><a xlink:title=" ">
<polygon fill="#e0e0e0" stroke="#999999" points="1444.5,-134.5 1399.5,-134.5 1399.5,-115.5 1444.5,-115.5 1444.5,-134.5"/>
<text text-anchor="middle" x="1422" y="-122.5" font-family="Helvetica,sans-Serif" font-size="10.00">utility</text>
</a>
</g>
</g>
<!-- Node13&#45;&gt;Node36 -->
<g id="edge62" class="edge">
<title>Node13&#45;&gt;Node36</title>
<path fill="none" stroke="#63b8ff" d="M1113.61,-307.81C1113.88,-290.3 1116.94,-260.57 1133,-242 1213.39,-149.05 1276.58,-187.3 1390,-140 1391.16,-139.51 1392.35,-139.01 1393.55,-138.51"/>
<polygon fill="#63b8ff" stroke="#63b8ff" points="1394.95,-141.71 1402.76,-134.55 1392.19,-135.28 1394.95,-141.71"/>
</g>
<!-- Node13&#45;&gt;Node37 -->
<g id="edge59" class="edge">
<title>Node13&#45;&gt;Node37</title>
<path fill="none" stroke="#63b8ff" d="M1173.8,-318.9C1254.3,-313.77 1401.55,-301.06 1524,-272 1526.66,-271.37 1529.4,-270.61 1532.12,-269.79"/>
<polygon fill="#63b8ff" stroke="#63b8ff" points="1533.41,-273.05 1541.8,-266.58 1531.21,-266.4 1533.41,-273.05"/>
</g>
<!-- Node14&#45;&gt;Node2 -->
<g id="edge18" class="edge">
<title>Node14&#45;&gt;Node2</title>
<path fill="none" stroke="#63b8ff" d="M1435.31,-247.37C1462.6,-236.32 1510.07,-217.08 1541.27,-204.45"/>
<polygon fill="#63b8ff" stroke="#63b8ff" points="1542.82,-207.59 1550.78,-200.6 1540.19,-201.11 1542.82,-207.59"/>
</g>
<!-- Node15 -->
<g id="node15" class="node">
<title>Node15</title>
<g id="a_node15"><a xlink:href="float_8hpp.html" target="_top" xlink:title=" ">
<polygon fill="white" stroke="#666666" points="1886,-200.5 1772,-200.5 1772,-181.5 1886,-181.5 1886,-200.5"/>
<text text-anchor="middle" x="1829" y="-188.5" font-family="Helvetica,sans-Serif" font-size="10.00">alpaqa/util/float.hpp</text>
</a>
</g>
</g>
<!-- Node14&#45;&gt;Node15 -->
<g id="edge19" class="edge">
<title>Node14&#45;&gt;Node15</title>
<path fill="none" stroke="#63b8ff" d="M1462.97,-247.47C1473.84,-245.63 1485.31,-243.72 1496,-242 1587.96,-227.25 1694.44,-211.49 1761.74,-201.69"/>
<polygon fill="#63b8ff" stroke="#63b8ff" points="1762.4,-205.14 1771.79,-200.23 1761.39,-198.21 1762.4,-205.14"/>
</g>
<!-- Node15&#45;&gt;Node3 -->
<g id="edge20" class="edge">
<title>Node15&#45;&gt;Node3</title>
<path fill="none" stroke="#63b8ff" d="M1813.09,-181.37C1795.95,-172.07 1768.14,-156.99 1745.87,-144.91"/>
<polygon fill="#63b8ff" stroke="#63b8ff" points="1747.48,-141.81 1737.03,-140.12 1744.15,-147.96 1747.48,-141.81"/>
</g>
<!-- Node15&#45;&gt;Node5 -->
<g id="edge24" class="edge">
<title>Node15&#45;&gt;Node5</title>
<path fill="none" stroke="#63b8ff" d="M1826.11,-181.3C1820.19,-164.81 1805.06,-128.97 1780,-110 1747.05,-85.06 1700.74,-74.1 1666.77,-69.28"/>
<polygon fill="#63b8ff" stroke="#63b8ff" points="1667.02,-65.78 1656.65,-67.97 1666.12,-72.72 1667.02,-65.78"/>
</g>
<!-- Node16 -->
<g id="node16" class="node">
<title>Node16</title>
<g id="a_node16"><a xlink:title=" ">
<polygon fill="#e0e0e0" stroke="#999999" points="1952.5,-134.5 1905.5,-134.5 1905.5,-115.5 1952.5,-115.5 1952.5,-134.5"/>
<text text-anchor="middle" x="1929" y="-122.5" font-family="Helvetica,sans-Serif" font-size="10.00">cmath</text>
</a>
</g>
</g>
<!-- Node15&#45;&gt;Node16 -->
<g id="edge21" class="edge">
<title>Node15&#45;&gt;Node16</title>
<path fill="none" stroke="#63b8ff" d="M1842.49,-181.37C1858.96,-170.82 1887.07,-152.84 1906.76,-140.23"/>
<polygon fill="#63b8ff" stroke="#63b8ff" points="1908.87,-143.04 1915.41,-134.7 1905.1,-137.14 1908.87,-143.04"/>
</g>
<!-- Node17 -->
<g id="node17" class="node">
<title>Node17</title>
<g id="a_node17"><a xlink:title=" ">
<polygon fill="#e0e0e0" stroke="#999999" points="1887.5,-134.5 1828.5,-134.5 1828.5,-115.5 1887.5,-115.5 1887.5,-134.5"/>
<text text-anchor="middle" x="1858" y="-122.5" font-family="Helvetica,sans-Serif" font-size="10.00">complex</text>
</a>
</g>
</g>
<!-- Node15&#45;&gt;Node17 -->
<g id="edge22" class="edge">
<title>Node15&#45;&gt;Node17</title>
<path fill="none" stroke="#63b8ff" d="M1832.91,-181.37C1837.21,-171.88 1844.24,-156.36 1849.77,-144.16"/>
<polygon fill="#63b8ff" stroke="#63b8ff" points="1853.03,-145.46 1853.96,-134.91 1846.65,-142.57 1853.03,-145.46"/>
</g>
<!-- Node18 -->
<g id="node18" class="node">
<title>Node18</title>
<g id="a_node18"><a xlink:title=" ">
<polygon fill="#e0e0e0" stroke="#999999" points="1432,-74 1372,-74 1372,-55 1432,-55 1432,-74"/>
<text text-anchor="middle" x="1402" y="-62" font-family="Helvetica,sans-Serif" font-size="10.00">concepts</text>
</a>
</g>
</g>
<!-- Node15&#45;&gt;Node18 -->
<g id="edge23" class="edge">
<title>Node15&#45;&gt;Node18</title>
<path fill="none" stroke="#63b8ff" d="M1869.41,-181.49C1919.03,-169.33 1992.91,-144.55 1961,-110 1952.19,-100.46 1569.28,-75.88 1442.38,-67.98"/>
<polygon fill="#63b8ff" stroke="#63b8ff" points="1442.5,-64.48 1432.3,-67.36 1442.06,-71.47 1442.5,-64.48"/>
</g>
<!-- Node19&#45;&gt;Node6 -->
<g id="edge26" class="edge">
<title>Node19&#45;&gt;Node6</title>
<path fill="none" stroke="#63b8ff" d="M1234.44,-247.47C1282.57,-225.2 1412.22,-165.22 1469.34,-138.8"/>
<polygon fill="#63b8ff" stroke="#63b8ff" points="1470.89,-141.94 1478.49,-134.56 1467.95,-135.58 1470.89,-141.94"/>
</g>
<!-- Node20&#45;&gt;Node2 -->
<g id="edge28" class="edge">
<title>Node20&#45;&gt;Node2</title>
<path fill="none" stroke="#63b8ff" d="M393.7,-252.33C612.11,-241.15 1268.1,-207.56 1494.31,-195.98"/>
<polygon fill="#63b8ff" stroke="#63b8ff" points="1494.62,-199.47 1504.43,-195.46 1494.27,-192.48 1494.62,-199.47"/>
</g>
<!-- Node20&#45;&gt;Node11 -->
<g id="edge30" class="edge">
<title>Node20&#45;&gt;Node11</title>
<path fill="none" stroke="#63b8ff" d="M319.44,-247.47C313.22,-226.73 297.17,-173.24 288.6,-144.66"/>
<polygon fill="#63b8ff" stroke="#63b8ff" points="291.85,-143.3 285.62,-134.73 285.14,-145.32 291.85,-143.3"/>
</g>
<!-- Node21 -->
<g id="node21" class="node">
<title>Node21</title>
<g id="a_node21"><a xlink:title=" ">
<polygon fill="#e0e0e0" stroke="#999999" points="382,-200.5 326,-200.5 326,-181.5 382,-181.5 382,-200.5"/>
<text text-anchor="middle" x="354" y="-188.5" font-family="Helvetica,sans-Serif" font-size="10.00">optional</text>
</a>
</g>
</g>
<!-- Node20&#45;&gt;Node21 -->
<g id="edge29" class="edge">
<title>Node20&#45;&gt;Node21</title>
<path fill="none" stroke="#63b8ff" d="M326.32,-247.37C331.06,-237.88 338.82,-222.36 344.92,-210.16"/>
<polygon fill="#63b8ff" stroke="#63b8ff" points="348.21,-211.41 349.55,-200.91 341.94,-208.28 348.21,-211.41"/>
</g>
<!-- Node20&#45;&gt;Node22 -->
<g id="edge31" class="edge">
<title>Node20&#45;&gt;Node22</title>
<path fill="none" stroke="#63b8ff" d="M314.29,-247.37C298.26,-228.97 261.16,-183.99 241,-140 232.68,-121.84 227.59,-99.45 224.8,-83.98"/>
<polygon fill="#63b8ff" stroke="#63b8ff" points="228.25,-83.39 223.17,-74.1 221.35,-84.54 228.25,-83.39"/>
</g>
<!-- Node23&#45;&gt;Node8 -->
<g id="edge33" class="edge">
<title>Node23&#45;&gt;Node8</title>
<path fill="none" stroke="#63b8ff" d="M564.15,-181.34C563.98,-165.54 561.54,-131.68 545,-110 509.61,-63.62 446.12,-36.09 404.27,-22.13"/>
<polygon fill="#63b8ff" stroke="#63b8ff" points="405.24,-18.77 394.65,-19.03 403.1,-25.43 405.24,-18.77"/>
</g>
<!-- Node23&#45;&gt;Node11 -->
<g id="edge34" class="edge">
<title>Node23&#45;&gt;Node11</title>
<path fill="none" stroke="#63b8ff" d="M526.39,-181.44C474.27,-169.56 380.32,-148.17 325.65,-135.71"/>
<polygon fill="#63b8ff" stroke="#63b8ff" points="326.11,-132.23 315.59,-133.42 324.56,-139.06 326.11,-132.23"/>
</g>
<!-- Node24&#45;&gt;Node25 -->
<g id="edge36" class="edge">
<title>Node24&#45;&gt;Node25</title>
<path fill="none" stroke="#63b8ff" d="M1011.36,-241.8C997.88,-231.53 979.69,-217.67 965.92,-207.18"/>
<polygon fill="#63b8ff" stroke="#63b8ff" points="967.68,-204.12 957.61,-200.84 963.44,-209.69 967.68,-204.12"/>
</g>
<!-- Node34 -->
<g id="node34" class="node">
<title>Node34</title>
<g id="a_node34"><a xlink:title=" ">
<polygon fill="#e0e0e0" stroke="#999999" points="1381.5,-134.5 1316.5,-134.5 1316.5,-115.5 1381.5,-115.5 1381.5,-134.5"/>
<text text-anchor="middle" x="1349" y="-122.5" font-family="Helvetica,sans-Serif" font-size="10.00">functional</text>
</a>
</g>
</g>
<!-- Node24&#45;&gt;Node34 -->
<g id="edge57" class="edge">
<title>Node24&#45;&gt;Node34</title>
<path fill="none" stroke="#63b8ff" d="M1038.14,-241.81C1049.49,-223.44 1071.88,-191.88 1100,-176 1179.4,-131.15 1213.27,-161.05 1302,-140 1305.42,-139.19 1308.95,-138.28 1312.48,-137.32"/>
<polygon fill="#63b8ff" stroke="#63b8ff" points="1313.64,-140.63 1322.3,-134.52 1311.72,-133.89 1313.64,-140.63"/>
</g>
<!-- Node25&#45;&gt;Node5 -->
<g id="edge54" class="edge">
<title>Node25&#45;&gt;Node5</title>
<path fill="none" stroke="#63b8ff" d="M1012.49,-181.47C1099.87,-169.99 1244.99,-149.86 1268,-140 1288.1,-131.39 1286.84,-118.48 1307,-110 1397.48,-71.96 1514.15,-65.29 1577.03,-64.77"/>
<polygon fill="#63b8ff" stroke="#63b8ff" points="1577.4,-68.27 1587.39,-64.73 1577.38,-61.27 1577.4,-68.27"/>
</g>
<!-- Node25&#45;&gt;Node7 -->
<g id="edge37" class="edge">
<title>Node25&#45;&gt;Node7</title>
<path fill="none" stroke="#63b8ff" d="M868.48,-187.01C727.19,-180.95 438.81,-165.61 401,-140 382.07,-127.18 372.05,-101.93 367.14,-84.41"/>
<polygon fill="#63b8ff" stroke="#63b8ff" points="370.41,-83.07 364.61,-74.21 363.62,-84.76 370.41,-83.07"/>
</g>
<!-- Node25&#45;&gt;Node11 -->
<g id="edge53" class="edge">
<title>Node25&#45;&gt;Node11</title>
<path fill="none" stroke="#63b8ff" d="M868.2,-185.18C757.02,-177.86 546.39,-162.37 368,-140 354.16,-138.26 339.13,-135.94 325.61,-133.68"/>
<polygon fill="#63b8ff" stroke="#63b8ff" points="326.05,-130.2 315.61,-131.97 324.88,-137.1 326.05,-130.2"/>
</g>
<!-- Node26 -->
<g id="node26" class="node">
<title>Node26</title>
<g id="a_node26"><a xlink:href="demangled-typename_8hpp.html" target="_top" xlink:title=" ">
<polygon fill="white" stroke="#666666" points="536,-140 410,-140 410,-110 536,-110 536,-140"/>
<text text-anchor="start" x="418" y="-128" font-family="Helvetica,sans-Serif" font-size="10.00">alpaqa/util/demangled</text>
<text text-anchor="middle" x="473" y="-117" font-family="Helvetica,sans-Serif" font-size="10.00">&#45;typename.hpp</text>
</a>
</g>
</g>
<!-- Node25&#45;&gt;Node26 -->
<g id="edge38" class="edge">
<title>Node25&#45;&gt;Node26</title>
<path fill="none" stroke="#63b8ff" d="M882.7,-181.44C795.47,-169.63 638.66,-148.41 546.4,-135.93"/>
<polygon fill="#63b8ff" stroke="#63b8ff" points="546.68,-132.44 536.3,-134.57 545.74,-139.37 546.68,-132.44"/>
</g>
<!-- Node27 -->
<g id="node27" class="node">
<title>Node27</title>
<g id="a_node27"><a xlink:title=" ">
<polygon fill="#e0e0e0" stroke="#999999" points="649.5,-74 592.5,-74 592.5,-55 649.5,-55 649.5,-74"/>
<text text-anchor="middle" x="621" y="-62" font-family="Helvetica,sans-Serif" font-size="10.00">typeinfo</text>
</a>
</g>
</g>
<!-- Node25&#45;&gt;Node27 -->
<g id="edge55" class="edge">
<title>Node25&#45;&gt;Node27</title>
<path fill="none" stroke="#63b8ff" d="M868.26,-189.24C782.43,-186.55 652.22,-176.4 621,-140 607.87,-124.7 610.73,-100.42 614.97,-83.76"/>
<polygon fill="#63b8ff" stroke="#63b8ff" points="618.36,-84.66 617.81,-74.08 611.64,-82.7 618.36,-84.66"/>
</g>
<!-- Node28 -->
<g id="node28" class="node">
<title>Node28</title>
<g id="a_node28"><a xlink:href="noop-delete_8hpp.html" target="_top" xlink:title=" ">
<polygon fill="white" stroke="#666666" points="781.5,-134.5 630.5,-134.5 630.5,-115.5 781.5,-115.5 781.5,-134.5"/>
<text text-anchor="middle" x="706" y="-122.5" font-family="Helvetica,sans-Serif" font-size="10.00">alpaqa/util/noop&#45;delete.hpp</text>
</a>
</g>
</g>
<!-- Node25&#45;&gt;Node28 -->
<g id="edge42" class="edge">
<title>Node25&#45;&gt;Node28</title>
<path fill="none" stroke="#63b8ff" d="M913.63,-181.37C870.84,-169.96 795.35,-149.83 748.15,-137.24"/>
<polygon fill="#63b8ff" stroke="#63b8ff" points="748.8,-133.79 738.24,-134.6 747,-140.56 748.8,-133.79"/>
</g>
<!-- Node29 -->
<g id="node29" class="node">
<title>Node29</title>
<g id="a_node29"><a xlink:href="type-traits_8hpp.html" target="_top" xlink:title=" ">
<polygon fill="white" stroke="#666666" points="1259.5,-134.5 1116.5,-134.5 1116.5,-115.5 1259.5,-115.5 1259.5,-134.5"/>
<text text-anchor="middle" x="1188" y="-122.5" font-family="Helvetica,sans-Serif" font-size="10.00">alpaqa/util/type&#45;traits.hpp</text>
</a>
</g>
</g>
<!-- Node25&#45;&gt;Node29 -->
<g id="edge43" class="edge">
<title>Node25&#45;&gt;Node29</title>
<path fill="none" stroke="#63b8ff" d="M978.39,-181.44C1021.67,-169.99 1098.45,-149.68 1146.1,-137.08"/>
<polygon fill="#63b8ff" stroke="#63b8ff" points="1147.03,-140.45 1155.81,-134.51 1145.24,-133.69 1147.03,-140.45"/>
</g>
<!-- Node30 -->
<g id="node30" class="node">
<title>Node30</title>
<g id="a_node30"><a xlink:title=" ">
<polygon fill="#e0e0e0" stroke="#999999" points="1028,-74 970,-74 970,-55 1028,-55 1028,-74"/>
<text text-anchor="middle" x="999" y="-62" font-family="Helvetica,sans-Serif" font-size="10.00">memory</text>
</a>
</g>
</g>
<!-- Node25&#45;&gt;Node30 -->
<g id="edge51" class="edge">
<title>Node25&#45;&gt;Node30</title>
<path fill="none" stroke="#63b8ff" d="M911.11,-181.49C867.76,-169.24 802.54,-144.28 829,-110 844.87,-89.44 914.81,-76.55 959.89,-70.22"/>
<polygon fill="#63b8ff" stroke="#63b8ff" points="960.49,-73.67 969.93,-68.85 959.55,-66.73 960.49,-73.67"/>
</g>
<!-- Node31 -->
<g id="node31" class="node">
<title>Node31</title>
<g id="a_node31"><a xlink:title=" ">
<polygon fill="#e0e0e0" stroke="#999999" points="902,-134.5 838,-134.5 838,-115.5 902,-115.5 902,-134.5"/>
<text text-anchor="middle" x="870" y="-122.5" font-family="Helvetica,sans-Serif" font-size="10.00">algorithm</text>
</a>
</g>
</g>
<!-- Node25&#45;&gt;Node31 -->
<g id="edge47" class="edge">
<title>Node25&#45;&gt;Node31</title>
<path fill="none" stroke="#63b8ff" d="M935.75,-181.37C923.69,-171.21 903.44,-154.16 888.59,-141.65"/>
<polygon fill="#63b8ff" stroke="#63b8ff" points="890.48,-138.67 880.57,-134.91 885.97,-144.02 890.48,-138.67"/>
</g>
<!-- Node32 -->
<g id="node32" class="node">
<title>Node32</title>
<g id="a_node32"><a xlink:title=" ">
<polygon fill="#e0e0e0" stroke="#999999" points="972,-134.5 920,-134.5 920,-115.5 972,-115.5 972,-134.5"/>
<text text-anchor="middle" x="946" y="-122.5" font-family="Helvetica,sans-Serif" font-size="10.00">cassert</text>
</a>
</g>
</g>
<!-- Node25&#45;&gt;Node32 -->
<g id="edge48" class="edge">
<title>Node25&#45;&gt;Node32</title>
<path fill="none" stroke="#63b8ff" d="M946,-181.37C946,-172.16 946,-157.29 946,-145.27"/>
<polygon fill="#63b8ff" stroke="#63b8ff" points="949.5,-144.91 946,-134.91 942.5,-144.91 949.5,-144.91"/>
</g>
<!-- Node33 -->
<g id="node33" class="node">
<title>Node33</title>
<g id="a_node33"><a xlink:title=" ">
<polygon fill="#e0e0e0" stroke="#999999" points="1043.5,-134.5 990.5,-134.5 990.5,-115.5 1043.5,-115.5 1043.5,-134.5"/>
<text text-anchor="middle" x="1017" y="-122.5" font-family="Helvetica,sans-Serif" font-size="10.00">cstddef</text>
</a>
</g>
</g>
<!-- Node25&#45;&gt;Node33 -->
<g id="edge49" class="edge">
<title>Node25&#45;&gt;Node33</title>
<path fill="none" stroke="#63b8ff" d="M955.58,-181.37C966.84,-171.21 985.76,-154.16 999.63,-141.65"/>
<polygon fill="#63b8ff" stroke="#63b8ff" points="1002.04,-144.2 1007.12,-134.91 997.35,-139 1002.04,-144.2"/>
</g>
<!-- Node25&#45;&gt;Node34 -->
<g id="edge50" class="edge">
<title>Node25&#45;&gt;Node34</title>
<path fill="none" stroke="#63b8ff" d="M1008.51,-181.47C1106.8,-168.02 1287.84,-143.08 1302,-140 1305.62,-139.21 1309.38,-138.28 1313.11,-137.29"/>
<polygon fill="#63b8ff" stroke="#63b8ff" points="1314.16,-140.63 1322.83,-134.55 1312.26,-133.89 1314.16,-140.63"/>
</g>
<!-- Node35 -->
<g id="node35" class="node">
<title>Node35</title>
<g id="a_node35"><a xlink:title=" ">
<polygon fill="#e0e0e0" stroke="#999999" points="1098.5,-134.5 1061.5,-134.5 1061.5,-115.5 1098.5,-115.5 1098.5,-134.5"/>
<text text-anchor="middle" x="1080" y="-122.5" font-family="Helvetica,sans-Serif" font-size="10.00">new</text>
</a>
</g>
</g>
<!-- Node25&#45;&gt;Node35 -->
<g id="edge52" class="edge">
<title>Node25&#45;&gt;Node35</title>
<path fill="none" stroke="#63b8ff" d="M964.44,-181.46C985.64,-171.6 1021.44,-154.85 1052,-140 1052.68,-139.67 1053.37,-139.34 1054.06,-139"/>
<polygon fill="#63b8ff" stroke="#63b8ff" points="1055.74,-142.07 1063.15,-134.5 1052.64,-135.8 1055.74,-142.07"/>
</g>
<!-- Node25&#45;&gt;Node36 -->
<g id="edge56" class="edge">
<title>Node25&#45;&gt;Node36</title>
<path fill="none" stroke="#63b8ff" d="M1023.91,-182.51C1141.83,-170.97 1355.58,-149.24 1390,-140 1391.89,-139.49 1393.81,-138.89 1395.72,-138.23"/>
<polygon fill="#63b8ff" stroke="#63b8ff" points="1397.06,-141.46 1405.07,-134.53 1394.48,-134.95 1397.06,-141.46"/>
</g>
<!-- Node26&#45;&gt;Node7 -->
<g id="edge39" class="edge">
<title>Node26&#45;&gt;Node7</title>
<path fill="none" stroke="#63b8ff" d="M446.65,-109.99C428.95,-100.58 405.77,-88.24 388.29,-78.95"/>
<polygon fill="#63b8ff" stroke="#63b8ff" points="389.72,-75.74 379.24,-74.14 386.43,-81.92 389.72,-75.74"/>
</g>
<!-- Node26&#45;&gt;Node22 -->
<g id="edge40" class="edge">
<title>Node26&#45;&gt;Node22</title>
<path fill="none" stroke="#63b8ff" d="M412.88,-109.99C362.95,-98.35 293.88,-82.25 253.97,-72.95"/>
<polygon fill="#63b8ff" stroke="#63b8ff" points="254.54,-69.49 244,-70.63 252.95,-76.31 254.54,-69.49"/>
</g>
<!-- Node26&#45;&gt;Node27 -->
<g id="edge41" class="edge">
<title>Node26&#45;&gt;Node27</title>
<path fill="none" stroke="#63b8ff" d="M508.45,-109.99C533.14,-100.23 565.78,-87.33 589.55,-77.93"/>
<polygon fill="#63b8ff" stroke="#63b8ff" points="591.13,-81.07 599.14,-74.14 588.56,-74.56 591.13,-81.07"/>
</g>
<!-- Node29&#45;&gt;Node5 -->
<g id="edge46" class="edge">
<title>Node29&#45;&gt;Node5</title>
<path fill="none" stroke="#63b8ff" d="M1238.43,-115.49C1250.1,-113.61 1262.47,-111.67 1274,-110 1382.71,-94.21 1510.97,-78.58 1577.27,-70.72"/>
<polygon fill="#63b8ff" stroke="#63b8ff" points="1577.85,-74.18 1587.37,-69.53 1577.03,-67.23 1577.85,-74.18"/>
</g>
<!-- Node29&#45;&gt;Node18 -->
<g id="edge44" class="edge">
<title>Node29&#45;&gt;Node18</title>
<path fill="none" stroke="#63b8ff" d="M1219.12,-115.49C1256.92,-105.16 1320.76,-87.71 1362.13,-76.4"/>
<polygon fill="#63b8ff" stroke="#63b8ff" points="1363.16,-79.75 1371.88,-73.73 1361.31,-72.99 1363.16,-79.75"/>
</g>
<!-- Node29&#45;&gt;Node30 -->
<g id="edge45" class="edge">
<title>Node29&#45;&gt;Node30</title>
<path fill="none" stroke="#63b8ff" d="M1160.52,-115.49C1127.76,-105.36 1072.88,-88.37 1036.31,-77.05"/>
<polygon fill="#63b8ff" stroke="#63b8ff" points="1037.1,-73.63 1026.52,-74.02 1035.03,-80.32 1037.1,-73.63"/>
</g>
</g>
</svg>
