<?xml version="1.0" encoding="UTF-8" standalone="no"?>
<!DOCTYPE svg PUBLIC "-//W3C//DTD SVG 1.1//EN"
 "http://www.w3.org/Graphics/SVG/1.1/DTD/svg11.dtd">
<!-- Generated by graphviz version 2.43.0 (0)
 -->
<!-- Title: used Pages: 1 -->
<svg width="672pt" height="292pt"
 viewBox="0.00 0.00 672.00 292.00" xmlns="http://www.w3.org/2000/svg" xmlns:xlink="http://www.w3.org/1999/xlink">
<g id="graph0" class="graph" transform="scale(1 1) rotate(0) translate(4 288)">
<title>used</title>
<!-- Node1 -->
<g id="node1" class="node">
<title>Node1</title>
<g id="a_node1"><a xlink:title=" ">
<polygon fill="#999999" stroke="#666666" points="664,-208 624,-208 624,-189 664,-189 664,-208"/>
<text text-anchor="middle" x="644" y="-196" font-family="Helvetica,sans-Serif" font-size="10.00">used</text>
</a>
</g>
</g>
<!-- Node2 -->
<g id="node2" class="node">
<title>Node2</title>
<g id="a_node2"><a xlink:href="problem_8cpp.html#ae36fc572e3716fb2dbe8ff77cfe1ee10" target="_top" xlink:title=" ">
<polygon fill="white" stroke="#666666" points="318,-284 235,-284 235,-265 318,-265 318,-284"/>
<text text-anchor="middle" x="276.5" y="-272" font-family="Helvetica,sans-Serif" font-size="10.00">load_problem</text>
</a>
</g>
</g>
<!-- Node1&#45;&gt;Node2 -->
<g id="edge1" class="edge">
<title>Node1&#45;&gt;Node2</title>
<path fill="none" stroke="#63b8ff" d="M613.98,-209.46C581.37,-221.35 526.62,-240.03 478,-250.5 423.34,-262.28 358.96,-268.7 318.19,-271.86"/>
<polygon fill="#63b8ff" stroke="#63b8ff" points="615.59,-212.6 623.76,-205.86 613.16,-206.03 615.59,-212.6"/>
</g>
<!-- Node4 -->
<g id="node4" class="node">
<title>Node4</title>
<g id="a_node4"><a xlink:href="options_8hpp.html#a15ce06eb1492a582a4abe2ddd5e7f8a1" target="_top" xlink:title=" ">
<polygon fill="white" stroke="#666666" points="588,-151 514,-151 514,-132 588,-132 588,-151"/>
<text text-anchor="middle" x="551" y="-139" font-family="Helvetica,sans-Serif" font-size="10.00">set_params</text>
</a>
</g>
</g>
<!-- Node1&#45;&gt;Node4 -->
<g id="edge3" class="edge">
<title>Node1&#45;&gt;Node4</title>
<path fill="none" stroke="#63b8ff" d="M619.02,-183.48C602.61,-173.2 581.34,-159.88 567.21,-151.03"/>
<polygon fill="#63b8ff" stroke="#63b8ff" points="617.23,-186.49 627.56,-188.83 620.95,-180.56 617.23,-186.49"/>
</g>
<!-- Node3 -->
<g id="node3" class="node">
<title>Node3</title>
<g id="a_node3"><a xlink:href="alpaqa-driver_8cpp.html#ac0f2228420376f4db7e1274f2b41667c" target="_top" xlink:title=" ">
<polygon fill="white" stroke="#666666" points="41,-227 0,-227 0,-208 41,-208 41,-227"/>
<text text-anchor="middle" x="20.5" y="-215" font-family="Helvetica,sans-Serif" font-size="10.00">main</text>
</a>
</g>
</g>
<!-- Node2&#45;&gt;Node3 -->
<g id="edge2" class="edge">
<title>Node2&#45;&gt;Node3</title>
<path fill="none" stroke="#63b8ff" d="M224.62,-276.54C183.59,-276.56 125,-272.91 77,-255.5 59.65,-249.21 42.58,-236.21 32.05,-227.18"/>
<polygon fill="#63b8ff" stroke="#63b8ff" points="224.69,-280.04 234.66,-276.46 224.63,-273.04 224.69,-280.04"/>
</g>
<!-- Node5 -->
<g id="node5" class="node">
<title>Node5</title>
<g id="a_node5"><a xlink:href="alpaqa-driver_8cpp.html#abdc7f0491e5c38d6f9569a0aad3d2925" target="_top" xlink:title=" ">
<polygon fill="white" stroke="#666666" points="181,-246 80,-246 80,-227 181,-227 181,-246"/>
<text text-anchor="middle" x="130.5" y="-234" font-family="Helvetica,sans-Serif" font-size="10.00">get_output_paths</text>
</a>
</g>
</g>
<!-- Node4&#45;&gt;Node5 -->
<g id="edge4" class="edge">
<title>Node4&#45;&gt;Node5</title>
<path fill="none" stroke="#63b8ff" d="M533.66,-158.36C520.04,-171.3 499.47,-188.45 478,-197.5 378.85,-239.31 250.34,-241.86 181.04,-239.51"/>
<polygon fill="#63b8ff" stroke="#63b8ff" points="536.15,-160.82 540.82,-151.32 531.24,-155.83 536.15,-160.82"/>
</g>
<!-- Node6 -->
<g id="node6" class="node">
<title>Node6</title>
<g id="a_node6"><a xlink:href="alpaqa-driver_8cpp.html#a62667720f096806ed08c60e4207f8972" target="_top" xlink:title=" ">
<polygon fill="white" stroke="#666666" points="331,-208 222,-208 222,-189 331,-189 331,-208"/>
<text text-anchor="middle" x="276.5" y="-196" font-family="Helvetica,sans-Serif" font-size="10.00">get_output_stream</text>
</a>
</g>
</g>
<!-- Node4&#45;&gt;Node6 -->
<g id="edge6" class="edge">
<title>Node4&#45;&gt;Node6</title>
<path fill="none" stroke="#63b8ff" d="M524.04,-155.78C510.67,-162.51 493.87,-170.03 478,-174.5 429.41,-188.18 372.04,-194.07 331.15,-196.59"/>
<polygon fill="#63b8ff" stroke="#63b8ff" points="525.85,-158.78 533.12,-151.07 522.63,-152.57 525.85,-158.78"/>
</g>
<!-- Node7 -->
<g id="node7" class="node">
<title>Node7</title>
<g id="a_node7"><a xlink:href="alpaqa-driver_8cpp.html#a3430011226186bf05d5c2552270587b7" target="_top" xlink:title=" ">
<polygon fill="white" stroke="#666666" points="184,-151 77,-151 77,-132 184,-132 184,-151"/>
<text text-anchor="middle" x="130.5" y="-139" font-family="Helvetica,sans-Serif" font-size="10.00">get_solver_builder</text>
</a>
</g>
</g>
<!-- Node4&#45;&gt;Node7 -->
<g id="edge8" class="edge">
<title>Node4&#45;&gt;Node7</title>
<path fill="none" stroke="#63b8ff" d="M503.9,-141.5C425.49,-141.5 266.66,-141.5 184.06,-141.5"/>
<polygon fill="#63b8ff" stroke="#63b8ff" points="503.96,-145 513.96,-141.5 503.96,-138 503.96,-145"/>
</g>
<!-- Node8 -->
<g id="node8" class="node">
<title>Node8</title>
<g id="a_node8"><a xlink:href="alm-driver_8hpp.html#ae4ef291d9ec9d55ee804b5723ea2e641" target="_top" xlink:title=" ">
<polygon fill="white" stroke="#666666" points="475,-132 372,-132 372,-113 475,-113 475,-132"/>
<text text-anchor="middle" x="423.5" y="-120" font-family="Helvetica,sans-Serif" font-size="10.00">make_alm_solver</text>
</a>
</g>
</g>
<!-- Node4&#45;&gt;Node8 -->
<g id="edge10" class="edge">
<title>Node4&#45;&gt;Node8</title>
<path fill="none" stroke="#63b8ff" d="M503.53,-134.47C494.3,-133.07 484.56,-131.59 475.19,-130.17"/>
<polygon fill="#63b8ff" stroke="#63b8ff" points="503.29,-137.97 513.7,-136 504.34,-131.05 503.29,-137.97"/>
</g>
<!-- Node9 -->
<g id="node9" class="node">
<title>Node9</title>
<g id="a_node9"><a xlink:href="lbfgsb-driver_8cpp.html#a2123fa3dc6760812199393dc3dfbfa59" target="_top" xlink:title=" ">
<polygon fill="white" stroke="#666666" points="333,-132 220,-132 220,-113 333,-113 333,-132"/>
<text text-anchor="middle" x="276.5" y="-120" font-family="Helvetica,sans-Serif" font-size="10.00">make_lbfgsb_driver</text>
</a>
</g>
</g>
<!-- Node4&#45;&gt;Node9 -->
<g id="edge16" class="edge">
<title>Node4&#45;&gt;Node9</title>
<path fill="none" stroke="#63b8ff" d="M527.49,-126.4C513.82,-118.15 495.65,-108.77 478,-104.5 420.42,-90.57 351.19,-102.98 310.98,-112.95"/>
<polygon fill="#63b8ff" stroke="#63b8ff" points="525.85,-129.5 536.18,-131.85 529.57,-123.57 525.85,-129.5"/>
</g>
<!-- Node10 -->
<g id="node10" class="node">
<title>Node10</title>
<g id="a_node10"><a xlink:href="alm-driver_8hpp.html#a51b2a2cde56762bcb43a2f4da0913f98" target="_top" xlink:title=" ">
<polygon fill="white" stroke="#666666" points="478,-56 369,-56 369,-37 478,-37 478,-56"/>
<text text-anchor="middle" x="423.5" y="-44" font-family="Helvetica,sans-Serif" font-size="10.00">make_inner_solver</text>
</a>
</g>
</g>
<!-- Node4&#45;&gt;Node10 -->
<g id="edge13" class="edge">
<title>Node4&#45;&gt;Node10</title>
<path fill="none" stroke="#63b8ff" d="M535.33,-123.81C521.71,-108.23 500.25,-85.72 478,-70.5 469.68,-64.81 459.8,-59.93 450.8,-56.09"/>
<polygon fill="#63b8ff" stroke="#63b8ff" points="532.88,-126.33 542.04,-131.65 538.2,-121.78 532.88,-126.33"/>
</g>
<!-- Node11 -->
<g id="node11" class="node">
<title>Node11</title>
<g id="a_node11"><a xlink:href="ipopt-driver_8cpp.html#ac4ea8f713cf4da6e58caa134ca40b938" target="_top" xlink:title=" ">
<polygon fill="white" stroke="#666666" points="477,-19 370,-19 370,0 477,0 477,-19"/>
<text text-anchor="middle" x="423.5" y="-7" font-family="Helvetica,sans-Serif" font-size="10.00">make_ipopt_driver</text>
</a>
</g>
</g>
<!-- Node4&#45;&gt;Node11 -->
<g id="edge14" class="edge">
<title>Node4&#45;&gt;Node11</title>
<path fill="none" stroke="#63b8ff" d="M542.61,-122.09C532.03,-96.79 510.21,-52.81 478,-27.5 473.68,-24.11 468.7,-21.34 463.54,-19.08"/>
<polygon fill="#63b8ff" stroke="#63b8ff" points="539.49,-123.69 546.46,-131.67 545.98,-121.09 539.49,-123.69"/>
</g>
<!-- Node5&#45;&gt;Node3 -->
<g id="edge5" class="edge">
<title>Node5&#45;&gt;Node3</title>
<path fill="none" stroke="#63b8ff" d="M69.92,-226.02C59.51,-224.19 49.39,-222.41 41.11,-220.95"/>
<polygon fill="#63b8ff" stroke="#63b8ff" points="69.47,-229.49 79.93,-227.78 70.68,-222.6 69.47,-229.49"/>
</g>
<!-- Node6&#45;&gt;Node3 -->
<g id="edge7" class="edge">
<title>Node6&#45;&gt;Node3</title>
<path fill="none" stroke="#63b8ff" d="M211.73,-203.27C155.56,-207.47 77.23,-213.33 41.14,-216.03"/>
<polygon fill="#63b8ff" stroke="#63b8ff" points="212.23,-206.74 221.94,-202.51 211.71,-199.76 212.23,-206.74"/>
</g>
<!-- Node7&#45;&gt;Node3 -->
<g id="edge9" class="edge">
<title>Node7&#45;&gt;Node3</title>
<path fill="none" stroke="#63b8ff" d="M107.53,-156.96C85.81,-172.25 53.27,-195.14 35.07,-207.95"/>
<polygon fill="#63b8ff" stroke="#63b8ff" points="109.66,-159.74 115.82,-151.13 105.63,-154.02 109.66,-159.74"/>
</g>
<!-- Node8&#45;&gt;Node9 -->
<g id="edge11" class="edge">
<title>Node8&#45;&gt;Node9</title>
<path fill="none" stroke="#63b8ff" d="M361.73,-122.5C352.33,-122.5 342.66,-122.5 333.38,-122.5"/>
<polygon fill="#63b8ff" stroke="#63b8ff" points="361.79,-126 371.79,-122.5 361.79,-119 361.79,-126"/>
</g>
<!-- Node9&#45;&gt;Node7 -->
<g id="edge12" class="edge">
<title>Node9&#45;&gt;Node7</title>
<path fill="none" stroke="#63b8ff" d="M209.83,-131.17C201.24,-132.3 192.53,-133.45 184.19,-134.55"/>
<polygon fill="#63b8ff" stroke="#63b8ff" points="210.37,-134.62 219.83,-129.85 209.45,-127.68 210.37,-134.62"/>
</g>
<!-- Node11&#45;&gt;Node7 -->
<g id="edge15" class="edge">
<title>Node11&#45;&gt;Node7</title>
<path fill="none" stroke="#63b8ff" d="M382.23,-22.45C377.74,-24.07 373.25,-25.77 369,-27.5 285.11,-61.6 188.91,-111.15 149.63,-131.85"/>
<polygon fill="#63b8ff" stroke="#63b8ff" points="383.7,-25.65 391.99,-19.04 381.39,-19.04 383.7,-25.65"/>
</g>
</g>
</svg>
