<?xml version="1.0" encoding="UTF-8" standalone="no"?>
<!DOCTYPE svg PUBLIC "-//W3C//DTD SVG 1.1//EN"
 "http://www.w3.org/Graphics/SVG/1.1/DTD/svg11.dtd">
<!-- Generated by graphviz version 2.43.0 (0)
 -->
<!-- Title: get_box_C Pages: 1 -->
<svg width="255pt" height="86pt"
 viewBox="0.00 0.00 255.00 86.00" xmlns="http://www.w3.org/2000/svg" xmlns:xlink="http://www.w3.org/1999/xlink">
<g id="graph0" class="graph" transform="scale(1 1) rotate(0) translate(4 82)">
<title>get_box_C</title>
<!-- Node1 -->
<g id="node1" class="node">
<title>Node1</title>
<g id="a_node1"><a xlink:title="[Optional] Get the rectangular constraint set of the decision variables, .">
<polygon fill="#999999" stroke="#666666" points="247,-48.5 179,-48.5 179,-29.5 247,-29.5 247,-48.5"/>
<text text-anchor="middle" x="213" y="-36.5" font-family="Helvetica,sans-Serif" font-size="10.00">get_box_C</text>
</a>
</g>
</g>
<!-- Node2 -->
<g id="node2" class="node">
<title>Node2</title>
<g id="a_node2"><a xlink:href="structalpaqa_1_1StructuredNewtonDirection.html#ad02c79a109cef288e13bc9c944af3b48" target="_top" xlink:title=" ">
<polygon fill="white" stroke="#666666" points="143,-78 0,-78 0,-48 143,-48 143,-78"/>
<text text-anchor="start" x="8" y="-66" font-family="Helvetica,sans-Serif" font-size="10.00">alpaqa::StructuredNewton</text>
<text text-anchor="middle" x="71.5" y="-55" font-family="Helvetica,sans-Serif" font-size="10.00">Direction::apply</text>
</a>
</g>
</g>
<!-- Node1&#45;&gt;Node2 -->
<g id="edge1" class="edge">
<title>Node1&#45;&gt;Node2</title>
<path fill="none" stroke="#63b8ff" d="M168.93,-46.41C160.76,-47.82 152,-49.32 143.23,-50.83"/>
<polygon fill="#63b8ff" stroke="#63b8ff" points="169.68,-49.83 178.94,-44.69 168.49,-42.93 169.68,-49.83"/>
</g>
<!-- Node3 -->
<g id="node3" class="node">
<title>Node3</title>
<g id="a_node3"><a xlink:href="classalpaqa_1_1IpoptAdapter.html#a6a12b21a35ced53a439bfa2510029237" target="_top" xlink:title=" ">
<polygon fill="white" stroke="#666666" points="131,-30 12,-30 12,0 131,0 131,-30"/>
<text text-anchor="start" x="20" y="-18" font-family="Helvetica,sans-Serif" font-size="10.00">alpaqa::IpoptAdapter</text>
<text text-anchor="middle" x="71.5" y="-7" font-family="Helvetica,sans-Serif" font-size="10.00">::get_bounds_info</text>
</a>
</g>
</g>
<!-- Node1&#45;&gt;Node3 -->
<g id="edge2" class="edge">
<title>Node1&#45;&gt;Node3</title>
<path fill="none" stroke="#63b8ff" d="M168.85,-31.58C156.96,-29.53 143.86,-27.28 131.26,-25.11"/>
<polygon fill="#63b8ff" stroke="#63b8ff" points="168.49,-35.07 178.94,-33.31 169.68,-28.17 168.49,-35.07"/>
</g>
</g>
</svg>
