<?xml version="1.0" encoding="UTF-8" standalone="no"?>
<!DOCTYPE svg PUBLIC "-//W3C//DTD SVG 1.1//EN"
 "http://www.w3.org/Graphics/SVG/1.1/DTD/svg11.dtd">
<!-- Generated by graphviz version 2.43.0 (0)
 -->
<!-- Title: eval_h Pages: 1 -->
<svg width="215pt" height="86pt"
 viewBox="0.00 0.00 215.00 86.00" xmlns="http://www.w3.org/2000/svg" xmlns:xlink="http://www.w3.org/1999/xlink">
<g id="graph0" class="graph" transform="scale(1 1) rotate(0) translate(4 82)">
<title>eval_h</title>
<!-- Node1 -->
<g id="node1" class="node">
<title>Node1</title>
<g id="a_node1"><a xlink:title="Stage output mapping .">
<polygon fill="#999999" stroke="#666666" points="207,-48.5 158,-48.5 158,-29.5 207,-29.5 207,-48.5"/>
<text text-anchor="middle" x="182.5" y="-36.5" font-family="Helvetica,sans-Serif" font-size="10.00">eval_h</text>
</a>
</g>
</g>
<!-- Node2 -->
<g id="node2" class="node">
<title>Node2</title>
<g id="a_node2"><a xlink:href="structalpaqa_1_1OCPEvaluator.html#aa390f28c24f187326b60eedd7ff4fe66" target="_top" xlink:title=" ">
<polygon fill="white" stroke="#666666" points="122,-78 0,-78 0,-48 122,-48 122,-78"/>
<text text-anchor="start" x="8" y="-66" font-family="Helvetica,sans-Serif" font-size="10.00">alpaqa::OCPEvaluator</text>
<text text-anchor="middle" x="61" y="-55" font-family="Helvetica,sans-Serif" font-size="10.00">::forward</text>
</a>
</g>
</g>
<!-- Node1&#45;&gt;Node2 -->
<g id="edge1" class="edge">
<title>Node1&#45;&gt;Node2</title>
<path fill="none" stroke="#63b8ff" d="M147.86,-45.76C139.84,-47.37 131.04,-49.13 122.22,-50.91"/>
<polygon fill="#63b8ff" stroke="#63b8ff" points="148.78,-49.14 157.89,-43.74 147.4,-42.28 148.78,-49.14"/>
</g>
<!-- Node3 -->
<g id="node3" class="node">
<title>Node3</title>
<g id="a_node3"><a xlink:href="structalpaqa_1_1OCPEvaluator.html#a02a290de7f57c49cbc1ce72fbd8a69b3" target="_top" xlink:title=" ">
<polygon fill="white" stroke="#666666" points="122,-30 0,-30 0,0 122,0 122,-30"/>
<text text-anchor="start" x="8" y="-18" font-family="Helvetica,sans-Serif" font-size="10.00">alpaqa::OCPEvaluator</text>
<text text-anchor="middle" x="61" y="-7" font-family="Helvetica,sans-Serif" font-size="10.00">::forward_simulate</text>
</a>
</g>
</g>
<!-- Node1&#45;&gt;Node3 -->
<g id="edge2" class="edge">
<title>Node1&#45;&gt;Node3</title>
<path fill="none" stroke="#63b8ff" d="M147.86,-32.24C139.84,-30.63 131.04,-28.87 122.22,-27.09"/>
<polygon fill="#63b8ff" stroke="#63b8ff" points="147.4,-35.72 157.89,-34.26 148.78,-28.86 147.4,-35.72"/>
</g>
</g>
</svg>
