<?xml version="1.0" encoding="UTF-8" standalone="no"?>
<!DOCTYPE svg PUBLIC "-//W3C//DTD SVG 1.1//EN"
 "http://www.w3.org/Graphics/SVG/1.1/DTD/svg11.dtd">
<!-- Generated by graphviz version 2.43.0 (0)
 -->
<!-- Title: inner&#45;solve&#45;options.hpp Pages: 1 -->
<svg width="2519pt" height="269pt"
 viewBox="0.00 0.00 2519.00 269.00" xmlns="http://www.w3.org/2000/svg" xmlns:xlink="http://www.w3.org/1999/xlink">
<g id="graph0" class="graph" transform="scale(1 1) rotate(0) translate(4 265)">
<title>inner&#45;solve&#45;options.hpp</title>
<!-- Node1 -->
<g id="node1" class="node">
<title>Node1</title>
<g id="a_node1"><a xlink:title=" ">
<polygon fill="#999999" stroke="#666666" points="1229.5,-261 1097.5,-261 1097.5,-242 1229.5,-242 1229.5,-261"/>
<text text-anchor="middle" x="1163.5" y="-249" font-family="Helvetica,sans-Serif" font-size="10.00">inner&#45;solve&#45;options.hpp</text>
</a>
</g>
</g>
<!-- Node2 -->
<g id="node2" class="node">
<title>Node2</title>
<g id="a_node2"><a xlink:href="alm_8tpp.html" target="_top" xlink:title=" ">
<polygon fill="white" stroke="#666666" points="1281.5,-145.5 1227.5,-145.5 1227.5,-126.5 1281.5,-126.5 1281.5,-145.5"/>
<text text-anchor="middle" x="1254.5" y="-133.5" font-family="Helvetica,sans-Serif" font-size="10.00">alm.tpp</text>
</a>
</g>
</g>
<!-- Node1&#45;&gt;Node2 -->
<g id="edge1" class="edge">
<title>Node1&#45;&gt;Node2</title>
<path fill="none" stroke="#63b8ff" d="M1166.09,-231.87C1168.71,-218.39 1173.8,-200.27 1183.5,-187 1197.2,-168.26 1220.11,-153.97 1236.19,-145.56"/>
<polygon fill="#63b8ff" stroke="#63b8ff" points="1162.61,-231.47 1164.44,-241.91 1169.52,-232.61 1162.61,-231.47"/>
</g>
<!-- Node11 -->
<g id="node11" class="node">
<title>Node11</title>
<g id="a_node11"><a xlink:href="lbfgsb_2include_2alpaqa_2lbfgsb_2lbfgsb-adapter_8hpp.html" target="_top" xlink:title=" ">
<polygon fill="white" stroke="#666666" points="235.5,-145.5 127.5,-145.5 127.5,-126.5 235.5,-126.5 235.5,-145.5"/>
<text text-anchor="middle" x="181.5" y="-133.5" font-family="Helvetica,sans-Serif" font-size="10.00">lbfgsb&#45;adapter.hpp</text>
</a>
</g>
</g>
<!-- Node1&#45;&gt;Node11 -->
<g id="edge10" class="edge">
<title>Node1&#45;&gt;Node11</title>
<path fill="none" stroke="#63b8ff" d="M1087.02,-249.71C959.4,-247.48 695.27,-238.89 474.5,-206 376.55,-191.41 263.06,-160.61 210.71,-145.6"/>
<polygon fill="#63b8ff" stroke="#63b8ff" points="1087.02,-253.21 1097.08,-249.88 1087.14,-246.22 1087.02,-253.21"/>
</g>
<!-- Node14 -->
<g id="node14" class="node">
<title>Node14</title>
<g id="a_node14"><a xlink:href="lbfgspp_2include_2alpaqa_2lbfgsb-adapter_8hpp.html" target="_top" xlink:title=" ">
<polygon fill="white" stroke="#666666" points="2267.5,-206 2159.5,-206 2159.5,-187 2267.5,-187 2267.5,-206"/>
<text text-anchor="middle" x="2213.5" y="-194" font-family="Helvetica,sans-Serif" font-size="10.00">lbfgsb&#45;adapter.hpp</text>
</a>
</g>
</g>
<!-- Node1&#45;&gt;Node14 -->
<g id="edge14" class="edge">
<title>Node1&#45;&gt;Node14</title>
<path fill="none" stroke="#63b8ff" d="M1239.79,-246.65C1441.49,-236.47 1985.3,-209.02 2159.22,-200.24"/>
<polygon fill="#63b8ff" stroke="#63b8ff" points="1239.39,-243.16 1229.58,-247.16 1239.74,-250.16 1239.39,-243.16"/>
</g>
<!-- Node17 -->
<g id="node17" class="node">
<title>Node17</title>
<g id="a_node17"><a xlink:href="panoc-helpers_8tpp.html" target="_top" xlink:title=" ">
<polygon fill="white" stroke="#666666" points="941.5,-206 837.5,-206 837.5,-187 941.5,-187 941.5,-206"/>
<text text-anchor="middle" x="889.5" y="-194" font-family="Helvetica,sans-Serif" font-size="10.00">panoc&#45;helpers.tpp</text>
</a>
</g>
</g>
<!-- Node1&#45;&gt;Node17 -->
<g id="edge17" class="edge">
<title>Node1&#45;&gt;Node17</title>
<path fill="none" stroke="#63b8ff" d="M1109.55,-240.07C1058.19,-230.13 981.8,-215.35 933.87,-206.08"/>
<polygon fill="#63b8ff" stroke="#63b8ff" points="1108.99,-243.52 1119.48,-241.98 1110.32,-236.65 1108.99,-243.52"/>
</g>
<!-- Node28 -->
<g id="node28" class="node">
<title>Node28</title>
<g id="a_node28"><a xlink:href="panoc_8hpp.html" target="_top" xlink:title=" ">
<polygon fill="white" stroke="#666666" points="1897,-206 1830,-206 1830,-187 1897,-187 1897,-206"/>
<text text-anchor="middle" x="1863.5" y="-194" font-family="Helvetica,sans-Serif" font-size="10.00">panoc.hpp</text>
</a>
</g>
</g>
<!-- Node1&#45;&gt;Node28 -->
<g id="edge37" class="edge">
<title>Node1&#45;&gt;Node28</title>
<path fill="none" stroke="#63b8ff" d="M1239.79,-244.72C1390.91,-233.28 1722.9,-208.15 1829.7,-200.06"/>
<polygon fill="#63b8ff" stroke="#63b8ff" points="1239.38,-241.24 1229.67,-245.49 1239.91,-248.22 1239.38,-241.24"/>
</g>
<!-- Node39 -->
<g id="node39" class="node">
<title>Node39</title>
<g id="a_node39"><a xlink:href="pantr_8hpp.html" target="_top" xlink:title=" ">
<polygon fill="white" stroke="#666666" points="545.5,-206 483.5,-206 483.5,-187 545.5,-187 545.5,-206"/>
<text text-anchor="middle" x="514.5" y="-194" font-family="Helvetica,sans-Serif" font-size="10.00">pantr.hpp</text>
</a>
</g>
</g>
<!-- Node1&#45;&gt;Node39 -->
<g id="edge55" class="edge">
<title>Node1&#45;&gt;Node39</title>
<path fill="none" stroke="#63b8ff" d="M1087.41,-244.29C944.86,-232.65 643.15,-208.01 545.62,-200.04"/>
<polygon fill="#63b8ff" stroke="#63b8ff" points="1087.15,-247.78 1097.4,-245.1 1087.72,-240.8 1087.15,-247.78"/>
</g>
<!-- Node42 -->
<g id="node42" class="node">
<title>Node42</title>
<g id="a_node42"><a xlink:href="zerofpr_8hpp.html" target="_top" xlink:title=" ">
<polygon fill="white" stroke="#666666" points="1263,-206 1192,-206 1192,-187 1263,-187 1263,-206"/>
<text text-anchor="middle" x="1227.5" y="-194" font-family="Helvetica,sans-Serif" font-size="10.00">zerofpr.hpp</text>
</a>
</g>
</g>
<!-- Node1&#45;&gt;Node42 -->
<g id="edge61" class="edge">
<title>Node1&#45;&gt;Node42</title>
<path fill="none" stroke="#63b8ff" d="M1181.49,-235.6C1192.96,-226.11 1207.41,-214.13 1217.03,-206.17"/>
<polygon fill="#63b8ff" stroke="#63b8ff" points="1179.25,-232.91 1173.78,-241.98 1183.72,-238.3 1179.25,-232.91"/>
</g>
<!-- Node3 -->
<g id="node3" class="node">
<title>Node3</title>
<g id="a_node3"><a xlink:href="lbfgsb-driver_8cpp.html" target="_top" xlink:title=" ">
<polygon fill="white" stroke="#666666" points="348.5,-79.5 250.5,-79.5 250.5,-60.5 348.5,-60.5 348.5,-79.5"/>
<text text-anchor="middle" x="299.5" y="-67.5" font-family="Helvetica,sans-Serif" font-size="10.00">lbfgsb&#45;driver.cpp</text>
</a>
</g>
</g>
<!-- Node2&#45;&gt;Node3 -->
<g id="edge2" class="edge">
<title>Node2&#45;&gt;Node3</title>
<path fill="none" stroke="#63b8ff" d="M1226.17,-123C1223.61,-122.22 1221.03,-121.53 1218.5,-121 843.62,-42.53 736.79,-138.19 357.5,-85 348.47,-83.73 338.8,-81.68 329.99,-79.54"/>
<polygon fill="#63b8ff" stroke="#63b8ff" points="1225.2,-126.37 1235.8,-126.39 1227.53,-119.77 1225.2,-126.37"/>
</g>
<!-- Node4 -->
<g id="node4" class="node">
<title>Node4</title>
<g id="a_node4"><a xlink:href="newton-tr-pantr-alm_8cpp.html" target="_top" xlink:title=" ">
<polygon fill="white" stroke="#666666" points="582.5,-79.5 446.5,-79.5 446.5,-60.5 582.5,-60.5 582.5,-79.5"/>
<text text-anchor="middle" x="514.5" y="-67.5" font-family="Helvetica,sans-Serif" font-size="10.00">newton&#45;tr&#45;pantr&#45;alm.cpp</text>
</a>
</g>
</g>
<!-- Node2&#45;&gt;Node4 -->
<g id="edge3" class="edge">
<title>Node2&#45;&gt;Node4</title>
<path fill="none" stroke="#63b8ff" d="M1226.16,-123.04C1223.6,-122.25 1221.02,-121.55 1218.5,-121 945.75,-61.69 868.66,-118.03 591.5,-85 580.03,-83.63 567.69,-81.63 556.32,-79.57"/>
<polygon fill="#63b8ff" stroke="#63b8ff" points="1225.19,-126.41 1235.79,-126.45 1227.53,-119.81 1225.19,-126.41"/>
</g>
<!-- Node5 -->
<g id="node5" class="node">
<title>Node5</title>
<g id="a_node5"><a xlink:href="panoc-alm_8cpp.html" target="_top" xlink:title=" ">
<polygon fill="white" stroke="#666666" points="1904,-79.5 1815,-79.5 1815,-60.5 1904,-60.5 1904,-79.5"/>
<text text-anchor="middle" x="1859.5" y="-67.5" font-family="Helvetica,sans-Serif" font-size="10.00">panoc&#45;alm.cpp</text>
</a>
</g>
</g>
<!-- Node2&#45;&gt;Node5 -->
<g id="edge4" class="edge">
<title>Node2&#45;&gt;Node5</title>
<path fill="none" stroke="#63b8ff" d="M1283.37,-123.17C1286.09,-122.33 1288.82,-121.59 1291.5,-121 1515.19,-71.96 1579.49,-121.89 1805.5,-85 1813.72,-83.66 1822.51,-81.64 1830.56,-79.55"/>
<polygon fill="#63b8ff" stroke="#63b8ff" points="1282.06,-119.91 1273.76,-126.5 1284.36,-126.53 1282.06,-119.91"/>
</g>
<!-- Node6 -->
<g id="node6" class="node">
<title>Node6</title>
<g id="a_node6"><a xlink:href="panoc-anderson-alm_8cpp.html" target="_top" xlink:title=" ">
<polygon fill="white" stroke="#666666" points="1712,-79.5 1575,-79.5 1575,-60.5 1712,-60.5 1712,-79.5"/>
<text text-anchor="middle" x="1643.5" y="-67.5" font-family="Helvetica,sans-Serif" font-size="10.00">panoc&#45;anderson&#45;alm.cpp</text>
</a>
</g>
</g>
<!-- Node2&#45;&gt;Node6 -->
<g id="edge5" class="edge">
<title>Node2&#45;&gt;Node6</title>
<path fill="none" stroke="#63b8ff" d="M1284.05,-123.16C1286.55,-122.36 1289.06,-121.63 1291.5,-121 1318.59,-114.04 1483.77,-91.87 1577.92,-79.52"/>
<polygon fill="#63b8ff" stroke="#63b8ff" points="1282.88,-119.87 1274.6,-126.48 1285.19,-126.47 1282.88,-119.87"/>
</g>
<!-- Node7 -->
<g id="node7" class="node">
<title>Node7</title>
<g id="a_node7"><a xlink:href="structured-panoc-alm_8cpp.html" target="_top" xlink:title=" ">
<polygon fill="white" stroke="#666666" points="1519.5,-79.5 1377.5,-79.5 1377.5,-60.5 1519.5,-60.5 1519.5,-79.5"/>
<text text-anchor="middle" x="1448.5" y="-67.5" font-family="Helvetica,sans-Serif" font-size="10.00">structured&#45;panoc&#45;alm.cpp</text>
</a>
</g>
</g>
<!-- Node2&#45;&gt;Node7 -->
<g id="edge6" class="edge">
<title>Node2&#45;&gt;Node7</title>
<path fill="none" stroke="#63b8ff" d="M1286.46,-122.79C1288.16,-122.17 1289.85,-121.57 1291.5,-121 1336.08,-105.48 1388.41,-89.2 1419.99,-79.58"/>
<polygon fill="#63b8ff" stroke="#63b8ff" points="1284.91,-119.63 1276.73,-126.37 1287.33,-126.2 1284.91,-119.63"/>
</g>
<!-- Node8 -->
<g id="node8" class="node">
<title>Node8</title>
<g id="a_node8"><a xlink:href="structured-zerofpr-alm_8cpp.html" target="_top" xlink:title=" ">
<polygon fill="white" stroke="#666666" points="959.5,-85 855.5,-85 855.5,-55 959.5,-55 959.5,-85"/>
<text text-anchor="start" x="863.5" y="-73" font-family="Helvetica,sans-Serif" font-size="10.00">structured&#45;zerofpr</text>
<text text-anchor="middle" x="907.5" y="-62" font-family="Helvetica,sans-Serif" font-size="10.00">&#45;alm.cpp</text>
</a>
</g>
</g>
<!-- Node2&#45;&gt;Node8 -->
<g id="edge7" class="edge">
<title>Node2&#45;&gt;Node8</title>
<path fill="none" stroke="#63b8ff" d="M1225.5,-123.08C1223.15,-122.31 1220.8,-121.6 1218.5,-121 1110.36,-92.55 1079.45,-105.33 969.5,-85 966.24,-84.4 962.9,-83.75 959.53,-83.06"/>
<polygon fill="#63b8ff" stroke="#63b8ff" points="1224.37,-126.39 1234.96,-126.47 1226.73,-119.8 1224.37,-126.39"/>
</g>
<!-- Node9 -->
<g id="node9" class="node">
<title>Node9</title>
<g id="a_node9"><a xlink:href="zerofpr-alm_8cpp.html" target="_top" xlink:title=" ">
<polygon fill="white" stroke="#666666" points="1322.5,-79.5 1228.5,-79.5 1228.5,-60.5 1322.5,-60.5 1322.5,-79.5"/>
<text text-anchor="middle" x="1275.5" y="-67.5" font-family="Helvetica,sans-Serif" font-size="10.00">zerofpr&#45;alm.cpp</text>
</a>
</g>
</g>
<!-- Node2&#45;&gt;Node9 -->
<g id="edge8" class="edge">
<title>Node2&#45;&gt;Node9</title>
<path fill="none" stroke="#63b8ff" d="M1260.47,-116.82C1264.43,-104.74 1269.46,-89.41 1272.58,-79.91"/>
<polygon fill="#63b8ff" stroke="#63b8ff" points="1257.12,-115.78 1257.33,-126.37 1263.78,-117.96 1257.12,-115.78"/>
</g>
<!-- Node10 -->
<g id="node10" class="node">
<title>Node10</title>
<g id="a_node10"><a xlink:href="zerofpr-anderson-alm_8cpp.html" target="_top" xlink:title=" ">
<polygon fill="white" stroke="#666666" points="1210,-79.5 1067,-79.5 1067,-60.5 1210,-60.5 1210,-79.5"/>
<text text-anchor="middle" x="1138.5" y="-67.5" font-family="Helvetica,sans-Serif" font-size="10.00">zerofpr&#45;anderson&#45;alm.cpp</text>
</a>
</g>
</g>
<!-- Node2&#45;&gt;Node10 -->
<g id="edge9" class="edge">
<title>Node2&#45;&gt;Node10</title>
<path fill="none" stroke="#63b8ff" d="M1230.08,-121.53C1207.23,-108.92 1173.78,-90.47 1154.27,-79.7"/>
<polygon fill="#63b8ff" stroke="#63b8ff" points="1228.41,-124.6 1238.86,-126.37 1231.79,-118.47 1228.41,-124.6"/>
</g>
<!-- Node11&#45;&gt;Node3 -->
<g id="edge12" class="edge">
<title>Node11&#45;&gt;Node3</title>
<path fill="none" stroke="#63b8ff" d="M206.34,-121.53C229.58,-108.92 263.61,-90.47 283.46,-79.7"/>
<polygon fill="#63b8ff" stroke="#63b8ff" points="204.54,-118.52 197.41,-126.37 207.87,-124.68 204.54,-118.52"/>
</g>
<!-- Node12 -->
<g id="node12" class="node">
<title>Node12</title>
<g id="a_node12"><a xlink:href="lbfgsb_2src_2lbfgsb-adapter_8cpp.html" target="_top" xlink:title=" ">
<polygon fill="white" stroke="#666666" points="232,-79.5 125,-79.5 125,-60.5 232,-60.5 232,-79.5"/>
<text text-anchor="middle" x="178.5" y="-67.5" font-family="Helvetica,sans-Serif" font-size="10.00">lbfgsb&#45;adapter.cpp</text>
</a>
</g>
</g>
<!-- Node11&#45;&gt;Node12 -->
<g id="edge11" class="edge">
<title>Node11&#45;&gt;Node12</title>
<path fill="none" stroke="#63b8ff" d="M180.61,-116.08C180.05,-104.13 179.35,-89.22 178.92,-79.91"/>
<polygon fill="#63b8ff" stroke="#63b8ff" points="177.13,-116.54 181.1,-126.37 184.12,-116.22 177.13,-116.54"/>
</g>
<!-- Node13 -->
<g id="node13" class="node">
<title>Node13</title>
<g id="a_node13"><a xlink:href="lbfgsb-params_8cpp.html" target="_top" xlink:title=" ">
<polygon fill="white" stroke="#666666" points="107,-79.5 0,-79.5 0,-60.5 107,-60.5 107,-79.5"/>
<text text-anchor="middle" x="53.5" y="-67.5" font-family="Helvetica,sans-Serif" font-size="10.00">lbfgsb&#45;params.cpp</text>
</a>
</g>
</g>
<!-- Node11&#45;&gt;Node13 -->
<g id="edge13" class="edge">
<title>Node11&#45;&gt;Node13</title>
<path fill="none" stroke="#63b8ff" d="M155.22,-121.86C130,-109.25 92.63,-90.56 70.9,-79.7"/>
<polygon fill="#63b8ff" stroke="#63b8ff" points="153.73,-125.03 164.24,-126.37 156.86,-118.77 153.73,-125.03"/>
</g>
<!-- Node15 -->
<g id="node15" class="node">
<title>Node15</title>
<g id="a_node15"><a xlink:href="lbfgsb-adapter_8tpp.html" target="_top" xlink:title=" ">
<polygon fill="white" stroke="#666666" points="2510.5,-145.5 2404.5,-145.5 2404.5,-126.5 2510.5,-126.5 2510.5,-145.5"/>
<text text-anchor="middle" x="2457.5" y="-133.5" font-family="Helvetica,sans-Serif" font-size="10.00">lbfgsb&#45;adapter.tpp</text>
</a>
</g>
</g>
<!-- Node14&#45;&gt;Node15 -->
<g id="edge15" class="edge">
<title>Node14&#45;&gt;Node15</title>
<path fill="none" stroke="#63b8ff" d="M2258.92,-184.61C2306.08,-173.3 2378.86,-155.85 2421.98,-145.52"/>
<polygon fill="#63b8ff" stroke="#63b8ff" points="2257.89,-181.26 2248.98,-186.99 2259.52,-188.07 2257.89,-181.26"/>
</g>
<!-- Node16 -->
<g id="node16" class="node">
<title>Node16</title>
<g id="a_node16"><a xlink:href="lbfgspp_2src_2lbfgsb-adapter_8cpp.html" target="_top" xlink:title=" ">
<polygon fill="white" stroke="#666666" points="2511,-79.5 2404,-79.5 2404,-60.5 2511,-60.5 2511,-79.5"/>
<text text-anchor="middle" x="2457.5" y="-67.5" font-family="Helvetica,sans-Serif" font-size="10.00">lbfgsb&#45;adapter.cpp</text>
</a>
</g>
</g>
<!-- Node15&#45;&gt;Node16 -->
<g id="edge16" class="edge">
<title>Node15&#45;&gt;Node16</title>
<path fill="none" stroke="#63b8ff" d="M2457.5,-116.08C2457.5,-104.13 2457.5,-89.22 2457.5,-79.91"/>
<polygon fill="#63b8ff" stroke="#63b8ff" points="2454,-116.37 2457.5,-126.37 2461,-116.37 2454,-116.37"/>
</g>
<!-- Node18 -->
<g id="node18" class="node">
<title>Node18</title>
<g id="a_node18"><a xlink:href="panoc-helpers_8cpp.html" target="_top" xlink:title=" ">
<polygon fill="white" stroke="#666666" points="838.5,-145.5 732.5,-145.5 732.5,-126.5 838.5,-126.5 838.5,-145.5"/>
<text text-anchor="middle" x="785.5" y="-133.5" font-family="Helvetica,sans-Serif" font-size="10.00">panoc&#45;helpers.cpp</text>
</a>
</g>
</g>
<!-- Node17&#45;&gt;Node18 -->
<g id="edge18" class="edge">
<title>Node17&#45;&gt;Node18</title>
<path fill="none" stroke="#63b8ff" d="M865.36,-181.92C845.49,-170.74 817.91,-155.23 800.91,-145.67"/>
<polygon fill="#63b8ff" stroke="#63b8ff" points="863.72,-185.02 874.15,-186.87 867.15,-178.91 863.72,-185.02"/>
</g>
<!-- Node19 -->
<g id="node19" class="node">
<title>Node19</title>
<g id="a_node19"><a xlink:href="panoc_8tpp.html" target="_top" xlink:title=" ">
<polygon fill="white" stroke="#666666" points="1796,-145.5 1731,-145.5 1731,-126.5 1796,-126.5 1796,-145.5"/>
<text text-anchor="middle" x="1763.5" y="-133.5" font-family="Helvetica,sans-Serif" font-size="10.00">panoc.tpp</text>
</a>
</g>
</g>
<!-- Node17&#45;&gt;Node19 -->
<g id="edge19" class="edge">
<title>Node17&#45;&gt;Node19</title>
<path fill="none" stroke="#63b8ff" d="M951.82,-193.13C1132.2,-186.14 1646.7,-165.2 1721.5,-151 1728.15,-149.74 1735.18,-147.69 1741.56,-145.54"/>
<polygon fill="#63b8ff" stroke="#63b8ff" points="951.56,-189.64 941.7,-193.52 951.83,-196.63 951.56,-189.64"/>
</g>
<!-- Node22 -->
<g id="node22" class="node">
<title>Node22</title>
<g id="a_node22"><a xlink:href="pantr_8tpp.html" target="_top" xlink:title=" ">
<polygon fill="white" stroke="#666666" points="427.5,-145.5 367.5,-145.5 367.5,-126.5 427.5,-126.5 427.5,-145.5"/>
<text text-anchor="middle" x="397.5" y="-133.5" font-family="Helvetica,sans-Serif" font-size="10.00">pantr.tpp</text>
</a>
</g>
</g>
<!-- Node17&#45;&gt;Node22 -->
<g id="edge25" class="edge">
<title>Node17&#45;&gt;Node22</title>
<path fill="none" stroke="#63b8ff" d="M827.12,-194.22C739.05,-191.32 573.7,-181.87 436.5,-151 430.46,-149.64 424.08,-147.62 418.27,-145.53"/>
<polygon fill="#63b8ff" stroke="#63b8ff" points="827.1,-197.72 837.21,-194.53 827.32,-190.72 827.1,-197.72"/>
</g>
<!-- Node24 -->
<g id="node24" class="node">
<title>Node24</title>
<g id="a_node24"><a xlink:href="structured-lbfgs_8tpp.html" target="_top" xlink:title=" ">
<polygon fill="white" stroke="#666666" points="714,-145.5 601,-145.5 601,-126.5 714,-126.5 714,-145.5"/>
<text text-anchor="middle" x="657.5" y="-133.5" font-family="Helvetica,sans-Serif" font-size="10.00">structured&#45;lbfgs.tpp</text>
</a>
</g>
</g>
<!-- Node17&#45;&gt;Node24 -->
<g id="edge28" class="edge">
<title>Node17&#45;&gt;Node24</title>
<path fill="none" stroke="#63b8ff" d="M846.03,-184.54C801.18,-173.23 732.19,-155.83 691.28,-145.52"/>
<polygon fill="#63b8ff" stroke="#63b8ff" points="845.21,-187.94 855.77,-186.99 846.92,-181.15 845.21,-187.94"/>
</g>
<!-- Node26 -->
<g id="node26" class="node">
<title>Node26</title>
<g id="a_node26"><a xlink:href="zerofpr_8tpp.html" target="_top" xlink:title=" ">
<polygon fill="white" stroke="#666666" points="1048,-145.5 979,-145.5 979,-126.5 1048,-126.5 1048,-145.5"/>
<text text-anchor="middle" x="1013.5" y="-133.5" font-family="Helvetica,sans-Serif" font-size="10.00">zerofpr.tpp</text>
</a>
</g>
</g>
<!-- Node17&#45;&gt;Node26 -->
<g id="edge32" class="edge">
<title>Node17&#45;&gt;Node26</title>
<path fill="none" stroke="#63b8ff" d="M916.77,-182.63C940.69,-171.35 974.78,-155.27 995.45,-145.52"/>
<polygon fill="#63b8ff" stroke="#63b8ff" points="915.08,-179.56 907.53,-186.99 918.07,-185.89 915.08,-179.56"/>
</g>
<!-- Node19&#45;&gt;Node5 -->
<g id="edge20" class="edge">
<title>Node19&#45;&gt;Node5</title>
<path fill="none" stroke="#63b8ff" d="M1784.98,-120.68C1803.84,-108.11 1830.66,-90.23 1846.45,-79.7"/>
<polygon fill="#63b8ff" stroke="#63b8ff" points="1782.83,-117.91 1776.45,-126.37 1786.71,-123.73 1782.83,-117.91"/>
</g>
<!-- Node19&#45;&gt;Node6 -->
<g id="edge21" class="edge">
<title>Node19&#45;&gt;Node6</title>
<path fill="none" stroke="#63b8ff" d="M1738.24,-121.53C1714.6,-108.92 1680,-90.47 1659.81,-79.7"/>
<polygon fill="#63b8ff" stroke="#63b8ff" points="1736.85,-124.75 1747.32,-126.37 1740.14,-118.57 1736.85,-124.75"/>
</g>
<!-- Node19&#45;&gt;Node7 -->
<g id="edge24" class="edge">
<title>Node19&#45;&gt;Node7</title>
<path fill="none" stroke="#63b8ff" d="M1730.04,-123.38C1727.17,-122.52 1724.29,-121.72 1721.5,-121 1649.16,-102.42 1564.34,-88.01 1508.67,-79.53"/>
<polygon fill="#63b8ff" stroke="#63b8ff" points="1729.1,-126.75 1739.69,-126.42 1731.2,-120.08 1729.1,-126.75"/>
</g>
<!-- Node20 -->
<g id="node20" class="node">
<title>Node20</title>
<g id="a_node20"><a xlink:href="panoc_8cpp.html" target="_top" xlink:title=" ">
<polygon fill="white" stroke="#666666" points="1796.5,-79.5 1730.5,-79.5 1730.5,-60.5 1796.5,-60.5 1796.5,-79.5"/>
<text text-anchor="middle" x="1763.5" y="-67.5" font-family="Helvetica,sans-Serif" font-size="10.00">panoc.cpp</text>
</a>
</g>
</g>
<!-- Node19&#45;&gt;Node20 -->
<g id="edge22" class="edge">
<title>Node19&#45;&gt;Node20</title>
<path fill="none" stroke="#63b8ff" d="M1763.5,-116.08C1763.5,-104.13 1763.5,-89.22 1763.5,-79.91"/>
<polygon fill="#63b8ff" stroke="#63b8ff" points="1760,-116.37 1763.5,-126.37 1767,-116.37 1760,-116.37"/>
</g>
<!-- Node21 -->
<g id="node21" class="node">
<title>Node21</title>
<g id="a_node21"><a xlink:href="structured-newton_8cpp.html" target="_top" xlink:title=" ">
<polygon fill="white" stroke="#666666" points="2048.5,-79.5 1922.5,-79.5 1922.5,-60.5 2048.5,-60.5 2048.5,-79.5"/>
<text text-anchor="middle" x="1985.5" y="-67.5" font-family="Helvetica,sans-Serif" font-size="10.00">structured&#45;newton.cpp</text>
</a>
</g>
</g>
<!-- Node19&#45;&gt;Node21 -->
<g id="edge23" class="edge">
<title>Node19&#45;&gt;Node21</title>
<path fill="none" stroke="#63b8ff" d="M1798.01,-123.34C1800.54,-122.53 1803.06,-121.75 1805.5,-121 1856.68,-105.37 1916.66,-89.12 1952.84,-79.54"/>
<polygon fill="#63b8ff" stroke="#63b8ff" points="1796.73,-120.08 1788.31,-126.5 1798.9,-126.73 1796.73,-120.08"/>
</g>
<!-- Node22&#45;&gt;Node4 -->
<g id="edge26" class="edge">
<title>Node22&#45;&gt;Node4</title>
<path fill="none" stroke="#63b8ff" d="M422.13,-121.53C445.17,-108.92 478.91,-90.47 498.6,-79.7"/>
<polygon fill="#63b8ff" stroke="#63b8ff" points="420.37,-118.5 413.28,-126.37 423.73,-124.64 420.37,-118.5"/>
</g>
<!-- Node23 -->
<g id="node23" class="node">
<title>Node23</title>
<g id="a_node23"><a xlink:href="pantr_8cpp.html" target="_top" xlink:title=" ">
<polygon fill="white" stroke="#666666" points="428.5,-79.5 366.5,-79.5 366.5,-60.5 428.5,-60.5 428.5,-79.5"/>
<text text-anchor="middle" x="397.5" y="-67.5" font-family="Helvetica,sans-Serif" font-size="10.00">pantr.cpp</text>
</a>
</g>
</g>
<!-- Node22&#45;&gt;Node23 -->
<g id="edge27" class="edge">
<title>Node22&#45;&gt;Node23</title>
<path fill="none" stroke="#63b8ff" d="M397.5,-116.08C397.5,-104.13 397.5,-89.22 397.5,-79.91"/>
<polygon fill="#63b8ff" stroke="#63b8ff" points="394,-116.37 397.5,-126.37 401,-116.37 394,-116.37"/>
</g>
<!-- Node24&#45;&gt;Node7 -->
<g id="edge30" class="edge">
<title>Node24&#45;&gt;Node7</title>
<path fill="none" stroke="#63b8ff" d="M702.87,-124.44C709.75,-123.11 716.79,-121.9 723.5,-121 991.77,-84.81 1061.88,-109.09 1331.5,-85 1348.31,-83.5 1366.44,-81.51 1383.29,-79.51"/>
<polygon fill="#63b8ff" stroke="#63b8ff" points="702.06,-121.04 692.95,-126.46 703.45,-127.9 702.06,-121.04"/>
</g>
<!-- Node24&#45;&gt;Node8 -->
<g id="edge31" class="edge">
<title>Node24&#45;&gt;Node8</title>
<path fill="none" stroke="#63b8ff" d="M700.8,-123.91C743.65,-112.94 809.3,-96.14 855.08,-84.42"/>
<polygon fill="#63b8ff" stroke="#63b8ff" points="699.78,-120.56 690.96,-126.44 701.51,-127.35 699.78,-120.56"/>
</g>
<!-- Node25 -->
<g id="node25" class="node">
<title>Node25</title>
<g id="a_node25"><a xlink:href="structured-lbfgs_8cpp.html" target="_top" xlink:title=" ">
<polygon fill="white" stroke="#666666" points="714.5,-79.5 600.5,-79.5 600.5,-60.5 714.5,-60.5 714.5,-79.5"/>
<text text-anchor="middle" x="657.5" y="-67.5" font-family="Helvetica,sans-Serif" font-size="10.00">structured&#45;lbfgs.cpp</text>
</a>
</g>
</g>
<!-- Node24&#45;&gt;Node25 -->
<g id="edge29" class="edge">
<title>Node24&#45;&gt;Node25</title>
<path fill="none" stroke="#63b8ff" d="M657.5,-116.08C657.5,-104.13 657.5,-89.22 657.5,-79.91"/>
<polygon fill="#63b8ff" stroke="#63b8ff" points="654,-116.37 657.5,-126.37 661,-116.37 654,-116.37"/>
</g>
<!-- Node26&#45;&gt;Node8 -->
<g id="edge33" class="edge">
<title>Node26&#45;&gt;Node8</title>
<path fill="none" stroke="#63b8ff" d="M990.17,-120.91C972.56,-110.28 948.5,-95.75 930.88,-85.12"/>
<polygon fill="#63b8ff" stroke="#63b8ff" points="988.83,-124.2 999.2,-126.37 992.45,-118.2 988.83,-124.2"/>
</g>
<!-- Node26&#45;&gt;Node9 -->
<g id="edge34" class="edge">
<title>Node26&#45;&gt;Node9</title>
<path fill="none" stroke="#63b8ff" d="M1048.83,-123.46C1051.75,-122.59 1054.67,-121.76 1057.5,-121 1128.71,-101.8 1147.72,-101.95 1219.5,-85 1226.82,-83.27 1234.65,-81.36 1242.07,-79.51"/>
<polygon fill="#63b8ff" stroke="#63b8ff" points="1047.52,-120.2 1038.98,-126.47 1049.57,-126.89 1047.52,-120.2"/>
</g>
<!-- Node26&#45;&gt;Node10 -->
<g id="edge35" class="edge">
<title>Node26&#45;&gt;Node10</title>
<path fill="none" stroke="#63b8ff" d="M1039.49,-121.69C1064.11,-109.09 1100.39,-90.51 1121.51,-79.7"/>
<polygon fill="#63b8ff" stroke="#63b8ff" points="1037.66,-118.7 1030.36,-126.37 1040.85,-124.93 1037.66,-118.7"/>
</g>
<!-- Node27 -->
<g id="node27" class="node">
<title>Node27</title>
<g id="a_node27"><a xlink:href="zerofpr_8cpp.html" target="_top" xlink:title=" ">
<polygon fill="white" stroke="#666666" points="1049,-79.5 978,-79.5 978,-60.5 1049,-60.5 1049,-79.5"/>
<text text-anchor="middle" x="1013.5" y="-67.5" font-family="Helvetica,sans-Serif" font-size="10.00">zerofpr.cpp</text>
</a>
</g>
</g>
<!-- Node26&#45;&gt;Node27 -->
<g id="edge36" class="edge">
<title>Node26&#45;&gt;Node27</title>
<path fill="none" stroke="#63b8ff" d="M1013.5,-116.08C1013.5,-104.13 1013.5,-89.22 1013.5,-79.91"/>
<polygon fill="#63b8ff" stroke="#63b8ff" points="1010,-116.37 1013.5,-126.37 1017,-116.37 1010,-116.37"/>
</g>
<!-- Node28&#45;&gt;Node19 -->
<g id="edge48" class="edge">
<title>Node28&#45;&gt;Node19</title>
<path fill="none" stroke="#63b8ff" d="M1840.03,-181.77C1820.94,-170.6 1794.59,-155.19 1778.32,-145.67"/>
<polygon fill="#63b8ff" stroke="#63b8ff" points="1838.35,-184.84 1848.74,-186.87 1841.88,-178.8 1838.35,-184.84"/>
</g>
<!-- Node29 -->
<g id="node29" class="node">
<title>Node29</title>
<g id="a_node29"><a xlink:href="panoc-alm_8hpp.html" target="_top" xlink:title=" ">
<polygon fill="white" stroke="#666666" points="2020,-145.5 1931,-145.5 1931,-126.5 2020,-126.5 2020,-145.5"/>
<text text-anchor="middle" x="1975.5" y="-133.5" font-family="Helvetica,sans-Serif" font-size="10.00">panoc&#45;alm.hpp</text>
</a>
</g>
</g>
<!-- Node28&#45;&gt;Node29 -->
<g id="edge38" class="edge">
<title>Node28&#45;&gt;Node29</title>
<path fill="none" stroke="#63b8ff" d="M1888.91,-182.23C1910.36,-171.03 1940.43,-155.32 1958.91,-145.67"/>
<polygon fill="#63b8ff" stroke="#63b8ff" points="1887.27,-179.14 1880.03,-186.87 1890.51,-185.34 1887.27,-179.14"/>
</g>
<!-- Node31 -->
<g id="node31" class="node">
<title>Node31</title>
<g id="a_node31"><a xlink:href="panoc-anderson-alm_8hpp.html" target="_top" xlink:title=" ">
<polygon fill="white" stroke="#666666" points="1712.5,-145.5 1574.5,-145.5 1574.5,-126.5 1712.5,-126.5 1712.5,-145.5"/>
<text text-anchor="middle" x="1643.5" y="-133.5" font-family="Helvetica,sans-Serif" font-size="10.00">panoc&#45;anderson&#45;alm.hpp</text>
</a>
</g>
</g>
<!-- Node28&#45;&gt;Node31 -->
<g id="edge41" class="edge">
<title>Node28&#45;&gt;Node31</title>
<path fill="none" stroke="#63b8ff" d="M1821.74,-184.4C1779.2,-173.08 1714.16,-155.79 1675.53,-145.52"/>
<polygon fill="#63b8ff" stroke="#63b8ff" points="1820.95,-187.81 1831.51,-186.99 1822.75,-181.04 1820.95,-187.81"/>
</g>
<!-- Node32 -->
<g id="node32" class="node">
<title>Node32</title>
<g id="a_node32"><a xlink:href="panoc-driver_8cpp.html" target="_top" xlink:title=" ">
<polygon fill="white" stroke="#666666" points="1912.5,-145.5 1814.5,-145.5 1814.5,-126.5 1912.5,-126.5 1912.5,-145.5"/>
<text text-anchor="middle" x="1863.5" y="-133.5" font-family="Helvetica,sans-Serif" font-size="10.00">panoc&#45;driver.cpp</text>
</a>
</g>
</g>
<!-- Node28&#45;&gt;Node32 -->
<g id="edge43" class="edge">
<title>Node28&#45;&gt;Node32</title>
<path fill="none" stroke="#63b8ff" d="M1863.5,-176.66C1863.5,-166.24 1863.5,-153.8 1863.5,-145.67"/>
<polygon fill="#63b8ff" stroke="#63b8ff" points="1860,-176.87 1863.5,-186.87 1867,-176.87 1860,-176.87"/>
</g>
<!-- Node33 -->
<g id="node33" class="node">
<title>Node33</title>
<g id="a_node33"><a xlink:href="panoc-ocp_8hpp.html" target="_top" xlink:title=" ">
<polygon fill="white" stroke="#666666" points="2386.5,-145.5 2298.5,-145.5 2298.5,-126.5 2386.5,-126.5 2386.5,-145.5"/>
<text text-anchor="middle" x="2342.5" y="-133.5" font-family="Helvetica,sans-Serif" font-size="10.00">panoc&#45;ocp.hpp</text>
</a>
</g>
</g>
<!-- Node28&#45;&gt;Node33 -->
<g id="edge44" class="edge">
<title>Node28&#45;&gt;Node33</title>
<path fill="none" stroke="#63b8ff" d="M1907.53,-192.76C1984.44,-187.55 2148.06,-174.57 2284.5,-151 2292.97,-149.54 2302.05,-147.55 2310.44,-145.53"/>
<polygon fill="#63b8ff" stroke="#63b8ff" points="1907.01,-189.29 1897.27,-193.44 1907.48,-196.27 1907.01,-189.29"/>
</g>
<!-- Node36 -->
<g id="node36" class="node">
<title>Node36</title>
<g id="a_node36"><a xlink:href="params_8cpp.html" target="_top" xlink:title=" ">
<polygon fill="white" stroke="#666666" points="2269.5,-79.5 2195.5,-79.5 2195.5,-60.5 2269.5,-60.5 2269.5,-79.5"/>
<text text-anchor="middle" x="2232.5" y="-67.5" font-family="Helvetica,sans-Serif" font-size="10.00">params.cpp</text>
</a>
</g>
</g>
<!-- Node28&#45;&gt;Node36 -->
<g id="edge49" class="edge">
<title>Node28&#45;&gt;Node36</title>
<path fill="none" stroke="#63b8ff" d="M1907.26,-193.63C2002.99,-189.1 2224.24,-176 2246.5,-151 2264.5,-130.78 2247.63,-95.89 2238.06,-79.71"/>
<polygon fill="#63b8ff" stroke="#63b8ff" points="1906.87,-190.15 1897.04,-194.11 1907.2,-197.14 1906.87,-190.15"/>
</g>
<!-- Node37 -->
<g id="node37" class="node">
<title>Node37</title>
<g id="a_node37"><a xlink:href="structured-newton_8hpp.html" target="_top" xlink:title=" ">
<polygon fill="white" stroke="#666666" points="2204,-145.5 2077,-145.5 2077,-126.5 2204,-126.5 2204,-145.5"/>
<text text-anchor="middle" x="2140.5" y="-133.5" font-family="Helvetica,sans-Serif" font-size="10.00">structured&#45;newton.hpp</text>
</a>
</g>
</g>
<!-- Node28&#45;&gt;Node37 -->
<g id="edge50" class="edge">
<title>Node28&#45;&gt;Node37</title>
<path fill="none" stroke="#63b8ff" d="M1907.27,-186.26C1960.16,-175.09 2048.43,-156.44 2099.87,-145.58"/>
<polygon fill="#63b8ff" stroke="#63b8ff" points="1906.25,-182.89 1897.19,-188.39 1907.7,-189.74 1906.25,-182.89"/>
</g>
<!-- Node38 -->
<g id="node38" class="node">
<title>Node38</title>
<g id="a_node38"><a xlink:href="structured-panoc-alm_8hpp.html" target="_top" xlink:title=" ">
<polygon fill="white" stroke="#666666" points="1556,-145.5 1413,-145.5 1413,-126.5 1556,-126.5 1556,-145.5"/>
<text text-anchor="middle" x="1484.5" y="-133.5" font-family="Helvetica,sans-Serif" font-size="10.00">structured&#45;panoc&#45;alm.hpp</text>
</a>
</g>
</g>
<!-- Node28&#45;&gt;Node38 -->
<g id="edge53" class="edge">
<title>Node28&#45;&gt;Node38</title>
<path fill="none" stroke="#63b8ff" d="M1820.02,-189.32C1761.94,-181.01 1655.87,-165.56 1565.5,-151 1554.93,-149.3 1543.61,-147.39 1532.87,-145.55"/>
<polygon fill="#63b8ff" stroke="#63b8ff" points="1819.55,-192.79 1829.94,-190.74 1820.54,-185.86 1819.55,-192.79"/>
</g>
<!-- Node29&#45;&gt;Node5 -->
<g id="edge40" class="edge">
<title>Node29&#45;&gt;Node5</title>
<path fill="none" stroke="#63b8ff" d="M1951.08,-121.53C1928.23,-108.92 1894.78,-90.47 1875.27,-79.7"/>
<polygon fill="#63b8ff" stroke="#63b8ff" points="1949.41,-124.6 1959.86,-126.37 1952.79,-118.47 1949.41,-124.6"/>
</g>
<!-- Node30 -->
<g id="node30" class="node">
<title>Node30</title>
<g id="a_node30"><a xlink:href="alpaqa_8hpp.html" target="_top" xlink:title=" ">
<polygon fill="white" stroke="#666666" points="2138,-79.5 2067,-79.5 2067,-60.5 2138,-60.5 2138,-79.5"/>
<text text-anchor="middle" x="2102.5" y="-67.5" font-family="Helvetica,sans-Serif" font-size="10.00">alpaqa.hpp</text>
</a>
</g>
</g>
<!-- Node29&#45;&gt;Node30 -->
<g id="edge39" class="edge">
<title>Node29&#45;&gt;Node30</title>
<path fill="none" stroke="#63b8ff" d="M2001.57,-121.86C2026.6,-109.25 2063.68,-90.56 2085.24,-79.7"/>
<polygon fill="#63b8ff" stroke="#63b8ff" points="1999.98,-118.74 1992.63,-126.37 2003.13,-124.99 1999.98,-118.74"/>
</g>
<!-- Node31&#45;&gt;Node6 -->
<g id="edge42" class="edge">
<title>Node31&#45;&gt;Node6</title>
<path fill="none" stroke="#63b8ff" d="M1643.5,-116.08C1643.5,-104.13 1643.5,-89.22 1643.5,-79.91"/>
<polygon fill="#63b8ff" stroke="#63b8ff" points="1640,-116.37 1643.5,-126.37 1647,-116.37 1640,-116.37"/>
</g>
<!-- Node34 -->
<g id="node34" class="node">
<title>Node34</title>
<g id="a_node34"><a xlink:href="panoc-ocp_8tpp.html" target="_top" xlink:title=" ">
<polygon fill="white" stroke="#666666" points="2385.5,-79.5 2299.5,-79.5 2299.5,-60.5 2385.5,-60.5 2385.5,-79.5"/>
<text text-anchor="middle" x="2342.5" y="-67.5" font-family="Helvetica,sans-Serif" font-size="10.00">panoc&#45;ocp.tpp</text>
</a>
</g>
</g>
<!-- Node33&#45;&gt;Node34 -->
<g id="edge45" class="edge">
<title>Node33&#45;&gt;Node34</title>
<path fill="none" stroke="#63b8ff" d="M2342.5,-116.08C2342.5,-104.13 2342.5,-89.22 2342.5,-79.91"/>
<polygon fill="#63b8ff" stroke="#63b8ff" points="2339,-116.37 2342.5,-126.37 2346,-116.37 2339,-116.37"/>
</g>
<!-- Node33&#45;&gt;Node36 -->
<g id="edge47" class="edge">
<title>Node33&#45;&gt;Node36</title>
<path fill="none" stroke="#63b8ff" d="M2318.76,-121.19C2297.12,-108.59 2265.79,-90.37 2247.45,-79.7"/>
<polygon fill="#63b8ff" stroke="#63b8ff" points="2317.26,-124.36 2327.66,-126.37 2320.78,-118.31 2317.26,-124.36"/>
</g>
<!-- Node35 -->
<g id="node35" class="node">
<title>Node35</title>
<g id="a_node35"><a xlink:href="panoc-ocp_8cpp.html" target="_top" xlink:title=" ">
<polygon fill="white" stroke="#666666" points="2386,-19 2299,-19 2299,0 2386,0 2386,-19"/>
<text text-anchor="middle" x="2342.5" y="-7" font-family="Helvetica,sans-Serif" font-size="10.00">panoc&#45;ocp.cpp</text>
</a>
</g>
</g>
<!-- Node34&#45;&gt;Node35 -->
<g id="edge46" class="edge">
<title>Node34&#45;&gt;Node35</title>
<path fill="none" stroke="#63b8ff" d="M2342.5,-50.16C2342.5,-39.74 2342.5,-27.3 2342.5,-19.17"/>
<polygon fill="#63b8ff" stroke="#63b8ff" points="2339,-50.37 2342.5,-60.37 2346,-50.37 2339,-50.37"/>
</g>
<!-- Node37&#45;&gt;Node21 -->
<g id="edge52" class="edge">
<title>Node37&#45;&gt;Node21</title>
<path fill="none" stroke="#63b8ff" d="M2110.28,-122.52C2079.74,-109.91 2033.34,-90.75 2006.57,-79.7"/>
<polygon fill="#63b8ff" stroke="#63b8ff" points="2109.02,-125.79 2119.6,-126.37 2111.69,-119.32 2109.02,-125.79"/>
</g>
<!-- Node37&#45;&gt;Node36 -->
<g id="edge51" class="edge">
<title>Node37&#45;&gt;Node36</title>
<path fill="none" stroke="#63b8ff" d="M2161.58,-120.33C2179.63,-107.78 2205,-90.13 2220,-79.7"/>
<polygon fill="#63b8ff" stroke="#63b8ff" points="2159.12,-117.78 2152.91,-126.37 2163.12,-123.53 2159.12,-117.78"/>
</g>
<!-- Node38&#45;&gt;Node7 -->
<g id="edge54" class="edge">
<title>Node38&#45;&gt;Node7</title>
<path fill="none" stroke="#63b8ff" d="M1474.68,-117.55C1467.83,-105.36 1458.97,-89.61 1453.51,-79.91"/>
<polygon fill="#63b8ff" stroke="#63b8ff" points="1471.69,-119.37 1479.64,-126.37 1477.79,-115.94 1471.69,-119.37"/>
</g>
<!-- Node39&#45;&gt;Node22 -->
<g id="edge59" class="edge">
<title>Node39&#45;&gt;Node22</title>
<path fill="none" stroke="#63b8ff" d="M488.46,-182.48C465.92,-171.21 433.95,-155.23 414.53,-145.52"/>
<polygon fill="#63b8ff" stroke="#63b8ff" points="486.98,-185.65 497.49,-186.99 490.11,-179.39 486.98,-185.65"/>
</g>
<!-- Node39&#45;&gt;Node36 -->
<g id="edge60" class="edge">
<title>Node39&#45;&gt;Node36</title>
<path fill="none" stroke="#63b8ff" d="M555.72,-194.37C797.43,-187.77 2020.57,-154.19 2029.5,-151 2050.1,-143.66 2049.06,-131.02 2068.5,-121 2109.51,-99.87 2160.98,-85.99 2195.21,-78.34"/>
<polygon fill="#63b8ff" stroke="#63b8ff" points="555.5,-190.88 545.6,-194.65 555.69,-197.88 555.5,-190.88"/>
</g>
<!-- Node40 -->
<g id="node40" class="node">
<title>Node40</title>
<g id="a_node40"><a xlink:href="newton-tr-pantr-alm_8hpp.html" target="_top" xlink:title=" ">
<polygon fill="white" stroke="#666666" points="583,-145.5 446,-145.5 446,-126.5 583,-126.5 583,-145.5"/>
<text text-anchor="middle" x="514.5" y="-133.5" font-family="Helvetica,sans-Serif" font-size="10.00">newton&#45;tr&#45;pantr&#45;alm.hpp</text>
</a>
</g>
</g>
<!-- Node39&#45;&gt;Node40 -->
<g id="edge56" class="edge">
<title>Node39&#45;&gt;Node40</title>
<path fill="none" stroke="#63b8ff" d="M514.5,-176.66C514.5,-166.24 514.5,-153.8 514.5,-145.67"/>
<polygon fill="#63b8ff" stroke="#63b8ff" points="511,-176.87 514.5,-186.87 518,-176.87 511,-176.87"/>
</g>
<!-- Node41 -->
<g id="node41" class="node">
<title>Node41</title>
<g id="a_node41"><a xlink:href="pantr-driver_8cpp.html" target="_top" xlink:title=" ">
<polygon fill="white" stroke="#666666" points="349.5,-145.5 255.5,-145.5 255.5,-126.5 349.5,-126.5 349.5,-145.5"/>
<text text-anchor="middle" x="302.5" y="-133.5" font-family="Helvetica,sans-Serif" font-size="10.00">pantr&#45;driver.cpp</text>
</a>
</g>
</g>
<!-- Node39&#45;&gt;Node41 -->
<g id="edge58" class="edge">
<title>Node39&#45;&gt;Node41</title>
<path fill="none" stroke="#63b8ff" d="M474,-184.32C433,-173.01 370.51,-155.77 333.36,-145.52"/>
<polygon fill="#63b8ff" stroke="#63b8ff" points="473.1,-187.71 483.67,-186.99 474.96,-180.96 473.1,-187.71"/>
</g>
<!-- Node40&#45;&gt;Node4 -->
<g id="edge57" class="edge">
<title>Node40&#45;&gt;Node4</title>
<path fill="none" stroke="#63b8ff" d="M514.5,-116.08C514.5,-104.13 514.5,-89.22 514.5,-79.91"/>
<polygon fill="#63b8ff" stroke="#63b8ff" points="511,-116.37 514.5,-126.37 518,-116.37 511,-116.37"/>
</g>
<!-- Node42&#45;&gt;Node26 -->
<g id="edge70" class="edge">
<title>Node42&#45;&gt;Node26</title>
<path fill="none" stroke="#63b8ff" d="M1183.1,-184.55C1148.69,-175.9 1099.91,-163.29 1057.5,-151 1051.65,-149.3 1045.39,-147.38 1039.49,-145.52"/>
<polygon fill="#63b8ff" stroke="#63b8ff" points="1182.29,-187.96 1192.84,-186.99 1183.99,-181.17 1182.29,-187.96"/>
</g>
<!-- Node42&#45;&gt;Node32 -->
<g id="edge62" class="edge">
<title>Node42&#45;&gt;Node32</title>
<path fill="none" stroke="#63b8ff" d="M1273.42,-194.46C1371.63,-191.68 1609.12,-182.06 1805.5,-151 1814.2,-149.62 1823.51,-147.62 1832.08,-145.55"/>
<polygon fill="#63b8ff" stroke="#63b8ff" points="1273.15,-190.96 1263.25,-194.73 1273.34,-197.96 1273.15,-190.96"/>
</g>
<!-- Node42&#45;&gt;Node36 -->
<g id="edge63" class="edge">
<title>Node42&#45;&gt;Node36</title>
<path fill="none" stroke="#63b8ff" d="M1273.3,-194.96C1462.74,-192.51 2176.88,-181.31 2213.5,-151 2234.83,-133.34 2234.75,-96.5 2233.45,-79.7"/>
<polygon fill="#63b8ff" stroke="#63b8ff" points="1273.08,-191.46 1263.13,-195.09 1273.17,-198.46 1273.08,-191.46"/>
</g>
<!-- Node43 -->
<g id="node43" class="node">
<title>Node43</title>
<g id="a_node43"><a xlink:href="structured-zerofpr-alm_8hpp.html" target="_top" xlink:title=" ">
<polygon fill="white" stroke="#666666" points="960.5,-151 856.5,-151 856.5,-121 960.5,-121 960.5,-151"/>
<text text-anchor="start" x="864.5" y="-139" font-family="Helvetica,sans-Serif" font-size="10.00">structured&#45;zerofpr</text>
<text text-anchor="middle" x="908.5" y="-128" font-family="Helvetica,sans-Serif" font-size="10.00">&#45;alm.hpp</text>
</a>
</g>
</g>
<!-- Node42&#45;&gt;Node43 -->
<g id="edge64" class="edge">
<title>Node42&#45;&gt;Node43</title>
<path fill="none" stroke="#63b8ff" d="M1181.49,-188.25C1129.97,-179.97 1044.04,-165.66 970.5,-151 967.25,-150.35 963.92,-149.67 960.55,-148.96"/>
<polygon fill="#63b8ff" stroke="#63b8ff" points="1181.21,-191.75 1191.64,-189.88 1182.32,-184.84 1181.21,-191.75"/>
</g>
<!-- Node44 -->
<g id="node44" class="node">
<title>Node44</title>
<g id="a_node44"><a xlink:href="zerofpr-alm_8hpp.html" target="_top" xlink:title=" ">
<polygon fill="white" stroke="#666666" points="1395,-145.5 1300,-145.5 1300,-126.5 1395,-126.5 1395,-145.5"/>
<text text-anchor="middle" x="1347.5" y="-133.5" font-family="Helvetica,sans-Serif" font-size="10.00">zerofpr&#45;alm.hpp</text>
</a>
</g>
</g>
<!-- Node42&#45;&gt;Node44 -->
<g id="edge66" class="edge">
<title>Node42&#45;&gt;Node44</title>
<path fill="none" stroke="#63b8ff" d="M1254.2,-182.48C1277.33,-171.21 1310.11,-155.23 1330.03,-145.52"/>
<polygon fill="#63b8ff" stroke="#63b8ff" points="1252.4,-179.47 1244.95,-186.99 1255.47,-185.76 1252.4,-179.47"/>
</g>
<!-- Node45 -->
<g id="node45" class="node">
<title>Node45</title>
<g id="a_node45"><a xlink:href="zerofpr-anderson-alm_8hpp.html" target="_top" xlink:title=" ">
<polygon fill="white" stroke="#666666" points="1209,-145.5 1066,-145.5 1066,-126.5 1209,-126.5 1209,-145.5"/>
<text text-anchor="middle" x="1137.5" y="-133.5" font-family="Helvetica,sans-Serif" font-size="10.00">zerofpr&#45;anderson&#45;alm.hpp</text>
</a>
</g>
</g>
<!-- Node42&#45;&gt;Node45 -->
<g id="edge68" class="edge">
<title>Node42&#45;&gt;Node45</title>
<path fill="none" stroke="#63b8ff" d="M1205.44,-181.16C1188.34,-170.05 1165.21,-155.01 1150.83,-145.67"/>
<polygon fill="#63b8ff" stroke="#63b8ff" points="1203.93,-184.35 1214.22,-186.87 1207.74,-178.48 1203.93,-184.35"/>
</g>
<!-- Node43&#45;&gt;Node8 -->
<g id="edge65" class="edge">
<title>Node43&#45;&gt;Node8</title>
<path fill="none" stroke="#63b8ff" d="M908.12,-110.54C907.98,-101.96 907.84,-92.61 907.72,-85.16"/>
<polygon fill="#63b8ff" stroke="#63b8ff" points="904.62,-110.85 908.28,-120.8 911.62,-110.74 904.62,-110.85"/>
</g>
<!-- Node44&#45;&gt;Node9 -->
<g id="edge67" class="edge">
<title>Node44&#45;&gt;Node9</title>
<path fill="none" stroke="#63b8ff" d="M1330.26,-119.68C1316.29,-107.26 1297.08,-90.18 1285.52,-79.91"/>
<polygon fill="#63b8ff" stroke="#63b8ff" points="1327.99,-122.34 1337.79,-126.37 1332.64,-117.11 1327.99,-122.34"/>
</g>
<!-- Node45&#45;&gt;Node10 -->
<g id="edge69" class="edge">
<title>Node45&#45;&gt;Node10</title>
<path fill="none" stroke="#63b8ff" d="M1137.8,-116.08C1137.98,-104.13 1138.22,-89.22 1138.36,-79.91"/>
<polygon fill="#63b8ff" stroke="#63b8ff" points="1134.29,-116.32 1137.63,-126.37 1141.29,-116.42 1134.29,-116.32"/>
</g>
</g>
</svg>
