<?xml version="1.0" encoding="UTF-8" standalone="no"?>
<!DOCTYPE svg PUBLIC "-//W3C//DTD SVG 1.1//EN"
 "http://www.w3.org/Graphics/SVG/1.1/DTD/svg11.dtd">
<!-- Generated by graphviz version 2.43.0 (0)
 -->
<!-- Title: lbfgspp&#45;adapter&#45;export.hpp Pages: 1 -->
<svg width="158pt" height="192pt"
 viewBox="0.00 0.00 158.00 192.00" xmlns="http://www.w3.org/2000/svg" xmlns:xlink="http://www.w3.org/1999/xlink">
<g id="graph0" class="graph" transform="scale(1 1) rotate(0) translate(4 188)">
<title>lbfgspp&#45;adapter&#45;export.hpp</title>
<!-- Node1 -->
<g id="node1" class="node">
<title>Node1</title>
<g id="a_node1"><a xlink:title=" ">
<polygon fill="#999999" stroke="#666666" points="150,-184 0,-184 0,-165 150,-165 150,-184"/>
<text text-anchor="middle" x="75" y="-172" font-family="Helvetica,sans-Serif" font-size="10.00">lbfgspp&#45;adapter&#45;export.hpp</text>
</a>
</g>
</g>
<!-- Node2 -->
<g id="node2" class="node">
<title>Node2</title>
<g id="a_node2"><a xlink:href="lbfgspp_2include_2alpaqa_2lbfgsb-adapter_8hpp.html" target="_top" xlink:title=" ">
<polygon fill="white" stroke="#666666" points="129,-129 21,-129 21,-110 129,-110 129,-129"/>
<text text-anchor="middle" x="75" y="-117" font-family="Helvetica,sans-Serif" font-size="10.00">lbfgsb&#45;adapter.hpp</text>
</a>
</g>
</g>
<!-- Node1&#45;&gt;Node2 -->
<g id="edge1" class="edge">
<title>Node1&#45;&gt;Node2</title>
<path fill="none" stroke="#63b8ff" d="M75,-154.66C75,-145.93 75,-135.99 75,-129.09"/>
<polygon fill="#63b8ff" stroke="#63b8ff" points="71.5,-154.75 75,-164.75 78.5,-154.75 71.5,-154.75"/>
</g>
<!-- Node3 -->
<g id="node3" class="node">
<title>Node3</title>
<g id="a_node3"><a xlink:href="lbfgsb-adapter_8tpp.html" target="_top" xlink:title=" ">
<polygon fill="white" stroke="#666666" points="128,-74 22,-74 22,-55 128,-55 128,-74"/>
<text text-anchor="middle" x="75" y="-62" font-family="Helvetica,sans-Serif" font-size="10.00">lbfgsb&#45;adapter.tpp</text>
</a>
</g>
</g>
<!-- Node2&#45;&gt;Node3 -->
<g id="edge2" class="edge">
<title>Node2&#45;&gt;Node3</title>
<path fill="none" stroke="#63b8ff" d="M75,-99.66C75,-90.93 75,-80.99 75,-74.09"/>
<polygon fill="#63b8ff" stroke="#63b8ff" points="71.5,-99.75 75,-109.75 78.5,-99.75 71.5,-99.75"/>
</g>
<!-- Node4 -->
<g id="node4" class="node">
<title>Node4</title>
<g id="a_node4"><a xlink:href="lbfgspp_2src_2lbfgsb-adapter_8cpp.html" target="_top" xlink:title=" ">
<polygon fill="white" stroke="#666666" points="128.5,-19 21.5,-19 21.5,0 128.5,0 128.5,-19"/>
<text text-anchor="middle" x="75" y="-7" font-family="Helvetica,sans-Serif" font-size="10.00">lbfgsb&#45;adapter.cpp</text>
</a>
</g>
</g>
<!-- Node3&#45;&gt;Node4 -->
<g id="edge3" class="edge">
<title>Node3&#45;&gt;Node4</title>
<path fill="none" stroke="#63b8ff" d="M75,-44.66C75,-35.93 75,-25.99 75,-19.09"/>
<polygon fill="#63b8ff" stroke="#63b8ff" points="71.5,-44.75 75,-54.75 78.5,-44.75 71.5,-44.75"/>
</g>
</g>
</svg>
