<?xml version="1.0" encoding="UTF-8" standalone="no"?>
<!DOCTYPE svg PUBLIC "-//W3C//DTD SVG 1.1//EN"
 "http://www.w3.org/Graphics/SVG/1.1/DTD/svg11.dtd">
<!-- Generated by graphviz version 2.43.0 (0)
 -->
<!-- Title: newton&#45;tr.hpp Pages: 1 -->
<svg width="1875pt" height="390pt"
 viewBox="0.00 0.00 1875.48 390.00" xmlns="http://www.w3.org/2000/svg" xmlns:xlink="http://www.w3.org/1999/xlink">
<g id="graph0" class="graph" transform="scale(1 1) rotate(0) translate(4 386)">
<title>newton&#45;tr.hpp</title>
<!-- Node1 -->
<g id="node1" class="node">
<title>Node1</title>
<g id="a_node1"><a xlink:title=" ">
<polygon fill="#999999" stroke="#666666" points="1307.98,-382 1223.98,-382 1223.98,-363 1307.98,-363 1307.98,-382"/>
<text text-anchor="middle" x="1265.98" y="-370" font-family="Helvetica,sans-Serif" font-size="10.00">newton&#45;tr.hpp</text>
</a>
</g>
</g>
<!-- Node2 -->
<g id="node2" class="node">
<title>Node2</title>
<g id="a_node2"><a xlink:href="steihaugcg_8hpp.html" target="_top" xlink:title=" ">
<polygon fill="white" stroke="#666666" points="665.48,-327 552.48,-327 552.48,-297 665.48,-297 665.48,-327"/>
<text text-anchor="start" x="560.48" y="-315" font-family="Helvetica,sans-Serif" font-size="10.00">alpaqa/accelerators</text>
<text text-anchor="middle" x="608.98" y="-304" font-family="Helvetica,sans-Serif" font-size="10.00">/steihaugcg.hpp</text>
</a>
</g>
</g>
<!-- Node1&#45;&gt;Node2 -->
<g id="edge1" class="edge">
<title>Node1&#45;&gt;Node2</title>
<path fill="none" stroke="#63b8ff" d="M1223.88,-367.75C1112.78,-357.86 810.96,-330.99 675.89,-318.96"/>
<polygon fill="#63b8ff" stroke="#63b8ff" points="675.95,-315.45 665.68,-318.05 675.33,-322.42 675.95,-315.45"/>
</g>
<!-- Node5 -->
<g id="node5" class="node">
<title>Node5</title>
<g id="a_node5"><a xlink:title=" ">
<polygon fill="#e0e0e0" stroke="#999999" points="1608.98,-134.5 1564.98,-134.5 1564.98,-115.5 1608.98,-115.5 1608.98,-134.5"/>
<text text-anchor="middle" x="1586.98" y="-122.5" font-family="Helvetica,sans-Serif" font-size="10.00">limits</text>
</a>
</g>
</g>
<!-- Node1&#45;&gt;Node5 -->
<g id="edge63" class="edge">
<title>Node1&#45;&gt;Node5</title>
<path fill="none" stroke="#63b8ff" d="M1308.08,-368.18C1349.1,-363.54 1412.24,-352.57 1460.98,-327 1527.85,-291.92 1540.09,-265.18 1567.98,-195 1574.56,-178.42 1579.74,-158.73 1583.01,-144.63"/>
<polygon fill="#63b8ff" stroke="#63b8ff" points="1586.47,-145.22 1585.22,-134.7 1579.64,-143.7 1586.47,-145.22"/>
</g>
<!-- Node8 -->
<g id="node8" class="node">
<title>Node8</title>
<g id="a_node8"><a xlink:href="alloc-check_8hpp.html" target="_top" xlink:title=" ">
<polygon fill="white" stroke="#666666" points="680.98,-255.5 532.98,-255.5 532.98,-236.5 680.98,-236.5 680.98,-255.5"/>
<text text-anchor="middle" x="606.98" y="-243.5" font-family="Helvetica,sans-Serif" font-size="10.00">alpaqa/util/alloc&#45;check.hpp</text>
</a>
</g>
</g>
<!-- Node1&#45;&gt;Node8 -->
<g id="edge58" class="edge">
<title>Node1&#45;&gt;Node8</title>
<path fill="none" stroke="#63b8ff" d="M1223.75,-363.52C1108.97,-341.84 791.23,-281.81 662.35,-257.46"/>
<polygon fill="#63b8ff" stroke="#63b8ff" points="662.78,-253.98 652.31,-255.56 661.48,-260.86 662.78,-253.98"/>
</g>
<!-- Node9 -->
<g id="node9" class="node">
<title>Node9</title>
<g id="a_node9"><a xlink:href="type-erased-problem_8hpp.html" target="_top" xlink:title=" ">
<polygon fill="white" stroke="#666666" points="1261.48,-327 1142.48,-327 1142.48,-297 1261.48,-297 1261.48,-327"/>
<text text-anchor="start" x="1150.48" y="-315" font-family="Helvetica,sans-Serif" font-size="10.00">alpaqa/problem/type</text>
<text text-anchor="middle" x="1201.98" y="-304" font-family="Helvetica,sans-Serif" font-size="10.00">&#45;erased&#45;problem.hpp</text>
</a>
</g>
</g>
<!-- Node1&#45;&gt;Node9 -->
<g id="edge9" class="edge">
<title>Node1&#45;&gt;Node9</title>
<path fill="none" stroke="#63b8ff" d="M1256.53,-362.87C1248.25,-355.3 1235.87,-343.98 1224.99,-334.04"/>
<polygon fill="#63b8ff" stroke="#63b8ff" points="1227.16,-331.28 1217.42,-327.11 1222.44,-336.44 1227.16,-331.28"/>
</g>
<!-- Node14 -->
<g id="node14" class="node">
<title>Node14</title>
<g id="a_node14"><a xlink:title=" ">
<polygon fill="#e0e0e0" stroke="#999999" points="329.48,-134.5 282.48,-134.5 282.48,-115.5 329.48,-115.5 329.48,-134.5"/>
<text text-anchor="middle" x="305.98" y="-122.5" font-family="Helvetica,sans-Serif" font-size="10.00">cmath</text>
</a>
</g>
</g>
<!-- Node1&#45;&gt;Node14 -->
<g id="edge62" class="edge">
<title>Node1&#45;&gt;Node14</title>
<path fill="none" stroke="#63b8ff" d="M1267.22,-362.99C1268.46,-354.05 1270.27,-339.57 1270.98,-327 1273.52,-281.66 1273.66,-256.35 1235.98,-231 1194.37,-203.01 386.48,-152.73 337.98,-140 336.08,-139.5 334.16,-138.91 332.25,-138.25"/>
<polygon fill="#63b8ff" stroke="#63b8ff" points="333.48,-134.98 322.89,-134.57 330.92,-141.49 333.48,-134.98"/>
</g>
<!-- Node18 -->
<g id="node18" class="node">
<title>Node18</title>
<g id="a_node18"><a xlink:title=" ">
<polygon fill="#e0e0e0" stroke="#999999" points="1558.98,-195 1502.98,-195 1502.98,-176 1558.98,-176 1558.98,-195"/>
<text text-anchor="middle" x="1530.98" y="-183" font-family="Helvetica,sans-Serif" font-size="10.00">optional</text>
</a>
</g>
</g>
<!-- Node1&#45;&gt;Node18 -->
<g id="edge64" class="edge">
<title>Node1&#45;&gt;Node18</title>
<path fill="none" stroke="#63b8ff" d="M1308.44,-364.15C1363.65,-352.32 1459.25,-323.71 1511.98,-261 1525.1,-245.39 1529.32,-221.89 1530.6,-205.47"/>
<polygon fill="#63b8ff" stroke="#63b8ff" points="1534.1,-205.57 1531.08,-195.41 1527.11,-205.23 1534.1,-205.57"/>
</g>
<!-- Node19 -->
<g id="node19" class="node">
<title>Node19</title>
<g id="a_node19"><a xlink:title=" ">
<polygon fill="#e0e0e0" stroke="#999999" points="1730.48,-134.5 1665.48,-134.5 1665.48,-115.5 1730.48,-115.5 1730.48,-134.5"/>
<text text-anchor="middle" x="1697.98" y="-122.5" font-family="Helvetica,sans-Serif" font-size="10.00">stdexcept</text>
</a>
</g>
</g>
<!-- Node1&#45;&gt;Node19 -->
<g id="edge65" class="edge">
<title>Node1&#45;&gt;Node19</title>
<path fill="none" stroke="#63b8ff" d="M1308.14,-370.03C1356.13,-366.89 1435.79,-357.14 1496.98,-327 1586.33,-282.99 1659.72,-183.45 1686.78,-143.29"/>
<polygon fill="#63b8ff" stroke="#63b8ff" points="1689.78,-145.1 1692.38,-134.83 1683.94,-141.23 1689.78,-145.1"/>
</g>
<!-- Node36 -->
<g id="node36" class="node">
<title>Node36</title>
<g id="a_node36"><a xlink:href="index-set_8hpp.html" target="_top" xlink:title=" ">
<polygon fill="white" stroke="#666666" points="533.98,-321.5 395.98,-321.5 395.98,-302.5 533.98,-302.5 533.98,-321.5"/>
<text text-anchor="middle" x="464.98" y="-309.5" font-family="Helvetica,sans-Serif" font-size="10.00">alpaqa/util/index&#45;set.hpp</text>
</a>
</g>
</g>
<!-- Node1&#45;&gt;Node36 -->
<g id="edge59" class="edge">
<title>Node1&#45;&gt;Node36</title>
<path fill="none" stroke="#63b8ff" d="M1223.91,-370.58C1112.59,-367.78 801.18,-357.62 543.98,-327 535.53,-325.99 526.61,-324.67 517.93,-323.24"/>
<polygon fill="#63b8ff" stroke="#63b8ff" points="518.34,-319.76 507.89,-321.52 517.16,-326.66 518.34,-319.76"/>
</g>
<!-- Node3 -->
<g id="node3" class="node">
<title>Node3</title>
<g id="a_node3"><a xlink:href="config_8hpp.html" target="_top" xlink:title=" ">
<polygon fill="white" stroke="#666666" points="572.48,-195 437.48,-195 437.48,-176 572.48,-176 572.48,-195"/>
<text text-anchor="middle" x="504.98" y="-183" font-family="Helvetica,sans-Serif" font-size="10.00">alpaqa/config/config.hpp</text>
</a>
</g>
</g>
<!-- Node2&#45;&gt;Node3 -->
<g id="edge2" class="edge">
<title>Node2&#45;&gt;Node3</title>
<path fill="none" stroke="#63b8ff" d="M571.65,-296.95C554.8,-288.83 536.01,-277.01 523.98,-261 511.85,-244.86 507.42,-221.78 505.82,-205.6"/>
<polygon fill="#63b8ff" stroke="#63b8ff" points="509.29,-204.96 505.09,-195.23 502.3,-205.45 509.29,-204.96"/>
</g>
<!-- Node2&#45;&gt;Node8 -->
<g id="edge7" class="edge">
<title>Node2&#45;&gt;Node8</title>
<path fill="none" stroke="#63b8ff" d="M608.53,-296.8C608.25,-287.7 607.88,-275.79 607.57,-265.9"/>
<polygon fill="#63b8ff" stroke="#63b8ff" points="611.06,-265.73 607.25,-255.84 604.07,-265.95 611.06,-265.73"/>
</g>
<!-- Node4 -->
<g id="node4" class="node">
<title>Node4</title>
<g id="a_node4"><a xlink:href="quadmath_8hpp.html" target="_top" xlink:title=" ">
<polygon fill="white" stroke="#666666" points="264.48,-140 143.48,-140 143.48,-110 264.48,-110 264.48,-140"/>
<text text-anchor="start" x="151.48" y="-128" font-family="Helvetica,sans-Serif" font-size="10.00">alpaqa/util/quadmath</text>
<text text-anchor="middle" x="203.98" y="-117" font-family="Helvetica,sans-Serif" font-size="10.00">/quadmath.hpp</text>
</a>
</g>
</g>
<!-- Node3&#45;&gt;Node4 -->
<g id="edge3" class="edge">
<title>Node3&#45;&gt;Node4</title>
<path fill="none" stroke="#63b8ff" d="M459.6,-175.95C414.92,-167.49 344.44,-154.06 274.42,-140.28"/>
<polygon fill="#63b8ff" stroke="#63b8ff" points="275.04,-136.83 264.55,-138.33 273.68,-143.7 275.04,-136.83"/>
</g>
<!-- Node3&#45;&gt;Node5 -->
<g id="edge4" class="edge">
<title>Node3&#45;&gt;Node5</title>
<path fill="none" stroke="#63b8ff" d="M572.52,-182.91C768.37,-178.09 1334.18,-162.54 1517.98,-140 1530.05,-138.52 1543.17,-136.07 1554.69,-133.64"/>
<polygon fill="#63b8ff" stroke="#63b8ff" points="1555.73,-136.99 1564.75,-131.43 1554.23,-130.15 1555.73,-136.99"/>
</g>
<!-- Node6 -->
<g id="node6" class="node">
<title>Node6</title>
<g id="a_node6"><a xlink:title=" ">
<polygon fill="#e0e0e0" stroke="#999999" points="479.48,-74 410.48,-74 410.48,-55 479.48,-55 479.48,-74"/>
<text text-anchor="middle" x="444.98" y="-62" font-family="Helvetica,sans-Serif" font-size="10.00">type_traits</text>
</a>
</g>
</g>
<!-- Node3&#45;&gt;Node6 -->
<g id="edge5" class="edge">
<title>Node3&#45;&gt;Node6</title>
<path fill="none" stroke="#63b8ff" d="M496.16,-175.68C488.11,-167.18 476.35,-153.63 468.98,-140 459.3,-122.11 452.73,-99.67 448.95,-84.12"/>
<polygon fill="#63b8ff" stroke="#63b8ff" points="452.32,-83.15 446.68,-74.18 445.49,-84.71 452.32,-83.15"/>
</g>
<!-- Node7 -->
<g id="node7" class="node">
<title>Node7</title>
<g id="a_node7"><a xlink:title=" ">
<polygon fill="#e0e0e0" stroke="#999999" points="416.48,-134.5 347.48,-134.5 347.48,-115.5 416.48,-115.5 416.48,-134.5"/>
<text text-anchor="middle" x="381.98" y="-122.5" font-family="Helvetica,sans-Serif" font-size="10.00">Eigen/Core</text>
</a>
</g>
</g>
<!-- Node3&#45;&gt;Node7 -->
<g id="edge6" class="edge">
<title>Node3&#45;&gt;Node7</title>
<path fill="none" stroke="#63b8ff" d="M487.09,-175.99C466.59,-166.25 432.78,-150.16 409.05,-138.88"/>
<polygon fill="#63b8ff" stroke="#63b8ff" points="410.42,-135.65 399.88,-134.52 407.41,-141.97 410.42,-135.65"/>
</g>
<!-- Node8&#45;&gt;Node7 -->
<g id="edge8" class="edge">
<title>Node8&#45;&gt;Node7</title>
<path fill="none" stroke="#63b8ff" d="M533.43,-236.48C498.89,-229.62 458.66,-217.26 427.98,-195 410,-181.96 396.99,-159.59 389.49,-143.87"/>
<polygon fill="#63b8ff" stroke="#63b8ff" points="392.64,-142.34 385.35,-134.65 386.25,-145.21 392.64,-142.34"/>
</g>
<!-- Node9&#45;&gt;Node3 -->
<g id="edge10" class="edge">
<title>Node9&#45;&gt;Node3</title>
<path fill="none" stroke="#63b8ff" d="M1153.87,-296.93C1091.62,-279.2 979.56,-248.88 881.98,-231 779.3,-212.18 659.36,-199.62 582.83,-192.77"/>
<polygon fill="#63b8ff" stroke="#63b8ff" points="583.05,-189.28 572.78,-191.88 582.44,-196.25 583.05,-189.28"/>
</g>
<!-- Node9&#45;&gt;Node6 -->
<g id="edge56" class="edge">
<title>Node9&#45;&gt;Node6</title>
<path fill="none" stroke="#63b8ff" d="M1142.4,-306.52C1023.85,-297.35 766.54,-276.03 728.98,-261 708.67,-252.88 710.46,-238.67 689.98,-231 443.53,-138.72 350.57,-272.13 98.98,-195 53.06,-180.93 29.77,-181.71 5.98,-140 -0.63,-128.42 -2.96,-119.89 5.98,-110 32.07,-81.12 293.41,-70.05 400.04,-66.71"/>
<polygon fill="#63b8ff" stroke="#63b8ff" points="400.27,-70.21 410.16,-66.4 400.06,-63.21 400.27,-70.21"/>
</g>
<!-- Node9&#45;&gt;Node8 -->
<g id="edge21" class="edge">
<title>Node9&#45;&gt;Node8</title>
<path fill="none" stroke="#63b8ff" d="M1142.14,-306.26C1047.17,-298.47 856.17,-281.75 694.98,-261 685.96,-259.84 676.45,-258.47 667.14,-257.06"/>
<polygon fill="#63b8ff" stroke="#63b8ff" points="667.58,-253.59 657.16,-255.51 666.51,-260.5 667.58,-253.59"/>
</g>
<!-- Node10 -->
<g id="node10" class="node">
<title>Node10</title>
<g id="a_node10"><a xlink:href="export_8hpp.html" target="_top" xlink:title=" ">
<polygon fill="white" stroke="#666666" points="1412.48,-74 1307.48,-74 1307.48,-55 1412.48,-55 1412.48,-74"/>
<text text-anchor="middle" x="1359.98" y="-62" font-family="Helvetica,sans-Serif" font-size="10.00">alpaqa/export.hpp</text>
</a>
</g>
</g>
<!-- Node9&#45;&gt;Node10 -->
<g id="edge11" class="edge">
<title>Node9&#45;&gt;Node10</title>
<path fill="none" stroke="#63b8ff" d="M1226.25,-297C1269.74,-272.02 1363.97,-218.44 1444.98,-176 1477.02,-159.21 1498.87,-170.72 1517.98,-140 1543.3,-99.27 1477.03,-80.43 1422.67,-71.98"/>
<polygon fill="#63b8ff" stroke="#63b8ff" points="1423.09,-68.5 1412.69,-70.52 1422.08,-75.43 1423.09,-68.5"/>
</g>
<!-- Node12 -->
<g id="node12" class="node">
<title>Node12</title>
<g id="a_node12"><a xlink:href="box_8hpp.html" target="_top" xlink:title=" ">
<polygon fill="white" stroke="#666666" points="872.48,-255.5 737.48,-255.5 737.48,-236.5 872.48,-236.5 872.48,-255.5"/>
<text text-anchor="middle" x="804.98" y="-243.5" font-family="Helvetica,sans-Serif" font-size="10.00">alpaqa/problem/box.hpp</text>
</a>
</g>
</g>
<!-- Node9&#45;&gt;Node12 -->
<g id="edge13" class="edge">
<title>Node9&#45;&gt;Node12</title>
<path fill="none" stroke="#63b8ff" d="M1142.11,-301.35C1068.36,-289.46 943.6,-269.35 868.3,-257.21"/>
<polygon fill="#63b8ff" stroke="#63b8ff" points="868.44,-253.69 858.01,-255.55 867.33,-260.6 868.44,-253.69"/>
</g>
<!-- Node17 -->
<g id="node17" class="node">
<title>Node17</title>
<g id="a_node17"><a xlink:href="check-dim_8hpp.html" target="_top" xlink:title=" ">
<polygon fill="white" stroke="#666666" points="1502.48,-255.5 1359.48,-255.5 1359.48,-236.5 1502.48,-236.5 1502.48,-255.5"/>
<text text-anchor="middle" x="1430.98" y="-243.5" font-family="Helvetica,sans-Serif" font-size="10.00">alpaqa/util/check&#45;dim.hpp</text>
</a>
</g>
</g>
<!-- Node9&#45;&gt;Node17 -->
<g id="edge22" class="edge">
<title>Node9&#45;&gt;Node17</title>
<path fill="none" stroke="#63b8ff" d="M1252.23,-296.95C1293.81,-285.34 1352.09,-269.05 1390.66,-258.27"/>
<polygon fill="#63b8ff" stroke="#63b8ff" points="1391.81,-261.58 1400.5,-255.52 1389.93,-254.84 1391.81,-261.58"/>
</g>
<!-- Node9&#45;&gt;Node19 -->
<g id="edge55" class="edge">
<title>Node9&#45;&gt;Node19</title>
<path fill="none" stroke="#63b8ff" d="M1261.62,-309.55C1325.73,-306.15 1429.54,-295.26 1511.98,-261 1582.36,-231.75 1651.28,-170.97 1681.72,-142.02"/>
<polygon fill="#63b8ff" stroke="#63b8ff" points="1684.49,-144.21 1689.26,-134.74 1679.63,-139.17 1684.49,-144.21"/>
</g>
<!-- Node21 -->
<g id="node21" class="node">
<title>Node21</title>
<g id="a_node21"><a xlink:href="not-implemented_8hpp.html" target="_top" xlink:title=" ">
<polygon fill="white" stroke="#666666" points="1867.48,-195 1690.48,-195 1690.48,-176 1867.48,-176 1867.48,-195"/>
<text text-anchor="middle" x="1778.98" y="-183" font-family="Helvetica,sans-Serif" font-size="10.00">alpaqa/util/not&#45;implemented.hpp</text>
</a>
</g>
</g>
<!-- Node9&#45;&gt;Node21 -->
<g id="edge27" class="edge">
<title>Node9&#45;&gt;Node21</title>
<path fill="none" stroke="#63b8ff" d="M1261.52,-307.49C1337.19,-302.05 1471.38,-289.12 1582.98,-261 1645.03,-245.36 1714.28,-216.07 1751.59,-199.25"/>
<polygon fill="#63b8ff" stroke="#63b8ff" points="1753.14,-202.39 1760.79,-195.06 1750.24,-196.02 1753.14,-202.39"/>
</g>
<!-- Node22 -->
<g id="node22" class="node">
<title>Node22</title>
<g id="a_node22"><a xlink:href="required-method_8hpp.html" target="_top" xlink:title=" ">
<polygon fill="white" stroke="#666666" points="1158.98,-261 1046.98,-261 1046.98,-231 1158.98,-231 1158.98,-261"/>
<text text-anchor="start" x="1054.98" y="-249" font-family="Helvetica,sans-Serif" font-size="10.00">alpaqa/util/required</text>
<text text-anchor="middle" x="1102.98" y="-238" font-family="Helvetica,sans-Serif" font-size="10.00">&#45;method.hpp</text>
</a>
</g>
</g>
<!-- Node9&#45;&gt;Node22 -->
<g id="edge30" class="edge">
<title>Node9&#45;&gt;Node22</title>
<path fill="none" stroke="#63b8ff" d="M1180,-296.8C1166.29,-287.93 1148.44,-276.39 1133.38,-266.66"/>
<polygon fill="#63b8ff" stroke="#63b8ff" points="1135.18,-263.65 1124.89,-261.16 1131.38,-269.53 1135.18,-263.65"/>
</g>
<!-- Node23 -->
<g id="node23" class="node">
<title>Node23</title>
<g id="a_node23"><a xlink:href="type-erasure_8hpp.html" target="_top" xlink:title=" ">
<polygon fill="white" stroke="#666666" points="1180.48,-195 1025.48,-195 1025.48,-176 1180.48,-176 1180.48,-195"/>
<text text-anchor="middle" x="1102.98" y="-183" font-family="Helvetica,sans-Serif" font-size="10.00">alpaqa/util/type&#45;erasure.hpp</text>
</a>
</g>
</g>
<!-- Node9&#45;&gt;Node23 -->
<g id="edge53" class="edge">
<title>Node9&#45;&gt;Node23</title>
<path fill="none" stroke="#63b8ff" d="M1142.32,-309.64C1105.86,-305.34 1061.8,-293.17 1037.98,-261 1030.04,-250.29 1031.76,-242.79 1037.98,-231 1045.21,-217.27 1058.8,-206.97 1071.69,-199.76"/>
<polygon fill="#63b8ff" stroke="#63b8ff" points="1073.56,-202.73 1080.85,-195.05 1070.36,-196.51 1073.56,-202.73"/>
</g>
<!-- Node34 -->
<g id="node34" class="node">
<title>Node34</title>
<g id="a_node34"><a xlink:title=" ">
<polygon fill="#e0e0e0" stroke="#999999" points="1508.48,-134.5 1463.48,-134.5 1463.48,-115.5 1508.48,-115.5 1508.48,-134.5"/>
<text text-anchor="middle" x="1485.98" y="-122.5" font-family="Helvetica,sans-Serif" font-size="10.00">utility</text>
</a>
</g>
</g>
<!-- Node9&#45;&gt;Node34 -->
<g id="edge57" class="edge">
<title>Node9&#45;&gt;Node34</title>
<path fill="none" stroke="#63b8ff" d="M1211.66,-296.83C1231.16,-269.36 1277.98,-208.69 1331.98,-176 1380.7,-146.5 1401.56,-159.77 1454.98,-140 1456.19,-139.55 1457.42,-139.07 1458.67,-138.58"/>
<polygon fill="#63b8ff" stroke="#63b8ff" points="1460.28,-141.7 1468.12,-134.57 1457.55,-135.25 1460.28,-141.7"/>
</g>
<!-- Node35 -->
<g id="node35" class="node">
<title>Node35</title>
<g id="a_node35"><a xlink:title=" ">
<polygon fill="#e0e0e0" stroke="#999999" points="1226.98,-255.5 1176.98,-255.5 1176.98,-236.5 1226.98,-236.5 1226.98,-255.5"/>
<text text-anchor="middle" x="1201.98" y="-243.5" font-family="Helvetica,sans-Serif" font-size="10.00">chrono</text>
</a>
</g>
</g>
<!-- Node9&#45;&gt;Node35 -->
<g id="edge54" class="edge">
<title>Node9&#45;&gt;Node35</title>
<path fill="none" stroke="#63b8ff" d="M1201.98,-296.8C1201.98,-287.7 1201.98,-275.79 1201.98,-265.9"/>
<polygon fill="#63b8ff" stroke="#63b8ff" points="1205.48,-265.84 1201.98,-255.84 1198.48,-265.84 1205.48,-265.84"/>
</g>
<!-- Node11 -->
<g id="node11" class="node">
<title>Node11</title>
<g id="a_node11"><a xlink:title=" ">
<polygon fill="#e0e0e0" stroke="#999999" points="1641.48,-19 1548.48,-19 1548.48,0 1641.48,0 1641.48,-19"/>
<text text-anchor="middle" x="1594.98" y="-7" font-family="Helvetica,sans-Serif" font-size="10.00">alpaqa/export.h</text>
</a>
</g>
</g>
<!-- Node10&#45;&gt;Node11 -->
<g id="edge12" class="edge">
<title>Node10&#45;&gt;Node11</title>
<path fill="none" stroke="#63b8ff" d="M1397.73,-54.98C1438.3,-45.84 1502.87,-31.27 1547,-21.32"/>
<polygon fill="#63b8ff" stroke="#63b8ff" points="1547.94,-24.7 1556.92,-19.08 1546.4,-17.87 1547.94,-24.7"/>
</g>
<!-- Node12&#45;&gt;Node3 -->
<g id="edge14" class="edge">
<title>Node12&#45;&gt;Node3</title>
<path fill="none" stroke="#63b8ff" d="M761.35,-236.49C707.7,-226.03 616.63,-208.27 558.71,-196.98"/>
<polygon fill="#63b8ff" stroke="#63b8ff" points="559.14,-193.5 548.65,-195.02 557.8,-200.37 559.14,-193.5"/>
</g>
<!-- Node13 -->
<g id="node13" class="node">
<title>Node13</title>
<g id="a_node13"><a xlink:href="float_8hpp.html" target="_top" xlink:title=" ">
<polygon fill="white" stroke="#666666" points="221.98,-195 107.98,-195 107.98,-176 221.98,-176 221.98,-195"/>
<text text-anchor="middle" x="164.98" y="-183" font-family="Helvetica,sans-Serif" font-size="10.00">alpaqa/util/float.hpp</text>
</a>
</g>
</g>
<!-- Node12&#45;&gt;Node13 -->
<g id="edge15" class="edge">
<title>Node12&#45;&gt;Node13</title>
<path fill="none" stroke="#63b8ff" d="M759.54,-236.5C747.67,-234.48 734.87,-232.49 722.98,-231 546.59,-208.95 337.4,-195.69 232.33,-189.92"/>
<polygon fill="#63b8ff" stroke="#63b8ff" points="232.36,-186.42 222.18,-189.37 231.98,-193.41 232.36,-186.42"/>
</g>
<!-- Node13&#45;&gt;Node4 -->
<g id="edge16" class="edge">
<title>Node13&#45;&gt;Node4</title>
<path fill="none" stroke="#63b8ff" d="M170.73,-175.87C175.53,-168.67 182.6,-158.07 188.98,-148.49"/>
<polygon fill="#63b8ff" stroke="#63b8ff" points="191.93,-150.38 194.57,-140.11 186.11,-146.49 191.93,-150.38"/>
</g>
<!-- Node13&#45;&gt;Node6 -->
<g id="edge20" class="edge">
<title>Node13&#45;&gt;Node6</title>
<path fill="none" stroke="#63b8ff" d="M155.92,-175.73C141.53,-160.75 116.72,-129.9 133.98,-110 167.85,-70.94 322.11,-65.33 399.88,-65.04"/>
<polygon fill="#63b8ff" stroke="#63b8ff" points="400.32,-68.54 410.32,-65.04 400.32,-61.54 400.32,-68.54"/>
</g>
<!-- Node13&#45;&gt;Node14 -->
<g id="edge17" class="edge">
<title>Node13&#45;&gt;Node14</title>
<path fill="none" stroke="#63b8ff" d="M186.11,-175.87C207.9,-166.95 242.85,-152.6 272.98,-140 274.14,-139.51 275.32,-139.02 276.52,-138.51"/>
<polygon fill="#63b8ff" stroke="#63b8ff" points="277.89,-141.73 285.75,-134.62 275.17,-135.28 277.89,-141.73"/>
</g>
<!-- Node15 -->
<g id="node15" class="node">
<title>Node15</title>
<g id="a_node15"><a xlink:title=" ">
<polygon fill="#e0e0e0" stroke="#999999" points="86.48,-134.5 27.48,-134.5 27.48,-115.5 86.48,-115.5 86.48,-134.5"/>
<text text-anchor="middle" x="56.98" y="-122.5" font-family="Helvetica,sans-Serif" font-size="10.00">complex</text>
</a>
</g>
</g>
<!-- Node13&#45;&gt;Node15 -->
<g id="edge18" class="edge">
<title>Node13&#45;&gt;Node15</title>
<path fill="none" stroke="#63b8ff" d="M149.04,-175.87C131.33,-166.28 102.52,-150.67 81.84,-139.47"/>
<polygon fill="#63b8ff" stroke="#63b8ff" points="83.44,-136.35 72.98,-134.67 80.1,-142.51 83.44,-136.35"/>
</g>
<!-- Node16 -->
<g id="node16" class="node">
<title>Node16</title>
<g id="a_node16"><a xlink:title=" ">
<polygon fill="#e0e0e0" stroke="#999999" points="620.98,-74 560.98,-74 560.98,-55 620.98,-55 620.98,-74"/>
<text text-anchor="middle" x="590.98" y="-62" font-family="Helvetica,sans-Serif" font-size="10.00">concepts</text>
</a>
</g>
</g>
<!-- Node13&#45;&gt;Node16 -->
<g id="edge19" class="edge">
<title>Node13&#45;&gt;Node16</title>
<path fill="none" stroke="#63b8ff" d="M109.8,-175.98C55.81,-165.44 -14.01,-144.53 17.98,-110 53.65,-71.5 436.66,-78.18 488.98,-74 509.3,-72.38 531.9,-70.5 550.65,-68.92"/>
<polygon fill="#63b8ff" stroke="#63b8ff" points="550.96,-72.41 560.63,-68.08 550.37,-65.44 550.96,-72.41"/>
</g>
<!-- Node17&#45;&gt;Node3 -->
<g id="edge23" class="edge">
<title>Node17&#45;&gt;Node3</title>
<path fill="none" stroke="#63b8ff" d="M1359.22,-239.66C1322.38,-236.97 1276.79,-233.71 1235.98,-231 997.96,-215.21 716.2,-198.66 582.65,-190.95"/>
<polygon fill="#63b8ff" stroke="#63b8ff" points="582.7,-187.45 572.51,-190.37 582.3,-194.44 582.7,-187.45"/>
</g>
<!-- Node17&#45;&gt;Node18 -->
<g id="edge24" class="edge">
<title>Node17&#45;&gt;Node18</title>
<path fill="none" stroke="#63b8ff" d="M1445.73,-236.37C1461.98,-226.86 1488.33,-211.45 1507.44,-200.27"/>
<polygon fill="#63b8ff" stroke="#63b8ff" points="1509.3,-203.24 1516.16,-195.17 1505.76,-197.2 1509.3,-203.24"/>
</g>
<!-- Node17&#45;&gt;Node19 -->
<g id="edge25" class="edge">
<title>Node17&#45;&gt;Node19</title>
<path fill="none" stroke="#63b8ff" d="M1436.37,-236.23C1446.01,-221.38 1467.63,-191.37 1493.98,-176 1555.81,-139.93 1581.75,-158.23 1650.98,-140 1654.1,-139.18 1657.34,-138.29 1660.58,-137.37"/>
<polygon fill="#63b8ff" stroke="#63b8ff" points="1661.59,-140.73 1670.22,-134.59 1659.65,-134 1661.59,-140.73"/>
</g>
<!-- Node20 -->
<g id="node20" class="node">
<title>Node20</title>
<g id="a_node20"><a xlink:title=" ">
<polygon fill="#e0e0e0" stroke="#999999" points="1536.98,-74 1492.98,-74 1492.98,-55 1536.98,-55 1536.98,-74"/>
<text text-anchor="middle" x="1514.98" y="-62" font-family="Helvetica,sans-Serif" font-size="10.00">string</text>
</a>
</g>
</g>
<!-- Node17&#45;&gt;Node20 -->
<g id="edge26" class="edge">
<title>Node17&#45;&gt;Node20</title>
<path fill="none" stroke="#63b8ff" d="M1432.74,-236.29C1436.2,-221.52 1445.33,-191.63 1464.98,-176 1519.64,-132.51 1574.6,-194.76 1617.98,-140 1626.25,-129.55 1625.3,-121.14 1617.98,-110 1602.41,-86.32 1571.28,-75.18 1547.29,-69.98"/>
<polygon fill="#63b8ff" stroke="#63b8ff" points="1547.67,-66.49 1537.19,-68.04 1546.35,-73.36 1547.67,-66.49"/>
</g>
<!-- Node21&#45;&gt;Node11 -->
<g id="edge28" class="edge">
<title>Node21&#45;&gt;Node11</title>
<path fill="none" stroke="#63b8ff" d="M1776.04,-175.87C1770.69,-161.08 1758.19,-130.53 1739.98,-110 1705.82,-71.51 1653.78,-40.57 1622.21,-23.92"/>
<polygon fill="#63b8ff" stroke="#63b8ff" points="1623.61,-20.7 1613.12,-19.22 1620.39,-26.92 1623.61,-20.7"/>
</g>
<!-- Node21&#45;&gt;Node19 -->
<g id="edge29" class="edge">
<title>Node21&#45;&gt;Node19</title>
<path fill="none" stroke="#63b8ff" d="M1767.02,-175.87C1754.22,-166.62 1733.68,-151.78 1718.32,-140.69"/>
<polygon fill="#63b8ff" stroke="#63b8ff" points="1720.13,-137.68 1709.98,-134.67 1716.03,-143.36 1720.13,-137.68"/>
</g>
<!-- Node22&#45;&gt;Node23 -->
<g id="edge31" class="edge">
<title>Node22&#45;&gt;Node23</title>
<path fill="none" stroke="#63b8ff" d="M1102.98,-230.84C1102.98,-223.21 1102.98,-213.7 1102.98,-205.45"/>
<polygon fill="#63b8ff" stroke="#63b8ff" points="1106.48,-205.27 1102.98,-195.27 1099.48,-205.27 1106.48,-205.27"/>
</g>
<!-- Node32 -->
<g id="node32" class="node">
<title>Node32</title>
<g id="a_node32"><a xlink:title=" ">
<polygon fill="#e0e0e0" stroke="#999999" points="1445.48,-134.5 1380.48,-134.5 1380.48,-115.5 1445.48,-115.5 1445.48,-134.5"/>
<text text-anchor="middle" x="1412.98" y="-122.5" font-family="Helvetica,sans-Serif" font-size="10.00">functional</text>
</a>
</g>
</g>
<!-- Node22&#45;&gt;Node32 -->
<g id="edge52" class="edge">
<title>Node22&#45;&gt;Node32</title>
<path fill="none" stroke="#63b8ff" d="M1127.75,-230.78C1154.87,-215.64 1199.97,-191.76 1240.98,-176 1296.94,-154.49 1313.63,-157.49 1370.98,-140 1373.42,-139.25 1375.94,-138.47 1378.47,-137.66"/>
<polygon fill="#63b8ff" stroke="#63b8ff" points="1379.74,-140.93 1388.17,-134.5 1377.58,-134.27 1379.74,-140.93"/>
</g>
<!-- Node23&#45;&gt;Node6 -->
<g id="edge49" class="edge">
<title>Node23&#45;&gt;Node6</title>
<path fill="none" stroke="#63b8ff" d="M1025.19,-177.2C1020.38,-176.78 1015.61,-176.38 1010.98,-176 898.18,-166.79 602.83,-193.26 502.98,-140 479.65,-127.56 462.7,-101.23 453.35,-83.45"/>
<polygon fill="#63b8ff" stroke="#63b8ff" points="456.42,-81.76 448.83,-74.36 450.15,-84.88 456.42,-81.76"/>
</g>
<!-- Node23&#45;&gt;Node10 -->
<g id="edge32" class="edge">
<title>Node23&#45;&gt;Node10</title>
<path fill="none" stroke="#63b8ff" d="M1122,-175.94C1139.82,-167.63 1166.94,-154.22 1188.98,-140 1207.06,-128.34 1208.05,-120.23 1226.98,-110 1254.33,-95.22 1287.48,-84.11 1313.84,-76.69"/>
<polygon fill="#63b8ff" stroke="#63b8ff" points="1314.87,-80.04 1323.59,-74.03 1313.02,-73.29 1314.87,-80.04"/>
</g>
<!-- Node23&#45;&gt;Node19 -->
<g id="edge48" class="edge">
<title>Node23&#45;&gt;Node19</title>
<path fill="none" stroke="#63b8ff" d="M1180.85,-179.89C1281.91,-173.42 1463.58,-160.14 1617.98,-140 1630.21,-138.4 1643.43,-136.26 1655.53,-134.14"/>
<polygon fill="#63b8ff" stroke="#63b8ff" points="1656.16,-137.58 1665.38,-132.37 1654.92,-130.69 1656.16,-137.58"/>
</g>
<!-- Node24 -->
<g id="node24" class="node">
<title>Node24</title>
<g id="a_node24"><a xlink:href="demangled-typename_8hpp.html" target="_top" xlink:title=" ">
<polygon fill="white" stroke="#666666" points="1361.98,-140 1235.98,-140 1235.98,-110 1361.98,-110 1361.98,-140"/>
<text text-anchor="start" x="1243.98" y="-128" font-family="Helvetica,sans-Serif" font-size="10.00">alpaqa/util/demangled</text>
<text text-anchor="middle" x="1298.98" y="-117" font-family="Helvetica,sans-Serif" font-size="10.00">&#45;typename.hpp</text>
</a>
</g>
</g>
<!-- Node23&#45;&gt;Node24 -->
<g id="edge33" class="edge">
<title>Node23&#45;&gt;Node24</title>
<path fill="none" stroke="#63b8ff" d="M1131.48,-175.99C1160.3,-167.39 1205.65,-153.86 1241.89,-143.04"/>
<polygon fill="#63b8ff" stroke="#63b8ff" points="1243.27,-146.28 1251.85,-140.06 1241.27,-139.57 1243.27,-146.28"/>
</g>
<!-- Node25 -->
<g id="node25" class="node">
<title>Node25</title>
<g id="a_node25"><a xlink:title=" ">
<polygon fill="#e0e0e0" stroke="#999999" points="1131.48,-74 1074.48,-74 1074.48,-55 1131.48,-55 1131.48,-74"/>
<text text-anchor="middle" x="1102.98" y="-62" font-family="Helvetica,sans-Serif" font-size="10.00">typeinfo</text>
</a>
</g>
</g>
<!-- Node23&#45;&gt;Node25 -->
<g id="edge50" class="edge">
<title>Node23&#45;&gt;Node25</title>
<path fill="none" stroke="#63b8ff" d="M1025.31,-176.97C1002.16,-170.68 979.2,-159.54 964.98,-140 936.49,-100.88 1014.09,-80.17 1064.2,-71.16"/>
<polygon fill="#63b8ff" stroke="#63b8ff" points="1064.85,-74.6 1074.12,-69.46 1063.67,-67.7 1064.85,-74.6"/>
</g>
<!-- Node26 -->
<g id="node26" class="node">
<title>Node26</title>
<g id="a_node26"><a xlink:href="noop-delete_8hpp.html" target="_top" xlink:title=" ">
<polygon fill="white" stroke="#666666" points="917.48,-134.5 766.48,-134.5 766.48,-115.5 917.48,-115.5 917.48,-134.5"/>
<text text-anchor="middle" x="841.98" y="-122.5" font-family="Helvetica,sans-Serif" font-size="10.00">alpaqa/util/noop&#45;delete.hpp</text>
</a>
</g>
</g>
<!-- Node23&#45;&gt;Node26 -->
<g id="edge37" class="edge">
<title>Node23&#45;&gt;Node26</title>
<path fill="none" stroke="#63b8ff" d="M1065.02,-175.99C1018.73,-165.62 940.42,-148.07 889.98,-136.76"/>
<polygon fill="#63b8ff" stroke="#63b8ff" points="890.5,-133.29 879.97,-134.52 888.97,-140.12 890.5,-133.29"/>
</g>
<!-- Node27 -->
<g id="node27" class="node">
<title>Node27</title>
<g id="a_node27"><a xlink:href="type-traits_8hpp.html" target="_top" xlink:title=" ">
<polygon fill="white" stroke="#666666" points="709.48,-134.5 566.48,-134.5 566.48,-115.5 709.48,-115.5 709.48,-134.5"/>
<text text-anchor="middle" x="637.98" y="-122.5" font-family="Helvetica,sans-Serif" font-size="10.00">alpaqa/util/type&#45;traits.hpp</text>
</a>
</g>
</g>
<!-- Node23&#45;&gt;Node27 -->
<g id="edge38" class="edge">
<title>Node23&#45;&gt;Node27</title>
<path fill="none" stroke="#63b8ff" d="M1025.18,-176.39C948.47,-168.15 827.97,-154.56 723.98,-140 715.58,-138.82 706.73,-137.49 698.04,-136.13"/>
<polygon fill="#63b8ff" stroke="#63b8ff" points="698.37,-132.64 687.94,-134.52 697.27,-139.55 698.37,-132.64"/>
</g>
<!-- Node28 -->
<g id="node28" class="node">
<title>Node28</title>
<g id="a_node28"><a xlink:title=" ">
<polygon fill="#e0e0e0" stroke="#999999" points="712.98,-74 654.98,-74 654.98,-55 712.98,-55 712.98,-74"/>
<text text-anchor="middle" x="683.98" y="-62" font-family="Helvetica,sans-Serif" font-size="10.00">memory</text>
</a>
</g>
</g>
<!-- Node23&#45;&gt;Node28 -->
<g id="edge46" class="edge">
<title>Node23&#45;&gt;Node28</title>
<path fill="none" stroke="#63b8ff" d="M1025.08,-177.15C930.72,-167.82 781.4,-151.56 757.98,-140 743.81,-133.01 714.93,-101.36 697.73,-81.63"/>
<polygon fill="#63b8ff" stroke="#63b8ff" points="700.34,-79.29 691.16,-74.01 695.04,-83.87 700.34,-79.29"/>
</g>
<!-- Node29 -->
<g id="node29" class="node">
<title>Node29</title>
<g id="a_node29"><a xlink:title=" ">
<polygon fill="#e0e0e0" stroke="#999999" points="1037.98,-134.5 973.98,-134.5 973.98,-115.5 1037.98,-115.5 1037.98,-134.5"/>
<text text-anchor="middle" x="1005.98" y="-122.5" font-family="Helvetica,sans-Serif" font-size="10.00">algorithm</text>
</a>
</g>
</g>
<!-- Node23&#45;&gt;Node29 -->
<g id="edge42" class="edge">
<title>Node23&#45;&gt;Node29</title>
<path fill="none" stroke="#63b8ff" d="M1088.66,-175.87C1072.97,-166.41 1047.57,-151.09 1029.06,-139.92"/>
<polygon fill="#63b8ff" stroke="#63b8ff" points="1030.72,-136.83 1020.35,-134.67 1027.1,-142.83 1030.72,-136.83"/>
</g>
<!-- Node30 -->
<g id="node30" class="node">
<title>Node30</title>
<g id="a_node30"><a xlink:title=" ">
<polygon fill="#e0e0e0" stroke="#999999" points="1107.98,-134.5 1055.98,-134.5 1055.98,-115.5 1107.98,-115.5 1107.98,-134.5"/>
<text text-anchor="middle" x="1081.98" y="-122.5" font-family="Helvetica,sans-Serif" font-size="10.00">cassert</text>
</a>
</g>
</g>
<!-- Node23&#45;&gt;Node30 -->
<g id="edge43" class="edge">
<title>Node23&#45;&gt;Node30</title>
<path fill="none" stroke="#63b8ff" d="M1099.88,-175.87C1096.9,-167.57 1092.31,-154.78 1088.52,-144.22"/>
<polygon fill="#63b8ff" stroke="#63b8ff" points="1091.76,-142.9 1085.09,-134.67 1085.17,-145.26 1091.76,-142.9"/>
</g>
<!-- Node31 -->
<g id="node31" class="node">
<title>Node31</title>
<g id="a_node31"><a xlink:title=" ">
<polygon fill="#e0e0e0" stroke="#999999" points="1179.48,-134.5 1126.48,-134.5 1126.48,-115.5 1179.48,-115.5 1179.48,-134.5"/>
<text text-anchor="middle" x="1152.98" y="-122.5" font-family="Helvetica,sans-Serif" font-size="10.00">cstddef</text>
</a>
</g>
</g>
<!-- Node23&#45;&gt;Node31 -->
<g id="edge44" class="edge">
<title>Node23&#45;&gt;Node31</title>
<path fill="none" stroke="#63b8ff" d="M1110.35,-175.87C1117.89,-167.05 1129.76,-153.16 1139.07,-142.27"/>
<polygon fill="#63b8ff" stroke="#63b8ff" points="1141.73,-144.54 1145.57,-134.67 1136.41,-140 1141.73,-144.54"/>
</g>
<!-- Node23&#45;&gt;Node32 -->
<g id="edge45" class="edge">
<title>Node23&#45;&gt;Node32</title>
<path fill="none" stroke="#63b8ff" d="M1172.72,-175.98C1227.17,-168.6 1304.48,-156.49 1370.98,-140 1373.94,-139.27 1376.99,-138.42 1380.04,-137.52"/>
<polygon fill="#63b8ff" stroke="#63b8ff" points="1381.13,-140.85 1389.62,-134.51 1379.03,-134.17 1381.13,-140.85"/>
</g>
<!-- Node33 -->
<g id="node33" class="node">
<title>Node33</title>
<g id="a_node33"><a xlink:title=" ">
<polygon fill="#e0e0e0" stroke="#999999" points="548.48,-134.5 511.48,-134.5 511.48,-115.5 548.48,-115.5 548.48,-134.5"/>
<text text-anchor="middle" x="529.98" y="-122.5" font-family="Helvetica,sans-Serif" font-size="10.00">new</text>
</a>
</g>
</g>
<!-- Node23&#45;&gt;Node33 -->
<g id="edge47" class="edge">
<title>Node23&#45;&gt;Node33</title>
<path fill="none" stroke="#63b8ff" d="M1025.18,-177.24C1020.38,-176.82 1015.61,-176.4 1010.98,-176 809.75,-158.71 752.55,-194.16 557.98,-140 556.54,-139.6 555.08,-139.12 553.63,-138.59"/>
<polygon fill="#63b8ff" stroke="#63b8ff" points="554.93,-135.34 544.37,-134.52 552.12,-141.75 554.93,-135.34"/>
</g>
<!-- Node23&#45;&gt;Node34 -->
<g id="edge51" class="edge">
<title>Node23&#45;&gt;Node34</title>
<path fill="none" stroke="#63b8ff" d="M1180.73,-177.4C1268.34,-168.91 1405.03,-154.09 1454.98,-140 1456.62,-139.54 1458.28,-139 1459.95,-138.41"/>
<polygon fill="#63b8ff" stroke="#63b8ff" points="1461.31,-141.64 1469.26,-134.64 1458.68,-135.15 1461.31,-141.64"/>
</g>
<!-- Node24&#45;&gt;Node10 -->
<g id="edge34" class="edge">
<title>Node24&#45;&gt;Node10</title>
<path fill="none" stroke="#63b8ff" d="M1313.74,-109.84C1322.69,-101.26 1334.12,-90.3 1343.38,-81.42"/>
<polygon fill="#63b8ff" stroke="#63b8ff" points="1346.04,-83.71 1350.84,-74.27 1341.2,-78.66 1346.04,-83.71"/>
</g>
<!-- Node24&#45;&gt;Node20 -->
<g id="edge35" class="edge">
<title>Node24&#45;&gt;Node20</title>
<path fill="none" stroke="#63b8ff" d="M1350.71,-109.99C1391.77,-98.87 1447.88,-83.67 1482.75,-74.23"/>
<polygon fill="#63b8ff" stroke="#63b8ff" points="1484.11,-77.49 1492.85,-71.49 1482.28,-70.73 1484.11,-77.49"/>
</g>
<!-- Node24&#45;&gt;Node25 -->
<g id="edge36" class="edge">
<title>Node24&#45;&gt;Node25</title>
<path fill="none" stroke="#63b8ff" d="M1252.03,-109.99C1218.2,-99.89 1173.12,-86.44 1141.42,-76.98"/>
<polygon fill="#63b8ff" stroke="#63b8ff" points="1142.22,-73.56 1131.63,-74.05 1140.22,-80.27 1142.22,-73.56"/>
</g>
<!-- Node27&#45;&gt;Node6 -->
<g id="edge41" class="edge">
<title>Node27&#45;&gt;Node6</title>
<path fill="none" stroke="#63b8ff" d="M609.91,-115.49C576.46,-105.36 520.42,-88.37 483.08,-77.05"/>
<polygon fill="#63b8ff" stroke="#63b8ff" points="483.66,-73.57 473.07,-74.02 481.63,-80.27 483.66,-73.57"/>
</g>
<!-- Node27&#45;&gt;Node16 -->
<g id="edge39" class="edge">
<title>Node27&#45;&gt;Node16</title>
<path fill="none" stroke="#63b8ff" d="M631.04,-115.37C624.03,-106.64 613.01,-92.93 604.31,-82.09"/>
<polygon fill="#63b8ff" stroke="#63b8ff" points="606.93,-79.77 597.94,-74.17 601.47,-84.16 606.93,-79.77"/>
</g>
<!-- Node27&#45;&gt;Node28 -->
<g id="edge40" class="edge">
<title>Node27&#45;&gt;Node28</title>
<path fill="none" stroke="#63b8ff" d="M644.76,-115.37C651.63,-106.64 662.41,-92.93 670.93,-82.09"/>
<polygon fill="#63b8ff" stroke="#63b8ff" points="673.73,-84.19 677.16,-74.17 668.23,-79.86 673.73,-84.19"/>
</g>
<!-- Node36&#45;&gt;Node3 -->
<g id="edge60" class="edge">
<title>Node36&#45;&gt;Node3</title>
<path fill="none" stroke="#63b8ff" d="M467.73,-302.44C474.15,-282.45 490.26,-232.32 499.04,-204.98"/>
<polygon fill="#63b8ff" stroke="#63b8ff" points="502.48,-205.71 502.21,-195.12 495.82,-203.57 502.48,-205.71"/>
</g>
<!-- Node37 -->
<g id="node37" class="node">
<title>Node37</title>
<g id="a_node37"><a xlink:title=" ">
<polygon fill="#e0e0e0" stroke="#999999" points="438.98,-255.5 398.98,-255.5 398.98,-236.5 438.98,-236.5 438.98,-255.5"/>
<text text-anchor="middle" x="418.98" y="-243.5" font-family="Helvetica,sans-Serif" font-size="10.00">span</text>
</a>
</g>
</g>
<!-- Node36&#45;&gt;Node37 -->
<g id="edge61" class="edge">
<title>Node36&#45;&gt;Node37</title>
<path fill="none" stroke="#63b8ff" d="M458.77,-302.37C451.75,-292.59 440.12,-276.42 431.25,-264.08"/>
<polygon fill="#63b8ff" stroke="#63b8ff" points="434.05,-261.98 425.38,-255.91 428.37,-266.07 434.05,-261.98"/>
</g>
</g>
</svg>
