<?xml version="1.0" encoding="UTF-8" standalone="no"?>
<!DOCTYPE svg PUBLIC "-//W3C//DTD SVG 1.1//EN"
 "http://www.w3.org/Graphics/SVG/1.1/DTD/svg11.dtd">
<!-- Generated by graphviz version 2.43.0 (0)
 -->
<!-- Title: pantr&#45;direction.hpp Pages: 1 -->
<svg width="1775pt" height="390pt"
 viewBox="0.00 0.00 1775.27 390.00" xmlns="http://www.w3.org/2000/svg" xmlns:xlink="http://www.w3.org/1999/xlink">
<g id="graph0" class="graph" transform="scale(1 1) rotate(0) translate(4 386)">
<title>pantr&#45;direction.hpp</title>
<!-- Node1 -->
<g id="node1" class="node">
<title>Node1</title>
<g id="a_node1"><a xlink:title=" ">
<polygon fill="#999999" stroke="#666666" points="345.77,-382 235.77,-382 235.77,-363 345.77,-363 345.77,-382"/>
<text text-anchor="middle" x="290.77" y="-370" font-family="Helvetica,sans-Serif" font-size="10.00">pantr&#45;direction.hpp</text>
</a>
</g>
</g>
<!-- Node2 -->
<g id="node2" class="node">
<title>Node2</title>
<g id="a_node2"><a xlink:href="config_8hpp.html" target="_top" xlink:title=" ">
<polygon fill="white" stroke="#666666" points="424.27,-195 289.27,-195 289.27,-176 424.27,-176 424.27,-195"/>
<text text-anchor="middle" x="356.77" y="-183" font-family="Helvetica,sans-Serif" font-size="10.00">alpaqa/config/config.hpp</text>
</a>
</g>
</g>
<!-- Node1&#45;&gt;Node2 -->
<g id="edge1" class="edge">
<title>Node1&#45;&gt;Node2</title>
<path fill="none" stroke="#63b8ff" d="M275.02,-362.92C236.62,-340.94 144.09,-280.82 182.77,-231 195.14,-215.07 239.42,-203.88 280.22,-196.7"/>
<polygon fill="#63b8ff" stroke="#63b8ff" points="280.94,-200.13 290.22,-195.01 279.77,-193.23 280.94,-200.13"/>
</g>
<!-- Node7 -->
<g id="node7" class="node">
<title>Node7</title>
<g id="a_node7"><a xlink:href="type-erased-problem_8hpp.html" target="_top" xlink:title=" ">
<polygon fill="white" stroke="#666666" points="719.27,-327 600.27,-327 600.27,-297 719.27,-297 719.27,-327"/>
<text text-anchor="start" x="608.27" y="-315" font-family="Helvetica,sans-Serif" font-size="10.00">alpaqa/problem/type</text>
<text text-anchor="middle" x="659.77" y="-304" font-family="Helvetica,sans-Serif" font-size="10.00">&#45;erased&#45;problem.hpp</text>
</a>
</g>
</g>
<!-- Node1&#45;&gt;Node7 -->
<g id="edge6" class="edge">
<title>Node1&#45;&gt;Node7</title>
<path fill="none" stroke="#63b8ff" d="M344.43,-362.99C409.3,-352.71 518.63,-335.38 590,-324.06"/>
<polygon fill="#63b8ff" stroke="#63b8ff" points="590.91,-327.46 600.24,-322.44 589.82,-320.55 590.91,-327.46"/>
</g>
<!-- Node3 -->
<g id="node3" class="node">
<title>Node3</title>
<g id="a_node3"><a xlink:href="quadmath_8hpp.html" target="_top" xlink:title=" ">
<polygon fill="white" stroke="#666666" points="328.27,-140 207.27,-140 207.27,-110 328.27,-110 328.27,-140"/>
<text text-anchor="start" x="215.27" y="-128" font-family="Helvetica,sans-Serif" font-size="10.00">alpaqa/util/quadmath</text>
<text text-anchor="middle" x="267.77" y="-117" font-family="Helvetica,sans-Serif" font-size="10.00">/quadmath.hpp</text>
</a>
</g>
</g>
<!-- Node2&#45;&gt;Node3 -->
<g id="edge2" class="edge">
<title>Node2&#45;&gt;Node3</title>
<path fill="none" stroke="#63b8ff" d="M343.64,-175.87C331.68,-168 313.56,-156.09 298.03,-145.89"/>
<polygon fill="#63b8ff" stroke="#63b8ff" points="299.53,-142.68 289.25,-140.11 295.68,-148.53 299.53,-142.68"/>
</g>
<!-- Node4 -->
<g id="node4" class="node">
<title>Node4</title>
<g id="a_node4"><a xlink:title=" ">
<polygon fill="#e0e0e0" stroke="#999999" points="428.77,-134.5 384.77,-134.5 384.77,-115.5 428.77,-115.5 428.77,-134.5"/>
<text text-anchor="middle" x="406.77" y="-122.5" font-family="Helvetica,sans-Serif" font-size="10.00">limits</text>
</a>
</g>
</g>
<!-- Node2&#45;&gt;Node4 -->
<g id="edge3" class="edge">
<title>Node2&#45;&gt;Node4</title>
<path fill="none" stroke="#63b8ff" d="M364.15,-175.87C371.69,-167.05 383.56,-153.16 392.87,-142.27"/>
<polygon fill="#63b8ff" stroke="#63b8ff" points="395.53,-144.54 399.37,-134.67 390.21,-140 395.53,-144.54"/>
</g>
<!-- Node5 -->
<g id="node5" class="node">
<title>Node5</title>
<g id="a_node5"><a xlink:title=" ">
<polygon fill="#e0e0e0" stroke="#999999" points="391.27,-74 322.27,-74 322.27,-55 391.27,-55 391.27,-74"/>
<text text-anchor="middle" x="356.77" y="-62" font-family="Helvetica,sans-Serif" font-size="10.00">type_traits</text>
</a>
</g>
</g>
<!-- Node2&#45;&gt;Node5 -->
<g id="edge4" class="edge">
<title>Node2&#45;&gt;Node5</title>
<path fill="none" stroke="#63b8ff" d="M356.77,-175.94C356.77,-156.91 356.77,-110.69 356.77,-84.47"/>
<polygon fill="#63b8ff" stroke="#63b8ff" points="360.27,-84.3 356.77,-74.3 353.27,-84.3 360.27,-84.3"/>
</g>
<!-- Node6 -->
<g id="node6" class="node">
<title>Node6</title>
<g id="a_node6"><a xlink:title=" ">
<polygon fill="#e0e0e0" stroke="#999999" points="516.27,-134.5 447.27,-134.5 447.27,-115.5 516.27,-115.5 516.27,-134.5"/>
<text text-anchor="middle" x="481.77" y="-122.5" font-family="Helvetica,sans-Serif" font-size="10.00">Eigen/Core</text>
</a>
</g>
</g>
<!-- Node2&#45;&gt;Node6 -->
<g id="edge5" class="edge">
<title>Node2&#45;&gt;Node6</title>
<path fill="none" stroke="#63b8ff" d="M374.95,-175.99C395.78,-166.25 430.14,-150.16 454.26,-138.88"/>
<polygon fill="#63b8ff" stroke="#63b8ff" points="456,-141.93 463.58,-134.52 453.04,-135.59 456,-141.93"/>
</g>
<!-- Node7&#45;&gt;Node2 -->
<g id="edge7" class="edge">
<title>Node7&#45;&gt;Node2</title>
<path fill="none" stroke="#63b8ff" d="M599.96,-308.06C526.16,-303.19 406.55,-290.82 374.77,-261 359.72,-246.87 356.3,-222.49 355.95,-205.49"/>
<polygon fill="#63b8ff" stroke="#63b8ff" points="359.45,-205.15 356.08,-195.11 352.45,-205.06 359.45,-205.15"/>
</g>
<!-- Node7&#45;&gt;Node5 -->
<g id="edge54" class="edge">
<title>Node7&#45;&gt;Node5</title>
<path fill="none" stroke="#63b8ff" d="M600.2,-308.32C489.89,-302.76 258.16,-288.2 182.77,-261 93.14,-228.66 49.64,-224.6 5.77,-140 -0.36,-128.16 -3.04,-120 5.77,-110 25.72,-87.36 221.79,-73.26 311.9,-67.93"/>
<polygon fill="#63b8ff" stroke="#63b8ff" points="312.31,-71.41 322.09,-67.34 311.9,-64.42 312.31,-71.41"/>
</g>
<!-- Node8 -->
<g id="node8" class="node">
<title>Node8</title>
<g id="a_node8"><a xlink:href="export_8hpp.html" target="_top" xlink:title=" ">
<polygon fill="white" stroke="#666666" points="1040.27,-74 935.27,-74 935.27,-55 1040.27,-55 1040.27,-74"/>
<text text-anchor="middle" x="987.77" y="-62" font-family="Helvetica,sans-Serif" font-size="10.00">alpaqa/export.hpp</text>
</a>
</g>
</g>
<!-- Node7&#45;&gt;Node8 -->
<g id="edge8" class="edge">
<title>Node7&#45;&gt;Node8</title>
<path fill="none" stroke="#63b8ff" d="M708.55,-296.9C761.57,-279.68 846.5,-246.32 904.77,-195 941.22,-162.9 967.77,-111.06 980.09,-83.72"/>
<polygon fill="#63b8ff" stroke="#63b8ff" points="983.44,-84.79 984.24,-74.23 977.03,-81.99 983.44,-84.79"/>
</g>
<!-- Node10 -->
<g id="node10" class="node">
<title>Node10</title>
<g id="a_node10"><a xlink:href="box_8hpp.html" target="_top" xlink:title=" ">
<polygon fill="white" stroke="#666666" points="327.27,-255.5 192.27,-255.5 192.27,-236.5 327.27,-236.5 327.27,-255.5"/>
<text text-anchor="middle" x="259.77" y="-243.5" font-family="Helvetica,sans-Serif" font-size="10.00">alpaqa/problem/box.hpp</text>
</a>
</g>
</g>
<!-- Node7&#45;&gt;Node10 -->
<g id="edge10" class="edge">
<title>Node7&#45;&gt;Node10</title>
<path fill="none" stroke="#63b8ff" d="M600.25,-301.88C536.33,-292.03 431.81,-275.76 341.77,-261 334.44,-259.8 326.74,-258.51 319.12,-257.23"/>
<polygon fill="#63b8ff" stroke="#63b8ff" points="319.63,-253.76 309.19,-255.54 318.46,-260.67 319.63,-253.76"/>
</g>
<!-- Node15 -->
<g id="node15" class="node">
<title>Node15</title>
<g id="a_node15"><a xlink:href="alloc-check_8hpp.html" target="_top" xlink:title=" ">
<polygon fill="white" stroke="#666666" points="531.77,-255.5 383.77,-255.5 383.77,-236.5 531.77,-236.5 531.77,-255.5"/>
<text text-anchor="middle" x="457.77" y="-243.5" font-family="Helvetica,sans-Serif" font-size="10.00">alpaqa/util/alloc&#45;check.hpp</text>
</a>
</g>
</g>
<!-- Node7&#45;&gt;Node15 -->
<g id="edge18" class="edge">
<title>Node7&#45;&gt;Node15</title>
<path fill="none" stroke="#63b8ff" d="M615.44,-296.95C579.08,-285.43 528.23,-269.32 494.21,-258.54"/>
<polygon fill="#63b8ff" stroke="#63b8ff" points="495.25,-255.2 484.66,-255.52 493.13,-261.87 495.25,-255.2"/>
</g>
<!-- Node16 -->
<g id="node16" class="node">
<title>Node16</title>
<g id="a_node16"><a xlink:href="check-dim_8hpp.html" target="_top" xlink:title=" ">
<polygon fill="white" stroke="#666666" points="731.27,-255.5 588.27,-255.5 588.27,-236.5 731.27,-236.5 731.27,-255.5"/>
<text text-anchor="middle" x="659.77" y="-243.5" font-family="Helvetica,sans-Serif" font-size="10.00">alpaqa/util/check&#45;dim.hpp</text>
</a>
</g>
</g>
<!-- Node7&#45;&gt;Node16 -->
<g id="edge20" class="edge">
<title>Node7&#45;&gt;Node16</title>
<path fill="none" stroke="#63b8ff" d="M659.77,-296.8C659.77,-287.7 659.77,-275.79 659.77,-265.9"/>
<polygon fill="#63b8ff" stroke="#63b8ff" points="663.27,-265.84 659.77,-255.84 656.27,-265.84 663.27,-265.84"/>
</g>
<!-- Node18 -->
<g id="node18" class="node">
<title>Node18</title>
<g id="a_node18"><a xlink:title=" ">
<polygon fill="#e0e0e0" stroke="#999999" points="599.27,-134.5 534.27,-134.5 534.27,-115.5 599.27,-115.5 599.27,-134.5"/>
<text text-anchor="middle" x="566.77" y="-122.5" font-family="Helvetica,sans-Serif" font-size="10.00">stdexcept</text>
</a>
</g>
</g>
<!-- Node7&#45;&gt;Node18 -->
<g id="edge53" class="edge">
<title>Node7&#45;&gt;Node18</title>
<path fill="none" stroke="#63b8ff" d="M623.14,-296.99C607.13,-288.94 589.77,-277.16 579.77,-261 557.34,-224.75 560.14,-172.25 563.7,-144.62"/>
<polygon fill="#63b8ff" stroke="#63b8ff" points="567.16,-145.12 565.15,-134.72 560.23,-144.1 567.16,-145.12"/>
</g>
<!-- Node20 -->
<g id="node20" class="node">
<title>Node20</title>
<g id="a_node20"><a xlink:href="not-implemented_8hpp.html" target="_top" xlink:title=" ">
<polygon fill="white" stroke="#666666" points="876.27,-195 699.27,-195 699.27,-176 876.27,-176 876.27,-195"/>
<text text-anchor="middle" x="787.77" y="-183" font-family="Helvetica,sans-Serif" font-size="10.00">alpaqa/util/not&#45;implemented.hpp</text>
</a>
</g>
</g>
<!-- Node7&#45;&gt;Node20 -->
<g id="edge25" class="edge">
<title>Node7&#45;&gt;Node20</title>
<path fill="none" stroke="#63b8ff" d="M689.39,-296.96C705.81,-288.19 725.86,-275.77 740.77,-261 757.53,-244.41 771.16,-220.77 779.34,-204.6"/>
<polygon fill="#63b8ff" stroke="#63b8ff" points="782.69,-205.72 783.91,-195.19 776.39,-202.66 782.69,-205.72"/>
</g>
<!-- Node21 -->
<g id="node21" class="node">
<title>Node21</title>
<g id="a_node21"><a xlink:href="required-method_8hpp.html" target="_top" xlink:title=" ">
<polygon fill="white" stroke="#666666" points="1196.77,-261 1084.77,-261 1084.77,-231 1196.77,-231 1196.77,-261"/>
<text text-anchor="start" x="1092.77" y="-249" font-family="Helvetica,sans-Serif" font-size="10.00">alpaqa/util/required</text>
<text text-anchor="middle" x="1140.77" y="-238" font-family="Helvetica,sans-Serif" font-size="10.00">&#45;method.hpp</text>
</a>
</g>
</g>
<!-- Node7&#45;&gt;Node21 -->
<g id="edge28" class="edge">
<title>Node7&#45;&gt;Node21</title>
<path fill="none" stroke="#63b8ff" d="M719.5,-304.55C798.13,-295.83 940.59,-279.26 1061.77,-261 1065.96,-260.37 1070.26,-259.69 1074.6,-258.99"/>
<polygon fill="#63b8ff" stroke="#63b8ff" points="1075.44,-262.39 1084.73,-257.3 1074.29,-255.49 1075.44,-262.39"/>
</g>
<!-- Node22 -->
<g id="node22" class="node">
<title>Node22</title>
<g id="a_node22"><a xlink:href="type-erasure_8hpp.html" target="_top" xlink:title=" ">
<polygon fill="white" stroke="#666666" points="1224.27,-195 1069.27,-195 1069.27,-176 1224.27,-176 1224.27,-195"/>
<text text-anchor="middle" x="1146.77" y="-183" font-family="Helvetica,sans-Serif" font-size="10.00">alpaqa/util/type&#45;erasure.hpp</text>
</a>
</g>
</g>
<!-- Node7&#45;&gt;Node22 -->
<g id="edge51" class="edge">
<title>Node7&#45;&gt;Node22</title>
<path fill="none" stroke="#63b8ff" d="M719.52,-304.55C779.87,-297.19 875.4,-283.21 955.77,-261 1015.51,-244.49 1082.35,-215.97 1118.99,-199.42"/>
<polygon fill="#63b8ff" stroke="#63b8ff" points="1120.85,-202.42 1128.5,-195.09 1117.95,-196.05 1120.85,-202.42"/>
</g>
<!-- Node33 -->
<g id="node33" class="node">
<title>Node33</title>
<g id="a_node33"><a xlink:title=" ">
<polygon fill="#e0e0e0" stroke="#999999" points="1767.27,-134.5 1722.27,-134.5 1722.27,-115.5 1767.27,-115.5 1767.27,-134.5"/>
<text text-anchor="middle" x="1744.77" y="-122.5" font-family="Helvetica,sans-Serif" font-size="10.00">utility</text>
</a>
</g>
</g>
<!-- Node7&#45;&gt;Node33 -->
<g id="edge55" class="edge">
<title>Node7&#45;&gt;Node33</title>
<path fill="none" stroke="#63b8ff" d="M719.52,-309.84C829.84,-306.87 1072.61,-296.53 1273.77,-261 1473.5,-225.73 1523,-208.84 1713.77,-140 1714.99,-139.56 1716.23,-139.09 1717.47,-138.61"/>
<polygon fill="#63b8ff" stroke="#63b8ff" points="1719.08,-141.73 1726.94,-134.63 1716.36,-135.28 1719.08,-141.73"/>
</g>
<!-- Node34 -->
<g id="node34" class="node">
<title>Node34</title>
<g id="a_node34"><a xlink:title=" ">
<polygon fill="#e0e0e0" stroke="#999999" points="1264.77,-255.5 1214.77,-255.5 1214.77,-236.5 1264.77,-236.5 1264.77,-255.5"/>
<text text-anchor="middle" x="1239.77" y="-243.5" font-family="Helvetica,sans-Serif" font-size="10.00">chrono</text>
</a>
</g>
</g>
<!-- Node7&#45;&gt;Node34 -->
<g id="edge52" class="edge">
<title>Node7&#45;&gt;Node34</title>
<path fill="none" stroke="#63b8ff" d="M719.31,-311.32C820.69,-310.6 1032.68,-303.53 1205.77,-261 1207.94,-260.47 1210.15,-259.82 1212.35,-259.1"/>
<polygon fill="#63b8ff" stroke="#63b8ff" points="1213.61,-262.36 1221.76,-255.59 1211.17,-255.8 1213.61,-262.36"/>
</g>
<!-- Node9 -->
<g id="node9" class="node">
<title>Node9</title>
<g id="a_node9"><a xlink:title=" ">
<polygon fill="#e0e0e0" stroke="#999999" points="950.27,-19 857.27,-19 857.27,0 950.27,0 950.27,-19"/>
<text text-anchor="middle" x="903.77" y="-7" font-family="Helvetica,sans-Serif" font-size="10.00">alpaqa/export.h</text>
</a>
</g>
</g>
<!-- Node8&#45;&gt;Node9 -->
<g id="edge9" class="edge">
<title>Node8&#45;&gt;Node9</title>
<path fill="none" stroke="#63b8ff" d="M974.28,-54.98C961.37,-46.84 941.67,-34.41 926.37,-24.76"/>
<polygon fill="#63b8ff" stroke="#63b8ff" points="927.84,-21.55 917.52,-19.17 924.11,-27.47 927.84,-21.55"/>
</g>
<!-- Node10&#45;&gt;Node2 -->
<g id="edge11" class="edge">
<title>Node10&#45;&gt;Node2</title>
<path fill="none" stroke="#63b8ff" d="M274.09,-236.37C289.78,-226.91 315.18,-211.59 333.69,-200.42"/>
<polygon fill="#63b8ff" stroke="#63b8ff" points="335.65,-203.33 342.4,-195.17 332.03,-197.33 335.65,-203.33"/>
</g>
<!-- Node11 -->
<g id="node11" class="node">
<title>Node11</title>
<g id="a_node11"><a xlink:href="float_8hpp.html" target="_top" xlink:title=" ">
<polygon fill="white" stroke="#666666" points="206.77,-195 92.77,-195 92.77,-176 206.77,-176 206.77,-195"/>
<text text-anchor="middle" x="149.77" y="-183" font-family="Helvetica,sans-Serif" font-size="10.00">alpaqa/util/float.hpp</text>
</a>
</g>
</g>
<!-- Node10&#45;&gt;Node11 -->
<g id="edge12" class="edge">
<title>Node10&#45;&gt;Node11</title>
<path fill="none" stroke="#63b8ff" d="M243.54,-236.37C225.51,-226.78 196.16,-211.17 175.1,-199.97"/>
<polygon fill="#63b8ff" stroke="#63b8ff" points="176.54,-196.77 166.07,-195.17 173.26,-202.95 176.54,-196.77"/>
</g>
<!-- Node11&#45;&gt;Node3 -->
<g id="edge13" class="edge">
<title>Node11&#45;&gt;Node3</title>
<path fill="none" stroke="#63b8ff" d="M166.93,-175.99C183.41,-167.82 208.87,-155.2 230.08,-144.69"/>
<polygon fill="#63b8ff" stroke="#63b8ff" points="231.77,-147.76 239.18,-140.18 228.66,-141.48 231.77,-147.76"/>
</g>
<!-- Node11&#45;&gt;Node5 -->
<g id="edge17" class="edge">
<title>Node11&#45;&gt;Node5</title>
<path fill="none" stroke="#63b8ff" d="M103.03,-175.99C53.89,-165.06 -12.55,-143.42 16.77,-110 35.97,-88.13 224.23,-73.7 312.07,-68.11"/>
<polygon fill="#63b8ff" stroke="#63b8ff" points="312.5,-71.59 322.26,-67.47 312.06,-64.61 312.5,-71.59"/>
</g>
<!-- Node12 -->
<g id="node12" class="node">
<title>Node12</title>
<g id="a_node12"><a xlink:title=" ">
<polygon fill="#e0e0e0" stroke="#999999" points="73.27,-134.5 26.27,-134.5 26.27,-115.5 73.27,-115.5 73.27,-134.5"/>
<text text-anchor="middle" x="49.77" y="-122.5" font-family="Helvetica,sans-Serif" font-size="10.00">cmath</text>
</a>
</g>
</g>
<!-- Node11&#45;&gt;Node12 -->
<g id="edge14" class="edge">
<title>Node11&#45;&gt;Node12</title>
<path fill="none" stroke="#63b8ff" d="M135.02,-175.87C118.77,-166.36 92.42,-150.95 73.31,-139.77"/>
<polygon fill="#63b8ff" stroke="#63b8ff" points="74.99,-136.7 64.59,-134.67 71.45,-142.74 74.99,-136.7"/>
</g>
<!-- Node13 -->
<g id="node13" class="node">
<title>Node13</title>
<g id="a_node13"><a xlink:title=" ">
<polygon fill="#e0e0e0" stroke="#999999" points="150.27,-134.5 91.27,-134.5 91.27,-115.5 150.27,-115.5 150.27,-134.5"/>
<text text-anchor="middle" x="120.77" y="-122.5" font-family="Helvetica,sans-Serif" font-size="10.00">complex</text>
</a>
</g>
</g>
<!-- Node11&#45;&gt;Node13 -->
<g id="edge15" class="edge">
<title>Node11&#45;&gt;Node13</title>
<path fill="none" stroke="#63b8ff" d="M145.5,-175.87C141.34,-167.49 134.91,-154.51 129.64,-143.89"/>
<polygon fill="#63b8ff" stroke="#63b8ff" points="132.65,-142.07 125.07,-134.67 126.38,-145.18 132.65,-142.07"/>
</g>
<!-- Node14 -->
<g id="node14" class="node">
<title>Node14</title>
<g id="a_node14"><a xlink:title=" ">
<polygon fill="#e0e0e0" stroke="#999999" points="596.77,-74 536.77,-74 536.77,-55 596.77,-55 596.77,-74"/>
<text text-anchor="middle" x="566.77" y="-62" font-family="Helvetica,sans-Serif" font-size="10.00">concepts</text>
</a>
</g>
</g>
<!-- Node11&#45;&gt;Node14 -->
<g id="edge16" class="edge">
<title>Node11&#45;&gt;Node14</title>
<path fill="none" stroke="#63b8ff" d="M152.58,-175.8C158.25,-159.74 172.73,-125.67 197.77,-110 225.23,-92.81 436.64,-75.21 526.53,-68.42"/>
<polygon fill="#63b8ff" stroke="#63b8ff" points="526.91,-71.9 536.62,-67.66 526.39,-64.92 526.91,-71.9"/>
</g>
<!-- Node15&#45;&gt;Node6 -->
<g id="edge19" class="edge">
<title>Node15&#45;&gt;Node6</title>
<path fill="none" stroke="#63b8ff" d="M459.5,-236.44C463.36,-217.32 472.74,-170.77 478.02,-144.62"/>
<polygon fill="#63b8ff" stroke="#63b8ff" points="481.45,-145.3 480,-134.8 474.59,-143.91 481.45,-145.3"/>
</g>
<!-- Node16&#45;&gt;Node2 -->
<g id="edge21" class="edge">
<title>Node16&#45;&gt;Node2</title>
<path fill="none" stroke="#63b8ff" d="M615.72,-236.49C561.52,-226.03 469.54,-208.27 411.05,-196.98"/>
<polygon fill="#63b8ff" stroke="#63b8ff" points="411.37,-193.48 400.89,-195.02 410.04,-200.35 411.37,-193.48"/>
</g>
<!-- Node17 -->
<g id="node17" class="node">
<title>Node17</title>
<g id="a_node17"><a xlink:title=" ">
<polygon fill="#e0e0e0" stroke="#999999" points="680.77,-195 624.77,-195 624.77,-176 680.77,-176 680.77,-195"/>
<text text-anchor="middle" x="652.77" y="-183" font-family="Helvetica,sans-Serif" font-size="10.00">optional</text>
</a>
</g>
</g>
<!-- Node16&#45;&gt;Node17 -->
<g id="edge22" class="edge">
<title>Node16&#45;&gt;Node17</title>
<path fill="none" stroke="#63b8ff" d="M658.74,-236.37C657.77,-228.25 656.28,-215.81 655.03,-205.39"/>
<polygon fill="#63b8ff" stroke="#63b8ff" points="658.48,-204.68 653.81,-195.17 651.52,-205.51 658.48,-204.68"/>
</g>
<!-- Node16&#45;&gt;Node18 -->
<g id="edge23" class="edge">
<title>Node16&#45;&gt;Node18</title>
<path fill="none" stroke="#63b8ff" d="M651.7,-236.39C642.65,-226.61 627.69,-210.05 615.77,-195 602.16,-177.8 587.76,-157.19 578.12,-143.01"/>
<polygon fill="#63b8ff" stroke="#63b8ff" points="581.02,-141.05 572.53,-134.71 575.22,-144.96 581.02,-141.05"/>
</g>
<!-- Node19 -->
<g id="node19" class="node">
<title>Node19</title>
<g id="a_node19"><a xlink:title=" ">
<polygon fill="#e0e0e0" stroke="#999999" points="916.77,-74 872.77,-74 872.77,-55 916.77,-55 916.77,-74"/>
<text text-anchor="middle" x="894.77" y="-62" font-family="Helvetica,sans-Serif" font-size="10.00">string</text>
</a>
</g>
</g>
<!-- Node16&#45;&gt;Node19 -->
<g id="edge24" class="edge">
<title>Node16&#45;&gt;Node19</title>
<path fill="none" stroke="#63b8ff" d="M731.5,-238.4C789.9,-231.43 865.84,-218.14 885.77,-195 912.54,-163.94 905.81,-111.62 899.67,-83.95"/>
<polygon fill="#63b8ff" stroke="#63b8ff" points="903.02,-82.92 897.26,-74.03 896.22,-84.58 903.02,-82.92"/>
</g>
<!-- Node20&#45;&gt;Node9 -->
<g id="edge26" class="edge">
<title>Node20&#45;&gt;Node9</title>
<path fill="none" stroke="#63b8ff" d="M792.02,-175.95C802.76,-154.67 832.38,-97.93 863.77,-55 871.04,-45.06 880.15,-34.79 887.84,-26.62"/>
<polygon fill="#63b8ff" stroke="#63b8ff" points="890.53,-28.88 894.94,-19.25 885.48,-24.03 890.53,-28.88"/>
</g>
<!-- Node20&#45;&gt;Node18 -->
<g id="edge27" class="edge">
<title>Node20&#45;&gt;Node18</title>
<path fill="none" stroke="#63b8ff" d="M752.67,-175.95C717.46,-167.27 661.71,-153.26 613.77,-140 610.83,-139.19 607.79,-138.33 604.74,-137.45"/>
<polygon fill="#63b8ff" stroke="#63b8ff" points="605.64,-134.06 595.06,-134.62 603.67,-140.78 605.64,-134.06"/>
</g>
<!-- Node21&#45;&gt;Node22 -->
<g id="edge29" class="edge">
<title>Node21&#45;&gt;Node22</title>
<path fill="none" stroke="#63b8ff" d="M1142.23,-230.84C1143.01,-223.21 1143.98,-213.7 1144.83,-205.45"/>
<polygon fill="#63b8ff" stroke="#63b8ff" points="1148.34,-205.57 1145.88,-195.27 1141.37,-204.86 1148.34,-205.57"/>
</g>
<!-- Node31 -->
<g id="node31" class="node">
<title>Node31</title>
<g id="a_node31"><a xlink:title=" ">
<polygon fill="#e0e0e0" stroke="#999999" points="1704.27,-134.5 1639.27,-134.5 1639.27,-115.5 1704.27,-115.5 1704.27,-134.5"/>
<text text-anchor="middle" x="1671.77" y="-122.5" font-family="Helvetica,sans-Serif" font-size="10.00">functional</text>
</a>
</g>
</g>
<!-- Node21&#45;&gt;Node31 -->
<g id="edge50" class="edge">
<title>Node21&#45;&gt;Node31</title>
<path fill="none" stroke="#63b8ff" d="M1166.92,-230.96C1201.17,-212.8 1259.6,-182.69 1282.77,-176 1422.82,-135.55 1464.97,-163.85 1608.77,-140 1615.46,-138.89 1622.5,-137.53 1629.36,-136.09"/>
<polygon fill="#63b8ff" stroke="#63b8ff" points="1630.18,-139.49 1639.21,-133.94 1628.69,-132.65 1630.18,-139.49"/>
</g>
<!-- Node22&#45;&gt;Node5 -->
<g id="edge47" class="edge">
<title>Node22&#45;&gt;Node5</title>
<path fill="none" stroke="#63b8ff" d="M1069.23,-182.86C948.71,-179.42 722.51,-169.19 647.77,-140 627.4,-132.04 628.78,-118.82 608.77,-110 540.51,-79.9 453.37,-70.14 401.49,-66.99"/>
<polygon fill="#63b8ff" stroke="#63b8ff" points="401.46,-63.48 391.29,-66.43 401.08,-70.47 401.46,-63.48"/>
</g>
<!-- Node22&#45;&gt;Node8 -->
<g id="edge30" class="edge">
<title>Node22&#45;&gt;Node8</title>
<path fill="none" stroke="#63b8ff" d="M1069.09,-177.43C1043.59,-171.26 1017.32,-160.08 999.77,-140 986.47,-124.77 984.84,-100.82 985.65,-84.2"/>
<polygon fill="#63b8ff" stroke="#63b8ff" points="989.16,-84.32 986.49,-74.07 982.18,-83.74 989.16,-84.32"/>
</g>
<!-- Node22&#45;&gt;Node18 -->
<g id="edge46" class="edge">
<title>Node22&#45;&gt;Node18</title>
<path fill="none" stroke="#63b8ff" d="M1068.87,-183.01C964.44,-179.88 773.69,-170.16 613.77,-140 609.84,-139.26 605.76,-138.32 601.73,-137.27"/>
<polygon fill="#63b8ff" stroke="#63b8ff" points="602.48,-133.85 591.91,-134.53 600.6,-140.59 602.48,-133.85"/>
</g>
<!-- Node23 -->
<g id="node23" class="node">
<title>Node23</title>
<g id="a_node23"><a xlink:href="demangled-typename_8hpp.html" target="_top" xlink:title=" ">
<polygon fill="white" stroke="#666666" points="1582.77,-140 1456.77,-140 1456.77,-110 1582.77,-110 1582.77,-140"/>
<text text-anchor="start" x="1464.77" y="-128" font-family="Helvetica,sans-Serif" font-size="10.00">alpaqa/util/demangled</text>
<text text-anchor="middle" x="1519.77" y="-117" font-family="Helvetica,sans-Serif" font-size="10.00">&#45;typename.hpp</text>
</a>
</g>
</g>
<!-- Node22&#45;&gt;Node23 -->
<g id="edge31" class="edge">
<title>Node22&#45;&gt;Node23</title>
<path fill="none" stroke="#63b8ff" d="M1210.04,-176C1268.77,-167.91 1358.9,-155.01 1446.48,-140.18"/>
<polygon fill="#63b8ff" stroke="#63b8ff" points="1447.32,-143.58 1456.59,-138.45 1446.14,-136.68 1447.32,-143.58"/>
</g>
<!-- Node24 -->
<g id="node24" class="node">
<title>Node24</title>
<g id="a_node24"><a xlink:title=" ">
<polygon fill="#e0e0e0" stroke="#999999" points="1593.27,-74 1536.27,-74 1536.27,-55 1593.27,-55 1593.27,-74"/>
<text text-anchor="middle" x="1564.77" y="-62" font-family="Helvetica,sans-Serif" font-size="10.00">typeinfo</text>
</a>
</g>
</g>
<!-- Node22&#45;&gt;Node24 -->
<g id="edge48" class="edge">
<title>Node22&#45;&gt;Node24</title>
<path fill="none" stroke="#63b8ff" d="M1224.4,-177.39C1351.11,-165.71 1588.72,-143.38 1591.77,-140 1606.55,-123.67 1592.29,-98.63 1579.53,-82.16"/>
<polygon fill="#63b8ff" stroke="#63b8ff" points="1582.21,-79.91 1573.15,-74.42 1576.81,-84.36 1582.21,-79.91"/>
</g>
<!-- Node25 -->
<g id="node25" class="node">
<title>Node25</title>
<g id="a_node25"><a xlink:href="noop-delete_8hpp.html" target="_top" xlink:title=" ">
<polygon fill="white" stroke="#666666" points="1159.27,-134.5 1008.27,-134.5 1008.27,-115.5 1159.27,-115.5 1159.27,-134.5"/>
<text text-anchor="middle" x="1083.77" y="-122.5" font-family="Helvetica,sans-Serif" font-size="10.00">alpaqa/util/noop&#45;delete.hpp</text>
</a>
</g>
</g>
<!-- Node22&#45;&gt;Node25 -->
<g id="edge35" class="edge">
<title>Node22&#45;&gt;Node25</title>
<path fill="none" stroke="#63b8ff" d="M1137.48,-175.87C1127.8,-166.88 1112.43,-152.61 1100.61,-141.64"/>
<polygon fill="#63b8ff" stroke="#63b8ff" points="1102.82,-138.91 1093.11,-134.67 1098.05,-144.04 1102.82,-138.91"/>
</g>
<!-- Node26 -->
<g id="node26" class="node">
<title>Node26</title>
<g id="a_node26"><a xlink:href="type-traits_8hpp.html" target="_top" xlink:title=" ">
<polygon fill="white" stroke="#666666" points="799.27,-134.5 656.27,-134.5 656.27,-115.5 799.27,-115.5 799.27,-134.5"/>
<text text-anchor="middle" x="727.77" y="-122.5" font-family="Helvetica,sans-Serif" font-size="10.00">alpaqa/util/type&#45;traits.hpp</text>
</a>
</g>
</g>
<!-- Node22&#45;&gt;Node26 -->
<g id="edge36" class="edge">
<title>Node22&#45;&gt;Node26</title>
<path fill="none" stroke="#63b8ff" d="M1085.85,-175.99C1009.67,-165.36 879.48,-147.18 798.84,-135.92"/>
<polygon fill="#63b8ff" stroke="#63b8ff" points="799.16,-132.43 788.77,-134.52 798.19,-139.37 799.16,-132.43"/>
</g>
<!-- Node27 -->
<g id="node27" class="node">
<title>Node27</title>
<g id="a_node27"><a xlink:title=" ">
<polygon fill="#e0e0e0" stroke="#999999" points="777.77,-74 719.77,-74 719.77,-55 777.77,-55 777.77,-74"/>
<text text-anchor="middle" x="748.77" y="-62" font-family="Helvetica,sans-Serif" font-size="10.00">memory</text>
</a>
</g>
</g>
<!-- Node22&#45;&gt;Node27 -->
<g id="edge44" class="edge">
<title>Node22&#45;&gt;Node27</title>
<path fill="none" stroke="#63b8ff" d="M1113.67,-175.97C1080.47,-167.3 1027.91,-153.3 982.77,-140 911.87,-119.1 829.67,-92.34 784,-77.24"/>
<polygon fill="#63b8ff" stroke="#63b8ff" points="784.88,-73.84 774.29,-74.02 782.68,-80.49 784.88,-73.84"/>
</g>
<!-- Node28 -->
<g id="node28" class="node">
<title>Node28</title>
<g id="a_node28"><a xlink:title=" ">
<polygon fill="#e0e0e0" stroke="#999999" points="1241.77,-134.5 1177.77,-134.5 1177.77,-115.5 1241.77,-115.5 1241.77,-134.5"/>
<text text-anchor="middle" x="1209.77" y="-122.5" font-family="Helvetica,sans-Serif" font-size="10.00">algorithm</text>
</a>
</g>
</g>
<!-- Node22&#45;&gt;Node28 -->
<g id="edge40" class="edge">
<title>Node22&#45;&gt;Node28</title>
<path fill="none" stroke="#63b8ff" d="M1156.07,-175.87C1165.75,-166.88 1181.12,-152.61 1192.94,-141.64"/>
<polygon fill="#63b8ff" stroke="#63b8ff" points="1195.49,-144.04 1200.44,-134.67 1190.73,-138.91 1195.49,-144.04"/>
</g>
<!-- Node29 -->
<g id="node29" class="node">
<title>Node29</title>
<g id="a_node29"><a xlink:title=" ">
<polygon fill="#e0e0e0" stroke="#999999" points="1311.77,-134.5 1259.77,-134.5 1259.77,-115.5 1311.77,-115.5 1311.77,-134.5"/>
<text text-anchor="middle" x="1285.77" y="-122.5" font-family="Helvetica,sans-Serif" font-size="10.00">cassert</text>
</a>
</g>
</g>
<!-- Node22&#45;&gt;Node29 -->
<g id="edge41" class="edge">
<title>Node22&#45;&gt;Node29</title>
<path fill="none" stroke="#63b8ff" d="M1166.99,-175.99C1190.46,-166.12 1229.38,-149.73 1256.24,-138.43"/>
<polygon fill="#63b8ff" stroke="#63b8ff" points="1257.68,-141.62 1265.54,-134.52 1254.96,-135.17 1257.68,-141.62"/>
</g>
<!-- Node30 -->
<g id="node30" class="node">
<title>Node30</title>
<g id="a_node30"><a xlink:title=" ">
<polygon fill="#e0e0e0" stroke="#999999" points="1383.27,-134.5 1330.27,-134.5 1330.27,-115.5 1383.27,-115.5 1383.27,-134.5"/>
<text text-anchor="middle" x="1356.77" y="-122.5" font-family="Helvetica,sans-Serif" font-size="10.00">cstddef</text>
</a>
</g>
</g>
<!-- Node22&#45;&gt;Node30 -->
<g id="edge42" class="edge">
<title>Node22&#45;&gt;Node30</title>
<path fill="none" stroke="#63b8ff" d="M1185.86,-175.93C1221.37,-167.8 1275.05,-154.68 1320.77,-140 1322.64,-139.4 1324.55,-138.76 1326.47,-138.08"/>
<polygon fill="#63b8ff" stroke="#63b8ff" points="1327.82,-141.32 1335.99,-134.57 1325.39,-134.75 1327.82,-141.32"/>
</g>
<!-- Node22&#45;&gt;Node31 -->
<g id="edge43" class="edge">
<title>Node22&#45;&gt;Node31</title>
<path fill="none" stroke="#63b8ff" d="M1224.29,-177.48C1357.14,-165.42 1615.07,-141.88 1624.77,-140 1628.5,-139.28 1632.36,-138.38 1636.19,-137.4"/>
<polygon fill="#63b8ff" stroke="#63b8ff" points="1637.45,-140.68 1646.14,-134.63 1635.57,-133.93 1637.45,-140.68"/>
</g>
<!-- Node32 -->
<g id="node32" class="node">
<title>Node32</title>
<g id="a_node32"><a xlink:title=" ">
<polygon fill="#e0e0e0" stroke="#999999" points="1438.27,-134.5 1401.27,-134.5 1401.27,-115.5 1438.27,-115.5 1438.27,-134.5"/>
<text text-anchor="middle" x="1419.77" y="-122.5" font-family="Helvetica,sans-Serif" font-size="10.00">new</text>
</a>
</g>
</g>
<!-- Node22&#45;&gt;Node32 -->
<g id="edge45" class="edge">
<title>Node22&#45;&gt;Node32</title>
<path fill="none" stroke="#63b8ff" d="M1224.46,-176.49C1273.63,-169.96 1338.04,-158.67 1392.77,-140 1393.82,-139.64 1394.88,-139.25 1395.94,-138.83"/>
<polygon fill="#63b8ff" stroke="#63b8ff" points="1397.66,-141.89 1405.27,-134.53 1394.73,-135.54 1397.66,-141.89"/>
</g>
<!-- Node22&#45;&gt;Node33 -->
<g id="edge49" class="edge">
<title>Node22&#45;&gt;Node33</title>
<path fill="none" stroke="#63b8ff" d="M1224.33,-179.12C1374.09,-168.64 1690.48,-145.98 1713.77,-140 1715.5,-139.56 1717.26,-139.02 1719.01,-138.42"/>
<polygon fill="#63b8ff" stroke="#63b8ff" points="1720.78,-141.48 1728.75,-134.51 1718.16,-134.99 1720.78,-141.48"/>
</g>
<!-- Node23&#45;&gt;Node8 -->
<g id="edge32" class="edge">
<title>Node23&#45;&gt;Node8</title>
<path fill="none" stroke="#63b8ff" d="M1456.62,-111.36C1453.63,-110.88 1450.67,-110.42 1447.77,-110 1306.48,-89.48 1139.34,-75.98 1050.57,-69.66"/>
<polygon fill="#63b8ff" stroke="#63b8ff" points="1050.62,-66.16 1040.4,-68.95 1050.13,-73.14 1050.62,-66.16"/>
</g>
<!-- Node23&#45;&gt;Node19 -->
<g id="edge33" class="edge">
<title>Node23&#45;&gt;Node19</title>
<path fill="none" stroke="#63b8ff" d="M1456.63,-111.27C1453.64,-110.81 1450.68,-110.38 1447.77,-110 1220.9,-80.22 1157.54,-111.07 927.07,-73.65"/>
<polygon fill="#63b8ff" stroke="#63b8ff" points="927.47,-70.17 917.04,-71.99 926.33,-77.07 927.47,-70.17"/>
</g>
<!-- Node23&#45;&gt;Node24 -->
<g id="edge34" class="edge">
<title>Node23&#45;&gt;Node24</title>
<path fill="none" stroke="#63b8ff" d="M1530.67,-109.84C1537.07,-101.52 1545.19,-90.96 1551.9,-82.23"/>
<polygon fill="#63b8ff" stroke="#63b8ff" points="1554.71,-84.33 1558.03,-74.27 1549.16,-80.06 1554.71,-84.33"/>
</g>
<!-- Node26&#45;&gt;Node5 -->
<g id="edge39" class="edge">
<title>Node26&#45;&gt;Node5</title>
<path fill="none" stroke="#63b8ff" d="M675.48,-115.43C664.36,-113.62 652.68,-111.74 641.77,-110 556.81,-96.45 457.52,-81.05 401.41,-72.38"/>
<polygon fill="#63b8ff" stroke="#63b8ff" points="401.86,-68.91 391.44,-70.84 400.79,-75.82 401.86,-68.91"/>
</g>
<!-- Node26&#45;&gt;Node14 -->
<g id="edge37" class="edge">
<title>Node26&#45;&gt;Node14</title>
<path fill="none" stroke="#63b8ff" d="M704.36,-115.49C676.82,-105.49 630.91,-88.8 599.76,-77.49"/>
<polygon fill="#63b8ff" stroke="#63b8ff" points="600.81,-74.14 590.21,-74.02 598.42,-80.72 600.81,-74.14"/>
</g>
<!-- Node26&#45;&gt;Node27 -->
<g id="edge38" class="edge">
<title>Node26&#45;&gt;Node27</title>
<path fill="none" stroke="#63b8ff" d="M730.87,-115.37C733.85,-107.07 738.44,-94.28 742.23,-83.72"/>
<polygon fill="#63b8ff" stroke="#63b8ff" points="745.58,-84.76 745.66,-74.17 738.99,-82.4 745.58,-84.76"/>
</g>
</g>
</svg>
