<?xml version="1.0" encoding="UTF-8" standalone="no"?>
<!DOCTYPE svg PUBLIC "-//W3C//DTD SVG 1.1//EN"
 "http://www.w3.org/Graphics/SVG/1.1/DTD/svg11.dtd">
<!-- Generated by graphviz version 2.43.0 (0)
 -->
<!-- Title: params.tpp Pages: 1 -->
<svg width="1257pt" height="214pt"
 viewBox="0.00 0.00 1256.50 214.00" xmlns="http://www.w3.org/2000/svg" xmlns:xlink="http://www.w3.org/1999/xlink">
<g id="graph0" class="graph" transform="scale(1 1) rotate(0) translate(4 210)">
<title>params.tpp</title>
<!-- Node1 -->
<g id="node1" class="node">
<title>Node1</title>
<g id="a_node1"><a xlink:title=" ">
<polygon fill="#999999" stroke="#666666" points="819,-206 747,-206 747,-187 819,-187 819,-206"/>
<text text-anchor="middle" x="783" y="-194" font-family="Helvetica,sans-Serif" font-size="10.00">params.tpp</text>
</a>
</g>
</g>
<!-- Node2 -->
<g id="node2" class="node">
<title>Node2</title>
<g id="a_node2"><a xlink:href="params_8hpp.html" target="_top" xlink:title=" ">
<polygon fill="white" stroke="#666666" points="487,-145.5 337,-145.5 337,-126.5 487,-126.5 487,-145.5"/>
<text text-anchor="middle" x="412" y="-133.5" font-family="Helvetica,sans-Serif" font-size="10.00">alpaqa/params/params.hpp</text>
</a>
</g>
</g>
<!-- Node1&#45;&gt;Node2 -->
<g id="edge1" class="edge">
<title>Node1&#45;&gt;Node2</title>
<path fill="none" stroke="#63b8ff" d="M746.75,-189.78C684.02,-179.89 554.44,-159.46 476.18,-147.12"/>
<polygon fill="#63b8ff" stroke="#63b8ff" points="476.38,-143.61 465.96,-145.51 475.29,-150.52 476.38,-143.61"/>
</g>
<!-- Node7 -->
<g id="node7" class="node">
<title>Node7</title>
<g id="a_node7"><a xlink:title=" ">
<polygon fill="#e0e0e0" stroke="#999999" points="458.5,-79.5 393.5,-79.5 393.5,-60.5 458.5,-60.5 458.5,-79.5"/>
<text text-anchor="middle" x="426" y="-67.5" font-family="Helvetica,sans-Serif" font-size="10.00">stdexcept</text>
</a>
</g>
</g>
<!-- Node1&#45;&gt;Node7 -->
<g id="edge23" class="edge">
<title>Node1&#45;&gt;Node7</title>
<path fill="none" stroke="#63b8ff" d="M746.84,-192.83C700.16,-188.43 617.1,-177.35 551,-151 529.42,-142.4 476.21,-106.21 446.64,-85.58"/>
<polygon fill="#63b8ff" stroke="#63b8ff" points="448.49,-82.59 438.29,-79.72 444.47,-88.33 448.49,-82.59"/>
</g>
<!-- Node8 -->
<g id="node8" class="node">
<title>Node8</title>
<g id="a_node8"><a xlink:title=" ">
<polygon fill="#e0e0e0" stroke="#999999" points="549.5,-79.5 476.5,-79.5 476.5,-60.5 549.5,-60.5 549.5,-79.5"/>
<text text-anchor="middle" x="513" y="-67.5" font-family="Helvetica,sans-Serif" font-size="10.00">string_view</text>
</a>
</g>
</g>
<!-- Node1&#45;&gt;Node8 -->
<g id="edge24" class="edge">
<title>Node1&#45;&gt;Node8</title>
<path fill="none" stroke="#63b8ff" d="M746.99,-193.34C706.47,-189.56 639.81,-179.23 590,-151 562.17,-135.23 538.06,-106.28 524.55,-87.87"/>
<polygon fill="#63b8ff" stroke="#63b8ff" points="527.28,-85.68 518.64,-79.56 521.58,-89.74 527.28,-85.68"/>
</g>
<!-- Node9 -->
<g id="node9" class="node">
<title>Node9</title>
<g id="a_node9"><a xlink:title=" ">
<polygon fill="#e0e0e0" stroke="#999999" points="608.5,-79.5 567.5,-79.5 567.5,-60.5 608.5,-60.5 608.5,-79.5"/>
<text text-anchor="middle" x="588" y="-67.5" font-family="Helvetica,sans-Serif" font-size="10.00">tuple</text>
</a>
</g>
</g>
<!-- Node1&#45;&gt;Node9 -->
<g id="edge26" class="edge">
<title>Node1&#45;&gt;Node9</title>
<path fill="none" stroke="#63b8ff" d="M746.79,-196.23C707.8,-195 646.48,-186.88 610,-151 593.75,-135.02 589.18,-108.22 588.06,-90.09"/>
<polygon fill="#63b8ff" stroke="#63b8ff" points="591.56,-89.75 587.74,-79.86 584.56,-89.97 591.56,-89.75"/>
</g>
<!-- Node10 -->
<g id="node10" class="node">
<title>Node10</title>
<g id="a_node10"><a xlink:href="config_8hpp.html" target="_top" xlink:title=" ">
<polygon fill="white" stroke="#666666" points="754.5,-145.5 619.5,-145.5 619.5,-126.5 754.5,-126.5 754.5,-145.5"/>
<text text-anchor="middle" x="687" y="-133.5" font-family="Helvetica,sans-Serif" font-size="10.00">alpaqa/config/config.hpp</text>
</a>
</g>
</g>
<!-- Node1&#45;&gt;Node10 -->
<g id="edge9" class="edge">
<title>Node1&#45;&gt;Node10</title>
<path fill="none" stroke="#63b8ff" d="M768.83,-186.87C753.31,-177.41 728.17,-162.09 709.85,-150.92"/>
<polygon fill="#63b8ff" stroke="#63b8ff" points="711.58,-147.88 701.22,-145.67 707.94,-153.86 711.58,-147.88"/>
</g>
<!-- Node13 -->
<g id="node13" class="node">
<title>Node13</title>
<g id="a_node13"><a xlink:title=" ">
<polygon fill="#e0e0e0" stroke="#999999" points="984.5,-79.5 915.5,-79.5 915.5,-60.5 984.5,-60.5 984.5,-79.5"/>
<text text-anchor="middle" x="950" y="-67.5" font-family="Helvetica,sans-Serif" font-size="10.00">type_traits</text>
</a>
</g>
</g>
<!-- Node1&#45;&gt;Node13 -->
<g id="edge27" class="edge">
<title>Node1&#45;&gt;Node13</title>
<path fill="none" stroke="#63b8ff" d="M782.83,-186.9C783.02,-171.61 785.61,-139.57 803,-121 804.99,-118.87 871.44,-96.78 914.31,-82.68"/>
<polygon fill="#63b8ff" stroke="#63b8ff" points="915.45,-85.99 923.85,-79.55 913.26,-79.34 915.45,-85.99"/>
</g>
<!-- Node15 -->
<g id="node15" class="node">
<title>Node15</title>
<g id="a_node15"><a xlink:href="demangled-typename_8hpp.html" target="_top" xlink:title=" ">
<polygon fill="white" stroke="#666666" points="204,-151 78,-151 78,-121 204,-121 204,-151"/>
<text text-anchor="start" x="86" y="-139" font-family="Helvetica,sans-Serif" font-size="10.00">alpaqa/util/demangled</text>
<text text-anchor="middle" x="141" y="-128" font-family="Helvetica,sans-Serif" font-size="10.00">&#45;typename.hpp</text>
</a>
</g>
</g>
<!-- Node1&#45;&gt;Node15 -->
<g id="edge14" class="edge">
<title>Node1&#45;&gt;Node15</title>
<path fill="none" stroke="#63b8ff" d="M746.64,-192.19C644.17,-182.85 351.51,-156.18 214.03,-143.65"/>
<polygon fill="#63b8ff" stroke="#63b8ff" points="214.28,-140.16 204,-142.74 213.64,-147.13 214.28,-140.16"/>
</g>
<!-- Node18 -->
<g id="node18" class="node">
<title>Node18</title>
<g id="a_node18"><a xlink:title=" ">
<polygon fill="#e0e0e0" stroke="#999999" points="872.5,-145.5 811.5,-145.5 811.5,-126.5 872.5,-126.5 872.5,-145.5"/>
<text text-anchor="middle" x="842" y="-133.5" font-family="Helvetica,sans-Serif" font-size="10.00">charconv</text>
</a>
</g>
</g>
<!-- Node1&#45;&gt;Node18 -->
<g id="edge18" class="edge">
<title>Node1&#45;&gt;Node18</title>
<path fill="none" stroke="#63b8ff" d="M791.71,-186.87C800.68,-177.97 814.88,-163.89 825.91,-152.95"/>
<polygon fill="#63b8ff" stroke="#63b8ff" points="828.62,-155.19 833.26,-145.67 823.69,-150.22 828.62,-155.19"/>
</g>
<!-- Node19 -->
<g id="node19" class="node">
<title>Node19</title>
<g id="a_node19"><a xlink:title=" ">
<polygon fill="#e0e0e0" stroke="#999999" points="941,-145.5 891,-145.5 891,-126.5 941,-126.5 941,-145.5"/>
<text text-anchor="middle" x="916" y="-133.5" font-family="Helvetica,sans-Serif" font-size="10.00">chrono</text>
</a>
</g>
</g>
<!-- Node1&#45;&gt;Node19 -->
<g id="edge19" class="edge">
<title>Node1&#45;&gt;Node19</title>
<path fill="none" stroke="#63b8ff" d="M802.34,-186.99C824.7,-177.16 861.71,-160.88 887.4,-149.58"/>
<polygon fill="#63b8ff" stroke="#63b8ff" points="888.89,-152.75 896.64,-145.52 886.07,-146.34 888.89,-152.75"/>
</g>
<!-- Node20 -->
<g id="node20" class="node">
<title>Node20</title>
<g id="a_node20"><a xlink:title=" ">
<polygon fill="#e0e0e0" stroke="#999999" points="1019,-145.5 959,-145.5 959,-126.5 1019,-126.5 1019,-145.5"/>
<text text-anchor="middle" x="989" y="-133.5" font-family="Helvetica,sans-Serif" font-size="10.00">concepts</text>
</a>
</g>
</g>
<!-- Node1&#45;&gt;Node20 -->
<g id="edge20" class="edge">
<title>Node1&#45;&gt;Node20</title>
<path fill="none" stroke="#63b8ff" d="M818.43,-186.98C852.41,-178.59 905.03,-165.04 950,-151 952.12,-150.34 954.3,-149.63 956.48,-148.9"/>
<polygon fill="#63b8ff" stroke="#63b8ff" points="957.7,-152.19 966.01,-145.62 955.42,-145.57 957.7,-152.19"/>
</g>
<!-- Node21 -->
<g id="node21" class="node">
<title>Node21</title>
<g id="a_node21"><a xlink:title=" ">
<polygon fill="#e0e0e0" stroke="#999999" points="1075,-145.5 1037,-145.5 1037,-126.5 1075,-126.5 1075,-145.5"/>
<text text-anchor="middle" x="1056" y="-133.5" font-family="Helvetica,sans-Serif" font-size="10.00">map</text>
</a>
</g>
</g>
<!-- Node1&#45;&gt;Node21 -->
<g id="edge21" class="edge">
<title>Node1&#45;&gt;Node21</title>
<path fill="none" stroke="#63b8ff" d="M819.09,-192.18C867.59,-187 956.02,-174.99 1028,-151 1029.22,-150.59 1030.45,-150.14 1031.68,-149.66"/>
<polygon fill="#63b8ff" stroke="#63b8ff" points="1033.24,-152.8 1040.93,-145.51 1030.37,-146.41 1033.24,-152.8"/>
</g>
<!-- Node22 -->
<g id="node22" class="node">
<title>Node22</title>
<g id="a_node22"><a xlink:title=" ">
<polygon fill="#e0e0e0" stroke="#999999" points="1149,-145.5 1093,-145.5 1093,-126.5 1149,-126.5 1149,-145.5"/>
<text text-anchor="middle" x="1121" y="-133.5" font-family="Helvetica,sans-Serif" font-size="10.00">numeric</text>
</a>
</g>
</g>
<!-- Node1&#45;&gt;Node22 -->
<g id="edge22" class="edge">
<title>Node1&#45;&gt;Node22</title>
<path fill="none" stroke="#63b8ff" d="M819.18,-192.68C876.21,-187.67 990.18,-175.38 1084,-151 1086.44,-150.37 1088.95,-149.62 1091.44,-148.82"/>
<polygon fill="#63b8ff" stroke="#63b8ff" points="1092.62,-152.12 1100.9,-145.5 1090.3,-145.51 1092.62,-152.12"/>
</g>
<!-- Node23 -->
<g id="node23" class="node">
<title>Node23</title>
<g id="a_node23"><a xlink:title=" ">
<polygon fill="#e0e0e0" stroke="#999999" points="1248.5,-145.5 1167.5,-145.5 1167.5,-126.5 1248.5,-126.5 1248.5,-145.5"/>
<text text-anchor="middle" x="1208" y="-133.5" font-family="Helvetica,sans-Serif" font-size="10.00">system_error</text>
</a>
</g>
</g>
<!-- Node1&#45;&gt;Node23 -->
<g id="edge25" class="edge">
<title>Node1&#45;&gt;Node23</title>
<path fill="none" stroke="#63b8ff" d="M819.23,-193.08C886.49,-188.16 1035,-175.36 1158,-151 1162.13,-150.18 1166.41,-149.2 1170.66,-148.13"/>
<polygon fill="#63b8ff" stroke="#63b8ff" points="1171.65,-151.49 1180.41,-145.55 1169.85,-144.73 1171.65,-151.49"/>
</g>
<!-- Node3 -->
<g id="node3" class="node">
<title>Node3</title>
<g id="a_node3"><a xlink:href="export_8hpp.html" target="_top" xlink:title=" ">
<polygon fill="white" stroke="#666666" points="242.5,-79.5 137.5,-79.5 137.5,-60.5 242.5,-60.5 242.5,-79.5"/>
<text text-anchor="middle" x="190" y="-67.5" font-family="Helvetica,sans-Serif" font-size="10.00">alpaqa/export.hpp</text>
</a>
</g>
</g>
<!-- Node2&#45;&gt;Node3 -->
<g id="edge2" class="edge">
<title>Node2&#45;&gt;Node3</title>
<path fill="none" stroke="#63b8ff" d="M382.06,-126.37C342.64,-115 273.24,-95 229.54,-82.4"/>
<polygon fill="#63b8ff" stroke="#63b8ff" points="230.4,-79 219.82,-79.6 228.46,-85.73 230.4,-79"/>
</g>
<!-- Node5 -->
<g id="node5" class="node">
<title>Node5</title>
<g id="a_node5"><a xlink:title=" ">
<polygon fill="#e0e0e0" stroke="#999999" points="317,-79.5 261,-79.5 261,-60.5 317,-60.5 317,-79.5"/>
<text text-anchor="middle" x="289" y="-67.5" font-family="Helvetica,sans-Serif" font-size="10.00">optional</text>
</a>
</g>
</g>
<!-- Node2&#45;&gt;Node5 -->
<g id="edge4" class="edge">
<title>Node2&#45;&gt;Node5</title>
<path fill="none" stroke="#63b8ff" d="M395.41,-126.37C374.69,-115.59 339,-97.02 314.72,-84.38"/>
<polygon fill="#63b8ff" stroke="#63b8ff" points="316.2,-81.21 305.72,-79.7 312.97,-87.42 316.2,-81.21"/>
</g>
<!-- Node6 -->
<g id="node6" class="node">
<title>Node6</title>
<g id="a_node6"><a xlink:title=" ">
<polygon fill="#e0e0e0" stroke="#999999" points="375,-79.5 335,-79.5 335,-60.5 375,-60.5 375,-79.5"/>
<text text-anchor="middle" x="355" y="-67.5" font-family="Helvetica,sans-Serif" font-size="10.00">span</text>
</a>
</g>
</g>
<!-- Node2&#45;&gt;Node6 -->
<g id="edge5" class="edge">
<title>Node2&#45;&gt;Node6</title>
<path fill="none" stroke="#63b8ff" d="M404.31,-126.37C395.52,-116.5 380.93,-100.11 369.89,-87.72"/>
<polygon fill="#63b8ff" stroke="#63b8ff" points="372.2,-85.05 362.93,-79.91 366.97,-89.7 372.2,-85.05"/>
</g>
<!-- Node2&#45;&gt;Node7 -->
<g id="edge6" class="edge">
<title>Node2&#45;&gt;Node7</title>
<path fill="none" stroke="#63b8ff" d="M413.89,-126.37C415.92,-117.07 419.22,-101.98 421.87,-89.9"/>
<polygon fill="#63b8ff" stroke="#63b8ff" points="425.33,-90.42 424.05,-79.91 418.5,-88.93 425.33,-90.42"/>
</g>
<!-- Node2&#45;&gt;Node8 -->
<g id="edge7" class="edge">
<title>Node2&#45;&gt;Node8</title>
<path fill="none" stroke="#63b8ff" d="M425.62,-126.37C442.34,-115.78 470.91,-97.67 490.81,-85.06"/>
<polygon fill="#63b8ff" stroke="#63b8ff" points="492.7,-88.01 499.27,-79.7 488.95,-82.1 492.7,-88.01"/>
</g>
<!-- Node2&#45;&gt;Node9 -->
<g id="edge8" class="edge">
<title>Node2&#45;&gt;Node9</title>
<path fill="none" stroke="#63b8ff" d="M439.77,-126.46C469.38,-117.14 517.5,-101.33 558,-85 559.01,-84.59 560.04,-84.17 561.08,-83.73"/>
<polygon fill="#63b8ff" stroke="#63b8ff" points="562.65,-86.86 570.37,-79.61 559.81,-80.46 562.65,-86.86"/>
</g>
<!-- Node4 -->
<g id="node4" class="node">
<title>Node4</title>
<g id="a_node4"><a xlink:title=" ">
<polygon fill="#e0e0e0" stroke="#999999" points="236.5,-19 143.5,-19 143.5,0 236.5,0 236.5,-19"/>
<text text-anchor="middle" x="190" y="-7" font-family="Helvetica,sans-Serif" font-size="10.00">alpaqa/export.h</text>
</a>
</g>
</g>
<!-- Node3&#45;&gt;Node4 -->
<g id="edge3" class="edge">
<title>Node3&#45;&gt;Node4</title>
<path fill="none" stroke="#63b8ff" d="M190,-60.37C190,-52.25 190,-39.81 190,-29.39"/>
<polygon fill="#63b8ff" stroke="#63b8ff" points="193.5,-29.17 190,-19.17 186.5,-29.17 193.5,-29.17"/>
</g>
<!-- Node11 -->
<g id="node11" class="node">
<title>Node11</title>
<g id="a_node11"><a xlink:href="quadmath_8hpp.html" target="_top" xlink:title=" ">
<polygon fill="white" stroke="#666666" points="747.5,-85 626.5,-85 626.5,-55 747.5,-55 747.5,-85"/>
<text text-anchor="start" x="634.5" y="-73" font-family="Helvetica,sans-Serif" font-size="10.00">alpaqa/util/quadmath</text>
<text text-anchor="middle" x="687" y="-62" font-family="Helvetica,sans-Serif" font-size="10.00">/quadmath.hpp</text>
</a>
</g>
</g>
<!-- Node10&#45;&gt;Node11 -->
<g id="edge10" class="edge">
<title>Node10&#45;&gt;Node11</title>
<path fill="none" stroke="#63b8ff" d="M687,-126.37C687,-118.49 687,-106.45 687,-95.6"/>
<polygon fill="#63b8ff" stroke="#63b8ff" points="690.5,-95.36 687,-85.36 683.5,-95.36 690.5,-95.36"/>
</g>
<!-- Node12 -->
<g id="node12" class="node">
<title>Node12</title>
<g id="a_node12"><a xlink:title=" ">
<polygon fill="#e0e0e0" stroke="#999999" points="810,-79.5 766,-79.5 766,-60.5 810,-60.5 810,-79.5"/>
<text text-anchor="middle" x="788" y="-67.5" font-family="Helvetica,sans-Serif" font-size="10.00">limits</text>
</a>
</g>
</g>
<!-- Node10&#45;&gt;Node12 -->
<g id="edge11" class="edge">
<title>Node10&#45;&gt;Node12</title>
<path fill="none" stroke="#63b8ff" d="M700.62,-126.37C717.34,-115.78 745.91,-97.67 765.81,-85.06"/>
<polygon fill="#63b8ff" stroke="#63b8ff" points="767.7,-88.01 774.27,-79.7 763.95,-82.1 767.7,-88.01"/>
</g>
<!-- Node10&#45;&gt;Node13 -->
<g id="edge12" class="edge">
<title>Node10&#45;&gt;Node13</title>
<path fill="none" stroke="#63b8ff" d="M729.87,-126.47C774.42,-117.32 846.02,-101.82 907,-85 909.77,-84.24 912.62,-83.41 915.48,-82.54"/>
<polygon fill="#63b8ff" stroke="#63b8ff" points="916.61,-85.86 925.11,-79.53 914.52,-79.18 916.61,-85.86"/>
</g>
<!-- Node14 -->
<g id="node14" class="node">
<title>Node14</title>
<g id="a_node14"><a xlink:title=" ">
<polygon fill="#e0e0e0" stroke="#999999" points="897.5,-79.5 828.5,-79.5 828.5,-60.5 897.5,-60.5 897.5,-79.5"/>
<text text-anchor="middle" x="863" y="-67.5" font-family="Helvetica,sans-Serif" font-size="10.00">Eigen/Core</text>
</a>
</g>
</g>
<!-- Node10&#45;&gt;Node14 -->
<g id="edge13" class="edge">
<title>Node10&#45;&gt;Node14</title>
<path fill="none" stroke="#63b8ff" d="M710.74,-126.37C741.39,-115.22 794.93,-95.75 829.66,-83.12"/>
<polygon fill="#63b8ff" stroke="#63b8ff" points="831.16,-86.3 839.36,-79.6 828.77,-79.72 831.16,-86.3"/>
</g>
<!-- Node15&#45;&gt;Node3 -->
<g id="edge15" class="edge">
<title>Node15&#45;&gt;Node3</title>
<path fill="none" stroke="#63b8ff" d="M151.87,-120.8C159.29,-111.11 169.14,-98.24 176.98,-88.01"/>
<polygon fill="#63b8ff" stroke="#63b8ff" points="179.93,-89.91 183.23,-79.84 174.37,-85.66 179.93,-89.91"/>
</g>
<!-- Node16 -->
<g id="node16" class="node">
<title>Node16</title>
<g id="a_node16"><a xlink:title=" ">
<polygon fill="#e0e0e0" stroke="#999999" points="44,-79.5 0,-79.5 0,-60.5 44,-60.5 44,-79.5"/>
<text text-anchor="middle" x="22" y="-67.5" font-family="Helvetica,sans-Serif" font-size="10.00">string</text>
</a>
</g>
</g>
<!-- Node15&#45;&gt;Node16 -->
<g id="edge16" class="edge">
<title>Node15&#45;&gt;Node16</title>
<path fill="none" stroke="#63b8ff" d="M114.88,-120.95C94.66,-110.08 66.82,-95.11 46.91,-84.4"/>
<polygon fill="#63b8ff" stroke="#63b8ff" points="48.3,-81.17 37.84,-79.52 44.99,-87.34 48.3,-81.17"/>
</g>
<!-- Node17 -->
<g id="node17" class="node">
<title>Node17</title>
<g id="a_node17"><a xlink:title=" ">
<polygon fill="#e0e0e0" stroke="#999999" points="119.5,-79.5 62.5,-79.5 62.5,-60.5 119.5,-60.5 119.5,-79.5"/>
<text text-anchor="middle" x="91" y="-67.5" font-family="Helvetica,sans-Serif" font-size="10.00">typeinfo</text>
</a>
</g>
</g>
<!-- Node15&#45;&gt;Node17 -->
<g id="edge17" class="edge">
<title>Node15&#45;&gt;Node17</title>
<path fill="none" stroke="#63b8ff" d="M129.9,-120.8C122.34,-111.11 112.28,-98.24 104.29,-88.01"/>
<polygon fill="#63b8ff" stroke="#63b8ff" points="106.82,-85.57 97.91,-79.84 101.31,-89.88 106.82,-85.57"/>
</g>
</g>
</svg>
