<?xml version="1.0" encoding="UTF-8" standalone="no"?>
<!DOCTYPE svg PUBLIC "-//W3C//DTD SVG 1.1//EN"
 "http://www.w3.org/Graphics/SVG/1.1/DTD/svg11.dtd">
<!-- Generated by graphviz version 2.43.0 (0)
 -->
<!-- Title: print.hpp Pages: 1 -->
<svg width="651pt" height="148pt"
 viewBox="0.00 0.00 651.00 148.00" xmlns="http://www.w3.org/2000/svg" xmlns:xlink="http://www.w3.org/1999/xlink">
<g id="graph0" class="graph" transform="scale(1 1) rotate(0) translate(4 144)">
<title>print.hpp</title>
<!-- Node1 -->
<g id="node1" class="node">
<title>Node1</title>
<g id="a_node1"><a xlink:title=" ">
<polygon fill="#999999" stroke="#666666" points="469.5,-140 409.5,-140 409.5,-121 469.5,-121 469.5,-140"/>
<text text-anchor="middle" x="439.5" y="-128" font-family="Helvetica,sans-Serif" font-size="10.00">print.hpp</text>
</a>
</g>
</g>
<!-- Node2 -->
<g id="node2" class="node">
<title>Node2</title>
<g id="a_node2"><a xlink:href="export_8hpp.html" target="_top" xlink:title=" ">
<polygon fill="white" stroke="#666666" points="184,-85 79,-85 79,-66 184,-66 184,-85"/>
<text text-anchor="middle" x="131.5" y="-73" font-family="Helvetica,sans-Serif" font-size="10.00">alpaqa/export.hpp</text>
</a>
</g>
</g>
<!-- Node1&#45;&gt;Node2 -->
<g id="edge1" class="edge">
<title>Node1&#45;&gt;Node2</title>
<path fill="none" stroke="#63b8ff" d="M409.41,-124.32C359.05,-115.66 256.79,-98.06 191.35,-86.8"/>
<polygon fill="#63b8ff" stroke="#63b8ff" points="191.62,-83.29 181.17,-85.05 190.43,-90.19 191.62,-83.29"/>
</g>
<!-- Node4 -->
<g id="node4" class="node">
<title>Node4</title>
<g id="a_node4"><a xlink:href="float_8hpp.html" target="_top" xlink:title=" ">
<polygon fill="white" stroke="#666666" points="365.5,-85 251.5,-85 251.5,-66 365.5,-66 365.5,-85"/>
<text text-anchor="middle" x="308.5" y="-73" font-family="Helvetica,sans-Serif" font-size="10.00">alpaqa/util/float.hpp</text>
</a>
</g>
</g>
<!-- Node1&#45;&gt;Node4 -->
<g id="edge3" class="edge">
<title>Node1&#45;&gt;Node4</title>
<path fill="none" stroke="#63b8ff" d="M418.45,-120.98C397.09,-112.34 363.8,-98.87 339.44,-89.02"/>
<polygon fill="#63b8ff" stroke="#63b8ff" points="340.51,-85.68 329.93,-85.17 337.89,-92.17 340.51,-85.68"/>
</g>
<!-- Node10 -->
<g id="node10" class="node">
<title>Node10</title>
<g id="a_node10"><a xlink:title=" ">
<polygon fill="#e0e0e0" stroke="#999999" points="431.5,-85 383.5,-85 383.5,-66 431.5,-66 431.5,-85"/>
<text text-anchor="middle" x="407.5" y="-73" font-family="Helvetica,sans-Serif" font-size="10.00">iosfwd</text>
</a>
</g>
</g>
<!-- Node1&#45;&gt;Node10 -->
<g id="edge9" class="edge">
<title>Node1&#45;&gt;Node10</title>
<path fill="none" stroke="#63b8ff" d="M434.22,-120.75C429.79,-113.42 423.34,-102.73 417.88,-93.7"/>
<polygon fill="#63b8ff" stroke="#63b8ff" points="420.85,-91.84 412.69,-85.09 414.86,-95.46 420.85,-91.84"/>
</g>
<!-- Node11 -->
<g id="node11" class="node">
<title>Node11</title>
<g id="a_node11"><a xlink:title=" ">
<polygon fill="#e0e0e0" stroke="#999999" points="493.5,-85 449.5,-85 449.5,-66 493.5,-66 493.5,-85"/>
<text text-anchor="middle" x="471.5" y="-73" font-family="Helvetica,sans-Serif" font-size="10.00">limits</text>
</a>
</g>
</g>
<!-- Node1&#45;&gt;Node11 -->
<g id="edge10" class="edge">
<title>Node1&#45;&gt;Node11</title>
<path fill="none" stroke="#63b8ff" d="M444.78,-120.75C449.21,-113.42 455.66,-102.73 461.12,-93.7"/>
<polygon fill="#63b8ff" stroke="#63b8ff" points="464.14,-95.46 466.31,-85.09 458.15,-91.84 464.14,-95.46"/>
</g>
<!-- Node12 -->
<g id="node12" class="node">
<title>Node12</title>
<g id="a_node12"><a xlink:title=" ">
<polygon fill="#e0e0e0" stroke="#999999" points="555.5,-85 511.5,-85 511.5,-66 555.5,-66 555.5,-85"/>
<text text-anchor="middle" x="533.5" y="-73" font-family="Helvetica,sans-Serif" font-size="10.00">string</text>
</a>
</g>
</g>
<!-- Node1&#45;&gt;Node12 -->
<g id="edge11" class="edge">
<title>Node1&#45;&gt;Node12</title>
<path fill="none" stroke="#63b8ff" d="M454.6,-120.98C469.32,-112.69 491.92,-99.94 509.17,-90.22"/>
<polygon fill="#63b8ff" stroke="#63b8ff" points="511.13,-93.13 518.12,-85.17 507.69,-87.03 511.13,-93.13"/>
</g>
<!-- Node13 -->
<g id="node13" class="node">
<title>Node13</title>
<g id="a_node13"><a xlink:title=" ">
<polygon fill="#e0e0e0" stroke="#999999" points="643,-85 574,-85 574,-66 643,-66 643,-85"/>
<text text-anchor="middle" x="608.5" y="-73" font-family="Helvetica,sans-Serif" font-size="10.00">Eigen/Core</text>
</a>
</g>
</g>
<!-- Node1&#45;&gt;Node13 -->
<g id="edge12" class="edge">
<title>Node1&#45;&gt;Node13</title>
<path fill="none" stroke="#63b8ff" d="M466.65,-120.98C495.03,-112.09 539.73,-98.07 571.36,-88.15"/>
<polygon fill="#63b8ff" stroke="#63b8ff" points="572.64,-91.41 581.13,-85.08 570.55,-84.73 572.64,-91.41"/>
</g>
<!-- Node3 -->
<g id="node3" class="node">
<title>Node3</title>
<g id="a_node3"><a xlink:title=" ">
<polygon fill="#e0e0e0" stroke="#999999" points="93,-24.5 0,-24.5 0,-5.5 93,-5.5 93,-24.5"/>
<text text-anchor="middle" x="46.5" y="-12.5" font-family="Helvetica,sans-Serif" font-size="10.00">alpaqa/export.h</text>
</a>
</g>
</g>
<!-- Node2&#45;&gt;Node3 -->
<g id="edge2" class="edge">
<title>Node2&#45;&gt;Node3</title>
<path fill="none" stroke="#63b8ff" d="M118.96,-65.87C105.4,-56.54 83.56,-41.51 67.4,-30.38"/>
<polygon fill="#63b8ff" stroke="#63b8ff" points="69.32,-27.45 59.09,-24.67 65.35,-33.22 69.32,-27.45"/>
</g>
<!-- Node5 -->
<g id="node5" class="node">
<title>Node5</title>
<g id="a_node5"><a xlink:href="quadmath_8hpp.html" target="_top" xlink:title=" ">
<polygon fill="white" stroke="#666666" points="232,-30 111,-30 111,0 232,0 232,-30"/>
<text text-anchor="start" x="119" y="-18" font-family="Helvetica,sans-Serif" font-size="10.00">alpaqa/util/quadmath</text>
<text text-anchor="middle" x="171.5" y="-7" font-family="Helvetica,sans-Serif" font-size="10.00">/quadmath.hpp</text>
</a>
</g>
</g>
<!-- Node4&#45;&gt;Node5 -->
<g id="edge4" class="edge">
<title>Node4&#45;&gt;Node5</title>
<path fill="none" stroke="#63b8ff" d="M288.58,-65.99C269.03,-57.65 238.62,-44.66 213.69,-34.02"/>
<polygon fill="#63b8ff" stroke="#63b8ff" points="215.01,-30.77 204.44,-30.06 212.26,-37.21 215.01,-30.77"/>
</g>
<!-- Node6 -->
<g id="node6" class="node">
<title>Node6</title>
<g id="a_node6"><a xlink:title=" ">
<polygon fill="#e0e0e0" stroke="#999999" points="297,-24.5 250,-24.5 250,-5.5 297,-5.5 297,-24.5"/>
<text text-anchor="middle" x="273.5" y="-12.5" font-family="Helvetica,sans-Serif" font-size="10.00">cmath</text>
</a>
</g>
</g>
<!-- Node4&#45;&gt;Node6 -->
<g id="edge5" class="edge">
<title>Node4&#45;&gt;Node6</title>
<path fill="none" stroke="#63b8ff" d="M303.34,-65.87C298.27,-57.4 290.4,-44.24 284.01,-33.57"/>
<polygon fill="#63b8ff" stroke="#63b8ff" points="286.82,-31.45 278.69,-24.67 280.82,-35.05 286.82,-31.45"/>
</g>
<!-- Node7 -->
<g id="node7" class="node">
<title>Node7</title>
<g id="a_node7"><a xlink:title=" ">
<polygon fill="#e0e0e0" stroke="#999999" points="374,-24.5 315,-24.5 315,-5.5 374,-5.5 374,-24.5"/>
<text text-anchor="middle" x="344.5" y="-12.5" font-family="Helvetica,sans-Serif" font-size="10.00">complex</text>
</a>
</g>
</g>
<!-- Node4&#45;&gt;Node7 -->
<g id="edge6" class="edge">
<title>Node4&#45;&gt;Node7</title>
<path fill="none" stroke="#63b8ff" d="M313.81,-65.87C319.08,-57.31 327.29,-43.97 333.89,-33.24"/>
<polygon fill="#63b8ff" stroke="#63b8ff" points="336.91,-35.02 339.17,-24.67 330.94,-31.35 336.91,-35.02"/>
</g>
<!-- Node8 -->
<g id="node8" class="node">
<title>Node8</title>
<g id="a_node8"><a xlink:title=" ">
<polygon fill="#e0e0e0" stroke="#999999" points="452.5,-24.5 392.5,-24.5 392.5,-5.5 452.5,-5.5 452.5,-24.5"/>
<text text-anchor="middle" x="422.5" y="-12.5" font-family="Helvetica,sans-Serif" font-size="10.00">concepts</text>
</a>
</g>
</g>
<!-- Node4&#45;&gt;Node8 -->
<g id="edge7" class="edge">
<title>Node4&#45;&gt;Node8</title>
<path fill="none" stroke="#63b8ff" d="M325.32,-65.87C344.1,-56.23 374.7,-40.53 396.55,-29.31"/>
<polygon fill="#63b8ff" stroke="#63b8ff" points="398.31,-32.35 405.61,-24.67 395.11,-26.12 398.31,-32.35"/>
</g>
<!-- Node9 -->
<g id="node9" class="node">
<title>Node9</title>
<g id="a_node9"><a xlink:title=" ">
<polygon fill="#e0e0e0" stroke="#999999" points="540,-24.5 471,-24.5 471,-5.5 540,-5.5 540,-24.5"/>
<text text-anchor="middle" x="505.5" y="-12.5" font-family="Helvetica,sans-Serif" font-size="10.00">type_traits</text>
</a>
</g>
</g>
<!-- Node4&#45;&gt;Node9 -->
<g id="edge8" class="edge">
<title>Node4&#45;&gt;Node9</title>
<path fill="none" stroke="#63b8ff" d="M338.76,-65.94C369.67,-57.14 419.03,-42.93 461.5,-30 464.07,-29.22 466.72,-28.4 469.39,-27.57"/>
<polygon fill="#63b8ff" stroke="#63b8ff" points="470.52,-30.88 479.01,-24.55 468.42,-24.21 470.52,-30.88"/>
</g>
</g>
</svg>
