<?xml version="1.0" encoding="UTF-8" standalone="no"?>
<!DOCTYPE svg PUBLIC "-//W3C//DTD SVG 1.1//EN"
 "http://www.w3.org/Graphics/SVG/1.1/DTD/svg11.dtd">
<!-- Generated by graphviz version 2.43.0 (0)
 -->
<!-- Title: initialize Pages: 1 -->
<svg width="447pt" height="338pt"
 viewBox="0.00 0.00 447.00 338.00" xmlns="http://www.w3.org/2000/svg" xmlns:xlink="http://www.w3.org/1999/xlink">
<g id="graph0" class="graph" transform="scale(1 1) rotate(0) translate(4 334)">
<title>initialize</title>
<!-- Node1 -->
<g id="node1" class="node">
<title>Node1</title>
<g id="a_node1"><a xlink:title=" ">
<polygon fill="#999999" stroke="#666666" points="59,-180.5 0,-180.5 0,-161.5 59,-161.5 59,-180.5"/>
<text text-anchor="middle" x="29.5" y="-168.5" font-family="Helvetica,sans-Serif" font-size="10.00">initialize</text>
</a>
</g>
</g>
<!-- Node2 -->
<g id="node2" class="node">
<title>Node2</title>
<g id="a_node2"><a xlink:href="classalpaqa_1_1TypeErasedProblem.html#a4cb358cffb880a83ec60933c6d44cef4" target="_top" xlink:title="[Required] Number of constraints.">
<polygon fill="white" stroke="#666666" points="250,-330 98,-330 98,-300 250,-300 250,-330"/>
<text text-anchor="start" x="106" y="-318" font-family="Helvetica,sans-Serif" font-size="10.00">alpaqa::TypeErasedProblem</text>
<text text-anchor="middle" x="174" y="-307" font-family="Helvetica,sans-Serif" font-size="10.00">::get_m</text>
</a>
</g>
</g>
<!-- Node1&#45;&gt;Node2 -->
<g id="edge1" class="edge">
<title>Node1&#45;&gt;Node2</title>
<path fill="none" stroke="#63b8ff" d="M32.97,-180.72C39.27,-203.49 58.09,-260.66 95,-291 96.56,-292.28 98.19,-293.5 99.87,-294.64"/>
<polygon fill="#63b8ff" stroke="#63b8ff" points="98.31,-297.79 108.69,-299.87 101.87,-291.76 98.31,-297.79"/>
</g>
<!-- Node3 -->
<g id="node3" class="node">
<title>Node3</title>
<g id="a_node3"><a xlink:href="classalpaqa_1_1TypeErasedProblem.html#a3e0872a0f29741da3d5429fce2749a34" target="_top" xlink:title="[Required] Number of decision variables.">
<polygon fill="white" stroke="#666666" points="250,-282 98,-282 98,-252 250,-252 250,-282"/>
<text text-anchor="start" x="106" y="-270" font-family="Helvetica,sans-Serif" font-size="10.00">alpaqa::TypeErasedProblem</text>
<text text-anchor="middle" x="174" y="-259" font-family="Helvetica,sans-Serif" font-size="10.00">::get_n</text>
</a>
</g>
</g>
<!-- Node1&#45;&gt;Node3 -->
<g id="edge2" class="edge">
<title>Node1&#45;&gt;Node3</title>
<path fill="none" stroke="#63b8ff" d="M36.76,-180.93C47.05,-196.44 68.99,-226.35 95,-243 97.6,-244.66 100.32,-246.22 103.13,-247.67"/>
<polygon fill="#63b8ff" stroke="#63b8ff" points="101.79,-250.91 112.33,-251.97 104.75,-244.57 101.79,-250.91"/>
</g>
<!-- Node4 -->
<g id="node4" class="node">
<title>Node4</title>
<g id="a_node4"><a xlink:href="classalpaqa_1_1TypeErasedProblem.html#ab6c62b31d326c310c39212fa6331fe6d" target="_top" xlink:title="Returns true if the problem provides an implementation of eval_grad_gi.">
<polygon fill="white" stroke="#666666" points="250,-234 98,-234 98,-204 250,-204 250,-234"/>
<text text-anchor="start" x="106" y="-222" font-family="Helvetica,sans-Serif" font-size="10.00">alpaqa::TypeErasedProblem</text>
<text text-anchor="middle" x="174" y="-211" font-family="Helvetica,sans-Serif" font-size="10.00">::provides_eval_grad_gi</text>
</a>
</g>
</g>
<!-- Node1&#45;&gt;Node4 -->
<g id="edge3" class="edge">
<title>Node1&#45;&gt;Node4</title>
<path fill="none" stroke="#63b8ff" d="M55.19,-180.57C67.15,-185.11 81.76,-190.51 95,-195 100.81,-196.97 106.89,-198.97 112.98,-200.91"/>
<polygon fill="#63b8ff" stroke="#63b8ff" points="111.92,-204.25 122.51,-203.93 114.03,-197.58 111.92,-204.25"/>
</g>
<!-- Node6 -->
<g id="node6" class="node">
<title>Node6</title>
<g id="a_node6"><a xlink:href="classalpaqa_1_1TypeErasedProblem.html#a1fbd424119305ac21128594a2f27086d" target="_top" xlink:title="Returns true if the problem provides an implementation of eval_hess_ψ_prod.">
<polygon fill="white" stroke="#666666" points="253,-186 95,-186 95,-156 253,-156 253,-186"/>
<text text-anchor="start" x="103" y="-174" font-family="Helvetica,sans-Serif" font-size="10.00">alpaqa::TypeErasedProblem</text>
<text text-anchor="middle" x="174" y="-163" font-family="Helvetica,sans-Serif" font-size="10.00">::provides_eval_hess_ψ_prod</text>
</a>
</g>
</g>
<!-- Node1&#45;&gt;Node6 -->
<g id="edge5" class="edge">
<title>Node1&#45;&gt;Node6</title>
<path fill="none" stroke="#63b8ff" d="M59.34,-171C67.04,-171 75.79,-171 84.92,-171"/>
<polygon fill="#63b8ff" stroke="#63b8ff" points="84.96,-174.5 94.96,-171 84.96,-167.5 84.96,-174.5"/>
</g>
<!-- Node8 -->
<g id="node8" class="node">
<title>Node8</title>
<g id="a_node8"><a xlink:href="classalpaqa_1_1TypeErasedProblem.html#a9328096779a46c83fb264bfd3009568f" target="_top" xlink:title="Returns true if the problem provides an implementation of eval_hess_L_prod.">
<polygon fill="white" stroke="#666666" points="252,-138 96,-138 96,-108 252,-108 252,-138"/>
<text text-anchor="start" x="104" y="-126" font-family="Helvetica,sans-Serif" font-size="10.00">alpaqa::TypeErasedProblem</text>
<text text-anchor="middle" x="174" y="-115" font-family="Helvetica,sans-Serif" font-size="10.00">::provides_eval_hess_L_prod</text>
</a>
</g>
</g>
<!-- Node1&#45;&gt;Node8 -->
<g id="edge7" class="edge">
<title>Node1&#45;&gt;Node8</title>
<path fill="none" stroke="#63b8ff" d="M55.19,-161.43C67.15,-156.89 81.76,-151.49 95,-147 100.81,-145.03 106.89,-143.03 112.98,-141.09"/>
<polygon fill="#63b8ff" stroke="#63b8ff" points="114.03,-144.42 122.51,-138.07 111.92,-137.75 114.03,-144.42"/>
</g>
<!-- Node10 -->
<g id="node10" class="node">
<title>Node10</title>
<g id="a_node10"><a xlink:href="classalpaqa_1_1TypeErasedProblem.html#a53b4d08432e97770dcae02dba82378fa" target="_top" xlink:title="Returns true if the problem provides an implementation of eval_inactive_indices_res_lna.">
<polygon fill="white" stroke="#666666" points="250,-89.5 98,-89.5 98,-48.5 250,-48.5 250,-89.5"/>
<text text-anchor="start" x="106" y="-77.5" font-family="Helvetica,sans-Serif" font-size="10.00">alpaqa::TypeErasedProblem</text>
<text text-anchor="start" x="106" y="-66.5" font-family="Helvetica,sans-Serif" font-size="10.00">::provides_eval_inactive</text>
<text text-anchor="middle" x="174" y="-55.5" font-family="Helvetica,sans-Serif" font-size="10.00">_indices_res_lna</text>
</a>
</g>
</g>
<!-- Node1&#45;&gt;Node10 -->
<g id="edge9" class="edge">
<title>Node1&#45;&gt;Node10</title>
<path fill="none" stroke="#63b8ff" d="M36.9,-161.28C47.38,-146.06 69.58,-116.53 95,-99 97.35,-97.38 99.8,-95.83 102.32,-94.35"/>
<polygon fill="#63b8ff" stroke="#63b8ff" points="103.99,-97.43 111.13,-89.59 100.66,-91.27 103.99,-97.43"/>
</g>
<!-- Node12 -->
<g id="node12" class="node">
<title>Node12</title>
<g id="a_node12"><a xlink:href="classalpaqa_1_1TypeErasedProblem.html#ae00dab51fb2143c5d88a29e8a0a564c5" target="_top" xlink:title="Returns true if the problem provides an implementation of get_box_D.">
<polygon fill="white" stroke="#666666" points="250,-30 98,-30 98,0 250,0 250,-30"/>
<text text-anchor="start" x="106" y="-18" font-family="Helvetica,sans-Serif" font-size="10.00">alpaqa::TypeErasedProblem</text>
<text text-anchor="middle" x="174" y="-7" font-family="Helvetica,sans-Serif" font-size="10.00">::provides_get_box_D</text>
</a>
</g>
</g>
<!-- Node1&#45;&gt;Node12 -->
<g id="edge11" class="edge">
<title>Node1&#45;&gt;Node12</title>
<path fill="none" stroke="#63b8ff" d="M32.43,-161.42C37.8,-137.18 55.26,-72.98 95,-39 96.37,-37.83 97.8,-36.72 99.27,-35.66"/>
<polygon fill="#63b8ff" stroke="#63b8ff" points="101.5,-38.39 108.16,-30.16 97.82,-32.44 101.5,-38.39"/>
</g>
<!-- Node5 -->
<g id="node5" class="node">
<title>Node5</title>
<g id="a_node5"><a xlink:href="structalpaqa_1_1ProblemVTable.html#a57d1d17bd1789f429d0971df8fb05253" target="_top" xlink:title=" ">
<polygon fill="white" stroke="#666666" points="428,-234 300,-234 300,-204 428,-204 428,-234"/>
<text text-anchor="start" x="308" y="-222" font-family="Helvetica,sans-Serif" font-size="10.00">alpaqa::ProblemVTable</text>
<text text-anchor="middle" x="364" y="-211" font-family="Helvetica,sans-Serif" font-size="10.00">::default_eval_grad_gi</text>
</a>
</g>
</g>
<!-- Node4&#45;&gt;Node5 -->
<g id="edge4" class="edge">
<title>Node4&#45;&gt;Node5</title>
<path fill="none" stroke="#63b8ff" d="M250.11,-219C263.11,-219 276.6,-219 289.55,-219"/>
<polygon fill="#63b8ff" stroke="#63b8ff" points="289.8,-222.5 299.8,-219 289.8,-215.5 289.8,-222.5"/>
</g>
<!-- Node7 -->
<g id="node7" class="node">
<title>Node7</title>
<g id="a_node7"><a xlink:href="structalpaqa_1_1ProblemVTable.html#a34dd726e23daeb68656647a4f8ad6216" target="_top" xlink:title=" ">
<polygon fill="white" stroke="#666666" points="439,-186 289,-186 289,-156 439,-156 439,-186"/>
<text text-anchor="start" x="297" y="-174" font-family="Helvetica,sans-Serif" font-size="10.00">alpaqa::ProblemVTable</text>
<text text-anchor="middle" x="364" y="-163" font-family="Helvetica,sans-Serif" font-size="10.00">::default_eval_hess_ψ_prod</text>
</a>
</g>
</g>
<!-- Node6&#45;&gt;Node7 -->
<g id="edge6" class="edge">
<title>Node6&#45;&gt;Node7</title>
<path fill="none" stroke="#63b8ff" d="M253.1,-171C261.49,-171 270.05,-171 278.51,-171"/>
<polygon fill="#63b8ff" stroke="#63b8ff" points="278.77,-174.5 288.77,-171 278.77,-167.5 278.77,-174.5"/>
</g>
<!-- Node9 -->
<g id="node9" class="node">
<title>Node9</title>
<g id="a_node9"><a xlink:href="structalpaqa_1_1ProblemVTable.html#a2f9375367eb5d2cbee5d4589ed9e1c2f" target="_top" xlink:title=" ">
<polygon fill="white" stroke="#666666" points="438.5,-138 289.5,-138 289.5,-108 438.5,-108 438.5,-138"/>
<text text-anchor="start" x="297.5" y="-126" font-family="Helvetica,sans-Serif" font-size="10.00">alpaqa::ProblemVTable</text>
<text text-anchor="middle" x="364" y="-115" font-family="Helvetica,sans-Serif" font-size="10.00">::default_eval_hess_L_prod</text>
</a>
</g>
</g>
<!-- Node8&#45;&gt;Node9 -->
<g id="edge8" class="edge">
<title>Node8&#45;&gt;Node9</title>
<path fill="none" stroke="#63b8ff" d="M252.01,-123C261,-123 270.2,-123 279.27,-123"/>
<polygon fill="#63b8ff" stroke="#63b8ff" points="279.45,-126.5 289.45,-123 279.45,-119.5 279.45,-126.5"/>
</g>
<!-- Node11 -->
<g id="node11" class="node">
<title>Node11</title>
<g id="a_node11"><a xlink:href="structalpaqa_1_1ProblemVTable.html#ace21a0c334d237f42db309c082439e7f" target="_top" xlink:title=" ">
<polygon fill="white" stroke="#666666" points="428,-89.5 300,-89.5 300,-48.5 428,-48.5 428,-89.5"/>
<text text-anchor="start" x="308" y="-77.5" font-family="Helvetica,sans-Serif" font-size="10.00">alpaqa::ProblemVTable</text>
<text text-anchor="start" x="308" y="-66.5" font-family="Helvetica,sans-Serif" font-size="10.00">::default_eval_inactive</text>
<text text-anchor="middle" x="364" y="-55.5" font-family="Helvetica,sans-Serif" font-size="10.00">_indices_res_lna</text>
</a>
</g>
</g>
<!-- Node10&#45;&gt;Node11 -->
<g id="edge10" class="edge">
<title>Node10&#45;&gt;Node11</title>
<path fill="none" stroke="#63b8ff" d="M250.11,-69C263.11,-69 276.6,-69 289.55,-69"/>
<polygon fill="#63b8ff" stroke="#63b8ff" points="289.8,-72.5 299.8,-69 289.8,-65.5 289.8,-72.5"/>
</g>
<!-- Node13 -->
<g id="node13" class="node">
<title>Node13</title>
<g id="a_node13"><a xlink:href="structalpaqa_1_1ProblemVTable.html#a984c0b730741e239ffa433b88b755304" target="_top" xlink:title=" ">
<polygon fill="white" stroke="#666666" points="428,-30 300,-30 300,0 428,0 428,-30"/>
<text text-anchor="start" x="308" y="-18" font-family="Helvetica,sans-Serif" font-size="10.00">alpaqa::ProblemVTable</text>
<text text-anchor="middle" x="364" y="-7" font-family="Helvetica,sans-Serif" font-size="10.00">::default_get_box_D</text>
</a>
</g>
</g>
<!-- Node12&#45;&gt;Node13 -->
<g id="edge12" class="edge">
<title>Node12&#45;&gt;Node13</title>
<path fill="none" stroke="#63b8ff" d="M250.11,-15C263.11,-15 276.6,-15 289.55,-15"/>
<polygon fill="#63b8ff" stroke="#63b8ff" points="289.8,-18.5 299.8,-15 289.8,-11.5 289.8,-18.5"/>
</g>
</g>
</svg>
