<?xml version="1.0" encoding="UTF-8" standalone="no"?>
<!DOCTYPE svg PUBLIC "-//W3C//DTD SVG 1.1//EN"
 "http://www.w3.org/Graphics/SVG/1.1/DTD/svg11.dtd">
<!-- Generated by graphviz version 2.43.0 (0)
 -->
<!-- Title: indices Pages: 1 -->
<svg width="146pt" height="64pt"
 viewBox="0.00 0.00 146.00 64.00" xmlns="http://www.w3.org/2000/svg" xmlns:xlink="http://www.w3.org/1999/xlink">
<g id="graph0" class="graph" transform="scale(1 1) rotate(0) translate(4 60)">
<title>indices</title>
<!-- Node1 -->
<g id="node1" class="node">
<title>Node1</title>
<g id="a_node1"><a xlink:title=" ">
<polygon fill="#999999" stroke="#666666" points="51,-37 0,-37 0,-18 51,-18 51,-37"/>
<text text-anchor="middle" x="25.5" y="-25" font-family="Helvetica,sans-Serif" font-size="10.00">indices</text>
</a>
</g>
</g>
<!-- Node2 -->
<g id="node2" class="node">
<title>Node2</title>
<g id="a_node2"><a xlink:href="structalpaqa_1_1detail_1_1IndexSet.html#ad31b9dec898577e38e99847e3d68cade" target="_top" xlink:title=" ">
<polygon fill="white" stroke="#666666" points="138,-56 87,-56 87,-37 138,-37 138,-56"/>
<text text-anchor="middle" x="112.5" y="-44" font-family="Helvetica,sans-Serif" font-size="10.00">indices</text>
</a>
</g>
</g>
<!-- Node1&#45;&gt;Node2 -->
<g id="edge1" class="edge">
<title>Node1&#45;&gt;Node2</title>
<path fill="none" stroke="#63b8ff" d="M51.09,-33C59.19,-34.81 68.36,-36.86 77.06,-38.8"/>
<polygon fill="#63b8ff" stroke="#63b8ff" points="76.45,-42.25 86.97,-41.02 77.97,-35.42 76.45,-42.25"/>
</g>
<!-- Node3 -->
<g id="node3" class="node">
<title>Node3</title>
<g id="a_node3"><a xlink:href="structalpaqa_1_1detail_1_1IndexSet.html#a1c2baa260eff1ba74daef8cd60c44426" target="_top" xlink:title=" ">
<polygon fill="white" stroke="#666666" points="133,-19 92,-19 92,0 133,0 133,-19"/>
<text text-anchor="middle" x="112.5" y="-7" font-family="Helvetica,sans-Serif" font-size="10.00">sizes</text>
</a>
</g>
</g>
<!-- Node1&#45;&gt;Node3 -->
<g id="edge2" class="edge">
<title>Node1&#45;&gt;Node3</title>
<path fill="none" stroke="#63b8ff" d="M51.09,-22.29C60.69,-20.26 71.79,-17.91 81.84,-15.78"/>
<polygon fill="#63b8ff" stroke="#63b8ff" points="82.76,-19.16 91.82,-13.67 81.31,-12.32 82.76,-19.16"/>
</g>
</g>
</svg>
